# File exported by Houdini 16.5.405 (www.sidefx.com)
# 81 points
# 474 vertices
# 158 primitives
# Bounds: [-32.3469315, -1.07763994, -33.2503242] to [31.8742046, 84.6380386, 33.040596]
g 
v 0.729348004 77.2046127 23.8441086
v 24.0563946 49.868679 -15.0603552
v 17.6519299 17.8679695 -24.9769363
v 13.2167482 20.5681152 -28.9704933
v -12.0802069 -1.07763994 15.6192303
v -17.9010754 0.834929168 -19.5312138
v 7.79731941 48.4736786 -30.3416424
v 16.2641106 78.1249542 17.1639481
v -32.3469315 30.8006363 -4.31895304
v 28.1860352 54.8242302 16.4816933
v -17.0132389 13.5674009 27.0408459
v 1.86480999 42.8088493 -33.2503242
v 20.4637623 37.2614288 27.7393875
v -29.021492 38.1434822 4.72692728
v -6.7986207 62.0208206 -0.671948195
v -22.4673729 21.8566628 23.0143585
v 30.211195 14.4167376 13.0960865
v -9.85522175 32.2605324 32.1331558
v 0.297889382 -0.807356656 -24.6455421
v 18.8553429 76.6572037 -1.99808323
v -19.6349716 15.9765778 25.2872868
v 8.65743637 0.922978997 27.0494442
v 16.4242458 -0.970887065 15.2079296
v 7.45812321 83.6915359 17.5971622
v 12.412859 7.22613192 -27.3139172
v -24.7933769 0.975524366 -10.4344444
v 14.4232864 74.9296875 -7.43600178
v -6.87123537 60.8559685 31.6838455
v 29.6413975 47.9530144 -7.3630929
v -20.0429859 18.6460152 -28.0706692
v 19.1804695 16.6521378 28.0031109
v -2.2023797 53.9272194 -26.0834866
v 31.8742046 43.9679222 6.91428471
v -1.42216837 1.95891547 28.5407696
v 1.29720008 76.3160934 26.7052441
v 27.114645 68.7097626 2.15765023
v 10.364974 14.2681952 32.3868256
v 14.1799212 -0.853786588 -6.95856428
v 14.1578865 43.3730621 32.0478477
v 14.4278269 83.5377579 7.03882599
v -29.4208183 11.4763441 2.76898813
v 15.3578224 58.721756 -19.8628407
v 9.28140068 31.2609005 33.040596
v -21.5924187 -0.748583794 -8.27838612
v -14.0153284 19.065073 -32.5330315
v -17.0467625 3.91204023 17.2196827
v 31.4869404 14.4554596 7.06589794
v 4.54970837 22.8922577 -32.4748116
v -24.7473297 36.3898544 -20.3092136
v -16.7141895 45.723732 27.1112442
v 22.4814758 3.84066629 16.1245098
v 19.2311325 64.3592606 23.7145691
v -1.81548107 0.0463936552 -24.5910339
v -23.8900337 46.8895493 15.8544588
v -2.17111254 8.1565218 31.2927856
v 25.5933514 7.53259659 -0.771213949
v 20.3483829 66.5790329 21.5139198
v 1.92149138 -0.581120431 25.9780788
v -13.982008 45.5790749 -24.6965885
v 17.7884331 84.6380386 8.547616
v 16.1374435 2.07600856 -14.8490343
v 5.81735277 63.3646164 -17.6278
v 25.399826 38.9860611 -16.7801399
v 12.696084 79.8549957 18.4362717
v 30.2498093 57.8434258 0.577834547
v -1.40719306 69.85746 5.62575674
v 21.2712879 63.5226059 -10.4288998
v 20.337595 23.9710941 27.1373234
v -14.4791374 60.0929909 26.1279964
v -24.2927914 14.9533453 19.2182636
v -10.2703056 52.5470314 -15.0458212
v -26.375721 32.6422577 -20.7158508
v -19.4829941 -0.823556185 4.43176079
v 26.5015411 38.2001038 20.8174381
v 22.5532417 56.1374702 22.0770035
v 24.8668823 9.43276978 19.3319302
v 20.0507545 3.81995273 20.2372894
v -13.5941086 7.75344944 25.1828537
v 19.5644779 80.4026718 3.20433879
v 16.5179577 54.5126801 -20.3005562
v 25.8475552 7.6917572 9.57255363
vt 0.149479732 0.896495879 0
vt 0.186767891 0.770384729 0
vt 0.225717247 0.894608676 0
vt 0.288284034 0.821990788 0
vt 0.413471699 0.758351445 0
vt 0.521646202 0.946553528 0
vt 0.361326426 0.977909863 0
vt 0.288284034 0.821990788 0
vt 0.521646202 0.946553528 0
vt 0.470560223 0.198217228 0
vt 0.410762727 0.0235277172 0
vt 0.560342073 0.020815108 0
vt 0.740282238 0.585651159 0
vt 0.825753212 0.670678914 0
vt 0.656038463 0.652411401 0
vt 0.579978943 0.114327446 0
vt 0.648802161 0.0605494455 0
vt 0.616234362 0.162610963 0
vt 0.517668903 0.22930786 0
vt 0.579978943 0.114327446 0
vt 0.56131953 0.2538369 0
vt 0.413514286 0.523048878 0
vt 0.523272753 0.469283819 0
vt 0.513836086 0.541240454 0
vt 0.715453267 0.498807609 0
vt 0.776677191 0.510778069 0
vt 0.656038463 0.652411401 0
vt 0.996788561 0.435071349 0
vt 0.982890606 0.576922596 0
vt 0.941481829 0.537567079 0
vt 0.941481829 0.537567079 0
vt 0.982890606 0.576922596 0
vt 0.926276445 0.652712166 0
vt 0.273214221 0.583650887 0
vt 0.211497396 0.679553032 0
vt 0.195916384 0.499040276 0
vt 0.091354616 0.0245154761 0
vt 0.116026901 0.0913155973 0
vt 0.0277251396 0.0940350369 0
vt 0.278147727 0.330076605 0
vt 0.410762727 0.0235277172 0
vt 0.470560223 0.198217228 0
vt 0.224323332 0.23173508 0
vt 0.246773273 0.330809653 0
vt 0.042502366 0.287951201 0
vt 0.589805067 0.716802776 0
vt 0.534536481 0.644873738 0
vt 0.622080803 0.598095715 0
vt 0.551717937 0.771060646 0
vt 0.593757153 0.745963454 0
vt 0.618469298 0.82988131 0
vt 0.529719532 0.147524044 0
vt 0.560342073 0.020815108 0
vt 0.6250754 0.0507547371 0
vt 0.195916384 0.499040276 0
vt 0.211497396 0.679553032 0
vt 0.116585225 0.62573725 0
vt 0.161276892 0.398833185 0
vt 0.036661651 0.361137599 0
vt 0.042502366 0.287951201 0
vt 0.55678618 0.378644794 0
vt 0.526523411 0.450315326 0
vt 0.486953527 0.434495449 0
vt 0.941481829 0.537567079 0
vt 0.825753212 0.670678914 0
vt 0.740282238 0.585651159 0
vt 0.825753212 0.670678914 0
vt 0.941481829 0.537567079 0
vt 0.926276445 0.652712166 0
vt 0.211497396 0.679553032 0
vt 0.288287759 0.641765296 0
vt 0.29121545 0.683476388 0
vt 0.719442546 0.393616825 0
vt 0.55678618 0.378644794 0
vt 0.69282794 0.337773532 0
vt 0.65282023 0.254462838 0
vt 0.614992857 0.339901775 0
vt 0.56131953 0.2538369 0
vt 0.521646202 0.946553528 0
vt 0.61936307 0.898495317 0
vt 0.533975184 0.990134954 0
vt 0.341392219 0.402014554 0
vt 0.425980508 0.451756001 0
vt 0.367972404 0.511200666 0
vt 0.69282794 0.337773532 0
vt 0.65282023 0.254462838 0
vt 0.784344673 0.132954016 0
vt 0.595170021 0.985340714 0
vt 0.533975184 0.990134954 0
vt 0.61936307 0.898495317 0
vt 0.55678618 0.378644794 0
vt 0.614992857 0.339901775 0
vt 0.69282794 0.337773532 0
vt 0.265098453 0.175893292 0
vt 0.278147727 0.330076605 0
vt 0.224323332 0.23173508 0
vt 0.265098453 0.175893292 0
vt 0.224323332 0.23173508 0
vt 0.106049418 0.198785827 0
vt 0.273926407 0.729300976 0
vt 0.364942223 0.731394768 0
vt 0.288284034 0.821990788 0
vt 0.857526898 0.390958339 0
vt 0.776677191 0.510778069 0
vt 0.715453267 0.498807609 0
vt 0.776677191 0.510778069 0
vt 0.740282238 0.585651159 0
vt 0.656038463 0.652411401 0
vt 0.116026901 0.0913155973 0
vt 0.106049418 0.198785827 0
vt 0.0277251396 0.0940350369 0
vt 0.521646202 0.946553528 0
vt 0.413471699 0.758351445 0
vt 0.551717937 0.771060646 0
vt 0.551717937 0.771060646 0
vt 0.466402382 0.674900234 0
vt 0.569004476 0.725376129 0
vt 0.00415412011 0.634242892 0
vt 0.186767891 0.770384729 0
vt 0.149479732 0.896495879 0
vt 0.273214221 0.583650887 0
vt 0.288287759 0.641765296 0
vt 0.211497396 0.679553032 0
vt 0.784344673 0.132954016 0
vt 0.762328386 0.106013551 0
vt 0.803521335 0.0354903713 0
vt 0.265098453 0.175893292 0
vt 0.106049418 0.198785827 0
vt 0.116026901 0.0913155973 0
vt 0.112859346 0.0408605821 0
vt 0.158859238 0.056786146 0
vt 0.116026901 0.0913155973 0
vt 0.116585225 0.62573725 0
vt 0.211497396 0.679553032 0
vt 0.120078579 0.64089185 0
vt 0.361326426 0.977909863 0
vt 0.294306099 0.940909803 0
vt 0.288284034 0.821990788 0
vt 0.513836086 0.541240454 0
vt 0.523272753 0.469283819 0
vt 0.64140141 0.490123808 0
vt 0.569004476 0.725376129 0
vt 0.466402382 0.674900234 0
vt 0.533226073 0.684578001 0
vt 0.224323332 0.23173508 0
vt 0.042502366 0.287951201 0
vt 0.106049418 0.198785827 0
vt 0.961165011 0.182038963 0
vt 0.998631179 0.265478164 0
vt 0.855574787 0.138690457 0
vt 0.521646202 0.946553528 0
vt 0.551717937 0.771060646 0
vt 0.601585627 0.871549308 0
vt 0.513836086 0.541240454 0
vt 0.493981898 0.562839448 0
vt 0.413514286 0.523048878 0
vt 0.825753212 0.670678914 0
vt 0.767783165 0.791139007 0
vt 0.656038463 0.652411401 0
vt 0.439813405 0.427878082 0
vt 0.56131953 0.2538369 0
vt 0.55678618 0.378644794 0
vt 0.091354616 0.0245154761 0
vt 0.112859346 0.0408605821 0
vt 0.116026901 0.0913155973 0
vt 0.219733372 0.934293866 0
vt 0.146400303 0.918889344 0
vt 0.225717247 0.894608676 0
vt 0.61936307 0.898495317 0
vt 0.521646202 0.946553528 0
vt 0.601585627 0.871549308 0
vt 0.165088445 0.70003289 0
vt 0.186767891 0.770384729 0
vt 0.00415412011 0.634242892 0
vt 0.529719532 0.147524044 0
vt 0.470560223 0.198217228 0
vt 0.560342073 0.020815108 0
vt 0.618469298 0.82988131 0
vt 0.601585627 0.871549308 0
vt 0.551717937 0.771060646 0
vt 0.367972404 0.511200666 0
vt 0.425980508 0.451756001 0
vt 0.413514286 0.523048878 0
vt 0.762328386 0.106013551 0
vt 0.56131953 0.2538369 0
vt 0.616234362 0.162610963 0
vt 0.0674822107 0.832325518 0
vt 0.0306353886 0.726235569 0
vt 0.00415412011 0.634242892 0
vt 0.793175459 0.797637761 0
vt 0.767783165 0.791139007 0
vt 0.825753212 0.670678914 0
vt 0.614992857 0.339901775 0
vt 0.65282023 0.254462838 0
vt 0.69282794 0.337773532 0
vt 0.523272753 0.469283819 0
vt 0.413514286 0.523048878 0
vt 0.425980508 0.451756001 0
vt 0.10527581 0.904439867 0
vt 0.0757550672 0.876672447 0
vt 0.146400303 0.918889344 0
vt 0.439813405 0.427878082 0
vt 0.55678618 0.378644794 0
vt 0.486953527 0.434495449 0
vt 0.278147727 0.330076605 0
vt 0.246773273 0.330809653 0
vt 0.224323332 0.23173508 0
vt 0.984381914 0.442103624 0
vt 0.996788561 0.435071349 0
vt 0.941481829 0.537567079 0
vt 0.996788561 0.435071349 0
vt 0.984381914 0.442103624 0
vt 0.943344653 0.336012512 0
vt 0.364942223 0.731394768 0
vt 0.413471699 0.758351445 0
vt 0.288284034 0.821990788 0
vt 0.170472145 0.46347329 0
vt 0.224413231 0.363143444 0
vt 0.195916384 0.499040276 0
vt 0.589805067 0.716802776 0
vt 0.677480757 0.73775053 0
vt 0.64173609 0.765162647 0
vt 0.317578167 0.103082314 0
vt 0.278147727 0.330076605 0
vt 0.265098453 0.175893292 0
vt 0.446803063 0.670619488 0
vt 0.29121545 0.683476388 0
vt 0.288287759 0.641765296 0
vt 0.367972404 0.511200666 0
vt 0.273214221 0.583650887 0
vt 0.195916384 0.499040276 0
vt 0.465647936 0.259062231 0
vt 0.517668903 0.22930786 0
vt 0.56131953 0.2538369 0
vt 0.825753212 0.670678914 0
vt 0.926276445 0.652712166 0
vt 0.793175459 0.797637761 0
vt 0.65282023 0.254462838 0
vt 0.56131953 0.2538369 0
vt 0.762328386 0.106013551 0
vt 0.367972404 0.511200666 0
vt 0.413514286 0.523048878 0
vt 0.273214221 0.583650887 0
vt 0.413514286 0.523048878 0
vt 0.288287759 0.641765296 0
vt 0.273214221 0.583650887 0
vt 0.656038463 0.652411401 0
vt 0.622080803 0.598095715 0
vt 0.715453267 0.498807609 0
vt 0.106049418 0.198785827 0
vt 0.042502366 0.287951201 0
vt 0.00498667918 0.186505809 0
vt 0.534536481 0.644873738 0
vt 0.538204014 0.59447062 0
vt 0.622080803 0.598095715 0
vt 0.838714123 0.791462362 0
vt 0.793175459 0.797637761 0
vt 0.926276445 0.652712166 0
vt 0.811762452 0.0887439772 0
vt 0.855574787 0.138690457 0
vt 0.784344673 0.132954016 0
vt 0.857526898 0.390958339 0
vt 0.984381914 0.442103624 0
vt 0.776677191 0.510778069 0
vt 0.36259982 0.360878319 0
vt 0.278147727 0.330076605 0
vt 0.412622303 0.297782421 0
vt 0.446803063 0.670619488 0
vt 0.413514286 0.523048878 0
vt 0.505686879 0.628223002 0
vt 0.0757550672 0.876672447 0
vt 0.0674822107 0.832325518 0
vt 0.146400303 0.918889344 0
vt 0.146400303 0.918889344 0
vt 0.0674822107 0.832325518 0
vt 0.149479732 0.896495879 0
vt 0.998631179 0.265478164 0
vt 0.926256955 0.300453842 0
vt 0.855574787 0.138690457 0
vt 0.278147727 0.330076605 0
vt 0.317578167 0.103082314 0
vt 0.410762727 0.0235277172 0
vt 0.996788561 0.435071349 0
vt 0.943344653 0.336012512 0
vt 0.966047287 0.351565629 0
vt 0.650556386 0.557733119 0
vt 0.715453267 0.498807609 0
vt 0.622080803 0.598095715 0
vt 0.787589192 0.006550455 0
vt 0.803521335 0.0354903713 0
vt 0.759487867 0.0481216088 0
vt 0.0441272445 0.030438615 0
vt 0.091354616 0.0245154761 0
vt 0.0277251396 0.0940350369 0
vt 0.288284034 0.821990788 0
vt 0.294306099 0.940909803 0
vt 0.284322351 0.834562242 0
vt 0.618469298 0.82988131 0
vt 0.61936307 0.898495317 0
vt 0.601585627 0.871549308 0
vt 0.439813405 0.427878082 0
vt 0.423774749 0.355659485 0
vt 0.56131953 0.2538369 0
vt 0.468796968 0.2807163 0
vt 0.56131953 0.2538369 0
vt 0.423774749 0.355659485 0
vt 0.361326426 0.977909863 0
vt 0.342814565 0.996643364 0
vt 0.294306099 0.940909803 0
vt 0.779467821 0.349521786 0
vt 0.69282794 0.337773532 0
vt 0.784344673 0.132954016 0
vt 0.759487867 0.0481216088 0
vt 0.803521335 0.0354903713 0
vt 0.762328386 0.106013551 0
vt 0.412622303 0.297782421 0
vt 0.278147727 0.330076605 0
vt 0.470560223 0.198217228 0
vt 0.413471699 0.758351445 0
vt 0.466402382 0.674900234 0
vt 0.551717937 0.771060646 0
vt 0.533975184 0.990134954 0
vt 0.443996251 0.981121838 0
vt 0.521646202 0.946553528 0
vt 0.224413231 0.363143444 0
vt 0.25171715 0.359220624 0
vt 0.195916384 0.499040276 0
vt 0.443996251 0.981121838 0
vt 0.361326426 0.977909863 0
vt 0.521646202 0.946553528 0
vt 0.158859238 0.056786146 0
vt 0.410762727 0.0235277172 0
vt 0.317578167 0.103082314 0
vt 0.648802161 0.0605494455 0
vt 0.681114554 0.0231933892 0
vt 0.762328386 0.106013551 0
vt 0.043457713 0.549233973 0
vt 0.090096347 0.614682555 0
vt 0.00415412011 0.634242892 0
vt 0.090096347 0.614682555 0
vt 0.165088445 0.70003289 0
vt 0.00415412011 0.634242892 0
vt 0.55678618 0.378644794 0
vt 0.56131953 0.2538369 0
vt 0.614992857 0.339901775 0
vt 0.315176427 0.017999677 0
vt 0.410762727 0.0235277172 0
vt 0.158859238 0.056786146 0
vt 0.0589871667 0.529639423 0
vt 0.195916384 0.499040276 0
vt 0.116585225 0.62573725 0
vt 0.632076561 0.435966402 0
vt 0.526523411 0.450315326 0
vt 0.55678618 0.378644794 0
vt 0.0674822107 0.832325518 0
vt 0.00415412011 0.634242892 0
vt 0.149479732 0.896495879 0
vt 0.632076561 0.435966402 0
vt 0.55678618 0.378644794 0
vt 0.719442546 0.393616825 0
vt 0.465647936 0.259062231 0
vt 0.56131953 0.2538369 0
vt 0.468796968 0.2807163 0
vt 0.864544213 0.371029645 0
vt 0.984381914 0.442103624 0
vt 0.857526898 0.390958339 0
vt 0.25171715 0.359220624 0
vt 0.341392219 0.402014554 0
vt 0.195916384 0.499040276 0
vt 0.784344673 0.132954016 0
vt 0.926256955 0.300453842 0
vt 0.779467821 0.349521786 0
vt 0.158859238 0.056786146 0
vt 0.317578167 0.103082314 0
vt 0.265098453 0.175893292 0
vt 0.288287759 0.641765296 0
vt 0.413514286 0.523048878 0
vt 0.446803063 0.670619488 0
vt 0.395650893 0.357324213 0
vt 0.423774749 0.355659485 0
vt 0.439813405 0.427878082 0
vt 0.779467821 0.349521786 0
vt 0.719442546 0.393616825 0
vt 0.69282794 0.337773532 0
vt 0.00498667918 0.186505809 0
vt 0.0277251396 0.0940350369 0
vt 0.106049418 0.198785827 0
vt 0.593757153 0.745963454 0
vt 0.551717937 0.771060646 0
vt 0.569004476 0.725376129 0
vt 0.767783165 0.791139007 0
vt 0.64173609 0.765162647 0
vt 0.677480757 0.73775053 0
vt 0.767783165 0.791139007 0
vt 0.724538743 0.808344185 0
vt 0.64173609 0.765162647 0
vt 0.246773273 0.330809653 0
vt 0.161276892 0.398833185 0
vt 0.042502366 0.287951201 0
vt 0.616234362 0.162610963 0
vt 0.648802161 0.0605494455 0
vt 0.762328386 0.106013551 0
vt 0.560342073 0.020815108 0
vt 0.643098116 0.00742693245 0
vt 0.6250754 0.0507547371 0
vt 0.195916384 0.499040276 0
vt 0.341392219 0.402014554 0
vt 0.367972404 0.511200666 0
vt 0.56131953 0.2538369 0
vt 0.579978943 0.114327446 0
vt 0.616234362 0.162610963 0
vt 0.158859238 0.056786146 0
vt 0.265098453 0.175893292 0
vt 0.116026901 0.0913155973 0
vt 0.683056772 0.513681889 0
vt 0.513836086 0.541240454 0
vt 0.64140141 0.490123808 0
vt 0.590892732 0.566065192 0
vt 0.513836086 0.541240454 0
vt 0.683056772 0.513681889 0
vt 0.941481829 0.537567079 0
vt 0.740282238 0.585651159 0
vt 0.776677191 0.510778069 0
vt 0.342814565 0.996643364 0
vt 0.361326426 0.977909863 0
vt 0.443996251 0.981121838 0
vt 0.589805067 0.716802776 0
vt 0.622080803 0.598095715 0
vt 0.656038463 0.652411401 0
vt 0.195916384 0.499040276 0
vt 0.0589871667 0.529639423 0
vt 0.170472145 0.46347329 0
vt 0.776677191 0.510778069 0
vt 0.984381914 0.442103624 0
vt 0.941481829 0.537567079 0
vt 0.146400303 0.918889344 0
vt 0.149479732 0.896495879 0
vt 0.225717247 0.894608676 0
vt 0.656038463 0.652411401 0
vt 0.767783165 0.791139007 0
vt 0.677480757 0.73775053 0
vt 0.926256955 0.300453842 0
vt 0.784344673 0.132954016 0
vt 0.855574787 0.138690457 0
vt 0.364942223 0.731394768 0
vt 0.466402382 0.674900234 0
vt 0.413471699 0.758351445 0
vt 0.784344673 0.132954016 0
vt 0.65282023 0.254462838 0
vt 0.762328386 0.106013551 0
vt 0.799271047 0.399232417 0
vt 0.857526898 0.390958339 0
vt 0.715453267 0.498807609 0
vt 0.723578274 0.462732315 0
vt 0.700061083 0.480890125 0
vt 0.719442546 0.393616825 0
vt 0.719442546 0.393616825 0
vt 0.700061083 0.480890125 0
vt 0.632076561 0.435966402 0
vt 0.493981898 0.562839448 0
vt 0.505686879 0.628223002 0
vt 0.413514286 0.523048878 0
vt 0.864544213 0.371029645 0
vt 0.943344653 0.336012512 0
vt 0.984381914 0.442103624 0
vt 0.656038463 0.652411401 0
vt 0.677480757 0.73775053 0
vt 0.589805067 0.716802776 0
vt 0.811762452 0.0887439772 0
vt 0.784344673 0.132954016 0
vt 0.803521335 0.0354903713 0
vt 0.681114554 0.0231933892 0
vt 0.759487867 0.0481216088 0
vt 0.762328386 0.106013551 0
vn -0.467083544 0.778698742 -0.434170604
vn -0.659788191 0.687817574 -0.288150042
vn -0.398099035 0.713713825 0.116902173
vn 0.0698146969 -0.941107571 -0.252792597
vn 0.267729819 -0.944760501 -0.0715746433
vn -0.0613965094 -0.981695414 0.0698082149
vn -0.100985609 -1.00321257 -0.0423448719
vn 0.0698146969 -0.941107571 -0.252792597
vn -0.0613965094 -0.981695414 0.0698082149
vn -0.689816356 0.666404009 -0.279055893
vn -0.771046996 0.509155929 0.149166137
vn -0.621711135 0.675351024 0.00704492163
vn 0.094079569 -0.0307818111 0.992239296
vn -0.33021161 -0.0779378191 0.936591506
vn 0.0517344326 -0.0698046088 0.979196668
vn 0.701866567 0.0280814953 0.718268394
vn 0.709663033 -0.0382620059 0.708041728
vn 0.816516042 -0.00801950786 0.580490172
vn 0.697030306 0.147987977 0.701604128
vn 0.701866567 0.0280814953 0.718268394
vn 0.874371767 0.26749891 0.407038778
vn 0.451288968 0.278088003 -0.836602986
vn -0.0845396593 0.74097234 -0.663592458
vn 0.451541394 0.541822672 -0.689738512
vn 0.701866567 0.0280814953 0.718268394
vn 0.329004586 0.0881506652 0.966324151
vn 0.0517344326 -0.0698046088 0.979196668
vn -0.621711135 0.675351024 0.00704492163
vn -0.771046996 0.509155929 0.149166137
vn -0.185673818 0.200022012 0.936343789
vn -0.185673818 0.200022012 0.936343789
vn -0.771046996 0.509155929 0.149166137
vn -0.694703221 0.103278659 0.722843587
vn 0.208900824 -0.0916816369 -0.986532331
vn 0.380955875 -0.410566986 -0.802158475
vn -0.291939765 -0.0865685493 -0.934114516
vn -0.433790088 -0.0842115283 0.868493199
vn -0.827143192 -0.312023073 0.452731669
vn -0.639504433 -0.61864984 0.471209407
vn -0.692399859 0.624677598 -0.301331282
vn -0.771046996 0.509155929 0.149166137
vn -0.689816356 0.666404009 -0.279055893
vn -0.99383831 -0.0389820784 -0.117957465
vn -0.81688714 0.140145287 -0.528378129
vn -0.870300889 -0.346190244 -0.328103364
vn 0.374405384 -0.639616728 0.707347095
vn 0.568470657 -0.566690445 0.595997751
vn 0.659840941 -0.188386112 0.735709786
vn 0.224359795 -0.960601091 0.0424745232
vn 0.568470657 -0.566690445 0.595997751
vn 0.374405384 -0.639616728 0.707347095
vn -0.659788191 0.687817574 -0.288150042
vn -0.621711135 0.675351024 0.00704492163
vn -0.398099035 0.713713825 0.116902173
vn -0.291939765 -0.0865685493 -0.934114516
vn 0.380955875 -0.410566986 -0.802158475
vn -0.170925975 -0.577293158 -0.788221538
vn -0.746564865 -0.219858438 -0.622383833
vn -0.48815468 -0.582145214 -0.633250415
vn -0.870300889 -0.346190244 -0.328103364
vn 0.884868979 0.397801727 -0.128520042
vn 0.643794358 0.502237499 -0.60110414
vn 0.731261492 0.588414729 -0.342044592
vn -0.185673818 0.200022012 0.936343789
vn -0.33021161 -0.0779378191 0.936591506
vn 0.094079569 -0.0307818111 0.992239296
vn -0.33021161 -0.0779378191 0.936591506
vn -0.185673818 0.200022012 0.936343789
vn -0.694703221 0.103278659 0.722843587
vn 0.380955875 -0.410566986 -0.802158475
vn 0.543740809 -0.0267503019 -0.83814019
vn 0.846861303 -0.201451048 -0.493819267
vn 0.699859142 0.302292228 -0.658881128
vn 0.884868979 0.397801727 -0.128520042
vn 0.958819032 0.0526962802 -0.29045856
vn 0.994798005 0.0426001549 0.105157182
vn 0.966141164 0.191444159 -0.170756817
vn 0.874371767 0.26749891 0.407038778
vn -0.0613965094 -0.981695414 0.0698082149
vn -0.228549823 -0.642697453 0.733150601
vn -0.639504433 -0.61864984 0.471209407
vn -0.605994165 0.51692009 -0.58988297
vn -0.470419288 0.723831117 -0.461705476
vn -0.0957436413 0.146661565 -0.976774752
vn 0.958819032 0.0526962802 -0.29045856
vn 0.994798005 0.0426001549 0.105157182
vn 0.931798339 -0.176118568 -0.258253783
vn -0.570859015 -0.589978337 0.586206436
vn -0.639504433 -0.61864984 0.471209407
vn -0.228549823 -0.642697453 0.733150601
vn 0.884868979 0.397801727 -0.128520042
vn 0.966141164 0.191444159 -0.170756817
vn 0.958819032 0.0526962802 -0.29045856
vn -0.930266261 0.1600025 0.292025745
vn -0.692399859 0.624677598 -0.301331282
vn -0.99383831 -0.0389820784 -0.117957465
vn -0.930266261 0.1600025 0.292025745
vn -0.99383831 -0.0389820784 -0.117957465
vn -0.93094784 -0.290423512 0.166806757
vn 0.380955875 -0.410566986 -0.802158475
vn 0.636631012 -0.747284472 -0.240584254
vn 0.0698146969 -0.941107571 -0.252792597
vn 0.546338201 0.262848586 0.800045907
vn 0.329004586 0.0881506652 0.966324151
vn 0.701866567 0.0280814953 0.718268394
vn 0.329004586 0.0881506652 0.966324151
vn 0.094079569 -0.0307818111 0.992239296
vn 0.0517344326 -0.0698046088 0.979196668
vn -0.827143192 -0.312023073 0.452731669
vn -0.93094784 -0.290423512 0.166806757
vn -0.639504433 -0.61864984 0.471209407
vn -0.0613965094 -0.981695414 0.0698082149
vn 0.267729819 -0.944760501 -0.0715746433
vn 0.224359795 -0.960601091 0.0424745232
vn 0.224359795 -0.960601091 0.0424745232
vn 0.806048036 -0.49338612 -0.242507711
vn 0.691622198 -0.753535628 0.0266470779
vn -0.470419288 0.723831117 -0.461705476
vn -0.659788191 0.687817574 -0.288150042
vn -0.467083544 0.778698742 -0.434170604
vn 0.208900824 -0.0916816369 -0.986532331
vn 0.543740809 -0.0267503019 -0.83814019
vn 0.380955875 -0.410566986 -0.802158475
vn 0.931798339 -0.176118568 -0.258253783
vn 0.919251442 -0.0833373219 0.39890939
vn 0.691622198 -0.753535628 0.0266470779
vn -0.930266261 0.1600025 0.292025745
vn -0.93094784 -0.290423512 0.166806757
vn -0.827143192 -0.312023073 0.452731669
vn -0.497695476 -0.0602936484 0.854356945
vn -0.878350973 0.0695695579 0.473794132
vn -0.827143192 -0.312023073 0.452731669
vn -0.170925975 -0.577293158 -0.788221538
vn 0.380955875 -0.410566986 -0.802158475
vn 0.0698146969 -0.941107571 -0.252792597
vn -0.100985609 -1.00321257 -0.0423448719
vn -0.48815468 -0.582145214 -0.633250415
vn 0.0698146969 -0.941107571 -0.252792597
vn 0.451541394 0.541822672 -0.689738512
vn -0.0845396593 0.74097234 -0.663592458
vn 0.0417800732 0.748981774 -0.64896208
vn 0.691622198 -0.753535628 0.0266470779
vn 0.806048036 -0.49338612 -0.242507711
vn 0.714654326 -0.69887507 -0.0290299375
vn -0.99383831 -0.0389820784 -0.117957465
vn -0.870300889 -0.346190244 -0.328103364
vn -0.93094784 -0.290423512 0.166806757
vn 0.636631012 -0.747284472 -0.240584254
vn 0.380955875 -0.410566986 -0.802158475
vn 0.806048036 -0.49338612 -0.242507711
vn -0.0613965094 -0.981695414 0.0698082149
vn 0.224359795 -0.960601091 0.0424745232
vn -0.0586374812 -0.953381062 0.237604752
vn 0.451541394 0.541822672 -0.689738512
vn 0.683324337 0.259206831 -0.682553887
vn 0.451288968 0.278088003 -0.836602986
vn -0.33021161 -0.0779378191 0.936591506
vn -0.433790088 -0.0842115283 0.868493199
vn 0.0517344326 -0.0698046088 0.979196668
vn 0.600009322 0.747778237 0.0607278049
vn 0.874371767 0.26749891 0.407038778
vn 0.884868979 0.397801727 -0.128520042
vn -0.433790088 -0.0842115283 0.868493199
vn -0.497695476 -0.0602936484 0.854356945
vn -0.827143192 -0.312023073 0.452731669
vn 0.434726834 0.36319676 0.903350592
vn 0.600009322 0.747778237 0.0607278049
vn -0.398099035 0.713713825 0.116902173
vn -0.228549823 -0.642697453 0.733150601
vn -0.0613965094 -0.981695414 0.0698082149
vn -0.0586374812 -0.953381062 0.237604752
vn -0.689816356 0.666404009 -0.279055893
vn -0.659788191 0.687817574 -0.288150042
vn -0.470419288 0.723831117 -0.461705476
vn -0.659788191 0.687817574 -0.288150042
vn -0.689816356 0.666404009 -0.279055893
vn -0.621711135 0.675351024 0.00704492163
vn 0.374405384 -0.639616728 0.707347095
vn -0.0586374812 -0.953381062 0.237604752
vn 0.224359795 -0.960601091 0.0424745232
vn -0.0957436413 0.146661565 -0.976774752
vn -0.470419288 0.723831117 -0.461705476
vn 0.451288968 0.278088003 -0.836602986
vn 0.919251442 -0.0833373219 0.39890939
vn 0.874371767 0.26749891 0.407038778
vn 0.816516042 -0.00801950786 0.580490172
vn 0.0417800732 0.748981774 -0.64896208
vn -0.0845396593 0.74097234 -0.663592458
vn -0.470419288 0.723831117 -0.461705476
vn -0.497695476 -0.0602936484 0.854356945
vn -0.433790088 -0.0842115283 0.868493199
vn -0.33021161 -0.0779378191 0.936591506
vn 0.966141164 0.191444159 -0.170756817
vn 0.994798005 0.0426001549 0.105157182
vn 0.958819032 0.0526962802 -0.29045856
vn -0.0845396593 0.74097234 -0.663592458
vn 0.451288968 0.278088003 -0.836602986
vn -0.470419288 0.723831117 -0.461705476
vn 0.731261492 0.588414729 -0.342044592
vn 0.643794358 0.502237499 -0.60110414
vn 0.600009322 0.747778237 0.0607278049
vn 0.600009322 0.747778237 0.0607278049
vn 0.884868979 0.397801727 -0.128520042
vn 0.731261492 0.588414729 -0.342044592
vn -0.692399859 0.624677598 -0.301331282
vn -0.81688714 0.140145287 -0.528378129
vn -0.99383831 -0.0389820784 -0.117957465
vn -0.0559840351 0.586476088 0.741191447
vn -0.621711135 0.675351024 0.00704492163
vn -0.185673818 0.200022012 0.936343789
vn -0.621711135 0.675351024 0.00704492163
vn -0.0559840351 0.586476088 0.741191447
vn 0.538547397 0.52086693 0.666487455
vn 0.636631012 -0.747284472 -0.240584254
vn 0.267729819 -0.944760501 -0.0715746433
vn 0.0698146969 -0.941107571 -0.252792597
vn -0.746564865 -0.219858438 -0.622383833
vn -0.81688714 0.140145287 -0.528378129
vn -0.291939765 -0.0865685493 -0.934114516
vn 0.374405384 -0.639616728 0.707347095
vn -0.137347475 -0.221171305 0.980693758
vn -0.228549823 -0.642697453 0.733150601
vn -0.844524384 0.442949206 0.0571299307
vn -0.692399859 0.624677598 -0.301331282
vn -0.930266261 0.1600025 0.292025745
vn 0.741734922 0.0723558292 -0.661646843
vn 0.846861303 -0.201451048 -0.493819267
vn 0.543740809 -0.0267503019 -0.83814019
vn -0.0957436413 0.146661565 -0.976774752
vn 0.208900824 -0.0916816369 -0.986532331
vn -0.291939765 -0.0865685493 -0.934114516
vn 0.546338201 0.262848586 0.800045907
vn 0.697030306 0.147987977 0.701604128
vn 0.874371767 0.26749891 0.407038778
vn -0.33021161 -0.0779378191 0.936591506
vn -0.694703221 0.103278659 0.722843587
vn -0.497695476 -0.0602936484 0.854356945
vn 0.994798005 0.0426001549 0.105157182
vn 0.874371767 0.26749891 0.407038778
vn 0.919251442 -0.0833373219 0.39890939
vn -0.0957436413 0.146661565 -0.976774752
vn 0.451288968 0.278088003 -0.836602986
vn 0.208900824 -0.0916816369 -0.986532331
vn 0.451288968 0.278088003 -0.836602986
vn 0.543740809 -0.0267503019 -0.83814019
vn 0.208900824 -0.0916816369 -0.986532331
vn 0.0517344326 -0.0698046088 0.979196668
vn 0.659840941 -0.188386112 0.735709786
vn 0.701866567 0.0280814953 0.718268394
vn -0.93094784 -0.290423512 0.166806757
vn -0.870300889 -0.346190244 -0.328103364
vn -0.688322544 -0.685521424 0.224205315
vn 0.568470657 -0.566690445 0.595997751
vn 0.680168867 -0.327005953 0.660978079
vn 0.659840941 -0.188386112 0.735709786
vn -0.878350973 0.0695695579 0.473794132
vn -0.497695476 -0.0602936484 0.854356945
vn -0.694703221 0.103278659 0.722843587
vn 0.714654326 -0.69887507 -0.0290299375
vn 0.806048036 -0.49338612 -0.242507711
vn 0.931798339 -0.176118568 -0.258253783
vn 0.546338201 0.262848586 0.800045907
vn -0.0559840351 0.586476088 0.741191447
vn 0.329004586 0.0881506652 0.966324151
vn -0.605994165 0.51692009 -0.58988297
vn -0.692399859 0.624677598 -0.301331282
vn -0.671367526 0.703464866 -0.242206439
vn 0.741734922 0.0723558292 -0.661646843
vn 0.451288968 0.278088003 -0.836602986
vn 0.699859142 0.302292228 -0.658881128
vn 0.643794358 0.502237499 -0.60110414
vn 0.0417800732 0.748981774 -0.64896208
vn 0.600009322 0.747778237 0.0607278049
vn 0.600009322 0.747778237 0.0607278049
vn 0.0417800732 0.748981774 -0.64896208
vn -0.467083544 0.778698742 -0.434170604
vn 0.380955875 -0.410566986 -0.802158475
vn 0.846861303 -0.201451048 -0.493819267
vn 0.806048036 -0.49338612 -0.242507711
vn -0.692399859 0.624677598 -0.301331282
vn -0.844524384 0.442949206 0.0571299307
vn -0.771046996 0.509155929 0.149166137
vn -0.621711135 0.675351024 0.00704492163
vn 0.538547397 0.52086693 0.666487455
vn 0.434726834 0.36319676 0.903350592
vn 0.709663033 -0.0382620059 0.708041728
vn 0.701866567 0.0280814953 0.718268394
vn 0.659840941 -0.188386112 0.735709786
vn 0.568470657 -0.566690445 0.595997751
vn 0.691622198 -0.753535628 0.0266470779
vn 0.680168867 -0.327005953 0.660978079
vn -0.570859015 -0.589978337 0.586206436
vn -0.433790088 -0.0842115283 0.868493199
vn -0.639504433 -0.61864984 0.471209407
vn 0.0698146969 -0.941107571 -0.252792597
vn -0.48815468 -0.582145214 -0.633250415
vn -0.170925975 -0.577293158 -0.788221538
vn 0.374405384 -0.639616728 0.707347095
vn -0.228549823 -0.642697453 0.733150601
vn -0.0586374812 -0.953381062 0.237604752
vn 0.600009322 0.747778237 0.0607278049
vn 0.538547397 0.52086693 0.666487455
vn 0.874371767 0.26749891 0.407038778
vn 0.677901983 0.377098352 0.623556912
vn 0.874371767 0.26749891 0.407038778
vn 0.538547397 0.52086693 0.666487455
vn -0.100985609 -1.00321257 -0.0423448719
vn -0.870300889 -0.346190244 -0.328103364
vn -0.48815468 -0.582145214 -0.633250415
vn 0.741734922 0.0723558292 -0.661646843
vn 0.958819032 0.0526962802 -0.29045856
vn 0.931798339 -0.176118568 -0.258253783
vn 0.680168867 -0.327005953 0.660978079
vn 0.691622198 -0.753535628 0.0266470779
vn 0.919251442 -0.0833373219 0.39890939
vn -0.671367526 0.703464866 -0.242206439
vn -0.692399859 0.624677598 -0.301331282
vn -0.689816356 0.666404009 -0.279055893
vn 0.267729819 -0.944760501 -0.0715746433
vn 0.806048036 -0.49338612 -0.242507711
vn 0.224359795 -0.960601091 0.0424745232
vn -0.639504433 -0.61864984 0.471209407
vn -0.688322544 -0.685521424 0.224205315
vn -0.0613965094 -0.981695414 0.0698082149
vn -0.81688714 0.140145287 -0.528378129
vn -0.692399859 0.624677598 -0.301331282
vn -0.291939765 -0.0865685493 -0.934114516
vn -0.688322544 -0.685521424 0.224205315
vn -0.100985609 -1.00321257 -0.0423448719
vn -0.0613965094 -0.981695414 0.0698082149
vn -0.878350973 0.0695695579 0.473794132
vn -0.771046996 0.509155929 0.149166137
vn -0.844524384 0.442949206 0.0571299307
vn 0.709663033 -0.0382620059 0.708041728
vn 0.659840941 -0.188386112 0.735709786
vn 0.919251442 -0.0833373219 0.39890939
vn -0.605994165 0.51692009 -0.58988297
vn -0.671367526 0.703464866 -0.242206439
vn -0.470419288 0.723831117 -0.461705476
vn -0.671367526 0.703464866 -0.242206439
vn -0.689816356 0.666404009 -0.279055893
vn -0.470419288 0.723831117 -0.461705476
vn 0.884868979 0.397801727 -0.128520042
vn 0.874371767 0.26749891 0.407038778
vn 0.966141164 0.191444159 -0.170756817
vn -0.694703221 0.103278659 0.722843587
vn -0.771046996 0.509155929 0.149166137
vn -0.878350973 0.0695695579 0.473794132
vn -0.48815468 -0.582145214 -0.633250415
vn -0.291939765 -0.0865685493 -0.934114516
vn -0.170925975 -0.577293158 -0.788221538
vn 0.661296368 0.473996878 -0.581372023
vn 0.643794358 0.502237499 -0.60110414
vn 0.884868979 0.397801727 -0.128520042
vn 0.0417800732 0.748981774 -0.64896208
vn -0.470419288 0.723831117 -0.461705476
vn -0.467083544 0.778698742 -0.434170604
vn 0.661296368 0.473996878 -0.581372023
vn 0.884868979 0.397801727 -0.128520042
vn 0.699859142 0.302292228 -0.658881128
vn 0.546338201 0.262848586 0.800045907
vn 0.874371767 0.26749891 0.407038778
vn 0.677901983 0.377098352 0.623556912
vn 0.677901983 0.377098352 0.623556912
vn -0.0559840351 0.586476088 0.741191447
vn 0.546338201 0.262848586 0.800045907
vn -0.692399859 0.624677598 -0.301331282
vn -0.605994165 0.51692009 -0.58988297
vn -0.291939765 -0.0865685493 -0.934114516
vn 0.931798339 -0.176118568 -0.258253783
vn 0.846861303 -0.201451048 -0.493819267
vn 0.741734922 0.0723558292 -0.661646843
vn -0.878350973 0.0695695579 0.473794132
vn -0.844524384 0.442949206 0.0571299307
vn -0.930266261 0.1600025 0.292025745
vn 0.543740809 -0.0267503019 -0.83814019
vn 0.451288968 0.278088003 -0.836602986
vn 0.741734922 0.0723558292 -0.661646843
vn 0.434726834 0.36319676 0.903350592
vn 0.538547397 0.52086693 0.666487455
vn 0.600009322 0.747778237 0.0607278049
vn 0.741734922 0.0723558292 -0.661646843
vn 0.699859142 0.302292228 -0.658881128
vn 0.958819032 0.0526962802 -0.29045856
vn -0.688322544 -0.685521424 0.224205315
vn -0.639504433 -0.61864984 0.471209407
vn -0.93094784 -0.290423512 0.166806757
vn 0.568470657 -0.566690445 0.595997751
vn 0.224359795 -0.960601091 0.0424745232
vn 0.691622198 -0.753535628 0.0266470779
vn -0.433790088 -0.0842115283 0.868493199
vn -0.228549823 -0.642697453 0.733150601
vn -0.137347475 -0.221171305 0.980693758
vn -0.433790088 -0.0842115283 0.868493199
vn -0.570859015 -0.589978337 0.586206436
vn -0.228549823 -0.642697453 0.733150601
vn -0.81688714 0.140145287 -0.528378129
vn -0.746564865 -0.219858438 -0.622383833
vn -0.870300889 -0.346190244 -0.328103364
vn 0.816516042 -0.00801950786 0.580490172
vn 0.709663033 -0.0382620059 0.708041728
vn 0.919251442 -0.0833373219 0.39890939
vn -0.621711135 0.675351024 0.00704492163
vn 0.434726834 0.36319676 0.903350592
vn -0.398099035 0.713713825 0.116902173
vn -0.291939765 -0.0865685493 -0.934114516
vn -0.605994165 0.51692009 -0.58988297
vn -0.0957436413 0.146661565 -0.976774752
vn 0.874371767 0.26749891 0.407038778
vn 0.701866567 0.0280814953 0.718268394
vn 0.816516042 -0.00801950786 0.580490172
vn -0.878350973 0.0695695579 0.473794132
vn -0.930266261 0.1600025 0.292025745
vn -0.827143192 -0.312023073 0.452731669
vn 0.643794358 0.502237499 -0.60110414
vn 0.451541394 0.541822672 -0.689738512
vn 0.0417800732 0.748981774 -0.64896208
vn 0.661296368 0.473996878 -0.581372023
vn 0.451541394 0.541822672 -0.689738512
vn 0.643794358 0.502237499 -0.60110414
vn -0.185673818 0.200022012 0.936343789
vn 0.094079569 -0.0307818111 0.992239296
vn 0.329004586 0.0881506652 0.966324151
vn -0.870300889 -0.346190244 -0.328103364
vn -0.100985609 -1.00321257 -0.0423448719
vn -0.688322544 -0.685521424 0.224205315
vn 0.374405384 -0.639616728 0.707347095
vn 0.659840941 -0.188386112 0.735709786
vn 0.0517344326 -0.0698046088 0.979196668
vn -0.291939765 -0.0865685493 -0.934114516
vn -0.48815468 -0.582145214 -0.633250415
vn -0.746564865 -0.219858438 -0.622383833
vn 0.329004586 0.0881506652 0.966324151
vn -0.0559840351 0.586476088 0.741191447
vn -0.185673818 0.200022012 0.936343789
vn 0.600009322 0.747778237 0.0607278049
vn -0.467083544 0.778698742 -0.434170604
vn -0.398099035 0.713713825 0.116902173
vn 0.0517344326 -0.0698046088 0.979196668
vn -0.433790088 -0.0842115283 0.868493199
vn -0.137347475 -0.221171305 0.980693758
vn 0.846861303 -0.201451048 -0.493819267
vn 0.931798339 -0.176118568 -0.258253783
vn 0.806048036 -0.49338612 -0.242507711
vn 0.636631012 -0.747284472 -0.240584254
vn 0.806048036 -0.49338612 -0.242507711
vn 0.267729819 -0.944760501 -0.0715746433
vn 0.931798339 -0.176118568 -0.258253783
vn 0.994798005 0.0426001549 0.105157182
vn 0.919251442 -0.0833373219 0.39890939
vn 0.697030306 0.147987977 0.701604128
vn 0.546338201 0.262848586 0.800045907
vn 0.701866567 0.0280814953 0.718268394
vn 0.683324337 0.259206831 -0.682553887
vn 0.451541394 0.541822672 -0.689738512
vn 0.699859142 0.302292228 -0.658881128
vn 0.699859142 0.302292228 -0.658881128
vn 0.451541394 0.541822672 -0.689738512
vn 0.661296368 0.473996878 -0.581372023
vn 0.683324337 0.259206831 -0.682553887
vn 0.699859142 0.302292228 -0.658881128
vn 0.451288968 0.278088003 -0.836602986
vn 0.677901983 0.377098352 0.623556912
vn 0.538547397 0.52086693 0.666487455
vn -0.0559840351 0.586476088 0.741191447
vn 0.0517344326 -0.0698046088 0.979196668
vn -0.137347475 -0.221171305 0.980693758
vn 0.374405384 -0.639616728 0.707347095
vn 0.714654326 -0.69887507 -0.0290299375
vn 0.931798339 -0.176118568 -0.258253783
vn 0.691622198 -0.753535628 0.0266470779
vn 0.659840941 -0.188386112 0.735709786
vn 0.680168867 -0.327005953 0.660978079
vn 0.919251442 -0.0833373219 0.39890939
g Group62909
f 40/1/1 66/2/2 24/3/3
f 19/4/4 38/5/5 5/6/6
f 44/7/7 19/8/8 5/9/9
f 15/10/10 69/11/11 1/12/12
f 43/13/13 18/14/14 37/15/15
f 13/16/16 68/17/17 74/18/18
f 75/19/19 13/20/20 10/21/21
f 7/22/22 62/23/23 42/24/24
f 13/25/25 39/26/26 37/27/27
f 1/28/28 69/29/29 28/30/30
f 28/31/31 69/32/32 50/33/33
f 48/34/34 25/35/35 45/36/36
f 11/37/37 70/38/38 46/39/39
f 49/40/40 69/41/41 15/42/42
f 9/43/43 72/44/44 26/45/45
f 22/46/46 77/47/47 31/48/48
f 23/49/49 77/50/50 22/51/51
f 66/52/52 1/53/53 24/54/54
f 45/55/55 25/56/56 53/57/57
f 30/58/58 6/59/59 26/60/60
f 36/61/61 20/62/62 79/63/63
f 28/64/64 18/65/65 43/66/66
f 18/67/67 28/68/68 50/69/69
f 25/70/70 4/71/71 3/72/72
f 2/73/73 36/74/74 29/75/75
f 33/76/76 65/77/77 10/78/78
f 5/79/79 34/80/80 46/81/81
f 59/82/82 32/83/83 12/84/84
f 29/85/85 33/86/86 47/87/87
f 78/88/88 46/89/89 34/90/90
f 36/91/91 65/92/92 29/93/93
f 14/94/94 49/95/95 9/96/96
f 14/97/97 9/98/98 41/99/99
f 25/100/100 61/101/101 19/102/102
f 52/103/103 39/104/104 13/105/105
f 39/106/106 43/107/107 37/108/108
f 70/109/109 41/110/110 46/111/111
f 5/112/112 38/113/113 23/114/114
f 23/115/115 56/116/116 51/117/117
f 32/118/118 66/119/119 40/120/120
f 48/121/121 4/122/122 25/123/123
f 47/124/124 17/125/125 51/126/126
f 14/127/127 41/128/128 70/129/129
f 21/130/130 16/131/131 70/132/132
f 53/133/133 25/134/134 19/135/135
f 44/136/136 6/137/137 19/138/138
f 42/139/139 62/140/140 27/141/141
f 51/142/142 56/143/143 81/144/144
f 9/145/145 26/146/146 41/147/147
f 61/148/148 25/149/149 56/150/150
f 5/151/151 23/152/152 58/153/153
f 42/154/154 80/155/155 7/156/156
f 18/157/157 11/158/158 37/159/159
f 60/160/160 10/161/161 36/162/162
f 11/163/163 21/164/164 70/165/165
f 64/166/166 60/167/167 24/168/168
f 34/169/169 5/170/170 58/171/171
f 15/172/172 66/173/173 32/174/174
f 66/175/175 15/176/176 1/177/177
f 22/178/178 58/179/179 23/180/180
f 12/181/181 32/182/182 7/183/183
f 17/184/184 10/185/185 74/186/186
f 27/187/187 62/188/188 32/189/189
f 21/190/190 11/191/191 18/192/192
f 65/193/193 33/194/194 29/195/195
f 62/196/196 7/197/197 32/198/198
f 79/199/199 20/200/200 60/201/201
f 60/202/202 36/203/203 79/204/204
f 49/205/205 72/206/206 9/207/207
f 35/208/208 1/209/209 28/210/210
f 1/211/211 35/212/212 8/213/213
f 61/214/214 38/215/215 19/216/216
f 30/217/217 72/218/218 45/219/219
f 22/220/220 55/221/221 34/222/222
f 54/223/223 49/224/224 14/225/225
f 63/226/226 3/227/227 4/228/228
f 12/229/229 48/230/230 45/231/231
f 52/232/232 75/233/233 10/234/234
f 18/235/235 50/236/236 21/237/237
f 33/238/238 10/239/239 17/240/240
f 12/241/241 7/242/242 48/243/243
f 7/244/244 4/245/245 48/246/246
f 37/247/247 31/248/248 13/249/249
f 41/250/250 26/251/251 73/252/252
f 77/253/253 76/254/254 31/255/255
f 16/256/256 21/257/257 50/258/258
f 81/259/259 56/260/260 47/261/261
f 52/262/262 35/263/263 39/264/264
f 59/265/265 49/266/266 71/267/267
f 63/268/268 7/269/269 2/270/270
f 20/271/271 27/272/272 60/273/273
f 60/274/274 27/275/275 40/276/276
f 25/277/277 3/278/278 56/279/279
f 49/280/280 54/281/281 69/282/282
f 1/283/283 8/284/284 64/285/285
f 68/286/286 13/287/287 31/288/288
f 77/289/289 51/290/290 76/291/291
f 78/292/292 11/293/293 46/294/294
f 19/295/295 6/296/296 53/297/297
f 22/298/298 34/299/299 58/300/300
f 60/301/301 8/302/302 10/303/303
f 57/304/304 10/305/305 8/306/306
f 44/307/307 26/308/308 6/309/309
f 63/310/310 29/311/311 47/312/312
f 76/313/313 51/314/314 17/315/315
f 71/316/316 49/317/317 15/318/318
f 38/319/319 56/320/320 23/321/321
f 46/322/322 73/323/323 5/324/324
f 72/325/325 49/326/326 45/327/327
f 73/328/328 44/329/329 5/330/330
f 16/331/331 69/332/332 54/333/333
f 68/334/334 31/335/335 17/336/336
f 59/337/337 71/338/338 32/339/339
f 71/340/340 15/341/341 32/342/342
f 36/343/343 10/344/344 65/345/345
f 50/346/346 69/347/347 16/348/348
f 6/349/349 45/350/350 53/351/351
f 67/352/352 20/353/353 36/354/354
f 27/355/355 32/356/356 40/357/357
f 67/358/358 36/359/359 2/360/360
f 52/361/361 10/362/362 57/363/363
f 57/364/364 35/365/365 52/366/366
f 49/367/367 59/368/368 45/369/369
f 47/370/370 3/371/371 63/372/372
f 16/373/373 54/374/374 14/375/375
f 4/376/376 7/377/377 63/378/378
f 64/379/379 8/380/380 60/381/381
f 63/382/382 2/383/383 29/384/384
f 73/385/385 46/386/386 41/387/387
f 77/388/388 23/389/389 51/390/390
f 11/391/391 34/392/392 55/393/393
f 11/394/394 78/395/395 34/396/396
f 72/397/397 30/398/398 26/399/399
f 74/400/400 68/401/401 17/402/402
f 1/403/403 64/404/404 24/405/405
f 45/406/406 59/407/407 12/408/408
f 10/409/409 13/410/410 74/411/411
f 16/412/412 14/413/413 70/414/414
f 20/415/415 42/416/416 27/417/417
f 67/418/418 42/419/419 20/420/420
f 28/421/421 43/422/422 39/423/423
f 26/424/424 44/425/425 73/426/426
f 22/427/427 31/428/428 37/429/429
f 45/430/430 6/431/431 30/432/432
f 39/433/433 35/434/434 28/435/435
f 60/436/436 40/437/437 24/438/438
f 37/439/439 11/440/440 55/441/441
f 3/442/442 47/443/443 56/444/444
f 61/445/445 56/446/446 38/447/447
f 47/448/448 33/449/449 17/450/450
f 75/451/451 52/452/452 13/453/453
f 80/454/454 42/455/455 2/456/456
f 2/457/457 42/458/458 67/459/459
f 80/460/460 2/461/461 7/462/462
f 57/463/463 8/464/464 35/465/465
f 37/466/466 55/467/467 22/468/468
f 81/469/469 47/470/470 51/471/471
f 31/472/472 76/473/473 17/474/474
