# File exported by Houdini 16.5.405 (www.sidefx.com)
# 31 points
# 174 vertices
# 58 primitives
# Bounds: [-32.5096741, -1.12563002, -33.2101364] to [32.125042, 82.3803329, 33.0372353]
g 
v 1.5570029 78.1906281 24.2728424
v 27.3858776 46.3224297 -13.8270941
v 13.709569 7.87512779 -28.1492825
v -18.9768944 -1.12563002 6.75188065
v -17.9010754 0.834929168 -19.5312138
v 4.95380783 45.4481201 -33.2101364
v 9.78256702 82.2553024 17.6790028
v -32.5096741 32.3440208 -2.9366889
v 29.933918 52.0449486 15.0165882
v -14.0785189 8.08113003 26.7599888
v 19.3331833 21.142828 29.0116959
v -6.32804871 62.5405769 -0.546664178
v -22.6587524 18.3847466 23.7310486
v 32.125042 14.9436922 9.00652695
v -9.60111809 51.9932709 33.0372353
v 0.218059361 -0.560171008 -24.8812275
v 18.8278084 82.3803329 1.24685693
v 3.5713625 0.7172755 30.4205418
v 17.2501965 0.147648484 -13.7225113
v -26.8134518 0.0641940832 -5.45934248
v -18.9034615 16.3833332 -30.2926655
v -1.30109322 54.894928 -25.5230045
v 29.1672707 64.3335495 1.65754712
v 12.2720375 41.8495026 32.9833107
v 17.3734398 56.4931145 -19.8863888
v -26.7228374 34.309021 -19.699152
v -14.3094082 59.5758018 27.8700752
v 24.6027451 6.26672935 16.9568138
v 22.5266762 59.1532402 23.1391239
v 27.1914921 8.3838501 2.71151447
v -14.1552801 45.4580574 -24.3994942
vt 0.10557057 0.898073792 0
vt 0.165046021 0.704887509 0
vt 0.219821855 0.904123187 0
vt 0.286595821 0.82207185 0
vt 0.375909209 0.731531799 0
vt 0.458932489 0.979228139 0
vt 0.372181028 1.01392019 0
vt 0.286595821 0.82207185 0
vt 0.458932489 0.979228139 0
vt 0.475655615 0.19667986 0
vt 0.407539934 0.0128579624 0
vt 0.568310261 0.0172164515 0
vt 0.776980817 0.526926637 0
vt 0.914467394 0.58558166 0
vt 0.618960202 0.740888119 0
vt 0.500850022 0.240040809 0
vt 0.652632773 0.0371446647 0
vt 0.582478285 0.250083476 0
vt 0.386841804 0.516861975 0
vt 0.435747415 0.452819854 0
vt 0.507798553 0.55965662 0
vt 0.642805219 0.575328767 0
vt 0.776980817 0.526926637 0
vt 0.618960202 0.740888119 0
vt 0.995747089 0.429014951 0
vt 0.980330467 0.579491258 0
vt 0.914467394 0.58558166 0
vt 0.259541899 0.326106399 0
vt 0.407539934 0.0128579624 0
vt 0.475655615 0.19667986 0
vt 0.230539665 0.226534247 0
vt 0.259541899 0.326106399 0
vt 0.0371364765 0.253767967 0
vt 0.618960202 0.740888119 0
vt 0.515375614 0.608599782 0
vt 0.642805219 0.575328767 0
vt 0.375909209 0.731531799 0
vt 0.579780996 0.706698298 0
vt 0.632109523 0.866329789 0
vt 0.475655615 0.19667986 0
vt 0.568310261 0.0172164515 0
vt 0.629701197 0.0473478958 0
vt 0.164671838 0.480298609 0
vt 0.222140819 0.683864832 0
vt 0.120461434 0.638854682 0
vt 0.14815174 0.415378869 0
vt 0.036661651 0.361137599 0
vt 0.0371364765 0.253767967 0
vt 0.458932489 0.979228139 0
vt 0.632109523 0.866329789 0
vt 0.603534579 0.989618838 0
vt 0.340277046 0.400440484 0
vt 0.435747415 0.452819854 0
vt 0.386841804 0.516861975 0
vt 0.728767633 0.363758862 0
vt 0.582478285 0.250083476 0
vt 0.775351763 0.12760748 0
vt 0.270215124 0.719660878 0
vt 0.375909209 0.731531799 0
vt 0.286595821 0.82207185 0
vt 0.818752408 0.392700702 0
vt 0.776980817 0.526926637 0
vt 0.642805219 0.575328767 0
vt 0.135169461 0.0553103499 0
vt 0.0371364765 0.253767967 0
vt 0.0472851656 0.0239556581 0
vt 0.375909209 0.731531799 0
vt 0.490505457 0.667316496 0
vt 0.579780996 0.706698298 0
vt 0.00493443245 0.643348813 0
vt 0.165046021 0.704887509 0
vt 0.10557057 0.898073792 0
vt 0.230539665 0.226534247 0
vt 0.0371364765 0.253767967 0
vt 0.135169461 0.0553103499 0
vt 0.372181028 1.01392019 0
vt 0.294306099 0.940909803 0
vt 0.286595821 0.82207185 0
vt 0.507798553 0.55965662 0
vt 0.435747415 0.452819854 0
vt 0.723058403 0.495761395 0
vt 0.959747195 0.169951171 0
vt 0.993084371 0.273094743 0
vt 0.834042549 0.125897929 0
vt 0.458932489 0.979228139 0
vt 0.375909209 0.731531799 0
vt 0.632109523 0.866329789 0
vt 0.914467394 0.58558166 0
vt 0.729146898 0.800584018 0
vt 0.618960202 0.740888119 0
vt 0.483254343 0.451797485 0
vt 0.582478285 0.250083476 0
vt 0.581386507 0.360531479 0
vt 0.81962055 0.804616094 0
vt 0.729146898 0.800584018 0
vt 0.914467394 0.58558166 0
vt 0.581386507 0.360531479 0
vt 0.582478285 0.250083476 0
vt 0.728767633 0.363758862 0
vt 0.386841804 0.516861975 0
vt 0.222140819 0.683864832 0
vt 0.164671838 0.480298609 0
vt 0.914467394 0.58558166 0
vt 0.980330467 0.579491258 0
vt 0.81962055 0.804616094 0
vt 0.818752408 0.392700702 0
vt 0.995747089 0.429014951 0
vt 0.776980817 0.526926637 0
vt 0.259541899 0.326106399 0
vt 0.230539665 0.226534247 0
vt 0.407539934 0.0128579624 0
vt 0.483254343 0.451797485 0
vt 0.376487851 0.371735275 0
vt 0.582478285 0.250083476 0
vt 0.500850022 0.240040809 0
vt 0.582478285 0.250083476 0
vt 0.376487851 0.371735275 0
vt 0.362362057 0.359146982 0
vt 0.259541899 0.326106399 0
vt 0.475655615 0.19667986 0
vt 0.135169461 0.0553103499 0
vt 0.407539934 0.0128579624 0
vt 0.230539665 0.226534247 0
vt 0.0456780456 0.548484206 0
vt 0.165046021 0.704887509 0
vt 0.00493443245 0.643348813 0
vt 0.0589871667 0.529639423 0
vt 0.164671838 0.480298609 0
vt 0.120461434 0.638854682 0
vt 0.709532917 0.464223266 0
vt 0.483254343 0.451797485 0
vt 0.581386507 0.360531479 0
vt 0.709532917 0.464223266 0
vt 0.581386507 0.360531479 0
vt 0.728767633 0.363758862 0
vt 0.232840002 0.35316506 0
vt 0.340277046 0.400440484 0
vt 0.164671838 0.480298609 0
vt 0.775351763 0.12760748 0
vt 0.993084371 0.273094743 0
vt 0.728767633 0.363758862 0
vt 0.222140819 0.683864832 0
vt 0.386841804 0.516861975 0
vt 0.498444647 0.661463201 0
vt 0.00152768043 0.171290621 0
vt 0.0472851656 0.0239556581 0
vt 0.0371364765 0.253767967 0
vt 0.259541899 0.326106399 0
vt 0.14815174 0.415378869 0
vt 0.0371364765 0.253767967 0
vt 0.582478285 0.250083476 0
vt 0.652632773 0.0371446647 0
vt 0.775351763 0.12760748 0
vt 0.164671838 0.480298609 0
vt 0.340277046 0.400440484 0
vt 0.386841804 0.516861975 0
vt 0.776980817 0.526926637 0
vt 0.995747089 0.429014951 0
vt 0.914467394 0.58558166 0
vt 0.993084371 0.273094743 0
vt 0.775351763 0.12760748 0
vt 0.834042549 0.125897929 0
vt 0.507798553 0.55965662 0
vt 0.498444647 0.661463201 0
vt 0.386841804 0.516861975 0
vt 0.818752408 0.392700702 0
vt 0.990609825 0.353972137 0
vt 0.995747089 0.429014951 0
vt 0.834042549 0.125897929 0
vt 0.775351763 0.12760748 0
vt 0.785508633 0.0462309644 0
vt 0.652632773 0.0371446647 0
vt 0.785508633 0.0462309644 0
vt 0.775351763 0.12760748 0
vn 0.205761388 0.740004361 -0.536911368
vn -0.674871862 0.679492056 -0.284311473
vn -0.0454169698 0.609283864 0.477234423
vn 0.00475226762 -0.822103202 -0.433175415
vn 0.370795339 -0.915575683 -0.300037354
vn -0.189361528 -0.928281605 0.0697058961
vn -0.701699018 -0.604468882 -0.081757322
vn 0.00475226762 -0.822103202 -0.433175415
vn -0.189361528 -0.928281605 0.0697058961
vn -0.674871862 0.679492056 -0.284311473
vn -0.749582946 0.378365695 0.382688046
vn -0.425044447 0.680201769 0.24231866
vn 0.236006021 0.0707320496 0.993158698
vn -0.295708269 0.052259244 0.951614439
vn -0.0354745947 -0.524778724 0.803253114
vn 0.694179654 0.190515548 0.719614029
vn 0.672403514 -0.0583199821 0.750106454
vn 0.919067442 0.169660777 0.394177586
vn 0.21466279 0.209599674 -0.927238584
vn -0.38474074 0.728026569 -0.514837205
vn 0.595871985 0.444843918 -0.666028678
vn 0.672403514 -0.0583199821 0.750106454
vn 0.236006021 0.0707320496 0.993158698
vn -0.0354745947 -0.524778724 0.803253114
vn -0.425044447 0.680201769 0.24231866
vn -0.749582946 0.378365695 0.382688046
vn -0.295708269 0.052259244 0.951614439
vn -0.726905584 0.536476493 -0.335149437
vn -0.749582946 0.378365695 0.382688046
vn -0.674871862 0.679492056 -0.284311473
vn -0.959989965 0.114667423 0.0699141845
vn -0.726905584 0.536476493 -0.335149437
vn -0.701699018 -0.604468882 -0.081757322
vn -0.0354745947 -0.524778724 0.803253114
vn 0.705025733 -0.573715508 0.331416965
vn 0.672403514 -0.0583199821 0.750106454
vn 0.370795339 -0.915575683 -0.300037354
vn 0.705025733 -0.573715508 0.331416965
vn -0.0354745947 -0.524778724 0.803253114
vn -0.674871862 0.679492056 -0.284311473
vn -0.425044447 0.680201769 0.24231866
vn -0.0454169698 0.609283864 0.477234423
vn -0.524042964 -0.193567827 -0.802289307
vn 0.613389552 -0.277063608 -0.705513835
vn 0.00475226762 -0.822103202 -0.433175415
vn -0.524042964 -0.193567827 -0.802289307
vn -0.48815468 -0.582145214 -0.633250415
vn -0.701699018 -0.604468882 -0.081757322
vn -0.189361528 -0.928281605 0.0697058961
vn -0.0354745947 -0.524778724 0.803253114
vn -0.501179695 -0.364692271 0.725089133
vn -0.637764275 0.610809147 -0.418788344
vn -0.38474074 0.728026569 -0.514837205
vn 0.21466279 0.209599674 -0.927238584
vn 0.820419967 0.118635632 -0.545311987
vn 0.919067442 0.169660777 0.394177586
vn 0.958153486 -0.126573965 0.012978334
vn 0.613389552 -0.277063608 -0.705513835
vn 0.370795339 -0.915575683 -0.300037354
vn 0.00475226762 -0.822103202 -0.433175415
vn 0.694179654 0.190515548 0.719614029
vn 0.236006021 0.0707320496 0.993158698
vn 0.672403514 -0.0583199821 0.750106454
vn -0.800726831 -0.0486791208 0.563448191
vn -0.701699018 -0.604468882 -0.081757322
vn -0.501179695 -0.364692271 0.725089133
vn 0.370795339 -0.915575683 -0.300037354
vn 0.811222434 -0.501618564 -0.212371096
vn 0.705025733 -0.573715508 0.331416965
vn -0.38474074 0.728026569 -0.514837205
vn -0.674871862 0.679492056 -0.284311473
vn 0.205761388 0.740004361 -0.536911368
vn -0.959989965 0.114667423 0.0699141845
vn -0.701699018 -0.604468882 -0.081757322
vn -0.800726831 -0.0486791208 0.563448191
vn -0.701699018 -0.604468882 -0.081757322
vn -0.48815468 -0.582145214 -0.633250415
vn 0.00475226762 -0.822103202 -0.433175415
vn 0.595871985 0.444843918 -0.666028678
vn -0.38474074 0.728026569 -0.514837205
vn 0.205761388 0.740004361 -0.536911368
vn 0.370795339 -0.915575683 -0.300037354
vn 0.613389552 -0.277063608 -0.705513835
vn 0.811222434 -0.501618564 -0.212371096
vn -0.189361528 -0.928281605 0.0697058961
vn 0.370795339 -0.915575683 -0.300037354
vn -0.0354745947 -0.524778724 0.803253114
vn -0.295708269 0.052259244 0.951614439
vn -0.501179695 -0.364692271 0.725089133
vn -0.0354745947 -0.524778724 0.803253114
vn 0.205761388 0.740004361 -0.536911368
vn 0.919067442 0.169660777 0.394177586
vn 0.926261127 0.33439666 -0.129200891
vn -0.800726831 -0.0486791208 0.563448191
vn -0.501179695 -0.364692271 0.725089133
vn -0.295708269 0.052259244 0.951614439
vn 0.926261127 0.33439666 -0.129200891
vn 0.919067442 0.169660777 0.394177586
vn 0.820419967 0.118635632 -0.545311987
vn 0.21466279 0.209599674 -0.927238584
vn 0.613389552 -0.277063608 -0.705513835
vn -0.524042964 -0.193567827 -0.802289307
vn -0.295708269 0.052259244 0.951614439
vn -0.749582946 0.378365695 0.382688046
vn -0.800726831 -0.0486791208 0.563448191
vn 0.694179654 0.190515548 0.719614029
vn -0.425044447 0.680201769 0.24231866
vn 0.236006021 0.0707320496 0.993158698
vn -0.726905584 0.536476493 -0.335149437
vn -0.959989965 0.114667423 0.0699141845
vn -0.749582946 0.378365695 0.382688046
vn 0.205761388 0.740004361 -0.536911368
vn -0.0454169698 0.609283864 0.477234423
vn 0.919067442 0.169660777 0.394177586
vn 0.694179654 0.190515548 0.719614029
vn 0.919067442 0.169660777 0.394177586
vn -0.0454169698 0.609283864 0.477234423
vn -0.637764275 0.610809147 -0.418788344
vn -0.726905584 0.536476493 -0.335149437
vn -0.674871862 0.679492056 -0.284311473
vn -0.800726831 -0.0486791208 0.563448191
vn -0.749582946 0.378365695 0.382688046
vn -0.959989965 0.114667423 0.0699141845
vn -0.637764275 0.610809147 -0.418788344
vn -0.674871862 0.679492056 -0.284311473
vn -0.38474074 0.728026569 -0.514837205
vn -0.48815468 -0.582145214 -0.633250415
vn -0.524042964 -0.193567827 -0.802289307
vn 0.00475226762 -0.822103202 -0.433175415
vn 0.595871985 0.444843918 -0.666028678
vn 0.205761388 0.740004361 -0.536911368
vn 0.926261127 0.33439666 -0.129200891
vn 0.595871985 0.444843918 -0.666028678
vn 0.926261127 0.33439666 -0.129200891
vn 0.820419967 0.118635632 -0.545311987
vn -0.726905584 0.536476493 -0.335149437
vn -0.637764275 0.610809147 -0.418788344
vn -0.524042964 -0.193567827 -0.802289307
vn 0.958153486 -0.126573965 0.012978334
vn 0.613389552 -0.277063608 -0.705513835
vn 0.820419967 0.118635632 -0.545311987
vn 0.613389552 -0.277063608 -0.705513835
vn 0.21466279 0.209599674 -0.927238584
vn 0.820419967 0.118635632 -0.545311987
vn -0.189361528 -0.928281605 0.0697058961
vn -0.501179695 -0.364692271 0.725089133
vn -0.701699018 -0.604468882 -0.081757322
vn -0.726905584 0.536476493 -0.335149437
vn -0.524042964 -0.193567827 -0.802289307
vn -0.701699018 -0.604468882 -0.081757322
vn 0.919067442 0.169660777 0.394177586
vn 0.672403514 -0.0583199821 0.750106454
vn 0.958153486 -0.126573965 0.012978334
vn -0.524042964 -0.193567827 -0.802289307
vn -0.637764275 0.610809147 -0.418788344
vn 0.21466279 0.209599674 -0.927238584
vn 0.236006021 0.0707320496 0.993158698
vn -0.425044447 0.680201769 0.24231866
vn -0.295708269 0.052259244 0.951614439
vn 0.613389552 -0.277063608 -0.705513835
vn 0.958153486 -0.126573965 0.012978334
vn 0.811222434 -0.501618564 -0.212371096
vn 0.595871985 0.444843918 -0.666028678
vn 0.820419967 0.118635632 -0.545311987
vn 0.21466279 0.209599674 -0.927238584
vn 0.694179654 0.190515548 0.719614029
vn -0.0454169698 0.609283864 0.477234423
vn -0.425044447 0.680201769 0.24231866
vn 0.811222434 -0.501618564 -0.212371096
vn 0.958153486 -0.126573965 0.012978334
vn 0.705025733 -0.573715508 0.331416965
vn 0.672403514 -0.0583199821 0.750106454
vn 0.705025733 -0.573715508 0.331416965
vn 0.958153486 -0.126573965 0.012978334
g Group62909
f 17/1/1 12/2/2 7/3/3
f 16/4/4 19/5/5 4/6/6
f 20/7/7 16/8/8 4/9/9
f 12/10/10 27/11/11 1/12/12
f 24/13/13 15/14/14 18/15/15
f 29/16/16 11/17/17 9/18/18
f 6/19/19 22/20/20 25/21/21
f 11/22/22 24/23/23 18/24/24
f 1/25/25 27/26/26 15/27/27
f 26/28/28 27/29/29 12/30/30
f 8/31/31 26/32/32 20/33/33
f 18/34/34 28/35/35 11/36/36
f 19/37/37 28/38/38 18/39/39
f 12/40/40 1/41/41 7/42/42
f 21/43/43 3/44/44 16/45/45
f 21/46/46 5/47/47 20/48/48
f 4/49/49 18/50/50 10/51/51
f 31/52/52 22/53/53 6/54/54
f 2/55/55 9/56/56 14/57/57
f 3/58/58 19/59/59 16/60/60
f 29/61/61 24/62/62 11/63/63
f 13/64/64 20/65/65 10/66/66
f 19/67/67 30/68/68 28/69/69
f 22/70/70 12/71/71 17/72/72
f 8/73/73 20/74/74 13/75/75
f 20/76/76 5/77/77 16/78/78
f 25/79/79 22/80/80 17/81/81
f 19/82/82 3/83/83 30/84/84
f 4/85/85 19/86/86 18/87/87
f 15/88/88 10/89/89 18/90/90
f 17/91/91 9/92/92 23/93/93
f 13/94/94 10/95/95 15/96/96
f 23/97/97 9/98/98 2/99/99
f 6/100/100 3/101/101 21/102/102
f 15/103/103 27/104/104 13/105/105
f 29/106/106 1/107/107 24/108/108
f 26/109/109 8/110/110 27/111/111
f 17/112/112 7/113/113 9/114/114
f 29/115/115 9/116/116 7/117/117
f 31/118/118 26/119/119 12/120/120
f 13/121/121 27/122/122 8/123/123
f 31/124/124 12/125/125 22/126/126
f 5/127/127 21/128/128 16/129/129
f 25/130/130 17/131/131 23/132/132
f 25/133/133 23/134/134 2/135/135
f 26/136/136 31/137/137 21/138/138
f 14/139/139 3/140/140 2/141/141
f 3/142/142 6/143/143 2/144/144
f 4/145/145 10/146/146 20/147/147
f 26/148/148 21/149/149 20/150/150
f 9/151/151 11/152/152 14/153/153
f 21/154/154 31/155/155 6/156/156
f 24/157/157 1/158/158 15/159/159
f 3/160/160 14/161/161 30/162/162
f 25/163/163 2/164/164 6/165/165
f 29/166/166 7/167/167 1/168/168
f 30/169/169 14/170/170 28/171/171
f 11/172/172 28/173/173 14/174/174
