# File exported by Houdini 16.5.405 (www.sidefx.com)
# 138 points
# 792 vertices
# 264 primitives
# Bounds: [-34.0263481, -10.1557474, -31.1202908] to [33.6815262, 120.963516, 30.4160461]
g 
v -11.7976179 24.2498741 -16.8701115
v -11.8315611 24.2315083 -16.8048878
v -11.7956505 24.2092037 -16.8232765
v -11.8351126 24.2706718 -16.8478718
v 26.0807896 44.4598579 7.2337079
v 26.0843639 44.440979 7.23497629
v 26.0832253 44.4595985 7.23599529
v 26.0883694 44.4604836 7.24099207
v -20.5658169 25.8731136 -0.0591325611
v -25.1257057 29.5843639 -6.66718245
v -14.4201441 13.1099958 -4.09045076
v -16.6716633 36.639473 -19.4368057
v -24.1607094 37.2796593 -7.17034626
v -13.1448574 25.2067413 -16.7586632
v -22.2812939 49.6173096 -9.62761116
v -11.721324 74.5247421 -21.6684952
v -34.0263481 55.4572754 -0.740484536
v -28.6381741 68.1355896 -3.83889914
v -19.960638 75.0155792 -16.1034813
v -4.92795086 11.1969175 -11.8349133
v -1.34374261 -3.16144419 -14.9954147
v -1.98200166 -3.96791625 -7.12238503
v -0.140387729 8.84591198 -3.86330271
v -15.5652437 18.8811073 -26.0533009
v -14.706954 36.6628418 -24.479435
v -1.14318085 17.8216133 -25.6374073
v 2.18333387 10.2173824 -20.763237
v -11.4161825 6.10517883 2.32677865
v -2.31821847 8.05206013 6.12141705
v -8.34467888 53.9116745 -29.993927
v -12.4429884 84.5317535 -24.4838772
v 4.02339697 57.8024597 -25.942421
v -32.6535339 68.294838 4.32260656
v -19.0528202 7.54160261 8.56251526
v -26.127779 33.8265343 6.61283493
v -21.1608963 33.9553413 15.2570744
v -29.8852081 37.8111458 14.1287098
v -13.5788565 57.8199501 15.9021215
v -13.240243 43.8859177 18.7145805
v -22.5202274 52.8212166 22.5318184
v -27.1776409 58.9552307 17.2466164
v -5.2630415 5.90501547 10.5618277
v -4.46797276 -7.19468927 16.808033
v 5.8076539 -10.1557474 7.03054094
v -1.0407474 3.51375246 24.8890877
v 7.28790808 -4.20693541 17.8723736
v -11.9299183 25.5949612 15.8184814
v -10.494031 25.5390511 24.8007202
v 6.28159046 23.8460903 24.0562973
v -11.811368 37.4803848 23.3961563
v -3.22168016 31.8907471 28.3887215
v 1.30358076 44.7741547 30.2590714
v -14.377511 54.2574615 20.6698532
v -6.07180977 78.7114639 30.4160461
v -13.3823547 111.18161 -11.8492088
v -31.9630928 86.2732162 -0.121170066
v -20.491312 92.9086761 -4.51736689
v -25.6937256 92.5219727 1.21485424
v -20.5550308 94.4118881 7.75953341
v -16.1591129 113.283218 3.47006488
v -9.38525009 73.8940353 -31.1202908
v 6.0466342 63.76157 -22.395401
v -8.28706264 105.130058 -14.8648252
v 3.968292 82.1848526 -21.0794983
v -1.90503669 100.723923 -20.2854099
v -0.0896114483 95.6927109 -13.158041
v -3.37427616 113.505341 -7.05130243
v 0.954667509 99.2494354 -6.8453722
v -1.24585581 107.02932 -4.38536549
v 3.06837416 96.5447311 -0.887560129
v -3.38243127 105.392342 6.40277195
v -28.4232845 72.4849167 12.3451653
v -21.7825909 82.5517197 13.4838037
v -28.3077755 86.022583 9.26170921
v -15.4704533 80.8939896 10.6166487
v -13.5057878 86.2171631 19.0174637
v 1.91136813 62.8700829 25.7012062
v -7.71543169 97.3887939 25.3014793
v 4.17358971 110.220825 13.9898367
v -6.39164162 109.68914 15.0369253
v 3.8786757 108.236488 3.49672127
v 9.49291706 -3.44111061 -11.7373257
v 9.16561317 10.0155506 -23.2964725
v 6.86837196 -2.8631165 -5.24540138
v 7.71517611 -8.3063736 -3.19260168
v 14.9291325 0.667079926 6.55871201
v 16.5884724 11.8679934 -14.9114189
v 18.0058594 14.5089827 -5.1962533
v 22.4027596 10.7560968 -2.68669176
v 11.0466928 20.1604004 -29.6456795
v 19.2976818 20.2637424 -14.1954031
v 10.5098667 46.3138809 -30.5633183
v 21.6410275 30.4535255 -19.3272572
v 16.6440697 54.8376503 -25.5202084
v 15.2306051 60.7893333 -12.1999903
v 18.6613579 51.6714973 -16.3407021
v 23.9755383 20.163723 -17.3264961
v 25.8311443 21.0331497 4.85541916
v 29.7667179 20.4007587 -10.2841778
v 22.558424 37.3876343 -20.7945442
v 28.7814007 44.395134 -20.6120014
v 25.6905479 53.338459 -19.8398476
v 33.37677 39.0321388 1.97714031
v 33.6815262 55.6934204 -5.54636955
v 29.3571568 64.1254883 2.35802341
v 6.59248114 0.154885277 10.393796
v 14.6290255 5.90588379 13.9839001
v 13.1728191 18.4397526 16.3897018
v 19.0571136 7.86413002 11.763422
v 24.9317188 23.3629055 16.0170383
v 15.4233665 28.8385201 22.685564
v 12.2179041 35.8358612 23.3959751
v 9.22263622 63.2683372 22.1481342
v 28.0135174 43.3907204 8.33719635
v 30.2668781 44.5788307 14.7364693
v 25.7824345 65.0335922 9.72035313
v 27.2339764 70.928688 15.4358778
v 11.2881966 64.9841232 -23.1193619
v 8.44586945 86.018219 -23.226059
v 16.6157799 67.2465897 -21.2161865
v 17.0138512 78.4052048 -12.824193
v 7.12365675 92.1881714 -18.384716
v 23.7422371 86.3404617 -11.6720543
v 8.76775074 118.808174 -11.9584942
v 17.5326157 100.731133 -14.6479168
v 3.97508836 107.325386 -2.5806942
v 11.2909632 100.528694 3.41519284
v 17.7983589 97.5150528 1.71672094
v 6.11473179 119.686798 -1.7926048
v 14.8126364 120.963516 -6.3264513
v 29.5259342 84.704834 -10.5347357
v 31.795681 87.1160507 -2.12438393
v 21.5960121 92.1782455 0.0546370633
v 5.88460875 64.295845 18.3843937
v 12.6868238 74.6565781 21.4703789
v 10.4022942 100.444717 10.0311775
v 17.3162098 97.4794159 11.6286383
v 20.0268192 90.7449722 9.24119186
vt 0.0084276991 0.00793194398 0
vt 0.00803695526 0.00769580714 0
vt 0.00803268794 0.0076923077 0
vt 0.025244642 0.00789488945 0
vt 0.0250000004 0.00779359881 0
vt 0.0253292173 0.0076923077 0
vt 0.0076923077 0.00793194398 0
vt 0.00803268794 0.0076923077 0
vt 0.00803695526 0.00769580714 0
vt 0.0076923077 0.00793194398 0
vt 0.00803695526 0.00769580714 0
vt 0.0084276991 0.00793194398 0
vt 0.0577071495 0.00770699605 0
vt 0.057711184 0.0076923077 0
vt 0.0577868447 0.00773629267 0
vt 0.0413528085 0.00773970643 0
vt 0.0413461551 0.0076923077 0
vt 0.0414373688 0.00771714887 0
vt 0.057692308 0.00773629267 0
vt 0.0577071495 0.00770699605 0
vt 0.0577868447 0.00773629267 0
vt 0.057692308 0.00773629267 0
vt 0.057711184 0.0076923077 0
vt 0.0577071495 0.00770699605 0
vt 0.83758384 0.482818633 0
vt 0.865492642 0.470998317 0
vt 0.903401136 0.484418869 0
vt 0.865492642 0.470998317 0
vt 0.83758384 0.482818633 0
vt 0.874600112 0.384629041 0
vt 0.713527739 0.553292871 0
vt 0.773706675 0.483076721 0
vt 0.771911621 0.552386045 0
vt 0.771911621 0.552386045 0
vt 0.773706675 0.483076721 0
vt 0.83758384 0.482818633 0
vt 0.83758384 0.482818633 0
vt 0.773706675 0.483076721 0
vt 0.81417644 0.404539704 0
vt 0.787774861 0.156361669 0
vt 0.749587715 0.207115799 0
vt 0.76380527 0.144291162 0
vt 0.790723026 0.208227918 0
vt 0.749587715 0.207115799 0
vt 0.787774861 0.156361669 0
vt 0.874600112 0.384629041 0
vt 0.80080533 0.372478366 0
vt 0.874028802 0.316307157 0
vt 0.874600112 0.384629041 0
vt 0.874028802 0.316307157 0
vt 0.967526376 0.366501749 0
vt 0.938731015 0.868403494 0
vt 0.849039137 0.90155828 0
vt 0.906047225 0.818324149 0
vt 0.857519209 0.829431236 0
vt 0.906047225 0.818324149 0
vt 0.849039137 0.90155828 0
vt 0.903401136 0.484418869 0
vt 0.865492642 0.470998317 0
vt 0.957351923 0.440206915 0
vt 0.797803581 0.261104256 0
vt 0.758256733 0.263817579 0
vt 0.749587715 0.207115799 0
vt 0.865492642 0.470998317 0
vt 0.874600112 0.384629041 0
vt 0.967526376 0.366501749 0
vt 0.957351923 0.440206915 0
vt 0.865492642 0.470998317 0
vt 0.967526376 0.366501749 0
vt 0.797803581 0.261104256 0
vt 0.749587715 0.207115799 0
vt 0.790723026 0.208227918 0
vt 0.790723026 0.208227918 0
vt 0.832566261 0.226870641 0
vt 0.797803581 0.261104256 0
vt 0.81417644 0.404539704 0
vt 0.80080533 0.372478366 0
vt 0.874600112 0.384629041 0
vt 0.765347183 0.89911902 0
vt 0.68713063 0.850191772 0
vt 0.849039137 0.90155828 0
vt 0.849039137 0.90155828 0
vt 0.68713063 0.850191772 0
vt 0.857519209 0.829431236 0
vt 0.83758384 0.482818633 0
vt 0.81417644 0.404539704 0
vt 0.874600112 0.384629041 0
vt 0.62895751 0.452307612 0
vt 0.577000856 0.437720478 0
vt 0.81417644 0.404539704 0
vt 0.0655031726 0.652029693 0
vt 0.0913928822 0.760385513 0
vt 0.0162338261 0.67367202 0
vt 0.0913928822 0.760385513 0
vt 0.0468009673 0.732698023 0
vt 0.0162338261 0.67367202 0
vt 0.0414450653 0.630601346 0
vt 0.0655031726 0.652029693 0
vt 0.0162338261 0.67367202 0
vt 0.869429231 0.578387678 0
vt 0.83758384 0.482818633 0
vt 0.876269341 0.538388431 0
vt 0.143237308 0.738481998 0
vt 0.0913928822 0.760385513 0
vt 0.0655031726 0.652029693 0
vt 0.143237308 0.738481998 0
vt 0.128383785 0.789786935 0
vt 0.0913928822 0.760385513 0
vt 0.876269341 0.538388431 0
vt 0.83758384 0.482818633 0
vt 0.903401136 0.484418869 0
vt 0.203393012 0.806997061 0
vt 0.128383785 0.789786935 0
vt 0.143237308 0.738481998 0
vt 0.771911621 0.552386045 0
vt 0.83758384 0.482818633 0
vt 0.869429231 0.578387678 0
vt 0.203393012 0.806997061 0
vt 0.207875922 0.847303629 0
vt 0.128383785 0.789786935 0
vt 0.253639162 0.788603127 0
vt 0.203393012 0.806997061 0
vt 0.143237308 0.738481998 0
vt 0.0822846815 0.601260543 0
vt 0.0655031726 0.652029693 0
vt 0.0414450653 0.630601346 0
vt 0.909266472 0.246539325 0
vt 0.839274585 0.248935014 0
vt 0.832566261 0.226870641 0
vt 0.0655031726 0.652029693 0
vt 0.146366373 0.677355528 0
vt 0.143237308 0.738481998 0
vt 0.146366373 0.677355528 0
vt 0.0655031726 0.652029693 0
vt 0.0822846815 0.601260543 0
vt 0.909266472 0.246539325 0
vt 0.77729404 0.309131861 0
vt 0.839274585 0.248935014 0
vt 0.832566261 0.226870641 0
vt 0.839274585 0.248935014 0
vt 0.797803581 0.261104256 0
vt 0.79531008 0.345576882 0
vt 0.77729404 0.309131861 0
vt 0.909266472 0.246539325 0
vt 0.414016843 0.566432476 0
vt 0.520256758 0.669304132 0
vt 0.466584533 0.65353322 0
vt 0.20718579 0.743374228 0
vt 0.143237308 0.738481998 0
vt 0.146366373 0.677355528 0
vt 0.740389287 0.365817606 0
vt 0.70156461 0.35316357 0
vt 0.77729404 0.309131861 0
vt 0.79531008 0.345576882 0
vt 0.740389287 0.365817606 0
vt 0.77729404 0.309131861 0
vt 0.372136414 0.518746793 0
vt 0.414016843 0.566432476 0
vt 0.366682202 0.576180696 0
vt 0.366682202 0.576180696 0
vt 0.414016843 0.566432476 0
vt 0.377011627 0.639055073 0
vt 0.307914704 0.555165291 0
vt 0.372136414 0.518746793 0
vt 0.366682202 0.576180696 0
vt 0.20718579 0.743374228 0
vt 0.253639162 0.788603127 0
vt 0.143237308 0.738481998 0
vt 0.64984715 0.380349457 0
vt 0.622830987 0.359825045 0
vt 0.740389287 0.365817606 0
vt 0.622830987 0.359825045 0
vt 0.70156461 0.35316357 0
vt 0.740389287 0.365817606 0
vt 0.200491861 0.443621933 0
vt 0.322850496 0.455454439 0
vt 0.372136414 0.518746793 0
vt 0.200491861 0.443621933 0
vt 0.372136414 0.518746793 0
vt 0.307914704 0.555165291 0
vt 0.652109921 0.496796995 0
vt 0.81417644 0.404539704 0
vt 0.773706675 0.483076721 0
vt 0.652109921 0.496796995 0
vt 0.507353663 0.566535294 0
vt 0.62895751 0.452307612 0
vt 0.72975719 0.591788411 0
vt 0.655643463 0.603329659 0
vt 0.713527739 0.553292871 0
vt 0.655643463 0.603329659 0
vt 0.596672595 0.579255104 0
vt 0.713527739 0.553292871 0
vt 0.596672595 0.579255104 0
vt 0.773706675 0.483076721 0
vt 0.713527739 0.553292871 0
vt 0.773706675 0.483076721 0
vt 0.596672595 0.579255104 0
vt 0.652109921 0.496796995 0
vt 0.623322725 0.611357808 0
vt 0.596672595 0.579255104 0
vt 0.655643463 0.603329659 0
vt 0.596672595 0.579255104 0
vt 0.507353663 0.566535294 0
vt 0.652109921 0.496796995 0
vt 0.50863713 0.623628259 0
vt 0.507353663 0.566535294 0
vt 0.596672595 0.579255104 0
vt 0.652109921 0.496796995 0
vt 0.62895751 0.452307612 0
vt 0.81417644 0.404539704 0
vt 0.81417644 0.404539704 0
vt 0.577000856 0.437720478 0
vt 0.80080533 0.372478366 0
vt 0.539697289 0.863874257 0
vt 0.595587075 0.843882799 0
vt 0.765347183 0.89911902 0
vt 0.765347183 0.89911902 0
vt 0.595587075 0.843882799 0
vt 0.68713063 0.850191772 0
vt 0.68713063 0.850191772 0
vt 0.595587075 0.843882799 0
vt 0.67535603 0.781219602 0
vt 0.595587075 0.843882799 0
vt 0.642762005 0.762323618 0
vt 0.67535603 0.781219602 0
vt 0.51165837 0.528592169 0
vt 0.62895751 0.452307612 0
vt 0.507353663 0.566535294 0
vt 0.511752665 0.486620575 0
vt 0.577000856 0.437720478 0
vt 0.62895751 0.452307612 0
vt 0.549176455 0.771116197 0
vt 0.642762005 0.762323618 0
vt 0.595587075 0.843882799 0
vt 0.467484683 0.803524256 0
vt 0.549176455 0.771116197 0
vt 0.595587075 0.843882799 0
vt 0.51165837 0.528592169 0
vt 0.511752665 0.486620575 0
vt 0.62895751 0.452307612 0
vt 0.467484683 0.803524256 0
vt 0.595587075 0.843882799 0
vt 0.539697289 0.863874257 0
vt 0.507353663 0.566535294 0
vt 0.47804746 0.4870314 0
vt 0.51165837 0.528592169 0
vt 0.466349036 0.566765189 0
vt 0.452517271 0.504050612 0
vt 0.47804746 0.4870314 0
vt 0.464381993 0.754911423 0
vt 0.467484683 0.803524256 0
vt 0.418102801 0.793140113 0
vt 0.50863713 0.623628259 0
vt 0.466349036 0.566765189 0
vt 0.507353663 0.566535294 0
vt 0.507353663 0.566535294 0
vt 0.466349036 0.566765189 0
vt 0.47804746 0.4870314 0
vt 0.521854103 0.966989279 0
vt 0.523022056 0.935099006 0
vt 0.54836148 0.904491007 0
vt 0.72975719 0.591788411 0
vt 0.713527739 0.553292871 0
vt 0.771911621 0.552386045 0
vt 0.869429231 0.578387678 0
vt 0.72975719 0.591788411 0
vt 0.771911621 0.552386045 0
vt 0.725794077 0.636685669 0
vt 0.72975719 0.591788411 0
vt 0.869429231 0.578387678 0
vt 0.725794077 0.636685669 0
vt 0.869429231 0.578387678 0
vt 0.791498005 0.634326458 0
vt 0.308866501 0.901529253 0
vt 0.253110915 0.897458017 0
vt 0.203393012 0.806997061 0
vt 0.253639162 0.788603127 0
vt 0.308866501 0.901529253 0
vt 0.203393012 0.806997061 0
vt 0.203393012 0.806997061 0
vt 0.253110915 0.897458017 0
vt 0.207875922 0.847303629 0
vt 0.725794077 0.636685669 0
vt 0.655643463 0.603329659 0
vt 0.72975719 0.591788411 0
vt 0.662213981 0.641551733 0
vt 0.655643463 0.603329659 0
vt 0.725794077 0.636685669 0
vt 0.623322725 0.611357808 0
vt 0.655643463 0.603329659 0
vt 0.662213981 0.641551733 0
vt 0.308866501 0.901529253 0
vt 0.301577061 0.939553738 0
vt 0.253110915 0.897458017 0
vt 0.365387082 0.943232656 0
vt 0.308866501 0.901529253 0
vt 0.333798647 0.872434497 0
vt 0.301577061 0.939553738 0
vt 0.365387082 0.943232656 0
vt 0.339094907 0.977041006 0
vt 0.301577061 0.939553738 0
vt 0.308866501 0.901529253 0
vt 0.365387082 0.943232656 0
vt 0.594220877 0.636456847 0
vt 0.596672595 0.579255104 0
vt 0.623322725 0.611357808 0
vt 0.594220877 0.636456847 0
vt 0.50863713 0.623628259 0
vt 0.596672595 0.579255104 0
vt 0.308866501 0.901529253 0
vt 0.253639162 0.788603127 0
vt 0.333798647 0.872434497 0
vt 0.64984715 0.380349457 0
vt 0.470886558 0.420120955 0
vt 0.622830987 0.359825045 0
vt 0.200491861 0.443621933 0
vt 0.198935002 0.374490052 0
vt 0.322850496 0.455454439 0
vt 0.470886558 0.420120955 0
vt 0.33646673 0.367721587 0
vt 0.622830987 0.359825045 0
vt 0.468146533 0.920122445 0
vt 0.333798647 0.872434497 0
vt 0.253639162 0.788603127 0
vt 0.468146533 0.920122445 0
vt 0.365387082 0.943232656 0
vt 0.333798647 0.872434497 0
vt 0.470886558 0.420120955 0
vt 0.33227998 0.426711768 0
vt 0.33646673 0.367721587 0
vt 0.410457045 0.474210858 0
vt 0.33227998 0.426711768 0
vt 0.470886558 0.420120955 0
vt 0.200491861 0.443621933 0
vt 0.128677964 0.385514587 0
vt 0.198935002 0.374490052 0
vt 0.0273661166 0.410958558 0
vt 0.0482388474 0.360538155 0
vt 0.128677964 0.385514587 0
vt 0.0273661166 0.410958558 0
vt 0.128677964 0.385514587 0
vt 0.200491861 0.443621933 0
vt 0.468146533 0.920122445 0
vt 0.452157229 0.98798579 0
vt 0.365387082 0.943232656 0
vt 0.521854103 0.966989279 0
vt 0.452157229 0.98798579 0
vt 0.468146533 0.920122445 0
vt 0.33227998 0.426711768 0
vt 0.295847207 0.35092622 0
vt 0.33646673 0.367721587 0
vt 0.983851194 0.811625004 0
vt 0.900482953 0.774845719 0
vt 0.983897388 0.754421771 0
vt 0.787774861 0.156361669 0
vt 0.76380527 0.144291162 0
vt 0.794065177 0.113777265 0
vt 0.790723026 0.208227918 0
vt 0.787774861 0.156361669 0
vt 0.817582011 0.134395704 0
vt 0.790723026 0.208227918 0
vt 0.817582011 0.134395704 0
vt 0.839627743 0.14451091 0
vt 0.817582011 0.134395704 0
vt 0.787774861 0.156361669 0
vt 0.794065177 0.113777265 0
vt 0.848467052 0.0599965379 0
vt 0.817582011 0.134395704 0
vt 0.794065177 0.113777265 0
vt 0.848467052 0.0599965379 0
vt 0.839627743 0.14451091 0
vt 0.817582011 0.134395704 0
vt 0.848467052 0.0599965379 0
vt 0.869597912 0.072480306 0
vt 0.839627743 0.14451091 0
vt 0.906047225 0.818324149 0
vt 0.983851194 0.811625004 0
vt 0.938731015 0.868403494 0
vt 0.983851194 0.811625004 0
vt 0.906047225 0.818324149 0
vt 0.900482953 0.774845719 0
vt 0.900482953 0.774845719 0
vt 0.906047225 0.818324149 0
vt 0.857519209 0.829431236 0
vt 0.857519209 0.829431236 0
vt 0.845187902 0.771415412 0
vt 0.900482953 0.774845719 0
vt 0.900482953 0.774845719 0
vt 0.902738452 0.721925855 0
vt 0.983897388 0.754421771 0
vt 0.845187902 0.771415412 0
vt 0.902738452 0.721925855 0
vt 0.900482953 0.774845719 0
vt 0.902738452 0.721925855 0
vt 0.8683635 0.695121348 0
vt 0.983897388 0.754421771 0
vt 0.737570286 0.764497578 0
vt 0.845187902 0.771415412 0
vt 0.857519209 0.829431236 0
vt 0.737570286 0.764497578 0
vt 0.810679018 0.69961679 0
vt 0.845187902 0.771415412 0
vt 0.68713063 0.850191772 0
vt 0.67535603 0.781219602 0
vt 0.857519209 0.829431236 0
vt 0.67535603 0.781219602 0
vt 0.737570286 0.764497578 0
vt 0.857519209 0.829431236 0
vt 0.67535603 0.781219602 0
vt 0.70430851 0.732955515 0
vt 0.737570286 0.764497578 0
vt 0.737570286 0.764497578 0
vt 0.70430851 0.732955515 0
vt 0.810679018 0.69961679 0
vt 0.869597912 0.072480306 0
vt 0.884464025 0.126367271 0
vt 0.839627743 0.14451091 0
vt 0.845187902 0.771415412 0
vt 0.8683635 0.695121348 0
vt 0.902738452 0.721925855 0
vt 0.8683635 0.695121348 0
vt 0.919063985 0.672629833 0
vt 0.983897388 0.754421771 0
vt 0.531034231 0.203820124 0
vt 0.508560002 0.0834793672 0
vt 0.574983358 0.157673731 0
vt 0.508560002 0.0834793672 0
vt 0.531034231 0.203820124 0
vt 0.490319729 0.167749271 0
vt 0.508560002 0.0834793672 0
vt 0.59210366 0.128051132 0
vt 0.574983358 0.157673731 0
vt 0.500137985 0.208676189 0
vt 0.490319729 0.167749271 0
vt 0.531034231 0.203820124 0
vt 0.810679018 0.69961679 0
vt 0.858229458 0.677170038 0
vt 0.8683635 0.695121348 0
vt 0.8683635 0.695121348 0
vt 0.845187902 0.771415412 0
vt 0.810679018 0.69961679 0
vt 0.414556742 0.249703512 0
vt 0.500137985 0.208676189 0
vt 0.455134511 0.243139893 0
vt 0.414556742 0.249703512 0
vt 0.371961325 0.220263258 0
vt 0.500137985 0.208676189 0
vt 0.490319729 0.167749271 0
vt 0.500137985 0.208676189 0
vt 0.371961325 0.220263258 0
vt 0.371961325 0.220263258 0
vt 0.316838324 0.135986239 0
vt 0.490319729 0.167749271 0
vt 0.667111874 0.695250332 0
vt 0.706209242 0.694229305 0
vt 0.70430851 0.732955515 0
vt 0.70430851 0.732955515 0
vt 0.706209242 0.694229305 0
vt 0.810679018 0.69961679 0
vt 0.706209242 0.694229305 0
vt 0.778697789 0.67280674 0
vt 0.810679018 0.69961679 0
vt 0.706209242 0.694229305 0
vt 0.713449359 0.654706657 0
vt 0.778697789 0.67280674 0
vt 0.414556742 0.249703512 0
vt 0.321485072 0.227742195 0
vt 0.371961325 0.220263258 0
vt 0.667111874 0.695250332 0
vt 0.713449359 0.654706657 0
vt 0.706209242 0.694229305 0
vt 0.316838324 0.135986239 0
vt 0.403253406 0.102979407 0
vt 0.490319729 0.167749271 0
vt 0.909266472 0.246539325 0
vt 0.832566261 0.226870641 0
vt 0.893396437 0.17851305 0
vt 0.468386859 0.728976369 0
vt 0.478747576 0.699272394 0
vt 0.520256758 0.669304132 0
vt 0.86046654 0.157128692 0
vt 0.832566261 0.226870641 0
vt 0.839627743 0.14451091 0
vt 0.839627743 0.14451091 0
vt 0.832566261 0.226870641 0
vt 0.790723026 0.208227918 0
vt 0.86046654 0.157128692 0
vt 0.893396437 0.17851305 0
vt 0.832566261 0.226870641 0
vt 0.382327408 0.694518566 0
vt 0.478747576 0.699272394 0
vt 0.468386859 0.728976369 0
vt 0.917366147 0.139512643 0
vt 0.893396437 0.17851305 0
vt 0.86046654 0.157128692 0
vt 0.382327408 0.694518566 0
vt 0.468386859 0.728976369 0
vt 0.417241544 0.735680819 0
vt 0.884464025 0.126367271 0
vt 0.86046654 0.157128692 0
vt 0.839627743 0.14451091 0
vt 0.884464025 0.126367271 0
vt 0.917366147 0.139512643 0
vt 0.86046654 0.157128692 0
vt 0.478747576 0.699272394 0
vt 0.466584533 0.65353322 0
vt 0.520256758 0.669304132 0
vt 0.377011627 0.639055073 0
vt 0.466584533 0.65353322 0
vt 0.478747576 0.699272394 0
vt 0.382327408 0.694518566 0
vt 0.377011627 0.639055073 0
vt 0.478747576 0.699272394 0
vt 0.377011627 0.639055073 0
vt 0.382327408 0.694518566 0
vt 0.329921544 0.721303403 0
vt 0.414016843 0.566432476 0
vt 0.466584533 0.65353322 0
vt 0.377011627 0.639055073 0
vt 0.312569052 0.627269149 0
vt 0.366682202 0.576180696 0
vt 0.377011627 0.639055073 0
vt 0.307914704 0.555165291 0
vt 0.366682202 0.576180696 0
vt 0.312569052 0.627269149 0
vt 0.312569052 0.627269149 0
vt 0.377011627 0.639055073 0
vt 0.332594723 0.660517037 0
vt 0.200491861 0.443621933 0
vt 0.307914704 0.555165291 0
vt 0.230211228 0.518549085 0
vt 0.312569052 0.627269149 0
vt 0.208145842 0.552605748 0
vt 0.307914704 0.555165291 0
vt 0.208145842 0.552605748 0
vt 0.312569052 0.627269149 0
vt 0.332594723 0.660517037 0
vt 0.91900897 0.119390078 0
vt 0.917366147 0.139512643 0
vt 0.884464025 0.126367271 0
vt 0.382327408 0.694518566 0
vt 0.417241544 0.735680819 0
vt 0.400699317 0.74941057 0
vt 0.59210366 0.128051132 0
vt 0.613274574 0.039095033 0
vt 0.66530776 0.0683204234 0
vt 0.508560002 0.0834793672 0
vt 0.506834567 0.0111592487 0
vt 0.613274574 0.039095033 0
vt 0.508560002 0.0834793672 0
vt 0.613274574 0.039095033 0
vt 0.59210366 0.128051132 0
vt 0.329921544 0.721303403 0
vt 0.382327408 0.694518566 0
vt 0.400699317 0.74941057 0
vt 0.403253406 0.102979407 0
vt 0.384483427 0.0533337519 0
vt 0.508560002 0.0834793672 0
vt 0.508560002 0.0834793672 0
vt 0.379977316 0.0108200032 0
vt 0.506834567 0.0111592487 0
vt 0.384483427 0.0533337519 0
vt 0.379977316 0.0108200032 0
vt 0.508560002 0.0834793672 0
vt 0.403253406 0.102979407 0
vt 0.508560002 0.0834793672 0
vt 0.490319729 0.167749271 0
vt 0.329921544 0.721303403 0
vt 0.332594723 0.660517037 0
vt 0.377011627 0.639055073 0
vt 0.332594723 0.660517037 0
vt 0.329921544 0.721303403 0
vt 0.227744192 0.692099392 0
vt 0.384483427 0.0533337519 0
vt 0.265521914 0.0456207022 0
vt 0.379977316 0.0108200032 0
vt 0.272773176 0.0858061537 0
vt 0.265521914 0.0456207022 0
vt 0.384483427 0.0533337519 0
vt 0.403253406 0.102979407 0
vt 0.272773176 0.0858061537 0
vt 0.384483427 0.0533337519 0
vt 0.272773176 0.0858061537 0
vt 0.403253406 0.102979407 0
vt 0.316838324 0.135986239 0
vt 0.642762005 0.762323618 0
vt 0.641061187 0.738106549 0
vt 0.67535603 0.781219602 0
vt 0.67535603 0.781219602 0
vt 0.641061187 0.738106549 0
vt 0.667111874 0.695250332 0
vt 0.67535603 0.781219602 0
vt 0.667111874 0.695250332 0
vt 0.70430851 0.732955515 0
vt 0.200079381 0.309347302 0
vt 0.111550048 0.258059561 0
vt 0.201722592 0.280602992 0
vt 0.201722592 0.280602992 0
vt 0.25018397 0.262709022 0
vt 0.200079381 0.309347302 0
vt 0.467484683 0.803524256 0
vt 0.499082655 0.761097908 0
vt 0.549176455 0.771116197 0
vt 0.549176455 0.771116197 0
vt 0.639860511 0.735565722 0
vt 0.642762005 0.762323618 0
vt 0.0858417451 0.220366269 0
vt 0.111550048 0.258059561 0
vt 0.097984381 0.286870927 0
vt 0.108802393 0.287116796 0
vt 0.111550048 0.258059561 0
vt 0.200079381 0.309347302 0
vt 0.0858417451 0.220366269 0
vt 0.182881415 0.222031936 0
vt 0.111550048 0.258059561 0
vt 0.111550048 0.258059561 0
vt 0.182881415 0.222031936 0
vt 0.201722592 0.280602992 0
vt 0.0858417451 0.220366269 0
vt 0.167117283 0.173137248 0
vt 0.182881415 0.222031936 0
vt 0.467484683 0.803524256 0
vt 0.464381993 0.754911423 0
vt 0.499082655 0.761097908 0
vt 0.0982307345 0.16655013 0
vt 0.0858417451 0.220366269 0
vt 0.0681086779 0.145686731 0
vt 0.353083611 0.288529336 0
vt 0.362987131 0.353113174 0
vt 0.333247066 0.30675 0
vt 0.0404614992 0.218303457 0
vt 0.0335736237 0.182772845 0
vt 0.0858417451 0.220366269 0
vt 0.305109322 0.269298822 0
vt 0.353083611 0.288529336 0
vt 0.333247066 0.30675 0
vt 0.0335736237 0.182772845 0
vt 0.0681086779 0.145686731 0
vt 0.0858417451 0.220366269 0
vt 0.0674465075 0.147256136 0
vt 0.0335736237 0.182772845 0
vt 0.049785506 0.1389305 0
vt 0.0674465075 0.147256136 0
vt 0.0681086779 0.145686731 0
vt 0.0335736237 0.182772845 0
vt 0.0674465075 0.147256136 0
vt 0.049785506 0.1389305 0
vt 0.0678211823 0.106544651 0
vt 0.0674465075 0.147256136 0
vt 0.0707703754 0.148553774 0
vt 0.0681086779 0.145686731 0
vt 0.0681086779 0.145686731 0
vt 0.0707703754 0.148553774 0
vt 0.0982307345 0.16655013 0
vt 0.182881415 0.222031936 0
vt 0.25018397 0.262709022 0
vt 0.201722592 0.280602992 0
vt 0.182881415 0.222031936 0
vt 0.167117283 0.173137248 0
vt 0.25018397 0.262709022 0
vt 0.167117283 0.173137248 0
vt 0.321485072 0.227742195 0
vt 0.25018397 0.262709022 0
vt 0.167117283 0.173137248 0
vt 0.185459197 0.155214593 0
vt 0.321485072 0.227742195 0
vt 0.185459197 0.155214593 0
vt 0.371961325 0.220263258 0
vt 0.321485072 0.227742195 0
vt 0.185459197 0.155214593 0
vt 0.17896907 0.127382025 0
vt 0.371961325 0.220263258 0
vt 0.17896907 0.127382025 0
vt 0.316838324 0.135986239 0
vt 0.371961325 0.220263258 0
vt 0.17896907 0.127382025 0
vt 0.185459197 0.155214593 0
vt 0.167117283 0.173137248 0
vt 0.0982307345 0.16655013 0
vt 0.167117283 0.173137248 0
vt 0.0858417451 0.220366269 0
vt 0.167117283 0.173137248 0
vt 0.0982307345 0.16655013 0
vt 0.138882458 0.115456834 0
vt 0.17896907 0.127382025 0
vt 0.167117283 0.173137248 0
vt 0.138882458 0.115456834 0
vt 0.0707703754 0.148553774 0
vt 0.100461096 0.118427999 0
vt 0.0982307345 0.16655013 0
vt 0.208145842 0.552605748 0
vt 0.230211228 0.518549085 0
vt 0.307914704 0.555165291 0
vt 0.230211228 0.518549085 0
vt 0.208145842 0.552605748 0
vt 0.204229563 0.537910461 0
vt 0.150778145 0.548261762 0
vt 0.204229563 0.537910461 0
vt 0.208145842 0.552605748 0
vt 0.332594723 0.660517037 0
vt 0.150778145 0.548261762 0
vt 0.208145842 0.552605748 0
vt 0.0384493619 0.471191585 0
vt 0.0273661166 0.410958558 0
vt 0.204229563 0.537910461 0
vt 0.204229563 0.537910461 0
vt 0.150778145 0.548261762 0
vt 0.0384493619 0.471191585 0
vt 0.230211228 0.518549085 0
vt 0.0273661166 0.410958558 0
vt 0.200491861 0.443621933 0
vt 0.0273661166 0.410958558 0
vt 0.230211228 0.518549085 0
vt 0.204229563 0.537910461 0
vt 0.362987131 0.353113174 0
vt 0.33646673 0.367721587 0
vt 0.333247066 0.30675 0
vt 0.33646673 0.367721587 0
vt 0.295847207 0.35092622 0
vt 0.333247066 0.30675 0
vt 0.0252525825 0.0788602605 0
vt 0.0691730082 0.0766573399 0
vt 0.0431120582 0.114491649 0
vt 0.0678211823 0.106544651 0
vt 0.049785506 0.1389305 0
vt 0.0431120582 0.114491649 0
vt 0.0431120582 0.114491649 0
vt 0.0691730082 0.0766573399 0
vt 0.0678211823 0.106544651 0
vt 0.0252525825 0.0788602605 0
vt 0.0367347486 0.0416442975 0
vt 0.0691730082 0.0766573399 0
vt 0.0406377986 0.51281482 0
vt 0.0384493619 0.471191585 0
vt 0.150778145 0.548261762 0
vt 0.0384493619 0.471191585 0
vt 0.0406377986 0.51281482 0
vt 0.00414409488 0.477520794 0
vt 0.100461096 0.118427999 0
vt 0.0678211823 0.106544651 0
vt 0.129944205 0.0603092909 0
vt 0.0678211823 0.106544651 0
vt 0.0855279863 0.047400061 0
vt 0.129944205 0.0603092909 0
vt 0.468146533 0.920122445 0
vt 0.523022056 0.935099006 0
vt 0.521854103 0.966989279 0
vt -0.00266323891 0.0268512312 0
vt 0.0367347486 0.0416442975 0
vt 0.0252525825 0.0788602605 0
vt 0.0674465075 0.147256136 0
vt 0.0678211823 0.106544651 0
vt 0.100461096 0.118427999 0
vt 0.0707703754 0.148553774 0
vt 0.0674465075 0.147256136 0
vt 0.100461096 0.118427999 0
vt 0.129944205 0.0603092909 0
vt 0.234691441 0.0119991666 0
vt 0.265521914 0.0456207022 0
vt 0.379977316 0.0108200032 0
vt 0.265521914 0.0456207022 0
vt 0.234691441 0.0119991666 0
vt 0.316838324 0.135986239 0
vt 0.17896907 0.127382025 0
vt 0.272773176 0.0858061537 0
vt 0.150778145 0.548261762 0
vt 0.332594723 0.660517037 0
vt 0.227744192 0.692099392 0
vt 0.128137201 0.61639446 0
vt 0.150778145 0.548261762 0
vt 0.227744192 0.692099392 0
vt 0.0521120317 0.546010613 0
vt 0.0406377986 0.51281482 0
vt 0.150778145 0.548261762 0
vt 0.150778145 0.548261762 0
vt 0.128137201 0.61639446 0
vt 0.0521120317 0.546010613 0
vt 0.272773176 0.0858061537 0
vt 0.129944205 0.0603092909 0
vt 0.265521914 0.0456207022 0
vt 0.17896907 0.127382025 0
vt 0.138882458 0.115456834 0
vt 0.272773176 0.0858061537 0
vt 0.0982307345 0.16655013 0
vt 0.100461096 0.118427999 0
vt 0.138882458 0.115456834 0
vt 0.129944205 0.0603092909 0
vt 0.138882458 0.115456834 0
vt 0.100461096 0.118427999 0
vt 0.129944205 0.0603092909 0
vt 0.272773176 0.0858061537 0
vt 0.138882458 0.115456834 0
vn 0.508399129 0.167222381 -0.844728887
vn -0.549192309 0.792049646 -0.266543031
vn -0.497830003 -0.180142269 0.848359585
vn 0.571746528 -0.787374914 0.230535671
vn 0.508399129 0.167222381 -0.844728887
vn -0.497830003 -0.180142269 0.848359585
vn 0.571746528 -0.787374914 0.230535671
vn -0.497830003 -0.180142269 0.848359585
vn -0.549192309 0.792049646 -0.266543031
vn 0.571746528 -0.787374914 0.230535671
vn -0.549192309 0.792049646 -0.266543031
vn 0.508399129 0.167222381 -0.844728887
vn -0.686968565 -0.0824837834 0.721990764
vn 0.663455665 -0.47535798 0.577807486
vn -0.0138209481 0.99575609 0.0909879059
vn 0.663455665 -0.47535798 0.577807486
vn -0.613919437 -0.464212477 -0.638443232
vn -0.0138209481 0.99575609 0.0909879059
vn -0.613919437 -0.464212477 -0.638443232
vn -0.686968565 -0.0824837834 0.721990764
vn -0.0138209481 0.99575609 0.0909879059
vn -0.613919437 -0.464212477 -0.638443232
vn 0.663455665 -0.47535798 0.577807486
vn -0.686968565 -0.0824837834 0.721990764
vn -0.740879834 -0.401066422 -0.328913569
vn -0.661663294 -0.529000103 -0.476841688
vn -0.850479782 -0.225773007 -0.315742791
vn -0.661663294 -0.529000103 -0.476841688
vn -0.740879834 -0.401066422 -0.328913569
vn -0.72686851 -0.144202381 0.203991711
vn -0.535091043 0.0720797703 -0.749689341
vn -0.816366792 0.0895783827 -0.444553703
vn -0.979537904 -0.104376733 -0.134250447
vn -0.979537904 -0.104376733 -0.134250447
vn -0.816366792 0.0895783827 -0.444553703
vn -0.740879834 -0.401066422 -0.328913569
vn -0.740879834 -0.401066422 -0.328913569
vn -0.816366792 0.0895783827 -0.444553703
vn -0.515083551 -0.142145202 -0.363818198
vn -0.758048236 -0.576959789 0.439388484
vn -0.684748888 -0.226705581 0.0560234413
vn -0.627901793 -0.562581062 -0.575496316
vn -0.663316131 -0.412834525 0.219058678
vn -0.684748888 -0.226705581 0.0560234413
vn -0.758048236 -0.576959789 0.439388484
vn -0.72686851 -0.144202381 0.203991711
vn -0.927137256 0.0279976688 -0.454781413
vn -0.959628999 -0.322565854 -0.367811173
vn -0.72686851 -0.144202381 0.203991711
vn -0.959628999 -0.322565854 -0.367811173
vn -0.684748888 -0.226705581 0.0560234413
vn -0.684748888 -0.226705581 0.0560234413
vn -0.959628999 -0.322565854 -0.367811173
vn -0.104000479 -0.565814078 -0.650407255
vn -0.0595440567 -0.102561243 -0.836141229
vn -0.104000479 -0.565814078 -0.650407255
vn -0.959628999 -0.322565854 -0.367811173
vn -0.850479782 -0.225773007 -0.315742791
vn -0.661663294 -0.529000103 -0.476841688
vn -0.542682111 -0.219284639 -0.877755821
vn 0.178653166 -1.00544894 -0.356560051
vn -0.542682111 -0.219284639 -0.877755821
vn -0.684748888 -0.226705581 0.0560234413
vn -0.661663294 -0.529000103 -0.476841688
vn -0.72686851 -0.144202381 0.203991711
vn -0.684748888 -0.226705581 0.0560234413
vn -0.542682111 -0.219284639 -0.877755821
vn -0.661663294 -0.529000103 -0.476841688
vn -0.684748888 -0.226705581 0.0560234413
vn 0.178653166 -1.00544894 -0.356560051
vn -0.684748888 -0.226705581 0.0560234413
vn -0.663316131 -0.412834525 0.219058678
vn -0.663316131 -0.412834525 0.219058678
vn -0.64265269 -0.306702465 -0.289821208
vn 0.178653166 -1.00544894 -0.356560051
vn -0.515083551 -0.142145202 -0.363818198
vn -0.927137256 0.0279976688 -0.454781413
vn -0.72686851 -0.144202381 0.203991711
vn -0.927137256 0.0279976688 -0.454781413
vn -0.00697567174 -0.178131834 -1.00963092
vn -0.959628999 -0.322565854 -0.367811173
vn -0.959628999 -0.322565854 -0.367811173
vn -0.00697567174 -0.178131834 -1.00963092
vn -0.0595440567 -0.102561243 -0.836141229
vn -0.740879834 -0.401066422 -0.328913569
vn -0.515083551 -0.142145202 -0.363818198
vn -0.72686851 -0.144202381 0.203991711
vn -0.38262406 0.191023052 -0.452153921
vn -0.921637475 0.192881614 0.141961485
vn -0.515083551 -0.142145202 -0.363818198
vn -0.510602951 -0.477424562 0.695749998
vn -0.853860974 -0.247143731 -0.375852883
vn -0.542682111 -0.219284639 -0.877755821
vn -0.853860974 -0.247143731 -0.375852883
vn -0.850479782 -0.225773007 -0.315742791
vn -0.542682111 -0.219284639 -0.877755821
vn 0.178653166 -1.00544894 -0.356560051
vn -0.510602951 -0.477424562 0.695749998
vn -0.542682111 -0.219284639 -0.877755821
vn -0.863519192 -0.28309384 0.348308146
vn -0.740879834 -0.401066422 -0.328913569
vn -0.853860974 -0.247143731 -0.375852883
vn -0.164736345 -0.158511341 0.849260867
vn -0.853860974 -0.247143731 -0.375852883
vn -0.510602951 -0.477424562 0.695749998
vn -0.164736345 -0.158511341 0.849260867
vn -0.863519192 -0.28309384 0.348308146
vn -0.853860974 -0.247143731 -0.375852883
vn -0.853860974 -0.247143731 -0.375852883
vn -0.740879834 -0.401066422 -0.328913569
vn -0.850479782 -0.225773007 -0.315742791
vn 0.0103128422 0.155607164 1.01243508
vn -0.863519192 -0.28309384 0.348308146
vn -0.164736345 -0.158511341 0.849260867
vn -0.979537904 -0.104376733 -0.134250447
vn -0.740879834 -0.401066422 -0.328913569
vn -0.863519192 -0.28309384 0.348308146
vn 0.0103128422 0.155607164 1.01243508
vn -0.796913385 0.0640736297 0.598697186
vn -0.863519192 -0.28309384 0.348308146
vn -0.283090889 0.180195287 0.207001165
vn 0.0103128422 0.155607164 1.01243508
vn -0.164736345 -0.158511341 0.849260867
vn 0.06457147 -0.754635632 0.105947629
vn -0.510602951 -0.477424562 0.695749998
vn 0.178653166 -1.00544894 -0.356560051
vn -0.757206738 -0.498897403 0.22909908
vn 0.06457147 -0.754635632 0.105947629
vn -0.64265269 -0.306702465 -0.289821208
vn -0.510602951 -0.477424562 0.695749998
vn -0.458028078 -0.0452347696 0.205298632
vn -0.164736345 -0.158511341 0.849260867
vn -0.458028078 -0.0452347696 0.205298632
vn -0.510602951 -0.477424562 0.695749998
vn 0.06457147 -0.754635632 0.105947629
vn -0.757206738 -0.498897403 0.22909908
vn -0.458028078 -0.0452347696 0.205298632
vn 0.06457147 -0.754635632 0.105947629
vn -0.64265269 -0.306702465 -0.289821208
vn 0.06457147 -0.754635632 0.105947629
vn 0.178653166 -1.00544894 -0.356560051
vn -0.644622445 -0.0642858222 0.804786801
vn -0.458028078 -0.0452347696 0.205298632
vn -0.757206738 -0.498897403 0.22909908
vn -0.644622445 -0.0642858222 0.804786801
vn -0.757206738 -0.498897403 0.22909908
vn -0.162128747 -0.283102155 0.935025632
vn -0.600992382 -0.150038689 0.692205429
vn -0.164736345 -0.158511341 0.849260867
vn -0.458028078 -0.0452347696 0.205298632
vn -0.826411486 -0.22705619 0.436537653
vn -0.600992382 -0.150038689 0.692205429
vn -0.458028078 -0.0452347696 0.205298632
vn -0.644622445 -0.0642858222 0.804786801
vn -0.826411486 -0.22705619 0.436537653
vn -0.458028078 -0.0452347696 0.205298632
vn -0.826411486 -0.22705619 0.436537653
vn -0.644622445 -0.0642858222 0.804786801
vn -0.126576573 -0.236778945 0.843810141
vn -0.126576573 -0.236778945 0.843810141
vn -0.644622445 -0.0642858222 0.804786801
vn 0.358586103 -0.0941303223 0.904093862
vn 0.0134204151 -0.0382219926 0.945743918
vn -0.826411486 -0.22705619 0.436537653
vn -0.126576573 -0.236778945 0.843810141
vn -0.600992382 -0.150038689 0.692205429
vn -0.283090889 0.180195287 0.207001165
vn -0.164736345 -0.158511341 0.849260867
vn -0.921017468 -0.00922134798 0.370355934
vn -0.283090889 0.180195287 0.207001165
vn -0.826411486 -0.22705619 0.436537653
vn -0.283090889 0.180195287 0.207001165
vn -0.600992382 -0.150038689 0.692205429
vn -0.826411486 -0.22705619 0.436537653
vn 0.122369498 0.153077796 0.843031883
vn -0.921017468 -0.00922134798 0.370355934
vn -0.826411486 -0.22705619 0.436537653
vn 0.122369498 0.153077796 0.843031883
vn -0.826411486 -0.22705619 0.436537653
vn 0.0134204151 -0.0382219926 0.945743918
vn -0.937446177 0.0169430599 -0.291497856
vn -0.515083551 -0.142145202 -0.363818198
vn -0.816366792 0.0895783827 -0.444553703
vn -0.937446177 0.0169430599 -0.291497856
vn -0.426017523 0.469067365 -0.827196836
vn -0.38262406 0.191023052 -0.452153921
vn -0.956214309 0.0734312758 0.135286182
vn -0.762129188 0.253907293 -0.491362453
vn -0.535091043 0.0720797703 -0.749689341
vn -0.762129188 0.253907293 -0.491362453
vn -0.837380528 0.187293276 -0.322641551
vn -0.535091043 0.0720797703 -0.749689341
vn -0.837380528 0.187293276 -0.322641551
vn -0.816366792 0.0895783827 -0.444553703
vn -0.535091043 0.0720797703 -0.749689341
vn -0.816366792 0.0895783827 -0.444553703
vn -0.837380528 0.187293276 -0.322641551
vn -0.937446177 0.0169430599 -0.291497856
vn -0.227677226 1.04339993 -0.0583618283
vn -0.837380528 0.187293276 -0.322641551
vn -0.762129188 0.253907293 -0.491362453
vn -0.837380528 0.187293276 -0.322641551
vn -0.426017523 0.469067365 -0.827196836
vn -0.937446177 0.0169430599 -0.291497856
vn -0.398105413 0.786923945 0.468339562
vn -0.426017523 0.469067365 -0.827196836
vn -0.837380528 0.187293276 -0.322641551
vn -0.937446177 0.0169430599 -0.291497856
vn -0.38262406 0.191023052 -0.452153921
vn -0.515083551 -0.142145202 -0.363818198
vn -0.515083551 -0.142145202 -0.363818198
vn -0.921637475 0.192881614 0.141961485
vn -0.927137256 0.0279976688 -0.454781413
vn -0.921637475 0.192881614 0.141961485
vn -0.0889476389 0.177446544 -1.02945328
vn -0.927137256 0.0279976688 -0.454781413
vn -0.927137256 0.0279976688 -0.454781413
vn -0.0889476389 0.177446544 -1.02945328
vn -0.00697567174 -0.178131834 -1.00963092
vn -0.00697567174 -0.178131834 -1.00963092
vn -0.0889476389 0.177446544 -1.02945328
vn 0.366830677 0.283167481 -0.826100469
vn -0.0889476389 0.177446544 -1.02945328
vn 0.517869949 0.250396937 -0.765433073
vn 0.366830677 0.283167481 -0.826100469
vn -0.498498321 0.391332328 -0.674916804
vn -0.38262406 0.191023052 -0.452153921
vn -0.426017523 0.469067365 -0.827196836
vn 0.168062374 0.442437321 -0.636640787
vn -0.921637475 0.192881614 0.141961485
vn -0.38262406 0.191023052 -0.452153921
vn 0.585717976 0.184043184 -0.587217748
vn 0.517869949 0.250396937 -0.765433073
vn -0.0889476389 0.177446544 -1.02945328
vn 0.168062374 0.442437321 -0.636640787
vn 0.585717976 0.184043184 -0.587217748
vn -0.0889476389 0.177446544 -1.02945328
vn -0.498498321 0.391332328 -0.674916804
vn 0.168062374 0.442437321 -0.636640787
vn -0.38262406 0.191023052 -0.452153921
vn 0.168062374 0.442437321 -0.636640787
vn -0.0889476389 0.177446544 -1.02945328
vn -0.921637475 0.192881614 0.141961485
vn -0.426017523 0.469067365 -0.827196836
vn 0.65217936 0.185416535 0.30108726
vn -0.498498321 0.391332328 -0.674916804
vn 0.59028405 0.772990286 -0.188992366
vn -0.326340407 0.100454159 -0.27433908
vn 0.65217936 0.185416535 0.30108726
vn 0.65217936 0.185416535 0.30108726
vn 0.168062374 0.442437321 -0.636640787
vn -0.498498321 0.391332328 -0.674916804
vn -0.398105413 0.786923945 0.468339562
vn 0.59028405 0.772990286 -0.188992366
vn -0.426017523 0.469067365 -0.827196836
vn -0.426017523 0.469067365 -0.827196836
vn 0.59028405 0.772990286 -0.188992366
vn 0.65217936 0.185416535 0.30108726
vn 0.59028405 0.772990286 -0.188992366
vn 1.01505625 0.11966417 -0.24601379
vn -0.326340407 0.100454159 -0.27433908
vn -0.956214309 0.0734312758 0.135286182
vn -0.535091043 0.0720797703 -0.749689341
vn -0.979537904 -0.104376733 -0.134250447
vn -0.863519192 -0.28309384 0.348308146
vn -0.956214309 0.0734312758 0.135286182
vn -0.979537904 -0.104376733 -0.134250447
vn -0.832203448 0.162539586 0.552197516
vn -0.956214309 0.0734312758 0.135286182
vn -0.863519192 -0.28309384 0.348308146
vn -0.832203448 0.162539586 0.552197516
vn -0.863519192 -0.28309384 0.348308146
vn -0.796913385 0.0640736297 0.598697186
vn 0.32572481 0.228416294 0.874493778
vn -0.832203448 0.162539586 0.552197516
vn 0.0103128422 0.155607164 1.01243508
vn -0.283090889 0.180195287 0.207001165
vn 0.32572481 0.228416294 0.874493778
vn 0.0103128422 0.155607164 1.01243508
vn 0.0103128422 0.155607164 1.01243508
vn -0.832203448 0.162539586 0.552197516
vn -0.796913385 0.0640736297 0.598697186
vn -0.832203448 0.162539586 0.552197516
vn -0.762129188 0.253907293 -0.491362453
vn -0.956214309 0.0734312758 0.135286182
vn -0.823136866 0.221012235 0.571472704
vn -0.762129188 0.253907293 -0.491362453
vn -0.832203448 0.162539586 0.552197516
vn -0.227677226 1.04339993 -0.0583618283
vn -0.762129188 0.253907293 -0.491362453
vn -0.823136866 0.221012235 0.571472704
vn 0.32572481 0.228416294 0.874493778
vn -0.823136866 0.221012235 0.571472704
vn -0.832203448 0.162539586 0.552197516
vn -0.447300613 0.172347814 0.597880781
vn 0.32572481 0.228416294 0.874493778
vn -0.353427351 0.103482001 0.737311006
vn -0.823136866 0.221012235 0.571472704
vn -0.447300613 0.172347814 0.597880781
vn -0.227677226 1.04339993 -0.0583618283
vn -0.823136866 0.221012235 0.571472704
vn 0.32572481 0.228416294 0.874493778
vn -0.447300613 0.172347814 0.597880781
vn -0.447300613 0.172347814 0.597880781
vn -0.837380528 0.187293276 -0.322641551
vn -0.227677226 1.04339993 -0.0583618283
vn -0.447300613 0.172347814 0.597880781
vn -0.398105413 0.786923945 0.468339562
vn -0.837380528 0.187293276 -0.322641551
vn 0.32572481 0.228416294 0.874493778
vn -0.283090889 0.180195287 0.207001165
vn -0.353427351 0.103482001 0.737311006
vn -0.921017468 -0.00922134798 0.370355934
vn -0.953638613 0.0593597293 0.272315741
vn -0.283090889 0.180195287 0.207001165
vn 0.122369498 0.153077796 0.843031883
vn -0.953638613 0.0593597293 0.272315741
vn -0.921017468 -0.00922134798 0.370355934
vn -0.953638613 0.0593597293 0.272315741
vn -0.516862631 0.397700995 0.252360135
vn -0.283090889 0.180195287 0.207001165
vn -0.516862631 0.397700995 0.252360135
vn -0.353427351 0.103482001 0.737311006
vn -0.283090889 0.180195287 0.207001165
vn -0.516862631 0.397700995 0.252360135
vn -0.447300613 0.172347814 0.597880781
vn -0.353427351 0.103482001 0.737311006
vn -0.953638613 0.0593597293 0.272315741
vn -0.766095519 0.637900352 0.0929660648
vn -0.516862631 0.397700995 0.252360135
vn -0.139090568 0.282487184 0.804819405
vn -0.766095519 0.637900352 0.0929660648
vn -0.953638613 0.0593597293 0.272315741
vn 0.122369498 0.153077796 0.843031883
vn -0.139090568 0.282487184 0.804819405
vn -0.953638613 0.0593597293 0.272315741
vn 0.724210024 0.297535539 0.558035791
vn -0.766095519 0.637900352 0.0929660648
vn -0.139090568 0.282487184 0.804819405
vn 0.724210024 0.297535539 0.558035791
vn -0.139090568 0.282487184 0.804819405
vn 0.122369498 0.153077796 0.843031883
vn -0.516862631 0.397700995 0.252360135
vn -0.398105413 0.786923945 0.468339562
vn -0.447300613 0.172347814 0.597880781
vn 0.59028405 0.772990286 -0.188992366
vn -0.398105413 0.786923945 0.468339562
vn -0.516862631 0.397700995 0.252360135
vn -0.766095519 0.637900352 0.0929660648
vn 0.163670808 0.806705236 -0.579714358
vn -0.516862631 0.397700995 0.252360135
vn -0.627901793 -0.562581062 -0.575496316
vn 0.321584165 -0.573769808 -0.596963525
vn 0.77522403 -0.600800395 -0.192674011
vn -0.758048236 -0.576959789 0.439388484
vn -0.627901793 -0.562581062 -0.575496316
vn 0.77522403 -0.600800395 -0.192674011
vn -0.663316131 -0.412834525 0.219058678
vn -0.758048236 -0.576959789 0.439388484
vn 0.395578772 -0.655805826 0.15179719
vn -0.663316131 -0.412834525 0.219058678
vn 0.395578772 -0.655805826 0.15179719
vn 0.151419118 -0.73792088 -0.469942957
vn 0.395578772 -0.655805826 0.15179719
vn -0.758048236 -0.576959789 0.439388484
vn 0.77522403 -0.600800395 -0.192674011
vn 0.816095352 -0.0950281322 -0.543922186
vn 0.395578772 -0.655805826 0.15179719
vn 0.77522403 -0.600800395 -0.192674011
vn 0.816095352 -0.0950281322 -0.543922186
vn 0.151419118 -0.73792088 -0.469942957
vn 0.395578772 -0.655805826 0.15179719
vn 0.816095352 -0.0950281322 -0.543922186
vn 0.937748671 -0.103610024 -0.310711116
vn 0.151419118 -0.73792088 -0.469942957
vn -0.104000479 -0.565814078 -0.650407255
vn -0.627901793 -0.562581062 -0.575496316
vn -0.684748888 -0.226705581 0.0560234413
vn -0.627901793 -0.562581062 -0.575496316
vn -0.104000479 -0.565814078 -0.650407255
vn 0.321584165 -0.573769808 -0.596963525
vn 0.321584165 -0.573769808 -0.596963525
vn -0.104000479 -0.565814078 -0.650407255
vn -0.0595440567 -0.102561243 -0.836141229
vn -0.0595440567 -0.102561243 -0.836141229
vn 0.526510239 -0.129192621 -0.838623881
vn 0.321584165 -0.573769808 -0.596963525
vn 0.321584165 -0.573769808 -0.596963525
vn 0.657249153 -0.595561802 0.026805602
vn 0.77522403 -0.600800395 -0.192674011
vn 0.526510239 -0.129192621 -0.838623881
vn 0.657249153 -0.595561802 0.026805602
vn 0.321584165 -0.573769808 -0.596963525
vn 0.657249153 -0.595561802 0.026805602
vn 0.707253873 -0.322111815 -0.0602472648
vn 0.77522403 -0.600800395 -0.192674011
vn 0.0823711082 0.0632937998 -0.939081371
vn 0.526510239 -0.129192621 -0.838623881
vn -0.0595440567 -0.102561243 -0.836141229
vn 0.0823711082 0.0632937998 -0.939081371
vn 0.550223768 -0.0935161263 -0.356274545
vn 0.526510239 -0.129192621 -0.838623881
vn -0.00697567174 -0.178131834 -1.00963092
vn 0.366830677 0.283167481 -0.826100469
vn -0.0595440567 -0.102561243 -0.836141229
vn 0.366830677 0.283167481 -0.826100469
vn 0.0823711082 0.0632937998 -0.939081371
vn -0.0595440567 -0.102561243 -0.836141229
vn 0.366830677 0.283167481 -0.826100469
vn 0.735406578 0.248233885 -0.658262372
vn 0.0823711082 0.0632937998 -0.939081371
vn 0.0823711082 0.0632937998 -0.939081371
vn 0.735406578 0.248233885 -0.658262372
vn 0.550223768 -0.0935161263 -0.356274545
vn 0.937748671 -0.103610024 -0.310711116
vn 0.799858034 -0.593400002 0.0900201648
vn 0.151419118 -0.73792088 -0.469942957
vn 0.526510239 -0.129192621 -0.838623881
vn 0.707253873 -0.322111815 -0.0602472648
vn 0.657249153 -0.595561802 0.026805602
vn 0.707253873 -0.322111815 -0.0602472648
vn 0.816095352 -0.0950281322 -0.543922186
vn 0.77522403 -0.600800395 -0.192674011
vn 0.707253873 -0.322111815 -0.0602472648
vn 0.629717767 -0.480123669 0.147097215
vn 0.816095352 -0.0950281322 -0.543922186
vn 0.629717767 -0.480123669 0.147097215
vn 0.707253873 -0.322111815 -0.0602472648
vn 0.826381505 -0.446137905 -0.220689774
vn 0.629717767 -0.480123669 0.147097215
vn 0.937748671 -0.103610024 -0.310711116
vn 0.816095352 -0.0950281322 -0.543922186
vn -0.0644650236 -0.6205405 -0.704779088
vn 0.826381505 -0.446137905 -0.220689774
vn 0.707253873 -0.322111815 -0.0602472648
vn 0.550223768 -0.0935161263 -0.356274545
vn -0.0644650236 -0.6205405 -0.704779088
vn 0.707253873 -0.322111815 -0.0602472648
vn 0.707253873 -0.322111815 -0.0602472648
vn 0.526510239 -0.129192621 -0.838623881
vn 0.550223768 -0.0935161263 -0.356274545
vn -0.73893404 -0.228966221 -0.834351063
vn -0.0644650236 -0.6205405 -0.704779088
vn 0.550223768 -0.0935161263 -0.356274545
vn -0.73893404 -0.228966221 -0.834351063
vn 0.785471797 0.0602256767 -0.698147357
vn -0.0644650236 -0.6205405 -0.704779088
vn 0.826381505 -0.446137905 -0.220689774
vn -0.0644650236 -0.6205405 -0.704779088
vn 0.785471797 0.0602256767 -0.698147357
vn 0.785471797 0.0602256767 -0.698147357
vn 0.96975112 0.0464261882 0.109887362
vn 0.826381505 -0.446137905 -0.220689774
vn 0.386167228 0.126783818 -0.504869103
vn 0.510422111 0.420284569 -0.154830739
vn 0.735406578 0.248233885 -0.658262372
vn 0.735406578 0.248233885 -0.658262372
vn 0.510422111 0.420284569 -0.154830739
vn 0.550223768 -0.0935161263 -0.356274545
vn 0.510422111 0.420284569 -0.154830739
vn -0.73893404 -0.228966221 -0.834351063
vn 0.550223768 -0.0935161263 -0.356274545
vn 0.510422111 0.420284569 -0.154830739
vn -0.301144928 0.219468534 -0.890563667
vn -0.73893404 -0.228966221 -0.834351063
vn -0.73893404 -0.228966221 -0.834351063
vn -0.301144928 0.219468534 -0.890563667
vn 0.785471797 0.0602256767 -0.698147357
vn 0.386167228 0.126783818 -0.504869103
vn -0.301144928 0.219468534 -0.890563667
vn 0.510422111 0.420284569 -0.154830739
vn 0.96975112 0.0464261882 0.109887362
vn 0.83257401 0.0751952603 0.468431056
vn 0.826381505 -0.446137905 -0.220689774
vn -0.757206738 -0.498897403 0.22909908
vn -0.64265269 -0.306702465 -0.289821208
vn 0.684964299 -0.338528782 -0.521536529
vn 0.684964299 -0.338528782 -0.521536529
vn 0.790955961 -0.388866365 0.448856473
vn -0.757206738 -0.498897403 0.22909908
vn -0.223180622 -0.684679151 0.512496173
vn -0.64265269 -0.306702465 -0.289821208
vn 0.151419118 -0.73792088 -0.469942957
vn 0.151419118 -0.73792088 -0.469942957
vn -0.64265269 -0.306702465 -0.289821208
vn -0.663316131 -0.412834525 0.219058678
vn -0.223180622 -0.684679151 0.512496173
vn 0.684964299 -0.338528782 -0.521536529
vn -0.64265269 -0.306702465 -0.289821208
vn 0.280362338 -0.12275289 0.546980858
vn 0.790955961 -0.388866365 0.448856473
vn 0.684964299 -0.338528782 -0.521536529
vn -0.0612998307 -0.16998598 0.944597065
vn 0.684964299 -0.338528782 -0.521536529
vn -0.223180622 -0.684679151 0.512496173
vn 0.280362338 -0.12275289 0.546980858
vn 0.684964299 -0.338528782 -0.521536529
vn -0.0612998307 -0.16998598 0.944597065
vn 0.799858034 -0.593400002 0.0900201648
vn -0.223180622 -0.684679151 0.512496173
vn 0.151419118 -0.73792088 -0.469942957
vn 0.799858034 -0.593400002 0.0900201648
vn -0.0612998307 -0.16998598 0.944597065
vn -0.223180622 -0.684679151 0.512496173
vn 0.790955961 -0.388866365 0.448856473
vn -0.162128747 -0.283102155 0.935025632
vn -0.757206738 -0.498897403 0.22909908
vn 0.358586103 -0.0941303223 0.904093862
vn -0.162128747 -0.283102155 0.935025632
vn 0.790955961 -0.388866365 0.448856473
vn 0.280362338 -0.12275289 0.546980858
vn 0.358586103 -0.0941303223 0.904093862
vn 0.790955961 -0.388866365 0.448856473
vn 0.358586103 -0.0941303223 0.904093862
vn 0.280362338 -0.12275289 0.546980858
vn 0.546290517 -0.537983 0.596853495
vn -0.644622445 -0.0642858222 0.804786801
vn -0.162128747 -0.283102155 0.935025632
vn 0.358586103 -0.0941303223 0.904093862
vn 0.484265566 -0.18244648 0.695231199
vn -0.126576573 -0.236778945 0.843810141
vn 0.358586103 -0.0941303223 0.904093862
vn 0.0134204151 -0.0382219926 0.945743918
vn -0.126576573 -0.236778945 0.843810141
vn 0.484265566 -0.18244648 0.695231199
vn 0.484265566 -0.18244648 0.695231199
vn 0.358586103 -0.0941303223 0.904093862
vn 0.342441499 -0.0130232451 0.938138604
vn 0.122369498 0.153077796 0.843031883
vn 0.0134204151 -0.0382219926 0.945743918
vn 0.614651918 0.340596825 0.602872193
vn 0.484265566 -0.18244648 0.695231199
vn 0.519246757 0.222356379 0.655973494
vn 0.0134204151 -0.0382219926 0.945743918
vn 0.519246757 0.222356379 0.655973494
vn 0.484265566 -0.18244648 0.695231199
vn 0.342441499 -0.0130232451 0.938138604
vn 0.787686765 -0.386493534 0.510747433
vn -0.0612998307 -0.16998598 0.944597065
vn 0.799858034 -0.593400002 0.0900201648
vn 0.280362338 -0.12275289 0.546980858
vn -0.0612998307 -0.16998598 0.944597065
vn 0.787686765 -0.386493534 0.510747433
vn 0.937748671 -0.103610024 -0.310711116
vn 0.787686765 -0.386493534 0.510747433
vn 0.799858034 -0.593400002 0.0900201648
vn 0.629717767 -0.480123669 0.147097215
vn 0.546290517 -0.537983 0.596853495
vn 0.787686765 -0.386493534 0.510747433
vn 0.629717767 -0.480123669 0.147097215
vn 0.787686765 -0.386493534 0.510747433
vn 0.937748671 -0.103610024 -0.310711116
vn 0.546290517 -0.537983 0.596853495
vn 0.280362338 -0.12275289 0.546980858
vn 0.787686765 -0.386493534 0.510747433
vn 0.83257401 0.0751952603 0.468431056
vn 0.571776092 -0.197920948 -0.188112527
vn 0.629717767 -0.480123669 0.147097215
vn 0.629717767 -0.480123669 0.147097215
vn 0.755394518 0.0273445304 0.582584679
vn 0.546290517 -0.537983 0.596853495
vn 0.571776092 -0.197920948 -0.188112527
vn 0.755394518 0.0273445304 0.582584679
vn 0.629717767 -0.480123669 0.147097215
vn 0.83257401 0.0751952603 0.468431056
vn 0.629717767 -0.480123669 0.147097215
vn 0.826381505 -0.446137905 -0.220689774
vn 0.546290517 -0.537983 0.596853495
vn 0.342441499 -0.0130232451 0.938138604
vn 0.358586103 -0.0941303223 0.904093862
vn 0.342441499 -0.0130232451 0.938138604
vn 0.546290517 -0.537983 0.596853495
vn 0.755394518 0.0273445304 0.582584679
vn 0.571776092 -0.197920948 -0.188112527
vn 0.853304088 0.206542358 0.0339941494
vn 0.755394518 0.0273445304 0.582584679
vn 0.820626438 0.180810481 0.371513337
vn 0.853304088 0.206542358 0.0339941494
vn 0.571776092 -0.197920948 -0.188112527
vn 0.83257401 0.0751952603 0.468431056
vn 0.820626438 0.180810481 0.371513337
vn 0.571776092 -0.197920948 -0.188112527
vn 0.820626438 0.180810481 0.371513337
vn 0.83257401 0.0751952603 0.468431056
vn 0.96975112 0.0464261882 0.109887362
vn 0.517869949 0.250396937 -0.765433073
vn 0.0709760115 -0.245033041 -0.884132385
vn 0.366830677 0.283167481 -0.826100469
vn 0.366830677 0.283167481 -0.826100469
vn 0.0709760115 -0.245033041 -0.884132385
vn 0.386167228 0.126783818 -0.504869103
vn 0.366830677 0.283167481 -0.826100469
vn 0.386167228 0.126783818 -0.504869103
vn 0.735406578 0.248233885 -0.658262372
vn 0.0709760115 -0.245033041 -0.884132385
vn 0.180406868 0.361729711 -0.835996449
vn 0.926762044 -0.137278557 -0.374166846
vn 0.926762044 -0.137278557 -0.374166846
vn 0.386167228 0.126783818 -0.504869103
vn 0.0709760115 -0.245033041 -0.884132385
vn 0.168062374 0.442437321 -0.636640787
vn -0.042369958 0.265756696 -0.853053272
vn 0.585717976 0.184043184 -0.587217748
vn 0.585717976 0.184043184 -0.587217748
vn 0.0709760115 -0.245033041 -0.884132385
vn 0.517869949 0.250396937 -0.765433073
vn -0.042369958 0.265756696 -0.853053272
vn 0.180406868 0.361729711 -0.835996449
vn 0.585717976 0.184043184 -0.587217748
vn 0.585717976 0.184043184 -0.587217748
vn 0.180406868 0.361729711 -0.835996449
vn 0.0709760115 -0.245033041 -0.884132385
vn -0.042369958 0.265756696 -0.853053272
vn 0.86843735 -0.16462855 0.15067482
vn 0.180406868 0.361729711 -0.835996449
vn 0.180406868 0.361729711 -0.835996449
vn 0.86843735 -0.16462855 0.15067482
vn 0.926762044 -0.137278557 -0.374166846
vn -0.042369958 0.265756696 -0.853053272
vn 0.114045128 0.148552388 -0.845916867
vn 0.86843735 -0.16462855 0.15067482
vn 0.168062374 0.442437321 -0.636640787
vn 0.65217936 0.185416535 0.30108726
vn -0.042369958 0.265756696 -0.853053272
vn 0.811571479 0.18076165 -0.527816832
vn -0.042369958 0.265756696 -0.853053272
vn -0.404157937 0.372314543 -0.811718404
vn -0.326340407 0.100454159 -0.27433908
vn 1.01505625 0.11966417 -0.24601379
vn 0.180853322 0.497733325 -0.260332644
vn 0.65217936 0.185416535 0.30108726
vn -0.326340407 0.100454159 -0.27433908
vn -0.042369958 0.265756696 -0.853053272
vn -0.845417202 -0.036226131 0.581169367
vn -0.326340407 0.100454159 -0.27433908
vn 0.180853322 0.497733325 -0.260332644
vn -0.326340407 0.100454159 -0.27433908
vn -0.404157937 0.372314543 -0.811718404
vn -0.042369958 0.265756696 -0.853053272
vn -0.594674826 0.51018703 0.844505191
vn -0.326340407 0.100454159 -0.27433908
vn -0.845417202 -0.036226131 0.581169367
vn -0.594674826 0.51018703 0.844505191
vn -0.404157937 0.372314543 -0.811718404
vn -0.326340407 0.100454159 -0.27433908
vn -0.594674826 0.51018703 0.844505191
vn -0.845417202 -0.036226131 0.581169367
vn -0.0299074203 0.428763449 0.435924411
vn -0.594674826 0.51018703 0.844505191
vn 0.792061985 0.568171442 0.0458530635
vn -0.404157937 0.372314543 -0.811718404
vn -0.404157937 0.372314543 -0.811718404
vn 0.792061985 0.568171442 0.0458530635
vn 0.811571479 0.18076165 -0.527816832
vn 0.86843735 -0.16462855 0.15067482
vn 0.386167228 0.126783818 -0.504869103
vn 0.926762044 -0.137278557 -0.374166846
vn 0.86843735 -0.16462855 0.15067482
vn 0.114045128 0.148552388 -0.845916867
vn 0.386167228 0.126783818 -0.504869103
vn 0.114045128 0.148552388 -0.845916867
vn -0.301144928 0.219468534 -0.890563667
vn 0.386167228 0.126783818 -0.504869103
vn 0.114045128 0.148552388 -0.845916867
vn 0.785889983 0.231478021 -0.625304043
vn -0.301144928 0.219468534 -0.890563667
vn 0.785889983 0.231478021 -0.625304043
vn 0.785471797 0.0602256767 -0.698147357
vn -0.301144928 0.219468534 -0.890563667
vn 0.785889983 0.231478021 -0.625304043
vn 0.790020347 0.284891605 0.254807413
vn 0.785471797 0.0602256767 -0.698147357
vn 0.790020347 0.284891605 0.254807413
vn 0.96975112 0.0464261882 0.109887362
vn 0.785471797 0.0602256767 -0.698147357
vn 0.790020347 0.284891605 0.254807413
vn 0.785889983 0.231478021 -0.625304043
vn 0.114045128 0.148552388 -0.845916867
vn 0.811571479 0.18076165 -0.527816832
vn 0.114045128 0.148552388 -0.845916867
vn -0.042369958 0.265756696 -0.853053272
vn 0.114045128 0.148552388 -0.845916867
vn 0.811571479 0.18076165 -0.527816832
vn 0.49711892 0.42094934 0.288747013
vn 0.790020347 0.284891605 0.254807413
vn 0.114045128 0.148552388 -0.845916867
vn 0.49711892 0.42094934 0.288747013
vn 0.792061985 0.568171442 0.0458530635
vn 1.01270437 0.0693103895 0.544633806
vn 0.811571479 0.18076165 -0.527816832
vn 0.519246757 0.222356379 0.655973494
vn 0.614651918 0.340596825 0.602872193
vn 0.0134204151 -0.0382219926 0.945743918
vn 0.614651918 0.340596825 0.602872193
vn 0.519246757 0.222356379 0.655973494
vn 0.229311034 0.294213563 0.758497
vn 0.0691127405 0.286248326 0.898316622
vn 0.229311034 0.294213563 0.758497
vn 0.519246757 0.222356379 0.655973494
vn 0.342441499 -0.0130232451 0.938138604
vn 0.0691127405 0.286248326 0.898316622
vn 0.519246757 0.222356379 0.655973494
vn 0.529201984 0.253943712 0.575928628
vn 0.724210024 0.297535539 0.558035791
vn 0.229311034 0.294213563 0.758497
vn 0.229311034 0.294213563 0.758497
vn 0.0691127405 0.286248326 0.898316622
vn 0.529201984 0.253943712 0.575928628
vn 0.614651918 0.340596825 0.602872193
vn 0.724210024 0.297535539 0.558035791
vn 0.122369498 0.153077796 0.843031883
vn 0.724210024 0.297535539 0.558035791
vn 0.614651918 0.340596825 0.602872193
vn 0.229311034 0.294213563 0.758497
vn 1.01505625 0.11966417 -0.24601379
vn -0.516862631 0.397700995 0.252360135
vn 0.180853322 0.497733325 -0.260332644
vn -0.516862631 0.397700995 0.252360135
vn 0.163670808 0.806705236 -0.579714358
vn 0.180853322 0.497733325 -0.260332644
vn 0.163670808 0.806705236 -0.579714358
vn 0.529201984 0.253943712 0.575928628
vn 0.180853322 0.497733325 -0.260332644
vn -0.0299074203 0.428763449 0.435924411
vn -0.845417202 -0.036226131 0.581169367
vn 0.180853322 0.497733325 -0.260332644
vn 0.180853322 0.497733325 -0.260332644
vn 0.529201984 0.253943712 0.575928628
vn -0.0299074203 0.428763449 0.435924411
vn 0.163670808 0.806705236 -0.579714358
vn 0.724210024 0.297535539 0.558035791
vn 0.529201984 0.253943712 0.575928628
vn 0.59569931 0.592811882 0.571076095
vn 0.529201984 0.253943712 0.575928628
vn 0.0691127405 0.286248326 0.898316622
vn 0.529201984 0.253943712 0.575928628
vn 0.59569931 0.592811882 0.571076095
vn -0.0299074203 0.428763449 0.435924411
vn 1.01270437 0.0693103895 0.544633806
vn -0.0299074203 0.428763449 0.435924411
vn 0.635053098 0.229500741 0.0355686024
vn -0.0299074203 0.428763449 0.435924411
vn 0.59569931 0.592811882 0.571076095
vn 0.635053098 0.229500741 0.0355686024
vn -0.516862631 0.397700995 0.252360135
vn 1.01505625 0.11966417 -0.24601379
vn 0.59028405 0.772990286 -0.188992366
vn -0.766095519 0.637900352 0.0929660648
vn 0.724210024 0.297535539 0.558035791
vn 0.163670808 0.806705236 -0.579714358
vn -0.594674826 0.51018703 0.844505191
vn -0.0299074203 0.428763449 0.435924411
vn 1.01270437 0.0693103895 0.544633806
vn 0.792061985 0.568171442 0.0458530635
vn -0.594674826 0.51018703 0.844505191
vn 1.01270437 0.0693103895 0.544633806
vn 0.635053098 0.229500741 0.0355686024
vn 0.789426565 0.199301541 0.494107157
vn 0.853304088 0.206542358 0.0339941494
vn 0.755394518 0.0273445304 0.582584679
vn 0.853304088 0.206542358 0.0339941494
vn 0.789426565 0.199301541 0.494107157
vn 0.96975112 0.0464261882 0.109887362
vn 0.790020347 0.284891605 0.254807413
vn 0.820626438 0.180810481 0.371513337
vn 0.0691127405 0.286248326 0.898316622
vn 0.342441499 -0.0130232451 0.938138604
vn 0.755394518 0.0273445304 0.582584679
vn 0.789426565 0.199301541 0.494107157
vn 0.0691127405 0.286248326 0.898316622
vn 0.755394518 0.0273445304 0.582584679
vn 0.635053098 0.229500741 0.0355686024
vn 0.59569931 0.592811882 0.571076095
vn 0.0691127405 0.286248326 0.898316622
vn 0.0691127405 0.286248326 0.898316622
vn 0.789426565 0.199301541 0.494107157
vn 0.635053098 0.229500741 0.0355686024
vn 0.820626438 0.180810481 0.371513337
vn 0.635053098 0.229500741 0.0355686024
vn 0.853304088 0.206542358 0.0339941494
vn 0.790020347 0.284891605 0.254807413
vn 0.49711892 0.42094934 0.288747013
vn 0.820626438 0.180810481 0.371513337
vn 0.811571479 0.18076165 -0.527816832
vn 1.01270437 0.0693103895 0.544633806
vn 0.49711892 0.42094934 0.288747013
vn 0.635053098 0.229500741 0.0355686024
vn 0.49711892 0.42094934 0.288747013
vn 1.01270437 0.0693103895 0.544633806
vn 0.635053098 0.229500741 0.0355686024
vn 0.820626438 0.180810481 0.371513337
vn 0.49711892 0.42094934 0.288747013
g surface_polygons
f 2/1/1 3/2/2 1/3/3
f 4/4/4 2/5/5 1/6/6
f 4/7/7 1/8/8 3/9/9
f 4/10/10 3/11/11 2/12/12
f 7/13/13 5/14/14 6/15/15
f 5/16/16 8/17/17 6/18/18
f 8/19/19 7/20/20 6/21/21
f 8/22/22 5/23/23 7/24/24
f 13/25/25 10/26/26 9/27/27
f 10/28/28 13/29/29 14/30/30
f 18/31/31 15/32/32 17/33/33
f 17/34/34 15/35/35 13/36/36
f 13/37/37 15/38/38 12/39/39
f 22/40/40 20/41/41 21/42/42
f 23/43/43 20/44/44 22/45/45
f 14/46/46 25/47/47 24/48/48
f 14/49/49 24/50/50 20/51/51
f 20/52/52 24/53/53 27/54/54
f 26/55/55 27/56/56 24/57/57
f 9/58/58 10/59/59 11/60/60
f 28/61/61 11/62/62 20/63/63
f 10/64/64 14/65/65 20/66/66
f 11/67/67 10/68/68 20/69/69
f 28/70/70 20/71/71 23/72/72
f 23/73/73 29/74/74 28/75/75
f 12/76/76 25/77/77 14/78/78
f 25/79/79 30/80/80 24/81/81
f 24/82/82 30/83/83 26/84/84
f 13/85/85 12/86/86 14/87/87
f 16/88/88 31/89/89 12/90/90
f 34/91/91 35/92/92 11/93/93
f 35/94/94 9/95/95 11/96/96
f 28/97/97 34/98/98 11/99/99
f 37/100/100 13/101/101 35/102/102
f 36/103/103 35/104/104 34/105/105
f 36/106/106 37/107/107 35/108/108
f 35/109/109 13/110/110 9/111/111
f 40/112/112 37/113/113 36/114/114
f 17/115/115 13/116/116 37/117/117
f 40/118/118 41/119/119 37/120/120
f 38/121/121 40/122/122 36/123/123
f 42/124/124 34/125/125 28/126/126
f 43/127/127 42/128/128 29/129/129
f 34/130/130 47/131/131 36/132/132
f 47/133/133 34/134/134 42/135/135
f 43/136/136 47/137/137 42/138/138
f 29/139/139 42/140/140 28/141/141
f 48/142/142 47/143/143 43/144/144
f 48/145/145 43/146/146 45/147/147
f 39/148/148 36/149/149 47/150/150
f 50/151/151 39/152/152 47/153/153
f 48/154/154 50/155/155 47/156/156
f 50/157/157 48/158/158 51/159/159
f 51/160/160 48/161/161 49/162/162
f 52/163/163 50/164/164 51/165/165
f 39/166/166 38/167/167 36/168/168
f 53/169/169 38/170/170 50/171/171
f 38/172/172 39/173/173 50/174/174
f 54/175/175 53/176/176 50/177/177
f 54/178/178 50/179/179 52/180/180
f 19/181/181 12/182/182 15/183/183
f 19/184/184 55/185/185 16/186/186
f 33/187/187 56/188/188 18/189/189
f 56/190/190 57/191/191 18/192/192
f 57/193/193 15/194/194 18/195/195
f 15/196/196 57/197/197 19/198/198
f 58/199/199 57/200/200 56/201/201
f 57/202/202 55/203/203 19/204/204
f 60/205/205 55/206/206 57/207/207
f 19/208/208 16/209/209 12/210/210
f 12/211/211 31/212/212 25/213/213
f 31/214/214 61/215/215 25/216/216
f 25/217/217 61/218/218 30/219/219
f 30/220/220 61/221/221 32/222/222
f 61/223/223 62/224/224 32/225/225
f 63/226/226 16/227/227 55/228/228
f 65/229/229 31/230/230 16/231/231
f 64/232/232 62/233/233 61/234/234
f 65/235/235 64/236/236 61/237/237
f 63/238/238 65/239/239 16/240/240
f 65/241/241 61/242/242 31/243/243
f 55/244/244 66/245/245 63/246/246
f 67/247/247 68/248/248 66/249/249
f 66/250/250 65/251/251 63/252/252
f 60/253/253 67/254/254 55/255/255
f 55/256/256 67/257/257 66/258/258
f 67/259/259 69/260/260 68/261/261
f 33/262/262 18/263/263 17/264/264
f 37/265/265 33/266/266 17/267/267
f 72/268/268 33/269/269 37/270/270
f 72/271/271 37/272/272 41/273/273
f 73/274/274 72/275/275 40/276/276
f 38/277/277 73/278/278 40/279/279
f 40/280/280 72/281/281 41/282/282
f 72/283/283 56/284/284 33/285/285
f 74/286/286 56/287/287 72/288/288
f 58/289/289 56/290/290 74/291/291
f 73/292/292 74/293/293 72/294/294
f 59/295/295 73/296/296 75/297/297
f 74/298/298 59/299/299 58/300/300
f 74/301/301 73/302/302 59/303/303
f 59/304/304 57/305/305 58/306/306
f 59/307/307 60/308/308 57/309/309
f 73/310/310 38/311/311 75/312/312
f 53/313/313 76/314/314 38/315/315
f 54/316/316 76/317/317 53/318/318
f 76/319/319 71/320/320 38/321/321
f 71/322/322 75/323/323 38/324/324
f 71/325/325 59/326/326 75/327/327
f 76/328/328 80/329/329 71/330/330
f 78/331/331 80/332/332 76/333/333
f 54/334/334 78/335/335 76/336/336
f 79/337/337 80/338/338 78/339/339
f 79/340/340 78/341/341 54/342/342
f 71/343/343 60/344/344 59/345/345
f 67/346/346 60/347/347 71/348/348
f 80/349/349 81/350/350 71/351/351
f 21/352/352 83/353/353 82/354/354
f 22/355/355 21/356/356 82/357/357
f 23/358/358 22/359/359 84/360/360
f 23/361/361 84/362/362 85/363/363
f 84/364/364 22/365/365 82/366/366
f 88/367/367 84/368/368 82/369/369
f 88/370/370 85/371/371 84/372/372
f 88/373/373 89/374/374 85/375/375
f 27/376/376 21/377/377 20/378/378
f 21/379/379 27/380/380 83/381/381
f 83/382/382 27/383/383 26/384/384
f 26/385/385 90/386/386 83/387/387
f 83/388/388 87/389/389 82/390/390
f 90/391/391 87/392/392 83/393/393
f 87/394/394 91/395/395 82/396/396
f 92/397/397 90/398/398 26/399/399
f 92/400/400 93/401/401 90/402/402
f 30/403/403 32/404/404 26/405/405
f 32/406/406 92/407/407 26/408/408
f 32/409/409 94/410/410 92/411/411
f 92/412/412 94/413/413 93/414/414
f 89/415/415 86/416/416 85/417/417
f 90/418/418 91/419/419 87/420/420
f 91/421/421 88/422/422 82/423/423
f 91/424/424 98/425/425 88/426/426
f 98/427/427 91/428/428 99/429/429
f 98/430/430 89/431/431 88/432/432
f 97/433/433 99/434/434 91/435/435
f 93/436/436 97/437/437 91/438/438
f 91/439/439 90/440/440 93/441/441
f 100/442/442 97/443/443 93/444/444
f 100/445/445 101/446/446 97/447/447
f 99/448/448 97/449/449 101/450/450
f 101/451/451 104/452/452 99/453/453
f 95/454/454 96/455/455 94/456/456
f 94/457/457 96/458/458 93/459/459
f 96/460/460 100/461/461 93/462/462
f 96/463/463 102/464/464 100/465/465
f 100/466/466 102/467/467 101/468/468
f 95/469/469 102/470/470 96/471/471
f 104/472/472 103/473/473 99/474/474
f 43/475/475 29/476/476 106/477/477
f 106/478/478 46/479/479 43/480/480
f 44/481/481 29/482/482 85/483/483
f 85/484/484 29/485/485 23/486/486
f 44/487/487 106/488/488 29/489/489
f 108/490/490 46/491/491 106/492/492
f 107/493/493 106/494/494 44/495/495
f 108/496/496 106/497/497 107/498/498
f 86/499/499 44/500/500 85/501/501
f 86/502/502 107/503/503 44/504/504
f 46/505/505 45/506/506 43/507/507
f 49/508/508 45/509/509 46/510/510
f 108/511/511 49/512/512 46/513/513
f 49/514/514 108/515/515 110/516/516
f 48/517/517 45/518/518 49/519/519
f 112/520/520 51/521/521 49/522/522
f 52/523/523 51/524/524 112/525/525
f 112/526/526 49/527/527 111/528/528
f 54/529/529 52/530/530 77/531/531
f 112/532/532 113/533/533 52/534/534
f 113/535/535 112/536/536 111/537/537
f 109/538/538 107/539/539 86/540/540
f 108/541/541 107/542/542 109/543/543
f 89/544/544 109/545/545 86/546/546
f 98/547/547 110/548/548 109/549/549
f 98/550/550 109/551/551 89/552/552
f 110/553/553 108/554/554 109/555/555
f 103/556/556 114/557/557 98/558/558
f 98/559/559 115/560/560 110/561/561
f 114/562/562 115/563/563 98/564/564
f 103/565/565 98/566/566 99/567/567
f 110/568/568 111/569/569 49/570/570
f 111/571/571 110/572/572 115/573/573
f 114/574/574 116/575/575 115/576/576
f 105/577/577 116/578/578 114/579/579
f 103/580/580 105/581/581 114/582/582
f 105/583/583 103/584/584 104/585/585
f 62/586/586 118/587/587 32/588/588
f 32/589/589 118/590/590 95/591/591
f 32/592/592 95/593/593 94/594/594
f 118/595/595 119/596/596 120/597/597
f 120/598/598 95/599/599 118/600/600
f 65/601/601 122/602/602 64/603/603
f 64/604/604 118/605/605 62/606/606
f 122/607/607 119/608/608 64/609/609
f 64/610/610 119/611/611 118/612/612
f 122/613/613 121/614/614 119/615/615
f 119/616/616 121/617/617 120/618/618
f 122/619/619 123/620/620 121/621/621
f 65/622/622 66/623/623 122/624/624
f 125/625/625 122/626/626 124/627/627
f 68/628/628 69/629/629 70/630/630
f 66/631/631 68/632/632 122/633/633
f 126/634/634 68/635/635 70/636/636
f 68/637/637 124/638/638 122/639/639
f 129/640/640 68/641/641 126/642/642
f 129/643/643 124/644/644 68/645/645
f 129/646/646 126/647/647 127/648/648
f 129/649/649 130/650/650 124/651/651
f 124/652/652 130/653/653 125/654/654
f 121/655/655 95/656/656 120/657/657
f 121/658/658 123/659/659 95/660/660
f 123/661/661 102/662/662 95/663/663
f 123/664/664 131/665/665 102/666/666
f 131/667/667 101/668/668 102/669/669
f 131/670/670 132/671/671 101/672/672
f 132/673/673 104/674/674 101/675/675
f 132/676/676 131/677/677 123/678/678
f 125/679/679 123/680/680 122/681/681
f 123/682/682 125/683/683 133/684/684
f 132/685/685 123/686/686 133/687/687
f 130/688/688 128/689/689 125/690/690
f 113/691/691 77/692/692 52/693/693
f 77/694/694 113/695/695 134/696/696
f 135/697/697 134/698/698 113/699/699
f 111/700/700 135/701/701 113/702/702
f 136/703/703 79/704/704 134/705/705
f 134/706/706 135/707/707 136/708/708
f 77/709/709 79/710/710 54/711/711
f 79/712/712 77/713/713 134/714/714
f 69/715/715 71/716/716 70/717/717
f 71/718/718 81/719/719 70/720/720
f 81/721/721 136/722/722 70/723/723
f 127/724/724 126/725/725 70/726/726
f 70/727/727 136/728/728 127/729/729
f 81/730/730 79/731/731 136/732/732
f 137/733/733 136/734/734 135/735/735
f 136/736/736 137/737/737 127/738/738
f 128/739/739 127/740/740 138/741/741
f 127/742/742 137/743/743 138/744/744
f 71/745/745 69/746/746 67/747/747
f 80/748/748 79/749/749 81/750/750
f 129/751/751 127/752/752 128/753/753
f 130/754/754 129/755/755 128/756/756
f 138/757/757 117/758/758 116/759/759
f 115/760/760 116/761/761 117/762/762
f 104/763/763 132/764/764 105/765/765
f 135/766/766 111/767/767 115/768/768
f 117/769/769 135/770/770 115/771/771
f 138/772/772 137/773/773 135/774/774
f 135/775/775 117/776/776 138/777/777
f 105/778/778 138/779/779 116/780/780
f 132/781/781 133/782/782 105/783/783
f 125/784/784 128/785/785 133/786/786
f 138/787/787 133/788/788 128/789/789
f 138/790/790 105/791/791 133/792/792
