# Blender 4.0.1
# www.blender.org
mtllib Block.mtl
o Block
v -0.925932 0.035870 2.239711
v -0.890061 0.000000 2.240188
v -0.886305 0.035870 2.276058
v -0.207685 1.964577 1.964525
v -0.203883 2.000000 1.923007
v -0.247345 1.964942 1.928086
v -0.890061 0.000000 -2.240188
v -0.925932 0.035870 -2.239711
v -0.886305 0.035870 -2.276058
v -0.247345 1.964942 -1.928086
v -0.203883 2.000000 -1.923007
v -0.207685 1.964577 -1.964525
v 0.890061 0.000000 2.240188
v 0.925932 0.035870 2.239711
v 0.886305 0.035870 2.276058
v 0.247345 1.964942 1.928086
v 0.203883 2.000000 1.923007
v 0.207685 1.964577 1.964525
v 0.890061 0.000000 -2.240188
v 0.886305 0.035870 -2.276058
v 0.925932 0.035870 -2.239711
v 0.207685 1.964577 -1.964525
v 0.203883 2.000000 -1.923007
v 0.247345 1.964942 -1.928086
v -0.886155 0.546968 2.276058
v -0.925932 0.546968 2.239691
v -0.925932 0.546968 -2.239691
v -0.886155 0.546968 -2.276058
v 0.886155 0.546968 -2.276058
v 0.925932 0.546968 -2.239691
v 0.925932 0.546968 2.239691
v 0.886155 0.546968 2.276058
v -0.482836 0.877414 2.101477
v -0.442975 0.877414 2.137861
v -0.482836 0.877414 -2.101477
v -0.442975 0.877414 -2.137861
v 0.442975 0.877414 -2.137861
v 0.482836 0.877414 -2.101477
v 0.482836 0.877414 2.101477
v 0.442975 0.877414 2.137861
vn -0.0000 1.0000 -0.0000
vn 1.0000 -0.0000 -0.0000
vn -0.0000 0.3858 0.9226
vn -0.9773 0.2116 -0.0000
vn -0.0000 -0.0000 1.0000
vn -0.0000 -0.0000 -1.0000
vn -0.0000 0.1574 0.9875
vn 0.9773 0.2116 -0.0000
vn -0.0000 0.1574 -0.9875
vn -0.0000 -1.0000 -0.0000
vn -0.5978 0.8016 -0.0000
vn 0.5978 0.8016 -0.0000
vn -0.0000 0.3858 -0.9226
vn -0.5626 -0.5544 0.6133
vn -0.4895 0.6850 0.5396
vn -0.5626 -0.5544 -0.6133
vn -0.4895 0.6850 -0.5396
vn 0.5626 -0.5544 0.6133
vn 0.4895 0.6850 0.5396
vn 0.5626 -0.5544 -0.6133
vn 0.4895 0.6850 -0.5396
vn -0.7071 -0.7071 -0.0000
vn -0.6524 0.2550 0.7137
vn -0.6278 0.7783 -0.0000
vn -0.6754 0.0001 -0.7375
vn -0.0000 -0.7071 -0.7071
vn -0.0000 0.7607 -0.6491
vn 0.6754 0.0001 -0.7375
vn 0.7071 -0.7071 -0.0000
vn 0.6278 0.7783 -0.0000
vn 0.6754 0.0001 0.7375
vn -0.0000 -0.7071 0.7071
vn -0.0000 0.7607 0.6491
vn -0.6754 0.0001 0.7375
vn -0.4290 0.7717 -0.4696
vn 0.4290 0.7717 -0.4696
vn 0.4290 0.7717 0.4696
vn -0.4290 0.7717 0.4696
vn -0.6524 0.2550 -0.7137
vn 0.6524 0.2550 -0.7137
vn 0.6524 0.2550 0.7137
vn -1.0000 -0.0000 -0.0000
vt 0.616388 0.338034
vt 0.616388 0.398407
vt 0.046961 0.398407
vt 0.046961 0.338034
vt 0.663278 0.007511
vt 0.663275 0.083182
vt 0.000073 0.083182
vt 0.000071 0.007511
vt 0.925557 0.082348
vt 0.869511 0.141355
vt 0.727773 0.137117
vt 0.671724 0.082902
vt 0.020537 0.571421
vt 0.046209 0.406674
vt 0.617140 0.406674
vt 0.642812 0.571421
vt 0.926335 0.007328
vt 0.672495 0.007774
vt 0.926335 0.315814
vt 0.925556 0.390834
vt 0.671724 0.391388
vt 0.672495 0.316259
vt 0.825439 0.299383
vt 0.769450 0.300544
vt 0.642812 0.165020
vt 0.617140 0.329767
vt 0.046209 0.329767
vt 0.020537 0.165020
vt 0.869511 0.449841
vt 0.825439 0.607868
vt 0.769450 0.609030
vt 0.727773 0.445602
vt 0.663349 0.736441
vt 0.663349 1.000000
vt 0.000000 1.000000
vt 0.000000 0.736441
vt 0.000073 0.653259
vt 0.663275 0.653259
vt 0.664335 0.006188
vt 0.670572 0.000000
vt 0.769152 0.308486
vt 0.762134 0.303192
vt 0.928266 0.308486
vt 0.934275 0.314418
vt 0.832460 0.610348
vt 0.825923 0.615368
vt 0.928266 0.000000
vt 0.934275 0.005933
vt 0.832460 0.301862
vt 0.825923 0.306882
vt 0.670572 0.308486
vt 0.664335 0.314673
vt 0.769152 0.616971
vt 0.762134 0.611678
vt 0.000071 0.728931
vt 0.663278 0.728931
vt 0.719909 0.139534
vt 0.934014 0.392298
vt 0.663349 0.392874
vt 0.000000 -0.000000
vt 0.663349 0.000000
vt 0.934014 0.083812
vt 0.663349 0.084388
vt 0.877387 0.452202
vt 0.719909 0.448020
vt 0.877387 0.143717
s 0
usemtl Material.001
f 23/1/1 11/2/1 5/3/1 17/4/1
f 21/5/2 30/6/2 31/7/2 14/8/2
f 32/9/3 40/10/3 34/11/3 25/12/3
f 33/13/4 6/14/4 10/15/4 35/16/4
f 15/17/5 32/9/5 25/12/5 3/18/5
f 9/19/6 28/20/6 29/21/6 20/22/6
f 40/10/7 18/23/7 4/24/7 34/11/7
f 38/25/8 24/26/8 16/27/8 39/28/8
f 36/29/9 12/30/9 22/31/9 37/32/9
f 7/33/10 19/34/10 13/35/10 2/36/10
f 26/37/11 33/13/11 35/16/11 27/38/11
f 30/6/12 38/25/12 39/28/12 31/7/12
f 28/20/13 36/29/13 37/32/13 29/21/13
f 1/39/14 2/40/14 3/18/14
f 4/24/15 5/41/15 6/42/15
f 7/43/16 8/44/16 9/19/16
f 10/45/17 11/46/17 12/30/17
f 13/47/18 14/48/18 15/17/18
f 16/49/19 17/50/19 18/23/19
f 19/51/20 20/22/20 21/52/20
f 22/31/21 23/53/21 24/54/21
f 7/33/22 2/36/22 1/55/22 8/56/22
f 34/11/23 4/24/23 6/42/23 33/57/23
f 5/3/24 11/2/24 10/15/24 6/14/24
f 28/20/25 9/19/25 8/44/25 27/58/25
f 19/51/26 7/43/26 9/19/26 20/22/26
f 11/46/27 23/53/27 22/31/27 12/30/27
f 30/59/28 21/52/28 20/22/28 29/21/28
f 13/60/29 19/61/29 21/5/29 14/8/29
f 23/1/30 17/4/30 16/27/30 24/26/30
f 32/9/31 15/17/31 14/48/31 31/62/31
f 2/40/32 13/47/32 15/17/32 3/18/32
f 17/50/33 5/41/33 4/24/33 18/23/33
f 3/18/34 25/12/34 26/63/34 1/39/34
f 36/29/35 28/20/35 27/58/35 35/64/35
f 38/65/36 30/59/36 29/21/36 37/32/36
f 40/10/37 32/9/37 31/62/37 39/66/37
f 25/12/38 34/11/38 33/57/38 26/63/38
f 12/30/39 36/29/39 35/64/39 10/45/39
f 24/54/40 38/65/40 37/32/40 22/31/40
f 18/23/41 40/10/41 39/66/41 16/49/41
f 1/55/42 26/37/42 27/38/42 8/56/42
