# Blender 4.0.1
# www.blender.org
mtllib seat_a.mtl
o SM_Lodge_Seat_500.mo
v 0.748104 -0.000025 0.000184
v 0.104045 -0.000025 0.000184
v 0.105050 -0.028401 0.000158
v 0.748606 -0.028401 0.000159
v 2.892163 -0.107109 0.000088
v 2.250000 -0.107109 0.000090
v 2.250000 -0.107109 -0.090845
v 2.892163 -0.107109 -0.090845
v 1.392163 -0.000025 -0.090845
v 1.392163 -0.000025 -0.408788
v 1.392163 -0.107109 -0.408788
v 1.392163 -0.107109 -0.090845
v 0.107837 -0.000025 -0.090845
v 0.107837 -0.107109 -0.408788
v 0.107837 -0.000025 -0.408788
v 0.107837 -0.107109 -0.090845
v 0.104045 -0.000025 0.000184
v 0.748104 -0.000025 0.000184
v 0.107837 -0.000025 -0.090845
v 0.750000 -0.000025 -0.090845
v 2.892163 -0.000025 -0.090845
v 2.892163 -0.000025 -0.408788
v 2.892163 -0.107109 -0.408788
v 2.892163 -0.107109 -0.090845
v 1.607837 -0.000025 -0.090845
v 1.607837 -0.107109 -0.408788
v 1.607837 -0.000025 -0.408788
v 1.607837 -0.107109 -0.090845
v 2.892163 -0.000025 -0.499816
v 2.250000 -0.000025 -0.499816
v 2.250000 -0.000025 -0.408788
v 2.892163 -0.000025 -0.408788
v 2.250000 -0.000025 -0.499816
v 2.892163 -0.000025 -0.499816
v 2.892163 -0.028401 -0.499816
v 2.250000 -0.028401 -0.499816
v 1.500000 -0.000025 -0.499816
v 1.607837 -0.000025 -0.499816
v 1.607837 -0.028401 -0.499816
v 1.500000 -0.028401 -0.499816
v 1.500000 -0.000025 0.000184
v 1.392163 -0.000025 0.000184
v 1.392163 -0.028401 0.000159
v 1.500000 -0.028401 0.000159
v 0.750000 -0.107109 0.000090
v 1.392163 -0.107109 -0.090845
v 1.392163 -0.107109 0.000092
v 0.750000 -0.107109 -0.090845
v 1.607837 -0.107109 -0.488665
v 1.607837 -0.500929 -0.037266
v 1.607837 -0.500929 -0.049817
v 1.607837 -0.107109 -0.499816
v 1.392163 -0.500929 -0.037266
v 1.392163 -0.107109 -0.488665
v 1.392163 -0.500929 -0.049817
v 1.392163 -0.107109 -0.499816
v 2.892163 -0.500929 -0.037266
v 2.892163 -0.107109 -0.488665
v 2.892163 -0.500929 -0.049817
v 2.892163 -0.107109 -0.499816
v 0.107837 -0.107109 -0.488665
v 0.107837 -0.500929 -0.037266
v 0.107837 -0.500929 -0.049817
v 0.107837 -0.107109 -0.499816
v 0.750000 -0.000025 -0.112701
v 1.392163 -0.000025 -0.112701
v 0.750000 -0.000025 -0.164707
v 1.392163 -0.000025 -0.164707
v 0.750000 -0.107109 -0.164707
v 1.392163 -0.107109 -0.164707
v 0.750000 -0.107109 -0.112701
v 1.392163 -0.107109 -0.112701
v 0.750000 -0.000025 -0.186563
v 1.392163 -0.000025 -0.186563
v 0.750000 -0.000025 -0.238570
v 1.392163 -0.000025 -0.238570
v 0.750000 -0.107109 -0.238570
v 1.392163 -0.107109 -0.238570
v 0.750000 -0.107109 -0.186564
v 1.392163 -0.107109 -0.186564
v 0.750000 -0.000025 -0.261063
v 1.392163 -0.000025 -0.261063
v 0.750000 -0.000025 -0.313069
v 1.392163 -0.000025 -0.313069
v 0.750000 -0.107109 -0.313069
v 1.392163 -0.107109 -0.313069
v 0.750000 -0.107109 -0.261063
v 1.392163 -0.107109 -0.261063
v 0.750000 -0.000025 -0.334925
v 1.392163 -0.000025 -0.334925
v 0.750000 -0.000025 -0.386932
v 1.392163 -0.000025 -0.386932
v 0.750000 -0.107109 -0.386932
v 1.392163 -0.107109 -0.386932
v 0.750000 -0.107109 -0.334925
v 1.392163 -0.107109 -0.334925
v 2.250000 -0.000025 -0.112701
v 2.892163 -0.000025 -0.112701
v 2.250000 -0.000025 -0.164707
v 2.892163 -0.000025 -0.164707
v 2.892163 -0.107109 -0.112701
v 2.250000 -0.107109 -0.112701
v 2.250000 -0.107109 -0.164707
v 2.892163 -0.107109 -0.164707
v 2.250000 -0.000025 -0.186563
v 2.892163 -0.000025 -0.186563
v 2.250000 -0.000025 -0.238570
v 2.892163 -0.000025 -0.238570
v 2.892163 -0.107109 -0.186564
v 2.250000 -0.107109 -0.186564
v 2.250000 -0.107109 -0.238570
v 2.892163 -0.107109 -0.238570
v 2.250000 -0.107109 -0.261063
v 2.892163 -0.107109 -0.313069
v 2.892163 -0.107109 -0.261063
v 2.250000 -0.107109 -0.313069
v 2.250000 -0.000025 -0.334925
v 2.892163 -0.000025 -0.334925
v 2.250000 -0.000025 -0.386932
v 2.892163 -0.000025 -0.386932
v 2.250000 -0.107109 -0.386932
v 2.892163 -0.107109 -0.386932
v 2.250000 -0.107109 -0.334925
v 2.892163 -0.107109 -0.334925
v 1.392163 -0.000025 -0.499816
v 0.750000 -0.000025 -0.499816
v 0.750000 -0.000025 -0.408788
v 1.392163 -0.000025 -0.408788
v 0.750000 -0.000025 -0.499816
v 1.392163 -0.000025 -0.499816
v 1.392163 -0.028401 -0.499816
v 0.750000 -0.028401 -0.499816
v 2.250000 -0.000025 -0.090845
v 1.607837 -0.000025 -0.090845
v 1.607837 -0.000025 0.000184
v 2.250000 -0.000025 0.000184
v 2.250000 -0.000025 0.000184
v 1.607837 -0.000025 0.000184
v 1.607837 -0.028401 0.000159
v 2.250000 -0.028401 0.000159
v 0.107837 -0.000025 -0.112701
v 0.107837 -0.000025 -0.164707
v 0.107837 -0.107109 -0.164707
v 0.107837 -0.107109 -0.112701
v 0.107837 -0.000025 -0.186563
v 0.107837 -0.000025 -0.238570
v 0.107837 -0.107109 -0.238570
v 0.107837 -0.107109 -0.186564
v 0.107837 -0.000025 -0.261063
v 0.107837 -0.000025 -0.313069
v 0.107837 -0.107109 -0.313069
v 0.107837 -0.107109 -0.261063
v 0.107837 -0.000025 -0.334925
v 0.107837 -0.000025 -0.386932
v 0.107837 -0.107109 -0.386932
v 0.107837 -0.107109 -0.334925
v 1.607837 -0.000025 -0.112701
v 1.607837 -0.000025 -0.164707
v 1.607837 -0.107109 -0.112701
v 1.607837 -0.107109 -0.164707
v 1.607837 -0.000025 -0.186563
v 1.607837 -0.000025 -0.238570
v 1.607837 -0.107109 -0.186564
v 1.607837 -0.107109 -0.238570
v 1.607837 -0.000025 -0.261063
v 2.250000 -0.000025 -0.313069
v 1.607837 -0.000025 -0.313069
v 2.250000 -0.000025 -0.261063
v 1.607837 -0.107109 -0.313069
v 1.607837 -0.107109 -0.261063
v 1.607837 -0.000025 -0.334925
v 1.607837 -0.000025 -0.386932
v 1.607837 -0.107109 -0.386932
v 1.607837 -0.107109 -0.334925
v 0.750000 -0.107109 0.000090
v 1.392163 -0.107109 0.000092
v 1.392163 -0.000025 0.000184
v 1.392163 -0.000025 -0.090845
v 0.107837 -0.107109 -0.090845
v 0.107837 -0.107109 0.000087
v 0.107837 -0.000025 -0.408788
v 0.107837 -0.000025 -0.499816
v 0.107837 -0.028401 -0.499816
v 0.750000 -0.107109 -0.499816
v 0.107837 -0.107109 -0.499816
v 1.607837 -0.107109 -0.090845
v 1.607837 -0.107109 0.000092
v 1.607837 -0.000025 -0.408788
v 1.607837 -0.000025 -0.499816
v 2.250000 -0.107109 -0.499816
v 1.607837 -0.107109 -0.499816
v 2.892163 -0.000025 0.000184
v 2.892163 -0.000025 -0.090845
v 2.892163 -0.028401 0.000158
v 2.250000 -0.107109 0.000090
v 2.892163 -0.107109 0.000088
v 0.107837 -0.107109 0.000087
v 1.607837 -0.107109 0.000092
v 2.892163 -0.000025 0.000184
v 2.892163 -0.107109 -0.499816
v 1.392163 -0.107109 -0.499816
v 0.107837 -0.000025 -0.499816
v 2.892163 -0.000025 -0.313069
v 2.892163 -0.000025 -0.261063
v 0.000000 -0.500929 -0.037266
v 0.000000 -0.105191 -0.490863
v 0.000000 -0.500929 -0.049817
v 0.000000 -0.107109 -0.499816
v 3.000000 -0.105191 -0.490863
v 3.000000 -0.500929 -0.037266
v 3.000000 -0.500929 -0.049817
v 3.000000 -0.107109 -0.499816
v 0.000000 -0.000025 -0.499816
v 0.000000 -0.107109 -0.499816
v 0.000000 -0.500929 -0.049817
v 0.107837 -0.500929 -0.049817
v 0.750000 -0.107109 -0.408788
v 0.107837 -0.107109 -0.408788
v 0.107837 -0.107109 -0.488665
v 0.750000 -0.107109 -0.488665
v 0.107837 -0.107109 -0.499816
v 0.750000 -0.107109 -0.499816
v 3.000000 -0.000025 0.000184
v 3.000000 -0.500930 -0.000000
v 2.892163 -0.500930 -0.000000
v 3.000000 -0.000025 0.000184
v 3.000000 -0.000025 -0.499816
v 1.392163 -0.500929 -0.000000
v 1.392163 -0.107109 0.000092
v 2.250000 -0.107109 -0.408788
v 1.607837 -0.107109 -0.408788
v 1.607837 -0.107109 -0.488665
v 2.250000 -0.107109 -0.488665
v 1.607837 -0.107109 -0.499816
v 2.250000 -0.107109 -0.499816
v 2.892163 -0.500930 -0.000000
v 2.892163 -0.107109 0.000088
v 3.000000 -0.000025 -0.499816
v 3.000000 -0.107109 -0.499816
v 2.892163 -0.500929 -0.049817
v 3.000000 -0.500929 -0.049817
v 0.000000 -0.000025 0.000184
v 0.000000 -0.500930 -0.000000
v 0.107837 -0.500930 -0.000000
v 3.000000 -0.000025 -0.499816
v 3.000000 -0.000025 0.000184
v 3.000000 -0.500930 -0.000000
v 1.607837 -0.500929 -0.000000
v 1.607837 -0.107109 0.000092
v 0.107837 -0.500930 -0.000000
v 0.107837 -0.107109 0.000087
v 0.107837 -0.500930 -0.000000
v 0.000000 -0.500930 -0.000000
v 0.000000 -0.500929 -0.037266
v 0.107837 -0.500929 -0.037266
v 0.000000 -0.500929 -0.049817
v 0.107837 -0.500929 -0.049817
v 0.000000 -0.000025 -0.499816
v 0.000000 -0.000025 0.000184
v 0.000000 -0.500930 -0.000000
v 0.000000 -0.000025 -0.499816
v 0.000000 -0.000025 0.000184
v 1.500000 -0.107109 0.000092
v 1.500000 -0.500929 -0.000000
v 1.607837 -0.500929 -0.000000
v 1.392163 -0.000025 -0.112701
v 0.750000 -0.000025 -0.112701
v 1.392163 -0.107109 -0.112701
v 0.750000 -0.107109 -0.112701
v 0.107837 -0.000025 -0.112701
v 0.107837 -0.107109 -0.112701
v 0.107837 -0.000025 -0.164707
v 0.750000 -0.000025 -0.164707
v 0.107837 -0.107109 -0.164707
v 0.750000 -0.107109 -0.164707
v 1.392163 -0.000025 -0.164707
v 1.392163 -0.107109 -0.164707
v 1.392163 -0.000025 -0.186563
v 0.750000 -0.000025 -0.186563
v 1.392163 -0.107109 -0.186564
v 0.750000 -0.107109 -0.186564
v 0.107837 -0.000025 -0.186563
v 0.107837 -0.107109 -0.186564
v 0.107837 -0.000025 -0.238570
v 0.750000 -0.000025 -0.238570
v 0.107837 -0.107109 -0.238570
v 0.750000 -0.107109 -0.238570
v 1.392163 -0.000025 -0.238570
v 1.392163 -0.107109 -0.238570
v 0.750000 -0.107109 -0.313069
v 1.392163 -0.000025 -0.313069
v 1.392163 -0.107109 -0.313069
v 0.750000 -0.000025 -0.313069
v 0.107837 -0.107109 -0.313069
v 0.107837 -0.000025 -0.313069
v 0.750000 -0.107109 -0.261063
v 0.107837 -0.000025 -0.261063
v 0.107837 -0.107109 -0.261063
v 0.750000 -0.000025 -0.261063
v 1.392163 -0.107109 -0.261063
v 1.392163 -0.000025 -0.261063
v 0.750000 -0.107109 -0.386932
v 1.392163 -0.000025 -0.386932
v 1.392163 -0.107109 -0.386932
v 0.750000 -0.000025 -0.386932
v 0.107837 -0.107109 -0.386932
v 0.107837 -0.000025 -0.386932
v 0.750000 -0.107109 -0.334925
v 0.107837 -0.000025 -0.334925
v 0.107837 -0.107109 -0.334925
v 0.750000 -0.000025 -0.334925
v 1.392163 -0.107109 -0.334925
v 1.392163 -0.000025 -0.334925
v 2.892163 -0.000025 -0.112701
v 2.250000 -0.000025 -0.112701
v 2.892163 -0.107109 -0.112701
v 2.250000 -0.107109 -0.112701
v 1.607837 -0.000025 -0.112701
v 1.607837 -0.107109 -0.112701
v 2.892163 -0.000025 -0.186563
v 2.250000 -0.000025 -0.186563
v 2.892163 -0.107109 -0.186564
v 2.250000 -0.107109 -0.186564
v 1.607837 -0.000025 -0.186563
v 1.607837 -0.107109 -0.186564
v 2.250000 -0.107109 -0.386932
v 2.892163 -0.000025 -0.386932
v 2.892163 -0.107109 -0.386932
v 2.250000 -0.000025 -0.386932
v 1.607837 -0.107109 -0.386932
v 1.607837 -0.000025 -0.386932
v 1.607837 -0.107109 -0.334925
v 2.250000 -0.000025 -0.334925
v 1.607837 -0.000025 -0.334925
v 2.250000 -0.107109 -0.334925
v 2.892163 -0.000025 -0.334925
v 2.892163 -0.107109 -0.334925
v 2.892163 -0.107109 -0.499816
v 2.892163 -0.107109 -0.488665
v 2.892163 -0.107109 -0.408788
v 0.750000 -0.000025 -0.090845
v 1.392163 -0.000025 -0.090845
v 1.392163 -0.107109 -0.090845
v 0.750000 -0.107109 -0.090845
v 0.107837 -0.107109 -0.090845
v 0.107837 -0.000025 -0.090845
v 0.750000 -0.000025 -0.408788
v 0.107837 -0.000025 -0.408788
v 0.107837 -0.107109 -0.408788
v 0.750000 -0.107109 -0.408788
v 1.392163 -0.107109 -0.408788
v 1.392163 -0.000025 -0.408788
v 2.250000 -0.000025 -0.090845
v 2.892163 -0.000025 -0.090845
v 2.892163 -0.107109 -0.090845
v 2.250000 -0.107109 -0.090845
v 1.607837 -0.107109 -0.090845
v 1.607837 -0.000025 -0.090845
v 2.250000 -0.000025 -0.408788
v 1.607837 -0.000025 -0.408788
v 1.607837 -0.107109 -0.408788
v 2.250000 -0.107109 -0.408788
v 2.892163 -0.107109 -0.408788
v 2.892163 -0.000025 -0.408788
v 1.607837 -0.500929 -0.049817
v 1.500000 -0.500929 -0.049817
v 1.500000 -0.107109 -0.499816
v 1.607837 -0.500929 -0.000000
v 1.500000 -0.500929 -0.000000
v 1.607837 -0.500929 -0.037266
v 1.500000 -0.500929 -0.037266
v 1.500000 -0.500929 -0.049817
v 1.607837 -0.500929 -0.049817
v 3.000000 -0.500929 -0.049817
v 2.892163 -0.500929 -0.037266
v 2.892163 -0.500929 -0.049817
v 3.000000 -0.500929 -0.037266
v 3.000000 -0.500930 -0.000000
v 2.892163 -0.500930 -0.000000
v 1.607837 -0.000025 -0.164707
v 2.250000 -0.107109 -0.164707
v 1.607837 -0.107109 -0.164707
v 2.250000 -0.000025 -0.164707
v 2.892163 -0.000025 -0.164707
v 2.892163 -0.107109 -0.164707
v 1.607837 -0.000025 -0.238570
v 2.250000 -0.107109 -0.238570
v 1.607837 -0.107109 -0.238570
v 2.250000 -0.000025 -0.238570
v 2.892163 -0.000025 -0.238570
v 2.892163 -0.107109 -0.238570
v 2.250000 -0.107109 -0.313069
v 2.892163 -0.000025 -0.313069
v 2.892163 -0.107109 -0.313069
v 2.250000 -0.000025 -0.313069
v 1.607837 -0.000025 -0.313069
v 1.607837 -0.107109 -0.313069
v 1.607837 -0.107109 -0.261063
v 2.250000 -0.000025 -0.261063
v 1.607837 -0.000025 -0.261063
v 2.250000 -0.107109 -0.261063
v 2.892163 -0.107109 -0.261063
v 2.892163 -0.000025 -0.261063
v 1.392163 -0.500929 -0.049817
v 1.392163 -0.500929 -0.000000
v 1.392163 -0.500929 -0.000000
v 1.392163 -0.500929 -0.037266
v 1.392163 -0.500929 -0.049817
v 1.392163 -0.107109 -0.499816
v 1.392163 -0.107109 -0.488665
v 1.392163 -0.107109 -0.408788
v 1.500000 -0.000025 -0.499816
v 1.500000 -0.000025 -0.408788
v 1.500000 -0.000025 -0.090845
v 1.500000 -0.000025 0.000184
vn -0.0000 -0.0009 1.0000
vn -0.0000 -1.0000 -0.0000
vn -1.0000 -0.0000 -0.0000
vn 1.0000 -0.0000 -0.0000
vn -0.0000 1.0000 -0.0000
vn -0.0000 -0.0000 -1.0000
vn -0.0000 -0.7525 -0.6586
vn -0.0005 -0.0004 1.0000
vn -0.0000 -0.0002 1.0000
vn 0.0005 -0.0004 1.0000
vn 1.0000 -0.0000 -0.0001
vn -0.0000 -0.0000 1.0000
vt 0.997559 0.359375
vt 0.002468 0.359375
vt 0.002468 0.386719
vt 0.997559 0.386719
vt 0.989258 0.854858
vt 0.010223 0.854858
vt 0.010223 0.933777
vt 0.989258 0.933777
vt 0.176636 0.386719
vt 0.176636 0.359375
vt 0.010223 0.776001
vt 0.989258 0.776001
vt 0.747070 0.042969
vt 0.990234 0.042969
vt 0.990234 0.075195
vt 0.747070 0.075195
vt 0.990234 0.116211
vt 0.747070 0.116211
vt 0.747070 0.084473
vt 0.990234 0.084473
vt 0.750488 0.201660
vt 0.737793 0.206543
vt 0.737793 0.202148
vt 0.750488 0.207031
vt 0.993652 0.484375
vt 0.002468 0.484375
vt 0.993652 0.440430
vt 0.002468 0.440430
vt 0.998047 0.435059
vt 0.002468 0.435059
vt 0.998047 0.393066
vt 0.002468 0.393066
vt 0.993652 0.535645
vt 0.002468 0.535645
vt 0.993652 0.489258
vt 0.002468 0.489258
vt 1.007812 0.997103
vt 0.002754 0.941223
vt 1.007812 0.941223
vt 0.002754 0.997103
vt 0.990234 0.198242
vt 0.747070 0.198242
vt 0.747070 0.166016
vt 0.990234 0.166016
vt 0.747070 0.124512
vt 0.990234 0.124512
vt 0.990234 0.156250
vt 0.747070 0.156250
vt 0.055603 0.941223
vt 0.212769 0.941223
vt 0.217773 0.998001
vt 0.989258 0.864502
vt 0.010223 0.864502
vt 0.862305 0.941223
vt 0.181274 0.941223
vt 0.004131 0.003906
vt 0.570801 0.003906
vt 0.570801 0.046875
vt 0.004131 0.021484
vt 0.570801 0.196777
vt 0.570801 0.234375
vt 0.217529 0.997068
vt 0.725098 0.003906
vt 0.573730 0.007812
vt 0.725098 0.239746
vt 0.004131 0.222168
vt 0.004131 0.239746
vt 0.570801 0.009277
vt 0.570801 0.239746
vt 0.077698 0.941223
vt 0.077698 0.997103
vt 0.102905 0.941223
vt 0.102905 0.997103
vt 0.573730 0.235352
vt 0.087830 0.319824
vt 0.487305 0.319824
vt 0.487305 0.241699
vt 0.087830 0.241699
vt 0.008003 0.319824
vt 0.008003 0.241699
vt 0.498779 0.359375
vt 0.498779 0.386719
vt 0.673340 0.386719
vt 0.673340 0.359375
vt 0.586426 0.241699
vt 0.985840 0.241699
vt 0.985840 0.319824
vt 0.586426 0.319824
vt 0.506348 0.319824
vt 0.506348 0.241699
vt 0.950195 0.241699
vt 0.950195 0.319824
vt 0.937988 0.319824
vt 0.937988 0.241699
vt 0.907715 0.941223
vt 0.932617 0.997103
vt 0.907715 0.997103
vt 0.932617 0.941223
vt 0.451416 0.241699
vt 0.451416 0.319824
vt 0.439453 0.319824
vt 0.439453 0.241699
vt 0.002966 0.612549
vt 0.171753 0.612549
vt 0.002966 0.681885
vt 0.002966 0.542725
vt 0.171753 0.681641
vt 0.171753 0.542480
vt 0.806641 0.612549
vt 0.806641 0.681641
vt 0.806641 0.542480
vt 0.992188 0.681641
vt 0.992188 0.542480
vt 0.992188 0.612305
s 0
usemtl Material.004
f 1/1/1 2/2/1 3/3/1
f 1/1/1 3/3/1 4/4/1
f 5/5/2 6/6/2 7/7/2
f 5/5/2 7/7/2 8/8/2
f 9/9/3 10/3/3 11/2/3
f 9/9/3 11/2/3 12/10/3
f 13/3/4 14/10/4 15/9/4
f 14/10/4 13/3/4 16/2/4
f 17/6/5 18/5/5 19/11/5
f 20/12/5 19/11/5 18/5/5
f 21/9/3 22/3/3 23/2/3
f 21/9/3 23/2/3 24/10/3
f 25/3/4 26/10/4 27/9/4
f 26/10/4 25/3/4 28/2/4
f 29/5/5 30/6/5 31/11/5
f 29/5/5 31/11/5 32/12/5
f 33/1/6 34/2/6 35/3/6
f 33/1/6 35/3/6 36/4/6
f 37/13/6 38/14/6 39/15/6
f 37/13/6 39/15/6 40/16/6
f 41/17/1 42/18/1 43/19/1
f 41/17/1 43/19/1 44/20/1
f 45/6/2 46/8/2 47/5/2
f 46/8/2 45/6/2 48/7/2
f 49/21/4 50/22/4 51/22/4
f 51/22/4 52/21/4 49/21/4
f 53/23/3 54/24/3 55/23/3
f 56/24/3 55/23/3 54/24/3
f 57/23/3 58/24/3 59/23/3
f 60/24/3 59/23/3 58/24/3
f 61/21/4 62/22/4 63/22/4
f 63/22/4 64/21/4 61/21/4
f 65/25/5 66/26/5 67/27/5
f 68/28/5 67/27/5 66/26/5
f 69/25/2 70/26/2 71/27/2
f 72/28/2 71/27/2 70/26/2
f 73/29/5 74/30/5 75/31/5
f 76/32/5 75/31/5 74/30/5
f 77/25/2 78/26/2 79/27/2
f 80/28/2 79/27/2 78/26/2
f 81/33/5 82/34/5 83/35/5
f 84/36/5 83/35/5 82/34/5
f 85/25/2 86/26/2 87/27/2
f 88/28/2 87/27/2 86/26/2
f 89/25/5 90/26/5 91/27/5
f 92/28/5 91/27/5 90/26/5
f 93/25/2 94/26/2 95/27/2
f 96/28/2 95/27/2 94/26/2
f 97/33/5 98/34/5 99/35/5
f 100/36/5 99/35/5 98/34/5
f 101/28/2 102/27/2 103/25/2
f 101/28/2 103/25/2 104/26/2
f 105/28/5 106/27/5 107/26/5
f 108/25/5 107/26/5 106/27/5
f 109/28/2 110/27/2 111/25/2
f 109/28/2 111/25/2 112/26/2
f 113/27/2 114/26/2 115/28/2
f 114/26/2 113/27/2 116/25/2
f 117/26/5 118/25/5 119/28/5
f 120/27/5 119/28/5 118/25/5
f 121/25/2 122/26/2 123/27/2
f 124/28/2 123/27/2 122/26/2
f 125/7/5 126/8/5 127/5/5
f 125/7/5 127/5/5 128/6/5
f 129/1/6 130/2/6 131/3/6
f 129/1/6 131/3/6 132/4/6
f 133/7/5 134/8/5 135/5/5
f 133/7/5 135/5/5 136/6/5
f 137/1/1 138/2/1 139/3/1
f 137/1/1 139/3/1 140/4/1
f 141/28/5 65/27/5 142/26/5
f 67/25/5 142/26/5 65/27/5
f 143/28/2 69/27/2 144/26/2
f 71/25/2 144/26/2 69/27/2
f 145/36/5 73/35/5 146/34/5
f 75/33/5 146/34/5 73/35/5
f 147/28/2 77/27/2 148/26/2
f 79/25/2 148/26/2 77/27/2
f 149/28/5 81/27/5 150/26/5
f 83/25/5 150/26/5 81/27/5
f 151/28/2 85/27/2 152/26/2
f 87/25/2 152/26/2 85/27/2
f 153/32/5 89/31/5 154/30/5
f 91/29/5 154/30/5 89/31/5
f 155/28/2 93/27/2 156/26/2
f 95/25/2 156/26/2 93/27/2
f 157/32/5 97/31/5 158/30/5
f 99/29/5 158/30/5 97/31/5
f 102/25/2 159/26/2 160/28/2
f 102/25/2 160/28/2 103/27/2
f 161/28/5 105/27/5 162/26/5
f 107/25/5 162/26/5 105/27/5
f 110/25/2 163/26/2 164/28/2
f 110/25/2 164/28/2 111/27/2
f 165/33/5 166/36/5 167/35/5
f 166/36/5 165/33/5 168/34/5
f 169/28/2 113/25/2 170/26/2
f 113/25/2 169/28/2 116/27/2
f 171/27/5 117/28/5 172/25/5
f 119/26/5 172/25/5 117/28/5
f 173/28/2 121/27/2 174/26/2
f 123/25/2 174/26/2 121/27/2
f 43/37/1 175/38/1 176/39/1
f 175/38/1 43/37/1 4/40/1
f 20/6/5 177/8/5 178/5/5
f 177/8/5 20/6/5 18/7/5
f 179/8/2 48/7/2 180/5/2
f 45/6/2 180/5/2 48/7/2
f 181/5/5 127/6/5 182/12/5
f 126/11/5 182/12/5 127/6/5
f 183/37/6 132/40/6 184/38/6
f 183/37/6 184/38/6 185/39/6
f 186/8/2 6/6/2 187/5/2
f 6/6/2 186/8/2 7/7/2
f 188/7/5 31/8/5 189/6/5
f 30/5/5 189/6/5 31/8/5
f 39/37/6 36/40/6 190/38/6
f 39/37/6 190/38/6 191/39/6
f 133/5/5 192/11/5 193/6/5
f 192/11/5 133/5/5 136/12/5
f 194/37/1 195/38/1 196/39/1
f 195/38/1 194/37/1 140/40/1
f 4/40/1 3/37/1 197/39/1
f 4/40/1 197/39/1 175/38/1
f 140/40/1 139/37/1 198/39/1
f 140/40/1 198/39/1 195/38/1
f 138/41/1 41/42/1 44/43/1
f 138/41/1 44/43/1 139/44/1
f 4/4/1 42/2/1 1/1/1
f 42/2/1 4/4/1 43/3/1
f 140/4/1 199/2/1 137/1/1
f 199/2/1 140/4/1 194/3/1
f 200/39/6 190/38/6 35/37/6
f 36/40/6 35/37/6 190/38/6
f 132/40/6 131/37/6 201/39/6
f 132/40/6 201/39/6 184/38/6
f 130/45/6 37/46/6 40/47/6
f 130/45/6 40/47/6 131/48/6
f 202/2/6 129/1/6 132/4/6
f 202/2/6 132/4/6 183/3/6
f 38/2/6 33/1/6 36/4/6
f 38/2/6 36/4/6 39/3/6
f 203/32/5 168/29/5 204/30/5
f 168/29/5 203/32/5 166/31/5
f 205/23/3 206/24/3 207/23/3
f 208/24/3 207/23/3 206/24/3
f 209/21/4 210/22/4 211/22/4
f 211/22/4 212/21/4 209/21/4
f 202/38/6 183/49/6 213/40/6
f 183/49/6 185/50/6 213/40/6
f 185/50/6 214/51/6 213/40/6
f 185/50/7 215/37/7 214/51/7
f 215/37/7 185/50/7 216/39/7
f 217/7/2 218/8/2 219/52/2
f 217/7/2 219/52/2 220/53/2
f 220/53/2 219/52/2 221/5/2
f 220/53/2 221/5/2 222/6/2
f 199/38/1 194/49/1 223/40/1
f 194/49/1 196/50/1 223/40/1
f 224/37/8 223/40/8 196/50/8
f 196/50/9 225/39/9 224/37/9
f 193/54/5 192/39/5 226/37/5
f 226/37/5 32/55/5 193/54/5
f 32/55/5 226/37/5 227/40/5
f 227/40/5 29/38/5 32/55/5
f 228/56/3 229/57/3 12/58/3
f 12/58/3 53/59/3 228/56/3
f 11/60/3 53/59/3 12/58/3
f 53/59/3 11/60/3 54/61/3
f 230/7/2 231/8/2 232/52/2
f 230/7/2 232/52/2 233/53/2
f 233/53/2 232/52/2 234/5/2
f 233/53/2 234/5/2 235/6/2
f 236/56/3 237/57/3 24/58/3
f 24/58/3 57/59/3 236/56/3
f 23/60/3 57/59/3 24/58/3
f 57/59/3 23/60/3 58/61/3
f 35/49/6 34/38/6 238/40/6
f 200/50/6 35/49/6 238/40/6
f 200/50/6 238/40/6 239/62/6
f 239/62/7 240/39/7 200/50/7
f 240/39/7 239/62/7 241/37/7
f 3/49/1 2/38/1 242/40/1
f 197/50/1 3/49/1 242/40/1
f 243/37/10 197/50/10 242/40/10
f 197/50/9 243/37/9 244/39/9
f 212/57/11 245/63/11 209/64/11
f 245/63/4 246/65/4 209/64/4
f 209/64/4 246/65/4 210/66/4
f 210/66/4 246/65/4 247/67/4
f 49/68/4 26/58/4 50/66/4
f 50/66/4 26/58/4 28/60/4
f 50/66/4 28/60/4 248/67/4
f 248/67/4 28/60/4 249/69/4
f 61/68/4 14/58/4 62/66/4
f 62/66/4 14/58/4 16/60/4
f 62/66/4 16/60/4 250/67/4
f 250/67/4 16/60/4 251/69/4
f 252/40/2 253/38/2 254/70/2
f 252/40/2 254/70/2 255/71/2
f 256/72/2 255/71/2 254/70/2
f 255/71/2 256/72/2 257/73/2
f 258/65/3 208/69/3 206/74/3
f 259/63/3 258/65/3 206/74/3
f 206/74/3 205/59/3 259/63/3
f 259/63/3 205/59/3 260/56/3
f 181/55/5 182/38/5 261/40/5
f 261/40/5 262/37/5 181/55/5
f 181/55/5 262/37/5 19/54/5
f 262/37/5 17/39/5 19/54/5
f 263/75/9 264/76/9 265/77/9
f 265/77/9 198/78/9 263/75/9
f 198/78/1 44/79/1 263/75/1
f 44/79/1 198/78/1 139/80/1
f 266/2/12 267/81/12 268/3/12
f 269/82/12 268/3/12 267/81/12
f 267/81/12 270/1/12 269/82/12
f 271/4/12 269/82/12 270/1/12
f 272/4/6 273/82/6 274/1/6
f 275/81/6 274/1/6 273/82/6
f 273/82/6 276/3/6 275/81/6
f 277/2/6 275/81/6 276/3/6
f 278/2/12 279/81/12 280/3/12
f 281/82/12 280/3/12 279/81/12
f 279/81/12 282/1/12 281/82/12
f 283/4/12 281/82/12 282/1/12
f 284/4/6 285/82/6 286/1/6
f 287/81/6 286/1/6 285/82/6
f 285/82/6 288/3/6 287/81/6
f 289/2/6 287/81/6 288/3/6
f 290/81/6 291/3/6 292/2/6
f 291/3/6 290/81/6 293/82/6
f 294/1/6 293/82/6 290/81/6
f 293/82/6 294/1/6 295/4/6
f 296/82/12 297/1/12 298/4/12
f 297/1/12 296/82/12 299/81/12
f 300/3/12 299/81/12 296/82/12
f 299/81/12 300/3/12 301/2/12
f 302/81/6 303/3/6 304/2/6
f 303/3/6 302/81/6 305/82/6
f 306/1/6 305/82/6 302/81/6
f 305/82/6 306/1/6 307/4/6
f 308/82/12 309/1/12 310/4/12
f 309/1/12 308/82/12 311/81/12
f 312/3/12 311/81/12 308/82/12
f 311/81/12 312/3/12 313/2/12
f 314/4/12 315/82/12 316/1/12
f 317/81/12 316/1/12 315/82/12
f 315/82/12 318/3/12 317/81/12
f 319/2/12 317/81/12 318/3/12
f 320/4/12 321/82/12 322/1/12
f 323/81/12 322/1/12 321/82/12
f 321/82/12 324/3/12 323/81/12
f 325/2/12 323/81/12 324/3/12
f 326/82/6 327/1/6 328/4/6
f 327/1/6 326/82/6 329/81/6
f 330/3/6 329/81/6 326/82/6
f 329/81/6 330/3/6 331/2/6
f 332/2/12 333/82/12 334/3/12
f 333/82/12 332/2/12 335/81/12
f 336/4/12 333/82/12 335/81/12
f 336/4/12 335/81/12 337/1/12
f 338/5/2 233/53/2 235/6/2
f 233/53/2 338/5/2 339/52/2
f 339/52/2 230/7/2 233/53/2
f 230/7/2 339/52/2 340/8/2
f 341/83/6 342/9/6 343/10/6
f 341/83/6 343/10/6 344/84/6
f 345/1/6 341/83/6 344/84/6
f 341/83/6 345/1/6 346/4/6
f 347/83/12 348/9/12 349/10/12
f 347/83/12 349/10/12 350/84/12
f 351/1/12 347/83/12 350/84/12
f 347/83/12 351/1/12 352/4/12
f 353/83/6 354/9/6 355/10/6
f 353/83/6 355/10/6 356/84/6
f 357/1/6 353/83/6 356/84/6
f 353/83/6 357/1/6 358/4/6
f 359/83/12 360/9/12 361/10/12
f 359/83/12 361/10/12 362/84/12
f 363/1/12 359/83/12 362/84/12
f 359/83/12 363/1/12 364/4/12
f 191/85/7 365/86/7 366/87/7
f 366/87/7 367/88/7 191/85/7
f 40/89/6 191/85/6 367/88/6
f 40/89/6 39/90/6 191/85/6
f 368/86/2 369/87/2 370/91/2
f 371/92/2 370/91/2 369/87/2
f 370/91/2 371/92/2 372/93/2
f 370/91/2 372/93/2 373/94/2
f 374/95/2 375/96/2 376/97/2
f 375/96/2 374/95/2 377/98/2
f 378/39/2 375/96/2 377/98/2
f 378/39/2 379/37/2 375/96/2
f 380/2/6 381/82/6 382/3/6
f 380/2/6 383/81/6 381/82/6
f 383/81/6 384/1/6 381/82/6
f 385/4/6 381/82/6 384/1/6
f 386/2/6 387/82/6 388/3/6
f 386/2/6 389/81/6 387/82/6
f 389/81/6 390/1/6 387/82/6
f 391/4/6 387/82/6 390/1/6
f 392/82/6 393/1/6 394/4/6
f 393/1/6 392/82/6 395/81/6
f 396/2/6 395/81/6 392/82/6
f 396/2/6 392/82/6 397/3/6
f 398/3/12 399/81/12 400/2/12
f 399/81/12 398/3/12 401/82/12
f 402/4/12 399/81/12 401/82/12
f 399/81/12 402/4/12 403/1/12
f 131/80/6 40/79/6 367/75/6
f 131/80/6 367/75/6 201/78/6
f 404/77/7 201/78/7 367/75/7
f 367/75/7 366/76/7 404/77/7
f 176/85/9 405/86/9 264/87/9
f 264/87/9 263/88/9 176/85/9
f 44/89/1 176/85/1 263/88/1
f 44/89/1 43/90/1 176/85/1
f 369/77/2 406/76/2 371/99/2
f 407/100/2 371/99/2 406/76/2
f 371/99/2 407/100/2 408/101/2
f 371/99/2 408/101/2 372/102/2
f 409/5/2 220/53/2 222/6/2
f 220/53/2 409/5/2 410/52/2
f 411/8/2 220/53/2 410/52/2
f 220/53/2 411/8/2 217/7/2
f 412/103/5 413/104/5 189/105/5
f 412/103/5 125/106/5 413/104/5
f 189/105/5 413/104/5 188/107/5
f 125/106/5 128/108/5 413/104/5
f 413/104/5 414/109/5 188/107/5
f 414/109/5 413/104/5 128/108/5
f 188/107/5 414/109/5 134/110/5
f 128/108/5 178/111/5 414/109/5
f 414/109/5 135/112/5 134/110/5
f 414/109/5 178/111/5 177/113/5
f 135/112/5 414/109/5 415/114/5
f 414/109/5 177/113/5 415/114/5
