# Blender 4.0.1
# www.blender.org
mtllib seat_b.mtl
o SM_Lodge_Seat_150.mo
v -1.127844 -0.106941 -0.408788
v -0.539600 -0.106941 -0.408788
v -1.127844 -0.000025 -0.408788
v -0.539600 -0.000025 -0.408788
v -0.539600 -0.106941 -0.408788
v -0.539600 -0.000025 -0.090845
v -0.539600 -0.000025 -0.408788
v -0.539600 -0.106941 -0.090845
v -1.823926 -0.000025 -0.090845
v -1.823926 -0.106941 -0.408788
v -1.823926 -0.000025 -0.408788
v -1.823926 -0.106941 -0.090845
v -1.127844 -0.000025 -0.499816
v -0.539600 -0.000025 -0.408788
v -0.539600 -0.000025 -0.499816
v -1.127844 -0.000025 -0.408788
v -1.127844 -0.000025 0.000184
v -1.235681 -0.000025 0.000184
v -1.235681 -0.027983 0.000158
v -1.127844 -0.027983 0.000154
v -0.539600 -0.027983 -0.499816
v -1.127844 -0.027983 -0.499816
v -0.539600 -0.000025 -0.499816
v -1.127844 -0.000025 -0.499816
v -1.127844 -0.000025 -0.186563
v -0.539600 -0.106941 -0.186564
v -0.539600 -0.000025 -0.186563
v -1.127844 -0.106941 -0.186564
v -1.127844 -0.000025 -0.186563
v -0.539600 -0.000025 -0.186563
v -1.127844 -0.000025 -0.238570
v -0.539600 -0.000025 -0.238570
v -0.539600 -0.000025 -0.238570
v -1.127844 -0.106941 -0.238570
v -1.127844 -0.000025 -0.238570
v -0.539600 -0.106941 -0.238570
v -0.539600 -0.106941 -0.186564
v -1.127844 -0.106941 -0.186564
v -1.127844 -0.106941 -0.238570
v -0.539600 -0.106941 -0.238570
v -1.823926 -0.000025 -0.386932
v -1.235681 -0.000025 -0.334925
v -1.235681 -0.000025 -0.386932
v -1.823926 -0.000025 -0.334925
v -1.823926 -0.000025 -0.386932
v -1.235681 -0.106941 -0.386932
v -1.823926 -0.106941 -0.386932
v -1.235681 -0.000025 -0.386932
v -1.823926 -0.106941 -0.386932
v -1.235681 -0.106941 -0.386932
v -1.823926 -0.106941 -0.334925
v -1.235681 -0.106941 -0.334925
v -1.823926 -0.000025 -0.334925
v -1.235681 -0.106941 -0.334925
v -1.235681 -0.000025 -0.334925
v -1.823926 -0.106941 -0.334925
v -1.823926 -0.000025 -0.313069
v -1.235681 -0.000025 -0.261063
v -1.235681 -0.000025 -0.313069
v -1.823926 -0.000025 -0.261063
v -1.823926 -0.000025 -0.313069
v -1.235681 -0.106941 -0.313069
v -1.823926 -0.106941 -0.313069
v -1.235681 -0.000025 -0.313069
v -1.823926 -0.106941 -0.313069
v -1.235681 -0.106941 -0.313069
v -1.823926 -0.106941 -0.261063
v -1.235681 -0.106941 -0.261063
v -1.823926 -0.000025 -0.261063
v -1.235681 -0.106941 -0.261063
v -1.235681 -0.000025 -0.261063
v -1.823926 -0.106941 -0.261063
v -1.127844 -0.000025 -0.112701
v -0.539600 -0.106941 -0.112701
v -0.539600 -0.000025 -0.112701
v -1.127844 -0.106941 -0.112701
v -1.127844 -0.000025 -0.112701
v -0.539600 -0.000025 -0.112701
v -1.127844 -0.000025 -0.164707
v -0.539600 -0.000025 -0.164707
v -0.539600 -0.000025 -0.164707
v -1.127844 -0.106941 -0.164707
v -1.127844 -0.000025 -0.164707
v -0.539600 -0.106941 -0.164707
v -0.539600 -0.106941 -0.112701
v -1.127844 -0.106941 -0.112701
v -1.127844 -0.106941 -0.164707
v -0.539600 -0.106941 -0.164707
v -0.539600 -0.027983 0.000152
v -1.127844 -0.106941 0.000071
v -0.539600 -0.106941 0.000064
v -1.127844 -0.000025 0.000184
v -0.539600 -0.000025 0.000184
v -1.127844 -0.000025 -0.090845
v -0.539600 -0.000025 -0.090845
v -0.539600 -0.106941 -0.090845
v -1.127844 -0.106941 -0.090845
v -0.539600 -0.000025 -0.090845
v -1.127844 -0.000025 -0.090845
v -0.539600 -0.106941 0.000064
v -1.127844 -0.106941 0.000071
v -1.127844 -0.106941 -0.090845
v -0.539600 -0.106941 -0.090845
v -1.823926 -0.027983 0.000160
v -1.823926 -0.106941 0.000092
v -1.235681 -0.106941 0.000085
v -1.235681 -0.106941 0.000085
v -1.823926 -0.106941 -0.090845
v -1.235681 -0.106941 -0.090845
v -1.823926 -0.106941 0.000092
v -1.235681 -0.106941 -0.090845
v -1.823926 -0.000025 -0.090845
v -1.235681 -0.000025 -0.090845
v -1.823926 -0.106941 -0.090845
v -1.823926 -0.000025 -0.090845
v -1.235681 -0.000025 0.000184
v -1.235681 -0.000025 -0.090845
v -1.823926 -0.000025 0.000184
v -1.127844 -0.000025 -0.313069
v -0.539600 -0.000025 -0.261063
v -0.539600 -0.000025 -0.313069
v -1.127844 -0.000025 -0.261063
v -0.539600 -0.000025 -0.313069
v -1.127844 -0.106941 -0.313069
v -1.127844 -0.000025 -0.313069
v -0.539600 -0.106941 -0.313069
v -1.127844 -0.106941 -0.313069
v -0.539600 -0.106941 -0.313069
v -1.127844 -0.106941 -0.261063
v -0.539600 -0.106941 -0.261063
v -1.127844 -0.106941 -0.261063
v -0.539600 -0.106941 -0.261063
v -1.127844 -0.000025 -0.261063
v -0.539600 -0.000025 -0.261063
v -1.127844 -0.000025 -0.386932
v -0.539600 -0.000025 -0.334925
v -0.539600 -0.000025 -0.386932
v -1.127844 -0.000025 -0.334925
v -0.539600 -0.000025 -0.386932
v -1.127844 -0.106941 -0.386932
v -1.127844 -0.000025 -0.386932
v -0.539600 -0.106941 -0.386932
v -1.127844 -0.106941 -0.386932
v -0.539600 -0.106941 -0.386932
v -1.127844 -0.106941 -0.334925
v -0.539600 -0.106941 -0.334925
v -1.127844 -0.106941 -0.334925
v -0.539600 -0.106941 -0.334925
v -1.127844 -0.000025 -0.334925
v -0.539600 -0.000025 -0.334925
v -1.235681 -0.027983 -0.499816
v -1.235681 -0.000025 -0.499816
v -1.823926 -0.106941 -0.408788
v -1.235681 -0.106941 -0.408788
v -1.823926 -0.000025 -0.408788
v -1.235681 -0.000025 -0.408788
v -1.823926 -0.027983 -0.499816
v -1.823926 -0.000025 -0.499816
v -1.235681 -0.000025 -0.499816
v -1.823926 -0.000025 -0.408788
v -1.235681 -0.000025 -0.408788
v -1.823926 -0.000025 -0.499816
v -1.823926 -0.000025 -0.186563
v -1.235681 -0.106941 -0.186564
v -1.235681 -0.000025 -0.186563
v -1.823926 -0.106941 -0.186564
v -1.823926 -0.106941 -0.186564
v -1.235681 -0.106941 -0.238570
v -1.235681 -0.106941 -0.186564
v -1.823926 -0.106941 -0.238570
v -1.823926 -0.000025 -0.238570
v -1.235681 -0.106941 -0.238570
v -1.823926 -0.106941 -0.238570
v -1.235681 -0.000025 -0.238570
v -1.823926 -0.000025 -0.186563
v -1.235681 -0.000025 -0.186563
v -1.823926 -0.000025 -0.238570
v -1.235681 -0.000025 -0.238570
v -1.823926 -0.000025 -0.112701
v -1.235681 -0.106941 -0.112701
v -1.235681 -0.000025 -0.112701
v -1.823926 -0.106941 -0.112701
v -1.823926 -0.106941 -0.112701
v -1.235681 -0.106941 -0.164707
v -1.235681 -0.106941 -0.112701
v -1.823926 -0.106941 -0.164707
v -1.823926 -0.000025 -0.164707
v -1.235681 -0.106941 -0.164707
v -1.823926 -0.106941 -0.164707
v -1.235681 -0.000025 -0.164707
v -1.823926 -0.000025 -0.112701
v -1.235681 -0.000025 -0.112701
v -1.823926 -0.000025 -0.164707
v -1.235681 -0.000025 -0.164707
v -1.235681 -0.000025 -0.090845
v -1.235681 -0.106941 -0.408788
v -1.235681 -0.106941 -0.090845
v -1.235681 -0.000025 -0.408788
v -1.127844 -0.106941 -0.090845
v -1.127844 -0.106941 -0.408788
v -1.127844 -0.000025 -0.090845
v -1.127844 -0.000025 -0.408788
v -0.539600 -0.000025 0.000184
v -1.823926 -0.000025 0.000184
v -1.127844 -0.106941 -0.499816
v -0.539600 -0.106941 -0.499816
v -1.235681 -0.106941 -0.499816
v -1.823926 -0.106941 -0.499816
v -1.931707 -0.500949 -0.049816
v -1.931751 -0.105191 -0.490859
v -1.931751 -0.107109 -0.499816
v -1.931707 -0.500949 -0.037235
v -1.823870 -0.500949 -0.049816
v -1.823926 -0.106941 -0.499816
v -1.823926 -0.106941 -0.488645
v -1.823870 -0.500949 -0.037267
v -0.539600 -0.500929 -0.037266
v -0.539600 -0.106941 -0.488643
v -0.539600 -0.500929 -0.049816
v -0.539600 -0.106941 -0.499816
v -0.539600 -0.500930 -0.000000
v -0.539600 -0.106941 0.000064
v -1.931763 -0.000025 -0.499816
v -1.931751 -0.107109 -0.499816
v -1.931707 -0.500949 -0.049816
v -1.823870 -0.500949 -0.049816
v -1.931763 -0.000025 0.000184
v -1.931707 -0.500949 -0.000000
v -1.823870 -0.500949 -0.000000
v -1.931763 -0.000025 -0.499816
v -1.931763 -0.000025 0.000184
v -1.931707 -0.500949 -0.000000
v -1.127844 -0.106941 -0.499816
v -0.539600 -0.106941 -0.499816
v -0.539600 -0.106941 -0.488643
v -1.127844 -0.106941 -0.408788
v -0.539600 -0.106941 -0.408788
v -0.431763 -0.500930 -0.000000
v -0.539600 -0.500930 -0.000000
v -0.431763 -0.000025 0.000184
v -0.539600 -0.500929 -0.037266
v -0.431763 -0.500930 -0.000000
v -0.539600 -0.500930 -0.000000
v -0.431763 -0.500929 -0.037268
v -0.539600 -0.500929 -0.049816
v -0.431763 -0.500929 -0.049816
v -0.431763 -0.000025 0.000184
v -0.431763 -0.000025 -0.499816
v -1.823870 -0.500949 -0.000000
v -1.823926 -0.106941 0.000092
v -1.931707 -0.500949 -0.037235
v -1.823870 -0.500949 -0.000000
v -1.931707 -0.500949 -0.000000
v -1.823870 -0.500949 -0.037267
v -1.931707 -0.500949 -0.049816
v -1.823870 -0.500949 -0.049816
v -0.431763 -0.000025 -0.499816
v -0.431763 -0.107109 -0.499816
v -0.431763 -0.500929 -0.049816
v -0.539600 -0.500929 -0.049816
v -1.235681 -0.106941 -0.408788
v -1.235681 -0.106941 -0.499816
v -1.931763 -0.000025 0.000184
v -1.931763 -0.000025 -0.499816
v -1.823926 -0.106941 -0.488645
v -1.823926 -0.106941 -0.408788
v -1.823926 -0.106941 -0.499816
v -0.431763 -0.106485 -0.489512
v -0.431763 -0.500929 -0.037268
v -0.431763 -0.500929 -0.049816
v -0.431763 -0.107109 -0.499816
v -0.431763 -0.104934 -0.489662
v -0.431763 -0.000025 -0.499816
v -0.431763 -0.000025 0.000184
v -0.431763 -0.500930 -0.000000
vn -0.0000 -0.0000 1.0000
vn -1.0000 -0.0000 -0.0000
vn 1.0000 -0.0000 -0.0000
vn -0.0000 1.0000 -0.0000
vn -0.0000 -0.0009 1.0000
vn -0.0000 -0.0011 1.0000
vn -0.0000 -0.0000 -1.0000
vn -0.0000 -1.0000 -0.0000
vn 0.0001 -0.0009 1.0000
vn -1.0000 -0.0001 -0.0000
vn 1.0000 0.0001 -0.0000
vn 0.0012 -0.7525 -0.6586
vn -0.0000 -0.7524 -0.6587
vn 0.0005 -0.0004 1.0000
vn -0.0000 -0.0002 1.0000
vn -0.0007 -0.0004 1.0000
vn -0.0012 -0.7525 -0.6586
vt 0.498779 0.386719
vt 0.176636 0.386719
vt 0.498779 0.359375
vt 0.176636 0.359375
vt 0.002468 0.359375
vt 0.002468 0.386719
vt 0.989258 0.854858
vt 0.010223 0.775757
vt 0.010223 0.854858
vt 0.989258 0.775757
vt 0.746582 0.044434
vt 0.990234 0.044434
vt 0.990234 0.076172
vt 0.746582 0.076172
vt 0.997559 0.359375
vt 0.997559 0.386719
vt 0.002468 0.440430
vt 0.993652 0.440430
vt 0.002468 0.484375
vt 0.993652 0.484375
vt 0.002468 0.535400
vt 0.993652 0.488770
vt 0.993652 0.535400
vt 0.002468 0.488770
vt 0.002754 0.941223
vt 0.998535 0.941223
vt 0.998535 0.996885
vt 0.002754 0.996885
vt 0.673340 0.386719
vt 0.673340 0.359375
vt 1.007812 0.941223
vt 1.007812 0.996885
vt 0.010223 0.933777
vt 0.989258 0.933777
vt 0.002468 0.435059
vt 0.998047 0.393066
vt 0.998047 0.435059
vt 0.002468 0.393066
vt 0.746582 0.166504
vt 0.990234 0.166504
vt 0.746582 0.198242
vt 0.990234 0.198242
vt 0.830566 0.941223
vt 0.994141 0.996862
vt 0.994141 0.941223
vt 0.830566 0.996862
vt 0.733887 0.199219
vt 0.743652 0.203125
vt 0.736328 0.202637
vt 0.746582 0.198730
vt 0.746582 0.199219
vt 0.736328 0.199219
vt 0.746582 0.203125
vt 0.725586 0.196777
vt 0.725586 0.234375
vt 0.157104 0.020996
vt 0.725586 0.046387
vt 0.157104 0.003418
vt 0.725586 0.003418
vt 1.014648 0.996885
vt 0.945801 0.996885
vt 1.014648 0.941223
vt 0.788574 0.996885
vt 0.798340 0.941223
vt 0.002966 0.684164
vt 0.002966 0.616617
vt 0.206421 0.616617
vt 0.206421 0.684164
vt 0.789062 0.616617
vt 0.789062 0.684164
vt 0.991699 0.616617
vt 0.991699 0.684164
vt 0.055603 0.941223
vt 0.002754 0.997101
vt 0.212769 0.941223
vt 1.007812 0.997101
vt 0.725586 0.239258
vt 0.571289 0.239258
vt 0.574219 0.235352
vt 0.004353 0.021484
vt 0.004353 0.003906
vt 1.007812 0.990051
vt 0.747559 0.996885
vt 0.747559 0.941223
vt 0.862305 0.941223
vt 0.181274 0.941223
vt 0.157104 0.222168
vt 0.725586 0.008789
vt 0.157104 0.239746
vt 0.725586 0.239746
vt 0.254150 0.996885
vt 0.253662 0.941223
vt 0.215698 0.996885
vt 0.815918 0.996885
vt 0.815918 0.941223
vt 0.183838 0.996885
vt 0.183838 0.941223
vt 0.862305 0.996885
vt 0.181274 0.996885
vt 0.743652 0.198730
vt 0.733887 0.202637
vt 0.574707 0.008301
vt 0.571289 0.003418
vt 0.572266 0.008301
vt 0.004322 0.221680
vt 0.004322 0.239258
s 0
usemtl Material.004
f 1/1/1 2/2/1 3/3/1
f 4/4/1 3/3/1 2/2/1
f 5/2/2 6/5/2 7/4/2
f 6/5/2 5/2/2 8/6/2
f 9/4/3 10/6/3 11/5/3
f 10/6/3 9/4/3 12/2/3
f 13/7/4 14/8/4 15/9/4
f 14/8/4 13/7/4 16/10/4
f 17/11/5 18/12/5 19/13/5
f 17/11/6 19/13/6 20/14/6
f 21/5/7 22/15/7 23/6/7
f 24/16/7 23/6/7 22/15/7
f 25/15/1 26/6/1 27/5/1
f 26/6/1 25/15/1 28/16/1
f 29/17/4 30/18/4 31/19/4
f 32/20/4 31/19/4 30/18/4
f 33/6/7 34/15/7 35/16/7
f 34/15/7 33/6/7 36/5/7
f 37/17/8 38/18/8 39/20/8
f 37/17/8 39/20/8 40/19/8
f 41/21/4 42/22/4 43/23/4
f 42/22/4 41/21/4 44/24/4
f 45/16/7 46/5/7 47/15/7
f 46/5/7 45/16/7 48/6/7
f 49/17/8 50/18/8 51/19/8
f 52/20/8 51/19/8 50/18/8
f 53/15/1 54/6/1 55/5/1
f 54/6/1 53/15/1 56/16/1
f 57/19/4 58/18/4 59/20/4
f 58/18/4 57/19/4 60/17/4
f 61/16/7 62/5/7 63/15/7
f 62/5/7 61/16/7 64/6/7
f 65/17/8 66/18/8 67/19/8
f 68/20/8 67/19/8 66/18/8
f 69/15/1 70/6/1 71/5/1
f 70/6/1 69/15/1 72/16/1
f 73/15/1 74/6/1 75/5/1
f 74/6/1 73/15/1 76/16/1
f 77/22/4 78/24/4 79/23/4
f 80/21/4 79/23/4 78/24/4
f 81/6/7 82/15/7 83/16/7
f 82/15/7 81/6/7 84/5/7
f 85/17/8 86/18/8 87/20/8
f 85/17/8 87/20/8 88/19/8
f 89/25/6 20/26/6 90/27/6
f 89/25/6 90/27/6 91/28/6
f 92/8/4 93/10/4 94/9/4
f 95/7/4 94/9/4 93/10/4
f 96/16/7 97/29/7 98/15/7
f 99/30/7 98/15/7 97/29/7
f 100/31/8 101/25/8 102/28/8
f 100/31/8 102/28/8 103/32/8
f 19/26/5 104/25/5 105/28/5
f 19/26/5 105/28/5 106/27/5
f 107/25/8 108/32/8 109/28/8
f 108/32/8 107/25/8 110/31/8
f 111/1/7 112/4/7 113/3/7
f 112/4/7 111/1/7 114/2/7
f 115/7/4 116/33/4 117/9/4
f 116/33/4 115/7/4 118/34/4
f 119/35/4 120/36/4 121/37/4
f 120/36/4 119/35/4 122/38/4
f 123/6/7 124/15/7 125/16/7
f 124/15/7 123/6/7 126/5/7
f 127/20/8 128/19/8 129/18/8
f 130/17/8 129/18/8 128/19/8
f 131/16/1 132/6/1 133/15/1
f 134/5/1 133/15/1 132/6/1
f 135/24/4 136/23/4 137/22/4
f 136/23/4 135/24/4 138/21/4
f 139/6/7 140/15/7 141/16/7
f 140/15/7 139/6/7 142/5/7
f 143/20/8 144/19/8 145/18/8
f 146/17/8 145/18/8 144/19/8
f 147/16/1 148/6/1 149/15/1
f 150/5/1 149/15/1 148/6/1
f 22/39/7 151/40/7 24/41/7
f 152/42/7 24/41/7 151/40/7
f 153/16/1 154/29/1 155/15/1
f 156/30/1 155/15/1 154/29/1
f 151/16/7 157/6/7 152/15/7
f 158/5/7 152/15/7 157/6/7
f 159/7/4 160/33/4 161/34/4
f 160/33/4 159/7/4 162/9/4
f 163/15/1 164/6/1 165/5/1
f 164/6/1 163/15/1 166/16/1
f 167/19/8 168/18/8 169/20/8
f 168/18/8 167/19/8 170/17/8
f 171/16/7 172/5/7 173/15/7
f 172/5/7 171/16/7 174/6/7
f 175/23/4 176/21/4 177/22/4
f 178/24/4 177/22/4 176/21/4
f 179/6/1 180/15/1 181/16/1
f 180/15/1 179/6/1 182/5/1
f 183/19/8 184/18/8 185/20/8
f 184/18/8 183/19/8 186/17/8
f 187/16/7 188/5/7 189/15/7
f 188/5/7 187/16/7 190/6/7
f 191/35/4 192/37/4 193/38/4
f 194/36/4 193/38/4 192/37/4
f 195/3/2 196/29/2 197/1/2
f 196/29/2 195/3/2 198/30/2
f 199/29/3 200/1/3 201/30/3
f 202/3/3 201/30/3 200/1/3
f 19/43/6 90/44/6 20/45/6
f 90/44/9 19/43/9 106/46/9
f 203/5/6 17/15/6 20/16/6
f 203/5/6 20/16/6 89/6/6
f 18/15/5 204/5/5 104/6/5
f 18/15/5 104/6/5 19/16/5
f 21/25/7 205/27/7 22/26/7
f 205/27/7 21/25/7 206/28/7
f 151/43/7 22/45/7 205/44/7
f 151/43/7 205/44/7 207/46/7
f 157/25/7 151/26/7 207/27/7
f 157/25/7 207/27/7 208/28/7
f 209/47/10 210/48/10 211/48/10
f 212/47/10 210/48/10 209/47/10
f 213/49/11 214/50/11 215/51/11
f 215/51/11 216/49/11 213/49/11
f 217/52/2 218/53/2 219/52/2
f 220/53/2 219/52/2 218/53/2
f 5/54/2 218/55/2 217/56/2
f 5/54/2 217/56/2 8/57/2
f 8/57/2 217/56/2 221/58/2
f 221/58/2 222/59/2 8/57/2
f 158/60/7 157/61/7 223/62/7
f 157/61/7 208/63/7 223/62/7
f 208/63/7 224/64/7 223/62/7
f 208/63/12 225/25/12 224/64/12
f 225/25/13 208/63/13 226/28/13
f 13/65/4 159/66/4 161/67/4
f 13/65/4 161/67/4 16/68/4
f 161/67/4 117/69/4 16/68/4
f 16/68/4 117/69/4 94/70/4
f 117/69/4 116/71/4 94/70/4
f 94/70/4 116/71/4 92/72/4
f 104/73/5 204/25/5 227/74/5
f 105/75/5 104/73/5 227/74/5
f 227/74/14 228/76/14 105/75/14
f 105/75/15 228/76/15 229/31/15
f 230/77/10 211/78/10 210/79/10
f 230/77/10 210/79/10 231/59/10
f 210/79/10 212/80/10 231/59/10
f 231/59/10 212/80/10 232/81/10
f 233/28/8 234/32/8 235/82/8
f 235/82/8 236/25/8 233/28/8
f 236/25/8 235/82/8 237/31/8
f 238/25/15 91/63/15 239/28/15
f 91/63/16 238/25/16 240/31/16
f 240/31/6 89/61/6 91/63/6
f 240/31/6 203/32/6 89/61/6
f 241/83/8 242/25/8 243/28/8
f 242/25/8 241/83/8 244/84/8
f 244/84/8 241/83/8 245/27/8
f 244/84/8 245/27/8 246/26/8
f 93/31/4 247/32/4 95/85/4
f 247/32/4 14/86/4 95/85/4
f 247/32/4 248/28/4 14/86/4
f 14/86/4 248/28/4 15/25/4
f 10/57/11 216/87/11 215/88/11
f 12/54/11 216/87/11 10/57/11
f 216/87/11 12/54/11 249/89/11
f 249/89/11 12/54/11 250/90/11
f 251/91/8 252/26/8 253/27/8
f 252/26/8 251/91/8 254/92/8
f 254/92/8 251/91/8 255/28/8
f 254/92/8 255/28/8 256/25/8
f 257/28/7 21/73/7 23/25/7
f 257/28/7 206/75/7 21/73/7
f 206/75/7 257/28/7 258/93/7
f 259/27/17 206/75/17 258/93/17
f 206/75/13 259/27/13 260/26/13
f 107/27/8 109/94/8 101/26/8
f 101/26/8 109/94/8 102/95/8
f 261/96/8 102/95/8 109/94/8
f 102/95/8 261/96/8 236/97/8
f 261/96/8 233/25/8 236/97/8
f 233/25/8 261/96/8 262/28/8
f 115/98/4 263/31/4 118/32/4
f 160/99/4 263/31/4 115/98/4
f 264/25/4 263/31/4 160/99/4
f 264/25/4 160/99/4 162/28/4
f 265/82/8 261/25/8 266/31/8
f 261/25/8 265/82/8 262/28/8
f 265/82/8 267/32/8 262/28/8
f 268/100/3 269/101/3 270/101/3
f 270/101/3 271/100/3 268/100/3
f 268/100/3 271/100/3 272/100/3
f 272/102/3 271/103/3 273/59/3
f 273/59/3 274/77/3 272/102/3
f 272/102/3 274/77/3 268/104/3
f 269/105/3 268/104/3 274/77/3
f 274/77/3 275/106/3 269/105/3
