# Blender 4.0.1
# www.blender.org
mtllib traffic_cone_b.mtl
o SM_Traffic_Cone_B.mo
v -1.394600 0.000000 0.100000
v -1.394600 0.046335 -0.100000
v -1.394600 0.046335 0.100000
v -1.394600 0.000000 -0.100000
v -1.744600 0.046335 -0.250000
v -1.544600 0.046335 -0.250000
v -1.544600 0.000000 -0.250000
v -1.744600 0.000000 -0.250000
v -1.544600 0.046335 0.250000
v -1.744600 0.046335 0.250000
v -1.744600 0.000000 0.250000
v -1.544600 0.000000 0.250000
v -1.894600 0.046335 0.100000
v -1.894600 0.046335 -0.100000
v -1.894600 0.000000 -0.100000
v -1.894600 0.000000 0.100000
v -1.394600 0.000000 -0.100000
v -1.544600 0.046335 -0.250000
v -1.394600 0.046335 -0.100000
v -1.544600 0.000000 -0.250000
v -1.744600 0.000000 -0.250000
v -1.894600 0.046335 -0.100000
v -1.744600 0.046335 -0.250000
v -1.894600 0.000000 -0.100000
v -1.544600 0.000000 0.250000
v -1.394600 0.046335 0.100000
v -1.544600 0.046335 0.250000
v -1.394600 0.000000 0.100000
v -1.894600 0.000000 0.100000
v -1.744600 0.046335 0.250000
v -1.894600 0.046335 0.100000
v -1.744600 0.000000 0.250000
v -1.689617 1.202291 -0.018647
v -1.693326 1.202291 0.000000
v -1.689617 1.202291 0.018647
v -1.679054 1.202291 -0.034454
v -1.679054 1.202291 0.034455
v -1.663246 1.202291 0.045017
v -1.663246 1.202291 -0.045017
v -1.644600 1.202291 0.048726
v -1.644600 1.202291 -0.048726
v -1.625953 1.202291 -0.045017
v -1.625953 1.202291 0.045017
v -1.610145 1.202291 -0.034454
v -1.610145 1.202291 0.034455
v -1.599583 1.202291 0.018647
v -1.599583 1.202291 -0.018647
v -1.595874 1.202291 0.000000
v -1.744600 0.046335 -0.250000
v -1.394600 0.046335 -0.100000
v -1.544600 0.046335 -0.250000
v -1.894600 0.046335 -0.100000
v -1.394600 0.046335 0.100000
v -1.894600 0.046335 0.100000
v -1.744600 0.046335 0.250000
v -1.544600 0.046335 0.250000
v -1.544600 0.000000 -0.250000
v -1.894600 0.000000 -0.100000
v -1.744600 0.000000 -0.250000
v -1.394600 0.000000 -0.100000
v -1.894600 0.000000 0.100000
v -1.394600 0.000000 0.100000
v -1.544600 0.000000 0.250000
v -1.744600 0.000000 0.250000
v -1.644600 1.195556 -0.059646
v -1.644600 1.202291 -0.048726
v -1.625953 1.202291 -0.045017
v -1.621774 1.195556 -0.055106
v -1.644600 1.186979 -0.066737
v -1.602424 1.195556 -0.042176
v -1.610145 1.202291 -0.034454
v -1.619060 1.186979 -0.061657
v -1.644600 1.176559 -0.070000
v -1.599583 1.202291 -0.018647
v -1.617812 1.176559 -0.064671
v -1.644600 0.028905 -0.070000
v -1.617812 0.028905 -0.064671
v -1.597409 1.186979 -0.047190
v -1.595102 1.176559 -0.049497
v -1.595102 0.028905 -0.049497
v -1.579928 1.176559 -0.026787
v -1.579928 0.028905 -0.026787
v -1.582942 1.186979 -0.025539
v -1.589494 1.195556 -0.022825
v -1.595874 1.202291 0.000000
v -1.574600 1.176559 0.000000
v -1.574600 0.028905 0.000000
v -1.579928 0.028905 0.026788
v -1.577862 1.186979 0.000000
v -1.584954 1.195556 0.000000
v -1.589494 1.195556 0.022826
v -1.599583 1.202291 0.018647
v -1.582942 1.186979 0.025540
v -1.579928 1.176559 0.026788
v -1.595102 0.028905 0.049498
v -1.602424 1.195556 0.042177
v -1.610145 1.202291 0.034455
v -1.625953 1.202291 0.045017
v -1.597409 1.186979 0.047191
v -1.595102 1.176559 0.049498
v -1.617812 0.028905 0.064672
v -1.617812 1.176559 0.064672
v -1.644600 0.028905 0.070000
v -1.644600 1.176559 0.070000
v -1.619060 1.186979 0.061658
v -1.644600 1.186979 0.066738
v -1.621774 1.195556 0.055107
v -1.644600 1.195556 0.059647
v -1.644600 1.202291 0.048726
v -1.663246 1.202291 0.045017
v -1.667425 1.195556 0.055107
v -1.686776 1.195556 0.042177
v -1.679054 1.202291 0.034455
v -1.670139 1.186979 0.061658
v -1.689617 1.202291 0.018647
v -1.671388 1.176559 0.064672
v -1.671388 0.028905 0.064672
v -1.691790 1.186979 0.047191
v -1.694097 1.176559 0.049498
v -1.694097 0.028905 0.049498
v -1.709271 1.176559 0.026788
v -1.709271 0.028905 0.026788
v -1.706257 1.186979 0.025540
v -1.714600 1.176559 0.000000
v -1.714600 0.028905 0.000000
v -1.709271 0.028905 -0.026787
v -1.699706 1.195556 0.022826
v -1.693326 1.202291 0.000000
v -1.711337 1.186979 0.000000
v -1.704246 1.195556 0.000000
v -1.699706 1.195556 -0.022825
v -1.689617 1.202291 -0.018647
v -1.706257 1.186979 -0.025539
v -1.709271 1.176559 -0.026787
v -1.694097 0.028905 -0.049497
v -1.686776 1.195556 -0.042176
v -1.679054 1.202291 -0.034454
v -1.663246 1.202291 -0.045017
v -1.691790 1.186979 -0.047190
v -1.694097 1.176559 -0.049497
v -1.671388 0.028905 -0.064671
v -1.671388 1.176559 -0.064671
v -1.670139 1.186979 -0.061657
v -1.667425 1.195556 -0.055106
vn 1.0000 -0.0000 -0.0000
vn -0.0000 -0.0000 -1.0000
vn -0.0000 -0.0000 1.0000
vn -1.0000 -0.0000 -0.0000
vn 0.7071 -0.0000 -0.7071
vn -0.7071 -0.0000 -0.7071
vn 0.7071 -0.0000 0.7071
vn -0.7071 -0.0000 0.7071
vn -0.0000 1.0000 -0.0000
vn -0.0000 -1.0000 -0.0000
vn -0.0000 0.7443 -0.6678
vn -0.0000 0.8512 -0.5249
vn 0.2009 0.8512 -0.4850
vn 0.2556 0.7443 -0.6170
vn -0.0000 0.4671 -0.8842
vn 0.4722 0.7443 -0.4722
vn 0.3712 0.8512 -0.3712
vn 0.3384 0.4671 -0.8169
vn -0.0000 0.1484 -0.9889
vn 0.4850 0.8512 -0.2009
vn 0.3784 0.1484 -0.9136
vn 0.3827 -0.0000 -0.9239
vn 0.6252 0.4671 -0.6252
vn 0.6993 0.1484 -0.6993
vn 0.9136 0.1484 -0.3784
vn 0.9239 -0.0000 -0.3827
vn 0.8169 0.4671 -0.3384
vn 0.6170 0.7443 -0.2556
vn 0.5249 0.8512 -0.0000
vn 0.9889 0.1484 -0.0000
vn 0.9239 -0.0000 0.3827
vn 0.8842 0.4671 -0.0000
vn 0.6678 0.7443 -0.0000
vn 0.6170 0.7443 0.2556
vn 0.4850 0.8512 0.2009
vn 0.8169 0.4671 0.3384
vn 0.9136 0.1484 0.3784
vn 0.4722 0.7443 0.4722
vn 0.3712 0.8512 0.3712
vn 0.2009 0.8512 0.4850
vn 0.6252 0.4671 0.6252
vn 0.6993 0.1484 0.6993
vn 0.3827 -0.0000 0.9239
vn 0.3784 0.1484 0.9136
vn -0.0000 0.1484 0.9889
vn 0.3384 0.4671 0.8169
vn -0.0000 0.4671 0.8842
vn 0.2556 0.7443 0.6170
vn -0.0000 0.7443 0.6678
vn -0.0000 0.8512 0.5249
vn -0.2009 0.8512 0.4850
vn -0.2556 0.7443 0.6170
vn -0.4722 0.7443 0.4722
vn -0.3712 0.8512 0.3712
vn -0.3384 0.4671 0.8169
vn -0.4850 0.8512 0.2009
vn -0.3784 0.1484 0.9136
vn -0.3827 -0.0000 0.9239
vn -0.6252 0.4671 0.6252
vn -0.6993 0.1484 0.6993
vn -0.9137 0.1484 0.3784
vn -0.9239 -0.0000 0.3827
vn -0.8169 0.4671 0.3384
vn -0.9889 0.1484 -0.0000
vn -0.9239 -0.0000 -0.3827
vn -0.6170 0.7443 0.2556
vn -0.5249 0.8512 -0.0000
vn -0.8842 0.4671 -0.0000
vn -0.6678 0.7443 -0.0000
vn -0.6170 0.7443 -0.2556
vn -0.4850 0.8512 -0.2009
vn -0.8169 0.4671 -0.3384
vn -0.9136 0.1484 -0.3784
vn -0.4722 0.7443 -0.4722
vn -0.3712 0.8512 -0.3712
vn -0.2009 0.8512 -0.4850
vn -0.6252 0.4671 -0.6252
vn -0.6993 0.1484 -0.6993
vn -0.3827 -0.0000 -0.9239
vn -0.3784 0.1484 -0.9136
vn -0.3384 0.4671 -0.8169
vn -0.2556 0.7443 -0.6170
vt 0.968262 0.219727
vt 0.995117 0.159180
vt 0.995117 0.219727
vt 0.968262 0.159180
vt 0.888184 0.585449
vt 0.883789 0.574951
vt 0.888184 0.564697
vt 0.899902 0.594238
vt 0.899902 0.555908
vt 0.917480 0.550049
vt 0.917480 0.600098
vt 0.937988 0.548096
vt 0.937988 0.602051
vt 0.958496 0.600098
vt 0.958496 0.550049
vt 0.976074 0.594238
vt 0.976074 0.555908
vt 0.987793 0.564697
vt 0.987793 0.585449
vt 0.992188 0.574951
vt 0.862793 0.165527
vt 0.990723 0.137695
vt 0.936035 0.165527
vt 0.808105 0.137695
vt 0.990723 0.101562
vt 0.808105 0.101562
vt 0.862793 0.073730
vt 0.936035 0.073730
vt 0.991699 0.901855
vt 0.991699 0.904358
vt 0.967285 0.904358
vt 0.967285 0.901855
vt 0.991699 0.899414
vt 0.942871 0.901855
vt 0.942871 0.904358
vt 0.967285 0.899414
vt 0.991699 0.896912
vt 0.917969 0.904358
vt 0.967285 0.896912
vt 0.991699 0.609863
vt 0.967285 0.609863
vt 0.942871 0.899414
vt 0.942871 0.896912
vt 0.942871 0.609863
vt 0.917969 0.896912
vt 0.917969 0.609863
vt 0.917969 0.899414
vt 0.917969 0.901855
vt 0.893066 0.904358
vt 0.893066 0.896912
vt 0.893066 0.609863
vt 0.868164 0.609863
vt 0.893066 0.899414
vt 0.893066 0.901855
vt 0.868164 0.901855
vt 0.868164 0.904358
vt 0.868164 0.899414
vt 0.868164 0.896912
vt 0.843750 0.609863
vt 0.843750 0.901855
vt 0.843750 0.904358
vt 0.818848 0.904358
vt 0.843750 0.899414
vt 0.843750 0.896912
vt 0.818848 0.609863
vt 0.818848 0.896912
vt 0.794922 0.609863
vt 0.794922 0.896912
vt 0.818848 0.899414
vt 0.794922 0.899414
vt 0.818848 0.901855
vt 0.794922 0.901855
vt 0.794922 0.904358
vt 0.770508 0.904358
vt 0.770508 0.901855
vt 0.745605 0.901855
vt 0.745605 0.904358
vt 0.770508 0.899414
vt 0.721191 0.904358
vt 0.770508 0.896912
vt 0.770508 0.609863
vt 0.745605 0.899414
vt 0.745605 0.896912
vt 0.745605 0.609863
vt 0.721191 0.896912
vt 0.721191 0.609863
vt 0.721191 0.899414
vt 0.696289 0.896912
vt 0.696289 0.609863
vt 0.671387 0.609863
vt 0.721191 0.901855
vt 0.696289 0.904358
vt 0.696289 0.899414
vt 0.696289 0.901855
vt 0.671387 0.901855
vt 0.671387 0.904358
vt 0.671387 0.899414
vt 0.671387 0.896912
vt 0.646484 0.609863
vt 0.646484 0.901855
vt 0.646484 0.904358
vt 0.622070 0.904358
vt 0.646484 0.899414
vt 0.646484 0.896912
vt 0.622070 0.609863
vt 0.622070 0.896912
vt 0.598145 0.609863
vt 0.598145 0.896912
vt 0.622070 0.899414
vt 0.598145 0.899414
vt 0.622070 0.901855
vt 0.598145 0.901855
vt 0.598145 0.904358
s 1
usemtl Material.007
f 1/1/1 2/2/1 3/3/1
f 2/2/1 1/1/1 4/4/1
f 5/2/2 6/3/2 7/1/2
f 5/2/2 7/1/2 8/4/2
f 9/2/3 10/3/3 11/1/3
f 9/2/3 11/1/3 12/4/3
f 13/2/4 14/3/4 15/1/4
f 13/2/4 15/1/4 16/4/4
f 17/1/5 18/2/5 19/3/5
f 18/2/5 17/1/5 20/4/5
f 21/1/6 22/2/6 23/3/6
f 22/2/6 21/1/6 24/4/6
f 25/1/7 26/2/7 27/3/7
f 26/2/7 25/1/7 28/4/7
f 29/1/8 30/2/8 31/3/8
f 30/2/8 29/1/8 32/4/8
f 33/5/9 34/6/9 35/7/9
f 35/7/9 36/8/9 33/5/9
f 37/9/9 36/8/9 35/7/9
f 38/10/9 36/8/9 37/9/9
f 36/8/9 38/10/9 39/11/9
f 40/12/9 39/11/9 38/10/9
f 39/11/9 40/12/9 41/13/9
f 40/12/9 42/14/9 41/13/9
f 42/14/9 40/12/9 43/15/9
f 42/14/9 43/15/9 44/16/9
f 44/16/9 43/15/9 45/17/9
f 46/18/9 44/16/9 45/17/9
f 44/16/9 46/18/9 47/19/9
f 46/18/9 48/20/9 47/19/9
f 49/21/9 50/22/9 51/23/9
f 52/24/9 50/22/9 49/21/9
f 50/22/9 52/24/9 53/25/9
f 53/25/9 52/24/9 54/26/9
f 54/26/9 55/27/9 53/25/9
f 53/25/9 55/27/9 56/28/9
f 57/28/10 58/26/10 59/27/10
f 60/25/10 58/26/10 57/28/10
f 58/26/10 60/25/10 61/24/10
f 62/22/10 61/24/10 60/25/10
f 61/24/10 62/22/10 63/23/10
f 61/24/10 63/23/10 64/21/10
f 65/29/11 66/30/12 67/31/13
f 68/32/14 65/29/11 67/31/13
f 68/32/14 69/33/15 65/29/11
f 67/31/13 70/34/16 68/32/14
f 70/34/16 67/31/13 71/35/17
f 69/33/15 68/32/14 72/36/18
f 70/34/16 72/36/18 68/32/14
f 72/36/18 73/37/19 69/33/15
f 74/38/20 70/34/16 71/35/17
f 73/37/19 72/36/18 75/39/21
f 75/39/21 76/40/2 73/37/19
f 76/40/2 75/39/21 77/41/22
f 78/42/23 75/39/21 72/36/18
f 72/36/18 70/34/16 78/42/23
f 79/43/24 77/41/22 75/39/21
f 75/39/21 78/42/23 79/43/24
f 77/41/22 79/43/24 80/44/5
f 81/45/25 80/44/5 79/43/24
f 78/42/23 81/45/25 79/43/24
f 80/44/5 81/45/25 82/46/26
f 70/34/16 83/47/27 78/42/23
f 81/45/25 78/42/23 83/47/27
f 70/34/16 74/38/20 84/48/28
f 83/47/27 70/34/16 84/48/28
f 85/49/29 84/48/28 74/38/20
f 86/50/30 82/46/26 81/45/25
f 83/47/27 86/50/30 81/45/25
f 82/46/26 86/50/30 87/51/1
f 86/50/30 88/52/31 87/51/1
f 84/48/28 89/53/32 83/47/27
f 86/50/30 83/47/27 89/53/32
f 84/48/28 85/49/29 90/54/33
f 89/53/32 84/48/28 90/54/33
f 85/49/29 91/55/34 90/54/33
f 91/55/34 89/53/32 90/54/33
f 91/55/34 85/49/29 92/56/35
f 93/57/36 86/50/30 89/53/32
f 89/53/32 91/55/34 93/57/36
f 94/58/37 88/52/31 86/50/30
f 86/50/30 93/57/36 94/58/37
f 94/58/37 95/59/7 88/52/31
f 92/56/35 96/60/38 91/55/34
f 96/60/38 93/57/36 91/55/34
f 96/60/38 92/56/35 97/61/39
f 98/62/40 96/60/38 97/61/39
f 99/63/41 94/58/37 93/57/36
f 93/57/36 96/60/38 99/63/41
f 100/64/42 95/59/7 94/58/37
f 94/58/37 99/63/41 100/64/42
f 100/64/42 101/65/43 95/59/7
f 102/66/44 101/65/43 100/64/42
f 99/63/41 102/66/44 100/64/42
f 102/66/44 103/67/3 101/65/43
f 104/68/45 103/67/3 102/66/44
f 102/66/44 99/63/41 105/69/46
f 105/69/46 104/68/45 102/66/44
f 96/60/38 105/69/46 99/63/41
f 104/68/45 105/69/46 106/70/47
f 105/69/46 96/60/38 107/71/48
f 107/71/48 106/70/47 105/69/46
f 107/71/48 96/60/38 98/62/40
f 106/70/47 107/71/48 108/72/49
f 98/62/40 108/72/49 107/71/48
f 108/72/49 98/62/40 109/73/50
f 110/74/51 108/72/49 109/73/50
f 108/72/49 110/74/51 111/75/52
f 111/75/52 106/70/47 108/72/49
f 110/74/51 112/76/53 111/75/52
f 112/76/53 110/74/51 113/77/54
f 106/70/47 111/75/52 114/78/55
f 112/76/53 114/78/55 111/75/52
f 114/78/55 104/68/45 106/70/47
f 113/77/54 115/79/56 112/76/53
f 104/68/45 114/78/55 116/80/57
f 116/80/57 103/67/3 104/68/45
f 103/67/3 116/80/57 117/81/58
f 118/82/59 116/80/57 114/78/55
f 114/78/55 112/76/53 118/82/59
f 119/83/60 117/81/58 116/80/57
f 116/80/57 118/82/59 119/83/60
f 117/81/58 119/83/60 120/84/8
f 121/85/61 120/84/8 119/83/60
f 118/82/59 121/85/61 119/83/60
f 120/84/8 121/85/61 122/86/62
f 112/76/53 123/87/63 118/82/59
f 121/85/61 118/82/59 123/87/63
f 124/88/64 122/86/62 121/85/61
f 123/87/63 124/88/64 121/85/61
f 122/86/62 124/88/64 125/89/4
f 124/88/64 126/90/65 125/89/4
f 123/87/63 112/76/53 127/91/66
f 127/91/66 112/76/53 115/79/56
f 127/91/66 115/79/56 128/92/67
f 127/91/66 129/93/68 123/87/63
f 124/88/64 123/87/63 129/93/68
f 130/94/69 127/91/66 128/92/67
f 129/93/68 127/91/66 130/94/69
f 128/92/67 131/95/70 130/94/69
f 131/95/70 129/93/68 130/94/69
f 131/95/70 128/92/67 132/96/71
f 133/97/72 124/88/64 129/93/68
f 129/93/68 131/95/70 133/97/72
f 134/98/73 126/90/65 124/88/64
f 124/88/64 133/97/72 134/98/73
f 134/98/73 135/99/6 126/90/65
f 132/96/71 136/100/74 131/95/70
f 136/100/74 133/97/72 131/95/70
f 136/100/74 132/96/71 137/101/75
f 138/102/76 136/100/74 137/101/75
f 139/103/77 134/98/73 133/97/72
f 133/97/72 136/100/74 139/103/77
f 140/104/78 135/99/6 134/98/73
f 134/98/73 139/103/77 140/104/78
f 140/104/78 141/105/79 135/99/6
f 142/106/80 141/105/79 140/104/78
f 139/103/77 142/106/80 140/104/78
f 142/106/80 76/107/2 141/105/79
f 73/108/19 76/107/2 142/106/80
f 142/106/80 139/103/77 143/109/81
f 143/109/81 73/108/19 142/106/80
f 136/100/74 143/109/81 139/103/77
f 73/108/19 143/109/81 69/110/15
f 143/109/81 136/100/74 144/111/82
f 144/111/82 69/110/15 143/109/81
f 136/100/74 138/102/76 144/111/82
f 69/110/15 144/111/82 65/112/11
f 138/102/76 65/112/11 144/111/82
f 65/112/11 138/102/76 66/113/12
