# Blender 4.0.1
# www.blender.org
mtllib traffic_sign_b.mtl
o SM_Traffic_Sign_A.mo
v -0.050717 3.189866 -0.060204
v 0.028736 3.199651 0.019743
v 0.028736 3.199210 -0.060255
v -0.050717 3.190308 0.019795
v -0.055867 0.276015 -0.055867
v 0.055867 0.276015 0.055867
v 0.055867 0.276015 -0.055867
v -0.055867 0.276015 0.055867
v -0.055867 0.276015 0.055867
v 0.055867 0.038841 0.055867
v 0.055867 0.276015 0.055867
v -0.055867 0.038841 0.055868
v 0.055867 0.276015 0.055867
v 0.055867 0.038841 -0.055867
v 0.055867 0.276015 -0.055867
v 0.055867 0.038841 0.055867
v 0.055867 0.276015 -0.055867
v -0.055867 0.038841 -0.055867
v -0.055867 0.276015 -0.055867
v 0.055867 0.038841 -0.055867
v -0.055867 0.276015 0.055867
v -0.055867 0.038841 -0.055867
v -0.055867 0.038841 0.055868
v -0.055867 0.276015 -0.055867
v -0.223616 0.000000 0.263985
v 0.223616 0.038841 0.263983
v -0.223616 0.038841 0.263985
v 0.223616 0.000000 0.263983
v 0.263983 0.000000 0.223616
v 0.263983 0.038841 -0.223615
v 0.263983 0.038841 0.223616
v 0.263983 -0.000000 -0.223615
v 0.223616 -0.000000 -0.263983
v -0.223616 0.038841 -0.263985
v 0.223616 0.038841 -0.263983
v -0.223616 -0.000000 -0.263985
v -0.263983 -0.000000 -0.223618
v -0.263983 0.038841 0.223618
v -0.263983 0.038841 -0.223618
v -0.263983 0.000000 0.223618
v 0.223616 0.000000 0.263983
v 0.263983 0.038841 0.223616
v 0.223616 0.038841 0.263983
v 0.263983 0.000000 0.223616
v -0.263983 0.000000 0.223618
v -0.223616 0.038841 0.263985
v -0.263983 0.038841 0.223618
v -0.223616 0.000000 0.263985
v 0.263983 -0.000000 -0.223615
v 0.223616 0.038841 -0.263983
v 0.263983 0.038841 -0.223615
v 0.223616 -0.000000 -0.263983
v -0.223616 -0.000000 -0.263985
v -0.263983 0.038841 -0.223618
v -0.223616 0.038841 -0.263985
v -0.263983 -0.000000 -0.223618
v -0.127576 0.074214 -0.201775
v -0.117321 0.074214 -0.164622
v -0.117321 0.038841 -0.164622
v -0.127576 0.038841 -0.201775
v -0.164878 0.074214 -0.211470
v -0.127576 0.074214 -0.201775
v -0.127576 0.038841 -0.201775
v -0.164878 0.038841 -0.211470
v -0.191926 0.074214 -0.184013
v -0.164878 0.074214 -0.211470
v -0.164878 0.038841 -0.211470
v -0.191926 0.038841 -0.184013
v -0.181671 0.074214 -0.146860
v -0.191926 0.074214 -0.184013
v -0.191926 0.038841 -0.184013
v -0.181671 0.038841 -0.146860
v -0.144369 0.074214 -0.137165
v -0.181671 0.074214 -0.146860
v -0.181671 0.038841 -0.146860
v -0.144369 0.038841 -0.137165
v -0.117321 0.074214 -0.164622
v -0.144369 0.074214 -0.137165
v -0.144369 0.038841 -0.137165
v -0.117321 0.038841 -0.164622
v 0.206357 0.074214 -0.214917
v 0.222921 0.074214 -0.180117
v 0.222921 0.038841 -0.180117
v 0.206357 0.038841 -0.214917
v 0.167936 0.074214 -0.217973
v 0.206357 0.074214 -0.214917
v 0.206357 0.038841 -0.214917
v 0.167936 0.038841 -0.217973
v 0.146080 0.074214 -0.186227
v 0.167936 0.074214 -0.217973
v 0.167936 0.038841 -0.217973
v 0.146080 0.038841 -0.186227
v 0.162645 0.074214 -0.151427
v 0.146080 0.074214 -0.186227
v 0.146080 0.038841 -0.186227
v 0.162645 0.038841 -0.151427
v 0.201065 0.074214 -0.148372
v 0.162645 0.074214 -0.151427
v 0.162645 0.038841 -0.151427
v 0.201065 0.038841 -0.148372
v 0.222921 0.074214 -0.180117
v 0.201065 0.074214 -0.148372
v 0.201065 0.038841 -0.148372
v 0.222921 0.038841 -0.180117
v -0.120983 0.074214 0.152827
v -0.122890 0.074214 0.191322
v -0.122890 0.038841 0.191322
v -0.120983 0.038841 0.152827
v -0.153367 0.074214 0.131929
v -0.120983 0.074214 0.152827
v -0.120983 0.038841 0.152827
v -0.153367 0.038841 0.131929
v -0.187658 0.074214 0.149525
v -0.153367 0.074214 0.131929
v -0.153367 0.038841 0.131929
v -0.187658 0.038841 0.149525
v -0.189564 0.074214 0.188019
v -0.187658 0.074214 0.149525
v -0.187658 0.038841 0.149525
v -0.189564 0.038841 0.188019
v -0.157180 0.074214 0.208917
v -0.189564 0.074214 0.188019
v -0.189564 0.038841 0.188019
v -0.157180 0.038841 0.208917
v -0.122890 0.074214 0.191322
v -0.157180 0.074214 0.208917
v -0.157180 0.038841 0.208917
v -0.122890 0.038841 0.191322
v 0.186610 0.074214 0.138393
v 0.217550 0.074214 0.161376
v 0.217550 0.038841 0.161376
v 0.186610 0.038841 0.138393
v 0.151237 0.074214 0.153695
v 0.186610 0.074214 0.138393
v 0.186610 0.038841 0.138393
v 0.151237 0.038841 0.153695
v 0.146802 0.074214 0.191981
v 0.151237 0.074214 0.153695
v 0.151237 0.038841 0.153695
v 0.146802 0.038841 0.191981
v 0.177741 0.074214 0.214964
v 0.146802 0.074214 0.191981
v 0.146802 0.038841 0.191981
v 0.177741 0.038841 0.214964
v 0.213115 0.074214 0.199662
v 0.177741 0.074214 0.214964
v 0.177741 0.038841 0.214964
v 0.213115 0.038841 0.199662
v 0.217550 0.074214 0.161376
v 0.213115 0.074214 0.199662
v 0.213115 0.038841 0.199662
v 0.217550 0.038841 0.161376
v 0.060438 2.367740 0.245586
v 0.039676 2.213014 0.264118
v 0.072278 2.215521 0.263880
v 0.027836 2.365233 0.245825
v 0.072273 2.308990 -0.250930
v 0.051512 2.154263 -0.232397
v 0.039671 2.306482 -0.250691
v 0.084114 2.156770 -0.232636
v 0.042377 2.194092 0.244088
v 0.072278 2.215521 0.263880
v 0.039676 2.213014 0.264118
v 0.074979 2.196599 0.243850
v 0.027987 2.379088 0.221856
v 0.060438 2.367740 0.245586
v 0.060589 2.381596 0.221617
v 0.027836 2.365233 0.245825
v 0.085346 2.143021 -0.208677
v 0.052744 2.140514 -0.208438
v 0.084114 2.156770 -0.232636
v 0.051512 2.154263 -0.232397
v 0.072273 2.308990 -0.250930
v 0.039671 2.306482 -0.250691
v 0.070956 2.328017 -0.230910
v 0.038354 2.325510 -0.230671
v -0.071866 2.496403 -0.029108
v -0.033755 2.463075 -0.042280
v -0.069005 2.460151 -0.041876
v -0.036616 2.499328 -0.029512
v -0.069005 2.460151 -0.041876
v -0.033755 2.463075 -0.042280
v -0.066302 2.431034 -0.016769
v -0.031052 2.433958 -0.017173
v -0.031210 2.441094 0.020702
v -0.066302 2.431034 -0.016769
v -0.031052 2.433958 -0.017173
v -0.066460 2.438169 0.021106
v -0.069321 2.474422 0.033874
v -0.031210 2.441094 0.020702
v -0.034071 2.477346 0.033470
v -0.066460 2.438169 0.021106
v -0.036774 2.506463 0.008363
v -0.069321 2.474422 0.033874
v -0.034071 2.477346 0.033470
v -0.072024 2.503539 0.008767
v -0.071866 2.496403 -0.029108
v -0.036774 2.506463 0.008363
v -0.036616 2.499328 -0.029512
v -0.072024 2.503539 0.008767
v -0.068225 2.291036 -0.019248
v -0.028418 2.258914 -0.030218
v -0.063483 2.254266 -0.029780
v -0.033161 2.295684 -0.019686
v -0.063483 2.254266 -0.029780
v -0.028418 2.258914 -0.030218
v -0.059519 2.226890 -0.002941
v -0.024455 2.231538 -0.003379
v -0.025233 2.240933 0.033992
v -0.059519 2.226890 -0.002941
v -0.024455 2.231538 -0.003379
v -0.060297 2.236285 0.034430
v -0.065040 2.273055 0.044962
v -0.025233 2.240933 0.033992
v -0.029976 2.277703 0.044524
v -0.060297 2.236285 0.034430
v -0.033940 2.305079 0.017685
v -0.065040 2.273055 0.044962
v -0.029976 2.277703 0.044524
v -0.069004 2.300431 0.018123
v -0.068225 2.291036 -0.019248
v -0.033940 2.305079 0.017685
v -0.033161 2.295684 -0.019686
v -0.069004 2.300431 0.018123
v -0.073469 3.105842 -0.047940
v -0.039138 3.124701 -0.013262
v -0.038219 3.108766 -0.048344
v -0.074389 3.121777 -0.012858
v -0.073469 3.105842 -0.047940
v -0.035090 3.070533 -0.052067
v -0.070340 3.067609 -0.051663
v -0.038219 3.108766 -0.048344
v -0.068131 3.045310 -0.020305
v -0.035090 3.070533 -0.052067
v -0.032880 3.048234 -0.020709
v -0.070340 3.067609 -0.051663
v -0.033800 3.064168 0.014373
v -0.068131 3.045310 -0.020305
v -0.032880 3.048234 -0.020709
v -0.069050 3.061244 0.014777
v -0.072179 3.099478 0.018500
v -0.033800 3.064168 0.014373
v -0.036929 3.102402 0.018096
v -0.069050 3.061244 0.014777
v -0.039138 3.124701 -0.013262
v -0.072179 3.099478 0.018500
v -0.036929 3.102402 0.018096
v -0.074389 3.121777 -0.012858
v -0.149246 0.108920 -0.195006
v -0.149246 0.072364 -0.195006
v -0.165450 0.108920 -0.192749
v -0.165450 0.072364 -0.192749
v -0.175312 0.108920 -0.179695
v -0.175312 0.072364 -0.179695
v -0.173055 0.108920 -0.163491
v -0.173055 0.072364 -0.163491
v -0.160001 0.108920 -0.153629
v -0.160001 0.072364 -0.153629
v -0.143796 0.108920 -0.155886
v -0.143796 0.072364 -0.155886
v -0.133935 0.108920 -0.168940
v -0.133935 0.072364 -0.168940
v -0.136192 0.108920 -0.185144
v -0.136192 0.072364 -0.185144
v 0.186195 0.086202 -0.204481
v 0.186195 0.049646 -0.204481
v 0.170631 0.086202 -0.199438
v 0.170631 0.049646 -0.199438
v 0.163192 0.086202 -0.184867
v 0.163192 0.049646 -0.184867
v 0.168235 0.086202 -0.169303
v 0.168235 0.049646 -0.169303
v 0.182806 0.086202 -0.161863
v 0.182806 0.049646 -0.161863
v 0.198370 0.086202 -0.166906
v 0.198370 0.049646 -0.166906
v 0.205810 0.086202 -0.181477
v 0.205810 0.049646 -0.181477
v 0.200767 0.086202 -0.197041
v 0.200767 0.049646 -0.197041
v -0.143683 0.101721 0.152462
v -0.143683 0.065165 0.152462
v -0.159778 0.101721 0.149527
v -0.159778 0.065165 0.149527
v -0.173235 0.101721 0.158832
v -0.173235 0.065165 0.158832
v -0.176170 0.101721 0.174927
v -0.176170 0.065165 0.174927
v -0.166864 0.101721 0.188384
v -0.166864 0.065165 0.188384
v -0.150769 0.101721 0.191319
v -0.150769 0.065165 0.191319
v -0.137313 0.101721 0.182014
v -0.137313 0.065165 0.182014
v -0.134378 0.101721 0.165919
v -0.134378 0.065165 0.165919
v 0.173689 0.110771 0.157059
v 0.173689 0.074214 0.157059
v 0.162302 0.110771 0.168807
v 0.162302 0.074214 0.168807
v 0.162557 0.110771 0.185166
v 0.162557 0.074214 0.185166
v 0.174304 0.110771 0.196552
v 0.174304 0.074214 0.196552
v 0.190663 0.110771 0.196298
v 0.190663 0.074214 0.196298
v 0.202050 0.110771 0.184550
v 0.202050 0.074214 0.184550
v 0.201795 0.110771 0.168192
v 0.201795 0.074214 0.168192
v 0.190047 0.110771 0.156804
v 0.190047 0.074214 0.156804
v -0.108101 3.082559 -0.037439
v -0.071673 3.085581 -0.037856
v -0.106753 3.066968 -0.032668
v -0.070324 3.069990 -0.033085
v -0.105953 3.059315 -0.018229
v -0.069524 3.062338 -0.018647
v -0.069741 3.067107 -0.002998
v -0.106169 3.064085 -0.002581
v -0.107276 3.078483 0.005111
v -0.070847 3.081505 0.004693
v -0.072195 3.097096 -0.000078
v -0.108624 3.094074 0.000340
v -0.072995 3.104748 -0.014517
v -0.109424 3.101726 -0.014099
v -0.109208 3.096956 -0.029747
v -0.072779 3.099978 -0.030165
v 0.000771 2.476527 0.404716
v 0.034148 2.510087 0.412910
v 0.006073 2.514205 0.405570
v 0.028846 2.472410 0.412057
v 0.001085 2.445711 0.386231
v 0.029159 2.441594 0.393572
v 0.034891 2.422148 0.360744
v 0.006817 2.426265 0.353403
v 0.040000 0.270435 0.040000
v -0.040000 2.072278 0.063842
v -0.040000 0.270435 0.040001
v 0.040000 2.085435 0.063725
v -0.032536 2.110611 0.061319
v 0.047397 2.117183 0.061139
v -0.025886 2.148861 0.057335
v 0.054114 2.148861 0.057335
v 0.040000 2.384549 0.035134
v -0.040000 2.384549 0.035134
v -0.040000 3.077192 0.022834
v 0.040000 3.077192 0.022834
v 0.028736 3.199651 0.019743
v -0.050717 3.190308 0.019795
v -0.040000 2.071566 -0.016155
v 0.040000 0.270435 -0.040000
v -0.040000 0.270435 -0.040000
v 0.040000 2.084723 -0.016272
v -0.032571 2.106500 -0.018566
v 0.047363 2.113072 -0.018745
v -0.025886 2.141358 -0.022313
v 0.054114 2.141358 -0.022313
v 0.040000 2.377047 -0.044514
v -0.040000 2.377047 -0.044514
v -0.040000 3.075820 -0.057119
v 0.040000 3.075820 -0.057119
v 0.028736 3.199210 -0.060255
v -0.050717 3.189866 -0.060204
v 0.084911 2.156582 -0.095561
v 0.052744 2.140514 -0.208438
v 0.085346 2.143021 -0.208677
v 0.052309 2.154074 -0.095323
v 0.083553 2.170071 0.017562
v 0.050951 2.167564 0.017800
v 0.080500 2.183430 0.130697
v 0.047898 2.180923 0.130935
v 0.074979 2.196599 0.243850
v 0.042377 2.194092 0.244088
v 0.033508 2.365919 0.108703
v 0.027987 2.379088 0.221856
v 0.060589 2.381596 0.221617
v 0.066110 2.368426 0.108464
v 0.036562 2.352560 -0.004433
v 0.069163 2.355067 -0.004671
v 0.037919 2.339071 -0.117555
v 0.070521 2.341578 -0.117794
v 0.038354 2.325510 -0.230671
v 0.070956 2.328017 -0.230910
v 0.042377 2.194092 0.244088
v 0.039676 2.213014 0.264118
v 0.027836 2.365233 0.245825
v 0.027987 2.379088 0.221856
v 0.047898 2.180923 0.130935
v 0.033508 2.365919 0.108703
v 0.050951 2.167564 0.017800
v 0.036562 2.352560 -0.004433
v 0.052309 2.154074 -0.095323
v 0.037919 2.339071 -0.117555
v 0.052744 2.140514 -0.208438
v 0.038354 2.325510 -0.230671
v 0.051512 2.154263 -0.232397
v 0.039671 2.306482 -0.250691
v 0.074979 2.196599 0.243850
v 0.060438 2.367740 0.245586
v 0.072278 2.215521 0.263880
v 0.060589 2.381596 0.221617
v 0.080500 2.183430 0.130697
v 0.066110 2.368426 0.108464
v 0.083553 2.170071 0.017562
v 0.069163 2.355067 -0.004671
v 0.084911 2.156582 -0.095561
v 0.070521 2.341578 -0.117794
v 0.085346 2.143021 -0.208677
v 0.070956 2.328017 -0.230910
v 0.084114 2.156770 -0.232636
v 0.072273 2.308990 -0.250930
v -0.001345 2.495744 -0.438261
v 0.016070 2.628576 -0.368725
v 0.027707 2.494752 -0.443781
v 0.045490 2.630420 -0.368661
v 0.031085 2.826716 -0.262020
v 0.060394 2.827730 -0.261455
v 0.051850 3.024346 -0.151932
v 0.022541 3.025074 -0.151527
v 0.037767 3.157502 -0.077759
v 0.067075 3.157502 -0.077759
v 0.037767 3.159528 0.016472
v 0.051894 2.665470 0.324333
v 0.067075 3.159528 0.016472
v 0.022587 2.665279 0.323171
v 0.049375 2.624817 0.349638
v 0.020075 2.625026 0.346982
v 0.012678 2.410560 -0.301495
v -0.001307 2.409143 -0.383894
v 0.027745 2.408153 -0.389414
v 0.042056 2.409702 -0.300597
v 0.031085 2.412806 -0.188445
v 0.060394 2.412826 -0.187511
v 0.037767 2.415318 -0.071522
v 0.067075 2.415308 -0.072021
v 0.067075 2.416331 -0.024430
v 0.037767 2.416344 -0.023781
v 0.041906 2.418189 0.062042
v 0.071214 2.418171 0.061244
v 0.053114 2.422983 0.194490
v 0.023802 2.423771 0.193851
v 0.046341 2.423226 0.253588
v 0.017009 2.425066 0.251619
v -0.104625 2.450371 -0.019800
v -0.107091 2.480414 -0.017508
v -0.105969 2.465860 -0.024896
v -0.103848 2.443021 -0.005204
v -0.107336 2.485508 -0.001963
v -0.104093 2.448116 0.010342
v -0.106559 2.478158 0.012633
v -0.105215 2.462670 0.017730
v -0.098730 2.244075 -0.007296
v -0.102696 2.274040 -0.006842
v -0.100802 2.259141 -0.013329
v -0.097693 2.237669 0.007723
v -0.103303 2.280046 0.008364
v -0.098300 2.243674 0.022929
v -0.102266 2.273640 0.023383
v -0.100194 2.258574 0.029416
v -0.106753 3.066968 -0.032668
v -0.109208 3.096956 -0.029747
v -0.108101 3.082559 -0.037439
v -0.105953 3.059315 -0.018229
v -0.109424 3.101726 -0.014099
v -0.106169 3.064085 -0.002581
v -0.108624 3.094074 0.000340
v -0.107276 3.078483 0.005111
v -0.064566 2.263944 -0.013781
v -0.062493 2.248878 -0.007748
v -0.098730 2.244075 -0.007296
v -0.100802 2.259141 -0.013329
v -0.102696 2.274040 -0.006842
v -0.066460 2.278844 -0.007294
v -0.067066 2.284850 0.007912
v -0.103303 2.280046 0.008364
v -0.102266 2.273640 0.023383
v -0.066029 2.278443 0.022930
v -0.100194 2.258574 0.029416
v -0.063957 2.263377 0.028963
v -0.062063 2.248477 0.022477
v -0.098300 2.243674 0.022929
v -0.097693 2.237669 0.007723
v -0.061457 2.242472 0.007270
v 0.024642 2.456091 -0.443658
v -0.004143 2.458467 -0.435959
v -0.004119 2.428129 -0.416697
v 0.024666 2.425753 -0.424396
v 0.037767 3.177918 -0.017267
v 0.067075 3.177918 -0.017267
v 0.067075 3.177325 -0.044841
v 0.037767 3.177325 -0.044841
v -0.068196 2.453393 -0.020217
v -0.104625 2.450371 -0.019800
v -0.069540 2.468882 -0.025314
v -0.105969 2.465860 -0.024896
v -0.107091 2.480414 -0.017508
v -0.070662 2.483436 -0.017925
v -0.070907 2.488530 -0.002380
v -0.107336 2.485508 -0.001963
v -0.106559 2.478158 0.012633
v -0.070130 2.481180 0.012216
v -0.105215 2.462670 0.017730
v -0.068786 2.465692 0.017313
v -0.067664 2.451138 0.009924
v -0.104093 2.448116 0.010342
v -0.103848 2.443021 -0.005204
v -0.067419 2.446043 -0.005621
v 0.040000 0.270435 0.040000
v 0.040000 0.270435 -0.040000
v 0.040000 2.084723 -0.016272
v 0.040000 2.085435 0.063725
v 0.047397 2.117183 0.061139
v 0.047363 2.113072 -0.018745
v 0.054114 2.148861 0.057335
v 0.054114 2.141358 -0.022313
v 0.040000 2.384549 0.035134
v 0.040000 2.377047 -0.044514
v 0.040000 3.075820 -0.057119
v 0.040000 3.077192 0.022834
v 0.028736 3.199651 0.019743
v 0.028736 3.199210 -0.060255
v -0.040000 0.270435 0.040001
v -0.040000 2.071566 -0.016155
v -0.040000 0.270435 -0.040000
v -0.040000 2.072278 0.063842
v -0.032536 2.110611 0.061319
v -0.032571 2.106500 -0.018566
v -0.025886 2.148861 0.057335
v -0.025886 2.141358 -0.022313
v -0.040000 2.384549 0.035134
v -0.040000 2.377047 -0.044514
v -0.040000 3.075820 -0.057119
v -0.040000 3.077192 0.022834
v -0.050717 3.190308 0.019795
v -0.050717 3.189866 -0.060204
v 0.027707 2.494752 -0.443781
v 0.024666 2.425753 -0.424396
v 0.024642 2.456091 -0.443658
v 0.027745 2.408153 -0.389414
v 0.042056 2.409702 -0.300597
v 0.045490 2.630420 -0.368661
v 0.060394 2.412826 -0.187511
v 0.060394 2.827730 -0.261455
v 0.067075 2.415308 -0.072021
v 0.051850 3.024346 -0.151932
v 0.067075 2.416331 -0.024430
v 0.067075 3.157502 -0.077759
v 0.067075 3.177918 -0.017267
v 0.067075 3.177325 -0.044841
v 0.067075 3.159528 0.016472
v 0.071214 2.418171 0.061244
v 0.051894 2.665470 0.324333
v 0.053114 2.422983 0.194490
v 0.049375 2.624817 0.349638
v 0.046341 2.423226 0.253588
v 0.034148 2.510087 0.412910
v 0.034891 2.422148 0.360744
v 0.029159 2.441594 0.393572
v 0.028846 2.472410 0.412057
v 0.037767 3.157502 -0.077759
v 0.037767 3.177918 -0.017267
v 0.037767 3.177325 -0.044841
v 0.037767 3.159528 0.016472
v 0.037767 2.416344 -0.023781
v 0.022541 3.025074 -0.151527
v 0.041906 2.418189 0.062042
v 0.037767 2.415318 -0.071522
v 0.022587 2.665279 0.323171
v 0.031085 2.826716 -0.262020
v 0.023802 2.423771 0.193851
v 0.031085 2.412806 -0.188445
v 0.020075 2.625026 0.346982
v 0.016070 2.628576 -0.368725
v 0.017009 2.425066 0.251619
v 0.012678 2.410560 -0.301495
v 0.006073 2.514205 0.405570
v -0.001345 2.495744 -0.438261
v 0.006817 2.426265 0.353403
v -0.001307 2.409143 -0.383894
v 0.001085 2.445711 0.386231
v 0.000771 2.476527 0.404716
v -0.004119 2.428129 -0.416697
v -0.004143 2.458467 -0.435959
v -0.263983 0.000000 0.223618
v 0.223616 0.000000 0.263983
v -0.223616 0.000000 0.263985
v 0.263983 -0.000000 -0.223615
v 0.263983 0.000000 0.223616
v -0.263983 -0.000000 -0.223618
v -0.223616 -0.000000 -0.263985
v 0.223616 -0.000000 -0.263983
v -0.133935 0.108920 -0.168940
v -0.160001 0.108920 -0.153629
v -0.143796 0.108920 -0.155886
v -0.165450 0.108920 -0.192749
v -0.173055 0.108920 -0.163491
v -0.175312 0.108920 -0.179695
v -0.136192 0.108920 -0.185144
v -0.149246 0.108920 -0.195006
v 0.205810 0.086202 -0.181477
v 0.182806 0.086202 -0.161863
v 0.198370 0.086202 -0.166906
v 0.170631 0.086202 -0.199438
v 0.168235 0.086202 -0.169303
v 0.163192 0.086202 -0.184867
v 0.200767 0.086202 -0.197041
v 0.186195 0.086202 -0.204481
v -0.150769 0.101721 0.191319
v -0.176170 0.101721 0.174927
v -0.166864 0.101721 0.188384
v -0.143683 0.101721 0.152462
v -0.137313 0.101721 0.182014
v -0.134378 0.101721 0.165919
v -0.173235 0.101721 0.158832
v -0.159778 0.101721 0.149527
v 0.173689 0.110771 0.157059
v 0.201795 0.110771 0.168192
v 0.190047 0.110771 0.156804
v 0.174304 0.110771 0.196552
v 0.202050 0.110771 0.184550
v 0.190663 0.110771 0.196298
v 0.162302 0.110771 0.168807
v 0.162557 0.110771 0.185166
v -0.055867 0.038841 -0.055867
v -0.223616 0.038841 -0.263985
v -0.263983 0.038841 -0.223618
v -0.263983 0.038841 0.223618
v 0.223616 0.038841 -0.263983
v -0.055867 0.038841 0.055868
v 0.055867 0.038841 -0.055867
v -0.223616 0.038841 0.263985
v 0.263983 0.038841 -0.223615
v 0.223616 0.038841 0.263983
v 0.055867 0.038841 0.055867
v 0.263983 0.038841 0.223616
v -0.117321 0.074214 -0.164622
v -0.127576 0.074214 -0.201775
v -0.154623 0.074214 -0.174317
v -0.144369 0.074214 -0.137165
v -0.164878 0.074214 -0.211470
v -0.181671 0.074214 -0.146860
v -0.191926 0.074214 -0.184013
v 0.222921 0.074214 -0.180117
v 0.206357 0.074214 -0.214917
v 0.184501 0.074214 -0.183172
v 0.201065 0.074214 -0.148372
v 0.167936 0.074214 -0.217973
v 0.162645 0.074214 -0.151427
v 0.146080 0.074214 -0.186227
v -0.122890 0.074214 0.191322
v -0.120983 0.074214 0.152827
v -0.155274 0.074214 0.170423
v -0.157180 0.074214 0.208917
v -0.153367 0.074214 0.131929
v -0.189564 0.074214 0.188019
v -0.187658 0.074214 0.149525
v 0.217550 0.074214 0.161376
v 0.186610 0.074214 0.138393
v 0.182176 0.074214 0.176679
v 0.213115 0.074214 0.199662
v 0.151237 0.074214 0.153695
v 0.177741 0.074214 0.214964
v 0.146802 0.074214 0.191981
v -0.071866 2.496403 -0.029108
v -0.069005 2.460151 -0.041876
v -0.069163 2.467286 -0.004001
v -0.072024 2.503539 0.008767
v -0.066302 2.431034 -0.016769
v -0.069321 2.474422 0.033874
v -0.066460 2.438169 0.021106
v -0.068225 2.291036 -0.019248
v -0.063483 2.254266 -0.029780
v -0.064261 2.263660 0.007591
v -0.069004 2.300431 0.018123
v -0.059519 2.226890 -0.002941
v -0.065040 2.273055 0.044962
v -0.060297 2.236285 0.034430
v -0.074389 3.121777 -0.012858
v -0.073469 3.105842 -0.047940
v -0.071260 3.083543 -0.016581
v -0.072179 3.099478 0.018500
v -0.070340 3.067609 -0.051663
v -0.069050 3.061244 0.014777
v -0.068131 3.045310 -0.020305
vn -0.1168 0.9931 -0.0055
vn -0.0000 1.0000 -0.0000
vn -0.0000 -0.0000 1.0000
vn 1.0000 -0.0000 -0.0000
vn -0.0000 -0.0000 -1.0000
vn -1.0000 -0.0000 -0.0000
vn 0.7071 -0.0000 0.7071
vn -0.7071 -0.0000 0.7071
vn 0.7071 -0.0000 -0.7071
vn -0.7071 -0.0000 -0.7071
vn 0.9640 -0.0000 -0.2661
vn 0.2515 -0.0000 -0.9678
vn -0.7124 -0.0000 -0.7018
vn -0.9640 -0.0000 0.2661
vn -0.2515 -0.0000 0.9678
vn 0.7124 -0.0000 0.7018
vn 0.9029 -0.0000 -0.4298
vn 0.0793 -0.0000 -0.9969
vn -0.8237 -0.0000 -0.5671
vn -0.9029 -0.0000 0.4298
vn -0.0793 -0.0000 0.9969
vn 0.8237 -0.0000 0.5671
vn 0.9988 -0.0000 0.0495
vn 0.5422 -0.0000 -0.8402
vn -0.4565 -0.0000 -0.8897
vn -0.9988 -0.0000 -0.0495
vn -0.5422 -0.0000 0.8402
vn 0.4565 -0.0000 0.8897
vn 0.5963 -0.0000 -0.8028
vn -0.3970 -0.0000 -0.9178
vn -0.9934 -0.0000 -0.1151
vn -0.5963 -0.0000 0.8027
vn 0.3970 -0.0000 0.9178
vn 0.9934 -0.0000 0.1151
vn -0.0019 0.1192 0.9929
vn 0.0019 -0.1192 -0.9929
vn 0.0605 -0.7215 0.6898
vn -0.0628 0.8642 0.4992
vn 0.0628 -0.8642 -0.4992
vn -0.0606 0.7215 -0.6897
vn -0.0605 0.7215 -0.6897
vn -0.0605 0.7215 -0.6898
vn -0.0381 0.3293 -0.9435
vn 0.0452 -0.6499 -0.7586
vn 0.0452 -0.6500 -0.7586
vn 0.0834 -0.9792 0.1848
vn 0.0833 -0.9792 0.1848
vn 0.0381 -0.3293 0.9435
vn -0.0452 0.6500 0.7586
vn -0.0452 0.6499 0.7586
vn -0.0834 0.9792 -0.1848
vn -0.0833 0.9792 -0.1849
vn -0.0477 0.2693 -0.9619
vn 0.0827 -0.6915 -0.7176
vn 0.1304 -0.9609 0.2443
vn 0.0477 -0.2693 0.9619
vn -0.0827 0.6915 0.7176
vn -0.1304 0.9609 -0.2443
vn -0.0800 0.9068 -0.4140
vn -0.0193 0.0953 -0.9953
vn 0.0606 -0.8114 -0.5813
vn 0.0800 -0.9068 0.4140
vn 0.0193 -0.0953 0.9953
vn -0.0606 0.8114 0.5813
vn 0.2516 -0.0000 -0.9678
vn -0.5065 -0.0000 -0.8623
vn -0.9678 -0.0000 -0.2516
vn -0.8623 -0.0000 0.5065
vn -0.2516 -0.0000 0.9678
vn 0.5065 -0.0000 0.8622
vn 0.9678 -0.0000 0.2515
vn 0.8623 -0.0000 -0.5065
vn -0.6488 -0.0000 -0.7609
vn -0.9969 -0.0000 -0.0793
vn -0.7609 -0.0000 0.6488
vn 0.6488 -0.0000 0.7609
vn 0.9969 -0.0000 0.0793
vn 0.7609 -0.0000 -0.6488
vn -0.2107 -0.0000 -0.9775
vn -0.8402 -0.0000 -0.5422
vn -0.9775 -0.0000 0.2107
vn 0.2107 -0.0000 0.9775
vn 0.8402 -0.0000 0.5422
vn 0.9775 -0.0000 -0.2107
vn -0.9297 -0.0000 -0.3682
vn -0.9178 -0.0000 0.3970
vn -0.3683 -0.0000 0.9297
vn 0.9297 -0.0000 0.3682
vn 0.9178 -0.0000 -0.3970
vn 0.3682 -0.0000 -0.9297
vn -0.0193 0.0954 -0.9953
vn 0.0438 -0.6340 -0.7721
vn 0.0812 -0.9920 -0.0966
vn 0.0812 -0.9920 -0.0967
vn 0.0711 -0.7689 0.6354
vn -0.0437 0.6340 0.7721
vn -0.0812 0.9920 0.0966
vn -0.0711 0.7689 -0.6354
vn -0.0711 0.7689 -0.6355
vn -0.2791 -0.2497 0.9272
vn -0.2060 0.2434 0.9478
vn -0.2079 0.2625 0.9423
vn -0.2754 -0.6964 0.6627
vn -0.2754 -0.6963 0.6628
vn -0.2018 -0.9499 0.2388
vn -0.1898 -0.9575 0.2171
vn 0.0001 -0.0132 0.9999
vn -0.0019 0.0202 0.9998
vn -0.0000 -0.0132 0.9999
vn -0.0019 0.0403 0.9992
vn -0.0076 0.0850 0.9964
vn -0.0028 0.1020 0.9948
vn -0.0025 0.1012 0.9949
vn -0.0000 0.1059 0.9944
vn -0.0000 0.0565 0.9984
vn -0.0000 0.0551 0.9985
vn -0.0005 0.0219 0.9998
vn -0.0000 0.0214 0.9998
vn -0.0015 0.0261 0.9997
vn -0.0025 0.0266 0.9996
vn 0.0021 -0.0213 -0.9998
vn -0.0001 0.0132 -0.9999
vn -0.0000 0.0132 -0.9999
vn 0.0021 -0.0439 -0.9990
vn 0.0081 -0.0883 -0.9961
vn 0.0030 -0.1081 -0.9941
vn 0.0027 -0.1031 -0.9947
vn -0.0000 -0.1085 -0.9941
vn -0.0000 -0.0567 -0.9984
vn -0.0000 -0.0552 -0.9985
vn 0.0005 -0.0221 -0.9998
vn -0.0000 -0.0216 -0.9998
vn 0.0015 -0.0263 -0.9997
vn 0.0025 -0.0268 -0.9996
vn 0.0770 -0.9899 0.1190
vn -0.0770 0.9899 -0.1190
vn -0.9956 -0.0828 -0.0449
vn -0.9950 -0.0840 -0.0548
vn -0.9963 -0.0809 -0.0283
vn -0.9968 -0.0787 -0.0101
vn -0.9970 -0.0774 0.0014
vn -0.9970 -0.0768 0.0061
vn -0.9970 -0.0767 0.0073
vn 0.9956 0.0828 0.0449
vn 0.9950 0.0840 0.0548
vn 0.9963 0.0809 0.0283
vn 0.9968 0.0788 0.0101
vn 0.9970 0.0774 -0.0014
vn 0.9970 0.0768 -0.0061
vn 0.9970 0.0767 -0.0073
vn -0.1898 0.2357 -0.9531
vn -0.0356 0.4813 -0.8758
vn -0.1648 0.2540 -0.9531
vn -0.0270 0.4809 -0.8764
vn -0.0009 0.4818 -0.8763
vn 0.0002 0.4822 -0.8761
vn -0.0000 0.4866 -0.8736
vn -0.0000 0.6891 -0.7246
vn -0.0000 0.7013 -0.7129
vn -0.0006 0.7259 0.6878
vn -0.0365 0.5287 0.8480
vn -0.0000 0.7289 0.6846
vn -0.0436 0.5255 0.8497
vn -0.0679 0.5039 0.8611
vn -0.0802 0.4993 0.8627
vn -0.0299 -0.9993 0.0233
vn -0.0776 -0.9690 -0.2345
vn -0.0951 -0.9669 -0.2368
vn -0.0275 -0.9993 0.0239
vn -0.0025 -0.9997 0.0246
vn -0.0001 -0.9997 0.0243
vn -0.0000 -0.9998 0.0215
vn -0.0017 -0.9996 0.0293
vn 0.0002 -0.9996 0.0285
vn -0.0254 -0.9995 0.0208
vn -0.0329 -0.9992 0.0206
vn -0.0644 -0.9979 0.0056
vn -0.0633 -0.9979 0.0100
vn -0.9965 -0.0827 0.0114
vn -0.9965 -0.0827 0.0115
vn -0.9965 -0.0827 0.0112
vn -0.9913 -0.1314 0.0124
vn -0.9913 -0.1314 0.0123
vn -0.0142 0.0133 -0.9998
vn -0.1028 0.7103 -0.6964
vn -0.1029 0.7103 -0.6963
vn -0.1312 0.9912 0.0150
vn 0.0142 -0.0133 0.9998
vn 0.0143 -0.0132 0.9998
vn 0.1028 -0.7103 0.6964
vn 0.1028 -0.7103 0.6963
vn 0.1312 -0.9912 -0.0150
vn -0.2537 -0.2718 -0.9283
vn -0.2695 -0.2940 -0.9170
vn -0.2154 -0.7323 -0.6460
vn -0.2350 -0.7159 -0.6575
vn -0.0000 0.9716 0.2365
vn -0.0000 0.9606 -0.2781
vn -0.0176 0.0746 -0.9971
vn -0.0701 0.7555 -0.6514
vn -0.0816 0.9938 0.0758
vn 0.0176 -0.0746 0.9971
vn 0.0701 -0.7555 0.6514
vn 0.0816 -0.9938 -0.0758
vn 0.9921 -0.1253 0.0051
vn 0.9937 -0.1123 0.0010
vn 0.9756 -0.2196 0.0072
vn 0.9715 -0.2367 0.0158
vn 0.9970 -0.0779 0.0037
vn 0.9964 -0.0846 0.0080
vn 0.9996 0.0289 -0.0027
vn 0.9995 0.0304 -0.0029
vn 0.9989 0.0458 -0.0006
vn 0.9990 0.0457 -0.0008
vn 0.9958 0.0911 -0.0009
vn 0.9959 0.0909 -0.0005
vn -0.9947 0.1030 -0.0040
vn -0.9955 0.0949 -0.0008
vn -0.9831 0.1832 -0.0061
vn -0.9809 0.1944 -0.0126
vn -0.9983 0.0585 -0.0027
vn -0.9980 0.0636 -0.0060
vn -0.9996 -0.0289 0.0027
vn -0.9995 -0.0304 0.0029
vn -0.9989 -0.0472 0.0006
vn -0.9989 -0.0470 0.0008
vn -0.9956 -0.0938 0.0009
vn -0.9956 -0.0935 0.0005
vn 0.9884 -0.0688 -0.1356
vn 0.9888 -0.0792 -0.1267
vn 0.9890 -0.0788 -0.1254
vn 0.9841 -0.0941 -0.1505
vn 0.9861 -0.0682 -0.1518
vn 0.9924 -0.0340 -0.1183
vn 0.9952 -0.0271 -0.0942
vn 0.9998 0.0152 -0.0083
vn 0.9997 0.0123 -0.0190
vn 0.9911 -0.0035 -0.1331
vn 0.9995 0.0117 -0.0310
vn 0.9992 -0.0029 -0.0401
vn 0.9999 0.0019 0.0101
vn 0.9996 -0.0118 0.0259
vn 0.9975 -0.0105 0.0698
vn 0.9898 -0.0663 0.1261
vn 0.9960 -0.0422 0.0788
vn 0.9914 -0.0667 0.1124
vn 0.9869 -0.0806 0.1398
vn 0.9883 -0.0715 0.1346
vn 0.9579 -0.1405 0.2505
vn 0.9579 -0.1405 0.2504
vn -0.9992 0.0029 0.0403
vn -0.9999 -0.0019 -0.0101
vn -0.9995 -0.0117 0.0310
vn -0.9910 0.0037 0.1337
vn -0.9996 0.0120 -0.0264
vn -0.9997 -0.0123 0.0187
vn -0.9974 0.0107 -0.0708
vn -0.9998 -0.0151 0.0088
vn -0.9893 0.0678 -0.1288
vn -0.9952 0.0270 0.0941
vn -0.9960 0.0422 -0.0787
vn -0.9922 0.0344 0.1202
vn -0.9913 0.0674 -0.1135
vn -0.9854 0.0699 0.1552
vn -0.9875 0.0791 -0.1363
vn -0.9875 0.0706 0.1411
vn -0.9891 0.0688 -0.1300
vn -0.9823 0.0992 0.1587
vn -0.9579 0.1405 -0.2505
vn -0.9579 0.1405 -0.2504
vn -0.9877 0.0828 0.1324
vn -0.9880 0.0822 0.1307
vn -0.0000 -1.0000 -0.0000
vt 0.291158 0.001499
vt 0.360184 0.036053
vt 0.291158 0.036053
vt 0.360184 0.001499
vt 0.888672 0.149530
vt 0.957697 0.184084
vt 0.888672 0.184084
vt 0.957697 0.149530
vt 0.980338 0.001499
vt 0.912583 0.073291
vt 0.912583 0.001499
vt 0.980338 0.073291
vt 0.912582 0.077515
vt 0.984374 0.145271
vt 0.912582 0.145271
vt 0.984374 0.077515
vt 0.813879 0.121525
vt 0.885671 0.189280
vt 0.813879 0.189280
vt 0.885671 0.121525
vt 0.246317 0.211284
vt 0.318109 0.143529
vt 0.318109 0.211284
vt 0.246317 0.143529
vt 0.500761 0.301566
vt 0.738863 0.311822
vt 0.500761 0.311822
vt 0.738863 0.301566
vt 0.001505 0.295565
vt 0.239607 0.305821
vt 0.001505 0.305821
vt 0.239607 0.295565
vt 0.001505 0.309568
vt 0.239607 0.319824
vt 0.001505 0.319824
vt 0.239607 0.309568
vt 0.500761 0.315569
vt 0.738863 0.325825
vt 0.500761 0.325825
vt 0.738863 0.315569
vt 0.089972 0.001503
vt 0.111532 0.011759
vt 0.089972 0.011759
vt 0.111532 0.001503
vt 0.983341 0.049063
vt 0.993597 0.027504
vt 0.993597 0.049063
vt 0.983341 0.027504
vt 0.983341 0.023058
vt 0.993597 0.001498
vt 0.993597 0.023058
vt 0.983341 0.001498
vt 0.363191 0.023058
vt 0.373447 0.001498
vt 0.373447 0.023058
vt 0.363191 0.001498
vt 0.723897 0.329572
vt 0.723897 0.345689
vt 0.694594 0.345689
vt 0.694594 0.329572
vt 0.716527 0.541614
vt 0.716527 0.557730
vt 0.687223 0.557730
vt 0.687223 0.541614
vt 0.813447 0.541610
vt 0.813447 0.557726
vt 0.784144 0.557726
vt 0.784144 0.541610
vt 0.182356 0.171539
vt 0.182356 0.187655
vt 0.153053 0.187655
vt 0.153053 0.171539
vt 0.714862 0.561622
vt 0.714862 0.577494
vt 0.685559 0.577494
vt 0.685559 0.561622
vt 0.649623 0.561614
vt 0.649623 0.577486
vt 0.620320 0.577486
vt 0.620320 0.561614
vt 0.233020 0.323571
vt 0.233020 0.339687
vt 0.203717 0.339687
vt 0.203717 0.323571
vt 0.910367 0.521609
vt 0.910367 0.537726
vt 0.881064 0.537726
vt 0.881064 0.521609
vt 0.878060 0.521605
vt 0.878060 0.537722
vt 0.848757 0.537722
vt 0.848757 0.521605
vt 0.289054 0.243555
vt 0.305170 0.243555
vt 0.305170 0.272858
vt 0.289054 0.272858
vt 0.617316 0.561622
vt 0.617316 0.577494
vt 0.588013 0.577494
vt 0.588013 0.561622
vt 0.974981 0.541610
vt 0.974981 0.557482
vt 0.945678 0.557482
vt 0.945678 0.541610
vt 0.530057 0.329572
vt 0.530057 0.345689
vt 0.500753 0.345689
vt 0.500753 0.329572
vt 0.974981 0.521609
vt 0.974981 0.537726
vt 0.945678 0.537726
vt 0.945678 0.521609
vt 0.845754 0.521605
vt 0.845754 0.537722
vt 0.816451 0.537722
vt 0.816451 0.521605
vt 0.994706 0.333573
vt 0.994706 0.349689
vt 0.965403 0.349689
vt 0.965403 0.333573
vt 0.682555 0.555620
vt 0.682555 0.571493
vt 0.653252 0.571493
vt 0.653252 0.555620
vt 0.536829 0.561622
vt 0.552701 0.561622
vt 0.552701 0.590925
vt 0.536829 0.590925
vt 0.880630 0.333573
vt 0.880630 0.349689
vt 0.851327 0.349689
vt 0.851327 0.333573
vt 0.748833 0.521609
vt 0.748833 0.537726
vt 0.719530 0.537726
vt 0.719530 0.521609
vt 0.668107 0.521613
vt 0.684223 0.521613
vt 0.684223 0.550917
vt 0.668107 0.550917
vt 0.756204 0.333573
vt 0.756204 0.349689
vt 0.726901 0.349689
vt 0.726901 0.333573
vt 0.942674 0.541618
vt 0.942674 0.557490
vt 0.913371 0.557490
vt 0.913371 0.541618
vt 0.878060 0.541610
vt 0.878060 0.557482
vt 0.848757 0.557482
vt 0.848757 0.541610
vt 0.653663 0.292839
vt 0.833511 0.275560
vt 0.833511 0.292839
vt 0.653663 0.275560
vt 0.993294 0.149534
vt 0.976015 0.329259
vt 0.976015 0.149534
vt 0.993294 0.329259
vt 0.418125 0.001501
vt 0.435405 0.033856
vt 0.418125 0.033856
vt 0.435405 0.001501
vt 0.264321 0.059739
vt 0.281601 0.027505
vt 0.281601 0.059739
vt 0.264321 0.027505
vt 0.771777 0.068792
vt 0.771777 0.051513
vt 0.804011 0.068792
vt 0.804011 0.051513
vt 0.338396 0.153755
vt 0.321116 0.153755
vt 0.338396 0.121522
vt 0.321116 0.121522
vt 0.814795 0.349689
vt 0.785492 0.333573
vt 0.814795 0.333573
vt 0.785492 0.349689
vt 0.847102 0.353687
vt 0.817798 0.353687
vt 0.847102 0.337571
vt 0.817798 0.337571
vt 0.784144 0.521605
vt 0.813447 0.537722
vt 0.784144 0.537722
vt 0.813447 0.521605
vt 0.626977 0.329572
vt 0.597674 0.345689
vt 0.597674 0.329572
vt 0.626977 0.345689
vt 0.555706 0.561622
vt 0.585009 0.577494
vt 0.555706 0.577494
vt 0.585009 0.561622
vt 0.748833 0.541610
vt 0.719530 0.557482
vt 0.719530 0.541610
vt 0.748833 0.557482
vt 0.691590 0.345689
vt 0.662287 0.329572
vt 0.691590 0.329572
vt 0.662287 0.345689
vt 0.939221 0.351687
vt 0.909918 0.351687
vt 0.939221 0.335570
vt 0.909918 0.335570
vt 0.751837 0.521605
vt 0.781140 0.537722
vt 0.751837 0.537722
vt 0.781140 0.521605
vt 0.562363 0.329572
vt 0.533060 0.345689
vt 0.533060 0.329572
vt 0.562363 0.345689
vt 0.977989 0.550917
vt 0.993862 0.521613
vt 0.993862 0.550917
vt 0.977989 0.521613
vt 0.910367 0.541610
vt 0.881064 0.557482
vt 0.881064 0.541610
vt 0.910367 0.557482
vt 0.594670 0.329572
vt 0.565367 0.345689
vt 0.565367 0.329572
vt 0.594670 0.345689
vt 0.942674 0.537726
vt 0.913371 0.521609
vt 0.942674 0.521609
vt 0.913371 0.537726
vt 0.716527 0.521605
vt 0.687223 0.537722
vt 0.687223 0.521605
vt 0.716527 0.537722
vt 0.629981 0.329572
vt 0.659284 0.345689
vt 0.629981 0.345689
vt 0.659284 0.329572
vt 0.845754 0.541618
vt 0.816451 0.557490
vt 0.816451 0.541618
vt 0.845754 0.557490
vt 0.751837 0.541610
vt 0.781140 0.557482
vt 0.751837 0.557482
vt 0.781140 0.541610
vt 0.155586 0.269553
vt 0.155586 0.290797
vt 0.136294 0.269553
vt 0.136294 0.290797
vt 0.117247 0.269553
vt 0.117247 0.290797
vt 0.097956 0.269553
vt 0.097956 0.290797
vt 0.078664 0.269553
vt 0.078664 0.290797
vt 0.059373 0.269553
vt 0.059373 0.290797
vt 0.040082 0.269553
vt 0.040082 0.290797
vt 0.020791 0.269553
vt 0.020791 0.290797
vt 0.001500 0.269553
vt 0.001500 0.290797
vt 0.155586 0.243547
vt 0.155586 0.264792
vt 0.136294 0.243547
vt 0.136294 0.264792
vt 0.117247 0.243547
vt 0.117247 0.264792
vt 0.097956 0.243547
vt 0.097956 0.264792
vt 0.078664 0.243547
vt 0.078664 0.264792
vt 0.059373 0.243547
vt 0.059373 0.264792
vt 0.040082 0.243547
vt 0.040082 0.264792
vt 0.020791 0.243547
vt 0.020791 0.264792
vt 0.001500 0.243547
vt 0.001500 0.264792
vt 0.312669 0.217542
vt 0.312669 0.238786
vt 0.293377 0.217542
vt 0.293377 0.238786
vt 0.274330 0.217542
vt 0.274330 0.238786
vt 0.255039 0.217542
vt 0.255039 0.238786
vt 0.235748 0.217542
vt 0.235748 0.238786
vt 0.216457 0.217542
vt 0.216457 0.238786
vt 0.197165 0.217542
vt 0.197165 0.238786
vt 0.177874 0.217542
vt 0.177874 0.238786
vt 0.158583 0.217542
vt 0.158583 0.238786
vt 0.973015 0.219542
vt 0.973015 0.240787
vt 0.953723 0.219542
vt 0.953723 0.240787
vt 0.934676 0.219542
vt 0.934676 0.240787
vt 0.915385 0.219542
vt 0.915385 0.240787
vt 0.896094 0.219542
vt 0.896094 0.240787
vt 0.876803 0.219542
vt 0.876803 0.240787
vt 0.857512 0.219542
vt 0.857512 0.240787
vt 0.838221 0.219542
vt 0.838221 0.240787
vt 0.818930 0.219542
vt 0.818930 0.240787
vt 0.155586 0.217542
vt 0.155586 0.238786
vt 0.136294 0.217542
vt 0.136294 0.238786
vt 0.117247 0.217542
vt 0.117247 0.238786
vt 0.097956 0.238786
vt 0.097956 0.217542
vt 0.078664 0.217542
vt 0.078664 0.238786
vt 0.059373 0.238786
vt 0.059373 0.217542
vt 0.040082 0.238786
vt 0.040082 0.217542
vt 0.020791 0.217542
vt 0.020791 0.238786
vt 0.001500 0.238786
vt 0.001500 0.217542
vt 0.915634 0.292839
vt 0.954216 0.275560
vt 0.954216 0.292839
vt 0.915634 0.275560
vt 0.876563 0.292839
vt 0.876563 0.275560
vt 0.836515 0.275560
vt 0.836515 0.292839
vt 0.998496 0.518598
vt 0.381289 0.481603
vt 0.998496 0.481603
vt 0.377026 0.518598
vt 0.361749 0.481603
vt 0.367078 0.518598
vt 0.356064 0.481603
vt 0.356064 0.518598
vt 0.275060 0.518598
vt 0.275060 0.481603
vt 0.037735 0.481603
vt 0.037735 0.518598
vt 0.001496 0.518598
vt 0.001496 0.481603
vt 0.381289 0.478589
vt 0.998496 0.441594
vt 0.998496 0.478589
vt 0.377026 0.441594
vt 0.361749 0.478589
vt 0.367433 0.441594
vt 0.356064 0.478589
vt 0.356064 0.441594
vt 0.275060 0.441594
vt 0.275060 0.478589
vt 0.037735 0.478589
vt 0.037735 0.441594
vt 0.001496 0.441594
vt 0.001496 0.478589
vt 0.400995 0.560896
vt 0.533835 0.543616
vt 0.533835 0.560896
vt 0.400995 0.543616
vt 0.267178 0.560896
vt 0.267178 0.543616
vt 0.134337 0.560896
vt 0.134337 0.543616
vt 0.001497 0.560896
vt 0.001497 0.543616
vt 0.400758 0.521611
vt 0.534086 0.521611
vt 0.534086 0.538891
vt 0.400758 0.538891
vt 0.267673 0.521611
vt 0.267673 0.538891
vt 0.134344 0.521611
vt 0.134344 0.538891
vt 0.001504 0.521611
vt 0.001504 0.538891
vt 0.782292 0.184036
vt 0.797432 0.178663
vt 0.797432 0.126895
vt 0.782292 0.121522
vt 0.706104 0.184036
vt 0.706104 0.121522
vt 0.629428 0.184036
vt 0.629428 0.121522
vt 0.553240 0.184036
vt 0.553240 0.121522
vt 0.477052 0.184036
vt 0.477052 0.121522
vt 0.461911 0.178663
vt 0.461911 0.126895
vt 0.800785 0.250049
vt 0.815926 0.192908
vt 0.815926 0.244677
vt 0.800785 0.187536
vt 0.724598 0.250049
vt 0.724598 0.187536
vt 0.647921 0.250049
vt 0.647921 0.187536
vt 0.571733 0.250049
vt 0.571733 0.187536
vt 0.495545 0.250049
vt 0.495545 0.187536
vt 0.480405 0.244677
vt 0.480405 0.192908
vt 0.001504 0.604905
vt 0.107973 0.604905
vt 0.001504 0.587625
vt 0.107973 0.587625
vt 0.264255 0.604905
vt 0.264255 0.587625
vt 0.420538 0.587625
vt 0.420538 0.604905
vt 0.525540 0.604905
vt 0.525540 0.587625
vt 0.001496 0.582900
vt 0.396111 0.565621
vt 0.001496 0.565621
vt 0.396111 0.582900
vt 0.428344 0.565621
vt 0.428344 0.582900
vt 0.518695 0.565621
vt 0.518695 0.582900
vt 0.909767 0.270835
vt 0.965366 0.270835
vt 0.965366 0.253555
vt 0.909767 0.253555
vt 0.836570 0.270835
vt 0.836570 0.253555
vt 0.763313 0.270835
vt 0.763313 0.253555
vt 0.733277 0.253555
vt 0.733277 0.270835
vt 0.679188 0.270835
vt 0.679188 0.253555
vt 0.595431 0.253555
vt 0.595431 0.270835
vt 0.558069 0.253555
vt 0.558069 0.270835
vt 0.488718 0.270835
vt 0.488718 0.253555
vt 0.152102 0.330543
vt 0.173898 0.347525
vt 0.157594 0.340583
vt 0.160941 0.323572
vt 0.191856 0.347325
vt 0.178612 0.323565
vt 0.200501 0.340067
vt 0.195203 0.330314
vt 0.190017 0.170290
vt 0.216625 0.177733
vt 0.198667 0.177544
vt 0.195263 0.160295
vt 0.232925 0.170783
vt 0.211850 0.153536
vt 0.238410 0.160740
vt 0.229521 0.153534
vt 0.955133 0.303454
vt 0.938408 0.306984
vt 0.945496 0.298001
vt 0.962536 0.319611
vt 0.938405 0.324704
vt 0.962344 0.337620
vt 0.945619 0.341150
vt 0.955683 0.346264
vt 0.838221 0.214781
vt 0.818930 0.214781
vt 0.818930 0.193537
vt 0.838221 0.193537
vt 0.857512 0.193537
vt 0.857512 0.214781
vt 0.876803 0.214781
vt 0.876803 0.193537
vt 0.896094 0.193537
vt 0.896094 0.214781
vt 0.915385 0.193537
vt 0.915385 0.214781
vt 0.934676 0.214781
vt 0.934676 0.193537
vt 0.953723 0.193537
vt 0.953723 0.214781
vt 0.973015 0.214781
vt 0.973015 0.193537
vt 0.240632 0.282837
vt 0.286051 0.265558
vt 0.286051 0.282837
vt 0.240632 0.265558
vt 0.203515 0.265558
vt 0.203515 0.282837
vt 0.158583 0.282837
vt 0.158583 0.265558
vt 0.240632 0.243553
vt 0.286051 0.243553
vt 0.286051 0.260833
vt 0.240632 0.260833
vt 0.203515 0.260833
vt 0.203515 0.243553
vt 0.158583 0.243553
vt 0.158583 0.260833
vt 0.134079 0.022741
vt 0.134079 0.001496
vt 0.153370 0.022741
vt 0.153370 0.001496
vt 0.172661 0.001496
vt 0.172661 0.022741
vt 0.191952 0.022741
vt 0.191952 0.001496
vt 0.211243 0.001496
vt 0.211243 0.022741
vt 0.230535 0.001496
vt 0.230535 0.022741
vt 0.249826 0.022741
vt 0.249826 0.001496
vt 0.268873 0.001496
vt 0.268873 0.022741
vt 0.288165 0.022741
vt 0.288165 0.001496
vt 0.998318 0.399585
vt 0.998318 0.436793
vt 0.376670 0.436793
vt 0.376670 0.399585
vt 0.367078 0.399585
vt 0.367078 0.436793
vt 0.356064 0.399585
vt 0.356064 0.436793
vt 0.275060 0.399585
vt 0.275060 0.436793
vt 0.037735 0.436793
vt 0.037735 0.399585
vt 0.001496 0.399585
vt 0.001496 0.436793
vt 0.998318 0.394785
vt 0.381289 0.357576
vt 0.998318 0.357576
vt 0.381289 0.394785
vt 0.361038 0.394785
vt 0.361038 0.357576
vt 0.356064 0.394785
vt 0.356064 0.357576
vt 0.275060 0.394785
vt 0.275060 0.357576
vt 0.037735 0.357576
vt 0.037735 0.394785
vt 0.001496 0.394785
vt 0.001496 0.357576
vt 0.042831 0.001498
vt 0.010438 0.006056
vt 0.024884 0.001588
vt 0.001548 0.013914
vt 0.002826 0.034420
vt 0.106253 0.018275
vt 0.006483 0.060775
vt 0.197893 0.043702
vt 0.006615 0.087148
vt 0.289478 0.070595
vt 0.006671 0.098380
vt 0.344995 0.087412
vt 0.356295 0.101030
vt 0.356263 0.094681
vt 0.345109 0.110365
vt 0.006769 0.117915
vt 0.116032 0.179151
vt 0.004542 0.148695
vt 0.096889 0.184375
vt 0.003670 0.162130
vt 0.042359 0.200032
vt 0.001554 0.187781
vt 0.010245 0.196773
vt 0.024869 0.200363
vt 0.407205 0.010289
vt 0.393042 0.001496
vt 0.399392 0.001497
vt 0.385716 0.010286
vt 0.398367 0.353133
vt 0.425268 0.064990
vt 0.378831 0.353130
vt 0.409112 0.353134
vt 0.318287 0.241771
vt 0.452361 0.154857
vt 0.349040 0.352150
vt 0.436950 0.353138
vt 0.312912 0.261305
vt 0.479452 0.251561
vt 0.335365 0.352148
vt 0.464787 0.353142
vt 0.297765 0.313072
vt 0.497759 0.312122
vt 0.309970 0.353121
vt 0.485299 0.353145
vt 0.302156 0.345306
vt 0.297762 0.331631
vt 0.493359 0.344355
vt 0.497757 0.329705
vt 0.459400 0.001502
vt 0.441574 0.108947
vt 0.441574 0.010293
vt 0.656417 0.117738
vt 0.459400 0.117738
vt 0.656417 0.001502
vt 0.674201 0.010293
vt 0.674201 0.108947
vt 0.023996 0.347777
vt 0.050556 0.340570
vt 0.041668 0.347777
vt 0.010762 0.324010
vt 0.045023 0.330768
vt 0.028769 0.323580
vt 0.007407 0.341020
vt 0.001921 0.330978
vt 0.126897 0.347528
vt 0.148732 0.330777
vt 0.143199 0.340580
vt 0.105584 0.330327
vt 0.139844 0.323570
vt 0.122172 0.323571
vt 0.108939 0.347337
vt 0.100337 0.340322
vt 0.252594 0.051515
vt 0.255996 0.034266
vt 0.261243 0.044261
vt 0.212848 0.034716
vt 0.234636 0.051707
vt 0.218334 0.044758
vt 0.239408 0.027509
vt 0.221737 0.027509
vt 0.053591 0.340323
vt 0.080150 0.347529
vt 0.062192 0.347338
vt 0.093097 0.323571
vt 0.096451 0.340581
vt 0.101985 0.330778
vt 0.058837 0.330328
vt 0.075425 0.323571
vt 0.768776 0.047411
vt 0.677204 0.010293
vt 0.695031 0.001502
vt 0.891819 0.001502
vt 0.677204 0.108947
vt 0.817981 0.047411
vt 0.768776 0.071830
vt 0.909584 0.010293
vt 0.695031 0.117738
vt 0.909584 0.108947
vt 0.817981 0.071830
vt 0.891819 0.117738
vt 0.537083 0.530705
vt 0.568339 0.521670
vt 0.568339 0.539741
vt 0.537083 0.548776
vt 0.599596 0.530705
vt 0.568339 0.557810
vt 0.599596 0.548776
vt 0.602597 0.530705
vt 0.633853 0.521670
vt 0.633853 0.539741
vt 0.602597 0.548776
vt 0.665110 0.530705
vt 0.633365 0.557810
vt 0.665110 0.548776
vt 0.872895 0.306658
vt 0.904152 0.297623
vt 0.904152 0.315694
vt 0.872895 0.324728
vt 0.935408 0.306658
vt 0.904152 0.333763
vt 0.935408 0.324728
vt 0.251496 0.350073
vt 0.242461 0.318817
vt 0.260531 0.318817
vt 0.269566 0.350073
vt 0.251496 0.287560
vt 0.278601 0.318817
vt 0.269566 0.287560
vt 0.838638 0.297623
vt 0.869894 0.306658
vt 0.838638 0.315694
vt 0.807381 0.306658
vt 0.869894 0.324728
vt 0.807381 0.324728
vt 0.838638 0.333763
vt 0.318043 0.039569
vt 0.349299 0.048604
vt 0.318043 0.057639
vt 0.286786 0.048604
vt 0.349299 0.066674
vt 0.286786 0.066674
vt 0.318043 0.075709
vt 0.773124 0.297623
vt 0.804380 0.306658
vt 0.773124 0.315694
vt 0.741867 0.306658
vt 0.804380 0.324728
vt 0.741867 0.324728
vt 0.772635 0.333763
s 1
usemtl MI_Traffic_Set.001
f 1/1/1 2/2/1 3/3/1
f 2/2/1 1/1/1 4/4/1
f 5/5/2 6/6/2 7/7/2
f 6/6/2 5/5/2 8/8/2
f 9/9/3 10/10/3 11/11/3
f 10/10/3 9/9/3 12/12/3
f 13/13/4 14/14/4 15/15/4
f 14/14/4 13/13/4 16/16/4
f 17/17/5 18/18/5 19/19/5
f 18/18/5 17/17/5 20/20/5
f 21/21/6 22/22/6 23/23/6
f 22/22/6 21/21/6 24/24/6
f 25/25/3 26/26/3 27/27/3
f 26/26/3 25/25/3 28/28/3
f 29/29/4 30/30/4 31/31/4
f 30/30/4 29/29/4 32/32/4
f 33/33/5 34/34/5 35/35/5
f 34/34/5 33/33/5 36/36/5
f 37/37/6 38/38/6 39/39/6
f 38/38/6 37/37/6 40/40/6
f 41/41/7 42/42/7 43/43/7
f 42/42/7 41/41/7 44/44/7
f 45/45/8 46/46/8 47/47/8
f 46/46/8 45/45/8 48/48/8
f 49/49/9 50/50/9 51/51/9
f 50/50/9 49/49/9 52/52/9
f 53/53/10 54/54/10 55/55/10
f 54/54/10 53/53/10 56/56/10
f 57/57/11 58/58/11 59/59/11
f 57/57/11 59/59/11 60/60/11
f 61/61/12 62/62/12 63/63/12
f 61/61/12 63/63/12 64/64/12
f 65/65/13 66/66/13 67/67/13
f 65/65/13 67/67/13 68/68/13
f 69/69/14 70/70/14 71/71/14
f 69/69/14 71/71/14 72/72/14
f 73/73/15 74/74/15 75/75/15
f 73/73/15 75/75/15 76/76/15
f 77/77/16 78/78/16 79/79/16
f 77/77/16 79/79/16 80/80/16
f 81/81/17 82/82/17 83/83/17
f 81/81/17 83/83/17 84/84/17
f 85/85/18 86/86/18 87/87/18
f 85/85/18 87/87/18 88/88/18
f 89/89/19 90/90/19 91/91/19
f 89/89/19 91/91/19 92/92/19
f 93/93/20 94/94/20 95/95/20
f 93/93/20 95/95/20 96/96/20
f 97/97/21 98/98/21 99/99/21
f 97/97/21 99/99/21 100/100/21
f 101/101/22 102/102/22 103/103/22
f 101/101/22 103/103/22 104/104/22
f 105/105/23 106/106/23 107/107/23
f 105/105/23 107/107/23 108/108/23
f 109/109/24 110/110/24 111/111/24
f 109/109/24 111/111/24 112/112/24
f 113/113/25 114/114/25 115/115/25
f 113/113/25 115/115/25 116/116/25
f 117/117/26 118/118/26 119/119/26
f 117/117/26 119/119/26 120/120/26
f 121/121/27 122/122/27 123/123/27
f 121/121/27 123/123/27 124/124/27
f 125/125/28 126/126/28 127/127/28
f 125/125/28 127/127/28 128/128/28
f 129/129/29 130/130/29 131/131/29
f 129/129/29 131/131/29 132/132/29
f 133/133/30 134/134/30 135/135/30
f 133/133/30 135/135/30 136/136/30
f 137/137/31 138/138/31 139/139/31
f 137/137/31 139/139/31 140/140/31
f 141/141/32 142/142/32 143/143/32
f 141/141/32 143/143/32 144/144/32
f 145/145/33 146/146/33 147/147/33
f 145/145/33 147/147/33 148/148/33
f 149/149/34 150/150/34 151/151/34
f 149/149/34 151/151/34 152/152/34
f 153/153/35 154/154/35 155/155/35
f 154/154/35 153/153/35 156/156/35
f 157/157/36 158/158/36 159/159/36
f 158/158/36 157/157/36 160/160/36
f 161/161/37 162/162/37 163/163/37
f 162/162/37 161/161/37 164/164/37
f 165/165/38 166/166/38 167/167/38
f 166/166/38 165/165/38 168/168/38
f 169/169/39 170/170/39 171/171/39
f 170/170/39 172/172/39 171/171/39
f 173/173/40 174/174/41 175/175/40
f 174/174/41 176/176/42 175/175/40
f 177/177/43 178/178/43 179/179/43
f 178/178/43 177/177/43 180/180/43
f 181/181/44 182/182/45 183/183/45
f 182/182/45 184/184/45 183/183/45
f 185/185/46 186/186/46 187/187/47
f 186/186/46 185/185/46 188/188/46
f 189/189/48 190/190/48 191/191/48
f 190/190/48 189/189/48 192/192/48
f 193/193/49 194/194/49 195/195/49
f 194/194/49 193/193/49 196/196/50
f 197/197/51 198/198/51 199/199/51
f 198/198/51 197/197/51 200/200/52
f 201/201/53 202/202/53 203/203/53
f 202/202/53 201/201/53 204/204/53
f 205/205/54 206/206/54 207/207/54
f 206/206/54 208/208/54 207/207/54
f 209/209/55 210/210/55 211/211/55
f 210/210/55 209/209/55 212/212/55
f 213/213/56 214/214/56 215/215/56
f 214/214/56 213/213/56 216/216/56
f 217/217/57 218/218/57 219/219/57
f 218/218/57 217/217/57 220/220/57
f 221/221/58 222/222/58 223/223/58
f 222/222/58 221/221/58 224/224/58
f 225/225/59 226/226/59 227/227/59
f 226/226/59 225/225/59 228/228/59
f 229/229/60 230/230/60 231/231/60
f 230/230/60 229/229/60 232/232/60
f 233/233/61 234/234/61 235/235/61
f 234/234/61 233/233/61 236/236/61
f 237/237/62 238/238/62 239/239/62
f 238/238/62 237/237/62 240/240/62
f 241/241/63 242/242/63 243/243/63
f 242/242/63 241/241/63 244/244/63
f 245/245/64 246/246/64 247/247/64
f 246/246/64 245/245/64 248/248/64
f 249/249/65 250/250/65 251/251/66
f 251/251/66 250/250/65 252/252/66
f 251/251/66 252/252/66 253/253/67
f 253/253/67 252/252/66 254/254/67
f 253/253/67 254/254/67 255/255/68
f 255/255/68 254/254/67 256/256/68
f 255/255/68 256/256/68 257/257/69
f 257/257/69 256/256/68 258/258/69
f 257/257/69 258/258/69 259/259/70
f 259/259/70 258/258/69 260/260/70
f 259/259/70 260/260/70 261/261/71
f 261/261/71 260/260/70 262/262/71
f 261/261/71 262/262/71 263/263/72
f 263/263/72 262/262/71 264/264/72
f 263/263/72 264/264/72 249/265/65
f 249/265/65 264/264/72 250/266/65
f 265/267/18 266/268/18 267/269/73
f 267/269/73 266/268/18 268/270/73
f 267/269/73 268/270/73 269/271/74
f 269/271/74 268/270/73 270/272/74
f 269/271/74 270/272/74 271/273/75
f 271/273/75 270/272/74 272/274/75
f 271/273/75 272/274/75 273/275/21
f 273/275/21 272/274/75 274/276/21
f 273/275/21 274/276/21 275/277/76
f 275/277/76 274/276/21 276/278/76
f 275/277/76 276/278/76 277/279/77
f 277/279/77 276/278/76 278/280/77
f 277/279/77 278/280/77 279/281/78
f 279/281/78 278/280/77 280/282/78
f 279/281/78 280/282/78 265/283/18
f 265/283/18 280/282/78 266/284/18
f 281/285/24 282/286/24 283/287/79
f 283/287/79 282/286/24 284/288/79
f 283/287/79 284/288/79 285/289/80
f 285/289/80 284/288/79 286/290/80
f 285/289/80 286/290/80 287/291/81
f 287/291/81 286/290/80 288/292/81
f 287/291/81 288/292/81 289/293/27
f 289/293/27 288/292/81 290/294/27
f 289/293/27 290/294/27 291/295/82
f 291/295/82 290/294/27 292/296/82
f 291/295/82 292/296/82 293/297/83
f 293/297/83 292/296/82 294/298/83
f 293/297/83 294/298/83 295/299/84
f 295/299/84 294/298/83 296/300/84
f 295/299/84 296/300/84 281/301/24
f 281/301/24 296/300/84 282/302/24
f 297/303/30 298/304/30 299/305/85
f 299/305/85 298/304/30 300/306/85
f 299/305/85 300/306/85 301/307/86
f 301/307/86 300/306/85 302/308/86
f 301/307/86 302/308/86 303/309/87
f 303/309/87 302/308/86 304/310/87
f 303/309/87 304/310/87 305/311/33
f 305/311/33 304/310/87 306/312/33
f 305/311/33 306/312/33 307/313/88
f 307/313/88 306/312/33 308/314/88
f 307/313/88 308/314/88 309/315/89
f 309/315/89 308/314/88 310/316/89
f 309/315/89 310/316/89 311/317/90
f 311/317/90 310/316/89 312/318/90
f 311/317/90 312/318/90 297/319/30
f 297/319/30 312/318/90 298/320/30
f 313/321/91 314/322/60 315/323/92
f 316/324/92 315/323/92 314/322/60
f 316/324/92 317/325/93 315/323/92
f 317/325/93 316/324/92 318/326/94
f 319/327/95 317/325/93 318/326/94
f 317/325/93 319/327/95 320/328/95
f 319/327/95 321/329/63 320/328/95
f 321/329/63 319/327/95 322/330/63
f 323/331/96 321/329/63 322/330/63
f 321/329/63 323/331/96 324/332/96
f 325/333/97 324/332/96 323/331/96
f 324/332/96 325/333/97 326/334/97
f 325/333/97 327/335/98 326/334/97
f 327/335/98 325/333/97 328/336/99
f 314/337/60 327/335/98 328/336/99
f 327/335/98 314/337/60 313/338/91
f 329/339/100 330/340/101 331/341/102
f 330/340/101 329/339/100 332/342/100
f 333/343/103 332/342/100 329/339/100
f 333/343/103 334/344/104 332/342/100
f 333/343/103 335/345/105 334/344/104
f 333/343/103 336/346/106 335/345/105
f 337/347/107 338/348/108 339/349/109
f 338/348/108 337/347/107 340/350/110
f 340/350/110 341/351/111 338/348/108
f 341/351/111 340/350/110 342/352/112
f 342/352/112 343/353/113 341/351/111
f 343/353/113 342/352/112 344/354/114
f 345/355/115 343/353/113 344/354/114
f 343/353/113 345/355/115 346/356/116
f 345/355/115 347/357/117 346/356/116
f 347/357/117 345/355/115 348/358/118
f 349/359/119 347/357/117 348/358/118
f 347/357/117 349/359/119 350/360/120
f 351/361/121 352/362/122 353/363/123
f 354/364/124 352/362/122 351/361/121
f 355/365/125 354/364/124 351/361/121
f 354/364/124 355/365/125 356/366/126
f 357/367/127 356/366/126 355/365/125
f 356/366/126 357/367/127 358/368/128
f 357/367/127 359/369/129 358/368/128
f 359/369/129 357/367/127 360/370/130
f 361/371/131 359/369/129 360/370/130
f 359/369/129 361/371/131 362/372/132
f 361/371/131 363/373/133 362/372/132
f 363/373/133 361/371/131 364/374/134
f 365/375/135 366/376/135 367/377/135
f 366/376/135 365/375/135 368/378/135
f 369/379/135 368/378/135 365/375/135
f 368/378/135 369/379/135 370/380/135
f 371/381/135 370/380/135 369/379/135
f 370/380/135 371/381/135 372/382/135
f 373/383/135 372/382/135 371/381/135
f 372/382/135 373/383/135 374/384/135
f 375/385/136 376/386/136 377/387/136
f 377/387/136 378/388/136 375/385/136
f 379/389/136 375/385/136 378/388/136
f 378/388/136 380/390/136 379/389/136
f 381/391/136 379/389/136 380/390/136
f 380/390/136 382/392/136 381/391/136
f 382/392/136 383/393/136 381/391/136
f 383/393/136 382/392/136 384/394/136
f 385/395/137 386/396/138 387/397/138
f 388/398/137 385/395/137 387/397/138
f 389/399/139 385/395/137 388/398/137
f 390/400/139 389/399/139 388/398/137
f 390/400/139 391/401/140 389/399/139
f 391/401/140 390/400/139 392/402/140
f 392/402/140 393/403/141 391/401/140
f 393/403/141 392/402/140 394/404/141
f 394/404/141 395/405/142 393/403/141
f 395/405/142 394/404/141 396/406/142
f 395/405/142 396/406/142 397/407/143
f 397/407/143 396/406/142 398/408/143
f 399/409/144 400/410/145 401/411/145
f 400/410/145 399/409/144 402/412/144
f 403/413/146 402/412/144 399/409/144
f 402/412/144 403/413/146 404/414/146
f 405/415/147 404/414/146 403/413/146
f 404/414/146 405/415/147 406/416/147
f 407/417/148 406/416/147 405/415/147
f 406/416/147 407/417/148 408/418/148
f 409/419/149 408/418/148 407/417/148
f 408/418/148 409/419/149 410/420/149
f 411/421/150 410/420/149 409/419/149
f 410/420/149 411/421/150 412/422/150
f 413/423/151 414/424/152 415/425/153
f 415/425/153 414/424/152 416/426/154
f 417/427/155 416/426/154 414/424/152
f 416/426/154 417/427/155 418/428/156
f 419/429/157 418/428/156 417/427/155
f 417/427/155 420/430/157 419/429/157
f 421/431/158 419/429/157 420/430/157
f 419/429/157 421/431/158 422/432/159
f 423/433/160 424/434/161 425/435/162
f 424/434/161 423/433/160 426/436/163
f 426/436/163 427/437/164 424/434/161
f 427/437/164 426/436/163 428/438/165
f 428/438/165 330/439/101 427/437/164
f 330/439/101 428/438/165 331/440/102
f 429/441/166 430/442/167 431/443/168
f 431/443/168 432/444/169 429/441/166
f 433/445/170 429/441/166 432/444/169
f 432/444/169 434/446/171 433/445/170
f 435/447/172 433/445/170 434/446/171
f 434/446/171 436/448/172 435/447/172
f 437/449/172 435/447/172 436/448/172
f 435/447/172 437/449/172 438/450/172
f 439/451/173 438/450/172 437/449/172
f 437/449/172 440/452/174 439/451/173
f 441/453/175 439/451/173 440/452/174
f 439/451/173 441/453/175 442/454/176
f 443/455/177 442/454/176 441/453/175
f 442/454/176 443/455/177 444/456/178
f 443/455/177 336/457/106 444/456/178
f 336/457/106 443/455/177 335/458/105
f 445/459/179 446/460/179 447/461/180
f 448/462/179 446/460/179 445/459/179
f 448/462/179 449/463/179 446/460/179
f 449/463/179 448/462/179 450/464/179
f 449/463/179 450/464/179 451/465/179
f 451/465/179 450/464/179 452/466/181
f 453/467/182 454/468/183 455/469/183
f 456/470/182 454/468/183 453/467/182
f 456/470/182 457/471/182 454/468/183
f 458/472/183 457/471/182 456/470/182
f 457/471/182 458/472/183 459/473/182
f 459/473/182 458/472/183 460/474/182
f 461/475/179 462/476/179 463/477/179
f 464/478/179 462/476/179 461/475/179
f 464/478/179 465/479/179 462/476/179
f 465/479/179 464/478/179 466/480/179
f 466/480/179 467/481/179 465/479/179
f 467/481/179 466/480/179 468/482/179
f 469/483/184 470/484/54 471/485/54
f 472/486/184 469/483/184 471/485/54
f 473/487/185 469/483/184 472/486/184
f 469/483/184 473/487/185 474/488/186
f 473/487/185 475/489/187 474/488/186
f 475/489/187 473/487/185 476/490/187
f 477/491/57 475/489/187 476/490/187
f 475/489/187 477/491/57 478/492/57
f 479/493/188 478/492/57 477/491/57
f 478/492/57 479/493/188 480/494/189
f 479/493/188 481/495/190 480/494/189
f 481/495/190 479/493/188 482/496/191
f 483/497/192 481/495/190 482/496/191
f 481/495/190 483/497/192 484/498/192
f 483/497/192 470/499/54 484/498/192
f 470/499/54 483/497/192 471/500/54
f 485/501/193 413/502/151 415/503/153
f 413/502/151 485/501/193 486/504/194
f 485/501/193 487/505/195 486/504/194
f 487/505/195 485/501/193 488/506/196
f 431/507/168 487/505/195 488/506/196
f 487/505/195 431/507/168 430/508/167
f 489/509/197 423/510/160 425/511/162
f 490/512/197 489/509/197 425/511/162
f 491/513/198 489/509/197 490/512/197
f 492/514/198 489/509/197 491/513/198
f 421/515/158 492/514/198 491/513/198
f 422/516/159 421/515/158 491/513/198
f 493/517/44 494/518/44 495/519/199
f 496/520/199 495/519/199 494/518/44
f 497/521/200 495/519/199 496/520/199
f 495/519/199 497/521/200 498/522/200
f 497/521/200 499/523/201 498/522/200
f 499/523/201 497/521/200 500/524/201
f 501/525/49 499/523/201 500/524/201
f 499/523/201 501/525/49 502/526/50
f 503/527/202 502/526/50 501/525/49
f 502/526/50 503/527/202 504/528/202
f 503/527/202 505/529/203 504/528/202
f 505/529/203 503/527/202 506/530/203
f 507/531/204 505/529/203 506/530/203
f 505/529/203 507/531/204 508/532/204
f 507/531/204 493/533/44 508/532/204
f 493/533/44 507/531/204 494/534/44
f 509/535/4 510/536/4 511/537/205
f 512/538/206 509/535/4 511/537/205
f 511/537/205 513/539/207 512/538/206
f 513/539/207 511/537/205 514/540/208
f 514/540/208 515/541/209 513/539/207
f 515/541/209 514/540/208 516/542/210
f 516/542/210 517/543/211 515/541/209
f 517/543/211 516/542/210 518/544/212
f 519/545/213 517/543/211 518/544/212
f 517/543/211 519/545/213 520/546/214
f 519/545/213 521/547/215 520/546/214
f 521/547/215 519/545/213 522/548/216
f 523/549/6 524/550/217 525/551/6
f 524/550/217 523/549/6 526/552/218
f 527/553/219 524/550/217 526/552/218
f 524/550/217 527/553/219 528/554/220
f 529/555/221 528/554/220 527/553/219
f 528/554/220 529/555/221 530/556/222
f 531/557/223 530/556/222 529/555/221
f 530/556/222 531/557/223 532/558/224
f 531/557/223 533/559/225 532/558/224
f 533/559/225 531/557/223 534/560/226
f 535/561/227 533/559/225 534/560/226
f 533/559/225 535/561/227 536/562/228
f 537/563/229 538/564/230 539/565/231
f 538/564/230 537/563/229 540/566/232
f 537/563/229 541/567/233 540/566/232
f 542/568/234 541/567/233 537/563/229
f 542/568/234 543/569/235 541/567/233
f 544/570/236 543/569/235 542/568/234
f 543/569/235 544/570/236 545/571/237
f 546/572/238 545/571/237 544/570/236
f 545/571/237 546/572/238 547/573/239
f 548/574/240 547/573/239 546/572/238
f 549/575/4 548/574/240 550/576/4
f 551/577/241 548/574/240 549/575/4
f 551/577/241 547/573/239 548/574/240
f 547/573/239 551/577/241 552/578/242
f 553/579/243 552/578/242 551/577/241
f 552/578/242 553/579/243 554/580/244
f 555/581/245 554/580/244 553/579/243
f 554/580/244 555/581/245 556/582/246
f 557/583/247 556/582/246 555/581/245
f 556/582/246 557/583/247 558/584/248
f 558/584/248 557/583/247 559/585/249
f 559/585/249 557/583/247 560/586/250
f 561/587/251 562/588/6 563/589/6
f 562/588/6 561/587/251 564/590/252
f 565/591/253 564/590/252 561/587/251
f 566/592/254 565/591/253 561/587/251
f 564/590/252 565/591/253 567/593/255
f 565/591/253 566/592/254 568/594/256
f 564/590/252 567/593/255 569/595/257
f 570/596/258 568/594/256 566/592/254
f 569/595/257 567/593/255 571/597/259
f 568/594/256 570/596/258 572/598/260
f 569/595/257 571/597/259 573/599/261
f 574/600/262 572/598/260 570/596/258
f 573/599/261 571/597/259 575/601/263
f 572/598/260 574/600/262 576/602/264
f 573/599/261 575/601/263 577/603/265
f 578/604/266 576/602/264 574/600/262
f 577/603/265 575/601/263 579/605/267
f 576/602/264 578/604/266 580/606/268
f 581/607/269 577/603/265 579/605/267
f 577/603/265 581/607/269 582/608/270
f 580/606/268 578/604/266 583/609/271
f 583/609/271 578/604/266 584/610/272
f 585/611/273 586/612/273 587/613/273
f 588/614/273 586/612/273 585/611/273
f 586/612/273 588/614/273 589/615/273
f 588/614/273 585/611/273 590/616/273
f 591/617/273 588/614/273 590/616/273
f 588/614/273 591/617/273 592/618/273
f 593/619/2 594/620/2 595/621/2
f 596/622/2 594/620/2 593/619/2
f 594/620/2 596/622/2 597/623/2
f 597/623/2 596/622/2 598/624/2
f 596/622/2 593/619/2 599/625/2
f 596/622/2 599/625/2 600/626/2
f 601/627/2 602/628/2 603/629/2
f 604/630/2 602/628/2 601/627/2
f 602/628/2 604/630/2 605/631/2
f 605/631/2 604/630/2 606/632/2
f 604/630/2 601/627/2 607/633/2
f 604/630/2 607/633/2 608/634/2
f 609/635/2 610/636/2 611/637/2
f 609/635/2 612/638/2 610/636/2
f 612/638/2 609/635/2 613/639/2
f 612/638/2 613/639/2 614/640/2
f 612/638/2 615/641/2 610/636/2
f 615/641/2 612/638/2 616/642/2
f 617/643/2 618/644/2 619/645/2
f 618/644/2 617/643/2 620/646/2
f 620/646/2 621/647/2 618/644/2
f 621/647/2 620/646/2 622/648/2
f 620/646/2 617/643/2 623/649/2
f 620/646/2 623/649/2 624/650/2
f 625/651/2 626/652/2 627/653/2
f 628/654/2 625/651/2 627/653/2
f 629/655/2 626/652/2 625/651/2
f 625/651/2 628/654/2 630/656/2
f 629/655/2 625/651/2 631/657/2
f 630/656/2 628/654/2 632/658/2
f 631/657/2 633/659/2 629/655/2
f 634/660/2 630/656/2 632/658/2
f 635/661/2 633/659/2 631/657/2
f 630/656/2 634/660/2 635/661/2
f 633/659/2 635/661/2 636/662/2
f 635/661/2 634/660/2 636/662/2
f 637/663/2 638/664/2 639/665/2
f 640/666/2 637/663/2 639/665/2
f 638/664/2 641/667/2 639/665/2
f 642/668/2 640/666/2 639/665/2
f 641/667/2 643/669/2 639/665/2
f 643/669/2 642/668/2 639/665/2
f 644/670/2 645/671/2 646/672/2
f 647/673/2 644/670/2 646/672/2
f 645/671/2 648/674/2 646/672/2
f 649/675/2 647/673/2 646/672/2
f 648/674/2 650/676/2 646/672/2
f 650/676/2 649/675/2 646/672/2
f 651/677/2 652/678/2 653/679/2
f 654/680/2 651/677/2 653/679/2
f 652/678/2 655/681/2 653/679/2
f 656/682/2 654/680/2 653/679/2
f 655/681/2 657/683/2 653/679/2
f 657/683/2 656/682/2 653/679/2
f 658/684/2 659/685/2 660/686/2
f 661/687/2 658/684/2 660/686/2
f 659/685/2 662/688/2 660/686/2
f 663/689/2 661/687/2 660/686/2
f 662/688/2 664/690/2 660/686/2
f 664/690/2 663/689/2 660/686/2
f 665/691/179 666/692/179 667/693/179
f 668/694/179 665/691/179 667/693/179
f 666/692/179 669/695/179 667/693/179
f 670/696/179 668/694/179 667/693/179
f 669/695/179 671/697/179 667/693/179
f 671/697/179 670/696/179 667/693/179
f 672/698/182 673/699/182 674/700/182
f 675/701/182 672/698/182 674/700/182
f 673/699/182 676/702/182 674/700/182
f 677/703/182 675/701/182 674/700/182
f 676/702/182 678/704/182 674/700/182
f 678/704/182 677/703/182 674/700/182
f 679/705/179 680/706/179 681/707/179
f 682/708/179 679/705/179 681/707/179
f 680/706/179 683/709/179 681/707/179
f 684/710/179 682/708/179 681/707/179
f 683/709/179 685/711/179 681/707/179
f 685/711/179 684/710/179 681/707/179
