# Blender 4.0.1
# www.blender.org
mtllib traffic_sign_a.mtl
o SM_Traffic_ConstructionSign_A.mo
v 0.011914 0.882099 0.018833
v 0.011914 0.882099 -0.018922
v -0.020029 0.904465 -0.018922
v -0.020029 0.904465 0.018833
v -0.520176 0.122197 0.018833
v -0.520176 0.122197 -0.018922
v -0.552119 0.144564 0.018833
v -0.552119 0.144564 -0.018922
v -0.607084 -0.017889 -0.027789
v -0.568608 0.136984 -0.027789
v -0.521659 0.104110 -0.027789
v -0.654032 0.014985 -0.027789
v -0.607084 -0.017889 0.027700
v -0.521659 0.104110 0.027700
v -0.568608 0.136984 0.027700
v -0.654032 0.014985 0.027700
v 0.012710 0.907477 0.015887
v 0.016840 0.889141 -0.016856
v -0.024956 0.897423 0.016767
v -0.020826 0.879087 -0.015977
v 0.230313 0.132631 0.477225
v 0.234443 0.114296 0.444481
v 0.196777 0.104241 0.445361
v 0.192647 0.122577 0.478104
v 0.221440 -0.012962 0.567859
v 0.241865 0.126213 0.492500
v 0.186505 0.111436 0.493793
v 0.276801 0.001815 0.566566
v 0.247935 0.099265 0.444375
v 0.227510 -0.039911 0.519734
v 0.192575 0.084487 0.445668
v 0.282870 -0.025134 0.518441
v 0.012710 0.907477 -0.015977
v 0.016840 0.889141 0.016767
v -0.020826 0.879087 0.015887
v -0.024956 0.897423 -0.016856
v 0.230313 0.132631 -0.477314
v 0.234443 0.114296 -0.444571
v 0.196777 0.104241 -0.445450
v 0.192647 0.122577 -0.478194
v 0.221440 -0.012962 -0.567949
v 0.186505 0.111436 -0.493883
v 0.241865 0.126213 -0.492590
v 0.276801 0.001815 -0.566656
v 0.227510 -0.039911 -0.519823
v 0.247935 0.099265 -0.444464
v 0.192575 0.084487 -0.445757
v 0.282870 -0.025134 -0.518530
v 0.010436 1.014807 0.227221
v -0.033468 1.003043 0.227221
v -0.033468 1.003043 -0.227310
v 0.010436 1.014807 -0.227310
v 0.025352 0.783522 0.227221
v 0.069257 0.795286 -0.227310
v 0.069257 0.795286 0.227221
v 0.025352 0.783522 -0.227310
v -0.013276 0.850237 -0.000018
v -0.013276 0.850237 -0.000018
v 0.014528 0.896090 -0.000018
v 0.024496 0.858745 -0.000018
v 0.024496 0.858745 -0.000018
v 0.024496 0.858745 -0.000018
v 0.024496 0.858745 -0.000018
v -0.013276 0.850237 -0.000018
v -0.013276 0.850237 -0.000018
v 0.049751 0.893282 -0.148636
v -0.004058 0.947091 -0.148636
v 0.033991 0.931331 -0.148636
v -0.057867 0.893282 -0.148636
v -0.042107 0.931331 -0.148636
v 0.033991 0.855234 -0.148636
v -0.004058 0.839473 -0.148636
v -0.042107 0.855234 -0.148636
v -0.057867 0.893282 0.148546
v -0.004058 0.947091 0.148546
v -0.042107 0.931331 0.148546
v 0.049751 0.893282 0.148546
v 0.033991 0.931331 0.148546
v -0.004058 0.839474 0.148546
v 0.033991 0.855234 0.148546
v -0.042107 0.855234 0.148546
v -0.022723 0.885629 -0.000018
v 0.035135 1.071924 -0.919663
v 0.015653 1.071924 0.961868
v -0.012705 1.064326 0.961868
v 0.193851 0.179221 0.038628
v 0.193851 0.179221 -0.002338
v 0.008115 1.064326 -0.928273
v 0.220044 0.192481 0.038628
v 0.220044 0.192481 -0.002338
v -0.180651 2.004388 -0.002338
v -0.210010 2.004262 -0.002338
v -0.001987 1.103895 -0.931493
v 0.025032 1.111494 -0.922882
v -0.023308 1.103895 0.961868
v 0.005050 1.111494 0.961868
v -0.180651 2.004388 0.038628
v -0.210010 2.004262 0.038628
vn -0.9666 -0.2548 -0.0284
vn 0.8192 -0.5736 -0.0000
vn -0.9239 -0.3827 -0.0000
vn -0.1561 0.6499 0.7438
vn -0.1722 0.7054 0.6875
vn -0.8192 0.5736 -0.0000
vn -0.1561 0.6499 -0.7438
vn -0.1722 0.7054 -0.6875
vn -0.2588 0.9659 -0.0000
vn -0.4177 0.9086 -0.0000
vn 0.7155 0.6441 -0.2705
vn -0.0000 -0.0000 1.0000
vn 0.1650 0.2357 -0.9577
vn -0.0000 -0.0000 -1.0000
vn 0.9669 0.2530 -0.0321
vn -0.1094 0.4857 -0.8673
vn 0.0372 -0.2247 -0.9737
vn 0.0578 -0.2998 -0.9522
vn 0.0373 -0.2249 -0.9737
vn 0.1094 -0.4857 0.8673
vn 0.0578 -0.2998 0.9522
vn 0.1094 -0.4857 -0.8673
vn -0.9523 0.1990 0.2315
vn 0.1202 0.1717 0.9778
vn 0.1650 0.2357 0.9577
vn -0.1094 0.4857 0.8673
vn 0.9659 0.2578 0.0226
vn 0.0373 -0.2249 0.9737
vn 0.0373 -0.2247 0.9737
vn -0.9659 -0.2578 0.0226
vn 0.9659 0.2578 -0.0226
vn -0.9659 -0.2578 -0.0226
vn 0.1202 0.1717 -0.9778
vn 0.3827 0.9239 -0.0000
vn -0.9523 0.1990 -0.2315
vn 0.7155 0.6441 0.2705
vn 0.2346 -0.8353 -0.4973
vn 0.2346 -0.8353 0.4973
vn -0.9239 0.3827 -0.0000
vn 0.2588 -0.9659 -0.0000
vn -0.9659 -0.2588 -0.0000
vn -0.9666 -0.2548 0.0284
vn -0.3827 0.9239 -0.0000
vn 0.9239 0.3827 -0.0000
vn 0.3827 -0.9239 -0.0000
vn -0.3827 -0.9239 -0.0000
vn -0.5736 -0.8192 -0.0000
vn 0.9669 0.2530 0.0321
vn 0.9967 -0.0817 -0.0000
vn 0.9239 -0.3827 -0.0000
vn 0.4517 -0.8922 -0.0000
vn 0.2561 -0.6698 0.6970
vn -0.0043 1.0000 -0.0000
vn 0.9763 0.2162 0.0038
vn 0.9763 0.2162 0.0039
vn 0.9764 0.2162 0.0032
vn 0.3036 -0.0000 -0.9528
vn 0.9762 0.2166 0.0094
vn 0.3599 -0.6367 -0.6819
vn -0.9763 -0.2164 -0.0041
vn -0.9761 -0.2170 -0.0123
vn 0.0077 0.7188 -0.6952
vn -0.0943 0.7046 0.7033
vn 0.9761 0.2168 0.0115
vn -0.9763 -0.2163 -0.0033
vn -0.9762 -0.2167 -0.0099
vt 0.984140 0.114405
vt 0.646424 0.114405
vt 0.646449 0.100619
vt 0.971855 0.100234
vt 0.984166 0.100619
vt 0.983411 0.106887
vt 0.624967 0.320860
vt 0.670303 0.320860
vt 0.670303 0.341128
vt 0.624967 0.341128
vt 0.895505 0.273631
vt 0.895512 0.288331
vt 0.786968 0.288332
vt 0.786962 0.273631
vt 0.501586 0.278941
vt 0.783971 0.278941
vt 0.783971 0.292730
vt 0.501586 0.292730
vt 0.995215 0.063607
vt 0.995215 0.084541
vt 0.989559 0.081210
vt 0.989559 0.066967
vt 0.809773 0.238091
vt 0.549469 0.238090
vt 0.549469 0.224301
vt 0.809773 0.224301
vt 0.987683 0.043648
vt 0.993339 0.047008
vt 0.993339 0.061251
vt 0.987683 0.064581
vt 0.667802 0.317503
vt 0.501787 0.317503
vt 0.501787 0.300902
vt 0.667802 0.300902
vt 0.542931 0.241329
vt 0.542931 0.221062
vt 0.640566 0.049402
vt 0.646130 0.052649
vt 0.646132 0.066438
vt 0.640568 0.069669
vt 0.839806 0.317502
vt 0.839812 0.300901
vt 0.921213 0.300901
vt 0.921207 0.317502
vt 0.646033 0.043334
vt 0.645769 0.029315
vt 0.982718 0.029314
vt 0.982982 0.043334
vt 0.971615 0.052286
vt 0.971615 0.052286
vt 0.984603 0.052649
vt 0.983850 0.059309
vt 0.984604 0.066439
vt 0.714250 0.341791
vt 0.673495 0.341791
vt 0.673304 0.320860
vt 0.714058 0.320860
vt 0.644423 0.139003
vt 0.637918 0.142157
vt 0.638292 0.121258
vt 0.644677 0.124784
vt 0.500799 0.202060
vt 0.500631 0.181133
vt 0.552208 0.181134
vt 0.552376 0.202060
vt 0.586223 0.142157
vt 0.586597 0.121258
vt 0.640444 0.117566
vt 0.640481 0.097304
vt 0.640202 0.022182
vt 0.640599 0.001492
vt 0.645814 0.004305
vt 0.645544 0.018382
vt 0.802688 0.243014
vt 0.802940 0.257251
vt 0.547662 0.257251
vt 0.547410 0.243014
vt 0.586227 0.093618
vt 0.586226 0.073350
vt 0.640572 0.073350
vt 0.640574 0.093618
vt 0.879946 0.184396
vt 0.880061 0.198635
vt 0.868243 0.198828
vt 0.558803 0.198634
vt 0.558689 0.184396
vt 0.867523 0.184706
vt 0.640473 0.165470
vt 0.586263 0.165470
vt 0.586231 0.145206
vt 0.640441 0.145206
vt 0.501306 0.260983
vt 0.755155 0.260983
vt 0.755286 0.275224
vt 0.501437 0.275224
vt 0.586226 0.049402
vt 0.586228 0.069669
vt 0.586225 0.117566
vt 0.586262 0.097304
vt 0.640352 0.025450
vt 0.640740 0.046055
vt 0.991741 0.183133
vt 0.991741 0.291677
vt 0.979839 0.291677
vt 0.979839 0.183133
vt 0.646448 0.162167
vt 0.646426 0.148380
vt 0.646145 0.076595
vt 0.646145 0.090384
vt 0.717232 0.320858
vt 0.737329 0.320858
vt 0.737329 0.341616
vt 0.717232 0.341616
vt 0.989783 0.119260
vt 0.989783 0.140018
vt 0.969685 0.140018
vt 0.969685 0.119260
vt 0.895522 0.260983
vt 0.786979 0.260983
vt 0.621981 0.337451
vt 0.540684 0.337451
vt 0.540573 0.320858
vt 0.621870 0.320858
vt 0.670793 0.300896
vt 0.836808 0.300896
vt 0.836808 0.317392
vt 0.670793 0.317392
vt 0.586228 0.022182
vt 0.586625 0.001492
vt 0.583233 0.167513
vt 0.500508 0.167528
vt 0.500506 0.001514
vt 0.583230 0.001499
vt 0.501141 0.241329
vt 0.501141 0.221062
vt 0.984107 0.162167
vt 0.971788 0.162534
vt 0.984085 0.148380
vt 0.983343 0.155880
vt 0.966418 0.139003
vt 0.953968 0.138682
vt 0.954829 0.124578
vt 0.966672 0.124783
vt 0.981730 0.018382
vt 0.982000 0.004306
vt 0.964919 0.291677
vt 0.964919 0.183133
vt 0.921308 0.235879
vt 0.812764 0.235882
vt 0.812770 0.221057
vt 0.921314 0.221054
vt 0.939361 0.215073
vt 0.939361 0.323617
vt 0.924321 0.323617
vt 0.924321 0.215073
vt 0.950190 0.215073
vt 0.950190 0.323617
vt 0.988728 0.305572
vt 0.963593 0.331221
vt 0.953181 0.305531
vt 0.978317 0.294924
vt 0.898521 0.253388
vt 0.919447 0.253017
vt 0.919447 0.294001
vt 0.898521 0.294372
vt 0.502027 0.346482
vt 0.512461 0.320860
vt 0.537649 0.331613
vt 0.527216 0.357234
vt 0.740325 0.340952
vt 0.740325 0.320855
vt 0.761083 0.320855
vt 0.761083 0.340952
vt 0.984652 0.076594
vt 0.983910 0.083743
vt 0.984653 0.090384
vt 0.971675 0.090765
vt 0.963593 0.294907
vt 0.985004 0.002449
vt 0.991328 0.005683
vt 0.991327 0.019473
vt 0.985004 0.022716
vt 0.953181 0.320573
vt 0.988729 0.320614
vt 0.978317 0.331238
vt 0.537649 0.346650
vt 0.527216 0.320930
vt 0.586644 0.046055
vt 0.586256 0.025450
vt 0.502027 0.331444
vt 0.512461 0.357164
vt 0.921329 0.248163
vt 0.812785 0.248166
vt 0.997964 0.025447
vt 0.997964 0.040283
vt 0.987332 0.040283
vt 0.987332 0.025447
vt 0.946985 0.211813
vt 0.947258 0.201094
vt 0.961926 0.201462
vt 0.961653 0.212182
vt 0.555461 0.212217
vt 0.557886 0.201780
vt 0.483656 0.998077
vt 0.468931 0.998077
vt 0.468931 0.987524
vt 0.483656 0.987524
vt 0.496186 0.012049
vt 0.018054 0.492425
vt 0.007449 0.481870
vt 0.485581 0.001494
vt 0.571913 0.179642
vt 0.572174 0.169288
vt 0.587021 0.169165
vt 0.586760 0.179520
vt 0.001504 0.012891
vt 0.011190 0.001494
vt 0.978234 0.179654
vt 0.975824 0.169206
vt 0.501602 0.488966
vt 0.974520 0.486528
vt 0.985031 0.497106
vt 0.982411 0.972935
vt 0.952615 0.987524
vt 0.952615 0.998077
vt 0.001502 0.987524
vt 0.001502 0.998077
vt 0.500237 0.485995
vt 0.489689 0.496591
vt 0.971796 0.983479
vt 0.490986 0.499510
vt 0.493413 0.983479
vt 0.483760 0.972096
s 1
usemtl Material.008
f 36/1/1 40/2/1 39/3/1 57/4/1 64/4/1 35/5/1 82/6/1
f 14/7/2 13/8/2 9/9/2 11/10/2
f 69/11/3 73/12/3 81/13/3 74/14/3
f 1/15/2 5/16/2 6/17/2 2/18/2
f 27/19/4 26/20/4 21/21/5 24/22/5
f 3/23/6 8/24/6 7/25/6 4/26/6
f 42/27/7 40/28/8 37/29/8 43/30/7
f 51/31/9 50/32/9 49/33/9 52/34/9
f 10/35/10 15/36/10 7/25/10 8/24/10
f 29/37/11 22/38/11 21/39/11 26/40/11
f 53/41/12 55/42/12 49/43/12 50/44/12
f 6/45/13 8/46/13 3/47/14 2/48/14
f 22/38/15 61/49/15 63/50/15 18/51/15 59/52/15 17/53/15 21/39/15
f 43/54/7 44/55/16 41/56/16 42/57/7
f 22/58/17 29/59/18 31/60/18 23/61/19
f 45/62/20 48/63/20 46/64/21 47/65/21
f 29/59/18 32/66/22 30/67/22 31/60/18
f 39/3/23 40/2/23 42/68/23 47/69/23
f 15/70/24 14/71/24 5/72/25 7/73/25
f 24/74/5 21/75/5 17/76/26 19/77/26
f 48/78/27 44/79/27 43/80/27 46/81/27
f 34/82/20 35/83/20 58/84/20 65/84/20 39/85/28 38/86/29 60/87/20 61/87/20
f 31/88/30 30/89/30 25/90/30 27/91/30
f 33/92/16 37/93/8 40/94/8 36/95/16
f 32/96/31 29/37/31 26/40/31 28/97/31
f 47/65/21 46/64/21 38/86/29 39/85/28
f 42/68/32 41/98/32 45/99/32 47/69/32
f 10/100/33 8/46/13 6/45/13 11/101/33
f 78/102/34 68/103/34 67/104/34 75/105/34
f 23/106/35 31/88/35 27/91/35 24/107/35
f 46/81/36 43/80/36 37/108/36 38/109/36
f 45/110/37 41/111/37 44/112/37 48/113/37
f 30/114/38 32/115/38 28/116/38 25/117/38
f 70/118/39 69/11/39 74/14/39 76/119/39
f 52/120/14 54/121/14 56/122/14 51/123/14
f 53/124/40 56/125/40 54/126/40 55/127/40
f 15/70/24 16/128/12 13/129/12 14/71/24
f 51/130/41 56/131/41 53/132/41 50/133/41
f 10/35/6 12/134/6 16/135/6 15/36/6
f 20/136/42 57/137/42 58/137/42 23/106/42 24/107/42 19/138/42 82/139/42
f 18/140/22 62/141/22 60/141/22 22/58/17 23/61/19 65/142/22 64/142/22 20/143/22
f 4/144/12 7/73/25 5/72/25 1/145/12
f 70/146/43 76/147/43 75/105/43 67/104/43
f 77/148/44 66/149/44 68/150/44 78/151/44
f 79/152/45 72/153/45 71/154/45 80/155/45
f 72/153/46 79/152/46 81/156/46 73/157/46
f 71/158/14 69/159/14 67/160/14 66/161/14
f 25/162/26 28/163/26 26/164/4 27/165/4
f 79/166/12 77/167/12 75/168/12 74/169/12
f 16/170/47 12/171/47 9/172/47 13/173/47
f 38/109/48 37/108/48 33/174/48 59/175/48 34/176/48 62/177/48 63/177/48
f 66/161/14 67/160/14 68/178/14
f 11/179/49 6/180/49 5/181/49 14/182/49
f 67/160/14 69/159/14 70/183/14
f 72/184/14 69/159/14 71/158/14
f 69/159/14 72/184/14 73/185/14
f 74/169/12 75/168/12 76/186/12
f 75/168/12 77/167/12 78/187/12
f 9/188/14 12/189/14 10/100/33 11/101/33
f 77/167/12 79/166/12 80/190/12
f 79/166/12 74/169/12 81/191/12
f 80/192/50 71/193/50 66/149/50 77/148/50
f 86/194/51 87/195/51 90/196/51 89/197/51
f 85/198/12 84/199/12 96/200/12 95/201/12
f 85/198/52 86/202/52 89/203/52 84/199/52
f 92/204/53 98/205/53 97/206/53 91/207/53
f 97/208/54 89/209/55 90/210/56 91/211/56
f 93/212/57 94/213/57 83/214/57 88/215/57
f 83/216/58 94/217/58 91/211/56 90/210/56
f 87/218/59 88/215/59 83/214/59 90/219/59
f 86/220/60 85/221/61 95/222/61 98/223/60
f 92/204/62 91/207/62 94/224/62 93/225/62
f 96/226/63 97/206/63 98/205/63 95/227/63
f 97/208/54 96/228/64 84/229/64 89/209/55
f 98/223/60 92/230/65 87/231/65 86/220/60
f 87/231/65 92/230/65 93/232/66 88/233/66
