# Blender 4.0.1
# www.blender.org
mtllib traffic_cone_a.mtl
o SM_Traffic_Cone_A.mo
v -0.185338 0.046335 0.250000
v -0.242815 0.046335 0.221261
v -0.221261 0.046335 0.242815
v -0.250000 0.046335 0.185338
v 0.185338 0.046335 0.250000
v 0.250000 0.046335 0.185338
v 0.221261 0.046335 0.242815
v 0.242815 0.046335 0.221262
v -0.250000 0.046335 -0.185338
v 0.250000 0.046335 -0.185338
v -0.221261 0.046335 -0.242815
v -0.242815 0.046335 -0.221262
v -0.185338 0.046335 -0.250000
v 0.185338 0.046335 -0.250000
v 0.242815 0.046335 -0.221261
v 0.221261 0.046335 -0.242815
v -0.185338 0.046335 -0.250000
v 0.185338 0.046335 -0.250000
v 0.185338 -0.000000 -0.250000
v -0.185338 -0.000000 -0.250000
v -0.221261 0.046335 -0.242815
v -0.221261 -0.000000 -0.242815
v -0.242815 0.046335 -0.221262
v -0.242815 -0.000000 -0.221262
v -0.250000 0.046335 -0.185338
v -0.250000 -0.000000 -0.185338
v -0.250000 0.046335 0.185338
v -0.250000 -0.000000 0.185338
v -0.242815 0.046335 0.221261
v -0.242815 -0.000000 0.221261
v -0.221261 0.046335 0.242815
v -0.221261 -0.000000 0.242815
v -0.185338 0.046335 0.250000
v -0.185338 -0.000000 0.250000
v 0.250000 -0.000000 0.185338
v 0.250000 0.046335 -0.185338
v 0.250000 0.046335 0.185338
v 0.250000 -0.000000 -0.185338
v 0.242815 0.046335 -0.221261
v 0.242815 -0.000000 -0.221261
v 0.221261 0.046335 -0.242815
v 0.221261 -0.000000 -0.242815
v 0.185338 0.046335 0.250000
v 0.185338 -0.000000 0.250000
v 0.221261 0.046335 0.242815
v 0.221261 -0.000000 0.242815
v 0.242815 0.046335 0.221262
v 0.242815 -0.000000 0.221262
v -0.242815 -0.000000 0.221261
v -0.185338 -0.000000 0.250000
v -0.221261 -0.000000 0.242815
v -0.250000 -0.000000 0.185338
v 0.185338 -0.000000 0.250000
v 0.250000 -0.000000 0.185338
v 0.221261 -0.000000 0.242815
v 0.242815 -0.000000 0.221262
v 0.250000 -0.000000 -0.185338
v -0.250000 -0.000000 -0.185338
v -0.221261 -0.000000 -0.242815
v -0.242815 -0.000000 -0.221262
v -0.185338 -0.000000 -0.250000
v 0.185338 -0.000000 -0.250000
v 0.242815 -0.000000 -0.221261
v 0.221261 -0.000000 -0.242815
v 0.004075 0.901554 -0.023113
v -0.006563 0.894373 -0.037221
v -0.004076 0.901554 -0.023113
v 0.006563 0.894373 -0.037221
v -0.008295 0.881833 -0.047045
v 0.018897 0.894373 -0.032731
v 0.011735 0.901554 -0.020325
v 0.008295 0.881833 -0.047045
v -0.009406 0.851437 -0.053342
v 0.017979 0.901554 -0.015086
v 0.009406 0.851437 -0.053342
v -0.011909 0.782912 -0.067537
v 0.023885 0.881833 -0.041371
v 0.028953 0.894373 -0.024294
v 0.011909 0.782912 -0.067537
v -0.016921 0.645686 -0.095965
v 0.027082 0.851437 -0.046908
v 0.016921 0.645686 -0.095965
v -0.025695 0.405495 -0.145722
v 0.034289 0.782912 -0.059391
v 0.036595 0.881833 -0.030707
v 0.041493 0.851437 -0.034816
v 0.025695 0.405495 -0.145722
v -0.036978 0.096602 -0.209711
v 0.048722 0.645686 -0.084390
v 0.041134 0.044608 -0.233281
v -0.041134 0.044608 -0.233281
v 0.036978 0.096602 -0.209711
v 0.073985 0.405495 -0.128146
v 0.106473 0.096602 -0.184417
v 0.118440 0.044608 -0.205144
v 0.074647 0.645686 -0.062636
v 0.163126 0.096602 -0.136879
v 0.181460 0.044608 -0.152263
v 0.222594 0.044608 -0.081018
v 0.113351 0.405495 -0.095113
v 0.200104 0.096602 -0.072832
v 0.236879 0.044608 -0.000000
v 0.139046 0.405495 -0.050609
v 0.212946 0.096602 0.000000
v 0.200104 0.096602 0.072832
v 0.222594 0.044608 0.081018
v 0.147970 0.405495 0.000000
v 0.163126 0.096602 0.136879
v 0.181460 0.044608 0.152263
v 0.118440 0.044608 0.205144
v 0.139046 0.405495 0.050609
v 0.113351 0.405495 0.095113
v 0.106473 0.096602 0.184417
v 0.041134 0.044608 0.233281
v 0.074647 0.645686 0.062637
v 0.073985 0.405495 0.128146
v 0.036978 0.096602 0.209711
v -0.036978 0.096602 0.209711
v -0.041134 0.044608 0.233281
v 0.025695 0.405495 0.145722
v -0.106473 0.096602 0.184417
v -0.118440 0.044608 0.205144
v -0.025695 0.405495 0.145722
v -0.073985 0.405495 0.128146
v -0.163126 0.096602 0.136879
v -0.181460 0.044608 0.152263
v -0.222594 0.044608 0.081018
v -0.113351 0.405495 0.095113
v -0.200104 0.096602 0.072832
v -0.236880 0.044608 -0.000000
v -0.074647 0.645686 0.062636
v -0.139046 0.405495 0.050609
v -0.212946 0.096602 -0.000000
v -0.200104 0.096602 -0.072832
v -0.222594 0.044608 -0.081018
v -0.147970 0.405495 -0.000000
v -0.163126 0.096602 -0.136879
v -0.181460 0.044608 -0.152263
v -0.118440 0.044608 -0.205144
v -0.139046 0.405495 -0.050609
v -0.113351 0.405495 -0.095113
v -0.106473 0.096602 -0.184417
v -0.073985 0.405495 -0.128146
v -0.074647 0.645686 -0.062636
v -0.048723 0.645686 -0.084390
v -0.091568 0.645686 -0.033328
v -0.052535 0.782912 -0.044082
v -0.034290 0.782912 -0.059391
v -0.064443 0.782912 -0.023455
v -0.027082 0.851437 -0.046908
v -0.041493 0.851437 -0.034816
v -0.023886 0.881833 -0.041371
v -0.036595 0.881833 -0.030707
v -0.018898 0.894373 -0.032731
v -0.011735 0.901554 -0.020325
v -0.028953 0.894373 -0.024294
v -0.017979 0.901554 -0.015086
v -0.022054 0.901554 -0.008027
v -0.050898 0.851437 -0.018525
v -0.044890 0.881833 -0.016339
v -0.035516 0.894373 -0.012927
v -0.037795 0.894373 0.000000
v -0.023470 0.901554 0.000000
v -0.022054 0.901554 0.008027
v -0.047771 0.881833 0.000000
v -0.035516 0.894373 0.012927
v -0.028953 0.894373 0.024294
v -0.017979 0.901554 0.015086
v -0.044890 0.881833 0.016339
v -0.054165 0.851437 0.000000
v -0.036595 0.881833 0.030707
v -0.068579 0.782912 -0.000000
v -0.050898 0.851437 0.018525
v -0.097445 0.645686 -0.000000
v -0.064443 0.782912 0.023455
v -0.091568 0.645686 0.033328
v -0.041493 0.851437 0.034816
v -0.052535 0.782912 0.044082
v -0.048723 0.645686 0.084390
v -0.034290 0.782912 0.059391
v -0.016921 0.645686 0.095965
v -0.027082 0.851437 0.046908
v -0.011909 0.782912 0.067537
v 0.016921 0.645686 0.095965
v -0.023886 0.881833 0.041371
v -0.009406 0.851437 0.053342
v 0.011909 0.782912 0.067537
v 0.048722 0.645686 0.084390
v 0.034289 0.782912 0.059391
v 0.052535 0.782912 0.044082
v 0.091568 0.645686 0.033328
v 0.041493 0.851437 0.034816
v 0.064443 0.782912 0.023455
v 0.097445 0.645686 0.000000
v 0.027082 0.851437 0.046908
v 0.050898 0.851437 0.018525
v 0.009406 0.851437 0.053342
v 0.036595 0.881833 0.030707
v 0.023885 0.881833 0.041371
v -0.008295 0.881833 0.047045
v 0.008295 0.881833 0.047045
v -0.018898 0.894373 0.032731
v -0.011735 0.901554 0.020325
v -0.004076 0.901554 0.023113
v -0.006563 0.894373 0.037221
v 0.004075 0.901554 0.023113
v 0.006563 0.894373 0.037221
v 0.018897 0.894373 0.032732
v 0.011735 0.901554 0.020325
v 0.017979 0.901554 0.015086
v 0.028953 0.894373 0.024294
v 0.022054 0.901554 0.008027
v 0.044890 0.881833 0.016339
v 0.035516 0.894373 0.012927
v 0.023470 0.901554 0.000000
v 0.054165 0.851437 0.000000
v 0.037795 0.894373 0.000000
v 0.047771 0.881833 0.000000
v 0.035516 0.894373 -0.012927
v 0.022054 0.901554 -0.008027
v 0.044890 0.881833 -0.016339
v 0.050898 0.851437 -0.018525
v 0.068579 0.782912 0.000000
v 0.064443 0.782912 -0.023455
v 0.091568 0.645686 -0.033328
v 0.052535 0.782912 -0.044082
v -0.000000 0.901554 0.000000
vn -0.0000 1.0000 -0.0000
vn -0.0985 -0.0000 -0.9951
vn 0.0985 -0.0000 -0.9951
vn -0.1961 -0.0000 -0.9806
vn -0.7071 -0.0000 -0.7071
vn -0.9806 -0.0000 -0.1961
vn -0.9951 -0.0000 -0.0985
vn -0.9951 -0.0000 0.0985
vn -0.9806 -0.0000 0.1961
vn -0.7071 -0.0000 0.7071
vn -0.1961 -0.0000 0.9806
vn -0.0985 -0.0000 0.9951
vn 0.9951 -0.0000 0.0985
vn 0.9951 -0.0000 -0.0985
vn 0.9806 -0.0000 -0.1961
vn 0.7071 -0.0000 -0.7071
vn 0.1961 -0.0000 -0.9806
vn 0.0985 -0.0000 0.9951
vn 0.1961 -0.0000 0.9806
vn 0.7071 -0.0000 0.7071
vn 0.9806 -0.0000 0.1961
vn -0.0000 -1.0000 -0.0000
vn 0.0441 0.9672 -0.2503
vn -0.1119 0.7649 -0.6343
vn -0.0441 0.9672 -0.2503
vn 0.1119 0.7649 -0.6343
vn -0.1579 0.4161 -0.8955
vn 0.3221 0.7649 -0.5578
vn 0.1271 0.9672 -0.2201
vn 0.1579 0.4161 -0.8955
vn -0.1699 0.2058 -0.9637
vn 0.1947 0.9672 -0.1634
vn 0.1699 0.2058 -0.9637
vn 0.4547 0.4161 -0.7875
vn 0.4934 0.7649 -0.4140
vn 0.4893 0.2058 -0.8475
vn 0.6966 0.4161 -0.5845
vn 0.7496 0.2058 -0.6290
vn -0.1647 0.3177 -0.9338
vn 0.1577 0.4181 -0.8946
vn -0.1577 0.4181 -0.8946
vn 0.1647 0.3177 -0.9338
vn 0.4741 0.3177 -0.8212
vn 0.4542 0.4181 -0.7867
vn 0.7264 0.3177 -0.6095
vn 0.6959 0.4181 -0.5839
vn 0.8536 0.4181 -0.3107
vn 0.8910 0.3177 -0.3243
vn 0.9084 0.4181 -0.0000
vn 0.9196 0.2058 -0.3347
vn 0.9482 0.3177 -0.0000
vn 0.8910 0.3177 0.3243
vn 0.8536 0.4181 0.3107
vn 0.9786 0.2058 -0.0000
vn 0.7264 0.3177 0.6095
vn 0.6959 0.4181 0.5839
vn 0.4542 0.4181 0.7867
vn 0.9196 0.2058 0.3347
vn 0.7496 0.2058 0.6290
vn 0.4741 0.3177 0.8212
vn 0.1577 0.4181 0.8946
vn 0.4893 0.2058 0.8475
vn 0.1647 0.3177 0.9338
vn -0.1647 0.3177 0.9338
vn -0.1577 0.4181 0.8946
vn 0.1699 0.2058 0.9637
vn -0.4741 0.3177 0.8212
vn -0.4542 0.4181 0.7867
vn -0.1699 0.2058 0.9637
vn -0.4893 0.2058 0.8475
vn -0.7264 0.3177 0.6095
vn -0.6959 0.4181 0.5839
vn -0.8536 0.4181 0.3107
vn -0.7496 0.2058 0.6290
vn -0.8910 0.3177 0.3243
vn -0.9084 0.4181 -0.0000
vn -0.9196 0.2058 0.3347
vn -0.9482 0.3177 -0.0000
vn -0.8910 0.3177 -0.3243
vn -0.8536 0.4181 -0.3107
vn -0.9786 0.2058 -0.0000
vn -0.7264 0.3177 -0.6095
vn -0.6959 0.4181 -0.5839
vn -0.4542 0.4181 -0.7867
vn -0.9196 0.2058 -0.3347
vn -0.7496 0.2058 -0.6290
vn -0.4741 0.3177 -0.8212
vn -0.4893 0.2058 -0.8475
vn -0.4547 0.4161 -0.7875
vn -0.6966 0.4161 -0.5845
vn -0.3221 0.7649 -0.5578
vn -0.1271 0.9672 -0.2201
vn -0.4934 0.7649 -0.4140
vn -0.1947 0.9672 -0.1634
vn -0.2388 0.9672 -0.0869
vn -0.8545 0.4161 -0.3110
vn -0.6053 0.7649 -0.2203
vn -0.6441 0.7649 -0.0000
vn -0.2542 0.9672 -0.0000
vn -0.2388 0.9672 0.0869
vn -0.9093 0.4161 -0.0000
vn -0.6053 0.7649 0.2203
vn -0.4934 0.7649 0.4140
vn -0.1947 0.9672 0.1634
vn -0.8545 0.4161 0.3110
vn -0.6966 0.4161 0.5845
vn -0.4547 0.4161 0.7875
vn 0.6966 0.4161 0.5845
vn 0.4547 0.4161 0.7875
vn -0.1579 0.4161 0.8955
vn 0.1579 0.4161 0.8955
vn -0.3221 0.7649 0.5578
vn -0.1271 0.9672 0.2201
vn -0.0441 0.9672 0.2503
vn -0.1119 0.7649 0.6343
vn 0.0441 0.9672 0.2503
vn 0.1119 0.7649 0.6343
vn 0.3221 0.7649 0.5578
vn 0.1271 0.9672 0.2201
vn 0.1947 0.9672 0.1634
vn 0.4934 0.7649 0.4140
vn 0.2388 0.9672 0.0869
vn 0.8545 0.4161 0.3110
vn 0.6053 0.7649 0.2203
vn 0.2542 0.9672 -0.0000
vn 0.6441 0.7649 -0.0000
vn 0.9093 0.4161 -0.0000
vn 0.6053 0.7649 -0.2203
vn 0.2388 0.9672 -0.0869
vn 0.8545 0.4161 -0.3110
vt 0.854492 0.397461
vt 0.861816 0.405273
vt 0.856445 0.402344
vt 0.871582 0.406250
vt 0.854492 0.347656
vt 0.871582 0.339355
vt 0.856445 0.343262
vt 0.861816 0.340332
vt 0.971191 0.406250
vt 0.971191 0.339355
vt 0.986328 0.402344
vt 0.980957 0.405273
vt 0.988281 0.397461
vt 0.988281 0.347656
vt 0.980957 0.340332
vt 0.986328 0.343262
vt 0.982422 0.322754
vt 0.982422 0.269043
vt 0.995605 0.269043
vt 0.995605 0.322754
vt 0.982422 0.328125
vt 0.995605 0.328125
vt 0.982422 0.332520
vt 0.995605 0.332520
vt 0.982422 0.337891
vt 0.995605 0.337891
vt 0.980469 0.405273
vt 0.970703 0.406250
vt 0.970703 0.339355
vt 0.980469 0.340332
vt 0.872070 0.339355
vt 0.872070 0.406250
vt 0.862305 0.405273
vt 0.862305 0.340332
vt 0.971680 0.903992
vt 0.993164 0.898987
vt 0.993164 0.903992
vt 0.971680 0.898987
vt 0.993164 0.894165
vt 0.950195 0.898987
vt 0.950195 0.903992
vt 0.971680 0.894165
vt 0.993164 0.884521
vt 0.928223 0.903992
vt 0.971680 0.884521
vt 0.993164 0.861816
vt 0.950195 0.894165
vt 0.928223 0.898987
vt 0.971680 0.861816
vt 0.993164 0.815552
vt 0.950195 0.884521
vt 0.971680 0.815552
vt 0.993164 0.734131
vt 0.950195 0.861816
vt 0.928223 0.894165
vt 0.928223 0.884521
vt 0.957031 0.734131
vt 0.993164 0.628906
vt 0.950195 0.815552
vt 0.950684 0.610352
vt 0.993164 0.610352
vt 0.950684 0.628906
vt 0.941406 0.734131
vt 0.937500 0.628906
vt 0.937500 0.610352
vt 0.928223 0.815552
vt 0.923828 0.628906
vt 0.923828 0.610352
vt 0.906250 0.610352
vt 0.926270 0.734131
vt 0.906250 0.628906
vt 0.884766 0.610352
vt 0.906250 0.734131
vt 0.884766 0.628906
vt 0.863281 0.628906
vt 0.863281 0.610352
vt 0.884766 0.734131
vt 0.841797 0.628906
vt 0.841797 0.610352
vt 0.820312 0.610352
vt 0.863281 0.734131
vt 0.841797 0.734131
vt 0.820312 0.628906
vt 0.798340 0.610352
vt 0.841797 0.815552
vt 0.820312 0.734131
vt 0.798340 0.628906
vt 0.776367 0.628906
vt 0.776367 0.610352
vt 0.798340 0.734131
vt 0.754883 0.628906
vt 0.754883 0.610352
vt 0.776367 0.734131
vt 0.754883 0.734131
vt 0.733398 0.628906
vt 0.733398 0.610352
vt 0.711914 0.610352
vt 0.733398 0.734131
vt 0.711914 0.628906
vt 0.689941 0.610352
vt 0.733398 0.815552
vt 0.711914 0.734131
vt 0.689941 0.628906
vt 0.668457 0.628906
vt 0.668457 0.610352
vt 0.689941 0.734131
vt 0.658691 0.628906
vt 0.658691 0.610352
vt 0.646484 0.610352
vt 0.668457 0.734131
vt 0.656250 0.734131
vt 0.646484 0.628906
vt 0.603516 0.610352
vt 0.603516 0.628906
vt 0.640137 0.734131
vt 0.603516 0.734131
vt 0.646484 0.815552
vt 0.625000 0.815552
vt 0.603516 0.815552
vt 0.668457 0.815552
vt 0.646484 0.861816
vt 0.625000 0.861816
vt 0.603516 0.861816
vt 0.668457 0.861816
vt 0.625000 0.884521
vt 0.603516 0.884521
vt 0.646484 0.884521
vt 0.625000 0.894165
vt 0.603516 0.894165
vt 0.646484 0.894165
vt 0.625000 0.898987
vt 0.603516 0.898987
vt 0.603516 0.903992
vt 0.625000 0.903992
vt 0.646484 0.898987
vt 0.646484 0.903992
vt 0.668457 0.903992
vt 0.668457 0.884521
vt 0.668457 0.894165
vt 0.668457 0.898987
vt 0.689941 0.898987
vt 0.689941 0.903992
vt 0.711914 0.903992
vt 0.689941 0.894165
vt 0.711914 0.898987
vt 0.733398 0.898987
vt 0.733398 0.903992
vt 0.711914 0.894165
vt 0.689941 0.884521
vt 0.733398 0.894165
vt 0.689941 0.861816
vt 0.711914 0.884521
vt 0.689941 0.815552
vt 0.711914 0.861816
vt 0.711914 0.815552
vt 0.733398 0.884521
vt 0.733398 0.861816
vt 0.754883 0.815552
vt 0.754883 0.861816
vt 0.776367 0.815552
vt 0.754883 0.884521
vt 0.776367 0.861816
vt 0.798340 0.815552
vt 0.754883 0.894165
vt 0.776367 0.884521
vt 0.798340 0.861816
vt 0.820312 0.815552
vt 0.820312 0.861816
vt 0.841797 0.861816
vt 0.863281 0.815552
vt 0.841797 0.884521
vt 0.863281 0.861816
vt 0.884766 0.815552
vt 0.820312 0.884521
vt 0.863281 0.884521
vt 0.798340 0.884521
vt 0.841797 0.894165
vt 0.820312 0.894165
vt 0.776367 0.894165
vt 0.798340 0.894165
vt 0.754883 0.898987
vt 0.754883 0.903992
vt 0.776367 0.903992
vt 0.776367 0.898987
vt 0.798340 0.903992
vt 0.798340 0.898987
vt 0.820312 0.898987
vt 0.820312 0.903992
vt 0.841797 0.903992
vt 0.841797 0.898987
vt 0.863281 0.903992
vt 0.863281 0.894165
vt 0.863281 0.898987
vt 0.884766 0.903992
vt 0.884766 0.884521
vt 0.884766 0.898987
vt 0.884766 0.894165
vt 0.906250 0.898987
vt 0.906250 0.903992
vt 0.906250 0.894165
vt 0.906250 0.884521
vt 0.884766 0.861816
vt 0.906250 0.861816
vt 0.906250 0.815552
vt 0.928223 0.861816
vt 0.970215 0.574951
vt 0.968262 0.580322
vt 0.938477 0.574951
vt 0.968262 0.569580
vt 0.962891 0.585205
vt 0.962891 0.564697
vt 0.954590 0.588623
vt 0.954590 0.561279
vt 0.944336 0.590576
vt 0.944336 0.559326
vt 0.933105 0.590576
vt 0.933105 0.559326
vt 0.922852 0.588623
vt 0.922852 0.561279
vt 0.914062 0.585205
vt 0.914062 0.564697
vt 0.908691 0.580322
vt 0.908691 0.569580
vt 0.906738 0.574951
s 1
usemtl Material.007
f 1/1/1 2/2/1 3/3/1
f 1/1/1 4/4/1 2/2/1
f 5/5/1 4/4/1 1/1/1
f 4/4/1 5/5/1 6/6/1
f 7/7/1 6/6/1 5/5/1
f 6/6/1 7/7/1 8/8/1
f 4/4/1 6/6/1 9/9/1
f 9/9/1 6/6/1 10/10/1
f 9/9/1 11/11/1 12/12/1
f 11/11/1 9/9/1 13/13/1
f 9/9/1 14/14/1 13/13/1
f 14/14/1 9/9/1 10/10/1
f 15/15/1 14/14/1 10/10/1
f 14/14/1 15/15/1 16/16/1
f 17/17/2 18/18/3 19/19/3
f 17/17/2 19/19/3 20/20/2
f 17/17/2 20/20/2 21/21/4
f 21/21/4 20/20/2 22/22/4
f 22/22/5 23/23/5 21/21/5
f 23/23/5 22/22/5 24/24/5
f 23/23/6 24/24/6 25/25/7
f 25/25/7 24/24/6 26/26/7
f 26/19/7 27/17/8 25/18/7
f 27/17/8 26/19/7 28/20/8
f 27/17/8 28/20/8 29/21/9
f 29/21/9 28/20/8 30/22/9
f 29/21/10 30/22/10 31/23/10
f 31/23/10 30/22/10 32/24/10
f 32/24/11 33/25/12 31/23/11
f 33/25/12 32/24/11 34/26/12
f 35/19/13 36/17/14 37/18/13
f 36/17/14 35/19/13 38/20/14
f 36/17/14 38/20/14 39/21/15
f 39/21/15 38/20/14 40/22/15
f 39/21/16 40/22/16 41/23/16
f 41/23/16 40/22/16 42/24/16
f 42/24/17 18/25/3 41/23/17
f 18/25/3 42/24/17 19/26/3
f 43/17/18 33/18/12 34/19/12
f 43/17/18 34/19/12 44/20/18
f 43/17/18 44/20/18 45/21/19
f 45/21/19 44/20/18 46/22/19
f 46/22/20 47/23/20 45/21/20
f 47/23/20 46/22/20 48/24/20
f 47/23/21 48/24/21 37/25/13
f 37/25/13 48/24/21 35/26/13
f 49/27/22 50/13/22 51/11/22
f 52/28/22 50/13/22 49/27/22
f 52/28/22 53/14/22 50/13/22
f 53/14/22 52/28/22 54/29/22
f 53/14/22 54/29/22 55/16/22
f 55/16/22 54/29/22 56/30/22
f 52/28/22 57/31/22 54/29/22
f 58/32/22 57/31/22 52/28/22
f 59/3/22 58/32/22 60/33/22
f 58/32/22 59/3/22 61/1/22
f 62/5/22 58/32/22 61/1/22
f 58/32/22 62/5/22 57/31/22
f 57/31/22 62/5/22 63/34/22
f 63/34/22 62/5/22 64/7/22
f 65/35/23 66/36/24 67/37/25
f 66/36/24 65/35/23 68/38/26
f 66/36/24 68/38/26 69/39/27
f 65/35/23 70/40/28 68/38/26
f 70/40/28 65/35/23 71/41/29
f 68/38/26 72/42/30 69/39/27
f 68/38/26 70/40/28 72/42/30
f 72/42/30 73/43/31 69/39/27
f 74/44/32 70/40/28 71/41/29
f 73/43/31 72/42/30 75/45/33
f 75/45/33 76/46/31 73/43/31
f 70/40/28 77/47/34 72/42/30
f 77/47/34 75/45/33 72/42/30
f 74/44/32 78/48/35 70/40/28
f 78/48/35 77/47/34 70/40/28
f 76/46/31 75/45/33 79/49/33
f 79/49/33 80/50/31 76/46/31
f 75/45/33 77/47/34 81/51/36
f 81/51/36 79/49/33 75/45/33
f 80/50/31 79/49/33 82/52/33
f 82/52/33 83/53/31 80/50/31
f 79/49/33 81/51/36 84/54/36
f 84/54/36 82/52/33 79/49/33
f 85/55/37 81/51/36 77/47/34
f 85/55/37 77/47/34 78/48/35
f 86/56/38 84/54/36 81/51/36
f 81/51/36 85/55/37 86/56/38
f 83/53/31 82/52/33 87/57/33
f 88/58/39 83/53/31 87/57/33
f 82/52/33 84/54/36 89/59/36
f 89/59/36 87/57/33 82/52/33
f 88/58/39 90/60/40 91/61/41
f 87/57/33 92/62/42 88/58/39
f 90/60/40 88/58/39 92/62/42
f 92/62/42 87/57/33 93/63/36
f 87/57/33 89/59/36 93/63/36
f 92/62/42 94/64/43 90/60/40
f 93/63/36 94/64/43 92/62/42
f 94/64/43 95/65/44 90/60/40
f 96/66/38 93/63/36 89/59/36
f 94/64/43 97/67/45 95/65/44
f 97/67/45 98/68/46 95/65/44
f 97/67/45 99/69/47 98/68/46
f 94/64/43 93/63/36 100/70/38
f 100/70/38 97/67/45 94/64/43
f 93/63/36 96/66/38 100/70/38
f 99/69/47 97/67/45 101/71/48
f 100/70/38 101/71/48 97/67/45
f 101/71/48 102/72/49 99/69/47
f 101/71/48 100/70/38 103/73/50
f 103/73/50 100/70/38 96/66/38
f 102/72/49 101/71/48 104/74/51
f 103/73/50 104/74/51 101/71/48
f 104/74/51 105/75/52 102/72/49
f 105/75/52 106/76/53 102/72/49
f 104/74/51 103/73/50 107/77/54
f 105/75/52 108/78/55 106/76/53
f 108/78/55 109/79/56 106/76/53
f 108/78/55 110/80/57 109/79/56
f 111/81/58 105/75/52 104/74/51
f 104/74/51 107/77/54 111/81/58
f 112/82/59 108/78/55 105/75/52
f 105/75/52 111/81/58 112/82/59
f 110/80/57 108/78/55 113/83/60
f 112/82/59 113/83/60 108/78/55
f 113/83/60 114/84/61 110/80/57
f 111/81/58 115/85/59 112/82/59
f 113/83/60 112/82/59 116/86/62
f 112/82/59 115/85/59 116/86/62
f 114/84/61 113/83/60 117/87/63
f 116/86/62 117/87/63 113/83/60
f 117/87/63 118/88/64 114/84/61
f 118/88/64 119/89/65 114/84/61
f 117/87/63 116/86/62 120/90/66
f 118/88/64 121/91/67 119/89/65
f 121/91/67 122/92/68 119/89/65
f 123/93/69 118/88/64 117/87/63
f 117/87/63 120/90/66 123/93/69
f 124/94/70 121/91/67 118/88/64
f 118/88/64 123/93/69 124/94/70
f 121/91/67 125/95/71 122/92/68
f 125/95/71 126/96/72 122/92/68
f 125/95/71 127/97/73 126/96/72
f 128/98/74 125/95/71 121/91/67
f 121/91/67 124/94/70 128/98/74
f 127/97/73 125/95/71 129/99/75
f 128/98/74 129/99/75 125/95/71
f 129/99/75 130/100/76 127/97/73
f 124/94/70 131/101/74 128/98/74
f 129/99/75 128/98/74 132/102/77
f 132/102/77 128/98/74 131/101/74
f 130/100/76 129/99/75 133/103/78
f 132/102/77 133/103/78 129/99/75
f 133/103/78 134/104/79 130/100/76
f 134/104/79 135/105/80 130/100/76
f 133/103/78 132/102/77 136/106/81
f 134/104/79 137/107/82 135/105/80
f 137/107/82 138/108/83 135/105/80
f 137/107/82 139/109/84 138/108/83
f 140/110/85 134/104/79 133/103/78
f 133/103/78 136/106/81 140/110/85
f 141/111/86 137/107/82 134/104/79
f 134/104/79 140/110/85 141/111/86
f 139/109/84 137/107/82 142/112/87
f 141/111/86 142/112/87 137/107/82
f 142/112/87 91/113/41 139/109/84
f 91/113/41 142/112/87 88/114/39
f 143/115/88 88/114/39 142/112/87
f 142/112/87 141/111/86 143/115/88
f 88/114/39 143/115/88 83/116/31
f 141/111/86 144/117/86 143/115/88
f 140/110/85 144/117/86 141/111/86
f 83/116/31 143/115/88 145/118/88
f 145/118/88 143/115/88 144/117/86
f 80/119/31 83/116/31 145/118/88
f 144/117/86 140/110/85 146/120/85
f 136/106/81 146/120/85 140/110/85
f 147/121/86 145/118/88 144/117/86
f 146/120/85 147/121/86 144/117/86
f 148/122/88 80/119/31 145/118/88
f 145/118/88 147/121/86 148/122/88
f 80/119/31 148/122/88 76/123/31
f 147/121/86 146/120/85 149/124/85
f 150/125/88 76/123/31 148/122/88
f 76/123/31 150/125/88 73/126/31
f 151/127/86 148/122/88 147/121/86
f 148/122/88 151/127/86 150/125/88
f 149/124/85 151/127/86 147/121/86
f 152/128/89 73/126/31 150/125/88
f 73/126/31 152/128/89 69/129/27
f 153/130/90 150/125/88 151/127/86
f 150/125/88 153/130/90 152/128/89
f 154/131/91 69/129/27 152/128/89
f 154/131/91 152/128/89 153/130/90
f 69/129/27 154/131/91 66/132/24
f 154/131/91 67/133/25 66/132/24
f 154/131/91 155/134/92 67/133/25
f 155/134/92 154/131/91 156/135/93
f 156/135/93 154/131/91 153/130/90
f 156/135/93 157/136/94 155/134/92
f 156/135/93 158/137/95 157/136/94
f 159/138/85 153/130/90 151/127/86
f 151/127/86 149/124/85 159/138/85
f 156/135/93 153/130/90 160/139/96
f 153/130/90 159/138/85 160/139/96
f 158/137/95 156/135/93 161/140/97
f 161/140/97 156/135/93 160/139/96
f 161/140/97 162/141/98 158/137/95
f 158/137/95 162/141/98 163/142/99
f 162/141/98 164/143/100 163/142/99
f 161/140/97 160/139/96 165/144/101
f 162/141/98 161/140/97 165/144/101
f 164/143/100 162/141/98 166/145/102
f 165/144/101 166/145/102 162/141/98
f 167/146/103 164/143/100 166/145/102
f 164/143/100 167/146/103 168/147/104
f 166/145/102 165/144/101 169/148/105
f 169/148/105 167/146/103 166/145/102
f 160/139/96 170/149/81 165/144/101
f 170/149/81 169/148/105 165/144/101
f 170/149/81 160/139/96 159/138/85
f 167/146/103 169/148/105 171/150/106
f 159/138/85 172/151/81 170/149/81
f 172/151/81 159/138/85 149/124/85
f 169/148/105 170/149/81 173/152/77
f 172/151/81 173/152/77 170/149/81
f 173/152/77 171/150/106 169/148/105
f 149/124/85 174/153/81 172/151/81
f 174/153/81 149/124/85 146/120/85
f 146/120/85 136/106/81 174/153/81
f 173/152/77 172/151/81 175/154/77
f 174/153/81 175/154/77 172/151/81
f 174/153/81 136/106/81 176/155/77
f 175/154/77 174/153/81 176/155/77
f 136/106/81 132/102/77 176/155/77
f 176/155/77 132/102/77 131/101/74
f 175/154/77 177/156/74 173/152/77
f 171/150/106 173/152/77 177/156/74
f 176/155/77 178/157/74 175/154/77
f 178/157/74 176/155/77 131/101/74
f 177/156/74 175/154/77 178/157/74
f 179/158/70 178/157/74 131/101/74
f 131/101/74 124/94/70 179/158/70
f 123/93/69 179/158/70 124/94/70
f 180/159/70 177/156/74 178/157/74
f 178/157/74 179/158/70 180/159/70
f 179/158/70 123/93/69 181/160/69
f 181/160/69 180/159/70 179/158/70
f 120/90/66 181/160/69 123/93/69
f 177/156/74 180/159/70 182/161/70
f 182/161/70 171/150/106 177/156/74
f 180/159/70 181/160/69 183/162/69
f 183/162/69 182/161/70 180/159/70
f 181/160/69 120/90/66 184/163/66
f 184/163/66 183/162/69 181/160/69
f 171/150/106 182/161/70 185/164/107
f 182/161/70 183/162/69 186/165/69
f 186/165/69 185/164/107 182/161/70
f 183/162/69 184/163/66 187/166/66
f 187/166/66 186/165/69 183/162/69
f 184/163/66 120/90/66 188/167/62
f 120/90/66 116/86/62 188/167/62
f 188/167/62 116/86/62 115/85/59
f 189/168/62 184/163/66 188/167/62
f 184/163/66 189/168/62 187/166/66
f 190/169/59 188/167/62 115/85/59
f 188/167/62 190/169/59 189/168/62
f 191/170/58 190/169/59 115/85/59
f 115/85/59 111/81/58 191/170/58
f 107/77/54 191/170/58 111/81/58
f 192/171/59 189/168/62 190/169/59
f 190/169/59 191/170/58 193/172/58
f 193/172/58 192/171/59 190/169/59
f 191/170/58 107/77/54 194/173/54
f 194/173/54 193/172/58 191/170/58
f 189/168/62 192/171/59 195/174/62
f 195/174/62 187/166/66 189/168/62
f 192/171/59 193/172/58 196/175/58
f 187/166/66 195/174/62 197/176/66
f 186/165/69 187/166/66 197/176/66
f 198/177/108 195/174/62 192/171/59
f 196/175/58 198/177/108 192/171/59
f 199/178/109 197/176/66 195/174/62
f 195/174/62 198/177/108 199/178/109
f 197/176/66 200/179/110 186/165/69
f 185/164/107 186/165/69 200/179/110
f 197/176/66 199/178/109 201/180/111
f 200/179/110 197/176/66 201/180/111
f 202/181/112 185/164/107 200/179/110
f 202/181/112 171/150/106 185/164/107
f 171/150/106 202/181/112 167/146/103
f 202/181/112 168/147/104 167/146/103
f 168/147/104 202/181/112 203/182/113
f 202/181/112 204/183/114 203/182/113
f 205/184/115 202/181/112 200/179/110
f 204/183/114 202/181/112 205/184/115
f 205/184/115 200/179/110 201/180/111
f 205/184/115 206/185/116 204/183/114
f 207/186/117 205/184/115 201/180/111
f 206/185/116 205/184/115 207/186/117
f 201/180/111 208/187/118 207/186/117
f 206/185/116 207/186/117 208/187/118
f 208/187/118 201/180/111 199/178/109
f 206/185/116 208/187/118 209/188/119
f 208/187/118 210/189/120 209/188/119
f 199/178/109 211/190/121 208/187/118
f 210/189/120 208/187/118 211/190/121
f 211/190/121 199/178/109 198/177/108
f 211/190/121 212/191/122 210/189/120
f 211/190/121 198/177/108 213/192/123
f 198/177/108 196/175/58 213/192/123
f 212/191/122 211/190/121 214/193/124
f 214/193/124 211/190/121 213/192/123
f 214/193/124 215/194/125 212/191/122
f 216/195/54 213/192/123 196/175/58
f 215/194/125 214/193/124 217/196/126
f 214/193/124 213/192/123 218/197/127
f 217/196/126 214/193/124 218/197/127
f 213/192/123 216/195/54 218/197/127
f 215/194/125 217/196/126 219/198/128
f 218/197/127 219/198/128 217/196/126
f 219/198/128 220/199/129 215/194/125
f 219/198/128 74/44/32 220/199/129
f 74/44/32 219/198/128 78/48/35
f 219/198/128 218/197/127 221/200/130
f 221/200/130 78/48/35 219/198/128
f 216/195/54 221/200/130 218/197/127
f 78/48/35 221/200/130 85/55/37
f 222/201/50 85/55/37 221/200/130
f 221/200/130 216/195/54 222/201/50
f 85/55/37 222/201/50 86/56/38
f 223/202/54 222/201/50 216/195/54
f 196/175/58 223/202/54 216/195/54
f 223/202/54 196/175/58 193/172/58
f 193/172/58 194/173/54 223/202/54
f 222/201/50 223/202/54 224/203/50
f 194/173/54 224/203/50 223/202/54
f 224/203/50 86/56/38 222/201/50
f 224/203/50 194/173/54 225/204/50
f 194/173/54 107/77/54 225/204/50
f 107/77/54 103/73/50 225/204/50
f 225/204/50 103/73/50 96/66/38
f 86/56/38 224/203/50 226/205/38
f 225/204/50 226/205/38 224/203/50
f 226/205/38 225/204/50 96/66/38
f 84/54/36 86/56/38 226/205/38
f 89/59/36 226/205/38 96/66/38
f 226/205/38 89/59/36 84/54/36
f 215/206/125 220/207/129 227/208/1
f 212/209/122 215/206/125 227/208/1
f 220/207/129 74/210/32 227/208/1
f 210/211/120 212/209/122 227/208/1
f 74/210/32 71/212/29 227/208/1
f 209/213/119 210/211/120 227/208/1
f 71/212/29 65/214/23 227/208/1
f 206/215/116 209/213/119 227/208/1
f 65/214/23 67/216/25 227/208/1
f 204/217/114 206/215/116 227/208/1
f 67/216/25 155/218/92 227/208/1
f 203/219/113 204/217/114 227/208/1
f 155/218/92 157/220/94 227/208/1
f 168/221/104 203/219/113 227/208/1
f 157/220/94 158/222/95 227/208/1
f 164/223/100 168/221/104 227/208/1
f 158/222/95 163/224/99 227/208/1
f 163/224/99 164/223/100 227/208/1
