# Blender 4.0.1
# www.blender.org
mtllib Woodbox_b.mtl
o Box_b
v 0.550000 0.064304 2.350514
v 0.550000 0.064304 3.450514
v 0.550000 0.000000 3.450514
v 0.550000 -0.000000 2.350514
v 0.550000 2.200000 2.350514
v 0.550000 2.200000 3.450514
v 0.550000 2.138178 3.450514
v 0.550000 2.138178 2.350514
v -0.550000 0.064304 2.350514
v -0.550000 0.000000 3.450514
v -0.550000 0.064304 3.450514
v -0.550000 -0.000000 2.350514
v -0.550000 2.200000 2.350514
v -0.550000 2.138178 3.450514
v -0.550000 2.200000 3.450514
v -0.550000 2.138178 2.350514
v 0.550000 2.200000 3.450514
v 0.550000 2.138178 3.450514
v -0.550000 2.200000 3.450514
v -0.550000 2.138178 3.450514
v 0.550000 0.064304 3.450514
v -0.550000 0.064304 3.450514
v -0.550000 0.000000 3.450514
v -0.550000 -0.000000 2.350514
v 0.550000 0.000000 3.450514
v 0.550000 -0.000000 2.350514
v -0.550000 0.000000 3.450514
v 0.550000 0.000000 3.450514
v 0.550000 2.200000 2.350514
v 0.550000 2.138178 2.350514
v -0.550000 2.200000 2.350514
v -0.550000 2.138178 2.350514
v 0.550000 0.064304 2.350514
v -0.550000 0.064304 2.350514
v -0.550000 2.200000 2.350514
v -0.550000 2.200000 3.450514
v 0.550000 2.200000 2.350514
v 0.550000 2.200000 3.450514
v -0.550000 -0.000000 2.350514
v 0.550000 -0.000000 2.350514
vn 1.0000 -0.0000 -0.0000
vn -1.0000 -0.0000 -0.0000
vn -0.0000 -0.0000 1.0000
vn -0.0000 -1.0000 -0.0000
vn -0.0000 1.0000 -0.0000
vn -0.0000 -0.0000 -1.0000
vt 0.976562 0.378906
vt 0.976562 0.745361
vt 0.955566 0.745361
vt 0.955566 0.378906
vt 0.372314 0.000977
vt 0.738770 0.000977
vt 0.738770 0.691895
vt 0.372314 0.691895
vt 0.350805 0.696778
vt 0.717374 0.696778
vt 0.717374 0.995606
vt 0.350805 0.995606
vt 0.976074 0.367676
vt 0.976074 0.001465
vt 0.955078 0.001465
vt 0.955078 0.367676
vt 0.000604 0.691895
vt 0.000582 0.000977
vt 0.366943 0.000977
vt 0.366943 0.691895
vt 0.347731 0.995858
vt -0.000152 0.995858
vt -0.000152 0.697030
vt 0.347731 0.697030
vt 0.955078 0.003418
vt 0.976074 0.003418
vt 0.976074 0.370117
vt 0.955078 0.370117
s 0
usemtl MI_Box_Wood_Layered.002
f 7/1/1 8/2/1 5/3/1 6/4/1
f 9/4/2 12/1/2 10/2/2 11/3/2
f 13/2/2 16/3/2 14/4/2 15/1/2
f 22/5/3 21/6/3 18/7/3 20/8/3
f 24/9/4 26/10/4 25/11/4 23/12/4
f 21/13/3 22/14/3 27/15/3 28/16/3
f 7/17/1 2/18/1 1/19/1 8/20/1
f 36/21/5 38/22/5 37/23/5 35/24/5
f 29/25/6 30/26/6 32/27/6 31/28/6
f 30/7/6 33/6/6 34/5/6 32/8/6
f 9/18/2 11/19/2 14/20/2 16/17/2
f 20/28/3 18/25/3 17/26/3 19/27/3
f 33/16/6 40/13/6 39/14/6 34/15/6
f 3/3/1 4/4/1 1/1/1 2/2/1
