# Blender 4.0.1
# www.blender.org
mtllib Woodbox_a.mtl
o Box_a
v -0.589377 1.761156 4.951264
v -0.549671 1.761156 4.951264
v -0.549594 1.761156 4.902995
v -0.589377 1.579674 4.951264
v -0.549594 1.579674 4.902995
v -0.549671 1.579674 4.951264
v 0.576634 1.761156 3.772722
v 0.546615 1.761156 3.772722
v 0.546555 1.761156 3.806704
v -0.589377 1.579674 3.772722
v -0.549705 1.579674 3.772722
v -0.549560 1.579674 3.806704
v 0.546733 1.761156 4.951264
v 0.576634 1.761156 4.951264
v 0.546437 1.761156 4.902995
v 0.546437 1.579674 4.902995
v 0.576634 1.579674 4.951264
v 0.546733 1.579674 4.951264
v -0.549705 1.761156 3.772722
v -0.589377 1.761156 3.772722
v -0.549560 1.761156 3.806704
v 0.546615 1.579674 3.772722
v 0.576634 1.579674 3.772722
v 0.546555 1.579674 3.806704
v -0.583614 0.693092 4.936976
v -0.549671 0.693092 4.936976
v -0.549594 0.693092 4.902995
v -0.583614 0.511611 4.936976
v -0.549594 0.511611 4.902995
v -0.549671 0.511611 4.936976
v 0.580566 0.693092 3.772722
v 0.546615 0.693092 3.772722
v 0.546555 0.693092 3.806704
v -0.583614 0.511611 3.772722
v -0.549705 0.511611 3.772722
v -0.549560 0.511611 3.806704
v 0.546733 0.693092 4.936976
v 0.580566 0.693092 4.936976
v 0.546437 0.693092 4.902995
v 0.546437 0.511611 4.902995
v 0.580566 0.511611 4.936976
v 0.546733 0.511611 4.936976
v -0.549705 0.693092 3.772722
v -0.583614 0.693092 3.772722
v -0.549560 0.693092 3.806704
v 0.546615 0.511611 3.772722
v 0.580566 0.511611 3.772722
v 0.546555 0.511611 3.806704
v 0.550000 0.064304 3.804267
v 0.550000 0.064304 4.904267
v 0.550000 0.000000 4.904267
v 0.550000 -0.000000 3.804267
v 0.550000 2.200000 3.804266
v 0.550000 2.200000 4.904266
v 0.550000 2.138178 4.904266
v 0.550000 2.138178 3.804266
v -0.550000 0.064304 3.804267
v -0.550000 0.000000 4.904267
v -0.550000 0.064304 4.904267
v -0.550000 -0.000000 3.804267
v -0.550000 2.200000 3.804266
v -0.550000 2.138178 4.904266
v -0.550000 2.200000 4.904266
v -0.550000 2.138178 3.804266
v -0.589377 1.761156 4.951264
v -0.589377 1.761156 3.772722
v -0.589377 1.579674 3.772722
v -0.589377 1.579674 4.951264
v 0.546733 1.761156 4.951264
v 0.546733 1.579674 4.951264
v 0.576634 1.761156 4.951264
v 0.576634 1.579674 4.951264
v 0.576634 1.761156 3.772722
v 0.546615 1.579674 3.772722
v 0.546615 1.761156 3.772722
v 0.576634 1.579674 3.772722
v 0.576634 1.761156 4.951264
v 0.576634 1.579674 3.772722
v 0.576634 1.761156 3.772722
v 0.576634 1.579674 4.951264
v -0.549671 1.579674 4.951264
v -0.549671 1.761156 4.951264
v -0.589377 1.761156 4.951264
v -0.589377 1.579674 4.951264
v -0.549705 1.761156 3.772722
v -0.589377 1.579674 3.772722
v -0.589377 1.761156 3.772722
v -0.549705 1.579674 3.772722
v -0.583614 0.693092 4.936976
v -0.583614 0.693092 3.772722
v -0.583614 0.511611 3.772722
v -0.583614 0.511611 4.936976
v 0.546733 0.693092 4.936976
v 0.546733 0.511611 4.936976
v 0.580566 0.693092 4.936976
v 0.580566 0.511611 4.936976
v 0.580566 0.693092 3.772722
v 0.546615 0.511611 3.772722
v 0.546615 0.693092 3.772722
v 0.580566 0.511611 3.772722
v 0.580566 0.693092 4.936976
v 0.580566 0.511611 3.772722
v 0.580566 0.693092 3.772722
v 0.580566 0.511611 4.936976
v -0.549671 0.511611 4.936976
v -0.549671 0.693092 4.936976
v -0.583614 0.693092 4.936976
v -0.583614 0.511611 4.936976
v -0.549705 0.693092 3.772722
v -0.583614 0.511611 3.772722
v -0.583614 0.693092 3.772722
v -0.549705 0.511611 3.772722
v -0.414676 2.234140 3.809631
v -0.470478 2.234140 4.887819
v -0.253820 2.234140 3.817956
v -0.309622 2.234140 4.896144
v -0.309622 2.234140 4.896144
v -0.470478 2.234140 4.887819
v -0.470478 2.200000 4.887819
v -0.309622 2.200000 4.896144
v -0.253820 2.234140 3.817956
v -0.309622 2.234140 4.896144
v -0.309622 2.200000 4.896144
v -0.253820 2.200000 3.817956
v -0.414676 2.234140 3.809631
v -0.253820 2.234140 3.817956
v -0.253820 2.200000 3.817956
v -0.414676 2.200000 3.809631
v -0.470478 2.234140 4.887819
v -0.414676 2.234140 3.809631
v -0.414676 2.200000 3.809631
v -0.470478 2.200000 4.887819
v 0.263062 2.238741 3.815229
v 0.294100 2.238741 4.893440
v 0.414724 2.238741 3.810985
v 0.445813 2.238741 4.891943
v 0.445813 2.238741 4.891943
v 0.294100 2.238741 4.893440
v 0.294100 2.200000 4.893440
v 0.445813 2.200000 4.891943
v 0.414724 2.238741 3.810985
v 0.445813 2.238741 4.891943
v 0.445813 2.200000 4.891943
v 0.414724 2.200000 3.810985
v 0.263062 2.238741 3.815229
v 0.414724 2.238741 3.810985
v 0.414724 2.200000 3.810985
v 0.263062 2.200000 3.815229
v 0.294100 2.238741 4.893440
v 0.263062 2.238741 3.815229
v 0.263062 2.200000 3.815229
v 0.294100 2.200000 4.893440
v 0.550000 2.200000 4.904266
v 0.550000 2.138178 4.904266
v -0.550000 2.200000 4.904266
v -0.550000 2.138178 4.904266
v 0.550000 0.064304 4.904267
v -0.550000 0.064304 4.904267
v -0.550000 0.000000 4.904267
v -0.550000 -0.000000 3.804267
v 0.550000 0.000000 4.904267
v 0.550000 -0.000000 3.804267
v -0.550000 0.000000 4.904267
v 0.550000 0.000000 4.904267
v 0.550000 2.200000 3.804266
v 0.550000 2.138178 3.804266
v -0.550000 2.200000 3.804266
v -0.550000 2.138178 3.804266
v 0.550000 0.064304 3.804267
v -0.550000 0.064304 3.804267
v -0.550000 2.200000 3.804266
v -0.550000 2.200000 4.904266
v 0.550000 2.200000 3.804266
v 0.550000 2.200000 4.904266
v -0.550000 -0.000000 3.804267
v 0.550000 -0.000000 3.804267
vn -0.0000 1.0000 -0.0000
vn -0.0000 -1.0000 -0.0000
vn 1.0000 -0.0000 -0.0000
vn -1.0000 -0.0000 -0.0000
vn -0.0000 -0.0000 -1.0000
vn -0.0000 -0.0000 1.0000
vn -0.0517 -0.0000 0.9987
vn 0.9987 -0.0000 0.0517
vn 0.0517 -0.0000 -0.9987
vn -0.9987 -0.0000 -0.0517
vn 0.0099 -0.0000 1.0000
vn 0.9996 -0.0000 -0.0287
vn -0.0280 -0.0000 -0.9996
vn -0.9996 -0.0000 0.0288
vt 0.839844 0.400879
vt 0.828613 0.400879
vt 0.828613 0.390625
vt 0.900391 0.400879
vt 0.911621 0.388184
vt 0.911621 0.400879
vt 0.900391 0.012695
vt 0.911621 0.012695
vt 0.911621 0.022949
vt 0.828613 0.012695
vt 0.839844 0.012695
vt 0.828613 0.025391
vt 0.976562 0.378906
vt 0.976562 0.745361
vt 0.955566 0.745361
vt 0.955566 0.378906
vt 0.000604 0.691895
vt 0.000582 0.000977
vt 0.366943 0.000977
vt 0.366943 0.691895
vt 0.900391 0.414062
vt 0.839844 0.414062
vt 0.828613 0.428223
vt 0.828613 0.793457
vt 0.768066 0.793457
vt 0.768066 0.428223
vt 0.900391 0.002930
vt 0.839844 0.002930
vt 0.751953 0.793457
vt 0.751953 0.428223
vt 0.844727 0.428223
vt 0.844727 0.793457
vt 0.926270 0.794067
vt 0.872559 0.794067
vt 0.872559 0.435547
vt 0.926270 0.435547
vt 0.872559 0.423828
vt 0.926270 0.423828
vt 0.955078 0.367676
vt 0.976074 0.367676
vt 0.976074 0.001465
vt 0.955078 0.001465
vt 0.938477 0.435547
vt 0.938477 0.794067
vt 0.926270 0.806274
vt 0.872559 0.806274
vt 0.861328 0.794067
vt 0.861328 0.435547
vt 0.717374 0.995606
vt 0.350805 0.995606
vt 0.350805 0.696778
vt 0.717374 0.696778
vt 0.955078 0.370117
vt 0.955078 0.003418
vt 0.976074 0.003418
vt 0.976074 0.370117
vt 0.738770 0.000977
vt 0.738770 0.691895
vt 0.372314 0.691895
vt 0.372314 0.000977
vt 0.347731 0.995858
vt -0.000152 0.995858
vt -0.000152 0.697030
vt 0.347731 0.697030
s 0
usemtl MI_Box_Wood_Layered.002
f 1/1/1 2/2/1 3/3/1
f 4/4/2 5/5/2 6/6/2
f 7/1/1 8/2/1 9/3/1
f 10/7/2 11/8/2 12/9/2
f 13/10/1 14/11/1 15/12/1
f 16/9/2 17/7/2 18/8/2
f 19/10/1 20/11/1 21/12/1
f 22/6/2 23/4/2 24/5/2
f 25/1/1 26/2/1 27/3/1
f 28/4/2 29/5/2 30/6/2
f 31/1/1 32/2/1 33/3/1
f 34/7/2 35/8/2 36/9/2
f 37/10/1 38/11/1 39/12/1
f 40/9/2 41/7/2 42/8/2
f 43/10/1 44/11/1 45/12/1
f 46/6/2 47/4/2 48/5/2
f 55/13/3 56/14/3 53/15/3 54/16/3
f 57/16/4 60/13/4 58/14/4 59/15/4
f 61/14/4 64/15/4 62/16/4 63/13/4
f 67/7/4 68/4/4 65/1/4 66/11/4
f 55/17/3 50/18/3 49/19/3 56/20/3
f 73/1/5 76/4/5 74/21/5 75/22/5
f 20/11/1 3/3/1 21/12/1
f 3/3/1 20/11/1 1/1/1
f 4/4/2 10/7/2 5/5/2
f 5/5/2 10/7/2 12/9/2
f 69/23/6 82/24/6 81/25/6 70/26/6
f 77/11/3 80/7/3 78/4/3 79/1/3
f 83/1/6 84/4/6 81/21/6 82/22/6
f 7/1/1 15/12/1 14/11/1
f 15/12/1 7/1/1 9/3/1
f 16/9/2 23/4/2 17/7/2
f 23/4/2 16/9/2 24/5/2
f 94/27/6 96/7/6 95/11/6 93/28/6
f 6/25/2 5/29/2 16/30/2 18/26/2
f 39/31/1 27/32/1 26/24/1 37/23/1
f 85/28/5 88/27/5 86/7/5 87/11/5
f 91/7/4 92/4/4 89/1/4 90/11/4
f 45/31/1 33/32/1 32/24/1 43/23/1
f 15/31/1 3/32/1 2/24/1 13/23/1
f 97/1/5 100/4/5 98/21/5 99/22/5
f 44/11/1 27/3/1 45/12/1
f 27/3/1 44/11/1 25/1/1
f 28/4/2 34/7/2 29/5/2
f 29/5/2 34/7/2 36/9/2
f 93/23/6 106/24/6 105/25/6 94/26/6
f 101/11/3 104/7/3 102/4/3 103/1/3
f 107/1/6 108/4/6 105/21/6 106/22/6
f 38/11/1 31/1/1 33/3/1
f 38/11/1 33/3/1 39/12/1
f 48/5/2 41/7/2 40/9/2
f 47/4/2 41/7/2 48/5/2
f 109/23/5 99/24/5 98/25/5 112/26/5
f 30/25/2 29/29/2 40/30/2 42/26/2
f 134/33/1 136/34/1 135/35/1 133/36/1
f 109/28/5 112/27/5 110/7/5 111/11/5
f 119/37/7 120/38/7 117/36/7 118/35/7
f 12/30/2 11/26/2 22/25/2 24/29/2
f 169/39/5 176/40/5 175/41/5 170/42/5
f 21/31/1 9/32/1 8/24/1 19/23/1
f 36/30/2 35/26/2 46/25/2 48/29/2
f 123/43/8 124/44/8 121/33/8 122/36/8
f 127/45/9 128/46/9 125/34/9 126/33/9
f 131/47/10 132/48/10 129/35/10 130/34/10
f 139/45/11 140/46/11 137/34/11 138/33/11
f 143/47/12 144/48/12 141/35/12 142/34/12
f 147/37/13 148/38/13 145/36/13 146/35/13
f 151/43/14 152/44/14 149/33/14 150/36/14
f 161/49/2 159/50/2 160/51/2 162/52/2
f 57/18/4 59/19/4 62/20/4 64/17/4
f 167/53/5 165/54/5 166/55/5 168/56/5
f 153/55/6 155/56/6 156/53/6 154/54/6
f 157/57/6 154/58/6 156/59/6 158/60/6
f 172/61/1 174/62/1 173/63/1 171/64/1
f 70/27/6 72/7/6 71/11/6 69/28/6
f 166/58/5 169/57/5 170/60/5 168/59/5
f 157/40/6 158/41/6 163/42/6 164/39/6
f 114/35/1 116/36/1 115/33/1 113/34/1
f 75/24/5 74/25/5 88/26/5 85/23/5
f 51/15/3 52/16/3 49/13/3 50/14/3
