# Blender 4.0.1
# www.blender.org
mtllib Woodbox_c.mtl
o Box_c
v -0.550000 0.064259 0.749849
v 0.550000 0.064259 0.749849
v 0.550000 -0.000000 0.749849
v -0.550000 -0.000000 0.749849
v -0.550000 0.000000 1.849849
v 0.550000 0.000000 1.849849
v -0.550000 0.064259 1.849849
v 0.550000 0.064259 1.849849
v 0.550000 1.041905 0.749849
v -0.550000 1.041905 0.749849
v 0.550000 1.100000 0.749849
v -0.550000 1.100000 0.749849
v 0.550000 1.100000 1.849849
v -0.550000 1.100000 1.849849
v -0.550000 1.041905 1.849849
v 0.550000 1.041905 1.849849
v 0.447477 1.131834 0.748871
v 0.298040 1.100000 0.755373
v 0.298040 1.131834 0.755373
v 0.447477 1.100000 0.748871
v -0.425887 1.142415 0.752936
v -0.450820 1.142415 1.848052
v -0.219897 1.142415 0.760180
v -0.256299 1.142415 1.854892
v -0.256299 1.142415 1.854892
v -0.450820 1.142415 1.848052
v -0.450820 1.100000 1.848052
v -0.256299 1.100000 1.854892
v -0.219897 1.142415 0.760180
v -0.256299 1.142415 1.854892
v -0.256299 1.100000 1.854892
v -0.219897 1.100000 0.760180
v -0.425887 1.142415 0.752936
v -0.219897 1.142415 0.760180
v -0.219897 1.100000 0.760180
v -0.425887 1.100000 0.752936
v -0.450820 1.142415 1.848052
v -0.425887 1.142415 0.752936
v -0.425887 1.100000 0.752936
v -0.450820 1.100000 1.848052
v 0.550000 1.100000 1.849849
v 0.550000 1.041905 1.849849
v 0.550000 1.100000 0.749849
v 0.550000 1.041905 0.749849
v 0.550000 0.064259 1.849849
v 0.550000 0.000000 1.849849
v 0.550000 -0.000000 0.749849
v 0.550000 0.064259 0.749849
v 0.550000 1.100000 1.849849
v -0.550000 1.100000 1.849849
v 0.550000 1.100000 0.749849
v -0.550000 1.100000 0.749849
v -0.550000 1.100000 1.849849
v -0.550000 1.041905 1.849849
v -0.550000 1.100000 0.749849
v -0.550000 1.041905 0.749849
v -0.550000 0.000000 1.849849
v -0.550000 0.064259 1.849849
v -0.550000 -0.000000 0.749849
v -0.550000 0.064259 0.749849
v 0.489591 1.100000 1.784110
v 0.491866 1.131834 1.840045
v 0.491866 1.100000 1.840045
v 0.489591 1.131834 1.784110
v 0.447477 1.100000 0.748871
v 0.447477 1.131834 0.748871
v 0.319988 1.100000 1.791489
v 0.298040 1.131834 0.755373
v 0.298040 1.100000 0.755373
v 0.319988 1.131834 1.791489
v 0.321174 1.100000 1.847472
v 0.321174 1.131834 1.847472
v 0.491866 1.131834 1.840045
v 0.466849 1.100000 1.841006
v 0.491866 1.100000 1.840045
v 0.466849 1.131834 1.841134
v 0.458112 1.100000 1.838899
v 0.456457 1.131834 1.838971
v 0.436353 1.100000 1.823944
v 0.436353 1.131834 1.823944
v 0.423192 1.131834 1.830845
v 0.423192 1.100000 1.830802
v 0.410131 1.131834 1.843601
v 0.410131 1.100000 1.843506
v 0.321174 1.100000 1.847472
v 0.321174 1.131834 1.847472
v 0.550000 -0.000000 0.749849
v -0.550000 -0.000000 0.749849
v -0.550000 0.000000 1.849849
v 0.550000 0.000000 1.849849
v 0.489591 1.131834 1.784110
v 0.466849 1.131834 1.841134
v 0.491866 1.131834 1.840045
v 0.437317 1.131834 1.786384
v 0.447477 1.131834 0.748871
v 0.456457 1.131834 1.838971
v 0.298040 1.131834 0.755373
v 0.436353 1.131834 1.823944
v 0.423192 1.131834 1.830845
v 0.319988 1.131834 1.791489
v 0.410131 1.131834 1.843601
v 0.321174 1.131834 1.847472
vn -0.0000 -0.0000 -1.0000
vn -0.0000 -0.0000 1.0000
vn -0.0435 -0.0000 -0.9991
vn -0.9998 -0.0000 0.0212
vn -0.0351 -0.0000 0.9994
vn -0.0000 1.0000 -0.0000
vn -0.0000 -1.0000 -0.0000
vn 0.9992 -0.0000 -0.0406
vn -1.0000 -0.0000 -0.0000
vn 0.0435 -0.0000 0.9991
vn 0.0445 -0.0029 0.9990
vn 1.0000 -0.0000 -0.0000
vn -0.9997 -0.0000 -0.0228
vn -0.5987 -0.0000 0.8010
vn -0.5661 -0.0313 0.8237
vn 0.6973 -0.0021 0.7168
vn 0.6987 -0.0010 0.7154
vn 0.0435 -0.0040 0.9990
vn 0.0384 -0.0000 0.9993
vn 0.4621 -0.0012 0.8869
vn 0.4621 -0.0012 0.8868
vn 0.4644 -0.0000 0.8856
vn 0.0351 -0.0000 -0.9994
vn -0.2038 -0.0128 0.9789
vn -0.2345 -0.0039 0.9721
vn -0.2344 -0.0039 0.9721
vn 0.9994 -0.0000 0.0332
vt 0.349121 0.992851
vt 0.349121 0.697266
vt 0.715820 0.697266
vt 0.715820 0.992855
vt 0.955566 0.745361
vt 0.955566 0.378906
vt 0.976562 0.378906
vt 0.976562 0.745361
vt 0.841110 0.015004
vt 0.841110 0.004153
vt 0.900675 0.004153
vt 0.900675 0.015004
vt 0.913789 0.380548
vt 0.900675 0.380548
vt 0.913789 0.015004
vt 0.872559 0.423828
vt 0.926270 0.423828
vt 0.926270 0.435547
vt 0.872559 0.435547
vt 0.860236 0.380548
vt 0.738770 0.191406
vt 0.738770 0.490723
vt 0.372314 0.490723
vt 0.372314 0.191406
vt 0.829088 0.015004
vt 0.841110 0.380548
vt 0.829088 0.380548
vt 0.976074 0.370117
vt 0.955078 0.370117
vt 0.955078 0.003418
vt 0.976074 0.003418
vt 0.870945 0.414034
vt 0.839501 0.414034
vt 0.839501 0.400213
vt 0.870945 0.400213
vt 0.913789 0.399291
vt 0.900675 0.399291
vt 0.341553 0.696533
vt 0.341553 0.996908
vt 0.003647 0.996908
vt 0.003647 0.696533
vt 0.841110 0.399291
vt 0.829088 0.399291
vt 0.861328 0.794067
vt 0.861328 0.435547
vt 0.872559 0.794067
vt 0.926270 0.794067
vt 0.882925 0.414034
vt 0.882925 0.400213
vt 0.891909 0.400213
vt 0.891410 0.414034
vt 0.850400 0.399291
vt 0.877434 0.400213
vt 0.877434 0.414034
vt 0.903888 0.414034
vt 0.895403 0.414034
vt 0.895403 0.400213
vt 0.903888 0.400213
vt 0.926270 0.806274
vt 0.872559 0.806274
vt 0.871712 0.399291
vt 0.854225 0.398798
vt 0.861328 0.393373
vt 0.866247 0.395345
vt 0.938477 0.435547
vt 0.938477 0.794067
s 0
usemtl MI_Box_Wood_Layered.006
f 9/1/1 2/2/1 1/3/1 10/4/1
f 12/5/1 11/6/1 9/7/1 10/8/1
f 7/2/2 8/3/2 16/4/2 15/1/2
f 15/7/2 16/8/2 13/5/2 14/6/2
f 17/9/3 20/10/3 18/11/3 19/12/3
f 67/13/4 70/14/4 68/12/4 69/15/4
f 27/16/5 28/17/5 25/18/5 26/19/5
f 97/12/6 100/14/6 94/20/6 95/9/6
f 90/21/7 89/22/7 88/23/7 87/24/7
f 65/25/8 66/9/8 64/26/8 61/27/8
f 57/28/9 58/29/9 60/30/9 59/31/9
f 83/32/10 86/33/10 85/34/11 84/35/11
f 52/24/6 50/21/6 49/22/6 51/23/6
f 71/36/4 72/37/4 70/14/4 67/13/4
f 46/31/12 47/28/12 48/29/12 45/30/12
f 53/29/9 55/30/9 56/31/9 54/28/9
f 58/38/9 54/39/9 56/40/9 60/41/9
f 61/27/8 64/26/8 62/42/8 63/43/8
f 39/44/13 40/45/13 37/19/13 38/46/13
f 22/19/6 24/18/6 23/47/6 21/46/6
f 80/48/14 79/49/15 77/50/15 78/51/14
f 91/26/6 94/20/6 92/52/6 93/42/6
f 83/32/16 84/35/16 82/53/17 81/54/17
f 73/55/18 76/56/18 74/57/19 75/58/19
f 81/54/20 82/53/21 79/49/22 80/48/22
f 45/41/12 48/38/12 44/39/12 42/40/12
f 35/59/23 36/60/23 33/46/23 34/47/23
f 100/14/6 102/37/6 101/61/6 94/20/6
f 91/26/6 95/9/6 94/20/6
f 94/20/6 96/62/6 92/52/6
f 76/56/24 78/51/24 77/50/25 74/57/26
f 94/20/6 98/63/6 96/62/6
f 99/64/6 98/63/6 94/20/6
f 101/61/6 99/64/6 94/20/6
f 43/29/12 41/30/12 42/31/12 44/28/12
f 31/65/27 32/66/27 29/47/27 30/18/27
f 8/5/2 7/6/2 5/7/2 6/8/2
f 3/7/1 4/8/1 1/5/1 2/6/1
