# File exported by Houdini 16.5.405 (www.sidefx.com)
# 93 points
# 546 vertices
# 182 primitives
# Bounds: [-92.9450836, -1.42232311, -60.9877357] to [94.0190201, 53.428257, 60.8781242]
g 
v 82.521431 -1.42232311 33.6171951
v -75.6078339 35.6776505 -1.35704517
v 11.9109859 18.8496552 -53.8110237
v -22.8652706 21.5202255 -58.5518761
v 59.6435318 32.0353928 21.7441273
v -16.7879543 42.8571472 -35.7383804
v 78.8215256 -0.711687446 -23.6063881
v 78.0482254 29.062542 9.93850517
v -24.607605 -1.26729155 -26.6499386
v -35.5986671 -1.33334494 45.2981224
v -31.9755192 22.7601833 -31.5885048
v -16.8637276 46.2321396 42.1212883
v 73.2714386 29.8004799 -26.6815987
v -83.8526459 16.2628822 43.0990372
v 1.82539451 22.4572506 -42.5298653
v 89.3113937 17.926075 -0.898027539
v -46.8390236 20.1828461 45.1786499
v -10.095602 39.8018723 60.4382133
v -12.5780745 1.54866254 -60.9877357
v 68.0453262 28.6190796 26.705307
v -68.8543472 0.00667945482 -36.216507
v -6.29172182 16.9548187 60.8781242
v 10.3609657 45.1593628 24.2520809
v -71.3654861 22.3056126 -31.4932461
v 83.0982056 17.0966187 35.8255997
v -92.7522888 47.0904427 13.6261358
v -89.2824478 17.4087925 14.8449106
v 59.1526604 38.165638 22.4196606
v -3.12244654 41.4219933 -22.1287041
v -4.69301701 -1.16899133 56.68787
v -47.07304 47.5446548 -16.2108116
v 3.48521233 20.2576103 -44.3106346
v 65.6979523 19.9473362 30.3052254
v -80.6137314 36.9639359 23.4596348
v 37.7421913 -0.153686732 -49.8019104
v 10.8592596 15.6552277 54.0063972
v -59.9944382 -1.24777269 53.4669533
v -3.47954035 0.327036887 -53.7669334
v -32.1084023 44.7975578 45.4769249
v 94.0190201 7.66696072 12.1911526
v -69.8859253 -0.359538853 12.8277245
v 21.0380917 38.2023315 -49.9282608
v 51.1939659 33.3844719 -8.23069191
v -85.832428 53.307972 -0.297594041
v -30.0979099 16.9770145 40.5556793
v 50.1541138 18.9582615 -45.6862602
v -41.2462273 -0.102470927 -52.3210754
v -68.4225769 40.9917564 41.7259827
v 28.7661304 20.1018677 -48.2397308
v 43.9782104 32.6392975 36.0804253
v -92.0614471 0.185326412 30.6283245
v 58.6128883 20.0378342 45.6455841
v -82.0517044 45.3001595 -2.35306191
v -88.3704834 -1.32157397 29.3280315
v 77.5402985 19.6341534 9.08107567
v -5.78298426 45.3586845 12.134654
v -63.3762741 20.2508869 51.4203529
v -26.1540623 44.0656967 8.27204514
v 39.7490959 32.2462502 45.5578308
v -68.2731323 7.04635239 -34.0473404
v 31.9994659 42.4356194 38.7716713
v -92.9450836 53.428257 26.9463787
v 67.6251373 -1.11759269 -38.044075
v -83.9822845 -0.740197241 44.6332703
v 75.5838928 18.4121132 -31.1670628
v -75.071106 19.4406319 -31.1285286
v 73.9427643 19.0119476 -22.679924
v -90.3271255 44.5552101 32.817215
v -53.6429291 20.5974464 -46.1202545
v 76.7852173 8.44260883 -28.9237442
v 25.3743439 -1.25095034 50.7278366
v -80.1774292 20.2674809 4.32921219
v 55.1667252 36.6966286 -3.55692959
v -84.4361725 18.9949131 -16.5034313
v 61.9125404 -1.32992733 46.9744682
v -61.285511 21.5169945 32.0007744
v -81.9926529 0.0668879077 -10.8651447
v 11.548316 43.8417473 -7.5571909
v 13.8766489 21.5018101 -47.8598442
v 13.861927 44.6057091 15.2318611
v -10.7997007 41.7587471 40.6338768
v -84.2763824 41.4779282 22.8759995
v 23.155962 18.408987 51.2738647
v -67.1068192 36.0058441 -15.1091948
v 59.3176994 18.7917061 -34.8075104
v 46.192173 34.0761909 -44.9065514
v -76.7516632 9.11923409 -26.287714
v -67.392189 48.7608414 42.3548164
v -55.799015 21.7337914 38.7684517
v -5.24176693 21.5391216 -52.66922
v -55.5601463 43.694252 -19.2047176
v -57.2933464 22.7877674 -4.07655907
v 87.3721542 4.80608797 -15.5257101
vt 0.405082941 0.302126855 0
vt 0.0817724988 0.308282167 0
vt 0.0535536036 0.0585792996 0
vt 0.820599377 0.304127783 0
vt 0.930209041 0.303525418 0
vt 0.841690898 0.370284945 0
vt 0.314351916 0.600997448 0
vt 0.111114927 0.571029663 0
vt 0.350530416 0.533971369 0
vt 0.319400877 0.388650835 0
vt 0.18084012 0.359787434 0
vt 0.0817724988 0.308282167 0
vt 0.0495722666 0.255335838 0
vt -0.00266997702 0.129357353 0
vt 0.0535536036 0.0585792996 0
vt 0.319400877 0.388650835 0
vt 0.0817724988 0.308282167 0
vt 0.405082941 0.302126855 0
vt 0.276233822 0.930520535 0
vt 0.210616633 0.840053082 0
vt 0.345694065 0.821696818 0
vt 0.473260432 0.0477343462 0
vt 0.405082941 0.302126855 0
vt 0.129462674 0.0171395186 0
vt 0.104516141 0.930561781 0
vt 0.0108911833 0.881752491 0
vt 0.00520518236 0.799280047 0
vt 0.0566041321 0.785347581 0
vt 0.0777803957 0.811264753 0
vt 0.00520518236 0.799280047 0
vt 0.176621556 0.79652077 0
vt 0.108257987 0.800353229 0
vt 0.0897681713 0.771035016 0
vt 0.304655463 0.797340989 0
vt 0.176621556 0.79652077 0
vt 0.177433163 0.76228255 0
vt 0.780215204 0.538040161 0
vt 0.786368608 0.575490296 0
vt 0.717320263 0.587572932 0
vt 0.98931855 0.353046805 0
vt 0.924270868 0.328170687 0
vt 0.963234484 0.260083854 0
vt 0.111114927 0.571029663 0
vt 0.115428984 0.542687714 0
vt 0.350530416 0.533971369 0
vt 0.491207331 0.912154317 0
vt 0.422685027 0.987671494 0
vt 0.385925502 0.919479609 0
vt 0.385925502 0.919479609 0
vt 0.422685027 0.987671494 0
vt 0.356433302 0.991334856 0
vt 0.977675855 0.0189695619 0
vt 0.998519957 0.131015286 0
vt 0.873365402 0.00958149415 0
vt 0.656135559 0.127106488 0
vt 0.405082941 0.302126855 0
vt 0.473260432 0.0477343462 0
vt 0.529467463 0.399253428 0
vt 0.526321888 0.499609172 0
vt 0.443569452 0.407528013 0
vt 0.613396823 0.270124614 0
vt 0.452795208 0.398717314 0
vt 0.405082941 0.302126855 0
vt 0.381163388 0.470300466 0
vt 0.270264655 0.502151489 0
vt 0.273797423 0.436866552 0
vt 0.473260432 0.0477343462 0
vt 0.129462674 0.0171395186 0
vt 0.258239299 0.013030556 0
vt 0.455349416 0.787539661 0
vt 0.276233822 0.930520535 0
vt 0.441348106 0.748454094 0
vt 0.120215952 0.580850542 0
vt 0.155842587 0.651704848 0
vt 0.0320051461 0.594416678 0
vt 0.210616633 0.840053082 0
vt 0.276233822 0.930520535 0
vt 0.0777803957 0.811264753 0
vt 0.304655463 0.797340989 0
vt 0.177433163 0.76228255 0
vt 0.29215464 0.759757221 0
vt 0.508532882 0.811754346 0
vt 0.577789128 0.897735 0
vt 0.44166097 0.858598471 0
vt 0.656135559 0.127106488 0
vt 0.473260432 0.0477343462 0
vt 0.563945889 0.0288812742 0
vt 0.273797423 0.436866552 0
vt 0.270264655 0.502151489 0
vt 0.151405901 0.475177109 0
vt 0.385925502 0.919479609 0
vt 0.356433302 0.991334856 0
vt 0.34611851 0.916933894 0
vt 0.584101737 0.180114537 0
vt 0.613396823 0.270124614 0
vt 0.405082941 0.302126855 0
vt 0.600916505 0.529205263 0
vt 0.687065601 0.472829878 0
vt 0.717320263 0.587572932 0
vt 0.825592041 0.749910414 0
vt 0.730671585 0.750044048 0
vt 0.781474769 0.728950083 0
vt 0.806259692 0.572119057 0
vt 0.865008771 0.631330311 0
vt 0.800799191 0.685260892 0
vt 0.0495722666 0.255335838 0
vt 0.01629599 0.226337463 0
vt -0.00266997702 0.129357353 0
vt 0.916014433 0.765036523 0
vt 0.928002238 0.817984045 0
vt 0.839271843 0.846765339 0
vt 0.120215952 0.580850542 0
vt 0.177149445 0.585252941 0
vt 0.155842587 0.651704848 0
vt 0.54001683 0.985455096 0
vt 0.491207331 0.912154317 0
vt 0.603711545 0.911644876 0
vt 0.656377912 0.826784253 0
vt 0.772343397 0.851431489 0
vt 0.826502562 0.874293566 0
vt 0.884915411 0.505019903 0
vt 0.786368608 0.575490296 0
vt 0.780215204 0.538040161 0
vt 0.455691278 0.455931813 0
vt 0.443569452 0.407528013 0
vt 0.526321888 0.499609172 0
vt 0.646550953 0.0700361878 0
vt 0.656135559 0.127106488 0
vt 0.563945889 0.0288812742 0
vt 0.0897681713 0.771035016 0
vt 0.177433163 0.76228255 0
vt 0.176621556 0.79652077 0
vt 0.665496826 0.216877103 0
vt 0.768709123 0.128965929 0
vt 0.697627485 0.2778835 0
vt 0.808238089 0.370933086 0
vt 0.826493442 0.232921273 0
vt 0.820599377 0.304127783 0
vt 0.491648406 0.644134164 0
vt 0.612098217 0.645634711 0
vt 0.613160253 0.682606161 0
vt 0.147245407 0.754791975 0
vt 0.0831860676 0.709682763 0
vt 0.199089646 0.698980689 0
vt 0.826493442 0.232921273 0
vt 0.768709123 0.128965929 0
vt 0.873365402 0.00958149415 0
vt 0.687419653 0.934049666 0
vt 0.640154123 0.844731331 0
vt 0.741197586 0.911471426 0
vt 0.789333701 0.595062435 0
vt 0.777008712 0.656033218 0
vt 0.731050134 0.594389558 0
vt 0.826502562 0.874293566 0
vt 0.839271843 0.846765339 0
vt 0.928002238 0.817984045 0
vt 0.00935591944 0.307199836 0
vt 0.0078500649 0.239383861 0
vt 0.0569640882 0.314529866 0
vt 0.451924205 0.572272539 0
vt 0.381163388 0.470300466 0
vt 0.483741671 0.50624907 0
vt 0.151109874 0.909923494 0
vt 0.0777803957 0.811264753 0
vt 0.276233822 0.930520535 0
vt 0.737046003 0.992349148 0
vt 0.806252837 0.932231843 0
vt 0.861640155 0.952622473 0
vt 0.806259692 0.572119057 0
vt 0.800799191 0.685260892 0
vt 0.796445847 0.665155828 0
vt 0.808238089 0.370933086 0
vt 0.841690898 0.370284945 0
vt 0.862640619 0.454285026 0
vt 0.841690898 0.370284945 0
vt 0.808238089 0.370933086 0
vt 0.820599377 0.304127783 0
vt 0.115428984 0.542687714 0
vt 0.210649088 0.494952828 0
vt 0.350530416 0.533971369 0
vt 0.319066465 0.414784312 0
vt 0.454740971 0.476878941 0
vt 0.266138077 0.427442521 0
vt 0.800799191 0.685260892 0
vt 0.707450807 0.680222809 0
vt 0.796445847 0.665155828 0
vt 0.527859867 0.510599911 0
vt 0.454740971 0.476878941 0
vt 0.482631415 0.477552265 0
vt 0.781474769 0.728950083 0
vt 0.730671585 0.750044048 0
vt 0.716812551 0.720616937 0
vt 0.808238089 0.370933086 0
vt 0.736037135 0.340498507 0
vt 0.826493442 0.232921273 0
vt 0.697627485 0.2778835 0
vt 0.768709123 0.128965929 0
vt 0.826493442 0.232921273 0
vt 0.290436715 0.682242811 0
vt 0.333445728 0.667129755 0
vt 0.296685576 0.690916002 0
vt 0.766524255 0.758359849 0
vt 0.708247662 0.787025034 0
vt 0.666668057 0.748295784 0
vt 0.687065601 0.472829878 0
vt 0.697627485 0.2778835 0
vt 0.707646549 0.485570908 0
vt 0.687065601 0.472829878 0
vt 0.707646549 0.485570908 0
vt 0.780215204 0.538040161 0
vt 0.76113987 0.0932864174 0
vt 0.768709123 0.128965929 0
vt 0.665496826 0.216877103 0
vt 0.452795208 0.398717314 0
vt 0.348890245 0.417947024 0
vt 0.405082941 0.302126855 0
vt 0.276233822 0.930520535 0
vt 0.345694065 0.821696818 0
vt 0.441348106 0.748454094 0
vt 0.707646549 0.485570908 0
vt 0.697627485 0.2778835 0
vt 0.736037135 0.340498507 0
vt 0.607892871 0.936998546 0
vt 0.54001683 0.985455096 0
vt 0.603711545 0.911644876 0
vt 0.749367893 0.823852539 0
vt 0.688056588 0.824326873 0
vt 0.708247662 0.787025034 0
vt 0.826493442 0.232921273 0
vt 0.873365402 0.00958149415 0
vt 0.998519957 0.131015286 0
vt 0.826493442 0.232921273 0
vt 0.998519957 0.131015286 0
vt 0.963234484 0.260083854 0
vt 0.452795208 0.398717314 0
vt 0.613396823 0.270124614 0
vt 0.555748284 0.35364458 0
vt 0.276233822 0.930520535 0
vt 0.269138962 0.94435966 0
vt 0.211757913 0.950893044 0
vt 0.234542206 0.755984426 0
vt 0.147245407 0.754791975 0
vt 0.199089646 0.698980689 0
vt 0.347573102 0.908365011 0
vt 0.276233822 0.930520535 0
vt 0.437683016 0.846190453 0
vt 0.54001683 0.985455096 0
vt 0.422685027 0.987671494 0
vt 0.491207331 0.912154317 0
vt 0.959612727 0.888393521 0
vt 0.978226185 0.922165215 0
vt 0.861640155 0.952622473 0
vt 0.963234484 0.260083854 0
vt 0.998519957 0.131015286 0
vt 0.98931855 0.353046805 0
vt 0.37492311 0.753418565 0
vt 0.296685576 0.690916002 0
vt 0.421915293 0.675755501 0
vt 0.665496826 0.216877103 0
vt 0.697627485 0.2778835 0
vt 0.687065601 0.472829878 0
vt 0.861640155 0.952622473 0
vt 0.806252837 0.932231843 0
vt 0.896627665 0.891889811 0
vt 0.98931855 0.353046805 0
vt 0.884915411 0.505019903 0
vt 0.924270868 0.328170687 0
vt 0.405082941 0.302126855 0
vt 0.0535536036 0.0585792996 0
vt 0.129462674 0.0171395186 0
vt 0.296685576 0.690916002 0
vt 0.37492311 0.753418565 0
vt 0.250620902 0.695692539 0
vt 0.783910036 0.520088494 0
vt 0.736037135 0.340498507 0
vt 0.808238089 0.370933086 0
vt 0.708247662 0.787025034 0
vt 0.667781174 0.774075449 0
vt 0.666668057 0.748295784 0
vt 0.296685576 0.690916002 0
vt 0.250620902 0.695692539 0
vt 0.290436715 0.682242811 0
vt 0.640203238 0.729872704 0
vt 0.657442689 0.75769037 0
vt 0.565813124 0.705227613 0
vt 0.846666574 0.716964066 0
vt 0.825592041 0.749910414 0
vt 0.781474769 0.728950083 0
vt 0.928002238 0.817984045 0
vt 0.916014433 0.765036523 0
vt 0.99044615 0.703889489 0
vt 0.772343397 0.851431489 0
vt 0.839271843 0.846765339 0
vt 0.826502562 0.874293566 0
vt 0.0831860676 0.709682763 0
vt 0.0324609615 0.75942415 0
vt 0.0137088308 0.723901629 0
vt 0.707646549 0.485570908 0
vt 0.783910036 0.520088494 0
vt 0.780215204 0.538040161 0
vt 0.151109874 0.909923494 0
vt 0.00520518236 0.799280047 0
vt 0.0777803957 0.811264753 0
vt 0.151109874 0.909923494 0
vt 0.104516141 0.930561781 0
vt 0.00520518236 0.799280047 0
vt 0.649528921 0.944167078 0
vt 0.632888973 0.982263565 0
vt 0.607892871 0.936998546 0
vt 0.580409527 0.330321819 0
vt 0.665496826 0.216877103 0
vt 0.687065601 0.472829878 0
vt 0.820599377 0.304127783 0
vt 0.826493442 0.232921273 0
vt 0.930209041 0.303525418 0
vt 0.600916505 0.529205263 0
vt 0.570860982 0.419116855 0
vt 0.580409527 0.330321819 0
vt 0.600916505 0.529205263 0
vt 0.580409527 0.330321819 0
vt 0.687065601 0.472829878 0
vt 0.266138077 0.427442521 0
vt 0.216523916 0.371054083 0
vt 0.319066465 0.414784312 0
vt 0.0984444246 0.380649894 0
vt 0.186403647 0.405982673 0
vt 0.151405901 0.475177109 0
vt 0.780215204 0.538040161 0
vt 0.84875834 0.50755161 0
vt 0.884915411 0.505019903 0
vt 0.0817724988 0.308282167 0
vt 0.0495722666 0.255335838 0
vt 0.0535536036 0.0585792996 0
vt 0.959612727 0.888393521 0
vt 0.896627665 0.891889811 0
vt 0.931167245 0.860070646 0
vt 0.607892871 0.936998546 0
vt 0.632888973 0.982263565 0
vt 0.54001683 0.985455096 0
vt 0.186403647 0.405982673 0
vt 0.273797423 0.436866552 0
vt 0.151405901 0.475177109 0
vt 0.491648406 0.644134164 0
vt 0.350530416 0.533971369 0
vt 0.451924205 0.572272539 0
vt 0.314351916 0.600997448 0
vt 0.350530416 0.533971369 0
vt 0.491648406 0.644134164 0
vt 0.741197586 0.911471426 0
vt 0.640154123 0.844731331 0
vt 0.743035674 0.872843623 0
vt 0.821526468 0.827570856 0
vt 0.749367893 0.823852539 0
vt 0.766524255 0.758359849 0
vt 0.455349416 0.787539661 0
vt 0.437683016 0.846190453 0
vt 0.276233822 0.930520535 0
vt 0.736037135 0.340498507 0
vt 0.783910036 0.520088494 0
vt 0.707646549 0.485570908 0
vt 0.405082941 0.302126855 0
vt 0.348890245 0.417947024 0
vt 0.319400877 0.388650835 0
vt 0.800799191 0.685260892 0
vt 0.716812551 0.720616937 0
vt 0.707450807 0.680222809 0
vt 0.216523916 0.371054083 0
vt 0.266138077 0.427442521 0
vt 0.201747686 0.386994123 0
vt 0.473260432 0.0477343462 0
vt 0.258239299 0.013030556 0
vt 0.366372764 -0.000431794178 0
vt 0.595020294 0.809120834 0
vt 0.589179099 0.763930976 0
vt 0.614013612 0.793993175 0
vt 0.451924205 0.572272539 0
vt 0.410888404 0.547230124 0
vt 0.381163388 0.470300466 0
vt 0.54001683 0.985455096 0
vt 0.632888973 0.982263565 0
vt 0.621088862 0.994720459 0
vt 0.820085466 -0.00383926881 0
vt 0.795987725 0.0538522713 0
vt 0.688058555 0.0735946596 0
vt 0.115428984 0.542687714 0
vt 0.111114927 0.571029663 0
vt 0.0277427305 0.530888855 0
vt 0.717320263 0.587572932 0
vt 0.687065601 0.472829878 0
vt 0.780215204 0.538040161 0
vt 0.210649088 0.494952828 0
vt 0.115428984 0.542687714 0
vt 0.171786129 0.484107554 0
vt 0.783910036 0.520088494 0
vt 0.808238089 0.370933086 0
vt 0.862640619 0.454285026 0
vt 0.656135559 0.127106488 0
vt 0.671130359 0.125793129 0
vt 0.584101737 0.180114537 0
vt 0.929755569 0.68051517 0
vt 0.86656189 0.521535337 0
vt 0.944927394 0.623136222 0
vt 0.0831860676 0.709682763 0
vt 0.147245407 0.754791975 0
vt 0.0324609615 0.75942415 0
vt 0.99044615 0.703889489 0
vt 0.929755569 0.68051517 0
vt 0.944927394 0.623136222 0
vt 0.671267986 0.124346204 0
vt 0.656135559 0.127106488 0
vt 0.646550953 0.0700361878 0
vt 0.612098217 0.645634711 0
vt 0.491648406 0.644134164 0
vt 0.451924205 0.572272539 0
vt 0.37492311 0.753418565 0
vt 0.234542206 0.755984426 0
vt 0.250620902 0.695692539 0
vt 0.656135559 0.127106488 0
vt 0.584101737 0.180114537 0
vt 0.405082941 0.302126855 0
vt 0.723728776 0.863795459 0
vt 0.595020294 0.809120834 0
vt 0.656377912 0.826784253 0
vt 0.929755569 0.68051517 0
vt 0.99044615 0.703889489 0
vt 0.916014433 0.765036523 0
vt 0.234542206 0.755984426 0
vt 0.199089646 0.698980689 0
vt 0.250620902 0.695692539 0
vt 0.930209041 0.303525418 0
vt 0.826493442 0.232921273 0
vt 0.963234484 0.260083854 0
vt 0.708247662 0.787025034 0
vt 0.766524255 0.758359849 0
vt 0.749367893 0.823852539 0
vt 0.151405901 0.475177109 0
vt 0.0784069225 0.439593226 0
vt 0.0984444246 0.380649894 0
vt 0.862640619 0.454285026 0
vt 0.841690898 0.370284945 0
vt 0.920514643 0.325518459 0
vt 0.155842587 0.651704848 0
vt 0.177149445 0.585252941 0
vt 0.284109175 0.682993412 0
vt 0.657442689 0.75769037 0
vt 0.526155412 0.739029706 0
vt 0.565813124 0.705227613 0
vt 0.832860529 0.554191411 0
vt 0.865008771 0.631330311 0
vt 0.806259692 0.572119057 0
vt 0.270264655 0.502151489 0
vt 0.210649088 0.494952828 0
vt 0.151405901 0.475177109 0
vt 0.0566041321 0.785347581 0
vt 0.00520518236 0.799280047 0
vt 0.0413948447 0.74609977 0
vt 0.410888404 0.547230124 0
vt 0.270264655 0.502151489 0
vt 0.381163388 0.470300466 0
vt 0.00935591944 0.307199836 0
vt 0.0569640882 0.314529866 0
vt 0.0561611392 0.356927812 0
vt 0.0320051461 0.594416678 0
vt 0.155842587 0.651704848 0
vt 0.0328027196 0.686728895 0
vt 0.649858654 0.680752933 0
vt 0.707450807 0.680222809 0
vt 0.716812551 0.720616937 0
vt 0.996062458 0.840412438 0
vt 0.959612727 0.888393521 0
vt 0.931167245 0.860070646 0
vt 0.640154123 0.844731331 0
vt 0.687419653 0.934049666 0
vt 0.577789128 0.897735 0
vt 0.924270868 0.328170687 0
vt 0.884915411 0.505019903 0
vt 0.84875834 0.50755161 0
vt 0.565813124 0.705227613 0
vt 0.526155412 0.739029706 0
vt 0.421915293 0.675755501 0
vt 0.76113987 0.0932864174 0
vt 0.873365402 0.00958149415 0
vt 0.768709123 0.128965929 0
vt 0.526155412 0.739029706 0
vt 0.37492311 0.753418565 0
vt 0.421915293 0.675755501 0
vt 0.410888404 0.547230124 0
vt 0.451924205 0.572272539 0
vt 0.350530416 0.533971369 0
vt 0.395132542 0.400729686 0
vt 0.482631415 0.477552265 0
vt 0.454740971 0.476878941 0
vt 0.299720258 0.599176824 0
vt 0.333445728 0.667129755 0
vt 0.290436715 0.682242811 0
vt 0.737046003 0.992349148 0
vt 0.719900906 0.928370714 0
vt 0.806252837 0.932231843 0
vt 0.276233822 0.930520535 0
vt 0.211757913 0.950893044 0
vt 0.151109874 0.909923494 0
vt 0.795987725 0.0538522713 0
vt 0.667844772 0.135737404 0
vt 0.688058555 0.0735946596 0
vt 0.508532882 0.811754346 0
vt 0.640154123 0.844731331 0
vt 0.577789128 0.897735 0
vt 0.607473612 0.550165296 0
vt 0.451924205 0.572272539 0
vt 0.483741671 0.50624907 0
vt 0.607473612 0.550165296 0
vt 0.693473339 0.575647295 0
vt 0.668410301 0.641428053 0
vt 0.777008712 0.656033218 0
vt 0.677006423 0.653571784 0
vt 0.731050134 0.594389558 0
vt 0.656377912 0.826784253 0
vt 0.595020294 0.809120834 0
vt 0.614013612 0.793993175 0
vt 0.861640155 0.952622473 0
vt 0.896627665 0.891889811 0
vt 0.959612727 0.888393521 0
vt 0.138836667 0.344326764 0
vt 0.0561611392 0.356927812 0
vt 0.0569640882 0.314529866 0
vt 0.111114927 0.571029663 0
vt -0.000873633544 0.559813142 0
vt 0.0277427305 0.530888855 0
vt 0.736037135 0.340498507 0
vt 0.697627485 0.2778835 0
vt 0.826493442 0.232921273 0
vt 0.723728776 0.863795459 0
vt 0.656377912 0.826784253 0
vt 0.826502562 0.874293566 0
vt 0.607473612 0.550165296 0
vt 0.572395146 0.619630098 0
vt 0.451924205 0.572272539 0
vt 0.766524255 0.758359849 0
vt 0.859542251 0.746576369 0
vt 0.821526468 0.827570856 0
vt 0.668410301 0.641428053 0
vt 0.572395146 0.619630098 0
vt 0.607473612 0.550165296 0
vt 0.44166097 0.858598471 0
vt 0.472923398 0.785976887 0
vt 0.508532882 0.811754346 0
vn -0.0348211229 -0.992898047 -0.0404339358
vn 0.052797962 -0.915177107 -0.11752709
vn 0.243674546 -0.851336658 0.127662256
vn -0.00456999196 0.944834173 -0.257204205
vn 0.0323978849 0.979839027 0.090987213
vn 0.161332354 0.915118515 0.159101516
vn 0.0294050705 0.653167069 0.623576283
vn -0.0957213268 0.578543305 0.49963361
vn -0.0247552339 -0.343204081 0.755187988
vn 0.0361461975 -0.645143151 -0.383816272
vn 0.190564379 -0.304225028 -0.781870365
vn 0.052797962 -0.915177107 -0.11752709
vn 0.592422783 -0.714875281 -0.262304515
vn 0.796664298 -0.277581632 -0.0496383496
vn 0.243674546 -0.851336658 0.127662256
vn 0.0361461975 -0.645143151 -0.383816272
vn 0.052797962 -0.915177107 -0.11752709
vn -0.0348211229 -0.992898047 -0.0404339358
vn -0.0926105455 0.994179606 -0.0935068429
vn -0.236240283 0.309693515 -0.107718393
vn -0.3192105 0.10393253 -0.613346398
vn -0.0027839588 -0.870403588 0.11703562
vn -0.0348211229 -0.992898047 -0.0404339358
vn 0.0580707192 -0.837006748 0.258058608
vn -0.481305242 0.435270667 -0.210093111
vn -0.449215293 0.585266888 0.385393471
vn 0.000912934309 0.544848859 0.603436351
vn -0.542964399 -0.0441008583 0.266343772
vn -0.364750236 0.423890382 0.160049006
vn 0.000912934309 0.544848859 0.603436351
vn 0.375183582 0.726387262 0.0865122005
vn 0.53768903 0.446633697 0.549896657
vn 0.408493459 0.560171485 0.419431657
vn 0.466003835 0.563853502 -0.227806419
vn 0.375183582 0.726387262 0.0865122005
vn 0.350583881 0.748145938 0.0360801741
vn 0.788370192 0.382605791 0.311642408
vn 0.53768903 0.446633697 0.549896657
vn 0.375183582 0.726387262 0.0865122005
vn 0.0294050705 0.653167069 0.623576283
vn 0.107058391 0.616814494 0.533249319
vn 0.101693675 0.86197561 0.295384228
vn -0.0957213268 0.578543305 0.49963361
vn -0.443361461 -0.24584718 0.788403392
vn -0.0247552339 -0.343204081 0.755187988
vn -0.11715468 -0.679557323 -0.329803079
vn -0.0945002064 0.601085186 -0.616132855
vn 0.146364406 -0.547834158 -0.623525739
vn 0.146364406 -0.547834158 -0.623525739
vn -0.0945002064 0.601085186 -0.616132855
vn 0.433781922 0.503578782 -0.548788726
vn -0.285410404 0.747233272 0.273136079
vn -0.0957213268 0.578543305 0.49963361
vn -0.162962437 0.736836255 -0.242854878
vn -0.0751177743 -0.987998068 -0.0491156504
vn -0.0348211229 -0.992898047 -0.0404339358
vn -0.0027839588 -0.870403588 0.11703562
vn -0.280862182 -0.80362612 -0.171417087
vn -0.797017336 -0.375222415 -0.244292974
vn -0.594781578 0.274523646 0.13151969
vn -0.407599092 -0.722513795 0.057963822
vn -0.11715468 -0.679557323 -0.329803079
vn -0.0348211229 -0.992898047 -0.0404339358
vn -0.156811938 -0.102858201 0.719833016
vn 0.00437652972 -0.0301475208 0.81456995
vn -0.0027839588 -0.870403588 0.11703562
vn -0.0027839588 -0.870403588 0.11703562
vn 0.0580707192 -0.837006748 0.258058608
vn 0.0672388077 -0.648004055 0.489012569
vn 0.433781922 0.503578782 -0.548788726
vn -0.0926105455 0.994179606 -0.0935068429
vn -0.142732367 0.463673681 -0.516830206
vn -0.678394258 -0.709689677 -0.193364173
vn -0.236240283 0.309693515 -0.107718393
vn -0.538805485 -0.855445564 -0.0138843842
vn -0.236240283 0.309693515 -0.107718393
vn -0.0926105455 0.994179606 -0.0935068429
vn -0.364750236 0.423890382 0.160049006
vn 0.466003835 0.563853502 -0.227806419
vn 0.350583881 0.748145938 0.0360801741
vn 0.535453618 0.480795085 -0.160770148
vn -0.148949131 0.38023439 -0.824389637
vn 0.190564379 -0.304225028 -0.781870365
vn 0.0361461975 -0.645143151 -0.383816272
vn -0.0751177743 -0.987998068 -0.0491156504
vn -0.0027839588 -0.870403588 0.11703562
vn 0.060169667 -0.829736471 0.310354948
vn -0.0027839588 -0.870403588 0.11703562
vn 0.00437652972 -0.0301475208 0.81456995
vn 0.000912934309 0.544848859 0.603436351
vn 0.146364406 -0.547834158 -0.623525739
vn 0.433781922 0.503578782 -0.548788726
vn 0.0361461975 -0.645143151 -0.383816272
vn -0.280862182 -0.80362612 -0.171417087
vn -0.407599092 -0.722513795 0.057963822
vn -0.0348211229 -0.992898047 -0.0404339358
vn 0.466003835 0.563853502 -0.227806419
vn 0.180923119 0.938912392 -0.0640071109
vn 0.375183582 0.726387262 0.0865122005
vn -0.285410404 0.747233272 0.273136079
vn -0.162962437 0.736836255 -0.242854878
vn -0.747308433 -0.599233866 -0.333175123
vn -0.364750236 0.423890382 0.160049006
vn -0.443361461 -0.24584718 0.788403392
vn -0.684384286 -0.636929214 0.246125191
vn 0.592422783 -0.714875281 -0.262304515
vn 0.789594829 -0.275139004 -0.288572848
vn 0.796664298 -0.277581632 -0.0496383496
vn 0.350583881 0.748145938 0.0360801741
vn 0.592876732 0.683536232 -0.104451112
vn 0.535453618 0.480795085 -0.160770148
vn -0.678394258 -0.709689677 -0.193364173
vn -0.523334861 -0.428688854 -0.687602103
vn -0.236240283 0.309693515 -0.107718393
vn -0.459066272 -0.100551486 -0.872733295
vn -0.11715468 -0.679557323 -0.329803079
vn -0.343971014 -0.668966055 -0.356870741
vn 0.159009278 -0.0262125358 -0.732461452
vn 0.520564795 0.0822617188 -0.795186222
vn 0.449141085 0.432188094 -0.386108965
vn 0.29902339 0.604089797 0.469898462
vn 0.53768903 0.446633697 0.549896657
vn 0.788370192 0.382605791 0.311642408
vn -0.481305242 0.435270667 -0.210093111
vn -0.594781578 0.274523646 0.13151969
vn -0.797017336 -0.375222415 -0.244292974
vn -0.527423799 -0.382759273 0.625130713
vn -0.0751177743 -0.987998068 -0.0491156504
vn 0.060169667 -0.829736471 0.310354948
vn 0.408493459 0.560171485 0.419431657
vn 0.350583881 0.748145938 0.0360801741
vn 0.375183582 0.726387262 0.0865122005
vn -0.0627212971 0.788689613 -0.331084073
vn 0.15550667 0.985244632 -0.0259371195
vn 0.087569721 0.965443194 -0.101308569
vn 0.0538307875 0.991686046 -0.023424821
vn 0.0732039511 0.982448459 -0.0598562136
vn -0.00456999196 0.944834173 -0.257204205
vn 0.29902339 0.604089797 0.469898462
vn 0.408493459 0.560171485 0.419431657
vn 0.53768903 0.446633697 0.549896657
vn 0.261834949 0.784244657 -0.318072796
vn 0.520564795 0.0822617188 -0.795186222
vn 0.159009278 -0.0262125358 -0.732461452
vn 0.0732039511 0.982448459 -0.0598562136
vn 0.15550667 0.985244632 -0.0259371195
vn -0.162962437 0.736836255 -0.242854878
vn 0.052797962 -0.915177107 -0.11752709
vn 0.253191918 0.269089699 -0.770617783
vn 0.634619415 -0.106932014 -0.778077841
vn -0.527423799 -0.382759273 0.625130713
vn -0.449215293 0.585266888 0.385393471
vn -0.797017336 -0.375222415 -0.244292974
vn 0.449141085 0.432188094 -0.386108965
vn 0.535453618 0.480795085 -0.160770148
vn 0.592876732 0.683536232 -0.104451112
vn -0.747308433 -0.599233866 -0.333175123
vn -0.7220698 -0.583669662 -0.248081073
vn -0.684384286 -0.636929214 0.246125191
vn 0.136467367 0.289764583 0.864422143
vn -0.156811938 -0.102858201 0.719833016
vn 0.0672388077 -0.648004055 0.489012569
vn -0.594781578 0.274523646 0.13151969
vn -0.364750236 0.423890382 0.160049006
vn -0.0926105455 0.994179606 -0.0935068429
vn 0.439486176 0.552035391 0.413926005
vn 0.796664298 -0.277581632 -0.0496383496
vn 0.592876732 0.683536232 -0.104451112
vn -0.364750236 0.423890382 0.160049006
vn -0.684384286 -0.636929214 0.246125191
vn -0.538805485 -0.855445564 -0.0138843842
vn 0.0538307875 0.991686046 -0.023424821
vn 0.161332354 0.915118515 0.159101516
vn 0.180757374 0.853444695 0.280578375
vn 0.161332354 0.915118515 0.159101516
vn 0.0538307875 0.991686046 -0.023424821
vn -0.00456999196 0.944834173 -0.257204205
vn -0.443361461 -0.24584718 0.788403392
vn -0.197184071 -0.583439112 0.655696392
vn -0.0247552339 -0.343204081 0.755187988
vn 0.180757374 0.853444695 0.280578375
vn 0.107058391 0.616814494 0.533249319
vn 0.247856945 0.355030537 0.731914341
vn -0.684384286 -0.636929214 0.246125191
vn -0.678394258 -0.709689677 -0.193364173
vn -0.538805485 -0.855445564 -0.0138843842
vn 0.101693675 0.86197561 0.295384228
vn 0.107058391 0.616814494 0.533249319
vn 0.0323978849 0.979839027 0.090987213
vn -0.747308433 -0.599233866 -0.333175123
vn -0.162962437 0.736836255 -0.242854878
vn -0.7220698 -0.583669662 -0.248081073
vn 0.0538307875 0.991686046 -0.023424821
vn -0.0209243316 1.03108597 -0.0213171337
vn 0.0732039511 0.982448459 -0.0598562136
vn 0.087569721 0.965443194 -0.101308569
vn 0.15550667 0.985244632 -0.0259371195
vn 0.0732039511 0.982448459 -0.0598562136
vn -0.184485361 0.427594095 -0.565240085
vn 0.433781922 0.503578782 -0.548788726
vn -0.142732367 0.463673681 -0.516830206
vn -0.407599092 -0.722513795 0.057963822
vn -0.713278353 -0.195530877 -0.674882174
vn -0.343971014 -0.668966055 -0.356870741
vn 0.180923119 0.938912392 -0.0640071109
vn 0.087569721 0.965443194 -0.101308569
vn 0.413034976 0.734312952 -0.4344441
vn 0.180923119 0.938912392 -0.0640071109
vn 0.413034976 0.734312952 -0.4344441
vn 0.788370192 0.382605791 0.311642408
vn -0.238780305 0.5138219 -0.800372601
vn 0.15550667 0.985244632 -0.0259371195
vn -0.0627212971 0.788689613 -0.331084073
vn -0.11715468 -0.679557323 -0.329803079
vn 0.146364406 -0.547834158 -0.623525739
vn -0.0348211229 -0.992898047 -0.0404339358
vn -0.0926105455 0.994179606 -0.0935068429
vn -0.3192105 0.10393253 -0.613346398
vn -0.142732367 0.463673681 -0.516830206
vn 0.413034976 0.734312952 -0.4344441
vn 0.087569721 0.965443194 -0.101308569
vn -0.0209243316 1.03108597 -0.0213171337
vn -0.701795399 0.0830191746 -0.719461143
vn -0.459066272 -0.100551486 -0.872733295
vn -0.343971014 -0.668966055 -0.356870741
vn -0.739885688 0.460544139 -0.153135568
vn -0.663519382 0.393227875 -0.713183224
vn -0.713278353 -0.195530877 -0.674882174
vn 0.0732039511 0.982448459 -0.0598562136
vn -0.162962437 0.736836255 -0.242854878
vn -0.0957213268 0.578543305 0.49963361
vn 0.0732039511 0.982448459 -0.0598562136
vn -0.0957213268 0.578543305 0.49963361
vn 0.101693675 0.86197561 0.295384228
vn -0.11715468 -0.679557323 -0.329803079
vn -0.407599092 -0.722513795 0.057963822
vn -0.343971014 -0.668966055 -0.356870741
vn -0.0926105455 0.994179606 -0.0935068429
vn -0.663519382 0.393227875 -0.713183224
vn -0.739885688 0.460544139 -0.153135568
vn 0.0895670205 0.872903764 -0.231618404
vn 0.261834949 0.784244657 -0.318072796
vn 0.159009278 -0.0262125358 -0.732461452
vn -0.459066272 -0.100551486 -0.872733295
vn -0.0926105455 0.994179606 -0.0935068429
vn -0.0945002064 0.601085186 -0.616132855
vn -0.459066272 -0.100551486 -0.872733295
vn -0.0945002064 0.601085186 -0.616132855
vn -0.11715468 -0.679557323 -0.329803079
vn 0.634619415 -0.106932014 -0.778077841
vn 0.449141085 0.432188094 -0.386108965
vn 0.592876732 0.683536232 -0.104451112
vn 0.101693675 0.86197561 0.295384228
vn -0.0957213268 0.578543305 0.49963361
vn 0.0294050705 0.653167069 0.623576283
vn -0.0627212971 0.788689613 -0.331084073
vn -0.142732367 0.463673681 -0.516830206
vn -0.3192105 0.10393253 -0.613346398
vn -0.0627212971 0.788689613 -0.331084073
vn 0.087569721 0.965443194 -0.101308569
vn 0.180923119 0.938912392 -0.0640071109
vn 0.592876732 0.683536232 -0.104451112
vn 0.796664298 -0.277581632 -0.0496383496
vn 0.789594829 -0.275139004 -0.288572848
vn 0.0294050705 0.653167069 0.623576283
vn 0.29902339 0.604089797 0.469898462
vn 0.107058391 0.616814494 0.533249319
vn -0.0348211229 -0.992898047 -0.0404339358
vn 0.243674546 -0.851336658 0.127662256
vn 0.0580707192 -0.837006748 0.258058608
vn -0.142732367 0.463673681 -0.516830206
vn -0.0627212971 0.788689613 -0.331084073
vn -0.332958132 -0.213137165 -0.911566436
vn 0.25633052 0.910061538 0.0227837507
vn -0.0209243316 1.03108597 -0.0213171337
vn 0.0538307875 0.991686046 -0.023424821
vn -0.713278353 -0.195530877 -0.674882174
vn -0.701795399 0.0830191746 -0.719461143
vn -0.343971014 -0.668966055 -0.356870741
vn -0.142732367 0.463673681 -0.516830206
vn -0.332958132 -0.213137165 -0.911566436
vn -0.184485361 0.427594095 -0.565240085
vn -0.7220698 -0.583669662 -0.248081073
vn -0.162962437 0.736836255 -0.242854878
vn -0.523334861 -0.428688854 -0.687602103
vn -0.389454871 -0.588855028 0.289154232
vn -0.285410404 0.747233272 0.273136079
vn -0.747308433 -0.599233866 -0.333175123
vn 0.592876732 0.683536232 -0.104451112
vn 0.350583881 0.748145938 0.0360801741
vn 0.439486176 0.552035391 0.413926005
vn 0.520564795 0.0822617188 -0.795186222
vn 0.535453618 0.480795085 -0.160770148
vn 0.449141085 0.432188094 -0.386108965
vn 0.520564795 0.0822617188 -0.795186222
vn 0.466003835 0.563853502 -0.227806419
vn 0.535453618 0.480795085 -0.160770148
vn 0.413034976 0.734312952 -0.4344441
vn 0.25633052 0.910061538 0.0227837507
vn 0.788370192 0.382605791 0.311642408
vn -0.594781578 0.274523646 0.13151969
vn 0.000912934309 0.544848859 0.603436351
vn -0.364750236 0.423890382 0.160049006
vn -0.594781578 0.274523646 0.13151969
vn -0.481305242 0.435270667 -0.210093111
vn 0.000912934309 0.544848859 0.603436351
vn -0.713278353 -0.195530877 -0.674882174
vn -0.663519382 0.393227875 -0.713183224
vn -0.701795399 0.0830191746 -0.719461143
vn 0.0895670205 0.872903764 -0.231618404
vn -0.0627212971 0.788689613 -0.331084073
vn 0.180923119 0.938912392 -0.0640071109
vn -0.00456999196 0.944834173 -0.257204205
vn 0.0732039511 0.982448459 -0.0598562136
vn 0.0323978849 0.979839027 0.090987213
vn 0.466003835 0.563853502 -0.227806419
vn 0.261834949 0.784244657 -0.318072796
vn 0.0895670205 0.872903764 -0.231618404
vn 0.466003835 0.563853502 -0.227806419
vn 0.0895670205 0.872903764 -0.231618404
vn 0.180923119 0.938912392 -0.0640071109
vn 0.247856945 0.355030537 0.731914341
vn 0.25633052 0.910061538 0.0227837507
vn 0.180757374 0.853444695 0.280578375
vn -0.527423799 -0.382759273 0.625130713
vn 0.060169667 -0.829736471 0.310354948
vn 0.000912934309 0.544848859 0.603436351
vn 0.788370192 0.382605791 0.311642408
vn 0.247856945 0.355030537 0.731914341
vn 0.29902339 0.604089797 0.469898462
vn 0.052797962 -0.915177107 -0.11752709
vn 0.592422783 -0.714875281 -0.262304515
vn 0.243674546 -0.851336658 0.127662256
vn 0.634619415 -0.106932014 -0.778077841
vn 0.789594829 -0.275139004 -0.288572848
vn 0.592422783 -0.714875281 -0.262304515
vn -0.701795399 0.0830191746 -0.719461143
vn -0.663519382 0.393227875 -0.713183224
vn -0.459066272 -0.100551486 -0.872733295
vn 0.060169667 -0.829736471 0.310354948
vn -0.0027839588 -0.870403588 0.11703562
vn 0.000912934309 0.544848859 0.603436351
vn 0.29902339 0.604089797 0.469898462
vn -0.0247552339 -0.343204081 0.755187988
vn 0.136467367 0.289764583 0.864422143
vn 0.0294050705 0.653167069 0.623576283
vn -0.0247552339 -0.343204081 0.755187988
vn 0.29902339 0.604089797 0.469898462
vn 0.634619415 -0.106932014 -0.778077841
vn 0.253191918 0.269089699 -0.770617783
vn 0.449141085 0.432188094 -0.386108965
vn -0.594781578 0.274523646 0.13151969
vn -0.739885688 0.460544139 -0.153135568
vn -0.407599092 -0.722513795 0.057963822
vn 0.433781922 0.503578782 -0.548788726
vn -0.0945002064 0.601085186 -0.616132855
vn -0.0926105455 0.994179606 -0.0935068429
vn -0.0209243316 1.03108597 -0.0213171337
vn 0.25633052 0.910061538 0.0227837507
vn 0.413034976 0.734312952 -0.4344441
vn -0.0348211229 -0.992898047 -0.0404339358
vn 0.146364406 -0.547834158 -0.623525739
vn 0.0361461975 -0.645143151 -0.383816272
vn -0.684384286 -0.636929214 0.246125191
vn -0.7220698 -0.583669662 -0.248081073
vn -0.678394258 -0.709689677 -0.193364173
vn 0.25633052 0.910061538 0.0227837507
vn 0.247856945 0.355030537 0.731914341
vn 0.788370192 0.382605791 0.311642408
vn -0.0027839588 -0.870403588 0.11703562
vn 0.0672388077 -0.648004055 0.489012569
vn -0.156811938 -0.102858201 0.719833016
vn -0.148949131 0.38023439 -0.824389637
vn -0.184485361 0.427594095 -0.565240085
vn -0.332958132 -0.213137165 -0.911566436
vn 0.136467367 0.289764583 0.864422143
vn 0.106504373 -0.52098912 0.807075381
vn -0.156811938 -0.102858201 0.719833016
vn -0.459066272 -0.100551486 -0.872733295
vn -0.663519382 0.393227875 -0.713183224
vn -0.0926105455 0.994179606 -0.0935068429
vn -0.197184071 -0.583439112 0.655696392
vn 0.00437652972 -0.0301475208 0.81456995
vn -0.0247552339 -0.343204081 0.755187988
vn -0.443361461 -0.24584718 0.788403392
vn -0.0957213268 0.578543305 0.49963361
vn -0.389454871 -0.588855028 0.289154232
vn 0.375183582 0.726387262 0.0865122005
vn 0.180923119 0.938912392 -0.0640071109
vn 0.788370192 0.382605791 0.311642408
vn -0.197184071 -0.583439112 0.655696392
vn -0.443361461 -0.24584718 0.788403392
vn -0.542964399 -0.0441008583 0.266343772
vn 0.25633052 0.910061538 0.0227837507
vn 0.0538307875 0.991686046 -0.023424821
vn 0.180757374 0.853444695 0.280578375
vn -0.0751177743 -0.987998068 -0.0491156504
vn -0.797017336 -0.375222415 -0.244292974
vn -0.280862182 -0.80362612 -0.171417087
vn 0.408493459 0.560171485 0.419431657
vn 0.136467367 0.289764583 0.864422143
vn 0.141379789 0.782386482 0.46992889
vn 0.520564795 0.0822617188 -0.795186222
vn 0.261834949 0.784244657 -0.318072796
vn 0.466003835 0.563853502 -0.227806419
vn 0.439486176 0.552035391 0.413926005
vn 0.408493459 0.560171485 0.419431657
vn 0.141379789 0.782386482 0.46992889
vn -0.797017336 -0.375222415 -0.244292974
vn -0.0751177743 -0.987998068 -0.0491156504
vn -0.527423799 -0.382759273 0.625130713
vn 0.408493459 0.560171485 0.419431657
vn 0.29902339 0.604089797 0.469898462
vn 0.136467367 0.289764583 0.864422143
vn -0.0627212971 0.788689613 -0.331084073
vn 0.0895670205 0.872903764 -0.231618404
vn -0.332958132 -0.213137165 -0.911566436
vn -0.0751177743 -0.987998068 -0.0491156504
vn -0.280862182 -0.80362612 -0.171417087
vn -0.0348211229 -0.992898047 -0.0404339358
vn 0.253191918 0.269089699 -0.770617783
vn -0.148949131 0.38023439 -0.824389637
vn 0.159009278 -0.0262125358 -0.732461452
vn 0.408493459 0.560171485 0.419431657
vn 0.439486176 0.552035391 0.413926005
vn 0.350583881 0.748145938 0.0360801741
vn 0.0895670205 0.872903764 -0.231618404
vn 0.159009278 -0.0262125358 -0.732461452
vn -0.332958132 -0.213137165 -0.911566436
vn 0.0323978849 0.979839027 0.090987213
vn 0.0732039511 0.982448459 -0.0598562136
vn 0.101693675 0.86197561 0.295384228
vn -0.713278353 -0.195530877 -0.674882174
vn -0.407599092 -0.722513795 0.057963822
vn -0.739885688 0.460544139 -0.153135568
vn 0.000912934309 0.544848859 0.603436351
vn -0.449215293 0.585266888 0.385393471
vn -0.527423799 -0.382759273 0.625130713
vn 0.180757374 0.853444695 0.280578375
vn 0.161332354 0.915118515 0.159101516
vn 0.107058391 0.616814494 0.533249319
vn -0.236240283 0.309693515 -0.107718393
vn -0.523334861 -0.428688854 -0.687602103
vn -0.3192105 0.10393253 -0.613346398
vn -0.162962437 0.736836255 -0.242854878
vn -0.238780305 0.5138219 -0.800372601
vn -0.523334861 -0.428688854 -0.687602103
vn -0.542964399 -0.0441008583 0.266343772
vn -0.443361461 -0.24584718 0.788403392
vn -0.364750236 0.423890382 0.160049006
vn 0.00437652972 -0.0301475208 0.81456995
vn -0.197184071 -0.583439112 0.655696392
vn 0.000912934309 0.544848859 0.603436351
vn -0.542964399 -0.0441008583 0.266343772
vn 0.000912934309 0.544848859 0.603436351
vn -0.197184071 -0.583439112 0.655696392
vn 0.106504373 -0.52098912 0.807075381
vn 0.00437652972 -0.0301475208 0.81456995
vn -0.156811938 -0.102858201 0.719833016
vn -0.747308433 -0.599233866 -0.333175123
vn -0.684384286 -0.636929214 0.246125191
vn -0.389454871 -0.588855028 0.289154232
vn -0.538805485 -0.855445564 -0.0138843842
vn -0.236240283 0.309693515 -0.107718393
vn -0.364750236 0.423890382 0.160049006
vn -0.523334861 -0.428688854 -0.687602103
vn -0.678394258 -0.709689677 -0.193364173
vn -0.7220698 -0.583669662 -0.248081073
vn 0.052797962 -0.915177107 -0.11752709
vn 0.634619415 -0.106932014 -0.778077841
vn 0.592422783 -0.714875281 -0.262304515
vn 0.253191918 0.269089699 -0.770617783
vn 0.052797962 -0.915177107 -0.11752709
vn 0.190564379 -0.304225028 -0.781870365
vn 0.107058391 0.616814494 0.533249319
vn 0.29902339 0.604089797 0.469898462
vn 0.247856945 0.355030537 0.731914341
vn -0.523334861 -0.428688854 -0.687602103
vn -0.238780305 0.5138219 -0.800372601
vn -0.3192105 0.10393253 -0.613346398
vn -0.238780305 0.5138219 -0.800372601
vn -0.162962437 0.736836255 -0.242854878
vn 0.15550667 0.985244632 -0.0259371195
vn -0.238780305 0.5138219 -0.800372601
vn -0.0627212971 0.788689613 -0.331084073
vn -0.3192105 0.10393253 -0.613346398
vn 0.106504373 -0.52098912 0.807075381
vn 0.136467367 0.289764583 0.864422143
vn -0.0247552339 -0.343204081 0.755187988
vn 0.161332354 0.915118515 0.159101516
vn 0.0323978849 0.979839027 0.090987213
vn 0.107058391 0.616814494 0.533249319
vn 0.0361461975 -0.645143151 -0.383816272
vn 0.433781922 0.503578782 -0.548788726
vn -0.184485361 0.427594095 -0.565240085
vn 0.439486176 0.552035391 0.413926005
vn 0.243674546 -0.851336658 0.127662256
vn 0.796664298 -0.277581632 -0.0496383496
vn -0.0926105455 0.994179606 -0.0935068429
vn -0.739885688 0.460544139 -0.153135568
vn -0.594781578 0.274523646 0.13151969
vn 0.00437652972 -0.0301475208 0.81456995
vn 0.106504373 -0.52098912 0.807075381
vn -0.0247552339 -0.343204081 0.755187988
vn -0.148949131 0.38023439 -0.824389637
vn 0.253191918 0.269089699 -0.770617783
vn 0.190564379 -0.304225028 -0.781870365
vn 0.0580707192 -0.837006748 0.258058608
vn 0.136467367 0.289764583 0.864422143
vn 0.0672388077 -0.648004055 0.489012569
vn 0.0580707192 -0.837006748 0.258058608
vn 0.243674546 -0.851336658 0.127662256
vn 0.439486176 0.552035391 0.413926005
vn -0.449215293 0.585266888 0.385393471
vn -0.481305242 0.435270667 -0.210093111
vn -0.797017336 -0.375222415 -0.244292974
vn 0.159009278 -0.0262125358 -0.732461452
vn -0.148949131 0.38023439 -0.824389637
vn -0.332958132 -0.213137165 -0.911566436
vn 0.592876732 0.683536232 -0.104451112
vn 0.789594829 -0.275139004 -0.288572848
vn 0.634619415 -0.106932014 -0.778077841
vn -0.443361461 -0.24584718 0.788403392
vn -0.389454871 -0.588855028 0.289154232
vn -0.684384286 -0.636929214 0.246125191
vn -0.0957213268 0.578543305 0.49963361
vn -0.285410404 0.747233272 0.273136079
vn -0.389454871 -0.588855028 0.289154232
vn -0.0209243316 1.03108597 -0.0213171337
vn 0.087569721 0.965443194 -0.101308569
vn 0.0732039511 0.982448459 -0.0598562136
vn 0.253191918 0.269089699 -0.770617783
vn 0.159009278 -0.0262125358 -0.732461452
vn 0.449141085 0.432188094 -0.386108965
vn 0.0580707192 -0.837006748 0.258058608
vn 0.141379789 0.782386482 0.46992889
vn 0.136467367 0.289764583 0.864422143
vn -0.407599092 -0.722513795 0.057963822
vn -0.280862182 -0.80362612 -0.171417087
vn -0.594781578 0.274523646 0.13151969
vn 0.439486176 0.552035391 0.413926005
vn 0.141379789 0.782386482 0.46992889
vn 0.0580707192 -0.837006748 0.258058608
vn 0.0361461975 -0.645143151 -0.383816272
vn -0.184485361 0.427594095 -0.565240085
vn -0.148949131 0.38023439 -0.824389637
g Group47124
f 9/1/1 63/2/2 1/3/3
f 56/4/4 12/5/5 23/6/6
f 18/7/7 88/8/8 22/9/9
f 38/10/10 35/11/11 63/12/12
f 7/13/13 40/14/14 1/15/15
f 38/16/16 63/17/17 9/18/18
f 24/19/19 92/20/20 11/21/21
f 10/22/22 9/23/23 75/24/24
f 27/25/25 14/26/26 57/27/27
f 89/28/28 76/29/29 57/30/30
f 8/31/31 20/32/32 33/33/33
f 13/34/34 8/35/35 55/36/36
f 5/37/37 20/38/38 8/39/39
f 18/40/40 81/41/41 39/42/42
f 88/43/43 48/44/44 22/45/45
f 47/46/46 4/47/47 19/48/48
f 19/49/49 4/50/50 90/51/51
f 62/52/52 88/53/53 44/54/54
f 54/55/55 9/56/56 10/57/57
f 41/58/58 51/59/59 72/60/60
f 77/61/61 47/62/62 9/63/63
f 30/64/64 45/65/65 10/66/66
f 10/67/67 75/68/68 71/69/69
f 90/70/70 24/71/71 15/72/72
f 2/73/73 92/74/74 34/75/75
f 92/76/76 24/77/77 76/78/78
f 13/79/79 55/80/80 67/81/81
f 3/82/82 35/83/83 38/84/84
f 54/85/85 10/86/86 37/87/87
f 10/88/88 45/89/89 57/90/90
f 19/91/91 90/92/92 38/93/93
f 41/94/94 77/95/95 9/96/96
f 13/97/97 43/98/98 8/99/99
f 62/100/100 44/101/101 26/102/102
f 76/103/103 48/104/104 82/105/105
f 7/106/106 93/107/107 40/108/108
f 55/109/109 16/110/110 67/111/111
f 2/112/112 84/113/113 92/114/114
f 69/115/115 47/116/116 21/117/117
f 49/118/118 85/119/119 65/120/120
f 59/121/121 20/122/122 5/123/123
f 27/124/124 72/125/125 51/126/126
f 64/127/127 54/128/128 37/129/129
f 33/130/130 55/131/131 8/132/132
f 6/133/133 31/134/134 29/135/135
f 80/136/136 58/137/137 56/138/138
f 59/139/139 33/140/140 20/141/141
f 86/142/142 85/143/143 49/144/144
f 58/145/145 31/146/146 44/147/147
f 63/148/148 46/149/149 70/150/150
f 64/151/151 14/152/152 51/153/153
f 65/154/154 67/155/155 16/156/156
f 26/157/157 53/158/158 82/159/159
f 83/160/160 30/161/161 71/162/162
f 72/163/163 76/164/164 24/165/165
f 25/166/166 40/167/167 16/168/168
f 76/169/169 82/170/170 34/171/171
f 80/172/172 23/173/173 61/174/174
f 23/175/175 80/176/176 56/177/177
f 48/178/178 17/179/179 22/180/180
f 61/181/181 81/182/182 50/183/183
f 82/184/184 2/185/185 34/186/186
f 39/187/187 81/188/188 12/189/189
f 26/190/190 44/191/191 53/192/192
f 80/193/193 78/194/194 58/195/195
f 29/196/196 31/197/197 58/198/198
f 32/199/199 90/200/200 15/201/201
f 77/202/202 87/203/203 21/204/204
f 43/205/205 29/206/206 73/207/207
f 43/208/208 73/209/209 5/210/210
f 91/211/211 31/212/212 6/213/213
f 47/214/214 19/215/215 9/216/216
f 24/217/217 11/218/218 15/219/219
f 73/220/220 29/221/221 78/222/222
f 60/223/223 69/224/224 21/225/225
f 74/226/226 66/227/227 87/228/228
f 58/229/229 44/230/230 88/231/231
f 58/232/232 88/233/233 39/234/234
f 47/235/235 77/236/236 21/237/237
f 24/238/238 66/239/239 74/240/240
f 42/241/241 86/242/242 49/243/243
f 69/244/244 24/245/245 4/246/246
f 69/247/247 4/248/248 47/249/249
f 70/250/250 65/251/251 16/252/252
f 39/253/253 88/254/254 18/255/255
f 6/256/256 15/257/257 11/258/258
f 6/259/259 29/260/260 43/261/261
f 16/262/262 40/263/263 93/264/264
f 18/265/265 59/266/266 81/267/267
f 9/268/268 1/269/269 75/270/270
f 15/271/271 6/272/272 79/273/273
f 28/274/274 78/275/275 80/276/276
f 87/277/277 60/278/278 21/279/279
f 15/280/280 79/281/281 32/282/282
f 53/283/283 44/284/284 84/285/285
f 68/286/286 62/287/287 26/288/288
f 16/289/289 55/290/290 25/291/291
f 85/292/292 67/293/293 65/294/294
f 85/295/295 13/296/296 67/297/297
f 73/298/298 28/299/299 5/300/300
f 72/301/301 57/302/302 76/303/303
f 72/304/304 27/305/305 57/306/306
f 87/307/307 66/308/308 60/309/309
f 42/310/310 6/311/311 43/312/312
f 56/313/313 58/314/314 12/315/315
f 13/316/316 86/317/317 42/318/318
f 13/319/319 42/320/320 43/321/321
f 50/322/322 28/323/323 61/324/324
f 64/325/325 37/326/326 57/327/327
f 5/328/328 50/329/329 59/330/330
f 63/331/331 7/332/332 1/333/333
f 70/334/334 93/335/335 7/336/336
f 60/337/337 66/338/338 69/339/339
f 37/340/340 10/341/341 57/342/342
f 59/343/343 22/344/344 83/345/345
f 18/346/346 22/347/347 59/348/348
f 70/349/349 46/350/350 65/351/351
f 72/352/352 74/353/353 77/354/354
f 90/355/355 4/356/356 24/357/357
f 78/358/358 28/359/359 73/360/360
f 9/361/361 19/362/362 38/363/363
f 82/364/364 53/365/365 2/366/366
f 28/367/367 50/368/368 5/369/369
f 10/370/370 71/371/371 30/372/372
f 3/373/373 32/374/374 79/375/375
f 83/376/376 36/377/377 30/378/378
f 69/379/379 66/380/380 24/381/381
f 17/382/382 45/383/383 22/384/384
f 48/385/385 88/386/386 68/387/387
f 8/388/388 43/389/389 5/390/390
f 17/391/391 48/392/392 89/393/393
f 28/394/394 80/395/395 61/396/396
f 54/397/397 51/398/398 41/399/399
f 33/400/400 83/401/401 52/402/402
f 85/403/403 86/404/404 13/405/405
f 25/406/406 33/407/407 52/408/408
f 51/409/409 54/410/410 64/411/411
f 33/412/412 59/413/413 83/414/414
f 6/415/415 42/416/416 79/417/417
f 54/418/418 41/419/419 9/420/420
f 46/421/421 3/422/422 49/423/423
f 33/424/424 25/425/425 55/426/426
f 42/427/427 49/428/428 79/429/429
f 12/430/430 58/431/431 39/432/432
f 87/433/433 77/434/434 74/435/435
f 57/436/436 14/437/437 64/438/438
f 61/439/439 23/440/440 81/441/441
f 92/442/442 84/443/443 11/444/444
f 44/445/445 91/446/446 84/447/447
f 89/448/448 48/449/449 76/450/450
f 45/451/451 17/452/452 57/453/453
f 89/454/454 57/455/455 17/456/456
f 36/457/457 45/458/458 30/459/459
f 26/460/460 82/461/461 68/462/462
f 34/463/463 92/464/464 76/465/465
f 84/466/466 2/467/467 53/468/468
f 63/469/469 70/470/470 7/471/471
f 46/472/472 63/473/473 35/474/474
f 81/475/475 59/476/476 50/477/477
f 84/478/478 91/479/479 11/480/480
f 91/481/481 44/482/482 31/483/483
f 91/484/484 6/485/485 11/486/486
f 36/487/487 83/488/488 22/489/489
f 23/490/490 12/491/491 81/492/492
f 38/493/493 90/494/494 32/495/495
f 25/496/496 1/497/497 40/498/498
f 24/499/499 74/500/500 72/501/501
f 45/502/502 36/503/503 22/504/504
f 3/505/505 46/506/506 35/507/507
f 75/508/508 83/509/509 71/510/510
f 75/511/511 1/512/512 25/513/513
f 14/514/514 27/515/515 51/516/516
f 49/517/517 3/518/518 79/519/519
f 16/520/520 93/521/521 70/522/522
f 48/523/523 68/524/524 82/525/525
f 88/526/526 62/527/527 68/528/528
f 78/529/529 29/530/530 58/531/531
f 46/532/532 49/533/533 65/534/534
f 75/535/535 52/536/536 83/537/537
f 77/538/538 41/539/539 72/540/540
f 25/541/541 52/542/542 75/543/543
f 38/544/544 32/545/545 3/546/546
