# File exported by Houdini 16.5.405 (www.sidefx.com)
# 82 points
# 438 vertices
# 146 primitives
# Bounds: [-448.264618, -5.51019621, -5.05435705] to [519.928711, 804.0495, 316.200256]
g 
v -257.0401 229.689758 13.1816797
v 471.501587 465.123932 313.569733
v 191.370773 93.2268753 313.816437
v -436.42746 32.8993645 305.548126
v -448.264618 680.431396 313.466339
v 499.813995 478.599426 96.4722366
v 233.674454 773.305847 171.279236
v 508.304657 22.6509933 92.0430679
v -169.274704 139.692215 75.3501511
v 64.9962158 486.931549 148.577515
v 219.501694 314.092377 95.0627136
v -151.582382 481.370422 162.425186
v 213.221558 -3.02236891 214.954193
v 38.6772919 804.0495 312.692963
v -141.56543 474.23999 93.8319626
v 42.2419548 -5.51019621 -1.78339922
v 33.17453 13.7302275 65.6062088
v -221.823883 587.075867 165.56308
v 512.195496 32.328186 164.49646
v -181.071213 51.6321869 116.404243
v 233.561295 303.694672 -2.21635056
v -169.260345 593.236023 218.093094
v -93.4981461 577.251404 176.560638
v 95.8312607 398.606354 175.297287
v -424.322601 40.5327148 5.57735872
v 290.377258 629.717407 171.360138
v 33.2661705 8.46278858 208.480118
v -311.415405 253.42543 110.010269
v 468.224609 49.3570442 211.261993
v 79.9738159 336.063995 197.373688
v -349.404175 592.685547 165.509781
v 156.578033 75.8737869 214.307434
v 205.928894 41.1514816 309.15033
v 148.974991 735.857361 312.800903
v -415.896729 41.3176498 201.429657
v -249.197479 75.6706238 111.75486
v 35.191433 779.547852 181.023422
v -408.429932 273.043976 194.174896
v 519.928711 459.238251 307.142426
v -250.260925 35.8528862 3.0227387
v 146.958618 751.332458 182.540634
v 269.517273 5.01603889 103.042061
v -58.7549324 468.259369 178.408478
v 497.181335 488.090454 172.503845
v 264.671997 6.9054656 -3.83360934
v -202.708939 767.364685 313.497925
v -174.33754 26.1384335 77.6846161
v 38.4331856 318.954926 76.6148529
v -445.056976 682.479614 274.10202
v 75.8176193 320.914368 100.47644
v -241.539825 39.6643677 291.088928
v -189.624557 687.242493 274.872345
v -63.8926926 466.944214 84.2795334
v 208.575485 461.239044 94.6765442
v -165.807266 752.641113 301.319519
v 508.65979 51.2139168 312.106934
v -274.187592 37.1120338 195.962021
v 33.9597321 461.734283 81.1830368
v 52.9361534 22.5316772 313.832825
v -382.559814 319.161011 144.921234
v -169.581863 205.050888 113.907715
v 91.7319794 34.2878532 218.664322
v -386.607208 593.849121 273.008423
v 116.20063 622.953979 178.922409
v 472.416046 623.387329 196.322418
v 467.215515 775.150208 316.200256
v -176.669403 26.2072697 311.503296
v 41.0474586 301.751984 -5.05435705
v 181.512909 324.908295 191.634567
v -412.220093 40.887455 277.449585
v -409.245819 248.726883 26.3156662
v 473.77478 500.800385 217.957413
v -265.219482 687.883667 312.914368
v 209.77037 479.960602 171.279922
v -164.298676 327.440338 119.133347
v -244.860428 484.275085 159.606735
v 55.249733 11.3895512 242.331451
v -194.516693 342.79071 149.473328
v 287.436859 49.3682213 210.114807
v -250.728561 129.479324 112.313858
v 203.504761 192.124207 213.112045
v 474.53952 737.333862 196.393173
vt 0.115289718 0.272036076 0
vt 0.0487779565 0.249077514 0
vt 0.218064576 0.20870319 0
vt 0.418197215 0.363529027 0
vt 0.455993146 0.127841994 0
vt 0.540835023 0.177311972 0
vt 0.474195629 0.87662971 0
vt 0.591787398 0.947871566 0
vt 0.412278861 0.903572321 0
vt 0.625350595 0.512055993 0
vt 0.656250775 0.440479547 0
vt 0.714725971 0.285685062 0
vt 0.326055288 0.478616029 0
vt 0.10908778 0.393176138 0
vt 0.188504666 0.365310758 0
vt 0.10908778 0.393176138 0
vt 0.0487779565 0.249077514 0
vt 0.115289718 0.272036076 0
vt 0.684209883 0.273182511 0
vt 0.548036933 0.410725594 0
vt 0.651693463 0.271406204 0
vt 0.684209883 0.273182511 0
vt 0.651693463 0.271406204 0
vt 0.706407249 0.175027832 0
vt 0.26802206 0.748007834 0
vt 0.232431754 0.788449287 0
vt 0.146906257 0.70519799 0
vt 0.717546642 0.822301686 0
vt 0.748009145 0.723706007 0
vt 0.765734673 0.729165196 0
vt 0.455993146 0.127841994 0
vt 0.439600468 0.0949819237 0
vt 0.603197873 0.114537232 0
vt 0.412278861 0.903572321 0
vt 0.411554545 0.846048594 0
vt 0.474195629 0.87662971 0
vt 0.405142128 0.794491768 0
vt 0.474195629 0.87662971 0
vt 0.411554545 0.846048594 0
vt 0.269558132 0.510231793 0
vt 0.326055288 0.478616029 0
vt 0.3558698 0.49614051 0
vt 0.284107596 0.405917704 0
vt 0.331257373 0.383409977 0
vt 0.418197215 0.363529027 0
vt 0.706407249 0.175027832 0
vt 0.651693463 0.271406204 0
vt 0.603197873 0.114537232 0
vt 0.362166226 0.549341083 0
vt 0.3558698 0.49614051 0
vt 0.395497829 0.448882043 0
vt 0.596456707 0.0449880771 0
vt 0.664379895 0.0420228355 0
vt 0.603197873 0.114537232 0
vt 0.546688974 0.449212402 0
vt 0.548036933 0.410725594 0
vt 0.684209883 0.273182511 0
vt 0.672754169 0.0391128734 0
vt 0.664379895 0.0420228355 0
vt 0.596456707 0.0449880771 0
vt 0.729619443 0.69166559 0
vt 0.756971478 0.670372963 0
vt 0.748009145 0.723706007 0
vt 0.748009145 0.723706007 0
vt 0.717546642 0.822301686 0
vt 0.681584775 0.798721552 0
vt 0.591787398 0.947871566 0
vt 0.51048106 0.998093307 0
vt 0.412278861 0.903572321 0
vt 0.45158118 0.603113055 0
vt 0.509426475 0.625976801 0
vt 0.462848425 0.702957988 0
vt 0.462848425 0.702957988 0
vt 0.274933547 0.689976215 0
vt 0.429701656 0.668607354 0
vt 0.584856927 0.510802329 0
vt 0.618894279 0.613988817 0
vt 0.497071624 0.563681185 0
vt 0.618894279 0.613988817 0
vt 0.681145906 0.738873661 0
vt 0.59885031 0.725682318 0
vt 0.412278861 0.903572321 0
vt 0.51048106 0.998093307 0
vt 0.428433895 0.980321884 0
vt 0.0794882849 0.527611792 0
vt 0.102326483 0.454950303 0
vt 0.184487611 0.464310169 0
vt 0.362166226 0.549341083 0
vt 0.269558132 0.510231793 0
vt 0.3558698 0.49614051 0
vt 0.232431754 0.788449287 0
vt 0.590840101 0.788596094 0
vt 0.232662171 0.803155839 0
vt 0.146906257 0.70519799 0
vt 0.232431754 0.788449287 0
vt 0.164797977 0.74864924 0
vt 0.239639804 0.226984352 0
vt 0.170599028 0.258553118 0
vt 0.218064576 0.20870319 0
vt 0.762234151 0.623360753 0
vt 0.724093914 0.58760196 0
vt 0.788063884 0.537018597 0
vt 0.495337665 0.827331126 0
vt 0.558511436 0.807961524 0
vt 0.474195629 0.87662971 0
vt 0.188504666 0.365310758 0
vt 0.284107596 0.405917704 0
vt 0.326055288 0.478616029 0
vt 0.689596653 0.139393017 0
vt 0.667430878 0.0975003019 0
vt 0.672754169 0.0391128734 0
vt 0.429701656 0.668607354 0
vt 0.370306998 0.568115652 0
vt 0.37829271 0.534239531 0
vt 0.331257373 0.383409977 0
vt 0.455993146 0.127841994 0
vt 0.418197215 0.363529027 0
vt 0.194159791 0.154479921 0
vt 0.198087394 0.13269642 0
vt 0.218064576 0.20870319 0
vt 0.462848425 0.702957988 0
vt 0.592850745 0.767385721 0
vt 0.26802206 0.748007834 0
vt 0.592850745 0.767385721 0
vt 0.59885031 0.725682318 0
vt 0.681584775 0.798721552 0
vt 0.10908778 0.393176138 0
vt 0.115289718 0.272036076 0
vt 0.170599028 0.258553118 0
vt 0.115289718 0.272036076 0
vt 0.218064576 0.20870319 0
vt 0.170599028 0.258553118 0
vt 0.429701656 0.668607354 0
vt 0.45158118 0.603113055 0
vt 0.462848425 0.702957988 0
vt 0.668302834 0.540549517 0
vt 0.714725971 0.285685062 0
vt 0.801201463 0.388907313 0
vt 0.681145906 0.738873661 0
vt 0.748009145 0.723706007 0
vt 0.681584775 0.798721552 0
vt 0.465777785 0.349176317 0
vt 0.556920826 0.226938546 0
vt 0.548036933 0.410725594 0
vt 0.724093914 0.58760196 0
vt 0.703626394 0.563628495 0
vt 0.770301998 0.504783034 0
vt 0.237117022 0.634976149 0
vt 0.274933547 0.689976215 0
vt 0.26802206 0.748007834 0
vt 0.651693463 0.271406204 0
vt 0.556920826 0.226938546 0
vt 0.603197873 0.114537232 0
vt 0.331257373 0.383409977 0
vt 0.284107596 0.405917704 0
vt 0.272668421 0.238186926 0
vt 0.600428462 0.822826624 0
vt 0.591787398 0.947871566 0
vt 0.474195629 0.87662971 0
vt 0.272668421 0.238186926 0
vt 0.239639804 0.226984352 0
vt 0.439600468 0.0949819237 0
vt 0.428433895 0.980321884 0
vt 0.380029052 0.980984807 0
vt 0.412278861 0.903572321 0
vt 0.603197873 0.114537232 0
vt 0.540835023 0.177311972 0
vt 0.455993146 0.127841994 0
vt 0.274933547 0.689976215 0
vt 0.462848425 0.702957988 0
vt 0.26802206 0.748007834 0
vt 0.625350595 0.512055993 0
vt 0.714725971 0.285685062 0
vt 0.668302834 0.540549517 0
vt 0.625350595 0.512055993 0
vt 0.668302834 0.540549517 0
vt 0.621310055 0.572678983 0
vt 0.590840101 0.788596094 0
vt 0.232431754 0.788449287 0
vt 0.592850745 0.767385721 0
vt 0.43535465 0.0674500987 0
vt 0.198087394 0.13269642 0
vt 0.415249467 0.010576603 0
vt 0.729619443 0.69166559 0
vt 0.711520016 0.630638719 0
vt 0.756853223 0.683642447 0
vt 0.218064576 0.20870319 0
vt 0.0487779565 0.249077514 0
vt 0.194159791 0.154479921 0
vt 0.462848425 0.702957988 0
vt 0.618894279 0.613988817 0
vt 0.59885031 0.725682318 0
vt 0.359476924 0.885630906 0
vt 0.37458688 0.845604777 0
vt 0.412278861 0.903572321 0
vt 0.801201463 0.388907313 0
vt 0.714725971 0.285685062 0
vt 0.824275196 0.324597478 0
vt 0.545669675 0.0844462737 0
vt 0.439600468 0.0949819237 0
vt 0.43535465 0.0674500987 0
vt 0.596456707 0.0449880771 0
vt 0.43535465 0.0674500987 0
vt 0.415249467 0.010576603 0
vt 0.706407249 0.175027832 0
vt 0.689596653 0.139393017 0
vt 0.71548301 0.159411013 0
vt 0.284107596 0.405917704 0
vt 0.395497829 0.448882043 0
vt 0.326055288 0.478616029 0
vt 0.803769171 0.715480208 0
vt 0.765734673 0.729165196 0
vt 0.748009145 0.723706007 0
vt 0.463684201 0.797917366 0
vt 0.474195629 0.87662971 0
vt 0.405142128 0.794491768 0
vt 0.418197215 0.363529027 0
vt 0.496693581 0.441307217 0
vt 0.395497829 0.448882043 0
vt 0.803325355 0.432614088 0
vt 0.770301998 0.504783034 0
vt 0.801201463 0.388907313 0
vt 0.497071624 0.563681185 0
vt 0.49421972 0.501210034 0
vt 0.584856927 0.510802329 0
vt 0.465777785 0.349176317 0
vt 0.548036933 0.410725594 0
vt 0.546688974 0.449212402 0
vt 0.218064576 0.20870319 0
vt 0.198087394 0.13269642 0
vt 0.43535465 0.0674500987 0
vt 0.866900563 0.193014443 0
vt 0.730356097 0.191630393 0
vt 0.746860325 0.154531464 0
vt 0.824275196 0.324597478 0
vt 0.730356097 0.191630393 0
vt 0.866900563 0.193014443 0
vt 0.592850745 0.767385721 0
vt 0.681584775 0.798721552 0
vt 0.590840101 0.788596094 0
vt 0.239639804 0.226984352 0
vt 0.284107596 0.405917704 0
vt 0.188504666 0.365310758 0
vt 0.274933547 0.689976215 0
vt 0.306174368 0.619076192 0
vt 0.429701656 0.668607354 0
vt 0.274933547 0.689976215 0
vt 0.237117022 0.634976149 0
vt 0.306174368 0.619076192 0
vt 0.618894279 0.613988817 0
vt 0.711520016 0.630638719 0
vt 0.681145906 0.738873661 0
vt 0.689596653 0.139393017 0
vt 0.748916149 0.129035771 0
vt 0.71548301 0.159411013 0
vt 0.667430878 0.0975003019 0
vt 0.664379895 0.0420228355 0
vt 0.672754169 0.0391128734 0
vt 0.600428462 0.822826624 0
vt 0.657796085 0.926417172 0
vt 0.591787398 0.947871566 0
vt 0.465777785 0.349176317 0
vt 0.540835023 0.177311972 0
vt 0.556920826 0.226938546 0
vt 0.439600468 0.0949819237 0
vt 0.545669675 0.0844462737 0
vt 0.603197873 0.114537232 0
vt 0.824275196 0.324597478 0
vt 0.73574084 0.213663667 0
vt 0.730356097 0.191630393 0
vt 0.45158118 0.603113055 0
vt 0.437370598 0.507023036 0
vt 0.49421972 0.501210034 0
vt 0.729619443 0.69166559 0
vt 0.681145906 0.738873661 0
vt 0.711520016 0.630638719 0
vt 0.326055288 0.478616029 0
vt 0.395497829 0.448882043 0
vt 0.3558698 0.49614051 0
vt 0.788063884 0.537018597 0
vt 0.724093914 0.58760196 0
vt 0.770301998 0.504783034 0
vt 0.102326483 0.454950303 0
vt 0.10908778 0.393176138 0
vt 0.326055288 0.478616029 0
vt 0.820486486 0.677491724 0
vt 0.748009145 0.723706007 0
vt 0.756971478 0.670372963 0
vt 0.689596653 0.139393017 0
vt 0.672754169 0.0391128734 0
vt 0.748916149 0.129035771 0
vt 0.184487611 0.464310169 0
vt 0.102326483 0.454950303 0
vt 0.326055288 0.478616029 0
vt 0.45158118 0.603113055 0
vt 0.497071624 0.563681185 0
vt 0.509426475 0.625976801 0
vt 0.465777785 0.349176317 0
vt 0.418197215 0.363529027 0
vt 0.540835023 0.177311972 0
vt 0.703626394 0.563628495 0
vt 0.668302834 0.540549517 0
vt 0.801201463 0.388907313 0
vt 0.188504666 0.365310758 0
vt 0.10908778 0.393176138 0
vt 0.170599028 0.258553118 0
vt 0.102326483 0.454950303 0
vt 0.0363710374 0.428044796 0
vt 0.10908778 0.393176138 0
vt 0.729619443 0.69166559 0
vt 0.748009145 0.723706007 0
vt 0.681145906 0.738873661 0
vt 0.592850745 0.767385721 0
vt 0.462848425 0.702957988 0
vt 0.59885031 0.725682318 0
vt 0.545669675 0.0844462737 0
vt 0.43535465 0.0674500987 0
vt 0.596456707 0.0449880771 0
vt 0.558511436 0.807961524 0
vt 0.600428462 0.822826624 0
vt 0.474195629 0.87662971 0
vt 0.26802206 0.748007834 0
vt 0.146906257 0.70519799 0
vt 0.182452589 0.647638977 0
vt 0.284107596 0.405917704 0
vt 0.418197215 0.363529027 0
vt 0.395497829 0.448882043 0
vt 0.164797977 0.74864924 0
vt 0.113089263 0.745744228 0
vt 0.146906257 0.70519799 0
vt 0.00261506252 0.493860453 0
vt 0.0363710374 0.428044796 0
vt 0.102326483 0.454950303 0
vt 0.706407249 0.175027832 0
vt 0.603197873 0.114537232 0
vt 0.689596653 0.139393017 0
vt 0.37458688 0.845604777 0
vt 0.411554545 0.846048594 0
vt 0.412278861 0.903572321 0
vt 0.548036933 0.410725594 0
vt 0.556920826 0.226938546 0
vt 0.651693463 0.271406204 0
vt 0.102326483 0.454950303 0
vt 0.0794882849 0.527611792 0
vt 0.00261506252 0.493860453 0
vt 0.664379895 0.0420228355 0
vt 0.667430878 0.0975003019 0
vt 0.603197873 0.114537232 0
vt 0.556920826 0.226938546 0
vt 0.540835023 0.177311972 0
vt 0.603197873 0.114537232 0
vt 0.45158118 0.603113055 0
vt 0.49421972 0.501210034 0
vt 0.497071624 0.563681185 0
vt 0.545669675 0.0844462737 0
vt 0.596456707 0.0449880771 0
vt 0.603197873 0.114537232 0
vt 0.0487779565 0.249077514 0
vt 0.10908778 0.393176138 0
vt 0.0363710374 0.428044796 0
vt 0.182452589 0.647638977 0
vt 0.237117022 0.634976149 0
vt 0.26802206 0.748007834 0
vt 0.474195629 0.87662971 0
vt 0.463684201 0.797917366 0
vt 0.495337665 0.827331126 0
vt 0.232431754 0.788449287 0
vt 0.232662171 0.803155839 0
vt 0.164797977 0.74864924 0
vt 0.429701656 0.668607354 0
vt 0.306174368 0.619076192 0
vt 0.370306998 0.568115652 0
vt 0.496693581 0.441307217 0
vt 0.465777785 0.349176317 0
vt 0.546688974 0.449212402 0
vt 0.59885031 0.725682318 0
vt 0.681145906 0.738873661 0
vt 0.681584775 0.798721552 0
vt 0.439600468 0.0949819237 0
vt 0.218064576 0.20870319 0
vt 0.43535465 0.0674500987 0
vt 0.824275196 0.324597478 0
vt 0.714725971 0.285685062 0
vt 0.73574084 0.213663667 0
vt 0.26802206 0.748007834 0
vt 0.592850745 0.767385721 0
vt 0.232431754 0.788449287 0
vt 0.509426475 0.625976801 0
vt 0.497071624 0.563681185 0
vt 0.618894279 0.613988817 0
vt 0.272668421 0.238186926 0
vt 0.284107596 0.405917704 0
vt 0.239639804 0.226984352 0
vt 0.188504666 0.365310758 0
vt 0.170599028 0.258553118 0
vt 0.239639804 0.226984352 0
vt 0.667430878 0.0975003019 0
vt 0.689596653 0.139393017 0
vt 0.603197873 0.114537232 0
vt 0.465777785 0.349176317 0
vt 0.496693581 0.441307217 0
vt 0.418197215 0.363529027 0
vt 0.37829271 0.534239531 0
vt 0.437370598 0.507023036 0
vt 0.45158118 0.603113055 0
vt 0.272668421 0.238186926 0
vt 0.439600468 0.0949819237 0
vt 0.455993146 0.127841994 0
vt 0.801201463 0.388907313 0
vt 0.770301998 0.504783034 0
vt 0.703626394 0.563628495 0
vt 0.820486486 0.677491724 0
vt 0.803769171 0.715480208 0
vt 0.748009145 0.723706007 0
vt 0.269558132 0.510231793 0
vt 0.362166226 0.549341083 0
vt 0.27754584 0.559420586 0
vt 0.355793446 0.578418553 0
vt 0.27754584 0.559420586 0
vt 0.362166226 0.549341083 0
vt 0.509426475 0.625976801 0
vt 0.618894279 0.613988817 0
vt 0.462848425 0.702957988 0
vt 0.558511436 0.807961524 0
vt 0.61329633 0.802231669 0
vt 0.600428462 0.822826624 0
vt 0.184487611 0.464310169 0
vt 0.326055288 0.478616029 0
vt 0.269558132 0.510231793 0
vt 0.429701656 0.668607354 0
vt 0.37829271 0.534239531 0
vt 0.45158118 0.603113055 0
vt 0.218064576 0.20870319 0
vt 0.439600468 0.0949819237 0
vt 0.239639804 0.226984352 0
vt 0.455993146 0.127841994 0
vt 0.331257373 0.383409977 0
vt 0.272668421 0.238186926 0
vn 0.334865183 0.415500134 -0.564128339
vn 0.288796127 0.831190884 -0.0384733193
vn 0.954823911 0.0441401713 -0.0630366951
vn -0.0254144426 0.307807952 -0.541459978
vn 0.127142251 -0.140132651 -0.86199677
vn 0.506704748 -0.215086728 -0.333194017
vn -0.188289523 0.184883371 -0.924006104
vn -0.196422219 0.359956354 -0.820990622
vn 0.0863933638 0.672006369 -0.583956838
vn -0.00751052983 0.180636078 -0.938572347
vn -0.36720255 0.286977172 -0.697925746
vn -0.0823995844 -0.300033092 -0.700983822
vn -0.112378553 -0.0410069004 -0.845730603
vn -0.0514871925 0.539949 -0.598835588
vn 0.00548643433 0.0431222506 -0.992999494
vn -0.0514871925 0.539949 -0.598835588
vn 0.288796127 0.831190884 -0.0384733193
vn 0.334865183 0.415500134 -0.564128339
vn -0.0823995844 -0.300033092 -0.700983822
vn -0.440478742 0.141493097 -0.674862146
vn -0.184613109 -0.51210779 -0.476346105
vn -0.0823995844 -0.300033092 -0.700983822
vn -0.184613109 -0.51210779 -0.476346105
vn -0.148923308 -0.946662903 0.0921739861
vn -0.302799553 0.315408409 -0.507145226
vn -0.402316332 0.0647496805 -0.75065273
vn -0.14412722 0.447554231 -0.79561621
vn -0.319804698 -0.812743485 0.171351209
vn -0.363704473 -0.465584755 -0.455132067
vn -0.365266353 -0.541956007 -0.459455043
vn 0.127142251 -0.140132651 -0.86199677
vn 0.745291293 -0.143346339 0.470230311
vn -0.0949589983 -0.765019894 0.2781564
vn 0.0863933638 0.672006369 -0.583956838
vn -0.273373753 0.194314495 -0.753583908
vn -0.188289523 0.184883371 -0.924006104
vn 0.0312202089 0.0385673791 -0.998694539
vn -0.188289523 0.184883371 -0.924006104
vn -0.273373753 0.194314495 -0.753583908
vn 0.802217484 0.503801763 -0.0374406539
vn -0.112378553 -0.0410069004 -0.845730603
vn 0.431124091 0.0846179798 -0.487442344
vn -0.206504419 0.215200931 -0.733307719
vn -0.15411222 0.198636979 -0.8921808
vn -0.0254144426 0.307807952 -0.541459978
vn -0.148923308 -0.946662903 0.0921739861
vn -0.184613109 -0.51210779 -0.476346105
vn -0.0949589983 -0.765019894 0.2781564
vn 0.504805624 0.648198247 -0.120709188
vn 0.431124091 0.0846179798 -0.487442344
vn -0.0244152825 0.134100214 -0.304930955
vn -0.285161555 -0.435413837 0.330059022
vn 0.180181012 -0.306970775 0.18189235
vn -0.0949589983 -0.765019894 0.2781564
vn -0.36720255 0.286977172 -0.697925746
vn -0.440478742 0.141493097 -0.674862146
vn -0.0823995844 -0.300033092 -0.700983822
vn -0.311447889 0.292953908 -0.307931602
vn 0.180181012 -0.306970775 0.18189235
vn -0.285161555 -0.435413837 0.330059022
vn 0.662254155 -0.130338937 -0.491150469
vn 0.634910405 0.0148938242 -0.369555473
vn -0.363704473 -0.465584755 -0.455132067
vn -0.363704473 -0.465584755 -0.455132067
vn -0.319804698 -0.812743485 0.171351209
vn 0.194736928 -0.851977885 -0.391719103
vn -0.196422219 0.359956354 -0.820990622
vn 0.00873191375 -0.0973008797 -1.04085577
vn 0.0863933638 0.672006369 -0.583956838
vn 0.0697087198 0.668124616 -0.516298234
vn -0.562378943 0.493104905 -0.234988376
vn -0.925692439 0.191411212 0.0209719539
vn -0.925692439 0.191411212 0.0209719539
vn -0.419177532 0.433937401 -0.646084487
vn -0.439096808 0.441636264 -0.572226822
vn 0.431494862 -0.452409476 -0.49318555
vn -0.41319412 -0.34857139 -0.481224328
vn 0.420022964 0.199422374 -0.714932919
vn -0.41319412 -0.34857139 -0.481224328
vn 0.068132326 -0.984961629 0.128331527
vn -0.458830565 -0.559747577 0.297048926
vn 0.0863933638 0.672006369 -0.583956838
vn 0.00873191375 -0.0973008797 -1.04085577
vn 0.802217484 0.503801763 -0.0374406539
vn -0.196422219 0.359956354 -0.820990622
vn 0.257086635 0.113953561 -0.515203655
vn 0.00873191375 -0.0973008797 -1.04085577
vn 0.504805624 0.648198247 -0.120709188
vn 0.802217484 0.503801763 -0.0374406539
vn 0.431124091 0.0846179798 -0.487442344
vn -0.402316332 0.0647496805 -0.75065273
vn -0.97020781 -0.257752717 -0.0935007334
vn -0.958340526 0.105822921 0.00642358186
vn -0.14412722 0.447554231 -0.79561621
vn -0.402316332 0.0647496805 -0.75065273
vn -0.0889447257 0.888333201 -0.266677737
vn 0.28567645 0.375318944 -0.50767225
vn 0.398322612 0.254766345 -0.702420115
vn 0.954823911 0.0441401713 -0.0630366951
vn 0.0312202089 0.0385673791 -0.998694539
vn -0.273373753 0.194314495 -0.753583908
vn -0.0103367493 0.560570121 -0.695413709
vn -0.3473095 0.435143977 -0.767017066
vn -0.14412722 0.447554231 -0.79561621
vn -0.188289523 0.184883371 -0.924006104
vn 0.00548643433 0.0431222506 -0.992999494
vn -0.206504419 0.215200931 -0.733307719
vn -0.112378553 -0.0410069004 -0.845730603
vn 0.616154492 -0.198910668 0.296136767
vn 0.43228215 -0.533582866 0.344344467
vn -0.311447889 0.292953908 -0.307931602
vn -0.439096808 0.441636264 -0.572226822
vn -0.0103367493 0.560570121 -0.695413709
vn -0.440657794 0.108698413 -0.632429421
vn -0.15411222 0.198636979 -0.8921808
vn 0.127142251 -0.140132651 -0.86199677
vn -0.0254144426 0.307807952 -0.541459978
vn 0.954077005 0.110288367 0.112127535
vn 0.936971307 0.0740295276 -0.0601600371
vn 0.954823911 0.0441401713 -0.0630366951
vn -0.925692439 0.191411212 0.0209719539
vn -0.693005621 -0.237095863 -0.419923663
vn -0.302799553 0.315408409 -0.507145226
vn -0.693005621 -0.237095863 -0.419923663
vn -0.458830565 -0.559747577 0.297048926
vn 0.194736928 -0.851977885 -0.391719103
vn -0.0514871925 0.539949 -0.598835588
vn 0.334865183 0.415500134 -0.564128339
vn 0.398322612 0.254766345 -0.702420115
vn 0.334865183 0.415500134 -0.564128339
vn 0.954823911 0.0441401713 -0.0630366951
vn 0.398322612 0.254766345 -0.702420115
vn -0.439096808 0.441636264 -0.572226822
vn 0.0697087198 0.668124616 -0.516298234
vn -0.925692439 0.191411212 0.0209719539
vn 0.156012133 0.377578735 -0.697977185
vn -0.0823995844 -0.300033092 -0.700983822
vn -0.409235209 0.0760696381 -0.775533676
vn 0.068132326 -0.984961629 0.128331527
vn -0.363704473 -0.465584755 -0.455132067
vn 0.194736928 -0.851977885 -0.391719103
vn 0.291895419 0.338787824 -0.76608032
vn 0.495940179 -0.267273784 -0.510316551
vn -0.440478742 0.141493097 -0.674862146
vn -0.273373753 0.194314495 -0.753583908
vn -0.689020157 0.264174461 -0.440692842
vn -0.440657794 0.108698413 -0.632429421
vn 0.076569207 0.392425716 -0.72124052
vn -0.419177532 0.433937401 -0.646084487
vn -0.302799553 0.315408409 -0.507145226
vn -0.184613109 -0.51210779 -0.476346105
vn 0.495940179 -0.267273784 -0.510316551
vn -0.0949589983 -0.765019894 0.2781564
vn -0.15411222 0.198636979 -0.8921808
vn -0.206504419 0.215200931 -0.733307719
vn 0.458771646 0.481454849 -0.458558232
vn -0.164665386 0.765657842 -0.407798648
vn -0.196422219 0.359956354 -0.820990622
vn -0.188289523 0.184883371 -0.924006104
vn 0.458771646 0.481454849 -0.458558232
vn 0.28567645 0.375318944 -0.50767225
vn 0.745291293 -0.143346339 0.470230311
vn 0.802217484 0.503801763 -0.0374406539
vn -0.00751052983 0.180636078 -0.938572347
vn 0.0863933638 0.672006369 -0.583956838
vn -0.0949589983 -0.765019894 0.2781564
vn 0.506704748 -0.215086728 -0.333194017
vn 0.127142251 -0.140132651 -0.86199677
vn -0.419177532 0.433937401 -0.646084487
vn -0.925692439 0.191411212 0.0209719539
vn -0.302799553 0.315408409 -0.507145226
vn -0.00751052983 0.180636078 -0.938572347
vn -0.0823995844 -0.300033092 -0.700983822
vn 0.156012133 0.377578735 -0.697977185
vn -0.00751052983 0.180636078 -0.938572347
vn 0.156012133 0.377578735 -0.697977185
vn 0.0863933638 0.672006369 -0.583956838
vn -0.97020781 -0.257752717 -0.0935007334
vn -0.402316332 0.0647496805 -0.75065273
vn -0.693005621 -0.237095863 -0.419923663
vn 0.585214853 -0.369220108 0.0189361442
vn 0.936971307 0.0740295276 -0.0601600371
vn 0.346940428 -0.827582538 0.149566859
vn 0.662254155 -0.130338937 -0.491150469
vn 0.431494862 -0.452409476 -0.49318555
vn 0.634910405 0.0148938242 -0.369555473
vn 0.954823911 0.0441401713 -0.0630366951
vn 0.288796127 0.831190884 -0.0384733193
vn 0.954077005 0.110288367 0.112127535
vn -0.925692439 0.191411212 0.0209719539
vn -0.41319412 -0.34857139 -0.481224328
vn -0.458830565 -0.559747577 0.297048926
vn 0.156012133 0.377578735 -0.697977185
vn -0.689020157 0.264174461 -0.440692842
vn 0.0863933638 0.672006369 -0.583956838
vn -0.409235209 0.0760696381 -0.775533676
vn -0.0823995844 -0.300033092 -0.700983822
vn -0.365266353 -0.541956007 -0.459455043
vn 0.326157242 -0.650499403 0.459429801
vn 0.745291293 -0.143346339 0.470230311
vn 0.585214853 -0.369220108 0.0189361442
vn -0.285161555 -0.435413837 0.330059022
vn 0.585214853 -0.369220108 0.0189361442
vn 0.346940428 -0.827582538 0.149566859
vn -0.148923308 -0.946662903 0.0921739861
vn 0.616154492 -0.198910668 0.296136767
vn 0.00185042794 -1.00248587 0.013354999
vn -0.206504419 0.215200931 -0.733307719
vn -0.0244152825 0.134100214 -0.304930955
vn -0.112378553 -0.0410069004 -0.845730603
vn -0.409235209 0.0760696381 -0.775533676
vn -0.365266353 -0.541956007 -0.459455043
vn -0.363704473 -0.465584755 -0.455132067
vn 0.076569207 0.392425716 -0.72124052
vn -0.188289523 0.184883371 -0.924006104
vn 0.0312202089 0.0385673791 -0.998694539
vn -0.0254144426 0.307807952 -0.541459978
vn 0.504805624 0.648198247 -0.120709188
vn -0.0244152825 0.134100214 -0.304930955
vn -0.414726168 0.027335722 -0.7637676
vn -0.440657794 0.108698413 -0.632429421
vn -0.409235209 0.0760696381 -0.775533676
vn 0.420022964 0.199422374 -0.714932919
vn 0.634910405 0.0148938242 -0.369555473
vn 0.431494862 -0.452409476 -0.49318555
vn 0.291895419 0.338787824 -0.76608032
vn -0.440478742 0.141493097 -0.674862146
vn -0.36720255 0.286977172 -0.697925746
vn 0.954823911 0.0441401713 -0.0630366951
vn 0.936971307 0.0740295276 -0.0601600371
vn 0.585214853 -0.369220108 0.0189361442
vn -0.319804698 -0.812743485 0.171351209
vn 0.00185042794 -1.00248587 0.013354999
vn 0.26749748 -0.76954174 0.325774521
vn -0.365266353 -0.541956007 -0.459455043
vn 0.00185042794 -1.00248587 0.013354999
vn -0.319804698 -0.812743485 0.171351209
vn -0.693005621 -0.237095863 -0.419923663
vn 0.194736928 -0.851977885 -0.391719103
vn -0.97020781 -0.257752717 -0.0935007334
vn 0.28567645 0.375318944 -0.50767225
vn -0.206504419 0.215200931 -0.733307719
vn 0.00548643433 0.0431222506 -0.992999494
vn -0.419177532 0.433937401 -0.646084487
vn 0.0312202089 0.0385673791 -0.998694539
vn -0.439096808 0.441636264 -0.572226822
vn -0.419177532 0.433937401 -0.646084487
vn 0.076569207 0.392425716 -0.72124052
vn 0.0312202089 0.0385673791 -0.998694539
vn -0.41319412 -0.34857139 -0.481224328
vn 0.431494862 -0.452409476 -0.49318555
vn 0.068132326 -0.984961629 0.128331527
vn 0.616154492 -0.198910668 0.296136767
vn 0.26749748 -0.76954174 0.325774521
vn 0.00185042794 -1.00248587 0.013354999
vn 0.43228215 -0.533582866 0.344344467
vn 0.180181012 -0.306970775 0.18189235
vn -0.311447889 0.292953908 -0.307931602
vn -0.164665386 0.765657842 -0.407798648
vn 0.0415601283 0.984698236 0.0958822444
vn -0.196422219 0.359956354 -0.820990622
vn 0.291895419 0.338787824 -0.76608032
vn 0.506704748 -0.215086728 -0.333194017
vn 0.495940179 -0.267273784 -0.510316551
vn 0.745291293 -0.143346339 0.470230311
vn 0.326157242 -0.650499403 0.459429801
vn -0.0949589983 -0.765019894 0.2781564
vn -0.365266353 -0.541956007 -0.459455043
vn -0.148923308 -0.946662903 0.0921739861
vn 0.00185042794 -1.00248587 0.013354999
vn 0.0697087198 0.668124616 -0.516298234
vn -0.414726168 0.027335722 -0.7637676
vn 0.634910405 0.0148938242 -0.369555473
vn 0.662254155 -0.130338937 -0.491150469
vn 0.068132326 -0.984961629 0.128331527
vn 0.431494862 -0.452409476 -0.49318555
vn -0.112378553 -0.0410069004 -0.845730603
vn -0.0244152825 0.134100214 -0.304930955
vn 0.431124091 0.0846179798 -0.487442344
vn -0.0103367493 0.560570121 -0.695413709
vn -0.273373753 0.194314495 -0.753583908
vn -0.440657794 0.108698413 -0.632429421
vn 0.257086635 0.113953561 -0.515203655
vn -0.0514871925 0.539949 -0.598835588
vn -0.112378553 -0.0410069004 -0.845730603
vn -0.414726168 0.027335722 -0.7637676
vn -0.363704473 -0.465584755 -0.455132067
vn 0.634910405 0.0148938242 -0.369555473
vn 0.616154492 -0.198910668 0.296136767
vn -0.311447889 0.292953908 -0.307931602
vn 0.26749748 -0.76954174 0.325774521
vn 0.00873191375 -0.0973008797 -1.04085577
vn 0.257086635 0.113953561 -0.515203655
vn -0.112378553 -0.0410069004 -0.845730603
vn 0.0697087198 0.668124616 -0.516298234
vn 0.420022964 0.199422374 -0.714932919
vn -0.562378943 0.493104905 -0.234988376
vn 0.291895419 0.338787824 -0.76608032
vn -0.0254144426 0.307807952 -0.541459978
vn 0.506704748 -0.215086728 -0.333194017
vn -0.689020157 0.264174461 -0.440692842
vn 0.156012133 0.377578735 -0.697977185
vn -0.409235209 0.0760696381 -0.775533676
vn 0.00548643433 0.0431222506 -0.992999494
vn -0.0514871925 0.539949 -0.598835588
vn 0.398322612 0.254766345 -0.702420115
vn 0.257086635 0.113953561 -0.515203655
vn 0.12854363 0.557801485 0.165287435
vn -0.0514871925 0.539949 -0.598835588
vn 0.662254155 -0.130338937 -0.491150469
vn -0.363704473 -0.465584755 -0.455132067
vn 0.068132326 -0.984961629 0.128331527
vn -0.693005621 -0.237095863 -0.419923663
vn -0.925692439 0.191411212 0.0209719539
vn -0.458830565 -0.559747577 0.297048926
vn 0.326157242 -0.650499403 0.459429801
vn 0.585214853 -0.369220108 0.0189361442
vn -0.285161555 -0.435413837 0.330059022
vn -0.14412722 0.447554231 -0.79561621
vn -0.164665386 0.765657842 -0.407798648
vn -0.188289523 0.184883371 -0.924006104
vn -0.302799553 0.315408409 -0.507145226
vn -0.14412722 0.447554231 -0.79561621
vn -0.3473095 0.435143977 -0.767017066
vn -0.206504419 0.215200931 -0.733307719
vn -0.0254144426 0.307807952 -0.541459978
vn -0.0244152825 0.134100214 -0.304930955
vn -0.0889447257 0.888333201 -0.266677737
vn -0.468974471 0.384716034 -0.861588657
vn -0.14412722 0.447554231 -0.79561621
vn 0.0415601283 0.984698236 0.0958822444
vn 0.12854363 0.557801485 0.165287435
vn 0.257086635 0.113953561 -0.515203655
vn -0.148923308 -0.946662903 0.0921739861
vn -0.0949589983 -0.765019894 0.2781564
vn 0.616154492 -0.198910668 0.296136767
vn -0.689020157 0.264174461 -0.440692842
vn -0.273373753 0.194314495 -0.753583908
vn 0.0863933638 0.672006369 -0.583956838
vn -0.440478742 0.141493097 -0.674862146
vn 0.495940179 -0.267273784 -0.510316551
vn -0.184613109 -0.51210779 -0.476346105
vn 0.257086635 0.113953561 -0.515203655
vn -0.196422219 0.359956354 -0.820990622
vn 0.0415601283 0.984698236 0.0958822444
vn 0.180181012 -0.306970775 0.18189235
vn 0.43228215 -0.533582866 0.344344467
vn -0.0949589983 -0.765019894 0.2781564
vn 0.495940179 -0.267273784 -0.510316551
vn 0.506704748 -0.215086728 -0.333194017
vn -0.0949589983 -0.765019894 0.2781564
vn 0.0697087198 0.668124616 -0.516298234
vn 0.634910405 0.0148938242 -0.369555473
vn 0.420022964 0.199422374 -0.714932919
vn 0.326157242 -0.650499403 0.459429801
vn -0.285161555 -0.435413837 0.330059022
vn -0.0949589983 -0.765019894 0.2781564
vn 0.288796127 0.831190884 -0.0384733193
vn -0.0514871925 0.539949 -0.598835588
vn 0.12854363 0.557801485 0.165287435
vn -0.3473095 0.435143977 -0.767017066
vn 0.076569207 0.392425716 -0.72124052
vn -0.302799553 0.315408409 -0.507145226
vn -0.188289523 0.184883371 -0.924006104
vn 0.076569207 0.392425716 -0.72124052
vn -0.3473095 0.435143977 -0.767017066
vn -0.402316332 0.0647496805 -0.75065273
vn -0.958340526 0.105822921 0.00642358186
vn -0.0889447257 0.888333201 -0.266677737
vn -0.439096808 0.441636264 -0.572226822
vn 0.0312202089 0.0385673791 -0.998694539
vn -0.0103367493 0.560570121 -0.695413709
vn 0.504805624 0.648198247 -0.120709188
vn 0.291895419 0.338787824 -0.76608032
vn -0.36720255 0.286977172 -0.697925746
vn -0.458830565 -0.559747577 0.297048926
vn 0.068132326 -0.984961629 0.128331527
vn 0.194736928 -0.851977885 -0.391719103
vn 0.745291293 -0.143346339 0.470230311
vn 0.954823911 0.0441401713 -0.0630366951
vn 0.585214853 -0.369220108 0.0189361442
vn -0.365266353 -0.541956007 -0.459455043
vn -0.0823995844 -0.300033092 -0.700983822
vn -0.148923308 -0.946662903 0.0921739861
vn -0.302799553 0.315408409 -0.507145226
vn -0.693005621 -0.237095863 -0.419923663
vn -0.402316332 0.0647496805 -0.75065273
vn -0.562378943 0.493104905 -0.234988376
vn 0.420022964 0.199422374 -0.714932919
vn -0.41319412 -0.34857139 -0.481224328
vn 0.458771646 0.481454849 -0.458558232
vn -0.206504419 0.215200931 -0.733307719
vn 0.28567645 0.375318944 -0.50767225
vn 0.00548643433 0.0431222506 -0.992999494
vn 0.398322612 0.254766345 -0.702420115
vn 0.28567645 0.375318944 -0.50767225
vn 0.43228215 -0.533582866 0.344344467
vn 0.616154492 -0.198910668 0.296136767
vn -0.0949589983 -0.765019894 0.2781564
vn 0.291895419 0.338787824 -0.76608032
vn 0.504805624 0.648198247 -0.120709188
vn -0.0254144426 0.307807952 -0.541459978
vn -0.440657794 0.108698413 -0.632429421
vn -0.414726168 0.027335722 -0.7637676
vn 0.0697087198 0.668124616 -0.516298234
vn 0.458771646 0.481454849 -0.458558232
vn 0.745291293 -0.143346339 0.470230311
vn 0.127142251 -0.140132651 -0.86199677
vn -0.409235209 0.0760696381 -0.775533676
vn -0.440657794 0.108698413 -0.632429421
vn -0.689020157 0.264174461 -0.440692842
vn -0.414726168 0.027335722 -0.7637676
vn -0.409235209 0.0760696381 -0.775533676
vn -0.363704473 -0.465584755 -0.455132067
vn 0.802217484 0.503801763 -0.0374406539
vn 0.504805624 0.648198247 -0.120709188
vn -0.00751052983 0.180636078 -0.938572347
vn -0.36720255 0.286977172 -0.697925746
vn -0.00751052983 0.180636078 -0.938572347
vn 0.504805624 0.648198247 -0.120709188
vn -0.562378943 0.493104905 -0.234988376
vn -0.41319412 -0.34857139 -0.481224328
vn -0.925692439 0.191411212 0.0209719539
vn -0.14412722 0.447554231 -0.79561621
vn -0.468974471 0.384716034 -0.861588657
vn -0.164665386 0.765657842 -0.407798648
vn 0.00873191375 -0.0973008797 -1.04085577
vn -0.112378553 -0.0410069004 -0.845730603
vn 0.802217484 0.503801763 -0.0374406539
vn -0.439096808 0.441636264 -0.572226822
vn -0.440657794 0.108698413 -0.632429421
vn 0.0697087198 0.668124616 -0.516298234
vn 0.954823911 0.0441401713 -0.0630366951
vn 0.745291293 -0.143346339 0.470230311
vn 0.28567645 0.375318944 -0.50767225
vn 0.127142251 -0.140132651 -0.86199677
vn -0.15411222 0.198636979 -0.8921808
vn 0.458771646 0.481454849 -0.458558232
g Group1879
f 82/1/1 66/2/2 72/3/3
f 11/4/4 8/5/5 42/6/6
f 23/7/7 37/8/8 43/9/9
f 58/10/10 48/11/11 17/12/12
f 24/13/13 7/14/14 26/15/15
f 7/16/16 66/17/17 82/18/18
f 17/19/19 68/20/20 16/21/21
f 17/22/22 16/23/23 27/24/24
f 63/25/25 49/26/26 52/27/27
f 67/28/28 20/29/29 47/30/30
f 8/31/31 19/32/32 13/33/33
f 43/34/34 12/35/35 23/36/36
f 76/37/37 23/38/38 12/39/39
f 10/40/40 24/41/41 30/42/42
f 74/43/43 54/44/44 11/45/45
f 27/46/46 16/47/47 13/48/48
f 50/49/49 30/50/50 69/51/51
f 33/52/52 81/53/53 13/54/54
f 48/55/55 68/56/56 17/57/57
f 3/58/58 81/59/59 33/60/60
f 36/61/61 80/62/62 20/63/63
f 20/64/64 67/65/65 51/66/66
f 37/67/67 64/68/68 43/69/69
f 28/70/70 71/71/71 38/72/72
f 38/73/73 31/74/74 60/75/75
f 40/76/76 25/77/77 1/78/78
f 25/79/79 57/80/80 35/81/81
f 43/82/82 64/83/83 10/84/84
f 37/85/85 41/86/86 64/87/87
f 50/88/88 10/89/89 30/90/90
f 49/91/91 4/92/92 5/93/93
f 52/94/94 49/95/95 73/96/96
f 44/97/97 65/98/98 72/99/99
f 76/100/100 12/101/101 78/102/102
f 22/103/103 52/104/104 23/105/105
f 26/106/106 74/107/107 24/108/108
f 62/109/109 32/110/110 3/111/111
f 60/112/112 78/113/113 75/114/114
f 54/115/115 8/116/116 11/117/117
f 2/118/118 39/119/119 72/120/120
f 38/121/121 70/122/122 63/123/123
f 70/124/124 35/125/125 51/126/126
f 7/127/127 82/128/128 65/129/129
f 82/130/130 72/131/131 65/132/132
f 60/133/133 28/134/134 38/135/135
f 53/136/136 17/137/137 9/138/138
f 57/139/139 20/140/140 51/141/141
f 21/142/142 45/143/143 68/144/144
f 12/145/145 15/146/146 75/147/147
f 18/148/148 31/149/149 63/150/150
f 16/151/151 45/152/152 13/153/153
f 54/154/154 74/155/155 6/156/156
f 55/157/157 37/158/158 23/159/159
f 6/160/160 44/161/161 19/162/162
f 10/163/163 58/164/164 43/165/165
f 13/166/166 42/167/167 8/168/168
f 31/169/169 38/170/170 63/171/171
f 58/172/172 17/173/173 53/174/174
f 58/175/175 53/176/176 43/177/177
f 4/178/178 49/179/179 70/180/180
f 29/181/181 39/182/182 56/183/183
f 36/184/184 40/185/185 80/186/186
f 72/187/187 66/188/188 2/189/189
f 38/190/190 25/191/191 35/192/192
f 53/193/193 15/194/194 43/195/195
f 9/196/196 17/197/197 47/198/198
f 79/199/199 19/200/200 29/201/201
f 33/202/202 29/203/203 56/204/204
f 27/205/205 62/206/206 77/207/207
f 74/208/208 69/209/209 24/210/210
f 9/211/211 47/212/212 20/213/213
f 18/214/214 23/215/215 76/216/216
f 11/217/217 50/218/218 69/219/219
f 61/220/220 75/221/221 9/222/222
f 1/223/223 80/224/224 40/225/225
f 21/226/226 68/227/227 48/228/228
f 72/229/229 39/230/230 29/231/231
f 67/232/232 77/233/233 59/234/234
f 47/235/235 77/236/236 67/237/237
f 70/238/238 51/239/239 4/240/240
f 44/241/241 74/242/242 26/243/243
f 31/244/244 76/245/245 60/246/246
f 31/247/247 18/248/248 76/249/249
f 25/250/250 40/251/251 57/252/252
f 62/253/253 59/254/254 77/255/255
f 32/256/256 81/257/257 3/258/258
f 55/259/259 14/260/260 37/261/261
f 21/262/262 42/263/263 45/264/264
f 19/265/265 79/266/266 13/267/267
f 47/268/268 27/269/269 77/270/270
f 28/271/271 61/272/272 80/273/273
f 36/274/274 57/275/275 40/276/276
f 24/277/277 69/278/278 30/279/279
f 78/280/280 12/281/281 75/282/282
f 41/283/283 7/284/284 24/285/285
f 61/286/286 20/287/287 80/288/288
f 62/289/289 3/290/290 59/291/291
f 64/292/292 41/293/293 24/294/294
f 28/295/295 1/296/296 71/297/297
f 21/298/298 11/299/299 42/300/300
f 15/301/301 53/302/302 9/303/303
f 26/304/304 7/305/305 65/306/306
f 41/307/307 34/308/308 7/309/309
f 36/310/310 20/311/311 57/312/312
f 70/313/313 38/314/314 35/315/315
f 79/316/316 29/317/317 33/318/318
f 52/319/319 55/320/320 23/321/321
f 63/322/322 52/323/323 22/324/324
f 74/325/325 11/326/326 69/327/327
f 73/328/328 46/329/329 52/330/330
f 14/331/331 34/332/332 41/333/333
f 27/334/334 13/335/335 62/336/336
f 15/337/337 12/338/338 43/339/339
f 68/340/340 45/341/341 16/342/342
f 41/343/343 37/344/344 14/345/345
f 81/346/346 32/347/347 13/348/348
f 45/349/349 42/350/350 13/351/351
f 28/352/352 80/353/353 1/354/354
f 79/355/355 33/356/356 13/357/357
f 66/358/358 7/359/359 34/360/360
f 22/361/361 18/362/362 63/363/363
f 23/364/364 18/365/365 22/366/366
f 49/367/367 5/368/368 73/369/369
f 60/370/370 76/371/371 78/372/372
f 50/373/373 21/374/374 48/375/375
f 35/376/376 57/377/377 51/378/378
f 19/379/379 72/380/380 29/381/381
f 47/382/382 17/383/383 27/384/384
f 63/385/385 70/386/386 49/387/387
f 71/388/388 1/389/389 25/390/390
f 6/391/391 74/392/392 44/393/393
f 26/394/394 65/395/395 44/396/396
f 32/397/397 62/398/398 13/399/399
f 21/400/400 50/401/401 11/402/402
f 75/403/403 61/404/404 28/405/405
f 6/406/406 19/407/407 8/408/408
f 9/409/409 75/410/410 15/411/411
f 61/412/412 9/413/413 20/414/414
f 10/415/415 50/416/416 58/417/417
f 48/418/418 58/419/419 50/420/420
f 71/421/421 25/422/422 38/423/423
f 52/424/424 46/425/425 55/426/426
f 64/427/427 24/428/428 10/429/429
f 60/430/430 75/431/431 28/432/432
f 72/433/433 19/434/434 44/435/435
f 8/436/436 54/437/437 6/438/438
