# File exported by Houdini 16.5.405 (www.sidefx.com)
# 81 points
# 474 vertices
# 158 primitives
# Bounds: [-32.4302521, -1.36822569, -35.0625839] to [32.507637, 80.2195892, 42.0962029]
g 
v 20.7668266 41.5998993 -14.9115114
v -14.0969658 57.6113167 -27.6799183
v -11.2289171 43.9166946 -33.9699249
v 3.32385015 -0.241485596 29.2078571
v 0.348301798 35.8402557 42.0962029
v -29.7217026 2.53007245 -6.91533089
v -1.57562923 25.9752655 -31.9626045
v -24.3841743 35.41465 -0.736998796
v -11.37465 76.38871 4.14698601
v -18.8432331 25.2536068 26.8090725
v 19.2531891 45.4846992 -14.1458788
v 23.2811432 6.86705875 -0.284166723
v 16.376049 -1.2523104 5.86152458
v -19.9957638 8.5929203 -26.9892139
v -2.86999917 80.2195892 7.56823397
v 22.5092316 45.1395569 27.9152184
v -21.1638737 13.3512707 -28.2910824
v 28.5642605 24.9536629 19.5169926
v -28.3983593 21.6043606 22.6443214
v 9.65829468 22.3591671 -16.1418457
v -30.704607 22.7946548 -4.58161688
v 7.18826342 14.9556456 -26.6003284
v -1.10136652 70.8433914 23.3614578
v -32.4302521 7.33499575 7.12707853
v 6.33677959 75.7815475 -9.28824425
v -17.6850948 9.17273712 35.7337456
v 8.3377409 50.805191 -21.8613796
v -6.94428825 56.8576775 32.6801147
v 23.7222366 11.5553713 -10.0030661
v -13.1539774 74.7177353 -7.48917484
v -3.26724243 33.9765816 -30.2907753
v 10.7474213 7.21002054 31.7226028
v -20.2285652 49.9732323 -23.0275555
v -20.1032658 -1.36822569 -17.0688839
v 8.17293358 -0.894263446 -23.4566689
v -15.7330294 2.05491042 -25.984127
v 32.507637 24.5191898 -4.84142494
v 10.0830984 2.47239518 -24.0539227
v 15.0900927 64.7271194 21.5221901
v -4.70386839 59.1956329 -28.5252686
v 9.78397751 75.686409 3.0187788
v 8.54455757 -1.25280154 25.9090595
v -22.8036919 21.9406052 32.7420082
v 32.0165062 18.7376347 8.24598026
v 2.32828879 40.7109261 -24.0502644
v -19.9346733 -1.3149966 27.1736565
v -2.34373355 69.9354782 -19.570713
v -4.89364529 9.87294292 -35.0625839
v 4.55065298 69.8914337 -17.0960732
v -10.739542 -0.385645807 -27.5438614
v -11.9294901 25.2946682 37.6088982
v -12.1857538 64.4365616 25.168026
v 10.93894 54.2714157 -18.0633564
v 12.7481174 32.8575554 37.9412231
v -13.6917934 9.18972874 -32.6068764
v 16.3126125 56.7084427 27.1229115
v -22.8289604 22.4713249 -24.5669003
v -6.92468596 6.33921337 37.3792343
v -20.1911278 45.5281677 25.2054977
v 17.428709 7.22721577 -11.039011
v -22.8583183 53.8618164 2.32705641
v -28.2735844 15.3059692 -17.986702
v -11.3370504 44.4193344 38.2087746
v -12.5052376 51.6582527 -30.7959671
v 28.6072578 27.7413654 -12.3243465
v -16.0302563 38.0096855 35.06493
v -1.27325344 -1.34807897 -27.8573284
v -18.8760071 35.0673599 -29.1866913
v 3.77361035 44.9082527 39.2253647
v 8.23114491 30.6261215 -16.2419586
v 4.44696474 40.6981735 -20.0391769
v -18.6615276 67.3734894 -13.7181549
v 14.5165281 9.49159622 -20.6383457
v -5.38088036 -1.36000836 31.6344433
v 22.0272636 39.2753868 31.565731
v -25.9738979 4.56263685 -17.7425861
v -24.6194496 -1.3645891 7.80902719
v -15.7078228 20.0736599 35.7821465
v 21.861908 34.6144371 30.1700916
v -12.6061516 52.061142 31.4088459
v 16.8350964 -1.02347243 12.6355829
vt 0.92985028 0.000804104959 0
vt 0.861757398 0.184016466 0
vt 0.822503269 0.123579361 0
vt 0.368671834 0.846522272 0
vt 0.669048667 0.854830444 0
vt 0.616614044 0.928913772 0
vt 0.654503405 0.521008134 0
vt 0.724529922 0.541370988 0
vt 0.727948785 0.642593086 0
vt 0.172760755 0.0657256842 0
vt 0.339598864 0.0487736836 0
vt 0.266247928 0.198927253 0
vt 0.304477304 0.842900515 0
vt 0.347970992 0.950392962 0
vt 0.206487358 0.870753944 0
vt 0.191585511 0.443488836 0
vt 0.149407133 0.399386764 0
vt 0.23550497 0.418569863 0
vt 0.247399241 0.539529502 0
vt 0.422754705 0.540836871 0
vt 0.398032725 0.646387756 0
vt 0.548111796 0.603494823 0
vt 0.63087368 0.616691709 0
vt 0.640522659 0.671772361 0
vt 0.834811151 0.301711917 0
vt 0.849817097 0.256756067 0
vt 0.933455408 0.280972332 0
vt 0.368671834 0.846522272 0
vt 0.662379384 0.765483379 0
vt 0.669048667 0.854830444 0
vt 0.368671834 0.846522272 0
vt 0.341482162 0.720886588 0
vt 0.562660515 0.685487151 0
vt 0.363932252 0.328858614 0
vt 0.351015538 0.175855294 0
vt 0.437193125 0.238760993 0
vt 0.825266659 0.574872434 0
vt 0.727948785 0.642593086 0
vt 0.775984466 0.581558287 0
vt 0.351015538 0.175855294 0
vt 0.363932252 0.328858614 0
vt 0.266247928 0.198927253 0
vt 0.339598864 0.0487736836 0
vt 0.351015538 0.175855294 0
vt 0.266247928 0.198927253 0
vt 0.769102693 0.468188733 0
vt 0.742686927 0.345465958 0
vt 0.844946504 0.335730463 0
vt 0.129242167 0.472610205 0
vt 0.0193265174 0.488396645 0
vt 0.0740684494 0.42575407 0
vt 0.213879853 0.463358462 0
vt 0.324767798 0.483528942 0
vt 0.247399241 0.539529502 0
vt 0.654503405 0.521008134 0
vt 0.625513017 0.502235591 0
vt 0.660436511 0.43344301 0
vt 0.949184954 0.842647314 0
vt 0.915430307 0.74548924 0
vt 0.9987185 0.670693398 0
vt 0.206487358 0.870753944 0
vt 0.150330096 0.781029344 0
vt 0.25828293 0.76718086 0
vt 0.654503405 0.521008134 0
vt 0.769102693 0.468188733 0
vt 0.720724702 0.515517175 0
vt 0.398032725 0.646387756 0
vt 0.422754705 0.540836871 0
vt 0.474134594 0.564810753 0
vt 0.258438945 0.0195912346 0
vt 0.172760755 0.0657256842 0
vt 0.150569901 0.00358248362 0
vt 0.501957655 0.363969982 0
vt 0.363932252 0.328858614 0
vt 0.437193125 0.238760993 0
vt 0.759013295 0.0581174903 0
vt 0.92985028 0.000804104959 0
vt 0.822503269 0.123579361 0
vt 0.949184954 0.842647314 0
vt 0.92683506 0.836899161 0
vt 0.915430307 0.74548924 0
vt 0.540046394 0.55939877 0
vt 0.63087368 0.616691709 0
vt 0.548111796 0.603494823 0
vt 0.429904401 0.0172878765 0
vt 0.478749514 0.00484251883 0
vt 0.456174165 0.0861504972 0
vt 0.990366578 0.6199494 0
vt 0.983354568 0.656358898 0
vt 0.926747561 0.639422059 0
vt 0.325269312 0.775489628 0
vt 0.341482162 0.720886588 0
vt 0.368671834 0.846522272 0
vt 0.63087368 0.616691709 0
vt 0.540046394 0.55939877 0
vt 0.654503405 0.521008134 0
vt 0.389905661 0.0946707353 0
vt 0.351015538 0.175855294 0
vt 0.339598864 0.0487736836 0
vt 0.662379384 0.765483379 0
vt 0.368671834 0.846522272 0
vt 0.562660515 0.685487151 0
vt 0.92985028 0.000804104959 0
vt 0.991795003 0.022049496 0
vt 0.861757398 0.184016466 0
vt 0.317592531 0.373160183 0
vt 0.363932252 0.328858614 0
vt 0.361646354 0.394371897 0
vt 0.849817097 0.256756067 0
vt 0.861757398 0.184016466 0
vt 0.954351425 0.215829924 0
vt 0.724529922 0.541370988 0
vt 0.654503405 0.521008134 0
vt 0.720724702 0.515517175 0
vt 0.31042105 0.798114598 0
vt 0.304477304 0.842900515 0
vt 0.25828293 0.76718086 0
vt 0.727948785 0.642593086 0
vt 0.91642791 0.591678321 0
vt 0.926747561 0.639422059 0
vt 0.368671834 0.846522272 0
vt 0.616614044 0.928913772 0
vt 0.498413593 0.918285906 0
vt 0.843372166 0.842145145 0
vt 0.761329293 0.878273249 0
vt 0.696886182 0.778884113 0
vt 0.155156031 0.216667652 0
vt 0.072357595 0.123452127 0
vt 0.172760755 0.0657256842 0
vt 0.698449969 0.0846167132 0
vt 0.729478121 0.0567815118 0
vt 0.822503269 0.123579361 0
vt 0.91642791 0.591678321 0
vt 0.990366578 0.6199494 0
vt 0.926747561 0.639422059 0
vt 0.987272441 0.560387611 0
vt 0.962502897 0.487160116 0
vt 0.984996676 0.495088279 0
vt 0.345119059 0.437303632 0
vt 0.317592531 0.373160183 0
vt 0.361646354 0.394371897 0
vt 0.915430307 0.74548924 0
vt 0.92683506 0.836899161 0
vt 0.890898168 0.799574673 0
vt 0.145566285 0.834867835 0
vt 0.00369998021 0.796730816 0
vt 0.150330096 0.781029344 0
vt 0.0781386346 0.358695149 0
vt 0.00565561233 0.232174993 0
vt 0.155156031 0.216667652 0
vt 0.540046394 0.55939877 0
vt 0.625513017 0.502235591 0
vt 0.654503405 0.521008134 0
vt 0.196053907 0.668065786 0
vt 0.196512461 0.548597217 0
vt 0.247526705 0.612397432 0
vt 0.308898866 0.453864545 0
vt 0.317592531 0.373160183 0
vt 0.345119059 0.437303632 0
vt 0.198622674 0.352106392 0
vt 0.266247928 0.198927253 0
vt 0.317592531 0.373160183 0
vt 0.198622674 0.352106392 0
vt 0.0781386346 0.358695149 0
vt 0.155156031 0.216667652 0
vt 0.573871195 0.133200422 0
vt 0.619234204 0.0912289843 0
vt 0.698449969 0.0846167132 0
vt 0.198622674 0.352106392 0
vt 0.155156031 0.216667652 0
vt 0.266247928 0.198927253 0
vt 0.662379384 0.765483379 0
vt 0.562660515 0.685487151 0
vt 0.601642728 0.69478935 0
vt 0.351015538 0.175855294 0
vt 0.389905661 0.0946707353 0
vt 0.468604356 0.158676445 0
vt 0.962502897 0.487160116 0
vt 0.987272441 0.560387611 0
vt 0.91642791 0.591678321 0
vt 0.91642791 0.591678321 0
vt 0.987272441 0.560387611 0
vt 0.990366578 0.6199494 0
vt 0.769102693 0.468188733 0
vt 0.681135595 0.420533925 0
vt 0.742686927 0.345465958 0
vt 0.861757398 0.184016466 0
vt 0.698449969 0.0846167132 0
vt 0.822503269 0.123579361 0
vt 0.813162386 0.44470641 0
vt 0.769102693 0.468188733 0
vt 0.844946504 0.335730463 0
vt 0.849817097 0.256756067 0
vt 0.698449969 0.0846167132 0
vt 0.861757398 0.184016466 0
vt 0.206487358 0.870753944 0
vt 0.145566285 0.834867835 0
vt 0.150330096 0.781029344 0
vt 0.196512461 0.548597217 0
vt 0.129242167 0.472610205 0
vt 0.213879853 0.463358462 0
vt 0.919917583 0.449466497 0
vt 0.962502897 0.487160116 0
vt 0.884982407 0.509215593 0
vt 0.718501329 0.337221742 0
vt 0.549203038 0.385937154 0
vt 0.513664842 0.33623296 0
vt 0.662379384 0.765483379 0
vt 0.672766984 0.800665975 0
vt 0.669048667 0.854830444 0
vt 0.759013295 0.0581174903 0
vt 0.822503269 0.123579361 0
vt 0.729478121 0.0567815118 0
vt 0.653057873 0.37933284 0
vt 0.549203038 0.385937154 0
vt 0.718501329 0.337221742 0
vt 0.698449969 0.0846167132 0
vt 0.849817097 0.256756067 0
vt 0.513200283 0.256802529 0
vt 0.911607385 0.693647683 0
vt 0.727948785 0.642593086 0
vt 0.926747561 0.639422059 0
vt 0.027143579 0.598254979 0
vt 0.0193265174 0.488396645 0
vt 0.088451229 0.615232468 0
vt 0.395027757 0.0172998738 0
vt 0.456174165 0.0861504972 0
vt 0.389905661 0.0946707353 0
vt 0.775984466 0.581558287 0
vt 0.727948785 0.642593086 0
vt 0.724529922 0.541370988 0
vt 0.0884882435 0.633149326 0
vt 0.196836784 0.71702683 0
vt 0.150330096 0.781029344 0
vt 0.196053907 0.668065786 0
vt 0.088451229 0.615232468 0
vt 0.196512461 0.548597217 0
vt 0.933455408 0.280972332 0
vt 0.849817097 0.256756067 0
vt 0.954351425 0.215829924 0
vt 0.155156031 0.216667652 0
vt 0.172760755 0.0657256842 0
vt 0.266247928 0.198927253 0
vt 0.825266659 0.574872434 0
vt 0.884982407 0.509215593 0
vt 0.91642791 0.591678321 0
vt 0.468604356 0.158676445 0
vt 0.501395881 0.249742419 0
vt 0.437193125 0.238760993 0
vt 0.395027757 0.0172998738 0
vt 0.389905661 0.0946707353 0
vt 0.339598864 0.0487736836 0
vt 0.398032725 0.646387756 0
vt 0.474134594 0.564810753 0
vt 0.460146666 0.620158613 0
vt 0.317592531 0.373160183 0
vt 0.23550497 0.418569863 0
vt 0.198622674 0.352106392 0
vt 0.213879853 0.463358462 0
vt 0.247399241 0.539529502 0
vt 0.196512461 0.548597217 0
vt 0.654503405 0.521008134 0
vt 0.727948785 0.642593086 0
vt 0.63087368 0.616691709 0
vt 0.00369998021 0.796730816 0
vt 0.0558590442 0.73623091 0
vt 0.150330096 0.781029344 0
vt 0.339598864 0.0487736836 0
vt 0.258438945 0.0195912346 0
vt 0.395027757 0.0172998738 0
vt 0.072357595 0.123452127 0
vt 0.00565561233 0.232174993 0
vt 0.0178356376 0.160552442 0
vt 0.729478121 0.0567815118 0
vt 0.698449969 0.0846167132 0
vt 0.619234204 0.0912289843 0
vt 0.360945046 0.46807 0
vt 0.363868028 0.420699924 0
vt 0.426970422 0.476077795 0
vt 0.562660515 0.685487151 0
vt 0.543614686 0.614198387 0
vt 0.601642728 0.69478935 0
vt 0.398032725 0.646387756 0
vt 0.247526705 0.612397432 0
vt 0.247399241 0.539529502 0
vt 0.247526705 0.612397432 0
vt 0.224311799 0.680320919 0
vt 0.196053907 0.668065786 0
vt 0.308898866 0.453864545 0
vt 0.23550497 0.418569863 0
vt 0.317592531 0.373160183 0
vt 0.23550497 0.418569863 0
vt 0.149407133 0.399386764 0
vt 0.198622674 0.352106392 0
vt 0.714016378 0.86343956 0
vt 0.689781129 0.804233193 0
vt 0.696886182 0.778884113 0
vt 0.198622674 0.352106392 0
vt 0.149407133 0.399386764 0
vt 0.0781386346 0.358695149 0
vt 0.247399241 0.539529502 0
vt 0.324767798 0.483528942 0
vt 0.422754705 0.540836871 0
vt 0.213879853 0.463358462 0
vt 0.129242167 0.472610205 0
vt 0.0740684494 0.42575407 0
vt 0.206487358 0.870753944 0
vt 0.347970992 0.950392962 0
vt 0.241792381 0.928420901 0
vt 0.341482162 0.720886588 0
vt 0.383981615 0.676259816 0
vt 0.562660515 0.685487151 0
vt 0.389905661 0.0946707353 0
vt 0.456174165 0.0861504972 0
vt 0.468604356 0.158676445 0
vt 0.172760755 0.0657256842 0
vt 0.258438945 0.0195912346 0
vt 0.339598864 0.0487736836 0
vt 0.562660515 0.685487151 0
vt 0.469664603 0.619398952 0
vt 0.489595056 0.577439785 0
vt 0.812331736 0.768443406 0
vt 0.890898168 0.799574673 0
vt 0.696886182 0.778884113 0
vt 0.843372166 0.842145145 0
vt 0.696886182 0.778884113 0
vt 0.890898168 0.799574673 0
vt 0.213879853 0.463358462 0
vt 0.0740684494 0.42575407 0
vt 0.15757741 0.43746981 0
vt 0.25828293 0.76718086 0
vt 0.150330096 0.781029344 0
vt 0.196836784 0.71702683 0
vt 0.150330096 0.781029344 0
vt 0.0558590442 0.73623091 0
vt 0.0884882435 0.633149326 0
vt 0.489595056 0.577439785 0
vt 0.543614686 0.614198387 0
vt 0.562660515 0.685487151 0
vt 0.696886182 0.778884113 0
vt 0.762993813 0.76357311 0
vt 0.812331736 0.768443406 0
vt 0.351015538 0.175855294 0
vt 0.468604356 0.158676445 0
vt 0.437193125 0.238760993 0
vt 0.954351425 0.215829924 0
vt 0.861757398 0.184016466 0
vt 0.993108571 0.118587114 0
vt 0.129242167 0.472610205 0
vt 0.196512461 0.548597217 0
vt 0.0193265174 0.488396645 0
vt 0.324767798 0.483528942 0
vt 0.426970422 0.476077795 0
vt 0.422754705 0.540836871 0
vt 0.911607385 0.693647683 0
vt 0.780766845 0.691366017 0
vt 0.727948785 0.642593086 0
vt 0.681718051 0.657260358 0
vt 0.727948785 0.642593086 0
vt 0.780766845 0.691366017 0
vt 0.118777812 0.0309658572 0
vt 0.150569901 0.00358248362 0
vt 0.172760755 0.0657256842 0
vt 0.654503405 0.521008134 0
vt 0.681135595 0.420533925 0
vt 0.769102693 0.468188733 0
vt 0.363932252 0.328858614 0
vt 0.317592531 0.373160183 0
vt 0.266247928 0.198927253 0
vt 0.727948785 0.642593086 0
vt 0.825266659 0.574872434 0
vt 0.91642791 0.591678321 0
vt 0.882643938 0.361882597 0
vt 0.813162386 0.44470641 0
vt 0.844946504 0.335730463 0
vt 0.849817097 0.256756067 0
vt 0.513664842 0.33623296 0
vt 0.513200283 0.256802529 0
vt 0.962502897 0.487160116 0
vt 0.91642791 0.591678321 0
vt 0.884982407 0.509215593 0
vt 0.00565561233 0.232174993 0
vt 0.072357595 0.123452127 0
vt 0.155156031 0.216667652 0
vt 0.681718051 0.657260358 0
vt 0.63087368 0.616691709 0
vt 0.727948785 0.642593086 0
vt 0.744298339 0.338577092 0
vt 0.718501329 0.337221742 0
vt 0.834811151 0.301711917 0
vt 0.943267107 0.686617911 0
vt 0.926747561 0.639422059 0
vt 0.983354568 0.656358898 0
vt 0.247526705 0.612397432 0
vt 0.398032725 0.646387756 0
vt 0.224311799 0.680320919 0
vt 0.718501329 0.337221742 0
vt 0.849817097 0.256756067 0
vt 0.834811151 0.301711917 0
vt 0.640522659 0.671772361 0
vt 0.63087368 0.616691709 0
vt 0.681718051 0.657260358 0
vt 0.501957655 0.363969982 0
vt 0.443504274 0.420999765 0
vt 0.361646354 0.394371897 0
vt 0.361646354 0.394371897 0
vt 0.363932252 0.328858614 0
vt 0.501957655 0.363969982 0
vt 0.991795003 0.022049496 0
vt 0.993108571 0.118587114 0
vt 0.861757398 0.184016466 0
vt 0.196512461 0.548597217 0
vt 0.247399241 0.539529502 0
vt 0.247526705 0.612397432 0
vt 0.318291396 0.810301661 0
vt 0.325269312 0.775489628 0
vt 0.368671834 0.846522272 0
vt 0.25828293 0.76718086 0
vt 0.304477304 0.842900515 0
vt 0.206487358 0.870753944 0
vt 0.402457416 0.924840093 0
vt 0.342963159 0.887038231 0
vt 0.368671834 0.846522272 0
vt 0.915430307 0.74548924 0
vt 0.890898168 0.799574673 0
vt 0.812331736 0.768443406 0
vt 0.172760755 0.0657256842 0
vt 0.072357595 0.123452127 0
vt 0.118777812 0.0309658572 0
vt 0.213879853 0.463358462 0
vt 0.256225318 0.437268049 0
vt 0.324767798 0.483528942 0
vt 0.849817097 0.256756067 0
vt 0.718501329 0.337221742 0
vt 0.513664842 0.33623296 0
vt 0.943267107 0.686617911 0
vt 0.911607385 0.693647683 0
vt 0.926747561 0.639422059 0
vt 0.681135595 0.420533925 0
vt 0.654503405 0.521008134 0
vt 0.660436511 0.43344301 0
vt 0.460146666 0.620158613 0
vt 0.462412715 0.659771442 0
vt 0.398032725 0.646387756 0
vt 0.426970422 0.476077795 0
vt 0.474134594 0.564810753 0
vt 0.422754705 0.540836871 0
vt 0.714016378 0.86343956 0
vt 0.696886182 0.778884113 0
vt 0.761329293 0.878273249 0
vt 0.324767798 0.483528942 0
vt 0.360945046 0.46807 0
vt 0.426970422 0.476077795 0
vt 0.501395881 0.249742419 0
vt 0.501957655 0.363969982 0
vt 0.437193125 0.238760993 0
vt 0.196512461 0.548597217 0
vt 0.088451229 0.615232468 0
vt 0.0193265174 0.488396645 0
vt 0.318291396 0.810301661 0
vt 0.368671834 0.846522272 0
vt 0.342963159 0.887038231 0
vt 0.498413593 0.918285906 0
vt 0.402457416 0.924840093 0
vt 0.368671834 0.846522272 0
vt 0.426970422 0.476077795 0
vt 0.510646284 0.47893703 0
vt 0.474134594 0.564810753 0
vt 0.456174165 0.0861504972 0
vt 0.395027757 0.0172998738 0
vt 0.429904401 0.0172878765 0
vt 0.513200283 0.256802529 0
vt 0.573871195 0.133200422 0
vt 0.698449969 0.0846167132 0
vn 0.596785128 -0.369058281 0.692785561
vn 0.911038518 -0.339585483 0.267192096
vn 0.811804712 -0.26469183 0.49509421
vn -0.139203951 -0.971984446 -0.0425578915
vn -0.0131942602 -0.944846511 0.191231027
vn -0.5716061 -0.656046271 0.392192334
vn 0.596140146 -0.0763140693 -0.737818003
vn 0.699719071 -0.162061661 -0.706653357
vn -0.106021322 0.0901195854 -0.919866681
vn -0.918949842 0.166984588 -0.326027066
vn -0.942721725 0.17433925 -0.269658774
vn -0.980895996 0.181200758 -0.00165835628
vn -0.0870884359 0.7536062 -0.656940997
vn -0.528107166 0.500027359 -0.674339831
vn -0.484855741 0.787222207 -0.37294811
vn -0.458783776 0.232084453 0.862423182
vn -0.68937397 0.344577521 0.637204707
vn -0.729905069 0.122314222 0.66760838
vn -0.00839931984 -0.139892071 0.985539496
vn 0.0723487586 -0.249219716 0.968511999
vn 0.596785128 -0.369058281 0.692785561
vn -0.0870884359 0.7536062 -0.656940997
vn 0.25804323 0.434200048 -0.909898579
vn -0.528107166 0.500027359 -0.674339831
vn 0.679153323 0.127691552 -0.675647676
vn 0.936804473 0.292231083 -0.0567477606
vn 0.462801158 -0.465806931 -0.734129846
vn -0.139203951 -0.971984446 -0.0425578915
vn 0.203230321 -0.889135838 0.184078634
vn -0.0131942602 -0.944846511 0.191231027
vn -0.139203951 -0.971984446 -0.0425578915
vn 0.0583275035 -0.940198362 -0.216408491
vn 0.228340581 -0.923345983 -0.0739034265
vn -0.832396209 0.389766067 0.307044387
vn -0.940921068 0.307999253 -0.13490206
vn -0.965948939 -0.241155997 0.155696154
vn 0.818570316 0.232158288 -0.687547982
vn -0.106021322 0.0901195854 -0.919866681
vn 0.752382338 0.254269242 -0.657517552
vn -0.940921068 0.307999253 -0.13490206
vn -0.832396209 0.389766067 0.307044387
vn -0.980895996 0.181200758 -0.00165835628
vn -0.942721725 0.17433925 -0.269658774
vn -0.940921068 0.307999253 -0.13490206
vn -0.980895996 0.181200758 -0.00165835628
vn 0.422370672 -0.0790757164 -0.890875697
vn 0.679153323 0.127691552 -0.675647676
vn 0.462801158 -0.465806931 -0.734129846
vn -0.149959162 0.51988256 0.849894524
vn 0.0780868232 0.668157995 0.7394225
vn -0.640127838 0.524419844 0.52770561
vn -0.458783776 0.232084453 0.862423182
vn -0.540296376 0.0115025491 0.841840625
vn -0.00839931984 -0.139892071 0.985539496
vn 0.596140146 -0.0763140693 -0.737818003
vn 0.665782392 0.300158352 -0.688793838
vn 0.748389781 0.411088049 -0.517839491
vn 0.457210928 -0.749075055 -0.305899143
vn 0.77012682 -0.439697593 -0.383204579
vn 0.228340581 -0.923345983 -0.0739034265
vn -0.484855741 0.787222207 -0.37294811
vn -0.0638523251 0.990487158 0.26340577
vn 0.607375741 0.604391277 -0.457626343
vn 0.596140146 -0.0763140693 -0.737818003
vn 0.422370672 -0.0790757164 -0.890875697
vn 0.746574759 0.0358170755 -0.644456267
vn 0.596785128 -0.369058281 0.692785561
vn 0.0723487586 -0.249219716 0.968511999
vn -0.0131942602 -0.944846511 0.191231027
vn -0.692093492 0.113418356 -0.725479841
vn -0.918949842 0.166984588 -0.326027066
vn -0.510154724 0.257442832 -0.836015999
vn -0.5716061 -0.656046271 0.392192334
vn -0.832396209 0.389766067 0.307044387
vn -0.965948939 -0.241155997 0.155696154
vn 0.710103393 -0.199973553 0.67510277
vn 0.596785128 -0.369058281 0.692785561
vn 0.811804712 -0.26469183 0.49509421
vn 0.457210928 -0.749075055 -0.305899143
vn 0.68996805 -0.266967952 -0.695390761
vn 0.77012682 -0.439697593 -0.383204579
vn 0.611046433 0.492614359 -0.622266114
vn 0.25804323 0.434200048 -0.909898579
vn -0.0870884359 0.7536062 -0.656940997
vn -0.655994534 -0.353360891 -0.680940032
vn -0.559044838 -0.59047091 -0.582736731
vn -0.675575376 -0.559846699 -0.513497472
vn -0.307191908 -0.749397993 -0.593607962
vn -0.559044838 -0.59047091 -0.582736731
vn -0.429990351 -0.208369493 -0.889104366
vn -0.307191908 -0.749397993 -0.593607962
vn 0.0583275035 -0.940198362 -0.216408491
vn -0.139203951 -0.971984446 -0.0425578915
vn 0.25804323 0.434200048 -0.909898579
vn 0.611046433 0.492614359 -0.622266114
vn 0.596140146 -0.0763140693 -0.737818003
vn -0.964130938 0.119699515 -0.284362555
vn -0.940921068 0.307999253 -0.13490206
vn -0.942721725 0.17433925 -0.269658774
vn 0.203230321 -0.889135838 0.184078634
vn -0.139203951 -0.971984446 -0.0425578915
vn 0.228340581 -0.923345983 -0.0739034265
vn 0.596785128 -0.369058281 0.692785561
vn 0.203230321 -0.889135838 0.184078634
vn 0.911038518 -0.339585483 0.267192096
vn -0.845119953 0.172656402 0.313919902
vn -0.832396209 0.389766067 0.307044387
vn -0.685121894 0.166133255 0.574062109
vn 0.936804473 0.292231083 -0.0567477606
vn 0.911038518 -0.339585483 0.267192096
vn 0.761735141 -0.634247124 -0.271634161
vn 0.699719071 -0.162061661 -0.706653357
vn 0.596140146 -0.0763140693 -0.737818003
vn 0.746574759 0.0358170755 -0.644456267
vn 0.611046433 0.492614359 -0.622266114
vn -0.0870884359 0.7536062 -0.656940997
vn 0.607375741 0.604391277 -0.457626343
vn -0.106021322 0.0901195854 -0.919866681
vn 0.143992826 -0.154008016 -0.982362449
vn -0.429990351 -0.208369493 -0.889104366
vn -0.139203951 -0.971984446 -0.0425578915
vn -0.5716061 -0.656046271 0.392192334
vn -0.352045327 -0.934616327 0.0151150767
vn 0.687277019 0.149155334 -0.725423336
vn 0.818570316 0.232158288 -0.687547982
vn 0.746574759 0.0358170755 -0.644456267
vn -0.969101787 0.208598778 0.0675371289
vn -0.837651253 0.456043929 -0.203170508
vn -0.918949842 0.166984588 -0.326027066
vn 0.935240746 0.350284994 0.106669575
vn 0.72142756 0.118249781 0.678451836
vn 0.811804712 -0.26469183 0.49509421
vn 0.143992826 -0.154008016 -0.982362449
vn -0.307191908 -0.749397993 -0.593607962
vn -0.429990351 -0.208369493 -0.889104366
vn 0.0583275035 -0.940198362 -0.216408491
vn 0.68996805 -0.266967952 -0.695390761
vn 0.457210928 -0.749075055 -0.305899143
vn -0.388483614 0.388488859 0.810907781
vn -0.845119953 0.172656402 0.313919902
vn -0.685121894 0.166133255 0.574062109
vn 0.77012682 -0.439697593 -0.383204579
vn 0.68996805 -0.266967952 -0.695390761
vn 0.813199759 0.0964234397 -0.548506141
vn -0.761417091 0.627492011 0.173614413
vn -0.640127838 0.524419844 0.52770561
vn -0.0638523251 0.990487158 0.26340577
vn -0.640127838 0.524419844 0.52770561
vn -0.761417091 0.627492011 0.173614413
vn -0.969101787 0.208598778 0.0675371289
vn 0.611046433 0.492614359 -0.622266114
vn 0.665782392 0.300158352 -0.688793838
vn 0.596140146 -0.0763140693 -0.737818003
vn 0.72142756 0.118249781 0.678451836
vn 0.217797026 0.448396146 0.880478024
vn 0.473711193 -0.161247954 0.871714711
vn -0.540296376 0.0115025491 0.841840625
vn -0.845119953 0.172656402 0.313919902
vn -0.388483614 0.388488859 0.810907781
vn -0.923890948 0.210875079 0.31582278
vn -0.980895996 0.181200758 -0.00165835628
vn -0.845119953 0.172656402 0.313919902
vn -0.923890948 0.210875079 0.31582278
vn -0.640127838 0.524419844 0.52770561
vn -0.969101787 0.208598778 0.0675371289
vn 0.715347826 0.547542512 0.368187428
vn 0.457527965 0.526711464 0.718916893
vn 0.935240746 0.350284994 0.106669575
vn -0.923890948 0.210875079 0.31582278
vn -0.969101787 0.208598778 0.0675371289
vn -0.980895996 0.181200758 -0.00165835628
vn 0.203230321 -0.889135838 0.184078634
vn 0.228340581 -0.923345983 -0.0739034265
vn 0.617044985 -0.725987077 0.291575432
vn -0.940921068 0.307999253 -0.13490206
vn -0.964130938 0.119699515 -0.284362555
vn -0.885984778 -0.40280202 -0.157809407
vn 0.68996805 -0.266967952 -0.695390761
vn 0.0583275035 -0.940198362 -0.216408491
vn 0.143992826 -0.154008016 -0.982362449
vn 0.143992826 -0.154008016 -0.982362449
vn 0.0583275035 -0.940198362 -0.216408491
vn -0.307191908 -0.749397993 -0.593607962
vn 0.422370672 -0.0790757164 -0.890875697
vn 0.348831445 -0.011573609 -0.908653438
vn 0.679153323 0.127691552 -0.675647676
vn 0.911038518 -0.339585483 0.267192096
vn 0.935240746 0.350284994 0.106669575
vn 0.811804712 -0.26469183 0.49509421
vn 0.804580569 0.257561594 -0.483033478
vn 0.422370672 -0.0790757164 -0.890875697
vn 0.462801158 -0.465806931 -0.734129846
vn 0.936804473 0.292231083 -0.0567477606
vn 0.935240746 0.350284994 0.106669575
vn 0.911038518 -0.339585483 0.267192096
vn -0.484855741 0.787222207 -0.37294811
vn -0.761417091 0.627492011 0.173614413
vn -0.0638523251 0.990487158 0.26340577
vn 0.217797026 0.448396146 0.880478024
vn -0.149959162 0.51988256 0.849894524
vn -0.458783776 0.232084453 0.862423182
vn 0.813199759 0.0964234397 -0.548506141
vn 0.68996805 -0.266967952 -0.695390761
vn 0.687277019 0.149155334 -0.725423336
vn 0.748389781 0.411088049 -0.517839491
vn 0.611046433 0.492614359 -0.622266114
vn 0.607375741 0.604391277 -0.457626343
vn 0.203230321 -0.889135838 0.184078634
vn 0.331692785 -0.747903109 0.612243414
vn -0.0131942602 -0.944846511 0.191231027
vn 0.710103393 -0.199973553 0.67510277
vn 0.811804712 -0.26469183 0.49509421
vn 0.72142756 0.118249781 0.678451836
vn 0.665782392 0.300158352 -0.688793838
vn 0.611046433 0.492614359 -0.622266114
vn 0.748389781 0.411088049 -0.517839491
vn 0.935240746 0.350284994 0.106669575
vn 0.936804473 0.292231083 -0.0567477606
vn 0.872897744 0.436210722 -0.105523258
vn -0.693523645 -0.106156282 -0.737876117
vn -0.106021322 0.0901195854 -0.919866681
vn -0.429990351 -0.208369493 -0.889104366
vn 0.715347826 0.547542512 0.368187428
vn 0.0780868232 0.668157995 0.7394225
vn 0.457527965 0.526711464 0.718916893
vn -0.693523645 -0.106156282 -0.737876117
vn -0.675575376 -0.559846699 -0.513497472
vn -0.964130938 0.119699515 -0.284362555
vn 0.752382338 0.254269242 -0.657517552
vn -0.106021322 0.0901195854 -0.919866681
vn 0.699719071 -0.162061661 -0.706653357
vn 0.715347826 0.547542512 0.368187428
vn 0.872897744 0.436210722 -0.105523258
vn -0.0638523251 0.990487158 0.26340577
vn 0.72142756 0.118249781 0.678451836
vn 0.457527965 0.526711464 0.718916893
vn 0.217797026 0.448396146 0.880478024
vn 0.462801158 -0.465806931 -0.734129846
vn 0.936804473 0.292231083 -0.0567477606
vn 0.761735141 -0.634247124 -0.271634161
vn -0.969101787 0.208598778 0.0675371289
vn -0.918949842 0.166984588 -0.326027066
vn -0.980895996 0.181200758 -0.00165835628
vn 0.818570316 0.232158288 -0.687547982
vn 0.687277019 0.149155334 -0.725423336
vn 0.143992826 -0.154008016 -0.982362449
vn -0.885984778 -0.40280202 -0.157809407
vn -0.352045327 -0.934616327 0.0151150767
vn -0.965948939 -0.241155997 0.155696154
vn -0.693523645 -0.106156282 -0.737876117
vn -0.964130938 0.119699515 -0.284362555
vn -0.942721725 0.17433925 -0.269658774
vn 0.596785128 -0.369058281 0.692785561
vn -0.0131942602 -0.944846511 0.191231027
vn 0.331692785 -0.747903109 0.612243414
vn -0.845119953 0.172656402 0.313919902
vn -0.729905069 0.122314222 0.66760838
vn -0.923890948 0.210875079 0.31582278
vn -0.458783776 0.232084453 0.862423182
vn -0.00839931984 -0.139892071 0.985539496
vn 0.217797026 0.448396146 0.880478024
vn 0.596140146 -0.0763140693 -0.737818003
vn -0.106021322 0.0901195854 -0.919866681
vn 0.25804323 0.434200048 -0.909898579
vn -0.640127838 0.524419844 0.52770561
vn 0.0780868232 0.668157995 0.7394225
vn -0.0638523251 0.990487158 0.26340577
vn -0.942721725 0.17433925 -0.269658774
vn -0.692093492 0.113418356 -0.725479841
vn -0.693523645 -0.106156282 -0.737876117
vn -0.837651253 0.456043929 -0.203170508
vn -0.761417091 0.627492011 0.173614413
vn -0.484855741 0.787222207 -0.37294811
vn 0.72142756 0.118249781 0.678451836
vn 0.935240746 0.350284994 0.106669575
vn 0.457527965 0.526711464 0.718916893
vn -0.388483614 0.388488859 0.810907781
vn -0.685121894 0.166133255 0.574062109
vn -0.449245185 -0.283818036 0.806125462
vn 0.228340581 -0.923345983 -0.0739034265
vn 0.761735141 -0.634247124 -0.271634161
vn 0.617044985 -0.725987077 0.291575432
vn 0.596785128 -0.369058281 0.692785561
vn 0.473711193 -0.161247954 0.871714711
vn -0.00839931984 -0.139892071 0.985539496
vn 0.473711193 -0.161247954 0.871714711
vn 0.710103393 -0.199973553 0.67510277
vn 0.72142756 0.118249781 0.678451836
vn -0.540296376 0.0115025491 0.841840625
vn -0.729905069 0.122314222 0.66760838
vn -0.845119953 0.172656402 0.313919902
vn -0.729905069 0.122314222 0.66760838
vn -0.68937397 0.344577521 0.637204707
vn -0.923890948 0.210875079 0.31582278
vn 0.752382338 0.254269242 -0.657517552
vn 0.699719071 -0.162061661 -0.706653357
vn 0.746574759 0.0358170755 -0.644456267
vn -0.923890948 0.210875079 0.31582278
vn -0.68937397 0.344577521 0.637204707
vn -0.640127838 0.524419844 0.52770561
vn -0.00839931984 -0.139892071 0.985539496
vn -0.540296376 0.0115025491 0.841840625
vn 0.0723487586 -0.249219716 0.968511999
vn -0.458783776 0.232084453 0.862423182
vn -0.149959162 0.51988256 0.849894524
vn -0.640127838 0.524419844 0.52770561
vn -0.484855741 0.787222207 -0.37294811
vn -0.528107166 0.500027359 -0.674339831
vn -0.837651253 0.456043929 -0.203170508
vn 0.0583275035 -0.940198362 -0.216408491
vn 0.457210928 -0.749075055 -0.305899143
vn 0.228340581 -0.923345983 -0.0739034265
vn -0.964130938 0.119699515 -0.284362555
vn -0.675575376 -0.559846699 -0.513497472
vn -0.885984778 -0.40280202 -0.157809407
vn -0.918949842 0.166984588 -0.326027066
vn -0.692093492 0.113418356 -0.725479841
vn -0.942721725 0.17433925 -0.269658774
vn 0.228340581 -0.923345983 -0.0739034265
vn 0.77012682 -0.439697593 -0.383204579
vn 0.462801158 -0.465806931 -0.734129846
vn 0.804580569 0.257561594 -0.483033478
vn 0.813199759 0.0964234397 -0.548506141
vn 0.746574759 0.0358170755 -0.644456267
vn 0.687277019 0.149155334 -0.725423336
vn 0.746574759 0.0358170755 -0.644456267
vn 0.813199759 0.0964234397 -0.548506141
vn -0.458783776 0.232084453 0.862423182
vn -0.640127838 0.524419844 0.52770561
vn -0.68937397 0.344577521 0.637204707
vn 0.607375741 0.604391277 -0.457626343
vn -0.0638523251 0.990487158 0.26340577
vn 0.872897744 0.436210722 -0.105523258
vn -0.0638523251 0.990487158 0.26340577
vn 0.0780868232 0.668157995 0.7394225
vn 0.715347826 0.547542512 0.368187428
vn 0.462801158 -0.465806931 -0.734129846
vn 0.761735141 -0.634247124 -0.271634161
vn 0.228340581 -0.923345983 -0.0739034265
vn 0.746574759 0.0358170755 -0.644456267
vn 0.422370672 -0.0790757164 -0.890875697
vn 0.804580569 0.257561594 -0.483033478
vn -0.940921068 0.307999253 -0.13490206
vn -0.885984778 -0.40280202 -0.157809407
vn -0.965948939 -0.241155997 0.155696154
vn 0.761735141 -0.634247124 -0.271634161
vn 0.911038518 -0.339585483 0.267192096
vn 0.617044985 -0.725987077 0.291575432
vn -0.149959162 0.51988256 0.849894524
vn 0.217797026 0.448396146 0.880478024
vn 0.0780868232 0.668157995 0.7394225
vn -0.540296376 0.0115025491 0.841840625
vn -0.449245185 -0.283818036 0.806125462
vn 0.0723487586 -0.249219716 0.968511999
vn -0.693523645 -0.106156282 -0.737876117
vn -0.692093492 0.113418356 -0.725479841
vn -0.106021322 0.0901195854 -0.919866681
vn -0.510154724 0.257442832 -0.836015999
vn -0.106021322 0.0901195854 -0.919866681
vn -0.692093492 0.113418356 -0.725479841
vn -0.528107166 0.500027359 -0.674339831
vn -0.510154724 0.257442832 -0.836015999
vn -0.918949842 0.166984588 -0.326027066
vn 0.596140146 -0.0763140693 -0.737818003
vn 0.348831445 -0.011573609 -0.908653438
vn 0.422370672 -0.0790757164 -0.890875697
vn -0.832396209 0.389766067 0.307044387
vn -0.845119953 0.172656402 0.313919902
vn -0.980895996 0.181200758 -0.00165835628
vn -0.106021322 0.0901195854 -0.919866681
vn 0.818570316 0.232158288 -0.687547982
vn 0.143992826 -0.154008016 -0.982362449
vn 0.77012682 -0.439697593 -0.383204579
vn 0.804580569 0.257561594 -0.483033478
vn 0.462801158 -0.465806931 -0.734129846
vn 0.936804473 0.292231083 -0.0567477606
vn 0.607375741 0.604391277 -0.457626343
vn 0.872897744 0.436210722 -0.105523258
vn 0.68996805 -0.266967952 -0.695390761
vn 0.143992826 -0.154008016 -0.982362449
vn 0.687277019 0.149155334 -0.725423336
vn -0.761417091 0.627492011 0.173614413
vn -0.837651253 0.456043929 -0.203170508
vn -0.969101787 0.208598778 0.0675371289
vn -0.510154724 0.257442832 -0.836015999
vn 0.25804323 0.434200048 -0.909898579
vn -0.106021322 0.0901195854 -0.919866681
vn 0.348831445 -0.011573609 -0.908653438
vn 0.748389781 0.411088049 -0.517839491
vn 0.679153323 0.127691552 -0.675647676
vn -0.655994534 -0.353360891 -0.680940032
vn -0.429990351 -0.208369493 -0.889104366
vn -0.559044838 -0.59047091 -0.582736731
vn 0.473711193 -0.161247954 0.871714711
vn 0.596785128 -0.369058281 0.692785561
vn 0.710103393 -0.199973553 0.67510277
vn 0.748389781 0.411088049 -0.517839491
vn 0.936804473 0.292231083 -0.0567477606
vn 0.679153323 0.127691552 -0.675647676
vn -0.528107166 0.500027359 -0.674339831
vn 0.25804323 0.434200048 -0.909898579
vn -0.510154724 0.257442832 -0.836015999
vn -0.5716061 -0.656046271 0.392192334
vn -0.449245185 -0.283818036 0.806125462
vn -0.685121894 0.166133255 0.574062109
vn -0.685121894 0.166133255 0.574062109
vn -0.832396209 0.389766067 0.307044387
vn -0.5716061 -0.656046271 0.392192334
vn 0.203230321 -0.889135838 0.184078634
vn 0.617044985 -0.725987077 0.291575432
vn 0.911038518 -0.339585483 0.267192096
vn 0.217797026 0.448396146 0.880478024
vn -0.00839931984 -0.139892071 0.985539496
vn 0.473711193 -0.161247954 0.871714711
vn -0.559044838 -0.59047091 -0.582736731
vn -0.307191908 -0.749397993 -0.593607962
vn -0.139203951 -0.971984446 -0.0425578915
vn 0.607375741 0.604391277 -0.457626343
vn -0.0870884359 0.7536062 -0.656940997
vn -0.484855741 0.787222207 -0.37294811
vn -0.885984778 -0.40280202 -0.157809407
vn -0.675575376 -0.559846699 -0.513497472
vn -0.139203951 -0.971984446 -0.0425578915
vn 0.77012682 -0.439697593 -0.383204579
vn 0.813199759 0.0964234397 -0.548506141
vn 0.804580569 0.257561594 -0.483033478
vn -0.918949842 0.166984588 -0.326027066
vn -0.837651253 0.456043929 -0.203170508
vn -0.528107166 0.500027359 -0.674339831
vn -0.458783776 0.232084453 0.862423182
vn -0.729905069 0.122314222 0.66760838
vn -0.540296376 0.0115025491 0.841840625
vn 0.936804473 0.292231083 -0.0567477606
vn 0.748389781 0.411088049 -0.517839491
vn 0.607375741 0.604391277 -0.457626343
vn -0.655994534 -0.353360891 -0.680940032
vn -0.693523645 -0.106156282 -0.737876117
vn -0.429990351 -0.208369493 -0.889104366
vn 0.348831445 -0.011573609 -0.908653438
vn 0.596140146 -0.0763140693 -0.737818003
vn 0.748389781 0.411088049 -0.517839491
vn 0.331692785 -0.747903109 0.612243414
vn 0.203230321 -0.889135838 0.184078634
vn 0.596785128 -0.369058281 0.692785561
vn -0.449245185 -0.283818036 0.806125462
vn -0.0131942602 -0.944846511 0.191231027
vn 0.0723487586 -0.249219716 0.968511999
vn 0.752382338 0.254269242 -0.657517552
vn 0.746574759 0.0358170755 -0.644456267
vn 0.818570316 0.232158288 -0.687547982
vn -0.540296376 0.0115025491 0.841840625
vn -0.388483614 0.388488859 0.810907781
vn -0.449245185 -0.283818036 0.806125462
vn -0.352045327 -0.934616327 0.0151150767
vn -0.5716061 -0.656046271 0.392192334
vn -0.965948939 -0.241155997 0.155696154
vn 0.217797026 0.448396146 0.880478024
vn 0.457527965 0.526711464 0.718916893
vn 0.0780868232 0.668157995 0.7394225
vn -0.559044838 -0.59047091 -0.582736731
vn -0.139203951 -0.971984446 -0.0425578915
vn -0.675575376 -0.559846699 -0.513497472
vn -0.352045327 -0.934616327 0.0151150767
vn -0.885984778 -0.40280202 -0.157809407
vn -0.139203951 -0.971984446 -0.0425578915
vn -0.449245185 -0.283818036 0.806125462
vn -0.5716061 -0.656046271 0.392192334
vn -0.0131942602 -0.944846511 0.191231027
vn -0.675575376 -0.559846699 -0.513497472
vn -0.693523645 -0.106156282 -0.737876117
vn -0.655994534 -0.353360891 -0.680940032
vn 0.872897744 0.436210722 -0.105523258
vn 0.715347826 0.547542512 0.368187428
vn 0.935240746 0.350284994 0.106669575
g Group11373
f 32/1/1 44/2/2 18/3/3
f 34/4/4 74/5/5 46/6/6
f 27/7/7 45/8/8 3/9/9
f 33/10/10 57/11/11 8/12/12
f 47/13/13 2/14/14 30/15/15
f 63/16/16 80/17/17 66/18/18
f 5/19/19 58/20/20 32/21/21
f 47/22/22 40/23/23 2/24/24
f 65/25/25 37/26/26 29/27/27
f 34/28/28 42/29/29 74/30/30
f 34/31/31 67/32/32 13/33/33
f 19/34/34 21/35/35 24/36/36
f 7/37/37 3/38/38 31/39/39
f 21/40/40 19/41/41 8/42/42
f 57/43/43 21/44/44 8/45/45
f 70/46/46 65/47/47 29/48/48
f 28/49/49 23/50/50 52/51/51
f 63/52/52 51/53/53 5/54/54
f 27/55/55 53/56/56 11/57/57
f 35/58/58 60/59/59 13/60/60
f 30/61/61 15/62/62 25/63/63
f 27/64/64 70/65/65 71/66/66
f 32/67/67 58/68/68 74/69/69
f 68/70/70 33/71/71 64/72/72
f 46/73/73 19/74/74 24/75/75
f 79/76/76 32/77/77 18/78/78
f 35/79/79 38/80/80 60/81/81
f 49/82/82 40/83/83 47/84/84
f 14/85/85 36/86/86 76/87/87
f 50/88/88 36/89/89 55/90/90
f 50/91/91 67/92/92 34/93/93
f 40/94/94 49/95/95 27/96/96
f 62/97/97 21/98/98 57/99/99
f 42/100/100 34/101/101 13/102/102
f 32/103/103 42/104/104 44/105/105
f 10/106/106 19/107/107 43/108/108
f 37/109/109 44/110/110 12/111/111
f 45/112/112 27/113/113 71/114/114
f 49/115/115 47/116/116 25/117/117
f 3/118/118 48/119/119 55/120/120
f 34/121/121 46/122/122 77/123/123
f 22/124/124 7/125/125 71/126/126
f 61/127/127 72/128/128 33/129/129
f 16/130/130 75/131/131 18/132/132
f 48/133/133 50/134/134 55/135/135
f 67/136/136 38/137/137 35/138/138
f 78/139/139 10/140/140 43/141/141
f 60/142/142 38/143/143 73/144/144
f 9/145/145 52/146/146 15/147/147
f 52/148/148 9/149/149 61/150/150
f 49/151/151 53/152/152 27/153/153
f 75/154/154 69/155/155 54/156/156
f 51/157/157 10/158/158 78/159/159
f 59/160/160 8/161/161 10/162/162
f 59/163/163 52/164/164 61/165/165
f 39/166/166 56/167/167 16/168/168
f 59/169/169 61/170/170 8/171/171
f 42/172/172 13/173/173 81/174/174
f 21/175/175 62/176/176 6/177/177
f 38/178/178 67/179/179 48/180/180
f 48/181/181 67/182/182 50/183/183
f 70/184/184 1/185/185 65/186/186
f 44/187/187 16/188/188 18/189/189
f 20/190/190 70/191/191 29/192/192
f 37/193/193 16/194/194 44/195/195
f 30/196/196 9/197/197 15/198/198
f 69/199/199 28/200/200 63/201/201
f 73/202/202 38/203/203 22/204/204
f 11/205/205 49/206/206 25/207/207
f 42/208/208 4/209/209 74/210/210
f 79/211/211 18/212/212 75/213/213
f 53/214/214 49/215/215 11/216/216
f 16/217/217 37/218/218 41/219/219
f 17/220/220 3/221/221 55/222/222
f 39/223/223 23/224/224 56/225/225
f 17/226/226 76/227/227 62/228/228
f 31/229/229 3/230/230 45/231/231
f 39/232/232 41/233/233 15/234/234
f 75/235/235 56/236/236 69/237/237
f 29/238/238 37/239/239 12/240/240
f 61/241/241 33/242/242 8/243/243
f 7/244/244 22/245/245 48/246/246
f 6/247/247 77/248/248 24/249/249
f 17/250/250 62/251/251 57/252/252
f 32/253/253 74/254/254 4/255/255
f 10/256/256 66/257/257 59/258/258
f 63/259/259 5/260/260 69/261/261
f 27/262/262 3/263/263 40/264/264
f 52/265/265 23/266/266 15/267/267
f 57/268/268 68/269/269 17/270/270
f 72/271/271 9/272/272 30/273/273
f 75/274/274 16/275/275 56/276/276
f 78/277/277 43/278/278 26/279/279
f 13/280/280 12/281/281 81/282/282
f 32/283/283 54/284/284 5/285/285
f 54/286/286 79/287/287 75/288/288
f 51/289/289 66/290/290 10/291/291
f 66/292/292 80/293/293 59/294/294
f 31/295/295 45/296/296 71/297/297
f 59/298/298 80/299/299 52/300/300
f 5/301/301 51/302/302 58/303/303
f 63/304/304 28/305/305 52/306/306
f 30/307/307 2/308/308 72/309/309
f 67/310/310 35/311/311 13/312/312
f 62/313/313 76/314/314 6/315/315
f 33/316/316 68/317/317 57/318/318
f 13/319/319 60/320/320 29/321/321
f 20/322/322 73/323/323 71/324/324
f 22/325/325 71/326/326 73/327/327
f 63/328/328 52/329/329 80/330/330
f 25/331/331 15/332/332 41/333/333
f 15/334/334 23/335/335 39/336/336
f 29/337/337 12/338/338 13/339/339
f 71/340/340 70/341/341 20/342/342
f 21/343/343 6/344/344 24/345/345
f 12/346/346 44/347/347 81/348/348
f 28/349/349 69/350/350 23/351/351
f 51/352/352 26/353/353 58/354/354
f 17/355/355 68/356/356 3/357/357
f 64/358/358 3/359/359 68/360/360
f 2/361/361 64/362/362 33/363/363
f 27/364/364 1/365/365 70/366/366
f 19/367/367 10/368/368 8/369/369
f 3/370/370 7/371/371 48/372/372
f 60/373/373 20/374/374 29/375/375
f 37/376/376 25/377/377 41/378/378
f 38/379/379 48/380/380 22/381/381
f 9/382/382 72/383/383 61/384/384
f 64/385/385 40/386/386 3/387/387
f 1/388/388 11/389/389 65/390/390
f 14/391/391 55/392/392 36/393/393
f 54/394/394 32/395/395 79/396/396
f 11/397/397 37/398/398 65/399/399
f 2/400/400 40/401/401 64/402/402
f 46/403/403 26/404/404 43/405/405
f 43/406/406 19/407/407 46/408/408
f 42/409/409 81/410/410 44/411/411
f 69/412/412 5/413/413 54/414/414
f 36/415/415 50/416/416 34/417/417
f 25/418/418 47/419/419 30/420/420
f 6/421/421 76/422/422 34/423/423
f 60/424/424 73/425/425 20/426/426
f 33/427/427 72/428/428 2/429/429
f 63/430/430 66/431/431 51/432/432
f 37/433/433 11/434/434 25/435/435
f 14/436/436 17/437/437 55/438/438
f 1/439/439 27/440/440 11/441/441
f 4/442/442 42/443/443 32/444/444
f 26/445/445 74/446/446 58/447/447
f 31/448/448 71/449/449 7/450/450
f 51/451/451 78/452/452 26/453/453
f 77/454/454 46/455/455 24/456/456
f 69/457/457 56/458/458 23/459/459
f 36/460/460 34/461/461 76/462/462
f 77/463/463 6/464/464 34/465/465
f 26/466/466 46/467/467 74/468/468
f 76/469/469 17/470/470 14/471/471
f 41/472/472 39/473/473 16/474/474
