# File exported by Houdini 16.5.405 (www.sidefx.com)
# 31 points
# 174 vertices
# 58 primitives
# Bounds: [-34.9156799, -1.3149966, -32.3831558] to [32.0467987, 80.2195892, 42.324028]
g 
v 15.3950071 49.4863281 -17.0442429
v -12.9367256 54.7467079 -31.866642
v 6.68056011 -0.839216352 30.7362385
v 6.09901094 37.752739 42.324028
v -29.6498775 3.52669168 -11.5239849
v -3.58049464 29.477272 -32.3831558
v -23.2890129 46.4837952 13.9963331
v -11.2339144 78.5611801 -2.37427998
v -14.5070095 22.8223495 37.3081284
v 18.2475853 -1.26530242 10.2784662
v -21.2396011 10.644434 -27.746109
v -2.86999917 80.2195892 7.56823397
v 15.8140116 63.0883179 23.9251575
v 32.0467987 19.6006203 10.3701887
v -25.3421116 22.8535767 30.388073
v 4.70008087 39.4967461 -19.6021042
v -34.9156799 11.6870861 1.45373857
v 12.931097 9.451581 -22.696949
v -9.9219017 69.3216782 23.778698
v 7.92959404 77.6992111 -3.86367655
v -17.0912914 8.56811142 37.3407898
v 19.5842247 7.81095743 -10.5843773
v -21.3042488 27.285841 -28.5746555
v -8.46582794 -1.22575033 -32.0550499
v 7.55699539 -1.03390288 -25.1690674
v 30.7942505 26.8466454 -11.4088669
v 3.03302193 72.393074 -17.8554001
v -19.9346733 -1.3149966 27.1736565
v -12.445116 43.9801483 37.5535965
v -18.6615276 67.3734894 -13.7181549
v 22.9447918 36.8810196 30.7369347
vt 0.305737793 0.753804088 0
vt 0.686190307 0.784929991 0
vt 0.616614044 0.928913772 0
vt 0.647708118 0.469498366 0
vt 0.726416647 0.511457264 0
vt 0.666130364 0.660206079 0
vt 0.302014798 0.806683183 0
vt 0.379109859 0.95768106 0
vt 0.178932339 0.844487607 0
vt 0.233561605 0.566934228 0
vt 0.425573409 0.482293993 0
vt 0.450837791 0.634861469 0
vt 0.305737793 0.753804088 0
vt 0.372767359 0.676446497 0
vt 0.59094274 0.683653057 0
vt 0.416249961 0.2097812 0
vt 0.357108116 0.375087827 0
vt 0.198445588 0.285899848 0
vt 0.307673931 0.0252032485 0
vt 0.416249961 0.2097812 0
vt 0.198445588 0.285899848 0
vt 0.726416647 0.511457264 0
vt 0.74324733 0.330414444 0
vt 0.874804437 0.35157454 0
vt 0.217030942 0.456643552 0
vt 0.342720449 0.473279744 0
vt 0.233561605 0.566934228 0
vt 0.947328746 0.85316962 0
vt 0.910486162 0.737542689 0
vt 1.00426471 0.643110871 0
vt 0.178932339 0.844487607 0
vt 0.150330096 0.781029344 0
vt 0.230871469 0.74612546 0
vt 0.501957655 0.363969982 0
vt 0.357108116 0.375087827 0
vt 0.416249961 0.2097812 0
vt 0.74459213 0.0609127469 0
vt 0.983316004 -0.0100735696 0
vt 0.856655657 0.174593881 0
vt 0.413030028 0.0187120419 0
vt 0.502279639 -0.0543485284 0
vt 0.465271115 0.132491454 0
vt 0.686190307 0.784929991 0
vt 0.305737793 0.753804088 0
vt 0.59094274 0.683653057 0
vt 0.840212047 0.294950336 0
vt 0.856655657 0.174593881 0
vt 0.998182178 0.141232982 0
vt 0.305737793 0.753804088 0
vt 0.616614044 0.928913772 0
vt 0.37631613 0.915617764 0
vt 0.887583196 0.813870847 0
vt 0.737447202 0.881353676 0
vt 0.704862118 0.778047919 0
vt 0.198445588 0.285899848 0
vt 0.072357595 0.123452127 0
vt 0.307673931 0.0252032485 0
vt 0.587206364 0.117570311 0
vt 0.74459213 0.0609127469 0
vt 0.856655657 0.174593881 0
vt 0.910486162 0.737542689 0
vt 0.947328746 0.85316962 0
vt 0.887583196 0.813870847 0
vt 0.178932339 0.844487607 0
vt 0.03197065 0.781819522 0
vt 0.150330096 0.781029344 0
vt 0.0458804891 0.353196561 0
vt -0.00746240001 0.193081111 0
vt 0.198445588 0.285899848 0
vt 0.726416647 0.511457264 0
vt 0.647708118 0.469498366 0
vt 0.74324733 0.330414444 0
vt 0.840212047 0.294950336 0
vt 0.587206364 0.117570311 0
vt 0.856655657 0.174593881 0
vt 0.233561605 0.566934228 0
vt 0.0406716019 0.436362237 0
vt 0.217030942 0.456643552 0
vt 0.689715147 0.362207323 0
vt 0.53215903 0.393460035 0
vt 0.502538383 0.301041037 0
vt 0.587206364 0.117570311 0
vt 0.840212047 0.294950336 0
vt 0.502538383 0.301041037 0
vt 0.928129554 0.693606496 0
vt 0.666130364 0.660206079 0
vt 0.98020649 0.60267967 0
vt 0.413030028 0.0187120419 0
vt 0.465271115 0.132491454 0
vt 0.416249961 0.2097812 0
vt 0.805607557 0.586963952 0
vt 0.666130364 0.660206079 0
vt 0.726416647 0.511457264 0
vt 0.0741274878 0.62197721 0
vt 0.230871469 0.74612546 0
vt 0.150330096 0.781029344 0
vt 0.207671776 0.678945601 0
vt 0.0451708063 0.605304241 0
vt 0.233561605 0.566934228 0
vt 0.965769529 0.288033575 0
vt 0.840212047 0.294950336 0
vt 0.998182178 0.141232982 0
vt 0.805607557 0.586963952 0
vt 0.915956378 0.467242688 0
vt 0.98020649 0.60267967 0
vt 0.413030028 0.0187120419 0
vt 0.416249961 0.2097812 0
vt 0.307673931 0.0252032485 0
vt 0.326442987 0.442681551 0
vt 0.196725875 0.437180251 0
vt 0.198445588 0.285899848 0
vt 0.647708118 0.469498366 0
vt 0.666130364 0.660206079 0
vt 0.530112803 0.574743092 0
vt 0.342720449 0.473279744 0
vt 0.363184869 0.400223553 0
vt 0.425573409 0.482293993 0
vt 0.198445588 0.285899848 0
vt 0.196725875 0.437180251 0
vt 0.0458804891 0.353196561 0
vt 0.233561605 0.566934228 0
vt 0.342720449 0.473279744 0
vt 0.425573409 0.482293993 0
vt 0.178932339 0.844487607 0
vt 0.379109859 0.95768106 0
vt 0.241792381 0.928420901 0
vt 0.150330096 0.781029344 0
vt 0.03197065 0.781819522 0
vt 0.0741274878 0.62197721 0
vt 0.928129554 0.693606496 0
vt 0.827332079 0.703242779 0
vt 0.666130364 0.660206079 0
vt 0.357108116 0.375087827 0
vt 0.326442987 0.442681551 0
vt 0.198445588 0.285899848 0
vt 0.666130364 0.660206079 0
vt 0.805607557 0.586963952 0
vt 0.98020649 0.60267967 0
vt 0.983481228 0.504437923 0
vt 0.98020649 0.60267967 0
vt 0.915956378 0.467242688 0
vt -0.00746240001 0.193081111 0
vt 0.072357595 0.123452127 0
vt 0.198445588 0.285899848 0
vt 0.233561605 0.566934228 0
vt 0.450837791 0.634861469 0
vt 0.207671776 0.678945601 0
vt 0.501957655 0.363969982 0
vt 0.447479546 0.430936754 0
vt 0.357108116 0.375087827 0
vt 0.983316004 -0.0100735696 0
vt 0.998182178 0.141232982 0
vt 0.856655657 0.174593881 0
vt 0.230871469 0.74612546 0
vt 0.302014798 0.806683183 0
vt 0.178932339 0.844487607 0
vt 0.910486162 0.737542689 0
vt 0.887583196 0.813870847 0
vt 0.704862118 0.778047919 0
vt 0.307673931 0.0252032485 0
vt 0.072357595 0.123452127 0
vt 0.13313061 0.00385581306 0
vt 0.840212047 0.294950336 0
vt 0.689715147 0.362207323 0
vt 0.502538383 0.301041037 0
vt 0.465271115 0.132491454 0
vt 0.501957655 0.363969982 0
vt 0.416249961 0.2097812 0
vt 0.233561605 0.566934228 0
vt 0.0451708063 0.605304241 0
vt 0.0406716019 0.436362237 0
vt 0.425573409 0.482293993 0
vt 0.510646284 0.47893703 0
vt 0.450837791 0.634861469 0
vn -0.0864950866 -0.832189918 -0.419966817
vn 0.372085899 -0.741386235 0.388255835
vn -0.5716061 -0.656046271 0.392192334
vn 0.607502997 0.192162409 -0.738343596
vn 0.665372014 -0.0861286893 -0.716922998
vn -0.376002908 0.294798315 -0.859496117
vn 0.408171415 0.700536013 -0.663265646
vn -0.376002908 0.294798315 -0.859496117
vn -0.635838985 0.743899822 -0.0359114856
vn 0.260079414 0.0916407034 0.957319379
vn -0.382705718 -0.173219532 0.943796575
vn 0.372085899 -0.741386235 0.388255835
vn -0.0864950866 -0.832189918 -0.419966817
vn 0.414728194 -0.715802908 -0.40248099
vn 0.415756404 -0.856063187 -0.0119318478
vn -1.08401299 0.00253567751 0.0400482938
vn -0.731845558 0.422089517 0.436837316
vn -1.04308414 0.0381998681 0.116308711
vn -0.907453954 0.0653759018 -0.378304213
vn -1.08401299 0.00253567751 0.0400482938
vn -1.04308414 0.0381998681 0.116308711
vn 0.665372014 -0.0861286893 -0.716922998
vn 0.870390475 0.277062863 -0.305404097
vn 0.583735347 -0.45898214 -0.600074947
vn -0.540475667 0.246124953 0.823238075
vn -0.719989121 0.0976858661 0.580263972
vn 0.260079414 0.0916407034 0.957319379
vn 0.414728194 -0.715802908 -0.40248099
vn 0.583735347 -0.45898214 -0.600074947
vn 0.415756404 -0.856063187 -0.0119318478
vn -0.635838985 0.743899822 -0.0359114856
vn -0.0638523251 0.990487158 0.26340577
vn 0.760636091 0.53628242 -0.279720485
vn -0.5716061 -0.656046271 0.392192334
vn -0.731845558 0.422089517 0.436837316
vn -1.08401299 0.00253567751 0.0400482938
vn 0.754289508 -0.0285048336 0.654717982
vn 0.372085899 -0.741386235 0.388255835
vn 0.894691527 -0.307832837 0.337005466
vn -0.692425311 -0.19761388 -0.728401423
vn -0.0864950866 -0.832189918 -0.419966817
vn -0.781046391 -0.526314616 -0.255383283
vn 0.372085899 -0.741386235 0.388255835
vn -0.0864950866 -0.832189918 -0.419966817
vn 0.415756404 -0.856063187 -0.0119318478
vn 0.870390475 0.277062863 -0.305404097
vn 0.894691527 -0.307832837 0.337005466
vn 0.415756404 -0.856063187 -0.0119318478
vn -0.0864950866 -0.832189918 -0.419966817
vn -0.5716061 -0.656046271 0.392192334
vn -0.781046391 -0.526314616 -0.255383283
vn 0.747066975 0.107636124 -0.670699537
vn 0.74486053 0.268377602 -0.687272608
vn 0.665372014 -0.0861286893 -0.716922998
vn -1.04308414 0.0381998681 0.116308711
vn -0.837651253 0.456043929 -0.203170508
vn -0.907453954 0.0653759018 -0.378304213
vn 0.760180831 0.561921418 0.229114249
vn 0.754289508 -0.0285048336 0.654717982
vn 0.894691527 -0.307832837 0.337005466
vn 0.583735347 -0.45898214 -0.600074947
vn 0.414728194 -0.715802908 -0.40248099
vn 0.747066975 0.107636124 -0.670699537
vn -0.635838985 0.743899822 -0.0359114856
vn -0.411502928 0.637438297 0.667823553
vn -0.0638523251 0.990487158 0.26340577
vn -0.411502928 0.637438297 0.667823553
vn -0.635838985 0.743899822 -0.0359114856
vn -1.04308414 0.0381998681 0.116308711
vn 0.665372014 -0.0861286893 -0.716922998
vn 0.607502997 0.192162409 -0.738343596
vn 0.870390475 0.277062863 -0.305404097
vn 0.870390475 0.277062863 -0.305404097
vn 0.760180831 0.561921418 0.229114249
vn 0.894691527 -0.307832837 0.337005466
vn 0.260079414 0.0916407034 0.957319379
vn -0.411502928 0.637438297 0.667823553
vn -0.540475667 0.246124953 0.823238075
vn 0.607502997 0.192162409 -0.738343596
vn 0.408171415 0.700536013 -0.663265646
vn 0.760636091 0.53628242 -0.279720485
vn 0.760180831 0.561921418 0.229114249
vn 0.870390475 0.277062863 -0.305404097
vn 0.760636091 0.53628242 -0.279720485
vn -0.692425311 -0.19761388 -0.728401423
vn -0.376002908 0.294798315 -0.859496117
vn -0.0864950866 -0.832189918 -0.419966817
vn -0.692425311 -0.19761388 -0.728401423
vn -0.781046391 -0.526314616 -0.255383283
vn -1.08401299 0.00253567751 0.0400482938
vn 0.74486053 0.268377602 -0.687272608
vn -0.376002908 0.294798315 -0.859496117
vn 0.665372014 -0.0861286893 -0.716922998
vn 0.760180831 0.561921418 0.229114249
vn 0.760636091 0.53628242 -0.279720485
vn -0.0638523251 0.990487158 0.26340577
vn 0.754289508 -0.0285048336 0.654717982
vn 0.760180831 0.561921418 0.229114249
vn 0.260079414 0.0916407034 0.957319379
vn 0.583735347 -0.45898214 -0.600074947
vn 0.870390475 0.277062863 -0.305404097
vn 0.415756404 -0.856063187 -0.0119318478
vn 0.74486053 0.268377602 -0.687272608
vn 0.747066975 0.107636124 -0.670699537
vn -0.0864950866 -0.832189918 -0.419966817
vn -0.692425311 -0.19761388 -0.728401423
vn -1.08401299 0.00253567751 0.0400482938
vn -0.907453954 0.0653759018 -0.378304213
vn -0.719989121 0.0976858661 0.580263972
vn -0.540475667 0.246124953 0.823238075
vn -1.04308414 0.0381998681 0.116308711
vn 0.607502997 0.192162409 -0.738343596
vn -0.376002908 0.294798315 -0.859496117
vn 0.408171415 0.700536013 -0.663265646
vn -0.719989121 0.0976858661 0.580263972
vn -0.731845558 0.422089517 0.436837316
vn -0.382705718 -0.173219532 0.943796575
vn -1.04308414 0.0381998681 0.116308711
vn -0.540475667 0.246124953 0.823238075
vn -0.411502928 0.637438297 0.667823553
vn 0.260079414 0.0916407034 0.957319379
vn -0.719989121 0.0976858661 0.580263972
vn -0.382705718 -0.173219532 0.943796575
vn -0.635838985 0.743899822 -0.0359114856
vn -0.376002908 0.294798315 -0.859496117
vn -0.837651253 0.456043929 -0.203170508
vn -0.0638523251 0.990487158 0.26340577
vn -0.411502928 0.637438297 0.667823553
vn 0.760180831 0.561921418 0.229114249
vn -0.692425311 -0.19761388 -0.728401423
vn -0.907453954 0.0653759018 -0.378304213
vn -0.376002908 0.294798315 -0.859496117
vn -0.731845558 0.422089517 0.436837316
vn -0.719989121 0.0976858661 0.580263972
vn -1.04308414 0.0381998681 0.116308711
vn -0.376002908 0.294798315 -0.859496117
vn 0.74486053 0.268377602 -0.687272608
vn -0.0864950866 -0.832189918 -0.419966817
vn 0.414728194 -0.715802908 -0.40248099
vn -0.0864950866 -0.832189918 -0.419966817
vn 0.747066975 0.107636124 -0.670699537
vn -0.635838985 0.743899822 -0.0359114856
vn -0.837651253 0.456043929 -0.203170508
vn -1.04308414 0.0381998681 0.116308711
vn 0.260079414 0.0916407034 0.957319379
vn 0.372085899 -0.741386235 0.388255835
vn 0.754289508 -0.0285048336 0.654717982
vn -0.5716061 -0.656046271 0.392192334
vn -0.382705718 -0.173219532 0.943796575
vn -0.731845558 0.422089517 0.436837316
vn 0.372085899 -0.741386235 0.388255835
vn 0.415756404 -0.856063187 -0.0119318478
vn 0.894691527 -0.307832837 0.337005466
vn 0.760636091 0.53628242 -0.279720485
vn 0.408171415 0.700536013 -0.663265646
vn -0.635838985 0.743899822 -0.0359114856
vn 0.583735347 -0.45898214 -0.600074947
vn 0.747066975 0.107636124 -0.670699537
vn 0.665372014 -0.0861286893 -0.716922998
vn -0.907453954 0.0653759018 -0.378304213
vn -0.837651253 0.456043929 -0.203170508
vn -0.376002908 0.294798315 -0.859496117
vn 0.870390475 0.277062863 -0.305404097
vn 0.607502997 0.192162409 -0.738343596
vn 0.760636091 0.53628242 -0.279720485
vn -0.781046391 -0.526314616 -0.255383283
vn -0.5716061 -0.656046271 0.392192334
vn -1.08401299 0.00253567751 0.0400482938
vn 0.260079414 0.0916407034 0.957319379
vn 0.760180831 0.561921418 0.229114249
vn -0.411502928 0.637438297 0.667823553
vn -0.382705718 -0.173219532 0.943796575
vn -0.5716061 -0.656046271 0.392192334
vn 0.372085899 -0.741386235 0.388255835
g Group11373
f 24/1/1 3/2/2 28/3/3
f 1/4/4 16/5/5 2/6/6
f 27/7/7 2/8/8 8/9/9
f 4/10/10 21/11/11 3/12/12
f 24/13/13 25/14/14 10/15/15
f 17/16/16 15/17/17 7/18/18
f 23/19/19 17/20/20 7/21/21
f 16/22/22 26/23/23 22/24/24
f 29/25/25 9/26/26 4/27/27
f 25/28/28 22/29/29 10/30/30
f 8/31/31 12/32/32 20/33/33
f 28/34/34 15/35/35 17/36/36
f 31/37/37 3/38/38 14/39/39
f 11/40/40 24/41/41 5/42/42
f 3/43/43 24/44/44 10/45/45
f 26/46/46 14/47/47 10/48/48
f 24/49/49 28/50/50 5/51/51
f 18/52/52 6/53/53 16/54/54
f 7/55/55 30/56/56 23/57/57
f 13/58/58 31/59/59 14/60/60
f 22/61/61 25/62/62 18/63/63
f 8/64/64 19/65/65 12/66/66
f 19/67/67 8/68/68 7/69/69
f 16/70/70 1/71/71 26/72/72
f 26/73/73 13/74/74 14/75/75
f 4/76/76 19/77/77 29/78/78
f 1/79/79 27/80/80 20/81/81
f 13/82/82 26/83/83 20/84/84
f 11/85/85 2/86/86 24/87/87
f 11/88/88 5/89/89 17/90/90
f 6/91/91 2/92/92 16/93/93
f 13/94/94 20/95/95 12/96/96
f 31/97/97 13/98/98 4/99/99
f 22/100/100 26/101/101 10/102/102
f 6/103/103 18/104/104 24/105/105
f 11/106/106 17/107/107 23/108/108
f 9/109/109 29/110/110 7/111/111
f 1/112/112 2/113/113 27/114/114
f 9/115/115 15/116/116 21/117/117
f 7/118/118 29/119/119 19/120/120
f 4/121/121 9/122/122 21/123/123
f 8/124/124 2/125/125 30/126/126
f 12/127/127 19/128/128 13/129/129
f 11/130/130 23/131/131 2/132/132
f 15/133/133 9/134/134 7/135/135
f 2/136/136 6/137/137 24/138/138
f 25/139/139 24/140/140 18/141/141
f 8/142/142 30/143/143 7/144/144
f 4/145/145 3/146/146 31/147/147
f 28/148/148 21/149/149 15/150/150
f 3/151/151 10/152/152 14/153/153
f 20/154/154 27/155/155 8/156/156
f 22/157/157 18/158/158 16/159/159
f 23/160/160 30/161/161 2/162/162
f 26/163/163 1/164/164 20/165/165
f 5/166/166 28/167/167 17/168/168
f 4/169/169 13/170/170 19/171/171
f 21/172/172 28/173/173 3/174/174
