# File exported by Houdini 16.5.405 (www.sidefx.com)
# 141 points
# 882 vertices
# 294 primitives
# Bounds: [-348.552765, -14.0285349, -430.015991] to [363.647491, 842.788574, 418.370514]
g 
v 57.0306892 78.4553833 369.224426
v 70.276535 307.74646 288.303772
v 55.0669441 241.659409 284.459747
v 73.1643219 305.929443 289.321655
v 65.1323624 346.68988 281.304718
v 73.1547623 311.773987 287.801849
v 73.0876999 307.801514 288.779907
v 73.1191559 306.54895 289.125641
v 72.6860046 317.292633 286.432739
v 73.1094666 312.942261 287.465088
v 55.0177841 220.77446 264.200378
v 57.5814095 215.34343 266.277802
v 55.393116 214.366547 265.256104
v 55.5252724 217.500702 264.690826
v 54.212738 195.994736 267.558441
v 54.5576477 222.183838 261.154541
v 110.910873 405.726105 305.920715
v 55.3027534 218.994095 263.476349
v 54.9555283 218.558365 263.724304
v 59.8400764 241.907135 242.680664
v 53.5856247 178.085434 264.731659
v 61.3873062 158.690552 272.81012
v 47.2867508 157.443848 258.541046
v 40.3049698 161.950928 245.625504
v 47.0627289 157.60968 258.164459
v 37.5099144 102.824036 265.344788
v 41.9316826 160.634232 246.520752
v 36.2304077 182.090515 231.986191
v 37.9447746 178.354095 233.788086
v 25.4280663 152.471848 189.202759
v 31.8858147 208.457153 212.432877
v -138.790436 445.97345 222.691711
v 304.60965 -11.1833019 204.742935
v -152.856094 196.456268 141.256088
v -152.14801 196.290131 141.776031
v -151.412704 198.074921 141.607285
v -146.671524 191.866379 136.318604
v -152.474701 196.168365 140.828537
v -154.488434 194.034088 139.893005
v -150.943924 197.301254 145.366165
v -157.386002 187.029572 134.922592
v -150.204239 188.624237 140.016312
v -158.81636 186.171356 134.227936
v -158.045166 186.289001 134.259781
v -28.5806694 353.997284 41.9331932
v -151.125641 91.3845825 84.4139709
v -179.544662 92.1338348 81.5487595
v -170.681625 39.9121361 61.0114861
v -176.717575 86.7520905 77.0812149
v -177.273315 84.6327515 78.1969376
v -177.134079 83.3316956 77.2402802
v 25.505827 2.79025102 140.267349
v -172.085785 45.2801132 61.385601
v 327.7995 -14.0285349 81.7286835
v -348.552765 -6.38840342 110.129173
v -148.214066 -13.4796362 17.974474
v 240.733627 496.293915 -10.2288094
v -131.238983 825.852966 -3.47168541
v -336.596619 257.643921 -255.27858
v -187.725342 -5.43068075 380.364929
v 208.036224 -9.10443974 159.040222
v -242.01947 -3.03110909 76.948288
v -219.777466 8.34865952 -82.8004532
v -110.497887 10.214016 -398.707336
v 316.804077 468.709991 121.333054
v 120.741493 13.3727093 -430.015991
v -221.942749 649.843384 -271.682068
v 5.74527931 388.911255 124.998634
v -73.2859192 402.892914 -160.710007
v 67.1959229 288.594299 -140.599396
v -23.11092 645.034546 -271.552551
v -0.423887908 -7.89396143 418.370514
v 45.7404289 445.39505 208.981277
v -35.515995 374.148132 -424.833435
v 316.039917 -7.29498863 -301.195099
v -333.022003 371.43924 191.189026
v 336.312195 228.562973 -369.415314
v -197.37178 -6.69628382 265.735168
v -326.594421 172.75386 -179.030533
v -283.53363 27.5763988 -63.9393539
v -265.056183 799.324951 64.3141403
v 226.689026 465.315826 62.0309868
v -118.862503 -6.65102196 85.4078445
v -148.803925 641.566284 133.581894
v 102.064537 498.932953 71.7344055
v 64.5420303 368.251251 -203.633224
v -10.3203068 7.512568 -238.902542
v 67.2740936 306.581512 -322.492188
v -293.562775 462.495941 118.443024
v 97.2032547 184.864899 174.842224
v 223.81459 440.004578 375.022186
v -172.138824 40.1875305 59.778347
v 346.792511 51.3805351 -155.71904
v -172.926544 40.0280457 59.7586861
v -122.935165 355.836914 401.610321
v 2.6098175 473.522827 10.5274363
v -300.326813 95.9223251 33.4981766
v 254.621704 651.420959 319.181915
v -98.2439499 518.497498 314.905273
v 234.867813 100.440002 -127.161819
v -198.908585 340.70401 -144.714417
v 312.690216 227.600174 100.243965
v 93.3951035 528.782288 -32.1820564
v 252.302887 194.247086 329.335785
v 54.9891243 216.015488 267.517334
v -207.503845 208.755951 263.601837
v 84.8609924 442.78891 -138.447067
v 195.225739 568.319092 129.424057
v -81.9194489 98.920929 416.679169
v -122.145157 4.85873032 154.592712
v 223.617477 396.916626 -319.388733
v -268.061523 415.380219 -184.069977
v -33.2094765 607.04187 -87.3482971
v 335.137817 236.531036 65.6335526
v -218.694244 166.422714 380.296936
v -145.904816 742.101746 -81.7070694
v 247.609924 542.449524 132.970779
v 363.647491 285.742798 214.509064
v -143.014008 682.963989 -340.56604
v 216.005203 -7.70303488 -130.81485
v -103.945404 143.628647 157.028427
v 47.9558144 37.4766617 184.750137
v 356.752228 68.997612 -349.993805
v -87.246582 34.9697762 -24.0337715
v 108.472855 391.855499 195.114639
v 30.3748913 289.299286 -167.790466
v 199.875137 42.8955879 47.1601563
v -112.532318 339.887573 184.091034
v 288.822937 49.5223885 -53.3337631
v -5.24086761 379.091949 347.507233
v -44.380558 108.990318 116.258575
v 334.828827 590.963928 299.627808
v -231.688919 293.824188 153.601227
v -108.307716 634.471252 -242.333054
v -195.097488 842.788574 3.38223553
v -210.358673 5.03553677 -175.470932
v -171.207016 231.212006 165.963837
v 50.5404091 620.694336 -20.2229652
v 45.9588928 153.980011 255.187958
v -30.336874 231.362488 -117.200897
v -88.4821701 634.63501 -112.294571
vt 0.416869104 0.244788155 0
vt 0.420945853 0.311180592 0
vt 0.381393582 0.25006777 0
vt 0.517024934 0.241760954 0
vt 0.566865027 0.291989297 0
vt 0.571759999 0.321669996 0
vt 0.564250946 0.344539374 0
vt 0.517024934 0.241760954 0
vt 0.568170011 0.329439998 0
vt 0.517024934 0.241760954 0
vt 0.568149984 0.327479988 0
vt 0.568170011 0.329439998 0
vt 0.571759999 0.321669996 0
vt 0.572139978 0.321770012 0
vt 0.572520018 0.32190001 0
vt 0.571759999 0.321669996 0
vt 0.572520018 0.32190001 0
vt 0.517024934 0.241760954 0
vt 0.602707684 0.236067817 0
vt 0.57076329 0.328617543 0
vt 0.568149984 0.327479988 0
vt 0.60097754 0.33159247 0
vt 0.572520018 0.32190001 0
vt 0.572139978 0.321770012 0
vt 0.571759999 0.321669996 0
vt 0.566865027 0.291989297 0
vt 0.571798325 0.321200907 0
vt 0.571759999 0.321669996 0
vt 0.571798325 0.321200907 0
vt 0.572139978 0.321770012 0
vt 0.568170011 0.329439998 0
vt 0.568180025 0.329820007 0
vt 0.564250946 0.344539374 0
vt 0.568170011 0.329439998 0
vt 0.568317056 0.332151026 0
vt 0.568180025 0.329820007 0
vt 0.568317056 0.332151026 0
vt 0.568170011 0.329439998 0
vt 0.568149984 0.327479988 0
vt 0.568317056 0.332151026 0
vt 0.568149984 0.327479988 0
vt 0.57076329 0.328617543 0
vt 0.564250946 0.344539374 0
vt 0.568317056 0.332151026 0
vt 0.57076329 0.328617543 0
vt 0.771743119 0.301492453 0
vt 0.746639192 0.40749836 0
vt 0.756399989 0.320060015 0
vt 0.756099999 0.318720013 0
vt 0.754437685 0.319116801 0
vt 0.76329869 0.3091259 0
vt 0.752139986 0.321689993 0
vt 0.754437685 0.319116801 0
vt 0.753239989 0.320820004 0
vt 0.753239989 0.320820004 0
vt 0.754437685 0.319116801 0
vt 0.753359973 0.320800006 0
vt 0.754437685 0.319116801 0
vt 0.756099999 0.318720013 0
vt 0.756399989 0.320060015 0
vt 0.754437685 0.319116801 0
vt 0.756399989 0.320060015 0
vt 0.753359973 0.320800006 0
vt 0.756399989 0.320060015 0
vt 0.756099999 0.318720013 0
vt 0.771743119 0.301492453 0
vt 0.750649989 0.322930008 0
vt 0.752139986 0.321689993 0
vt 0.746639192 0.40749836 0
vt 0.756399989 0.320060015 0
vt 0.746639192 0.40749836 0
vt 0.752139986 0.321689993 0
vt 0.752139986 0.321689993 0
vt 0.753239989 0.320820004 0
vt 0.753289998 0.320870012 0
vt 0.756399989 0.320060015 0
vt 0.752139986 0.321689993 0
vt 0.753289998 0.320870012 0
vt 0.753359973 0.320800006 0
vt 0.756399989 0.320060015 0
vt 0.753289998 0.320870012 0
vt 0.753349483 0.32087338 0
vt 0.753239989 0.320820004 0
vt 0.753359973 0.320800006 0
vt 0.753349483 0.32087338 0
vt 0.753359973 0.320800006 0
vt 0.753289998 0.320840001 0
vt 0.753289998 0.320840001 0
vt 0.753359973 0.320800006 0
vt 0.753168285 0.320914626 0
vt 0.753289998 0.320840001 0
vt 0.753168285 0.320914626 0
vt 0.7533409 0.320823014 0
vt 0.726492345 0.332893461 0
vt 0.74184829 0.315412372 0
vt 0.750649989 0.322930008 0
vt 0.753260016 0.320850015 0
vt 0.752492607 0.320113063 0
vt 0.753289998 0.320870012 0
vt 0.753239989 0.320820004 0
vt 0.753260016 0.320850015 0
vt 0.753289998 0.320870012 0
vt 0.753289998 0.320870012 0
vt 0.753168285 0.320914626 0
vt 0.753359973 0.320800006 0
vt 0.753168285 0.320914626 0
vt 0.753239989 0.320820004 0
vt 0.753349483 0.32087338 0
vt 0.753168285 0.320914626 0
vt 0.753349483 0.32087338 0
vt 0.7533409 0.320823014 0
vt 0.752492607 0.320113063 0
vt 0.753168285 0.320914626 0
vt 0.753289998 0.320870012 0
vt 0.753168285 0.320914626 0
vt 0.753260016 0.320850015 0
vt 0.753239989 0.320820004 0
vt 0.568160653 0.2524499 0
vt 0.566462576 0.26331982 0
vt 0.517024934 0.241760954 0
vt 0.78071481 0.299161166 0
vt 0.771743119 0.301492453 0
vt 0.782299995 0.287840009 0
vt 0.78071481 0.299161166 0
vt 0.782299995 0.287840009 0
vt 0.782384098 0.288057625 0
vt 0.572532654 0.247823671 0
vt 0.568830013 0.252469987 0
vt 0.566462576 0.26331982 0
vt 0.572532654 0.247823671 0
vt 0.566462576 0.26331982 0
vt 0.568160653 0.2524499 0
vt 0.782384098 0.288057625 0
vt 0.782299995 0.287840009 0
vt 0.784280002 0.285420001 0
vt 0.517024934 0.241760954 0
vt 0.572532654 0.247823671 0
vt 0.568160653 0.2524499 0
vt 0.78071481 0.299161166 0
vt 0.782384098 0.288057625 0
vt 0.784280002 0.285420001 0
vt 0.572799981 0.250449985 0
vt 0.568830013 0.252469987 0
vt 0.572532654 0.247823671 0
vt 0.517024934 0.241760954 0
vt 0.561375499 0.229851186 0
vt 0.572532654 0.247823671 0
vt 0.636820018 0.324550003 0
vt 0.632391989 0.33883366 0
vt 0.641113937 0.314140737 0
vt 0.636820018 0.324550003 0
vt 0.641113937 0.314140737 0
vt 0.641079307 0.31545949 0
vt 0.636820018 0.324550003 0
vt 0.641079307 0.31545949 0
vt 0.637876809 0.322965741 0
vt 0.659182668 0.297216266 0
vt 0.637876809 0.322965741 0
vt 0.641079307 0.31545949 0
vt 0.678015649 0.311115235 0
vt 0.68224597 0.318636507 0
vt 0.667434633 0.331751049 0
vt 0.636820018 0.324550003 0
vt 0.637876809 0.322965741 0
vt 0.659182668 0.297216266 0
vt 0.68224597 0.318636507 0
vt 0.692699313 0.327975243 0
vt 0.667434633 0.331751049 0
vt 0.68224597 0.318636507 0
vt 0.678015649 0.311115235 0
vt 0.692699313 0.327975243 0
vt 0.636820018 0.324550003 0
vt 0.659182668 0.297216266 0
vt 0.632391989 0.33883366 0
vt 0.835146129 0.363058925 0
vt 0.91097039 0.318249106 0
vt 0.881517112 0.418910176 0
vt 0.305152774 0.244582355 0
vt 0.381393582 0.25006777 0
vt 0.323964834 0.375156999 0
vt 0.229106322 0.110952295 0
vt 0.156022489 0.061744649 0
vt 0.246555701 0.0516525172 0
vt 0.246555701 0.0516525172 0
vt 0.156022489 0.061744649 0
vt 0.180261701 0.038001135 0
vt 0.681086004 0.350331992 0
vt 0.595823824 0.413863242 0
vt 0.667434633 0.331751049 0
vt 0.19990471 0.133368522 0
vt 0.186433122 0.123540469 0
vt 0.202219993 0.128839999 0
vt 0.202219993 0.128839999 0
vt 0.202750742 0.127610832 0
vt 0.202950001 0.129370004 0
vt 0.203119993 0.128930002 0
vt 0.202950001 0.129370004 0
vt 0.202750742 0.127610832 0
vt 0.202750742 0.127610832 0
vt 0.206 0.129810005 0
vt 0.203119993 0.128930002 0
vt 0.202219993 0.128839999 0
vt 0.202950001 0.129370004 0
vt 0.203749999 0.130429998 0
vt 0.202219993 0.128839999 0
vt 0.203749999 0.130429998 0
vt 0.202849999 0.129730001 0
vt 0.202219993 0.128839999 0
vt 0.202849999 0.129730001 0
vt 0.202600002 0.129380003 0
vt 0.203130007 0.129260004 0
vt 0.202950001 0.129370004 0
vt 0.203119993 0.128930002 0
vt 0.202600002 0.129380003 0
vt 0.202849999 0.129730001 0
vt 0.19990471 0.133368522 0
vt 0.202600002 0.129380003 0
vt 0.19990471 0.133368522 0
vt 0.202219993 0.128839999 0
vt 0.206 0.129810005 0
vt 0.203749999 0.130429998 0
vt 0.202950001 0.129370004 0
vt 0.206 0.129810005 0
vt 0.202950001 0.129370004 0
vt 0.203130007 0.129260004 0
vt 0.203130007 0.129260004 0
vt 0.203119993 0.128930002 0
vt 0.206 0.129810005 0
vt 0.245130599 0.481881648 0
vt 0.251077741 0.601759493 0
vt 0.171355873 0.551747859 0
vt 0.203749999 0.130429998 0
vt 0.19990471 0.133368522 0
vt 0.202849999 0.129730001 0
vt 0.205339998 0.133540004 0
vt 0.19990471 0.133368522 0
vt 0.203749999 0.130429998 0
vt 0.205339998 0.133540004 0
vt 0.203749999 0.130429998 0
vt 0.206 0.129810005 0
vt 0.19990471 0.133368522 0
vt 0.205339998 0.133540004 0
vt 0.206 0.129810005 0
vt 0.206980005 0.135450006 0
vt 0.206959993 0.135299996 0
vt 0.226346076 0.156427726 0
vt 0.206980005 0.135450006 0
vt 0.226346076 0.156427726 0
vt 0.206949994 0.135330006 0
vt 0.206 0.129810005 0
vt 0.206959993 0.135299996 0
vt 0.206949994 0.135330006 0
vt 0.206949994 0.135330006 0
vt 0.19990471 0.133368522 0
vt 0.206 0.129810005 0
vt 0.226346076 0.156427726 0
vt 0.206959993 0.135299996 0
vt 0.206 0.129810005 0
vt 0.226346076 0.156427726 0
vt 0.19990471 0.133368522 0
vt 0.206949994 0.135330006 0
vt 0.305152774 0.244582355 0
vt 0.263956696 0.223638117 0
vt 0.269107103 0.164737046 0
vt 0.222773805 0.159630656 0
vt 0.226346076 0.156427726 0
vt 0.226439998 0.162049994 0
vt 0.226439998 0.162049994 0
vt 0.226346076 0.156427726 0
vt 0.243068919 0.179659337 0
vt 0.240577117 0.177370667 0
vt 0.224150002 0.161809996 0
vt 0.221948102 0.1603854 0
vt 0.240577117 0.177370667 0
vt 0.221948102 0.1603854 0
vt 0.222773805 0.159630656 0
vt 0.224150002 0.161809996 0
vt 0.240577117 0.177370667 0
vt 0.225620002 0.16494 0
vt 0.226439998 0.162049994 0
vt 0.226989999 0.162509993 0
vt 0.222773805 0.159630656 0
vt 0.240577117 0.177370667 0
vt 0.222773805 0.159630656 0
vt 0.243068919 0.179659337 0
vt 0.243068919 0.179659337 0
vt 0.222773805 0.159630656 0
vt 0.226989999 0.162509993 0
vt 0.226272047 0.161926165 0
vt 0.226439998 0.162049994 0
vt 0.243068919 0.179659337 0
vt 0.226272047 0.161926165 0
vt 0.243068919 0.179659337 0
vt 0.226989999 0.162509993 0
vt 0.225620002 0.16494 0
vt 0.240577117 0.177370667 0
vt 0.219012499 0.161954895 0
vt 0.22646606 0.16572848 0
vt 0.225620002 0.16494 0
vt 0.219012499 0.161954895 0
vt 0.188404053 0.144439623 0
vt 0.178251117 0.20302169 0
vt 0.142126843 0.136775568 0
vt 0.243068919 0.179659337 0
vt 0.188404053 0.144439623 0
vt 0.240577117 0.177370667 0
vt 0.243479997 0.182410002 0
vt 0.188404053 0.144439623 0
vt 0.243068919 0.179659337 0
vt 0.0997404456 0.543023288 0
vt 0.208138451 0.651914954 0
vt 0.111831643 0.622898281 0
vt 0.188404053 0.144439623 0
vt 0.263956696 0.223638117 0
vt 0.224177405 0.205881342 0
vt 0.0818612278 0.389731348 0
vt 0.0710774362 0.387277365 0
vt 0.0661192834 0.384576499 0
vt 0.0818612278 0.389731348 0
vt 0.0916920826 0.460160583 0
vt 0.0100293374 0.385871589 0
vt 0.0407469757 0.354526907 0
vt 0.0469186045 0.314115405 0
vt 0.0818612278 0.389731348 0
vt 0.707909167 0.559629381 0
vt 0.799738526 0.554809272 0
vt 0.814277768 0.633692205 0
vt 0.508112967 0.577924311 0
vt 0.581880689 0.507416546 0
vt 0.525505006 0.640631318 0
vt 0.305196285 0.691376686 0
vt 0.300061882 0.742694318 0
vt 0.262274951 0.714416206 0
vt 0.785721302 0.66655618 0
vt 0.707909167 0.559629381 0
vt 0.814277768 0.633692205 0
vt 0.0997404456 0.543023288 0
vt 0.171355873 0.551747859 0
vt 0.251077741 0.601759493 0
vt 0.681086004 0.350331992 0
vt 0.675381005 0.483747303 0
vt 0.595823824 0.413863242 0
vt 0.244346395 0.184435904 0
vt 0.263956696 0.223638117 0
vt 0.243479997 0.182410002 0
vt 0.263956696 0.223638117 0
vt 0.188404053 0.144439623 0
vt 0.243479997 0.182410002 0
vt 0.243068919 0.179659337 0
vt 0.243660003 0.182549998 0
vt 0.243479997 0.182410002 0
vt 0.244346395 0.184435904 0
vt 0.243660003 0.182549998 0
vt 0.263956696 0.223638117 0
vt 0.263956696 0.223638117 0
vt 0.243660003 0.182549998 0
vt 0.243068919 0.179659337 0
vt 0.472433776 0.361331642 0
vt 0.465877354 0.269161195 0
vt 0.526471853 0.35687837 0
vt 0.788880408 0.437435091 0
vt 0.715527177 0.415900558 0
vt 0.746639192 0.40749836 0
vt 0.208138451 0.651914954 0
vt 0.234505594 0.673384726 0
vt 0.170544222 0.649678707 0
vt 0.221856773 0.256136805 0
vt 0.263956696 0.223638117 0
vt 0.26233238 0.28205651 0
vt 0.245130599 0.481881648 0
vt 0.158996373 0.538559854 0
vt 0.221856773 0.256136805 0
vt 0.221856773 0.256136805 0
vt 0.157237753 0.361846805 0
vt 0.198433384 0.253840864 0
vt 0.285208136 0.780877769 0
vt 0.300061882 0.742694318 0
vt 0.356666684 0.74460721 0
vt 0.262274951 0.714416206 0
vt 0.282196581 0.672652483 0
vt 0.305196285 0.691376686 0
vt 0.198433384 0.253840864 0
vt 0.178251117 0.20302169 0
vt 0.224177405 0.205881342 0
vt 0.800046206 0.275992423 0
vt 0.91097039 0.318249106 0
vt 0.835146129 0.363058925 0
vt 0.472433776 0.361331642 0
vt 0.420945853 0.311180592 0
vt 0.465877354 0.269161195 0
vt 0.158996373 0.538559854 0
vt 0.106978357 0.526425004 0
vt 0.108244173 0.485269606 0
vt 0.559211314 0.389561296 0
vt 0.551075578 0.456797302 0
vt 0.502490878 0.420126468 0
vt 0.263956696 0.223638117 0
vt 0.305152774 0.244582355 0
vt 0.26233238 0.28205651 0
vt 0.400180131 0.52832669 0
vt 0.372801304 0.561033487 0
vt 0.298796594 0.458417654 0
vt 0.413434207 0.593023002 0
vt 0.372801304 0.561033487 0
vt 0.400180131 0.52832669 0
vt 0.229106322 0.110952295 0
vt 0.206 0.129810005 0
vt 0.202750742 0.127610832 0
vt 0.517024934 0.241760954 0
vt 0.480101764 0.219964355 0
vt 0.567188799 0.191147313 0
vt 0.488728672 0.492461115 0
vt 0.493180424 0.529570401 0
vt 0.422817379 0.551987708 0
vt 0.289822817 0.571063876 0
vt 0.251077741 0.601759493 0
vt 0.245130599 0.481881648 0
vt 0.502490878 0.420126468 0
vt 0.526471853 0.35687837 0
vt 0.559211314 0.389561296 0
vt 0.708561957 0.518446743 0
vt 0.71608156 0.503115773 0
vt 0.789024413 0.518736362 0
vt 0.823391795 0.6470716 0
vt 0.787035644 0.736076295 0
vt 0.785721302 0.66655618 0
vt 0.41824609 0.727068782 0
vt 0.356666684 0.74460721 0
vt 0.413601816 0.705764055 0
vt 0.641639709 0.682426929 0
vt 0.625679135 0.806279361 0
vt 0.584260225 0.650319576 0
vt 0.26233238 0.28205651 0
vt 0.323964834 0.375156999 0
vt 0.315532833 0.384427905 0
vt 0.422817379 0.551987708 0
vt 0.508112967 0.577924311 0
vt 0.525505006 0.640631318 0
vt 0.595823824 0.413863242 0
vt 0.559211314 0.389561296 0
vt 0.632391989 0.33883366 0
vt 0.517024934 0.241760954 0
vt 0.465877354 0.269161195 0
vt 0.480101764 0.219964355 0
vt 0.465877354 0.269161195 0
vt 0.416869104 0.244788155 0
vt 0.480101764 0.219964355 0
vt 0.502490878 0.420126468 0
vt 0.472433776 0.361331642 0
vt 0.526471853 0.35687837 0
vt 0.71608156 0.503115773 0
vt 0.708561957 0.518446743 0
vt 0.675381005 0.483747303 0
vt 0.508112967 0.577924311 0
vt 0.493180424 0.529570401 0
vt 0.488728672 0.492461115 0
vt 0.300061882 0.742694318 0
vt 0.254561573 0.75235498 0
vt 0.262274951 0.714416206 0
vt 0.285208136 0.780877769 0
vt 0.356666684 0.74460721 0
vt 0.301338911 0.809826672 0
vt 0.0306216814 0.440651745 0
vt 0.0100293374 0.385871589 0
vt 0.0916920826 0.460160583 0
vt 0.692699313 0.327975243 0
vt 0.726492345 0.332893461 0
vt 0.681086004 0.350331992 0
vt 0.298796594 0.458417654 0
vt 0.372801304 0.561033487 0
vt 0.332909465 0.528362691 0
vt 0.413434207 0.593023002 0
vt 0.506429791 0.70133394 0
vt 0.473361194 0.709854841 0
vt 0.473361194 0.709854841 0
vt 0.442331195 0.730743051 0
vt 0.413434207 0.593023002 0
vt 0.0661192834 0.384576499 0
vt 0.0517508984 0.365147591 0
vt 0.0818612278 0.389731348 0
vt 0.714273095 0.799524784 0
vt 0.659675896 0.833193898 0
vt 0.676081181 0.794293642 0
vt 0.659675896 0.833193898 0
vt 0.625679135 0.806279361 0
vt 0.676081181 0.794293642 0
vt 0.0997404456 0.543023288 0
vt 0.106978357 0.526425004 0
vt 0.158996373 0.538559854 0
vt 0.892936826 0.49790746 0
vt 0.936997235 0.418717802 0
vt 0.934715986 0.516552031 0
vt 0.526471853 0.35687837 0
vt 0.564250946 0.344539374 0
vt 0.559211314 0.389561296 0
vt 0.564250946 0.344539374 0
vt 0.5999313 0.320085734 0
vt 0.559211314 0.389561296 0
vt 0.251077741 0.601759493 0
vt 0.208138451 0.651914954 0
vt 0.0997404456 0.543023288 0
vt 0.383973032 0.350309342 0
vt 0.323964834 0.375156999 0
vt 0.381393582 0.25006777 0
vt 0.526471853 0.35687837 0
vt 0.517024934 0.241760954 0
vt 0.564250946 0.344539374 0
vt 0.788880408 0.437435091 0
vt 0.835146129 0.363058925 0
vt 0.881517112 0.418910176 0
vt 0.595823824 0.413863242 0
vt 0.551075578 0.456797302 0
vt 0.559211314 0.389561296 0
vt 0.625679135 0.806279361 0
vt 0.641639709 0.682426929 0
vt 0.676081181 0.794293642 0
vt 0.675381005 0.483747303 0
vt 0.633289158 0.483059049 0
vt 0.595823824 0.413863242 0
vt 0.317461342 0.604321003 0
vt 0.332909465 0.528362691 0
vt 0.372801304 0.561033487 0
vt 0.197132662 0.0380176976 0
vt 0.218147919 0.00289051281 0
vt 0.246555701 0.0516525172 0
vt 0.422817379 0.551987708 0
vt 0.506429791 0.70133394 0
vt 0.413434207 0.593023002 0
vt 0.0818612278 0.389731348 0
vt 0.0469186045 0.314115405 0
vt 0.125909016 0.337710053 0
vt 0.157237753 0.361846805 0
vt 0.108244173 0.485269606 0
vt 0.0818612278 0.389731348 0
vt 0.726492345 0.332893461 0
vt 0.746639192 0.40749836 0
vt 0.681086004 0.350331992 0
vt 0.800046206 0.275992423 0
vt 0.894672155 0.291502148 0
vt 0.91097039 0.318249106 0
vt 0.122102007 0.658336878 0
vt 0.111831643 0.622898281 0
vt 0.170544222 0.649678707 0
vt 0.285208136 0.780877769 0
vt 0.254561573 0.75235498 0
vt 0.300061882 0.742694318 0
vt 0.221948102 0.1603854 0
vt 0.226346076 0.156427726 0
vt 0.222773805 0.159630656 0
vt 0.171355873 0.551747859 0
vt 0.158996373 0.538559854 0
vt 0.245130599 0.481881648 0
vt 0.198433384 0.253840864 0
vt 0.125909016 0.337710053 0
vt 0.152938589 0.297119766 0
vt 0.965162992 0.32814905 0
vt 0.881517112 0.418910176 0
vt 0.91097039 0.318249106 0
vt 0.572799981 0.250449985 0
vt 0.572532654 0.247823671 0
vt 0.571520925 0.24805747 0
vt 0.198433384 0.253840864 0
vt 0.224177405 0.205881342 0
vt 0.221856773 0.256136805 0
vt 0.525505006 0.640631318 0
vt 0.506429791 0.70133394 0
vt 0.422817379 0.551987708 0
vt 0.707909167 0.559629381 0
vt 0.641639709 0.682426929 0
vt 0.584260225 0.650319576 0
vt 0.142126843 0.136775568 0
vt 0.144204572 0.115280792 0
vt 0.188404053 0.144439623 0
vt 0.472433776 0.361331642 0
vt 0.456981629 0.435611963 0
vt 0.383973032 0.350309342 0
vt 0.240577117 0.177370667 0
vt 0.188404053 0.144439623 0
vt 0.219012499 0.161954895 0
vt 0.632391989 0.33883366 0
vt 0.559211314 0.389561296 0
vt 0.609971285 0.333606392 0
vt 0.5999313 0.320085734 0
vt 0.609971285 0.333606392 0
vt 0.559211314 0.389561296 0
vt 0.787035644 0.736076295 0
vt 0.714273095 0.799524784 0
vt 0.785721302 0.66655618 0
vt 0.659182668 0.297216266 0
vt 0.595823824 0.413863242 0
vt 0.632391989 0.33883366 0
vt 0.846174598 0.244016603 0
vt 0.92543 0.261776328 0
vt 0.894672155 0.291502148 0
vt 0.188404053 0.144439623 0
vt 0.224177405 0.205881342 0
vt 0.178251117 0.20302169 0
vt 0.400180131 0.52832669 0
vt 0.488728672 0.492461115 0
vt 0.422817379 0.551987708 0
vt 0.771743119 0.301492453 0
vt 0.78071481 0.299161166 0
vt 0.746639192 0.40749836 0
vt 0.251077741 0.601759493 0
vt 0.289822817 0.571063876 0
vt 0.283993989 0.611203074 0
vt 0.517024934 0.241760954 0
vt 0.526471853 0.35687837 0
vt 0.465877354 0.269161195 0
vt 0.678015649 0.311115235 0
vt 0.667434633 0.331751049 0
vt 0.659182668 0.297216266 0
vt 0.284242481 0.101583034 0
vt 0.229106322 0.110952295 0
vt 0.246555701 0.0516525172 0
vt 0.936997235 0.418717802 0
vt 1.00555789 0.369660199 0
vt 0.949812591 0.429986358 0
vt 0.667434633 0.331751049 0
vt 0.595823824 0.413863242 0
vt 0.659182668 0.297216266 0
vt 0.561375499 0.229851186 0
vt 0.517024934 0.241760954 0
vt 0.567188799 0.191147313 0
vt 0.936997235 0.418717802 0
vt 0.965162992 0.32814905 0
vt 1.00555789 0.369660199 0
vt 0.715527177 0.415900558 0
vt 0.71608156 0.503115773 0
vt 0.675381005 0.483747303 0
vt 0.243068919 0.179659337 0
vt 0.229106322 0.110952295 0
vt 0.269107103 0.164737046 0
vt 0.226346076 0.156427726 0
vt 0.229106322 0.110952295 0
vt 0.243068919 0.179659337 0
vt 0.394622296 0.75049156 0
vt 0.421279281 0.763841331 0
vt 0.434180945 0.775110543 0
vt 0.0818612278 0.389731348 0
vt 0.125909016 0.337710053 0
vt 0.157237753 0.361846805 0
vt 0.800046206 0.275992423 0
vt 0.835146129 0.363058925 0
vt 0.788880408 0.437435091 0
vt 0.157237753 0.361846805 0
vt 0.158996373 0.538559854 0
vt 0.108244173 0.485269606 0
vt 0.551075578 0.456797302 0
vt 0.595823824 0.413863242 0
vt 0.597121358 0.451243728 0
vt 0.789024413 0.518736362 0
vt 0.71608156 0.503115773 0
vt 0.788880408 0.437435091 0
vt 0.892936826 0.49790746 0
vt 0.934715986 0.516552031 0
vt 0.886813343 0.537443399 0
vt 0.263956696 0.223638117 0
vt 0.243068919 0.179659337 0
vt 0.269107103 0.164737046 0
vt 0.714273095 0.799524784 0
vt 0.676081181 0.794293642 0
vt 0.641639709 0.682426929 0
vt 0.818595231 0.509242654 0
vt 0.789024413 0.518736362 0
vt 0.788880408 0.437435091 0
vt 0.525505006 0.640631318 0
vt 0.581880689 0.507416546 0
vt 0.584260225 0.650319576 0
vt 0.892936826 0.49790746 0
vt 0.818595231 0.509242654 0
vt 0.881517112 0.418910176 0
vt 0.508112967 0.577924311 0
vt 0.488728672 0.492461115 0
vt 0.581880689 0.507416546 0
vt 0.251077741 0.601759493 0
vt 0.234505594 0.673384726 0
vt 0.208138451 0.651914954 0
vt 0.78071481 0.299161166 0
vt 0.800046206 0.275992423 0
vt 0.788880408 0.437435091 0
vt 0.0818612278 0.389731348 0
vt 0.108244173 0.485269606 0
vt 0.098882854 0.450117648 0
vt 0.0916920826 0.460160583 0
vt 0.0818612278 0.389731348 0
vt 0.098882854 0.450117648 0
vt 0.752139986 0.321689993 0
vt 0.74184829 0.315412372 0
vt 0.754437685 0.319116801 0
vt 0.750649989 0.322930008 0
vt 0.74184829 0.315412372 0
vt 0.752139986 0.321689993 0
vt 0.246555701 0.0516525172 0
vt 0.180261701 0.038001135 0
vt 0.197132662 0.0380176976 0
vt 0.566865027 0.291989297 0
vt 0.517024934 0.241760954 0
vt 0.569868147 0.278516799 0
vt 0.502490878 0.420126468 0
vt 0.456981629 0.435611963 0
vt 0.472433776 0.361331642 0
vt 0.78071481 0.299161166 0
vt 0.784280002 0.285420001 0
vt 0.800046206 0.275992423 0
vt 0.572799981 0.250449985 0
vt 0.571520925 0.24805747 0
vt 0.561375499 0.229851186 0
vt 0.525505006 0.640631318 0
vt 0.584260225 0.650319576 0
vt 0.506429791 0.70133394 0
vt 0.78071481 0.299161166 0
vt 0.788880408 0.437435091 0
vt 0.746639192 0.40749836 0
vt 0.207750395 0.737682402 0
vt 0.262274951 0.714416206 0
vt 0.254561573 0.75235498 0
vt 0.246555701 0.0516525172 0
vt 0.268973291 0.0227628946 0
vt 0.284242481 0.101583034 0
vt 0.715527177 0.415900558 0
vt 0.681086004 0.350331992 0
vt 0.746639192 0.40749836 0
vt 0.662417352 0.521925449 0
vt 0.707909167 0.559629381 0
vt 0.584260225 0.650319576 0
vt 0.472433776 0.361331642 0
vt 0.383973032 0.350309342 0
vt 0.420945853 0.311180592 0
vt 0.156022489 0.061744649 0
vt 0.229106322 0.110952295 0
vt 0.1818351 0.0931645557 0
vt 0.413434207 0.593023002 0
vt 0.305196285 0.691376686 0
vt 0.317461342 0.604321003 0
vt 0.420945853 0.311180592 0
vt 0.383973032 0.350309342 0
vt 0.381393582 0.25006777 0
vt 0.26233238 0.28205651 0
vt 0.315532833 0.384427905 0
vt 0.245130599 0.481881648 0
vt 0.413434207 0.593023002 0
vt 0.413601816 0.705764055 0
vt 0.305196285 0.691376686 0
vt 0.949812591 0.429986358 0
vt 0.934715986 0.516552031 0
vt 0.936997235 0.418717802 0
vt 0.186433122 0.123540469 0
vt 0.1818351 0.0931645557 0
vt 0.229106322 0.110952295 0
vt 0.202750742 0.127610832 0
vt 0.186433122 0.123540469 0
vt 0.229106322 0.110952295 0
vt 0.206 0.129810005 0
vt 0.229106322 0.110952295 0
vt 0.226346076 0.156427726 0
vt 0.662417352 0.521925449 0
vt 0.584260225 0.650319576 0
vt 0.581880689 0.507416546 0
vt 0.5999313 0.320085734 0
vt 0.564250946 0.344539374 0
vt 0.57076329 0.328617543 0
vt 0.936997235 0.418717802 0
vt 0.892936826 0.49790746 0
vt 0.881517112 0.418910176 0
vt 0.198433384 0.253840864 0
vt 0.157237753 0.361846805 0
vt 0.125909016 0.337710053 0
vt 0.372801304 0.561033487 0
vt 0.413434207 0.593023002 0
vt 0.317461342 0.604321003 0
vt 0.170544222 0.649678707 0
vt 0.111831643 0.622898281 0
vt 0.208138451 0.651914954 0
vt 0.785721302 0.66655618 0
vt 0.714273095 0.799524784 0
vt 0.641639709 0.682426929 0
vt 0.493180424 0.529570401 0
vt 0.508112967 0.577924311 0
vt 0.422817379 0.551987708 0
vt 0.800046206 0.275992423 0
vt 0.846174598 0.244016603 0
vt 0.894672155 0.291502148 0
vt 0.0997404456 0.543023288 0
vt 0.073935315 0.561360002 0
vt 0.106978357 0.526425004 0
vt 0.1818351 0.0931645557 0
vt 0.186433122 0.123540469 0
vt 0.154370576 0.122085109 0
vt 0.625679135 0.806279361 0
vt 0.506429791 0.70133394 0
vt 0.584260225 0.650319576 0
vt 0.0865358561 0.608103454 0
vt 0.073935315 0.561360002 0
vt 0.0997404456 0.543023288 0
vt 0.965162992 0.32814905 0
vt 0.936997235 0.418717802 0
vt 0.881517112 0.418910176 0
vt 0.26233238 0.28205651 0
vt 0.245130599 0.481881648 0
vt 0.221856773 0.256136805 0
vt 0.92543 0.261776328 0
vt 0.846174598 0.244016603 0
vt 0.869638681 0.226952106 0
vt 0.400180131 0.52832669 0
vt 0.422817379 0.551987708 0
vt 0.413434207 0.593023002 0
vt 0.681086004 0.350331992 0
vt 0.715527177 0.415900558 0
vt 0.675381005 0.483747303 0
vt 0.383973032 0.350309342 0
vt 0.315532833 0.384427905 0
vt 0.323964834 0.375156999 0
vt 0.0407469757 0.354526907 0
vt 0.0818612278 0.389731348 0
vt 0.0517508984 0.365147591 0
vt 0.465877354 0.269161195 0
vt 0.420945853 0.311180592 0
vt 0.416869104 0.244788155 0
vt 0.567588925 0.270671308 0
vt 0.517024934 0.241760954 0
vt 0.566462576 0.26331982 0
vt 0.567588925 0.270671308 0
vt 0.569868147 0.278516799 0
vt 0.517024934 0.241760954 0
vt 0.818595231 0.509242654 0
vt 0.886813343 0.537443399 0
vt 0.789024413 0.518736362 0
vt 0.707909167 0.559629381 0
vt 0.785721302 0.66655618 0
vt 0.641639709 0.682426929 0
vt 0.356666684 0.74460721 0
vt 0.300061882 0.742694318 0
vt 0.413601816 0.705764055 0
vt 0.0865358561 0.608103454 0
vt 0.0997404456 0.543023288 0
vt 0.111831643 0.622898281 0
vt 0.202219993 0.128839999 0
vt 0.186433122 0.123540469 0
vt 0.202750742 0.127610832 0
vt 0.284242481 0.101583034 0
vt 0.269107103 0.164737046 0
vt 0.229106322 0.110952295 0
vt 0.892936826 0.49790746 0
vt 0.886813343 0.537443399 0
vt 0.818595231 0.509242654 0
vt 0.947726488 0.310121268 0
vt 0.894672155 0.291502148 0
vt 0.92543 0.261776328 0
vt 0.788880408 0.437435091 0
vt 0.71608156 0.503115773 0
vt 0.715527177 0.415900558 0
vt 0.788880408 0.437435091 0
vt 0.881517112 0.418910176 0
vt 0.818595231 0.509242654 0
vt 0.305196285 0.691376686 0
vt 0.282196581 0.672652483 0
vt 0.317461342 0.604321003 0
vt 0.456981629 0.435611963 0
vt 0.407340199 0.436581522 0
vt 0.383973032 0.350309342 0
vt 0.413601816 0.705764055 0
vt 0.413434207 0.593023002 0
vt 0.442331195 0.730743051 0
vt 0.300061882 0.742694318 0
vt 0.305196285 0.691376686 0
vt 0.413601816 0.705764055 0
vt 0.0997404456 0.543023288 0
vt 0.158996373 0.538559854 0
vt 0.171355873 0.551747859 0
vt 0.221856773 0.256136805 0
vt 0.158996373 0.538559854 0
vt 0.157237753 0.361846805 0
vt 0.681086004 0.350331992 0
vt 0.667434633 0.331751049 0
vt 0.692699313 0.327975243 0
vt 0.323964834 0.375156999 0
vt 0.26233238 0.28205651 0
vt 0.305152774 0.244582355 0
vt 0.152938589 0.297119766 0
vt 0.154651716 0.245639637 0
vt 0.198433384 0.253840864 0
vn -0.702544034 -0.00747393817 0.52543664
vn -0.802836955 -0.0117158471 0.627908885
vn -0.452282518 -0.323004633 0.626120865
vn 0.830884635 -0.0744065195 0.181915596
vn 0.958051026 0.00512612192 -0.271842211
vn 0.959970057 -0.058697138 -0.273883283
vn 0.836987138 0.186443314 -0.0335539915
vn 0.830884635 -0.0744065195 0.181915596
vn 0.828868926 -0.138768837 -0.541958928
vn 0.830884635 -0.0744065195 0.181915596
vn 0.763272703 -0.20110783 -0.61397928
vn 0.828868926 -0.138768837 -0.541958928
vn 0.959970057 -0.058697138 -0.273883283
vn -0.059546303 -0.281291127 -0.957773209
vn 0.763272703 -0.20110783 -0.61397928
vn 0.959970057 -0.058697138 -0.273883283
vn 0.763272703 -0.20110783 -0.61397928
vn 0.830884635 -0.0744065195 0.181915596
vn -10.6890535 0.0935933813 0.669532001
vn 0.284236878 -0.256127656 -0.938830018
vn 0.763272703 -0.20110783 -0.61397928
vn 79.9407043 9.99485493 44.3954773
vn 0.763272703 -0.20110783 -0.61397928
vn -0.059546303 -0.281291127 -0.957773209
vn 0.959970057 -0.058697138 -0.273883283
vn 0.958051026 0.00512612192 -0.271842211
vn 0.284236878 -0.256127656 -0.938830018
vn 0.959970057 -0.058697138 -0.273883283
vn 0.284236878 -0.256127656 -0.938830018
vn -0.059546303 -0.281291127 -0.957773209
vn 0.828868926 -0.138768837 -0.541958928
vn 0.514019787 -0.228733033 -0.826719344
vn 0.836987138 0.186443314 -0.0335539915
vn 0.828868926 -0.138768837 -0.541958928
vn 0.690295458 -0.157529816 -0.633308172
vn 0.514019787 -0.228733033 -0.826719344
vn 0.690295458 -0.157529816 -0.633308172
vn 0.828868926 -0.138768837 -0.541958928
vn 0.763272703 -0.20110783 -0.61397928
vn 0.690295458 -0.157529816 -0.633308172
vn 0.763272703 -0.20110783 -0.61397928
vn 0.284236878 -0.256127656 -0.938830018
vn 0.836987138 0.186443314 -0.0335539915
vn 0.690295458 -0.157529816 -0.633308172
vn 0.284236878 -0.256127656 -0.938830018
vn -0.148611203 -0.0791870281 0.881141305
vn -0.844673038 0.338951796 0.2367488
vn -0.500492811 0.00634850375 0.865717351
vn 0.241902903 -0.670497715 0.70136708
vn 0.971752346 0.00558938924 -0.146448493
vn 1.04566312 -0.0714395046 -0.0583121628
vn 0.795447469 0.399570644 0.455638707
vn 0.971752346 0.00558938924 -0.146448493
vn 0.994383931 -0.068848975 -0.0803776383
vn 0.994383931 -0.068848975 -0.0803776383
vn 0.971752346 0.00558938924 -0.146448493
vn 0.359677702 0.800593734 0.479251087
vn 0.971752346 0.00558938924 -0.146448493
vn 0.241902903 -0.670497715 0.70136708
vn -0.500492811 0.00634850375 0.865717351
vn 0.971752346 0.00558938924 -0.146448493
vn -0.500492811 0.00634850375 0.865717351
vn 0.359677702 0.800593734 0.479251087
vn -0.500492811 0.00634850375 0.865717351
vn 0.241902903 -0.670497715 0.70136708
vn -0.148611203 -0.0791870281 0.881141305
vn 0.931514978 0.238577411 0.274518967
vn 0.795447469 0.399570644 0.455638707
vn -0.844673038 0.338951796 0.2367488
vn -0.500492811 0.00634850375 0.865717351
vn -0.844673038 0.338951796 0.2367488
vn 0.795447469 0.399570644 0.455638707
vn 0.795447469 0.399570644 0.455638707
vn 0.994383931 -0.068848975 -0.0803776383
vn -0.760628879 -0.648856103 -0.0207259711
vn -0.500492811 0.00634850375 0.865717351
vn 0.795447469 0.399570644 0.455638707
vn -0.760628879 -0.648856103 -0.0207259711
vn 0.359677702 0.800593734 0.479251087
vn -0.500492811 0.00634850375 0.865717351
vn -0.760628879 -0.648856103 -0.0207259711
vn 1.04566312 -0.0714395046 -0.0583121628
vn 0.994383931 -0.068848975 -0.0803776383
vn 0.359677702 0.800593734 0.479251087
vn 1.04566312 -0.0714395046 -0.0583121628
vn 0.359677702 0.800593734 0.479251087
vn 0.241902903 -0.670497715 0.70136708
vn 0.241902903 -0.670497715 0.70136708
vn 0.359677702 0.800593734 0.479251087
vn 0.226999104 0.533852041 -0.341340512
vn 0.241902903 -0.670497715 0.70136708
vn 0.226999104 0.533852041 -0.341340512
vn -0.148611203 -0.0791870281 0.881141305
vn 0.226999104 0.533852041 -0.341340512
vn 0.958051026 0.00512612192 -0.271842211
vn 0.931514978 0.238577411 0.274518967
vn 0.931514978 0.238577411 0.274518967
vn -0.844673038 0.338951796 0.2367488
vn -0.760628879 -0.648856103 -0.0207259711
vn 0.994383931 -0.068848975 -0.0803776383
vn 0.931514978 0.238577411 0.274518967
vn -0.760628879 -0.648856103 -0.0207259711
vn -0.760628879 -0.648856103 -0.0207259711
vn 0.226999104 0.533852041 -0.341340512
vn 0.359677702 0.800593734 0.479251087
vn 0.226999104 0.533852041 -0.341340512
vn 0.994383931 -0.068848975 -0.0803776383
vn 1.04566312 -0.0714395046 -0.0583121628
vn 0.226999104 0.533852041 -0.341340512
vn 1.04566312 -0.0714395046 -0.0583121628
vn -0.148611203 -0.0791870281 0.881141305
vn -0.844673038 0.338951796 0.2367488
vn 0.226999104 0.533852041 -0.341340512
vn -0.760628879 -0.648856103 -0.0207259711
vn 0.226999104 0.533852041 -0.341340512
vn 0.931514978 0.238577411 0.274518967
vn 0.994383931 -0.068848975 -0.0803776383
vn 0.22370322 -0.507751822 0.0440043658
vn -0.148611203 -0.0791870281 0.881141305
vn 0.830884635 -0.0744065195 0.181915596
vn -0.535210192 -0.0669304878 0.867456079
vn -0.148611203 -0.0791870281 0.881141305
vn -0.767571211 -0.0925304741 0.634249508
vn -0.535210192 -0.0669304878 0.867456079
vn -0.767571211 -0.0925304741 0.634249508
vn -0.240530878 -0.408445388 0.647605896
vn -0.0792338252 -0.8382743 -0.539066255
vn -0.767571211 -0.0925304741 0.634249508
vn -0.148611203 -0.0791870281 0.881141305
vn -0.0792338252 -0.8382743 -0.539066255
vn -0.148611203 -0.0791870281 0.881141305
vn 0.22370322 -0.507751822 0.0440043658
vn -0.240530878 -0.408445388 0.647605896
vn -0.767571211 -0.0925304741 0.634249508
vn -0.83625263 -0.134102985 0.531693578
vn 0.830884635 -0.0744065195 0.181915596
vn -0.0792338252 -0.8382743 -0.539066255
vn 0.22370322 -0.507751822 0.0440043658
vn -0.535210192 -0.0669304878 0.867456079
vn -0.240530878 -0.408445388 0.647605896
vn -0.83625263 -0.134102985 0.531693578
vn -0.83625263 -0.134102985 0.531693578
vn -0.767571211 -0.0925304741 0.634249508
vn -0.0792338252 -0.8382743 -0.539066255
vn 0.830884635 -0.0744065195 0.181915596
vn -0.391503543 -0.423954844 0.537595809
vn -0.0792338252 -0.8382743 -0.539066255
vn 0.577977657 -0.268053234 -0.770771861
vn 0.28657341 0.00319371116 -0.635214627
vn -0.952611387 -0.274678051 0.0702999011
vn 0.577977657 -0.268053234 -0.770771861
vn -0.952611387 -0.274678051 0.0702999011
vn -0.0792338252 -0.8382743 -0.539066255
vn 0.577977657 -0.268053234 -0.770771861
vn -0.0792338252 -0.8382743 -0.539066255
vn 0.343314677 -0.435330331 -0.427030474
vn -0.391503543 -0.423954844 0.537595809
vn 0.343314677 -0.435330331 -0.427030474
vn -0.0792338252 -0.8382743 -0.539066255
vn -0.952611387 -0.274678051 0.0702999011
vn 0.0669603571 -0.212690145 -0.0112178288
vn -0.0142552275 0.545770288 0.351880997
vn 0.577977657 -0.268053234 -0.770771861
vn 0.343314677 -0.435330331 -0.427030474
vn -0.391503543 -0.423954844 0.537595809
vn 0.0669603571 -0.212690145 -0.0112178288
vn 0.28657341 0.00319371116 -0.635214627
vn -0.0142552275 0.545770288 0.351880997
vn 0.0669603571 -0.212690145 -0.0112178288
vn -0.952611387 -0.274678051 0.0702999011
vn 0.28657341 0.00319371116 -0.635214627
vn 0.577977657 -0.268053234 -0.770771861
vn -0.391503543 -0.423954844 0.537595809
vn 0.28657341 0.00319371116 -0.635214627
vn 0.447760552 -0.212482229 0.864702463
vn 0.347181439 -0.620278776 0.677735031
vn 0.947625875 -0.0387493074 0.34145087
vn -0.920572639 -0.273238242 0.123788171
vn -0.452282518 -0.323004633 0.626120865
vn -0.63624543 0.566881478 0.158016652
vn 0.451775312 0.223231718 0.0498053245
vn -0.131034017 0.131797031 0.154488131
vn -0.353298813 -0.237782583 0.26637888
vn -0.353298813 -0.237782583 0.26637888
vn -0.131034017 0.131797031 0.154488131
vn 0.259998202 -0.308206767 0.803771913
vn -0.726355314 0.38471213 0.519699275
vn -0.162463218 0.273034155 0.0290613417
vn -0.0142552275 0.545770288 0.351880997
vn -0.013054424 -0.552478135 0.861548722
vn 0.259998202 -0.308206767 0.803771913
vn 0.516383052 -0.219287008 0.8278054
vn 0.516383052 -0.219287008 0.8278054
vn 0.901325107 0.437578112 -0.0102000302
vn 0.932909071 -0.203345105 -0.297205955
vn 0.772428811 0.606325269 -0.189006582
vn 0.932909071 -0.203345105 -0.297205955
vn 0.901325107 0.437578112 -0.0102000302
vn 0.901325107 0.437578112 -0.0102000302
vn 0.481830508 0.385472119 -0.786924899
vn 0.772428811 0.606325269 -0.189006582
vn 0.516383052 -0.219287008 0.8278054
vn 0.932909071 -0.203345105 -0.297205955
vn 0.89459908 -0.388749957 -0.220376894
vn 0.516383052 -0.219287008 0.8278054
vn 0.89459908 -0.388749957 -0.220376894
vn 0.0997037366 -0.601659656 0.792505503
vn 0.516383052 -0.219287008 0.8278054
vn 0.0997037366 -0.601659656 0.792505503
vn 0.772428811 0.606325269 -0.189006582
vn 0.0997037366 -0.601659656 0.792505503
vn 0.932909071 -0.203345105 -0.297205955
vn 0.772428811 0.606325269 -0.189006582
vn 0.772428811 0.606325269 -0.189006582
vn 0.0997037366 -0.601659656 0.792505503
vn -0.013054424 -0.552478135 0.861548722
vn 0.772428811 0.606325269 -0.189006582
vn -0.013054424 -0.552478135 0.861548722
vn 0.516383052 -0.219287008 0.8278054
vn 0.481830508 0.385472119 -0.786924899
vn 0.89459908 -0.388749957 -0.220376894
vn 0.932909071 -0.203345105 -0.297205955
vn 0.481830508 0.385472119 -0.786924899
vn 0.932909071 -0.203345105 -0.297205955
vn 0.0997037366 -0.601659656 0.792505503
vn 0.0997037366 -0.601659656 0.792505503
vn 0.772428811 0.606325269 -0.189006582
vn 0.481830508 0.385472119 -0.786924899
vn -0.695830762 0.0730151683 0.565378487
vn -0.131034017 0.131797031 0.154488131
vn 0.321094602 0.157207027 0.832495868
vn 0.89459908 -0.388749957 -0.220376894
vn -0.013054424 -0.552478135 0.861548722
vn 0.0997037366 -0.601659656 0.792505503
vn 0.732563734 0.192775384 0.652830839
vn -0.013054424 -0.552478135 0.861548722
vn 0.89459908 -0.388749957 -0.220376894
vn 0.732563734 0.192775384 0.652830839
vn 0.89459908 -0.388749957 -0.220376894
vn 0.481830508 0.385472119 -0.786924899
vn -0.013054424 -0.552478135 0.861548722
vn 0.732563734 0.192775384 0.652830839
vn 0.481830508 0.385472119 -0.786924899
vn 0.732563734 0.192775384 0.652830839
vn 0.614934325 -0.748081028 0.249460414
vn -0.211142197 -0.117009215 0.478200316
vn 0.732563734 0.192775384 0.652830839
vn -0.211142197 -0.117009215 0.478200316
vn 0.615957797 -0.787742674 -0.007580793
vn 0.481830508 0.385472119 -0.786924899
vn 0.614934325 -0.748081028 0.249460414
vn 0.615957797 -0.787742674 -0.007580793
vn 0.615957797 -0.787742674 -0.007580793
vn -0.013054424 -0.552478135 0.861548722
vn 0.481830508 0.385472119 -0.786924899
vn -0.211142197 -0.117009215 0.478200316
vn 0.614934325 -0.748081028 0.249460414
vn 0.481830508 0.385472119 -0.786924899
vn -0.211142197 -0.117009215 0.478200316
vn -0.013054424 -0.552478135 0.861548722
vn 0.615957797 -0.787742674 -0.007580793
vn -0.920572639 -0.273238242 0.123788171
vn -0.118875384 -0.567992628 0.0368016846
vn 0.430060357 -0.4368532 -0.617253482
vn 0.914960444 0.187759891 -0.0919249952
vn -0.211142197 -0.117009215 0.478200316
vn 0.740987957 0.42960307 -0.516118228
vn 0.740987957 0.42960307 -0.516118228
vn -0.211142197 -0.117009215 0.478200316
vn 0.380609959 0.184266552 -0.86593014
vn 0.961791635 -0.0749159306 0.664294779
vn 0.740987957 0.42960307 -0.516118228
vn 0.0476821624 -0.430620372 0.9448632
vn 0.961791635 -0.0749159306 0.664294779
vn 0.0476821624 -0.430620372 0.9448632
vn 0.914960444 0.187759891 -0.0919249952
vn 0.740987957 0.42960307 -0.516118228
vn 0.961791635 -0.0749159306 0.664294779
vn 0.62133503 -0.705406666 0.341092646
vn 0.740987957 0.42960307 -0.516118228
vn 0.62133503 -0.705406666 0.341092646
vn 0.914960444 0.187759891 -0.0919249952
vn 0.961791635 -0.0749159306 0.664294779
vn 0.914960444 0.187759891 -0.0919249952
vn 0.380609959 0.184266552 -0.86593014
vn 0.380609959 0.184266552 -0.86593014
vn 0.914960444 0.187759891 -0.0919249952
vn 0.62133503 -0.705406666 0.341092646
vn 0.0476821624 -0.430620372 0.9448632
vn 0.740987957 0.42960307 -0.516118228
vn 0.380609959 0.184266552 -0.86593014
vn 0.0476821624 -0.430620372 0.9448632
vn 0.380609959 0.184266552 -0.86593014
vn 0.62133503 -0.705406666 0.341092646
vn 0.62133503 -0.705406666 0.341092646
vn 0.961791635 -0.0749159306 0.664294779
vn -0.211142197 -0.117009215 0.478200316
vn 0.0476821624 -0.430620372 0.9448632
vn 0.62133503 -0.705406666 0.341092646
vn -0.211142197 -0.117009215 0.478200316
vn -0.353298813 -0.237782583 0.26637888
vn -0.320792943 -0.33991459 0.397585183
vn -0.12919648 -0.739939868 0.379162997
vn 0.380609959 0.184266552 -0.86593014
vn -0.353298813 -0.237782583 0.26637888
vn 0.961791635 -0.0749159306 0.664294779
vn 0.114248335 -0.783958197 0.610210657
vn -0.353298813 -0.237782583 0.26637888
vn 0.380609959 0.184266552 -0.86593014
vn 0.90215528 0.410708934 0.155835479
vn 0.515601337 0.320911288 0.576158166
vn 0.225097924 0.433981001 -0.105916366
vn -0.353298813 -0.237782583 0.26637888
vn -0.118875384 -0.567992628 0.0368016846
vn 0.551071286 -0.617203832 -0.212767124
vn 0.32896179 0.313234299 0.178142071
vn -0.0104846274 0.0224826802 -0.330024421
vn 0.134654328 0.455397993 0.760971189
vn 0.32896179 0.313234299 0.178142071
vn 0.225097924 0.433981001 -0.105916366
vn -0.0104846274 0.0224826802 -0.330024421
vn -0.0819931105 0.282593966 1.07215571
vn -0.61028862 0.562292039 0.18610923
vn 0.32896179 0.313234299 0.178142071
vn -0.192742467 -0.412098378 -0.714553297
vn -0.715636313 -0.61139822 -0.281802446
vn -0.920220494 -0.152615905 0.149544001
vn 0.790697396 0.255627334 -0.416426241
vn -0.0308062732 -0.134130344 -0.79205519
vn 0.110675581 0.694526911 -0.660935163
vn 0.614972293 0.315736383 -0.525533438
vn 0.25862515 0.666650653 -0.194721758
vn -0.183761597 0.721472681 0.657291174
vn -0.878631055 0.0231455471 -0.482646883
vn -0.192742467 -0.412098378 -0.714553297
vn -0.920220494 -0.152615905 0.149544001
vn 0.90215528 0.410708934 0.155835479
vn 0.321094602 0.157207027 0.832495868
vn -0.131034017 0.131797031 0.154488131
vn -0.726355314 0.38471213 0.519699275
vn 0.117725626 0.167760685 0.468948722
vn -0.162463218 0.273034155 0.0290613417
vn 4.26126099 2.00931287 2.6861186
vn -0.118875384 -0.567992628 0.0368016846
vn 0.114248335 -0.783958197 0.610210657
vn -0.118875384 -0.567992628 0.0368016846
vn -0.353298813 -0.237782583 0.26637888
vn 0.114248335 -0.783958197 0.610210657
vn 0.380609959 0.184266552 -0.86593014
vn 0.258080095 0.0308367442 -0.965631306
vn 0.114248335 -0.783958197 0.610210657
vn 4.26126099 2.00931287 2.6861186
vn 0.258080095 0.0308367442 -0.965631306
vn -0.118875384 -0.567992628 0.0368016846
vn -0.118875384 -0.567992628 0.0368016846
vn 0.258080095 0.0308367442 -0.965631306
vn 0.380609959 0.184266552 -0.86593014
vn -0.535927832 0.424722075 0.636466861
vn 0.294238329 -0.150711223 0.87116456
vn 0.407295495 0.361519963 0.829019904
vn -0.247543976 0.0550552867 0.945131361
vn -0.731325686 0.411787093 -0.133620024
vn -0.844673038 0.338951796 0.2367488
vn 0.515601337 0.320911288 0.576158166
vn -0.162463218 0.273034155 0.0290613417
vn -0.257116735 0.311152846 0.832996786
vn -0.870289505 -0.21599257 -0.194267213
vn -0.118875384 -0.567992628 0.0368016846
vn -0.456444234 0.0508534536 -0.740207911
vn -0.695830762 0.0730151683 0.565378487
vn -0.856099308 0.292591214 -0.26326251
vn -0.870289505 -0.21599257 -0.194267213
vn -0.870289505 -0.21599257 -0.194267213
vn -0.424620986 0.100293666 -0.214421302
vn -0.386068881 -0.351270258 0.291115284
vn 0.520163596 0.508695245 0.389644057
vn 0.25862515 0.666650653 -0.194721758
vn 0.595824361 0.247128248 -0.763830543
vn -0.183761597 0.721472681 0.657291174
vn 0.117725626 0.167760685 0.468948722
vn 0.614972293 0.315736383 -0.525533438
vn -0.386068881 -0.351270258 0.291115284
vn -0.320792943 -0.33991459 0.397585183
vn 0.551071286 -0.617203832 -0.212767124
vn -0.391503543 -0.423954844 0.537595809
vn 0.347181439 -0.620278776 0.677735031
vn 0.447760552 -0.212482229 0.864702463
vn -0.535927832 0.424722075 0.636466861
vn -0.802836955 -0.0117158471 0.627908885
vn 0.294238329 -0.150711223 0.87116456
vn -0.856099308 0.292591214 -0.26326251
vn -0.7055794 0.476429343 -0.507785261
vn -0.496080846 0.269466311 -0.756391764
vn 0.905095577 0.436411679 -0.270769626
vn -0.910542667 0.316099465 -0.25469014
vn -0.0622698404 0.743532598 0.584127367
vn -0.118875384 -0.567992628 0.0368016846
vn -0.920572639 -0.273238242 0.123788171
vn -0.456444234 0.0508534536 -0.740207911
vn 0.347446918 -0.718689382 0.392831862
vn 0.666042328 -0.718605876 0.127752736
vn -0.12919648 -0.739939868 0.379162997
vn 0.53477633 0.36630109 -0.460405469
vn 0.666042328 -0.718605876 0.127752736
vn 0.347446918 -0.718689382 0.392831862
vn 0.451775312 0.223231718 0.0498053245
vn 0.481830508 0.385472119 -0.786924899
vn 0.901325107 0.437578112 -0.0102000302
vn 0.830884635 -0.0744065195 0.181915596
vn 0.380858332 -0.381547868 0.902339637
vn 0.527430475 -0.271157891 -0.0771124065
vn 0.316617638 -0.381004721 -0.7115435
vn 0.892062426 -0.151202321 -0.39297545
vn 0.757611752 0.207977906 0.588938296
vn 0.100915708 0.49908489 0.274522156
vn -0.131034017 0.131797031 0.154488131
vn -0.695830762 0.0730151683 0.565378487
vn -0.0622698404 0.743532598 0.584127367
vn 0.407295495 0.361519963 0.829019904
vn 0.905095577 0.436411679 -0.270769626
vn 0.542952597 0.607910216 -0.714379311
vn -0.598126888 0.553650856 -0.47727713
vn -0.693631113 0.362771422 0.481818527
vn -0.920220494 -0.152615905 0.149544001
vn -0.335662484 0.286326587 0.880601406
vn -0.878631055 0.0231455471 -0.482646883
vn -0.0104846274 0.0224826802 -0.330024421
vn 0.595824361 0.247128248 -0.763830543
vn 0.468770683 0.0903329477 -0.640711665
vn -0.14076595 0.08379706 -0.896880209
vn 0.70402354 0.382002562 0.32482335
vn 0.169722512 0.13814339 -0.643931985
vn -0.456444234 0.0508534536 -0.740207911
vn -0.63624543 0.566881478 0.158016652
vn 0.100915708 0.49908489 0.274522156
vn 0.757611752 0.207977906 0.588938296
vn 0.790697396 0.255627334 -0.416426241
vn 0.110675581 0.694526911 -0.660935163
vn -0.162463218 0.273034155 0.0290613417
vn 0.905095577 0.436411679 -0.270769626
vn 0.28657341 0.00319371116 -0.635214627
vn 0.830884635 -0.0744065195 0.181915596
vn 0.294238329 -0.150711223 0.87116456
vn 0.380858332 -0.381547868 0.902339637
vn 0.294238329 -0.150711223 0.87116456
vn -0.702544034 -0.00747393817 0.52543664
vn 0.380858332 -0.381547868 0.902339637
vn -0.0622698404 0.743532598 0.584127367
vn -0.535927832 0.424722075 0.636466861
vn 0.407295495 0.361519963 0.829019904
vn -0.598126888 0.553650856 -0.47727713
vn 0.542952597 0.607910216 -0.714379311
vn 0.117725626 0.167760685 0.468948722
vn 0.790697396 0.255627334 -0.416426241
vn 0.892062426 -0.151202321 -0.39297545
vn 0.316617638 -0.381004721 -0.7115435
vn 0.25862515 0.666650653 -0.194721758
vn -0.257116735 0.311152846 0.832996786
vn -0.183761597 0.721472681 0.657291174
vn 0.520163596 0.508695245 0.389644057
vn 0.595824361 0.247128248 -0.763830543
vn 0.225097924 0.433981001 -0.105916366
vn 0.595824361 0.247128248 -0.763830543
vn -0.0104846274 0.0224826802 -0.330024421
vn 0.225097924 0.433981001 -0.105916366
vn 0.28657341 0.00319371116 -0.635214627
vn 0.226999104 0.533852041 -0.341340512
vn -0.726355314 0.38471213 0.519699275
vn -0.12919648 -0.739939868 0.379162997
vn 0.666042328 -0.718605876 0.127752736
vn 0.468086392 -0.519410908 -0.00552025856
vn 0.53477633 0.36630109 -0.460405469
vn 0.134654328 0.455397993 0.760971189
vn -0.0104846274 0.0224826802 -0.330024421
vn -0.0104846274 0.0224826802 -0.330024421
vn -0.264097989 0.0833642855 -0.121384569
vn 0.53477633 0.36630109 -0.460405469
vn 0.134654328 0.455397993 0.760971189
vn 0.70402354 0.382002562 0.32482335
vn 0.32896179 0.313234299 0.178142071
vn -0.61028862 0.562292039 0.18610923
vn -0.0819931105 0.282593966 1.07215571
vn -0.212302461 0.596613228 -0.805845499
vn -0.0819931105 0.282593966 1.07215571
vn 0.70402354 0.382002562 0.32482335
vn -0.212302461 0.596613228 -0.805845499
vn 0.90215528 0.410708934 0.155835479
vn -0.7055794 0.476429343 -0.507785261
vn -0.856099308 0.292591214 -0.26326251
vn 0.593386292 0.350896478 -0.735595167
vn 0.367221236 0.0694657713 -0.496324778
vn 0.117725626 0.167760685 0.468948722
vn 0.407295495 0.361519963 0.829019904
vn 0.836987138 0.186443314 -0.0335539915
vn 0.905095577 0.436411679 -0.270769626
vn 0.836987138 0.186443314 -0.0335539915
vn 0.958051026 0.00512612192 -0.271842211
vn 0.905095577 0.436411679 -0.270769626
vn -0.131034017 0.131797031 0.154488131
vn 0.515601337 0.320911288 0.576158166
vn 0.90215528 0.410708934 0.155835479
vn -0.45812887 0.283972025 0.343217969
vn -0.63624543 0.566881478 0.158016652
vn -0.452282518 -0.323004633 0.626120865
vn 0.407295495 0.361519963 0.829019904
vn 0.830884635 -0.0744065195 0.181915596
vn 0.836987138 0.186443314 -0.0335539915
vn -0.247543976 0.0550552867 0.945131361
vn 0.447760552 -0.212482229 0.864702463
vn 0.947625875 -0.0387493074 0.34145087
vn -0.162463218 0.273034155 0.0290613417
vn -0.910542667 0.316099465 -0.25469014
vn 0.905095577 0.436411679 -0.270769626
vn 0.70402354 0.382002562 0.32482335
vn -0.14076595 0.08379706 -0.896880209
vn -0.212302461 0.596613228 -0.805845499
vn 0.117725626 0.167760685 0.468948722
vn -0.183761597 0.721472681 0.657291174
vn -0.162463218 0.273034155 0.0290613417
vn 1.00320411 -0.0532136038 0.106018841
vn 0.468086392 -0.519410908 -0.00552025856
vn 0.666042328 -0.718605876 0.127752736
vn -0.013054424 -0.552478135 0.861548722
vn -0.211142197 -0.117009215 0.478200316
vn -0.353298813 -0.237782583 0.26637888
vn 0.757611752 0.207977906 0.588938296
vn 0.134654328 0.455397993 0.760971189
vn 0.53477633 0.36630109 -0.460405469
vn 0.32896179 0.313234299 0.178142071
vn -0.61028862 0.562292039 0.18610923
vn -0.335662484 0.286326587 0.880601406
vn -0.424620986 0.100293666 -0.214421302
vn -0.496080846 0.269466311 -0.756391764
vn 0.32896179 0.313234299 0.178142071
vn 0.226999104 0.533852041 -0.341340512
vn -0.844673038 0.338951796 0.2367488
vn -0.726355314 0.38471213 0.519699275
vn -0.391503543 -0.423954844 0.537595809
vn -0.489682645 -0.879062951 -0.0446230993
vn 0.347181439 -0.620278776 0.677735031
vn 0.520163596 0.508695245 0.389644057
vn 0.225097924 0.433981001 -0.105916366
vn -0.257116735 0.311152846 0.832996786
vn 0.520163596 0.508695245 0.389644057
vn -0.257116735 0.311152846 0.832996786
vn 0.25862515 0.666650653 -0.194721758
vn 0.0476821624 -0.430620372 0.9448632
vn -0.211142197 -0.117009215 0.478200316
vn 0.914960444 0.187759891 -0.0919249952
vn 0.321094602 0.157207027 0.832495868
vn -0.856099308 0.292591214 -0.26326251
vn -0.695830762 0.0730151683 0.565378487
vn -0.386068881 -0.351270258 0.291115284
vn -0.335662484 0.286326587 0.880601406
vn -0.920220494 -0.152615905 0.149544001
vn 0.808971703 -0.0732678771 -0.588554084
vn 0.947625875 -0.0387493074 0.34145087
vn 0.347181439 -0.620278776 0.677735031
vn -0.83625263 -0.134102985 0.531693578
vn -0.0792338252 -0.8382743 -0.539066255
vn -0.952611387 -0.274678051 0.0702999011
vn -0.386068881 -0.351270258 0.291115284
vn 0.551071286 -0.617203832 -0.212767124
vn -0.870289505 -0.21599257 -0.194267213
vn 0.110675581 0.694526911 -0.660935163
vn 0.134654328 0.455397993 0.760971189
vn 0.757611752 0.207977906 0.588938296
vn -0.192742467 -0.412098378 -0.714553297
vn -0.14076595 0.08379706 -0.896880209
vn 0.169722512 0.13814339 -0.643931985
vn -0.12919648 -0.739939868 0.379162997
vn 0.527430475 -0.271157891 -0.0771124065
vn -0.353298813 -0.237782583 0.26637888
vn -0.535927832 0.424722075 0.636466861
vn -0.910542667 0.316099465 -0.25469014
vn -0.45812887 0.283972025 0.343217969
vn 0.961791635 -0.0749159306 0.664294779
vn -0.353298813 -0.237782583 0.26637888
vn -0.211142197 -0.117009215 0.478200316
vn 0.28657341 0.00319371116 -0.635214627
vn 0.905095577 0.436411679 -0.270769626
vn 0.226999104 0.533852041 -0.341340512
vn 0.958051026 0.00512612192 -0.271842211
vn 0.226999104 0.533852041 -0.341340512
vn 0.905095577 0.436411679 -0.270769626
vn -0.335662484 0.286326587 0.880601406
vn -0.61028862 0.562292039 0.18610923
vn -0.878631055 0.0231455471 -0.482646883
vn -0.391503543 -0.423954844 0.537595809
vn -0.162463218 0.273034155 0.0290613417
vn 0.28657341 0.00319371116 -0.635214627
vn 0.527430475 -0.271157891 -0.0771124065
vn 0.468086392 -0.519410908 -0.00552025856
vn -0.489682645 -0.879062951 -0.0446230993
vn -0.353298813 -0.237782583 0.26637888
vn 0.551071286 -0.617203832 -0.212767124
vn -0.320792943 -0.33991459 0.397585183
vn 0.347446918 -0.718689382 0.392831862
vn 0.316617638 -0.381004721 -0.7115435
vn 0.757611752 0.207977906 0.588938296
vn -0.148611203 -0.0791870281 0.881141305
vn -0.535210192 -0.0669304878 0.867456079
vn -0.844673038 0.338951796 0.2367488
vn -0.131034017 0.131797031 0.154488131
vn 0.100915708 0.49908489 0.274522156
vn 0.259998202 -0.308206767 0.803771913
vn 0.830884635 -0.0744065195 0.181915596
vn 0.407295495 0.361519963 0.829019904
vn 0.294238329 -0.150711223 0.87116456
vn -0.952611387 -0.274678051 0.0702999011
vn -0.0142552275 0.545770288 0.351880997
vn -0.391503543 -0.423954844 0.537595809
vn -0.358399391 -0.11273732 -0.167462543
vn 0.451775312 0.223231718 0.0498053245
vn -0.353298813 -0.237782583 0.26637888
vn 0.367221236 0.0694657713 -0.496324778
vn 0.468086392 -0.519410908 -0.00552025856
vn 1.00320411 -0.0532136038 0.106018841
vn -0.0142552275 0.545770288 0.351880997
vn -0.162463218 0.273034155 0.0290613417
vn -0.391503543 -0.423954844 0.537595809
vn -0.391503543 -0.423954844 0.537595809
vn 0.830884635 -0.0744065195 0.181915596
vn 0.527430475 -0.271157891 -0.0771124065
vn 0.367221236 0.0694657713 -0.496324778
vn 0.808971703 -0.0732678771 -0.588554084
vn 0.468086392 -0.519410908 -0.00552025856
vn -0.731325686 0.411787093 -0.133620024
vn -0.598126888 0.553650856 -0.47727713
vn 0.117725626 0.167760685 0.468948722
vn 0.380609959 0.184266552 -0.86593014
vn 0.451775312 0.223231718 0.0498053245
vn 0.430060357 -0.4368532 -0.617253482
vn -0.211142197 -0.117009215 0.478200316
vn 0.451775312 0.223231718 0.0498053245
vn 0.380609959 0.184266552 -0.86593014
vn -0.264097989 0.0833642855 -0.121384569
vn -0.0104846274 0.0224826802 -0.330024421
vn 0.468770683 0.0903329477 -0.640711665
vn 0.32896179 0.313234299 0.178142071
vn -0.335662484 0.286326587 0.880601406
vn -0.424620986 0.100293666 -0.214421302
vn -0.391503543 -0.423954844 0.537595809
vn 0.447760552 -0.212482229 0.864702463
vn -0.247543976 0.0550552867 0.945131361
vn -0.424620986 0.100293666 -0.214421302
vn -0.856099308 0.292591214 -0.26326251
vn -0.496080846 0.269466311 -0.756391764
vn -0.910542667 0.316099465 -0.25469014
vn -0.162463218 0.273034155 0.0290613417
vn -0.131034017 0.131797031 0.154488131
vn -0.693631113 0.362771422 0.481818527
vn -0.598126888 0.553650856 -0.47727713
vn -0.247543976 0.0550552867 0.945131361
vn 0.593386292 0.350896478 -0.735595167
vn 0.117725626 0.167760685 0.468948722
vn 0.542952597 0.607910216 -0.714379311
vn -0.118875384 -0.567992628 0.0368016846
vn 0.380609959 0.184266552 -0.86593014
vn 0.430060357 -0.4368532 -0.617253482
vn -0.61028862 0.562292039 0.18610923
vn -0.212302461 0.596613228 -0.805845499
vn -0.14076595 0.08379706 -0.896880209
vn 0.964045525 0.160112381 0.267399907
vn -0.693631113 0.362771422 0.481818527
vn -0.247543976 0.0550552867 0.945131361
vn 0.110675581 0.694526911 -0.660935163
vn -0.0308062732 -0.134130344 -0.79205519
vn 0.169722512 0.13814339 -0.643931985
vn 0.593386292 0.350896478 -0.735595167
vn 0.964045525 0.160112381 0.267399907
vn 0.947625875 -0.0387493074 0.34145087
vn 0.790697396 0.255627334 -0.416426241
vn 0.316617638 -0.381004721 -0.7115435
vn -0.0308062732 -0.134130344 -0.79205519
vn -0.131034017 0.131797031 0.154488131
vn -0.162463218 0.273034155 0.0290613417
vn 0.515601337 0.320911288 0.576158166
vn -0.535210192 -0.0669304878 0.867456079
vn -0.391503543 -0.423954844 0.537595809
vn -0.247543976 0.0550552867 0.945131361
vn 0.32896179 0.313234299 0.178142071
vn -0.496080846 0.269466311 -0.756391764
vn 0.447276831 0.456344098 -0.835265279
vn 0.225097924 0.433981001 -0.105916366
vn 0.32896179 0.313234299 0.178142071
vn 0.447276831 0.456344098 -0.835265279
vn 0.795447469 0.399570644 0.455638707
vn 0.958051026 0.00512612192 -0.271842211
vn 0.971752346 0.00558938924 -0.146448493
vn 0.931514978 0.238577411 0.274518967
vn 0.958051026 0.00512612192 -0.271842211
vn 0.795447469 0.399570644 0.455638707
vn -0.353298813 -0.237782583 0.26637888
vn 0.259998202 -0.308206767 0.803771913
vn -0.013054424 -0.552478135 0.861548722
vn 0.958051026 0.00512612192 -0.271842211
vn 0.830884635 -0.0744065195 0.181915596
vn 0.971752346 0.00558938924 -0.146448493
vn -0.0622698404 0.743532598 0.584127367
vn -0.910542667 0.316099465 -0.25469014
vn -0.535927832 0.424722075 0.636466861
vn -0.535210192 -0.0669304878 0.867456079
vn -0.83625263 -0.134102985 0.531693578
vn -0.391503543 -0.423954844 0.537595809
vn -0.83625263 -0.134102985 0.531693578
vn -0.952611387 -0.274678051 0.0702999011
vn -0.391503543 -0.423954844 0.537595809
vn 0.110675581 0.694526911 -0.660935163
vn 0.169722512 0.13814339 -0.643931985
vn 0.134654328 0.455397993 0.760971189
vn -0.535210192 -0.0669304878 0.867456079
vn -0.247543976 0.0550552867 0.945131361
vn -0.844673038 0.338951796 0.2367488
vn -0.162463218 0.273034155 0.0290613417
vn -0.183761597 0.721472681 0.657291174
vn -0.257116735 0.311152846 0.832996786
vn -0.353298813 -0.237782583 0.26637888
vn 0.527430475 -0.271157891 -0.0771124065
vn -0.358399391 -0.11273732 -0.167462543
vn -0.731325686 0.411787093 -0.133620024
vn -0.726355314 0.38471213 0.519699275
vn -0.844673038 0.338951796 0.2367488
vn 0.159590036 -0.307751775 -0.42659688
vn -0.192742467 -0.412098378 -0.714553297
vn 0.169722512 0.13814339 -0.643931985
vn -0.535927832 0.424722075 0.636466861
vn -0.45812887 0.283972025 0.343217969
vn -0.802836955 -0.0117158471 0.627908885
vn -0.131034017 0.131797031 0.154488131
vn 0.451775312 0.223231718 0.0498053245
vn -0.45812887 0.283972025 0.343217969
vn 0.53477633 0.36630109 -0.460405469
vn 0.614972293 0.315736383 -0.525533438
vn 1.00320411 -0.0532136038 0.106018841
vn -0.802836955 -0.0117158471 0.627908885
vn -0.45812887 0.283972025 0.343217969
vn -0.452282518 -0.323004633 0.626120865
vn -0.456444234 0.0508534536 -0.740207911
vn 0.100915708 0.49908489 0.274522156
vn -0.695830762 0.0730151683 0.565378487
vn 0.53477633 0.36630109 -0.460405469
vn 0.468770683 0.0903329477 -0.640711665
vn 0.614972293 0.315736383 -0.525533438
vn 1.00320411 -0.0532136038 0.106018841
vn 0.117725626 0.167760685 0.468948722
vn 0.367221236 0.0694657713 -0.496324778
vn 0.259998202 -0.308206767 0.803771913
vn -0.45812887 0.283972025 0.343217969
vn 0.451775312 0.223231718 0.0498053245
vn 0.901325107 0.437578112 -0.0102000302
vn 0.259998202 -0.308206767 0.803771913
vn 0.451775312 0.223231718 0.0498053245
vn 0.481830508 0.385472119 -0.786924899
vn 0.451775312 0.223231718 0.0498053245
vn -0.211142197 -0.117009215 0.478200316
vn 0.159590036 -0.307751775 -0.42659688
vn 0.169722512 0.13814339 -0.643931985
vn -0.0308062732 -0.134130344 -0.79205519
vn 0.958051026 0.00512612192 -0.271842211
vn 0.836987138 0.186443314 -0.0335539915
vn 0.284236878 -0.256127656 -0.938830018
vn 0.367221236 0.0694657713 -0.496324778
vn 0.593386292 0.350896478 -0.735595167
vn 0.947625875 -0.0387493074 0.34145087
vn -0.386068881 -0.351270258 0.291115284
vn -0.424620986 0.100293666 -0.214421302
vn -0.335662484 0.286326587 0.880601406
vn 0.666042328 -0.718605876 0.127752736
vn 0.53477633 0.36630109 -0.460405469
vn 1.00320411 -0.0532136038 0.106018841
vn -0.257116735 0.311152846 0.832996786
vn 0.225097924 0.433981001 -0.105916366
vn 0.515601337 0.320911288 0.576158166
vn -0.878631055 0.0231455471 -0.482646883
vn -0.61028862 0.562292039 0.18610923
vn -0.14076595 0.08379706 -0.896880209
vn 0.892062426 -0.151202321 -0.39297545
vn 0.790697396 0.255627334 -0.416426241
vn 0.757611752 0.207977906 0.588938296
vn -0.391503543 -0.423954844 0.537595809
vn 0.527430475 -0.271157891 -0.0771124065
vn -0.489682645 -0.879062951 -0.0446230993
vn 0.90215528 0.410708934 0.155835479
vn -0.496080846 0.269466311 -0.756391764
vn -0.7055794 0.476429343 -0.507785261
vn -0.45812887 0.283972025 0.343217969
vn 0.259998202 -0.308206767 0.803771913
vn 0.100915708 0.49908489 0.274522156
vn 0.70402354 0.382002562 0.32482335
vn 0.134654328 0.455397993 0.760971189
vn 0.169722512 0.13814339 -0.643931985
vn 0.447276831 0.456344098 -0.835265279
vn -0.496080846 0.269466311 -0.756391764
vn 0.90215528 0.410708934 0.155835479
vn 0.808971703 -0.0732678771 -0.588554084
vn 0.367221236 0.0694657713 -0.496324778
vn 0.947625875 -0.0387493074 0.34145087
vn -0.456444234 0.0508534536 -0.740207911
vn -0.695830762 0.0730151683 0.565378487
vn -0.870289505 -0.21599257 -0.194267213
vn 0.468086392 -0.519410908 -0.00552025856
vn 0.527430475 -0.271157891 -0.0771124065
vn -0.12919648 -0.739939868 0.379162997
vn 0.347446918 -0.718689382 0.392831862
vn 0.757611752 0.207977906 0.588938296
vn 0.53477633 0.36630109 -0.460405469
vn -0.726355314 0.38471213 0.519699275
vn -0.731325686 0.411787093 -0.133620024
vn 0.117725626 0.167760685 0.468948722
vn -0.45812887 0.283972025 0.343217969
vn 0.100915708 0.49908489 0.274522156
vn -0.63624543 0.566881478 0.158016652
vn -0.0819931105 0.282593966 1.07215571
vn 0.32896179 0.313234299 0.178142071
vn 0.70402354 0.382002562 0.32482335
vn 0.294238329 -0.150711223 0.87116456
vn -0.802836955 -0.0117158471 0.627908885
vn -0.702544034 -0.00747393817 0.52543664
vn 1.04566312 -0.0714395046 -0.0583121628
vn 0.830884635 -0.0744065195 0.181915596
vn -0.148611203 -0.0791870281 0.881141305
vn 1.04566312 -0.0714395046 -0.0583121628
vn 0.971752346 0.00558938924 -0.146448493
vn 0.830884635 -0.0744065195 0.181915596
vn 0.964045525 0.160112381 0.267399907
vn 0.542952597 0.607910216 -0.714379311
vn -0.693631113 0.362771422 0.481818527
vn -0.192742467 -0.412098378 -0.714553297
vn -0.878631055 0.0231455471 -0.482646883
vn -0.14076595 0.08379706 -0.896880209
vn 0.595824361 0.247128248 -0.763830543
vn 0.25862515 0.666650653 -0.194721758
vn 0.468770683 0.0903329477 -0.640711665
vn 0.447276831 0.456344098 -0.835265279
vn 0.90215528 0.410708934 0.155835479
vn 0.225097924 0.433981001 -0.105916366
vn 0.516383052 -0.219287008 0.8278054
vn 0.259998202 -0.308206767 0.803771913
vn 0.901325107 0.437578112 -0.0102000302
vn -0.358399391 -0.11273732 -0.167462543
vn 0.430060357 -0.4368532 -0.617253482
vn 0.451775312 0.223231718 0.0498053245
vn 0.593386292 0.350896478 -0.735595167
vn 0.542952597 0.607910216 -0.714379311
vn 0.964045525 0.160112381 0.267399907
vn 0.808971703 -0.0732678771 -0.588554084
vn -0.489682645 -0.879062951 -0.0446230993
vn 0.468086392 -0.519410908 -0.00552025856
vn -0.247543976 0.0550552867 0.945131361
vn -0.598126888 0.553650856 -0.47727713
vn -0.731325686 0.411787093 -0.133620024
vn -0.247543976 0.0550552867 0.945131361
vn 0.947625875 -0.0387493074 0.34145087
vn 0.964045525 0.160112381 0.267399907
vn 0.614972293 0.315736383 -0.525533438
vn 0.117725626 0.167760685 0.468948722
vn 1.00320411 -0.0532136038 0.106018841
vn -0.910542667 0.316099465 -0.25469014
vn -0.131034017 0.131797031 0.154488131
vn -0.45812887 0.283972025 0.343217969
vn 0.468770683 0.0903329477 -0.640711665
vn 0.53477633 0.36630109 -0.460405469
vn -0.264097989 0.0833642855 -0.121384569
vn 0.25862515 0.666650653 -0.194721758
vn 0.614972293 0.315736383 -0.525533438
vn 0.468770683 0.0903329477 -0.640711665
vn 0.90215528 0.410708934 0.155835479
vn -0.856099308 0.292591214 -0.26326251
vn 0.321094602 0.157207027 0.832495868
vn -0.870289505 -0.21599257 -0.194267213
vn -0.856099308 0.292591214 -0.26326251
vn -0.424620986 0.100293666 -0.214421302
vn -0.726355314 0.38471213 0.519699275
vn -0.0142552275 0.545770288 0.351880997
vn 0.28657341 0.00319371116 -0.635214627
vn -0.63624543 0.566881478 0.158016652
vn -0.456444234 0.0508534536 -0.740207911
vn -0.920572639 -0.273238242 0.123788171
vn -0.920220494 -0.152615905 0.149544001
vn -0.715636313 -0.61139822 -0.281802446
vn -0.386068881 -0.351270258 0.291115284
g Group52356
f 60/1/1 115/2/2 78/3/3
f 1/4/4 3/5/5 4/6/6
f 5/7/7 1/8/8 6/9/9
f 1/10/10 7/11/11 6/12/12
f 4/13/13 8/14/14 7/15/15
f 4/16/16 7/17/17 1/18/18
f 1/19/19 2/20/20 7/21/21
f 1/22/22 7/23/23 8/24/24
f 4/25/25 3/26/26 2/27/27
f 4/28/28 2/29/29 8/30/30
f 6/31/31 10/32/32 5/33/33
f 6/34/34 9/35/35 10/36/36
f 9/37/37 6/38/38 7/39/39
f 9/40/40 7/41/41 2/42/42
f 5/43/43 9/44/44 2/45/45
f 21/46/46 17/47/47 12/48/48
f 13/49/49 105/50/50 15/51/51
f 11/52/52 105/53/53 19/54/54
f 19/55/55 105/56/56 14/57/57
f 105/58/58 13/59/59 12/60/60
f 105/61/61 12/62/62 14/63/63
f 12/64/64 13/65/65 21/66/66
f 16/67/67 11/68/68 17/69/69
f 12/70/70 17/71/71 11/72/72
f 11/73/73 19/74/74 18/75/75
f 12/76/76 11/77/77 18/78/78
f 14/79/79 12/80/80 18/81/81
f 15/82/82 19/83/83 14/84/84
f 15/85/85 14/86/86 13/87/87
f 13/88/88 14/89/89 20/90/90
f 13/91/91 20/92/92 21/93/93
f 20/94/94 3/95/95 16/96/96
f 16/97/97 17/98/98 18/99/99
f 19/100/100 16/101/101 18/102/102
f 18/103/103 20/104/104 14/105/105
f 20/106/106 19/107/107 15/108/108
f 20/109/109 15/110/110 21/111/111
f 17/112/112 20/113/113 18/114/114
f 20/115/115 16/116/116 19/117/117
f 23/118/118 21/119/119 1/120/120
f 22/121/121 21/122/122 25/123/123
f 22/124/124 25/125/125 23/126/126
f 24/127/127 25/128/128 21/129/129
f 24/130/130 21/131/131 23/132/132
f 23/133/133 25/134/134 139/135/135
f 1/136/136 24/137/137 23/138/138
f 22/139/139 23/140/140 139/141/141
f 139/142/142 25/143/143 24/144/144
f 1/145/145 26/146/146 24/147/147
f 28/148/148 31/149/149 27/150/150
f 28/151/151 27/152/152 24/153/153
f 28/154/154 24/155/155 29/156/156
f 26/157/157 29/158/158 24/159/159
f 27/160/160 29/161/161 30/162/162
f 28/163/163 29/164/164 26/165/165
f 29/166/166 31/167/167 30/168/168
f 29/169/169 27/170/170 31/171/171
f 28/172/172 26/173/173 31/174/174
f 104/175/175 33/176/176 118/177/177
f 55/178/178 78/179/179 76/180/180
f 121/181/181 128/182/182 131/183/183
f 131/184/184 128/185/185 137/186/186
f 90/187/187 68/188/188 30/189/189
f 37/190/190 137/191/191 36/192/192
f 36/193/193 40/194/194 34/195/195
f 35/196/196 34/197/197 40/198/198
f 40/199/199 42/200/200 35/201/201
f 36/202/202 34/203/203 39/204/204
f 36/205/205 39/206/206 38/207/207
f 36/208/208 38/209/209 35/210/210
f 38/211/211 34/212/212 35/213/213
f 35/214/214 38/215/215 37/216/216
f 35/217/217 37/218/218 36/219/219
f 42/220/220 39/221/221 34/222/222
f 42/223/223 34/224/224 38/225/225
f 38/226/226 35/227/227 42/228/228
f 89/229/229 128/230/230 84/231/231
f 39/232/232 37/233/233 38/234/234
f 41/235/235 37/236/236 39/237/237
f 41/238/238 39/239/239 42/240/240
f 37/241/241 41/242/242 42/243/243
f 41/244/244 43/245/245 46/246/246
f 41/247/247 46/248/248 44/249/249
f 42/250/250 43/251/251 44/252/252
f 44/253/253 37/254/254 42/255/255
f 46/256/256 43/257/257 42/258/258
f 46/259/259 37/260/260 44/261/261
f 55/262/262 62/263/263 83/264/264
f 47/265/265 46/266/266 50/267/267
f 50/268/268 46/269/269 48/270/270
f 53/271/271 50/272/272 49/273/273
f 53/274/274 49/275/275 47/276/276
f 50/277/277 53/278/278 51/279/279
f 50/280/280 51/281/281 47/282/282
f 53/283/283 47/284/284 48/285/285
f 48/286/286 47/287/287 51/288/288
f 49/289/289 50/290/290 48/291/291
f 49/292/292 48/293/293 51/294/294
f 51/295/295 53/296/296 46/297/297
f 49/298/298 51/299/299 46/300/300
f 131/301/301 124/302/302 52/303/303
f 48/304/304 131/305/305 53/306/306
f 92/307/307 131/308/308 48/309/309
f 58/310/310 45/311/311 113/312/312
f 131/313/313 62/314/314 56/315/315
f 69/316/316 126/317/317 86/318/318
f 69/319/319 113/320/320 126/321/321
f 134/322/322 67/323/323 69/324/324
f 64/325/325 136/326/326 79/327/327
f 77/328/328 66/329/329 111/330/330
f 57/331/331 103/332/332 85/333/333
f 59/334/334 64/335/335 79/336/336
f 58/337/337 84/338/338 128/339/339
f 90/340/340 82/341/341 68/342/342
f 53/343/343 62/344/344 92/345/345
f 62/346/346 131/347/347 92/348/348
f 48/349/349 94/350/350 92/351/351
f 53/352/352 94/353/353 62/354/354
f 62/355/355 94/356/356 48/357/357
f 95/358/358 109/359/359 130/360/360
f 91/361/361 125/362/362 17/363/363
f 45/364/364 68/365/365 96/366/366
f 80/367/367 62/368/368 97/369/369
f 89/370/370 81/371/371 80/372/372
f 80/373/373 101/374/374 63/375/375
f 138/376/376 103/377/377 107/378/378
f 85/379/379 82/380/380 57/381/381
f 63/382/382 124/383/383 56/384/384
f 26/385/385 33/386/386 104/387/387
f 95/388/388 115/389/389 109/390/390
f 81/391/391 135/392/392 116/393/393
f 73/394/394 32/395/395 99/396/396
f 62/397/397 55/398/398 97/399/399
f 120/400/400 129/401/401 52/402/402
f 100/403/403 129/404/404 120/405/405
f 121/406/406 42/407/407 40/408/408
f 1/409/409 72/410/410 122/411/411
f 75/412/412 123/413/413 93/414/414
f 133/415/415 128/416/416 89/417/417
f 99/418/418 130/419/419 73/420/420
f 117/421/421 108/422/422 98/423/423
f 79/424/424 112/425/425 59/426/426
f 126/427/427 107/428/428 70/429/429
f 74/430/430 71/431/431 88/432/432
f 97/433/433 76/434/434 133/435/435
f 93/436/436 77/437/437 111/438/438
f 68/439/439 73/440/440 31/441/441
f 1/442/442 109/443/443 72/444/444
f 109/445/445 60/446/446 72/447/447
f 99/448/448 95/449/449 130/450/450
f 108/451/451 117/452/452 82/453/453
f 77/454/454 123/455/455 75/456/456
f 103/457/457 96/458/458 85/459/459
f 138/460/460 107/461/461 113/462/462
f 107/463/463 126/464/464 113/465/465
f 31/466/466 20/467/467 90/468/468
f 52/469/469 129/470/470 127/471/471
f 100/472/472 86/473/473 126/474/474
f 126/475/475 140/476/476 100/477/477
f 86/478/478 71/479/479 69/480/480
f 67/481/481 134/482/482 119/483/483
f 134/484/484 71/485/485 119/486/486
f 58/487/487 135/488/488 81/489/489
f 65/490/490 102/491/491 82/492/492
f 130/493/493 5/494/494 73/495/495
f 5/496/496 3/497/497 73/498/498
f 128/499/499 45/500/500 58/501/501
f 106/502/502 76/503/503 78/504/504
f 130/505/505 1/506/506 5/507/507
f 91/508/508 104/509/509 118/510/510
f 68/511/511 32/512/512 73/513/513
f 71/514/514 74/515/515 119/516/516
f 82/517/517 85/518/518 68/519/519
f 114/520/520 127/521/521 129/522/522
f 37/523/523 46/524/524 131/525/525
f 93/526/526 86/527/527 100/528/528
f 69/529/529 67/530/530 112/531/531
f 101/532/532 116/533/533 69/534/534
f 20/535/535 17/536/536 90/537/537
f 26/538/538 61/539/539 33/540/540
f 138/541/541 113/542/542 96/543/543
f 138/544/544 96/545/545 103/546/546
f 49/547/547 46/548/548 47/549/549
f 84/550/550 81/551/551 89/552/552
f 63/553/553 112/554/554 79/555/555
f 54/556/556 118/557/557 33/558/558
f 139/559/559 24/560/560 27/561/561
f 63/562/562 56/563/563 80/564/564
f 111/565/565 86/566/566 93/567/567
f 64/568/568 74/569/569 88/570/570
f 52/571/571 122/572/572 131/573/573
f 95/574/574 32/575/575 106/576/576
f 53/577/577 131/578/578 46/579/579
f 31/580/580 73/581/581 20/582/582
f 3/583/583 20/584/584 73/585/585
f 112/586/586 67/587/587 59/588/588
f 26/589/589 68/590/590 31/591/591
f 122/592/592 127/593/593 61/594/594
f 131/595/595 56/596/596 124/597/597
f 120/598/598 75/599/599 93/600/600
f 21/601/601 22/602/602 17/603/603
f 128/604/604 133/605/605 137/606/606
f 1/607/607 130/608/608 109/609/609
f 27/610/610 30/611/611 26/612/612
f 110/613/613 121/614/614 131/615/615
f 102/616/616 127/617/617 114/618/618
f 30/619/619 68/620/620 26/621/621
f 26/622/622 1/623/623 122/624/624
f 102/625/625 54/626/626 127/627/627
f 125/628/628 108/629/629 82/630/630
f 48/631/631 121/632/632 83/633/633
f 46/634/634 121/635/635 48/636/636
f 140/637/637 126/638/638 70/639/639
f 69/640/640 112/641/641 101/642/642
f 26/643/643 104/644/644 91/645/645
f 101/646/646 81/647/647 116/648/648
f 32/649/649 68/650/650 128/651/651
f 98/652/652 108/653/653 91/654/654
f 65/655/655 82/656/656 117/657/657
f 62/658/658 48/659/659 83/660/660
f 67/661/661 119/662/662 74/663/663
f 132/664/664 98/665/665 91/666/666
f 111/667/667 66/668/668 88/669/669
f 65/670/670 132/671/671 118/672/672
f 77/673/673 75/674/674 66/675/675
f 128/676/676 68/677/677 45/678/678
f 22/679/679 26/680/680 91/681/681
f 69/682/682 116/683/683 141/684/684
f 113/685/685 69/686/686 141/687/687
f 11/688/688 3/689/689 105/690/690
f 16/691/691 3/692/692 11/693/693
f 131/694/694 137/695/695 37/696/696
f 3/697/697 1/698/698 105/699/699
f 99/700/700 32/701/701 95/702/702
f 22/703/703 139/704/704 26/705/705
f 139/706/706 27/707/707 26/708/708
f 111/709/709 88/710/710 86/711/711
f 22/712/712 91/713/713 17/714/714
f 68/715/715 85/716/716 96/717/717
f 131/718/718 122/719/719 110/720/720
f 125/721/721 90/722/722 17/723/723
f 87/724/724 64/725/725 88/726/726
f 95/727/727 106/728/728 115/729/729
f 128/730/730 121/731/731 106/732/732
f 100/733/733 57/734/734 114/735/735
f 115/736/736 106/737/737 78/738/738
f 97/739/739 133/740/740 89/741/741
f 100/742/742 70/743/743 57/744/744
f 114/745/745 82/746/746 102/747/747
f 137/748/748 106/749/749 121/750/750
f 40/751/751 137/752/752 121/753/753
f 42/754/754 121/755/755 46/756/756
f 87/757/757 88/758/758 66/759/759
f 3/760/760 5/761/761 2/762/762
f 102/763/763 65/764/764 118/765/765
f 63/766/766 101/767/767 112/768/768
f 129/769/769 100/770/770 114/771/771
f 96/772/772 113/773/773 45/774/774
f 59/775/775 67/776/776 74/777/777
f 123/778/778 77/779/779 93/780/780
f 26/781/781 122/782/782 61/783/783
f 58/784/784 116/785/785 135/786/786
f 106/787/787 137/788/788 133/789/789
f 71/790/790 86/791/791 88/792/792
f 141/793/793 116/794/794 58/795/795
f 54/796/796 102/797/797 118/798/798
f 97/799/799 89/800/800 80/801/801
f 127/802/802 122/803/803 52/804/804
f 120/805/805 93/806/806 100/807/807
f 90/808/808 125/809/809 82/810/810
f 106/811/811 133/812/812 76/813/813
f 134/814/814 69/815/815 71/816/816
f 109/817/817 115/818/818 60/819/819
f 15/820/820 1/821/821 21/822/822
f 15/823/823 105/824/824 1/825/825
f 132/826/826 117/827/827 98/828/828
f 64/829/829 59/830/830 74/831/831
f 107/832/832 103/833/833 70/834/834
f 141/835/835 58/836/836 113/837/837
f 36/838/838 137/839/839 40/840/840
f 110/841/841 83/842/842 121/843/843
f 65/844/844 117/845/845 132/846/846
f 54/847/847 61/848/848 127/849/849
f 91/850/850 108/851/851 125/852/852
f 91/853/853 118/854/854 132/855/855
f 57/856/856 82/857/857 114/858/858
f 32/859/859 128/860/860 106/861/861
f 70/862/862 100/863/863 140/864/864
f 103/865/865 57/866/866 70/867/867
f 58/868/868 81/869/869 84/870/870
f 80/871/871 81/872/872 101/873/873
f 90/874/874 30/875/875 31/876/876
f 76/877/877 97/878/878 55/879/879
f 79/880/880 136/881/881 63/882/882
