{
	"asset":{
		"generator":"Khronos glTF Blender I/O v4.0.44",
		"version":"2.0"
	},
	"extensionsUsed":[
		"KHR_materials_emissive_strength",
		"KHR_materials_specular",
		"KHR_materials_ior"
	],
	"scene":0,
	"scenes":[
		{
			"name":"Scene",
			"nodes":[
				0,
				1,
				2,
				3,
				4,
				5,
				6,
				7,
				8,
				9,
				10,
				11,
				12
			]
		}
	],
	"nodes":[
		{
			"mesh":0,
			"name":"Shield",
			"translation":[
				-1.0786527395248413,
				0.7093957662582397,
				0.09485770016908646
			]
		},
		{
			"mesh":1,
			"name":"Plane.005_low",
			"scale":[
				1.362998127937317,
				2.29644775390625,
				1.362998127937317
			],
			"translation":[
				0.6560012698173523,
				2.83212947845459,
				0
			]
		},
		{
			"mesh":2,
			"name":"Plane.005_low.001",
			"scale":[
				1.362998127937317,
				2.235579490661621,
				1.362998127937317
			],
			"translation":[
				0.6577335000038147,
				1.170479416847229,
				0.01008374523371458
			]
		},
		{
			"mesh":3,
			"name":"Plane.005_low.002",
			"scale":[
				1.6936273574829102,
				2.279813528060913,
				1.6936273574829102
			],
			"translation":[
				0.6580312848091125,
				2.8257765769958496,
				-0.0024123776238411665
			]
		},
		{
			"mesh":4,
			"name":"Plane.005_low.003",
			"scale":[
				1.6936273574829102,
				2.279813528060913,
				1.6936273574829102
			],
			"translation":[
				1.5036059617996216,
				2.306680679321289,
				0.021587679162621498
			]
		},
		{
			"mesh":5,
			"name":"Cube",
			"scale":[
				0.592930018901825,
				0.42118075489997864,
				0.009072278626263142
			],
			"translation":[
				1.3887007236480713,
				2.367483139038086,
				0.013976389542222023
			]
		},
		{
			"mesh":6,
			"name":"Plane.005_low.004",
			"scale":[
				1.362998127937317,
				2.29644775390625,
				1.362998127937317
			],
			"translation":[
				0.6560012698173523,
				2.83212947845459,
				0
			]
		},
		{
			"mesh":7,
			"name":"Plane.005_low.005",
			"scale":[
				1.6936273574829102,
				2.279813528060913,
				1.6936273574829102
			],
			"translation":[
				0.6580312848091125,
				2.8257765769958496,
				-0.0024123776238411665
			]
		},
		{
			"mesh":8,
			"name":"Body.001",
			"rotation":[
				0.7071068286895752,
				0,
				0,
				0.7071068286895752
			],
			"scale":[
				0.009999999776482582,
				0.009999999776482582,
				0.009999999776482582
			],
			"translation":[
				0,
				1.5485351085662842,
				0.001566243707202375
			]
		},
		{
			"mesh":9,
			"name":"Head.001",
			"rotation":[
				0.7071068286895752,
				0,
				0,
				0.7071068286895752
			],
			"scale":[
				0.009999999776482582,
				0.009999999776482582,
				0.009999999776482582
			]
		},
		{
			"mesh":10,
			"name":"Body"
		},
		{
			"mesh":11,
			"name":"Head",
			"translation":[
				-0.009932786226272583,
				1.6094732284545898,
				0.03370390087366104
			]
		},
		{
			"mesh":12,
			"name":"Helm",
			"translation":[
				0.001912413164973259,
				1.6727714538574219,
				-0.284976065158844
			]
		}
	],
	"materials":[
		{
			"doubleSided":true,
			"emissiveFactor":[
				1,
				1,
				1
			],
			"emissiveTexture":{
				"index":0
			},
			"extensions":{
				"KHR_materials_emissive_strength":{
					"emissiveStrength":1.4700000286102295
				},
				"KHR_materials_specular":{
					"specularColorFactor":[
						2.0,
						2.0,
						2.0
					],
					"specularColorTexture":{
						"index":1
					}
				},
				"KHR_materials_ior":{
					"ior":1.4500000476837158
				}
			},
			"name":"uv_checker_material_color_grid_2048x2048",
			"normalTexture":{
				"index":2
			},
			"pbrMetallicRoughness":{
				"baseColorTexture":{
					"index":3
				},
				"metallicRoughnessTexture":{
					"index":4
				}
			}
		},
		{
			"doubleSided":true,
			"emissiveFactor":[
				1,
				1,
				1
			],
			"emissiveTexture":{
				"index":5
			},
			"extensions":{
				"KHR_materials_emissive_strength":{
					"emissiveStrength":2.2300000190734863
				},
				"KHR_materials_specular":{
					"specularColorFactor":[
						2.0,
						2.0,
						2.0
					],
					"specularColorTexture":{
						"index":6
					}
				},
				"KHR_materials_ior":{
					"ior":1.4500000476837158
				}
			},
			"name":"white.002",
			"normalTexture":{
				"index":7
			},
			"pbrMetallicRoughness":{
				"baseColorTexture":{
					"index":8
				},
				"metallicRoughnessTexture":{
					"index":9
				}
			}
		},
		{
			"doubleSided":true,
			"extensions":{
				"KHR_materials_specular":{
					"specularColorFactor":[
						2.0,
						2.0,
						2.0
					],
					"specularColorTexture":{
						"index":10
					}
				},
				"KHR_materials_ior":{
					"ior":1.4500000476837158
				}
			},
			"name":"Material",
			"normalTexture":{
				"index":11,
				"scale":2.5999999046325684
			},
			"pbrMetallicRoughness":{
				"baseColorTexture":{
					"index":12
				},
				"metallicFactor":0,
				"roughnessFactor":0.2454545497894287
			}
		},
		{
			"doubleSided":true,
			"emissiveFactor":[
				1,
				1,
				1
			],
			"name":"Body+eye.002",
			"pbrMetallicRoughness":{}
		},
		{
			"doubleSided":true,
			"emissiveFactor":[
				1,
				1,
				1
			],
			"emissiveTexture":{
				"index":13
			},
			"extensions":{
				"KHR_materials_emissive_strength":{
					"emissiveStrength":1.709999918937683
				},
				"KHR_materials_specular":{
					"specularColorFactor":[
						1.0818181037902832,
						1.0818181037902832,
						1.0818181037902832
					],
					"specularColorTexture":{
						"index":14
					}
				},
				"KHR_materials_ior":{
					"ior":1.4500000476837158
				}
			},
			"name":"Fear",
			"normalTexture":{
				"index":15
			},
			"pbrMetallicRoughness":{
				"baseColorTexture":{
					"index":16
				},
				"metallicFactor":0.22727273404598236,
				"metallicRoughnessTexture":{
					"index":17
				}
			}
		}
	],
	"meshes":[
		{
			"name":"1.1_\u0411\u0430\u0437\u0430_low",
			"primitives":[
				{
					"attributes":{
						"POSITION":0,
						"NORMAL":1,
						"TEXCOORD_0":2
					},
					"indices":3,
					"material":0
				}
			]
		},
		{
			"name":"Plane.005_low.001",
			"primitives":[
				{
					"attributes":{
						"POSITION":4,
						"NORMAL":5,
						"TEXCOORD_0":6
					},
					"indices":7,
					"material":1
				}
			]
		},
		{
			"name":"Plane.005_low.002",
			"primitives":[
				{
					"attributes":{
						"POSITION":8,
						"NORMAL":9,
						"TEXCOORD_0":10
					},
					"indices":11,
					"material":1
				}
			]
		},
		{
			"name":"Plane.005_low.003",
			"primitives":[
				{
					"attributes":{
						"POSITION":12,
						"NORMAL":13,
						"TEXCOORD_0":14
					},
					"indices":15,
					"material":1
				}
			]
		},
		{
			"name":"Plane.005_low.004",
			"primitives":[
				{
					"attributes":{
						"POSITION":16,
						"NORMAL":17,
						"TEXCOORD_0":18
					},
					"indices":19,
					"material":1
				}
			]
		},
		{
			"name":"Cube",
			"primitives":[
				{
					"attributes":{
						"POSITION":20,
						"NORMAL":21,
						"TEXCOORD_0":22
					},
					"indices":23,
					"material":2
				}
			]
		},
		{
			"name":"Plane.005_low.005",
			"primitives":[
				{
					"attributes":{
						"POSITION":24,
						"NORMAL":25,
						"TEXCOORD_0":26
					},
					"indices":7,
					"material":1
				}
			]
		},
		{
			"name":"Plane.005_low.006",
			"primitives":[
				{
					"attributes":{
						"POSITION":27,
						"NORMAL":28,
						"TEXCOORD_0":29
					},
					"indices":15,
					"material":1
				}
			]
		},
		{
			"name":"Cape_low.004",
			"primitives":[
				{
					"attributes":{
						"COLOR_0":30,
						"POSITION":31,
						"NORMAL":32,
						"TEXCOORD_0":33,
						"TEXCOORD_1":34,
						"TEXCOORD_2":35,
						"TEXCOORD_3":36
					},
					"indices":37,
					"material":3
				}
			]
		},
		{
			"name":"Cape_low.001",
			"primitives":[
				{
					"attributes":{
						"COLOR_0":38,
						"POSITION":39,
						"NORMAL":40,
						"TEXCOORD_0":41,
						"TEXCOORD_1":42,
						"TEXCOORD_2":43,
						"TEXCOORD_3":44
					},
					"indices":45,
					"material":3
				}
			]
		},
		{
			"name":"Cube.026",
			"primitives":[
				{
					"attributes":{
						"POSITION":46,
						"NORMAL":47,
						"TEXCOORD_0":48
					},
					"indices":49,
					"material":4
				}
			]
		},
		{
			"name":"mesh.020",
			"primitives":[
				{
					"attributes":{
						"POSITION":50,
						"NORMAL":51,
						"TEXCOORD_0":52
					},
					"indices":53,
					"material":4
				}
			]
		},
		{
			"name":"Plane.013",
			"primitives":[
				{
					"attributes":{
						"POSITION":54,
						"NORMAL":55,
						"TEXCOORD_0":56
					},
					"indices":57,
					"material":4
				}
			]
		}
	],
	"textures":[
		{
			"sampler":0,
			"source":0
		},
		{
			"sampler":0,
			"source":1
		},
		{
			"sampler":0,
			"source":2
		},
		{
			"sampler":0,
			"source":3
		},
		{
			"sampler":0,
			"source":4
		},
		{
			"sampler":0,
			"source":5
		},
		{
			"sampler":0,
			"source":6
		},
		{
			"sampler":0,
			"source":7
		},
		{
			"sampler":0,
			"source":8
		},
		{
			"sampler":0,
			"source":9
		},
		{
			"sampler":0,
			"source":10
		},
		{
			"sampler":0,
			"source":11
		},
		{
			"sampler":0,
			"source":12
		},
		{
			"sampler":0,
			"source":13
		},
		{
			"sampler":0,
			"source":14
		},
		{
			"sampler":0,
			"source":15
		},
		{
			"sampler":0,
			"source":16
		},
		{
			"sampler":0,
			"source":17
		}
	],
	"images":[
		{
			"mimeType":"image/png",
			"name":"Shield_Low001_Shield_Emissive",
			"uri":"Shield_Low001_Shield_Emissive.png"
		},
		{
			"mimeType":"image/png",
			"name":"Shield_Low001_Shield_Specular",
			"uri":"Shield_Low001_Shield_Specular.png"
		},
		{
			"mimeType":"image/png",
			"name":"Shield_Low001_Shield_Normal",
			"uri":"Shield_Low001_Shield_Normal.png"
		},
		{
			"mimeType":"image/png",
			"name":"Shield_Low001_Shield_Diffuse",
			"uri":"Shield_Low001_Shield_Diffuse.png"
		},
		{
			"mimeType":"image/png",
			"name":"Shield_Low001_Shield_Glossiness",
			"uri":"Shield_Low001_Shield_Glossiness.png"
		},
		{
			"mimeType":"image/png",
			"name":"Flag_Fear_Emissive",
			"uri":"Flag_Fear_Emissive.png"
		},
		{
			"mimeType":"image/png",
			"name":"Flag_Fear_Specular",
			"uri":"Flag_Fear_Specular.png"
		},
		{
			"mimeType":"image/png",
			"name":"RGB",
			"uri":"RGB.png"
		},
		{
			"mimeType":"image/png",
			"name":"Flag_Fear_Diffuse",
			"uri":"Flag_Fear_Diffuse.png"
		},
		{
			"mimeType":"image/png",
			"name":"Flag_Fear_Glossiness",
			"uri":"Flag_Fear_Glossiness.png"
		},
		{
			"mimeType":"image/png",
			"name":"Friday_16-February-2024_14.25_01_white.002_Specular",
			"uri":"Friday_16-February-2024_14_25_01_white_002_Specular.png"
		},
		{
			"mimeType":"image/png",
			"name":"Friday_16-February-2024_14.25_01_white.002_Normal",
			"uri":"Friday_16-February-2024_14_25_01_white_002_Normal.png"
		},
		{
			"mimeType":"image/png",
			"name":"Friday_16-February-2024_14.25_01_white.002_Diffuse",
			"uri":"Friday_16-February-2024_14_25_01_white_002_Diffuse.png"
		},
		{
			"mimeType":"image/png",
			"name":"Fear_Emission",
			"uri":"Fear_Emission.png"
		},
		{
			"mimeType":"image/png",
			"name":"fear_low_Fear_Specular",
			"uri":"fear_low_Fear_Specular.png"
		},
		{
			"mimeType":"image/png",
			"name":"Fear_Normal",
			"uri":"Fear_Normal.png"
		},
		{
			"mimeType":"image/png",
			"name":"fear_low_Fear_Diffuse",
			"uri":"fear_low_Fear_Diffuse.png"
		},
		{
			"mimeType":"image/png",
			"name":"fear_low_Fear_Glossiness",
			"uri":"fear_low_Fear_Glossiness.png"
		}
	],
	"accessors":[
		{
			"bufferView":0,
			"componentType":5126,
			"count":3565,
			"max":[
				0.5162281394004822,
				0.580676794052124,
				0.08902380615472794
			],
			"min":[
				-0.5046097636222839,
				-0.7119609117507935,
				-0.03851362690329552
			],
			"type":"VEC3"
		},
		{
			"bufferView":1,
			"componentType":5126,
			"count":3565,
			"type":"VEC3"
		},
		{
			"bufferView":2,
			"componentType":5126,
			"count":3565,
			"type":"VEC2"
		},
		{
			"bufferView":3,
			"componentType":5123,
			"count":8991,
			"type":"SCALAR"
		},
		{
			"bufferView":4,
			"componentType":5126,
			"count":1305,
			"max":[
				0.07898448407649994,
				0.5933710932731628,
				0.026652315631508827
			],
			"min":[
				-0.17304745316505432,
				-1.2472604513168335,
				-0.013088462874293327
			],
			"type":"VEC3"
		},
		{
			"bufferView":5,
			"componentType":5126,
			"count":1305,
			"type":"VEC3"
		},
		{
			"bufferView":6,
			"componentType":5126,
			"count":1305,
			"type":"VEC2"
		},
		{
			"bufferView":7,
			"componentType":5123,
			"count":3414,
			"type":"SCALAR"
		},
		{
			"bufferView":8,
			"componentType":5126,
			"count":538,
			"max":[
				0.021020427346229553,
				0.2580374479293823,
				0.02102259173989296
			],
			"min":[
				-0.02102164924144745,
				-0.257951557636261,
				-0.02101956680417061
			],
			"type":"VEC3"
		},
		{
			"bufferView":9,
			"componentType":5126,
			"count":538,
			"type":"VEC3"
		},
		{
			"bufferView":10,
			"componentType":5126,
			"count":538,
			"type":"VEC2"
		},
		{
			"bufferView":11,
			"componentType":5123,
			"count":1152,
			"type":"SCALAR"
		},
		{
			"bufferView":12,
			"componentType":5126,
			"count":978,
			"max":[
				0.07961111515760422,
				0.04463440179824829,
				0.023410383611917496
			],
			"min":[
				0.010565513744950294,
				-0.458318293094635,
				-0.008619884960353374
			],
			"type":"VEC3"
		},
		{
			"bufferView":13,
			"componentType":5126,
			"count":978,
			"type":"VEC3"
		},
		{
			"bufferView":14,
			"componentType":5126,
			"count":978,
			"type":"VEC2"
		},
		{
			"bufferView":15,
			"componentType":5123,
			"count":3486,
			"type":"SCALAR"
		},
		{
			"bufferView":16,
			"componentType":5126,
			"count":260,
			"max":[
				0.458886981010437,
				0.2299116849899292,
				0.0999225303530693
			],
			"min":[
				-0.4378397762775421,
				-0.2553226351737976,
				-0.06534618139266968
			],
			"type":"VEC3"
		},
		{
			"bufferView":17,
			"componentType":5126,
			"count":260,
			"type":"VEC3"
		},
		{
			"bufferView":18,
			"componentType":5126,
			"count":260,
			"type":"VEC2"
		},
		{
			"bufferView":19,
			"componentType":5123,
			"count":876,
			"type":"SCALAR"
		},
		{
			"bufferView":20,
			"componentType":5126,
			"count":34,
			"max":[
				1.5350703001022339,
				0.9889034032821655,
				1.2432470321655273
			],
			"min":[
				-0.994055449962616,
				-1.0110965967178345,
				-0.7567530274391174
			],
			"type":"VEC3"
		},
		{
			"bufferView":21,
			"componentType":5126,
			"count":34,
			"type":"VEC3"
		},
		{
			"bufferView":22,
			"componentType":5126,
			"count":34,
			"type":"VEC2"
		},
		{
			"bufferView":23,
			"componentType":5123,
			"count":60,
			"type":"SCALAR"
		},
		{
			"bufferView":24,
			"componentType":5126,
			"count":1305,
			"max":[
				0.07898448407649994,
				0.5933710932731628,
				0.026652315631508827
			],
			"min":[
				-0.17304745316505432,
				-1.2472604513168335,
				-0.013088462874293327
			],
			"type":"VEC3"
		},
		{
			"bufferView":25,
			"componentType":5126,
			"count":1305,
			"type":"VEC3"
		},
		{
			"bufferView":26,
			"componentType":5126,
			"count":1305,
			"type":"VEC2"
		},
		{
			"bufferView":27,
			"componentType":5126,
			"count":978,
			"max":[
				0.07961111515760422,
				0.04463440179824829,
				0.023410383611917496
			],
			"min":[
				0.010565513744950294,
				-0.458318293094635,
				-0.008619884960353374
			],
			"type":"VEC3"
		},
		{
			"bufferView":28,
			"componentType":5126,
			"count":978,
			"type":"VEC3"
		},
		{
			"bufferView":29,
			"componentType":5126,
			"count":978,
			"type":"VEC2"
		},
		{
			"bufferView":30,
			"componentType":5123,
			"count":804,
			"normalized":true,
			"type":"VEC4"
		},
		{
			"bufferView":31,
			"componentType":5126,
			"count":804,
			"max":[
				21.422103881835938,
				17.915218353271484,
				21.645092010498047
			],
			"min":[
				-21.57573890686035,
				-23.44764518737793,
				-24.985301971435547
			],
			"type":"VEC3"
		},
		{
			"bufferView":32,
			"componentType":5126,
			"count":804,
			"type":"VEC3"
		},
		{
			"bufferView":33,
			"componentType":5126,
			"count":804,
			"type":"VEC2"
		},
		{
			"bufferView":34,
			"componentType":5126,
			"count":804,
			"type":"VEC2"
		},
		{
			"bufferView":35,
			"componentType":5126,
			"count":804,
			"type":"VEC2"
		},
		{
			"bufferView":36,
			"componentType":5126,
			"count":804,
			"type":"VEC2"
		},
		{
			"bufferView":37,
			"componentType":5123,
			"count":4416,
			"type":"SCALAR"
		},
		{
			"bufferView":38,
			"componentType":5123,
			"count":459,
			"normalized":true,
			"type":"VEC4"
		},
		{
			"bufferView":39,
			"componentType":5126,
			"count":459,
			"max":[
				22.56310272216797,
				19.459304809570312,
				-60.027225494384766
			],
			"min":[
				-23.202402114868164,
				-19.2629337310791,
				-125.25276947021484
			],
			"type":"VEC3"
		},
		{
			"bufferView":40,
			"componentType":5126,
			"count":459,
			"type":"VEC3"
		},
		{
			"bufferView":41,
			"componentType":5126,
			"count":459,
			"type":"VEC2"
		},
		{
			"bufferView":42,
			"componentType":5126,
			"count":459,
			"type":"VEC2"
		},
		{
			"bufferView":43,
			"componentType":5126,
			"count":459,
			"type":"VEC2"
		},
		{
			"bufferView":44,
			"componentType":5126,
			"count":459,
			"type":"VEC2"
		},
		{
			"bufferView":45,
			"componentType":5123,
			"count":2304,
			"type":"SCALAR"
		},
		{
			"bufferView":46,
			"componentType":5126,
			"count":4798,
			"max":[
				0.5121395587921143,
				1.465863823890686,
				0.2644665241241455
			],
			"min":[
				-0.42543545365333557,
				0.287303626537323,
				-0.2646738886833191
			],
			"type":"VEC3"
		},
		{
			"bufferView":47,
			"componentType":5126,
			"count":4798,
			"type":"VEC3"
		},
		{
			"bufferView":48,
			"componentType":5126,
			"count":4798,
			"type":"VEC2"
		},
		{
			"bufferView":49,
			"componentType":5123,
			"count":13917,
			"type":"SCALAR"
		},
		{
			"bufferView":50,
			"componentType":5126,
			"count":1849,
			"max":[
				0.2481791377067566,
				0.21209192276000977,
				0.17534920573234558
			],
			"min":[
				-0.22940751910209656,
				-0.3524552583694458,
				-0.33467647433280945
			],
			"type":"VEC3"
		},
		{
			"bufferView":51,
			"componentType":5126,
			"count":1849,
			"type":"VEC3"
		},
		{
			"bufferView":52,
			"componentType":5126,
			"count":1849,
			"type":"VEC2"
		},
		{
			"bufferView":53,
			"componentType":5123,
			"count":5130,
			"type":"SCALAR"
		},
		{
			"bufferView":54,
			"componentType":5126,
			"count":1952,
			"max":[
				0.4243786334991455,
				0.22686970233917236,
				0.5765537023544312
			],
			"min":[
				-0.424577534198761,
				-0.23472976684570312,
				-0.6136029362678528
			],
			"type":"VEC3"
		},
		{
			"bufferView":55,
			"componentType":5126,
			"count":1952,
			"type":"VEC3"
		},
		{
			"bufferView":56,
			"componentType":5126,
			"count":1952,
			"type":"VEC2"
		},
		{
			"bufferView":57,
			"componentType":5123,
			"count":5214,
			"type":"SCALAR"
		}
	],
	"bufferViews":[
		{
			"buffer":0,
			"byteLength":42780,
			"byteOffset":0,
			"target":34962
		},
		{
			"buffer":0,
			"byteLength":42780,
			"byteOffset":42780,
			"target":34962
		},
		{
			"buffer":0,
			"byteLength":28520,
			"byteOffset":85560,
			"target":34962
		},
		{
			"buffer":0,
			"byteLength":17982,
			"byteOffset":114080,
			"target":34963
		},
		{
			"buffer":0,
			"byteLength":15660,
			"byteOffset":132064,
			"target":34962
		},
		{
			"buffer":0,
			"byteLength":15660,
			"byteOffset":147724,
			"target":34962
		},
		{
			"buffer":0,
			"byteLength":10440,
			"byteOffset":163384,
			"target":34962
		},
		{
			"buffer":0,
			"byteLength":6828,
			"byteOffset":173824,
			"target":34963
		},
		{
			"buffer":0,
			"byteLength":6456,
			"byteOffset":180652,
			"target":34962
		},
		{
			"buffer":0,
			"byteLength":6456,
			"byteOffset":187108,
			"target":34962
		},
		{
			"buffer":0,
			"byteLength":4304,
			"byteOffset":193564,
			"target":34962
		},
		{
			"buffer":0,
			"byteLength":2304,
			"byteOffset":197868,
			"target":34963
		},
		{
			"buffer":0,
			"byteLength":11736,
			"byteOffset":200172,
			"target":34962
		},
		{
			"buffer":0,
			"byteLength":11736,
			"byteOffset":211908,
			"target":34962
		},
		{
			"buffer":0,
			"byteLength":7824,
			"byteOffset":223644,
			"target":34962
		},
		{
			"buffer":0,
			"byteLength":6972,
			"byteOffset":231468,
			"target":34963
		},
		{
			"buffer":0,
			"byteLength":3120,
			"byteOffset":238440,
			"target":34962
		},
		{
			"buffer":0,
			"byteLength":3120,
			"byteOffset":241560,
			"target":34962
		},
		{
			"buffer":0,
			"byteLength":2080,
			"byteOffset":244680,
			"target":34962
		},
		{
			"buffer":0,
			"byteLength":1752,
			"byteOffset":246760,
			"target":34963
		},
		{
			"buffer":0,
			"byteLength":408,
			"byteOffset":248512,
			"target":34962
		},
		{
			"buffer":0,
			"byteLength":408,
			"byteOffset":248920,
			"target":34962
		},
		{
			"buffer":0,
			"byteLength":272,
			"byteOffset":249328,
			"target":34962
		},
		{
			"buffer":0,
			"byteLength":120,
			"byteOffset":249600,
			"target":34963
		},
		{
			"buffer":0,
			"byteLength":15660,
			"byteOffset":249720,
			"target":34962
		},
		{
			"buffer":0,
			"byteLength":15660,
			"byteOffset":265380,
			"target":34962
		},
		{
			"buffer":0,
			"byteLength":10440,
			"byteOffset":281040,
			"target":34962
		},
		{
			"buffer":0,
			"byteLength":11736,
			"byteOffset":291480,
			"target":34962
		},
		{
			"buffer":0,
			"byteLength":11736,
			"byteOffset":303216,
			"target":34962
		},
		{
			"buffer":0,
			"byteLength":7824,
			"byteOffset":314952,
			"target":34962
		},
		{
			"buffer":0,
			"byteLength":6432,
			"byteOffset":322776,
			"target":34962
		},
		{
			"buffer":0,
			"byteLength":9648,
			"byteOffset":329208,
			"target":34962
		},
		{
			"buffer":0,
			"byteLength":9648,
			"byteOffset":338856,
			"target":34962
		},
		{
			"buffer":0,
			"byteLength":6432,
			"byteOffset":348504,
			"target":34962
		},
		{
			"buffer":0,
			"byteLength":6432,
			"byteOffset":354936,
			"target":34962
		},
		{
			"buffer":0,
			"byteLength":6432,
			"byteOffset":361368,
			"target":34962
		},
		{
			"buffer":0,
			"byteLength":6432,
			"byteOffset":367800,
			"target":34962
		},
		{
			"buffer":0,
			"byteLength":8832,
			"byteOffset":374232,
			"target":34963
		},
		{
			"buffer":0,
			"byteLength":3672,
			"byteOffset":383064,
			"target":34962
		},
		{
			"buffer":0,
			"byteLength":5508,
			"byteOffset":386736,
			"target":34962
		},
		{
			"buffer":0,
			"byteLength":5508,
			"byteOffset":392244,
			"target":34962
		},
		{
			"buffer":0,
			"byteLength":3672,
			"byteOffset":397752,
			"target":34962
		},
		{
			"buffer":0,
			"byteLength":3672,
			"byteOffset":401424,
			"target":34962
		},
		{
			"buffer":0,
			"byteLength":3672,
			"byteOffset":405096,
			"target":34962
		},
		{
			"buffer":0,
			"byteLength":3672,
			"byteOffset":408768,
			"target":34962
		},
		{
			"buffer":0,
			"byteLength":4608,
			"byteOffset":412440,
			"target":34963
		},
		{
			"buffer":0,
			"byteLength":57576,
			"byteOffset":417048,
			"target":34962
		},
		{
			"buffer":0,
			"byteLength":57576,
			"byteOffset":474624,
			"target":34962
		},
		{
			"buffer":0,
			"byteLength":38384,
			"byteOffset":532200,
			"target":34962
		},
		{
			"buffer":0,
			"byteLength":27834,
			"byteOffset":570584,
			"target":34963
		},
		{
			"buffer":0,
			"byteLength":22188,
			"byteOffset":598420,
			"target":34962
		},
		{
			"buffer":0,
			"byteLength":22188,
			"byteOffset":620608,
			"target":34962
		},
		{
			"buffer":0,
			"byteLength":14792,
			"byteOffset":642796,
			"target":34962
		},
		{
			"buffer":0,
			"byteLength":10260,
			"byteOffset":657588,
			"target":34963
		},
		{
			"buffer":0,
			"byteLength":23424,
			"byteOffset":667848,
			"target":34962
		},
		{
			"buffer":0,
			"byteLength":23424,
			"byteOffset":691272,
			"target":34962
		},
		{
			"buffer":0,
			"byteLength":15616,
			"byteOffset":714696,
			"target":34962
		},
		{
			"buffer":0,
			"byteLength":10428,
			"byteOffset":730312,
			"target":34963
		}
	],
	"samplers":[
		{
			"magFilter":9729,
			"minFilter":9987
		}
	],
	"buffers":[
		{
			"byteLength":740740,
			"uri":"%D0%A4%D0%BB%D0%B0%D0%B3.bin"
		}
	]
}
