# File exported by Houdini 16.5.405 (www.sidefx.com)
# 65 points
# 378 vertices
# 126 primitives
# Bounds: [-181.132843, -1.8886131, -171.616028] to [184.13205, 188.858444, 169.515289]
g 
v -139.534775 -1.08835185 77.1753235
v -6.69554996 185.060349 18.8261299
v -100.861603 92.0142212 -138.335754
v 53.9665756 26.1763191 -164.747223
v -57.5259323 1.14957392 123.284325
v -33.1962166 140.656631 140.962875
v -144.482162 18.9053707 -126.174934
v -18.3140335 161.568344 -95.0111847
v -8.12419033 176.28157 -71.8856049
v 184.13205 2.24842286 29.5337753
v 94.4802399 105.123039 -117.695145
v -121.872963 80.2195358 134.470322
v 13.5748749 24.2632389 -171.616028
v -181.132843 59.9034386 -49.791832
v 143.902237 37.9613075 129.315277
v 122.877937 162.180908 21.7391281
v 107.222878 -1.73452449 140.159348
v 84.1394272 15.8582335 156.576111
v 63.5045166 171.8582 -52.9114532
v 108.208992 -1.8886131 -81.7705536
v -118.693329 154.768707 58.1808853
v 151.173843 29.3782215 -67.2608719
v 37.6418839 119.292191 158.686813
v -89.6716537 -1.20084572 -129.472076
v -145.380264 40.312645 110.629799
v 172.513168 45.4094048 53.2848778
v -140.920685 83.9264832 -111.425919
v 163.901382 13.8403196 -3.21074724
v -169.350922 114.225441 14.5867701
v -179.278854 5.04689884 25.9773312
v 178.370407 83.6600647 11.9132214
v 57.7084122 52.4461555 169.515289
v 17.0274086 79.7889557 -164.579834
v -102.239197 163.439072 59.7111664
v 123.462494 39.3449669 -122.564667
v 136.750397 48.790062 149.652756
v 130.611206 124.57486 -45.8730316
v 43.8869553 185.196243 7.34495401
v -171.036697 65.6231461 89.4521103
v 156.700882 104.161293 87.6046677
v 31.2937393 92.0457001 -144.799103
v -174.994919 -1.53752899 -58.4946365
v 16.3950253 178.922928 65.9683075
v -45.8006096 142.302536 -108.432228
v -173.21257 38.5587006 81.8650055
v 164.583618 -1.41618919 113.866798
v -44.4221764 29.5716648 -167.55661
v -134.346573 129.212631 -79.6497574
v 6.79432249 146.409531 -109.391426
v 81.5267487 171.56369 83.9446182
v 76.4459305 48.6414719 -148.874863
v -20.9675426 88.7962265 168.292755
v -62.1323166 16.4063511 -157.293167
v 120.850029 152.374039 67.9852524
v -162.891922 16.1613102 -102.107887
v 106.582573 90.4919968 157.153152
v -17.9324551 7.31352234 133.641281
v -75.7350159 178.380432 -45.5710831
v 26.9152508 0.882247925 -150.991333
v -35.4881706 182.069809 -48.9665794
v -145.045486 108.270287 88.5919342
v 145.503021 73.3244095 137.330887
v 20.0250435 188.858444 -12.9717226
v -14.8338709 117.727875 -131.193176
v -5.40772343 186.469727 -11.8547745
vt 0.811070025 0.226860002 0
vt 0.937789977 0.168139994 0
vt 0.897870004 0.313510001 0
vt 0.174810007 0.328110009 0
vt 0.26188001 0.406430006 0
vt 0.115840003 0.347939998 0
vt 0.608070016 0.746670008 0
vt 0.684459984 0.734059989 0
vt 0.628530025 0.832870007 0
vt 0.514069974 0.637579978 0
vt 0.680620015 0.622309983 0
vt 0.599640012 0.71341002 0
vt 0.897870004 0.313510001 0
vt 0.926039994 0.371630013 0
vt 0.690569997 0.30952999 0
vt 0.897870004 0.313510001 0
vt 0.966620028 0.27353999 0
vt 0.984939992 0.347750008 0
vt 0.443879992 0.496939987 0
vt 0.294340014 0.510940015 0
vt 0.295830011 0.484079987 0
vt 0.174810007 0.328110009 0
vt 0.115840003 0.347939998 0
vt 0.0678400025 0.282689989 0
vt 0.966620028 0.27353999 0
vt 0.897870004 0.313510001 0
vt 0.937789977 0.168139994 0
vt 0.684459984 0.734059989 0
vt 0.751370013 0.711989999 0
vt 0.628530025 0.832870007 0
vt 0.690569997 0.30952999 0
vt 0.926039994 0.371630013 0
vt 0.815980017 0.39616999 0
vt 0.897870004 0.313510001 0
vt 0.984939992 0.347750008 0
vt 0.926039994 0.371630013 0
vt 0.882910013 0.757849991 0
vt 0.945800006 0.811580002 0
vt 0.89714998 0.854349971 0
vt 0.559440017 0.825139999 0
vt 0.43829 0.821210027 0
vt 0.554430008 0.752049983 0
vt 0.329679996 0.60165 0
vt 0.294340014 0.510940015 0
vt 0.441240013 0.596589983 0
vt 0.547150016 0.294050008 0
vt 0.595070004 0.377110004 0
vt 0.484420002 0.350809991 0
vt 0.798160017 0.896130025 0
vt 0.89714998 0.854349971 0
vt 0.886640012 0.925469995 0
vt 0.845269978 0.658219993 0
vt 0.819930017 0.700049996 0
vt 0.751370013 0.711989999 0
vt 0.811070025 0.226860002 0
vt 0.700299978 0.119949996 0
vt 0.785709977 0.111579999 0
vt 0.785709977 0.111579999 0
vt 0.937789977 0.168139994 0
vt 0.811070025 0.226860002 0
vt 0.299609989 0.732420027 0
vt 0.390500009 0.672259986 0
vt 0.402559996 0.736410022 0
vt 0.679970026 1.00234997 0
vt 0.694090009 0.918690026 0
vt 0.772689998 0.967270017 0
vt 0.441240013 0.596589983 0
vt 0.514069974 0.637579978 0
vt 0.463719994 0.649789989 0
vt 0.628530025 0.832870007 0
vt 0.559440017 0.825139999 0
vt 0.608070016 0.746670008 0
vt 0.608070016 0.746670008 0
vt 0.559440017 0.825139999 0
vt 0.554430008 0.752049983 0
vt 0.466839999 0.715900004 0
vt 0.599640012 0.71341002 0
vt 0.566690028 0.731180012 0
vt 0.732119977 0.238169998 0
vt 0.700299978 0.119949996 0
vt 0.811070025 0.226860002 0
vt 0.886640012 0.925469995 0
vt 0.89714998 0.854349971 0
vt 0.918449998 0.89835 0
vt 0.644370019 0.248410001 0
vt 0.784250021 0.282409996 0
vt 0.690569997 0.30952999 0
vt 0.532800019 0.441570014 0
vt 0.443879992 0.496939987 0
vt 0.477070004 0.450560004 0
vt 0.433679998 -0.00200000009 0
vt 0.485949993 0.0276999995 0
vt 0.426730007 0.0729399994 0
vt 0.286709994 0.37134999 0
vt 0.26188001 0.406430006 0
vt 0.174810007 0.328110009 0
vt 0.582719982 0.241139993 0
vt 0.732119977 0.238169998 0
vt 0.644370019 0.248410001 0
vt 0.797410011 0.781799972 0
vt 0.89714998 0.854349971 0
vt 0.798160017 0.896130025 0
vt 0.647409976 0.353379995 0
vt 0.595070004 0.377110004 0
vt 0.547150016 0.294050008 0
vt 0.694090009 0.918690026 0
vt 0.798160017 0.896130025 0
vt 0.772689998 0.967270017 0
vt 0.477070004 0.450560004 0
vt 0.443879992 0.496939987 0
vt 0.465030015 0.34604001 0
vt 0.329679996 0.60165 0
vt 0.235579997 0.572600007 0
vt 0.294340014 0.510940015 0
vt 0.819930017 0.700049996 0
vt 0.845269978 0.658219993 0
vt 0.910130024 0.639900029 0
vt 0.937789977 0.168139994 0
vt 0.785709977 0.111579999 0
vt 0.835280001 0.0587599985 0
vt 0.911350012 0.727419972 0
vt 0.819930017 0.700049996 0
vt 0.910130024 0.639900029 0
vt 0.772790015 0.381529987 0
vt 0.647409976 0.353379995 0
vt 0.690569997 0.30952999 0
vt 0.680620015 0.622309983 0
vt 0.514069974 0.637579978 0
vt 0.543540001 0.538680017 0
vt 0.926039994 0.371630013 0
vt 0.984939992 0.347750008 0
vt 0.98593998 0.392030001 0
vt 0.911350012 0.727419972 0
vt 0.986819983 0.869819999 0
vt 0.945800006 0.811580002 0
vt 0.751370013 0.711989999 0
vt 0.819930017 0.700049996 0
vt 0.797410011 0.781799972 0
vt 0.882910013 0.757849991 0
vt 0.819930017 0.700049996 0
vt 0.911350012 0.727419972 0
vt 0.582719982 0.241139993 0
vt 0.644370019 0.248410001 0
vt 0.586359978 0.282460004 0
vt 0.724030018 0.83969003 0
vt 0.797410011 0.781799972 0
vt 0.798160017 0.896130025 0
vt 0.329679996 0.60165 0
vt 0.225620002 0.640479982 0
vt 0.235579997 0.572600007 0
vt 0.455610007 0.899489999 0
vt 0.43829 0.821210027 0
vt 0.559440017 0.825139999 0
vt 0.227270007 0.681779981 0
vt 0.225620002 0.640479982 0
vt 0.299609989 0.732420027 0
vt 0.225620002 0.640479982 0
vt 0.390500009 0.672259986 0
vt 0.299609989 0.732420027 0
vt 0.582719982 0.241139993 0
vt 0.639549971 0.106739998 0
vt 0.700299978 0.119949996 0
vt 0.300309986 0.03486 0
vt 0.433679998 -0.00200000009 0
vt 0.426730007 0.0729399994 0
vt 0.443879992 0.496939987 0
vt 0.295830011 0.484079987 0
vt 0.400319993 0.365530014 0
vt 0.655399978 0.954540014 0
vt 0.694090009 0.918690026 0
vt 0.679970026 1.00234997 0
vt 0.483269989 0.329400003 0
vt 0.41576001 0.325029999 0
vt 0.506380022 0.298310012 0
vt 0.644370019 0.248410001 0
vt 0.732119977 0.238169998 0
vt 0.784250021 0.282409996 0
vt 0.466839999 0.715900004 0
vt 0.463719994 0.649789989 0
vt 0.514069974 0.637579978 0
vt 0.488810003 0.948759973 0
vt 0.442039996 0.938530028 0
vt 0.455610007 0.899489999 0
vt 0.901220024 0.973739982 0
vt 0.810779989 0.968900025 0
vt 0.886640012 0.925469995 0
vt 0.694090009 0.918690026 0
vt 0.579750001 0.922349989 0
vt 0.628530025 0.832870007 0
vt 0.445789993 0.381680012 0
vt 0.443879992 0.496939987 0
vt 0.400319993 0.365530014 0
vt 0.543540001 0.538680017 0
vt 0.514069974 0.637579978 0
vt 0.441240013 0.596589983 0
vt 0.808679998 0.00228999997 0
vt 0.835280001 0.0587599985 0
vt 0.785709977 0.111579999 0
vt 0.514069974 0.637579978 0
vt 0.599640012 0.71341002 0
vt 0.466839999 0.715900004 0
vt 0.582719982 0.241139993 0
vt 0.571479976 0.160139993 0
vt 0.639549971 0.106739998 0
vt 0.628530025 0.832870007 0
vt 0.724030018 0.83969003 0
vt 0.694090009 0.918690026 0
vt 0.751370013 0.711989999 0
vt 0.797410011 0.781799972 0
vt 0.724030018 0.83969003 0
vt 0.551680028 0.482179999 0
vt 0.443879992 0.496939987 0
vt 0.532800019 0.441570014 0
vt 0.810779989 0.968900025 0
vt 0.798160017 0.896130025 0
vt 0.886640012 0.925469995 0
vt 0.690569997 0.30952999 0
vt 0.647409976 0.353379995 0
vt 0.586359978 0.282460004 0
vt 0.644370019 0.248410001 0
vt 0.690569997 0.30952999 0
vt 0.586359978 0.282460004 0
vt 0.115840003 0.347939998 0
vt 0.26188001 0.406430006 0
vt 0.168650001 0.396259993 0
vt 0.784250021 0.282409996 0
vt 0.811070025 0.226860002 0
vt 0.897870004 0.313510001 0
vt 0.819930017 0.700049996 0
vt 0.882910013 0.757849991 0
vt 0.797410011 0.781799972 0
vt 0.441240013 0.596589983 0
vt 0.294340014 0.510940015 0
vt 0.443879992 0.496939987 0
vt 0.443239987 0.715680003 0
vt 0.390500009 0.672259986 0
vt 0.466839999 0.715900004 0
vt 0.655399978 0.954540014 0
vt 0.579750001 0.922349989 0
vt 0.694090009 0.918690026 0
vt 0.960810006 0.182730004 0
vt 0.966620028 0.27353999 0
vt 0.937789977 0.168139994 0
vt 0.441240013 0.596589983 0
vt 0.390500009 0.672259986 0
vt 0.329679996 0.60165 0
vt 0.690569997 0.30952999 0
vt 0.784250021 0.282409996 0
vt 0.897870004 0.313510001 0
vt 0.543540001 0.538680017 0
vt 0.441240013 0.596589983 0
vt 0.443879992 0.496939987 0
vt 0.543540001 0.538680017 0
vt 0.443879992 0.496939987 0
vt 0.551680028 0.482179999 0
vt 0.579750001 0.922349989 0
vt 0.488810003 0.948759973 0
vt 0.559440017 0.825139999 0
vt 0.369819999 0.390069991 0
vt 0.307020009 0.401169986 0
vt 0.38527 0.368889987 0
vt 0.390500009 0.672259986 0
vt 0.463719994 0.649789989 0
vt 0.466839999 0.715900004 0
vt 0.700299978 0.119949996 0
vt 0.732119977 0.238169998 0
vt 0.582719982 0.241139993 0
vt 0.390500009 0.672259986 0
vt 0.443239987 0.715680003 0
vt 0.402559996 0.736410022 0
vt 0.38527 0.368889987 0
vt 0.286709994 0.37134999 0
vt 0.41576001 0.325029999 0
vt 0.628530025 0.832870007 0
vt 0.579750001 0.922349989 0
vt 0.559440017 0.825139999 0
vt 0.38527 0.368889987 0
vt 0.307020009 0.401169986 0
vt 0.286709994 0.37134999 0
vt 0.329679996 0.60165 0
vt 0.390500009 0.672259986 0
vt 0.225620002 0.640479982 0
vt 0.882910013 0.757849991 0
vt 0.911350012 0.727419972 0
vt 0.945800006 0.811580002 0
vt 0.0242400002 0.247879997 0
vt 0.174810007 0.328110009 0
vt 0.0678400025 0.282689989 0
vt 0.465030015 0.34604001 0
vt 0.443879992 0.496939987 0
vt 0.445789993 0.381680012 0
vt 0.0689999983 0.0709600002 0
vt 0.0929099992 0.0254699998 0
vt 0.243029997 0.0302700009 0
vt 0.501349986 0.121760003 0
vt 0.426730007 0.0729399994 0
vt 0.485949993 0.0276999995 0
vt 0.808679998 0.00228999997 0
vt 0.846580029 0.0128499996 0
vt 0.835280001 0.0587599985 0
vt 0.488810003 0.948759973 0
vt 0.455610007 0.899489999 0
vt 0.559440017 0.825139999 0
vt 0.724030018 0.83969003 0
vt 0.798160017 0.896130025 0
vt 0.694090009 0.918690026 0
vt 0.798160017 0.896130025 0
vt 0.810779989 0.968900025 0
vt 0.772689998 0.967270017 0
vt 0.766990006 0.0239300001 0
vt 0.808679998 0.00228999997 0
vt 0.785709977 0.111579999 0
vt 0.882910013 0.757849991 0
vt 0.89714998 0.854349971 0
vt 0.797410011 0.781799972 0
vt 0.605080009 0.480489999 0
vt 0.543540001 0.538680017 0
vt 0.551680028 0.482179999 0
vt 0.605080009 0.480489999 0
vt 0.617240012 0.547360003 0
vt 0.543540001 0.538680017 0
vt 0.307020009 0.401169986 0
vt 0.26188001 0.406430006 0
vt 0.286709994 0.37134999 0
vt 0.784250021 0.282409996 0
vt 0.732119977 0.238169998 0
vt 0.811070025 0.226860002 0
vt 0.690569997 0.30952999 0
vt 0.815980017 0.39616999 0
vt 0.772790015 0.381529987 0
vt 0.441240013 0.596589983 0
vt 0.463719994 0.649789989 0
vt 0.390500009 0.672259986 0
vt 0.766990006 0.0239300001 0
vt 0.785709977 0.111579999 0
vt 0.700299978 0.119949996 0
vt 0.599640012 0.71341002 0
vt 0.680620015 0.622309983 0
vt 0.691470027 0.716440022 0
vt 0.751370013 0.711989999 0
vt 0.724030018 0.83969003 0
vt 0.628530025 0.832870007 0
vt 0.647409976 0.353379995 0
vt 0.547150016 0.294050008 0
vt 0.586359978 0.282460004 0
vt 0.41576001 0.325029999 0
vt 0.174810007 0.328110009 0
vt 0.426730007 0.0729399994 0
vt 0.174810007 0.328110009 0
vt 0.0689999983 0.0709600002 0
vt 0.426730007 0.0729399994 0
vt 0.426730007 0.0729399994 0
vt 0.0689999983 0.0709600002 0
vt 0.300309986 0.03486 0
vt 0.174810007 0.328110009 0
vt 0.0242400002 0.247879997 0
vt -0.00212999992 0.125379995 0
vt 0.52098 0.232720003 0
vt 0.41576001 0.325029999 0
vt 0.426730007 0.0729399994 0
vt 0.0689999983 0.0709600002 0
vt 0.174810007 0.328110009 0
vt -0.00212999992 0.125379995 0
vt 0.483269989 0.329400003 0
vt 0.38527 0.368889987 0
vt 0.41576001 0.325029999 0
vt 0.300309986 0.03486 0
vt 0.0689999983 0.0709600002 0
vt 0.243029997 0.0302700009 0
vt 0.501349986 0.121760003 0
vt 0.52098 0.232720003 0
vt 0.426730007 0.0729399994 0
vt 0.41576001 0.325029999 0
vt 0.286709994 0.37134999 0
vt 0.174810007 0.328110009 0
vt 0.506380022 0.298310012 0
vt 0.41576001 0.325029999 0
vt 0.52098 0.232720003 0
vn -0.202176094 0.698168635 0.686793566
vn -0.366372168 0.875969827 0.313764751
vn -0.479160577 0.135129765 0.867263019
vn 0.360510081 -0.879360259 -0.311059326
vn 0.352957487 -0.178754464 -0.918405116
vn 0.848986208 -0.324663848 -0.416912347
vn 0.913774252 -0.129781812 -0.384933054
vn 0.848986208 -0.324663848 -0.416912347
vn 0.966125906 0.234755889 -0.107192904
vn -0.367610455 0.425924689 -0.826710761
vn 0.160364777 0.440235585 -0.883445442
vn -0.193209171 -0.126033053 -0.973029196
vn -0.479160577 0.135129765 0.867263019
vn -0.522298694 -0.35734275 0.774280429
vn 0.0079517141 -0.133893877 0.990963817
vn -0.479160577 0.135129765 0.867263019
vn -0.651378989 0.576295495 0.49354738
vn -0.874226749 0.165610254 0.456399947
vn -0.337226629 0.912717581 -0.230705038
vn -0.558663487 0.772085011 0.302951902
vn -0.366372168 0.875969827 0.313764751
vn 0.360510081 -0.879360259 -0.311059326
vn 0.848986208 -0.324663848 -0.416912347
vn 0.913774252 -0.129781812 -0.384933054
vn -0.651378989 0.576295495 0.49354738
vn -0.479160577 0.135129765 0.867263019
vn -0.366372168 0.875969827 0.313764751
vn 0.848986208 -0.324663848 -0.416912347
vn 0.712205052 -0.277564198 -0.644765198
vn 0.966125906 0.234755889 -0.107192904
vn 0.0079517141 -0.133893877 0.990963817
vn -0.522298694 -0.35734275 0.774280429
vn -0.180720076 -0.763805032 0.619630516
vn -0.479160577 0.135129765 0.867263019
vn -0.874226749 0.165610254 0.456399947
vn -0.522298694 -0.35734275 0.774280429
vn 0.284968168 0.59531033 -0.751264811
vn -0.0175547004 0.62152195 -0.783200085
vn 0.123044007 0.694279432 -0.709109485
vn 0.984137714 0.096596159 0.148802474
vn 0.685984552 -0.560032129 0.464531153
vn 0.866715491 -0.467935205 -0.172745466
vn -0.850177348 0.525798976 0.0270930715
vn -0.558663487 0.772085011 0.302951902
vn -0.619014084 0.669915676 -0.409920275
vn 0.789692938 -0.161962166 0.591737509
vn 0.224121138 -0.772942305 0.593573868
vn 0.685984552 -0.560032129 0.464531153
vn 0.342470288 0.859288156 -0.379918367
vn 0.123044007 0.694279432 -0.709109485
vn 0.0405493937 0.903344512 -0.426994681
vn 0.352957487 -0.178754464 -0.918405116
vn 0.42267099 0.250299752 -0.87103349
vn 0.712205052 -0.277564198 -0.644765198
vn -0.202176094 0.698168635 0.686793566
vn 0.291801155 0.869488955 0.398548901
vn -0.033605922 0.959921718 0.278246433
vn -0.033605922 0.959921718 0.278246433
vn -0.366372168 0.875969827 0.313764751
vn -0.202176094 0.698168635 0.686793566
vn -0.79733187 -0.589035809 0.131524444
vn -0.959950089 0.179934338 -0.214754507
vn -0.681065261 -0.712686837 -0.168010727
vn 0.291801155 0.869488955 0.398548901
vn 0.596319973 0.800912738 -0.0542326719
vn 0.181600824 0.983289897 0.0127325775
vn -0.619014084 0.669915676 -0.409920275
vn -0.367610455 0.425924689 -0.826710761
vn -0.714262545 0.339724362 -0.61189568
vn 0.966125906 0.234755889 -0.107192904
vn 0.984137714 0.096596159 0.148802474
vn 0.913774252 -0.129781812 -0.384933054
vn 0.913774252 -0.129781812 -0.384933054
vn 0.984137714 0.096596159 0.148802474
vn 0.866715491 -0.467935205 -0.172745466
vn -0.611066937 -0.356919438 -0.706544995
vn -0.193209171 -0.126033053 -0.973029196
vn -0.22857894 -0.548628867 -0.804212689
vn 0.142961785 0.517371833 0.843734741
vn 0.291801155 0.869488955 0.398548901
vn -0.202176094 0.698168635 0.686793566
vn 0.0405493937 0.903344512 -0.426994681
vn 0.123044007 0.694279432 -0.709109485
vn -0.0616227873 0.777055025 -0.626408875
vn 0.407583356 0.637842059 0.653477848
vn -0.196605861 -0.00215319009 0.980480254
vn 0.0079517141 -0.133893877 0.990963817
vn 0.0405493937 0.903344512 -0.426994681
vn -0.337226629 0.912717581 -0.230705038
vn -0.0797540322 0.974120736 -0.211490273
vn -0.522298694 -0.35734275 0.774280429
vn -0.869961917 -0.260240495 0.418857187
vn -0.336455733 -0.869811118 0.360868543
vn 0.118645526 -0.872535408 -0.473925352
vn 0.352957487 -0.178754464 -0.918405116
vn 0.360510081 -0.879360259 -0.311059326
vn 0.770022452 0.279778242 0.57340169
vn 0.142961785 0.517371833 0.843734741
vn 0.407583356 0.637842059 0.653477848
vn 0.509267092 0.525658846 -0.681417406
vn 0.123044007 0.694279432 -0.709109485
vn 0.342470288 0.859288156 -0.379918367
vn 0.106501929 -0.481290281 0.870067179
vn 0.224121138 -0.772942305 0.593573868
vn 0.789692938 -0.161962166 0.591737509
vn 0.596319973 0.800912738 -0.0542326719
vn 0.342470288 0.859288156 -0.379918367
vn 0.181600824 0.983289897 0.0127325775
vn -0.0797540322 0.974120736 -0.211490273
vn -0.337226629 0.912717581 -0.230705038
vn 0.07365188 0.994818926 -0.0700772777
vn -0.850177348 0.525798976 0.0270930715
vn -0.651378989 0.576295495 0.49354738
vn -0.558663487 0.772085011 0.302951902
vn 0.42267099 0.250299752 -0.87103349
vn 0.352957487 -0.178754464 -0.918405116
vn 0.0605155751 -0.275479138 -0.959400415
vn -0.366372168 0.875969827 0.313764751
vn -0.033605922 0.959921718 0.278246433
vn -0.0941436738 0.988695741 0.116695426
vn 0.160364777 0.440235585 -0.883445442
vn 0.42267099 0.250299752 -0.87103349
vn 0.0605155751 -0.275479138 -0.959400415
vn -0.128633663 -0.557607591 0.820077479
vn 0.106501929 -0.481290281 0.870067179
vn 0.0079517141 -0.133893877 0.990963817
vn 0.160364777 0.440235585 -0.883445442
vn -0.367610455 0.425924689 -0.826710761
vn -0.19356811 0.695173562 -0.692289829
vn -0.522298694 -0.35734275 0.774280429
vn -0.874226749 0.165610254 0.456399947
vn -0.869961917 -0.260240495 0.418857187
vn 0.160364777 0.440235585 -0.883445442
vn -0.19356811 0.695173562 -0.692289829
vn -0.0175547004 0.62152195 -0.783200085
vn 0.712205052 -0.277564198 -0.644765198
vn 0.42267099 0.250299752 -0.87103349
vn 0.509267092 0.525658846 -0.681417406
vn 0.284968168 0.59531033 -0.751264811
vn 0.42267099 0.250299752 -0.87103349
vn 0.160364777 0.440235585 -0.883445442
vn 0.770022452 0.279778242 0.57340169
vn 0.407583356 0.637842059 0.653477848
vn 0.615145504 -0.232567549 0.753331482
vn 0.719288111 0.565562963 -0.403439105
vn 0.509267092 0.525658846 -0.681417406
vn 0.342470288 0.859288156 -0.379918367
vn -0.850177348 0.525798976 0.0270930715
vn -0.874226749 0.165610254 0.456399947
vn -0.651378989 0.576295495 0.49354738
vn 0.789692938 -0.161962166 0.591737509
vn 0.685984552 -0.560032129 0.464531153
vn 0.984137714 0.096596159 0.148802474
vn -0.869961917 -0.260240495 0.418857187
vn -0.874226749 0.165610254 0.456399947
vn -0.79733187 -0.589035809 0.131524444
vn -0.874226749 0.165610254 0.456399947
vn -0.959950089 0.179934338 -0.214754507
vn -0.79733187 -0.589035809 0.131524444
vn 0.770022452 0.279778242 0.57340169
vn 0.614264786 0.71878463 0.325618774
vn 0.291801155 0.869488955 0.398548901
vn -0.180720076 -0.763805032 0.619630516
vn -0.522298694 -0.35734275 0.774280429
vn -0.336455733 -0.869811118 0.360868543
vn -0.337226629 0.912717581 -0.230705038
vn -0.366372168 0.875969827 0.313764751
vn -0.0941436738 0.988695741 0.116695426
vn 0.614264786 0.71878463 0.325618774
vn 0.596319973 0.800912738 -0.0542326719
vn 0.291801155 0.869488955 0.398548901
vn -0.611066937 -0.356919438 -0.706544995
vn -0.159765676 -0.909032285 -0.384883225
vn -0.770013988 -0.313240051 -0.555840969
vn 0.407583356 0.637842059 0.653477848
vn 0.142961785 0.517371833 0.843734741
vn -0.196605861 -0.00215319009 0.980480254
vn -0.611066937 -0.356919438 -0.706544995
vn -0.714262545 0.339724362 -0.61189568
vn -0.367610455 0.425924689 -0.826710761
vn 0.770022452 0.279778242 0.57340169
vn 0.615145504 -0.232567549 0.753331482
vn 0.789692938 -0.161962166 0.591737509
vn -0.0797540322 0.974120736 -0.211490273
vn 0.07365188 0.994818926 -0.0700772777
vn 0.0405493937 0.903344512 -0.426994681
vn 0.596319973 0.800912738 -0.0542326719
vn 0.830587149 0.446071208 0.333384812
vn 0.966125906 0.234755889 -0.107192904
vn -0.106201045 0.994322479 0.00663653063
vn -0.337226629 0.912717581 -0.230705038
vn -0.0941436738 0.988695741 0.116695426
vn -0.19356811 0.695173562 -0.692289829
vn -0.367610455 0.425924689 -0.826710761
vn -0.619014084 0.669915676 -0.409920275
vn 0.07365188 0.994818926 -0.0700772777
vn -0.0941436738 0.988695741 0.116695426
vn -0.033605922 0.959921718 0.278246433
vn -0.367610455 0.425924689 -0.826710761
vn -0.193209171 -0.126033053 -0.973029196
vn -0.611066937 -0.356919438 -0.706544995
vn 0.770022452 0.279778242 0.57340169
vn 0.830587149 0.446071208 0.333384812
vn 0.614264786 0.71878463 0.325618774
vn 0.966125906 0.234755889 -0.107192904
vn 0.719288111 0.565562963 -0.403439105
vn 0.596319973 0.800912738 -0.0542326719
vn 0.712205052 -0.277564198 -0.644765198
vn 0.509267092 0.525658846 -0.681417406
vn 0.719288111 0.565562963 -0.403439105
vn -0.0616227873 0.777055025 -0.626408875
vn -0.337226629 0.912717581 -0.230705038
vn 0.0405493937 0.903344512 -0.426994681
vn 0.07365188 0.994818926 -0.0700772777
vn 0.342470288 0.859288156 -0.379918367
vn 0.0405493937 0.903344512 -0.426994681
vn 0.0079517141 -0.133893877 0.990963817
vn 0.106501929 -0.481290281 0.870067179
vn 0.615145504 -0.232567549 0.753331482
vn 0.407583356 0.637842059 0.653477848
vn 0.0079517141 -0.133893877 0.990963817
vn 0.615145504 -0.232567549 0.753331482
vn 0.848986208 -0.324663848 -0.416912347
vn 0.352957487 -0.178754464 -0.918405116
vn 0.712205052 -0.277564198 -0.644765198
vn -0.196605861 -0.00215319009 0.980480254
vn -0.202176094 0.698168635 0.686793566
vn -0.479160577 0.135129765 0.867263019
vn 0.42267099 0.250299752 -0.87103349
vn 0.284968168 0.59531033 -0.751264811
vn 0.509267092 0.525658846 -0.681417406
vn -0.619014084 0.669915676 -0.409920275
vn -0.558663487 0.772085011 0.302951902
vn -0.337226629 0.912717581 -0.230705038
vn -0.770013988 -0.313240051 -0.555840969
vn -0.959950089 0.179934338 -0.214754507
vn -0.611066937 -0.356919438 -0.706544995
vn 0.614264786 0.71878463 0.325618774
vn 0.830587149 0.446071208 0.333384812
vn 0.596319973 0.800912738 -0.0542326719
vn -0.558663487 0.772085011 0.302951902
vn -0.651378989 0.576295495 0.49354738
vn -0.366372168 0.875969827 0.313764751
vn -0.619014084 0.669915676 -0.409920275
vn -0.959950089 0.179934338 -0.214754507
vn -0.850177348 0.525798976 0.0270930715
vn 0.0079517141 -0.133893877 0.990963817
vn -0.196605861 -0.00215319009 0.980480254
vn -0.479160577 0.135129765 0.867263019
vn -0.19356811 0.695173562 -0.692289829
vn -0.619014084 0.669915676 -0.409920275
vn -0.337226629 0.912717581 -0.230705038
vn -0.19356811 0.695173562 -0.692289829
vn -0.337226629 0.912717581 -0.230705038
vn -0.0616227873 0.777055025 -0.626408875
vn 0.830587149 0.446071208 0.333384812
vn 0.770022452 0.279778242 0.57340169
vn 0.984137714 0.096596159 0.148802474
vn -0.193209171 -0.126033053 -0.973029196
vn 0.0605155751 -0.275479138 -0.959400415
vn -0.22857894 -0.548628867 -0.804212689
vn -0.959950089 0.179934338 -0.214754507
vn -0.714262545 0.339724362 -0.61189568
vn -0.611066937 -0.356919438 -0.706544995
vn 0.291801155 0.869488955 0.398548901
vn 0.142961785 0.517371833 0.843734741
vn 0.770022452 0.279778242 0.57340169
vn -0.959950089 0.179934338 -0.214754507
vn -0.770013988 -0.313240051 -0.555840969
vn -0.681065261 -0.712686837 -0.168010727
vn -0.22857894 -0.548628867 -0.804212689
vn 0.118645526 -0.872535408 -0.473925352
vn -0.159765676 -0.909032285 -0.384883225
vn 0.966125906 0.234755889 -0.107192904
vn 0.830587149 0.446071208 0.333384812
vn 0.984137714 0.096596159 0.148802474
vn -0.22857894 -0.548628867 -0.804212689
vn 0.0605155751 -0.275479138 -0.959400415
vn 0.118645526 -0.872535408 -0.473925352
vn -0.850177348 0.525798976 0.0270930715
vn -0.959950089 0.179934338 -0.214754507
vn -0.874226749 0.165610254 0.456399947
vn 0.284968168 0.59531033 -0.751264811
vn 0.160364777 0.440235585 -0.883445442
vn -0.0175547004 0.62152195 -0.783200085
vn 0.866715491 -0.467935205 -0.172745466
vn 0.360510081 -0.879360259 -0.311059326
vn 0.913774252 -0.129781812 -0.384933054
vn 0.07365188 0.994818926 -0.0700772777
vn -0.337226629 0.912717581 -0.230705038
vn -0.106201045 0.994322479 0.00663653063
vn 0.224121138 -0.772942305 0.593573868
vn 0.106501929 -0.481290281 0.870067179
vn -0.128633663 -0.557607591 0.820077479
vn -0.79733187 -0.589035809 0.131524444
vn -0.336455733 -0.869811118 0.360868543
vn -0.869961917 -0.260240495 0.418857187
vn 0.07365188 0.994818926 -0.0700772777
vn -0.106201045 0.994322479 0.00663653063
vn -0.0941436738 0.988695741 0.116695426
vn 0.770022452 0.279778242 0.57340169
vn 0.789692938 -0.161962166 0.591737509
vn 0.984137714 0.096596159 0.148802474
vn 0.719288111 0.565562963 -0.403439105
vn 0.342470288 0.859288156 -0.379918367
vn 0.596319973 0.800912738 -0.0542326719
vn 0.342470288 0.859288156 -0.379918367
vn 0.07365188 0.994818926 -0.0700772777
vn 0.181600824 0.983289897 0.0127325775
vn 0.181600824 0.983289897 0.0127325775
vn 0.07365188 0.994818926 -0.0700772777
vn -0.033605922 0.959921718 0.278246433
vn 0.284968168 0.59531033 -0.751264811
vn 0.123044007 0.694279432 -0.709109485
vn 0.509267092 0.525658846 -0.681417406
vn 0.123044007 0.694279432 -0.709109485
vn -0.19356811 0.695173562 -0.692289829
vn -0.0616227873 0.777055025 -0.626408875
vn 0.123044007 0.694279432 -0.709109485
vn -0.0175547004 0.62152195 -0.783200085
vn -0.19356811 0.695173562 -0.692289829
vn 0.0605155751 -0.275479138 -0.959400415
vn 0.352957487 -0.178754464 -0.918405116
vn 0.118645526 -0.872535408 -0.473925352
vn -0.196605861 -0.00215319009 0.980480254
vn 0.142961785 0.517371833 0.843734741
vn -0.202176094 0.698168635 0.686793566
vn 0.0079517141 -0.133893877 0.990963817
vn -0.180720076 -0.763805032 0.619630516
vn -0.128633663 -0.557607591 0.820077479
vn -0.619014084 0.669915676 -0.409920275
vn -0.714262545 0.339724362 -0.61189568
vn -0.959950089 0.179934338 -0.214754507
vn 0.181600824 0.983289897 0.0127325775
vn -0.033605922 0.959921718 0.278246433
vn 0.291801155 0.869488955 0.398548901
vn -0.193209171 -0.126033053 -0.973029196
vn 0.160364777 0.440235585 -0.883445442
vn 0.0605155751 -0.275479138 -0.959400415
vn 0.712205052 -0.277564198 -0.644765198
vn 0.719288111 0.565562963 -0.403439105
vn 0.966125906 0.234755889 -0.107192904
vn 0.106501929 -0.481290281 0.870067179
vn 0.789692938 -0.161962166 0.591737509
vn 0.615145504 -0.232567549 0.753331482
vn -0.159765676 -0.909032285 -0.384883225
vn 0.360510081 -0.879360259 -0.311059326
vn -0.336455733 -0.869811118 0.360868543
vn 0.360510081 -0.879360259 -0.311059326
vn 0.224121138 -0.772942305 0.593573868
vn -0.336455733 -0.869811118 0.360868543
vn -0.336455733 -0.869811118 0.360868543
vn 0.224121138 -0.772942305 0.593573868
vn -0.180720076 -0.763805032 0.619630516
vn 0.360510081 -0.879360259 -0.311059326
vn 0.866715491 -0.467935205 -0.172745466
vn 0.685984552 -0.560032129 0.464531153
vn -0.681065261 -0.712686837 -0.168010727
vn -0.159765676 -0.909032285 -0.384883225
vn -0.336455733 -0.869811118 0.360868543
vn 0.224121138 -0.772942305 0.593573868
vn 0.360510081 -0.879360259 -0.311059326
vn 0.685984552 -0.560032129 0.464531153
vn -0.611066937 -0.356919438 -0.706544995
vn -0.22857894 -0.548628867 -0.804212689
vn -0.159765676 -0.909032285 -0.384883225
vn -0.180720076 -0.763805032 0.619630516
vn 0.224121138 -0.772942305 0.593573868
vn -0.128633663 -0.557607591 0.820077479
vn -0.79733187 -0.589035809 0.131524444
vn -0.681065261 -0.712686837 -0.168010727
vn -0.336455733 -0.869811118 0.360868543
vn -0.159765676 -0.909032285 -0.384883225
vn 0.118645526 -0.872535408 -0.473925352
vn 0.360510081 -0.879360259 -0.311059326
vn -0.770013988 -0.313240051 -0.555840969
vn -0.159765676 -0.909032285 -0.384883225
vn -0.681065261 -0.712686837 -0.168010727
g Group30201
f 6/1/1 34/2/2 12/3/3
f 20/4/4 4/5/5 22/6/6
f 28/7/7 22/8/8 31/9/9
f 3/10/10 33/11/11 47/12/12
f 12/13/13 25/14/14 32/15/15
f 12/16/16 61/17/17 39/18/18
f 58/19/19 21/20/20 34/21/21
f 20/22/22 22/23/23 28/24/24
f 61/25/25 12/26/26 34/27/27
f 22/28/28 35/29/29 31/30/30
f 32/31/31 25/32/32 5/33/33
f 12/34/34 39/35/35 25/36/36
f 41/37/37 64/38/38 49/39/39
f 26/40/40 46/41/41 10/42/42
f 29/43/43 21/44/44 48/45/45
f 15/46/46 17/47/47 46/48/48
f 19/49/49 49/50/50 9/51/51
f 4/52/52 51/53/53 35/54/54
f 6/55/55 50/56/56 43/57/57
f 43/58/58 34/59/59 6/60/60
f 30/61/61 14/62/62 42/63/63
f 50/64/64 16/65/65 38/66/66
f 48/67/67 3/68/68 27/69/69
f 31/70/70 26/71/71 28/72/72
f 28/73/73 26/74/74 10/75/75
f 7/76/76 47/77/77 53/78/78
f 23/79/79 50/80/80 6/81/81
f 9/82/82 49/83/83 8/84/84
f 56/85/85 52/86/86 32/87/87
f 9/88/88 58/89/89 60/90/90
f 25/91/91 45/92/92 1/93/93
f 59/94/94 4/95/95 20/96/96
f 62/97/97 23/98/98 56/99/99
f 11/100/100 49/101/101 19/102/102
f 18/103/103 17/104/104 15/105/105
f 16/106/106 19/107/107 38/108/108
f 60/109/109 58/110/110 63/111/111
f 29/112/112 61/113/113 21/114/114
f 51/115/115 4/116/116 13/117/117
f 34/118/118 43/119/119 2/120/120
f 33/121/121 51/122/122 13/123/123
f 57/124/124 18/125/125 32/126/126
f 33/127/127 3/128/128 44/129/129
f 25/130/130 39/131/131 45/132/132
f 33/133/133 44/134/134 64/135/135
f 35/136/136 51/137/137 11/138/138
f 41/139/139 51/140/140 33/141/141
f 62/142/142 56/143/143 36/144/144
f 37/145/145 11/146/146 19/147/147
f 29/148/148 39/149/149 61/150/150
f 15/151/151 46/152/152 26/153/153
f 45/154/154 39/155/155 30/156/156
f 39/157/157 14/158/158 30/159/159
f 62/160/160 54/161/161 50/162/162
f 5/163/163 25/164/164 1/165/165
f 58/166/166 34/167/167 2/168/168
f 54/169/169 16/170/170 50/171/171
f 7/172/172 24/173/173 55/174/174
f 56/175/175 23/176/176 52/177/177
f 7/178/178 27/179/179 3/180/180
f 62/181/181 36/182/182 15/183/183
f 60/184/184 63/185/185 9/186/186
f 16/187/187 40/188/188 31/189/189
f 65/190/190 58/191/191 2/192/192
f 44/193/193 3/194/194 48/195/195
f 63/196/196 2/197/197 43/198/198
f 3/199/199 47/200/200 7/201/201
f 62/202/202 40/203/203 54/204/204
f 31/205/205 37/206/206 16/207/207
f 35/208/208 11/209/209 37/210/210
f 8/211/211 58/212/212 9/213/213
f 63/214/214 19/215/215 9/216/216
f 32/217/217 18/218/218 36/219/219
f 56/220/220 32/221/221 36/222/222
f 22/223/223 4/224/224 35/225/225
f 52/226/226 6/227/227 12/228/228
f 51/229/229 41/230/230 11/231/231
f 48/232/232 21/233/233 58/234/234
f 55/235/235 14/236/236 7/237/237
f 54/238/238 40/239/239 16/240/240
f 21/241/241 61/242/242 34/243/243
f 48/244/244 14/245/245 29/246/246
f 32/247/247 52/248/248 12/249/249
f 44/250/250 48/251/251 58/252/252
f 44/253/253 58/254/254 8/255/255
f 40/256/256 62/257/257 26/258/258
f 47/259/259 13/260/260 53/261/261
f 14/262/262 27/263/263 7/264/264
f 50/265/265 23/266/266 62/267/267
f 14/268/268 55/269/269 42/270/270
f 53/271/271 59/272/272 24/273/273
f 31/274/274 40/275/275 26/276/276
f 53/277/277 13/278/278 59/279/279
f 29/280/280 14/281/281 39/282/282
f 41/283/283 33/284/284 64/285/285
f 10/286/286 20/287/287 28/288/288
f 63/289/289 58/290/290 65/291/291
f 17/292/292 18/293/293 57/294/294
f 30/295/295 1/296/296 45/297/297
f 63/298/298 65/299/299 2/300/300
f 62/301/301 15/302/302 26/303/303
f 37/304/304 19/305/305 16/306/306
f 19/307/307 63/308/308 38/309/309
f 38/310/310 63/311/311 43/312/312
f 41/313/313 49/314/314 11/315/315
f 49/316/316 44/317/317 8/318/318
f 49/319/319 64/320/320 44/321/321
f 13/322/322 4/323/323 59/324/324
f 52/325/325 23/326/326 6/327/327
f 32/328/328 5/329/329 57/330/330
f 48/331/331 27/332/332 14/333/333
f 38/334/334 43/335/335 50/336/336
f 47/337/337 33/338/338 13/339/339
f 35/340/340 37/341/341 31/342/342
f 18/343/343 15/344/344 36/345/345
f 24/346/346 20/347/347 1/348/348
f 20/349/349 17/350/350 1/351/351
f 1/352/352 17/353/353 5/354/354
f 20/355/355 10/356/356 46/357/357
f 42/358/358 24/359/359 1/360/360
f 17/361/361 20/362/362 46/363/363
f 7/364/364 53/365/365 24/366/366
f 5/367/367 17/368/368 57/369/369
f 30/370/370 42/371/371 1/372/372
f 24/373/373 59/374/374 20/375/375
f 55/376/376 24/377/377 42/378/378
