# File exported by Houdini 16.5.405 (www.sidefx.com)
# 170 points
# 1008 vertices
# 336 primitives
# Bounds: [-182.730164, -1.92580128, -171.875244] to [184.380219, 188.400787, 171.602112]
g 
v -148.110703 0.198012367 72.9712982
v -6.69554996 185.060349 18.8261299
v -101.870903 73.2052841 -142.770905
v 47.0592117 28.4787464 -169.097351
v -61.1844749 -1.20026612 115.390182
v -36.9441719 137.472351 141.279022
v -148.37616 38.7071571 -121.165833
v -41.5789909 168.55069 -79.2880173
v 20.7632313 178.56488 -59.5897369
v 184.380219 10.5224781 18.8360748
v 88.2592621 125.277634 -99.8519211
v -125.708511 84.2300568 128.432236
v 29.1280079 40.9867554 -170.430161
v -168.185181 66.622345 -79.0811234
v 147.147522 43.6022263 118.851936
v 97.7627029 171.836746 18.1523151
v 18.4171486 -1.65066803 116.081001
v 64.5667572 15.1865559 154.9198
v 58.1833801 178.709061 -33.1729965
v 127.248032 -1.92580128 -51.2687073
v -134.836975 129.587875 72.96064
v 152.507736 25.2096233 -58.8335037
v 33.3137779 115.32856 161.749481
v -124.878868 -1.44566846 -113.356506
v 139.953903 141.486481 45.7343826
v -146.251099 54.0516815 115.422768
v 171.983032 73.6140594 41.0903816
v -150.286926 88.2743607 -94.9606781
v 170.242218 26.0673618 3.07778239
v -154.085678 127.7229 -14.3015757
v 72.2111664 156.32457 -71.2796478
v 156.071976 -1.5435977 28.0211334
v -175.520126 0.714928627 20.3904018
v 167.036041 108.081711 10.1773491
v 101.073639 -0.267052621 -86.5410156
v 93.5499344 123.815987 117.550293
v -9.72026825 26.612751 -169.39061
v 56.1026955 55.2935257 169.902786
v -124.848473 155.612228 12.1044645
v 27.0776749 66.9621124 -166.422653
v 160.414993 3.67458415 6.76904202
v -105.012177 159.971375 64.7884064
v 115.834976 59.5413628 -124.425598
v 127.749313 51.0448685 155.225952
v 127.254066 121.209137 -55.0501785
v 36.734005 -0.740788639 136.937469
v 181.517456 5.04067707 12.2149096
v 59.7517433 178.94664 43.7787323
v -106.0159 114.37767 -117.046883
v -177.521332 79.007988 53.4560509
v 162.702255 13.4947138 -2.26559305
v 163.75856 96.6594086 71.1496048
v 22.9098854 93.1135635 -144.293015
v -178.116318 -1.31250846 -25.5530205
v 37.6916542 176.017776 75.5683289
v 166.854263 44.8241119 60.8373451
v -36.7339783 136.426254 -108.629601
v -103.996956 29.5231094 -145.849472
v -174.607666 42.4769821 80.1771088
v 164.753235 -1.9003458 110.756104
v 154.497375 98.011322 94.2203064
v -47.0255089 28.540493 -164.245575
v -130.912613 141.729355 -47.0817566
v 94.2044907 15.5166893 153.636292
v 174.053299 56.6355324 -9.79866791
v -123.567894 10.9287758 93.9714279
v -45.4695969 122.007599 151.169388
v 32.8516235 145.142502 -104.155777
v -171.189713 107.808006 26.9017754
v -72.841713 97.0531693 -142.752548
v -117.742859 152.024536 60.774971
v 90.2148514 32.2795753 -138.546661
v 37.6665344 28.4417667 158.045685
v -14.3872566 152.217743 126.125816
v 151.963226 1.35798502 120.237839
v -182.134872 23.4430828 28.0441532
v 83.1892319 169.218948 81.0650101
v -80.0045929 25.3892555 126.592636
v -116.551765 134.398743 -88.3785172
v 70.0774918 9.57969666 -133.206223
v 172.420502 41.9844017 22.2157898
v 56.6385994 101.964058 -134.579315
v 120.43618 141.950958 -31.9784145
v 59.3044243 53.1291809 -163.364182
v 4.06250477 84.3360443 171.602112
v 90.7274628 -1.6086359 137.718582
v -60.5019569 13.1476536 -154.345032
v 5.44829845 143.48732 -109.321342
v 128.26535 142.179932 69.5650482
v -16.9526196 159.252518 -95.6549225
v 135.058136 44.5430298 144.77774
v -157.175339 7.30972767 -92.2235718
v -60.1029167 140.618317 -107.630432
v -47.2011337 55.5566826 -163.355942
v -142.911942 38.7617645 109.309357
v -43.5784187 -1.45869148 -124.376259
v -34.3708229 82.4205399 -157.141464
v 137.951675 31.0018444 135.357803
v 76.5661469 54.5784683 -141.989212
v -182.730164 59.9786301 -22.7379684
v -100.426788 83.4218292 142.765732
v 173.137146 29.9993935 76.5326767
v -162.179138 7.13278627 66.7767334
v 111.761993 92.5308456 152.178955
v 62.2592735 169.527588 93.7372742
v 109.345764 161.335999 65.3175354
v -30.5177479 30.2092476 141.240494
v 122.399948 157.863449 4.88005304
v -30.4729576 3.99306726 127.507835
v 127.491013 63.9614944 -98.4258118
v -173.523712 60.7803764 84.1234894
v 178.046173 -1.87762392 62.7316017
v -84.8281174 162.336197 -65.9752197
v 61.9406242 26.5821075 -158.206085
v -65.1232071 180.905487 -44.8668175
v -154.484329 30.195322 94.7830734
v 40.0612946 -0.731406868 -141.67482
v -133.748169 77.3745804 -121.494209
v 151.366196 30.2138081 -67.7876282
v -9.46510029 94.4369431 -152.334564
v -19.9166374 174.492355 66.0145264
v -114.516205 26.5074368 112.190094
v -155.333908 108.478951 -61.9086609
v 95.7452011 92.8169861 -124.159088
v -131.524933 18.334322 -129.021729
v 14.9219112 33.6980553 -171.875244
v 44.0224876 184.873917 4.68187428
v -38.505806 182.692902 -48.0833664
v -77.8840103 17.9091625 -152.117157
v -145.045486 108.270287 88.5919342
v -170.241776 -0.95255661 -71.0870285
v -14.4138737 5.00641966 -154.515717
v -55.2834091 175.380707 34.5242729
v 152.374207 85.3824692 115.585762
v 20.1184292 188.233688 -15.5063887
v 0.0378473885 10.5653362 141.092712
v -61.3353882 3.66432762 121.227524
v -182.658981 30.6221886 -26.4131794
v 114.02005 1.67709661 135.354965
v 93.8513947 85.9962616 160.503525
v 18.7404404 188.400787 -3.51063848
v -120.992256 -1.40372384 70.8283539
v 53.029808 83.9836349 168.169861
v -41.6067924 135.930344 -115.016876
v -174.880478 30.1908226 69.4714127
v 52.5428696 155.336548 117.11071
v -99.6350861 168.009323 -34.5036545
v 106.716171 144.43808 90.386879
v -21.6466503 119.853455 -129.296249
v 17.5749207 81.0866013 -162.647842
v -166.964676 26.7777538 -95.8540955
v 136.647964 100.137978 117.343155
v 140.571426 127.565697 78.6112747
v -7.67478228 122.243385 -127.243629
v 124.141197 39.2825546 -118.309982
v 158.879837 23.5460415 118.394783
v -159.215454 19.207407 -101.687073
v -161.30719 75.1021652 91.9824829
v 0.504997611 185.184616 -34.7359047
v -10.3872681 175.058395 -69.9028473
v -147.014557 16.0725822 -115.513916
v 141.888092 68.7543335 141.130417
v -170.735229 94.9058533 -28.4564819
v 9.22472572 17.1191254 -169.51178
v 152.109604 115.408333 77.4356079
v -45.9144325 89.6436462 162.270996
v -176.442108 17.1246529 43.5427628
v 34.1781387 9.63869953 147.297485
v 181.57782 3.14867449 41.8384171
v -5.40772343 186.469727 -11.8547745
vt 0.816439986 0.251960009 0
vt 0.93769002 0.177509993 0
vt 0.90775001 0.308459997 0
vt 0.704750001 0.90358001 0
vt 0.799589992 0.866360009 0
vt 0.789640009 0.919529974 0
vt 0.633090019 0.605040014 0
vt 0.527260005 0.550819993 0
vt 0.557330012 0.546509981 0
vt 0.635710001 0.793290019 0
vt 0.732039988 0.831430018 0
vt 0.649760008 0.854849994 0
vt 0.264270008 0.546010017 0
vt 0.288859993 0.510930002 0
vt 0.350520015 0.532790005 0
vt 0.13831 0.301450014 0
vt 0.250809997 0.403109998 0
vt 0.110880002 0.337929994 0
vt 0.608179986 0.745850027 0
vt 0.685230017 0.734640002 0
vt 0.635710001 0.793290019 0
vt 0.545300007 0.624189973 0
vt 0.60315001 0.634540021 0
vt 0.591840029 0.676670015 0
vt 0.871599972 0.304360002 0
vt 0.928269982 0.353890002 0
vt 0.693799973 0.306410015 0
vt 0.90775001 0.308459997 0
vt 0.966620028 0.27353999 0
vt 0.975610018 0.329809994 0
vt 0.576709986 0.746959984 0
vt 0.608179986 0.745850027 0
vt 0.604480028 0.765659988 0
vt 0.911729991 0.654789984 0
vt 0.890699983 0.670740008 0
vt 0.85898 0.65763998 0
vt 0.657220006 0.257059991 0
vt 0.638100028 0.241699994 0
vt 0.704209983 0.272859991 0
vt 0.44957 0.482840002 0
vt 0.350520015 0.532790005 0
vt 0.289499998 0.487029999 0
vt 0.13831 0.301450014 0
vt 0.110880002 0.337929994 0
vt 0.0683600008 0.281179994 0
vt 0.966620028 0.27353999 0
vt 0.90775001 0.308459997 0
vt 0.93769002 0.177509993 0
vt 0.685230017 0.734640002 0
vt 0.740830004 0.750469983 0
vt 0.635710001 0.793290019 0
vt 0.505259991 0.301010013 0
vt 0.486829996 0.315979987 0
vt 0.496580005 0.283340007 0
vt 0.70964998 0.343080014 0
vt 0.928269982 0.353890002 0
vt 0.789080024 0.355720013 0
vt 0.516870022 0.658909976 0
vt 0.47608 0.656859994 0
vt 0.493099988 0.609600008 0
vt 0.90775001 0.308459997 0
vt 0.991580009 0.35661 0
vt 0.928269982 0.353890002 0
vt 0.450069994 0.0236099996 0
vt 0.491299987 0.0250599999 0
vt 0.462500006 0.0738300011 0
vt 0.846180022 0.772459984 0
vt 0.932860017 0.818639994 0
vt 0.901180029 0.853280008 0
vt 0.991580009 0.35661 0
vt 0.991859972 0.386889994 0
vt 0.949140012 0.396580011 0
vt 0.516830027 0.824029982 0
vt 0.441900015 0.817229986 0
vt 0.507459998 0.771740019 0
vt 0.367089987 0.588190019 0
vt 0.350520015 0.532790005 0
vt 0.412349999 0.571579993 0
vt 0.558939993 0.308050007 0
vt 0.582289994 0.370550007 0
vt 0.510630012 0.352349997 0
vt 0.595669985 0.845539987 0
vt 0.590990007 0.797020018 0
vt 0.635710001 0.793290019 0
vt 0.649760008 0.854849994 0
vt 0.595669985 0.845539987 0
vt 0.635710001 0.793290019 0
vt 0.799589992 0.866360009 0
vt 0.862479985 0.846560001 0
vt 0.845960021 0.919390023 0
vt 0.790409982 0.686860025 0
vt 0.850520015 0.695630014 0
vt 0.817700028 0.711449981 0
vt 0.790409982 0.686860025 0
vt 0.817700028 0.711449981 0
vt 0.766749978 0.731549978 0
vt 0.833689988 0.663150012 0
vt 0.850520015 0.695630014 0
vt 0.790409982 0.686860025 0
vt 0.712549984 0.369269997 0
vt 0.673229992 0.357439995 0
vt 0.70964998 0.343080014 0
vt 0.797810018 0.20104 0
vt 0.721279979 0.136549994 0
vt 0.755770028 0.11913 0
vt 0.830770016 0.127969995 0
vt 0.93769002 0.177509993 0
vt 0.797810018 0.20104 0
vt 0.510630012 0.352349997 0
vt 0.507839978 0.309989989 0
vt 0.558939993 0.308050007 0
vt 0.516830027 0.824029982 0
vt 0.548730016 0.831950009 0
vt 0.47477001 0.893859982 0
vt 0.298559994 0.709029973 0
vt 0.364329994 0.702509999 0
vt 0.365090013 0.739520013 0
vt 0.680100024 0.998290002 0
vt 0.717819989 0.93463999 0
vt 0.730700016 0.985329986 0
vt 0.46013999 0.585340023 0
vt 0.493099988 0.609600008 0
vt 0.444860011 0.644729972 0
vt 0.635710001 0.793290019 0
vt 0.590990007 0.797020018 0
vt 0.604480028 0.765659988 0
vt 0.604480028 0.765659988 0
vt 0.590990007 0.797020018 0
vt 0.571659982 0.756070018 0
vt 0.40309 0.0470400006 0
vt 0.430799991 0.00118000002 0
vt 0.440319985 0.0735400021 0
vt 0.796419978 0.765659988 0
vt 0.796809971 0.813859999 0
vt 0.732039988 0.831430018 0
vt 0.515749991 0.708530009 0
vt 0.59333998 0.715770006 0
vt 0.545769989 0.726689994 0
vt 0.973640025 0.862770021 0
vt 0.955690026 0.817229986 0
vt 0.981970012 0.85473001 0
vt 0.928269982 0.353890002 0
vt 0.871599972 0.304360002 0
vt 0.90775001 0.308459997 0
vt 0.638100028 0.241699994 0
vt 0.58732003 0.250959992 0
vt 0.573549986 0.207790002 0
vt 0.527260005 0.550819993 0
vt 0.556949973 0.483660012 0
vt 0.558860004 0.535359979 0
vt 0.733500004 0.243320003 0
vt 0.726559997 0.171079993 0
vt 0.797810018 0.20104 0
vt 0.591840029 0.676670015 0
vt 0.60315001 0.634540021 0
vt 0.703920007 0.641709983 0
vt 0.507839978 0.309989989 0
vt 0.533200026 0.276239991 0
vt 0.558939993 0.308050007 0
vt 0.440690011 0.928409994 0
vt 0.436850011 0.900470018 0
vt 0.47477001 0.893859982 0
vt 0.845960021 0.919390023 0
vt 0.862479985 0.846560001 0
vt 0.917850018 0.895099998 0
vt 0.0674799979 0.26275 0
vt 0.0683600008 0.281179994 0
vt 0.0378100015 0.268249989 0
vt 0.704209983 0.272859991 0
vt 0.756900012 0.282629997 0
vt 0.693799973 0.306410015 0
vt 0.844500005 0.372310013 0
vt 0.821049988 0.39489001 0
vt 0.789080024 0.355720013 0
vt 0.704750001 0.90358001 0
vt 0.789640009 0.919529974 0
vt 0.717819989 0.93463999 0
vt 0.789080024 0.355720013 0
vt 0.821049988 0.39489001 0
vt 0.786830008 0.388909996 0
vt 0.901180029 0.853280008 0
vt 0.917850018 0.895099998 0
vt 0.862479985 0.846560001 0
vt 0.235579997 0.572600007 0
vt 0.275550008 0.635129988 0
vt 0.229660004 0.648880005 0
vt 0.270229995 0.409090012 0
vt 0.250809997 0.403109998 0
vt 0.270610005 0.365429997 0
vt 0.509739995 0.489719987 0
vt 0.459800005 0.527670026 0
vt 0.44957 0.482840002 0
vt 0.529020011 0.443010002 0
vt 0.44957 0.482840002 0
vt 0.473250002 0.453669995 0
vt 0.430799991 0.00118000002 0
vt 0.450069994 0.0236099996 0
vt 0.440319985 0.0735400021 0
vt 0.270610005 0.365429997 0
vt 0.250809997 0.403109998 0
vt 0.235280007 0.371060014 0
vt 0.444860011 0.644729972 0
vt 0.47608 0.656859994 0
vt 0.4648 0.695469975 0
vt 0.602240026 0.198990002 0
vt 0.665149987 0.186499998 0
vt 0.638100028 0.241699994 0
vt 0.608179986 0.745850027 0
vt 0.674009979 0.733650029 0
vt 0.685230017 0.734640002 0
vt 0.60315001 0.634540021 0
vt 0.545300007 0.624189973 0
vt 0.633090019 0.605040014 0
vt 0.830770016 0.127969995 0
vt 0.797810018 0.20104 0
vt 0.755770028 0.11913 0
vt 0.493099988 0.609600008 0
vt 0.545300007 0.624189973 0
vt 0.516870022 0.658909976 0
vt 0.796809971 0.813859999 0
vt 0.862479985 0.846560001 0
vt 0.799589992 0.866360009 0
vt 0.62944001 0.351260006 0
vt 0.582289994 0.370550007 0
vt 0.558939993 0.308050007 0
vt 0.277319998 0.717710018 0
vt 0.298559994 0.709029973 0
vt 0.307009995 0.739719987 0
vt 0.591840029 0.676670015 0
vt 0.691779971 0.701009989 0
vt 0.59333998 0.715770006 0
vt 0.717819989 0.93463999 0
vt 0.789640009 0.919529974 0
vt 0.774429977 0.964969993 0
vt 0.309989989 0.393119991 0
vt 0.331140012 0.367599994 0
vt 0.332489997 0.396589994 0
vt 0.557330012 0.546509981 0
vt 0.527260005 0.550819993 0
vt 0.558860004 0.535359979 0
vt 0.473250002 0.453669995 0
vt 0.44957 0.482840002 0
vt 0.468710005 0.347730011 0
vt 0.565970004 0.925580025 0
vt 0.527809978 0.936360002 0
vt 0.588090003 0.896520019 0
vt 0.314370006 0.606559992 0
vt 0.235579997 0.572600007 0
vt 0.264270008 0.546010017 0
vt 0.966620028 0.27353999 0
vt 0.957859993 0.187360004 0
vt 0.968990028 0.231140003 0
vt 0.414270014 0.732860029 0
vt 0.443830013 0.712759972 0
vt 0.437889993 0.725359976 0
vt 0.850520015 0.695630014 0
vt 0.85898 0.65763998 0
vt 0.890699983 0.670740008 0
vt 0.835280001 0.0587599985 0
vt 0.830770016 0.127969995 0
vt 0.755770028 0.11913 0
vt 0.891040027 0.106179997 0
vt 0.830770016 0.127969995 0
vt 0.835280001 0.0587599985 0
vt 0.527809978 0.936360002 0
vt 0.548730016 0.831950009 0
vt 0.595669985 0.845539987 0
vt 0.527809978 0.936360002 0
vt 0.476779997 0.950429976 0
vt 0.47477001 0.893859982 0
vt 0.810350001 -0.00283999997 0
vt 0.835280001 0.0587599985 0
vt 0.80704999 0.0164299998 0
vt 0.896390021 0.709900022 0
vt 0.850520015 0.695630014 0
vt 0.890699983 0.670740008 0
vt 0.638100028 0.241699994 0
vt 0.733500004 0.243320003 0
vt 0.704209983 0.272859991 0
vt 0.752210021 0.373239994 0
vt 0.712549984 0.369269997 0
vt 0.70964998 0.343080014 0
vt 0.633090019 0.605040014 0
vt 0.545300007 0.624189973 0
vt 0.527260005 0.550819993 0
vt 0.40309 0.0470400006 0
vt 0.308079988 0.0445399992 0
vt 0.306569993 0.0339699984 0
vt 0.595669985 0.845539987 0
vt 0.548730016 0.831950009 0
vt 0.590990007 0.797020018 0
vt 0.0594500005 0.0729100034 0
vt 0.079020001 0.032850001 0
vt 0.091930002 0.0637099966 0
vt 0.527260005 0.550819993 0
vt 0.509739995 0.489719987 0
vt 0.556949973 0.483660012 0
vt 0.928269982 0.353890002 0
vt 0.991580009 0.35661 0
vt 0.949140012 0.396580011 0
vt 0.460260004 0.716880023 0
vt 0.4648 0.695469975 0
vt 0.480599999 0.717180014 0
vt 0.909619987 0.730639994 0
vt 0.981970012 0.85473001 0
vt 0.955690026 0.817229986 0
vt 0.62944001 0.351260006 0
vt 0.693799973 0.306410015 0
vt 0.673229992 0.357439995 0
vt 0.459800005 0.527670026 0
vt 0.416610003 0.521070004 0
vt 0.44957 0.482840002 0
vt 0.766749978 0.731549978 0
vt 0.817700028 0.711449981 0
vt 0.796419978 0.765659988 0
vt 0.726559997 0.171079993 0
vt 0.656149983 0.140440002 0
vt 0.721279979 0.136549994 0
vt 0.895219982 0.760450006 0
vt 0.850520015 0.695630014 0
vt 0.909619987 0.730639994 0
vt 0.58732003 0.250959992 0
vt 0.638100028 0.241699994 0
vt 0.600920022 0.284550011 0
vt 0.600920022 0.284550011 0
vt 0.638100028 0.241699994 0
vt 0.657220006 0.257059991 0
vt 0.727469981 0.866100013 0
vt 0.796809971 0.813859999 0
vt 0.799589992 0.866360009 0
vt 0.314370006 0.606559992 0
vt 0.275550008 0.635129988 0
vt 0.235579997 0.572600007 0
vt 0.691779971 0.701009989 0
vt 0.686010003 0.729550004 0
vt 0.653010011 0.716220021 0
vt 0.47477001 0.893859982 0
vt 0.455909997 0.859610021 0
vt 0.516830027 0.824029982 0
vt 0.298559994 0.709029973 0
vt 0.365090013 0.739520013 0
vt 0.307009995 0.739719987 0
vt 0.895219982 0.760450006 0
vt 0.932860017 0.818639994 0
vt 0.846180022 0.772459984 0
vt 0.230910003 0.676289976 0
vt 0.275550008 0.635129988 0
vt 0.298559994 0.709029973 0
vt 0.275550008 0.635129988 0
vt 0.361820012 0.670170009 0
vt 0.298559994 0.709029973 0
vt 0.602240026 0.198990002 0
vt 0.603439987 0.134010002 0
vt 0.656149983 0.140440002 0
vt 0.704750001 0.90358001 0
vt 0.717819989 0.93463999 0
vt 0.65425998 0.917819977 0
vt 0.306569993 0.0339699984 0
vt 0.387349993 0.0136099998 0
vt 0.40309 0.0470400006 0
vt 0.44957 0.482840002 0
vt 0.351969987 0.4296 0
vt 0.400319993 0.365530014 0
vt 0.766749978 0.731549978 0
vt 0.740830004 0.750469983 0
vt 0.685230017 0.734640002 0
vt 0.669700027 0.96262002 0
vt 0.717819989 0.93463999 0
vt 0.680100024 0.998290002 0
vt 0.669700027 0.96262002 0
vt 0.642480016 0.946579993 0
vt 0.65425998 0.917819977 0
vt 0.486829996 0.315979987 0
vt 0.454840004 0.307390004 0
vt 0.496580005 0.283340007 0
vt 0.704209983 0.272859991 0
vt 0.733500004 0.243320003 0
vt 0.756900012 0.282629997 0
vt 0.93769002 0.177509993 0
vt 0.814260006 0.230780005 0
vt 0.797810018 0.20104 0
vt 0.436509997 0.705619991 0
vt 0.4648 0.695469975 0
vt 0.460260004 0.716880023 0
vt 0.817700028 0.711449981 0
vt 0.850520015 0.695630014 0
vt 0.895219982 0.760450006 0
vt 0.817700028 0.711449981 0
vt 0.895219982 0.760450006 0
vt 0.846180022 0.772459984 0
vt 0.387349993 0.0136099998 0
vt 0.430799991 0.00118000002 0
vt 0.40309 0.0470400006 0
vt 0.90775001 0.308459997 0
vt 0.975610018 0.329809994 0
vt 0.991580009 0.35661 0
vt 0.482179999 0.389010012 0
vt 0.473250002 0.453669995 0
vt 0.468710005 0.347730011 0
vt 0.682449996 0.620549977 0
vt 0.703920007 0.641709983 0
vt 0.60315001 0.634540021 0
vt 0.733500004 0.243320003 0
vt 0.638100028 0.241699994 0
vt 0.665149987 0.186499998 0
vt 0.454840004 0.307390004 0
vt 0.486829996 0.315979987 0
vt 0.468059987 0.334179997 0
vt 0.314370006 0.606559992 0
vt 0.264270008 0.546010017 0
vt 0.350520015 0.532790005 0
vt 0.516870022 0.658909976 0
vt 0.515749991 0.708530009 0
vt 0.4648 0.695469975 0
vt 0.4648 0.695469975 0
vt 0.47608 0.656859994 0
vt 0.516870022 0.658909976 0
vt 0.928269982 0.353890002 0
vt 0.886940002 0.383870006 0
vt 0.844500005 0.372310013 0
vt 0.250809997 0.403109998 0
vt 0.211239994 0.396829993 0
vt 0.115879998 0.349009991 0
vt 0.747870028 0.714399993 0
vt 0.766749978 0.731549978 0
vt 0.685230017 0.734640002 0
vt 0.476779997 0.950429976 0
vt 0.440690011 0.928409994 0
vt 0.47477001 0.893859982 0
vt 0.635710001 0.793290019 0
vt 0.604480028 0.765659988 0
vt 0.608179986 0.745850027 0
vt 0.848950028 0.962339997 0
vt 0.812720001 0.966310024 0
vt 0.845960021 0.919390023 0
vt 0.289499998 0.487029999 0
vt 0.350520015 0.532790005 0
vt 0.288859993 0.510930002 0
vt 0.65425998 0.917819977 0
vt 0.588090003 0.896520019 0
vt 0.649760008 0.854849994 0
vt 0.445789993 0.381680012 0
vt 0.44957 0.482840002 0
vt 0.400319993 0.365530014 0
vt 0.416610003 0.521070004 0
vt 0.350520015 0.532790005 0
vt 0.44957 0.482840002 0
vt 0.799589992 0.866360009 0
vt 0.845960021 0.919390023 0
vt 0.789640009 0.919529974 0
vt 0.527260005 0.550819993 0
vt 0.493099988 0.609600008 0
vt 0.46013999 0.585340023 0
vt 0.80704999 0.0164299998 0
vt 0.835280001 0.0587599985 0
vt 0.755770028 0.11913 0
vt 0.515749991 0.708530009 0
vt 0.591840029 0.676670015 0
vt 0.59333998 0.715770006 0
vt 0.516870022 0.658909976 0
vt 0.591840029 0.676670015 0
vt 0.515749991 0.708530009 0
vt 0.816439986 0.251960009 0
vt 0.814260006 0.230780005 0
vt 0.93769002 0.177509993 0
vt 0.602240026 0.198990002 0
vt 0.573549986 0.207790002 0
vt 0.571730018 0.172790006 0
vt 0.602240026 0.198990002 0
vt 0.571730018 0.172790006 0
vt 0.603439987 0.134010002 0
vt 0.850520015 0.695630014 0
vt 0.896390021 0.709900022 0
vt 0.909619987 0.730639994 0
vt 0.314370006 0.606559992 0
vt 0.367089987 0.588190019 0
vt 0.373389989 0.631179988 0
vt 0.665149987 0.186499998 0
vt 0.656149983 0.140440002 0
vt 0.726559997 0.171079993 0
vt 0.373389989 0.631179988 0
vt 0.421909988 0.666779995 0
vt 0.361820012 0.670170009 0
vt 0.649760008 0.854849994 0
vt 0.732039988 0.831430018 0
vt 0.704750001 0.90358001 0
vt 0.693799973 0.306410015 0
vt 0.928269982 0.353890002 0
vt 0.70964998 0.343080014 0
vt 0.726559997 0.171079993 0
vt 0.733500004 0.243320003 0
vt 0.665149987 0.186499998 0
vt 0.740830004 0.750469983 0
vt 0.796419978 0.765659988 0
vt 0.732039988 0.831430018 0
vt 0.166840002 0.0469300002 0
vt 0.091930002 0.0637099966 0
vt 0.121009998 0.0219899993 0
vt 0.509739995 0.489719987 0
vt 0.44957 0.482840002 0
vt 0.529020011 0.443010002 0
vt 0.65425998 0.917819977 0
vt 0.601890028 0.924160004 0
vt 0.588090003 0.896520019 0
vt 0.382699996 0.364270002 0
vt 0.468059987 0.334179997 0
vt 0.403710008 0.36372 0
vt 0.812720001 0.966310024 0
vt 0.789640009 0.919529974 0
vt 0.845960021 0.919390023 0
vt 0.693799973 0.306410015 0
vt 0.62944001 0.351260006 0
vt 0.600920022 0.284550011 0
vt 0.657220006 0.257059991 0
vt 0.693799973 0.306410015 0
vt 0.600920022 0.284550011 0
vt 0.115879998 0.349009991 0
vt 0.211239994 0.396829993 0
vt 0.165910006 0.392479986 0
vt 0.364329994 0.702509999 0
vt 0.414270014 0.732860029 0
vt 0.365090013 0.739520013 0
vt 0.733500004 0.243320003 0
vt 0.814260006 0.230780005 0
vt 0.816439986 0.251960009 0
vt 0.580860019 0.140239999 0
vt 0.603439987 0.134010002 0
vt 0.571730018 0.172790006 0
vt 0.642480016 0.946579993 0
vt 0.617240012 0.939520001 0
vt 0.65425998 0.917819977 0
vt 0.230910003 0.676289976 0
vt 0.298559994 0.709029973 0
vt 0.242850006 0.696399987 0
vt 0.601890028 0.924160004 0
vt 0.565970004 0.925580025 0
vt 0.588090003 0.896520019 0
vt 0.462500006 0.0738300011 0
vt 0.440319985 0.0735400021 0
vt 0.450069994 0.0236099996 0
vt 0.682449996 0.620549977 0
vt 0.60315001 0.634540021 0
vt 0.633090019 0.605040014 0
vt 0.235280007 0.371060014 0
vt 0.250809997 0.403109998 0
vt 0.185049996 0.330309987 0
vt 0.185049996 0.330309987 0
vt 0.250809997 0.403109998 0
vt 0.13831 0.301450014 0
vt 0.704209983 0.272859991 0
vt 0.693799973 0.306410015 0
vt 0.657220006 0.257059991 0
vt 0.545769989 0.726689994 0
vt 0.59333998 0.715770006 0
vt 0.569500029 0.737410009 0
vt 0.81081003 0.286339998 0
vt 0.816439986 0.251960009 0
vt 0.90775001 0.308459997 0
vt 0.871599972 0.304360002 0
vt 0.81081003 0.286339998 0
vt 0.90775001 0.308459997 0
vt 0.480599999 0.717180014 0
vt 0.515749991 0.708530009 0
vt 0.545769989 0.726689994 0
vt 0.590990007 0.797020018 0
vt 0.516830027 0.824029982 0
vt 0.571659982 0.756070018 0
vt 0.298559994 0.709029973 0
vt 0.361820012 0.670170009 0
vt 0.364329994 0.702509999 0
vt 0.817700028 0.711449981 0
vt 0.846180022 0.772459984 0
vt 0.796419978 0.765659988 0
vt 0.658050001 0.100270003 0
vt 0.656149983 0.140440002 0
vt 0.624979973 0.115309998 0
vt 0.242850006 0.696399987 0
vt 0.298559994 0.709029973 0
vt 0.277319998 0.717710018 0
vt 0.412349999 0.571579993 0
vt 0.350520015 0.532790005 0
vt 0.416610003 0.521070004 0
vt 0.436509997 0.705619991 0
vt 0.421909988 0.666779995 0
vt 0.4648 0.695469975 0
vt 0.556949973 0.483660012 0
vt 0.509739995 0.489719987 0
vt 0.529020011 0.443010002 0
vt 0.49902001 0.0915300027 0
vt 0.497339994 0.131699994 0
vt 0.462500006 0.0738300011 0
vt 0.262380004 0.0360799991 0
vt 0.166840002 0.0469300002 0
vt 0.215900004 0.02379 0
vt 0.617240012 0.939520001 0
vt 0.601890028 0.924160004 0
vt 0.65425998 0.917819977 0
vt 0.957859993 0.187360004 0
vt 0.966620028 0.27353999 0
vt 0.93769002 0.177509993 0
vt 0.41347 0.619530022 0
vt 0.373389989 0.631179988 0
vt 0.367089987 0.588190019 0
vt 0.693799973 0.306410015 0
vt 0.756900012 0.282629997 0
vt 0.871599972 0.304360002 0
vt 0.527260005 0.550819993 0
vt 0.46013999 0.585340023 0
vt 0.459800005 0.527670026 0
vt 0.527260005 0.550819993 0
vt 0.459800005 0.527670026 0
vt 0.509739995 0.489719987 0
vt 0.928269982 0.353890002 0
vt 0.844500005 0.372310013 0
vt 0.789080024 0.355720013 0
vt 0.886940002 0.383870006 0
vt 0.928269982 0.353890002 0
vt 0.926360011 0.375349998 0
vt 0.516830027 0.824029982 0
vt 0.455909997 0.859610021 0
vt 0.441900015 0.817229986 0
vt 0.44957 0.482840002 0
vt 0.289499998 0.487029999 0
vt 0.351969987 0.4296 0
vt 0.603439987 0.134010002 0
vt 0.624979973 0.115309998 0
vt 0.656149983 0.140440002 0
vt 0.41347 0.619530022 0
vt 0.367089987 0.588190019 0
vt 0.412349999 0.571579993 0
vt 0.588090003 0.896520019 0
vt 0.527809978 0.936360002 0
vt 0.595669985 0.845539987 0
vt 0.229660004 0.648880005 0
vt 0.275550008 0.635129988 0
vt 0.230910003 0.676289976 0
vt 0.372409999 0.386819988 0
vt 0.332489997 0.396589994 0
vt 0.382699996 0.364270002 0
vt 0.235579997 0.572600007 0
vt 0.229660004 0.648880005 0
vt 0.220929995 0.621469975 0
vt 0.373389989 0.631179988 0
vt 0.41347 0.619530022 0
vt 0.421909988 0.666779995 0
vt 0.373389989 0.631179988 0
vt 0.361820012 0.670170009 0
vt 0.314370006 0.606559992 0
vt 0.421909988 0.666779995 0
vt 0.444860011 0.644729972 0
vt 0.4648 0.695469975 0
vt 0.656149983 0.140440002 0
vt 0.665149987 0.186499998 0
vt 0.602240026 0.198990002 0
vt 0.364329994 0.702509999 0
vt 0.436509997 0.705619991 0
vt 0.414270014 0.732860029 0
vt 0.382699996 0.364270002 0
vt 0.331140012 0.367599994 0
vt 0.359569997 0.327349991 0
vt 0.85898 0.65763998 0
vt 0.850520015 0.695630014 0
vt 0.833689988 0.663150012 0
vt 0.091930002 0.0637099966 0
vt 0.079020001 0.032850001 0
vt 0.121009998 0.0219899993 0
vt 0.649760008 0.854849994 0
vt 0.588090003 0.896520019 0
vt 0.595669985 0.845539987 0
vt 0.846180022 0.772459984 0
vt 0.901180029 0.853280008 0
vt 0.862479985 0.846560001 0
vt 0.382699996 0.364270002 0
vt 0.332489997 0.396589994 0
vt 0.331140012 0.367599994 0
vt 0.766749978 0.731549978 0
vt 0.747870028 0.714399993 0
vt 0.790409982 0.686860025 0
vt 0.721279979 0.136549994 0
vt 0.696169972 0.117409997 0
vt 0.755770028 0.11913 0
vt 0.845960021 0.919390023 0
vt 0.917850018 0.895099998 0
vt 0.889209986 0.928560019 0
vt 0.658050001 0.100270003 0
vt 0.696169972 0.117409997 0
vt 0.656149983 0.140440002 0
vt 0.774429977 0.964969993 0
vt 0.730700016 0.985329986 0
vt 0.717819989 0.93463999 0
vt 0.314370006 0.606559992 0
vt 0.361820012 0.670170009 0
vt 0.275550008 0.635129988 0
vt 0.571659982 0.756070018 0
vt 0.507459998 0.771740019 0
vt 0.538950026 0.76226002 0
vt 0.895219982 0.760450006 0
vt 0.909619987 0.730639994 0
vt 0.955690026 0.817229986 0
vt 0.895219982 0.760450006 0
vt 0.955690026 0.817229986 0
vt 0.932860017 0.818639994 0
vt 0.600920022 0.284550011 0
vt 0.580659986 0.28718999 0
vt 0.58732003 0.250959992 0
vt 0.844500005 0.372310013 0
vt 0.886940002 0.383870006 0
vt 0.821049988 0.39489001 0
vt 0.444860011 0.644729972 0
vt 0.493099988 0.609600008 0
vt 0.47608 0.656859994 0
vt 0.46013999 0.585340023 0
vt 0.412349999 0.571579993 0
vt 0.416610003 0.521070004 0
vt 0.0674799979 0.26275 0
vt 0.13831 0.301450014 0
vt 0.0683600008 0.281179994 0
vt 0.468710005 0.347730011 0
vt 0.44957 0.482840002 0
vt 0.445789993 0.381680012 0
vt 0.580659986 0.28718999 0
vt 0.600920022 0.284550011 0
vt 0.558939993 0.308050007 0
vt 0.166840002 0.0469300002 0
vt 0.166659996 0.0260799993 0
vt 0.215900004 0.02379 0
vt 0.696169972 0.117409997 0
vt 0.721279979 0.136549994 0
vt 0.656149983 0.140440002 0
vt 0.516870022 0.658909976 0
vt 0.545300007 0.624189973 0
vt 0.591840029 0.676670015 0
vt 0.91535002 0.625460029 0
vt 0.911729991 0.654789984 0
vt 0.85898 0.65763998 0
vt 0.571659982 0.756070018 0
vt 0.516830027 0.824029982 0
vt 0.507459998 0.771740019 0
vt 0.4648 0.695469975 0
vt 0.515749991 0.708530009 0
vt 0.480599999 0.717180014 0
vt 0.49902001 0.0915300027 0
vt 0.462500006 0.0738300011 0
vt 0.490500003 0.0496900007 0
vt 0.733500004 0.243320003 0
vt 0.797810018 0.20104 0
vt 0.814260006 0.230780005 0
vt 0.65425998 0.917819977 0
vt 0.717819989 0.93463999 0
vt 0.669700027 0.96262002 0
vt 0.436509997 0.705619991 0
vt 0.460260004 0.716880023 0
vt 0.443830013 0.712759972 0
vt 0.436509997 0.705619991 0
vt 0.443830013 0.712759972 0
vt 0.414270014 0.732860029 0
vt 0.810350001 -0.00283999997 0
vt 0.846580029 0.0128499996 0
vt 0.835280001 0.0587599985 0
vt 0.250809997 0.403109998 0
vt 0.115879998 0.349009991 0
vt 0.110880002 0.337929994 0
vt 0.590990007 0.797020018 0
vt 0.548730016 0.831950009 0
vt 0.516830027 0.824029982 0
vt 0.796419978 0.765659988 0
vt 0.740830004 0.750469983 0
vt 0.766749978 0.731549978 0
vt 0.527260005 0.550819993 0
vt 0.545300007 0.624189973 0
vt 0.493099988 0.609600008 0
vt 0.846180022 0.772459984 0
vt 0.796809971 0.813859999 0
vt 0.796419978 0.765659988 0
vt 0.527809978 0.936360002 0
vt 0.47477001 0.893859982 0
vt 0.548730016 0.831950009 0
vt 0.786830008 0.388909996 0
vt 0.752210021 0.373239994 0
vt 0.789080024 0.355720013 0
vt 0.364329994 0.702509999 0
vt 0.361820012 0.670170009 0
vt 0.436509997 0.705619991 0
vt 0.727469981 0.866100013 0
vt 0.799589992 0.866360009 0
vt 0.704750001 0.90358001 0
vt 0.789640009 0.919529974 0
vt 0.812720001 0.966310024 0
vt 0.774429977 0.964969993 0
vt 0.889209986 0.928560019 0
vt 0.848950028 0.962339997 0
vt 0.845960021 0.919390023 0
vt 0.889209986 0.928560019 0
vt 0.904699981 0.977240026 0
vt 0.848950028 0.962339997 0
vt 0.721279979 0.136549994 0
vt 0.797810018 0.20104 0
vt 0.726559997 0.171079993 0
vt 0.93769002 0.177509993 0
vt 0.830770016 0.127969995 0
vt 0.891040027 0.106179997 0
vt 0.309989989 0.393119991 0
vt 0.270610005 0.365429997 0
vt 0.331140012 0.367599994 0
vt 0.649760008 0.854849994 0
vt 0.704750001 0.90358001 0
vt 0.65425998 0.917819977 0
vt 0.41347 0.619530022 0
vt 0.412349999 0.571579993 0
vt 0.46013999 0.585340023 0
vt 0.76789999 0.0200299993 0
vt 0.80704999 0.0164299998 0
vt 0.755770028 0.11913 0
vt 0.491299987 0.0250599999 0
vt 0.490500003 0.0496900007 0
vt 0.462500006 0.0738300011 0
vt 0.46013999 0.585340023 0
vt 0.444860011 0.644729972 0
vt 0.41347 0.619530022 0
vt 0.846180022 0.772459984 0
vt 0.862479985 0.846560001 0
vt 0.796809971 0.813859999 0
vt 0.576709986 0.746959984 0
vt 0.604480028 0.765659988 0
vt 0.571659982 0.756070018 0
vt 0.732039988 0.831430018 0
vt 0.796809971 0.813859999 0
vt 0.727469981 0.866100013 0
vt 0.459800005 0.527670026 0
vt 0.46013999 0.585340023 0
vt 0.416610003 0.521070004 0
vt 0.756900012 0.282629997 0
vt 0.81081003 0.286339998 0
vt 0.871599972 0.304360002 0
vt 0.605679989 0.48466 0
vt 0.558860004 0.535359979 0
vt 0.556949973 0.483660012 0
vt 0.605679989 0.48466 0
vt 0.605979979 0.551230013 0
vt 0.558860004 0.535359979 0
vt 0.704750001 0.90358001 0
vt 0.732039988 0.831430018 0
vt 0.727469981 0.866100013 0
vt 0.309989989 0.393119991 0
vt 0.270229995 0.409090012 0
vt 0.270610005 0.365429997 0
vt 0.602240026 0.198990002 0
vt 0.638100028 0.241699994 0
vt 0.573549986 0.207790002 0
vt 0.756900012 0.282629997 0
vt 0.733500004 0.243320003 0
vt 0.816439986 0.251960009 0
vt 0.70964998 0.343080014 0
vt 0.789080024 0.355720013 0
vt 0.752210021 0.373239994 0
vt 0.41347 0.619530022 0
vt 0.444860011 0.644729972 0
vt 0.421909988 0.666779995 0
vt 0.73447001 0.0712300017 0
vt 0.755770028 0.11913 0
vt 0.696169972 0.117409997 0
vt 0.73447001 0.0712300017 0
vt 0.76789999 0.0200299993 0
vt 0.755770028 0.11913 0
vt 0.812720001 0.966310024 0
vt 0.804069996 0.978559971 0
vt 0.774429977 0.964969993 0
vt 0.928269982 0.353890002 0
vt 0.949140012 0.396580011 0
vt 0.926360011 0.375349998 0
vt 0.314370006 0.606559992 0
vt 0.350520015 0.532790005 0
vt 0.367089987 0.588190019 0
vt 0.510630012 0.352349997 0
vt 0.479649991 0.351500005 0
vt 0.507839978 0.309989989 0
vt 0.81081003 0.286339998 0
vt 0.756900012 0.282629997 0
vt 0.816439986 0.251960009 0
vt 0.591840029 0.676670015 0
vt 0.703920007 0.641709983 0
vt 0.691779971 0.701009989 0
vt 0.703920007 0.641709983 0
vt 0.714980006 0.685100019 0
vt 0.691779971 0.701009989 0
vt 0.121009998 0.0219899993 0
vt 0.166659996 0.0260799993 0
vt 0.166840002 0.0469300002 0
vt 0.361820012 0.670170009 0
vt 0.421909988 0.666779995 0
vt 0.436509997 0.705619991 0
vt 0.691779971 0.701009989 0
vt 0.653010011 0.716220021 0
vt 0.59333998 0.715770006 0
vt 0.740830004 0.750469983 0
vt 0.732039988 0.831430018 0
vt 0.635710001 0.793290019 0
vt 0.619679987 0.532360017 0
vt 0.605979979 0.551230013 0
vt 0.605679989 0.48466 0
vt 0.693799973 0.306410015 0
vt 0.70964998 0.343080014 0
vt 0.673229992 0.357439995 0
vt 0.62944001 0.351260006 0
vt 0.558939993 0.308050007 0
vt 0.600920022 0.284550011 0
vt 0.94562 0.762179971 0
vt 0.981970012 0.85473001 0
vt 0.909619987 0.730639994 0
vt 0.359569997 0.327349991 0
vt 0.13831 0.301450014 0
vt 0.404700011 0.0854500011 0
vt 0.13831 0.301450014 0
vt 0.198180005 0.0707200021 0
vt 0.404700011 0.0854500011 0
vt 0.0600199997 0.233040005 0
vt 0.0378100015 0.268249989 0
vt 0.0198800005 0.23184 0
vt 0.404700011 0.0854500011 0
vt 0.198180005 0.0707200021 0
vt 0.308079988 0.0445399992 0
vt 0.13831 0.301450014 0
vt 0.0600199997 0.233040005 0
vt -0.000720000011 0.129429996 0
vt 0.516529977 0.191839993 0
vt 0.359569997 0.327349991 0
vt 0.404700011 0.0854500011 0
vt 0.262380004 0.0360799991 0
vt 0.198180005 0.0707200021 0
vt 0.166840002 0.0469300002 0
vt 0.516529977 0.191839993 0
vt 0.404700011 0.0854500011 0
vt 0.440319985 0.0735400021 0
vt 0.440319985 0.0735400021 0
vt 0.404700011 0.0854500011 0
vt 0.40309 0.0470400006 0
vt 0.198180005 0.0707200021 0
vt 0.13831 0.301450014 0
vt -0.000720000011 0.129429996 0
vt 0.468059987 0.334179997 0
vt 0.382699996 0.364270002 0
vt 0.454840004 0.307390004 0
vt 0.454840004 0.307390004 0
vt 0.359569997 0.327349991 0
vt 0.516529977 0.191839993 0
vt 0.308079988 0.0445399992 0
vt 0.198180005 0.0707200021 0
vt 0.262380004 0.0360799991 0
vt 0.0600199997 0.233040005 0
vt 0.0112800002 0.203119993 0
vt -0.000720000011 0.129429996 0
vt 0.235280007 0.371060014 0
vt 0.185049996 0.330309987 0
vt 0.270610005 0.365429997 0
vt 0.497339994 0.131699994 0
vt 0.516529977 0.191839993 0
vt 0.440319985 0.0735400021 0
vt 0.359569997 0.327349991 0
vt 0.270610005 0.365429997 0
vt 0.13831 0.301450014 0
vt 0.308079988 0.0445399992 0
vt 0.262380004 0.0360799991 0
vt 0.306569993 0.0339699984 0
vt 0.0594500005 0.0729100034 0
vt 0.091930002 0.0637099966 0
vt -0.000720000011 0.129429996 0
vt 0.382699996 0.364270002 0
vt 0.359569997 0.327349991 0
vt 0.454840004 0.307390004 0
vt -0.000720000011 0.129429996 0
vt 0.0121999998 0.10988 0
vt 0.0594500005 0.0729100034 0
vt 0.198180005 0.0707200021 0
vt 0.091930002 0.0637099966 0
vt 0.166840002 0.0469300002 0
vt 0.270610005 0.365429997 0
vt 0.185049996 0.330309987 0
vt 0.13831 0.301450014 0
vt 0.497339994 0.131699994 0
vt 0.440319985 0.0735400021 0
vt 0.462500006 0.0738300011 0
vt 0.571659982 0.756070018 0
vt 0.538950026 0.76226002 0
vt 0.576709986 0.746959984 0
vt 0.0600199997 0.233040005 0
vt 0.0674799979 0.26275 0
vt 0.0378100015 0.268249989 0
vt 0.0198800005 0.23184 0
vt 0.0112800002 0.203119993 0
vt 0.0600199997 0.233040005 0
vt 0.13831 0.301450014 0
vt 0.0674799979 0.26275 0
vt 0.0600199997 0.233040005 0
vt 0.270610005 0.365429997 0
vt 0.359569997 0.327349991 0
vt 0.331140012 0.367599994 0
vt 0.40309 0.0470400006 0
vt 0.404700011 0.0854500011 0
vt 0.308079988 0.0445399992 0
vt 0.496580005 0.283340007 0
vt 0.454840004 0.307390004 0
vt 0.508679986 0.25198999 0
vt 0.508679986 0.25198999 0
vt 0.454840004 0.307390004 0
vt 0.516529977 0.191839993 0
vt 0.198180005 0.0707200021 0
vt -0.000720000011 0.129429996 0
vt 0.091930002 0.0637099966 0
vn -0.296763152 0.504586875 0.810754955
vn -0.402301282 0.84903127 0.342490077
vn -0.559978843 0.316231251 0.765781701
vn 0.601241946 0.784725964 -0.150709167
vn 0.398268044 0.786090672 -0.472698569
vn 0.302191436 0.92187655 -0.242536634
vn -0.0205607563 0.614495099 -0.788652658
vn -0.172677517 0.714140415 -0.678370059
vn 0.0917097777 0.829343975 -0.551160395
vn 0.970745385 0.0383233428 -0.23703292
vn 0.733336151 0.520634115 -0.437216461
vn 0.896613181 0.4178693 -0.146527171
vn -0.602104187 0.672179103 0.430866212
vn -0.629044414 0.722497821 0.286879897
vn -0.559684932 0.827479362 0.0450631902
vn 0.363175452 -0.899677217 -0.242248714
vn 0.535942554 -0.4282116 -0.727599144
vn 0.815197349 -0.472110569 -0.335506946
vn 0.732423782 -0.439331293 -0.520137966
vn 0.825544775 -0.303923696 -0.475506216
vn 0.970745385 0.0383233428 -0.23703292
vn -0.225586846 0.500438452 -0.835865974
vn -0.125676349 0.399227858 -0.908197463
vn -0.201345921 0.161411464 -0.966129422
vn -0.355729491 0.216196299 0.909239054
vn -0.584783792 -0.160373285 0.795178175
vn 0.0221251696 -0.154794648 0.987698913
vn -0.559978843 0.316231251 0.765781701
vn -0.665370047 0.555463254 0.498741597
vn -0.751844585 0.362806797 0.55054611
vn 0.682815731 -0.551655352 -0.478998154
vn 0.732423782 -0.439331293 -0.520137966
vn 0.88560462 -0.0459675267 -0.462159425
vn -0.0120004034 0.0102620786 -0.999875426
vn 0.0958813354 0.111057669 -0.989178002
vn 0.317863226 -0.305179983 -0.897679329
vn 0.195261195 0.369583905 0.908449709
vn 0.416337878 0.52794528 0.740227401
vn 0.140576914 0.189137667 0.971835911
vn -0.24585776 0.948569238 -0.199424803
vn -0.559684932 0.827479362 0.0450631902
vn -0.402301282 0.84903127 0.342490077
vn 0.363175452 -0.899677217 -0.242248714
vn 0.815197349 -0.472110569 -0.335506946
vn 0.732423782 -0.439331293 -0.520137966
vn -0.665370047 0.555463254 0.498741597
vn -0.559978843 0.316231251 0.765781701
vn -0.402301282 0.84903127 0.342490077
vn 0.825544775 -0.303923696 -0.475506216
vn 0.835891068 0.315030962 -0.449490398
vn 0.970745385 0.0383233428 -0.23703292
vn -0.727232099 -0.408112228 -0.551885784
vn -0.622200787 -0.46592328 -0.629111767
vn -0.574523449 -0.59727031 -0.559634686
vn -0.172959507 -0.357908219 0.917598307
vn -0.584783792 -0.160373285 0.795178175
vn -0.240571663 -0.277886868 0.930002213
vn -0.399675995 0.26660338 -0.877030015
vn -0.6096071 0.354392529 -0.709073365
vn -0.418211699 0.589707673 -0.690900862
vn -0.559978843 0.316231251 0.765781701
vn -0.87763685 0.119129874 0.464286178
vn -0.584783792 -0.160373285 0.795178175
vn -0.597535849 -0.453191012 0.661489785
vn -0.862033427 -0.174215421 0.47597006
vn -0.656822383 -0.631171584 0.412561178
vn 0.236422554 0.469907373 -0.850465417
vn 0.0421842039 0.592645228 -0.804358184
vn 0.0366305821 0.661357939 -0.749175429
vn -0.87763685 0.119129874 0.464286178
vn -0.862033427 -0.174215421 0.47597006
vn -0.597535849 -0.453191012 0.661489785
vn 0.911730826 0.33379519 0.23943232
vn 0.645081341 -0.63713026 0.421823561
vn 0.72504127 -0.679972887 0.109324925
vn -0.757293284 0.644277573 -0.106833048
vn -0.559684932 0.827479362 0.0450631902
vn -0.633840442 0.731848478 -0.250288099
vn 0.649723411 -0.191204399 0.735731125
vn 0.290901721 -0.660916805 0.691784084
vn 0.411301583 -0.487874508 0.76994127
vn 0.990025759 0.0711169988 0.121619835
vn 0.992706239 0.12053299 -0.00247075944
vn 0.970745385 0.0383233428 -0.23703292
vn 0.896613181 0.4178693 -0.146527171
vn 0.990025759 0.0711169988 0.121619835
vn 0.970745385 0.0383233428 -0.23703292
vn 0.398268044 0.786090672 -0.472698569
vn 0.187282711 0.71778214 -0.670607269
vn 0.131089106 0.910327733 -0.392580062
vn 0.557051659 -0.422934592 -0.714716554
vn 0.500760376 0.337016433 -0.797282338
vn 0.508847058 0.343160361 -0.789503336
vn 0.557051659 -0.422934592 -0.714716554
vn 0.508847058 0.343160361 -0.789503336
vn 0.665400922 0.238350824 -0.707411051
vn 0.535942554 -0.4282116 -0.727599144
vn 0.500760376 0.337016433 -0.797282338
vn 0.557051659 -0.422934592 -0.714716554
vn -0.124350123 -0.606585741 0.785233021
vn -0.0177815985 -0.542727709 0.839720428
vn -0.172959507 -0.357908219 0.917598307
vn -0.074513562 0.839097381 0.538853586
vn 0.204608053 0.872008741 0.444675326
vn 0.0103023443 0.966171861 0.257693291
vn -0.117775828 0.954860508 0.272709191
vn -0.402301282 0.84903127 0.342490077
vn -0.074513562 0.839097381 0.538853586
vn 0.411301583 -0.487874508 0.76994127
vn 0.788407207 0.174272135 0.589951873
vn 0.649723411 -0.191204399 0.735731125
vn 0.911730826 0.33379519 0.23943232
vn 0.949681878 0.242059931 0.198774502
vn 0.891052902 0.125549972 0.436190188
vn -0.9825629 -0.1492901 0.110827498
vn -0.992654562 -0.0551092885 -0.107702754
vn -0.671557188 -0.739251614 -0.0501795448
vn 0.34176597 0.855608523 0.388754427
vn 0.385075003 0.922826529 -0.01041127
vn 0.152602538 0.981629968 0.114520952
vn -0.508350849 0.699020803 -0.502940714
vn -0.418211699 0.589707673 -0.690900862
vn -0.741239309 0.4289487 -0.516301632
vn 0.970745385 0.0383233428 -0.23703292
vn 0.992706239 0.12053299 -0.00247075944
vn 0.88560462 -0.0459675267 -0.462159425
vn 0.88560462 -0.0459675267 -0.462159425
vn 0.992706239 0.12053299 -0.00247075944
vn 0.985307693 0.0247961525 -0.168979183
vn -0.297186226 -0.735990167 0.608275235
vn -0.411088914 -0.482396662 0.773498118
vn -0.297928244 -0.864276052 0.405296832
vn 0.520262361 0.437042236 -0.733703792
vn 0.47967571 0.648799777 -0.590736866
vn 0.733336151 0.520634115 -0.437216461
vn -0.396555275 -0.124747798 -0.909495413
vn -0.200223833 -0.18661198 -0.961814046
vn -0.302152693 -0.474217862 -0.826934814
vn 0.0933764428 0.732597351 -0.67422694
vn -0.037381392 0.645715773 -0.762662232
vn 0.0917097777 0.829343975 -0.551160395
vn -0.584783792 -0.160373285 0.795178175
vn -0.355729491 0.216196299 0.909239054
vn -0.559978843 0.316231251 0.765781701
vn 0.416337878 0.52794528 0.740227401
vn 0.780768514 0.155758724 0.60509479
vn 0.849396467 0.297777742 0.435722381
vn -0.172677517 0.714140415 -0.678370059
vn -0.0152438814 0.735795319 -0.677032471
vn 0.0933764428 0.732597351 -0.67422694
vn 0.123325832 0.52206552 0.843942106
vn 0.239852071 0.732379436 0.637252986
vn -0.074513562 0.839097381 0.538853586
vn -0.201345921 0.161411464 -0.966129422
vn -0.125676349 0.399227858 -0.908197463
vn 0.106881276 0.279535651 -0.954167843
vn 0.788407207 0.174272135 0.589951873
vn 0.891052902 0.125549972 0.436190188
vn 0.649723411 -0.191204399 0.735731125
vn 0.785855532 -0.220969915 0.577584088
vn 0.649723411 -0.191204399 0.735731125
vn 0.891052902 0.125549972 0.436190188
vn 0.131089106 0.910327733 -0.392580062
vn 0.187282711 0.71778214 -0.670607269
vn -0.0152438814 0.735795319 -0.677032471
vn 0.376821756 -0.857870817 -0.34937501
vn 0.732423782 -0.439331293 -0.520137966
vn 0.682815731 -0.551655352 -0.478998154
vn 0.140576914 0.189137667 0.971835911
vn -0.133333519 -0.045318529 0.99003458
vn 0.0221251696 -0.154794648 0.987698913
vn -0.291548014 -0.371960908 0.881274581
vn -0.242092118 -0.615798295 0.749789238
vn -0.240571663 -0.277886868 0.930002213
vn 0.601241946 0.784725964 -0.150709167
vn 0.302191436 0.92187655 -0.242536634
vn 0.385075003 0.922826529 -0.01041127
vn -0.240571663 -0.277886868 0.930002213
vn -0.242092118 -0.615798295 0.749789238
vn -0.128823653 -0.73589927 0.664722979
vn 0.0366305821 0.661357939 -0.749175429
vn -0.0152438814 0.735795319 -0.677032471
vn 0.187282711 0.71778214 -0.670607269
vn -0.665370047 0.555463254 0.498741597
vn -0.940170705 0.271236241 0.206179589
vn -0.87763685 0.119129874 0.464286178
vn 0.317863226 -0.305179983 -0.897679329
vn 0.535942554 -0.4282116 -0.727599144
vn 0.174823791 -0.904285014 -0.389493585
vn -0.15176554 0.840822339 -0.519600809
vn -0.358990371 0.813719988 -0.457149655
vn -0.24585776 0.948569238 -0.199424803
vn 0.0145819783 0.903200865 -0.428970277
vn -0.24585776 0.948569238 -0.199424803
vn -0.0711559504 0.963623405 -0.257617265
vn -0.411088914 -0.482396662 0.773498118
vn -0.597535849 -0.453191012 0.661489785
vn -0.297928244 -0.864276052 0.405296832
vn 0.174823791 -0.904285014 -0.389493585
vn 0.535942554 -0.4282116 -0.727599144
vn 0.530713558 -0.660459638 -0.531164944
vn -0.741239309 0.4289487 -0.516301632
vn -0.6096071 0.354392529 -0.709073365
vn -0.688280225 0.0424498729 -0.724201918
vn 0.557417989 0.643667877 0.524382353
vn 0.390877068 0.67640537 0.62425226
vn 0.416337878 0.52794528 0.740227401
vn 0.732423782 -0.439331293 -0.520137966
vn 0.815197349 -0.472110569 -0.335506946
vn 0.825544775 -0.303923696 -0.475506216
vn -0.125676349 0.399227858 -0.908197463
vn -0.225586846 0.500438452 -0.835865974
vn -0.0205607563 0.614495099 -0.788652658
vn -0.117775828 0.954860508 0.272709191
vn -0.074513562 0.839097381 0.538853586
vn 0.0103023443 0.966171861 0.257693291
vn -0.418211699 0.589707673 -0.690900862
vn -0.225586846 0.500438452 -0.835865974
vn -0.399675995 0.26660338 -0.877030015
vn 0.47967571 0.648799777 -0.590736866
vn 0.187282711 0.71778214 -0.670607269
vn 0.398268044 0.786090672 -0.472698569
vn 0.205746129 -0.479124367 0.853292704
vn 0.290901721 -0.660916805 0.691784084
vn 0.649723411 -0.191204399 0.735731125
vn -0.882120132 -0.39677009 0.253845811
vn -0.9825629 -0.1492901 0.110827498
vn -0.639816403 -0.758852899 0.121561766
vn -0.201345921 0.161411464 -0.966129422
vn -0.0120004034 0.0102620786 -0.999875426
vn -0.200223833 -0.18661198 -0.961814046
vn 0.385075003 0.922826529 -0.01041127
vn 0.302191436 0.92187655 -0.242536634
vn 0.171949148 0.984769464 0.0257408712
vn -0.00135386398 -0.510414302 -0.859927535
vn -0.0917511359 -0.82120049 -0.563215375
vn -0.15437746 -0.19978644 -0.967601657
vn 0.0917097777 0.829343975 -0.551160395
vn -0.172677517 0.714140415 -0.678370059
vn 0.0933764428 0.732597351 -0.67422694
vn -0.0711559504 0.963623405 -0.257617265
vn -0.24585776 0.948569238 -0.199424803
vn 0.062339779 0.994258821 -0.0869665146
vn 0.778467059 0.49225539 0.389453053
vn 0.849396467 0.297777742 0.435722381
vn 0.935642779 0.28036347 0.21440348
vn -0.860567153 0.499268621 0.10077256
vn -0.665370047 0.555463254 0.498741597
vn -0.602104187 0.672179103 0.430866212
vn -0.665370047 0.555463254 0.498741597
vn -0.629044414 0.722497821 0.286879897
vn -0.602104187 0.672179103 0.430866212
vn -0.65249908 -0.718888879 -0.23967427
vn -0.727232099 -0.408112228 -0.551885784
vn -0.574523449 -0.59727031 -0.559634686
vn 0.500760376 0.337016433 -0.797282338
vn 0.317863226 -0.305179983 -0.897679329
vn 0.0958813354 0.111057669 -0.989178002
vn -0.084492363 0.988815606 0.12290208
vn -0.117775828 0.954860508 0.272709191
vn 0.0103023443 0.966171861 0.257693291
vn -0.185578465 0.971964777 0.144378692
vn -0.117775828 0.954860508 0.272709191
vn -0.084492363 0.988815606 0.12290208
vn 0.849396467 0.297777742 0.435722381
vn 0.949681878 0.242059931 0.198774502
vn 0.990025759 0.0711169988 0.121619835
vn 0.849396467 0.297777742 0.435722381
vn 0.780768514 0.155758724 0.60509479
vn 0.891052902 0.125549972 0.436190188
vn 0.062339779 0.994258821 -0.0869665146
vn -0.084492363 0.988815606 0.12290208
vn -0.00543511659 0.99931848 0.0365112573
vn 0.106881276 0.279535651 -0.954167843
vn 0.500760376 0.337016433 -0.797282338
vn 0.0958813354 0.111057669 -0.989178002
vn 0.416337878 0.52794528 0.740227401
vn 0.123325832 0.52206552 0.843942106
vn 0.140576914 0.189137667 0.971835911
vn -0.198989958 -0.55616194 0.806899607
vn -0.124350123 -0.606585741 0.785233021
vn -0.172959507 -0.357908219 0.917598307
vn -0.0205607563 0.614495099 -0.788652658
vn -0.225586846 0.500438452 -0.835865974
vn -0.172677517 0.714140415 -0.678370059
vn -0.297186226 -0.735990167 0.608275235
vn -0.147885814 -0.919288456 0.364744306
vn -0.242092118 -0.615798295 0.749789238
vn 0.990025759 0.0711169988 0.121619835
vn 0.949681878 0.242059931 0.198774502
vn 0.992706239 0.12053299 -0.00247075944
vn 0.290901721 -0.660916805 0.691784084
vn 0.205746129 -0.479124367 0.853292704
vn 0.0519971177 -0.908797383 0.413985074
vn -0.172677517 0.714140415 -0.678370059
vn -0.15176554 0.840822339 -0.519600809
vn -0.0152438814 0.735795319 -0.677032471
vn -0.584783792 -0.160373285 0.795178175
vn -0.87763685 0.119129874 0.464286178
vn -0.597535849 -0.453191012 0.661489785
vn -0.622200787 -0.46592328 -0.629111767
vn -0.688280225 0.0424498729 -0.724201918
vn -0.468535036 -0.401186556 -0.787098587
vn 0.156425506 0.525700688 -0.836163759
vn 0.0917097777 0.829343975 -0.551160395
vn -0.037381392 0.645715773 -0.762662232
vn 0.205746129 -0.479124367 0.853292704
vn 0.0221251696 -0.154794648 0.987698913
vn -0.0177815985 -0.542727709 0.839720428
vn -0.358990371 0.813719988 -0.457149655
vn -0.455666572 0.878997862 -0.140465751
vn -0.24585776 0.948569238 -0.199424803
vn 0.665400922 0.238350824 -0.707411051
vn 0.508847058 0.343160361 -0.789503336
vn 0.520262361 0.437042236 -0.733703792
vn 0.239852071 0.732379436 0.637252986
vn 0.476620138 0.662710547 0.577622771
vn 0.204608053 0.872008741 0.444675326
vn 0.252083153 0.63102901 -0.733659625
vn 0.500760376 0.337016433 -0.797282338
vn 0.156425506 0.525700688 -0.836163759
vn 0.780768514 0.155758724 0.60509479
vn 0.416337878 0.52794528 0.740227401
vn 0.497373551 -0.11891032 0.859348595
vn 0.497373551 -0.11891032 0.859348595
vn 0.416337878 0.52794528 0.740227401
vn 0.195261195 0.369583905 0.908449709
vn 0.649085581 0.674403191 -0.351949036
vn 0.47967571 0.648799777 -0.590736866
vn 0.398268044 0.786090672 -0.472698569
vn -0.860567153 0.499268621 0.10077256
vn -0.940170705 0.271236241 0.206179589
vn -0.665370047 0.555463254 0.498741597
vn -0.0120004034 0.0102620786 -0.999875426
vn -0.00135386398 -0.510414302 -0.859927535
vn -0.15437746 -0.19978644 -0.967601657
vn 0.891052902 0.125549972 0.436190188
vn 0.788407207 0.174272135 0.589951873
vn 0.911730826 0.33379519 0.23943232
vn -0.9825629 -0.1492901 0.110827498
vn -0.671557188 -0.739251614 -0.0501795448
vn -0.639816403 -0.758852899 0.121561766
vn 0.252083153 0.63102901 -0.733659625
vn 0.0421842039 0.592645228 -0.804358184
vn 0.236422554 0.469907373 -0.850465417
vn -0.862033427 -0.174215421 0.47597006
vn -0.940170705 0.271236241 0.206179589
vn -0.9825629 -0.1492901 0.110827498
vn -0.940170705 0.271236241 0.206179589
vn -0.984309971 0.143635944 -0.10248176
vn -0.9825629 -0.1492901 0.110827498
vn 0.557417989 0.643667877 0.524382353
vn 0.62687546 0.664912224 0.406102031
vn 0.476620138 0.662710547 0.577622771
vn 0.601241946 0.784725964 -0.150709167
vn 0.385075003 0.922826529 -0.01041127
vn 0.711850882 0.692268133 0.118461423
vn -0.242092118 -0.615798295 0.749789238
vn -0.351698518 -0.551568806 0.756359756
vn -0.297186226 -0.735990167 0.608275235
vn -0.24585776 0.948569238 -0.199424803
vn -0.185578465 0.971964777 0.144378692
vn -0.084492363 0.988815606 0.12290208
vn 0.665400922 0.238350824 -0.707411051
vn 0.835891068 0.315030962 -0.449490398
vn 0.825544775 -0.303923696 -0.475506216
vn 0.51667124 0.810181379 0.276869893
vn 0.385075003 0.922826529 -0.01041127
vn 0.34176597 0.855608523 0.388754427
vn 0.51667124 0.810181379 0.276869893
vn 0.595646024 0.708267152 0.378897667
vn 0.711850882 0.692268133 0.118461423
vn -0.622200787 -0.46592328 -0.629111767
vn -0.232724816 -0.895698726 -0.378897101
vn -0.574523449 -0.59727031 -0.559634686
vn 0.140576914 0.189137667 0.971835911
vn 0.123325832 0.52206552 0.843942106
vn -0.133333519 -0.045318529 0.99003458
vn -0.402301282 0.84903127 0.342490077
vn -0.220930293 0.710613728 0.667995393
vn -0.074513562 0.839097381 0.538853586
vn -0.882699668 -0.0882798135 -0.461571097
vn -0.688280225 0.0424498729 -0.724201918
vn -0.622200787 -0.46592328 -0.629111767
vn 0.508847058 0.343160361 -0.789503336
vn 0.500760376 0.337016433 -0.797282338
vn 0.252083153 0.63102901 -0.733659625
vn 0.508847058 0.343160361 -0.789503336
vn 0.252083153 0.63102901 -0.733659625
vn 0.236422554 0.469907373 -0.850465417
vn -0.351698518 -0.551568806 0.756359756
vn -0.411088914 -0.482396662 0.773498118
vn -0.297186226 -0.735990167 0.608275235
vn -0.559978843 0.316231251 0.765781701
vn -0.751844585 0.362806797 0.55054611
vn -0.87763685 0.119129874 0.464286178
vn 0.0118823955 0.979080677 -0.203125268
vn -0.0711559504 0.963623405 -0.257617265
vn 0.062339779 0.994258821 -0.0869665146
vn 0.156425506 0.525700688 -0.836163759
vn 0.106881276 0.279535651 -0.954167843
vn -0.125676349 0.399227858 -0.908197463
vn 0.123325832 0.52206552 0.843942106
vn 0.416337878 0.52794528 0.740227401
vn 0.390877068 0.67640537 0.62425226
vn -0.232724816 -0.895698726 -0.378897101
vn -0.622200787 -0.46592328 -0.629111767
vn -0.468535036 -0.401186556 -0.787098587
vn -0.860567153 0.499268621 0.10077256
vn -0.602104187 0.672179103 0.430866212
vn -0.559684932 0.827479362 0.0450631902
vn -0.399675995 0.26660338 -0.877030015
vn -0.396555275 -0.124747798 -0.909495413
vn -0.688280225 0.0424498729 -0.724201918
vn -0.688280225 0.0424498729 -0.724201918
vn -0.6096071 0.354392529 -0.709073365
vn -0.399675995 0.26660338 -0.877030015
vn -0.584783792 -0.160373285 0.795178175
vn -0.351698518 -0.551568806 0.756359756
vn -0.291548014 -0.371960908 0.881274581
vn 0.535942554 -0.4282116 -0.727599144
vn 0.557051659 -0.422934592 -0.714716554
vn 0.825544775 -0.303923696 -0.475506216
vn 0.721451879 -0.346838534 -0.599341452
vn 0.665400922 0.238350824 -0.707411051
vn 0.825544775 -0.303923696 -0.475506216
vn 0.780768514 0.155758724 0.60509479
vn 0.785855532 -0.220969915 0.577584088
vn 0.891052902 0.125549972 0.436190188
vn 0.970745385 0.0383233428 -0.23703292
vn 0.88560462 -0.0459675267 -0.462159425
vn 0.732423782 -0.439331293 -0.520137966
vn 0.0118823955 0.979080677 -0.203125268
vn 0.062339779 0.994258821 -0.0869665146
vn 0.131089106 0.910327733 -0.392580062
vn -0.402301282 0.84903127 0.342490077
vn -0.559684932 0.827479362 0.0450631902
vn -0.629044414 0.722497821 0.286879897
vn 0.711850882 0.692268133 0.118461423
vn 0.935642779 0.28036347 0.21440348
vn 0.896613181 0.4178693 -0.146527171
vn -0.0840892643 0.996391356 0.0115445433
vn -0.24585776 0.948569238 -0.199424803
vn -0.084492363 0.988815606 0.12290208
vn -0.455666572 0.878997862 -0.140465751
vn -0.559684932 0.827479362 0.0450631902
vn -0.24585776 0.948569238 -0.199424803
vn 0.398268044 0.786090672 -0.472698569
vn 0.131089106 0.910327733 -0.392580062
vn 0.302191436 0.92187655 -0.242536634
vn -0.172677517 0.714140415 -0.678370059
vn -0.418211699 0.589707673 -0.690900862
vn -0.508350849 0.699020803 -0.502940714
vn -0.00543511659 0.99931848 0.0365112573
vn -0.084492363 0.988815606 0.12290208
vn 0.0103023443 0.966171861 0.257693291
vn -0.396555275 -0.124747798 -0.909495413
vn -0.201345921 0.161411464 -0.966129422
vn -0.200223833 -0.18661198 -0.961814046
vn -0.399675995 0.26660338 -0.877030015
vn -0.201345921 0.161411464 -0.966129422
vn -0.396555275 -0.124747798 -0.909495413
vn -0.296763152 0.504586875 0.810754955
vn -0.220930293 0.710613728 0.667995393
vn -0.402301282 0.84903127 0.342490077
vn 0.557417989 0.643667877 0.524382353
vn 0.849396467 0.297777742 0.435722381
vn 0.778467059 0.49225539 0.389453053
vn 0.557417989 0.643667877 0.524382353
vn 0.778467059 0.49225539 0.389453053
vn 0.62687546 0.664912224 0.406102031
vn 0.500760376 0.337016433 -0.797282338
vn 0.106881276 0.279535651 -0.954167843
vn 0.156425506 0.525700688 -0.836163759
vn -0.860567153 0.499268621 0.10077256
vn -0.757293284 0.644277573 -0.106833048
vn -0.905121028 0.392546654 -0.163288295
vn 0.390877068 0.67640537 0.62425226
vn 0.476620138 0.662710547 0.577622771
vn 0.239852071 0.732379436 0.637252986
vn -0.905121028 0.392546654 -0.163288295
vn -0.899962962 0.241259113 -0.363126427
vn -0.984309971 0.143635944 -0.10248176
vn 0.896613181 0.4178693 -0.146527171
vn 0.733336151 0.520634115 -0.437216461
vn 0.601241946 0.784725964 -0.150709167
vn 0.0221251696 -0.154794648 0.987698913
vn -0.584783792 -0.160373285 0.795178175
vn -0.172959507 -0.357908219 0.917598307
vn 0.239852071 0.732379436 0.637252986
vn 0.123325832 0.52206552 0.843942106
vn 0.390877068 0.67640537 0.62425226
vn 0.835891068 0.315030962 -0.449490398
vn 0.520262361 0.437042236 -0.733703792
vn 0.733336151 0.520634115 -0.437216461
vn -0.063765645 -0.908212841 0.413622379
vn 0.0519971177 -0.908797383 0.413985074
vn -0.0177815985 -0.542727709 0.839720428
vn -0.15176554 0.840822339 -0.519600809
vn -0.24585776 0.948569238 -0.199424803
vn 0.0145819783 0.903200865 -0.428970277
vn 0.711850882 0.692268133 0.118461423
vn 0.780791759 0.546767473 0.302340209
vn 0.935642779 0.28036347 0.21440348
vn -0.173119307 -0.685735345 -0.706963122
vn -0.468535036 -0.401186556 -0.787098587
vn -0.302152693 -0.474217862 -0.826934814
vn 0.062339779 0.994258821 -0.0869665146
vn 0.302191436 0.92187655 -0.242536634
vn 0.131089106 0.910327733 -0.392580062
vn 0.0221251696 -0.154794648 0.987698913
vn 0.205746129 -0.479124367 0.853292704
vn 0.497373551 -0.11891032 0.859348595
vn 0.195261195 0.369583905 0.908449709
vn 0.0221251696 -0.154794648 0.987698913
vn 0.497373551 -0.11891032 0.859348595
vn 0.825544775 -0.303923696 -0.475506216
vn 0.557051659 -0.422934592 -0.714716554
vn 0.721451879 -0.346838534 -0.599341452
vn -0.992654562 -0.0551092885 -0.107702754
vn -0.65249908 -0.718888879 -0.23967427
vn -0.671557188 -0.739251614 -0.0501795448
vn 0.123325832 0.52206552 0.843942106
vn -0.220930293 0.710613728 0.667995393
vn -0.296763152 0.504586875 0.810754955
vn 0.780791759 0.546767473 0.302340209
vn 0.62687546 0.664912224 0.406102031
vn 0.778467059 0.49225539 0.389453053
vn 0.595646024 0.708267152 0.378897667
vn 0.62687546 0.664912224 0.406102031
vn 0.711850882 0.692268133 0.118461423
vn -0.862033427 -0.174215421 0.47597006
vn -0.9825629 -0.1492901 0.110827498
vn -0.869622171 -0.343111545 0.355009496
vn 0.780791759 0.546767473 0.302340209
vn 0.778467059 0.49225539 0.389453053
vn 0.935642779 0.28036347 0.21440348
vn -0.656822383 -0.631171584 0.412561178
vn -0.297928244 -0.864276052 0.405296832
vn -0.597535849 -0.453191012 0.661489785
vn 0.156425506 0.525700688 -0.836163759
vn -0.125676349 0.399227858 -0.908197463
vn -0.0205607563 0.614495099 -0.788652658
vn 0.530713558 -0.660459638 -0.531164944
vn 0.535942554 -0.4282116 -0.727599144
vn 0.478608996 -0.78250742 -0.398265749
vn 0.478608996 -0.78250742 -0.398265749
vn 0.535942554 -0.4282116 -0.727599144
vn 0.363175452 -0.899677217 -0.242248714
vn 0.140576914 0.189137667 0.971835911
vn 0.0221251696 -0.154794648 0.987698913
vn 0.195261195 0.369583905 0.908449709
vn -0.302152693 -0.474217862 -0.826934814
vn -0.200223833 -0.18661198 -0.961814046
vn -0.173119307 -0.685735345 -0.706963122
vn -0.26730296 -0.120719045 0.956020951
vn -0.296763152 0.504586875 0.810754955
vn -0.559978843 0.316231251 0.765781701
vn -0.355729491 0.216196299 0.909239054
vn -0.26730296 -0.120719045 0.956020951
vn -0.559978843 0.316231251 0.765781701
vn -0.468535036 -0.401186556 -0.787098587
vn -0.396555275 -0.124747798 -0.909495413
vn -0.302152693 -0.474217862 -0.826934814
vn 0.992706239 0.12053299 -0.00247075944
vn 0.911730826 0.33379519 0.23943232
vn 0.985307693 0.0247961525 -0.168979183
vn -0.9825629 -0.1492901 0.110827498
vn -0.984309971 0.143635944 -0.10248176
vn -0.992654562 -0.0551092885 -0.107702754
vn 0.508847058 0.343160361 -0.789503336
vn 0.236422554 0.469907373 -0.850465417
vn 0.520262361 0.437042236 -0.733703792
vn 0.51667124 0.810181379 0.276869893
vn 0.476620138 0.662710547 0.577622771
vn 0.595646024 0.708267152 0.378897667
vn -0.869622171 -0.343111545 0.355009496
vn -0.9825629 -0.1492901 0.110827498
vn -0.882120132 -0.39677009 0.253845811
vn -0.633840442 0.731848478 -0.250288099
vn -0.559684932 0.827479362 0.0450631902
vn -0.455666572 0.878997862 -0.140465751
vn -0.882699668 -0.0882798135 -0.461571097
vn -0.899962962 0.241259113 -0.363126427
vn -0.688280225 0.0424498729 -0.724201918
vn -0.0152438814 0.735795319 -0.677032471
vn -0.15176554 0.840822339 -0.519600809
vn 0.0145819783 0.903200865 -0.428970277
vn -0.882120132 -0.39677009 0.253845811
vn -0.639816403 -0.758852899 0.121561766
vn -0.656822383 -0.631171584 0.412561178
vn -0.128823653 -0.73589927 0.664722979
vn -0.063765645 -0.908212841 0.413622379
vn -0.198989958 -0.55616194 0.806899607
vn 0.62687546 0.664912224 0.406102031
vn 0.780791759 0.546767473 0.302340209
vn 0.711850882 0.692268133 0.118461423
vn -0.629044414 0.722497821 0.286879897
vn -0.665370047 0.555463254 0.498741597
vn -0.402301282 0.84903127 0.342490077
vn -0.788841069 0.526125312 -0.317682296
vn -0.905121028 0.392546654 -0.163288295
vn -0.757293284 0.644277573 -0.106833048
vn 0.0221251696 -0.154794648 0.987698913
vn -0.133333519 -0.045318529 0.99003458
vn -0.355729491 0.216196299 0.909239054
vn -0.172677517 0.714140415 -0.678370059
vn -0.508350849 0.699020803 -0.502940714
vn -0.358990371 0.813719988 -0.457149655
vn -0.172677517 0.714140415 -0.678370059
vn -0.358990371 0.813719988 -0.457149655
vn -0.15176554 0.840822339 -0.519600809
vn -0.584783792 -0.160373285 0.795178175
vn -0.291548014 -0.371960908 0.881274581
vn -0.240571663 -0.277886868 0.930002213
vn -0.351698518 -0.551568806 0.756359756
vn -0.584783792 -0.160373285 0.795178175
vn -0.411088914 -0.482396662 0.773498118
vn 0.911730826 0.33379519 0.23943232
vn 0.788407207 0.174272135 0.589951873
vn 0.645081341 -0.63713026 0.421823561
vn -0.24585776 0.948569238 -0.199424803
vn -0.402301282 0.84903127 0.342490077
vn -0.185578465 0.971964777 0.144378692
vn 0.62687546 0.664912224 0.406102031
vn 0.595646024 0.708267152 0.378897667
vn 0.476620138 0.662710547 0.577622771
vn -0.788841069 0.526125312 -0.317682296
vn -0.757293284 0.644277573 -0.106833048
vn -0.633840442 0.731848478 -0.250288099
vn 0.935642779 0.28036347 0.21440348
vn 0.849396467 0.297777742 0.435722381
vn 0.990025759 0.0711169988 0.121619835
vn -0.87763685 0.119129874 0.464286178
vn -0.940170705 0.271236241 0.206179589
vn -0.862033427 -0.174215421 0.47597006
vn -0.200223833 -0.18661198 -0.961814046
vn -0.15437746 -0.19978644 -0.967601657
vn -0.173119307 -0.685735345 -0.706963122
vn -0.665370047 0.555463254 0.498741597
vn -0.87763685 0.119129874 0.464286178
vn -0.751844585 0.362806797 0.55054611
vn -0.905121028 0.392546654 -0.163288295
vn -0.788841069 0.526125312 -0.317682296
vn -0.899962962 0.241259113 -0.363126427
vn -0.905121028 0.392546654 -0.163288295
vn -0.984309971 0.143635944 -0.10248176
vn -0.860567153 0.499268621 0.10077256
vn -0.899962962 0.241259113 -0.363126427
vn -0.741239309 0.4289487 -0.516301632
vn -0.688280225 0.0424498729 -0.724201918
vn 0.476620138 0.662710547 0.577622771
vn 0.390877068 0.67640537 0.62425226
vn 0.557417989 0.643667877 0.524382353
vn -0.992654562 -0.0551092885 -0.107702754
vn -0.882699668 -0.0882798135 -0.461571097
vn -0.65249908 -0.718888879 -0.23967427
vn -0.173119307 -0.685735345 -0.706963122
vn -0.0917511359 -0.82120049 -0.563215375
vn -0.0487130359 -0.98244226 -0.180094853
vn 0.317863226 -0.305179983 -0.897679329
vn 0.500760376 0.337016433 -0.797282338
vn 0.535942554 -0.4282116 -0.727599144
vn 0.0519971177 -0.908797383 0.413985074
vn 0.205746129 -0.479124367 0.853292704
vn -0.0177815985 -0.542727709 0.839720428
vn 0.896613181 0.4178693 -0.146527171
vn 0.935642779 0.28036347 0.21440348
vn 0.990025759 0.0711169988 0.121619835
vn 0.236422554 0.469907373 -0.850465417
vn 0.0366305821 0.661357939 -0.749175429
vn 0.187282711 0.71778214 -0.670607269
vn -0.173119307 -0.685735345 -0.706963122
vn -0.15437746 -0.19978644 -0.967601657
vn -0.0917511359 -0.82120049 -0.563215375
vn 0.665400922 0.238350824 -0.707411051
vn 0.721451879 -0.346838534 -0.599341452
vn 0.557051659 -0.422934592 -0.714716554
vn 0.204608053 0.872008741 0.444675326
vn 0.34176597 0.855608523 0.388754427
vn 0.0103023443 0.966171861 0.257693291
vn 0.131089106 0.910327733 -0.392580062
vn -0.0152438814 0.735795319 -0.677032471
vn 0.0145819783 0.903200865 -0.428970277
vn 0.51667124 0.810181379 0.276869893
vn 0.34176597 0.855608523 0.388754427
vn 0.476620138 0.662710547 0.577622771
vn 0.171949148 0.984769464 0.0257408712
vn 0.152602538 0.981629968 0.114520952
vn 0.385075003 0.922826529 -0.01041127
vn -0.860567153 0.499268621 0.10077256
vn -0.984309971 0.143635944 -0.10248176
vn -0.940170705 0.271236241 0.206179589
vn 0.985307693 0.0247961525 -0.168979183
vn 0.72504127 -0.679972887 0.109324925
vn 0.921988666 -0.374321878 0.0990957841
vn 0.252083153 0.63102901 -0.733659625
vn 0.156425506 0.525700688 -0.836163759
vn -0.037381392 0.645715773 -0.762662232
vn 0.252083153 0.63102901 -0.733659625
vn -0.037381392 0.645715773 -0.762662232
vn 0.0421842039 0.592645228 -0.804358184
vn 0.497373551 -0.11891032 0.859348595
vn 0.785855532 -0.220969915 0.577584088
vn 0.780768514 0.155758724 0.60509479
vn -0.291548014 -0.371960908 0.881274581
vn -0.351698518 -0.551568806 0.756359756
vn -0.242092118 -0.615798295 0.749789238
vn -0.741239309 0.4289487 -0.516301632
vn -0.418211699 0.589707673 -0.690900862
vn -0.6096071 0.354392529 -0.709073365
vn -0.508350849 0.699020803 -0.502940714
vn -0.633840442 0.731848478 -0.250288099
vn -0.455666572 0.878997862 -0.140465751
vn 0.376821756 -0.857870817 -0.34937501
vn 0.363175452 -0.899677217 -0.242248714
vn 0.732423782 -0.439331293 -0.520137966
vn 0.062339779 0.994258821 -0.0869665146
vn -0.24585776 0.948569238 -0.199424803
vn -0.0840892643 0.996391356 0.0115445433
vn 0.785855532 -0.220969915 0.577584088
vn 0.497373551 -0.11891032 0.859348595
vn 0.649723411 -0.191204399 0.735731125
vn -0.063765645 -0.908212841 0.413622379
vn -0.124350123 -0.606585741 0.785233021
vn -0.198989958 -0.55616194 0.806899607
vn 0.34176597 0.855608523 0.388754427
vn 0.204608053 0.872008741 0.444675326
vn 0.476620138 0.662710547 0.577622771
vn -0.399675995 0.26660338 -0.877030015
vn -0.225586846 0.500438452 -0.835865974
vn -0.201345921 0.161411464 -0.966129422
vn -0.00135386398 -0.510414302 -0.859927535
vn -0.0120004034 0.0102620786 -0.999875426
vn 0.317863226 -0.305179983 -0.897679329
vn 0.985307693 0.0247961525 -0.168979183
vn 0.911730826 0.33379519 0.23943232
vn 0.72504127 -0.679972887 0.109324925
vn -0.688280225 0.0424498729 -0.724201918
vn -0.396555275 -0.124747798 -0.909495413
vn -0.468535036 -0.401186556 -0.787098587
vn -0.882120132 -0.39677009 0.253845811
vn -0.656822383 -0.631171584 0.412561178
vn -0.869622171 -0.343111545 0.355009496
vn 0.123325832 0.52206552 0.843942106
vn -0.074513562 0.839097381 0.538853586
vn -0.220930293 0.710613728 0.667995393
vn 0.711850882 0.692268133 0.118461423
vn 0.385075003 0.922826529 -0.01041127
vn 0.51667124 0.810181379 0.276869893
vn -0.882699668 -0.0882798135 -0.461571097
vn -0.622200787 -0.46592328 -0.629111767
vn -0.727232099 -0.408112228 -0.551885784
vn -0.882699668 -0.0882798135 -0.461571097
vn -0.727232099 -0.408112228 -0.551885784
vn -0.65249908 -0.718888879 -0.23967427
vn 0.062339779 0.994258821 -0.0869665146
vn -0.0840892643 0.996391356 0.0115445433
vn -0.084492363 0.988815606 0.12290208
vn 0.535942554 -0.4282116 -0.727599144
vn 0.825544775 -0.303923696 -0.475506216
vn 0.815197349 -0.472110569 -0.335506946
vn 0.992706239 0.12053299 -0.00247075944
vn 0.949681878 0.242059931 0.198774502
vn 0.911730826 0.33379519 0.23943232
vn 0.520262361 0.437042236 -0.733703792
vn 0.835891068 0.315030962 -0.449490398
vn 0.665400922 0.238350824 -0.707411051
vn -0.172677517 0.714140415 -0.678370059
vn -0.225586846 0.500438452 -0.835865974
vn -0.418211699 0.589707673 -0.690900862
vn 0.236422554 0.469907373 -0.850465417
vn 0.47967571 0.648799777 -0.590736866
vn 0.520262361 0.437042236 -0.733703792
vn 0.849396467 0.297777742 0.435722381
vn 0.891052902 0.125549972 0.436190188
vn 0.949681878 0.242059931 0.198774502
vn -0.128823653 -0.73589927 0.664722979
vn -0.198989958 -0.55616194 0.806899607
vn -0.240571663 -0.277886868 0.930002213
vn -0.992654562 -0.0551092885 -0.107702754
vn -0.984309971 0.143635944 -0.10248176
vn -0.882699668 -0.0882798135 -0.461571097
vn 0.649085581 0.674403191 -0.351949036
vn 0.398268044 0.786090672 -0.472698569
vn 0.601241946 0.784725964 -0.150709167
vn 0.302191436 0.92187655 -0.242536634
vn 0.062339779 0.994258821 -0.0869665146
vn 0.171949148 0.984769464 0.0257408712
vn 0.0145819783 0.903200865 -0.428970277
vn 0.0118823955 0.979080677 -0.203125268
vn 0.131089106 0.910327733 -0.392580062
vn 0.0145819783 0.903200865 -0.428970277
vn -0.0711559504 0.963623405 -0.257617265
vn 0.0118823955 0.979080677 -0.203125268
vn 0.204608053 0.872008741 0.444675326
vn -0.074513562 0.839097381 0.538853586
vn 0.239852071 0.732379436 0.637252986
vn -0.402301282 0.84903127 0.342490077
vn -0.117775828 0.954860508 0.272709191
vn -0.185578465 0.971964777 0.144378692
vn -0.00135386398 -0.510414302 -0.859927535
vn 0.174823791 -0.904285014 -0.389493585
vn -0.0917511359 -0.82120049 -0.563215375
vn 0.896613181 0.4178693 -0.146527171
vn 0.601241946 0.784725964 -0.150709167
vn 0.711850882 0.692268133 0.118461423
vn -0.788841069 0.526125312 -0.317682296
vn -0.633840442 0.731848478 -0.250288099
vn -0.508350849 0.699020803 -0.502940714
vn 0.171949148 0.984769464 0.0257408712
vn -0.00543511659 0.99931848 0.0365112573
vn 0.0103023443 0.966171861 0.257693291
vn -0.862033427 -0.174215421 0.47597006
vn -0.869622171 -0.343111545 0.355009496
vn -0.656822383 -0.631171584 0.412561178
vn -0.508350849 0.699020803 -0.502940714
vn -0.741239309 0.4289487 -0.516301632
vn -0.788841069 0.526125312 -0.317682296
vn 0.236422554 0.469907373 -0.850465417
vn 0.187282711 0.71778214 -0.670607269
vn 0.47967571 0.648799777 -0.590736866
vn 0.682815731 -0.551655352 -0.478998154
vn 0.88560462 -0.0459675267 -0.462159425
vn 0.985307693 0.0247961525 -0.168979183
vn 0.733336151 0.520634115 -0.437216461
vn 0.47967571 0.648799777 -0.590736866
vn 0.649085581 0.674403191 -0.351949036
vn -0.358990371 0.813719988 -0.457149655
vn -0.508350849 0.699020803 -0.502940714
vn -0.455666572 0.878997862 -0.140465751
vn -0.133333519 -0.045318529 0.99003458
vn -0.26730296 -0.120719045 0.956020951
vn -0.355729491 0.216196299 0.909239054
vn 0.0366305821 0.661357939 -0.749175429
vn 0.0933764428 0.732597351 -0.67422694
vn -0.0152438814 0.735795319 -0.677032471
vn 0.0366305821 0.661357939 -0.749175429
vn -0.037381392 0.645715773 -0.762662232
vn 0.0933764428 0.732597351 -0.67422694
vn 0.601241946 0.784725964 -0.150709167
vn 0.733336151 0.520634115 -0.437216461
vn 0.649085581 0.674403191 -0.351949036
vn -0.00135386398 -0.510414302 -0.859927535
vn 0.317863226 -0.305179983 -0.897679329
vn 0.174823791 -0.904285014 -0.389493585
vn 0.557417989 0.643667877 0.524382353
vn 0.416337878 0.52794528 0.740227401
vn 0.849396467 0.297777742 0.435722381
vn -0.133333519 -0.045318529 0.99003458
vn 0.123325832 0.52206552 0.843942106
vn -0.296763152 0.504586875 0.810754955
vn -0.172959507 -0.357908219 0.917598307
vn -0.240571663 -0.277886868 0.930002213
vn -0.198989958 -0.55616194 0.806899607
vn -0.788841069 0.526125312 -0.317682296
vn -0.741239309 0.4289487 -0.516301632
vn -0.899962962 0.241259113 -0.363126427
vn 0.152602538 0.981629968 0.114520952
vn 0.0103023443 0.966171861 0.257693291
vn 0.34176597 0.855608523 0.388754427
vn 0.152602538 0.981629968 0.114520952
vn 0.171949148 0.984769464 0.0257408712
vn 0.0103023443 0.966171861 0.257693291
vn 0.062339779 0.994258821 -0.0869665146
vn -0.00543511659 0.99931848 0.0365112573
vn 0.171949148 0.984769464 0.0257408712
vn -0.584783792 -0.160373285 0.795178175
vn -0.597535849 -0.453191012 0.661489785
vn -0.411088914 -0.482396662 0.773498118
vn -0.860567153 0.499268621 0.10077256
vn -0.559684932 0.827479362 0.0450631902
vn -0.757293284 0.644277573 -0.106833048
vn 0.411301583 -0.487874508 0.76994127
vn 0.645081341 -0.63713026 0.421823561
vn 0.788407207 0.174272135 0.589951873
vn -0.26730296 -0.120719045 0.956020951
vn -0.133333519 -0.045318529 0.99003458
vn -0.296763152 0.504586875 0.810754955
vn -0.201345921 0.161411464 -0.966129422
vn 0.106881276 0.279535651 -0.954167843
vn -0.0120004034 0.0102620786 -0.999875426
vn 0.106881276 0.279535651 -0.954167843
vn 0.0958813354 0.111057669 -0.989178002
vn -0.0120004034 0.0102620786 -0.999875426
vn -0.0177815985 -0.542727709 0.839720428
vn -0.124350123 -0.606585741 0.785233021
vn -0.063765645 -0.908212841 0.413622379
vn -0.984309971 0.143635944 -0.10248176
vn -0.899962962 0.241259113 -0.363126427
vn -0.882699668 -0.0882798135 -0.461571097
vn -0.0120004034 0.0102620786 -0.999875426
vn -0.15437746 -0.19978644 -0.967601657
vn -0.200223833 -0.18661198 -0.961814046
vn 0.835891068 0.315030962 -0.449490398
vn 0.733336151 0.520634115 -0.437216461
vn 0.970745385 0.0383233428 -0.23703292
vn 0.0421842039 0.592645228 -0.804358184
vn -0.037381392 0.645715773 -0.762662232
vn 0.0366305821 0.661357939 -0.749175429
vn 0.0221251696 -0.154794648 0.987698913
vn -0.172959507 -0.357908219 0.917598307
vn -0.0177815985 -0.542727709 0.839720428
vn 0.205746129 -0.479124367 0.853292704
vn 0.649723411 -0.191204399 0.735731125
vn 0.497373551 -0.11891032 0.859348595
vn -0.0205607563 0.614495099 -0.788652658
vn 0.0917097777 0.829343975 -0.551160395
vn 0.156425506 0.525700688 -0.836163759
vn -0.0487130359 -0.98244226 -0.180094853
vn 0.363175452 -0.899677217 -0.242248714
vn -0.0705037266 -0.979790866 0.187187493
vn 0.363175452 -0.899677217 -0.242248714
vn -0.0313514732 -0.997551084 0.0625216439
vn -0.0705037266 -0.979790866 0.187187493
vn 0.127361134 -0.989350259 -0.0704632625
vn 0.682815731 -0.551655352 -0.478998154
vn 0.921988666 -0.374321878 0.0990957841
vn -0.0705037266 -0.979790866 0.187187493
vn -0.0313514732 -0.997551084 0.0625216439
vn -0.147885814 -0.919288456 0.364744306
vn 0.363175452 -0.899677217 -0.242248714
vn 0.127361134 -0.989350259 -0.0704632625
vn 0.645081341 -0.63713026 0.421823561
vn -0.671557188 -0.739251614 -0.0501795448
vn -0.0487130359 -0.98244226 -0.180094853
vn -0.0705037266 -0.979790866 0.187187493
vn -0.128823653 -0.73589927 0.664722979
vn -0.0313514732 -0.997551084 0.0625216439
vn -0.063765645 -0.908212841 0.413622379
vn -0.671557188 -0.739251614 -0.0501795448
vn -0.0705037266 -0.979790866 0.187187493
vn -0.297928244 -0.864276052 0.405296832
vn -0.297928244 -0.864276052 0.405296832
vn -0.0705037266 -0.979790866 0.187187493
vn -0.297186226 -0.735990167 0.608275235
vn -0.0313514732 -0.997551084 0.0625216439
vn 0.363175452 -0.899677217 -0.242248714
vn 0.645081341 -0.63713026 0.421823561
vn -0.468535036 -0.401186556 -0.787098587
vn -0.173119307 -0.685735345 -0.706963122
vn -0.232724816 -0.895698726 -0.378897101
vn -0.232724816 -0.895698726 -0.378897101
vn -0.0487130359 -0.98244226 -0.180094853
vn -0.671557188 -0.739251614 -0.0501795448
vn -0.147885814 -0.919288456 0.364744306
vn -0.0313514732 -0.997551084 0.0625216439
vn -0.128823653 -0.73589927 0.664722979
vn 0.127361134 -0.989350259 -0.0704632625
vn 0.72504127 -0.679972887 0.109324925
vn 0.645081341 -0.63713026 0.421823561
vn 0.530713558 -0.660459638 -0.531164944
vn 0.478608996 -0.78250742 -0.398265749
vn 0.174823791 -0.904285014 -0.389493585
vn -0.639816403 -0.758852899 0.121561766
vn -0.671557188 -0.739251614 -0.0501795448
vn -0.297928244 -0.864276052 0.405296832
vn -0.0487130359 -0.98244226 -0.180094853
vn 0.174823791 -0.904285014 -0.389493585
vn 0.363175452 -0.899677217 -0.242248714
vn -0.147885814 -0.919288456 0.364744306
vn -0.128823653 -0.73589927 0.664722979
vn -0.242092118 -0.615798295 0.749789238
vn 0.290901721 -0.660916805 0.691784084
vn 0.0519971177 -0.908797383 0.413985074
vn 0.645081341 -0.63713026 0.421823561
vn -0.173119307 -0.685735345 -0.706963122
vn -0.0487130359 -0.98244226 -0.180094853
vn -0.232724816 -0.895698726 -0.378897101
vn 0.645081341 -0.63713026 0.421823561
vn 0.411301583 -0.487874508 0.76994127
vn 0.290901721 -0.660916805 0.691784084
vn -0.0313514732 -0.997551084 0.0625216439
vn 0.0519971177 -0.908797383 0.413985074
vn -0.063765645 -0.908212841 0.413622379
vn 0.174823791 -0.904285014 -0.389493585
vn 0.478608996 -0.78250742 -0.398265749
vn 0.363175452 -0.899677217 -0.242248714
vn -0.639816403 -0.758852899 0.121561766
vn -0.297928244 -0.864276052 0.405296832
vn -0.656822383 -0.631171584 0.412561178
vn 0.985307693 0.0247961525 -0.168979183
vn 0.921988666 -0.374321878 0.0990957841
vn 0.682815731 -0.551655352 -0.478998154
vn 0.127361134 -0.989350259 -0.0704632625
vn 0.376821756 -0.857870817 -0.34937501
vn 0.682815731 -0.551655352 -0.478998154
vn 0.921988666 -0.374321878 0.0990957841
vn 0.72504127 -0.679972887 0.109324925
vn 0.127361134 -0.989350259 -0.0704632625
vn 0.363175452 -0.899677217 -0.242248714
vn 0.376821756 -0.857870817 -0.34937501
vn 0.127361134 -0.989350259 -0.0704632625
vn 0.174823791 -0.904285014 -0.389493585
vn -0.0487130359 -0.98244226 -0.180094853
vn -0.0917511359 -0.82120049 -0.563215375
vn -0.297186226 -0.735990167 0.608275235
vn -0.0705037266 -0.979790866 0.187187493
vn -0.147885814 -0.919288456 0.364744306
vn -0.574523449 -0.59727031 -0.559634686
vn -0.232724816 -0.895698726 -0.378897101
vn -0.65249908 -0.718888879 -0.23967427
vn -0.65249908 -0.718888879 -0.23967427
vn -0.232724816 -0.895698726 -0.378897101
vn -0.671557188 -0.739251614 -0.0501795448
vn -0.0313514732 -0.997551084 0.0625216439
vn 0.645081341 -0.63713026 0.421823561
vn 0.0519971177 -0.908797383 0.413985074
g Group64035
f 67/1/1 42/2/2 12/3/3
f 108/4/4 31/5/5 19/6/6
f 120/7/7 93/8/8 144/9/9
f 65/10/10 45/11/11 34/12/12
f 21/13/13 71/14/14 39/15/15
f 20/16/16 114/17/17 22/18/18
f 51/19/19 119/20/20 65/21/21
f 70/22/22 97/23/23 94/24/24
f 101/25/25 26/26/26 38/27/27
f 12/28/28 130/29/29 158/30/30
f 47/31/31 51/32/32 29/33/33
f 126/34/34 13/35/35 4/36/36
f 140/37/37 104/38/38 143/39/39
f 115/40/40 39/41/41 42/42/42
f 20/43/43 22/44/44 51/45/45
f 130/46/46 12/47/47 42/48/48
f 119/49/49 110/50/50 65/51/51
f 157/52/52 161/53/53 92/54/54
f 73/55/55 26/56/56 107/57/57
f 3/58/58 118/59/59 49/60/60
f 12/61/61 111/62/62 26/63/63
f 116/64/64 59/65/65 103/66/66
f 82/67/67 154/68/68 88/69/69
f 111/70/70 59/71/71 116/72/72
f 102/73/73 60/74/74 112/75/75
f 30/76/76 39/77/77 63/78/78
f 98/79/79 139/80/80 75/81/81
f 27/82/82 81/83/83 65/84/84
f 34/85/85 27/86/86 65/87/87
f 31/88/88 68/89/89 9/90/90
f 72/91/91 84/92/92 99/93/93
f 72/94/94 99/95/95 43/96/96
f 114/97/97 84/98/98 72/99/99
f 168/100/100 18/101/101 73/102/102
f 74/103/103 105/104/104 55/105/105
f 121/106/106 42/107/107 74/108/108
f 75/109/109 156/110/110 98/111/111
f 102/112/112 56/113/113 15/114/114
f 76/115/115 138/116/116 54/117/117
f 77/118/118 16/119/119 48/120/120
f 79/121/121 49/122/122 28/123/123
f 65/124/124 81/125/125 29/126/126
f 29/127/127 81/128/128 10/129/129
f 66/130/130 95/131/131 1/132/132
f 124/133/133 11/134/134 45/135/135
f 58/136/136 62/137/137 129/138/138
f 57/139/139 149/140/140 144/141/141
f 26/142/142 101/143/143 12/144/144
f 104/145/145 162/146/146 134/147/147
f 93/148/148 90/149/149 57/150/150
f 23/151/151 146/152/152 74/153/153
f 94/154/154 97/155/155 40/156/156
f 156/157/157 15/158/158 98/159/159
f 91/160/160 98/161/161 15/162/162
f 9/163/163 68/164/164 90/165/165
f 41/166/166 51/167/167 47/168/168
f 143/169/169 85/170/170 38/171/171
f 78/172/172 137/173/173 107/174/174
f 108/175/175 19/176/176 16/177/177
f 107/178/178 137/179/179 109/180/180
f 88/181/181 90/182/182 68/183/183
f 130/184/184 50/185/185 111/186/186
f 4/187/187 114/188/188 117/189/189
f 8/190/190 113/191/191 115/192/192
f 160/193/193 115/194/194 128/195/195
f 95/196/196 116/197/197 1/198/198
f 117/199/199 114/200/200 80/201/201
f 28/202/202 118/203/203 7/204/204
f 152/205/205 36/206/206 104/207/207
f 51/208/208 22/209/209 119/210/210
f 97/211/211 70/212/212 120/213/213
f 121/214/214 74/215/215 55/216/216
f 49/217/217 70/218/218 3/219/219
f 11/220/220 68/221/221 31/222/222
f 64/223/223 139/224/224 98/225/225
f 167/226/226 76/227/227 33/228/228
f 94/229/229 126/230/230 62/231/231
f 16/232/232 19/233/233 127/234/234
f 164/235/235 132/236/236 37/237/237
f 144/238/238 93/239/239 57/240/240
f 128/241/241 115/242/242 135/243/243
f 61/244/244 134/245/245 52/246/246
f 69/247/247 130/248/248 21/249/249
f 130/250/250 71/251/251 21/252/252
f 131/253/253 157/254/254 92/255/255
f 84/256/256 4/257/257 13/258/258
f 2/259/259 121/260/260 55/261/261
f 133/262/262 121/263/263 2/264/264
f 134/265/265 56/266/266 27/267/267
f 134/268/268 162/269/269 15/270/270
f 135/271/271 2/272/272 141/273/273
f 40/274/274 84/275/275 13/276/276
f 104/277/277 23/278/278 143/279/279
f 136/280/280 168/281/281 73/282/282
f 120/283/283 70/284/284 93/285/285
f 66/286/286 5/287/287 137/288/288
f 27/289/289 56/290/290 81/291/291
f 139/292/292 64/293/293 86/294/294
f 93/295/295 8/296/296 90/297/297
f 26/298/298 111/299/299 116/300/300
f 161/301/301 7/302/302 125/303/303
f 150/304/304 144/305/305 149/306/306
f 64/307/307 38/308/308 18/309/309
f 113/310/310 147/311/311 115/312/312
f 43/313/313 99/314/314 124/315/315
f 146/316/316 148/317/317 105/318/318
f 53/319/319 84/320/320 150/321/321
f 162/322/322 104/323/323 44/324/324
f 44/325/325 104/326/326 140/327/327
f 83/328/328 11/329/329 31/330/330
f 69/331/331 50/332/332 130/333/333
f 126/334/334 164/335/335 37/336/336
f 15/337/337 156/338/338 102/339/339
f 76/340/340 54/341/341 33/342/342
f 53/343/343 154/344/344 82/345/345
f 59/346/346 50/347/347 76/348/348
f 50/349/349 100/350/350 76/351/351
f 152/352/352 153/353/353 148/354/354
f 108/355/355 16/356/356 25/357/357
f 137/358/358 122/359/359 66/360/360
f 115/361/361 133/362/362 2/363/363
f 43/364/364 110/365/365 119/366/366
f 106/367/367 16/368/368 77/369/369
f 106/370/370 89/371/371 25/372/372
f 161/373/373 24/374/374 92/375/375
f 143/376/376 23/377/377 85/378/378
f 42/379/379 6/380/380 74/381/381
f 151/382/382 7/383/383 161/384/384
f 99/385/385 84/386/386 53/387/387
f 99/388/388 53/389/389 82/390/390
f 122/391/391 95/392/392 66/393/393
f 12/394/394 158/395/395 111/396/396
f 159/397/397 128/398/398 135/399/399
f 150/400/400 40/401/401 97/402/402
f 23/403/403 104/404/404 36/405/405
f 24/406/406 161/407/407 125/408/408
f 69/409/409 21/410/410 39/411/411
f 3/412/412 58/413/413 7/414/414
f 7/415/415 118/416/416 3/417/417
f 26/418/418 122/419/419 78/420/420
f 114/421/421 72/422/422 119/423/423
f 155/424/424 43/425/425 119/426/426
f 162/427/427 91/428/428 15/429/429
f 65/430/430 29/431/431 51/432/432
f 159/433/433 135/434/434 9/435/435
f 42/436/436 39/437/437 71/438/438
f 25/439/439 52/440/440 34/441/441
f 170/442/442 115/443/443 2/444/444
f 147/445/445 39/446/446 115/447/447
f 31/448/448 9/449/449 19/450/450
f 93/451/451 49/452/452 79/453/453
f 141/454/454 2/455/455 55/456/456
f 58/457/457 94/458/458 62/459/459
f 3/460/460 94/461/461 58/462/462
f 67/463/463 6/464/464 42/465/465
f 152/466/466 134/467/467 61/468/468
f 152/469/469 61/470/470 153/471/471
f 84/472/472 40/473/473 150/474/474
f 69/475/475 30/476/476 163/477/477
f 36/478/478 148/479/479 146/480/480
f 163/481/481 14/482/482 100/483/483
f 34/484/484 45/485/485 108/486/486
f 38/487/487 26/488/488 73/489/489
f 146/490/490 23/491/491 36/492/492
f 110/493/493 124/494/494 45/495/495
f 46/496/496 86/497/497 18/498/498
f 8/499/499 115/500/500 160/501/501
f 25/502/502 165/503/503 52/504/504
f 87/505/505 125/506/506 129/507/507
f 135/508/508 19/509/509 9/510/510
f 38/511/511 64/512/512 44/513/513
f 140/514/514 38/515/515 44/516/516
f 119/517/517 72/518/518 155/519/519
f 138/520/520 131/521/521 54/522/522
f 23/523/523 6/524/524 67/525/525
f 165/526/526 153/527/527 61/528/528
f 89/529/529 153/530/530 25/531/531
f 59/532/532 76/533/533 145/534/534
f 165/535/535 61/536/536 52/537/537
f 103/538/538 1/539/539 116/540/540
f 150/541/541 97/542/542 120/543/543
f 80/544/544 114/545/545 35/546/546
f 35/547/547 114/548/548 20/549/549
f 143/550/550 38/551/551 140/552/552
f 129/553/553 62/554/554 87/555/555
f 166/556/556 67/557/557 12/558/558
f 101/559/559 166/560/560 12/561/561
f 125/562/562 58/563/563 129/564/564
f 81/565/565 102/566/566 10/567/567
f 76/568/568 100/569/569 138/570/570
f 99/571/571 82/572/572 124/573/573
f 106/574/574 148/575/575 89/576/576
f 145/577/577 76/578/578 167/579/579
f 63/580/580 39/581/581 147/582/582
f 151/583/583 14/584/584 7/585/585
f 90/586/586 8/587/587 160/588/588
f 167/589/589 33/590/590 103/591/591
f 109/592/592 46/593/593 136/594/594
f 153/595/595 165/596/596 25/597/597
f 71/598/598 130/599/599 42/600/600
f 123/601/601 163/602/602 30/603/603
f 38/604/604 85/605/605 101/606/606
f 93/607/607 79/608/608 113/609/609
f 93/610/610 113/611/611 8/612/612
f 26/613/613 78/614/614 107/615/615
f 122/616/616 26/617/617 95/618/618
f 102/619/619 156/620/620 60/621/621
f 115/622/622 42/623/623 133/624/624
f 153/625/625 89/626/626 148/627/627
f 123/628/628 30/629/629 63/630/630
f 52/631/631 134/632/632 27/633/633
f 111/634/634 50/635/635 59/636/636
f 62/637/637 37/638/638 87/639/639
f 130/640/640 111/641/641 158/642/642
f 163/643/643 123/644/644 14/645/645
f 163/646/646 100/647/647 69/648/648
f 14/649/649 28/650/650 7/651/651
f 148/652/652 36/653/653 152/654/654
f 138/655/655 151/656/656 131/657/657
f 87/658/658 132/659/659 96/660/660
f 4/661/661 84/662/662 114/663/663
f 86/664/664 64/665/665 18/666/666
f 34/667/667 52/668/668 27/669/669
f 82/670/670 88/671/671 68/672/672
f 87/673/673 37/674/674 132/675/675
f 43/676/676 155/677/677 72/678/678
f 105/679/679 77/680/680 55/681/681
f 9/682/682 90/683/683 160/684/684
f 106/685/685 77/686/686 148/687/687
f 127/688/688 48/689/689 16/690/690
f 69/691/691 100/692/692 50/693/693
f 10/694/694 112/695/695 169/696/696
f 53/697/697 150/698/698 149/699/699
f 53/700/700 149/701/701 154/702/702
f 44/703/703 91/704/704 162/705/705
f 78/706/706 122/707/707 137/708/708
f 28/709/709 49/710/710 118/711/711
f 79/712/712 63/713/713 147/714/714
f 41/715/715 20/716/716 51/717/717
f 135/718/718 115/719/719 170/720/720
f 91/721/721 44/722/722 98/723/723
f 46/724/724 168/725/725 136/726/726
f 77/727/727 105/728/728 148/729/729
f 3/730/730 70/731/731 94/732/732
f 164/733/733 126/734/734 4/735/735
f 10/736/736 102/737/737 112/738/738
f 7/739/739 58/740/740 125/741/741
f 167/742/742 103/743/743 145/744/744
f 23/745/745 74/746/746 6/747/747
f 25/748/748 16/749/749 106/750/750
f 151/751/751 161/752/752 157/753/753
f 151/754/754 157/755/755 131/756/756
f 135/757/757 170/758/758 2/759/759
f 114/760/760 119/761/761 22/762/762
f 81/763/763 56/764/764 102/765/765
f 124/766/766 110/767/767 43/768/768
f 93/769/769 70/770/770 49/771/771
f 82/772/772 11/773/773 124/774/774
f 134/775/775 15/776/776 56/777/777
f 109/778/778 136/779/779 107/780/780
f 138/781/781 100/782/782 151/783/783
f 83/784/784 31/785/785 108/786/786
f 19/787/787 135/788/788 127/789/789
f 160/790/790 159/791/791 9/792/792
f 160/793/793 128/794/794 159/795/795
f 105/796/796 74/797/797 146/798/798
f 42/799/799 121/800/800 133/801/801
f 164/802/802 117/803/803 132/804/804
f 34/805/805 108/806/806 25/807/807
f 123/808/808 63/809/809 79/810/810
f 127/811/811 141/812/812 55/813/813
f 59/814/814 145/815/815 103/816/816
f 79/817/817 28/818/818 123/819/819
f 82/820/820 68/821/821 11/822/822
f 47/823/823 29/824/824 10/825/825
f 45/826/826 11/827/827 83/828/828
f 113/829/829 79/830/830 147/831/831
f 85/832/832 166/833/833 101/834/834
f 88/835/835 57/836/836 90/837/837
f 88/838/838 149/839/839 57/840/840
f 108/841/841 45/842/842 83/843/843
f 164/844/844 4/845/845 117/846/846
f 152/847/847 104/848/848 134/849/849
f 85/850/850 23/851/851 67/852/852
f 73/853/853 107/854/854 136/855/855
f 123/856/856 28/857/857 14/858/858
f 48/859/859 55/860/860 77/861/861
f 48/862/862 127/863/863 55/864/864
f 135/865/865 141/866/866 127/867/867
f 26/868/868 116/869/869 95/870/870
f 69/871/871 39/872/872 30/873/873
f 75/874/874 60/875/875 156/876/876
f 166/877/877 85/878/878 67/879/879
f 94/880/880 40/881/881 126/882/882
f 40/883/883 13/884/884 126/885/885
f 18/886/886 168/887/887 46/888/888
f 100/889/889 14/890/890 151/891/891
f 126/892/892 37/893/893 62/894/894
f 110/895/895 45/896/896 65/897/897
f 154/898/898 149/899/899 88/900/900
f 38/901/901 73/902/902 18/903/903
f 64/904/904 98/905/905 44/906/906
f 120/907/907 144/908/908 150/909/909
f 96/910/910 20/911/911 142/912/912
f 20/913/913 17/914/914 142/915/915
f 32/916/916 47/917/917 169/918/918
f 142/919/919 17/920/920 5/921/921
f 20/922/922 32/923/923 60/924/924
f 54/925/925 96/926/926 142/927/927
f 109/928/928 17/929/929 46/930/930
f 54/931/931 142/932/932 1/933/933
f 1/934/934 142/935/935 66/936/936
f 17/937/937 20/938/938 60/939/939
f 125/940/940 87/941/941 24/942/942
f 24/943/943 96/944/944 54/945/945
f 5/946/946 17/947/947 109/948/948
f 32/949/949 112/950/950 60/951/951
f 80/952/952 35/953/953 117/954/954
f 33/955/955 54/956/956 1/957/957
f 96/958/958 117/959/959 20/960/960
f 5/961/961 109/962/962 137/963/963
f 139/964/964 86/965/965 60/966/966
f 87/967/967 96/968/968 24/969/969
f 60/970/970 75/971/971 139/972/972
f 17/973/973 86/974/974 46/975/975
f 117/976/976 35/977/977 20/978/978
f 33/979/979 1/980/980 103/981/981
f 10/982/982 169/983/983 47/984/984
f 32/985/985 41/986/986 47/987/987
f 169/988/988 112/989/989 32/990/990
f 20/991/991 41/992/992 32/993/993
f 117/994/994 96/995/995 132/996/996
f 66/997/997 142/998/998 5/999/999
f 92/1000/1000 24/1001/1001 131/1002/1002
f 131/1003/1003 24/1004/1004 54/1005/1005
f 17/1006/1006 60/1007/1007 86/1008/1008
