# File exported by Houdini 16.5.405 (www.sidefx.com)
# 16 points
# 84 vertices
# 28 primitives
# Bounds: [-24.935461, -0.156113282, -33.7053032] to [23.5931034, 82.0179825, 33.4443436]
g 
v 22.6164665 0.860902131 30.4788132
v -13.8677979 72.5429382 18.2552929
v 23.5931034 45.0084801 -33.7053032
v -11.115984 -0.128498122 -29.6131134
v 22.3888855 -0.156113282 -11.7413816
v -16.0528526 0.620256066 27.2932377
v -24.935461 23.587431 -29.9903526
v 21.0149422 42.2487183 33.4443436
v 12.6649914 76.767067 0.785483897
v -7.38256407 82.0179825 6.91481686
v -10.9082375 72.1735458 -21.29249
v 10.450737 70.8476257 -23.9952164
v -17.0336952 1.75804913 3.76010895
v 4.49806738 66.7985992 29.0601559
v -20.5801983 37.077713 29.9039917
v 19.5344028 3.1277678 -28.4030037
vt 0.0351667069 0.262321591 0
vt 0.120191433 0.033857394 0
vt 0.391969979 -0.00520626688 0
vt 0.879991114 0.0452495441 0
vt 0.88596487 0.186687276 0
vt 0.546135008 0.000268073549 0
vt 0.546135008 0.000268073549 0
vt 0.721447229 0.295961827 0
vt 0.404702872 0.108762115 0
vt 0.406094909 0.248766258 0
vt 0.0351667069 0.262321591 0
vt 0.391969979 -0.00520626688 0
vt 0.533075571 0.726127088 0
vt 0.466030121 0.568770051 0
vt 0.733536363 0.740366817 0
vt 0.448931783 0.506417274 0
vt 0.404699117 0.747817099 0
vt 0.0593084022 0.455764562 0
vt 0.738038182 1.00477612 0
vt 0.555096507 0.937280178 0
vt 0.717109978 0.737933934 0
vt 0.0593084022 0.455764562 0
vt 0.036532063 0.28538847 0
vt 0.261712044 0.287360549 0
vt 0.555096507 0.937280178 0
vt 0.474732101 0.812454402 0
vt 0.717109978 0.737933934 0
vt 0.733536363 0.740366817 0
vt 0.907693505 0.264804304 0
vt 0.985226512 0.529924393 0
vt 0.721447229 0.295961827 0
vt 0.443335533 0.302165776 0
vt 0.404702872 0.108762115 0
vt 0.645894051 0.315968275 0
vt 0.733536363 0.740366817 0
vt 0.466030121 0.568770051 0
vt 0.738038182 1.00477612 0
vt 0.717109978 0.737933934 0
vt 0.995716453 0.966715038 0
vt 0.404699117 0.747817099 0
vt 0.341339022 0.83087182 0
vt 0.146641716 0.784834027 0
vt 0.721447229 0.295961827 0
vt 0.546135008 0.000268073549 0
vt 0.88596487 0.186687276 0
vt 0.404699117 0.747817099 0
vt 0.146641716 0.784834027 0
vt 0.0593084022 0.455764562 0
vt 0.261712044 0.287360549 0
vt 0.413882315 0.270436943 0
vt 0.0593084022 0.455764562 0
vt 0.316688687 0.967175603 0
vt 0.144035488 0.965497553 0
vt 0.346873343 0.835884333 0
vt 0.254043907 0.277750254 0
vt 0.0351667069 0.262321591 0
vt 0.406094909 0.248766258 0
vt 0.994984031 0.644361973 0
vt 0.733536363 0.740366817 0
vt 0.985226512 0.529924393 0
vt 0.448931783 0.506417274 0
vt 0.0593084022 0.455764562 0
vt 0.413882315 0.270436943 0
vt 0.733536363 0.740366817 0
vt 0.645894051 0.315968275 0
vt 0.907693505 0.264804304 0
vt 0.515719473 0.910988212 0
vt 0.316688687 0.967175603 0
vt 0.346873343 0.835884333 0
vt 0.0351667069 0.262321591 0
vt 0.0126102557 0.065285638 0
vt 0.120191433 0.033857394 0
vt 0.466030121 0.568770051 0
vt 0.463304222 0.361587971 0
vt 0.645894051 0.315968275 0
vt 0.435792506 0.788824677 0
vt 0.515719473 0.910988212 0
vt 0.346873343 0.835884333 0
vt 0.995716453 0.966715038 0
vt 0.717109978 0.737933934 0
vt 0.956613719 0.717817008 0
vt 0.144035488 0.965497553 0
vt 0.15355888 0.817574859 0
vt 0.346873343 0.835884333 0
vn -0.279246986 -0.692451835 -0.491340876
vn 0.6353755 -0.681011498 -0.0435757712
vn 0.562807083 -0.509292126 0.551546693
vn -0.583186746 0.592194974 -0.488558918
vn 0.316400707 0.606317163 -0.687103808
vn -0.852434516 -0.0206618328 -0.388054371
vn -0.852434516 -0.0206618328 -0.388054371
vn 0.655000865 0.206239834 -0.502637625
vn -0.279246986 -0.692451835 -0.491340876
vn -0.630734026 -0.614999115 0.279911578
vn -0.279246986 -0.692451835 -0.491340876
vn 0.562807083 -0.509292126 0.551546693
vn 0.316400707 0.606317163 -0.687103808
vn 0.757713735 0.676913679 0.0275542177
vn 0.655000865 0.206239834 -0.502637625
vn -0.612919927 0.077815637 0.793361604
vn -0.867218435 0.46091783 0.122588456
vn -0.852434516 -0.0206618328 -0.388054371
vn 0.857981861 0.123500727 0.457395583
vn 0.246522889 0.523260713 0.715372384
vn -0.612919927 0.077815637 0.793361604
vn -0.852434516 -0.0206618328 -0.388054371
vn -0.279246986 -0.692451835 -0.491340876
vn -0.635536492 -0.785356402 -0.0857889876
vn 0.246522889 0.523260713 0.715372384
vn -0.867218435 0.46091783 0.122588456
vn -0.612919927 0.077815637 0.793361604
vn 0.655000865 0.206239834 -0.502637625
vn 0.562807083 -0.509292126 0.551546693
vn 0.6353755 -0.681011498 -0.0435757712
vn 0.655000865 0.206239834 -0.502637625
vn 0.462499291 -0.732439578 -0.499667585
vn -0.279246986 -0.692451835 -0.491340876
vn 0.857981861 0.123500727 0.457395583
vn 0.655000865 0.206239834 -0.502637625
vn 0.757713735 0.676913679 0.0275542177
vn 0.857981861 0.123500727 0.457395583
vn -0.612919927 0.077815637 0.793361604
vn 0.562807083 -0.509292126 0.551546693
vn -0.867218435 0.46091783 0.122588456
vn -0.415245354 0.939928055 0.179686457
vn -0.583186746 0.592194974 -0.488558918
vn 0.655000865 0.206239834 -0.502637625
vn -0.852434516 -0.0206618328 -0.388054371
vn 0.316400707 0.606317163 -0.687103808
vn -0.867218435 0.46091783 0.122588456
vn -0.583186746 0.592194974 -0.488558918
vn -0.852434516 -0.0206618328 -0.388054371
vn -0.635536492 -0.785356402 -0.0857889876
vn -0.630734026 -0.614999115 0.279911578
vn -0.852434516 -0.0206618328 -0.388054371
vn 0.757713735 0.676913679 0.0275542177
vn 0.316400707 0.606317163 -0.687103808
vn -0.415245354 0.939928055 0.179686457
vn -0.635536492 -0.785356402 -0.0857889876
vn -0.279246986 -0.692451835 -0.491340876
vn -0.630734026 -0.614999115 0.279911578
vn 0.462499291 -0.732439578 -0.499667585
vn 0.655000865 0.206239834 -0.502637625
vn 0.6353755 -0.681011498 -0.0435757712
vn -0.612919927 0.077815637 0.793361604
vn -0.852434516 -0.0206618328 -0.388054371
vn -0.630734026 -0.614999115 0.279911578
vn 0.655000865 0.206239834 -0.502637625
vn 0.857981861 0.123500727 0.457395583
vn 0.562807083 -0.509292126 0.551546693
vn 0.246522889 0.523260713 0.715372384
vn 0.757713735 0.676913679 0.0275542177
vn -0.415245354 0.939928055 0.179686457
vn -0.279246986 -0.692451835 -0.491340876
vn 0.462499291 -0.732439578 -0.499667585
vn 0.6353755 -0.681011498 -0.0435757712
vn 0.757713735 0.676913679 0.0275542177
vn 0.246522889 0.523260713 0.715372384
vn 0.857981861 0.123500727 0.457395583
vn -0.867218435 0.46091783 0.122588456
vn 0.246522889 0.523260713 0.715372384
vn -0.415245354 0.939928055 0.179686457
vn 0.562807083 -0.509292126 0.551546693
vn -0.612919927 0.077815637 0.793361604
vn -0.630734026 -0.614999115 0.279911578
vn 0.316400707 0.606317163 -0.687103808
vn -0.583186746 0.592194974 -0.488558918
vn -0.415245354 0.939928055 0.179686457
g Group3061_Group3061 g
f 4/1/1 5/2/2 1/3/3
f 11/4/4 12/5/5 7/6/6
f 7/7/7 3/8/8 4/9/9
f 6/10/10 4/11/11 1/12/12
f 12/13/13 9/14/14 3/15/15
f 15/16/16 2/17/17 7/18/18
f 8/19/19 14/20/20 15/21/21
f 7/22/22 4/23/23 13/24/24
f 14/25/25 2/26/26 15/27/27
f 3/28/28 1/29/29 5/30/30
f 3/31/31 16/32/32 4/33/33
f 8/34/34 3/35/35 9/36/36
f 8/37/37 15/38/38 1/39/39
f 2/40/40 10/41/41 11/42/42
f 3/43/43 7/44/44 12/45/45
f 2/46/46 11/47/47 7/48/48
f 13/49/49 6/50/50 7/51/51
f 9/52/52 12/53/53 10/54/54
f 13/55/55 4/56/56 6/57/57
f 16/58/58 3/59/59 5/60/60
f 15/61/61 7/62/62 6/63/63
f 3/64/64 8/65/65 1/66/66
f 14/67/67 9/68/68 10/69/69
f 4/70/70 16/71/71 5/72/72
f 9/73/73 14/74/74 8/75/75
f 2/76/76 14/77/77 10/78/78
f 1/79/79 15/80/80 6/81/81
f 12/82/82 11/83/83 10/84/84
