# File exported by Houdini 16.5.405 (www.sidefx.com)
# 41 points
# 234 vertices
# 78 primitives
# Bounds: [-24.4669476, -1.11445093, -34.2873955] to [24.2769146, 81.5666885, 34.1576996]
g 
v 4.7834115 -1.11445093 29.4259834
v 23.4794369 -0.154939726 10.2942266
v -12.3299246 72.7470245 18.6081142
v -16.6857262 62.6933784 21.4573956
v 24.2769146 26.4813156 -34.2873955
v 21.5501614 52.1985092 -29.2855892
v -5.9747448 -0.737497389 -29.777689
v 18.5035019 -0.879211009 -9.22674656
v -1.6301651 5.34596729 -31.9114285
v 15.5481758 44.9777031 -33.1581917
v -16.3034725 0.621487617 26.3585224
v -24.4669476 16.0332184 -21.0794029
v 19.2613258 34.7840576 33.004467
v 10.240325 7.13982105 34.1576996
v 10.1031113 78.4618378 -2.26756763
v -2.22170925 80.7897186 -7.14071894
v -8.03844357 72.8250732 -22.0651836
v 10.7703276 69.696228 -24.6109009
v -21.7599697 44.1549263 -28.7845573
v -18.4549599 2.62095714 7.41973114
v 21.4371586 58.5559769 12.8483896
v 23.1314774 3.35950422 26.8789024
v 0.64345324 81.5666885 9.2838316
v 4.49806738 66.7985992 29.0601559
v -11.3126926 27.4133949 33.1105576
v 23.2669182 4.21448946 -19.1398315
v 15.4449987 1.97601128 -27.9693089
v -16.2061234 4.30652761 28.1188946
v 12.7290392 74.3249588 5.66685724
v 18.3331814 54.2056999 -29.1943798
v -19.3300171 43.141674 27.8033466
v -21.6947136 40.3663177 23.3637047
v 17.0036716 46.6380196 31.9298496
v -11.2525015 2.06165671 -27.0091095
v -13.9945002 0.750351012 -8.32516003
v -21.5934792 24.0429783 -27.5389538
v -9.56426525 78.6840668 3.36651015
v -14.1109991 65.4567719 -23.7178459
v -9.7544384 75.3464737 -15.121603
v 5.55226803 72.605278 -23.0062943
v 20.1971569 5.87467098 -31.0931778
vt 0.0298512243 0.22981815 0
vt 0.139714211 0.056346532 0
vt 0.400786668 0.110484861 0
vt 0.603566468 0.316880375 0
vt 0.448070318 0.165840477 0
vt 0.715026915 0.244659841 0
vt 0.885114551 0.0642707124 0
vt 0.877864659 0.189945996 0
vt 0.681017816 0.00247469335 0
vt 0.681017816 0.00247469335 0
vt 0.715026915 0.244659841 0
vt 0.448070318 0.165840477 0
vt 0.296978652 0.948084056 0
vt 0.262299806 0.869990051 0
vt 0.360269129 0.881553948 0
vt 0.969502091 0.583849251 0
vt 0.897937179 0.291357011 0
vt 0.949578941 0.387865156 0
vt 0.40027386 0.251158059 0
vt 0.0298512243 0.22981815 0
vt 0.400786668 0.110484861 0
vt 0.541449368 0.728619218 0
vt 0.454024881 0.594463646 0
vt 0.678933501 0.722666264 0
vt 0.992926717 0.852991104 0
vt 0.988788486 0.982941329 0
vt 0.940202832 0.897790313 0
vt 0.940202832 0.897790313 0
vt 0.960033119 0.714299977 0
vt 0.992926717 0.852991104 0
vt 0.409615815 0.531056345 0
vt 0.417471498 0.679072559 0
vt 0.112320647 0.404266179 0
vt 0.949578941 0.387865156 0
vt 0.998174131 0.51170826 0
vt 0.969502091 0.583849251 0
vt 0.139714211 0.056346532 0
vt 0.26193136 0.00621239468 0
vt 0.400786668 0.110484861 0
vt 0.705221415 0.989283621 0
vt 0.555096507 0.937280178 0
vt 0.790158033 0.786961436 0
vt 0.112320647 0.404266179 0
vt 0.0529689528 0.293887049 0
vt 0.179135993 0.278584987 0
vt 0.940202832 0.897790313 0
vt 0.988788486 0.982941329 0
vt 0.781036198 0.984949589 0
vt 0.555096507 0.937280178 0
vt 0.541246772 0.784071386 0
vt 0.676656604 0.748241663 0
vt 0.852329373 0.715117455 0
vt 0.897937179 0.291357011 0
vt 0.969502091 0.583849251 0
vt 0.262299806 0.869990051 0
vt 0.326858103 0.815613508 0
vt 0.360269129 0.881553948 0
vt 0.139714211 0.056346532 0
vt 0.0201810747 0.0909411013 0
vt 0.0668097585 0.0275323652 0
vt 0.199724391 0.822093606 0
vt 0.326858103 0.815613508 0
vt 0.262299806 0.869990051 0
vt 0.448070318 0.165840477 0
vt 0.465806037 0.303428084 0
vt 0.429420799 0.278822273 0
vt 0.877864659 0.189945996 0
vt 0.885114551 0.0642707124 0
vt 0.895003855 0.153375179 0
vt 0.555096507 0.937280178 0
vt 0.676656604 0.748241663 0
vt 0.790158033 0.786961436 0
vt 0.678933501 0.722666264 0
vt 0.578109682 0.468313992 0
vt 0.852329373 0.715117455 0
vt 0.603566468 0.316880375 0
vt 0.465806037 0.303428084 0
vt 0.448070318 0.165840477 0
vt 0.173678994 0.265518993 0
vt 0.0500764661 0.265179545 0
vt 0.0298512243 0.22981815 0
vt 0.578109682 0.468313992 0
vt 0.678933501 0.722666264 0
vt 0.4732593 0.533793092 0
vt 0.781036198 0.984949589 0
vt 0.790158033 0.786961436 0
vt 0.940202832 0.897790313 0
vt 0.417471498 0.679072559 0
vt 0.31489858 0.807738841 0
vt 0.12481299 0.737631321 0
vt 0.613354862 0.329412907 0
vt 0.68781364 0.301304162 0
vt 0.578109682 0.468313992 0
vt 0.114182636 0.785567105 0
vt 0.199724391 0.822093606 0
vt 0.151352599 0.83923167 0
vt 0.705221415 0.989283621 0
vt 0.790158033 0.786961436 0
vt 0.781036198 0.984949589 0
vt 0.413054913 0.101300113 0
vt 0.448070318 0.165840477 0
vt 0.405176878 0.142238781 0
vt 0.262299806 0.869990051 0
vt 0.151352599 0.83923167 0
vt 0.199724391 0.822093606 0
vt 0.940202832 0.897790313 0
vt 0.932262003 0.722019017 0
vt 0.960033119 0.714299977 0
vt 0.830501556 0.0318567492 0
vt 0.885114551 0.0642707124 0
vt 0.681017816 0.00247469335 0
vt 0.555096507 0.937280178 0
vt 0.475634217 0.823277533 0
vt 0.541246772 0.784071386 0
vt 0.715026915 0.244659841 0
vt 0.877864659 0.189945996 0
vt 0.781545103 0.254695237 0
vt 0.715026915 0.244659841 0
vt 0.681017816 0.00247469335 0
vt 0.877864659 0.189945996 0
vt 0.0529689528 0.293887049 0
vt 0.112320647 0.404266179 0
vt 0.0701353326 0.454512715 0
vt 0.0201810747 0.0909411013 0
vt -0.0100910328 0.0571310632 0
vt 0.0668097585 0.0275323652 0
vt 0.42258814 0.292558849 0
vt 0.409615815 0.531056345 0
vt 0.407685608 0.271349549 0
vt 0.31489858 0.807738841 0
vt 0.189976215 0.802288473 0
vt 0.12481299 0.737631321 0
vt 0.417471498 0.679072559 0
vt 0.12481299 0.737631321 0
vt 0.0744463429 0.589680076 0
vt 0.112320647 0.404266179 0
vt 0.0744463429 0.589680076 0
vt 0.0701353326 0.454512715 0
vt 0.454024881 0.594463646 0
vt 0.4732593 0.533793092 0
vt 0.678933501 0.722666264 0
vt 0.286458522 0.296570212 0
vt 0.112320647 0.404266179 0
vt 0.179135993 0.278584987 0
vt 0.286458522 0.296570212 0
vt 0.407685608 0.271349549 0
vt 0.112320647 0.404266179 0
vt 0.409219474 0.750804484 0
vt 0.31489858 0.807738841 0
vt 0.417471498 0.679072559 0
vt 0.360269129 0.881553948 0
vt 0.354996741 0.97291863 0
vt 0.296978652 0.948084056 0
vt 0.296978652 0.948084056 0
vt 0.151694059 0.931023419 0
vt 0.262299806 0.869990051 0
vt 0.173678994 0.265518993 0
vt 0.0298512243 0.22981815 0
vt 0.40027386 0.251158059 0
vt 0.40027386 0.251158059 0
vt 0.279092133 0.28599599 0
vt 0.173678994 0.265518993 0
vt 0.549480736 0.0167733282 0
vt 0.681017816 0.00247469335 0
vt 0.448070318 0.165840477 0
vt 0.413054913 0.101300113 0
vt 0.549480736 0.0167733282 0
vt 0.448070318 0.165840477 0
vt 0.578109682 0.468313992 0
vt 0.68781364 0.301304162 0
vt 0.897937179 0.291357011 0
vt 0.980222046 0.664660335 0
vt 0.852329373 0.715117455 0
vt 0.969502091 0.583849251 0
vt 0.678933501 0.722666264 0
vt 0.66025877 0.729381442 0
vt 0.541449368 0.728619218 0
vt 0.442666441 0.546596944 0
vt 0.417471498 0.679072559 0
vt 0.409615815 0.531056345 0
vt 0.371858388 -0.00991635025 0
vt 0.400786668 0.110484861 0
vt 0.26193136 0.00621239468 0
vt 0.409615815 0.531056345 0
vt 0.112320647 0.404266179 0
vt 0.407685608 0.271349549 0
vt 0.852329373 0.715117455 0
vt 0.578109682 0.468313992 0
vt 0.897937179 0.291357011 0
vt 0.770642817 0.27632311 0
vt 0.715026915 0.244659841 0
vt 0.781545103 0.254695237 0
vt 0.515719473 0.910988212 0
vt 0.354996741 0.97291863 0
vt 0.360269129 0.881553948 0
vt 0.790158033 0.786961436 0
vt 0.676656604 0.748241663 0
vt 0.932262003 0.722019017 0
vt 0.442666441 0.546596944 0
vt 0.409615815 0.531056345 0
vt 0.42258814 0.292558849 0
vt 0.137982577 0.971944034 0
vt 0.151694059 0.931023419 0
vt 0.296978652 0.948084056 0
vt 0.326858103 0.815613508 0
vt 0.437076569 0.79886502 0
vt 0.360269129 0.881553948 0
vt 0.0298512243 0.22981815 0
vt 0.0201810747 0.0909411013 0
vt 0.139714211 0.056346532 0
vt 0.4732593 0.533793092 0
vt 0.463304222 0.361587971 0
vt 0.578109682 0.468313992 0
vt 0.448070318 0.165840477 0
vt 0.429420799 0.278822273 0
vt 0.405176878 0.142238781 0
vt 0.437076569 0.79886502 0
vt 0.515719473 0.910988212 0
vt 0.360269129 0.881553948 0
vt 0.603566468 0.316880375 0
vt 0.715026915 0.244659841 0
vt 0.770642817 0.27632311 0
vt 0.940202832 0.897790313 0
vt 0.790158033 0.786961436 0
vt 0.932262003 0.722019017 0
vt 0.151694059 0.931023419 0
vt 0.151352599 0.83923167 0
vt 0.262299806 0.869990051 0
vt 0.0744463429 0.589680076 0
vt 0.112320647 0.404266179 0
vt 0.417471498 0.679072559 0
vt 0.463304222 0.361587971 0
vt 0.613354862 0.329412907 0
vt 0.578109682 0.468313992 0
vn -0.0836747885 -0.941725969 -0.239099145
vn 0.258520693 -0.947429836 -0.0462745279
vn 0.0333433151 -0.958367169 0.240918383
vn 0.899519145 0.0312522389 -0.276477784
vn -0.0683676377 -0.150875077 -1.00394285
vn 0.00293896301 0.192909226 -1.00255179
vn -0.24041906 0.59265691 -0.754667699
vn 0.269474059 0.538346469 -0.709018588
vn -0.533789933 0.157761276 -0.695936918
vn -0.533789933 0.157761276 -0.695936918
vn 0.00293896301 0.192909226 -1.00255179
vn -0.0683676377 -0.150875077 -1.00394285
vn 0.628974974 0.771539688 -0.133981943
vn -0.0632185712 0.981862128 -0.218305498
vn 0.155734345 0.962112904 0.393272787
vn 0.93341428 -0.324159473 -0.0661684498
vn 0.881787241 -0.232261971 0.291751325
vn 0.569574893 -0.798635423 -0.00608495343
vn -0.656206846 -0.64559561 0.194990069
vn -0.0836747885 -0.941725969 -0.239099145
vn 0.0333433151 -0.958367169 0.240918383
vn 0.269474059 0.538346469 -0.709018588
vn 0.628974974 0.771539688 -0.133981943
vn 0.924561441 0.289358616 -0.222234547
vn 0.0333433151 -0.958367169 0.240918383
vn 0.881787241 -0.232261971 0.291751325
vn 0.0645064041 -0.202235579 1.00652874
vn 0.0645064041 -0.202235579 1.00652874
vn -0.656206846 -0.64559561 0.194990069
vn 0.0333433151 -0.958367169 0.240918383
vn -0.978756547 0.0594485737 0.235720396
vn -0.930289686 0.325400442 0.0967515707
vn -0.985828519 -0.164027154 -0.0589412563
vn 0.569574893 -0.798635423 -0.00608495343
vn 0.258520693 -0.947429836 -0.0462745279
vn 0.93341428 -0.324159473 -0.0661684498
vn 0.258520693 -0.947429836 -0.0462745279
vn 0.569574893 -0.798635423 -0.00608495343
vn 0.0333433151 -0.958367169 0.240918383
vn 0.614003599 0.29027003 0.697907865
vn 0.246522889 0.523260713 0.715372384
vn -0.2555933 0.0422762297 1.04140925
vn -0.985828519 -0.164027154 -0.0589412563
vn -0.62381351 -0.684569061 -0.34667182
vn -0.577871263 -0.809652984 -0.102599934
vn 0.0645064041 -0.202235579 1.00652874
vn 0.881787241 -0.232261971 0.291751325
vn 0.551672101 0.116368704 0.742693603
vn 0.246522889 0.523260713 0.715372384
vn -0.930289686 0.325400442 0.0967515707
vn -0.474097222 0.165362224 0.867052615
vn 0.899519145 0.0312522389 -0.276477784
vn 0.881787241 -0.232261971 0.291751325
vn 0.93341428 -0.324159473 -0.0661684498
vn -0.0632185712 0.981862128 -0.218305498
vn -0.74559319 0.646639526 0.0100622484
vn 0.155734345 0.962112904 0.393272787
vn 0.258520693 -0.947429836 -0.0462745279
vn 0.332933277 -0.815659761 -0.452860326
vn 0.93341428 -0.324159473 -0.0661684498
vn -0.612383604 0.74692136 -0.272031605
vn -0.74559319 0.646639526 0.0100622484
vn -0.0632185712 0.981862128 -0.218305498
vn -0.0683676377 -0.150875077 -1.00394285
vn 0.473761827 -0.59841609 -0.594208896
vn 0.332933277 -0.815659761 -0.452860326
vn 0.269474059 0.538346469 -0.709018588
vn -0.24041906 0.59265691 -0.754667699
vn 0.210830018 0.735511482 -0.663081646
vn 0.246522889 0.523260713 0.715372384
vn -0.474097222 0.165362224 0.867052615
vn -0.2555933 0.0422762297 1.04140925
vn 0.924561441 0.289358616 -0.222234547
vn 0.97310406 0.201397479 0.0907008946
vn 0.899519145 0.0312522389 -0.276477784
vn 0.899519145 0.0312522389 -0.276477784
vn 0.473761827 -0.59841609 -0.594208896
vn -0.0683676377 -0.150875077 -1.00394285
vn -0.577871263 -0.809652984 -0.102599934
vn -0.62381351 -0.684569061 -0.34667182
vn -0.0836747885 -0.941725969 -0.239099145
vn 0.97310406 0.201397479 0.0907008946
vn 0.924561441 0.289358616 -0.222234547
vn 0.715649009 0.622475266 0.321802646
vn 0.551672101 0.116368704 0.742693603
vn -0.2555933 0.0422762297 1.04140925
vn 0.0645064041 -0.202235579 1.00652874
vn -0.930289686 0.325400442 0.0967515707
vn -0.74559319 0.646639526 0.0100622484
vn -0.832140982 0.433606207 -0.280683249
vn 0.614003599 0.29027003 0.697907865
vn 0.551672101 0.116368704 0.742693603
vn 0.97310406 0.201397479 0.0907008946
vn -0.832140982 0.433606207 -0.280683249
vn -0.612383604 0.74692136 -0.272031605
vn -0.24041906 0.59265691 -0.754667699
vn 0.614003599 0.29027003 0.697907865
vn -0.2555933 0.0422762297 1.04140925
vn 0.551672101 0.116368704 0.742693603
vn -0.62381351 -0.684569061 -0.34667182
vn -0.0683676377 -0.150875077 -1.00394285
vn -0.0836747885 -0.941725969 -0.239099145
vn -0.0632185712 0.981862128 -0.218305498
vn -0.24041906 0.59265691 -0.754667699
vn -0.612383604 0.74692136 -0.272031605
vn 0.0645064041 -0.202235579 1.00652874
vn -0.510540307 -0.31400153 0.768961549
vn -0.656206846 -0.64559561 0.194990069
vn -0.832140982 0.433606207 -0.280683249
vn -0.24041906 0.59265691 -0.754667699
vn -0.533789933 0.157761276 -0.695936918
vn 0.246522889 0.523260713 0.715372384
vn -0.59599787 0.672789991 0.471120983
vn -0.930289686 0.325400442 0.0967515707
vn 0.00293896301 0.192909226 -1.00255179
vn 0.269474059 0.538346469 -0.709018588
vn 0.651482642 0.386043549 -0.679171562
vn 0.00293896301 0.192909226 -1.00255179
vn -0.533789933 0.157761276 -0.695936918
vn 0.269474059 0.538346469 -0.709018588
vn -0.62381351 -0.684569061 -0.34667182
vn -0.985828519 -0.164027154 -0.0589412563
vn -0.685699403 -0.0984616876 -0.725082755
vn 0.332933277 -0.815659761 -0.452860326
vn 0.473761827 -0.59841609 -0.594208896
vn 0.93341428 -0.324159473 -0.0661684498
vn -0.510540307 -0.31400153 0.768961549
vn -0.978756547 0.0594485737 0.235720396
vn -0.656206846 -0.64559561 0.194990069
vn -0.74559319 0.646639526 0.0100622484
vn -0.612383604 0.74692136 -0.272031605
vn -0.832140982 0.433606207 -0.280683249
vn -0.930289686 0.325400442 0.0967515707
vn -0.832140982 0.433606207 -0.280683249
vn -0.533789933 0.157761276 -0.695936918
vn -0.985828519 -0.164027154 -0.0589412563
vn -0.533789933 0.157761276 -0.695936918
vn -0.685699403 -0.0984616876 -0.725082755
vn 0.628974974 0.771539688 -0.133981943
vn 0.715649009 0.622475266 0.321802646
vn 0.924561441 0.289358616 -0.222234547
vn -0.744957805 -0.654746532 -0.0541988984
vn -0.985828519 -0.164027154 -0.0589412563
vn -0.577871263 -0.809652984 -0.102599934
vn -0.744957805 -0.654746532 -0.0541988984
vn -0.656206846 -0.64559561 0.194990069
vn -0.985828519 -0.164027154 -0.0589412563
vn -0.59599787 0.672789991 0.471120983
vn -0.74559319 0.646639526 0.0100622484
vn -0.930289686 0.325400442 0.0967515707
vn 0.155734345 0.962112904 0.393272787
vn 0.715649009 0.622475266 0.321802646
vn 0.628974974 0.771539688 -0.133981943
vn 0.628974974 0.771539688 -0.133981943
vn 0.210830018 0.735511482 -0.663081646
vn -0.0632185712 0.981862128 -0.218305498
vn -0.577871263 -0.809652984 -0.102599934
vn -0.0836747885 -0.941725969 -0.239099145
vn -0.656206846 -0.64559561 0.194990069
vn -0.656206846 -0.64559561 0.194990069
vn -0.744957805 -0.654746532 -0.0541988984
vn -0.577871263 -0.809652984 -0.102599934
vn -0.685699403 -0.0984616876 -0.725082755
vn -0.533789933 0.157761276 -0.695936918
vn -0.0683676377 -0.150875077 -1.00394285
vn -0.62381351 -0.684569061 -0.34667182
vn -0.685699403 -0.0984616876 -0.725082755
vn -0.0683676377 -0.150875077 -1.00394285
vn 0.97310406 0.201397479 0.0907008946
vn 0.551672101 0.116368704 0.742693603
vn 0.881787241 -0.232261971 0.291751325
vn 0.473761827 -0.59841609 -0.594208896
vn 0.899519145 0.0312522389 -0.276477784
vn 0.93341428 -0.324159473 -0.0661684498
vn 0.924561441 0.289358616 -0.222234547
vn 0.651482642 0.386043549 -0.679171562
vn 0.269474059 0.538346469 -0.709018588
vn -0.474097222 0.165362224 0.867052615
vn -0.930289686 0.325400442 0.0967515707
vn -0.978756547 0.0594485737 0.235720396
vn 0.881787241 -0.232261971 0.291751325
vn 0.0333433151 -0.958367169 0.240918383
vn 0.569574893 -0.798635423 -0.00608495343
vn -0.978756547 0.0594485737 0.235720396
vn -0.985828519 -0.164027154 -0.0589412563
vn -0.656206846 -0.64559561 0.194990069
vn 0.899519145 0.0312522389 -0.276477784
vn 0.97310406 0.201397479 0.0907008946
vn 0.881787241 -0.232261971 0.291751325
vn 0.924561441 0.289358616 -0.222234547
vn 0.00293896301 0.192909226 -1.00255179
vn 0.651482642 0.386043549 -0.679171562
vn 0.246522889 0.523260713 0.715372384
vn 0.715649009 0.622475266 0.321802646
vn 0.155734345 0.962112904 0.393272787
vn -0.2555933 0.0422762297 1.04140925
vn -0.474097222 0.165362224 0.867052615
vn -0.510540307 -0.31400153 0.768961549
vn -0.474097222 0.165362224 0.867052615
vn -0.978756547 0.0594485737 0.235720396
vn -0.510540307 -0.31400153 0.768961549
vn 0.269474059 0.538346469 -0.709018588
vn 0.210830018 0.735511482 -0.663081646
vn 0.628974974 0.771539688 -0.133981943
vn -0.74559319 0.646639526 0.0100622484
vn -0.59599787 0.672789991 0.471120983
vn 0.155734345 0.962112904 0.393272787
vn -0.0836747885 -0.941725969 -0.239099145
vn 0.332933277 -0.815659761 -0.452860326
vn 0.258520693 -0.947429836 -0.0462745279
vn 0.715649009 0.622475266 0.321802646
vn 0.246522889 0.523260713 0.715372384
vn 0.97310406 0.201397479 0.0907008946
vn -0.0683676377 -0.150875077 -1.00394285
vn 0.332933277 -0.815659761 -0.452860326
vn -0.0836747885 -0.941725969 -0.239099145
vn -0.59599787 0.672789991 0.471120983
vn 0.246522889 0.523260713 0.715372384
vn 0.155734345 0.962112904 0.393272787
vn 0.899519145 0.0312522389 -0.276477784
vn 0.00293896301 0.192909226 -1.00255179
vn 0.924561441 0.289358616 -0.222234547
vn 0.0645064041 -0.202235579 1.00652874
vn -0.2555933 0.0422762297 1.04140925
vn -0.510540307 -0.31400153 0.768961549
vn 0.210830018 0.735511482 -0.663081646
vn -0.24041906 0.59265691 -0.754667699
vn -0.0632185712 0.981862128 -0.218305498
vn -0.533789933 0.157761276 -0.695936918
vn -0.985828519 -0.164027154 -0.0589412563
vn -0.930289686 0.325400442 0.0967515707
vn 0.246522889 0.523260713 0.715372384
vn 0.614003599 0.29027003 0.697907865
vn 0.97310406 0.201397479 0.0907008946
g Group3061_Group3061 g
f 7/1/1 8/2/2 1/3/3
f 5/4/4 9/5/5 10/6/6
f 17/7/7 18/8/8 19/9/9
f 19/10/10 10/11/11 9/12/12
f 15/13/13 16/14/14 23/15/15
f 26/16/16 22/17/17 2/18/18
f 11/19/19 7/20/20 1/21/21
f 18/22/22 15/23/23 6/24/24
f 1/25/25 22/26/26 14/27/27
f 14/28/28 11/29/29 1/30/30
f 32/31/31 4/32/32 12/33/33
f 2/34/34 8/35/35 26/36/36
f 8/37/37 2/38/38 1/39/39
f 33/40/40 24/41/41 25/42/42
f 12/43/43 34/44/44 35/45/45
f 14/46/46 22/47/47 13/48/48
f 24/49/49 4/50/50 31/51/51
f 5/52/52 22/53/53 26/54/54
f 16/55/55 37/56/56 23/57/57
f 8/58/58 27/59/59 26/60/60
f 39/61/61 37/62/62 16/63/63
f 9/64/64 41/65/65 27/66/66
f 18/67/67 17/68/68 40/69/69
f 24/70/70 31/71/71 25/72/72
f 6/73/73 21/74/74 5/75/75
f 5/76/76 41/77/77 9/78/78
f 35/79/79 34/80/80 7/81/81
f 21/82/82 6/83/83 29/84/84
f 13/85/85 25/86/86 14/87/87
f 4/88/88 37/89/89 38/90/90
f 33/91/91 13/92/92 21/93/93
f 38/94/94 39/95/95 17/96/96
f 33/97/97 25/98/98 13/99/99
f 34/100/100 9/101/101 7/102/102
f 16/103/103 17/104/104 39/105/105
f 14/106/106 28/107/107 11/108/108
f 38/109/109 17/110/110 19/111/111
f 24/112/112 3/113/113 4/114/114
f 10/115/115 18/116/116 30/117/117
f 10/118/118 19/119/119 18/120/120
f 34/121/121 12/122/122 36/123/123
f 27/124/124 41/125/125 26/126/126
f 28/127/127 32/128/128 11/129/129
f 37/130/130 39/131/131 38/132/132
f 4/133/133 38/134/134 19/135/135
f 12/136/136 19/137/137 36/138/138
f 15/139/139 29/140/140 6/141/141
f 20/142/142 12/143/143 35/144/144
f 20/145/145 11/146/146 12/147/147
f 3/148/148 37/149/149 4/150/150
f 23/151/151 29/152/152 15/153/153
f 15/154/154 40/155/155 16/156/156
f 35/157/157 7/158/158 11/159/159
f 11/160/160 20/161/161 35/162/162
f 36/163/163 19/164/164 9/165/165
f 34/166/166 36/167/167 9/168/168
f 21/169/169 13/170/170 22/171/171
f 41/172/172 5/173/173 26/174/174
f 6/175/175 30/176/176 18/177/177
f 31/178/178 4/179/179 32/180/180
f 22/181/181 1/182/182 2/183/183
f 32/184/184 12/185/185 11/186/186
f 5/187/187 21/188/188 22/189/189
f 6/190/190 10/191/191 30/192/192
f 24/193/193 29/194/194 23/195/195
f 25/196/196 31/197/197 28/198/198
f 31/199/199 32/200/200 28/201/201
f 18/202/202 40/203/203 15/204/204
f 37/205/205 3/206/206 23/207/207
f 7/208/208 27/209/209 8/210/210
f 29/211/211 24/212/212 21/213/213
f 9/214/214 27/215/215 7/216/216
f 3/217/217 24/218/218 23/219/219
f 5/220/220 10/221/221 6/222/222
f 14/223/223 25/224/224 28/225/225
f 40/226/226 17/227/227 16/228/228
f 19/229/229 12/230/230 4/231/231
f 24/232/232 33/233/233 21/234/234
