# File exported by Houdini 16.5.405 (www.sidefx.com)
# 126 points
# 744 vertices
# 248 primitives
# Bounds: [-24.0749054, -1.3344295, -34.2282524] to [23.8907166, 81.1999207, 34.1812439]
g 
v 9.62012196 0.539017975 30.0854015
v 20.0769348 -0.73939085 15.6631107
v -9.99543476 71.6865692 20.1148376
v -12.4220076 70.5569382 19.1569576
v -16.2034645 64.1180725 21.0629578
v -15.7268753 63.9719353 -0.727972209
v -20.6400852 47.3582878 -1.4840939
v 23.5188236 34.812851 -31.2936821
v 22.1292381 49.0398674 -26.7666111
v -5.87284613 -1.3344295 -0.00945694558
v 14.7674093 -1.29733384 7.37270737
v 2.93490338 -1.28198493 28.7355156
v 23.8583241 28.7980995 -34.2282524
v -8.43064594 14.1823788 -31.5940132
v -0.650594175 28.6571236 -32.3398514
v -17.0603085 1.15991759 21.3292427
v -22.5472488 10.9121475 -10.8271799
v 17.576582 27.3000546 34.0266876
v 0.912668467 12.9339046 33.8597794
v 11.3069353 13.2066069 34.1812439
v 7.18785286 78.3285522 -8.19235039
v -2.22170925 80.7897186 -7.14071894
v -10.4240503 68.7439041 -23.3933697
v 12.0509949 64.8700027 -26.9862518
v -20.1186905 51.8098831 -27.0728455
v -18.7303505 28.2688293 -29.8439045
v -17.1788158 0.880717158 14.7683191
v -18.4549599 2.62095714 7.41973114
v 22.4924202 40.9966431 19.9424839
v 23.1477432 19.8570595 27.6974163
v 15.5255051 12.5042677 32.8946686
v 20.5903473 27.0522385 31.5248814
v 7.914639 79.6481094 1.64739764
v -0.823070645 81.1999207 7.61460638
v 10.2731838 57.8049088 30.9117012
v 4.98520231 67.5196609 26.9797401
v 5.42915583 43.341526 32.5713768
v -4.00415611 30.5171375 33.2195511
v 23.8907166 5.00958204 -0.847487509
v 23.6931324 6.42801619 25.2309113
v 22.7728176 0.820750117 2.15434361
v -7.28265572 -0.43080461 -27.3065491
v 15.4449987 1.97601128 -27.9693089
v -24.0749054 16.5778427 -20.4974232
v -23.0995941 33.1767731 -5.86927605
v -12.3028965 -0.441070944 16.6259365
v -10.1131344 2.57817698 29.2992935
v 7.38748455 3.32729077 32.4256096
v 11.0874996 73.2149963 9.65808964
v 19.1715794 62.5075989 -6.42235279
v 20.5170784 56.9400673 -19.2544289
v 9.92751789 77.816124 -3.05021095
v 10.1252279 71.8822403 -19.8318214
v 16.5752506 51.2811852 -31.1782055
v 21.2198601 40.8886032 -31.3740139
v 18.4492092 39.6374359 -33.8915024
v 18.3331814 54.2056999 -29.1943798
v 20.6726513 3.02624512 26.5520439
v -9.57351685 -0.0547454469 27.5574112
v -6.8027916 48.1182365 30.2742748
v -18.2343369 50.2193718 26.2776127
v -20.5010204 46.1966095 24.5522804
v 19.5695744 0.191655308 -5.52154112
v 4.75490808 77.4464874 12.5037193
v -4.06751823 67.1702805 25.3583164
v 6.24595833 63.6332436 30.1164131
v -7.34357452 0.499524027 -29.2918148
v 2.05793452 4.63648796 -31.4980831
v 16.940237 46.1492958 31.7876358
v 18.4188995 34.2938004 32.4510002
v -11.5221004 1.46888995 -23.5813007
v -13.9945002 0.750351012 -8.32516003
v 7.21368885 -0.775327921 -23.7479935
v -6.10842514 75.3038483 17.5419674
v -2.67494988 70.245697 23.3038006
v -19.2246838 11.6943913 -25.8380413
v -13.8558998 4.68223 -25.8642006
v -21.4286003 24.1082001 -27.2103996
v -20.861311 37.4935799 -29.0914612
v 21.5875435 53.827301 -0.952634811
v 16.8069115 48.90271 30.665102
v 19.9861259 53.1499825 20.2858639
v -21.7619343 44.0664558 -27.7751389
v -5.56628942 42.0664253 -30.9527912
v 22.3559608 1.00943005 18.3410892
v 21.911562 6.04235458 27.2248631
v 23.8377209 19.809248 -33.7894783
v 23.8058376 29.2206059 -4.8115716
v -9.56426525 78.6840668 3.36651015
v -4.75021505 80.7503891 6.21813488
v -12.9539862 69.3194809 -17.1234016
v -19.0667362 54.1047974 -16.5141296
v -21.9356728 33.2993546 20.3784485
v -16.9018002 9.33588028 28.1191006
v 18.8268433 -0.885447562 -9.57320595
v 22.1801014 4.23562431 -19.0552959
v -9.36647606 77.0758057 -9.7698679
v 2.24131942 76.5862961 -16.7536488
v 21.7783089 10.9356422 -32.9191132
v 23.665205 6.48449278 -20.2742939
v -15.8872328 31.7603741 30.2698441
v -18.3855438 42.4318733 27.5803432
v -10.6204605 19.0593777 32.4550247
v 2.6696527 72.753067 -22.82057
v 12.339283 66.9207535 -24.6461487
v 10.9111996 67.0590973 -25.2387009
v -16.0558052 12.6943464 29.9409885
v -8.31490421 72.4908524 -20.9881649
v -6.63617802 75.6559143 -17.2705536
v -15.3150997 5.71885014 28.3789005
v 3.39391184 67.3635178 27.8469124
v -18.1846008 25.3320007 28.4536991
v -16.3902969 2.46782136 25.7232151
v -13.0004311 4.12331295 -27.9166012
v 20.3572521 61.9382668 9.95598507
v 13.8940725 73.2549362 5.89522362
v -23.7908268 25.2167435 -23.7277546
v -12.4920568 73.4139709 13.4316654
v -13.7428551 65.4450836 -23.4805336
v -10.4371004 72.5578995 -17.8453007
v -17.8444004 55.1685982 24.1574993
v -19.251791 17.7671261 -28.2405148
v -19.0347004 40.9529991 27.0744991
v 19.6298027 5.77360535 -29.6735802
v 7.63407993 70.5276031 -22.8339005
v 20.9388008 49.9331017 -28.1735001
vt 0.488081962 0.838710785 0
vt 0.490042567 0.819593847 0
vt 0.531879127 0.788877964 0
vt 0.415757805 0.687517583 0
vt 0.274795651 0.706251502 0
vt 0.256462991 0.593874753 0
vt 0.220637977 0.20478788 0
vt 0.250220448 0.0656598508 0
vt 0.397946686 0.122923762 0
vt 0.618161321 0.312208086 0
vt 0.498886764 0.115113787 0
vt 0.597770452 0.153415054 0
vt 0.825162292 0.965179205 0
vt 0.894242585 0.846783042 0
vt 0.904213011 0.911028504 0
vt 0.855050802 0.0529920831 0
vt 0.844815969 0.203429058 0
vt 0.733768225 0.00592357246 0
vt 0.580738068 0.0360423774 0
vt 0.597770452 0.153415054 0
vt 0.498886764 0.115113787 0
vt 0.320370913 0.930234909 0
vt 0.262299806 0.869990051 0
vt 0.35228309 0.874350488 0
vt 0.710535884 0.911695898 0
vt 0.779303133 0.836286128 0
vt 0.825162292 0.965179205 0
vt 0.935346067 0.468124241 0
vt 0.881507635 0.306415558 0
vt 0.95811677 0.44159171 0
vt 0.333612263 0.232873067 0
vt 0.220637977 0.20478788 0
vt 0.397946686 0.122923762 0
vt 0.894242585 0.846783042 0
vt 0.949871063 0.760831892 0
vt 0.96212852 0.876332998 0
vt 0.578959167 0.593482316 0
vt 0.633827865 0.665976107 0
vt 0.458213657 0.599291563 0
vt 0.519137263 0.701306224 0
vt 0.458213657 0.599291563 0
vt 0.633827865 0.665976107 0
vt 0.757913172 0.245269403 0
vt 0.697303891 0.287741601 0
vt 0.68296653 0.267432362 0
vt 0.987320721 0.887139142 0
vt 0.991672218 0.967054188 0
vt 0.96212852 0.876332998 0
vt 0.96212852 0.876332998 0
vt 0.971602321 0.75850153 0
vt 0.993269265 0.839908242 0
vt 0.421855837 0.567297697 0
vt 0.256462991 0.593874753 0
vt 0.218350202 0.504028857 0
vt 0.95811677 0.44159171 0
vt 0.983400583 0.489819378 0
vt 0.935346067 0.468124241 0
vt 0.250220448 0.0656598508 0
vt 0.299128205 0.0241172146 0
vt 0.397946686 0.122923762 0
vt 0.535327852 0.877782643 0
vt 0.629944384 0.762786388 0
vt 0.578720391 0.944367349 0
vt 0.708083153 0.988314271 0
vt 0.622349739 0.963538885 0
vt 0.710535884 0.911695898 0
vt 0.174230382 0.365133733 0
vt 0.0756672993 0.288055003 0
vt 0.179135993 0.278584987 0
vt 0.0466458276 0.235479027 0
vt 0.0572827011 0.140673429 0
vt 0.220637977 0.20478788 0
vt 0.446845442 0.792566419 0
vt 0.449443877 0.811677694 0
vt 0.422453105 0.839941084 0
vt 0.174230382 0.365133733 0
vt 0.0776266456 0.372382253 0
vt 0.0655302033 0.316325009 0
vt 0.116596356 0.406589657 0
vt 0.0717462972 0.454874992 0
vt 0.0776266456 0.372382253 0
vt 0.674400747 0.396813363 0
vt 0.79407233 0.313913852 0
vt 0.881507635 0.306415558 0
vt 0.739628971 0.297590017 0
vt 0.881507635 0.306415558 0
vt 0.79407233 0.313913852 0
vt 0.638681471 0.0137818661 0
vt 0.580738068 0.0360423774 0
vt 0.549977005 0.0163038 0
vt 0.53160578 0.343673497 0
vt 0.601477563 0.341606855 0
vt 0.597954392 0.41365689 0
vt 0.0812016949 0.587861538 0
vt 0.0662252679 0.545495212 0
vt 0.0717462972 0.454874992 0
vt 0.913904846 0.936967969 0
vt 0.96976459 0.979836464 0
vt 0.829935849 0.988219023 0
vt 0.535327852 0.877782643 0
vt 0.531879127 0.788877964 0
vt 0.629944384 0.762786388 0
vt 0.618161321 0.312208086 0
vt 0.559810877 0.318793058 0
vt 0.498886764 0.115113787 0
vt 0.787739038 0.532844186 0
vt 0.881507635 0.306415558 0
vt 0.935346067 0.468124241 0
vt 0.262299806 0.869990051 0
vt 0.326858103 0.815613508 0
vt 0.342765093 0.85061574 0
vt 0.274795651 0.706251502 0
vt 0.171593249 0.758807778 0
vt 0.162880316 0.64993006 0
vt 0.13712047 0.0547731183 0
vt 0.0201810747 0.0909411013 0
vt 0.0677348152 0.0330414623 0
vt 0.23676379 0.82188648 0
vt 0.326858103 0.815613508 0
vt 0.262299806 0.869990051 0
vt 0.446281075 0.189389497 0
vt 0.50043267 0.310815454 0
vt 0.429420799 0.278822273 0
vt 0.844815969 0.203429058 0
vt 0.855050802 0.0529920831 0
vt 0.893859923 0.134571508 0
vt 0.116596356 0.406589657 0
vt 0.0776266456 0.372382253 0
vt 0.174230382 0.365133733 0
vt 0.893859923 0.134571508 0
vt 0.860881984 0.193886995 0
vt 0.844815969 0.203429058 0
vt 0.578720391 0.944367349 0
vt 0.662356198 0.838620901 0
vt 0.779303133 0.836286128 0
vt 0.325722814 0.267510355 0
vt 0.220637977 0.20478788 0
vt 0.333612263 0.232873067 0
vt 0.0466458276 0.235479027 0
vt 0.220637977 0.20478788 0
vt 0.325722814 0.267510355 0
vt 0.695434391 0.70164454 0
vt 0.62781471 0.546256483 0
vt 0.787739038 0.532844186 0
vt 0.150168031 0.912028134 0
vt 0.155480742 0.835077703 0
vt 0.188389748 0.84618634 0
vt 0.0572827011 0.140673429 0
vt 0.13712047 0.0547731183 0
vt 0.220637977 0.20478788 0
vt 0.622349739 0.963538885 0
vt 0.578720391 0.944367349 0
vt 0.710535884 0.911695898 0
vt 0.733768225 0.00592357246 0
vt 0.757913172 0.245269403 0
vt 0.680223465 0.110328123 0
vt 0.793795288 0.709634125 0
vt 0.787739038 0.532844186 0
vt 0.837375164 0.719843566 0
vt 0.991672218 0.967054188 0
vt 0.96976459 0.979836464 0
vt 0.913904846 0.936967969 0
vt 0.991672218 0.967054188 0
vt 0.913904846 0.936967969 0
vt 0.96212852 0.876332998 0
vt 0.559810877 0.318793058 0
vt 0.50043267 0.310815454 0
vt 0.446281075 0.189389497 0
vt 0.388948053 0.908536375 0
vt 0.320370913 0.930234909 0
vt 0.35228309 0.874350488 0
vt 0.422453105 0.839941084 0
vt 0.388948053 0.908536375 0
vt 0.35228309 0.874350488 0
vt 0.904213011 0.911028504 0
vt 0.96212852 0.876332998 0
vt 0.913904846 0.936967969 0
vt 0.0554801002 0.289088994 0
vt 0.0431622006 0.281803161 0
vt 0.0466458276 0.235479027 0
vt 0.173678994 0.265518993 0
vt 0.0727375001 0.263208985 0
vt 0.0466458276 0.235479027 0
vt 0.256462991 0.593874753 0
vt 0.0908715874 0.641010523 0
vt 0.0812016949 0.587861538 0
vt 0.562358677 0.490405887 0
vt 0.578959167 0.593482316 0
vt 0.483861834 0.53112489 0
vt 0.578959167 0.593482316 0
vt 0.562358677 0.490405887 0
vt 0.633827865 0.665976107 0
vt 0.198325068 0.90397191 0
vt 0.172800139 0.963871896 0
vt 0.150168031 0.912028134 0
vt 0.929304123 0.338032603 0
vt 0.95811677 0.44159171 0
vt 0.881507635 0.306415558 0
vt 0.162031636 0.0442367867 0
vt 0.209183291 0.0160175655 0
vt 0.299128205 0.0241172146 0
vt 0.825162292 0.965179205 0
vt 0.779303133 0.836286128 0
vt 0.894242585 0.846783042 0
vt 0.376175016 0.759233415 0
vt 0.274795651 0.706251502 0
vt 0.415757805 0.687517583 0
vt 0.274795651 0.706251502 0
vt 0.31489858 0.807738841 0
vt 0.171593249 0.758807778 0
vt 0.562358677 0.490405887 0
vt 0.597954392 0.41365689 0
vt 0.674400747 0.396813363 0
vt 0.597954392 0.41365689 0
vt 0.739628971 0.297590017 0
vt 0.674400747 0.396813363 0
vt 0.257341981 0.931540251 0
vt 0.262299806 0.869990051 0
vt 0.320370913 0.930234909 0
vt 0.115379021 0.786842525 0
vt 0.173732996 0.816848993 0
vt 0.155480742 0.835077703 0
vt 0.13712047 0.0547731183 0
vt 0.250220448 0.0656598508 0
vt 0.220637977 0.20478788 0
vt 0.708083153 0.988314271 0
vt 0.710535884 0.911695898 0
vt 0.825162292 0.965179205 0
vt 0.498886764 0.115113787 0
vt 0.559810877 0.318793058 0
vt 0.446281075 0.189389497 0
vt 0.426907927 0.0905463547 0
vt 0.498886764 0.115113787 0
vt 0.410420269 0.132223979 0
vt 0.0717462972 0.454874992 0
vt 0.0607863292 0.410518736 0
vt 0.0776266456 0.372382253 0
vt 0.633827865 0.665976107 0
vt 0.562137663 0.72387141 0
vt 0.519137263 0.701306224 0
vt 0.793795288 0.709634125 0
vt 0.752699494 0.723669112 0
vt 0.695434391 0.70164454 0
vt 0.173732996 0.816848993 0
vt 0.23676379 0.82188648 0
vt 0.155480742 0.835077703 0
vt 0.262299806 0.869990051 0
vt 0.188389748 0.84618634 0
vt 0.23676379 0.82188648 0
vt 0.99727118 0.514142156 0
vt 0.971523106 0.584052026 0
vt 0.983400583 0.489819378 0
vt 0.443544865 0.542328 0
vt 0.438776225 0.593298078 0
vt 0.421855837 0.567297697 0
vt 0.437833011 0.532837987 0
vt 0.421855837 0.567297697 0
vt 0.43751201 0.430693001 0
vt 0.949871063 0.760831892 0
vt 0.948795855 0.711708784 0
vt 0.971602321 0.75850153 0
vt 0.96212852 0.876332998 0
vt 0.949871063 0.760831892 0
vt 0.971602321 0.75850153 0
vt 0.0333099365 0.238566667 0
vt 0.0466458276 0.235479027 0
vt 0.0431622006 0.281803161 0
vt 0.0466458276 0.235479027 0
vt 0.0333099365 0.238566667 0
vt 0.0201810747 0.0909411013 0
vt 0.415757805 0.687517583 0
vt 0.412200063 0.737550735 0
vt 0.376175016 0.759233415 0
vt 0.403295577 0.792164922 0
vt 0.446845442 0.792566419 0
vt 0.342765093 0.85061574 0
vt 0.929304123 0.338032603 0
vt 0.881507635 0.306415558 0
vt 0.903117597 0.287104577 0
vt 0.680223465 0.110328123 0
vt 0.68296653 0.267432362 0
vt 0.597770452 0.153415054 0
vt 0.680223465 0.110328123 0
vt 0.597770452 0.153415054 0
vt 0.580738068 0.0360423774 0
vt 0.75642103 0.760670662 0
vt 0.629944384 0.762786388 0
vt 0.683212101 0.75312674 0
vt 0.662356198 0.838620901 0
vt 0.75642103 0.760670662 0
vt 0.779303133 0.836286128 0
vt 0.66025877 0.729381442 0
vt 0.633827865 0.665976107 0
vt 0.695434391 0.70164454 0
vt 0.633827865 0.665976107 0
vt 0.562358677 0.490405887 0
vt 0.62781471 0.546256483 0
vt 0.831352293 0.0334675051 0
vt 0.855050802 0.0529920831 0
vt 0.733768225 0.00592357246 0
vt 0.681611419 0.00148050743 0
vt 0.733768225 0.00592357246 0
vt 0.638681471 0.0137818661 0
vt 0.535327852 0.877782643 0
vt 0.488081962 0.838710785 0
vt 0.531879127 0.788877964 0
vt 0.299128205 0.0241172146 0
vt 0.209183291 0.0160175655 0
vt 0.315129995 0.00432281429 0
vt 0.299128205 0.0241172146 0
vt 0.315129995 0.00432281429 0
vt 0.372458339 0.00553227495 0
vt 0.262299806 0.869990051 0
vt 0.342765093 0.85061574 0
vt 0.35228309 0.874350488 0
vt 0.757913172 0.245269403 0
vt 0.844815969 0.203429058 0
vt 0.781545103 0.254695237 0
vt 0.757913172 0.245269403 0
vt 0.733768225 0.00592357246 0
vt 0.844815969 0.203429058 0
vt 0.904213011 0.911028504 0
vt 0.894242585 0.846783042 0
vt 0.96212852 0.876332998 0
vt 0.0505144373 0.313497931 0
vt 0.0776266456 0.372382253 0
vt 0.0607863292 0.410518736 0
vt 0.0201810747 0.0909411013 0
vt -0.000902909262 0.0581609756 0
vt 0.0677348152 0.0330414623 0
vt 0.53160578 0.343673497 0
vt 0.461921215 0.376918882 0
vt 0.485592902 0.351770252 0
vt 0.547400236 0.929276049 0
vt 0.535327852 0.877782643 0
vt 0.578720391 0.944367349 0
vt 0.425471991 0.325645 0
vt 0.386273354 0.488393456 0
vt 0.375436723 0.278589606 0
vt 0.42781201 0.29885 0
vt 0.425471991 0.325645 0
vt 0.404983193 0.28256458 0
vt 0.31489858 0.807738841 0
vt 0.226635948 0.809448957 0
vt 0.171593249 0.758807778 0
vt 0.983400583 0.489819378 0
vt 0.971523106 0.584052026 0
vt 0.956053555 0.594436765 0
vt 0.971523106 0.584052026 0
vt 0.981805503 0.656149209 0
vt 0.949013233 0.682344496 0
vt 0.256462991 0.593874753 0
vt 0.274795651 0.706251502 0
vt 0.162880316 0.64993006 0
vt 0.844815969 0.203429058 0
vt 0.863995373 0.204743549 0
vt 0.781545103 0.254695237 0
vt 0.162880316 0.64993006 0
vt 0.171593249 0.758807778 0
vt 0.0908715874 0.641010523 0
vt 0.710535884 0.911695898 0
vt 0.578720391 0.944367349 0
vt 0.779303133 0.836286128 0
vt 0.638681471 0.0137818661 0
vt 0.733768225 0.00592357246 0
vt 0.680223465 0.110328123 0
vt 0.601477563 0.341606855 0
vt 0.53160578 0.343673497 0
vt 0.615974188 0.328968465 0
vt 0.601477563 0.341606855 0
vt 0.739628971 0.297590017 0
vt 0.597954392 0.41365689 0
vt 0.935346067 0.468124241 0
vt 0.956053555 0.594436765 0
vt 0.89332217 0.701700509 0
vt 0.446845442 0.792566419 0
vt 0.422453105 0.839941084 0
vt 0.342765093 0.85061574 0
vt 0.115379021 0.786842525 0
vt 0.155480742 0.835077703 0
vt 0.128019109 0.816029131 0
vt 0.855050802 0.0529920831 0
vt 0.886355996 0.060947109 0
vt 0.893859923 0.134571508 0
vt 0.099949576 0.461781681 0
vt 0.0812016949 0.587861538 0
vt 0.0717462972 0.454874992 0
vt 0.116596356 0.406589657 0
vt 0.099949576 0.461781681 0
vt 0.0717462972 0.454874992 0
vt 0.875936389 0.737047076 0
vt 0.75642103 0.760670662 0
vt 0.793603003 0.734003007 0
vt 0.458213657 0.599291563 0
vt 0.483861834 0.53112489 0
vt 0.578959167 0.593482316 0
vt 0.0466458276 0.235479027 0
vt 0.0201810747 0.0909411013 0
vt 0.0572827011 0.140673429 0
vt 0.549977005 0.0163038 0
vt 0.580738068 0.0360423774 0
vt 0.511148095 0.0388115346 0
vt 0.5070948 0.903772235 0
vt 0.501987875 0.914940298 0
vt 0.388948053 0.908536375 0
vt 0.415757805 0.687517583 0
vt 0.421855837 0.567297697 0
vt 0.428458005 0.627040029 0
vt 0.825162292 0.965179205 0
vt 0.904213011 0.911028504 0
vt 0.913904846 0.936967969 0
vt 0.286458522 0.296570212 0
vt 0.174230382 0.365133733 0
vt 0.179135993 0.278584987 0
vt 0.286458522 0.296570212 0
vt 0.375436723 0.278589606 0
vt 0.174230382 0.365133733 0
vt 0.894242585 0.846783042 0
vt 0.779303133 0.836286128 0
vt 0.843094528 0.781638324 0
vt 0.739628971 0.297590017 0
vt 0.880883157 0.290167958 0
vt 0.881507635 0.306415558 0
vt 0.188389748 0.84618634 0
vt 0.155480742 0.835077703 0
vt 0.23676379 0.82188648 0
vt 0.597770452 0.153415054 0
vt 0.68296653 0.267432362 0
vt 0.618161321 0.312208086 0
vt 0.376175016 0.759233415 0
vt 0.31489858 0.807738841 0
vt 0.274795651 0.706251502 0
vt 0.562358677 0.490405887 0
vt 0.483861834 0.53112489 0
vt 0.468605012 0.504024029 0
vt 0.388948053 0.908536375 0
vt 0.357035697 0.982270062 0
vt 0.320370913 0.930234909 0
vt 0.174230382 0.365133733 0
vt 0.0655302033 0.316325009 0
vt 0.0756672993 0.288055003 0
vt 0.0554801002 0.289088994 0
vt 0.0466458276 0.235479027 0
vt 0.0727375001 0.263208985 0
vt 0.257341981 0.931540251 0
vt 0.198325068 0.90397191 0
vt 0.262299806 0.869990051 0
vt 0.173678994 0.265518993 0
vt 0.0466458276 0.235479027 0
vt 0.325722814 0.267510355 0
vt 0.325722814 0.267510355 0
vt 0.279092133 0.28599599 0
vt 0.173678994 0.265518993 0
vt 0.511148095 0.0388115346 0
vt 0.580738068 0.0360423774 0
vt 0.498886764 0.115113787 0
vt 0.426907927 0.0905463547 0
vt 0.511148095 0.0388115346 0
vt 0.498886764 0.115113787 0
vt 0.578720391 0.944367349 0
vt 0.544440091 0.940315425 0
vt 0.547400236 0.929276049 0
vt 0.674400747 0.396813363 0
vt 0.739628971 0.297590017 0
vt 0.79407233 0.313913852 0
vt 0.96212852 0.876332998 0
vt 0.993269265 0.839908242 0
vt 0.987320721 0.887139142 0
vt 0.498886764 0.115113787 0
vt 0.446281075 0.189389497 0
vt 0.410420269 0.132223979 0
vt 0.422453105 0.839941084 0
vt 0.473953992 0.861689985 0
vt 0.5070948 0.903772235 0
vt 0.171593249 0.758807778 0
vt 0.125997409 0.738518834 0
vt 0.0908715874 0.641010523 0
vt 0.971523106 0.584052026 0
vt 0.949013233 0.682344496 0
vt 0.956053555 0.594436765 0
vt 0.949013233 0.682344496 0
vt 0.89332217 0.701700509 0
vt 0.956053555 0.594436765 0
vt 0.674400747 0.396813363 0
vt 0.787739038 0.532844186 0
vt 0.62781471 0.546256483 0
vt 0.633827865 0.665976107 0
vt 0.66025877 0.729381442 0
vt 0.562137663 0.72387141 0
vt 0.116596356 0.406589657 0
vt 0.174230382 0.365133733 0
vt 0.386273354 0.488393456 0
vt 0.386273354 0.488393456 0
vt 0.218350202 0.504028857 0
vt 0.116596356 0.406589657 0
vt 0.860881984 0.193886995 0
vt 0.893859923 0.134571508 0
vt 0.886214018 0.169459999 0
vt 0.150168031 0.912028134 0
vt 0.188389748 0.84618634 0
vt 0.198325068 0.90397191 0
vt 0.638681471 0.0137818661 0
vt 0.680223465 0.110328123 0
vt 0.580738068 0.0360423774 0
vt 0.375436723 0.278589606 0
vt 0.286458522 0.296570212 0
vt 0.333477467 0.279598355 0
vt 0.397946686 0.122923762 0
vt 0.299128205 0.0241172146 0
vt 0.402337849 0.0772711933 0
vt 0.438776225 0.593298078 0
vt 0.428458005 0.627040029 0
vt 0.421855837 0.567297697 0
vt 0.629944384 0.762786388 0
vt 0.531879127 0.788877964 0
vt 0.594004989 0.769164979 0
vt 0.13712047 0.0547731183 0
vt 0.162031636 0.0442367867 0
vt 0.250220448 0.0656598508 0
vt 0.250220448 0.0656598508 0
vt 0.162031636 0.0442367867 0
vt 0.299128205 0.0241172146 0
vt 0.372458339 0.00553227495 0
vt 0.402337849 0.0772711933 0
vt 0.299128205 0.0241172146 0
vt 0.291060299 0.949670374 0
vt 0.172800139 0.963871896 0
vt 0.257341981 0.931540251 0
vt 0.399396122 0.25491035 0
vt 0.369299412 0.260829031 0
vt 0.40246582 0.205322966 0
vt 0.843094528 0.781638324 0
vt 0.75642103 0.760670662 0
vt 0.875936389 0.737047076 0
vt 0.386273354 0.488393456 0
vt 0.174230382 0.365133733 0
vt 0.375436723 0.278589606 0
vt 0.787739038 0.532844186 0
vt 0.674400747 0.396813363 0
vt 0.881507635 0.306415558 0
vt 0.759995997 0.280501992 0
vt 0.757913172 0.245269403 0
vt 0.781545103 0.254695237 0
vt 0.689944983 0.713307023 0
vt 0.66025877 0.729381442 0
vt 0.695434391 0.70164454 0
vt 0.923471987 0.728469014 0
vt 0.948795855 0.711708784 0
vt 0.949871063 0.760831892 0
vt 0.875936389 0.737047076 0
vt 0.923471987 0.728469014 0
vt 0.949871063 0.760831892 0
vt 0.388948053 0.908536375 0
vt 0.383314997 0.961629987 0
vt 0.357035697 0.982270062 0
vt 0.501987875 0.914940298 0
vt 0.383314997 0.961629987 0
vt 0.388948053 0.908536375 0
vt 0.837375164 0.719843566 0
vt 0.752699494 0.723669112 0
vt 0.793795288 0.709634125 0
vt 0.875936389 0.737047076 0
vt 0.793603003 0.734003007 0
vt 0.896589994 0.721715987 0
vt 0.875936389 0.737047076 0
vt 0.896589994 0.721715987 0
vt 0.923471987 0.728469014 0
vt 0.43751201 0.430693001 0
vt 0.421855837 0.567297697 0
vt 0.386273354 0.488393456 0
vt 0.43751201 0.430693001 0
vt 0.386273354 0.488393456 0
vt 0.425471991 0.325645 0
vt 0.578720391 0.944367349 0
vt 0.629944384 0.762786388 0
vt 0.662356198 0.838620901 0
vt 0.843094528 0.781638324 0
vt 0.875936389 0.737047076 0
vt 0.949871063 0.760831892 0
vt 0.615974188 0.328968465 0
vt 0.739628971 0.297590017 0
vt 0.601477563 0.341606855 0
vt 0.757913172 0.245269403 0
vt 0.68296653 0.267432362 0
vt 0.680223465 0.110328123 0
vt 0.172800139 0.963871896 0
vt 0.198325068 0.90397191 0
vt 0.257341981 0.931540251 0
vt 0.320370913 0.930234909 0
vt 0.357035697 0.982270062 0
vt 0.291060299 0.949670374 0
vt 0.320370913 0.930234909 0
vt 0.291060299 0.949670374 0
vt 0.257341981 0.931540251 0
vt 0.342765093 0.85061574 0
vt 0.422453105 0.839941084 0
vt 0.35228309 0.874350488 0
vt 0.386273354 0.488393456 0
vt 0.421855837 0.567297697 0
vt 0.218350202 0.504028857 0
vt 0.326858103 0.815613508 0
vt 0.403295577 0.792164922 0
vt 0.342765093 0.85061574 0
vt 0.429420799 0.278822273 0
vt 0.50043267 0.310815454 0
vt 0.460264653 0.302976519 0
vt 0.880883157 0.290167958 0
vt 0.903117597 0.287104577 0
vt 0.881507635 0.306415558 0
vt 0.0572827011 0.140673429 0
vt 0.0201810747 0.0909411013 0
vt 0.13712047 0.0547731183 0
vt 0.468605012 0.504024029 0
vt 0.461921215 0.376918882 0
vt 0.562358677 0.490405887 0
vt 0.913904846 0.936967969 0
vt 0.829935849 0.988219023 0
vt 0.825162292 0.965179205 0
vt 0.825162292 0.965179205 0
vt 0.829935849 0.988219023 0
vt 0.784394979 0.981287003 0
vt 0.128823057 0.989760101 0
vt 0.124192998 0.979965985 0
vt 0.172800139 0.963871896 0
vt 0.844815969 0.203429058 0
vt 0.860881984 0.193886995 0
vt 0.863995373 0.204743549 0
vt 0.446281075 0.189389497 0
vt 0.429420799 0.278822273 0
vt 0.410420269 0.132223979 0
vt 0.757913172 0.245269403 0
vt 0.759995997 0.280501992 0
vt 0.697303891 0.287741601 0
vt 0.752699494 0.723669112 0
vt 0.689944983 0.713307023 0
vt 0.695434391 0.70164454 0
vt 0.422453105 0.839941084 0
vt 0.5070948 0.903772235 0
vt 0.388948053 0.908536375 0
vt 0.983400583 0.489819378 0
vt 0.956053555 0.594436765 0
vt 0.935346067 0.468124241 0
vt 0.618161321 0.312208086 0
vt 0.68296653 0.267432362 0
vt 0.697303891 0.287741601 0
vt 0.404983193 0.28256458 0
vt 0.425471991 0.325645 0
vt 0.375436723 0.278589606 0
vt 0.218350202 0.504028857 0
vt 0.099949576 0.461781681 0
vt 0.116596356 0.406589657 0
vt 0.369299412 0.260829031 0
vt 0.333612263 0.232873067 0
vt 0.40246582 0.205322966 0
vt 0.325722814 0.267510355 0
vt 0.333612263 0.232873067 0
vt 0.369299412 0.260829031 0
vt 0.415757805 0.687517583 0
vt 0.256462991 0.593874753 0
vt 0.421855837 0.567297697 0
vt 0.449443877 0.811677694 0
vt 0.473953992 0.861689985 0
vt 0.422453105 0.839941084 0
vt 0.75642103 0.760670662 0
vt 0.691326976 0.745536029 0
vt 0.793603003 0.734003007 0
vt 0.683212101 0.75312674 0
vt 0.691326976 0.745536029 0
vt 0.75642103 0.760670662 0
vt 0.437833011 0.532837987 0
vt 0.443544865 0.542328 0
vt 0.421855837 0.567297697 0
vt 0.169128001 0.786435008 0
vt 0.171593249 0.758807778 0
vt 0.226635948 0.809448957 0
vt 0.171593249 0.758807778 0
vt 0.169128001 0.786435008 0
vt 0.125997409 0.738518834 0
vt 0.894242585 0.846783042 0
vt 0.843094528 0.781638324 0
vt 0.949871063 0.760831892 0
vt 0.256462991 0.593874753 0
vt 0.162880316 0.64993006 0
vt 0.0908715874 0.641010523 0
vt 0.198325068 0.90397191 0
vt 0.188389748 0.84618634 0
vt 0.262299806 0.869990051 0
vt 0.0812016949 0.587861538 0
vt 0.218350202 0.504028857 0
vt 0.256462991 0.593874753 0
vt 0.779303133 0.836286128 0
vt 0.75642103 0.760670662 0
vt 0.843094528 0.781638324 0
vt 0.695434391 0.70164454 0
vt 0.787739038 0.532844186 0
vt 0.793795288 0.709634125 0
vt 0.0505144373 0.313497931 0
vt 0.0655302033 0.316325009 0
vt 0.0776266456 0.372382253 0
vt 0.89332217 0.701700509 0
vt 0.787739038 0.532844186 0
vt 0.935346067 0.468124241 0
vt 0.837375164 0.719843566 0
vt 0.787739038 0.532844186 0
vt 0.89332217 0.701700509 0
vt 0.511061013 0.888514996 0
vt 0.488081962 0.838710785 0
vt 0.535327852 0.877782643 0
vt 0.511061013 0.888514996 0
vt 0.535327852 0.877782643 0
vt 0.547400236 0.929276049 0
vt 0.53160578 0.343673497 0
vt 0.597954392 0.41365689 0
vt 0.562358677 0.490405887 0
vt 0.562358677 0.490405887 0
vt 0.461921215 0.376918882 0
vt 0.53160578 0.343673497 0
vt 0.662356198 0.838620901 0
vt 0.629944384 0.762786388 0
vt 0.75642103 0.760670662 0
vt 0.333612263 0.232873067 0
vt 0.397946686 0.122923762 0
vt 0.40246582 0.205322966 0
vt 0.695434391 0.70164454 0
vt 0.633827865 0.665976107 0
vt 0.62781471 0.546256483 0
vt 0.615974188 0.328968465 0
vt 0.689857006 0.301537007 0
vt 0.739628971 0.297590017 0
vt 0.784394979 0.981287003 0
vt 0.708083153 0.988314271 0
vt 0.825162292 0.965179205 0
vt 0.62781471 0.546256483 0
vt 0.562358677 0.490405887 0
vt 0.674400747 0.396813363 0
vt 0.218350202 0.504028857 0
vt 0.0812016949 0.587861538 0
vt 0.099949576 0.461781681 0
vt 0.124192998 0.979965985 0
vt 0.147312 0.950251997 0
vt 0.172800139 0.963871896 0
vt 0.172800139 0.963871896 0
vt 0.147312 0.950251997 0
vt 0.150168031 0.912028134 0
vn -0.407047689 0.611481011 0.676283062
vn -0.625581145 0.630756795 0.484605968
vn -0.792256355 0.38473025 0.349748015
vn -0.792256355 0.38473025 0.349748015
vn -0.945388734 0.329627156 -0.0343777426
vn -0.977286637 0.236528918 -0.0107971644
vn -0.046475511 -1.0030489 -0.00887483824
vn 0.0358551927 -1.0016135 -0.00208376371
vn 0.000379387726 -0.974023819 0.168134868
vn 0.670410693 0.0389111266 -0.728864968
vn -0.202784553 -0.0463517383 -1.0200808
vn -0.109999783 0.0361133069 -1.00478983
vn 0.195687294 0.0443284661 0.967292428
vn -0.101806298 -0.0731792822 0.995432019
vn 0.116931744 -0.0809984729 0.991377413
vn -0.195678756 0.417163759 -0.885256052
vn 0.0251070261 0.346467465 -0.929294705
vn -0.572232783 0.298375756 -0.594693363
vn -0.273650497 -0.00586276595 -0.955419064
vn -0.109999783 0.0361133069 -1.00478983
vn -0.202784553 -0.0463517383 -1.0200808
vn 0.399644732 0.921565831 0.0420934968
vn -0.0632185712 0.981862128 -0.218305498
vn 0.0583435111 0.961835504 0.263825148
vn -0.0592327043 0.0814001262 1.00965941
vn -0.107496046 0.07287319 0.992356539
vn 0.195687294 0.0443284661 0.967292428
vn 0.994527638 -0.0803569928 -0.0350634679
vn 0.979994059 -0.122942924 0.141476452
vn 0.748761535 -0.661224127 -0.123891041
vn -0.138377041 -0.996162832 0.00311147724
vn -0.046475511 -1.0030489 -0.00887483824
vn 0.000379387726 -0.974023819 0.168134868
vn -0.101806298 -0.0731792822 0.995432019
vn -0.233535632 -0.406125158 0.892269611
vn 0.0238389689 -0.418500721 0.912137687
vn 0.89065671 0.455597907 -0.113311
vn 0.893084586 0.449690372 -0.114682101
vn 0.740177155 0.650585413 -0.173603073
vn 0.643733382 0.680701554 -0.336064041
vn 0.740177155 0.650585413 -0.173603073
vn 0.893084586 0.449690372 -0.114682101
vn 0.125230521 0.270617962 -0.945996463
vn 0.622762501 0.265819788 -0.722203076
vn 0.060025312 0.161673263 -1.00417781
vn 0.209287062 -0.841935396 0.504060984
vn 0.550126493 -0.630765915 0.555785
vn 0.0238389689 -0.418500721 0.912137687
vn 0.0238389689 -0.418500721 0.912137687
vn -0.215879828 -0.846491218 0.466819108
vn 0.000379387726 -0.974023819 0.168134868
vn -0.93224436 0.173491552 0.315413803
vn -0.977286637 0.236528918 -0.0107971644
vn -0.996765792 0.0925879702 0.0327676572
vn 0.748761535 -0.661224127 -0.123891041
vn 0.643012464 -0.761515677 -0.102446154
vn 0.994527638 -0.0803569928 -0.0350634679
vn 0.0358551927 -1.0016135 -0.00208376371
vn 0.256182939 -0.974240422 0.0895723403
vn 0.000379387726 -0.974023819 0.168134868
vn -0.307819068 0.431516379 0.849924564
vn -0.43875879 0.256410956 0.858042121
vn -0.014342742 0.303160012 0.93363601
vn 0.381419599 0.216769651 0.878739178
vn 0.571229577 0.4855524 0.630580604
vn -0.0592327043 0.0814001262 1.00965941
vn -0.912011385 -0.370740324 0.000737730996
vn -0.619777143 -0.757519066 -0.205039576
vn -0.577871263 -0.809652984 -0.102599934
vn -0.179505795 -0.951279938 -0.204508886
vn 0.061538402 -0.984513283 -0.17806007
vn -0.046475511 -1.0030489 -0.00887483824
vn -0.625581145 0.630756795 0.484605968
vn -0.407047689 0.611481011 0.676283062
vn -0.169955149 0.818062127 0.56377393
vn -0.912011385 -0.370740324 0.000737730996
vn -0.774207294 -0.440127641 -0.469965577
vn -0.70529151 -0.63209182 -0.320973128
vn -0.985267758 -0.0988795087 -0.0415298715
vn -0.735115707 -0.112162463 -0.66859901
vn -0.774207294 -0.440127641 -0.469965577
vn 0.991830349 0.115792491 0.100941852
vn 0.964880943 0.048486203 0.243492633
vn 0.979994059 -0.122942924 0.141476452
vn 0.849256396 0.0654197782 0.526258528
vn 0.979994059 -0.122942924 0.141476452
vn 0.964880943 0.048486203 0.243492633
vn -0.324347109 0.0653779432 -0.933791518
vn -0.273650497 -0.00586276595 -0.955419064
vn -0.735115707 -0.112162463 -0.66859901
vn 0.571229577 0.4855524 0.630580604
vn 0.729207873 0.330851734 0.578857243
vn 0.869457066 0.347395122 0.354404628
vn -0.918127298 0.148732796 -0.283808261
vn -0.324347109 0.0653779432 -0.933791518
vn -0.735115707 -0.112162463 -0.66859901
vn 0.380819857 -0.187994257 0.931339383
vn 0.634020686 -0.278041124 0.723312676
vn 0.849256396 0.0654197782 0.526258528
vn -0.307819068 0.431516379 0.849924564
vn -0.792256355 0.38473025 0.349748015
vn -0.43875879 0.256410956 0.858042121
vn 0.670410693 0.0389111266 -0.728864968
vn 0.820531785 -0.0728188083 -0.405812204
vn -0.202784553 -0.0463517383 -1.0200808
vn 1.00452948 0.0457021929 0.0255616736
vn 0.979994059 -0.122942924 0.141476452
vn 0.994527638 -0.0803569928 -0.0350634679
vn -0.0632185712 0.981862128 -0.218305498
vn -0.74559319 0.646639526 0.0100622484
vn -0.368713945 0.922256827 0.187256694
vn -0.945388734 0.329627156 -0.0343777426
vn -0.919006884 0.422503203 -0.0697007701
vn -0.953214586 0.304930598 0.0278337616
vn 0.270412624 -0.9533149 -0.0374610089
vn 0.332933277 -0.815659761 -0.452860326
vn 0.716739774 -0.679031074 -0.168667376
vn -0.635848761 0.782339871 -0.141418293
vn -0.74559319 0.646639526 0.0100622484
vn -0.0632185712 0.981862128 -0.218305498
vn -0.0547199883 -0.289477378 -0.976768672
vn 0.545671225 -0.365107715 -0.679846823
vn 0.332933277 -0.815659761 -0.452860326
vn 0.0251070261 0.346467465 -0.929294705
vn -0.195678756 0.417163759 -0.885256052
vn 0.0714294836 0.669089139 -0.746010959
vn -0.985267758 -0.0988795087 -0.0415298715
vn -0.774207294 -0.440127641 -0.469965577
vn -0.912011385 -0.370740324 0.000737730996
vn 0.0714294836 0.669089139 -0.746010959
vn 0.275524199 0.635362744 -0.721387863
vn 0.0251070261 0.346467465 -0.929294705
vn -0.014342742 0.303160012 0.93363601
vn -0.274930626 0.156794697 0.961601198
vn -0.107496046 0.07287319 0.992356539
vn -0.513293087 -0.853490949 -0.000450950116
vn -0.046475511 -1.0030489 -0.00887483824
vn -0.138377041 -0.996162832 0.00311147724
vn -0.179505795 -0.951279938 -0.204508886
vn -0.046475511 -1.0030489 -0.00887483824
vn -0.513293087 -0.853490949 -0.000450950116
vn 0.98318094 0.153279662 -0.067461051
vn 0.998370826 0.0975472406 0.00675484817
vn 1.00452948 0.0457021929 0.0255616736
vn 0.0714294836 0.669089139 -0.746010959
vn -0.411826342 0.6932019 -0.588207424
vn -0.24858743 0.867589951 -0.449780643
vn 0.061538402 -0.984513283 -0.17806007
vn 0.270412624 -0.9533149 -0.0374610089
vn -0.046475511 -1.0030489 -0.00887483824
vn 0.571229577 0.4855524 0.630580604
vn -0.014342742 0.303160012 0.93363601
vn -0.0592327043 0.0814001262 1.00965941
vn -0.572232783 0.298375756 -0.594693363
vn 0.125230521 0.270617962 -0.945996463
vn -0.121627852 0.140573755 -0.983635604
vn 1.02271974 0.114473656 -0.0038798165
vn 1.00452948 0.0457021929 0.0255616736
vn 0.670410693 0.0389111266 -0.728864968
vn 0.550126493 -0.630765915 0.555785
vn 0.634020686 -0.278041124 0.723312676
vn 0.380819857 -0.187994257 0.931339383
vn 0.550126493 -0.630765915 0.555785
vn 0.380819857 -0.187994257 0.931339383
vn 0.0238389689 -0.418500721 0.912137687
vn 0.820531785 -0.0728188083 -0.405812204
vn 0.545671225 -0.365107715 -0.679846823
vn -0.0547199883 -0.289477378 -0.976768672
vn 0.428866982 0.781280458 0.4763937
vn 0.399644732 0.921565831 0.0420934968
vn 0.0583435111 0.961835504 0.263825148
vn -0.169955149 0.818062127 0.56377393
vn 0.428866982 0.781280458 0.4763937
vn 0.0583435111 0.961835504 0.263825148
vn 0.116931744 -0.0809984729 0.991377413
vn 0.0238389689 -0.418500721 0.912137687
vn 0.380819857 -0.187994257 0.931339383
vn -0.70529151 -0.63209182 -0.320973128
vn -0.583838344 -0.522348762 -0.625647008
vn -0.179505795 -0.951279938 -0.204508886
vn -0.577871263 -0.809652984 -0.102599934
vn -0.619777143 -0.757519066 -0.205039576
vn -0.179505795 -0.951279938 -0.204508886
vn -0.977286637 0.236528918 -0.0107971644
vn -0.572232783 0.298375756 -0.594693363
vn -0.918127298 0.148732796 -0.283808261
vn 0.882915139 0.411512405 0.167687327
vn 0.89065671 0.455597907 -0.113311
vn 0.765562832 0.600178719 0.247570232
vn 0.89065671 0.455597907 -0.113311
vn 0.882915139 0.411512405 0.167687327
vn 0.893084586 0.449690372 -0.114682101
vn 0.125557259 0.905683458 -0.440984935
vn 0.643733382 0.680701554 -0.336064041
vn 0.0714294836 0.669089139 -0.746010959
vn 0.695505857 -0.695357263 0.205617532
vn 0.748761535 -0.661224127 -0.123891041
vn 0.979994059 -0.122942924 0.141476452
vn 0.643012464 -0.761515677 -0.102446154
vn 0.748761535 -0.661224127 -0.123891041
vn 0.256182939 -0.974240422 0.0895723403
vn 0.195687294 0.0443284661 0.967292428
vn -0.107496046 0.07287319 0.992356539
vn -0.101806298 -0.0731792822 0.995432019
vn -0.826174319 0.532238185 0.0924147293
vn -0.945388734 0.329627156 -0.0343777426
vn -0.792256355 0.38473025 0.349748015
vn -0.945388734 0.329627156 -0.0343777426
vn -0.74559319 0.646639526 0.0100622484
vn -0.919006884 0.422503203 -0.0697007701
vn 0.882915139 0.411512405 0.167687327
vn 0.869457066 0.347395122 0.354404628
vn 0.991830349 0.115792491 0.100941852
vn 0.869457066 0.347395122 0.354404628
vn 0.849256396 0.0654197782 0.526258528
vn 0.991830349 0.115792491 0.100941852
vn 0.424250126 0.879004419 -0.25574246
vn -0.0632185712 0.981862128 -0.218305498
vn 0.399644732 0.921565831 0.0420934968
vn -0.634502292 0.508217573 -0.596936464
vn -0.640074134 0.670971513 -0.374302298
vn -0.411826342 0.6932019 -0.588207424
vn 0.270412624 -0.9533149 -0.0374610089
vn 0.0358551927 -1.0016135 -0.00208376371
vn -0.046475511 -1.0030489 -0.00887483824
vn 0.381419599 0.216769651 0.878739178
vn -0.0592327043 0.0814001262 1.00965941
vn 0.195687294 0.0443284661 0.967292428
vn -0.202784553 -0.0463517383 -1.0200808
vn 0.820531785 -0.0728188083 -0.405812204
vn -0.0547199883 -0.289477378 -0.976768672
vn -0.583838344 -0.522348762 -0.625647008
vn -0.202784553 -0.0463517383 -1.0200808
vn -0.226665288 -0.505577445 -0.809213519
vn -0.735115707 -0.112162463 -0.66859901
vn -0.565195739 -0.174728811 -0.800815582
vn -0.774207294 -0.440127641 -0.469965577
vn 0.893084586 0.449690372 -0.114682101
vn 0.646863163 0.628622651 -0.436500281
vn 0.643733382 0.680701554 -0.336064041
vn 1.02271974 0.114473656 -0.0038798165
vn 0.622762501 0.265819788 -0.722203076
vn 0.98318094 0.153279662 -0.067461051
vn -0.640074134 0.670971513 -0.374302298
vn -0.635848761 0.782339871 -0.141418293
vn -0.411826342 0.6932019 -0.588207424
vn -0.0632185712 0.981862128 -0.218305498
vn -0.24858743 0.867589951 -0.449780643
vn -0.635848761 0.782339871 -0.141418293
vn 0.270412624 -0.9533149 -0.0374610089
vn 0.716739774 -0.679031074 -0.168667376
vn 0.643012464 -0.761515677 -0.102446154
vn -0.542606533 0.13216725 0.828696966
vn -0.43875879 0.256410956 0.858042121
vn -0.93224436 0.173491552 0.315413803
vn -0.769489884 0.0441841111 0.63712877
vn -0.93224436 0.173491552 0.315413803
vn -0.788556457 -0.0366405956 0.613869786
vn -0.233535632 -0.406125158 0.892269611
vn -0.759366512 -0.44735992 0.456103027
vn -0.215879828 -0.846491218 0.466819108
vn 0.0238389689 -0.418500721 0.912137687
vn -0.233535632 -0.406125158 0.892269611
vn -0.215879828 -0.846491218 0.466819108
vn -0.226665288 -0.505577445 -0.809213519
vn -0.179505795 -0.951279938 -0.204508886
vn -0.583838344 -0.522348762 -0.625647008
vn -0.179505795 -0.951279938 -0.204508886
vn -0.226665288 -0.505577445 -0.809213519
vn 0.332933277 -0.815659761 -0.452860326
vn -0.792256355 0.38473025 0.349748015
vn -0.625581145 0.630756795 0.484605968
vn -0.826174319 0.532238185 0.0924147293
vn -0.826174319 0.532238185 0.0924147293
vn -0.625581145 0.630756795 0.484605968
vn -0.368713945 0.922256827 0.187256694
vn 0.695505857 -0.695357263 0.205617532
vn 0.979994059 -0.122942924 0.141476452
vn 0.550126493 -0.630765915 0.555785
vn -0.121627852 0.140573755 -0.983635604
vn 0.060025312 0.161673263 -1.00417781
vn -0.109999783 0.0361133069 -1.00478983
vn -0.121627852 0.140573755 -0.983635604
vn -0.109999783 0.0361133069 -1.00478983
vn -0.273650497 -0.00586276595 -0.955419064
vn -0.374268979 0.0949133635 0.931851685
vn -0.43875879 0.256410956 0.858042121
vn -0.542606533 0.13216725 0.828696966
vn -0.274930626 0.156794697 0.961601198
vn -0.374268979 0.0949133635 0.931851685
vn -0.107496046 0.07287319 0.992356539
vn 0.651482642 0.386043549 -0.679171562
vn 0.893084586 0.449690372 -0.114682101
vn 0.98318094 0.153279662 -0.067461051
vn 0.893084586 0.449690372 -0.114682101
vn 0.882915139 0.411512405 0.167687327
vn 0.998370826 0.0975472406 0.00675484817
vn -0.634502292 0.508217573 -0.596936464
vn -0.195678756 0.417163759 -0.885256052
vn -0.572232783 0.298375756 -0.594693363
vn -0.918127298 0.148732796 -0.283808261
vn -0.572232783 0.298375756 -0.594693363
vn -0.324347109 0.0653779432 -0.933791518
vn -0.307819068 0.431516379 0.849924564
vn -0.407047689 0.611481011 0.676283062
vn -0.792256355 0.38473025 0.349748015
vn 0.256182939 -0.974240422 0.0895723403
vn 0.748761535 -0.661224127 -0.123891041
vn 0.695505857 -0.695357263 0.205617532
vn 0.256182939 -0.974240422 0.0895723403
vn 0.695505857 -0.695357263 0.205617532
vn 0.550126493 -0.630765915 0.555785
vn -0.0632185712 0.981862128 -0.218305498
vn -0.368713945 0.922256827 0.187256694
vn 0.0583435111 0.961835504 0.263825148
vn 0.125230521 0.270617962 -0.945996463
vn 0.0251070261 0.346467465 -0.929294705
vn 0.651482642 0.386043549 -0.679171562
vn 0.125230521 0.270617962 -0.945996463
vn -0.572232783 0.298375756 -0.594693363
vn 0.0251070261 0.346467465 -0.929294705
vn 0.116931744 -0.0809984729 0.991377413
vn -0.101806298 -0.0731792822 0.995432019
vn 0.0238389689 -0.418500721 0.912137687
vn -0.583838344 -0.522348762 -0.625647008
vn -0.774207294 -0.440127641 -0.469965577
vn -0.565195739 -0.174728811 -0.800815582
vn 0.332933277 -0.815659761 -0.452860326
vn 0.630371571 -0.666780949 -0.403154999
vn 0.716739774 -0.679031074 -0.168667376
vn 0.571229577 0.4855524 0.630580604
vn 0.571712852 0.621455371 0.52697742
vn -0.014342742 0.303160012 0.93363601
vn 0.0578507073 0.715821028 0.678367734
vn -0.307819068 0.431516379 0.849924564
vn -0.014342742 0.303160012 0.93363601
vn -0.844962656 -0.170053035 0.507070124
vn -1.00263131 -0.066086702 0.133623987
vn -0.857557833 -0.51489383 0.12113978
vn -0.522445261 -0.322115153 0.789489031
vn -0.844962656 -0.170053035 0.507070124
vn -0.759366512 -0.44735992 0.456103027
vn -0.74559319 0.646639526 0.0100622484
vn -0.635848761 0.782339871 -0.141418293
vn -0.919006884 0.422503203 -0.0697007701
vn 0.643012464 -0.761515677 -0.102446154
vn 0.716739774 -0.679031074 -0.168667376
vn 0.976930022 -0.290916651 -0.0161111802
vn 0.716739774 -0.679031074 -0.168667376
vn 0.630371571 -0.666780949 -0.403154999
vn 0.545671225 -0.365107715 -0.679846823
vn -0.977286637 0.236528918 -0.0107971644
vn -0.945388734 0.329627156 -0.0343777426
vn -0.953214586 0.304930598 0.0278337616
vn 0.0251070261 0.346467465 -0.929294705
vn 0.646863163 0.628622651 -0.436500281
vn 0.651482642 0.386043549 -0.679171562
vn -0.953214586 0.304930598 0.0278337616
vn -0.919006884 0.422503203 -0.0697007701
vn -0.572232783 0.298375756 -0.594693363
vn -0.0592327043 0.0814001262 1.00965941
vn -0.014342742 0.303160012 0.93363601
vn -0.107496046 0.07287319 0.992356539
vn -0.324347109 0.0653779432 -0.933791518
vn -0.572232783 0.298375756 -0.594693363
vn -0.121627852 0.140573755 -0.983635604
vn 0.729207873 0.330851734 0.578857243
vn 0.571229577 0.4855524 0.630580604
vn 0.381419599 0.216769651 0.878739178
vn 0.729207873 0.330851734 0.578857243
vn 0.849256396 0.0654197782 0.526258528
vn 0.869457066 0.347395122 0.354404628
vn 0.994527638 -0.0803569928 -0.0350634679
vn 0.976930022 -0.290916651 -0.0161111802
vn 0.820531785 -0.0728188083 -0.405812204
vn -0.625581145 0.630756795 0.484605968
vn -0.169955149 0.818062127 0.56377393
vn -0.368713945 0.922256827 0.187256694
vn -0.634502292 0.508217573 -0.596936464
vn -0.411826342 0.6932019 -0.588207424
vn -0.195678756 0.417163759 -0.885256052
vn -0.195678756 0.417163759 -0.885256052
vn -0.411826342 0.6932019 -0.588207424
vn 0.0714294836 0.669089139 -0.746010959
vn -0.982618928 0.00904746819 -0.180206716
vn -0.918127298 0.148732796 -0.283808261
vn -0.735115707 -0.112162463 -0.66859901
vn -0.985267758 -0.0988795087 -0.0415298715
vn -0.982618928 0.00904746819 -0.180206716
vn -0.735115707 -0.112162463 -0.66859901
vn -0.556927443 -0.13214685 0.814284742
vn -0.374268979 0.0949133635 0.931851685
vn -0.788556457 -0.0366405956 0.613869786
vn 0.740177155 0.650585413 -0.173603073
vn 0.765562832 0.600178719 0.247570232
vn 0.89065671 0.455597907 -0.113311
vn -0.179505795 -0.951279938 -0.204508886
vn 0.332933277 -0.815659761 -0.452860326
vn 0.061538402 -0.984513283 -0.17806007
vn -0.735115707 -0.112162463 -0.66859901
vn -0.273650497 -0.00586276595 -0.955419064
vn -0.565195739 -0.174728811 -0.800815582
vn 0.0578507073 0.715821028 0.678367734
vn 0.571712852 0.621455371 0.52697742
vn 0.428866982 0.781280458 0.4763937
vn -0.792256355 0.38473025 0.349748015
vn -0.93224436 0.173491552 0.315413803
vn -0.662350357 0.328159004 0.673501134
vn 0.195687294 0.0443284661 0.967292428
vn 0.116931744 -0.0809984729 0.991377413
vn 0.380819857 -0.187994257 0.931339383
vn -0.744957805 -0.654746532 -0.0541988984
vn -0.912011385 -0.370740324 0.000737730996
vn -0.577871263 -0.809652984 -0.102599934
vn -0.744957805 -0.654746532 -0.0541988984
vn -0.857557833 -0.51489383 0.12113978
vn -0.912011385 -0.370740324 0.000737730996
vn -0.101806298 -0.0731792822 0.995432019
vn -0.107496046 0.07287319 0.992356539
vn -0.225421339 -0.0194129609 0.980307043
vn 0.849256396 0.0654197782 0.526258528
vn 0.634020686 -0.278041124 0.723312676
vn 0.979994059 -0.122942924 0.141476452
vn -0.24858743 0.867589951 -0.449780643
vn -0.411826342 0.6932019 -0.588207424
vn -0.635848761 0.782339871 -0.141418293
vn -0.109999783 0.0361133069 -1.00478983
vn 0.060025312 0.161673263 -1.00417781
vn 0.670410693 0.0389111266 -0.728864968
vn -0.826174319 0.532238185 0.0924147293
vn -0.74559319 0.646639526 0.0100622484
vn -0.945388734 0.329627156 -0.0343777426
vn 0.882915139 0.411512405 0.167687327
vn 0.765562832 0.600178719 0.247570232
vn 0.658841074 0.624232948 0.419835448
vn 0.428866982 0.781280458 0.4763937
vn 0.765562832 0.600178719 0.247570232
vn 0.399644732 0.921565831 0.0420934968
vn -0.912011385 -0.370740324 0.000737730996
vn -0.70529151 -0.63209182 -0.320973128
vn -0.619777143 -0.757519066 -0.205039576
vn -0.70529151 -0.63209182 -0.320973128
vn -0.179505795 -0.951279938 -0.204508886
vn -0.619777143 -0.757519066 -0.205039576
vn 0.424250126 0.879004419 -0.25574246
vn 0.125557259 0.905683458 -0.440984935
vn -0.0632185712 0.981862128 -0.218305498
vn -0.577871263 -0.809652984 -0.102599934
vn -0.179505795 -0.951279938 -0.204508886
vn -0.513293087 -0.853490949 -0.000450950116
vn -0.513293087 -0.853490949 -0.000450950116
vn -0.744957805 -0.654746532 -0.0541988984
vn -0.577871263 -0.809652984 -0.102599934
vn -0.565195739 -0.174728811 -0.800815582
vn -0.273650497 -0.00586276595 -0.955419064
vn -0.202784553 -0.0463517383 -1.0200808
vn -0.583838344 -0.522348762 -0.625647008
vn -0.565195739 -0.174728811 -0.800815582
vn -0.202784553 -0.0463517383 -1.0200808
vn -0.014342742 0.303160012 0.93363601
vn 0.571712852 0.621455371 0.52697742
vn 0.0578507073 0.715821028 0.678367734
vn 0.991830349 0.115792491 0.100941852
vn 0.849256396 0.0654197782 0.526258528
vn 0.964880943 0.048486203 0.243492633
vn 0.0238389689 -0.418500721 0.912137687
vn 0.000379387726 -0.974023819 0.168134868
vn 0.209287062 -0.841935396 0.504060984
vn -0.202784553 -0.0463517383 -1.0200808
vn -0.0547199883 -0.289477378 -0.976768672
vn -0.226665288 -0.505577445 -0.809213519
vn -0.169955149 0.818062127 0.56377393
vn -0.172269553 0.666365683 0.725451529
vn 0.0578507073 0.715821028 0.678367734
vn -0.919006884 0.422503203 -0.0697007701
vn -0.634502292 0.508217573 -0.596936464
vn -0.572232783 0.298375756 -0.594693363
vn 0.716739774 -0.679031074 -0.168667376
vn 0.545671225 -0.365107715 -0.679846823
vn 0.976930022 -0.290916651 -0.0161111802
vn 0.545671225 -0.365107715 -0.679846823
vn 0.820531785 -0.0728188083 -0.405812204
vn 0.976930022 -0.290916651 -0.0161111802
vn 0.991830349 0.115792491 0.100941852
vn 1.00452948 0.0457021929 0.0255616736
vn 0.998370826 0.0975472406 0.00675484817
vn 0.893084586 0.449690372 -0.114682101
vn 0.651482642 0.386043549 -0.679171562
vn 0.646863163 0.628622651 -0.436500281
vn -0.985267758 -0.0988795087 -0.0415298715
vn -0.912011385 -0.370740324 0.000737730996
vn -1.00263131 -0.066086702 0.133623987
vn -1.00263131 -0.066086702 0.133623987
vn -0.996765792 0.0925879702 0.0327676572
vn -0.985267758 -0.0988795087 -0.0415298715
vn 0.275524199 0.635362744 -0.721387863
vn 0.0714294836 0.669089139 -0.746010959
vn 0.264309406 0.695417821 -0.668232441
vn 0.0714294836 0.669089139 -0.746010959
vn -0.24858743 0.867589951 -0.449780643
vn 0.125557259 0.905683458 -0.440984935
vn -0.324347109 0.0653779432 -0.933791518
vn -0.121627852 0.140573755 -0.983635604
vn -0.273650497 -0.00586276595 -0.955419064
vn -0.857557833 -0.51489383 0.12113978
vn -0.744957805 -0.654746532 -0.0541988984
vn -0.513293087 -0.853490949 -0.000450950116
vn 0.000379387726 -0.974023819 0.168134868
vn 0.256182939 -0.974240422 0.0895723403
vn 0.209287062 -0.841935396 0.504060984
vn -0.43875879 0.256410956 0.858042121
vn -0.662350357 0.328159004 0.673501134
vn -0.93224436 0.173491552 0.315413803
vn -0.43875879 0.256410956 0.858042121
vn -0.792256355 0.38473025 0.349748015
vn -0.662350357 0.328159004 0.673501134
vn 0.270412624 -0.9533149 -0.0374610089
vn 0.643012464 -0.761515677 -0.102446154
vn 0.0358551927 -1.0016135 -0.00208376371
vn 0.0358551927 -1.0016135 -0.00208376371
vn 0.643012464 -0.761515677 -0.102446154
vn 0.256182939 -0.974240422 0.0895723403
vn 0.550126493 -0.630765915 0.555785
vn 0.209287062 -0.841935396 0.504060984
vn 0.256182939 -0.974240422 0.0895723403
vn 0.740177155 0.650585413 -0.173603073
vn 0.643733382 0.680701554 -0.336064041
vn 0.424250126 0.879004419 -0.25574246
vn -0.759366512 -0.44735992 0.456103027
vn -0.857557833 -0.51489383 0.12113978
vn -0.215879828 -0.846491218 0.466819108
vn -0.225421339 -0.0194129609 0.980307043
vn -0.374268979 0.0949133635 0.931851685
vn -0.556927443 -0.13214685 0.814284742
vn -1.00263131 -0.066086702 0.133623987
vn -0.912011385 -0.370740324 0.000737730996
vn -0.857557833 -0.51489383 0.12113978
vn 1.00452948 0.0457021929 0.0255616736
vn 0.991830349 0.115792491 0.100941852
vn 0.979994059 -0.122942924 0.141476452
vn 0.74485904 0.290236235 -0.600789428
vn 0.125230521 0.270617962 -0.945996463
vn 0.651482642 0.386043549 -0.679171562
vn 0.74485904 0.290236235 -0.600789428
vn 0.651482642 0.386043549 -0.679171562
vn 0.98318094 0.153279662 -0.067461051
vn -0.522445261 -0.322115153 0.789489031
vn -0.759366512 -0.44735992 0.456103027
vn -0.233535632 -0.406125158 0.892269611
vn -0.556927443 -0.13214685 0.814284742
vn -0.522445261 -0.322115153 0.789489031
vn -0.233535632 -0.406125158 0.892269611
vn 0.428866982 0.781280458 0.4763937
vn 0.658841074 0.624232948 0.419835448
vn 0.765562832 0.600178719 0.247570232
vn 0.571712852 0.621455371 0.52697742
vn 0.658841074 0.624232948 0.419835448
vn 0.428866982 0.781280458 0.4763937
vn 0.670410693 0.0389111266 -0.728864968
vn 0.622762501 0.265819788 -0.722203076
vn 1.02271974 0.114473656 -0.0038798165
vn -0.556927443 -0.13214685 0.814284742
vn -0.788556457 -0.0366405956 0.613869786
vn -0.844962656 -0.170053035 0.507070124
vn -0.556927443 -0.13214685 0.814284742
vn -0.844962656 -0.170053035 0.507070124
vn -0.522445261 -0.322115153 0.789489031
vn -0.788556457 -0.0366405956 0.613869786
vn -0.93224436 0.173491552 0.315413803
vn -1.00263131 -0.066086702 0.133623987
vn -0.788556457 -0.0366405956 0.613869786
vn -1.00263131 -0.066086702 0.133623987
vn -0.844962656 -0.170053035 0.507070124
vn -0.014342742 0.303160012 0.93363601
vn -0.43875879 0.256410956 0.858042121
vn -0.274930626 0.156794697 0.961601198
vn -0.225421339 -0.0194129609 0.980307043
vn -0.556927443 -0.13214685 0.814284742
vn -0.233535632 -0.406125158 0.892269611
vn 0.381419599 0.216769651 0.878739178
vn 0.849256396 0.0654197782 0.526258528
vn 0.729207873 0.330851734 0.578857243
vn 0.125230521 0.270617962 -0.945996463
vn 0.060025312 0.161673263 -1.00417781
vn -0.121627852 0.140573755 -0.983635604
vn 0.643733382 0.680701554 -0.336064041
vn 0.125557259 0.905683458 -0.440984935
vn 0.424250126 0.879004419 -0.25574246
vn 0.399644732 0.921565831 0.0420934968
vn 0.765562832 0.600178719 0.247570232
vn 0.740177155 0.650585413 -0.173603073
vn 0.399644732 0.921565831 0.0420934968
vn 0.740177155 0.650585413 -0.173603073
vn 0.424250126 0.879004419 -0.25574246
vn -0.368713945 0.922256827 0.187256694
vn -0.169955149 0.818062127 0.56377393
vn 0.0583435111 0.961835504 0.263825148
vn -1.00263131 -0.066086702 0.133623987
vn -0.93224436 0.173491552 0.315413803
vn -0.996765792 0.0925879702 0.0327676572
vn -0.74559319 0.646639526 0.0100622484
vn -0.826174319 0.532238185 0.0924147293
vn -0.368713945 0.922256827 0.187256694
vn 0.332933277 -0.815659761 -0.452860326
vn 0.545671225 -0.365107715 -0.679846823
vn 0.630371571 -0.666780949 -0.403154999
vn 0.634020686 -0.278041124 0.723312676
vn 0.550126493 -0.630765915 0.555785
vn 0.979994059 -0.122942924 0.141476452
vn 0.061538402 -0.984513283 -0.17806007
vn 0.332933277 -0.815659761 -0.452860326
vn 0.270412624 -0.9533149 -0.0374610089
vn 0.658841074 0.624232948 0.419835448
vn 0.571712852 0.621455371 0.52697742
vn 0.882915139 0.411512405 0.167687327
vn 0.380819857 -0.187994257 0.931339383
vn 0.849256396 0.0654197782 0.526258528
vn 0.195687294 0.0443284661 0.967292428
vn 0.195687294 0.0443284661 0.967292428
vn 0.849256396 0.0654197782 0.526258528
vn 0.762858748 0.115187883 0.636221826
vn 0.646863163 0.628622651 -0.436500281
vn 0.275524199 0.635362744 -0.721387863
vn 0.643733382 0.680701554 -0.336064041
vn 0.0251070261 0.346467465 -0.929294705
vn 0.275524199 0.635362744 -0.721387863
vn 0.646863163 0.628622651 -0.436500281
vn -0.0547199883 -0.289477378 -0.976768672
vn 0.332933277 -0.815659761 -0.452860326
vn -0.226665288 -0.505577445 -0.809213519
vn 0.125230521 0.270617962 -0.945996463
vn 0.74485904 0.290236235 -0.600789428
vn 0.622762501 0.265819788 -0.722203076
vn 0.622762501 0.265819788 -0.722203076
vn 0.74485904 0.290236235 -0.600789428
vn 0.98318094 0.153279662 -0.067461051
vn -0.169955149 0.818062127 0.56377393
vn 0.0578507073 0.715821028 0.678367734
vn 0.428866982 0.781280458 0.4763937
vn 0.643012464 -0.761515677 -0.102446154
vn 0.976930022 -0.290916651 -0.0161111802
vn 0.994527638 -0.0803569928 -0.0350634679
vn 0.670410693 0.0389111266 -0.728864968
vn 0.060025312 0.161673263 -1.00417781
vn 0.622762501 0.265819788 -0.722203076
vn -0.759366512 -0.44735992 0.456103027
vn -0.844962656 -0.170053035 0.507070124
vn -0.857557833 -0.51489383 0.12113978
vn -0.996765792 0.0925879702 0.0327676572
vn -0.982618928 0.00904746819 -0.180206716
vn -0.985267758 -0.0988795087 -0.0415298715
vn -0.857557833 -0.51489383 0.12113978
vn -0.138377041 -0.996162832 0.00311147724
vn -0.215879828 -0.846491218 0.466819108
vn -0.513293087 -0.853490949 -0.000450950116
vn -0.138377041 -0.996162832 0.00311147724
vn -0.857557833 -0.51489383 0.12113978
vn -0.792256355 0.38473025 0.349748015
vn -0.977286637 0.236528918 -0.0107971644
vn -0.93224436 0.173491552 0.315413803
vn -0.407047689 0.611481011 0.676283062
vn -0.172269553 0.666365683 0.725451529
vn -0.169955149 0.818062127 0.56377393
vn -0.374268979 0.0949133635 0.931851685
vn -0.769489884 0.0441841111 0.63712877
vn -0.788556457 -0.0366405956 0.613869786
vn -0.542606533 0.13216725 0.828696966
vn -0.769489884 0.0441841111 0.63712877
vn -0.374268979 0.0949133635 0.931851685
vn -0.769489884 0.0441841111 0.63712877
vn -0.542606533 0.13216725 0.828696966
vn -0.93224436 0.173491552 0.315413803
vn -0.640074134 0.670971513 -0.374302298
vn -0.919006884 0.422503203 -0.0697007701
vn -0.635848761 0.782339871 -0.141418293
vn -0.919006884 0.422503203 -0.0697007701
vn -0.640074134 0.670971513 -0.374302298
vn -0.634502292 0.508217573 -0.596936464
vn -0.101806298 -0.0731792822 0.995432019
vn -0.225421339 -0.0194129609 0.980307043
vn -0.233535632 -0.406125158 0.892269611
vn -0.977286637 0.236528918 -0.0107971644
vn -0.953214586 0.304930598 0.0278337616
vn -0.572232783 0.298375756 -0.594693363
vn 0.125557259 0.905683458 -0.440984935
vn -0.24858743 0.867589951 -0.449780643
vn -0.0632185712 0.981862128 -0.218305498
vn -0.918127298 0.148732796 -0.283808261
vn -0.996765792 0.0925879702 0.0327676572
vn -0.977286637 0.236528918 -0.0107971644
vn -0.107496046 0.07287319 0.992356539
vn -0.374268979 0.0949133635 0.931851685
vn -0.225421339 -0.0194129609 0.980307043
vn 0.98318094 0.153279662 -0.067461051
vn 1.00452948 0.0457021929 0.0255616736
vn 1.02271974 0.114473656 -0.0038798165
vn -0.583838344 -0.522348762 -0.625647008
vn -0.70529151 -0.63209182 -0.320973128
vn -0.774207294 -0.440127641 -0.469965577
vn 0.820531785 -0.0728188083 -0.405812204
vn 1.00452948 0.0457021929 0.0255616736
vn 0.994527638 -0.0803569928 -0.0350634679
vn 0.670410693 0.0389111266 -0.728864968
vn 1.00452948 0.0457021929 0.0255616736
vn 0.820531785 -0.0728188083 -0.405812204
vn -0.172269553 0.666365683 0.725451529
vn -0.407047689 0.611481011 0.676283062
vn -0.307819068 0.431516379 0.849924564
vn -0.172269553 0.666365683 0.725451529
vn -0.307819068 0.431516379 0.849924564
vn 0.0578507073 0.715821028 0.678367734
vn 0.571229577 0.4855524 0.630580604
vn 0.869457066 0.347395122 0.354404628
vn 0.882915139 0.411512405 0.167687327
vn 0.882915139 0.411512405 0.167687327
vn 0.571712852 0.621455371 0.52697742
vn 0.571229577 0.4855524 0.630580604
vn -0.274930626 0.156794697 0.961601198
vn -0.43875879 0.256410956 0.858042121
vn -0.374268979 0.0949133635 0.931851685
vn -0.138377041 -0.996162832 0.00311147724
vn 0.000379387726 -0.974023819 0.168134868
vn -0.215879828 -0.846491218 0.466819108
vn 0.98318094 0.153279662 -0.067461051
vn 0.893084586 0.449690372 -0.114682101
vn 0.998370826 0.0975472406 0.00675484817
vn 0.381419599 0.216769651 0.878739178
vn 0.762858748 0.115187883 0.636221826
vn 0.849256396 0.0654197782 0.526258528
vn 0.762858748 0.115187883 0.636221826
vn 0.381419599 0.216769651 0.878739178
vn 0.195687294 0.0443284661 0.967292428
vn 0.998370826 0.0975472406 0.00675484817
vn 0.882915139 0.411512405 0.167687327
vn 0.991830349 0.115792491 0.100941852
vn -0.996765792 0.0925879702 0.0327676572
vn -0.918127298 0.148732796 -0.283808261
vn -0.982618928 0.00904746819 -0.180206716
vn 0.275524199 0.635362744 -0.721387863
vn 0.264309406 0.695417821 -0.668232441
vn 0.643733382 0.680701554 -0.336064041
vn 0.643733382 0.680701554 -0.336064041
vn 0.264309406 0.695417821 -0.668232441
vn 0.0714294836 0.669089139 -0.746010959
g Group3061_Group3061 g
f 3/1/1 4/2/2 5/3/3
f 5/4/4 6/5/5 7/6/6
f 10/7/7 11/8/8 12/9/9
f 13/10/10 14/11/11 15/12/12
f 18/13/13 19/14/14 20/15/15
f 23/16/16 24/17/17 25/18/18
f 26/19/19 15/20/20 14/21/21
f 33/22/22 22/23/23 34/24/24
f 37/25/25 38/26/26 18/27/27
f 39/28/28 40/29/29 41/30/30
f 46/31/31 10/32/32 12/33/33
f 19/34/34 47/35/35 48/36/36
f 50/37/37 51/38/38 52/39/39
f 53/40/40 52/41/41 51/42/42
f 54/43/43 55/44/44 56/45/45
f 1/46/46 58/47/47 48/48/48
f 48/49/49 59/50/50 12/51/51
f 62/52/52 7/53/53 45/54/54
f 41/55/55 63/56/56 39/57/57
f 11/58/58 2/59/59 12/60/60
f 65/61/61 61/62/62 66/63/63
f 69/64/64 35/65/65 37/66/66
f 17/67/67 71/68/68 72/69/69
f 42/70/70 73/71/71 10/72/72
f 4/73/73 3/74/74 74/75/75
f 17/76/76 76/77/77 77/78/78
f 44/79/79 78/80/80 76/81/81
f 29/82/82 30/83/83 40/84/84
f 32/85/85 40/86/86 30/87/87
f 79/88/88 26/89/89 78/90/90
f 35/91/91 81/92/92 82/93/93
f 83/94/94 79/95/95 78/96/96
f 31/97/97 86/98/98 32/99/99
f 65/100/100 5/101/101 61/102/102
f 13/103/103 87/104/104 14/105/105
f 88/106/106 40/107/107 39/108/108
f 22/109/109 89/110/110 90/111/111
f 6/112/112 91/113/113 92/114/114
f 95/115/115 43/116/116 96/117/117
f 97/118/118 89/119/119 22/120/120
f 68/121/121 99/122/122 43/123/123
f 24/124/124 23/125/125 104/126/126
f 44/127/127 76/128/128 17/129/129
f 104/130/130 106/131/131 24/132/132
f 66/133/133 60/134/134 38/135/135
f 27/136/136 10/137/137 46/138/138
f 42/139/139 10/140/140 27/141/141
f 9/142/142 80/143/143 88/144/144
f 104/145/145 108/146/146 109/147/147
f 73/148/148 95/149/149 10/150/150
f 35/151/151 66/152/152 37/153/153
f 25/154/154 54/155/155 84/156/156
f 8/157/157 88/158/158 13/159/159
f 58/160/160 86/161/161 31/162/162
f 58/163/163 31/164/164 48/165/165
f 87/166/166 99/167/167 68/168/168
f 64/169/169 33/170/170 34/171/171
f 74/172/172 64/173/173 34/174/174
f 20/175/175 48/176/176 31/177/177
f 77/178/178 114/179/179 42/180/180
f 72/181/181 71/182/182 42/183/183
f 7/184/184 25/185/185 83/186/186
f 115/187/187 50/188/188 116/189/189
f 50/190/190 115/191/191 51/192/192
f 98/193/193 53/194/194 104/195/195
f 85/196/196 41/197/197 40/198/198
f 63/199/199 41/200/200 2/201/201
f 18/202/202 38/203/203 19/204/204
f 118/205/205 6/206/206 5/207/207
f 6/208/208 89/209/209 91/210/210
f 115/211/211 82/212/212 29/213/213
f 82/214/214 32/215/215 29/216/216
f 21/217/217 22/218/218 33/219/219
f 119/220/220 120/221/221 108/222/222
f 95/223/223 11/224/224 10/225/225
f 69/226/226 37/227/227 18/228/228
f 14/229/229 87/230/230 68/231/231
f 114/232/232 14/233/233 67/234/234
f 78/235/235 122/236/236 76/237/237
f 51/238/238 105/239/239 53/240/240
f 8/241/241 55/242/242 9/243/243
f 120/244/244 97/245/245 108/246/246
f 22/247/247 109/248/248 97/249/249
f 95/250/250 96/251/251 63/252/252
f 102/253/253 61/254/254 62/255/255
f 123/256/256 62/257/257 112/258/258
f 47/259/259 113/260/260 59/261/261
f 48/262/262 47/263/263 59/264/264
f 67/265/265 42/266/266 114/267/267
f 42/268/268 67/269/269 43/270/270
f 5/271/271 4/272/272 118/273/273
f 118/274/274 4/275/275 90/276/276
f 85/277/277 40/278/278 58/279/279
f 84/280/280 56/281/281 15/282/282
f 84/283/283 15/284/284 26/285/285
f 101/286/286 61/287/287 102/288/288
f 60/289/289 101/290/290 38/291/291
f 57/292/292 51/293/293 9/294/294
f 51/295/295 115/296/296 80/297/297
f 119/298/298 23/299/299 25/300/300
f 83/301/301 25/302/302 79/303/303
f 65/304/304 3/305/305 5/306/306
f 2/307/307 41/308/308 85/309/309
f 2/310/310 85/311/311 58/312/312
f 22/313/313 90/314/314 34/315/315
f 54/316/316 24/317/317 57/318/318
f 54/319/319 25/320/320 24/321/321
f 20/322/322 19/323/323 48/324/324
f 114/325/325 76/326/326 122/327/327
f 43/328/328 124/329/329 96/330/330
f 35/331/331 36/332/332 66/333/333
f 111/334/334 65/335/335 66/336/336
f 94/337/337 93/338/338 16/339/339
f 110/340/340 94/341/341 113/342/342
f 89/343/343 97/344/344 91/345/345
f 63/346/346 96/347/347 100/348/348
f 96/349/349 124/350/350 99/351/351
f 7/352/352 6/353/353 92/354/354
f 24/355/355 105/356/356 57/357/357
f 92/358/358 91/359/359 25/360/360
f 37/361/361 66/362/362 38/363/363
f 79/364/364 25/365/365 84/366/366
f 81/367/367 35/368/368 69/369/369
f 81/370/370 32/371/371 82/372/372
f 39/373/373 100/374/374 87/375/375
f 4/376/376 74/377/377 90/378/378
f 119/379/379 108/380/380 23/381/381
f 23/382/382 108/383/383 104/384/384
f 117/385/385 83/386/386 78/387/387
f 44/388/388 117/389/389 78/390/390
f 107/391/391 101/392/392 112/393/393
f 52/394/394 116/395/395 50/396/396
f 42/397/397 43/398/398 73/399/399
f 78/400/400 26/401/401 122/402/402
f 111/403/403 36/404/404 64/405/405
f 5/406/406 62/407/407 121/408/408
f 18/409/409 20/410/410 31/411/411
f 28/412/412 17/413/413 72/414/414
f 28/415/415 16/416/416 17/417/417
f 19/418/418 38/419/419 103/420/420
f 32/421/421 86/422/422 40/423/423
f 109/424/424 108/425/425 97/426/426
f 15/427/427 56/428/428 13/429/429
f 118/430/430 89/431/431 6/432/432
f 115/433/433 116/434/434 49/435/435
f 64/436/436 116/437/437 33/438/438
f 17/439/439 77/440/440 71/441/441
f 77/442/442 42/443/443 71/444/444
f 21/445/445 98/446/446 22/447/447
f 72/448/448 42/449/449 27/450/450
f 27/451/451 28/452/452 72/453/453
f 122/454/454 26/455/455 14/456/456
f 114/457/457 122/458/458 14/459/459
f 66/460/460 36/461/461 111/462/462
f 29/463/463 32/464/464 30/465/465
f 48/466/466 12/467/467 1/468/468
f 14/469/469 68/470/470 67/471/471
f 74/472/472 75/473/473 111/474/474
f 91/475/475 119/476/476 25/477/477
f 96/478/478 99/479/479 100/480/480
f 99/481/481 87/482/482 100/483/483
f 29/484/484 88/485/485 80/486/486
f 51/487/487 57/488/488 105/489/489
f 44/490/490 17/491/491 93/492/492
f 93/493/493 45/494/494 44/495/495
f 106/496/496 104/497/497 125/498/498
f 104/499/499 109/500/500 98/501/501
f 79/502/502 84/503/503 26/504/504
f 16/505/505 28/506/506 27/507/507
f 12/508/508 2/509/509 1/510/510
f 61/511/511 121/512/512 62/513/513
f 61/514/514 5/515/515 121/516/516
f 95/517/517 63/518/518 11/519/519
f 11/520/520 63/521/521 2/522/522
f 58/523/523 1/524/524 2/525/525
f 52/526/526 53/527/527 21/528/528
f 113/529/529 16/530/530 59/531/531
f 103/532/532 101/533/533 107/534/534
f 93/535/535 17/536/536 16/537/537
f 88/538/538 29/539/539 40/540/540
f 126/541/541 54/542/542 57/543/543
f 126/544/544 57/545/545 9/546/546
f 110/547/547 113/548/548 47/549/549
f 107/550/550 110/551/551 47/552/552
f 64/553/553 49/554/554 116/555/555
f 36/556/556 49/557/557 64/558/558
f 13/559/559 55/560/560 8/561/561
f 107/562/562 112/563/563 94/564/564
f 107/565/565 94/566/566 110/567/567
f 112/568/568 62/569/569 93/570/570
f 112/571/571 93/572/572 94/573/573
f 66/574/574 61/575/575 60/576/576
f 103/577/577 107/578/578 47/579/579
f 69/580/580 32/581/581 81/582/582
f 54/583/583 56/584/584 84/585/585
f 53/586/586 98/587/587 21/588/588
f 33/589/589 116/590/590 52/591/591
f 33/592/592 52/593/593 21/594/594
f 90/595/595 74/596/596 34/597/597
f 93/598/598 62/599/599 45/600/600
f 89/601/601 118/602/602 90/603/603
f 43/604/604 99/605/605 124/606/606
f 86/607/607 58/608/608 40/609/609
f 73/610/610 43/611/611 95/612/612
f 49/613/613 36/614/614 115/615/615
f 31/616/616 32/617/617 18/618/618
f 18/619/619 32/620/620 70/621/621
f 105/622/622 106/623/623 53/624/624
f 24/625/625 106/626/626 105/627/627
f 68/628/628 43/629/629 67/630/630
f 54/631/631 126/632/632 55/633/633
f 55/634/634 126/635/635 9/636/636
f 74/637/637 111/638/638 64/639/639
f 63/640/640 100/641/641 39/642/642
f 13/643/643 56/644/644 55/645/645
f 113/646/646 94/647/647 16/648/648
f 45/649/649 117/650/650 44/651/651
f 16/652/652 46/653/653 59/654/654
f 27/655/655 46/656/656 16/657/657
f 5/658/658 7/659/659 62/660/660
f 3/661/661 75/662/662 74/663/663
f 101/664/664 123/665/665 112/666/666
f 102/667/667 123/668/668 101/669/669
f 123/670/670 102/671/671 62/672/672
f 120/673/673 91/674/674 97/675/675
f 91/676/676 120/677/677 119/678/678
f 19/679/679 103/680/680 47/681/681
f 7/682/682 92/683/683 25/684/684
f 98/685/685 109/686/686 22/687/687
f 83/688/688 45/689/689 7/690/690
f 38/691/691 101/692/692 103/693/693
f 9/694/694 88/695/695 8/696/696
f 114/697/697 77/698/698 76/699/699
f 87/700/700 88/701/701 39/702/702
f 13/703/703 88/704/704 87/705/705
f 75/706/706 3/707/707 65/708/708
f 75/709/709 65/710/710 111/711/711
f 35/712/712 82/713/713 115/714/714
f 115/715/715 36/716/716 35/717/717
f 60/718/718 61/719/719 101/720/720
f 46/721/721 12/722/722 59/723/723
f 9/724/724 51/725/725 80/726/726
f 69/727/727 70/728/728 32/729/729
f 70/730/730 69/731/731 18/732/732
f 80/733/733 115/734/734 29/735/735
f 45/736/736 83/737/737 117/738/738
f 106/739/739 125/740/740 53/741/741
f 53/742/742 125/743/743 104/744/744
