# File exported by Houdini 16.5.405 (www.sidefx.com)
# 126 points
# 744 vertices
# 248 primitives
# Bounds: [-40.2444649, -1.58180165, -20.8280869] to [40.5798149, 40.390564, 20.8431549]
g 
v 30.5550537 22.4508209 17.9917507
v 36.9853554 6.60777187 -4.83263826
v -33.7930374 31.8393402 -1.57034743
v -0.271042347 12.3476038 -19.402544
v 12.3654423 -1.06265473 -6.48735094
v -6.41406155 30.2880917 20.8310146
v 30.5821152 10.0416889 -16.5753155
v -38.4220467 13.2685776 -11.474824
v 9.52135468 26.8360271 -13.7586031
v 33.2083664 8.76262283 15.2792244
v 37.211998 18.0204906 -19.6851006
v 33.6965714 26.8837795 -20.7593651
v -38.2444763 19.2558098 8.25879669
v -5.99470615 17.3013306 -18.0592575
v -8.62496567 39.8780022 4.99039125
v -18.6340904 0.507804334 6.05432892
v 2.55787158 28.0023937 -8.77815247
v -16.1497421 -1.37586939 2.3879168
v 36.8535385 35.8434601 3.01172256
v -38.9700661 8.49472618 -6.14294624
v -38.1522713 25.6218262 -5.40768576
v 34.0520744 0.0402312763 -1.21298099
v 36.7409401 24.1489067 -19.3506222
v -14.2256012 17.3411922 -17.8644218
v 17.0009537 20.4895458 -20.4392147
v -4.22571373 15.9485588 20.4981861
v -11.9287853 36.8408852 -1.38917387
v 26.2386036 1.0081743 9.17227459
v 31.903986 34.7892494 14.1304245
v 0.780950785 -0.80294615 -5.53670216
v 3.51365209 30.8441372 20.4762955
v -36.0366287 16.9358559 -14.0405941
v 18.2506218 35.1390266 -10.0079432
v -29.0301056 21.7158699 20.829134
v 31.7677135 36.8244438 12.4280338
v -33.6966324 12.3340654 19.0794277
v 34.9256134 2.24258471 9.29795837
v -16.8172016 15.2855864 -18.4907932
v 34.7052345 33.7677269 -12.0976954
v 22.3504181 29.633379 20.7697506
v 40.5798149 14.2606258 -11.074666
v -32.7691727 -0.71145618 4.67441416
v 12.38311 39.983551 10.1336622
v -38.2086143 15.9642982 20.0999851
v 0.587226927 22.3356266 -15.4427462
v 30.5452766 32.0015564 16.8137074
v -37.8410835 24.4357033 -7.1979146
v 19.7558041 37.9644241 -7.55503321
v 34.4357872 9.43003178 12.7622824
v -38.7101173 18.9320774 -11.2227306
v 30.41325 33.2137833 -15.5560961
v 6.29933119 10.5460873 20.6357613
v 23.6165218 39.967823 -3.83235168
v 10.5396223 0.117224738 9.82475758
v 15.5253563 14.728343 -20.8280869
v 31.8184624 37.9869003 10.9339104
v -37.2601318 29.1347294 5.70039272
v 20.0397987 40.1004066 1.94969738
v 35.357399 1.84763408 -1.74703562
v -38.7278214 9.09923649 15.4003878
v -28.0743828 35.6521034 0.649687529
v -21.6130829 15.0343857 20.8385162
v 34.8820572 -1.25756633 3.71345901
v 38.4980812 20.6856632 -17.5977879
v -28.316103 36.8035011 1.86288071
v 4.79076719 40.3069687 2.84424853
v 31.7140579 13.6591511 17.172472
v -36.1275978 23.7198372 18.4327431
v -7.29168749 40.390564 2.51580477
v -13.3277302 28.4027443 20.6031265
v 14.1132135 34.5725288 -3.64192629
v 24.7195148 -1.18837893 -9.13199234
v 30.216095 18.7674351 -20.7885094
v 34.0895309 38.1843147 5.37134409
v -25.2316208 -1.38717699 1.45560646
v 33.6463165 39.7505722 2.33049846
v 26.7957859 19.2325382 18.8700905
v -7.26175261 14.1404104 -18.8689938
v -37.1613503 25.480629 14.7780437
v 15.2886066 17.7640305 20.3516388
v -5.95098305 12.131505 -17.8863544
v 18.1029358 -1.29035306 7.57349586
v -3.0145638 38.4678535 11.0176773
v 0.13454251 23.7247639 -12.4811668
v 34.4639435 39.0112953 -1.59225392
v 1.56166685 -1.02087796 2.59024096
v 21.5623951 2.02816772 -13.152277
v 4.54823017 26.562212 -10.4595413
v -36.8023453 14.0042791 -12.7572212
v 19.7678719 -0.175267905 -10.6219969
v 30.0999184 30.221117 18.455328
v 4.62583637 15.8728971 -20.5221233
v -38.752121 5.96862793 9.08266068
v -39.2486496 8.9383812 13.4378853
v 34.6048737 -0.189935878 6.52894163
v -39.6899529 13.4308987 -9.26076031
v -29.3951111 24.6191349 19.6484013
v 23.5011158 37.8522873 -9.49426746
v 12.9111986 38.2320366 -0.00898149982
v 9.13538361 30.7002964 20.5710049
v -28.9446774 -1.58180165 3.14084268
v -0.376227468 38.5222244 -0.0816664994
v 25.256279 1.33435023 -12.7060022
v -34.0252495 32.2488365 -0.519285858
v 15.586071 37.5975075 -0.63257426
v 5.1455102 14.0317831 -20.7630024
v 35.1117287 38.9489403 1.19499993
v -22.5671349 17.6785812 -16.0063324
v 29.9019566 7.48602819 -14.2781582
v -3.52420807 16.38871 20.8431549
v -40.2444649 4.1933465 1.60341454
v 26.7990837 0.621799469 -10.7395086
v -22.1519489 14.3966331 -16.6414318
v 29.1129742 39.5377274 8.37104511
v -23.1824837 25.6218128 20.6676292
v -31.7994423 13.8966064 -13.8232975
v 35.3836975 29.1522446 -17.8883553
v 15.4557791 30.1196594 20.790884
v 22.4510956 30.1907959 20.1792412
v -35.1052666 32.7380295 5.418221
v -3.20751119 30.7281666 20.220768
v -10.3165483 15.503191 20.4523869
v 5.12890291 28.1547585 -8.69507599
v 14.6117001 31.1858444 19.7940941
v 35.2815857 12.1720009 -14.6605539
v 7.66980743 8.26212788 18.1102867
vt 0.492491782 0.220788985 0
vt 0.399703652 0.380392253 0
vt 0.35139057 0.242696509 0
vt 0.971955657 0.0740117431 0
vt 0.814034641 0.334354162 0
vt 0.810323358 0.141905218 0
vt 0.0848959163 0.690593183 0
vt 0.237623468 0.895487428 0
vt 0.167434946 0.927437365 0
vt 0.800644398 0.421400815 0
vt 0.797935426 0.515499473 0
vt 0.690677047 0.439202368 0
vt 0.903036177 0.844199538 0
vt 0.888162613 0.95498687 0
vt 0.781734109 0.82352525 0
vt 0.237623468 0.895487428 0
vt 0.240637437 0.985406458 0
vt 0.167434946 0.927437365 0
vt 0.97444123 0.112669617 0
vt 0.814034641 0.334354162 0
vt 0.971955657 0.0740117431 0
vt 0.903036177 0.844199538 0
vt 0.953967035 0.898861706 0
vt 0.888162613 0.95498687 0
vt 0.199491322 0.279212713 0
vt 0.268906504 0.379788488 0
vt 0.225935549 0.382967263 0
vt 0.0372631066 0.798463702 0
vt 0.0848959163 0.690593183 0
vt 0.167434946 0.927437365 0
vt 0.0848959163 0.690593183 0
vt 0.246125534 0.759757221 0
vt 0.279352725 0.878446341 0
vt 0.657918096 0.493930727 0
vt 0.607993603 0.338340521 0
vt 0.684918642 0.381499082 0
vt 0.176767871 0.527634859 0
vt 0.20224084 0.657191277 0
vt 0.0701703653 0.595472634 0
vt 0.699376643 0.781542361 0
vt 0.522460938 0.757434189 0
vt 0.56343329 0.696658254 0
vt 0.550895631 0.250046074 0
vt 0.572562218 0.367615461 0
vt 0.399703652 0.380392253 0
vt 0.979958773 0.188171655 0
vt 0.953825355 0.308797151 0
vt 0.818624496 0.482976228 0
vt 0.598898947 0.188994914 0
vt 0.76221925 0.176523641 0
vt 0.584340572 0.233239114 0
vt 0.903036177 0.844199538 0
vt 0.781734109 0.82352525 0
vt 0.860392928 0.770563543 0
vt 0.78750205 0.200098112 0
vt 0.814034641 0.334354162 0
vt 0.752682924 0.327020764 0
vt 0.108775601 0.178245977 0
vt 0.140467316 0.219121069 0
vt 0.0388799272 0.229346603 0
vt 0.906503141 0.0496675856 0
vt 0.806373417 0.114466362 0
vt 0.838544965 0.0355751589 0
vt 0.780245185 0.0222522989 0
vt 0.805016518 0.088475205 0
vt 0.730417609 0.00432261638 0
vt 0.0593959652 0.710146725 0
vt 0.0848959163 0.690593183 0
vt 0.0372631066 0.798463702 0
vt 0.399703652 0.380392253 0
vt 0.492491782 0.220788985 0
vt 0.550895631 0.250046074 0
vt 0.293492913 0.796405554 0
vt 0.311082423 0.843095601 0
vt 0.279352725 0.878446341 0
vt 0.178317919 0.484479249 0
vt 0.0701703653 0.595472634 0
vt 0.0816859379 0.535717249 0
vt 0.904619455 0.729211807 0
vt 0.922542632 0.647752345 0
vt 0.951161802 0.599009991 0
vt 0.338274896 0.469541013 0
vt 0.397317559 0.453756779 0
vt 0.308802158 0.591952443 0
vt 0.341561466 0.441939563 0
vt 0.410656661 0.434741676 0
vt 0.338274896 0.469541013 0
vt 0.338274896 0.469541013 0
vt 0.25688979 0.475133955 0
vt 0.341561466 0.441939563 0
vt 0.585744083 0.321887255 0
vt 0.584340572 0.233239114 0
vt 0.752682924 0.327020764 0
vt 0.699376643 0.781542361 0
vt 0.697269857 0.674144983 0
vt 0.760906756 0.616974711 0
vt 0.377981305 0.190408602 0
vt 0.493575186 0.210168332 0
vt 0.492491782 0.220788985 0
vt 0.665331304 0.560275137 0
vt 0.636986554 0.557336032 0
vt 0.690677047 0.439202368 0
vt 0.35139057 0.242696509 0
vt 0.345136821 0.378555477 0
vt 0.311982036 0.287481815 0
vt 0.904619455 0.729211807 0
vt 0.951161802 0.599009991 0
vt 0.955400646 0.66551888 0
vt 0.904619455 0.729211807 0
vt 0.971375585 0.738676012 0
vt 0.995390534 0.780676544 0
vt 0.263684183 0.0852264836 0
vt 0.188018024 0.160855576 0
vt 0.13382408 0.146133661 0
vt 0.522460938 0.757434189 0
vt 0.471530855 0.785872817 0
vt 0.447196603 0.730620384 0
vt 0.955603123 0.353080809 0
vt 0.840542793 0.501307309 0
vt 0.818624496 0.482976228 0
vt 0.25688979 0.475133955 0
vt 0.25033015 0.462965488 0
vt 0.286324769 0.44044733 0
vt 0.0547075495 0.293473274 0
vt 0.0388799272 0.229346603 0
vt 0.0750822499 0.27116859 0
vt 0.76221925 0.176523641 0
vt 0.598898947 0.188994914 0
vt 0.679464161 0.0247960314 0
vt 0.76221925 0.176523641 0
vt 0.679464161 0.0247960314 0
vt 0.805016518 0.088475205 0
vt 0.896366 0.491484314 0
vt 0.96201247 0.491470754 0
vt 0.95628494 0.558751106 0
vt 0.0848959163 0.690593183 0
vt 0.221744433 0.71590209 0
vt 0.246125534 0.759757221 0
vt 0.397317559 0.453756779 0
vt 0.338274896 0.469541013 0
vt 0.410656661 0.434741676 0
vt 0.0701703653 0.595472634 0
vt 0.168112949 0.685741425 0
vt 0.106274962 0.645794034 0
vt 0.0549689718 0.308041751 0
vt 0.184350133 0.377181292 0
vt 0.125022352 0.38454935 0
vt 0.904619455 0.729211807 0
vt 0.856906354 0.743831933 0
vt 0.836738765 0.655376673 0
vt 0.810323358 0.141905218 0
vt 0.906503141 0.0496675856 0
vt 0.971955657 0.0740117431 0
vt 0.784171104 0.943910003 0
vt 0.775847256 0.890440702 0
vt 0.796020925 0.929059148 0
vt 0.906503141 0.0496675856 0
vt 0.810323358 0.141905218 0
vt 0.806373417 0.114466362 0
vt 0.76221925 0.176523641 0
vt 0.806373417 0.114466362 0
vt 0.78750205 0.200098112 0
vt 0.296676517 0.879819453 0
vt 0.240637437 0.985406458 0
vt 0.237623468 0.895487428 0
vt 0.56343329 0.696658254 0
vt 0.522460938 0.757434189 0
vt 0.447196603 0.730620384 0
vt 0.679464161 0.0247960314 0
vt 0.730417609 0.00432261638 0
vt 0.805016518 0.088475205 0
vt 0.338274896 0.469541013 0
vt 0.303375751 0.52406925 0
vt 0.249280646 0.576089203 0
vt 0.157926202 0.695168018 0
vt 0.221744433 0.71590209 0
vt 0.0848959163 0.690593183 0
vt 0.592507124 0.474266648 0
vt 0.592412114 0.550911129 0
vt 0.549828172 0.412161618 0
vt 0.246125534 0.759757221 0
vt 0.293492913 0.796405554 0
vt 0.279352725 0.878446341 0
vt 0.246125534 0.759757221 0
vt 0.255479306 0.740138292 0
vt 0.293492913 0.796405554 0
vt 0.549828172 0.412161618 0
vt 0.568232477 0.382290691 0
vt 0.578622878 0.424676985 0
vt 0.549828172 0.412161618 0
vt 0.578622878 0.424676985 0
vt 0.592507124 0.474266648 0
vt 0.0701703653 0.595472634 0
vt 0.106274962 0.645794034 0
vt 0.0622703359 0.620857 0
vt 0.0293329973 0.200684115 0
vt 0.0168235395 0.112560205 0
vt 0.0471100509 0.0844793245 0
vt 0.95628494 0.558751106 0
vt 0.760906756 0.616974711 0
vt 0.896366 0.491484314 0
vt 0.836738765 0.655376673 0
vt 0.856906354 0.743831933 0
vt 0.760906756 0.616974711 0
vt 0.105373934 0.133999854 0
vt 0.13382408 0.146133661 0
vt 0.108775601 0.178245977 0
vt 0.108775601 0.178245977 0
vt 0.13382408 0.146133661 0
vt 0.140467316 0.219121069 0
vt 0.585744083 0.321887255 0
vt 0.752682924 0.327020764 0
vt 0.684918642 0.381499082 0
vt 0.25033015 0.462965488 0
vt 0.110751562 0.389091998 0
vt 0.286324769 0.44044733 0
vt 0.178317919 0.484479249 0
vt 0.0302048177 0.540549695 0
vt 0.0618131198 0.467188776 0
vt 0.0409092866 0.718486667 0
vt 0.0593959652 0.710146725 0
vt 0.0372631066 0.798463702 0
vt 0.971375585 0.738676012 0
vt 0.990025282 0.76219362 0
vt 0.995390534 0.780676544 0
vt 0.195203722 0.19966419 0
vt 0.293220222 0.201656237 0
vt 0.140467316 0.219121069 0
vt 0.279352725 0.878446341 0
vt 0.296676517 0.879819453 0
vt 0.237623468 0.895487428 0
vt 0.0848959163 0.690593183 0
vt 0.279352725 0.878446341 0
vt 0.237623468 0.895487428 0
vt 0.423546851 0.672648966 0
vt 0.472333133 0.694979787 0
vt 0.447196603 0.730620384 0
vt 0.903036177 0.844199538 0
vt 0.860392928 0.770563543 0
vt 0.932165563 0.756554902 0
vt 0.752682924 0.327020764 0
vt 0.76221925 0.176523641 0
vt 0.78750205 0.200098112 0
vt 0.549828172 0.412161618 0
vt 0.592412114 0.550911129 0
vt 0.565038264 0.598712385 0
vt 0.546721876 0.202212423 0
vt 0.550895631 0.250046074 0
vt 0.492491782 0.220788985 0
vt 0.338274896 0.469541013 0
vt 0.249280646 0.576089203 0
vt 0.176767871 0.527634859 0
vt 0.199491322 0.279212713 0
vt 0.0547075495 0.293473274 0
vt 0.0750822499 0.27116859 0
vt 0.447196603 0.730620384 0
vt 0.472333133 0.694979787 0
vt 0.56343329 0.696658254 0
vt 0.56343329 0.696658254 0
vt 0.472333133 0.694979787 0
vt 0.645140409 0.679158211 0
vt 0.311082423 0.843095601 0
vt 0.296676517 0.879819453 0
vt 0.279352725 0.878446341 0
vt 0.167434946 0.927437365 0
vt 0.132937789 0.987817407 0
vt 0.115708783 0.966033816 0
vt 0.546841979 0.193371698 0
vt 0.492491782 0.220788985 0
vt 0.493575186 0.210168332 0
vt 0.255117446 0.226075917 0
vt 0.35139057 0.242696509 0
vt 0.199491322 0.279212713 0
vt 0.342229247 0.226039648 0
vt 0.492491782 0.220788985 0
vt 0.35139057 0.242696509 0
vt 0.840542793 0.501307309 0
vt 0.797935426 0.515499473 0
vt 0.818624496 0.482976228 0
vt 0.246125534 0.759757221 0
vt 0.221744433 0.71590209 0
vt 0.255479306 0.740138292 0
vt 0.932165563 0.756554902 0
vt 0.976151347 0.800364852 0
vt 0.967595637 0.830033839 0
vt 0.0490137488 0.958759606 0
vt 0.0223762169 0.909790874 0
vt 0.115708783 0.966033816 0
vt 0.0471100509 0.0844793245 0
vt 0.0168235395 0.112560205 0
vt 0.00387596898 0.0573576614 0
vt 0.30269438 0.971640587 0
vt 0.240637437 0.985406458 0
vt 0.296676517 0.879819453 0
vt 0.874028981 0.962258518 0
vt 0.821887672 0.964366376 0
vt 0.888162613 0.95498687 0
vt 0.784171104 0.943910003 0
vt 0.796020925 0.929059148 0
vt 0.821887672 0.964366376 0
vt 0.52355808 0.781331301 0
vt 0.471530855 0.785872817 0
vt 0.522460938 0.757434189 0
vt 0.342229247 0.226039648 0
vt 0.35139057 0.242696509 0
vt 0.255117446 0.226075917 0
vt 0.0295710564 0.72750026 0
vt 0.0372631066 0.798463702 0
vt 0.0206887443 0.772943199 0
vt 0.521980286 0.377438247 0
vt 0.399703652 0.380392253 0
vt 0.572562218 0.367615461 0
vt 0.810323358 0.141905218 0
vt 0.814034641 0.334354162 0
vt 0.78750205 0.200098112 0
vt 0.0372631066 0.798463702 0
vt 0.0103237256 0.804472685 0
vt 0.0206887443 0.772943199 0
vt 0.0223762169 0.909790874 0
vt 0.0103237256 0.804472685 0
vt 0.0372631066 0.798463702 0
vt 0.904619455 0.729211807 0
vt 0.836738765 0.655376673 0
vt 0.922542632 0.647752345 0
vt 0.341561466 0.441939563 0
vt 0.25688979 0.475133955 0
vt 0.286324769 0.44044733 0
vt 0.955603123 0.353080809 0
vt 0.818624496 0.482976228 0
vt 0.953825355 0.308797151 0
vt 0.240637437 0.985406458 0
vt 0.189148575 0.967302561 0
vt 0.167434946 0.927437365 0
vt 0.976151347 0.800364852 0
vt 0.97991538 0.916167319 0
vt 0.967595637 0.830033839 0
vt 0.836738765 0.655376673 0
vt 0.951161802 0.599009991 0
vt 0.922542632 0.647752345 0
vt 0.836738765 0.655376673 0
vt 0.760906756 0.616974711 0
vt 0.951161802 0.599009991 0
vt 0.329416394 0.426557809 0
vt 0.341561466 0.441939563 0
vt 0.286324769 0.44044733 0
vt 0.410656661 0.434741676 0
vt 0.341561466 0.441939563 0
vt 0.329416394 0.426557809 0
vt 0.97991538 0.916167319 0
vt 0.888162613 0.95498687 0
vt 0.953967035 0.898861706 0
vt 0.636986554 0.557336032 0
vt 0.657918096 0.493930727 0
vt 0.690677047 0.439202368 0
vt 0.657918096 0.493930727 0
vt 0.684918642 0.381499082 0
vt 0.690677047 0.439202368 0
vt 0.76221925 0.176523641 0
vt 0.805016518 0.088475205 0
vt 0.806373417 0.114466362 0
vt 0.311982036 0.287481815 0
vt 0.268906504 0.379788488 0
vt 0.199491322 0.279212713 0
vt 0.320594192 0.375689179 0
vt 0.268906504 0.379788488 0
vt 0.311982036 0.287481815 0
vt 0.313320845 0.544978261 0
vt 0.338274896 0.469541013 0
vt 0.308802158 0.591952443 0
vt 0.294652015 0.0363949537 0
vt 0.349473 8.64316826e-05 0
vt 0.263684183 0.0852264836 0
vt 0.25033015 0.462965488 0
vt 0.0833655521 0.389845937 0
vt 0.110751562 0.389091998 0
vt 0.199491322 0.279212713 0
vt 0.35139057 0.242696509 0
vt 0.311982036 0.287481815 0
vt 0.554267347 0.391121626 0
vt 0.568232477 0.382290691 0
vt 0.549828172 0.412161618 0
vt 0.963002801 0.0578154922 0
vt 0.971955657 0.0740117431 0
vt 0.906503141 0.0496675856 0
vt 0.0856766999 0.976266861 0
vt 0.115708783 0.966033816 0
vt 0.132937789 0.987817407 0
vt 0.896366 0.491484314 0
vt 0.760906756 0.616974711 0
vt 0.767819583 0.591199934 0
vt 0.0293329973 0.200684115 0
vt 0.105373934 0.133999854 0
vt 0.108775601 0.178245977 0
vt 0.809523582 0.535734475 0
vt 0.726170063 0.572979331 0
vt 0.797935426 0.515499473 0
vt 0.904619455 0.729211807 0
vt 0.955400646 0.66551888 0
vt 0.96220839 0.722911954 0
vt 0.25688979 0.475133955 0
vt 0.338274896 0.469541013 0
vt 0.176767871 0.527634859 0
vt 0.549828172 0.412161618 0
vt 0.458255172 0.443059653 0
vt 0.410656661 0.434741676 0
vt 0.0549689718 0.308041751 0
vt 0.0547075495 0.293473274 0
vt 0.199491322 0.279212713 0
vt 0.199491322 0.279212713 0
vt 0.225935549 0.382967263 0
vt 0.0549689718 0.308041751 0
vt 0.805016518 0.088475205 0
vt 0.780245185 0.0222522989 0
vt 0.838544965 0.0355751589 0
vt 0.549828172 0.412161618 0
vt 0.410656661 0.434741676 0
vt 0.517763495 0.396901429 0
vt 0.932165563 0.756554902 0
vt 0.860392928 0.770563543 0
vt 0.869367242 0.758393705 0
vt 0.860392928 0.770563543 0
vt 0.822809577 0.782433152 0
vt 0.869367242 0.758393705 0
vt 0.293220222 0.201656237 0
vt 0.377981305 0.190408602 0
vt 0.342229247 0.226039648 0
vt 0.888162613 0.95498687 0
vt 0.821887672 0.964366376 0
vt 0.796020925 0.929059148 0
vt 0.888162613 0.95498687 0
vt 0.796020925 0.929059148 0
vt 0.781734109 0.82352525 0
vt 0.0701703653 0.595472634 0
vt 0.20224084 0.657191277 0
vt 0.168112949 0.685741425 0
vt 0.364152938 0.685262918 0
vt 0.244008228 0.717093349 0
vt 0.308802158 0.591952443 0
vt 0.25033015 0.462965488 0
vt 0.178317919 0.484479249 0
vt 0.0833655521 0.389845937 0
vt 0.856906354 0.743831933 0
vt 0.906579316 0.733639717 0
vt 0.853849888 0.755342066 0
vt 0.806373417 0.114466362 0
vt 0.810323358 0.141905218 0
vt 0.78750205 0.200098112 0
vt 0.25688979 0.475133955 0
vt 0.0701703653 0.595472634 0
vt 0.178317919 0.484479249 0
vt 0.176767871 0.527634859 0
vt 0.0701703653 0.595472634 0
vt 0.25688979 0.475133955 0
vt 0.308802158 0.591952443 0
vt 0.443572521 0.639737308 0
vt 0.364152938 0.685262918 0
vt 0.699376643 0.781542361 0
vt 0.77264297 0.769753575 0
vt 0.723575354 0.781075537 0
vt 0.646173954 0.779634416 0
vt 0.570796311 0.775870442 0
vt 0.699376643 0.781542361 0
vt 0.0293329973 0.200684115 0
vt 0.108775601 0.178245977 0
vt 0.0388799272 0.229346603 0
vt 0.903036177 0.844199538 0
vt 0.932165563 0.756554902 0
vt 0.967595637 0.830033839 0
vt 0.570796311 0.775870442 0
vt 0.522460938 0.757434189 0
vt 0.699376643 0.781542361 0
vt 0.189148575 0.967302561 0
vt 0.132937789 0.987817407 0
vt 0.167434946 0.927437365 0
vt 0.397317559 0.453756779 0
vt 0.443572521 0.639737308 0
vt 0.308802158 0.591952443 0
vt 0.443572521 0.639737308 0
vt 0.458255172 0.443059653 0
vt 0.565038264 0.598712385 0
vt 0.840542793 0.501307309 0
vt 0.827774048 0.527385235 0
vt 0.797935426 0.515499473 0
vt 0.0701703653 0.595472634 0
vt 0.0302048177 0.540549695 0
vt 0.0816859379 0.535717249 0
vt 0.377981305 0.190408602 0
vt 0.492491782 0.220788985 0
vt 0.342229247 0.226039648 0
vt 0.188018024 0.160855576 0
vt 0.25875029 0.103080906 0
vt 0.175370231 0.192325026 0
vt 0.188018024 0.160855576 0
vt 0.140467316 0.219121069 0
vt 0.13382408 0.146133661 0
vt 0.800644398 0.421400815 0
vt 0.814034641 0.334354162 0
vt 0.818624496 0.482976228 0
vt 0.979958773 0.188171655 0
vt 0.818624496 0.482976228 0
vt 0.814034641 0.334354162 0
vt 0.546841979 0.193371698 0
vt 0.604762852 0.14062269 0
vt 0.601574004 0.15701203 0
vt 0.797935426 0.515499473 0
vt 0.726170063 0.572979331 0
vt 0.687205553 0.56724143 0
vt 0.25688979 0.475133955 0
vt 0.178317919 0.484479249 0
vt 0.25033015 0.462965488 0
vt 0.0388799272 0.229346603 0
vt 0.0342072062 0.254192084 0
vt 0.0258252155 0.222662434 0
vt 0.0258252155 0.222662434 0
vt 0.0293329973 0.200684115 0
vt 0.0388799272 0.229346603 0
vt 0.458255172 0.443059653 0
vt 0.549828172 0.412161618 0
vt 0.565038264 0.598712385 0
vt 0.0833655521 0.389845937 0
vt 0.0618131198 0.467188776 0
vt 0.0578227676 0.44177258 0
vt 0.691166461 0.671284258 0
vt 0.760906756 0.616974711 0
vt 0.697269857 0.674144983 0
vt 0.822809577 0.782433152 0
vt 0.860392928 0.770563543 0
vt 0.781734109 0.82352525 0
vt 0.290092319 0.599698126 0
vt 0.308802158 0.591952443 0
vt 0.244008228 0.717093349 0
vt 0.797935426 0.515499473 0
vt 0.827774048 0.527385235 0
vt 0.809523582 0.535734475 0
vt 0.0833655521 0.389845937 0
vt 0.0578227676 0.44177258 0
vt 0.0668354779 0.380931199 0
vt 0.752682924 0.327020764 0
vt 0.690677047 0.439202368 0
vt 0.684918642 0.381499082 0
vt 0.410656661 0.434741676 0
vt 0.329416394 0.426557809 0
vt 0.44756636 0.417635739 0
vt 0.263684183 0.0852264836 0
vt 0.29906702 0.0612998232 0
vt 0.278176427 0.102863356 0
vt 0.263684183 0.0852264836 0
vt 0.349473 8.64316826e-05 0
vt 0.29906702 0.0612998232 0
vt 0.35139057 0.242696509 0
vt 0.399703652 0.380392253 0
vt 0.345136821 0.378555477 0
vt 0.293492913 0.796405554 0
vt 0.307705104 0.820583582 0
vt 0.311082423 0.843095601 0
vt 0.397317559 0.453756779 0
vt 0.410656661 0.434741676 0
vt 0.458255172 0.443059653 0
vt 0.570796311 0.775870442 0
vt 0.52355808 0.781331301 0
vt 0.522460938 0.757434189 0
vt 0.521980286 0.377438247 0
vt 0.474832714 0.38454935 0
vt 0.399703652 0.380392253 0
vt 0.517763495 0.396901429 0
vt 0.410656661 0.434741676 0
vt 0.44756636 0.417635739 0
vt 0.979958773 0.188171655 0
vt 0.814034641 0.334354162 0
vt 0.97444123 0.112669617 0
vt 0.13382408 0.146133661 0
vt 0.147665977 0.120108187 0
vt 0.223556638 0.0643917844 0
vt 0.0701703653 0.595472634 0
vt 0.0622703359 0.620857 0
vt 0.043342635 0.584661424 0
vt 0.0490137488 0.958759606 0
vt 0.115708783 0.966033816 0
vt 0.0856766999 0.976266861 0
vt 0.856906354 0.743831933 0
vt 0.699376643 0.781542361 0
vt 0.760906756 0.616974711 0
vt 0.812902689 0.759056747 0
vt 0.699376643 0.781542361 0
vt 0.856906354 0.743831933 0
vt 0.818624496 0.482976228 0
vt 0.797935426 0.515499473 0
vt 0.800644398 0.421400815 0
vt 0.249280646 0.576089203 0
vt 0.20224084 0.657191277 0
vt 0.176767871 0.527634859 0
vt 0.546841979 0.193371698 0
vt 0.601574004 0.15701203 0
vt 0.546721876 0.202212423 0
vt 0.492491782 0.220788985 0
vt 0.546841979 0.193371698 0
vt 0.546721876 0.202212423 0
vt 0.95628494 0.558751106 0
vt 0.951161802 0.599009991 0
vt 0.760906756 0.616974711 0
vt 0.953967035 0.898861706 0
vt 0.967595637 0.830033839 0
vt 0.97991538 0.916167319 0
vt 0.0372631066 0.798463702 0
vt 0.0295710564 0.72750026 0
vt 0.0409092866 0.718486667 0
vt 0.178317919 0.484479249 0
vt 0.0618131198 0.467188776 0
vt 0.0833655521 0.389845937 0
vt 0.690677047 0.439202368 0
vt 0.797935426 0.515499473 0
vt 0.687205553 0.56724143 0
vt 0.690677047 0.439202368 0
vt 0.687205553 0.56724143 0
vt 0.665331304 0.560275137 0
vt 0.781734109 0.82352525 0
vt 0.796020925 0.929059148 0
vt 0.775847256 0.890440702 0
vt 0.814034641 0.334354162 0
vt 0.800644398 0.421400815 0
vt 0.752682924 0.327020764 0
vt 0.293220222 0.201656237 0
vt 0.342229247 0.226039648 0
vt 0.255117446 0.226075917 0
vt 0.255117446 0.226075917 0
vt 0.140467316 0.219121069 0
vt 0.293220222 0.201656237 0
vt 0.0223762169 0.909790874 0
vt 0.0372631066 0.798463702 0
vt 0.115708783 0.966033816 0
vt 0.697269857 0.674144983 0
vt 0.56343329 0.696658254 0
vt 0.691166461 0.671284258 0
vt 0.699376643 0.781542361 0
vt 0.56343329 0.696658254 0
vt 0.697269857 0.674144983 0
vt 0.100467049 0.679601073 0
vt 0.157926202 0.695168018 0
vt 0.0848959163 0.690593183 0
vt 0.0547075495 0.293473274 0
vt 0.0342072062 0.254192084 0
vt 0.0388799272 0.229346603 0
vt 0.645140409 0.679158211 0
vt 0.691166461 0.671284258 0
vt 0.56343329 0.696658254 0
vt 0.906579316 0.733639717 0
vt 0.904619455 0.729211807 0
vt 0.995390534 0.780676544 0
vt 0.856906354 0.743831933 0
vt 0.904619455 0.729211807 0
vt 0.906579316 0.733639717 0
vt 0.967595637 0.830033839 0
vt 0.953967035 0.898861706 0
vt 0.903036177 0.844199538 0
vt 0.263684183 0.0852264836 0
vt 0.25875029 0.103080906 0
vt 0.188018024 0.160855576 0
vt 0.263684183 0.0852264836 0
vt 0.278176427 0.102863356 0
vt 0.25875029 0.103080906 0
vt 0.0372631066 0.798463702 0
vt 0.167434946 0.927437365 0
vt 0.115708783 0.966033816 0
vt 0.838544965 0.0355751589 0
vt 0.806373417 0.114466362 0
vt 0.805016518 0.088475205 0
vt 0.904619455 0.729211807 0
vt 0.96220839 0.722911954 0
vt 0.971375585 0.738676012 0
vt 0.458255172 0.443059653 0
vt 0.443572521 0.639737308 0
vt 0.397317559 0.453756779 0
vt 0.140467316 0.219121069 0
vt 0.255117446 0.226075917 0
vt 0.199491322 0.279212713 0
vt 0.184350133 0.377181292 0
vt 0.0549689718 0.308041751 0
vt 0.225935549 0.382967263 0
vt 0.140467316 0.219121069 0
vt 0.199491322 0.279212713 0
vt 0.0388799272 0.229346603 0
vt 0.0388799272 0.229346603 0
vt 0.199491322 0.279212713 0
vt 0.0750822499 0.27116859 0
vt 0.812902689 0.759056747 0
vt 0.856906354 0.743831933 0
vt 0.853849888 0.755342066 0
vt 0.554267347 0.391121626 0
vt 0.549828172 0.412161618 0
vt 0.517763495 0.396901429 0
vt 0.0618131198 0.467188776 0
vt 0.0242248047 0.482352912 0
vt 0.0578227676 0.44177258 0
vt 0.0618131198 0.467188776 0
vt 0.0302048177 0.540549695 0
vt 0.0242248047 0.482352912 0
vt 0.888162613 0.95498687 0
vt 0.97991538 0.916167319 0
vt 0.957507432 0.955969632 0
vt 0.584340572 0.233239114 0
vt 0.76221925 0.176523641 0
vt 0.752682924 0.327020764 0
vt 0.0103237256 0.804472685 0
vt 0.0223762169 0.909790874 0
vt 0.00341285043 0.824662924 0
vt 0.147665977 0.120108187 0
vt 0.13382408 0.146133661 0
vt 0.105373934 0.133999854 0
vt 0.812902689 0.759056747 0
vt 0.77264297 0.769753575 0
vt 0.699376643 0.781542361 0
vt 0.0471100509 0.0844793245 0
vt 0.105373934 0.133999854 0
vt 0.0293329973 0.200684115 0
vt 0.294652015 0.0363949537 0
vt 0.263684183 0.0852264836 0
vt 0.223556638 0.0643917844 0
vt 0.0701703653 0.595472634 0
vt 0.043342635 0.584661424 0
vt 0.0302048177 0.540549695 0
vt 0.188018024 0.160855576 0
vt 0.175370231 0.192325026 0
vt 0.140467316 0.219121069 0
vt 0.140467316 0.219121069 0
vt 0.175370231 0.192325026 0
vt 0.195203722 0.19966419 0
vt 0.0816859379 0.535717249 0
vt 0.0302048177 0.540549695 0
vt 0.178317919 0.484479249 0
vt 0.345136821 0.378555477 0
vt 0.320594192 0.375689179 0
vt 0.311982036 0.287481815 0
vt 0.800644398 0.421400815 0
vt 0.690677047 0.439202368 0
vt 0.752682924 0.327020764 0
vt 0.244008228 0.717093349 0
vt 0.364152938 0.685262918 0
vt 0.265903443 0.717022836 0
vt 0.263684183 0.0852264836 0
vt 0.13382408 0.146133661 0
vt 0.223556638 0.0643917844 0
vt 0.607993603 0.338340521 0
vt 0.585744083 0.321887255 0
vt 0.684918642 0.381499082 0
vn -0.245040536 0.907076836 0.0890492648
vn -0.174177721 0.781116605 0.61082226
vn -0.227771163 0.867773414 0.433046848
vn -0.250681013 -0.587771416 -0.769184113
vn -0.104158208 -0.853963971 -0.484873354
vn -0.151912004 -0.834464312 -0.508109629
vn 0.914882302 0.0593662485 0.312779605
vn 0.902989089 -0.235973179 0.225653842
vn 0.931601465 -0.259084016 -0.0251017008
vn -0.0175745115 -1.00129855 -0.134682998
vn 0.0353651233 -0.991488636 -0.215197638
vn 0.00870954804 -0.933173835 0.359352738
vn -1.01315331 0.104881234 -0.0059753987
vn -0.922855079 0.351194471 -0.0876214281
vn -0.85217452 -0.346228361 -0.0376101658
vn 0.902989089 -0.235973179 0.225653842
vn 0.550339341 -0.625048399 -0.558275461
vn 0.931601465 -0.259084016 -0.0251017008
vn -0.174340963 -0.638192952 -0.749876618
vn -0.104158208 -0.853963971 -0.484873354
vn -0.250681013 -0.587771416 -0.769184113
vn -1.01315331 0.104881234 -0.0059753987
vn -0.958718479 0.333934963 0.0195519496
vn -0.922855079 0.351194471 -0.0876214281
vn -0.0252408218 0.92123431 0.375051498
vn 0.0163276531 0.607643366 0.816895127
vn 0.00476517715 0.639899075 0.766396344
vn 0.970623851 0.167321727 0.170451835
vn 0.914882302 0.0593662485 0.312779605
vn 0.931601465 -0.259084016 -0.0251017008
vn 0.914882302 0.0593662485 0.312779605
vn 0.96916455 0.0792490318 0.230613992
vn 0.933270156 -0.163823441 -0.0656297952
vn 0.148841992 -0.700011492 0.673502922
vn -0.0588405021 -0.715363264 0.696271002
vn -0.149137303 -0.801015973 0.559447348
vn -0.190327257 0.504319072 -0.836080313
vn -0.312357783 0.641840339 -0.716623425
vn 0.0218873769 0.3541466 -0.922333896
vn -0.0531567894 0.314719588 0.925723135
vn -0.162465855 0.141376287 0.977589488
vn 0.031521257 -0.205451772 0.970670104
vn -0.577281952 0.765554249 0.254156262
vn -0.343725234 0.674902678 0.629938781
vn -0.174177721 0.781116605 0.61082226
vn -0.175660789 -0.610184669 -0.772539973
vn -0.139720559 -0.64936167 -0.745992839
vn -0.0986804441 -0.77401197 -0.629635453
vn 0.0620428883 -0.577451527 0.814064145
vn 0.045605503 -0.772670686 0.631311655
vn -0.0772110671 -0.577121139 0.810683012
vn -1.01315331 0.104881234 -0.0059753987
vn -0.85217452 -0.346228361 -0.0376101658
vn -0.943667352 -0.254367173 0.211635008
vn 0.0406073816 -0.988700569 0.215783656
vn -0.104158208 -0.853963971 -0.484873354
vn -0.119821377 -0.901080132 0.339943588
vn -0.0469432026 0.984048307 -0.185779661
vn -0.0855242759 0.96519506 -0.194315195
vn 0.21446462 0.973772943 0.0608525425
vn -0.419840902 -0.681704521 -0.577613652
vn -0.164067879 -0.908652246 -0.171285048
vn -0.85217452 -0.346228361 -0.0376101658
vn -0.677774906 -0.662792504 0.318319499
vn -0.242265567 -0.830497086 0.443505496
vn -0.39427951 -0.642077267 0.612814307
vn 0.772064447 0.317371488 0.539018154
vn 0.914882302 0.0593662485 0.312779605
vn 0.970623851 0.167321727 0.170451835
vn -0.174177721 0.781116605 0.61082226
vn -0.245040536 0.907076836 0.0890492648
vn -0.577281952 0.765554249 0.254156262
vn 0.707532883 -0.510589838 0.485696256
vn 0.319616258 -0.889859974 0.0648449138
vn 0.933270156 -0.163823441 -0.0656297952
vn 0.0433494411 -0.293854624 -0.951009214
vn 0.0218873769 0.3541466 -0.922333896
vn 0.0745433867 -0.162078261 -0.984205723
vn 0.107794508 0.0695445463 0.984947681
vn 0.189360306 -0.114749201 0.975179672
vn 0.505603254 -0.0870411023 0.852147698
vn -0.109740555 0.619676828 -0.779610455
vn -0.079735592 0.598962784 -0.814564884
vn 0.0269869156 0.628887892 -0.777544975
vn -0.0976213142 -0.228403747 -0.962644935
vn -0.18205075 -0.130254656 -0.958170295
vn -0.109740555 0.619676828 -0.779610455
vn -0.109740555 0.619676828 -0.779610455
vn -0.117110595 0.239329562 -0.971962631
vn -0.0976213142 -0.228403747 -0.962644935
vn -0.0937614739 -0.442266405 0.834843993
vn -0.0772110671 -0.577121139 0.810683012
vn -0.119821377 -0.901080132 0.339943588
vn -0.0531567894 0.314719588 0.925723135
vn -0.070411332 -0.202515796 0.976744413
vn -0.0937614739 -0.442266405 0.834843993
vn -0.0576851554 0.68791604 -0.725789547
vn -0.196382374 0.73102653 -0.653478563
vn -0.245040536 0.907076836 0.0890492648
vn 0.298131078 -0.806034565 0.475343764
vn 0.707532883 -0.510589838 0.485696256
vn 0.00870954804 -0.933173835 0.359352738
vn -0.227771163 0.867773414 0.433046848
vn -0.0531567894 0.314719588 0.925723135
vn -0.165908918 0.856074512 0.502847552
vn 0.107794508 0.0695445463 0.984947681
vn 0.505603254 -0.0870411023 0.852147698
vn 0.630293548 0.0030125035 0.776351035
vn 0.107794508 0.0695445463 0.984947681
vn 0.914882302 0.0593662485 0.312779605
vn 0.255423099 0.690505147 0.648579597
vn -0.447299659 0.81660521 -0.375427991
vn -0.475649893 0.814568818 -0.319040716
vn -0.486085117 0.814202964 -0.315308988
vn -0.162465855 0.141376287 0.977589488
vn -0.343725234 0.674902678 0.629938781
vn -0.560860813 -0.0546723679 0.775713265
vn -0.144431815 -0.51336199 -0.850237548
vn -0.0166504327 -0.657837868 -0.752975464
vn -0.0986804441 -0.77401197 -0.629635453
vn -0.117110595 0.239329562 -0.971962631
vn -0.0631748885 -0.268509954 -0.955752552
vn -0.144431815 -0.51336199 -0.850237548
vn 0.473944038 0.737749875 0.495448768
vn 0.21446462 0.973772943 0.0608525425
vn 0.111803621 0.965248108 0.236211836
vn 0.045605503 -0.772670686 0.631311655
vn 0.0620428883 -0.577451527 0.814064145
vn -0.0287258849 -0.643055379 0.770870745
vn 0.045605503 -0.772670686 0.631311655
vn -0.0287258849 -0.643055379 0.770870745
vn -0.242265567 -0.830497086 0.443505496
vn 0.148841992 -0.700011492 0.673502922
vn 0.707532883 -0.510589838 0.485696256
vn 0.363252759 -0.445273012 0.779382586
vn 0.914882302 0.0593662485 0.312779605
vn 0.505603254 -0.0870411023 0.852147698
vn 0.96916455 0.0792490318 0.230613992
vn -0.079735592 0.598962784 -0.814564884
vn -0.109740555 0.619676828 -0.779610455
vn -0.18205075 -0.130254656 -0.958170295
vn 0.0218873769 0.3541466 -0.922333896
vn -0.0875371546 0.813669562 -0.571500003
vn 0.0708075091 0.771302581 -0.639063418
vn 0.255423099 0.690505147 0.648579597
vn 0.0464692488 0.72264725 0.689653099
vn 0.0775701404 0.658329308 0.748722553
vn 0.107794508 0.0695445463 0.984947681
vn 0.00304221595 0.0587981828 0.986878097
vn 0.117063396 -0.0746755227 0.993590832
vn -0.151912004 -0.834464312 -0.508109629
vn -0.419840902 -0.681704521 -0.577613652
vn -0.250681013 -0.587771416 -0.769184113
vn -0.618365347 -0.369175106 -0.685295105
vn -0.419840902 -0.681704521 -0.577613652
vn -0.972557724 -0.104370102 -0.213943869
vn -0.419840902 -0.681704521 -0.577613652
vn -0.151912004 -0.834464312 -0.508109629
vn -0.164067879 -0.908652246 -0.171285048
vn 0.045605503 -0.772670686 0.631311655
vn -0.164067879 -0.908652246 -0.171285048
vn 0.0406073816 -0.988700569 0.215783656
vn 0.649855256 -0.628954172 -0.424197972
vn 0.550339341 -0.625048399 -0.558275461
vn 0.902989089 -0.235973179 0.225653842
vn 0.031521257 -0.205451772 0.970670104
vn -0.162465855 0.141376287 0.977589488
vn -0.560860813 -0.0546723679 0.775713265
vn -0.0287258849 -0.643055379 0.770870745
vn -0.39427951 -0.642077267 0.612814307
vn -0.242265567 -0.830497086 0.443505496
vn -0.109740555 0.619676828 -0.779610455
vn -0.323078424 0.760697663 -0.568349004
vn -0.24786821 0.657415986 -0.716402352
vn 0.630293548 0.0030125035 0.776351035
vn 0.505603254 -0.0870411023 0.852147698
vn 0.914882302 0.0593662485 0.312779605
vn -0.500907481 0.615226626 -0.584321618
vn -0.409519702 0.717326343 -0.563681304
vn -0.226511598 0.447508425 -0.867747247
vn 0.96916455 0.0792490318 0.230613992
vn 0.707532883 -0.510589838 0.485696256
vn 0.933270156 -0.163823441 -0.0656297952
vn 0.96916455 0.0792490318 0.230613992
vn 0.363252759 -0.445273012 0.779382586
vn 0.707532883 -0.510589838 0.485696256
vn -0.226511598 0.447508425 -0.867747247
vn -0.618365347 -0.369175106 -0.685295105
vn -0.882414222 0.260171205 -0.375387222
vn -0.226511598 0.447508425 -0.867747247
vn -0.882414222 0.260171205 -0.375387222
vn -0.500907481 0.615226626 -0.584321618
vn 0.0218873769 0.3541466 -0.922333896
vn 0.0708075091 0.771302581 -0.639063418
vn 0.672118366 0.545215428 -0.500996113
vn 0.514076293 0.846345723 -0.248903871
vn 0.657500267 0.648943007 -0.371071219
vn 0.0708075091 0.771302581 -0.639063418
vn 0.363252759 -0.445273012 0.779382586
vn -0.0937614739 -0.442266405 0.834843993
vn 0.148841992 -0.700011492 0.673502922
vn 0.117063396 -0.0746755227 0.993590832
vn 0.00304221595 0.0587981828 0.986878097
vn -0.0937614739 -0.442266405 0.834843993
vn -0.0875371546 0.813669562 -0.571500003
vn -0.486085117 0.814202964 -0.315308988
vn -0.0469432026 0.984048307 -0.185779661
vn -0.0469432026 0.984048307 -0.185779661
vn -0.486085117 0.814202964 -0.315308988
vn -0.0855242759 0.96519506 -0.194315195
vn -0.0937614739 -0.442266405 0.834843993
vn -0.119821377 -0.901080132 0.339943588
vn -0.149137303 -0.801015973 0.559447348
vn -0.0631748885 -0.268509954 -0.955752552
vn -0.0166504327 -0.657837868 -0.752975464
vn -0.144431815 -0.51336199 -0.850237548
vn 0.0433494411 -0.293854624 -0.951009214
vn 0.305382341 -0.372569799 -0.84516716
vn 0.28036958 -0.509729445 -0.805473864
vn 0.255423099 0.690505147 0.648579597
vn 0.772064447 0.317371488 0.539018154
vn 0.970623851 0.167321727 0.170451835
vn 0.914882302 0.0593662485 0.312779605
vn 0.772064447 0.317371488 0.539018154
vn 0.255423099 0.690505147 0.648579597
vn 0.00175792538 0.720993221 -0.692940056
vn 0.0122218952 0.696953297 -0.717012286
vn -0.0855242759 0.96519506 -0.194315195
vn 0.933270156 -0.163823441 -0.0656297952
vn 0.649855256 -0.628954172 -0.424197972
vn 0.902989089 -0.235973179 0.225653842
vn 0.914882302 0.0593662485 0.312779605
vn 0.933270156 -0.163823441 -0.0656297952
vn 0.902989089 -0.235973179 0.225653842
vn -0.39427951 -0.642077267 0.612814307
vn -0.0287258849 -0.643055379 0.770870745
vn -0.560860813 -0.0546723679 0.775713265
vn -1.01315331 0.104881234 -0.0059753987
vn -0.943667352 -0.254367173 0.211635008
vn -0.560860813 -0.0546723679 0.775713265
vn -0.119821377 -0.901080132 0.339943588
vn 0.045605503 -0.772670686 0.631311655
vn 0.0406073816 -0.988700569 0.215783656
vn -0.226511598 0.447508425 -0.867747247
vn -0.409519702 0.717326343 -0.563681304
vn -0.196382374 0.73102653 -0.653478563
vn -0.612723649 0.744773746 -0.277874589
vn -0.577281952 0.765554249 0.254156262
vn -0.245040536 0.907076836 0.0890492648
vn -0.109740555 0.619676828 -0.779610455
vn -0.24786821 0.657415986 -0.716402352
vn -0.190327257 0.504319072 -0.836080313
vn -0.0252408218 0.92123431 0.375051498
vn 0.473944038 0.737749875 0.495448768
vn 0.111803621 0.965248108 0.236211836
vn -0.560860813 -0.0546723679 0.775713265
vn -0.0287258849 -0.643055379 0.770870745
vn 0.031521257 -0.205451772 0.970670104
vn 0.031521257 -0.205451772 0.970670104
vn -0.0287258849 -0.643055379 0.770870745
vn 0.0620428883 -0.577451527 0.814064145
vn 0.319616258 -0.889859974 0.0648449138
vn 0.649855256 -0.628954172 -0.424197972
vn 0.933270156 -0.163823441 -0.0656297952
vn 0.931601465 -0.259084016 -0.0251017008
vn 0.305382341 -0.372569799 -0.84516716
vn 0.94570154 0.234828621 -0.253871232
vn -0.409519702 0.717326343 -0.563681304
vn -0.245040536 0.907076836 0.0890492648
vn -0.196382374 0.73102653 -0.653478563
vn 0.0135030728 0.997644603 -0.166981071
vn -0.227771163 0.867773414 0.433046848
vn -0.0252408218 0.92123431 0.375051498
vn -0.0505856201 0.955312908 -0.314917624
vn -0.245040536 0.907076836 0.0890492648
vn -0.227771163 0.867773414 0.433046848
vn -0.0166504327 -0.657837868 -0.752975464
vn 0.0353651233 -0.991488636 -0.215197638
vn -0.0986804441 -0.77401197 -0.629635453
vn 0.96916455 0.0792490318 0.230613992
vn 0.505603254 -0.0870411023 0.852147698
vn 0.363252759 -0.445273012 0.779382586
vn -0.560860813 -0.0546723679 0.775713265
vn -0.343725234 0.674902678 0.629938781
vn -0.918987572 0.388145387 0.24766463
vn 0.672118366 0.545215428 -0.500996113
vn 0.657500267 0.648943007 -0.371071219
vn 0.94570154 0.234828621 -0.253871232
vn 0.0708075091 0.771302581 -0.639063418
vn 0.657500267 0.648943007 -0.371071219
vn 0.672118366 0.545215428 -0.500996113
vn 0.450000376 -0.693329632 -0.562844396
vn 0.550339341 -0.625048399 -0.558275461
vn 0.649855256 -0.628954172 -0.424197972
vn -0.500907481 0.615226626 -0.584321618
vn -0.882414222 0.260171205 -0.375387222
vn -0.922855079 0.351194471 -0.0876214281
vn -0.618365347 -0.369175106 -0.685295105
vn -0.972557724 -0.104370102 -0.213943869
vn -0.882414222 0.260171205 -0.375387222
vn -0.265033156 0.601292729 0.754329026
vn -0.343725234 0.674902678 0.629938781
vn -0.162465855 0.141376287 0.977589488
vn -0.0505856201 0.955312908 -0.314917624
vn -0.227771163 0.867773414 0.433046848
vn 0.0135030728 0.997644603 -0.166981071
vn 0.473944038 0.737749875 0.495448768
vn 0.970623851 0.167321727 0.170451835
vn 0.705182076 0.627631783 0.329843134
vn -0.265033156 0.601292729 0.754329026
vn -0.174177721 0.781116605 0.61082226
vn -0.343725234 0.674902678 0.629938781
vn -0.151912004 -0.834464312 -0.508109629
vn -0.104158208 -0.853963971 -0.484873354
vn 0.0406073816 -0.988700569 0.215783656
vn 0.970623851 0.167321727 0.170451835
vn 0.809641898 0.56713593 -0.0622115657
vn 0.705182076 0.627631783 0.329843134
vn 0.657500267 0.648943007 -0.371071219
vn 0.809641898 0.56713593 -0.0622115657
vn 0.970623851 0.167321727 0.170451835
vn 0.107794508 0.0695445463 0.984947681
vn 0.117063396 -0.0746755227 0.993590832
vn 0.189360306 -0.114749201 0.975179672
vn -0.0976213142 -0.228403747 -0.962644935
vn -0.117110595 0.239329562 -0.971962631
vn -0.144431815 -0.51336199 -0.850237548
vn -0.144431815 -0.51336199 -0.850237548
vn -0.0986804441 -0.77401197 -0.629635453
vn -0.139720559 -0.64936167 -0.745992839
vn 0.550339341 -0.625048399 -0.558275461
vn 0.558621287 -0.660215199 -0.502053916
vn 0.931601465 -0.259084016 -0.0251017008
vn -0.343725234 0.674902678 0.629938781
vn -0.577281952 0.765554249 0.254156262
vn -0.918987572 0.388145387 0.24766463
vn 0.117063396 -0.0746755227 0.993590832
vn 0.505603254 -0.0870411023 0.852147698
vn 0.189360306 -0.114749201 0.975179672
vn 0.117063396 -0.0746755227 0.993590832
vn -0.0937614739 -0.442266405 0.834843993
vn 0.505603254 -0.0870411023 0.852147698
vn -0.139720559 -0.64936167 -0.745992839
vn -0.0976213142 -0.228403747 -0.962644935
vn -0.144431815 -0.51336199 -0.850237548
vn -0.18205075 -0.130254656 -0.958170295
vn -0.0976213142 -0.228403747 -0.962644935
vn -0.139720559 -0.64936167 -0.745992839
vn -0.577281952 0.765554249 0.254156262
vn -0.922855079 0.351194471 -0.0876214281
vn -0.958718479 0.333934963 0.0195519496
vn 0.707532883 -0.510589838 0.485696256
vn 0.148841992 -0.700011492 0.673502922
vn 0.00870954804 -0.933173835 0.359352738
vn 0.148841992 -0.700011492 0.673502922
vn -0.149137303 -0.801015973 0.559447348
vn 0.00870954804 -0.933173835 0.359352738
vn 0.045605503 -0.772670686 0.631311655
vn -0.242265567 -0.830497086 0.443505496
vn -0.164067879 -0.908652246 -0.171285048
vn -0.165908918 0.856074512 0.502847552
vn 0.0163276531 0.607643366 0.816895127
vn -0.0252408218 0.92123431 0.375051498
vn -0.0342755951 0.697717726 0.71555239
vn 0.0163276531 0.607643366 0.816895127
vn -0.165908918 0.856074512 0.502847552
vn -0.0511791147 0.693383813 -0.718748629
vn -0.109740555 0.619676828 -0.779610455
vn 0.0269869156 0.628887892 -0.777544975
vn -0.323078424 0.760697663 -0.568349004
vn -0.109740555 0.619676828 -0.779610455
vn -0.447299659 0.81660521 -0.375427991
vn -0.0631748885 -0.268509954 -0.955752552
vn 0.111578934 -0.59861052 -0.796425343
vn -0.0166504327 -0.657837868 -0.752975464
vn -0.0252408218 0.92123431 0.375051498
vn -0.227771163 0.867773414 0.433046848
vn -0.165908918 0.856074512 0.502847552
vn -0.250681013 -0.587771416 -0.769184113
vn -0.618365347 -0.369175106 -0.685295105
vn -0.226511598 0.447508425 -0.867747247
vn -0.618365347 -0.369175106 -0.685295105
vn -0.250681013 -0.587771416 -0.769184113
vn -0.419840902 -0.681704521 -0.577613652
vn 0.805387139 0.267374635 -0.566135585
vn 0.94570154 0.234828621 -0.253871232
vn 0.305382341 -0.372569799 -0.84516716
vn 0.148841992 -0.700011492 0.673502922
vn -0.0937614739 -0.442266405 0.834843993
vn -0.0588405021 -0.715363264 0.696271002
vn 0.514076293 0.846345723 -0.248903871
vn -0.0875371546 0.813669562 -0.571500003
vn -0.0469432026 0.984048307 -0.185779661
vn 0.450000376 -0.693329632 -0.562844396
vn 0.649855256 -0.628954172 -0.424197972
vn 0.0353651233 -0.991488636 -0.215197638
vn 0.107794508 0.0695445463 0.984947681
vn 0.630293548 0.0030125035 0.776351035
vn 0.52476722 0.199992955 0.785878122
vn -0.117110595 0.239329562 -0.971962631
vn -0.109740555 0.619676828 -0.779610455
vn -0.190327257 0.504319072 -0.836080313
vn -0.226511598 0.447508425 -0.867747247
vn -0.16025573 0.575855672 -0.803642631
vn -0.18205075 -0.130254656 -0.958170295
vn 0.255423099 0.690505147 0.648579597
vn 0.473944038 0.737749875 0.495448768
vn -0.0252408218 0.92123431 0.375051498
vn -0.0252408218 0.92123431 0.375051498
vn 0.00476517715 0.639899075 0.766396344
vn 0.255423099 0.690505147 0.648579597
vn -0.242265567 -0.830497086 0.443505496
vn -0.677774906 -0.662792504 0.318319499
vn -0.85217452 -0.346228361 -0.0376101658
vn -0.226511598 0.447508425 -0.867747247
vn -0.18205075 -0.130254656 -0.958170295
vn -0.174340963 -0.638192952 -0.749876618
vn -0.560860813 -0.0546723679 0.775713265
vn -0.943667352 -0.254367173 0.211635008
vn -0.39427951 -0.642077267 0.612814307
vn -0.943667352 -0.254367173 0.211635008
vn -0.677774906 -0.662792504 0.318319499
vn -0.39427951 -0.642077267 0.612814307
vn 0.0122218952 0.696953297 -0.717012286
vn -0.0576851554 0.68791604 -0.725789547
vn -0.0505856201 0.955312908 -0.314917624
vn -0.922855079 0.351194471 -0.0876214281
vn -0.882414222 0.260171205 -0.375387222
vn -0.972557724 -0.104370102 -0.213943869
vn -0.922855079 0.351194471 -0.0876214281
vn -0.972557724 -0.104370102 -0.213943869
vn -0.85217452 -0.346228361 -0.0376101658
vn 0.0218873769 0.3541466 -0.922333896
vn -0.312357783 0.641840339 -0.716623425
vn -0.0875371546 0.813669562 -0.571500003
vn 0.0122218952 0.696953297 -0.717012286
vn -0.000484481774 0.672644079 -0.740110159
vn 0.0269869156 0.628887892 -0.777544975
vn -0.0631748885 -0.268509954 -0.955752552
vn 0.0433494411 -0.293854624 -0.951009214
vn 0.111578934 -0.59861052 -0.796425343
vn 0.00304221595 0.0587981828 0.986878097
vn 0.0775701404 0.658329308 0.748722553
vn 0.0464692488 0.72264725 0.689653099
vn -0.164067879 -0.908652246 -0.171285048
vn -0.151912004 -0.834464312 -0.508109629
vn 0.0406073816 -0.988700569 0.215783656
vn -0.117110595 0.239329562 -0.971962631
vn 0.0218873769 0.3541466 -0.922333896
vn 0.0433494411 -0.293854624 -0.951009214
vn -0.190327257 0.504319072 -0.836080313
vn 0.0218873769 0.3541466 -0.922333896
vn -0.117110595 0.239329562 -0.971962631
vn 0.0269869156 0.628887892 -0.777544975
vn -0.0576851554 0.68791604 -0.725789547
vn 0.0122218952 0.696953297 -0.717012286
vn -0.0531567894 0.314719588 0.925723135
vn 0.0163276531 0.607643366 0.816895127
vn -0.0342755951 0.697717726 0.71555239
vn -0.174177721 0.781116605 0.61082226
vn -0.143688768 0.524982512 0.838896155
vn -0.0531567894 0.314719588 0.925723135
vn 0.514076293 0.846345723 -0.248903871
vn -0.0469432026 0.984048307 -0.185779661
vn 0.21446462 0.973772943 0.0608525425
vn -1.01315331 0.104881234 -0.0059753987
vn -0.560860813 -0.0546723679 0.775713265
vn -0.918987572 0.388145387 0.24766463
vn -0.143688768 0.524982512 0.838896155
vn -0.162465855 0.141376287 0.977589488
vn -0.0531567894 0.314719588 0.925723135
vn 0.558621287 -0.660215199 -0.502053916
vn 0.305382341 -0.372569799 -0.84516716
vn 0.931601465 -0.259084016 -0.0251017008
vn -0.079735592 0.598962784 -0.814564884
vn -0.0576851554 0.68791604 -0.725789547
vn 0.0269869156 0.628887892 -0.777544975
vn -0.0576851554 0.68791604 -0.725789547
vn -0.16025573 0.575855672 -0.803642631
vn -0.196382374 0.73102653 -0.653478563
vn -0.0166504327 -0.657837868 -0.752975464
vn 0.111578934 -0.59861052 -0.796425343
vn 0.0353651233 -0.991488636 -0.215197638
vn 0.0218873769 0.3541466 -0.922333896
vn 0.305382341 -0.372569799 -0.84516716
vn 0.0745433867 -0.162078261 -0.984205723
vn -0.0576851554 0.68791604 -0.725789547
vn -0.245040536 0.907076836 0.0890492648
vn -0.0505856201 0.955312908 -0.314917624
vn -0.475649893 0.814568818 -0.319040716
vn -0.127702653 0.717540562 -0.684709847
vn -0.000484481774 0.672644079 -0.740110159
vn -0.475649893 0.814568818 -0.319040716
vn -0.0855242759 0.96519506 -0.194315195
vn -0.486085117 0.814202964 -0.315308988
vn -0.0175745115 -1.00129855 -0.134682998
vn -0.104158208 -0.853963971 -0.484873354
vn -0.0986804441 -0.77401197 -0.629635453
vn -0.175660789 -0.610184669 -0.772539973
vn -0.0986804441 -0.77401197 -0.629635453
vn -0.104158208 -0.853963971 -0.484873354
vn -0.409519702 0.717326343 -0.563681304
vn -0.500907481 0.615226626 -0.584321618
vn -0.922855079 0.351194471 -0.0876214281
vn 0.0353651233 -0.991488636 -0.215197638
vn 0.649855256 -0.628954172 -0.424197972
vn 0.319616258 -0.889859974 0.0648449138
vn -0.117110595 0.239329562 -0.971962631
vn 0.0433494411 -0.293854624 -0.951009214
vn -0.0631748885 -0.268509954 -0.955752552
vn 0.21446462 0.973772943 0.0608525425
vn 0.705182076 0.627631783 0.329843134
vn 0.809641898 0.56713593 -0.0622115657
vn 0.809641898 0.56713593 -0.0622115657
vn 0.514076293 0.846345723 -0.248903871
vn 0.21446462 0.973772943 0.0608525425
vn -0.16025573 0.575855672 -0.803642631
vn -0.226511598 0.447508425 -0.867747247
vn -0.196382374 0.73102653 -0.653478563
vn 0.111578934 -0.59861052 -0.796425343
vn 0.28036958 -0.509729445 -0.805473864
vn 0.550339341 -0.625048399 -0.558275461
vn -0.0772110671 -0.577121139 0.810683012
vn -0.0937614739 -0.442266405 0.834843993
vn -0.070411332 -0.202515796 0.976744413
vn -0.677774906 -0.662792504 0.318319499
vn -0.943667352 -0.254367173 0.211635008
vn -0.85217452 -0.346228361 -0.0376101658
vn -0.127702653 0.717540562 -0.684709847
vn 0.0269869156 0.628887892 -0.777544975
vn -0.000484481774 0.672644079 -0.740110159
vn 0.0353651233 -0.991488636 -0.215197638
vn 0.111578934 -0.59861052 -0.796425343
vn 0.450000376 -0.693329632 -0.562844396
vn 0.111578934 -0.59861052 -0.796425343
vn 0.550339341 -0.625048399 -0.558275461
vn 0.450000376 -0.693329632 -0.562844396
vn -0.119821377 -0.901080132 0.339943588
vn 0.00870954804 -0.933173835 0.359352738
vn -0.149137303 -0.801015973 0.559447348
vn -0.18205075 -0.130254656 -0.958170295
vn -0.139720559 -0.64936167 -0.745992839
vn -0.175660789 -0.610184669 -0.772539973
vn -0.447299659 0.81660521 -0.375427991
vn -0.0511791147 0.693383813 -0.718748629
vn 0.0269869156 0.628887892 -0.777544975
vn -0.447299659 0.81660521 -0.375427991
vn -0.109740555 0.619676828 -0.779610455
vn -0.0511791147 0.693383813 -0.718748629
vn -0.227771163 0.867773414 0.433046848
vn -0.174177721 0.781116605 0.61082226
vn -0.0531567894 0.314719588 0.925723135
vn 0.707532883 -0.510589838 0.485696256
vn 0.298131078 -0.806034565 0.475343764
vn 0.319616258 -0.889859974 0.0648449138
vn -0.079735592 0.598962784 -0.814564884
vn -0.18205075 -0.130254656 -0.958170295
vn -0.16025573 0.575855672 -0.803642631
vn -0.143688768 0.524982512 0.838896155
vn -0.265033156 0.601292729 0.754329026
vn -0.162465855 0.141376287 0.977589488
vn -0.265033156 0.601292729 0.754329026
vn -0.143688768 0.524982512 0.838896155
vn -0.174177721 0.781116605 0.61082226
vn -0.174340963 -0.638192952 -0.749876618
vn -0.18205075 -0.130254656 -0.958170295
vn -0.175660789 -0.610184669 -0.772539973
vn -0.175660789 -0.610184669 -0.772539973
vn -0.104158208 -0.853963971 -0.484873354
vn -0.174340963 -0.638192952 -0.749876618
vn -0.486085117 0.814202964 -0.315308988
vn -0.312357783 0.641840339 -0.716623425
vn -0.24786821 0.657415986 -0.716402352
vn 0.0218873769 0.3541466 -0.922333896
vn 0.672118366 0.545215428 -0.500996113
vn 0.805387139 0.267374635 -0.566135585
vn 0.672118366 0.545215428 -0.500996113
vn 0.94570154 0.234828621 -0.253871232
vn 0.805387139 0.267374635 -0.566135585
vn 0.00304221595 0.0587981828 0.986878097
vn -0.0531567894 0.314719588 0.925723135
vn -0.0937614739 -0.442266405 0.834843993
vn 0.00476517715 0.639899075 0.766396344
vn -0.0531567894 0.314719588 0.925723135
vn 0.00304221595 0.0587981828 0.986878097
vn -0.0986804441 -0.77401197 -0.629635453
vn 0.0353651233 -0.991488636 -0.215197638
vn -0.0175745115 -1.00129855 -0.134682998
vn -0.24786821 0.657415986 -0.716402352
vn -0.312357783 0.641840339 -0.716623425
vn -0.190327257 0.504319072 -0.836080313
vn -0.409519702 0.717326343 -0.563681304
vn -0.922855079 0.351194471 -0.0876214281
vn -0.612723649 0.744773746 -0.277874589
vn -0.245040536 0.907076836 0.0890492648
vn -0.409519702 0.717326343 -0.563681304
vn -0.612723649 0.744773746 -0.277874589
vn 0.363252759 -0.445273012 0.779382586
vn 0.505603254 -0.0870411023 0.852147698
vn -0.0937614739 -0.442266405 0.834843993
vn -0.958718479 0.333934963 0.0195519496
vn -0.918987572 0.388145387 0.24766463
vn -0.577281952 0.765554249 0.254156262
vn 0.970623851 0.167321727 0.170451835
vn 0.473944038 0.737749875 0.495448768
vn 0.255423099 0.690505147 0.648579597
vn 0.0433494411 -0.293854624 -0.951009214
vn 0.28036958 -0.509729445 -0.805473864
vn 0.111578934 -0.59861052 -0.796425343
vn 0.00870954804 -0.933173835 0.359352738
vn 0.0353651233 -0.991488636 -0.215197638
vn 0.319616258 -0.889859974 0.0648449138
vn 0.00870954804 -0.933173835 0.359352738
vn 0.319616258 -0.889859974 0.0648449138
vn 0.298131078 -0.806034565 0.475343764
vn -0.85217452 -0.346228361 -0.0376101658
vn -0.972557724 -0.104370102 -0.213943869
vn -0.419840902 -0.681704521 -0.577613652
vn -0.104158208 -0.853963971 -0.484873354
vn -0.0175745115 -1.00129855 -0.134682998
vn -0.119821377 -0.901080132 0.339943588
vn 0.0122218952 0.696953297 -0.717012286
vn -0.0505856201 0.955312908 -0.314917624
vn 0.0135030728 0.997644603 -0.166981071
vn 0.0135030728 0.997644603 -0.166981071
vn -0.0855242759 0.96519506 -0.194315195
vn 0.0122218952 0.696953297 -0.717012286
vn 0.657500267 0.648943007 -0.371071219
vn 0.970623851 0.167321727 0.170451835
vn 0.94570154 0.234828621 -0.253871232
vn -0.070411332 -0.202515796 0.976744413
vn 0.031521257 -0.205451772 0.970670104
vn -0.0772110671 -0.577121139 0.810683012
vn -0.0531567894 0.314719588 0.925723135
vn 0.031521257 -0.205451772 0.970670104
vn -0.070411332 -0.202515796 0.976744413
vn 0.52476722 0.199992955 0.785878122
vn 0.630293548 0.0030125035 0.776351035
vn 0.914882302 0.0593662485 0.312779605
vn 0.473944038 0.737749875 0.495448768
vn 0.705182076 0.627631783 0.329843134
vn 0.21446462 0.973772943 0.0608525425
vn 0.0620428883 -0.577451527 0.814064145
vn -0.0772110671 -0.577121139 0.810683012
vn 0.031521257 -0.205451772 0.970670104
vn 0.0775701404 0.658329308 0.748722553
vn 0.107794508 0.0695445463 0.984947681
vn 0.255423099 0.690505147 0.648579597
vn 0.00304221595 0.0587981828 0.986878097
vn 0.107794508 0.0695445463 0.984947681
vn 0.0775701404 0.658329308 0.748722553
vn -0.918987572 0.388145387 0.24766463
vn -0.958718479 0.333934963 0.0195519496
vn -1.01315331 0.104881234 -0.0059753987
vn -0.447299659 0.81660521 -0.375427991
vn -0.127702653 0.717540562 -0.684709847
vn -0.475649893 0.814568818 -0.319040716
vn -0.447299659 0.81660521 -0.375427991
vn 0.0269869156 0.628887892 -0.777544975
vn -0.127702653 0.717540562 -0.684709847
vn 0.970623851 0.167321727 0.170451835
vn 0.931601465 -0.259084016 -0.0251017008
vn 0.94570154 0.234828621 -0.253871232
vn -0.85217452 -0.346228361 -0.0376101658
vn -0.164067879 -0.908652246 -0.171285048
vn -0.242265567 -0.830497086 0.443505496
vn 0.107794508 0.0695445463 0.984947681
vn 0.52476722 0.199992955 0.785878122
vn 0.914882302 0.0593662485 0.312779605
vn -0.16025573 0.575855672 -0.803642631
vn -0.0576851554 0.68791604 -0.725789547
vn -0.079735592 0.598962784 -0.814564884
vn -0.0855242759 0.96519506 -0.194315195
vn 0.0135030728 0.997644603 -0.166981071
vn -0.0252408218 0.92123431 0.375051498
vn 0.0464692488 0.72264725 0.689653099
vn 0.255423099 0.690505147 0.648579597
vn 0.00476517715 0.639899075 0.766396344
vn -0.0855242759 0.96519506 -0.194315195
vn -0.0252408218 0.92123431 0.375051498
vn 0.21446462 0.973772943 0.0608525425
vn 0.21446462 0.973772943 0.0608525425
vn -0.0252408218 0.92123431 0.375051498
vn 0.111803621 0.965248108 0.236211836
vn 0.00476517715 0.639899075 0.766396344
vn 0.00304221595 0.0587981828 0.986878097
vn 0.0464692488 0.72264725 0.689653099
vn -0.250681013 -0.587771416 -0.769184113
vn -0.226511598 0.447508425 -0.867747247
vn -0.174340963 -0.638192952 -0.749876618
vn 0.28036958 -0.509729445 -0.805473864
vn 0.558621287 -0.660215199 -0.502053916
vn 0.550339341 -0.625048399 -0.558275461
vn 0.28036958 -0.509729445 -0.805473864
vn 0.305382341 -0.372569799 -0.84516716
vn 0.558621287 -0.660215199 -0.502053916
vn -0.922855079 0.351194471 -0.0876214281
vn -0.577281952 0.765554249 0.254156262
vn -0.612723649 0.744773746 -0.277874589
vn -0.0772110671 -0.577121139 0.810683012
vn 0.045605503 -0.772670686 0.631311655
vn -0.119821377 -0.901080132 0.339943588
vn 0.809641898 0.56713593 -0.0622115657
vn 0.657500267 0.648943007 -0.371071219
vn 0.514076293 0.846345723 -0.248903871
vn -0.312357783 0.641840339 -0.716623425
vn -0.486085117 0.814202964 -0.315308988
vn -0.0875371546 0.813669562 -0.571500003
vn 0.00476517715 0.639899075 0.766396344
vn 0.0163276531 0.607643366 0.816895127
vn -0.0531567894 0.314719588 0.925723135
vn 0.0708075091 0.771302581 -0.639063418
vn -0.0875371546 0.813669562 -0.571500003
vn 0.514076293 0.846345723 -0.248903871
vn -0.323078424 0.760697663 -0.568349004
vn -0.447299659 0.81660521 -0.375427991
vn -0.24786821 0.657415986 -0.716402352
vn 0.0218873769 0.3541466 -0.922333896
vn 0.805387139 0.267374635 -0.566135585
vn 0.305382341 -0.372569799 -0.84516716
vn -0.475649893 0.814568818 -0.319040716
vn -0.000484481774 0.672644079 -0.740110159
vn -0.0855242759 0.96519506 -0.194315195
vn -0.0855242759 0.96519506 -0.194315195
vn -0.000484481774 0.672644079 -0.740110159
vn 0.00175792538 0.720993221 -0.692940056
vn 0.0745433867 -0.162078261 -0.984205723
vn 0.305382341 -0.372569799 -0.84516716
vn 0.0433494411 -0.293854624 -0.951009214
vn -0.0531567894 0.314719588 0.925723135
vn -0.0342755951 0.697717726 0.71555239
vn -0.165908918 0.856074512 0.502847552
vn -0.0175745115 -1.00129855 -0.134682998
vn 0.00870954804 -0.933173835 0.359352738
vn -0.119821377 -0.901080132 0.339943588
vn -0.000484481774 0.672644079 -0.740110159
vn 0.0122218952 0.696953297 -0.717012286
vn 0.00175792538 0.720993221 -0.692940056
vn -0.447299659 0.81660521 -0.375427991
vn -0.486085117 0.814202964 -0.315308988
vn -0.24786821 0.657415986 -0.716402352
vn -0.0588405021 -0.715363264 0.696271002
vn -0.0937614739 -0.442266405 0.834843993
vn -0.149137303 -0.801015973 0.559447348
g Group53632
f 65/1/1 70/2/2 15/3/3
f 89/4/4 30/5/5 75/6/6
f 46/7/7 2/8/8 41/9/9
f 5/10/10 72/11/11 82/12/12
f 13/13/13 21/14/14 111/15/15
f 2/16/16 109/17/17 41/18/18
f 116/19/19 30/20/20 89/21/21
f 13/22/22 57/23/23 21/24/24
f 43/25/25 31/26/26 100/27/27
f 19/28/28 46/29/29 41/30/30
f 46/31/31 49/32/32 59/33/33
f 28/34/34 126/35/35 54/36/36
f 25/37/37 33/38/38 12/39/39
f 6/40/40 34/41/41 62/42/42
f 120/43/43 68/44/44 70/45/45
f 113/46/46 81/47/47 90/48/48
f 122/49/49 16/50/50 26/51/51
f 13/52/52 111/53/53 94/54/54
f 18/55/55 30/56/56 86/57/57
f 53/58/58 58/59/59 76/60/60
f 20/61/61 101/62/62 111/63/63
f 93/64/64 42/65/65 60/66/66
f 29/67/67 46/68/68 19/69/69
f 70/70/70 65/71/71 120/72/72
f 37/73/73 63/74/74 59/75/75
f 55/76/76 12/77/77 73/78/78
f 40/79/79 77/80/80 67/81/81
f 14/82/82 24/83/83 17/84/84
f 78/85/85 38/86/86 14/87/87
f 14/88/88 92/89/89 78/90/90
f 52/91/91 26/92/92 86/93/93
f 6/94/94 110/95/95 52/96/96
f 27/97/97 61/98/98 65/99/99
f 95/100/100 37/101/101 82/102/102
f 15/103/103 6/104/104 83/105/105
f 40/106/106 67/107/107 1/108/108
f 40/109/109 46/110/110 35/111/111
f 88/112/112 71/113/113 48/114/114
f 34/115/115 68/116/116 44/117/117
f 4/118/118 87/119/119 90/120/120
f 92/121/121 106/122/122 4/123/123
f 56/124/124 76/125/125 114/126/126
f 16/127/127 122/128/128 36/129/129
f 16/130/130 36/131/131 42/132/132
f 28/133/133 37/134/134 10/135/135
f 46/136/136 67/137/137 49/138/138
f 24/139/139 14/140/140 38/141/141
f 12/142/142 98/143/143 51/144/144
f 35/145/145 124/146/146 119/147/147
f 40/148/148 118/149/149 80/150/150
f 75/151/151 20/152/152 89/153/153
f 8/154/154 20/155/155 96/156/156
f 20/157/157 75/158/158 101/159/159
f 16/160/160 101/161/161 18/162/162
f 22/163/163 109/164/164 2/165/165
f 62/166/166 34/167/167 44/168/168
f 36/169/169 60/170/170 42/171/171
f 14/172/172 45/173/173 9/174/174
f 1/175/175 67/176/176 46/177/177
f 47/178/178 3/179/179 32/180/180
f 49/181/181 37/182/182 59/183/183
f 49/184/184 10/185/185 37/186/186
f 32/187/187 8/188/188 50/189/189
f 32/190/190 50/191/191 47/192/192
f 12/193/193 51/194/194 117/195/195
f 85/196/196 39/197/197 51/198/198
f 10/199/199 52/200/200 28/201/201
f 80/202/202 118/203/203 52/204/204
f 98/205/205 48/206/206 53/207/207
f 53/208/208 48/209/209 58/210/210
f 52/211/211 86/212/212 54/213/213
f 106/214/214 87/215/215 4/216/216
f 55/217/217 11/218/218 7/219/219
f 35/220/220 29/221/221 19/222/222
f 46/223/223 29/224/224 35/225/225
f 99/226/226 102/227/227 58/228/228
f 59/229/229 22/230/230 2/231/231
f 46/232/232 59/233/233 2/234/234
f 60/235/235 36/236/236 44/237/237
f 13/238/238 94/239/239 44/240/240
f 86/241/241 16/242/242 18/243/243
f 32/244/244 3/245/245 61/246/246
f 104/247/247 120/248/248 65/249/249
f 14/250/250 9/251/251 25/252/252
f 43/253/253 56/254/254 114/255/255
f 44/256/256 36/257/257 62/258/258
f 62/259/259 36/260/260 122/261/261
f 63/262/262 22/263/263 59/264/264
f 41/265/265 11/266/266 64/267/267
f 3/268/268 65/269/269 61/270/270
f 66/271/271 15/272/272 43/273/273
f 69/274/274 65/275/275 15/276/276
f 87/277/277 72/278/278 90/279/279
f 49/280/280 67/281/281 10/282/282
f 44/283/283 68/284/284 79/285/285
f 117/286/286 39/287/287 64/288/288
f 51/289/289 39/290/290 117/291/291
f 112/292/292 109/293/293 22/294/294
f 47/295/295 50/296/296 21/297/297
f 8/298/298 96/299/299 50/300/300
f 97/301/301 68/302/302 34/303/303
f 69/304/304 15/305/305 66/306/306
f 56/307/307 19/308/308 74/309/309
f 97/310/310 70/311/311 68/312/312
f 75/313/313 30/314/314 18/315/315
f 19/316/316 107/317/317 74/318/318
f 39/319/319 107/320/320 19/321/321
f 40/322/322 80/323/323 77/324/324
f 78/325/325 92/326/326 4/327/327
f 4/328/328 90/329/329 81/330/330
f 109/331/331 125/332/332 41/333/333
f 68/334/334 120/335/335 79/336/336
f 80/337/337 67/338/338 77/339/339
f 80/340/340 52/341/341 67/342/342
f 81/343/343 78/344/344 4/345/345
f 38/346/346 78/347/347 81/348/348
f 120/349/349 21/350/350 57/351/351
f 37/352/352 28/353/353 82/354/354
f 28/355/355 54/356/356 82/357/357
f 16/358/358 42/359/359 101/360/360
f 83/361/361 31/362/362 43/363/363
f 121/364/364 31/365/365 83/366/366
f 84/367/367 14/368/368 17/369/369
f 45/370/370 14/371/371 88/372/372
f 106/373/373 103/374/374 87/375/375
f 43/376/376 15/377/377 83/378/378
f 89/379/379 8/380/380 32/381/381
f 8/382/382 89/383/383 20/384/384
f 23/385/385 64/386/386 11/387/387
f 28/388/388 52/389/389 126/390/390
f 85/391/391 98/392/392 53/393/393
f 112/394/394 22/395/395 72/396/396
f 40/397/397 1/398/398 91/399/399
f 92/400/400 14/401/401 25/402/402
f 32/403/403 108/404/404 38/405/405
f 35/406/406 56/407/407 43/408/408
f 43/409/409 100/410/410 35/411/411
f 42/412/412 93/413/413 111/414/414
f 32/415/415 38/416/416 116/417/417
f 44/418/418 94/419/419 60/420/420
f 94/421/421 93/422/422 60/423/423
f 102/424/424 27/425/425 69/426/426
f 21/427/427 50/428/428 96/429/429
f 21/430/430 96/431/431 111/432/432
f 12/433/433 33/434/434 98/435/435
f 102/436/436 105/437/437 17/438/438
f 106/439/439 55/440/440 103/441/441
f 118/442/442 119/443/443 124/444/444
f 101/445/445 75/446/446 18/447/447
f 92/448/448 12/449/449 55/450/450
f 25/451/451 12/452/452 92/453/453
f 17/454/454 27/455/455 102/456/456
f 6/457/457 31/458/458 121/459/459
f 70/460/460 115/461/461 6/462/462
f 85/463/463 53/464/464 76/465/465
f 13/466/466 44/467/467 79/468/468
f 115/469/469 34/470/470 6/471/471
f 125/472/472 11/473/473 41/474/474
f 24/475/475 27/476/476 17/477/477
f 27/478/478 108/479/479 61/480/480
f 87/481/481 103/482/482 72/483/483
f 12/484/484 11/485/485 73/486/486
f 27/487/487 65/488/488 69/489/489
f 71/490/490 123/491/491 105/492/492
f 71/493/493 58/494/494 48/495/495
f 5/496/496 30/497/497 90/498/498
f 113/499/499 90/500/500 30/501/501
f 3/502/502 47/503/503 21/504/504
f 72/505/505 22/506/506 63/507/507
f 92/508/508 55/509/509 106/510/510
f 76/511/511 74/512/512 107/513/513
f 107/514/514 85/515/515 76/516/516
f 108/517/517 32/518/518 61/519/519
f 103/520/520 7/521/521 109/522/522
f 26/523/523 52/524/524 110/525/525
f 93/526/526 94/527/527 111/528/528
f 123/529/529 17/530/530 105/531/531
f 72/532/532 103/533/533 112/534/534
f 103/535/535 109/536/536 112/537/537
f 86/538/538 82/539/539 54/540/540
f 38/541/541 81/542/542 113/543/543
f 88/544/544 84/545/545 17/546/546
f 88/547/547 14/548/548 84/549/549
f 15/550/550 70/551/551 6/552/552
f 37/553/553 95/554/554 63/555/555
f 24/556/556 38/557/557 108/558/558
f 115/559/559 97/560/560 34/561/561
f 97/562/562 115/563/563 70/564/564
f 116/565/565 38/566/566 113/567/567
f 113/568/568 30/569/569 116/570/570
f 48/571/571 33/572/572 9/573/573
f 12/574/574 117/575/575 23/576/576
f 117/577/577 64/578/578 23/579/579
f 118/580/580 6/581/581 52/582/582
f 100/583/583 6/584/584 118/585/585
f 90/586/586 72/587/587 5/588/588
f 9/589/589 33/590/590 25/591/591
f 3/592/592 21/593/593 104/594/594
f 65/595/595 3/596/596 104/597/597
f 10/598/598 67/599/599 52/600/600
f 57/601/601 79/602/602 120/603/603
f 19/604/604 56/605/605 35/606/606
f 55/607/607 7/608/608 103/609/609
f 82/610/610 72/611/611 63/612/612
f 82/613/613 63/614/614 95/615/615
f 111/616/616 96/617/617 20/618/618
f 30/619/619 5/620/620 86/621/621
f 102/622/622 69/623/623 66/624/624
f 66/625/625 58/626/626 102/627/627
f 39/628/628 19/629/629 64/630/630
f 110/631/631 62/632/632 26/633/633
f 6/634/634 62/635/635 110/636/636
f 91/637/637 1/638/638 46/639/639
f 56/640/640 74/641/641 76/642/642
f 122/643/643 26/644/644 62/645/645
f 119/646/646 40/647/647 35/648/648
f 118/649/649 40/650/650 119/651/651
f 79/652/652 57/653/653 13/654/654
f 88/655/655 123/656/656 71/657/657
f 88/658/658 17/659/659 123/660/660
f 19/661/661 41/662/662 64/663/663
f 111/664/664 101/665/665 42/666/666
f 40/667/667 91/668/668 46/669/669
f 108/670/670 27/671/671 24/672/672
f 58/673/673 66/674/674 43/675/675
f 124/676/676 35/677/677 100/678/678
f 58/679/679 43/680/680 76/681/681
f 76/682/682 43/683/683 114/684/684
f 100/685/685 118/686/686 124/687/687
f 89/688/688 32/689/689 116/690/690
f 7/691/691 125/692/692 109/693/693
f 7/694/694 11/695/695 125/696/696
f 21/697/697 120/698/698 104/699/699
f 26/700/700 16/701/701 86/702/702
f 107/703/703 39/704/704 85/705/705
f 33/706/706 48/707/707 98/708/708
f 100/709/709 31/710/710 6/711/711
f 51/712/712 98/713/713 85/714/714
f 45/715/715 88/716/716 9/717/717
f 12/718/718 23/719/719 11/720/720
f 71/721/721 105/722/722 58/723/723
f 58/724/724 105/725/725 99/726/726
f 73/727/727 11/728/728 55/729/729
f 6/730/730 121/731/731 83/732/732
f 5/733/733 82/734/734 86/735/735
f 105/736/736 102/737/737 99/738/738
f 88/739/739 48/740/740 9/741/741
f 126/742/742 52/743/743 54/744/744
