# File exported by Houdini 16.5.405 (www.sidefx.com)
# 41 points
# 234 vertices
# 78 primitives
# Bounds: [-40.1353264, -1.9635936, -21.5880089] to [40.5798149, 41.3097801, 20.7821999]
g 
v 29.937109 30.7211075 18.4513168
v 34.837738 0.229820922 -0.598920465
v -33.8466034 31.837513 -1.13926446
v 0.956252217 11.7089176 -18.9629307
v 26.8644447 -0.934534013 -10.9434147
v -5.06822824 30.6714115 20.6292572
v 37.9294968 19.6008129 -20.3643017
v -38.9046288 15.3608074 -13.5223846
v 9.52135468 26.8360271 -13.7586031
v 32.311779 10.5044174 16.5172386
v 35.4677696 29.4377041 -19.6316662
v -36.8849792 23.8642635 18.5195847
v -7.78283548 16.3928223 -19.2805138
v -1.1115315 41.3097801 6.45574141
v -31.4079018 -1.9635936 3.731457
v 2.68156457 26.1946182 -10.170784
v 6.97443914 -0.700240254 6.36728239
v 35.8022499 39.711132 3.22400117
v -40.1353264 4.43497849 -0.139132515
v -38.137104 24.754179 -6.48237944
v 10.6229239 15.8034554 -21.5880089
v -4.89021015 16.1949749 20.7471409
v -9.07024288 37.4900055 -1.02353251
v 26.2386036 1.0081743 9.17227459
v 32.3280754 37.3953018 11.8303928
v 22.3317146 38.6294403 -8.75817871
v -24.3213215 25.4180851 20.7821999
v -33.6966324 12.3340654 19.0794277
v 35.4980698 2.23221374 9.53462791
v 22.4953766 30.613554 20.4917107
v 40.5798149 14.2606258 -11.074666
v -38.5094414 15.3043461 20.5756683
v 4.18010378 10.0152025 20.3945141
v 16.9764271 39.0431442 -0.0728580654
v -38.7962379 7.77506351 14.0185604
v -28.9887466 35.8994255 0.869582593
v 34.8446198 -1.39787579 5.10072994
v 23.1783085 1.24881077 -12.7770033
v 33.396965 11.2267151 -14.9567537
v -22.0902863 14.3392715 -16.6068707
v -35.1052666 32.7380295 5.418221
vt 0.499027163 0.215238467 0
vt 0.335291266 0.378104538 0
vt 0.29723978 0.250357509 0
vt 0.0966417491 0.679959774 0
vt 0.293213159 0.873386383 0
vt 0.167434946 0.927437365 0
vt 0.973503947 0.800028443 0
vt 0.878618956 0.958400786 0
vt 0.776257336 0.835211515 0
vt 0.293213159 0.873386383 0
vt 0.202128798 0.977238357 0
vt 0.167434946 0.927437365 0
vt 0.979801476 0.188034803 0
vt 0.805314541 0.0911012664 0
vt 0.985017478 0.0593961887 0
vt 0.29723978 0.250357509 0
vt 0.335291266 0.378104538 0
vt 0.125281662 0.384878755 0
vt 0.0102291172 0.790630281 0
vt 0.0966417491 0.679959774 0
vt 0.167434946 0.927437365 0
vt 0.0966417491 0.679959774 0
vt 0.294042677 0.795351505 0
vt 0.293213159 0.873386383 0
vt 0.657918096 0.493930727 0
vt 0.593441129 0.308920473 0
vt 0.716545641 0.359201312 0
vt 0.214222372 0.48431623 0
vt 0.179208532 0.690503597 0
vt 0.0622362532 0.616604209 0
vt 0.709770441 0.782136619 0
vt 0.562447369 0.776376665 0
vt 0.443265975 0.727411449 0
vt 0.550895631 0.250046074 0
vt 0.577759564 0.366938323 0
vt 0.335291266 0.378104538 0
vt 0.979801476 0.188034803 0
vt 0.94838351 0.361231536 0
vt 0.807239294 0.534470141 0
vt 0.973503947 0.800028443 0
vt 0.776257336 0.835211515 0
vt 0.855986774 0.762215257 0
vt 0.113786303 0.14090389 0
vt 0.163737461 0.202341363 0
vt 0.0231842343 0.236843631 0
vt 0.0371126719 0.724251628 0
vt 0.0966417491 0.679959774 0
vt 0.0102291172 0.790630281 0
vt 0.335291266 0.378104538 0
vt 0.499027163 0.215238467 0
vt 0.550895631 0.250046074 0
vt 0.294042677 0.795351505 0
vt 0.314153463 0.833180428 0
vt 0.293213159 0.873386383 0
vt 0.214222372 0.48431623 0
vt 0.0622362532 0.616604209 0
vt 0.028073946 0.55370158 0
vt 0.348200977 0.457734883 0
vt 0.214222372 0.48431623 0
vt 0.276965618 0.437047571 0
vt 0.593441129 0.308920473 0
vt 0.582729518 0.227222249 0
vt 0.716545641 0.359201312 0
vt 0.709770441 0.782136619 0
vt 0.686752915 0.674979448 0
vt 0.745020151 0.616165936 0
vt 0.907669365 0.735930085 0
vt 0.951428473 0.575044811 0
vt 0.962042928 0.726671338 0
vt 0.907669365 0.735930085 0
vt 0.962042928 0.726671338 0
vt 1.0011903 0.784968019 0
vt 0.277825654 0.0855093971 0
vt 0.163737461 0.202341363 0
vt 0.113786303 0.14090389 0
vt 0.562447369 0.776376665 0
vt 0.466462016 0.787482679 0
vt 0.443265975 0.727411449 0
vt 0.94838351 0.361231536 0
vt 0.832172036 0.512233019 0
vt 0.807239294 0.534470141 0
vt 0.805314541 0.0911012664 0
vt 0.582729518 0.227222249 0
vt 0.679464161 0.0247960314 0
vt 0.896366 0.491484314 0
vt 0.966248214 0.492148936 0
vt 0.951428473 0.575044811 0
vt 0.0966417491 0.679959774 0
vt 0.244358271 0.726415515 0
vt 0.294042677 0.795351505 0
vt 0.805314541 0.0911012664 0
vt 0.851929665 0.0371205918 0
vt 0.985017478 0.0593961887 0
vt 0.679464161 0.0247960314 0
vt 0.743175268 0.00963046681 0
vt 0.805314541 0.0911012664 0
vt 0.597021639 0.477883607 0
vt 0.593957424 0.552494824 0
vt 0.567481875 0.397644639 0
vt 0.951428473 0.575044811 0
vt 0.745020151 0.616165936 0
vt 0.896366 0.491484314 0
vt 0.214222372 0.48431623 0
vt 0.0978149548 0.385847718 0
vt 0.276965618 0.437047571 0
vt 0.417743027 0.65976721 0
vt 0.472333133 0.694979787 0
vt 0.443265975 0.727411449 0
vt 0.973503947 0.800028443 0
vt 0.855986774 0.762215257 0
vt 0.92975688 0.750942111 0
vt 0.567481875 0.397644639 0
vt 0.593957424 0.552494824 0
vt 0.572291911 0.598588586 0
vt 0.54740876 0.19653593 0
vt 0.550895631 0.250046074 0
vt 0.499027163 0.215238467 0
vt 0.348200977 0.457734883 0
vt 0.249280646 0.576089203 0
vt 0.214222372 0.48431623 0
vt 0.29723978 0.250357509 0
vt 0.0507630631 0.301726848 0
vt 0.0231842343 0.236843631 0
vt 0.443265975 0.727411449 0
vt 0.472333133 0.694979787 0
vt 0.686752915 0.674979448 0
vt 0.311891913 0.971364796 0
vt 0.202128798 0.977238357 0
vt 0.293213159 0.873386383 0
vt 0.483430803 0.385307223 0
vt 0.335291266 0.378104538 0
vt 0.577759564 0.366938323 0
vt 0.745020151 0.616165936 0
vt 0.951428473 0.575044811 0
vt 0.907669365 0.735930085 0
vt 0.97991538 0.916167319 0
vt 0.878618956 0.958400786 0
vt 0.973503947 0.800028443 0
vt 0.634830415 0.5611763 0
vt 0.657918096 0.493930727 0
vt 0.678062201 0.564180613 0
vt 0.657918096 0.493930727 0
vt 0.716545641 0.359201312 0
vt 0.678062201 0.564180613 0
vt 0.29723978 0.250357509 0
vt 0.125281662 0.384878755 0
vt 0.0507630631 0.301726848 0
vt 0.805314541 0.0911012664 0
vt 0.743175268 0.00963046681 0
vt 0.851929665 0.0371205918 0
vt 0.567481875 0.397644639 0
vt 0.348200977 0.457734883 0
vt 0.447192669 0.416944653 0
vt 0.878618956 0.958400786 0
vt 0.791060507 0.96357882 0
vt 0.776257336 0.835211515 0
vt 0.424562633 0.652334571 0
vt 0.237445697 0.731275678 0
vt 0.302362204 0.575614274 0
vt 0.202128798 0.977238357 0
vt 0.118971631 0.987899482 0
vt 0.167434946 0.927437365 0
vt 0.348200977 0.457734883 0
vt 0.424562633 0.652334571 0
vt 0.302362204 0.575614274 0
vt 0.424562633 0.652334571 0
vt 0.348200977 0.457734883 0
vt 0.572291911 0.598588586 0
vt 0.357158333 0.193408132 0
vt 0.499027163 0.215238467 0
vt 0.29723978 0.250357509 0
vt 0.979801476 0.188034803 0
vt 0.807239294 0.534470141 0
vt 0.805314541 0.0911012664 0
vt 0.807239294 0.534470141 0
vt 0.720537245 0.578222334 0
vt 0.678062201 0.564180613 0
vt 0.348200977 0.457734883 0
vt 0.567481875 0.397644639 0
vt 0.572291911 0.598588586 0
vt 0.0978149548 0.385847718 0
vt 0.028073946 0.55370158 0
vt 0.0372017622 0.473739415 0
vt 0.0978149548 0.385847718 0
vt 0.0372017622 0.473739415 0
vt 0.0684546828 0.37245822 0
vt 0.348200977 0.457734883 0
vt 0.276965618 0.437047571 0
vt 0.447192669 0.416944653 0
vt 0.907669365 0.735930085 0
vt 0.709770441 0.782136619 0
vt 0.745020151 0.616165936 0
vt 0.249280646 0.576089203 0
vt 0.179208532 0.690503597 0
vt 0.214222372 0.48431623 0
vt 0.214222372 0.48431623 0
vt 0.028073946 0.55370158 0
vt 0.0978149548 0.385847718 0
vt 0.805314541 0.0911012664 0
vt 0.807239294 0.534470141 0
vt 0.716545641 0.359201312 0
vt 0.357158333 0.193408132 0
vt 0.29723978 0.250357509 0
vt 0.163737461 0.202341363 0
vt 0.0434888415 0.970748425 0
vt 0.0102291172 0.790630281 0
vt 0.118971631 0.987899482 0
vt 0.709770441 0.782136619 0
vt 0.443265975 0.727411449 0
vt 0.686752915 0.674979448 0
vt 0.0102291172 0.790630281 0
vt 0.167434946 0.927437365 0
vt 0.118971631 0.987899482 0
vt 0.163737461 0.202341363 0
vt 0.29723978 0.250357509 0
vt 0.0231842343 0.236843631 0
vt 0.878618956 0.958400786 0
vt 0.97991538 0.916167319 0
vt 0.953489184 0.959488153 0
vt 0.582729518 0.227222249 0
vt 0.805314541 0.0911012664 0
vt 0.716545641 0.359201312 0
vt 0.00390632451 0.0484434143 0
vt 0.113786303 0.14090389 0
vt 0.0231842343 0.236843631 0
vt 0.362321585 -0.011451262 0
vt 0.277825654 0.0855093971 0
vt 0.223556638 0.0643917844 0
vt 0.807239294 0.534470141 0
vt 0.678062201 0.564180613 0
vt 0.716545641 0.359201312 0
vt 0.277825654 0.0855093971 0
vt 0.113786303 0.14090389 0
vt 0.223556638 0.0643917844 0
vn -0.224700719 0.790742397 -0.417520314
vn -0.082954146 0.574185193 0.776467621
vn -0.154139861 0.995940626 0.261490852
vn 0.834409177 0.0921336636 0.41812098
vn 0.884305954 -0.232454076 -0.0296895001
vn 0.931601465 -0.259084016 -0.0251017008
vn -0.753274381 0.324530005 0.349470079
vn -0.869834185 0.369949877 -0.168579683
vn -0.711334467 -0.512154281 -0.210237518
vn 0.884305954 -0.232454076 -0.0296895001
vn 0.574480653 -0.652437806 -0.50737083
vn 0.931601465 -0.259084016 -0.0251017008
vn -0.165437013 -0.612037539 -0.78430438
vn -0.0941890404 -0.896810591 -0.0354564488
vn -0.432198972 -0.12782304 -0.743809164
vn -0.154139861 0.995940626 0.261490852
vn -0.082954146 0.574185193 0.776467621
vn 0.0651674345 0.307549447 0.892643452
vn 0.721894741 0.559579194 0.0781928748
vn 0.834409177 0.0921336636 0.41812098
vn 0.931601465 -0.259084016 -0.0251017008
vn 0.834409177 0.0921336636 0.41812098
vn 0.885925949 -0.220974997 0.295464367
vn 0.884305954 -0.232454076 -0.0296895001
vn 0.148841992 -0.700011492 0.673502922
vn -0.0767854601 -0.411760956 0.845344245
vn -0.125264823 -0.871530473 0.618329406
vn -0.0481694303 0.0305295084 -0.971166432
vn -0.24821642 0.774710834 -0.558575511
vn 0.295195669 0.56512171 -0.713030159
vn -0.082954146 0.574185193 0.776467621
vn -0.181894779 0.367286354 0.899235845
vn -0.222816616 -0.0517292581 0.930693328
vn -0.577281952 0.765554249 0.254156262
vn -0.753274381 0.324530005 0.349470079
vn -0.082954146 0.574185193 0.776467621
vn -0.165437013 -0.612037539 -0.78430438
vn -0.146763846 -0.587653637 -0.818104506
vn 0.0413399972 -0.901318789 -0.378538966
vn -0.753274381 0.324530005 0.349470079
vn -0.711334467 -0.512154281 -0.210237518
vn -0.651710391 -0.532445908 0.452217668
vn -0.24821642 0.774710834 -0.558575511
vn -0.0785904154 0.846030951 -0.528648496
vn 0.721894741 0.559579194 0.0781928748
vn 0.367282689 0.682071745 0.614582062
vn 0.834409177 0.0921336636 0.41812098
vn 0.721894741 0.559579194 0.0781928748
vn -0.082954146 0.574185193 0.776467621
vn -0.224700719 0.790742397 -0.417520314
vn -0.577281952 0.765554249 0.254156262
vn 0.885925949 -0.220974997 0.295464367
vn 0.229401678 -0.9231686 0.249447599
vn 0.884305954 -0.232454076 -0.0296895001
vn -0.0481694303 0.0305295084 -0.971166432
vn 0.295195669 0.56512171 -0.713030159
vn 0.457856864 -0.188452289 -0.746601701
vn -0.0852859616 0.531554759 -0.836327612
vn -0.0481694303 0.0305295084 -0.971166432
vn -0.146763846 -0.587653637 -0.818104506
vn -0.0767854601 -0.411760956 0.845344245
vn -0.0121452678 -0.518505335 0.841994524
vn -0.125264823 -0.871530473 0.618329406
vn -0.082954146 0.574185193 0.776467621
vn -0.0121452678 -0.518505335 0.841994524
vn -0.0767854601 -0.411760956 0.845344245
vn 0.0651674345 0.307549447 0.892643452
vn 0.436496943 -0.262275696 0.840941489
vn 0.834409177 0.0921336636 0.41812098
vn 0.0651674345 0.307549447 0.892643452
vn 0.834409177 0.0921336636 0.41812098
vn 0.367282689 0.682071745 0.614582062
vn -0.0883063152 0.684897006 -0.678592145
vn -0.0785904154 0.846030951 -0.528648496
vn -0.24821642 0.774710834 -0.558575511
vn -0.181894779 0.367286354 0.899235845
vn -0.753274381 0.324530005 0.349470079
vn -0.222816616 -0.0517292581 0.930693328
vn -0.146763846 -0.587653637 -0.818104506
vn 0.0203533862 -0.627943039 -0.783623874
vn 0.0413399972 -0.901318789 -0.378538966
vn -0.0941890404 -0.896810591 -0.0354564488
vn -0.0121452678 -0.518505335 0.841994524
vn -0.0287258849 -0.643055379 0.770870745
vn 0.148841992 -0.700011492 0.673502922
vn 0.885925949 -0.220974997 0.295464367
vn 0.436496943 -0.262275696 0.840941489
vn 0.834409177 0.0921336636 0.41812098
vn 0.436496943 -0.262275696 0.840941489
vn 0.885925949 -0.220974997 0.295464367
vn -0.0941890404 -0.896810591 -0.0354564488
vn -0.711334467 -0.512154281 -0.210237518
vn -0.432198972 -0.12782304 -0.743809164
vn -0.0287258849 -0.643055379 0.770870745
vn -0.651710391 -0.532445908 0.452217668
vn -0.0941890404 -0.896810591 -0.0354564488
vn -0.869834185 0.369949877 -0.168579683
vn -0.503074408 0.726984859 -0.449121565
vn -0.432198972 -0.12782304 -0.743809164
vn 0.436496943 -0.262275696 0.840941489
vn -0.0767854601 -0.411760956 0.845344245
vn 0.148841992 -0.700011492 0.673502922
vn -0.0481694303 0.0305295084 -0.971166432
vn 0.0203533862 -0.627943039 -0.783623874
vn -0.146763846 -0.587653637 -0.818104506
vn -0.651710391 -0.532445908 0.452217668
vn -0.0287258849 -0.643055379 0.770870745
vn -0.222816616 -0.0517292581 0.930693328
vn -0.753274381 0.324530005 0.349470079
vn -0.651710391 -0.532445908 0.452217668
vn -0.222816616 -0.0517292581 0.930693328
vn -0.432198972 -0.12782304 -0.743809164
vn -0.503074408 0.726984859 -0.449121565
vn -0.224700719 0.790742397 -0.417520314
vn -0.503074408 0.726984859 -0.449121565
vn -0.577281952 0.765554249 0.254156262
vn -0.224700719 0.790742397 -0.417520314
vn -0.0852859616 0.531554759 -0.836327612
vn -0.24786821 0.657415986 -0.716402352
vn -0.0481694303 0.0305295084 -0.971166432
vn -0.154139861 0.995940626 0.261490852
vn 0.367282689 0.682071745 0.614582062
vn 0.721894741 0.559579194 0.0781928748
vn -0.222816616 -0.0517292581 0.930693328
vn -0.0287258849 -0.643055379 0.770870745
vn -0.0121452678 -0.518505335 0.841994524
vn 0.0413399972 -0.901318789 -0.378538966
vn 0.574480653 -0.652437806 -0.50737083
vn 0.884305954 -0.232454076 -0.0296895001
vn -0.181894779 0.367286354 0.899235845
vn -0.082954146 0.574185193 0.776467621
vn -0.753274381 0.324530005 0.349470079
vn -0.0767854601 -0.411760956 0.845344245
vn 0.436496943 -0.262275696 0.840941489
vn 0.0651674345 0.307549447 0.892643452
vn -0.577281952 0.765554249 0.254156262
vn -0.869834185 0.369949877 -0.168579683
vn -0.753274381 0.324530005 0.349470079
vn 0.885925949 -0.220974997 0.295464367
vn 0.148841992 -0.700011492 0.673502922
vn 0.229401678 -0.9231686 0.249447599
vn 0.148841992 -0.700011492 0.673502922
vn -0.125264823 -0.871530473 0.618329406
vn 0.229401678 -0.9231686 0.249447599
vn -0.154139861 0.995940626 0.261490852
vn 0.0651674345 0.307549447 0.892643452
vn 0.367282689 0.682071745 0.614582062
vn -0.0941890404 -0.896810591 -0.0354564488
vn -0.651710391 -0.532445908 0.452217668
vn -0.711334467 -0.512154281 -0.210237518
vn -0.432198972 -0.12782304 -0.743809164
vn -0.0852859616 0.531554759 -0.836327612
vn -0.165437013 -0.612037539 -0.78430438
vn -0.869834185 0.369949877 -0.168579683
vn -0.432198972 -0.12782304 -0.743809164
vn -0.711334467 -0.512154281 -0.210237518
vn -0.0298933014 0.683814287 -0.732430756
vn -0.0785904154 0.846030951 -0.528648496
vn -0.0883063152 0.684897006 -0.678592145
vn 0.574480653 -0.652437806 -0.50737083
vn 0.457856864 -0.188452289 -0.746601701
vn 0.931601465 -0.259084016 -0.0251017008
vn -0.0852859616 0.531554759 -0.836327612
vn -0.0298933014 0.683814287 -0.732430756
vn -0.0883063152 0.684897006 -0.678592145
vn -0.0298933014 0.683814287 -0.732430756
vn -0.0852859616 0.531554759 -0.836327612
vn -0.224700719 0.790742397 -0.417520314
vn -0.0298933014 0.683814287 -0.732430756
vn -0.224700719 0.790742397 -0.417520314
vn -0.154139861 0.995940626 0.261490852
vn -0.165437013 -0.612037539 -0.78430438
vn 0.0413399972 -0.901318789 -0.378538966
vn -0.0941890404 -0.896810591 -0.0354564488
vn 0.0413399972 -0.901318789 -0.378538966
vn 0.884305954 -0.232454076 -0.0296895001
vn 0.229401678 -0.9231686 0.249447599
vn -0.0852859616 0.531554759 -0.836327612
vn -0.432198972 -0.12782304 -0.743809164
vn -0.224700719 0.790742397 -0.417520314
vn 0.0203533862 -0.627943039 -0.783623874
vn 0.457856864 -0.188452289 -0.746601701
vn 0.574480653 -0.652437806 -0.50737083
vn 0.0203533862 -0.627943039 -0.783623874
vn 0.574480653 -0.652437806 -0.50737083
vn 0.0413399972 -0.901318789 -0.378538966
vn -0.0852859616 0.531554759 -0.836327612
vn -0.146763846 -0.587653637 -0.818104506
vn -0.165437013 -0.612037539 -0.78430438
vn 0.0651674345 0.307549447 0.892643452
vn -0.082954146 0.574185193 0.776467621
vn -0.0767854601 -0.411760956 0.845344245
vn -0.24786821 0.657415986 -0.716402352
vn -0.24821642 0.774710834 -0.558575511
vn -0.0481694303 0.0305295084 -0.971166432
vn -0.0481694303 0.0305295084 -0.971166432
vn 0.457856864 -0.188452289 -0.746601701
vn 0.0203533862 -0.627943039 -0.783623874
vn -0.0941890404 -0.896810591 -0.0354564488
vn 0.0413399972 -0.901318789 -0.378538966
vn -0.125264823 -0.871530473 0.618329406
vn -0.0298933014 0.683814287 -0.732430756
vn -0.154139861 0.995940626 0.261490852
vn -0.0785904154 0.846030951 -0.528648496
vn 0.295195669 0.56512171 -0.713030159
vn 0.721894741 0.559579194 0.0781928748
vn 0.457856864 -0.188452289 -0.746601701
vn -0.082954146 0.574185193 0.776467621
vn -0.222816616 -0.0517292581 0.930693328
vn -0.0121452678 -0.518505335 0.841994524
vn 0.721894741 0.559579194 0.0781928748
vn 0.931601465 -0.259084016 -0.0251017008
vn 0.457856864 -0.188452289 -0.746601701
vn -0.0785904154 0.846030951 -0.528648496
vn -0.154139861 0.995940626 0.261490852
vn 0.721894741 0.559579194 0.0781928748
vn -0.869834185 0.369949877 -0.168579683
vn -0.577281952 0.765554249 0.254156262
vn -0.503074408 0.726984859 -0.449121565
vn -0.0121452678 -0.518505335 0.841994524
vn -0.0941890404 -0.896810591 -0.0354564488
vn -0.125264823 -0.871530473 0.618329406
vn 0.295195669 0.56512171 -0.713030159
vn -0.24821642 0.774710834 -0.558575511
vn 0.721894741 0.559579194 0.0781928748
vn -0.0852859616 0.531554759 -0.836327612
vn -0.0883063152 0.684897006 -0.678592145
vn -0.24786821 0.657415986 -0.716402352
vn 0.0413399972 -0.901318789 -0.378538966
vn 0.229401678 -0.9231686 0.249447599
vn -0.125264823 -0.871530473 0.618329406
vn -0.0883063152 0.684897006 -0.678592145
vn -0.24821642 0.774710834 -0.558575511
vn -0.24786821 0.657415986 -0.716402352
g Group53632
f 36/1/1 6/2/2 14/3/3
f 1/4/4 2/5/5 31/6/6
f 12/7/7 20/8/8 19/9/9
f 2/10/10 39/11/11 31/12/12
f 40/13/13 15/14/14 8/15/15
f 14/16/16 6/17/17 30/18/18
f 18/19/19 1/20/20 31/21/21
f 1/22/22 29/23/23 2/24/24
f 24/25/25 33/26/26 17/27/27
f 21/28/28 26/29/29 11/30/30
f 6/31/31 27/32/32 32/33/33
f 41/34/34 12/35/35 6/36/36
f 40/37/37 4/38/38 5/39/39
f 12/40/40 19/41/41 35/42/42
f 26/43/43 34/44/44 18/45/45
f 25/46/46 1/47/47 18/48/48
f 6/49/49 36/50/50 41/51/51
f 29/52/52 37/53/53 2/54/54
f 21/55/55 11/56/56 7/57/57
f 13/58/58 21/59/59 4/60/60
f 33/61/61 22/62/62 17/63/63
f 6/64/64 22/65/65 33/66/66
f 30/67/67 10/68/68 1/69/69
f 30/70/70 1/71/71 25/72/72
f 16/73/73 34/74/74 26/75/75
f 27/76/76 12/77/77 32/78/78
f 4/79/79 38/80/80 5/81/81
f 15/82/82 22/83/83 28/84/84
f 24/85/85 29/86/86 10/87/87
f 1/88/88 10/89/89 29/90/90
f 15/91/91 19/92/92 8/93/93
f 28/94/94 35/95/95 15/96/96
f 20/97/97 3/98/98 8/99/99
f 10/100/100 33/101/101 24/102/102
f 21/103/103 38/104/104 4/105/105
f 35/106/106 28/107/107 32/108/108
f 12/109/109 35/110/110 32/111/111
f 8/112/112 3/113/113 36/114/114
f 3/115/115 41/116/116 36/117/117
f 13/118/118 9/119/119 21/120/120
f 14/121/121 25/122/122 18/123/123
f 32/124/124 28/125/125 22/126/126
f 5/127/127 39/128/128 2/129/129
f 27/130/130 6/131/131 12/132/132
f 33/133/133 10/134/134 30/135/135
f 41/136/136 20/137/137 12/138/138
f 29/139/139 24/140/140 37/141/141
f 24/142/142 17/143/143 37/144/144
f 14/145/145 30/146/146 25/147/147
f 15/148/148 35/149/149 19/150/150
f 8/151/151 13/152/152 40/153/153
f 20/154/154 8/155/155 19/156/156
f 23/157/157 34/158/158 16/159/159
f 39/160/160 7/161/161 31/162/162
f 13/163/163 23/164/164 16/165/165
f 23/166/166 13/167/167 36/168/168
f 23/169/169 36/170/170 14/171/171
f 40/172/172 5/173/173 15/174/174
f 5/175/175 2/176/176 37/177/177
f 13/178/178 8/179/179 36/180/180
f 38/181/181 7/182/182 39/183/183
f 38/184/184 39/185/185 5/186/186
f 13/187/187 4/188/188 40/189/189
f 30/190/190 6/191/191 33/192/192
f 9/193/193 26/194/194 21/195/195
f 21/196/196 7/197/197 38/198/198
f 15/199/199 5/200/200 17/201/201
f 23/202/202 14/203/203 34/204/204
f 11/205/205 18/206/206 7/207/207
f 6/208/208 32/209/209 22/210/210
f 18/211/211 31/212/212 7/213/213
f 34/214/214 14/215/215 18/216/216
f 20/217/217 41/218/218 3/219/219
f 22/220/220 15/221/221 17/222/222
f 11/223/223 26/224/224 18/225/225
f 13/226/226 16/227/227 9/228/228
f 5/229/229 37/230/230 17/231/231
f 16/232/232 26/233/233 9/234/234
