# File exported by Houdini 16.5.405 (www.sidefx.com)
# 16 points
# 84 vertices
# 28 primitives
# Bounds: [-40.6437874, -1.43792129, -21.3843422] to [38.057045, 41.3097801, 21.2492657]
g 
v 28.6972904 31.7969875 19.2954693
v 35.2557945 -1.43792129 -6.56123495
v -33.0767021 35.15308 -0.179023087
v -5.04981232 14.0105877 -20.2632847
v -36.4019203 23.9267349 20.5595341
v 38.057045 25.0165806 -21.3843422
v -40.184536 15.5953531 -12.6233406
v 22.5164356 38.0098915 -9.15909767
v 33.1258583 -0.973920524 9.01219273
v -1.1115315 41.3097801 6.45574141
v -40.6437874 -0.551996887 4.98114634
v 14.6639938 38.1456413 -0.556174338
v 6.97443914 -0.700240254 6.36728239
v 35.5375671 40.15168 7.47585869
v -3.31497264 15.4663038 21.2492657
v -38.1159248 11.4113598 19.1820202
vt 0.529833674 0.207111463 0
vt 0.572224021 0.385004789 0
vt 0.29723978 0.250357509 0
vt 0.98252815 0.787873745 0
vt 0.796020985 0.959685266 0
vt 0.766487122 0.783655286 0
vt 0.976184547 0.318767339 0
vt 0.813702822 0.0244468469 0
vt 0.982530415 0.0488586165 0
vt 0.29723978 0.250357509 0
vt 0.572224021 0.385004789 0
vt 0.0784672424 0.372917175 0
vt 0.0127552561 0.760487437 0
vt 0.0905291513 0.669793963 0
vt 0.290921837 0.913842976 0
vt 0.0905291513 0.669793963 0
vt 0.316462189 0.800677955 0
vt 0.290921837 0.913842976 0
vt 0.654939294 0.545410752 0
vt 0.580144525 0.23976624 0
vt 0.716545641 0.359201312 0
vt 0.32264629 0.445885658 0
vt 0.177800223 0.68599534 0
vt 0.0359707884 0.590190411 0
vt 0.98252815 0.787873745 0
vt 0.766487122 0.783655286 0
vt 0.900327086 0.743957043 0
vt 0.11296811 0.136801749 0
vt 0.180477127 0.196246162 0
vt 0.0273255892 0.265785158 0
vt 0.813702822 0.0244468469 0
vt 0.580144525 0.23976624 0
vt 0.696509242 -0.00568726519 0
vt 0.698153675 0.665576041 0
vt 0.945896387 0.476184756 0
vt 0.954155564 0.734598041 0
vt 0.978904247 0.963513851 0
vt 0.796020985 0.959685266 0
vt 0.98252815 0.787873745 0
vt 0.29723978 0.250357509 0
vt 0.0784672424 0.372917175 0
vt 0.0273255892 0.265785158 0
vt 0.32264629 0.445885658 0
vt 0.5970608 0.581356168 0
vt 0.251978546 0.716501355 0
vt 0.976184547 0.318767339 0
vt 0.763624489 0.587691486 0
vt 0.813702822 0.0244468469 0
vt 0.32264629 0.445885658 0
vt 0.57857269 0.398148328 0
vt 0.5970608 0.581356168 0
vt 0.32264629 0.445885658 0
vt 0.0359707884 0.590190411 0
vt 0.000156107402 0.368404448 0
vt 0.954155564 0.734598041 0
vt 0.472261012 0.785109162 0
vt 0.698153675 0.665576041 0
vt 0.813702822 0.0244468469 0
vt 0.763624489 0.587691486 0
vt 0.716545641 0.359201312 0
vt 0.529833674 0.207111463 0
vt 0.29723978 0.250357509 0
vt 0.180477127 0.196246162 0
vt 0.472261012 0.785109162 0
vt 0.439200252 0.698645353 0
vt 0.698153675 0.665576041 0
vt 0.0127552561 0.760487437 0
vt 0.290921837 0.913842976 0
vt 0.0826374665 0.994271457 0
vt 0.180477127 0.196246162 0
vt 0.29723978 0.250357509 0
vt 0.0273255892 0.265785158 0
vt 0.580144525 0.23976624 0
vt 0.813702822 0.0244468469 0
vt 0.716545641 0.359201312 0
vt -0.023347117 0.0233415309 0
vt 0.11296811 0.136801749 0
vt 0.0273255892 0.265785158 0
vt 0.348080575 -0.0261380281 0
vt 0.180477127 0.196246162 0
vt 0.11296811 0.136801749 0
vt 0.763624489 0.587691486 0
vt 0.654939294 0.545410752 0
vt 0.716545641 0.359201312 0
vn -0.28505221 0.761192918 -0.505097449
vn -0.431544304 0.444996685 0.622734427
vn -0.154139861 0.995940626 0.261490852
vn -0.431544304 0.444996685 0.622734427
vn -0.638530076 -0.0292845666 -0.53686887
vn -0.245568112 -0.854898512 -0.0518480539
vn -0.177106321 -0.0770222843 -0.89570874
vn -0.245568112 -0.854898512 -0.0518480539
vn -0.638530076 -0.0292845666 -0.53686887
vn -0.154139861 0.995940626 0.261490852
vn -0.431544304 0.444996685 0.622734427
vn 0.43886444 0.257182091 0.682490766
vn 0.649880528 0.583443105 0.292077661
vn 0.43886444 0.257182091 0.682490766
vn 0.515371919 -0.735566318 -0.148711622
vn 0.43886444 0.257182091 0.682490766
vn 0.36370334 -0.733194172 0.532078087
vn 0.515371919 -0.735566318 -0.148711622
vn 0.36370334 -0.733194172 0.532078087
vn -0.0955108032 -0.414501458 0.860219538
vn -0.125264823 -0.871530473 0.618329406
vn -0.177106321 -0.0770222843 -0.89570874
vn -0.276121229 0.733651876 -0.61021167
vn 0.448478341 0.0546459891 -0.760162592
vn -0.431544304 0.444996685 0.622734427
vn -0.245568112 -0.854898512 -0.0518480539
vn -0.233460531 -0.512881815 0.772195339
vn -0.276121229 0.733651876 -0.61021167
vn -0.0776957646 0.764877975 -0.6081478
vn 0.649880528 0.583443105 0.292077661
vn -0.245568112 -0.854898512 -0.0518480539
vn -0.0955108032 -0.414501458 0.860219538
vn -0.233460531 -0.512881815 0.772195339
vn -0.0955108032 -0.414501458 0.860219538
vn 0.36370334 -0.733194172 0.532078087
vn 0.43886444 0.257182091 0.682490766
vn -0.28505221 0.761192918 -0.505097449
vn -0.638530076 -0.0292845666 -0.53686887
vn -0.431544304 0.444996685 0.622734427
vn -0.154139861 0.995940626 0.261490852
vn 0.43886444 0.257182091 0.682490766
vn 0.649880528 0.583443105 0.292077661
vn -0.177106321 -0.0770222843 -0.89570874
vn -0.28505221 0.761192918 -0.505097449
vn -0.0776957646 0.764877975 -0.6081478
vn -0.177106321 -0.0770222843 -0.89570874
vn 0.515371919 -0.735566318 -0.148711622
vn -0.245568112 -0.854898512 -0.0518480539
vn -0.177106321 -0.0770222843 -0.89570874
vn -0.638530076 -0.0292845666 -0.53686887
vn -0.28505221 0.761192918 -0.505097449
vn -0.177106321 -0.0770222843 -0.89570874
vn 0.448478341 0.0546459891 -0.760162592
vn 0.515371919 -0.735566318 -0.148711622
vn 0.43886444 0.257182091 0.682490766
vn -0.431544304 0.444996685 0.622734427
vn -0.0955108032 -0.414501458 0.860219538
vn -0.245568112 -0.854898512 -0.0518480539
vn 0.515371919 -0.735566318 -0.148711622
vn -0.125264823 -0.871530473 0.618329406
vn -0.28505221 0.761192918 -0.505097449
vn -0.154139861 0.995940626 0.261490852
vn -0.0776957646 0.764877975 -0.6081478
vn -0.431544304 0.444996685 0.622734427
vn -0.233460531 -0.512881815 0.772195339
vn -0.0955108032 -0.414501458 0.860219538
vn 0.649880528 0.583443105 0.292077661
vn 0.515371919 -0.735566318 -0.148711622
vn 0.448478341 0.0546459891 -0.760162592
vn -0.0776957646 0.764877975 -0.6081478
vn -0.154139861 0.995940626 0.261490852
vn 0.649880528 0.583443105 0.292077661
vn -0.0955108032 -0.414501458 0.860219538
vn -0.245568112 -0.854898512 -0.0518480539
vn -0.125264823 -0.871530473 0.618329406
vn 0.448478341 0.0546459891 -0.760162592
vn -0.276121229 0.733651876 -0.61021167
vn 0.649880528 0.583443105 0.292077661
vn -0.177106321 -0.0770222843 -0.89570874
vn -0.0776957646 0.764877975 -0.6081478
vn -0.276121229 0.733651876 -0.61021167
vn 0.515371919 -0.735566318 -0.148711622
vn 0.36370334 -0.733194172 0.532078087
vn -0.125264823 -0.871530473 0.618329406
g Group53632
f 3/1/1 5/2/2 10/3/3
f 5/4/4 7/5/5 11/6/6
f 4/7/7 11/8/8 7/9/9
f 10/10/10 5/11/11 1/12/12
f 14/13/13 1/14/14 2/15/15
f 1/16/16 9/17/17 2/18/18
f 9/19/19 15/20/20 13/21/21
f 4/22/22 8/23/23 6/24/24
f 5/25/25 11/26/26 16/27/27
f 8/28/28 12/29/29 14/30/30
f 11/31/31 15/32/32 16/33/33
f 15/34/34 9/35/35 1/36/36
f 3/37/37 7/38/38 5/39/39
f 10/40/40 1/41/41 14/42/42
f 4/43/43 3/44/44 12/45/45
f 4/46/46 2/47/47 11/48/48
f 4/49/49 7/50/50 3/51/51
f 4/52/52 6/53/53 2/54/54
f 1/55/55 5/56/56 15/57/57
f 11/58/58 2/59/59 13/60/60
f 3/61/61 10/62/62 12/63/63
f 5/64/64 16/65/65 15/66/66
f 14/67/67 2/68/68 6/69/69
f 12/70/70 10/71/71 14/72/72
f 15/73/73 11/74/74 13/75/75
f 6/76/76 8/77/77 14/78/78
f 4/79/79 12/80/80 8/81/81
f 2/82/82 9/83/83 13/84/84
