# File exported by Houdini 16.5.405 (www.sidefx.com)
# 107 points
# 663 vertices
# 221 primitives
# Bounds: [-101.037003, -0.330543816, -71.0134354] to [106.487335, 42.3769455, 68.7600174]
g 
v 48.3779716 0.274377793 60.3706627
v 59.5462494 -0.275101572 56.8866959
v 59.5142441 -0.291656137 56.8538818
v 60.1906738 -0.264538199 56.69207
v 59.6412697 -0.28946203 56.8365479
v 60.1796532 -0.291625977 56.6816139
v 60.5156975 -0.201435447 56.5929451
v -5.44749498 -0.2146447 47.361454
v 60.8713913 -0.276947349 56.4553299
v 60.2917023 -0.303539008 56.6234665
v 60.8549614 -0.305721045 56.4483719
v 60.8336983 -0.32149899 56.4200935
v 60.9668541 -0.318374455 56.3904648
v 62.0059395 -0.277717918 56.0331345
v 61.9965591 -0.313912362 56.0204659
v 62.0969124 -0.32164225 55.967907
v 63.0228691 -0.284521908 55.6151352
v 63.0340767 -0.301081002 55.5646973
v 63.1527252 -0.283666879 55.5390129
v -33.9701958 0.0765093714 65.1990814
v 99.6328583 5.7769475 22.8520527
v -14.1604052 19.835146 32.716217
v -12.9037905 -0.274888188 7.42109728
v -55.2383499 19.9503136 21.2567196
v -94.5294952 0.390581548 20.6545753
v -50.466938 19.7021008 -8.4469738
v -101.037003 0.189882919 -14.1420736
v -62.0106163 30.9060459 4.20583677
v -55.4089088 19.3492374 -15.0722351
v -58.2231407 19.8629055 -15.5783701
v -50.9164848 19.7018452 -22.2158108
v -39.2190971 19.0076256 -38.2858696
v -83.0660858 18.6694279 -43.045784
v -71.6257248 18.4287624 -47.8493881
v -65.5077591 17.3837929 -48.0840149
v -65.2737045 17.3694229 -48.0718422
v -65.5260849 17.3602581 -48.0841331
v -43.9226074 16.902647 -28.0100422
v -63.8511162 17.2267113 -48.1901169
v -20.574625 18.8117256 10.2121191
v 106.487335 0.0555751622 17.4622536
v -20.5223351 8.88614655 -64.7223816
v 41.2305832 19.4423103 -57.5699081
v -43.3373833 18.7755394 -10.5435019
v -0.39506039 41.939167 -42.178196
v 8.57704639 5.16398716 -60.0648727
v 76.5689011 5.89601374 -12.1111517
v -20.0557308 32.0121613 -47.5604897
v 74.4250259 20.0784416 -12.6155481
v 48.9249763 22.4564285 34.5472031
v 5.03212976 -0.321738809 -26.1072617
v -2.09934139 32.381752 18.8096905
v 80.5192566 20.2224522 -43.4203033
v -12.4439459 6.17170763 13.9284582
v -45.0491829 42.2248993 -29.2929039
v 56.1991196 32.2507324 -31.6561413
v -71.0013885 0.170357749 -51.3837738
v 88.6752472 -0.0377997831 -13.7679672
v -39.3917046 8.80578327 -36.4770889
v -59.1743851 1.19551849 63.8888702
v 41.1077347 0.630605817 -40.0703278
v 11.1012335 19.5483456 -59.4442635
v -44.1210747 31.669611 -33.6127739
v 40.2562637 31.9470634 -29.6805496
v -38.8690338 40.968071 0.336916685
v -16.5394192 13.1350555 56.042347
v 56.9880562 0.507401705 -53.1793747
v 32.2103462 32.6305351 -54.2579575
v -28.1334801 0.653109968 -71.0134354
v 79.5857849 19.827528 5.97578669
v -25.8052788 5.73788071 -15.2923727
v -2.48041081 5.56552315 48.3446121
v 47.660141 30.8709011 31.3919773
v -49.8649521 5.22341585 -47.7824364
v -87.1103821 18.2717724 31.4902287
v -34.4853592 41.7480698 -44.2507477
v -40.062809 30.4509449 24.3444138
v 8.75411034 39.6759262 15.3128424
v -18.2849865 20.6563511 -64.431282
v 89.2211227 18.4689426 -21.2227898
v -35.2795677 31.5707054 7.06302452
v -18.1377373 20.5770664 -50.4847221
v 46.8174973 31.6547203 -4.43350029
v 18.1112118 19.7097378 16.0085163
v -97.0795898 18.6512432 -22.5399399
v 47.7228127 40.7024956 -4.38367653
v -34.9597397 5.17858028 -68.3516006
v 77.4870529 31.3480396 8.48310947
v -3.00873995 16.9481544 41.1599197
v -55.723465 11.7497339 68.7600174
v 19.8906555 6.1019578 14.4440126
v -55.6076126 31.6749611 -17.530426
v 43.749939 41.8472023 -27.1151447
v -0.491665184 30.2231064 -54.3434525
v -19.3044987 42.3769455 17.5369701
v 63.3565445 -0.114807062 55.5191193
v 66.0879135 0.272976041 54.3237419
v 50.7168465 5.73551178 57.7887001
v 79.5159302 0.573271394 -45.236412
v -37.2868233 18.0004997 3.4239254
v -52.7283134 19.643158 -24.2030849
v -71.5143585 19.8832722 41.5294266
v -35.0447617 19.6665878 8.40166187
v -55.8036156 0.195413902 -50.5752068
v -14.607296 31.3023663 28.6658459
v -52.0803986 19.3162804 -21.8132248
v 61.9803696 -0.330543816 55.9953156
vt 0.378671944 0.466399789 0
vt 0.262710005 0.575649977 0
vt 0.272356451 0.549337387 0
vt 0.262129992 0.577170014 0
vt 0.262080014 0.577149987 0
vt 0.272356451 0.549337387 0
vt 0.262129992 0.577170014 0
vt 0.272356451 0.549337387 0
vt 0.262710005 0.575649977 0
vt 0.262080014 0.577149987 0
vt 0.261669993 0.577839971 0
vt 0.272356451 0.549337387 0
vt 0.262809992 0.575640023 0
vt 0.262710005 0.575649977 0
vt 0.378671944 0.466399789 0
vt 0.27467069 0.553659499 0
vt 0.262809992 0.575640023 0
vt 0.262659997 0.575900018 0
vt 0.261669993 0.577839971 0
vt 0.262080014 0.577149987 0
vt 0.262129992 0.577170014 0
vt 0.262710005 0.575649977 0
vt 0.262659997 0.575900018 0
vt 0.262129992 0.577170014 0
vt 0.262809992 0.575640023 0
vt 0.378671944 0.466399789 0
vt 0.262659997 0.575900018 0
vt 0.378671944 0.466399789 0
vt 0.262129992 0.577170014 0
vt 0.262659997 0.575900018 0
vt 0.262140006 0.577279985 0
vt 0.378671944 0.466399789 0
vt 0.262059987 0.577470005 0
vt 0.261500001 0.578769982 0
vt 0.261669993 0.577839971 0
vt 0.261570007 0.578779995 0
vt 0.260540009 0.581409991 0
vt 0.261500001 0.578769982 0
vt 0.261570007 0.578779995 0
vt 0.262129992 0.577170014 0
vt 0.262059987 0.577470005 0
vt 0.261669993 0.577839971 0
vt 0.261669993 0.577839971 0
vt 0.258975714 0.584474802 0
vt 0.272356451 0.549337387 0
vt 0.260540009 0.581409991 0
vt 0.261669993 0.577839971 0
vt 0.261500001 0.578769982 0
vt 0.378671944 0.466399789 0
vt 0.261640012 0.578790009 0
vt 0.262059987 0.577470005 0
vt 0.261640012 0.578790009 0
vt 0.261669993 0.577839971 0
vt 0.262059987 0.577470005 0
vt 0.261640012 0.578790009 0
vt 0.261570007 0.578779995 0
vt 0.261669993 0.577839971 0
vt 0.26157999 0.578869998 0
vt 0.261640012 0.578790009 0
vt 0.261510015 0.579060018 0
vt 0.261570007 0.578779995 0
vt 0.261510015 0.579060018 0
vt 0.260540009 0.581409991 0
vt 0.258975714 0.584474802 0
vt 0.261669993 0.577839971 0
vt 0.260540009 0.581409991 0
vt 0.261640012 0.578790009 0
vt 0.378671944 0.466399789 0
vt 0.261510015 0.579060018 0
vt 0.261510015 0.579060018 0
vt 0.378671944 0.466399789 0
vt 0.260540009 0.581409991 0
vt 0.260540009 0.581409991 0
vt 0.378671944 0.466399789 0
vt 0.260630012 0.581439972 0
vt 0.258975714 0.584474802 0
vt 0.260540009 0.581409991 0
vt 0.260630012 0.581439972 0
vt 0.378671944 0.466399789 0
vt 0.260699987 0.581449986 0
vt 0.260630012 0.581439972 0
vt 0.258975714 0.584474802 0
vt 0.378671944 0.466399789 0
vt 0.259629995 0.583800018 0
vt 0.25739035 0.591392517 0
vt 0.258975714 0.584474802 0
vt 0.259629995 0.583800018 0
vt 0.378671944 0.466399789 0
vt 0.259739995 0.583899975 0
vt 0.259629995 0.583800018 0
vt 0.259288698 0.584674299 0
vt 0.259739995 0.583899975 0
vt 0.259609997 0.584150016 0
vt 0.259629995 0.583800018 0
vt 0.259609997 0.584150016 0
vt 0.25739035 0.591392517 0
vt 0.259739995 0.583899975 0
vt 0.378671944 0.466399789 0
vt 0.259609997 0.584150016 0
vt 0.378671944 0.466399789 0
vt 0.25739035 0.591392517 0
vt 0.259609997 0.584150016 0
vt 0.549317539 0.191029444 0
vt 0.55794239 0.258436412 0
vt 0.411848783 0.21825628 0
vt 0.286979079 0.285992712 0
vt 0.334233522 0.220251322 0
vt 0.356402516 0.404877514 0
vt 0.6789307 0.0877806544 0
vt 0.615883946 0.0540147163 0
vt 0.648125172 0.0605476573 0
vt 0.571513593 0.339960903 0
vt 0.645317376 0.382741272 0
vt 0.391641587 0.38142547 0
vt 0.549317539 0.191029444 0
vt 0.698219121 0.228866979 0
vt 0.593813598 0.261728644 0
vt 0.731204331 0.200241834 0
vt 0.549317539 0.191029444 0
vt 0.657572091 0.138863906 0
vt 0.66440767 0.128643051 0
vt 0.650092363 0.0727955326 0
vt 0.675510883 0.0971209928 0
vt 0.702156484 0.10054893 0
vt 0.757289529 0.112363309 0
vt 0.68901968 0.0930675194 0
vt 0.703271031 0.11054571 0
vt 0.731204331 0.200241834 0
vt 0.66440767 0.128643051 0
vt 0.747609973 0.177149996 0
vt 0.741925955 0.18572998 0
vt 0.731204331 0.200241834 0
vt 0.747609973 0.177149996 0
vt 0.731204331 0.200241834 0
vt 0.747529984 0.177110001 0
vt 0.249359995 0.498789996 0
vt 0.248779997 0.498800009 0
vt 0.248740003 0.498750001 0
vt 0.249359995 0.498789996 0
vt 0.248740003 0.498750001 0
vt 0.303882748 0.499525845 0
vt 0.757289529 0.112363309 0
vt 0.747799993 0.176760003 0
vt 0.725553036 0.114280947 0
vt 0.741925955 0.18572998 0
vt 0.747609973 0.177149996 0
vt 0.747669995 0.177210003 0
vt 0.741925955 0.18572998 0
vt 0.747669995 0.177210003 0
vt 0.749535084 0.174835384 0
vt 0.248779997 0.498800009 0
vt 0.249359995 0.498789996 0
vt 0.303683609 0.495802522 0
vt 0.248779997 0.498800009 0
vt 0.303683609 0.495802522 0
vt 0.248750001 0.498869985 0
vt 0.747799993 0.176760003 0
vt 0.757289529 0.112363309 0
vt 0.749535084 0.174835384 0
vt 0.747799993 0.176760003 0
vt 0.749535084 0.174835384 0
vt 0.730619371 0.121018179 0
vt 0.749535084 0.174835384 0
vt 0.747669995 0.177210003 0
vt 0.730619371 0.121018179 0
vt 0.657523096 0.676140189 0
vt 0.543890417 0.720586002 0
vt 0.66447556 0.601335108 0
vt 0.783785462 0.164146081 0
vt 0.757289529 0.112363309 0
vt 0.784912765 0.136638105 0
vt 0.378671944 0.466399789 0
vt 0.264227986 0.721900105 0
vt 0.25739035 0.591392517 0
vt 0.378671944 0.466399789 0
vt 0.502732933 0.598702133 0
vt 0.264227986 0.721900105 0
vt 0.470764697 0.743033111 0
vt 0.419499516 0.768647134 0
vt 0.473890901 0.690479994 0
vt 0.882007778 0.0519845523 0
vt 0.942791939 0.0264218636 0
vt 0.892333865 0.0903238952 0
vt 0.757289529 0.112363309 0
vt 0.735817254 0.085812673 0
vt 0.773237228 0.0545662791 0
vt 0.166781649 0.269567102 0
vt 0.154300481 0.366217405 0
vt 0.136903524 0.353994787 0
vt 0.391641587 0.38142547 0
vt 0.641356528 0.522529364 0
vt 0.378671944 0.466399789 0
vt 0.390739202 0.287803233 0
vt 0.39747563 0.291192442 0
vt 0.37000823 0.411636502 0
vt 0.502732933 0.598702133 0
vt 0.34864834 0.737100542 0
vt 0.264227986 0.721900105 0
vt 0.843688369 0.203366622 0
vt 0.892333865 0.0903238952 0
vt 0.92928803 0.230903849 0
vt 0.843688369 0.203366622 0
vt 0.831191242 0.0933911949 0
vt 0.892333865 0.0903238952 0
vt 0.831191242 0.0933911949 0
vt 0.757289529 0.112363309 0
vt 0.825202107 0.0761207566 0
vt 0.666432321 0.495993465 0
vt 0.641356528 0.522529364 0
vt 0.391641587 0.38142547 0
vt 0.69078356 0.86861521 0
vt 0.605036795 0.772426486 0
vt 0.757952511 0.777115226 0
vt 0.958930492 0.232702985 0
vt 0.92928803 0.230903849 0
vt 0.947114885 0.171541572 0
vt 0.495098412 0.180441782 0
vt 0.586508274 0.151947513 0
vt 0.549317539 0.191029444 0
vt 0.784912765 0.136638105 0
vt 0.831191242 0.0933911949 0
vt 0.843688369 0.203366622 0
vt 0.112319462 0.46182856 0
vt 0.155910611 0.398494512 0
vt 0.151004598 0.440164894 0
vt 0.356402516 0.404877514 0
vt 0.334233522 0.220251322 0
vt 0.390739202 0.287803233 0
vt 0.593813598 0.261728644 0
vt 0.509608626 0.312249482 0
vt 0.55794239 0.258436412 0
vt 0.825202107 0.0761207566 0
vt 0.882007778 0.0519845523 0
vt 0.831191242 0.0933911949 0
vt 0.802199841 0.357648909 0
vt 0.798717976 0.42969209 0
vt 0.766513705 0.444053978 0
vt 0.260567993 0.255405724 0
vt 0.337425351 0.193008289 0
vt 0.334233522 0.220251322 0
vt 0.882007778 0.0519845523 0
vt 0.825202107 0.0761207566 0
vt 0.800211549 0.0573791154 0
vt 0.892333865 0.0903238952 0
vt 0.998848259 0.0419848002 0
vt 0.986296952 0.0919902548 0
vt 0.645317376 0.382741272 0
vt 0.666432321 0.495993465 0
vt 0.391641587 0.38142547 0
vt 0.284380615 0.172356814 0
vt 0.154300481 0.366217405 0
vt 0.166781649 0.269567102 0
vt 0.69078356 0.86861521 0
vt 0.627917171 0.832115769 0
vt 0.605036795 0.772426486 0
vt 0.465735644 0.511791885 0
vt 0.502732933 0.598702133 0
vt 0.378671944 0.466399789 0
vt 0.84443152 0.291539162 0
vt 0.865341246 0.332879931 0
vt 0.802199841 0.357648909 0
vt 0.892333865 0.0903238952 0
vt 0.942791939 0.0264218636 0
vt 0.998848259 0.0419848002 0
vt 0.66440767 0.128643051 0
vt 0.731204331 0.200241834 0
vt 0.657572091 0.138863906 0
vt 0.225822151 0.50369674 0
vt 0.245006606 0.486207813 0
vt 0.339223951 0.443604678 0
vt 0.155910611 0.398494512 0
vt 0.112319462 0.46182856 0
vt 0.0199715793 0.445514321 0
vt 0.827507854 0.252447873 0
vt 0.84443152 0.291539162 0
vt 0.802199841 0.357648909 0
vt 0.802199841 0.357648909 0
vt 0.78365159 0.330872178 0
vt 0.827507854 0.252447873 0
vt 0.865341246 0.332879931 0
vt 0.838078201 0.390595168 0
vt 0.802199841 0.357648909 0
vt 0.757065773 0.663769782 0
vt 0.630621791 0.708970368 0
vt 0.709210217 0.63581717 0
vt 0.703253031 0.56429106 0
vt 0.73747468 0.459872872 0
vt 0.766513705 0.444053978 0
vt 0.757065773 0.663769782 0
vt 0.757952511 0.777115226 0
vt 0.605036795 0.772426486 0
vt 0.257515967 0.153121158 0
vt 0.166781649 0.269567102 0
vt 0.151851043 0.259098291 0
vt 0.459912777 0.32380417 0
vt 0.509608626 0.312249482 0
vt 0.528358757 0.333590418 0
vt 0.286979079 0.285992712 0
vt 0.356402516 0.404877514 0
vt 0.184510663 0.416193575 0
vt 0.260567993 0.255405724 0
vt 0.184510663 0.416193575 0
vt 0.155910611 0.398494512 0
vt 0.500256836 0.726894319 0
vt 0.543890417 0.720586002 0
vt 0.495248765 0.768646419 0
vt 0.112319462 0.46182856 0
vt 0.0532143191 0.503620028 0
vt 0.0199715793 0.445514321 0
vt 0.731204331 0.200241834 0
vt 0.741925955 0.18572998 0
vt 0.781629205 0.214989111 0
vt 0.675510883 0.0971209928 0
vt 0.757289529 0.112363309 0
vt 0.702111661 0.100234926 0
vt 0.757289529 0.112363309 0
vt 0.675510883 0.0971209928 0
vt 0.6789307 0.0877806544 0
vt 0.749535084 0.174835384 0
vt 0.757289529 0.112363309 0
vt 0.781629205 0.214989111 0
vt 0.36465776 0.165560216 0
vt 0.337425351 0.193008289 0
vt 0.260567993 0.255405724 0
vt 0.36465776 0.165560216 0
vt 0.260567993 0.255405724 0
vt 0.284380615 0.172356814 0
vt 0.703271031 0.11054571 0
vt 0.735817254 0.085812673 0
vt 0.757289529 0.112363309 0
vt 0.225822151 0.50369674 0
vt 0.187539592 0.45508793 0
vt 0.184510663 0.416193575 0
vt 0.116196476 0.508421719 0
vt 0.151004598 0.440164894 0
vt 0.187539592 0.45508793 0
vt 0.784912765 0.136638105 0
vt 0.757289529 0.112363309 0
vt 0.831191242 0.0933911949 0
vt 0.731204331 0.200241834 0
vt 0.698219121 0.228866979 0
vt 0.549317539 0.191029444 0
vt 0.892333865 0.0903238952 0
vt 0.947114885 0.171541572 0
vt 0.92928803 0.230903849 0
vt 0.766513705 0.444053978 0
vt 0.798717976 0.42969209 0
vt 0.790343225 0.553440511 0
vt 0.757289529 0.112363309 0
vt 0.6789307 0.0877806544 0
vt 0.68901968 0.0930675194 0
vt 0.65174067 0.59394604 0
vt 0.66447556 0.601335108 0
vt 0.560584545 0.668919027 0
vt 0.703253031 0.56429106 0
vt 0.766513705 0.444053978 0
vt 0.790343225 0.553440511 0
vt 0.637476861 0.604465425 0
vt 0.473890901 0.690479994 0
vt 0.502732933 0.598702133 0
vt 0.637476861 0.604465425 0
vt 0.502732933 0.598702133 0
vt 0.465735644 0.511791885 0
vt 0.641356528 0.522529364 0
vt 0.465735644 0.511791885 0
vt 0.378671944 0.466399789 0
vt 0.800211549 0.0573791154 0
vt 0.825202107 0.0761207566 0
vt 0.757289529 0.112363309 0
vt 0.495098412 0.180441782 0
vt 0.549317539 0.191029444 0
vt 0.411848783 0.21825628 0
vt 0.691680014 0.107830003 0
vt 0.693733394 0.105300449 0
vt 0.696835399 0.0989719406 0
vt 0.703271031 0.11054571 0
vt 0.691680014 0.107830003 0
vt 0.696835399 0.0989719406 0
vt 0.399862885 0.250362724 0
vt 0.411848783 0.21825628 0
vt 0.430165529 0.274065137 0
vt 0.675510883 0.0971209928 0
vt 0.615883946 0.0540147163 0
vt 0.6789307 0.0877806544 0
vt 0.882007778 0.0519845523 0
vt 0.800211549 0.0573791154 0
vt 0.844442785 0.0347661115 0
vt 0.800211549 0.0573791154 0
vt 0.809642673 0.0293497518 0
vt 0.844442785 0.0347661115 0
vt 0.430165529 0.274065137 0
vt 0.55794239 0.258436412 0
vt 0.509608626 0.312249482 0
vt 0.66447556 0.601335108 0
vt 0.65174067 0.59394604 0
vt 0.703253031 0.56429106 0
vt 0.411848783 0.21825628 0
vt 0.55794239 0.258436412 0
vt 0.430165529 0.274065137 0
vt 0.473890901 0.690479994 0
vt 0.34864834 0.737100542 0
vt 0.502732933 0.598702133 0
vt 0.560584545 0.668919027 0
vt 0.66447556 0.601335108 0
vt 0.543890417 0.720586002 0
vt 0.399862885 0.250362724 0
vt 0.337425351 0.193008289 0
vt 0.411848783 0.21825628 0
vt 0.257515967 0.153121158 0
vt 0.284380615 0.172356814 0
vt 0.166781649 0.269567102 0
vt 0.947114885 0.171541572 0
vt 0.892333865 0.0903238952 0
vt 0.95129782 0.150206491 0
vt 0.706802487 0.276263326 0
vt 0.698219121 0.228866979 0
vt 0.731204331 0.200241834 0
vt 0.593813598 0.261728644 0
vt 0.698219121 0.228866979 0
vt 0.63611567 0.296042114 0
vt 0.391641587 0.38142547 0
vt 0.435896784 0.336835474 0
vt 0.571513593 0.339960903 0
vt 0.37000823 0.411636502 0
vt 0.339223951 0.443604678 0
vt 0.356402516 0.404877514 0
vt 0.0199715793 0.445514321 0
vt 0.0774505883 0.389606953 0
vt 0.155910611 0.398494512 0
vt 0.593813598 0.261728644 0
vt 0.63611567 0.296042114 0
vt 0.528358757 0.333590418 0
vt 0.284380615 0.172356814 0
vt 0.318146765 0.162158608 0
vt 0.36349684 0.146694884 0
vt 0.958930492 0.232702985 0
vt 0.947114885 0.171541572 0
vt 0.95129782 0.150206491 0
vt 0.430165529 0.274065137 0
vt 0.390739202 0.287803233 0
vt 0.399862885 0.250362724 0
vt 0.648125172 0.0605476573 0
vt 0.661187947 0.0640749484 0
vt 0.6789307 0.0877806544 0
vt 0.0532143191 0.503620028 0
vt 0.112319462 0.46182856 0
vt 0.116196476 0.508421719 0
vt 0.766513705 0.444053978 0
vt 0.73747468 0.459872872 0
vt 0.761106193 0.394035459 0
vt 0.66440767 0.128643051 0
vt 0.691680014 0.107830003 0
vt 0.703271031 0.11054571 0
vt 0.419499516 0.768647134 0
vt 0.34864834 0.737100542 0
vt 0.473890901 0.690479994 0
vt 0.787396669 0.632821679 0
vt 0.703253031 0.56429106 0
vt 0.790343225 0.553440511 0
vt 0.73747468 0.459872872 0
vt 0.703253031 0.56429106 0
vt 0.649952054 0.537703574 0
vt 0.112319462 0.46182856 0
vt 0.151004598 0.440164894 0
vt 0.116196476 0.508421719 0
vt 0.166781649 0.269567102 0
vt 0.136903524 0.353994787 0
vt 0.151851043 0.259098291 0
vt 0.95129782 0.150206491 0
vt 0.892333865 0.0903238952 0
vt 0.986296952 0.0919902548 0
vt 0.36349684 0.146694884 0
vt 0.36465776 0.165560216 0
vt 0.284380615 0.172356814 0
vt 0.136903524 0.353994787 0
vt 0.154300481 0.366217405 0
vt 0.155910611 0.398494512 0
vt 0.690087259 0.624777496 0
vt 0.66447556 0.601335108 0
vt 0.787396669 0.632821679 0
vt 0.418571204 0.188703462 0
vt 0.495098412 0.180441782 0
vt 0.411848783 0.21825628 0
vt -0.00309662707 0.417584032 0
vt 0.0774505883 0.389606953 0
vt 0.0199715793 0.445514321 0
vt 0.78365159 0.330872178 0
vt 0.802079618 0.255716354 0
vt 0.827507854 0.252447873 0
vt 0.892333865 0.0903238952 0
vt 0.831191242 0.0933911949 0
vt 0.882007778 0.0519845523 0
vt 0.151004598 0.440164894 0
vt 0.155910611 0.398494512 0
vt 0.184510663 0.416193575 0
vt 0.882007778 0.0519845523 0
vt 0.844442785 0.0347661115 0
vt 0.915865362 0.000849808101 0
vt 0.661064744 0.108706698 0
vt 0.650092363 0.0727955326 0
vt 0.66440767 0.128643051 0
vt 0.696835399 0.0989719406 0
vt 0.703114927 0.080119893 0
vt 0.703271031 0.11054571 0
vt 0.741925955 0.18572998 0
vt 0.749535084 0.174835384 0
vt 0.781629205 0.214989111 0
vt 0.650092363 0.0727955326 0
vt 0.615883946 0.0540147163 0
vt 0.675510883 0.0971209928 0
vt 0.509608626 0.312249482 0
vt 0.459912777 0.32380417 0
vt 0.430165529 0.274065137 0
vt 0.586508274 0.151947513 0
vt 0.630683661 0.118047565 0
vt 0.657572091 0.138863906 0
vt 0.549317539 0.191029444 0
vt 0.593813598 0.261728644 0
vt 0.55794239 0.258436412 0
vt 0.184510663 0.416193575 0
vt 0.356402516 0.404877514 0
vt 0.245006606 0.486207813 0
vt 0.286979079 0.285992712 0
vt 0.184510663 0.416193575 0
vt 0.260567993 0.255405724 0
vt 0.706802487 0.276263326 0
vt 0.731204331 0.200241834 0
vt 0.781629205 0.214989111 0
vt 0.260567993 0.255405724 0
vt 0.154300481 0.366217405 0
vt 0.284380615 0.172356814 0
vt 0.260567993 0.255405724 0
vt 0.155910611 0.398494512 0
vt 0.154300481 0.366217405 0
vt 0.702111661 0.100234926 0
vt 0.693834364 0.103434592 0
vt 0.675510883 0.0971209928 0
vt 0.802199841 0.357648909 0
vt 0.838078201 0.390595168 0
vt 0.798717976 0.42969209 0
vt 0.781629205 0.214989111 0
vt 0.757289529 0.112363309 0
vt 0.783785462 0.164146081 0
vt 0.430165529 0.274065137 0
vt 0.39747563 0.291192442 0
vt 0.390739202 0.287803233 0
vt 0.882007778 0.0519845523 0
vt 0.915865362 0.000849808101 0
vt 0.942791939 0.0264218636 0
vt 0.390739202 0.287803233 0
vt 0.334233522 0.220251322 0
vt 0.399862885 0.250362724 0
vt 0.66447556 0.601335108 0
vt 0.703253031 0.56429106 0
vt 0.787396669 0.632821679 0
vt 0.757065773 0.663769782 0
vt 0.605036795 0.772426486 0
vt 0.630621791 0.708970368 0
vt 0.591807723 0.712116718 0
vt 0.543890417 0.720586002 0
vt 0.657523096 0.676140189 0
vt 0.691680014 0.107830003 0
vt 0.66440767 0.128643051 0
vt 0.675510883 0.0971209928 0
vt 0.675510883 0.0971209928 0
vt 0.693733394 0.105300449 0
vt 0.691680014 0.107830003 0
vt 0.725553036 0.114280947 0
vt 0.747529984 0.177110001 0
vt 0.731204331 0.200241834 0
vt 0.65174067 0.59394604 0
vt 0.649952054 0.537703574 0
vt 0.703253031 0.56429106 0
vt 0.528358757 0.333590418 0
vt 0.509608626 0.312249482 0
vt 0.593813598 0.261728644 0
vt 0.549317539 0.191029444 0
vt 0.586508274 0.151947513 0
vt 0.657572091 0.138863906 0
vt 0.543890417 0.720586002 0
vt 0.500256836 0.726894319 0
vt 0.560584545 0.668919027 0
vt 0.802199841 0.357648909 0
vt 0.761106193 0.394035459 0
vt 0.78365159 0.330872178 0
vt 0.339223951 0.443604678 0
vt 0.245006606 0.486207813 0
vt 0.356402516 0.404877514 0
vt 0.757952511 0.777115226 0
vt 0.733464658 0.857842565 0
vt 0.69078356 0.86861521 0
vt 0.690087259 0.624777496 0
vt 0.657523096 0.676140189 0
vt 0.66447556 0.601335108 0
vt 0.495248765 0.768646419 0
vt 0.469832182 0.764456093 0
vt 0.500256836 0.726894319 0
vt 0.761106193 0.394035459 0
vt 0.802199841 0.357648909 0
vt 0.766513705 0.444053978 0
vt 0.345050752 0.439686328 0
vt 0.339223951 0.443604678 0
vt 0.37000823 0.411636502 0
vt 0.757289529 0.112363309 0
vt 0.773237228 0.0545662791 0
vt 0.800211549 0.0573791154 0
vt 0.225822151 0.50369674 0
vt 0.184510663 0.416193575 0
vt 0.245006606 0.486207813 0
vt 0.703271031 0.11054571 0
vt 0.703114927 0.080119893 0
vt 0.735817254 0.085812673 0
vt 0.784912765 0.136638105 0
vt 0.843688369 0.203366622 0
vt 0.783785462 0.164146081 0
vt 0.260630012 0.581529975 0
vt 0.260699987 0.581449986 0
vt 0.26056999 0.58168 0
vt 0.260699987 0.581449986 0
vt 0.378671944 0.466399789 0
vt 0.26056999 0.58168 0
vt 0.378671944 0.466399789 0
vt 0.258975714 0.584474802 0
vt 0.26056999 0.58168 0
vt 0.260630012 0.581439972 0
vt 0.26056999 0.58168 0
vt 0.258975714 0.584474802 0
vt 0.465735644 0.511791885 0
vt 0.641356528 0.522529364 0
vt 0.637476861 0.604465425 0
vt 0.783785462 0.164146081 0
vt 0.798530757 0.190313235 0
vt 0.781629205 0.214989111 0
vt 0.675510883 0.0971209928 0
vt 0.693834364 0.103434592 0
vt 0.693733394 0.105300449 0
vt 0.337425351 0.193008289 0
vt 0.399862885 0.250362724 0
vt 0.334233522 0.220251322 0
vt 0.151004598 0.440164894 0
vt 0.184510663 0.416193575 0
vt 0.187539592 0.45508793 0
vt 0.430165529 0.274065137 0
vt 0.459912777 0.32380417 0
vt 0.39747563 0.291192442 0
vt 0.725553036 0.114280947 0
vt 0.731204331 0.200241834 0
vt 0.703271031 0.11054571 0
vt 0.356402516 0.404877514 0
vt 0.390739202 0.287803233 0
vt 0.37000823 0.411636502 0
vt 0.703271031 0.11054571 0
vt 0.757289529 0.112363309 0
vt 0.702156484 0.10054893 0
vt 0.155910611 0.398494512 0
vt 0.0774505883 0.389606953 0
vt 0.136903524 0.353994787 0
vt 0.286979079 0.285992712 0
vt 0.260567993 0.255405724 0
vt 0.334233522 0.220251322 0
vt 0.696835399 0.0989719406 0
vt 0.693733394 0.105300449 0
vt 0.699435055 0.0981177315 0
vn -0.0896171033 -0.997250736 -0.0130338417
vn 0.133899987 -0.674001873 0.72649312
vn 0.0700995773 -0.0554979295 0.924349129
vn 0.242454216 -0.618853271 0.747152328
vn 0.292040706 -0.389263928 0.873604953
vn 0.0700995773 -0.0554979295 0.924349129
vn 0.242454216 -0.618853271 0.747152328
vn 0.0700995773 -0.0554979295 0.924349129
vn 0.133899987 -0.674001873 0.72649312
vn 0.292040706 -0.389263928 0.873604953
vn 0.338622808 -0.0658416152 0.93861562
vn 0.0700995773 -0.0554979295 0.924349129
vn -0.00444392487 -0.999954879 -0.00840057153
vn 0.133899987 -0.674001873 0.72649312
vn -0.0896171033 -0.997250736 -0.0130338417
vn -0.58408308 11.7802114 -0.539033711
vn -0.00444392487 -0.999954879 -0.00840057153
vn 0.0679054931 -0.960409403 0.270189881
vn 0.338622808 -0.0658416152 0.93861562
vn 0.292040706 -0.389263928 0.873604953
vn 0.242454216 -0.618853271 0.747152328
vn 0.133899987 -0.674001873 0.72649312
vn 0.0679054931 -0.960409403 0.270189881
vn 0.242454216 -0.618853271 0.747152328
vn -0.00444392487 -0.999954879 -0.00840057153
vn -0.0896171033 -0.997250736 -0.0130338417
vn 0.0679054931 -0.960409403 0.270189881
vn -0.0896171033 -0.997250736 -0.0130338417
vn 0.242454216 -0.618853271 0.747152328
vn 0.0679054931 -0.960409403 0.270189881
vn 0.292040706 -0.389263928 0.873604953
vn -0.0896171033 -0.997250736 -0.0130338417
vn 0.229485124 -0.755365014 0.613808036
vn 0.302709162 -0.333968639 0.892654479
vn 0.338622808 -0.0658416152 0.93861562
vn 0.187889889 -0.579993367 0.792656898
vn 0.269333065 -0.327463001 0.905664206
vn 0.302709162 -0.333968639 0.892654479
vn 0.187889889 -0.579993367 0.792656898
vn 0.242454216 -0.618853271 0.747152328
vn 0.229485124 -0.755365014 0.613808036
vn 0.338622808 -0.0658416152 0.93861562
vn 0.338622808 -0.0658416152 0.93861562
vn 0.408859909 0.0695427507 0.916013479
vn 0.0700995773 -0.0554979295 0.924349129
vn 0.269333065 -0.327463001 0.905664206
vn 0.338622808 -0.0658416152 0.93861562
vn 0.302709162 -0.333968639 0.892654479
vn -0.0896171033 -0.997250736 -0.0130338417
vn 0.0386684723 -0.929538906 0.366690904
vn 0.229485124 -0.755365014 0.613808036
vn 0.0386684723 -0.929538906 0.366690904
vn 0.338622808 -0.0658416152 0.93861562
vn 0.229485124 -0.755365014 0.613808036
vn 0.0386684723 -0.929538906 0.366690904
vn 0.187889889 -0.579993367 0.792656898
vn 0.338622808 -0.0658416152 0.93861562
vn 0.302709162 -0.333968639 0.892654479
vn 0.0386684723 -0.929538906 0.366690904
vn 0.172827631 -0.852502108 0.493326187
vn 0.187889889 -0.579993367 0.792656898
vn 0.172827631 -0.852502108 0.493326187
vn 0.269333065 -0.327463001 0.905664206
vn 0.408859909 0.0695427507 0.916013479
vn 0.338622808 -0.0658416152 0.93861562
vn 0.269333065 -0.327463001 0.905664206
vn 0.0386684723 -0.929538906 0.366690904
vn -0.0896171033 -0.997250736 -0.0130338417
vn 0.172827631 -0.852502108 0.493326187
vn 0.172827631 -0.852502108 0.493326187
vn -0.0896171033 -0.997250736 -0.0130338417
vn 0.269333065 -0.327463001 0.905664206
vn 0.269333065 -0.327463001 0.905664206
vn -0.0896171033 -0.997250736 -0.0130338417
vn -0.0848051757 -0.394499838 0.914974391
vn 0.408859909 0.0695427507 0.916013479
vn 0.269333065 -0.327463001 0.905664206
vn -0.0848051757 -0.394499838 0.914974391
vn -0.0896171033 -0.997250736 -0.0130338417
vn 0.141122386 -0.848748505 0.509617984
vn -0.0848051757 -0.394499838 0.914974391
vn 0.408859909 0.0695427507 0.916013479
vn -0.0896171033 -0.997250736 -0.0130338417
vn 0.0621606857 -0.360005081 0.930877268
vn 0.615679145 -0.321118921 0.829307139
vn 0.408859909 0.0695427507 0.916013479
vn 0.0621606857 -0.360005081 0.930877268
vn -0.0896171033 -0.997250736 -0.0130338417
vn 0.225122303 -0.866363704 0.445795655
vn 0.0621606857 -0.360005081 0.930877268
vn 0.525558114 -0.192324638 0.959886372
vn 0.225122303 -0.866363704 0.445795655
vn 0.273037881 -0.866692722 0.417485476
vn 0.0621606857 -0.360005081 0.930877268
vn 0.273037881 -0.866692722 0.417485476
vn 0.615679145 -0.321118921 0.829307139
vn 0.225122303 -0.866363704 0.445795655
vn -0.0896171033 -0.997250736 -0.0130338417
vn 0.273037881 -0.866692722 0.417485476
vn -0.0896171033 -0.997250736 -0.0130338417
vn 0.615679145 -0.321118921 0.829307139
vn 0.273037881 -0.866692722 0.417485476
vn -0.168291748 0.859321892 0.190495238
vn -0.0865381882 0.999206722 0.137203828
vn 0.0913660005 -0.303493559 0.109833084
vn 0.0926860645 0.598303258 0.50568682
vn 0.198605955 0.807905376 0.0790015608
vn -0.00030468608 0.9914397 0.0683591217
vn 0.297778517 -0.722488999 -0.278668523
vn -0.062104743 0.58163774 0.444590777
vn 0.115180217 -0.689060092 -0.110611595
vn -0.523975432 -0.346654654 0.345781356
vn -0.21944347 -0.859429419 -0.0925888792
vn 0.0599523596 -0.913561702 0.155852303
vn -0.168291748 0.859321892 0.190495238
vn -0.520182014 0.68236661 -0.0853818804
vn -0.617068291 0.746932387 0.339760572
vn -0.383942842 0.549844742 -0.431597978
vn -0.168291748 0.859321892 0.190495238
vn -0.645921111 0.333100647 -0.305081397
vn 0.0636149347 0.322253495 -0.138673156
vn 0.0267574675 1.02285266 -0.0552199334
vn -0.341160625 0.478010565 0.105365641
vn 0.0867320001 -0.794548988 0.0113743069
vn -0.297079325 0.200692311 -0.313776761
vn 0.0636149347 0.322253495 -0.138673156
vn -0.28914699 0.234583676 -0.358275265
vn -0.383942842 0.549844742 -0.431597978
vn 0.0636149347 0.322253495 -0.138673156
vn 0.927544177 0.332065225 -0.17144765
vn -0.0730384588 0.93201369 -0.293427944
vn -0.383942842 0.549844742 -0.431597978
vn 0.927544177 0.332065225 -0.17144765
vn -0.383942842 0.549844742 -0.431597978
vn 0.499187827 0.866459429 -0.0077232793
vn -0.920875132 0.386271924 -0.0527539775
vn 0.927544177 0.332065225 -0.17144765
vn 0.499187827 0.866459429 -0.0077232793
vn -0.920875132 0.386271924 -0.0527539775
vn 0.499187827 0.866459429 -0.0077232793
vn -81.5561905 -13.2447643 1.91077507
vn -0.297079325 0.200692311 -0.313776761
vn -0.920875132 0.386271924 -0.0527539775
vn 0.054742597 0.950866163 0.0561912023
vn -0.0730384588 0.93201369 -0.293427944
vn 0.927544177 0.332065225 -0.17144765
vn 0.499187827 0.866459429 -0.0077232793
vn -0.0730384588 0.93201369 -0.293427944
vn 0.499187827 0.866459429 -0.0077232793
vn -0.0722762868 0.642243624 -0.756914258
vn 0.927544177 0.332065225 -0.17144765
vn -0.920875132 0.386271924 -0.0527539775
vn -122.152451 -7.3535943 5.30728245
vn 0.927544177 0.332065225 -0.17144765
vn -122.152451 -7.3535943 5.30728245
vn 0.499187827 0.866459429 -0.0077232793
vn -0.920875132 0.386271924 -0.0527539775
vn -0.297079325 0.200692311 -0.313776761
vn -0.0722762868 0.642243624 -0.756914258
vn -0.920875132 0.386271924 -0.0527539775
vn -0.0722762868 0.642243624 -0.756914258
vn -5.9030304 27.8889961 49.7691917
vn -0.0722762868 0.642243624 -0.756914258
vn 0.499187827 0.866459429 -0.0077232793
vn -5.9030304 27.8889961 49.7691917
vn 0.150849536 0.914438784 -0.260483027
vn -0.0764248669 0.3070364 -0.598464906
vn 0.247061759 0.622027278 0.0989055932
vn 0.170854807 0.840786755 -0.211764544
vn -0.297079325 0.200692311 -0.313776761
vn -0.388769597 -0.590110123 -0.29474619
vn -0.0896171033 -0.997250736 -0.0130338417
vn 0.254060745 -0.855457485 0.0118656652
vn 0.615679145 -0.321118921 0.829307139
vn -0.0896171033 -0.997250736 -0.0130338417
vn -0.0379779488 -0.993426204 -0.0745804608
vn 0.254060745 -0.855457485 0.0118656652
vn 0.201042533 -0.730958164 -0.552449822
vn 0.364076406 -0.492271572 -0.446680009
vn -0.00841602497 -1.00915051 -0.0629990771
vn -0.025306996 0.234004691 -0.867129266
vn 0.211419046 0.488660663 -0.648856461
vn -0.130393445 0.14118804 -0.460226208
vn -0.297079325 0.200692311 -0.313776761
vn -0.718275428 -0.328788817 -0.285425335
vn -0.0764248669 0.3070364 -0.598464906
vn 0.171994999 -0.211871549 0.878322542
vn 0.232991412 -0.923839808 -0.000493969768
vn 0.211584002 0.812291145 0.0642168969
vn 0.0599523596 -0.913561702 0.155852303
vn 0.0213856995 -0.981792629 -0.0849640369
vn -0.0896171033 -0.997250736 -0.0130338417
vn -0.0641327798 0.888412058 0.217113227
vn -0.0896171033 -0.997250736 -0.0130338417
vn 0.0700995773 -0.0554979295 0.924349129
vn -0.0379779488 -0.993426204 -0.0745804608
vn 0.254257679 -0.831761301 -0.0339996815
vn 0.254060745 -0.855457485 0.0118656652
vn 0.256045163 0.0206302609 -0.0576311834
vn -0.130393445 0.14118804 -0.460226208
vn 0.170854807 0.840786755 -0.211764544
vn 0.256045163 0.0206302609 -0.0576311834
vn -0.25003621 -0.822355509 -0.330603629
vn -0.130393445 0.14118804 -0.460226208
vn -0.25003621 -0.822355509 -0.330603629
vn -0.297079325 0.200692311 -0.313776761
vn -0.138449013 0.719344914 -0.495961785
vn -0.0526886098 -0.868945241 -0.261293262
vn 0.0213856995 -0.981792629 -0.0849640369
vn 0.0599523596 -0.913561702 0.155852303
vn -0.278353363 0.84215039 -0.0151149565
vn -0.0393174402 0.974480271 0.15922223
vn 0.0900293589 0.894442022 -0.216249347
vn 0.0213856995 -0.981792629 -0.0849640369
vn 0.170854807 0.840786755 -0.211764544
vn -0.0736026764 0.919859409 -0.247110426
vn -0.189779252 0.801044405 0.473333299
vn -0.500669777 0.679080009 0.154392153
vn -0.168291748 0.859321892 0.190495238
vn -0.388769597 -0.590110123 -0.29474619
vn -0.25003621 -0.822355509 -0.330603629
vn 0.256045163 0.0206302609 -0.0576311834
vn 0.327664286 0.538784623 -0.39373669
vn 0.386323631 0.64517343 0.10124924
vn 0.681258619 0.56320399 0.217785314
vn -0.00030468608 0.9914397 0.0683591217
vn 0.198605955 0.807905376 0.0790015608
vn -0.0641327798 0.888412058 0.217113227
vn -0.617068291 0.746932387 0.339760572
vn -0.384615213 0.00687946612 0.774472833
vn -0.0865381882 0.999206722 0.137203828
vn -0.138449013 0.719344914 -0.495961785
vn -0.025306996 0.234004691 -0.867129266
vn -0.25003621 -0.822355509 -0.330603629
vn -0.177471936 0.690430105 0.244413182
vn -0.061270766 0.625127494 0.709868908
vn 0.114129804 0.601077676 0.54852581
vn 0.128082395 -0.492151886 0.573900521
vn -0.062104743 0.58163774 0.444590777
vn 0.198605955 0.807905376 0.0790015608
vn -0.025306996 0.234004691 -0.867129266
vn -0.138449013 0.719344914 -0.495961785
vn -0.319195032 0.454968035 -0.621115148
vn -0.130393445 0.14118804 -0.460226208
vn 0.201042533 -0.730958164 -0.552449822
vn -0.00841602497 -1.00915051 -0.0629990771
vn -0.21944347 -0.859429419 -0.0925888792
vn -0.0526886098 -0.868945241 -0.261293262
vn 0.0599523596 -0.913561702 0.155852303
vn 0.0913660005 -0.303493559 0.109833084
vn 0.232991412 -0.923839808 -0.000493969768
vn 0.171994999 -0.211871549 0.878322542
vn -0.278353363 0.84215039 -0.0151149565
vn -0.78570497 0.35789904 0.499887079
vn -0.0393174402 0.974480271 0.15922223
vn 0.0796556175 -0.957545698 -0.0913947597
vn -0.0379779488 -0.993426204 -0.0745804608
vn -0.0896171033 -0.997250736 -0.0130338417
vn -0.486119121 0.584944487 -0.332999617
vn -0.500669777 0.679080009 0.154392153
vn -0.177471936 0.690430105 0.244413182
vn -0.130393445 0.14118804 -0.460226208
vn 0.211419046 0.488660663 -0.648856461
vn 0.201042533 -0.730958164 -0.552449822
vn 0.0636149347 0.322253495 -0.138673156
vn -0.383942842 0.549844742 -0.431597978
vn -0.645921111 0.333100647 -0.305081397
vn 0.254060745 -0.855457485 0.0118656652
vn 0.237987652 0.960670054 0.150098264
vn 0.615679145 -0.321118921 0.829307139
vn 0.386323631 0.64517343 0.10124924
vn 0.327664286 0.538784623 -0.39373669
vn 0.211419046 0.488660663 -0.648856461
vn -0.718275428 -0.328788817 -0.285425335
vn -0.486119121 0.584944487 -0.332999617
vn -0.177471936 0.690430105 0.244413182
vn -0.177471936 0.690430105 0.244413182
vn -0.78570497 0.35789904 0.499887079
vn -0.718275428 -0.328788817 -0.285425335
vn -0.500669777 0.679080009 0.154392153
vn -0.189779252 0.801044405 0.473333299
vn -0.177471936 0.690430105 0.244413182
vn 0.359194845 0.721721172 -0.447012454
vn 0.258179218 0.452350736 0.618504882
vn 0.701871753 0.34643665 0.535921693
vn -0.0671319738 0.270379424 0.0553511865
vn 0.258179218 0.452350736 0.618504882
vn 0.114129804 0.601077676 0.54852581
vn 0.359194845 0.721721172 -0.447012454
vn 0.0900293589 0.894442022 -0.216249347
vn -0.0393174402 0.974480271 0.15922223
vn -0.061270766 0.625127494 0.709868908
vn 0.171994999 -0.211871549 0.878322542
vn 0.0694420636 0.90012902 0.274485111
vn 0.0599523596 -0.913561702 0.155852303
vn -0.384615213 0.00687946612 0.774472833
vn -0.418480963 -0.496001989 0.435411662
vn 0.0926860645 0.598303258 0.50568682
vn -0.00030468608 0.9914397 0.0683591217
vn 0.20622927 0.744177401 0.29142037
vn 0.128082395 -0.492151886 0.573900521
vn 0.20622927 0.744177401 0.29142037
vn 0.386323631 0.64517343 0.10124924
vn -0.3086496 0.538002968 -0.709061325
vn -0.0764248669 0.3070364 -0.598464906
vn -0.718275428 -0.328788817 -0.285425335
vn 0.327664286 0.538784623 -0.39373669
vn 0.201042533 -0.730958164 -0.552449822
vn 0.211419046 0.488660663 -0.648856461
vn -0.383942842 0.549844742 -0.431597978
vn -0.0730384588 0.93201369 -0.293427944
vn -0.0526886098 -0.868945241 -0.261293262
vn -0.341160625 0.478010565 0.105365641
vn -0.297079325 0.200692311 -0.313776761
vn 0.054742597 0.950866163 0.0561912023
vn -0.297079325 0.200692311 -0.313776761
vn -0.341160625 0.478010565 0.105365641
vn 0.297778517 -0.722488999 -0.278668523
vn -0.0722762868 0.642243624 -0.756914258
vn -0.297079325 0.200692311 -0.313776761
vn -0.0526886098 -0.868945241 -0.261293262
vn 0.115180217 -0.689060092 -0.110611595
vn -0.062104743 0.58163774 0.444590777
vn 0.128082395 -0.492151886 0.573900521
vn 0.115180217 -0.689060092 -0.110611595
vn 0.128082395 -0.492151886 0.573900521
vn 0.0913660005 -0.303493559 0.109833084
vn -0.28914699 0.234583676 -0.358275265
vn -0.718275428 -0.328788817 -0.285425335
vn -0.297079325 0.200692311 -0.313776761
vn 0.254060745 -0.855457485 0.0118656652
vn 0.254257679 -0.831761301 -0.0339996815
vn 0.20622927 0.744177401 0.29142037
vn 0.364076406 -0.492271572 -0.446680009
vn 0.681258619 0.56320399 0.217785314
vn 0.254257679 -0.831761301 -0.0339996815
vn -0.388769597 -0.590110123 -0.29474619
vn -0.297079325 0.200692311 -0.313776761
vn -0.25003621 -0.822355509 -0.330603629
vn -0.383942842 0.549844742 -0.431597978
vn -0.520182014 0.68236661 -0.0853818804
vn -0.168291748 0.859321892 0.190495238
vn -0.130393445 0.14118804 -0.460226208
vn -0.0736026764 0.919859409 -0.247110426
vn 0.170854807 0.840786755 -0.211764544
vn 0.114129804 0.601077676 0.54852581
vn -0.061270766 0.625127494 0.709868908
vn 0.0694420636 0.90012902 0.274485111
vn -0.297079325 0.200692311 -0.313776761
vn 0.297778517 -0.722488999 -0.278668523
vn 0.0636149347 0.322253495 -0.138673156
vn 0.359194845 0.721721172 -0.447012454
vn 0.247061759 0.622027278 0.0989055932
vn 0.0900293589 0.894442022 -0.216249347
vn -0.0671319738 0.270379424 0.0553511865
vn 0.114129804 0.601077676 0.54852581
vn 0.0694420636 0.90012902 0.274485111
vn -0.00956806634 -0.954984486 -0.122669965
vn -0.00841602497 -1.00915051 -0.0629990771
vn -0.0379779488 -0.993426204 -0.0745804608
vn -0.00956806634 -0.954984486 -0.122669965
vn -0.0379779488 -0.993426204 -0.0745804608
vn 0.0796556175 -0.957545698 -0.0913947597
vn 0.0213856995 -0.981792629 -0.0849640369
vn 0.0796556175 -0.957545698 -0.0913947597
vn -0.0896171033 -0.997250736 -0.0130338417
vn -0.319195032 0.454968035 -0.621115148
vn -0.138449013 0.719344914 -0.495961785
vn -0.297079325 0.200692311 -0.313776761
vn -0.189779252 0.801044405 0.473333299
vn -0.168291748 0.859321892 0.190495238
vn 0.0913660005 -0.303493559 0.109833084
vn -0.0640554205 0.977520466 0.200874627
vn 0.0867320001 -0.794548988 0.0113743069
vn -0.645921111 0.333100647 -0.305081397
vn -0.28914699 0.234583676 -0.358275265
vn -0.0640554205 0.977520466 0.200874627
vn -0.645921111 0.333100647 -0.305081397
vn 0.82213515 0.397308022 -0.182470784
vn 0.0913660005 -0.303493559 0.109833084
vn 0.248390719 0.710235476 0.51544106
vn -0.341160625 0.478010565 0.105365641
vn -0.062104743 0.58163774 0.444590777
vn 0.297778517 -0.722488999 -0.278668523
vn -0.025306996 0.234004691 -0.867129266
vn -0.319195032 0.454968035 -0.621115148
vn -0.239981592 0.481343418 -0.855853677
vn -0.319195032 0.454968035 -0.621115148
vn -0.0764248669 0.3070364 -0.598464906
vn -0.239981592 0.481343418 -0.855853677
vn 0.248390719 0.710235476 0.51544106
vn -0.0865381882 0.999206722 0.137203828
vn -0.384615213 0.00687946612 0.774472833
vn 0.247061759 0.622027278 0.0989055932
vn 0.359194845 0.721721172 -0.447012454
vn -0.0671319738 0.270379424 0.0553511865
vn 0.0913660005 -0.303493559 0.109833084
vn -0.0865381882 0.999206722 0.137203828
vn 0.248390719 0.710235476 0.51544106
vn -0.00841602497 -1.00915051 -0.0629990771
vn 0.254257679 -0.831761301 -0.0339996815
vn -0.0379779488 -0.993426204 -0.0745804608
vn 0.0900293589 0.894442022 -0.216249347
vn 0.247061759 0.622027278 0.0989055932
vn -0.0764248669 0.3070364 -0.598464906
vn 0.82213515 0.397308022 -0.182470784
vn -0.062104743 0.58163774 0.444590777
vn 0.0913660005 -0.303493559 0.109833084
vn -0.061270766 0.625127494 0.709868908
vn 0.0913660005 -0.303493559 0.109833084
vn 0.171994999 -0.211871549 0.878322542
vn -0.0736026764 0.919859409 -0.247110426
vn -0.130393445 0.14118804 -0.460226208
vn -0.00956806634 -0.954984486 -0.122669965
vn -0.21944347 -0.859429419 -0.0925888792
vn -0.520182014 0.68236661 -0.0853818804
vn -0.383942842 0.549844742 -0.431597978
vn -0.617068291 0.746932387 0.339760572
vn -0.520182014 0.68236661 -0.0853818804
vn -0.523975432 -0.346654654 0.345781356
vn 0.0599523596 -0.913561702 0.155852303
vn -0.418480963 -0.496001989 0.435411662
vn -0.523975432 -0.346654654 0.345781356
vn 0.0700995773 -0.0554979295 0.924349129
vn 0.615679145 -0.321118921 0.829307139
vn -0.00030468608 0.9914397 0.0683591217
vn 0.211419046 0.488660663 -0.648856461
vn 0.426091224 0.753513098 -0.309090018
vn 0.386323631 0.64517343 0.10124924
vn -0.617068291 0.746932387 0.339760572
vn -0.523975432 -0.346654654 0.345781356
vn -0.418480963 -0.496001989 0.435411662
vn 0.0913660005 -0.303493559 0.109833084
vn -0.062104743 0.58163774 0.444590777
vn 0.0267574675 1.02285266 -0.0552199334
vn 0.0213856995 -0.981792629 -0.0849640369
vn -0.0736026764 0.919859409 -0.247110426
vn -0.00956806634 -0.954984486 -0.122669965
vn 0.248390719 0.710235476 0.51544106
vn -0.0641327798 0.888412058 0.217113227
vn 0.82213515 0.397308022 -0.182470784
vn 0.115180217 -0.689060092 -0.110611595
vn 0.0267574675 1.02285266 -0.0552199334
vn 0.297778517 -0.722488999 -0.278668523
vn 0.201042533 -0.730958164 -0.552449822
vn 0.327664286 0.538784623 -0.39373669
vn 0.364076406 -0.492271572 -0.446680009
vn 0.114129804 0.601077676 0.54852581
vn 0.258179218 0.452350736 0.618504882
vn -0.0393174402 0.974480271 0.15922223
vn 0.0636149347 0.322253495 -0.138673156
vn -0.0640554205 0.977520466 0.200874627
vn -0.28914699 0.234583676 -0.358275265
vn 0.364076406 -0.492271572 -0.446680009
vn 0.254257679 -0.831761301 -0.0339996815
vn -0.00841602497 -1.00915051 -0.0629990771
vn 0.211584002 0.812291145 0.0642168969
vn -0.0671319738 0.270379424 0.0553511865
vn 0.0694420636 0.90012902 0.274485111
vn 0.258179218 0.452350736 0.618504882
vn -0.0671319738 0.270379424 0.0553511865
vn 0.701871753 0.34643665 0.535921693
vn 0.327664286 0.538784623 -0.39373669
vn 0.681258619 0.56320399 0.217785314
vn 0.364076406 -0.492271572 -0.446680009
vn 0.171994999 -0.211871549 0.878322542
vn 0.211584002 0.812291145 0.0642168969
vn 0.0694420636 0.90012902 0.274485111
vn -0.00956806634 -0.954984486 -0.122669965
vn -0.130393445 0.14118804 -0.460226208
vn -0.00841602497 -1.00915051 -0.0629990771
vn 0.0267574675 1.02285266 -0.0552199334
vn 0.115180217 -0.689060092 -0.110611595
vn 0.0913660005 -0.303493559 0.109833084
vn 0.211584002 0.812291145 0.0642168969
vn 0.232991412 -0.923839808 -0.000493969768
vn 0.386323631 0.64517343 0.10124924
vn 0.426091224 0.753513098 -0.309090018
vn 0.247061759 0.622027278 0.0989055932
vn 0.211584002 0.812291145 0.0642168969
vn -0.061270766 0.625127494 0.709868908
vn -0.189779252 0.801044405 0.473333299
vn 0.0913660005 -0.303493559 0.109833084
vn 0.150849536 0.914438784 -0.260483027
vn 0.426091224 0.753513098 -0.309090018
vn 0.211419046 0.488660663 -0.648856461
vn -0.78570497 0.35789904 0.499887079
vn -0.278353363 0.84215039 -0.0151149565
vn -0.718275428 -0.328788817 -0.285425335
vn -0.130393445 0.14118804 -0.460226208
vn -0.25003621 -0.822355509 -0.330603629
vn -0.025306996 0.234004691 -0.867129266
vn 0.681258619 0.56320399 0.217785314
vn 0.386323631 0.64517343 0.10124924
vn 0.20622927 0.744177401 0.29142037
vn -0.025306996 0.234004691 -0.867129266
vn -0.239981592 0.481343418 -0.855853677
vn 0.150849536 0.914438784 -0.260483027
vn 0.297778517 -0.722488999 -0.278668523
vn 0.0267574675 1.02285266 -0.0552199334
vn 0.0636149347 0.322253495 -0.138673156
vn -0.645921111 0.333100647 -0.305081397
vn -0.486119121 0.584944487 -0.332999617
vn -0.28914699 0.234583676 -0.358275265
vn -0.0730384588 0.93201369 -0.293427944
vn -0.0722762868 0.642243624 -0.756914258
vn -0.0526886098 -0.868945241 -0.261293262
vn 0.0267574675 1.02285266 -0.0552199334
vn -0.062104743 0.58163774 0.444590777
vn -0.341160625 0.478010565 0.105365641
vn -0.384615213 0.00687946612 0.774472833
vn 0.0599523596 -0.913561702 0.155852303
vn 0.248390719 0.710235476 0.51544106
vn -0.500669777 0.679080009 0.154392153
vn -0.486119121 0.584944487 -0.332999617
vn -0.645921111 0.333100647 -0.305081397
vn -0.168291748 0.859321892 0.190495238
vn -0.617068291 0.746932387 0.339760572
vn -0.0865381882 0.999206722 0.137203828
vn 0.20622927 0.744177401 0.29142037
vn -0.00030468608 0.9914397 0.0683591217
vn 0.237987652 0.960670054 0.150098264
vn 0.0926860645 0.598303258 0.50568682
vn 0.20622927 0.744177401 0.29142037
vn 0.128082395 -0.492151886 0.573900521
vn -0.21944347 -0.859429419 -0.0925888792
vn -0.383942842 0.549844742 -0.431597978
vn -0.0526886098 -0.868945241 -0.261293262
vn 0.128082395 -0.492151886 0.573900521
vn 0.232991412 -0.923839808 -0.000493969768
vn 0.0913660005 -0.303493559 0.109833084
vn 0.128082395 -0.492151886 0.573900521
vn 0.386323631 0.64517343 0.10124924
vn 0.232991412 -0.923839808 -0.000493969768
vn 0.054742597 0.950866163 0.0561912023
vn -0.28914699 0.234583676 -0.358275265
vn -0.341160625 0.478010565 0.105365641
vn -0.177471936 0.690430105 0.244413182
vn -0.189779252 0.801044405 0.473333299
vn -0.061270766 0.625127494 0.709868908
vn -0.0526886098 -0.868945241 -0.261293262
vn -0.297079325 0.200692311 -0.313776761
vn 0.170854807 0.840786755 -0.211764544
vn 0.248390719 0.710235476 0.51544106
vn -0.0896171033 -0.997250736 -0.0130338417
vn -0.0641327798 0.888412058 0.217113227
vn -0.025306996 0.234004691 -0.867129266
vn 0.150849536 0.914438784 -0.260483027
vn 0.211419046 0.488660663 -0.648856461
vn -0.0641327798 0.888412058 0.217113227
vn 0.198605955 0.807905376 0.0790015608
vn 0.82213515 0.397308022 -0.182470784
vn 0.247061759 0.622027278 0.0989055932
vn -0.0671319738 0.270379424 0.0553511865
vn 0.211584002 0.812291145 0.0642168969
vn 0.359194845 0.721721172 -0.447012454
vn -0.0393174402 0.974480271 0.15922223
vn 0.258179218 0.452350736 0.618504882
vn -0.239981592 0.481343418 -0.855853677
vn -0.0764248669 0.3070364 -0.598464906
vn 0.150849536 0.914438784 -0.260483027
vn -0.0640554205 0.977520466 0.200874627
vn 0.0636149347 0.322253495 -0.138673156
vn -0.341160625 0.478010565 0.105365641
vn -0.341160625 0.478010565 0.105365641
vn 0.0867320001 -0.794548988 0.0113743069
vn -0.0640554205 0.977520466 0.200874627
vn 0.054742597 0.950866163 0.0561912023
vn 0.499187827 0.866459429 -0.0077232793
vn -0.383942842 0.549844742 -0.431597978
vn 0.359194845 0.721721172 -0.447012454
vn 0.701871753 0.34643665 0.535921693
vn -0.0671319738 0.270379424 0.0553511865
vn -0.418480963 -0.496001989 0.435411662
vn -0.384615213 0.00687946612 0.774472833
vn -0.617068291 0.746932387 0.339760572
vn -0.168291748 0.859321892 0.190495238
vn -0.500669777 0.679080009 0.154392153
vn -0.645921111 0.333100647 -0.305081397
vn -0.0764248669 0.3070364 -0.598464906
vn -0.3086496 0.538002968 -0.709061325
vn 0.0900293589 0.894442022 -0.216249347
vn -0.177471936 0.690430105 0.244413182
vn -0.0393174402 0.974480271 0.15922223
vn -0.78570497 0.35789904 0.499887079
vn 0.615679145 -0.321118921 0.829307139
vn 0.237987652 0.960670054 0.150098264
vn -0.00030468608 0.9914397 0.0683591217
vn 0.0900293589 0.894442022 -0.216249347
vn -0.3086496 0.538002968 -0.709061325
vn -0.278353363 0.84215039 -0.0151149565
vn 0.426091224 0.753513098 -0.309090018
vn 0.150849536 0.914438784 -0.260483027
vn 0.247061759 0.622027278 0.0989055932
vn -0.718275428 -0.328788817 -0.285425335
vn -0.278353363 0.84215039 -0.0151149565
vn -0.3086496 0.538002968 -0.709061325
vn -0.0393174402 0.974480271 0.15922223
vn -0.177471936 0.690430105 0.244413182
vn 0.114129804 0.601077676 0.54852581
vn 0.408859909 0.0695427507 0.916013479
vn 0.615679145 -0.321118921 0.829307139
vn 0.0700995773 -0.0554979295 0.924349129
vn -0.297079325 0.200692311 -0.313776761
vn -0.0764248669 0.3070364 -0.598464906
vn -0.319195032 0.454968035 -0.621115148
vn 0.254060745 -0.855457485 0.0118656652
vn 0.20622927 0.744177401 0.29142037
vn 0.237987652 0.960670054 0.150098264
vn -0.28914699 0.234583676 -0.358275265
vn -0.486119121 0.584944487 -0.332999617
vn -0.718275428 -0.328788817 -0.285425335
vn -0.388769597 -0.590110123 -0.29474619
vn 0.256045163 0.0206302609 -0.0576311834
vn 0.170854807 0.840786755 -0.211764544
vn 0.269333065 -0.327463001 0.905664206
vn 0.141122386 -0.848748505 0.509617984
vn 0.234920904 -0.82948792 0.506716907
vn 0.141122386 -0.848748505 0.509617984
vn -0.0896171033 -0.997250736 -0.0130338417
vn 0.234920904 -0.82948792 0.506716907
vn -0.0896171033 -0.997250736 -0.0130338417
vn 0.408859909 0.0695427507 0.916013479
vn 0.234920904 -0.82948792 0.506716907
vn -0.0848051757 -0.394499838 0.914974391
vn 0.234920904 -0.82948792 0.506716907
vn 0.408859909 0.0695427507 0.916013479
vn 0.0796556175 -0.957545698 -0.0913947597
vn 0.0213856995 -0.981792629 -0.0849640369
vn -0.00956806634 -0.954984486 -0.122669965
vn 0.170854807 0.840786755 -0.211764544
vn 0.0213856995 -0.981792629 -0.0849640369
vn -0.0526886098 -0.868945241 -0.261293262
vn -0.341160625 0.478010565 0.105365641
vn -0.28914699 0.234583676 -0.358275265
vn 0.0867320001 -0.794548988 0.0113743069
vn -0.062104743 0.58163774 0.444590777
vn 0.82213515 0.397308022 -0.182470784
vn 0.198605955 0.807905376 0.0790015608
vn 0.681258619 0.56320399 0.217785314
vn 0.20622927 0.744177401 0.29142037
vn 0.254257679 -0.831761301 -0.0339996815
vn 0.248390719 0.710235476 0.51544106
vn 0.0599523596 -0.913561702 0.155852303
vn -0.0896171033 -0.997250736 -0.0130338417
vn 0.054742597 0.950866163 0.0561912023
vn -0.383942842 0.549844742 -0.431597978
vn -0.28914699 0.234583676 -0.358275265
vn -0.00030468608 0.9914397 0.0683591217
vn -0.0641327798 0.888412058 0.217113227
vn 0.0700995773 -0.0554979295 0.924349129
vn -0.28914699 0.234583676 -0.358275265
vn -0.297079325 0.200692311 -0.313776761
vn 0.0867320001 -0.794548988 0.0113743069
vn 0.386323631 0.64517343 0.10124924
vn 0.426091224 0.753513098 -0.309090018
vn 0.211584002 0.812291145 0.0642168969
vn 0.0926860645 0.598303258 0.50568682
vn 0.128082395 -0.492151886 0.573900521
vn 0.198605955 0.807905376 0.0790015608
vn -0.645921111 0.333100647 -0.305081397
vn 0.0867320001 -0.794548988 0.0113743069
vn 0.0636149347 0.322253495 -0.138673156
g Group51289
f 8/1/1 2/2/2 1/3/3
f 6/4/4 4/5/5 1/6/6
f 6/7/7 1/8/8 2/9/9
f 4/10/10 7/11/11 1/12/12
f 3/13/13 2/14/14 8/15/15
f 1/16/16 3/17/17 5/18/18
f 7/19/19 4/20/20 6/21/21
f 2/22/22 5/23/23 6/24/24
f 3/25/25 8/26/26 5/27/27
f 8/28/28 6/29/29 5/30/30
f 4/31/31 8/32/32 10/33/33
f 9/34/34 7/35/35 11/36/36
f 14/37/37 9/38/38 11/39/39
f 6/40/40 10/41/41 7/42/42
f 7/43/43 96/44/44 1/45/45
f 14/46/46 7/47/47 9/48/48
f 8/49/49 12/50/50 10/51/51
f 12/52/52 7/53/53 10/54/54
f 12/55/55 11/56/56 7/57/57
f 9/58/58 12/59/59 13/60/60
f 11/61/61 13/62/62 14/63/63
f 96/64/64 7/65/65 14/66/66
f 12/67/67 8/68/68 13/69/69
f 13/70/70 8/71/71 14/72/72
f 14/73/73 8/74/74 15/75/75
f 96/76/76 14/77/77 15/78/78
f 8/79/79 107/80/80 15/81/81
f 96/82/82 8/83/83 17/84/84
f 97/85/85 96/86/86 17/87/87
f 8/88/88 18/89/89 17/90/90
f 96/91/91 18/92/92 19/93/93
f 17/94/94 19/95/95 97/96/96
f 18/97/97 8/98/98 19/99/99
f 8/100/100 97/101/101 19/102/102
f 24/103/103 102/104/104 22/105/105
f 91/106/106 54/107/107 98/108/108
f 26/109/109 40/110/110 103/111/111
f 25/112/112 27/113/113 20/114/114
f 24/115/115 85/116/116 75/117/117
f 33/118/118 24/119/119 30/120/120
f 29/121/121 100/122/122 44/123/123
f 31/124/124 32/125/125 29/126/126
f 101/127/127 33/128/128 29/129/129
f 35/130/130 34/131/131 33/132/132
f 35/133/133 33/134/134 37/135/135
f 36/136/136 35/137/137 37/138/138
f 36/139/139 37/140/140 38/141/141
f 32/142/142 36/143/143 38/144/144
f 34/145/145 35/146/146 37/147/147
f 34/148/148 37/149/149 39/150/150
f 35/151/151 36/152/152 38/153/153
f 35/154/154 38/155/155 37/156/156
f 36/157/157 32/158/158 39/159/159
f 36/160/160 39/161/161 38/162/162
f 39/163/163 37/164/164 38/165/165
f 68/166/166 48/167/167 64/168/168
f 74/169/169 32/170/170 59/171/171
f 8/172/172 41/173/173 97/174/174
f 8/175/175 51/176/176 41/177/177
f 67/178/178 99/179/179 61/180/180
f 62/181/181 43/182/182 46/183/183
f 32/184/184 63/185/185 48/186/186
f 50/187/187 70/188/188 88/189/189
f 20/190/190 104/191/191 8/192/192
f 72/193/193 8/194/194 1/195/195
f 51/196/196 58/197/197 41/198/198
f 71/199/199 46/200/200 74/201/201
f 71/202/202 42/203/203 46/204/204
f 42/205/205 32/206/206 79/207/207
f 57/208/208 104/209/209 20/210/210
f 55/211/211 95/212/212 45/213/213
f 104/214/214 74/215/215 87/216/216
f 77/217/217 28/218/218 24/219/219
f 59/220/220 42/221/221 71/222/222
f 53/223/223 49/224/224 80/225/225
f 98/226/226 54/227/227 72/228/228
f 75/229/229 90/230/230 102/231/231
f 79/232/232 62/233/233 42/234/234
f 81/235/235 105/236/236 52/237/237
f 84/238/238 40/239/239 54/240/240
f 62/241/241 79/242/242 82/243/243
f 46/244/244 67/245/245 61/246/246
f 27/247/247 57/248/248 20/249/249
f 22/250/250 70/251/251 50/252/252
f 55/253/253 65/254/254 95/255/255
f 23/256/256 51/257/257 8/258/258
f 92/259/259 28/260/260 81/261/261
f 46/262/262 43/263/263 67/264/264
f 29/265/265 33/266/266 30/267/267
f 41/268/268 21/269/269 97/270/270
f 49/271/271 53/272/272 43/273/273
f 63/274/274 92/275/275 81/276/276
f 81/277/277 65/278/278 63/279/279
f 28/280/280 77/281/281 81/282/282
f 93/283/283 78/284/284 86/285/285
f 83/286/286 78/287/287 52/288/288
f 93/289/289 45/290/290 95/291/291
f 105/292/292 50/293/293 73/294/294
f 20/295/295 90/296/296 60/297/297
f 91/298/298 98/299/299 47/300/300
f 84/301/301 47/302/302 49/303/303
f 76/304/304 48/305/305 63/306/306
f 53/307/307 67/308/308 43/309/309
f 33/310/310 34/311/311 57/312/312
f 44/313/313 32/314/314 38/315/315
f 32/316/316 44/317/317 26/318/318
f 39/319/319 32/320/320 57/321/321
f 103/322/322 40/323/323 84/324/324
f 103/325/325 84/326/326 22/327/327
f 101/328/328 63/329/329 32/330/330
f 41/331/331 58/332/332 47/333/333
f 99/334/334 80/335/335 58/336/336
f 59/337/337 32/338/338 42/339/339
f 33/340/340 85/341/341 24/342/342
f 46/343/343 87/344/344 74/345/345
f 52/346/346 105/347/347 73/348/348
f 32/349/349 26/350/350 29/351/351
f 93/352/352 64/353/353 45/354/354
f 83/355/355 52/356/356 73/357/357
f 69/358/358 61/359/359 51/360/360
f 69/361/361 51/362/362 23/363/363
f 104/364/364 23/365/365 8/366/366
f 82/367/367 79/368/368 32/369/369
f 77/370/370 24/371/371 22/372/372
f 106/373/373 31/374/374 30/375/375
f 101/376/376 106/377/377 30/378/378
f 89/379/379 22/380/380 66/381/381
f 44/382/382 40/383/383 26/384/384
f 62/385/385 82/386/386 94/387/387
f 82/388/388 48/389/389 94/390/390
f 66/391/391 102/392/392 90/393/393
f 64/394/394 93/395/395 83/396/396
f 22/397/397 102/398/398 66/399/399
f 61/400/400 58/401/401 51/402/402
f 45/403/403 64/404/404 48/405/405
f 89/406/406 40/407/407 22/408/408
f 105/409/409 22/410/410 50/411/411
f 87/412/412 46/413/413 69/414/414
f 27/415/415 85/416/416 33/417/417
f 75/418/418 85/419/419 25/420/420
f 20/421/421 60/422/422 25/423/423
f 1/424/424 97/425/425 98/426/426
f 43/427/427 56/428/428 49/429/429
f 75/430/430 25/431/431 60/432/432
f 22/433/433 40/434/434 100/435/435
f 104/436/436 87/437/437 69/438/438
f 66/439/439 72/440/440 89/441/441
f 103/442/442 100/443/443 26/444/444
f 67/445/445 53/446/446 99/447/447
f 52/448/448 78/449/449 95/450/450
f 29/451/451 106/452/452 101/453/453
f 99/454/454 58/455/455 61/456/456
f 88/457/457 83/458/458 73/459/459
f 78/460/460 83/461/461 86/462/462
f 53/463/463 80/464/464 99/465/465
f 50/466/466 88/467/467 73/468/468
f 69/469/469 46/470/470 61/471/471
f 100/472/472 103/473/473 22/474/474
f 88/475/475 70/476/476 49/477/477
f 56/478/478 64/479/479 88/480/480
f 105/481/481 77/482/482 22/483/483
f 68/484/484 56/485/485 43/486/486
f 65/487/487 55/488/488 63/489/489
f 46/490/490 42/491/491 62/492/492
f 80/493/493 49/494/494 47/495/495
f 62/496/496 94/497/497 68/498/498
f 26/499/499 100/500/500 29/501/501
f 30/502/502 92/503/503 101/504/504
f 34/505/505 39/506/506 57/507/507
f 100/508/508 40/509/509 44/510/510
f 90/511/511 20/512/512 66/513/513
f 28/514/514 92/515/515 30/516/516
f 24/517/517 75/518/518 102/519/519
f 47/520/520 98/521/521 21/522/522
f 91/523/523 47/524/524 84/525/525
f 27/526/526 33/527/527 57/528/528
f 84/529/529 70/530/530 22/531/531
f 84/532/532 49/533/533 70/534/534
f 38/535/535 101/536/536 44/537/537
f 81/538/538 77/539/539 105/540/540
f 57/541/541 32/542/542 74/543/543
f 66/544/544 8/545/545 72/546/546
f 62/547/547 68/548/548 43/549/549
f 72/550/550 54/551/551 89/552/552
f 64/553/553 83/554/554 88/555/555
f 93/556/556 95/557/557 78/558/558
f 94/559/559 48/560/560 68/561/561
f 106/562/562 29/563/563 44/564/564
f 44/565/565 31/566/566 106/567/567
f 38/568/568 37/569/569 33/570/570
f 93/571/571 86/572/572 83/573/573
f 60/574/574 90/575/575 75/576/576
f 24/577/577 28/578/578 30/579/579
f 48/580/580 76/581/581 45/582/582
f 81/583/583 95/584/584 65/585/585
f 97/586/586 21/587/587 98/588/588
f 45/589/589 76/590/590 55/591/591
f 56/592/592 68/593/593 64/594/594
f 63/595/595 55/596/596 76/597/597
f 95/598/598 81/599/599 52/600/600
f 96/601/601 97/602/602 1/603/603
f 32/604/604 48/605/605 82/606/606
f 41/607/607 47/608/608 21/609/609
f 101/610/610 92/611/611 63/612/612
f 59/613/613 71/614/614 74/615/615
f 14/616/616 107/617/617 16/618/618
f 107/619/619 8/620/620 16/621/621
f 8/622/622 96/623/623 16/624/624
f 15/625/625 16/626/626 96/627/627
f 23/628/628 104/629/629 69/630/630
f 74/631/631 104/632/632 57/633/633
f 44/634/634 101/635/635 31/636/636
f 40/637/637 89/638/638 54/639/639
f 80/640/640 47/641/641 58/642/642
f 66/643/643 20/644/644 8/645/645
f 38/646/646 33/647/647 101/648/648
f 98/649/649 72/650/650 1/651/651
f 101/652/652 32/653/653 31/654/654
f 49/655/655 56/656/656 88/657/657
f 91/658/658 84/659/659 54/660/660
f 30/661/661 31/662/662 29/663/663
