# File exported by Houdini 16.5.405 (www.sidefx.com)
# 81 points
# 474 vertices
# 158 primitives
# Bounds: [-33.7352257, -1.31244636, -21.9489822] to [33.7098503, 41.7260094, 21.9344864]
g 
v -33.2290039 -0.739032865 19.5952702
v 33.221756 18.0099201 -21.1501141
v 5.90715408 41.1559372 -21.5147324
v -23.9256687 1.10717988 -21.8894157
v 33.7098503 -0.731238008 -16.8599606
v 20.7306652 2.1903863 -21.6259327
v -31.9704189 40.7297592 1.64099205
v 33.4212685 23.8035927 20.5773182
v 31.9421654 41.0760193 -6.38594294
v 13.4339123 -1.31244636 21.7971535
v 1.72227764 -0.96407634 -17.6048679
v 0.449123085 41.3790627 4.97732449
v -30.5427361 32.7405205 -20.9452457
v 3.87343502 1.82798254 -21.8422947
v 12.7702618 40.1849022 20.8012676
v -33.4601822 13.6197166 -1.15825343
v 33.0543671 19.1818466 20.918726
v 31.8868237 37.9635391 19.2090931
v -27.5463161 40.9990425 -19.2608871
v 31.3154964 40.4805222 15.6381636
v -32.8276558 2.70395255 -19.258812
v 32.733078 38.686203 10.5432816
v 2.17356133 21.2970867 21.6942825
v 25.0448189 40.0690498 -21.9489822
v -32.9262505 3.93604064 21.1807556
v 32.7454338 35.3229103 -2.76391816
v -5.55452013 39.3611946 19.8573666
v -31.3869686 1.82694042 -21.7986565
v 32.4658012 37.3684921 -18.4008923
v -33.1751175 0.716216922 -11.2532063
v 32.2204552 -0.0437804163 17.3930969
v -21.3405457 39.6413574 21.0112953
v 32.1063919 1.24537301 -19.9131508
v -21.467741 40.5814056 -20.7102909
v -18.0483437 6.27612495 21.9344864
v -33.7352257 27.7331848 21.4784565
v 30.5319424 4.03126717 -21.4279881
v 21.7776394 40.023735 20.3757935
v -23.3138313 25.5381947 21.6495247
v -33.5798912 18.1859913 15.7398911
v 32.3957443 35.303009 21.3387871
v -31.384882 22.3327847 -21.8838539
v -30.0619049 41.2220764 -14.2841911
v -32.8854065 22.0284901 20.5415249
v 29.5551872 41.0886345 -20.8196697
v 0.219697297 39.8970337 20.1502533
v -29.1002808 40.0192413 -18.8763237
v -7.18426704 38.0965424 21.1327686
v 31.690855 39.7980042 -12.2966127
v 33.6401939 0.382647455 -18.782526
v -33.0693855 39.6940002 17.5660019
v -30.0382767 9.24108887 21.5458736
v -13.1038427 37.5226669 -21.8770733
v 14.8897085 -1.24731898 -5.40718508
v 19.3774223 37.9801788 21.3696671
v 22.4173546 -0.889837861 21.4103184
v -20.9927101 0.0866309032 -19.9274082
v 30.7963428 40.5499916 0.997817457
v 3.06882501 41.7260094 -19.7399616
v 33.4439087 -0.837193966 11.6066217
v -27.1281738 38.4586945 21.3884315
v 32.2350006 27.6433811 -21.3719406
v -2.03283525 -1.2078284 21.849659
v 31.3061504 39.6392326 5.75131273
v 23.7092781 13.0077515 21.7120647
v -33.4613647 35.9245491 20.3339138
v 30.5281963 4.13140678 21.0162487
v -31.2064247 25.8470726 -21.053915
v 32.1302643 34.4285011 -20.9556999
v 23.1139278 1.17666817 -20.2181301
v 25.1666718 41.0030594 5.44587994
v 12.714488 38.7926521 -21.8770638
v -5.24837685 39.8529701 -21.2709217
v -13.3869743 39.2085342 21.2554035
v -19.7414112 -1.06273818 21.8127918
v 18.6087227 41.5290222 -20.7472878
v -32.9990616 0.0484657288 -0.479197979
v -7.42860079 41.2827263 -20.5080395
v -9.99037457 40.3814926 17.8608418
v -31.9128952 -0.276968032 0.991302133
v 11.1062098 1.71304321 -21.3936691
vt 0.677358568 0.0190573949 0
vt 0.480055511 0.124189101 0
vt 0.492671251 0.0238049049 0
vt 0.265074164 0.61070478 0
vt 0.464194328 0.600481272 0
vt 0.209309191 0.785380244 0
vt 0.484534591 0.35047695 0
vt 0.574344099 0.328955561 0
vt 0.698286474 0.443535835 0
vt 0.37713477 0.860076606 0
vt 0.283313781 0.886983752 0
vt 0.501219928 0.73166132 0
vt 0.135268316 0.196868047 0
vt 0.00592843629 0.281052381 0
vt 0.141471997 0.00445412658 0
vt 0.486848116 0.868657589 0
vt 0.508191705 0.898035169 0
vt 0.446289361 0.88999778 0
vt 0.215045989 0.316426992 0
vt 0.00592843629 0.281052381 0
vt 0.22882852 0.280508518 0
vt 0.465456098 0.461327851 0
vt 0.213251784 0.325212151 0
vt 0.463618994 0.317426801 0
vt 0.283313781 0.886983752 0
vt 0.206958175 0.86633575 0
vt 0.209309191 0.785380244 0
vt 0.494062692 0.278615892 0
vt 0.487340182 0.210079491 0
vt 0.531582654 0.204694495 0
vt 0.221857801 0.885484219 0
vt 0.283313781 0.886983752 0
vt 0.24764201 0.903334439 0
vt 0.878221214 0.411024123 0
vt 0.927792072 0.526712418 0
vt 0.842949092 0.548472643 0
vt 0.948796391 0.735626221 0
vt 0.969323695 0.599712968 0
vt 0.982142389 0.630921483 0
vt 0.463618994 0.317426801 0
vt 0.213251784 0.325212151 0
vt 0.409858286 0.314055085 0
vt 0.37713477 0.860076606 0
vt 0.501219928 0.73166132 0
vt 0.486848116 0.868657589 0
vt 0.251399785 0.00269021722 0
vt 0.135268316 0.196868047 0
vt 0.141471997 0.00445412658 0
vt 0.141471997 0.00445412658 0
vt 0.00592843629 0.281052381 0
vt 0.000212552128 0.0799271092 0
vt 0.807096839 0.315518439 0
vt 0.878221214 0.411024123 0
vt 0.698286474 0.443535835 0
vt 0.164295524 0.314172149 0
vt 0.0969711542 0.318323821 0
vt 0.0801760554 0.306452781 0
vt 0.878221214 0.411024123 0
vt 0.842949092 0.548472643 0
vt 0.698286474 0.443535835 0
vt 0.215045989 0.316426992 0
vt 0.0801760554 0.306452781 0
vt 0.00592843629 0.281052381 0
vt 0.494062692 0.278615892 0
vt 0.624118447 0.308258712 0
vt 0.560729682 0.308241665 0
vt 0.574344099 0.328955561 0
vt 0.484881252 0.327200919 0
vt 0.556897998 0.314871818 0
vt 0.157811627 0.588249505 0
vt 0.213251784 0.325212151 0
vt 0.465456098 0.461327851 0
vt 0.340161592 0.572901189 0
vt 0.206883848 0.603590846 0
vt 0.157811627 0.588249505 0
vt 0.754316688 0.620907903 0
vt 0.828291118 0.611622334 0
vt 0.969323695 0.599712968 0
vt 0.265074164 0.61070478 0
vt 0.209309191 0.785380244 0
vt 0.223501369 0.616759837 0
vt 0.209309191 0.785380244 0
vt 0.205435529 0.753462613 0
vt 0.223501369 0.616759837 0
vt 0.464194328 0.600481272 0
vt 0.501219928 0.73166132 0
vt 0.209309191 0.785380244 0
vt 0.568432808 0.0192926526 0
vt 0.677358568 0.0190573949 0
vt 0.492671251 0.0238049049 0
vt 0.492671251 0.0238049049 0
vt 0.522193968 0.010878263 0
vt 0.568432808 0.0192926526 0
vt 0.466107488 0.48666659 0
vt 0.462366194 0.534854174 0
vt 0.465456098 0.461327851 0
vt 0.0693004802 0.598517478 0
vt 0.157811627 0.588249505 0
vt 0.115617856 0.610346854 0
vt 0.0693004802 0.598517478 0
vt 0.0184790585 0.559004724 0
vt 0.0176786669 0.511119902 0
vt 0.827660918 0.706738412 0
vt 0.754316688 0.620907903 0
vt 0.969323695 0.599712968 0
vt 0.809432387 0.303566098 0
vt 0.753319681 0.297732741 0
vt 0.71237129 0.300050825 0
vt 0.476260841 0.0821871459 0
vt 0.492671251 0.0238049049 0
vt 0.480055511 0.124189101 0
vt 0.462366194 0.534854174 0
vt 0.400427878 0.593141735 0
vt 0.465456098 0.461327851 0
vt 0.00592843629 0.281052381 0
vt 0.0177971851 0.305208117 0
vt 0.00716309668 0.294871807 0
vt 0.501219928 0.73166132 0
vt 0.478260577 0.607171476 0
vt 0.490736902 0.61198014 0
vt 0.96431303 0.891380191 0
vt 0.849062562 0.899876714 0
vt 0.983916938 0.863964379 0
vt 0.705366552 0.192354158 0
vt 0.783809423 0.280065566 0
vt 0.624118447 0.308258712 0
vt 0.22882852 0.280508518 0
vt 0.00592843629 0.281052381 0
vt 0.135268316 0.196868047 0
vt 0.933137238 0.156924471 0
vt 0.894016504 0.0109993462 0
vt 0.913328767 0.0451722816 0
vt 0.484534591 0.35047695 0
vt 0.484881252 0.327200919 0
vt 0.574344099 0.328955561 0
vt 0.656767428 0.00758309895 0
vt 0.735902369 0.000528824807 0
vt 0.677358568 0.0190573949 0
vt 0.485253483 0.603582442 0
vt 0.502380908 0.567483068 0
vt 0.559582949 0.600921154 0
vt 0.462017298 0.309595227 0
vt 0.409299046 0.309961855 0
vt 0.473761529 0.234176949 0
vt 0.000212552128 0.0799271092 0
vt 0.00759761408 0.0379515998 0
vt 0.0775512606 0.0082373945 0
vt 0.0176786669 0.511119902 0
vt 0.00993226748 0.442936897 0
vt 0.0292239115 0.347140491 0
vt 0.855618 0.600387931 0
vt 0.927792072 0.526712418 0
vt 0.94846791 0.564138353 0
vt 0.340161592 0.572901189 0
vt 0.157811627 0.588249505 0
vt 0.465456098 0.461327851 0
vt 0.481642962 0.462841898 0
vt 0.484534591 0.35047695 0
vt 0.548328936 0.504731953 0
vt 0.0959030539 0.332367182 0
vt 0.0292239115 0.347140491 0
vt 0.0786739215 0.322562575 0
vt 0.0959030539 0.332367182 0
vt 0.0176786669 0.511119902 0
vt 0.0292239115 0.347140491 0
vt 0.0693004802 0.598517478 0
vt 0.0365271717 0.605832219 0
vt 0.0184790585 0.559004724 0
vt 0.0292239115 0.347140491 0
vt 0.0161488149 0.327286452 0
vt 0.0786739215 0.322562575 0
vt 0.0801760554 0.306452781 0
vt 0.0177971851 0.305208117 0
vt 0.00592843629 0.281052381 0
vt 0.71237129 0.300050825 0
vt 0.783809423 0.280065566 0
vt 0.809432387 0.303566098 0
vt 0.352194279 0.90140909 0
vt 0.317942977 0.895764709 0
vt 0.37713477 0.860076606 0
vt 0.37713477 0.860076606 0
vt 0.317942977 0.895764709 0
vt 0.283313781 0.886983752 0
vt 0.115617856 0.610346854 0
vt 0.157811627 0.588249505 0
vt 0.206883848 0.603590846 0
vt 0.568432808 0.0192926526 0
vt 0.656767428 0.00758309895 0
vt 0.677358568 0.0190573949 0
vt 0.849062562 0.899876714 0
vt 0.688209355 0.793066263 0
vt 0.827660918 0.706738412 0
vt 0.951213479 0.392919481 0
vt 0.947741866 0.434475452 0
vt 0.878221214 0.411024123 0
vt 0.704191029 0.635489523 0
vt 0.685834944 0.629200518 0
vt 0.754316688 0.620907903 0
vt 0.902857602 0.319934636 0
vt 0.948316157 0.33514446 0
vt 0.951213479 0.392919481 0
vt 0.285435706 0.592347205 0
vt 0.206883848 0.603590846 0
vt 0.340161592 0.572901189 0
vt 0.902857602 0.319934636 0
vt 0.807096839 0.315518439 0
vt 0.862769783 0.311634541 0
vt 0.906327426 0.0123329228 0
vt 0.913328767 0.0451722816 0
vt 0.894016504 0.0109993462 0
vt 0.22882852 0.280508518 0
vt 0.251399785 0.00269021722 0
vt 0.377239376 0.00113541982 0
vt 0.462366194 0.534854174 0
vt 0.445488125 0.596330643 0
vt 0.400427878 0.593141735 0
vt 0.560729682 0.308241665 0
vt 0.488232255 0.307775497 0
vt 0.494062692 0.278615892 0
vt 0.486848116 0.868657589 0
vt 0.405188292 0.899181068 0
vt 0.37713477 0.860076606 0
vt 0.991777301 0.805077493 0
vt 0.948796391 0.735626221 0
vt 0.98577708 0.762685716 0
vt 0.98577708 0.762685716 0
vt 0.948796391 0.735626221 0
vt 0.982142389 0.630921483 0
vt 0.807096839 0.315518439 0
vt 0.902857602 0.319934636 0
vt 0.878221214 0.411024123 0
vt 0.907545328 0.300516903 0
vt 0.865592182 0.298035115 0
vt 0.946967065 0.269131064 0
vt 0.842949092 0.548472643 0
vt 0.927792072 0.526712418 0
vt 0.855618 0.600387931 0
vt 0.734283566 0.902727842 0
vt 0.687982082 0.841754854 0
vt 0.688209355 0.793066263 0
vt 0.506378889 0.799689293 0
vt 0.504056513 0.847664773 0
vt 0.486848116 0.868657589 0
vt 0.504056513 0.847664773 0
vt 0.508191705 0.898035169 0
vt 0.486848116 0.868657589 0
vt 0.141471997 0.00445412658 0
vt 0.000212552128 0.0799271092 0
vt 0.0775512606 0.0082373945 0
vt 0.765500247 0.309628248 0
vt 0.753319681 0.297732741 0
vt 0.809432387 0.303566098 0
vt 0.983916938 0.863964379 0
vt 0.827660918 0.706738412 0
vt 0.948796391 0.735626221 0
vt 0.223501369 0.616759837 0
vt 0.205435529 0.753462613 0
vt 0.195691228 0.645982683 0
vt 0.991777301 0.805077493 0
vt 0.983916938 0.863964379 0
vt 0.948796391 0.735626221 0
vt 0.213251784 0.325212151 0
vt 0.0176786669 0.511119902 0
vt 0.0959030539 0.332367182 0
vt 0.704191029 0.635489523 0
vt 0.684229553 0.767746389 0
vt 0.685834944 0.629200518 0
vt 0.62165004 0.603305757 0
vt 0.502380908 0.567483068 0
vt 0.548328936 0.504731953 0
vt 0.481642962 0.462841898 0
vt 0.548328936 0.504731953 0
vt 0.502380908 0.567483068 0
vt 0.251399785 0.00269021722 0
vt 0.22882852 0.280508518 0
vt 0.135268316 0.196868047 0
vt 0.751122475 0.311070263 0
vt 0.762974262 0.323168308 0
vt 0.709369898 0.310056835 0
vt 0.574344099 0.328955561 0
vt 0.762974262 0.323168308 0
vt 0.698286474 0.443535835 0
vt 0.480055511 0.124189101 0
vt 0.531582654 0.204694495 0
vt 0.490083456 0.175321847 0
vt 0.709369898 0.310056835 0
vt 0.574344099 0.328955561 0
vt 0.620338619 0.31175521 0
vt 0.472885996 0.0172689594 0
vt 0.22882852 0.280508518 0
vt 0.377239376 0.00113541982 0
vt 0.902857602 0.319934636 0
vt 0.951213479 0.392919481 0
vt 0.878221214 0.411024123 0
vt 0.490083456 0.175321847 0
vt 0.531582654 0.204694495 0
vt 0.487340182 0.210079491 0
vt 0.677358568 0.0190573949 0
vt 0.705366552 0.192354158 0
vt 0.480055511 0.124189101 0
vt 0.409299046 0.309961855 0
vt 0.388277233 0.295261741 0
vt 0.473761529 0.234176949 0
vt 0.388277233 0.295261741 0
vt 0.463268131 0.148200169 0
vt 0.473761529 0.234176949 0
vt 0.809432387 0.303566098 0
vt 0.783809423 0.280065566 0
vt 0.865592182 0.298035115 0
vt 0.902857602 0.319934636 0
vt 0.94997251 0.301688224 0
vt 0.948316157 0.33514446 0
vt 0.624118447 0.308258712 0
vt 0.783809423 0.280065566 0
vt 0.71237129 0.300050825 0
vt 0.574344099 0.328955561 0
vt 0.709369898 0.310056835 0
vt 0.762974262 0.323168308 0
vt 0.400427878 0.593141735 0
vt 0.340161592 0.572901189 0
vt 0.465456098 0.461327851 0
vt 0.388277233 0.295261741 0
vt 0.22882852 0.280508518 0
vt 0.463268131 0.148200169 0
vt 0.405188292 0.899181068 0
vt 0.486848116 0.868657589 0
vt 0.446289361 0.88999778 0
vt 0.948796391 0.735626221 0
vt 0.827660918 0.706738412 0
vt 0.969323695 0.599712968 0
vt 0.983916938 0.863964379 0
vt 0.849062562 0.899876714 0
vt 0.827660918 0.706738412 0
vt 0.478260577 0.607171476 0
vt 0.501219928 0.73166132 0
vt 0.464194328 0.600481272 0
vt 0.933137238 0.156924471 0
vt 0.946967065 0.269131064 0
vt 0.705366552 0.192354158 0
vt 0.502380908 0.567483068 0
vt 0.62165004 0.603305757 0
vt 0.559582949 0.600921154 0
vt 0.762974262 0.323168308 0
vt 0.807096839 0.315518439 0
vt 0.698286474 0.443535835 0
vt 0.213251784 0.325212151 0
vt 0.157811627 0.588249505 0
vt 0.0176786669 0.511119902 0
vt 0.62165004 0.603305757 0
vt 0.842949092 0.548472643 0
vt 0.729989886 0.602003217 0
vt 0.0161488149 0.327286452 0
vt 0.0292239115 0.347140491 0
vt 0.00993226748 0.442936897 0
vt 0.894016504 0.0109993462 0
vt 0.705366552 0.192354158 0
vt 0.677358568 0.0190573949 0
vt 0.705366552 0.192354158 0
vt 0.894016504 0.0109993462 0
vt 0.933137238 0.156924471 0
vt 0.574344099 0.328955561 0
vt 0.556897998 0.314871818 0
vt 0.620338619 0.31175521 0
vt 0.705366552 0.192354158 0
vt 0.946967065 0.269131064 0
vt 0.783809423 0.280065566 0
vt 0.946967065 0.269131064 0
vt 0.865592182 0.298035115 0
vt 0.783809423 0.280065566 0
vt 0.735902369 0.000528824807 0
vt 0.751591802 0.00988433696 0
vt 0.677358568 0.0190573949 0
vt 0.827660918 0.706738412 0
vt 0.704191029 0.635489523 0
vt 0.754316688 0.620907903 0
vt 0.842949092 0.548472643 0
vt 0.855618 0.600387931 0
vt 0.729989886 0.602003217 0
vt 0.688209355 0.793066263 0
vt 0.684229553 0.767746389 0
vt 0.704191029 0.635489523 0
vt 0.548328936 0.504731953 0
vt 0.698286474 0.443535835 0
vt 0.62165004 0.603305757 0
vt 0.698286474 0.443535835 0
vt 0.842949092 0.548472643 0
vt 0.62165004 0.603305757 0
vt 0.94846791 0.564138353 0
vt 0.952450156 0.598716199 0
vt 0.855618 0.600387931 0
vt 0.340161592 0.572901189 0
vt 0.400427878 0.593141735 0
vt 0.301671028 0.602764368 0
vt 0.827660918 0.706738412 0
vt 0.688209355 0.793066263 0
vt 0.704191029 0.635489523 0
vt 0.501219928 0.73166132 0
vt 0.283313781 0.886983752 0
vt 0.209309191 0.785380244 0
vt 0.157811627 0.588249505 0
vt 0.0693004802 0.598517478 0
vt 0.0176786669 0.511119902 0
vt 0.947741866 0.434475452 0
vt 0.94846791 0.564138353 0
vt 0.927792072 0.526712418 0
vt 0.687982082 0.841754854 0
vt 0.701291144 0.894424736 0
vt 0.693356156 0.905043781 0
vt 0.878221214 0.411024123 0
vt 0.947741866 0.434475452 0
vt 0.927792072 0.526712418 0
vt 0.484534591 0.35047695 0
vt 0.481642962 0.462841898 0
vt 0.478290856 0.430546075 0
vt 0.405188292 0.899181068 0
vt 0.352194279 0.90140909 0
vt 0.37713477 0.860076606 0
vt 0.47732535 0.244534954 0
vt 0.487340182 0.210079491 0
vt 0.494062692 0.278615892 0
vt 0.283313781 0.886983752 0
vt 0.221857801 0.885484219 0
vt 0.206958175 0.86633575 0
vt 0.285435706 0.592347205 0
vt 0.340161592 0.572901189 0
vt 0.301671028 0.602764368 0
vt 0.164295524 0.314172149 0
vt 0.0801760554 0.306452781 0
vt 0.215045989 0.316426992 0
vt 0.213251784 0.325212151 0
vt 0.0959030539 0.332367182 0
vt 0.16238752 0.32571128 0
vt 0.22882852 0.280508518 0
vt 0.472885996 0.0172689594 0
vt 0.463268131 0.148200169 0
vt 0.734283566 0.902727842 0
vt 0.701291144 0.894424736 0
vt 0.687982082 0.841754854 0
vt 0.849062562 0.899876714 0
vt 0.734283566 0.902727842 0
vt 0.688209355 0.793066263 0
vt 0.850904226 0.00270291371 0
vt 0.894016504 0.0109993462 0
vt 0.751591802 0.00988433696 0
vt 0.472885996 0.0172689594 0
vt 0.471313655 0.158474281 0
vt 0.463268131 0.148200169 0
vt 0.473761529 0.234176949 0
vt 0.463268131 0.148200169 0
vt 0.471313655 0.158474281 0
vt 0.409299046 0.309961855 0
vt 0.215045989 0.316426992 0
vt 0.22882852 0.280508518 0
vt 0.677358568 0.0190573949 0
vt 0.751591802 0.00988433696 0
vt 0.894016504 0.0109993462 0
vt 0.531582654 0.204694495 0
vt 0.624118447 0.308258712 0
vt 0.494062692 0.278615892 0
vt 0.531582654 0.204694495 0
vt 0.480055511 0.124189101 0
vt 0.705366552 0.192354158 0
vt 0.531582654 0.204694495 0
vt 0.705366552 0.192354158 0
vt 0.624118447 0.308258712 0
vt 0.506378889 0.799689293 0
vt 0.486848116 0.868657589 0
vt 0.501219928 0.73166132 0
vt 0.484534591 0.35047695 0
vt 0.698286474 0.443535835 0
vt 0.548328936 0.504731953 0
vt 0.409299046 0.309961855 0
vt 0.22882852 0.280508518 0
vt 0.388277233 0.295261741 0
vn -0.0290904976 0.994792163 -0.100013465
vn 0.217873991 0.93716377 0.0294659622
vn 0.268811703 0.86083138 -0.324505359
vn 0.815933228 -0.437713325 0.0726079717
vn 0.542901933 -0.488551438 -0.0714259073
vn 0.996906161 0.00433429237 0.12398269
vn 0.185670972 0.0584212765 0.921460629
vn -0.00421021692 0.126514897 0.991405547
vn -0.00434929365 0.0264463294 1.00018084
vn 1.0052439 0.0434854329 0.0144771794
vn 0.932793677 0.321240038 -0.0480347164
vn 0.981089175 0.0236903895 -0.0870069712
vn -0.00233530207 -1.0015161 0.0200945251
vn 0.542901933 -0.488551438 -0.0714259073
vn 0.0278956126 -0.588417172 0.442551941
vn 0.958480179 0.235412925 -0.199519604
vn 0.268811703 0.86083138 -0.324505359
vn 0.727988124 0.67653352 -0.0971387997
vn 0.0246208534 -0.0654805452 -0.995057106
vn 0.542901933 -0.488551438 -0.0714259073
vn -0.0182912424 -0.989957988 -0.0452946573
vn -0.106470443 0.016476579 -0.979773462
vn 0.0246208534 -0.0654805452 -0.995057106
vn -0.349249572 -0.566841066 -0.745449841
vn 0.932793677 0.321240038 -0.0480347164
vn 0.185670972 0.0584212765 0.921460629
vn 0.996906161 0.00433429237 0.12398269
vn 0.24552919 0.93812263 0.0983451158
vn 0.542386591 0.833035648 -0.0155998133
vn 0.026517624 1.00306785 0.0345247611
vn 0.543270767 0.667164743 0.507688344
vn 0.932793677 0.321240038 -0.0480347164
vn 0.24552919 0.93812263 0.0983451158
vn -0.0135495476 -0.00477842521 1.00054371
vn -0.09255106 0.0830375031 1.00245571
vn 0.00656909496 0.127306715 1.03559816
vn -1.01777792 -0.0141145196 -0.027603928
vn -0.330981821 -0.727300286 -0.00116653624
vn -0.596725762 0.114867829 0.829849064
vn -0.349249572 -0.566841066 -0.745449841
vn 0.0246208534 -0.0654805452 -0.995057106
vn -0.0419025011 -0.766619325 -0.519737005
vn 1.0052439 0.0434854329 0.0144771794
vn 0.981089175 0.0236903895 -0.0870069712
vn 0.958480179 0.235412925 -0.199519604
vn -0.00138380472 -0.970512271 0.0461924374
vn -0.00233530207 -1.0015161 0.0200945251
vn 0.0278956126 -0.588417172 0.442551941
vn 0.0278956126 -0.588417172 0.442551941
vn 0.542901933 -0.488551438 -0.0714259073
vn 0.815933228 -0.437713325 0.0726079717
vn 0.0520183779 0.194080442 0.945064366
vn -0.0135495476 -0.00477842521 1.00054371
vn -0.00434929365 0.0264463294 1.00018084
vn 0.0223504715 -0.785151243 -0.618900537
vn 0.0247202348 -0.122858383 -0.977549672
vn 0.0263022613 -0.841699541 -0.574887514
vn -0.0135495476 -0.00477842521 1.00054371
vn 0.00656909496 0.127306715 1.03559816
vn -0.00434929365 0.0264463294 1.00018084
vn 0.0246208534 -0.0654805452 -0.995057106
vn 0.0263022613 -0.841699541 -0.574887514
vn 0.542901933 -0.488551438 -0.0714259073
vn 0.24552919 0.93812263 0.0983451158
vn 0.00205916376 0.970538676 0.158331767
vn 0.0453154184 0.907530963 0.323276222
vn -0.00421021692 0.126514897 0.991405547
vn 0.543270767 0.667164743 0.507688344
vn 0.0453154184 0.907530963 0.323276222
vn 0.00556634041 0.0555837527 -0.998877347
vn 0.0246208534 -0.0654805452 -0.995057106
vn -0.106470443 0.016476579 -0.979773462
vn -0.0160377994 0.133990601 -0.995481193
vn 0.0112224137 0.615953088 -0.753690958
vn 0.00556634041 0.0555837527 -0.998877347
vn -0.597803414 -0.588534057 -0.0763153806
vn -0.863563418 -0.503033042 -0.0348712765
vn -0.330981821 -0.727300286 -0.00116653624
vn 0.815933228 -0.437713325 0.0726079717
vn 0.996906161 0.00433429237 0.12398269
vn 0.890776277 -0.205250874 0.3250539
vn 0.996906161 0.00433429237 0.12398269
vn 0.423216641 -0.0106400419 0.830887437
vn 0.890776277 -0.205250874 0.3250539
vn 0.542901933 -0.488551438 -0.0714259073
vn 0.981089175 0.0236903895 -0.0870069712
vn 0.996906161 0.00433429237 0.12398269
vn 0.00688564032 0.80188328 -0.554275215
vn -0.0290904976 0.994792163 -0.100013465
vn 0.268811703 0.86083138 -0.324505359
vn 0.268811703 0.86083138 -0.324505359
vn -0.000183567623 0.227315322 -0.952808797
vn 0.00688564032 0.80188328 -0.554275215
vn -0.981280684 0.090293251 -0.138950288
vn -0.576643944 0.126818806 -0.673902869
vn -0.106470443 0.016476579 -0.979773462
vn -0.000183567623 0.227315322 -0.952808797
vn 0.00556634041 0.0555837527 -0.998877347
vn 0.00688564032 0.80188328 -0.554275215
vn -0.000183567623 0.227315322 -0.952808797
vn 0.610405385 0.0590704158 -0.805154562
vn 0.0581115149 -0.00204754155 -0.991667807
vn -1.00124359 0.0405635349 -0.0555450357
vn -0.597803414 -0.588534057 -0.0763153806
vn -0.330981821 -0.727300286 -0.00116653624
vn 0.0520183779 0.194080442 0.945064366
vn -0.00333189499 0.789141476 0.650817215
vn -0.0842387676 0.657993019 0.732429147
vn 0.727988124 0.67653352 -0.0971387997
vn 0.268811703 0.86083138 -0.324505359
vn 0.217873991 0.93716377 0.0294659622
vn -0.576643944 0.126818806 -0.673902869
vn -0.0564121567 0.345037133 -0.922186732
vn -0.106470443 0.016476579 -0.979773462
vn 0.542901933 -0.488551438 -0.0714259073
vn 0.235508427 -0.543607235 -0.750997543
vn 0.92525363 -0.102228418 -0.175535291
vn 0.981089175 0.0236903895 -0.0870069712
vn 0.92525363 -0.102228418 -0.175535291
vn 0.235508427 -0.543607235 -0.750997543
vn -0.191235289 0.897785962 0.196947113
vn -0.458161891 0.689114153 -0.00906372722
vn -0.960880756 0.107523784 0.117690042
vn -0.00845580269 1.00017869 0.0313802958
vn -0.00478736125 0.988657951 0.164959759
vn 0.00205916376 0.970538676 0.158331767
vn -0.0182912424 -0.989957988 -0.0452946573
vn 0.542901933 -0.488551438 -0.0714259073
vn -0.00233530207 -1.0015161 0.0200945251
vn -0.458161891 0.689114153 -0.00906372722
vn -0.047168497 0.98768729 -0.0604950637
vn -0.727108121 0.510071635 -0.108263187
vn 0.185670972 0.0584212765 0.921460629
vn 0.543270767 0.667164743 0.507688344
vn -0.00421021692 0.126514897 0.991405547
vn 0.0112224137 0.615953088 -0.753690958
vn -0.0665606782 0.610895038 -0.798464119
vn -0.0290904976 0.994792163 -0.100013465
vn 0.890776277 -0.205250874 0.3250539
vn 0.30664432 -0.210588947 0.912080765
vn -0.0202227421 -0.920350254 0.30764702
vn -0.349249572 -0.566841066 -0.745449841
vn -0.0419025011 -0.766619325 -0.519737005
vn -0.597803414 -0.588534057 -0.0763153806
vn 0.815933228 -0.437713325 0.0726079717
vn 0.890776277 -0.205250874 0.3250539
vn -0.0202227421 -0.920350254 0.30764702
vn 0.0581115149 -0.00204754155 -0.991667807
vn 0.981089175 0.0236903895 -0.0870069712
vn 0.0966962203 -0.120342664 -1.00600839
vn -0.00587825663 -0.805288732 0.339033961
vn -0.09255106 0.0830375031 1.00245571
vn -0.596725762 0.114867829 0.829849064
vn -0.0160377994 0.133990601 -0.995481193
vn 0.00556634041 0.0555837527 -0.998877347
vn -0.106470443 0.016476579 -0.979773462
vn 0.423216641 -0.0106400419 0.830887437
vn 0.185670972 0.0584212765 0.921460629
vn -0.00897132885 0.012429609 1.01417649
vn 0.0247202348 -0.122858383 -0.977549672
vn 0.0966962203 -0.120342664 -1.00600839
vn 0.0263022613 -0.841699541 -0.574887514
vn 0.0247202348 -0.122858383 -0.977549672
vn 0.0581115149 -0.00204754155 -0.991667807
vn 0.0966962203 -0.120342664 -1.00600839
vn -0.000183567623 0.227315322 -0.952808797
vn 0.268811703 0.86083138 -0.324505359
vn 0.610405385 0.0590704158 -0.805154562
vn 0.0966962203 -0.120342664 -1.00600839
vn 0.235508427 -0.543607235 -0.750997543
vn 0.0263022613 -0.841699541 -0.574887514
vn 0.0263022613 -0.841699541 -0.574887514
vn 0.235508427 -0.543607235 -0.750997543
vn 0.542901933 -0.488551438 -0.0714259073
vn -0.0842387676 0.657993019 0.732429147
vn -0.00478736125 0.988657951 0.164959759
vn 0.0520183779 0.194080442 0.945064366
vn 0.497818023 0.828161895 0.122694269
vn 0.542386591 0.833035648 -0.0155998133
vn 1.0052439 0.0434854329 0.0144771794
vn 1.0052439 0.0434854329 0.0144771794
vn 0.542386591 0.833035648 -0.0155998133
vn 0.932793677 0.321240038 -0.0480347164
vn 0.00688564032 0.80188328 -0.554275215
vn 0.00556634041 0.0555837527 -0.998877347
vn 0.0112224137 0.615953088 -0.753690958
vn 0.00688564032 0.80188328 -0.554275215
vn 0.0112224137 0.615953088 -0.753690958
vn -0.0290904976 0.994792163 -0.100013465
vn -0.458161891 0.689114153 -0.00906372722
vn -0.981280684 0.090293251 -0.138950288
vn -1.00124359 0.0405635349 -0.0555450357
vn -0.204734012 -0.0676662996 0.90062952
vn -0.404301614 -0.057750918 0.904548943
vn -0.0135495476 -0.00477842521 1.00054371
vn -1.00096762 -0.0238789394 -0.10871999
vn -0.349249572 -0.566841066 -0.745449841
vn -0.597803414 -0.588534057 -0.0763153806
vn -0.0466977097 0.290337861 0.967904449
vn -0.960880756 0.107523784 0.117690042
vn -0.204734012 -0.0676662996 0.90062952
vn -0.0665606782 0.610895038 -0.798464119
vn 0.0112224137 0.615953088 -0.753690958
vn -0.0160377994 0.133990601 -0.995481193
vn -0.0466977097 0.290337861 0.967904449
vn 0.0520183779 0.194080442 0.945064366
vn -0.0292756986 0.934128463 0.38166979
vn -0.696183264 0.559258521 -0.489122897
vn -0.727108121 0.510071635 -0.108263187
vn -0.047168497 0.98768729 -0.0604950637
vn -0.0182912424 -0.989957988 -0.0452946573
vn -0.00138380472 -0.970512271 0.0461924374
vn -0.00587825663 -0.805288732 0.339033961
vn -0.576643944 0.126818806 -0.673902869
vn -0.047168497 0.98768729 -0.0604950637
vn -0.0564121567 0.345037133 -0.922186732
vn 0.0453154184 0.907530963 0.323276222
vn 0.543270767 0.667164743 0.507688344
vn 0.24552919 0.93812263 0.0983451158
vn 0.958480179 0.235412925 -0.199519604
vn 0.217873991 0.93716377 0.0294659622
vn 1.0052439 0.0434854329 0.0144771794
vn -0.204734012 -0.0676662996 0.90062952
vn -1.01777792 -0.0141145196 -0.027603928
vn -0.404301614 -0.057750918 0.904548943
vn -0.404301614 -0.057750918 0.904548943
vn -1.01777792 -0.0141145196 -0.027603928
vn -0.596725762 0.114867829 0.829849064
vn 0.0520183779 0.194080442 0.945064366
vn -0.0466977097 0.290337861 0.967904449
vn -0.0135495476 -0.00477842521 1.00054371
vn -0.0466977097 0.290337861 0.967904449
vn -0.0292756986 0.934128463 0.38166979
vn -0.191235289 0.897785962 0.196947113
vn 0.00656909496 0.127306715 1.03559816
vn -0.09255106 0.0830375031 1.00245571
vn -0.00587825663 -0.805288732 0.339033961
vn -0.727108121 0.510071635 -0.108263187
vn -0.576643944 0.126818806 -0.673902869
vn -0.981280684 0.090293251 -0.138950288
vn 0.0581115149 -0.00204754155 -0.991667807
vn 0.610405385 0.0590704158 -0.805154562
vn 0.958480179 0.235412925 -0.199519604
vn 0.610405385 0.0590704158 -0.805154562
vn 0.268811703 0.86083138 -0.324505359
vn 0.958480179 0.235412925 -0.199519604
vn 0.0278956126 -0.588417172 0.442551941
vn 0.815933228 -0.437713325 0.0726079717
vn -0.0202227421 -0.920350254 0.30764702
vn 0.0257491115 0.110599555 0.989149392
vn -0.00333189499 0.789141476 0.650817215
vn 0.0520183779 0.194080442 0.945064366
vn -0.960880756 0.107523784 0.117690042
vn -1.00124359 0.0405635349 -0.0555450357
vn -1.01777792 -0.0141145196 -0.027603928
vn 0.890776277 -0.205250874 0.3250539
vn 0.423216641 -0.0106400419 0.830887437
vn 0.30664432 -0.210588947 0.912080765
vn -0.204734012 -0.0676662996 0.90062952
vn -0.960880756 0.107523784 0.117690042
vn -1.01777792 -0.0141145196 -0.027603928
vn 0.0246208534 -0.0654805452 -0.995057106
vn 0.0581115149 -0.00204754155 -0.991667807
vn 0.0247202348 -0.122858383 -0.977549672
vn -1.00096762 -0.0238789394 -0.10871999
vn -0.106470443 0.016476579 -0.979773462
vn -0.349249572 -0.566841066 -0.745449841
vn 0.0278956126 -0.588417172 0.442551941
vn 0.30664432 -0.210588947 0.912080765
vn -0.00897132885 0.012429609 1.01417649
vn 0.423216641 -0.0106400419 0.830887437
vn -0.00897132885 0.012429609 1.01417649
vn 0.30664432 -0.210588947 0.912080765
vn -0.00138380472 -0.970512271 0.0461924374
vn -0.0182912424 -0.989957988 -0.0452946573
vn -0.00233530207 -1.0015161 0.0200945251
vn -0.00333189499 0.789141476 0.650817215
vn 0.0257491115 0.110599555 0.989149392
vn -0.0842387676 0.657993019 0.732429147
vn -0.00421021692 0.126514897 0.991405547
vn 0.0257491115 0.110599555 0.989149392
vn -0.00434929365 0.0264463294 1.00018084
vn 0.217873991 0.93716377 0.0294659622
vn 0.026517624 1.00306785 0.0345247611
vn 0.497818023 0.828161895 0.122694269
vn -0.0842387676 0.657993019 0.732429147
vn -0.00421021692 0.126514897 0.991405547
vn 0.00205916376 0.970538676 0.158331767
vn -0.330981821 -0.727300286 -0.00116653624
vn -0.0182912424 -0.989957988 -0.0452946573
vn -0.00587825663 -0.805288732 0.339033961
vn -0.0466977097 0.290337861 0.967904449
vn -0.204734012 -0.0676662996 0.90062952
vn -0.0135495476 -0.00477842521 1.00054371
vn 0.497818023 0.828161895 0.122694269
vn 0.026517624 1.00306785 0.0345247611
vn 0.542386591 0.833035648 -0.0155998133
vn -0.0290904976 0.994792163 -0.100013465
vn -0.00845580269 1.00017869 0.0313802958
vn 0.217873991 0.93716377 0.0294659622
vn -0.0419025011 -0.766619325 -0.519737005
vn -0.0651107207 -0.970722556 -0.193986759
vn -0.597803414 -0.588534057 -0.0763153806
vn -0.0651107207 -0.970722556 -0.193986759
vn -0.310487062 -0.9243716 -0.0643747002
vn -0.597803414 -0.588534057 -0.0763153806
vn 0.0520183779 0.194080442 0.945064366
vn -0.00478736125 0.988657951 0.164959759
vn -0.0292756986 0.934128463 0.38166979
vn -0.0466977097 0.290337861 0.967904449
vn -0.191235289 0.897785962 0.196947113
vn -0.960880756 0.107523784 0.117690042
vn 0.00205916376 0.970538676 0.158331767
vn -0.00478736125 0.988657951 0.164959759
vn -0.0842387676 0.657993019 0.732429147
vn -0.00421021692 0.126514897 0.991405547
vn -0.0842387676 0.657993019 0.732429147
vn 0.0257491115 0.110599555 0.989149392
vn -0.0564121567 0.345037133 -0.922186732
vn -0.0160377994 0.133990601 -0.995481193
vn -0.106470443 0.016476579 -0.979773462
vn -0.0651107207 -0.970722556 -0.193986759
vn -0.0182912424 -0.989957988 -0.0452946573
vn -0.310487062 -0.9243716 -0.0643747002
vn 0.217873991 0.93716377 0.0294659622
vn 0.958480179 0.235412925 -0.199519604
vn 0.727988124 0.67653352 -0.0971387997
vn -1.01777792 -0.0141145196 -0.027603928
vn -1.00124359 0.0405635349 -0.0555450357
vn -0.330981821 -0.727300286 -0.00116653624
vn -0.960880756 0.107523784 0.117690042
vn -0.458161891 0.689114153 -0.00906372722
vn -1.00124359 0.0405635349 -0.0555450357
vn 0.92525363 -0.102228418 -0.175535291
vn 0.981089175 0.0236903895 -0.0870069712
vn 0.542901933 -0.488551438 -0.0714259073
vn -0.458161891 0.689114153 -0.00906372722
vn -0.191235289 0.897785962 0.196947113
vn -0.00845580269 1.00017869 0.0313802958
vn 0.30664432 -0.210588947 0.912080765
vn 0.0278956126 -0.588417172 0.442551941
vn -0.0202227421 -0.920350254 0.30764702
vn 0.0257491115 0.110599555 0.989149392
vn 0.0520183779 0.194080442 0.945064366
vn -0.00434929365 0.0264463294 1.00018084
vn 0.0246208534 -0.0654805452 -0.995057106
vn 0.00556634041 0.0555837527 -0.998877347
vn 0.0581115149 -0.00204754155 -0.991667807
vn 0.0278956126 -0.588417172 0.442551941
vn 0.00656909496 0.127306715 1.03559816
vn -0.00138380472 -0.970512271 0.0461924374
vn 0.235508427 -0.543607235 -0.750997543
vn 0.0966962203 -0.120342664 -1.00600839
vn 0.981089175 0.0236903895 -0.0870069712
vn -0.047168497 0.98768729 -0.0604950637
vn -0.00845580269 1.00017869 0.0313802958
vn -0.0290904976 0.994792163 -0.100013465
vn -0.00845580269 1.00017869 0.0313802958
vn -0.047168497 0.98768729 -0.0604950637
vn -0.458161891 0.689114153 -0.00906372722
vn -0.00421021692 0.126514897 0.991405547
vn 0.0453154184 0.907530963 0.323276222
vn 0.00205916376 0.970538676 0.158331767
vn -0.00845580269 1.00017869 0.0313802958
vn -0.191235289 0.897785962 0.196947113
vn -0.00478736125 0.988657951 0.164959759
vn -0.191235289 0.897785962 0.196947113
vn -0.0292756986 0.934128463 0.38166979
vn -0.00478736125 0.988657951 0.164959759
vn -0.0665606782 0.610895038 -0.798464119
vn 0.0678840801 0.68575561 -0.686869442
vn -0.0290904976 0.994792163 -0.100013465
vn -1.00124359 0.0405635349 -0.0555450357
vn -1.00096762 -0.0238789394 -0.10871999
vn -0.597803414 -0.588534057 -0.0763153806
vn 0.00656909496 0.127306715 1.03559816
vn -0.00587825663 -0.805288732 0.339033961
vn -0.00138380472 -0.970512271 0.0461924374
vn -0.981280684 0.090293251 -0.138950288
vn -0.106470443 0.016476579 -0.979773462
vn -1.00096762 -0.0238789394 -0.10871999
vn -0.00897132885 0.012429609 1.01417649
vn -0.00434929365 0.0264463294 1.00018084
vn 0.0278956126 -0.588417172 0.442551941
vn -0.00434929365 0.0264463294 1.00018084
vn 0.00656909496 0.127306715 1.03559816
vn 0.0278956126 -0.588417172 0.442551941
vn -0.596725762 0.114867829 0.829849064
vn -0.330981821 -0.727300286 -0.00116653624
vn -0.00587825663 -0.805288732 0.339033961
vn -0.0160377994 0.133990601 -0.995481193
vn -0.0564121567 0.345037133 -0.922186732
vn 0.0678840801 0.68575561 -0.686869442
vn -1.00124359 0.0405635349 -0.0555450357
vn -0.981280684 0.090293251 -0.138950288
vn -1.00096762 -0.0238789394 -0.10871999
vn 0.981089175 0.0236903895 -0.0870069712
vn 0.932793677 0.321240038 -0.0480347164
vn 0.996906161 0.00433429237 0.12398269
vn 0.00556634041 0.0555837527 -0.998877347
vn -0.000183567623 0.227315322 -0.952808797
vn 0.0581115149 -0.00204754155 -0.991667807
vn -0.404301614 -0.057750918 0.904548943
vn -0.596725762 0.114867829 0.829849064
vn -0.09255106 0.0830375031 1.00245571
vn -0.576643944 0.126818806 -0.673902869
vn -0.696183264 0.559258521 -0.489122897
vn -0.047168497 0.98768729 -0.0604950637
vn -0.0135495476 -0.00477842521 1.00054371
vn -0.404301614 -0.057750918 0.904548943
vn -0.09255106 0.0830375031 1.00245571
vn 0.185670972 0.0584212765 0.921460629
vn 0.423216641 -0.0106400419 0.830887437
vn 0.996906161 0.00433429237 0.12398269
vn 0.217873991 0.93716377 0.0294659622
vn 0.497818023 0.828161895 0.122694269
vn 1.0052439 0.0434854329 0.0144771794
vn 0.932793677 0.321240038 -0.0480347164
vn 0.542386591 0.833035648 -0.0155998133
vn 0.24552919 0.93812263 0.0983451158
vn 0.932793677 0.321240038 -0.0480347164
vn 0.543270767 0.667164743 0.507688344
vn 0.185670972 0.0584212765 0.921460629
vn -0.0665606782 0.610895038 -0.798464119
vn -0.0160377994 0.133990601 -0.995481193
vn 0.0678840801 0.68575561 -0.686869442
vn 0.0223504715 -0.785151243 -0.618900537
vn 0.0263022613 -0.841699541 -0.574887514
vn 0.0246208534 -0.0654805452 -0.995057106
vn 0.0246208534 -0.0654805452 -0.995057106
vn 0.0247202348 -0.122858383 -0.977549672
vn 0.0223504715 -0.785151243 -0.618900537
vn -0.0182912424 -0.989957988 -0.0452946573
vn -0.330981821 -0.727300286 -0.00116653624
vn -0.310487062 -0.9243716 -0.0643747002
vn -0.727108121 0.510071635 -0.108263187
vn -0.696183264 0.559258521 -0.489122897
vn -0.576643944 0.126818806 -0.673902869
vn -0.458161891 0.689114153 -0.00906372722
vn -0.727108121 0.510071635 -0.108263187
vn -0.981280684 0.090293251 -0.138950288
vn -0.0564121567 0.345037133 -0.922186732
vn -0.047168497 0.98768729 -0.0604950637
vn 0.0678840801 0.68575561 -0.686869442
vn -0.330981821 -0.727300286 -0.00116653624
vn -0.863563418 -0.503033042 -0.0348712765
vn -0.310487062 -0.9243716 -0.0643747002
vn -0.597803414 -0.588534057 -0.0763153806
vn -0.310487062 -0.9243716 -0.0643747002
vn -0.863563418 -0.503033042 -0.0348712765
vn -0.0419025011 -0.766619325 -0.519737005
vn 0.0246208534 -0.0654805452 -0.995057106
vn -0.0182912424 -0.989957988 -0.0452946573
vn -0.0290904976 0.994792163 -0.100013465
vn 0.0678840801 0.68575561 -0.686869442
vn -0.047168497 0.98768729 -0.0604950637
vn 0.026517624 1.00306785 0.0345247611
vn 0.00205916376 0.970538676 0.158331767
vn 0.24552919 0.93812263 0.0983451158
vn 0.026517624 1.00306785 0.0345247611
vn 0.217873991 0.93716377 0.0294659622
vn -0.00845580269 1.00017869 0.0313802958
vn 0.026517624 1.00306785 0.0345247611
vn -0.00845580269 1.00017869 0.0313802958
vn 0.00205916376 0.970538676 0.158331767
vn 0.0581115149 -0.00204754155 -0.991667807
vn 0.958480179 0.235412925 -0.199519604
vn 0.981089175 0.0236903895 -0.0870069712
vn 0.185670972 0.0584212765 0.921460629
vn -0.00434929365 0.0264463294 1.00018084
vn -0.00897132885 0.012429609 1.01417649
vn -0.0419025011 -0.766619325 -0.519737005
vn -0.0182912424 -0.989957988 -0.0452946573
vn -0.0651107207 -0.970722556 -0.193986759
g Group5780
f 59/1/1 9/2/2 45/3/3
f 60/4/4 5/5/5 8/6/6
f 41/7/7 55/8/8 23/9/9
f 26/10/10 22/11/11 2/12/12
f 54/13/13 5/14/14 10/15/15
f 29/16/16 45/17/17 49/18/18
f 14/19/19 5/20/20 11/21/21
f 42/22/22 14/23/23 28/24/24
f 22/25/25 41/26/26 8/27/27
f 20/28/28 64/29/29 71/30/30
f 18/31/31 22/32/32 20/33/33
f 39/34/34 52/35/35 35/36/36
f 40/37/37 1/38/38 25/39/39
f 28/40/40 14/41/41 4/42/42
f 26/43/43 2/44/44 29/45/45
f 63/46/46 54/47/47 10/48/48
f 10/49/49 5/50/50 60/51/51
f 74/52/52 39/53/53 23/54/54
f 81/55/55 6/56/56 70/57/57
f 39/58/58 35/59/59 23/60/60
f 14/61/61 70/62/62 5/63/63
f 20/64/64 15/65/65 38/66/66
f 55/67/67 18/68/68 38/69/69
f 72/70/70 14/71/71 42/72/72
f 53/73/73 3/74/74 72/75/75
f 30/76/76 77/77/77 1/78/78
f 60/79/79 8/80/80 31/81/81
f 8/82/82 17/83/83 31/84/84
f 5/85/85 2/86/86 8/87/87
f 76/88/88 59/89/89 45/90/90
f 45/91/91 24/92/92 76/93/93
f 68/94/94 13/95/95 42/96/96
f 24/97/97 72/98/98 76/99/99
f 24/100/100 69/101/101 62/102/102
f 16/103/103 30/104/104 1/105/105
f 74/106/106 27/107/107 46/108/108
f 49/109/109 45/110/110 9/111/111
f 13/112/112 34/113/113 42/114/114
f 5/115/115 33/116/116 50/117/117
f 2/118/118 50/119/119 33/120/120
f 51/121/121 7/122/122 66/123/123
f 12/124/124 79/125/125 15/126/126
f 11/127/127 5/128/128 54/129/129
f 7/130/130 19/131/131 43/132/132
f 41/133/133 18/134/134 55/135/135
f 3/136/136 73/137/137 59/138/138
f 31/139/139 67/140/140 56/141/141
f 28/142/142 4/143/143 30/144/144
f 60/145/145 31/146/146 56/147/147
f 62/148/148 2/149/149 37/150/150
f 75/151/151 52/152/152 25/153/153
f 53/154/154 72/155/155 42/156/156
f 17/157/157 41/158/158 65/159/159
f 6/160/160 37/161/161 70/162/162
f 6/163/163 62/164/164 37/165/165
f 24/166/166 45/167/167 69/168/168
f 37/169/169 33/170/170 70/171/171
f 70/172/172 33/173/173 5/174/174
f 46/175/175 79/176/176 74/177/177
f 58/178/178 64/179/179 26/180/180
f 26/181/181 64/182/182 22/183/183
f 76/184/184 72/185/185 3/186/186
f 76/187/187 3/188/188 59/189/189
f 7/190/190 68/191/191 16/192/192
f 36/193/193 44/194/194 39/195/195
f 21/196/196 28/197/197 30/198/198
f 61/199/199 66/200/200 36/201/201
f 73/202/202 3/203/203 53/204/204
f 61/205/205 74/206/206 32/207/207
f 47/208/208 43/209/209 19/210/210
f 11/211/211 63/212/212 75/213/213
f 13/214/214 19/215/215 34/216/216
f 38/217/217 18/218/218 20/219/219
f 29/220/220 9/221/221 26/222/222
f 36/223/223 40/224/224 44/225/225
f 44/226/226 40/227/227 25/228/228
f 74/229/229 61/230/230 39/231/231
f 61/232/232 32/233/233 51/234/234
f 35/235/235 52/236/236 75/237/237
f 43/238/238 13/239/239 68/240/240
f 62/241/241 69/242/242 29/243/243
f 69/244/244 45/245/245 29/246/246
f 10/247/247 60/248/248 56/249/249
f 48/250/250 27/251/251 74/252/252
f 66/253/253 16/254/254 40/255/255
f 31/256/256 17/257/257 67/258/258
f 36/259/259 66/260/260 40/261/261
f 14/262/262 62/263/263 6/264/264
f 21/265/265 42/266/266 28/267/267
f 10/268/268 67/269/269 65/270/270
f 17/271/271 65/272/272 67/273/273
f 63/274/274 11/275/275 54/276/276
f 27/277/277 48/278/278 46/279/279
f 55/280/280 48/281/281 23/282/282
f 9/283/283 71/284/284 58/285/285
f 46/286/286 55/287/287 15/288/288
f 1/289/289 11/290/290 75/291/291
f 61/292/292 36/293/293 39/294/294
f 58/295/295 71/296/296 64/297/297
f 59/298/298 12/299/299 9/300/300
f 4/301/301 57/302/302 30/303/303
f 57/304/304 80/305/305 30/306/306
f 74/307/307 79/308/308 32/309/309
f 61/310/310 51/311/311 66/312/312
f 15/313/313 79/314/314 46/315/315
f 55/316/316 46/317/317 48/318/318
f 34/319/319 53/320/320 42/321/321
f 57/322/322 11/323/323 80/324/324
f 9/325/325 29/326/326 49/327/327
f 40/328/328 16/329/329 1/330/330
f 66/331/331 7/332/332 16/333/333
f 50/334/334 2/335/335 5/336/336
f 7/337/337 51/338/338 12/339/339
f 67/340/340 10/341/341 56/342/342
f 48/343/343 74/344/344 23/345/345
f 14/346/346 72/347/347 62/348/348
f 10/349/349 35/350/350 63/351/351
f 33/352/352 37/353/353 2/354/354
f 19/355/355 12/356/356 59/357/357
f 12/358/358 19/359/359 7/360/360
f 55/361/361 38/362/362 15/363/363
f 12/364/364 51/365/365 79/366/366
f 51/367/367 32/368/368 79/369/369
f 73/370/370 78/371/371 59/372/372
f 16/373/373 21/374/374 30/375/375
f 35/376/376 75/377/377 63/378/378
f 68/379/379 42/380/380 21/381/381
f 65/382/382 23/383/383 10/384/384
f 23/385/385 35/386/386 10/387/387
f 25/388/388 1/389/389 75/390/390
f 53/391/391 34/392/392 78/393/393
f 16/394/394 68/395/395 21/396/396
f 2/397/397 22/398/398 8/399/399
f 72/400/400 24/401/401 62/402/402
f 44/403/403 25/404/404 52/405/405
f 13/406/406 47/407/407 19/408/408
f 39/409/409 44/410/410 52/411/411
f 41/412/412 17/413/413 8/414/414
f 9/415/415 58/416/416 26/417/417
f 22/418/418 64/419/419 20/420/420
f 22/421/421 18/422/422 41/423/423
f 73/424/424 53/425/425 78/426/426
f 81/427/427 70/428/428 14/429/429
f 14/430/430 6/431/431 81/432/432
f 11/433/433 1/434/434 80/435/435
f 43/436/436 47/437/437 13/438/438
f 7/439/439 43/440/440 68/441/441
f 34/442/442 19/443/443 78/444/444
f 1/445/445 77/446/446 80/447/447
f 30/448/448 80/449/449 77/450/450
f 4/451/451 14/452/452 11/453/453
f 59/454/454 78/455/455 19/456/456
f 71/457/457 15/458/458 20/459/459
f 71/460/460 9/461/461 12/462/462
f 71/463/463 12/464/464 15/465/465
f 62/466/466 29/467/467 2/468/468
f 41/469/469 23/470/470 65/471/471
f 4/472/472 11/473/473 57/474/474
