# File exported by Houdini 16.5.405 (www.sidefx.com)
# 31 points
# 174 vertices
# 58 primitives
# Bounds: [-33.6351738, -1.21566021, -21.9489822] to [33.7072868, 41.8448753, 21.7531891]
g 
v -33.1595001 -0.812736273 19.5787907
v 32.6716309 34.0084152 -21.3864975
v 13.9026051 41.8448753 -21.5681515
v -31.4834213 1.25599205 -21.7660618
v 33.7072868 -0.60935849 -17.7142563
v 21.3837547 1.90119374 -21.5090694
v -33.3030472 39.9799957 18.3838158
v 33.4371376 21.4926014 20.800354
v 32.3353119 41.0245743 -9.33318138
v 20.73559 -1.21566021 21.7531891
v 1.72227764 -0.96407634 -17.6048679
v 12.8099012 41.4391289 5.2200675
v -31.3461666 25.8388176 -21.7018566
v 7.4908123 1.80932939 -21.8074455
v 18.9303932 40.1530075 21.0482101
v -33.6351738 0.425114274 -8.80564117
v 32.0067024 37.559063 21.091362
v -29.0186996 40.9098625 -19.993412
v 32.6142883 40.2011528 14.1868343
v -33.4290543 22.2627163 21.5418129
v 25.0448189 40.0690498 -21.9489822
v -33.0130577 -0.846775293 21.541481
v -3.85583973 39.9986992 19.781662
v 33.1786613 -0.676298082 15.3258276
v -27.0546036 39.1013374 21.2738209
v 32.6267052 1.50839865 -20.8359413
v 29.5551872 41.0886345 -20.8196697
v -8.7624712 38.3566589 21.2017269
v -6.85018015 41.394783 -21.0837975
v 30.7792053 40.1328316 2.72741032
v 30.5281963 4.13140678 21.0162487
vt 0.746544898 0.0057414528 0
vt 0.476361662 0.103771366 0
vt 0.492671251 0.0238049049 0
vt 0.239053369 0.612600803 0
vt 0.470273077 0.60089767 0
vt 0.207133576 0.769339323 0
vt 0.486924261 0.334879667 0
vt 0.577054322 0.313674629 0
vt 0.949717522 0.433061659 0
vt 0.507549882 0.844449937 0
vt 0.508191705 0.898035169 0
vt 0.425791264 0.896721661 0
vt 0.18976827 0.316591322 0
vt 0.00616474217 0.286943585 0
vt 0.22882852 0.280508518 0
vt 0.465835154 0.486008167 0
vt 0.187736019 0.325880259 0
vt 0.464204192 0.31339249 0
vt 0.258822531 0.899589539 0
vt 0.208957255 0.882181525 0
vt 0.207133576 0.769339323 0
vt 0.484561861 0.269746572 0
vt 0.49035126 0.18812263 0
vt 0.618280351 0.19849506 0
vt 0.991401076 0.763492942 0
vt 0.969141185 0.599140167 0
vt 0.982096016 0.596752882 0
vt 0.089788653 0.00642961496 0
vt 0.00616474217 0.286943585 0
vt 0.00134988199 0.0534537956 0
vt 0.18976827 0.316591322 0
vt 0.0923941955 0.316575289 0
vt 0.00616474217 0.286943585 0
vt 0.149915799 0.610064447 0
vt 0.187736019 0.325880259 0
vt 0.465835154 0.486008167 0
vt 0.470273077 0.60089767 0
vt 0.507549882 0.844449937 0
vt 0.207133576 0.769339323 0
vt 0.600923002 0.0120975701 0
vt 0.746544898 0.0057414528 0
vt 0.492671251 0.0238049049 0
vt 0.492671251 0.0238049049 0
vt 0.522193968 0.010878263 0
vt 0.600923002 0.0120975701 0
vt 0.507549882 0.844449937 0
vt 0.470273077 0.60089767 0
vt 0.493295699 0.614248276 0
vt 0.618280351 0.19849506 0
vt 0.74111861 0.295998245 0
vt 0.580912173 0.312077284 0
vt 0.22882852 0.280508518 0
vt 0.00616474217 0.286943585 0
vt 0.089788653 0.00642961496 0
vt 0.473171264 0.614324391 0
vt 0.502380908 0.567483068 0
vt 0.570921481 0.603386045 0
vt 0.297284037 0.602062166 0
vt 0.149915799 0.610064447 0
vt 0.465835154 0.486008167 0
vt 0.478613734 0.446776837 0
vt 0.486924261 0.334879667 0
vt 0.570921481 0.603386045 0
vt 0.0913083255 0.330527365 0
vt 0.0151709327 0.555853724 0
vt 0.0145334965 0.33006531 0
vt 0.0693004802 0.598517478 0
vt 0.0365271717 0.605832219 0
vt 0.0151709327 0.555853724 0
vt 0.0923941955 0.316575289 0
vt 0.0142782042 0.311586738 0
vt 0.00616474217 0.286943585 0
vt 0.969668806 0.893809497 0
vt 0.683788061 0.792838991 0
vt 0.772707939 0.616051793 0
vt 0.902255297 0.315521032 0
vt 0.949703038 0.304325521 0
vt 0.949717522 0.433061659 0
vt 0.580912173 0.312077284 0
vt 0.488507777 0.320300072 0
vt 0.484561861 0.269746572 0
vt 0.507549882 0.844449937 0
vt 0.425791264 0.896721661 0
vt 0.258822531 0.899589539 0
vt 0.774373829 0.321466386 0
vt 0.902255297 0.315521032 0
vt 0.949717522 0.433061659 0
vt 0.969668806 0.893809497 0
vt 0.772707939 0.616051793 0
vt 0.991401076 0.763492942 0
vt 0.239053369 0.612600803 0
vt 0.207133576 0.769339323 0
vt 0.195691228 0.645982683 0
vt 0.187736019 0.325880259 0
vt 0.0151709327 0.555853724 0
vt 0.0913083255 0.330527365 0
vt 0.772707939 0.616051793 0
vt 0.683788061 0.792838991 0
vt 0.686392128 0.626373827 0
vt 0.478613734 0.446776837 0
vt 0.570921481 0.603386045 0
vt 0.502380908 0.567483068 0
vt 0.470749706 0.001734194 0
vt 0.22882852 0.280508518 0
vt 0.089788653 0.00642961496 0
vt 0.577054322 0.313674629 0
vt 0.774373829 0.321466386 0
vt 0.949717522 0.433061659 0
vt 0.476361662 0.103771366 0
vt 0.618280351 0.19849506 0
vt 0.49035126 0.18812263 0
vt 0.472035438 0.0175423324 0
vt 0.22882852 0.280508518 0
vt 0.470749706 0.001734194 0
vt 0.746544898 0.0057414528 0
vt 0.618280351 0.19849506 0
vt 0.476361662 0.103771366 0
vt 0.462123722 0.308425516 0
vt 0.472035438 0.0175423324 0
vt 0.476674646 0.216744319 0
vt 0.776649714 0.308064967 0
vt 0.74111861 0.295998245 0
vt 0.906128466 0.29783532 0
vt 0.577054322 0.313674629 0
vt 0.738539934 0.307773381 0
vt 0.774373829 0.321466386 0
vt 0.453936934 0.593871176 0
vt 0.297284037 0.602062166 0
vt 0.465835154 0.486008167 0
vt 0.462123722 0.308425516 0
vt 0.22882852 0.280508518 0
vt 0.472035438 0.0175423324 0
vt 0.991401076 0.763492942 0
vt 0.772707939 0.616051793 0
vt 0.969141185 0.599140167 0
vt 0.187736019 0.325880259 0
vt 0.149915799 0.610064447 0
vt 0.0151709327 0.555853724 0
vt 0.904093206 0.00532822963 0
vt 0.618280351 0.19849506 0
vt 0.746544898 0.0057414528 0
vt 0.618280351 0.19849506 0
vt 0.904093206 0.00532822963 0
vt 0.948854864 0.274739534 0
vt 0.618280351 0.19849506 0
vt 0.948854864 0.274739534 0
vt 0.74111861 0.295998245 0
vt 0.948854864 0.274739534 0
vt 0.906128466 0.29783532 0
vt 0.74111861 0.295998245 0
vt 0.949717522 0.433061659 0
vt 0.949357569 0.597882867 0
vt 0.570921481 0.603386045 0
vt 0.507549882 0.844449937 0
vt 0.258822531 0.899589539 0
vt 0.207133576 0.769339323 0
vt 0.149915799 0.610064447 0
vt 0.0693004802 0.598517478 0
vt 0.0151709327 0.555853724 0
vt 0.425791264 0.896721661 0
vt 0.339672744 0.899442077 0
vt 0.258822531 0.899589539 0
vt 0.969668806 0.893809497 0
vt 0.693529725 0.900428295 0
vt 0.683788061 0.792838991 0
vt 0.462123722 0.308425516 0
vt 0.18976827 0.316591322 0
vt 0.22882852 0.280508518 0
vt 0.618280351 0.19849506 0
vt 0.580912173 0.312077284 0
vt 0.484561861 0.269746572 0
vt 0.486924261 0.334879667 0
vt 0.949717522 0.433061659 0
vt 0.570921481 0.603386045 0
vn -0.0293995384 0.833303928 -0.431436419
vn 0.246162519 0.922366798 -0.00374283246
vn 0.268811703 0.86083138 -0.324505359
vn 0.848200142 -0.388747096 0.14371936
vn 0.597742856 -0.430684537 -0.0927504674
vn 0.784072518 -0.0155751491 0.399632126
vn 0.205622777 0.159987271 0.889920056
vn 0.00938135758 0.651071489 0.50915581
vn -0.180064678 -0.00447601313 0.867743731
vn 0.577830076 0.0495956689 -0.52048254
vn 0.268811703 0.86083138 -0.324505359
vn 0.246162519 0.922366798 -0.00374283246
vn 0.0361425318 -0.0622976609 -0.998180449
vn 0.597742856 -0.430684537 -0.0927504674
vn -0.0182912424 -0.989957988 -0.0452946573
vn -0.34775582 0.0519746207 -0.769742191
vn 0.0361425318 -0.0622976609 -0.998180449
vn -0.270961732 -0.703101754 -0.549704969
vn 0.841992497 0.359927654 0.0351755768
vn 0.205622777 0.159987271 0.889920056
vn 0.784072518 -0.0155751491 0.399632126
vn 0.841992497 0.359927654 0.0351755768
vn 0.506379128 0.83924818 0.0814626142
vn -0.0266426504 1.00635016 0.040369831
vn -0.180064678 -0.00447601313 0.867743731
vn -0.360574692 -0.756057918 0.00397378206
vn -0.079460226 -0.637112975 0.409496069
vn 0.0304216705 -0.657054901 0.418619663
vn 0.597742856 -0.430684537 -0.0927504674
vn 0.848200142 -0.388747096 0.14371936
vn 0.0361425318 -0.0622976609 -0.998180449
vn 0.027361108 -0.275177002 -0.905964911
vn 0.597742856 -0.430684537 -0.0927504674
vn 0.0159995742 0.287881851 -0.913557231
vn 0.0361425318 -0.0622976609 -0.998180449
vn -0.34775582 0.0519746207 -0.769742191
vn 0.597742856 -0.430684537 -0.0927504674
vn 0.577830076 0.0495956689 -0.52048254
vn 0.784072518 -0.0155751491 0.399632126
vn 0.0159995742 0.287881851 -0.913557231
vn -0.0293995384 0.833303928 -0.431436419
vn 0.268811703 0.86083138 -0.324505359
vn 0.268811703 0.86083138 -0.324505359
vn -0.000183567623 0.227315322 -0.952808797
vn 0.0159995742 0.287881851 -0.913557231
vn 0.577830076 0.0495956689 -0.52048254
vn 0.597742856 -0.430684537 -0.0927504674
vn 0.22749424 -0.274245888 -0.907111824
vn -0.0266426504 1.00635016 0.040369831
vn -0.0195300803 0.854237318 0.49155128
vn 0.00938135758 0.651071489 0.50915581
vn -0.0182912424 -0.989957988 -0.0452946573
vn 0.597742856 -0.430684537 -0.0927504674
vn 0.0304216705 -0.657054901 0.418619663
vn 0.848200142 -0.388747096 0.14371936
vn 0.30664432 -0.210588947 0.912080765
vn 0.0304216705 -0.657054901 0.418619663
vn -0.0293995384 0.833303928 -0.431436419
vn 0.0159995742 0.287881851 -0.913557231
vn -0.34775582 0.0519746207 -0.769742191
vn 0.784072518 -0.0155751491 0.399632126
vn 0.205622777 0.159987271 0.889920056
vn 0.0304216705 -0.657054901 0.418619663
vn 0.027361108 -0.275177002 -0.905964911
vn 0.577830076 0.0495956689 -0.52048254
vn 0.22749424 -0.274245888 -0.907111824
vn -0.000183567623 0.227315322 -0.952808797
vn 0.268811703 0.86083138 -0.324505359
vn 0.577830076 0.0495956689 -0.52048254
vn 0.027361108 -0.275177002 -0.905964911
vn 0.22749424 -0.274245888 -0.907111824
vn 0.597742856 -0.430684537 -0.0927504674
vn -0.480897933 0.691788077 0.0838907659
vn -0.34775582 0.0519746207 -0.769742191
vn -0.975881279 -0.0814222023 0.00285187527
vn -0.0766859725 0.487229705 0.825019538
vn -0.480897933 0.691788077 0.0838907659
vn -0.180064678 -0.00447601313 0.867743731
vn 0.00938135758 0.651071489 0.50915581
vn 0.205622777 0.159987271 0.889920056
vn 0.841992497 0.359927654 0.0351755768
vn 0.577830076 0.0495956689 -0.52048254
vn 0.246162519 0.922366798 -0.00374283246
vn 0.841992497 0.359927654 0.0351755768
vn 0.0410478488 0.134521767 0.981411517
vn -0.0766859725 0.487229705 0.825019538
vn -0.180064678 -0.00447601313 0.867743731
vn -0.480897933 0.691788077 0.0838907659
vn -0.975881279 -0.0814222023 0.00285187527
vn -0.180064678 -0.00447601313 0.867743731
vn 0.848200142 -0.388747096 0.14371936
vn 0.784072518 -0.0155751491 0.399632126
vn 0.30664432 -0.210588947 0.912080765
vn 0.0361425318 -0.0622976609 -0.998180449
vn 0.577830076 0.0495956689 -0.52048254
vn 0.027361108 -0.275177002 -0.905964911
vn -0.975881279 -0.0814222023 0.00285187527
vn -0.34775582 0.0519746207 -0.769742191
vn -0.270961732 -0.703101754 -0.549704969
vn 0.784072518 -0.0155751491 0.399632126
vn 0.0304216705 -0.657054901 0.418619663
vn 0.30664432 -0.210588947 0.912080765
vn -0.079460226 -0.637112975 0.409496069
vn -0.0182912424 -0.989957988 -0.0452946573
vn 0.0304216705 -0.657054901 0.418619663
vn 0.00938135758 0.651071489 0.50915581
vn 0.0410478488 0.134521767 0.981411517
vn -0.180064678 -0.00447601313 0.867743731
vn 0.246162519 0.922366798 -0.00374283246
vn -0.0266426504 1.00635016 0.040369831
vn 0.506379128 0.83924818 0.0814626142
vn -0.360574692 -0.756057918 0.00397378206
vn -0.0182912424 -0.989957988 -0.0452946573
vn -0.079460226 -0.637112975 0.409496069
vn -0.0293995384 0.833303928 -0.431436419
vn -0.0266426504 1.00635016 0.040369831
vn 0.246162519 0.922366798 -0.00374283246
vn -0.270961732 -0.703101754 -0.549704969
vn -0.360574692 -0.756057918 0.00397378206
vn -0.975881279 -0.0814222023 0.00285187527
vn 0.0410478488 0.134521767 0.981411517
vn -0.0195300803 0.854237318 0.49155128
vn -0.0766859725 0.487229705 0.825019538
vn 0.00938135758 0.651071489 0.50915581
vn -0.0195300803 0.854237318 0.49155128
vn 0.0410478488 0.134521767 0.981411517
vn -0.155107647 0.859897137 -0.201351687
vn -0.0293995384 0.833303928 -0.431436419
vn -0.34775582 0.0519746207 -0.769742191
vn -0.270961732 -0.703101754 -0.549704969
vn -0.0182912424 -0.989957988 -0.0452946573
vn -0.360574692 -0.756057918 0.00397378206
vn -0.180064678 -0.00447601313 0.867743731
vn -0.975881279 -0.0814222023 0.00285187527
vn -0.360574692 -0.756057918 0.00397378206
vn 0.0361425318 -0.0622976609 -0.998180449
vn 0.0159995742 0.287881851 -0.913557231
vn 0.577830076 0.0495956689 -0.52048254
vn -0.155107647 0.859897137 -0.201351687
vn -0.0266426504 1.00635016 0.040369831
vn -0.0293995384 0.833303928 -0.431436419
vn -0.0266426504 1.00635016 0.040369831
vn -0.155107647 0.859897137 -0.201351687
vn -0.480897933 0.691788077 0.0838907659
vn -0.0266426504 1.00635016 0.040369831
vn -0.480897933 0.691788077 0.0838907659
vn -0.0195300803 0.854237318 0.49155128
vn -0.480897933 0.691788077 0.0838907659
vn -0.0766859725 0.487229705 0.825019538
vn -0.0195300803 0.854237318 0.49155128
vn -0.180064678 -0.00447601313 0.867743731
vn -0.079460226 -0.637112975 0.409496069
vn 0.0304216705 -0.657054901 0.418619663
vn 0.577830076 0.0495956689 -0.52048254
vn 0.841992497 0.359927654 0.0351755768
vn 0.784072518 -0.0155751491 0.399632126
vn 0.0159995742 0.287881851 -0.913557231
vn -0.000183567623 0.227315322 -0.952808797
vn 0.577830076 0.0495956689 -0.52048254
vn 0.246162519 0.922366798 -0.00374283246
vn 0.506379128 0.83924818 0.0814626142
vn 0.841992497 0.359927654 0.0351755768
vn -0.480897933 0.691788077 0.0838907659
vn -0.155107647 0.859897137 -0.201351687
vn -0.34775582 0.0519746207 -0.769742191
vn -0.270961732 -0.703101754 -0.549704969
vn 0.0361425318 -0.0622976609 -0.998180449
vn -0.0182912424 -0.989957988 -0.0452946573
vn -0.0266426504 1.00635016 0.040369831
vn 0.00938135758 0.651071489 0.50915581
vn 0.841992497 0.359927654 0.0351755768
vn 0.205622777 0.159987271 0.889920056
vn -0.180064678 -0.00447601313 0.867743731
vn 0.0304216705 -0.657054901 0.418619663
g Group5780
f 29/1/1 9/2/2 27/3/3
f 24/4/4 5/5/5 8/6/6
f 17/7/7 15/8/8 20/9/9
f 2/10/10 27/11/11 9/12/12
f 14/13/13 5/14/14 11/15/15
f 13/16/16 14/17/17 4/18/18
f 19/19/19 17/20/20 8/21/21
f 19/22/22 30/23/23 12/24/24
f 20/25/25 1/26/26 22/27/27
f 10/28/28 5/29/29 24/30/30
f 14/31/31 6/32/32 5/33/33
f 3/34/34 14/35/35 13/36/36
f 5/37/37 2/38/38 8/39/39
f 3/40/40 29/41/41 27/42/42
f 27/43/43 21/44/44 3/45/45
f 2/46/46 5/47/47 26/48/48
f 12/49/49 23/50/50 15/51/51
f 11/52/52 5/53/53 10/54/54
f 24/55/55 31/56/56 10/57/57
f 29/58/58 3/59/59 13/60/60
f 8/61/61 17/62/62 10/63/63
f 6/64/64 2/65/65 26/66/66
f 21/67/67 27/68/68 2/69/69
f 6/70/70 26/71/71 5/72/72
f 7/73/73 13/74/74 16/75/75
f 25/76/76 7/77/77 20/78/78
f 15/79/79 17/80/80 19/81/81
f 2/82/82 9/83/83 19/84/84
f 28/85/85 25/86/86 20/87/87
f 7/88/88 16/89/89 20/90/90
f 24/91/91 8/92/92 31/93/93
f 14/94/94 2/95/95 6/96/96
f 16/97/97 13/98/98 4/99/99
f 8/100/100 10/101/101 31/102/102
f 22/103/103 11/104/104 10/105/105
f 15/106/106 28/107/107 20/108/108
f 9/109/109 12/110/110 30/111/111
f 1/112/112 11/113/113 22/114/114
f 29/115/115 12/116/116 9/117/117
f 4/118/118 1/119/119 16/120/120
f 28/121/121 23/122/122 25/123/123
f 15/124/124 23/125/125 28/126/126
f 18/127/127 29/128/128 13/129/129
f 4/130/130 11/131/131 1/132/132
f 20/133/133 16/134/134 1/135/135
f 14/136/136 3/137/137 2/138/138
f 18/139/139 12/140/140 29/141/141
f 12/142/142 18/143/143 7/144/144
f 12/145/145 7/146/146 23/147/147
f 7/148/148 25/149/149 23/150/150
f 20/151/151 22/152/152 10/153/153
f 2/154/154 19/155/155 8/156/156
f 3/157/157 21/158/158 2/159/159
f 9/160/160 30/161/161 19/162/162
f 7/163/163 18/164/164 13/165/165
f 4/166/166 14/167/167 11/168/168
f 12/169/169 15/170/170 19/171/171
f 17/172/172 20/173/173 10/174/174
