# File exported by Houdini 16.5.405 (www.sidefx.com)
# 56 points
# 300 vertices
# 100 primitives
# Bounds: [-34.2549248, -1.33433151, -29.0764065] to [33.5577278, 128.324539, 29.6362896]
g 
v 11.862113 110.576859 13.6212225
v 19.1723995 112.582047 -14.5771742
v 23.3569088 61.6036377 19.2788181
v 18.2150078 110.939262 1.54805231
v 26.5309048 32.1429291 -27.2585545
v 3.68918657 98.4429016 -22.4626522
v 7.26941586 37.656765 -28.1093311
v 31.2396564 31.0650864 17.0549488
v 23.6442833 28.344202 22.4929409
v -1.26759219 117.36927 12.1048603
v 1.32090068 70.774971 21.2703266
v 6.74719763 37.6010132 24.8757725
v 19.977272 99.5011902 -20.9614468
v 4.96453428 115.810394 -19.6961956
v -15.4556866 128.324539 -14.4994783
v -23.9411278 2.25928521 -20.8522778
v -32.8591232 11.5499992 -17.1124992
v -11.8406773 123.169167 13.7061863
v -13.2324648 8.19691372 -28.9244289
v 6.99298716 3.038028 -27.8466606
v -20.5596027 125.603874 -8.19529057
v -20.9845352 7.16443205 29.6362896
v 0.739290714 126.385872 -21.1291904
v -3.65280843 126.656303 14.1823397
v -17.5812531 62.9065781 20.9889126
v -29.4070549 19.7125721 -22.0958595
v -18.3077335 123.813026 -19.2111034
v 1.09297895 67.1009369 -27.3791962
v 5.64021397 0.453850031 26.5443745
v -26.5637856 -0.267181128 -3.91773629
v -34.2549248 10.8057127 -2.12744212
v -7.83501482 -1.33433151 -23.2926102
v -26.9685459 69.1244736 -19.4013634
v 9.35731602 0.289038658 -23.7363014
v 9.83497334 -1.14309371 18.8123531
v -13.5835209 90.7001343 19.7441177
v -22.8214245 102.689011 3.62527108
v -24.7248058 99.6468582 -17.5973434
v -2.47855973 95.7456894 21.2406826
v 1.35740066 49.7363243 24.7249756
v 21.7562981 32.5951958 -29.0764065
v 5.82807207 34.8552246 13.5589476
v 7.35453796 33.8619766 -0.875171721
v 7.33068609 31.3715401 -28.562439
v 7.4203229 33.0084572 25.3700371
v 9.48225594 8.83903313 26.1922741
v 9.9041729 -1.09874022 -28.4133549
v 10.1712427 -0.625667751 20.4504852
v 32.2271957 -0.104775958 -3.16698241
v 26.9159985 3.51688838 -26.4624062
v 28.837923 14.5102911 21.0606747
v 20.6164227 -0.937903881 14.3034973
v 33.5577278 27.0498333 20.3198929
v 26.0310688 28.2657108 -28.4424801
v -16.8523617 -1.30917907 12.5442448
v 5.72978449 43.7259293 3.52873802
vt 0.917706847 0.0974183381 0
vt 0.925249279 -0.00132470392 0
vt 0.963922381 0.0663385987 0
vt 0.419166118 0.26096946 0
vt 0.433130652 0.23272343 0
vt 0.449460506 0.278626382 0
vt 0.442763507 0.466391861 0
vt 0.414441675 0.4623757 0
vt 0.427071095 0.384644479 0
vt 0.946921706 0.416155517 0
vt 0.967579842 0.330517352 0
vt 0.994263887 0.39657104 0
vt 0.442763507 0.466391861 0
vt 0.683310926 0.495205492 0
vt 0.548391938 0.492770702 0
vt 0.563024998 0.28550455 0
vt 0.639884412 0.345486939 0
vt 0.493670553 0.376248747 0
vt 0.0172496252 0.00704218727 0
vt 0.302867174 -0.0016818447 0
vt 0.00629609777 0.0293656904 0
vt 0.23452355 0.235993981 0
vt 0.0190878585 0.251113325 0
vt 0.00999450311 0.214413419 0
vt 0.890906096 0.739250541 0
vt 0.976627409 0.81993103 0
vt 0.819904923 0.782594264 0
vt 0.540501654 0.195932895 0
vt 0.449460506 0.278626382 0
vt 0.433130652 0.23272343 0
vt 0.75082767 0.905354917 0
vt 0.636819005 0.91707921 0
vt 0.720777869 0.760532022 0
vt 0.494496733 0.531435668 0
vt 0.489095569 0.614068329 0
vt 0.442014247 0.520174563 0
vt 0.369771123 0.656232119 0
vt 0.363915652 0.715607882 0
vt 0.14190346 0.693669915 0
vt 0.302867174 -0.0016818447 0
vt 0.55971837 0.0222742595 0
vt 0.00629609777 0.0293656904 0
vt 0.503097534 0.849060416 0
vt 0.493654847 0.93207401 0
vt 0.403245151 0.919859767 0
vt 0.144895241 0.977718592 0
vt 0.162313119 0.896721959 0
vt 0.289392054 0.968786359 0
vt 0.298513353 0.920087278 0
vt 0.275446475 0.809578419 0
vt 0.403245151 0.919859767 0
vt 0.487863928 0.673320949 0
vt 0.371148378 0.655669034 0
vt 0.489095569 0.614068329 0
vt 0.585123301 0.130375072 0
vt 0.651448548 0.000284506474 0
vt 0.741976917 0.0186844971 0
vt 0.416686237 0.56035918 0
vt 0.442014247 0.520174563 0
vt 0.489095569 0.614068329 0
vt 0.747253537 0.800337911 0
vt 0.75082767 0.905354917 0
vt 0.720777869 0.760532022 0
vt 0.279233694 0.327409089 0
vt 0.218802571 0.240583852 0
vt 0.368896008 0.233531922 0
vt 0.0575553663 0.3279275 0
vt 0.218802571 0.240583852 0
vt 0.279233694 0.327409089 0
vt 0.218802571 0.240583852 0
vt 0.0575553663 0.3279275 0
vt 0.0140079316 0.279842675 0
vt 0.917706847 0.0974183381 0
vt 0.888444662 0.0415256247 0
vt 0.925249279 -0.00132470392 0
vt 0.976627409 0.81993103 0
vt 0.792424738 0.898335576 0
vt 0.819904923 0.782594264 0
vt 0.819904923 0.782594264 0
vt 0.792424738 0.898335576 0
vt 0.75780946 0.878792226 0
vt 0.998298764 0.223700836 0
vt 0.917706847 0.0974183381 0
vt 0.963922381 0.0663385987 0
vt 0.23442623 0.725097537 0
vt 0.529288292 0.726385295 0
vt 0.23695448 0.796606243 0
vt 0.901355267 0.49312523 0
vt 0.946921706 0.416155517 0
vt 0.979344726 0.468390882 0
vt 0.436536491 0.211569786 0
vt 0.23452355 0.235993981 0
vt 0.202635884 0.142219946 0
vt 0.563024998 0.28550455 0
vt 0.540501654 0.195932895 0
vt 0.917706847 0.0974183381 0
vt 0.540501654 0.195932895 0
vt 0.888444662 0.0415256247 0
vt 0.917706847 0.0974183381 0
vt 0.511192501 0.708977461 0
vt 0.576840878 0.546369076 0
vt 0.837884188 0.492301315 0
vt 0.996546984 0.724068344 0
vt 0.928537965 0.726413131 0
vt 0.908657908 0.7193501 0
vt 0.493670553 0.376248747 0
vt 0.449460506 0.278626382 0
vt 0.563024998 0.28550455 0
vt 0.388972372 0.588370264 0
vt 0.00984508451 0.655104578 0
vt 0.0513545983 0.466993332 0
vt 0.976627409 0.81993103 0
vt 0.979472399 0.8950966 0
vt 0.792424738 0.898335576 0
vt 0.490886331 0.794438601 0
vt 0.503097534 0.849060416 0
vt 0.403245151 0.919859767 0
vt 0.411255717 0.462960422 0
vt 0.379826784 0.506466568 0
vt 0.213750765 0.40319255 0
vt 0.411255717 0.462960422 0
vt 0.54410708 0.498500288 0
vt 0.379826784 0.506466568 0
vt 0.946921706 0.416155517 0
vt 0.687242091 0.366182625 0
vt 0.967579842 0.330517352 0
vt 0.202635884 0.142219946 0
vt 0.23452355 0.235993981 0
vt 0.00999450311 0.214413419 0
vt 0.563024998 0.28550455 0
vt 0.917706847 0.0974183381 0
vt 0.75517571 0.298277855 0
vt 0.00930396095 0.339417487 0
vt 0.213750765 0.40319255 0
vt 0.010725501 0.456130117 0
vt 0.338769227 0.550322771 0
vt 0.388972372 0.588370264 0
vt 0.0513545983 0.466993332 0
vt 0.279233694 0.327409089 0
vt 0.420101225 0.299714237 0
vt 0.415950656 0.340984076 0
vt 0.657304883 0.134122387 0
vt 0.888444662 0.0415256247 0
vt 0.540501654 0.195932895 0
vt 0.888444662 0.0415256247 0
vt 0.657304883 0.134122387 0
vt 0.846260905 0.0339035317 0
vt 0.998298764 0.223700836 0
vt 0.75517571 0.298277855 0
vt 0.917706847 0.0974183381 0
vt 0.14190346 0.693669915 0
vt 0.00984508451 0.655104578 0
vt 0.369771123 0.656232119 0
vt 1.00237572 0.886146426 0
vt 0.979472399 0.8950966 0
vt 0.976627409 0.81993103 0
vt 0.719502449 0.723473191 0
vt 0.511192501 0.708977461 0
vt 0.837884188 0.492301315 0
vt 0.141956687 0.901980817 0
vt -0.00161761185 0.937049627 0
vt 0.016715778 0.873936236 0
vt 0.202635884 0.142219946 0
vt 0.00629609777 0.0293656904 0
vt 0.55971837 0.0222742595 0
vt 0.568623364 0.174339831 0
vt 0.202635884 0.142219946 0
vt 0.55971837 0.0222742595 0
vt 0.442763507 0.466391861 0
vt 0.427071095 0.384644479 0
vt 0.687242091 0.366182625 0
vt 0.388972372 0.588370264 0
vt 0.369771123 0.656232119 0
vt 0.00984508451 0.655104578 0
vt 0.279233694 0.327409089 0
vt 0.368896008 0.233531922 0
vt 0.420101225 0.299714237 0
vt 0.371148378 0.655669034 0
vt 0.416686237 0.56035918 0
vt 0.489095569 0.614068329 0
vt 0.54410708 0.498500288 0
vt 0.522348642 0.530917048 0
vt 0.379826784 0.506466568 0
vt 0.160403401 0.786557615 0
vt 0.23442623 0.725097537 0
vt 0.23695448 0.796606243 0
vt 0.568623364 0.174339831 0
vt 0.436536491 0.211569786 0
vt 0.202635884 0.142219946 0
vt 0.141956687 0.901980817 0
vt 0.016715778 0.873936236 0
vt 0.0769359097 0.871365488 0
vt 0.563024998 0.28550455 0
vt 0.449460506 0.278626382 0
vt 0.540501654 0.195932895 0
vt 0.979344726 0.468390882 0
vt 0.946921706 0.416155517 0
vt 0.994263887 0.39657104 0
vt 0.335007012 0.399656326 0
vt 0.207727477 0.355484366 0
vt 0.360817581 0.32835865 0
vt 0.237108782 0.891129851 0
vt 0.117637917 0.874782622 0
vt 0.250880301 0.809967101 0
vt 0.636819005 0.91707921 0
vt 0.507784486 0.770199776 0
vt 0.720777869 0.760532022 0
vt 0.719502449 0.723473191 0
vt 0.870962858 0.669920325 0
vt 0.866424084 0.718949676 0
vt 0.683310926 0.495205492 0
vt 0.442763507 0.466391861 0
vt 0.687242091 0.366182625 0
vt 0.719502449 0.723473191 0
vt 0.837884188 0.492301315 0
vt 0.870962858 0.669920325 0
vt 0.23442623 0.725097537 0
vt 0.530985475 0.704235435 0
vt 0.529288292 0.726385295 0
vt 0.946921706 0.416155517 0
vt 0.683310926 0.495205492 0
vt 0.687242091 0.366182625 0
vt 0.379826784 0.506466568 0
vt 0.010725501 0.456130117 0
vt 0.213750765 0.40319255 0
vt 0.996546984 0.724068344 0
vt 0.914861739 0.502524912 0
vt 0.998096287 0.539377451 0
vt 0.75517571 0.298277855 0
vt 0.639884412 0.345486939 0
vt 0.563024998 0.28550455 0
vt 0.275446475 0.809578419 0
vt 0.490886331 0.794438601 0
vt 0.403245151 0.919859767 0
vt 0.585123301 0.130375072 0
vt 0.561913967 0.0557939298 0
vt 0.651448548 0.000284506474 0
vt 0.73887223 0.758138537 0
vt 0.890906096 0.739250541 0
vt 0.819904923 0.782594264 0
vt 0.0441167131 0.743362606 0
vt 0.250880301 0.809967101 0
vt 0.117637917 0.874782622 0
vt 0.890906096 0.739250541 0
vt 0.967767358 0.746289909 0
vt 0.976627409 0.81993103 0
vt 0.914861739 0.502524912 0
vt 0.908657908 0.7193501 0
vt 0.881082118 0.527229965 0
vt 0.996546984 0.724068344 0
vt 0.908657908 0.7193501 0
vt 0.914861739 0.502524912 0
vt 0.585123301 0.130375072 0
vt 0.741976917 0.0186844971 0
vt 0.783613145 0.0513675883 0
vt 0.135071144 0.969147742 0
vt -0.00161761185 0.937049627 0
vt 0.141956687 0.901980817 0
vt 0.209302217 0.394475162 0
vt 0.207727477 0.355484366 0
vt 0.335007012 0.399656326 0
vt 0.846260905 0.0339035317 0
vt 0.925249279 -0.00132470392 0
vt 0.888444662 0.0415256247 0
vt 0.209302217 0.394475162 0
vt 0.335007012 0.399656326 0
vt 0.307552099 0.426422149 0
vt 0.00999450311 0.214413419 0
vt 0.00629609777 0.0293656904 0
vt 0.202635884 0.142219946 0
vt 0.379826784 0.506466568 0
vt 0.255106539 0.500073493 0
vt 0.010725501 0.456130117 0
vt 0.504966855 0.788727582 0
vt 0.23695448 0.796606243 0
vt 0.529288292 0.726385295 0
vt 0.511192501 0.708977461 0
vt 0.50158 0.566786051 0
vt 0.576840878 0.546369076 0
vt 0.901355267 0.49312523 0
vt 0.683310926 0.495205492 0
vt 0.946921706 0.416155517 0
vt 0.997479916 0.487145364 0
vt 0.998096287 0.539377451 0
vt 0.914861739 0.502524912 0
vt 0.636819005 0.91707921 0
vt 0.514600992 0.913145185 0
vt 0.507784486 0.770199776 0
vt 0.75780946 0.878792226 0
vt 0.73887223 0.758138537 0
vt 0.819904923 0.782594264 0
vt 0.23442623 0.725097537 0
vt 0.160403401 0.786557615 0
vt 0.171435267 0.719597757 0
vt 0.162313119 0.896721959 0
vt 0.269709855 0.894778192 0
vt 0.289392054 0.968786359 0
vt 0.0441167131 0.743362606 0
vt 0.117637917 0.874782622 0
vt 0.00599159114 0.856559813 0
vn -0.972956717 0.00434262166 0.250722796
vn -0.533063948 -0.702133536 -0.497653991
vn -0.478614062 -0.896529317 0.100565866
vn -0.409291863 0.998328269 -0.200599104
vn -0.625545025 0.333583325 -0.855247498
vn -0.944915235 0.463931769 0.0867760703
vn -0.625545025 0.333583325 -0.855247498
vn -0.409291863 0.998328269 -0.200599104
vn 0.835906863 0.255665839 -0.264750242
vn -0.257856727 -0.0600006767 -0.986522794
vn 0.475016952 -0.317122787 -0.797341943
vn -0.115228385 -0.932448685 -0.312778562
vn -0.625545025 0.333583325 -0.855247498
vn -0.554760158 0.0573223308 -0.833540738
vn -0.85293144 0.201403022 -0.643580914
vn -0.910813928 0.171271101 0.387434721
vn -0.438463539 0.116228119 0.901749313
vn -0.563495159 0.524166167 0.587205052
vn 0.475016952 -0.317122787 -0.797341943
vn 0.10829208 0.0467251055 -0.973430812
vn 0.959191978 -0.0127470409 -0.118959092
vn 0.64116919 0.157199323 0.572552443
vn 0.27341035 -0.443044811 0.778532982
vn 0.607286692 -0.613004684 0.173463598
vn -0.478614062 -0.896529317 0.100565866
vn -0.115228385 -0.932448685 -0.312778562
vn -0.124127954 -0.983767867 0.102076754
vn -0.85293144 0.201403022 -0.643580914
vn -0.944915235 0.463931769 0.0867760703
vn -0.625545025 0.333583325 -0.855247498
vn -0.448303878 0.442935288 0.420383394
vn -0.253151149 0.792778254 -0.0357190259
vn -0.730652988 -0.465834677 0.225855678
vn 0.422591716 -0.761363745 0.386342674
vn 0.534558058 -0.294498801 0.780979037
vn -0.730652988 -0.465834677 0.225855678
vn 0.917754531 0.308826208 0.246662468
vn 0.624894738 0.450717509 0.722474456
vn 0.472043186 0.233472466 0.826016486
vn 0.10829208 0.0467251055 -0.973430812
vn 0.835906863 0.255665839 -0.264750242
vn 0.959191978 -0.0127470409 -0.118959092
vn 0.534558058 -0.294498801 0.780979037
vn 0.422591716 -0.761363745 0.386342674
vn 0.814010084 -0.511646628 -0.0169904083
vn -0.477384269 0.369397342 -0.594035625
vn 0.554595828 0.408000052 -0.473558843
vn -0.576299191 -0.594679177 -0.288001657
vn 0.780080199 -0.433728456 -0.515859663
vn 0.554595828 0.408000052 -0.473558843
vn 0.814010084 -0.511646628 -0.0169904083
vn 0.688569248 0.575836182 0.162772477
vn -0.448303878 0.442935288 0.420383394
vn 0.534558058 -0.294498801 0.780979037
vn -0.576299191 -0.594679177 -0.288001657
vn 0.814010084 -0.511646628 -0.0169904083
vn 0.422591716 -0.761363745 0.386342674
vn -0.516455948 -0.200582251 0.580427229
vn -0.730652988 -0.465834677 0.225855678
vn 0.534558058 -0.294498801 0.780979037
vn -0.516455948 -0.200582251 0.580427229
vn -0.448303878 0.442935288 0.420383394
vn -0.730652988 -0.465834677 0.225855678
vn 0.472043186 0.233472466 0.826016486
vn -0.863734961 -0.0648077279 0.210348725
vn -0.364931673 -0.118109234 0.81029284
vn 0.624894738 0.450717509 0.722474456
vn -0.863734961 -0.0648077279 0.210348725
vn 0.472043186 0.233472466 0.826016486
vn -0.863734961 -0.0648077279 0.210348725
vn 0.624894738 0.450717509 0.722474456
vn -0.932031929 0.166685417 0.0556683354
vn -0.972956717 0.00434262166 0.250722796
vn -0.92897135 -0.0225230549 -0.337983608
vn -0.533063948 -0.702133536 -0.497653991
vn -0.115228385 -0.932448685 -0.312778562
vn 0.607286692 -0.613004684 0.173463598
vn -0.124127954 -0.983767867 0.102076754
vn -0.124127954 -0.983767867 0.102076754
vn 0.607286692 -0.613004684 0.173463598
vn 0.27341035 -0.443044811 0.778532982
vn -0.488615513 -0.124304771 0.732893825
vn -0.972956717 0.00434262166 0.250722796
vn -0.478614062 -0.896529317 0.100565866
vn 0.614578724 0.194878757 -0.718675077
vn 0.1259868 -0.0239406191 -0.953899801
vn -0.687977076 0.0512772202 -0.486595958
vn -0.675784945 0.102310285 -0.756282687
vn -0.257856727 -0.0600006767 -0.986522794
vn -0.533063948 -0.702133536 -0.497653991
vn 0.81102705 0.094431825 0.450051516
vn 0.64116919 0.157199323 0.572552443
vn 0.998527169 0.150261834 0.0349449255
vn -0.910813928 0.171271101 0.387434721
vn -0.85293144 0.201403022 -0.643580914
vn -0.972956717 0.00434262166 0.250722796
vn -0.85293144 0.201403022 -0.643580914
vn -0.92897135 -0.0225230549 -0.337983608
vn -0.972956717 0.00434262166 0.250722796
vn -0.932031929 0.166685417 0.0556683354
vn -0.687977076 0.0512772202 -0.486595958
vn -0.807752967 -0.294994205 -0.174270615
vn -0.807752967 -0.294994205 -0.174270615
vn 0.1259868 -0.0239406191 -0.953899801
vn 0.75204581 -0.237758636 -0.330717295
vn -0.563495159 0.524166167 0.587205052
vn -0.944915235 0.463931769 0.0867760703
vn -0.910813928 0.171271101 0.387434721
vn 0.921691537 0.337315053 -0.0473802947
vn 0.934676707 0.016949432 0.153345078
vn 0.75204581 -0.237758636 -0.330717295
vn -0.115228385 -0.932448685 -0.312778562
vn 0.959191978 -0.0127470409 -0.118959092
vn 0.607286692 -0.613004684 0.173463598
vn 0.688569248 0.575836182 0.162772477
vn 0.534558058 -0.294498801 0.780979037
vn 0.814010084 -0.511646628 -0.0169904083
vn 0.81102705 0.094431825 0.450051516
vn -0.438463539 0.116228119 0.901749313
vn 0.64116919 0.157199323 0.572552443
vn 0.81102705 0.094431825 0.450051516
vn 0.843046844 0.285973042 0.35632062
vn -0.438463539 0.116228119 0.901749313
vn -0.257856727 -0.0600006767 -0.986522794
vn 0.10829208 0.0467251055 -0.973430812
vn 0.475016952 -0.317122787 -0.797341943
vn 0.998527169 0.150261834 0.0349449255
vn 0.64116919 0.157199323 0.572552443
vn 0.607286692 -0.613004684 0.173463598
vn -0.910813928 0.171271101 0.387434721
vn -0.972956717 0.00434262166 0.250722796
vn -0.821452975 0.114567533 0.577867806
vn 0.27341035 -0.443044811 0.778532982
vn 0.64116919 0.157199323 0.572552443
vn -0.488615513 -0.124304771 0.732893825
vn 0.614578724 0.194878757 -0.718675077
vn 0.921691537 0.337315053 -0.0473802947
vn 0.75204581 -0.237758636 -0.330717295
vn 0.472043186 0.233472466 0.826016486
vn -0.111204274 -0.90341419 0.141685918
vn 0.934676707 0.016949432 0.153345078
vn -0.554760158 0.0573223308 -0.833540738
vn -0.92897135 -0.0225230549 -0.337983608
vn -0.85293144 0.201403022 -0.643580914
vn -0.92897135 -0.0225230549 -0.337983608
vn -0.554760158 0.0573223308 -0.833540738
vn -0.675784945 0.102310285 -0.756282687
vn -0.488615513 -0.124304771 0.732893825
vn -0.821452975 0.114567533 0.577867806
vn -0.972956717 0.00434262166 0.250722796
vn 0.472043186 0.233472466 0.826016486
vn 0.934676707 0.016949432 0.153345078
vn 0.917754531 0.308826208 0.246662468
vn 0.475016952 -0.317122787 -0.797341943
vn 0.959191978 -0.0127470409 -0.118959092
vn -0.115228385 -0.932448685 -0.312778562
vn -0.863734961 -0.0648077279 0.210348725
vn -0.932031929 0.166685417 0.0556683354
vn -0.807752967 -0.294994205 -0.174270615
vn 0.921691537 0.337315053 -0.0473802947
vn -0.932031929 0.166685417 0.0556683354
vn 0.624894738 0.450717509 0.722474456
vn 0.998527169 0.150261834 0.0349449255
vn 0.959191978 -0.0127470409 -0.118959092
vn 0.835906863 0.255665839 -0.264750242
vn 0.843046844 0.285973042 0.35632062
vn 0.998527169 0.150261834 0.0349449255
vn 0.835906863 0.255665839 -0.264750242
vn -0.625545025 0.333583325 -0.855247498
vn 0.835906863 0.255665839 -0.264750242
vn 0.10829208 0.0467251055 -0.973430812
vn 0.921691537 0.337315053 -0.0473802947
vn 0.917754531 0.308826208 0.246662468
vn 0.934676707 0.016949432 0.153345078
vn 0.472043186 0.233472466 0.826016486
vn -0.364931673 -0.118109234 0.81029284
vn -0.111204274 -0.90341419 0.141685918
vn -0.448303878 0.442935288 0.420383394
vn -0.516455948 -0.200582251 0.580427229
vn 0.534558058 -0.294498801 0.780979037
vn 0.843046844 0.285973042 0.35632062
vn -0.563495159 0.524166167 0.587205052
vn -0.438463539 0.116228119 0.901749313
vn -0.561101437 0.411904663 -0.532059491
vn 0.614578724 0.194878757 -0.718675077
vn -0.687977076 0.0512772202 -0.486595958
vn 0.843046844 0.285973042 0.35632062
vn 0.81102705 0.094431825 0.450051516
vn 0.998527169 0.150261834 0.0349449255
vn 0.921691537 0.337315053 -0.0473802947
vn 0.624894738 0.450717509 0.722474456
vn 0.917754531 0.308826208 0.246662468
vn -0.910813928 0.171271101 0.387434721
vn -0.944915235 0.463931769 0.0867760703
vn -0.85293144 0.201403022 -0.643580914
vn -0.533063948 -0.702133536 -0.497653991
vn -0.257856727 -0.0600006767 -0.986522794
vn -0.115228385 -0.932448685 -0.312778562
vn -0.409291863 0.998328269 -0.200599104
vn 0.843046844 0.285973042 0.35632062
vn 0.835906863 0.255665839 -0.264750242
vn -0.477384269 0.369397342 -0.594035625
vn -0.253151149 0.792778254 -0.0357190259
vn 0.554595828 0.408000052 -0.473558843
vn -0.253151149 0.792778254 -0.0357190259
vn -0.576299191 -0.594679177 -0.288001657
vn -0.730652988 -0.465834677 0.225855678
vn -0.863734961 -0.0648077279 0.210348725
vn -0.865397573 -0.36505276 -0.020563731
vn -0.364931673 -0.118109234 0.81029284
vn -0.554760158 0.0573223308 -0.833540738
vn -0.625545025 0.333583325 -0.855247498
vn 0.10829208 0.0467251055 -0.973430812
vn -0.863734961 -0.0648077279 0.210348725
vn -0.807752967 -0.294994205 -0.174270615
vn -0.865397573 -0.36505276 -0.020563731
vn 0.614578724 0.194878757 -0.718675077
vn 0.75204581 -0.237758636 -0.330717295
vn 0.1259868 -0.0239406191 -0.953899801
vn -0.257856727 -0.0600006767 -0.986522794
vn -0.554760158 0.0573223308 -0.833540738
vn 0.10829208 0.0467251055 -0.973430812
vn -0.438463539 0.116228119 0.901749313
vn -0.488615513 -0.124304771 0.732893825
vn 0.64116919 0.157199323 0.572552443
vn -0.807752967 -0.294994205 -0.174270615
vn -0.111204274 -0.90341419 0.141685918
vn -0.865397573 -0.36505276 -0.020563731
vn -0.821452975 0.114567533 0.577867806
vn -0.438463539 0.116228119 0.901749313
vn -0.910813928 0.171271101 0.387434721
vn 0.554595828 0.408000052 -0.473558843
vn 0.688569248 0.575836182 0.162772477
vn 0.814010084 -0.511646628 -0.0169904083
vn -0.576299191 -0.594679177 -0.288001657
vn 0.780080199 -0.433728456 -0.515859663
vn 0.814010084 -0.511646628 -0.0169904083
vn -0.488615513 -0.124304771 0.732893825
vn -0.478614062 -0.896529317 0.100565866
vn -0.124127954 -0.983767867 0.102076754
vn 0.688569248 0.575836182 0.162772477
vn 0.554595828 0.408000052 -0.473558843
vn -0.253151149 0.792778254 -0.0357190259
vn -0.478614062 -0.896529317 0.100565866
vn -0.533063948 -0.702133536 -0.497653991
vn -0.115228385 -0.932448685 -0.312778562
vn -0.111204274 -0.90341419 0.141685918
vn 0.75204581 -0.237758636 -0.330717295
vn 0.934676707 0.016949432 0.153345078
vn -0.807752967 -0.294994205 -0.174270615
vn 0.75204581 -0.237758636 -0.330717295
vn -0.111204274 -0.90341419 0.141685918
vn -0.576299191 -0.594679177 -0.288001657
vn 0.422591716 -0.761363745 0.386342674
vn -0.730652988 -0.465834677 0.225855678
vn -0.561101437 0.411904663 -0.532059491
vn -0.932031929 0.166685417 0.0556683354
vn 0.921691537 0.337315053 -0.0473802947
vn -0.563495159 0.524166167 0.587205052
vn 0.843046844 0.285973042 0.35632062
vn -0.409291863 0.998328269 -0.200599104
vn -0.675784945 0.102310285 -0.756282687
vn -0.533063948 -0.702133536 -0.497653991
vn -0.92897135 -0.0225230549 -0.337983608
vn -0.563495159 0.524166167 0.587205052
vn -0.409291863 0.998328269 -0.200599104
vn -0.944915235 0.463931769 0.0867760703
vn 0.607286692 -0.613004684 0.173463598
vn 0.959191978 -0.0127470409 -0.118959092
vn 0.998527169 0.150261834 0.0349449255
vn -0.438463539 0.116228119 0.901749313
vn -0.821452975 0.114567533 0.577867806
vn -0.488615513 -0.124304771 0.732893825
vn -0.807752967 -0.294994205 -0.174270615
vn -0.687977076 0.0512772202 -0.486595958
vn 0.1259868 -0.0239406191 -0.953899801
vn -0.932031929 0.166685417 0.0556683354
vn -0.561101437 0.411904663 -0.532059491
vn -0.687977076 0.0512772202 -0.486595958
vn -0.675784945 0.102310285 -0.756282687
vn -0.554760158 0.0573223308 -0.833540738
vn -0.257856727 -0.0600006767 -0.986522794
vn -0.364931673 -0.118109234 0.81029284
vn -0.865397573 -0.36505276 -0.020563731
vn -0.111204274 -0.90341419 0.141685918
vn -0.253151149 0.792778254 -0.0357190259
vn -0.477384269 0.369397342 -0.594035625
vn -0.576299191 -0.594679177 -0.288001657
vn 0.27341035 -0.443044811 0.778532982
vn -0.488615513 -0.124304771 0.732893825
vn -0.124127954 -0.983767867 0.102076754
vn 0.614578724 0.194878757 -0.718675077
vn -0.561101437 0.411904663 -0.532059491
vn 0.921691537 0.337315053 -0.0473802947
vn 0.554595828 0.408000052 -0.473558843
vn 0.780080199 -0.433728456 -0.515859663
vn -0.576299191 -0.594679177 -0.288001657
vn 0.688569248 0.575836182 0.162772477
vn -0.253151149 0.792778254 -0.0357190259
vn -0.448303878 0.442935288 0.420383394
g Group29732
f 31/1/1 16/2/2 30/3/3
f 15/4/4 27/5/5 21/6/6
f 27/7/7 15/8/8 23/9/9
f 19/10/10 20/11/11 32/12/12
f 27/13/13 33/14/14 38/15/15
f 37/16/16 36/17/17 18/18/18
f 20/19/19 28/20/20 34/21/21
f 40/22/22 29/23/23 35/24/24
f 30/25/25 32/26/26 55/27/27
f 38/28/28 21/29/29 27/30/30
f 45/31/31 43/32/32 48/33/33
f 52/34/34 51/35/35 48/36/36
f 4/37/37 1/38/38 3/39/39
f 28/40/40 23/41/41 34/42/42
f 51/43/43 52/44/44 49/45/45
f 44/46/46 54/47/47 47/48/48
f 50/49/49 54/50/50 49/51/51
f 53/52/52 45/53/53 51/54/54
f 47/55/55 49/56/56 52/57/57
f 46/58/58 48/59/59 51/60/60
f 46/61/61 45/62/62 48/63/63
f 3/64/64 11/65/65 12/66/66
f 1/67/67 11/68/68 3/69/69
f 11/70/70 1/71/71 10/72/72
f 31/73/73 17/74/74 16/75/75
f 32/76/76 35/77/77 55/78/78
f 55/79/79 35/80/80 29/81/81
f 22/82/82 31/83/83 30/84/84
f 13/85/85 41/86/86 6/87/87
f 26/88/88 19/89/89 16/90/90
f 39/91/91 40/92/92 56/93/93
f 37/94/94 38/95/95 31/96/96
f 38/97/97 17/98/98 31/99/99
f 10/100/100 6/101/101 7/102/102
f 7/103/103 41/104/104 5/105/105
f 18/106/106 21/107/107 37/108/108
f 2/109/109 8/110/110 5/111/111
f 32/112/112 34/113/113 35/114/114
f 53/115/115 51/116/116 49/117/117
f 39/118/118 36/119/119 40/120/120
f 39/121/121 24/122/122 36/123/123
f 19/124/124 28/125/125 20/126/126
f 56/127/127 40/128/128 35/129/129
f 37/130/130 31/131/131 25/132/132
f 29/133/133 40/134/134 22/135/135
f 13/136/136 2/137/137 5/138/138
f 3/139/139 9/140/140 8/141/141
f 33/142/142 17/143/143 38/144/144
f 17/145/145 33/146/146 26/147/147
f 22/148/148 25/149/149 31/150/150
f 3/151/151 8/152/152 4/153/153
f 20/154/154 34/155/155 32/156/156
f 11/157/157 10/158/158 7/159/159
f 2/160/160 10/161/161 1/162/162
f 56/163/163 34/164/164 23/165/165
f 24/166/166 56/167/167 23/168/168
f 27/169/169 23/170/170 28/171/171
f 2/172/172 4/173/173 8/174/174
f 3/175/175 12/176/176 9/177/177
f 45/178/178 46/179/179 51/180/180
f 24/181/181 18/182/182 36/183/183
f 14/184/184 13/185/185 6/186/186
f 24/187/187 39/188/188 56/189/189
f 2/190/190 1/191/191 4/192/192
f 37/193/193 21/194/194 38/195/195
f 16/196/196 19/197/197 32/198/198
f 15/199/199 24/200/200 23/201/201
f 44/202/202 43/203/203 54/204/204
f 43/205/205 47/206/206 48/207/207
f 11/208/208 42/209/209 12/210/210
f 33/211/211 27/212/212 28/213/213
f 11/214/214 7/215/215 42/216/216
f 13/217/217 5/218/218 41/219/219
f 19/220/220 33/221/221 28/222/222
f 36/223/223 22/224/224 40/225/225
f 7/226/226 9/227/227 42/228/228
f 25/229/229 36/230/230 37/231/231
f 54/232/232 53/233/233 49/234/234
f 47/235/235 50/236/236 49/237/237
f 22/238/238 30/239/239 55/240/240
f 53/241/241 54/242/242 43/243/243
f 30/244/244 16/245/245 32/246/246
f 9/247/247 5/248/248 8/249/249
f 7/250/250 5/251/251 9/252/252
f 47/253/253 52/254/254 48/255/255
f 14/256/256 10/257/257 2/258/258
f 18/259/259 24/260/260 15/261/261
f 26/262/262 16/263/263 17/264/264
f 18/265/265 15/266/266 21/267/267
f 35/268/268 34/269/269 56/270/270
f 36/271/271 25/272/272 22/273/273
f 7/274/274 6/275/275 41/276/276
f 10/277/277 14/278/278 6/279/279
f 26/280/280 33/281/281 19/282/282
f 12/283/283 42/284/284 9/285/285
f 43/286/286 44/287/287 47/288/288
f 29/289/289 22/290/290 55/291/291
f 13/292/292 14/293/293 2/294/294
f 54/295/295 50/296/296 47/297/297
f 53/298/298 43/299/299 45/300/300
