# File exported by Houdini 16.5.405 (www.sidefx.com)
# 139 points
# 798 vertices
# 266 primitives
# Bounds: [-33.5365982, -1.41010582, -29.8194904] to [33.6366997, 128.516876, 30.129961]
g 
v 12.6102829 110.869423 11.3616943
v 15.4296856 95.4722672 14.8887739
v 9.72392464 102.649406 16.3615723
v 9.65791225 116.548393 -3.42261124
v 4.71491718 113.889877 13.9666834
v 19.1447372 109.823883 -9.7144928
v 17.2020607 112.944931 -14.9310608
v 21.6352043 71.4436111 17.1233368
v 26.3042355 46.6348114 20.9546051
v 18.9374485 110.539215 -2.13225913
v 25.2246571 41.8846283 -26.3568573
v 4.31380081 84.4210205 -24.0294037
v 5.67222071 56.3898163 -26.9894447
v 31.4091568 31.1563416 14.9510098
v 29.6403255 30.5722103 17.8272038
v 24.2503948 59.2422981 -24.535305
v 20.5953102 29.5840702 23.4431458
v -1.0802176 117.878433 9.11318588
v 1.94287062 73.4549942 20.9020748
v 4.34250021 52.1699448 23.6423149
v 19.977272 99.5011902 -20.9614468
v 18.4457035 100.006371 8.21425152
v -0.161840796 102.065628 17.2578239
v 8.82887459 114.71508 -19.8410072
v 25.0371094 31.9112587 -26.3756313
v 14.0298719 80.7439575 18.0963135
v 3.82169795 100.658516 -22.1891346
v 2.32255769 117.28038 -11.7546186
v -13.7286568 127.788193 -16.271368
v -23.9411278 2.25928521 -20.8522778
v -32.8591232 11.5499992 -17.1124992
v -12.6997843 123.638054 12.2859907
v -1.3722719 5.37790346 -29.4208336
v 3.32057405 1.70756078 -27.3519573
v -16.1306057 127.412056 -13.6621799
v -21.3901615 121.566071 -13.4738636
v -19.4190674 24.9555264 27.1803684
v -0.133429393 123.170265 -21.5010204
v -1.49161482 127.562569 -17.0036583
v -16.2913342 128.048111 -7.01258898
v -18.4245396 124.079483 0.545903802
v -1.53238416 128.516876 -0.380560488
v -4.92753077 124.207695 15.0380297
v -18.9664059 40.1050911 23.5945873
v -30.2725143 12.7102222 -21.4632874
v -27.6996212 33.6100998 -21.8565006
v -18.5452805 120.922523 -18.0136662
v -11.3218241 122.428375 -21.4558353
v 4.47521782 37.4275589 -27.9677868
v -3.23004484 1.49564922 26.8763447
v -24.5621815 -1.08610177 -6.01024628
v -32.2649231 7.46955442 -5.16023779
v -24.6919365 5.34500313 22.3061581
v -8.40104198 -1.23163927 -23.1586571
v -15.9234056 69.6747437 20.5608578
v -21.4336052 7.51932001 27.9017296
v 0.746498346 93.7221985 -24.7836609
v -26.6786308 61.1559639 -18.9467773
v -12.172864 115.158112 15.3233442
v 2.17180276 60.9187851 -26.7381878
v 3.46478319 74.682869 -22.0735264
v 9.8050518 -1.16698456 -16.6378841
v 9.9404335 -1.38091326 10.6603479
v -28.9919891 4.4782424 4.90247726
v -12.9386101 95.6099548 18.57757
v -18.4146595 106.629318 9.40768051
v -23.5675468 99.9019394 -17.7055683
v -23.130619 76.9530563 -20.5190926
v 5.97433996 0.873040318 23.1883907
v -10.3913012 106.183678 18.6283932
v -2.47855973 95.7456894 21.2406826
v 9.20620346 4.67907476 21.9200935
v -1.68924415 63.539772 23.4315872
v 5.3580699 5.59684372 27.4875317
v 7.44373131 11.105526 -28.9339085
v -0.26033479 -1.32590234 -23.2966766
v 7.26870298 38.0038795 -27.8490772
v 7.16850376 36.7566147 -12.0941172
v 29.4894199 31.6076012 -8.16444492
v 25.8416252 28.3396454 12.8368359
v 21.0343132 32.6405258 -28.5672951
v 6.80351591 34.5092697 15.196353
v 8.62318516 36.008213 24.2925835
v 5.83446741 35.5138359 7.43840885
v 2.32096601 111.117371 -19.2156506
v 6.62544346 6.94767952 26.0914383
v -0.324362397 67.3682022 21.7709579
v 4.83183432 27.3933353 25.7687073
v 9.56310558 2.55913472 -23.6582661
v 1.26641059 50.6343079 24.8354721
v 7.81860876 33.1261787 -15.5181875
v 13.2398233 31.1302757 -28.7058239
v 11.3976021 33.1215286 23.4365044
v 7.35780907 28.7960949 25.4185848
v 9.48225594 8.83903313 26.1922741
v 9.91795635 -1.40424275 -24.6931839
v 9.97117901 -1.41010582 13.5015888
v 11.0625696 0.0260361545 20.0753994
v 7.2345295 32.2713165 -1.46544671
v 9.91593266 34.1208305 6.78918171
v 7.32001638 29.2596798 -28.7538185
v 6.96915722 33.1668549 18.1564255
v 9.75541401 0.253327191 -27.126173
v 9.42636776 4.80798864 -29.8194904
v 30.6133156 2.52847576 -10.2415581
v 23.1471081 2.2583189 -25.7026119
v 27.8132992 7.22200489 -24.8426628
v 19.2589874 29.3442612 24.2075195
v 28.837923 14.5102911 21.0606747
v 20.6164227 -0.937903881 14.3034973
v 22.1793995 0.0358405039 -24.1572266
v 28.3167019 -0.942344427 2.62216687
v 29.1418438 0.184968248 -5.73433256
v 26.8042736 9.91819859 -28.7522888
v 33.6366997 8.12842464 4.63742971
v 28.5035763 3.88071012 -21.9847908
v 32.9303894 27.6072388 11.3105917
v 30.9823017 25.7189636 21.1761646
v 26.0310688 28.2657108 -28.4424801
v -12.9941177 64.9339447 22.8957558
v -19.8353558 -1.32079411 -17.3721581
v -16.8523617 -1.30917907 12.5442448
v -24.1233978 69.8989334 7.1250701
v -30.014473 28.206377 3.14589787
v 2.09010506 66.539711 6.31982517
v -15.8763056 14.1420708 30.129961
v 7.77153969 22.7612 11.7874107
v -4.91542482 76.2611923 -26.0791416
v -6.58205986 28.7421741 27.3136311
v 20.7899857 51.9341011 -27.3278656
v 16.8759518 72.4693451 -24.567028
v -33.5365982 12.6096249 1.01727355
v -32.076149 43.2505722 -7.27138662
v -23.4355545 102.106544 1.96778023
v 26.1930904 65.7264786 -4.60539913
v 22.683815 91.3275375 -11.6136246
v -27.4422569 99.9441299 -9.49176216
v -15.3142195 8.86410618 -28.3594551
v 4.30266237 64.7476501 -4.69973755
vt 0.079387702 0.922715247 0
vt 0.124361522 0.886748254 0
vt 0.139910012 0.910899282 0
vt 0.318038315 0.67710793 0
vt 0.366727829 0.704805017 0
vt 0.29562223 0.707591891 0
vt 0.0752304792 0.686970592 0
vt 0.00758234458 0.659533262 0
vt 0.0118951565 0.646260142 0
vt 0.875092149 0.0246200245 0
vt 0.688038468 0.119278647 0
vt 0.791081429 0.0580724254 0
vt 0.924033761 0.0796170682 0
vt 0.925249279 -0.00132470392 0
vt 0.967227399 0.0539206639 0
vt 0.342573792 0.391808569 0
vt 0.36039862 0.423860401 0
vt 0.331630975 0.40314284 0
vt 0.924033761 0.0796170682 0
vt 0.967227399 0.0539206639 0
vt 0.958479822 0.111848101 0
vt 0.0357599594 0.226585045 0
vt 0.0176239312 0.238100201 0
vt 0.00660179649 0.180319354 0
vt 0.425262451 0.262390375 0
vt 0.446074456 0.230455026 0
vt 0.456926674 0.251249045 0
vt 0.447991639 0.435274005 0
vt 0.419143945 0.452481359 0
vt 0.441218168 0.387236625 0
vt 0.00724898651 0.333872706 0
vt 0.0299150273 0.345885694 0
vt 0.00462371763 0.377109677 0
vt 0.957575977 0.365953416 0
vt 0.97434926 0.346201539 0
vt 0.994017422 0.399115294 0
vt 0.435561091 0.291422904 0
vt 0.425262451 0.262390375 0
vt 0.468973815 0.313700736 0
vt 0.453900427 0.470166922 0
vt 0.648360431 0.47894609 0
vt 0.546995759 0.488694936 0
vt 0.449187875 0.506179214 0
vt 0.487050653 0.525007606 0
vt 0.402051955 0.509342968 0
vt 0.556274772 0.321486145 0
vt 0.617948771 0.350643188 0
vt 0.530638337 0.3697896 0
vt 0.840249479 0.489093393 0
vt 0.718182445 0.494598895 0
vt 0.648360431 0.47894609 0
vt 0.368799061 0.328782082 0
vt 0.342573792 0.391808569 0
vt 0.343194932 0.338672459 0
vt 0.566942334 0.548705339 0
vt 0.498746455 0.603352249 0
vt 0.500279307 0.555972457 0
vt 0.906667054 0.544102311 0
vt 0.888496637 0.523136079 0
vt 0.927965641 0.498640984 0
vt 0.996255457 0.653247416 0
vt 0.993534088 0.532244205 0
vt 0.999211371 0.56646049 0
vt 0.0404719561 0.254712671 0
vt 0.0176239312 0.238100201 0
vt 0.0357599594 0.226585045 0
vt 0.419013023 0.0081501184 0
vt 0.545812428 0.0206554346 0
vt 0.494138509 0.0324281529 0
vt 0.0460771061 0.246745139 0
vt 0.0404719561 0.254712671 0
vt 0.0357599594 0.226585045 0
vt 0.0523566976 0.00422266964 0
vt 0.335809469 0.0237811487 0
vt 0.0153567046 0.030178288 0
vt 0.0523566976 0.00422266964 0
vt 0.169847205 0.00203435076 0
vt 0.335809469 0.0237811487 0
vt 0.121442102 0.367001593 0
vt 0.0299150273 0.345885694 0
vt 0.037032146 0.340163559 0
vt 0.135081857 0.242684528 0
vt 0.0460771061 0.246745139 0
vt 0.0357599594 0.226585045 0
vt 0.0354430899 0.865489066 0
vt -0.00252985279 0.858823121 0
vt 0.0167330969 0.841847777 0
vt 0.278163612 0.908866167 0
vt 0.290520996 0.911042988 0
vt 0.287747562 0.968214869 0
vt 0.588153958 0.129252523 0
vt 0.582342029 0.0740069225 0
vt 0.600062132 0.124475904 0
vt 0.242023602 0.89668119 0
vt 0.258532107 0.886300564 0
vt 0.278163612 0.908866167 0
vt 0.570964277 0.0703093708 0
vt 0.576325774 0.0408807285 0
vt 0.582342029 0.0740069225 0
vt 0.645394444 0.0160655733 0
vt 0.576325774 0.0408807285 0
vt 0.622092247 0.0140185505 0
vt 0.29537335 0.931843042 0
vt 0.304179013 0.902528107 0
vt 0.319649607 0.915709794 0
vt 0.234501928 0.331686199 0
vt 0.187614456 0.30641821 0
vt 0.345626593 0.325675368 0
vt 0.513280332 0.904003739 0
vt 0.503091276 0.796428978 0
vt 0.513728023 0.77586925 0
vt 0.0354430899 0.865489066 0
vt 0.0862053856 0.859084368 0
vt 0.119929507 0.877119064 0
vt 0.899935365 0.748052478 0
vt 0.97607404 0.817307055 0
vt 0.819904923 0.782594264 0
vt 0.880755186 0.536414862 0
vt 0.91468966 0.715335131 0
vt 0.893188 0.636609912 0
vt 0.852686763 0.266842663 0
vt 0.701968491 0.246562079 0
vt 0.860908747 0.152534053 0
vt 0.536795735 0.194372445 0
vt 0.456926674 0.251249045 0
vt 0.446074456 0.230455026 0
vt 0.0299150273 0.345885694 0
vt 0.0451081097 0.441797763 0
vt 0.00462371763 0.377109677 0
vt 0.217839718 0.404447317 0
vt 0.271808863 0.428609729 0
vt 0.26771751 0.479703844 0
vt 0.718182445 0.494598895 0
vt 0.546995759 0.488694936 0
vt 0.648360431 0.47894609 0
vt 0.719691575 0.908486426 0
vt 0.633832395 0.910423338 0
vt 0.690392077 0.758931935 0
vt 0.494496733 0.531435668 0
vt 0.489095569 0.614068329 0
vt 0.44534874 0.523735464 0
vt 0.318038315 0.67710793 0
vt 0.29562223 0.707591891 0
vt 0.186726257 0.693157792 0
vt 0.286245644 0.499314994 0
vt 0.449187875 0.506179214 0
vt 0.402051955 0.509342968 0
vt 0.419013023 0.0081501184 0
vt 0.494138509 0.0324281529 0
vt 0.335809469 0.0237811487 0
vt 0.503097534 0.849060416 0
vt 0.493654847 0.93207401 0
vt 0.431529909 0.927065611 0
vt 0.648226023 0.39476195 0
vt 0.441218168 0.387236625 0
vt 0.569579005 0.374504477 0
vt 0.572251737 0.918267488 0
vt 0.513280332 0.904003739 0
vt 0.633832395 0.910423338 0
vt 0.0902788267 0.309535235 0
vt 0.234501928 0.331686199 0
vt 0.12525557 0.328982413 0
vt 0.147103786 0.951510429 0
vt 0.162313119 0.896721959 0
vt 0.154382318 0.978435397 0
vt 0.154382318 0.978435397 0
vt 0.162313119 0.896721959 0
vt 0.26399821 0.971195698 0
vt 0.283478528 0.893182099 0
vt 0.275446475 0.809578419 0
vt 0.304179013 0.902528107 0
vt 0.304179013 0.902528107 0
vt 0.275446475 0.809578419 0
vt 0.432660401 0.880775332 0
vt 0.70818615 0.723641753 0
vt 0.729924023 0.656488538 0
vt 0.864853859 0.644029617 0
vt 0.444523633 0.728259504 0
vt 0.353103608 0.742071092 0
vt 0.411691457 0.710672617 0
vt 0.47898674 0.663639247 0
vt 0.424843609 0.658815682 0
vt 0.489095569 0.614068329 0
vt 0.424843609 0.658815682 0
vt 0.387019515 0.6639691 0
vt 0.376714885 0.638956428 0
vt 0.97434926 0.346201539 0
vt 0.932738066 0.328622252 0
vt 0.97543627 0.313727528 0
vt 0.600062132 0.124475904 0
vt 0.681221008 0.00660782401 0
vt 0.741976917 0.0186844971 0
vt 0.741976917 0.0186844971 0
vt 0.781212926 0.0478779301 0
vt 0.755903244 0.0634507462 0
vt 0.416686237 0.56035918 0
vt 0.44534874 0.523735464 0
vt 0.489095569 0.614068329 0
vt 0.747253537 0.800337911 0
vt 0.719691575 0.908486426 0
vt 0.690392077 0.758931935 0
vt 0.000562408648 0.0616416782 0
vt 0.0153567046 0.030178288 0
vt 0.0357599594 0.226585045 0
vt 0.637346089 0.532695651 0
vt 0.498746455 0.603352249 0
vt 0.566942334 0.548705339 0
vt 0.121442102 0.367001593 0
vt 0.217839718 0.404447317 0
vt 0.0299150273 0.345885694 0
vt 0.217839718 0.404447317 0
vt 0.26771751 0.479703844 0
vt 0.115837365 0.417474151 0
vt 0.187614456 0.30641821 0
vt 0.207823291 0.245958567 0
vt 0.30399996 0.235832125 0
vt 0.0902788267 0.309535235 0
vt 0.207823291 0.245958567 0
vt 0.187614456 0.30641821 0
vt 0.207823291 0.245958567 0
vt 0.0902788267 0.309535235 0
vt 0.0827059671 0.267343014 0
vt 0.23854053 0.236262634 0
vt 0.135081857 0.242684528 0
vt 0.312280059 0.220075548 0
vt 0.648226023 0.39476195 0
vt 0.569579005 0.374504477 0
vt 0.71426934 0.360011578 0
vt 0.648226023 0.39476195 0
vt 0.71426934 0.360011578 0
vt 0.817764103 0.344867676 0
vt 0.924033761 0.0796170682 0
vt 0.888444662 0.0415256247 0
vt 0.925249279 -0.00132470392 0
vt 0.701968491 0.246562079 0
vt 0.782413006 0.136727378 0
vt 0.860908747 0.152534053 0
vt 0.169847205 0.00203435076 0
vt 0.275061518 0.00300096464 0
vt 0.335809469 0.0237811487 0
vt 0.335809469 0.0237811487 0
vt 0.111525901 0.181583926 0
vt 0.0153567046 0.030178288 0
vt 0.648226023 0.39476195 0
vt 0.817764103 0.344867676 0
vt 0.957575977 0.365953416 0
vt 0.468973815 0.313700736 0
vt 0.456926674 0.251249045 0
vt 0.562943101 0.277690291 0
vt 0.530638337 0.3697896 0
vt 0.489305228 0.369668484 0
vt 0.556274772 0.321486145 0
vt 0.513728023 0.77586925 0
vt 0.524163246 0.768068492 0
vt 0.690392077 0.758931935 0
vt 0.976689577 0.852972627 0
vt 0.828070641 0.898697257 0
vt 0.819904923 0.782594264 0
vt 0.819904923 0.782594264 0
vt 0.828070641 0.898697257 0
vt 0.772090971 0.880741477 0
vt 0.345626593 0.325675368 0
vt 0.30399996 0.235832125 0
vt 0.376677245 0.241582006 0
vt 0.989638269 0.185148463 0
vt 0.924033761 0.0796170682 0
vt 0.958479822 0.111848101 0
vt 0.9150666 0.111023113 0
vt 0.888444662 0.0415256247 0
vt 0.924033761 0.0796170682 0
vt 0.423023939 0.793699503 0
vt 0.444523633 0.728259504 0
vt 0.503449619 0.788562775 0
vt 0.424843609 0.658815682 0
vt 0.376714885 0.638956428 0
vt 0.416686237 0.56035918 0
vt 0.840249479 0.489093393 0
vt 0.944576681 0.424972385 0
vt 0.932284653 0.496133447 0
vt 0.922625363 0.252197564 0
vt 0.860908747 0.152534053 0
vt 0.9150666 0.111023113 0
vt 0.989638269 0.185148463 0
vt 0.994014859 0.215786621 0
vt 0.9150666 0.111023113 0
vt 0.23442623 0.725097537 0
vt 0.353103608 0.742071092 0
vt 0.299005836 0.795924187 0
vt 0.318038315 0.67710793 0
vt 0.186726257 0.693157792 0
vt 0.370574415 0.639888167 0
vt 0.932284653 0.496133447 0
vt 0.944576681 0.424972385 0
vt 0.979344726 0.468390882 0
vt 0.312280059 0.220075548 0
vt 0.135081857 0.242684528 0
vt 0.111525901 0.181583926 0
vt 0.436536491 0.211569786 0
vt 0.312280059 0.220075548 0
vt 0.29445225 0.102340296 0
vt 0.562943101 0.277690291 0
vt 0.555847645 0.227278665 0
vt 0.782413006 0.136727378 0
vt 0.555847645 0.227278665 0
vt 0.888444662 0.0415256247 0
vt 0.782413006 0.136727378 0
vt 0.507436454 0.696235776 0
vt 0.637346089 0.532695651 0
vt 0.75750035 0.506745696 0
vt 0.447991639 0.435274005 0
vt 0.648360431 0.47894609 0
vt 0.453900427 0.470166922 0
vt 0.996255457 0.653247416 0
vt 0.931632638 0.724263906 0
vt 0.91468966 0.715335131 0
vt 0.489305228 0.369668484 0
vt 0.468973815 0.313700736 0
vt 0.556274772 0.321486145 0
vt 0.177327842 0.591953814 0
vt 0.0118951565 0.646260142 0
vt 0.0339959003 0.55003655 0
vt 0.976689577 0.852972627 0
vt 0.948158979 0.897397101 0
vt 0.828070641 0.898697257 0
vt 0.600062132 0.124475904 0
vt 0.645394444 0.0160655733 0
vt 0.681221008 0.00660782401 0
vt 0.819904923 0.782594264 0
vt 0.772090971 0.880741477 0
vt 0.755826175 0.840451479 0
vt 0.294614255 0.583497703 0
vt 0.177327842 0.591953814 0
vt 0.166853711 0.499520034 0
vt 0.49629429 0.79920578 0
vt 0.503097534 0.849060416 0
vt 0.432660401 0.880775332 0
vt 0.411255717 0.462960422 0
vt 0.26771751 0.479703844 0
vt 0.271808863 0.428609729 0
vt 0.0167330969 0.841847777 0
vt 0.0372012593 0.751919985 0
vt 0.0825949907 0.752532959 0
vt 0.23442623 0.725097537 0
vt 0.299005836 0.795924187 0
vt 0.227096826 0.795370698 0
vt 0.411255717 0.462960422 0
vt 0.531956077 0.50110513 0
vt 0.449187875 0.506179214 0
vt 0.957575977 0.365953416 0
vt 0.817764103 0.344867676 0
vt 0.932738066 0.328622252 0
vt 0.111525901 0.181583926 0
vt 0.135081857 0.242684528 0
vt 0.0357599594 0.226585045 0
vt 0.562943101 0.277690291 0
vt 0.782413006 0.136727378 0
vt 0.701968491 0.246562079 0
vt 0.701968491 0.246562079 0
vt 0.556274772 0.321486145 0
vt 0.562943101 0.277690291 0
vt 0.0299150273 0.345885694 0
vt 0.115837365 0.417474151 0
vt 0.0451081097 0.441797763 0
vt 0.993534088 0.532244205 0
vt 0.906667054 0.544102311 0
vt 0.927965641 0.498640984 0
vt 0.270426542 0.342216313 0
vt 0.302948803 0.404984534 0
vt 0.201649532 0.363760293 0
vt 0.242023602 0.89668119 0
vt 0.278163612 0.908866167 0
vt 0.287747562 0.968214869 0
vt 0.0871223733 0.468739748 0
vt 0.286245644 0.499314994 0
vt 0.153973415 0.484914988 0
vt 0.97607404 0.817307055 0
vt 0.976689577 0.852972627 0
vt 0.819904923 0.782594264 0
vt 0.97607404 0.817307055 0
vt 0.998004258 0.869689167 0
vt 0.976689577 0.852972627 0
vt 0.0902788267 0.309535235 0
vt 0.12525557 0.328982413 0
vt 0.0551899597 0.336221337 0
vt 0.0551899597 0.336221337 0
vt 0.0361336321 0.301094592 0
vt 0.0902788267 0.309535235 0
vt 0.860908747 0.152534053 0
vt 0.782413006 0.136727378 0
vt 0.9150666 0.111023113 0
vt 0.338769227 0.550322771 0
vt 0.294614255 0.583497703 0
vt 0.166853711 0.499520034 0
vt 0.345626593 0.325675368 0
vt 0.412814438 0.287274718 0
vt 0.416891366 0.333256781 0
vt 0.393589616 0.925011575 0
vt 0.372873127 0.914340317 0
vt 0.431529909 0.927065611 0
vt 0.319649607 0.915709794 0
vt 0.432660401 0.880775332 0
vt 0.372873127 0.914340317 0
vt 0.271808863 0.428609729 0
vt 0.291076005 0.425441712 0
vt 0.411255717 0.462960422 0
vt 0.688038468 0.119278647 0
vt 0.888444662 0.0415256247 0
vt 0.536795735 0.194372445 0
vt 0.888444662 0.0415256247 0
vt 0.688038468 0.119278647 0
vt 0.875092149 0.0246200245 0
vt 0.0862053856 0.859084368 0
vt 0.0354430899 0.865489066 0
vt 0.0167330969 0.841847777 0
vt 0.74957782 0.886886239 0
vt 0.719691575 0.908486426 0
vt 0.747253537 0.800337911 0
vt 0.0357599594 0.226585045 0
vt 0.00660179649 0.180319354 0
vt 0.000562408648 0.0616416782 0
vt 0.755826175 0.840451479 0
vt 0.744771242 0.756113052 0
vt 0.772628844 0.743587554 0
vt 0.944576681 0.424972385 0
vt 0.648226023 0.39476195 0
vt 0.957575977 0.365953416 0
vt 0.0361336321 0.301094592 0
vt 0.0827059671 0.267343014 0
vt 0.0902788267 0.309535235 0
vt 0.186726257 0.693157792 0
vt 0.0752304792 0.686970592 0
vt 0.0118951565 0.646260142 0
vt 0.922625363 0.252197564 0
vt 0.852686763 0.266842663 0
vt 0.860908747 0.152534053 0
vt 0.186726257 0.693157792 0
vt 0.0118951565 0.646260142 0
vt 0.370574415 0.639888167 0
vt 0.998004258 0.869689167 0
vt 0.948158979 0.897397101 0
vt 0.976689577 0.852972627 0
vt 0.729924023 0.656488538 0
vt 0.507436454 0.696235776 0
vt 0.75750035 0.506745696 0
vt 0.26399821 0.971195698 0
vt 0.242023602 0.89668119 0
vt 0.287747562 0.968214869 0
vt 0.5275594 0.729788244 0
vt 0.444523633 0.728259504 0
vt 0.488135844 0.708848357 0
vt 0.444523633 0.728259504 0
vt 0.5275594 0.729788244 0
vt 0.503449619 0.788562775 0
vt 0.949527621 0.76799047 0
vt 0.97607404 0.817307055 0
vt 0.899935365 0.748052478 0
vt 0.0921391174 0.478021026 0
vt 0.166853711 0.499520034 0
vt 0.0339959003 0.55003655 0
vt 0.782413006 0.136727378 0
vt 0.888444662 0.0415256247 0
vt 0.9150666 0.111023113 0
vt 0.772628844 0.743587554 0
vt 0.849374652 0.722156405 0
vt 0.899935365 0.748052478 0
vt 0.079387702 0.922715247 0
vt 0.0103868181 0.942187905 0
vt 0.00176672731 0.904498994 0
vt 0.234501928 0.331686199 0
vt 0.0902788267 0.309535235 0
vt 0.187614456 0.30641821 0
vt 0.29445225 0.102340296 0
vt 0.335809469 0.0237811487 0
vt 0.494138509 0.0324281529 0
vt 0.573086917 0.110662512 0
vt 0.29445225 0.102340296 0
vt 0.494138509 0.0324281529 0
vt 0.447991639 0.435274005 0
vt 0.441218168 0.387236625 0
vt 0.648226023 0.39476195 0
vt 0.449187875 0.506179214 0
vt 0.286245644 0.499314994 0
vt 0.26771751 0.479703844 0
vt 0.411255717 0.462960422 0
vt 0.449187875 0.506179214 0
vt 0.26771751 0.479703844 0
vt 0.353103608 0.742071092 0
vt 0.444523633 0.728259504 0
vt 0.299005836 0.795924187 0
vt 0.177327842 0.591953814 0
vt 0.370574415 0.639888167 0
vt 0.0118951565 0.646260142 0
vt 0.294614255 0.583497703 0
vt 0.370574415 0.639888167 0
vt 0.177327842 0.591953814 0
vt 0.181580126 0.882488489 0
vt 0.119929507 0.877119064 0
vt 0.0862053856 0.859084368 0
vt 0.345626593 0.325675368 0
vt 0.376677245 0.241582006 0
vt 0.412814438 0.287274718 0
vt 0.424843609 0.658815682 0
vt 0.416686237 0.56035918 0
vt 0.489095569 0.614068329 0
vt 0.957575977 0.365953416 0
vt 0.932738066 0.328622252 0
vt 0.97434926 0.346201539 0
vt 0.531956077 0.50110513 0
vt 0.487050653 0.525007606 0
vt 0.449187875 0.506179214 0
vt 0.166152194 0.770220935 0
vt 0.23442623 0.725097537 0
vt 0.227096826 0.795370698 0
vt 0.275061518 0.00300096464 0
vt 0.419013023 0.0081501184 0
vt 0.335809469 0.0237811487 0
vt 0.573086917 0.110662512 0
vt 0.436536491 0.211569786 0
vt 0.29445225 0.102340296 0
vt 0.241769835 0.892707765 0
vt 0.181580126 0.882488489 0
vt 0.241757691 0.866596699 0
vt 0.139910012 0.910899282 0
vt 0.143295363 0.953979015 0
vt 0.079387702 0.922715247 0
vt 0.00176672731 0.904498994 0
vt 0.124361522 0.886748254 0
vt 0.079387702 0.922715247 0
vt 0.124361522 0.886748254 0
vt 0.0275201667 0.874335825 0
vt 0.0931177661 0.874755621 0
vt 0.304179013 0.902528107 0
vt 0.432660401 0.880775332 0
vt 0.319649607 0.915709794 0
vt 0.503097534 0.849060416 0
vt 0.431529909 0.927065611 0
vt 0.432660401 0.880775332 0
vt 0.998004258 0.869689167 0
vt 0.982979536 0.898948371 0
vt 0.948158979 0.897397101 0
vt 0.37301603 0.607067466 0
vt 0.338769227 0.550322771 0
vt 0.392652899 0.587176263 0
vt 0.562943101 0.277690291 0
vt 0.456926674 0.251249045 0
vt 0.536795735 0.194372445 0
vt 0.944576681 0.424972385 0
vt 0.957575977 0.365953416 0
vt 0.994017422 0.399115294 0
vt 0.979344726 0.468390882 0
vt 0.944576681 0.424972385 0
vt 0.994017422 0.399115294 0
vt 0.0361336321 0.301094592 0
vt 0.00516742468 0.278305024 0
vt 0.0827059671 0.267343014 0
vt 0.5275594 0.729788244 0
vt 0.488135844 0.708848357 0
vt 0.531277299 0.710486114 0
vt 0.864853859 0.644029617 0
vt 0.835982502 0.493970037 0
vt 0.85008502 0.560798526 0
vt 0.115837365 0.417474151 0
vt 0.0871223733 0.468739748 0
vt 0.0451081097 0.441797763 0
vt 0.566337466 0.0392791852 0
vt 0.573086917 0.110662512 0
vt 0.545812428 0.0206554346 0
vt 0.494138509 0.0324281529 0
vt 0.545812428 0.0206554346 0
vt 0.573086917 0.110662512 0
vt 0.370574415 0.639888167 0
vt 0.366727829 0.704805017 0
vt 0.318038315 0.67710793 0
vt 0.302948803 0.404984534 0
vt 0.270426542 0.342216313 0
vt 0.343194932 0.338672459 0
vt 0.166853711 0.499520034 0
vt 0.177327842 0.591953814 0
vt 0.0339959003 0.55003655 0
vt 0.241757691 0.866596699 0
vt 0.181580126 0.882488489 0
vt 0.250880301 0.809967101 0
vt 0.7273103 0.311604649 0
vt 0.701968491 0.246562079 0
vt 0.852686763 0.266842663 0
vt 0.296896577 0.230639219 0
vt 0.23854053 0.236262634 0
vt 0.312280059 0.220075548 0
vt 0.0451081097 0.441797763 0
vt 0.0871223733 0.468739748 0
vt 0.0116448589 0.458069265 0
vt 0.124361522 0.886748254 0
vt 0.00176672731 0.904498994 0
vt 0.0275201667 0.874335825 0
vt 0.874287069 0.676808596 0
vt 0.874400496 0.717132986 0
vt 0.802905858 0.72304678 0
vt 0.447991639 0.435274005 0
vt 0.453900427 0.470166922 0
vt 0.419143945 0.452481359 0
vt 0.633832395 0.910423338 0
vt 0.513728023 0.77586925 0
vt 0.690392077 0.758931935 0
vt 0.70818615 0.723641753 0
vt 0.864853859 0.644029617 0
vt 0.802905858 0.72304678 0
vt 0.648360431 0.47894609 0
vt 0.447991639 0.435274005 0
vt 0.648226023 0.39476195 0
vt 0.729924023 0.656488538 0
vt 0.75750035 0.506745696 0
vt 0.864853859 0.644029617 0
vt 0.345626593 0.325675368 0
vt 0.187614456 0.30641821 0
vt 0.30399996 0.235832125 0
vt 0.23442623 0.725097537 0
vt 0.411691457 0.710672617 0
vt 0.353103608 0.742071092 0
vt 0.690392077 0.758931935 0
vt 0.719643474 0.762765288 0
vt 0.747253537 0.800337911 0
vt 0.944576681 0.424972385 0
vt 0.648360431 0.47894609 0
vt 0.648226023 0.39476195 0
vt 0.0116448589 0.458069265 0
vt 0.00462371763 0.377109677 0
vt 0.0451081097 0.441797763 0
vt 0.536795735 0.194372445 0
vt 0.555847645 0.227278665 0
vt 0.562943101 0.277690291 0
vt 0.531956077 0.50110513 0
vt 0.525178015 0.537388921 0
vt 0.487050653 0.525007606 0
vt 0.26771751 0.479703844 0
vt 0.0871223733 0.468739748 0
vt 0.115837365 0.417474151 0
vt 0.555847645 0.227278665 0
vt 0.536795735 0.194372445 0
vt 0.888444662 0.0415256247 0
vt 0.338769227 0.550322771 0
vt 0.37301603 0.607067466 0
vt 0.294614255 0.583497703 0
vt 0.294614255 0.583497703 0
vt 0.37301603 0.607067466 0
vt 0.370574415 0.639888167 0
vt 0.996255457 0.653247416 0
vt 0.906667054 0.544102311 0
vt 0.993534088 0.532244205 0
vt 0.181580126 0.882488489 0
vt 0.0862053856 0.859084368 0
vt 0.0825949907 0.752532959 0
vt 0.7273103 0.311604649 0
vt 0.617948771 0.350643188 0
vt 0.556274772 0.321486145 0
vt 0.431529909 0.927065611 0
vt 0.372873127 0.914340317 0
vt 0.432660401 0.880775332 0
vt 0.967767358 0.746289909 0
vt 0.949527621 0.76799047 0
vt 0.899935365 0.748052478 0
vt 0.275446475 0.809578419 0
vt 0.452548087 0.796065032 0
vt 0.432660401 0.880775332 0
vt 0.989638269 0.185148463 0
vt 0.9150666 0.111023113 0
vt 0.924033761 0.0796170682 0
vt 0.600062132 0.124475904 0
vt 0.582342029 0.0740069225 0
vt 0.645394444 0.0160655733 0
vt 0.772628844 0.743587554 0
vt 0.899935365 0.748052478 0
vt 0.819904923 0.782594264 0
vt 0.0825949907 0.752532959 0
vt 0.250880301 0.809967101 0
vt 0.181580126 0.882488489 0
vt 0.864853859 0.644029617 0
vt 0.75750035 0.506745696 0
vt 0.835982502 0.493970037 0
vt 0.949527621 0.76799047 0
vt 0.967767358 0.746289909 0
vt 0.97607404 0.817307055 0
vt 0.906667054 0.544102311 0
vt 0.91468966 0.715335131 0
vt 0.880755186 0.536414862 0
vt 0.456926674 0.251249045 0
vt 0.468973815 0.313700736 0
vt 0.425262451 0.262390375 0
vt 0.556274772 0.321486145 0
vt 0.468973815 0.313700736 0
vt 0.562943101 0.277690291 0
vt 0.996255457 0.653247416 0
vt 0.91468966 0.715335131 0
vt 0.906667054 0.544102311 0
vt 0.444523633 0.728259504 0
vt 0.411691457 0.710672617 0
vt 0.488135844 0.708848357 0
vt 0.600062132 0.124475904 0
vt 0.741976917 0.0186844971 0
vt 0.755903244 0.0634507462 0
vt 0.580628812 0.723288238 0
vt 0.507436454 0.696235776 0
vt 0.729924023 0.656488538 0
vt 0.9150666 0.111023113 0
vt 0.994014859 0.215786621 0
vt 0.922625363 0.252197564 0
vt 0.0989437252 0.965830386 0
vt 0.0103868181 0.942187905 0
vt 0.079387702 0.922715247 0
vt 0.111525901 0.181583926 0
vt 0.29445225 0.102340296 0
vt 0.312280059 0.220075548 0
vt 0.335809469 0.0237811487 0
vt 0.29445225 0.102340296 0
vt 0.111525901 0.181583926 0
vt 0.452548087 0.796065032 0
vt 0.49629429 0.79920578 0
vt 0.432660401 0.880775332 0
vt 0.216184795 0.397186011 0
vt 0.201649532 0.363760293 0
vt 0.302948803 0.404984534 0
vt 0.875092149 0.0246200245 0
vt 0.925249279 -0.00132470392 0
vt 0.888444662 0.0415256247 0
vt 0.216184795 0.397186011 0
vt 0.302948803 0.404984534 0
vt 0.268131614 0.420318574 0
vt 0.0357599594 0.226585045 0
vt 0.0153567046 0.030178288 0
vt 0.111525901 0.181583926 0
vt 0.26771751 0.479703844 0
vt 0.286245644 0.499314994 0
vt 0.0871223733 0.468739748 0
vt 0.0167330969 0.841847777 0
vt 0.0172679592 0.803837299 0
vt 0.0372012593 0.751919985 0
vt 0.7273103 0.311604649 0
vt 0.556274772 0.321486145 0
vt 0.701968491 0.246562079 0
vt 0.423023939 0.793699503 0
vt 0.299005836 0.795924187 0
vt 0.444523633 0.728259504 0
vt 0.507436454 0.696235776 0
vt 0.498746455 0.603352249 0
vt 0.637346089 0.532695651 0
vt 0.217839718 0.404447317 0
vt 0.115837365 0.417474151 0
vt 0.0299150273 0.345885694 0
vt 0.996255457 0.653247416 0
vt 0.99650979 0.723742902 0
vt 0.931632638 0.724263906 0
vt 0.645394444 0.0160655733 0
vt 0.582342029 0.0740069225 0
vt 0.576325774 0.0408807285 0
vt 0.0921391174 0.478021026 0
vt 0.0339959003 0.55003655 0
vt 0.0490874685 0.469880641 0
vt 0.906667054 0.544102311 0
vt 0.880755186 0.536414862 0
vt 0.888496637 0.523136079 0
vt 0.840249479 0.489093393 0
vt 0.648360431 0.47894609 0
vt 0.944576681 0.424972385 0
vt 0.986983418 0.490805298 0
vt 0.993534088 0.532244205 0
vt 0.927965641 0.498640984 0
vt 0.633832395 0.910423338 0
vt 0.513280332 0.904003739 0
vt 0.513728023 0.77586925 0
vt 0.755826175 0.840451479 0
vt 0.772628844 0.743587554 0
vt 0.819904923 0.782594264 0
vt 0.23442623 0.725097537 0
vt 0.166152194 0.770220935 0
vt 0.169424847 0.727856517 0
vt 0.162313119 0.896721959 0
vt 0.242023602 0.89668119 0
vt 0.26399821 0.971195698 0
vt 0.5588485 0.17985785 0
vt 0.436536491 0.211569786 0
vt 0.573086917 0.110662512 0
vt 0.0825949907 0.752532959 0
vt 0.0862053856 0.859084368 0
vt 0.0167330969 0.841847777 0
vt 0.70818615 0.723641753 0
vt 0.580628812 0.723288238 0
vt 0.729924023 0.656488538 0
vt 0.143295363 0.953979015 0
vt 0.0989437252 0.965830386 0
vt 0.079387702 0.922715247 0
vt 0.802905858 0.72304678 0
vt 0.864853859 0.644029617 0
vt 0.874287069 0.676808596 0
vt 0.343194932 0.338672459 0
vt 0.331630975 0.40314284 0
vt 0.302948803 0.404984534 0
vt 0.343194932 0.338672459 0
vt 0.342573792 0.391808569 0
vt 0.331630975 0.40314284 0
vn 0.475462586 0.896945536 0.113247238
vn 0.631331801 0.725909173 0.0215935633
vn 0.635124505 0.64274925 -0.381068796
vn 0.901266634 0.233652249 0.395736605
vn 0.552584946 0.683594704 0.441964805
vn 0.728317797 0.241127759 0.652491748
vn 0.454276919 0.176877484 0.856770813
vn 0.643015563 -0.508895159 0.584987104
vn 0.955306172 0.0302986503 0.0816641152
vn -0.752968669 0.0226520449 -0.654146016
vn -0.733380675 0.0882043839 -0.674313545
vn -0.528024018 0.0721140802 -0.844634831
vn -0.855864823 -0.536772668 -0.016996989
vn -0.533063948 -0.702133536 -0.497653991
vn -0.423407674 -0.891261697 0.0167906042
vn -0.369328976 0.861230016 -0.431501389
vn -0.685404778 0.263108701 -0.680639744
vn -0.459366679 0.842258096 -0.243789792
vn -0.855864823 -0.536772668 -0.016996989
vn -0.423407674 -0.891261697 0.0167906042
vn -0.704146564 -0.713323891 0.081331715
vn 0.954258442 -0.0764556155 0.279608637
vn 0.413751602 -0.739065886 0.500069439
vn 0.402776241 -0.849926412 0.0194931235
vn -0.459366679 0.842258096 -0.243789792
vn -0.685404778 0.263108701 -0.680639744
vn -0.940698743 0.30017218 -0.115140229
vn -0.295547068 0.259796798 -0.981104732
vn -0.369328976 0.861230016 -0.431501389
vn 0.517193615 0.259413779 -0.773248374
vn 0.413751602 -0.739065886 0.500069439
vn 0.308592945 -0.0558456257 0.95405376
vn -0.115949705 -0.776866674 0.611978889
vn -0.0836481005 -0.123937108 -0.993528366
vn 0.180797681 -0.591797352 -0.754443467
vn -0.104697242 -0.87183845 -0.410131425
vn -0.482214093 1.03093851 0.017862333
vn -0.459366679 0.842258096 -0.243789792
vn -0.849911511 0.468883455 0.242259517
vn -0.685404778 0.263108701 -0.680639744
vn -0.431384802 0.0496615656 -0.906740546
vn -0.824771225 0.174218386 -0.508548379
vn -0.374067783 0.137556434 0.92602402
vn -0.704301953 0.147308454 0.712710917
vn -0.65647161 0.120148286 0.746828973
vn -0.845938206 0.156999156 0.524992943
vn -0.65647161 0.120148286 0.746828973
vn -0.704301953 0.147308454 0.712710917
vn -0.528024018 0.0721140802 -0.844634831
vn -0.733380675 0.0882043839 -0.674313545
vn -0.431384802 0.0496615656 -0.906740546
vn 0.517193615 0.259413779 -0.773248374
vn -0.369328976 0.861230016 -0.431501389
vn 0.293901533 0.888293922 -0.262151837
vn -0.447170734 0.124467038 -0.770815611
vn -0.83516109 0.224214688 -0.232466206
vn -0.0407036208 0.569216192 -0.743158102
vn -0.124427631 -1.00480604 -0.0803300813
vn 0.643015563 -0.508895159 0.584987104
vn -0.0874326304 -0.715196908 0.415851355
vn -0.487309277 -0.862438858 -0.0802085549
vn -0.546373844 -0.841476142 -0.00282578426
vn -0.973528922 -0.185420051 -0.0489213392
vn 0.308592945 -0.0558456257 0.95405376
vn 0.413751602 -0.739065886 0.500069439
vn 0.954258442 -0.0764556155 0.279608637
vn 0.415692329 0.068925567 -0.847048104
vn 0.517193615 0.259413779 -0.773248374
vn 0.993482947 0.0606667362 -0.0596488342
vn 0.73310113 -0.0654356182 0.674870193
vn 0.308592945 -0.0558456257 0.95405376
vn 0.954258442 -0.0764556155 0.279608637
vn 0.555270255 -0.0376896337 -0.80227983
vn 0.973780036 0.0877537802 -0.192890599
vn 0.969628513 -0.0111167943 -0.178140253
vn 0.555270255 -0.0376896337 -0.80227983
vn 0.551005542 0.0972672924 -0.775550723
vn 0.973780036 0.0877537802 -0.192890599
vn 0.888737321 0.130941585 0.418243617
vn 0.308592945 -0.0558456257 0.95405376
vn 0.73310113 -0.0654356182 0.674870193
vn 0.888737321 0.130941585 0.418243617
vn 0.73310113 -0.0654356182 0.674870193
vn 0.954258442 -0.0764556155 0.279608637
vn -0.971520841 0.148143724 0.0335808061
vn -0.521135449 0.16137664 0.639190912
vn 0.188774019 0.928729117 0.277557343
vn 0.501996279 -0.67156291 -0.593406081
vn 0.446286827 -0.819134891 -0.341490239
vn -0.884149313 -0.432618141 -0.193034574
vn -0.884149313 -0.432618141 -0.193034574
vn 0.446286827 -0.819134891 -0.341490239
vn -0.110607415 -0.937917471 -0.235883147
vn 0.601671398 -0.118959039 -0.781438589
vn 0.897711277 -0.188320726 -0.39540267
vn 0.501996279 -0.67156291 -0.593406081
vn 0.501996279 -0.67156291 -0.593406081
vn 0.789539635 -0.416758269 -0.331454873
vn 0.446286827 -0.819134891 -0.341490239
vn 0.576399267 -0.814635694 -0.089948684
vn 0.789539635 -0.416758269 -0.331454873
vn 0.780924857 -0.611891985 -0.173081771
vn 0.501996279 -0.67156291 -0.593406081
vn 0.897711277 -0.188320726 -0.39540267
vn 0.789539635 -0.416758269 -0.331454873
vn 0.762567222 0.219290972 0.576261342
vn 0.215221778 0.127043545 0.976041615
vn 0.454276919 0.176877484 0.856770813
vn -0.685842633 0.134780973 -0.525363445
vn -0.307122111 -0.113115057 -0.859116912
vn -0.884149313 -0.432618141 -0.193034574
vn -0.971520841 0.148143724 0.0335808061
vn 0.276176512 0.931662858 -0.0809623674
vn -0.930193961 0.347638786 -0.0326775387
vn -0.423407674 -0.891261697 0.0167906042
vn -0.104697242 -0.87183845 -0.410131425
vn -0.124127954 -0.983767867 0.102076754
vn 0.955306172 0.0302986503 0.0816641152
vn 0.0533824377 -0.93158412 -0.143559158
vn 0.953916967 -0.236597985 -0.131340817
vn -0.837786376 0.122881338 0.529096067
vn -0.898359358 0.0895366967 0.442159891
vn -0.909962833 0.14613378 0.391685575
vn -0.824771225 0.174218386 -0.508548379
vn -0.940698743 0.30017218 -0.115140229
vn -0.685404778 0.263108701 -0.680639744
vn 0.308592945 -0.0558456257 0.95405376
vn 0.0204452071 0.0403028205 1.00097978
vn -0.115949705 -0.776866674 0.611978889
vn 0.557712436 0.156207636 0.658245444
vn 0.238523394 0.149555534 0.9580338
vn -0.212523401 0.117514685 0.981067419
vn -0.733380675 0.0882043839 -0.674313545
vn -0.824771225 0.174218386 -0.508548379
vn -0.431384802 0.0496615656 -0.906740546
vn -0.971520841 0.148143724 0.0335808061
vn -0.930193961 0.347638786 -0.0326775387
vn -0.862459719 -0.470347971 0.0534642488
vn 0.422591716 -0.761363745 0.386342674
vn 0.534558058 -0.294498801 0.780979037
vn -0.121384867 -0.56111306 0.691161394
vn 0.901266634 0.233652249 0.395736605
vn 0.728317797 0.241127759 0.652491748
vn 0.762567222 0.219290972 0.576261342
vn -0.707286477 0.140928805 0.689191997
vn -0.374067783 0.137556434 0.92602402
vn -0.65647161 0.120148286 0.746828973
vn 0.415692329 0.068925567 -0.847048104
vn 0.993482947 0.0606667362 -0.0596488342
vn 0.973780036 0.0877537802 -0.192890599
vn 0.534558058 -0.294498801 0.780979037
vn 0.422591716 -0.761363745 0.386342674
vn 0.53787905 -0.803444922 0.173029453
vn -0.148896083 0.0409516357 -0.993794501
vn 0.517193615 0.259413779 -0.773248374
vn 0.415692329 0.068925567 -0.847048104
vn 0.00815478992 0.972858131 -0.0293108188
vn -0.685842633 0.134780973 -0.525363445
vn -0.930193961 0.347638786 -0.0326775387
vn 0.350139409 0.204658523 0.995066166
vn 0.762567222 0.219290972 0.576261342
vn 0.728317797 0.241127759 0.652491748
vn 0.0406817496 0.626152754 -0.656919777
vn 0.554595828 0.408000052 -0.473558843
vn -0.685842633 0.134780973 -0.525363445
vn -0.685842633 0.134780973 -0.525363445
vn 0.554595828 0.408000052 -0.473558843
vn -0.307122111 -0.113115057 -0.859116912
vn 0.601671398 -0.118959039 -0.781438589
vn 0.554595828 0.408000052 -0.473558843
vn 0.897711277 -0.188320726 -0.39540267
vn 0.897711277 -0.188320726 -0.39540267
vn 0.554595828 0.408000052 -0.473558843
vn 0.975112975 -0.0599615686 -0.00170810486
vn -0.515257835 0.0142685603 0.620809972
vn -0.995348573 -0.0911292583 -0.0536280312
vn -0.973528922 -0.185420051 -0.0489213392
vn 0.232971117 0.146733582 -0.982411563
vn 0.126960814 0.131821841 -0.99410373
vn 0.898922205 0.146163881 -0.367257476
vn 0.622087717 0.165466115 0.686839044
vn 0.216466665 0.306069642 0.908144891
vn 0.534558058 -0.294498801 0.780979037
vn 0.216466665 0.306069642 0.908144891
vn 0.188774019 0.928729117 0.277557343
vn -0.521135449 0.16137664 0.639190912
vn 0.180797681 -0.591797352 -0.754443467
vn 0.555270255 -0.0376896337 -0.80227983
vn 0.969628513 -0.0111167943 -0.178140253
vn -0.110607415 -0.937917471 -0.235883147
vn 0.53787905 -0.803444922 0.173029453
vn 0.422591716 -0.761363745 0.386342674
vn 0.422591716 -0.761363745 0.386342674
vn -0.121384867 -0.56111306 0.691161394
vn -0.862459719 -0.470347971 0.0534642488
vn -0.516455948 -0.200582251 0.580427229
vn -0.121384867 -0.56111306 0.691161394
vn 0.534558058 -0.294498801 0.780979037
vn -0.516455948 -0.200582251 0.580427229
vn -0.971520841 0.148143724 0.0335808061
vn -0.862459719 -0.470347971 0.0534642488
vn 0.656459928 -0.479074538 -0.0968873054
vn 0.969628513 -0.0111167943 -0.178140253
vn 0.954258442 -0.0764556155 0.279608637
vn -0.764995694 0.0214438476 -0.390783012
vn -0.83516109 0.224214688 -0.232466206
vn -0.447170734 0.124467038 -0.770815611
vn 0.888737321 0.130941585 0.418243617
vn 0.557712436 0.156207636 0.658245444
vn 0.308592945 -0.0558456257 0.95405376
vn 0.557712436 0.156207636 0.658245444
vn -0.212523401 0.117514685 0.981067419
vn 0.0217985492 0.116657823 0.993429303
vn 0.215221778 0.127043545 0.976041615
vn -0.515257835 0.0142685603 0.620809972
vn -0.338732213 0.070929274 0.777486682
vn 0.350139409 0.204658523 0.995066166
vn -0.515257835 0.0142685603 0.620809972
vn 0.215221778 0.127043545 0.976041615
vn -0.515257835 0.0142685603 0.620809972
vn 0.350139409 0.204658523 0.995066166
vn -0.857066453 0.0442347862 0.424502969
vn 0.557712436 0.156207636 0.658245444
vn 0.888737321 0.130941585 0.418243617
vn 0.928031385 0.134076253 0.316703111
vn -0.148896083 0.0409516357 -0.993794501
vn 0.415692329 0.068925567 -0.847048104
vn 0.500547528 0.0922159478 -0.803218901
vn -0.148896083 0.0409516357 -0.993794501
vn 0.500547528 0.0922159478 -0.803218901
vn 0.551005542 0.0972672924 -0.775550723
vn -0.855864823 -0.536772668 -0.016996989
vn -0.92897135 -0.0225230549 -0.337983608
vn -0.533063948 -0.702133536 -0.497653991
vn -0.898359358 0.0895366967 0.442159891
vn -0.98823458 0.0746764392 0.138069525
vn -0.909962833 0.14613378 0.391685575
vn 0.551005542 0.0972672924 -0.775550723
vn 0.500547528 0.0922159478 -0.803218901
vn 0.973780036 0.0877537802 -0.192890599
vn 0.973780036 0.0877537802 -0.192890599
vn 0.995094955 0.133469746 0.0481345244
vn 0.969628513 -0.0111167943 -0.178140253
vn -0.148896083 0.0409516357 -0.993794501
vn 0.551005542 0.0972672924 -0.775550723
vn -0.0836481005 -0.123937108 -0.993528366
vn -0.849911511 0.468883455 0.242259517
vn -0.940698743 0.30017218 -0.115140229
vn -0.904835522 0.195200458 0.327398121
vn -0.704301953 0.147308454 0.712710917
vn -0.579835236 0.590809286 0.517632782
vn -0.845938206 0.156999156 0.524992943
vn -0.884149313 -0.432618141 -0.193034574
vn -0.110607415 -0.937917471 -0.235883147
vn -0.862459719 -0.470347971 0.0534642488
vn -0.00944731198 -0.973577678 -0.21564424
vn 0.402776241 -0.849926412 0.0194931235
vn -0.124127954 -0.983767867 0.102076754
vn -0.124127954 -0.983767867 0.102076754
vn 0.402776241 -0.849926412 0.0194931235
vn 0.413751602 -0.739065886 0.500069439
vn 0.454276919 0.176877484 0.856770813
vn -0.338732213 0.070929274 0.777486682
vn -0.463564694 -0.511559784 0.670733392
vn -0.513272762 -0.68202579 0.428647399
vn -0.855864823 -0.536772668 -0.016996989
vn -0.704146564 -0.713323891 0.081331715
vn -0.981931746 0.0141490791 0.22605522
vn -0.92897135 -0.0225230549 -0.337983608
vn -0.855864823 -0.536772668 -0.016996989
vn -0.926619887 -0.0478752851 -0.198329553
vn 0.232971117 0.146733582 -0.982411563
vn -0.705745518 -0.355734646 -0.321055084
vn 0.216466665 0.306069642 0.908144891
vn -0.521135449 0.16137664 0.639190912
vn -0.516455948 -0.200582251 0.580427229
vn -0.528024018 0.0721140802 -0.844634831
vn -0.228732824 -0.0439179838 -0.956420064
vn -0.752968669 0.0226520449 -0.654146016
vn -0.6511482 0.211281985 0.662078202
vn -0.909962833 0.14613378 0.391685575
vn -0.981931746 0.0141490791 0.22605522
vn -0.513272762 -0.68202579 0.428647399
vn -0.522795796 -0.340277761 0.727795005
vn -0.981931746 0.0141490791 0.22605522
vn 0.614578724 0.194878757 -0.718675077
vn 0.126960814 0.131821841 -0.99410373
vn -0.764995694 0.0214438476 -0.390783012
vn 0.901266634 0.233652249 0.395736605
vn 0.762567222 0.219290972 0.576261342
vn 0.920181334 0.305642426 0.149136141
vn -0.752968669 0.0226520449 -0.654146016
vn -0.228732824 -0.0439179838 -0.956420064
vn -0.533063948 -0.702133536 -0.497653991
vn 0.928031385 0.134076253 0.316703111
vn 0.888737321 0.130941585 0.418243617
vn 0.995094955 0.133469746 0.0481345244
vn 0.81102705 0.094431825 0.450051516
vn 0.928031385 0.134076253 0.316703111
vn 0.995384216 0.0688055903 0.0623077154
vn -0.904835522 0.195200458 0.327398121
vn -0.95622021 0.216172159 -0.173697695
vn -0.98823458 0.0746764392 0.138069525
vn -0.95622021 0.216172159 -0.173697695
vn -0.92897135 -0.0225230549 -0.337983608
vn -0.98823458 0.0746764392 0.138069525
vn -0.912891388 0.16734536 -0.0258084498
vn -0.764995694 0.0214438476 -0.390783012
vn -0.926619887 -0.0478752851 -0.198329553
vn -0.295547068 0.259796798 -0.981104732
vn -0.431384802 0.0496615656 -0.906740546
vn -0.685404778 0.263108701 -0.680639744
vn -0.487309277 -0.862438858 -0.0802085549
vn -0.0278555341 -0.544335663 -0.742589235
vn 0.0533824377 -0.93158412 -0.143559158
vn -0.579835236 0.590809286 0.517632782
vn -0.849911511 0.468883455 0.242259517
vn -0.845938206 0.156999156 0.524992943
vn 0.997978806 0.143334001 -0.010539664
vn 0.955306172 0.0302986503 0.0816641152
vn 0.953916967 -0.236597985 -0.131340817
vn -0.00944731198 -0.973577678 -0.21564424
vn 0.656459928 -0.479074538 -0.0968873054
vn 0.402776241 -0.849926412 0.0194931235
vn -0.110607415 -0.937917471 -0.235883147
vn 0.576399267 -0.814635694 -0.089948684
vn 0.53787905 -0.803444922 0.173029453
vn -0.124127954 -0.983767867 0.102076754
vn 0.413751602 -0.739065886 0.500069439
vn -0.115949705 -0.776866674 0.611978889
vn 1.01013637 0.120174348 -0.0226723775
vn 0.997978806 0.143334001 -0.010539664
vn 0.898922205 0.146163881 -0.367257476
vn 0.622087717 0.165466115 0.686839044
vn 0.534558058 -0.294498801 0.780979037
vn 0.975112975 -0.0599615686 -0.00170810486
vn 0.81102705 0.094431825 0.450051516
vn -0.212523401 0.117514685 0.981067419
vn 0.238523394 0.149555534 0.9580338
vn 0.188774019 0.928729117 0.277557343
vn 0.622087717 0.165466115 0.686839044
vn 0.667801797 0.673215568 -0.0278118588
vn 0.614578724 0.194878757 -0.718675077
vn -0.764995694 0.0214438476 -0.390783012
vn -0.447170734 0.124467038 -0.770815611
vn 0.81102705 0.094431825 0.450051516
vn 0.416929156 0.518085003 0.657589316
vn -0.374067783 0.137556434 0.92602402
vn -0.0836481005 -0.123937108 -0.993528366
vn 0.551005542 0.0972672924 -0.775550723
vn 0.555270255 -0.0376896337 -0.80227983
vn 0.995094955 0.133469746 0.0481345244
vn 0.888737321 0.130941585 0.418243617
vn 0.954258442 -0.0764556155 0.279608637
vn -0.904835522 0.195200458 0.327398121
vn -0.98823458 0.0746764392 0.138069525
vn -0.898359358 0.0895366967 0.442159891
vn -0.898359358 0.0895366967 0.442159891
vn -0.845938206 0.156999156 0.524992943
vn -0.904835522 0.195200458 0.327398121
vn 0.308592945 -0.0558456257 0.95405376
vn 0.0217985492 0.116657823 0.993429303
vn 0.0204452071 0.0403028205 1.00097978
vn -0.546373844 -0.841476142 -0.00282578426
vn -0.124427631 -1.00480604 -0.0803300813
vn -0.0874326304 -0.715196908 0.415851355
vn 0.929418743 0.237271175 0.152858719
vn -0.482214093 1.03093851 0.017862333
vn 0.416929156 0.518085003 0.657589316
vn 0.601671398 -0.118959039 -0.781438589
vn 0.501996279 -0.67156291 -0.593406081
vn -0.884149313 -0.432618141 -0.193034574
vn -0.6511482 0.211281985 0.662078202
vn -0.707286477 0.140928805 0.689191997
vn -0.837786376 0.122881338 0.529096067
vn -0.104697242 -0.87183845 -0.410131425
vn -0.00944731198 -0.973577678 -0.21564424
vn -0.124127954 -0.983767867 0.102076754
vn -0.104697242 -0.87183845 -0.410131425
vn 0.180797681 -0.591797352 -0.754443467
vn -0.00944731198 -0.973577678 -0.21564424
vn 0.350139409 0.204658523 0.995066166
vn 0.728317797 0.241127759 0.652491748
vn 0.552584946 0.683594704 0.441964805
vn 0.552584946 0.683594704 0.441964805
vn 0.378698915 0.619655788 0.652416945
vn 0.350139409 0.204658523 0.995066166
vn -0.909962833 0.14613378 0.391685575
vn -0.98823458 0.0746764392 0.138069525
vn -0.981931746 0.0141490791 0.22605522
vn 0.614578724 0.194878757 -0.718675077
vn 1.01013637 0.120174348 -0.0226723775
vn 0.898922205 0.146163881 -0.367257476
vn 0.454276919 0.176877484 0.856770813
vn -0.0874326304 -0.715196908 0.415851355
vn 0.643015563 -0.508895159 0.584987104
vn 0.576399267 -0.814635694 -0.089948684
vn 0.780924857 -0.611891985 -0.173081771
vn 0.53787905 -0.803444922 0.173029453
vn 0.789539635 -0.416758269 -0.331454873
vn 0.975112975 -0.0599615686 -0.00170810486
vn 0.780924857 -0.611891985 -0.173081771
vn 0.238523394 0.149555534 0.9580338
vn 0.928031385 0.134076253 0.316703111
vn 0.81102705 0.094431825 0.450051516
vn -0.733380675 0.0882043839 -0.674313545
vn -0.92897135 -0.0225230549 -0.337983608
vn -0.824771225 0.174218386 -0.508548379
vn -0.92897135 -0.0225230549 -0.337983608
vn -0.733380675 0.0882043839 -0.674313545
vn -0.752968669 0.0226520449 -0.654146016
vn 0.276176512 0.931662858 -0.0809623674
vn -0.971520841 0.148143724 0.0335808061
vn 0.188774019 0.928729117 0.277557343
vn -0.521135449 0.16137664 0.639190912
vn -0.971520841 0.148143724 0.0335808061
vn -0.516455948 -0.200582251 0.580427229
vn 0.954258442 -0.0764556155 0.279608637
vn 0.402776241 -0.849926412 0.0194931235
vn 0.656459928 -0.479074538 -0.0968873054
vn -0.115949705 -0.776866674 0.611978889
vn -0.522795796 -0.340277761 0.727795005
vn -0.513272762 -0.68202579 0.428647399
vn -0.228732824 -0.0439179838 -0.956420064
vn -0.148896083 0.0409516357 -0.993794501
vn -0.0836481005 -0.123937108 -0.993528366
vn 0.378698915 0.619655788 0.652416945
vn -0.857066453 0.0442347862 0.424502969
vn 0.350139409 0.204658523 0.995066166
vn 0.762567222 0.219290972 0.576261342
vn 0.454276919 0.176877484 0.856770813
vn 0.955306172 0.0302986503 0.0816641152
vn -0.6511482 0.211281985 0.662078202
vn -0.837786376 0.122881338 0.529096067
vn -0.909962833 0.14613378 0.391685575
vn 0.762567222 0.219290972 0.576261342
vn 0.955306172 0.0302986503 0.0816641152
vn 0.920181334 0.305642426 0.149136141
vn 0.180797681 -0.591797352 -0.754443467
vn 0.656459928 -0.479074538 -0.0968873054
vn -0.00944731198 -0.973577678 -0.21564424
vn -0.995348573 -0.0911292583 -0.0536280312
vn -0.912891388 0.16734536 -0.0258084498
vn -0.926619887 -0.0478752851 -0.198329553
vn -0.307122111 -0.113115057 -0.859116912
vn 0.601671398 -0.118959039 -0.781438589
vn -0.884149313 -0.432618141 -0.193034574
vn -0.0278555341 -0.544335663 -0.742589235
vn 0.232971117 0.146733582 -0.982411563
vn 0.774864733 0.117772333 -0.592420518
vn 0.232971117 0.146733582 -0.982411563
vn -0.0278555341 -0.544335663 -0.742589235
vn -0.705745518 -0.355734646 -0.321055084
vn -0.185159296 -0.95489186 -0.209186807
vn -0.104697242 -0.87183845 -0.410131425
vn -0.423407674 -0.891261697 0.0167906042
vn 0.774864733 0.117772333 -0.592420518
vn 0.898922205 0.146163881 -0.367257476
vn 0.953916967 -0.236597985 -0.131340817
vn -0.98823458 0.0746764392 0.138069525
vn -0.92897135 -0.0225230549 -0.337983608
vn -0.981931746 0.0141490791 0.22605522
vn -0.513272762 -0.68202579 0.428647399
vn -0.704146564 -0.713323891 0.081331715
vn -0.423407674 -0.891261697 0.0167906042
vn 0.475462586 0.896945536 0.113247238
vn -0.912891388 0.16734536 -0.0258084498
vn 0.378698915 0.619655788 0.652416945
vn 0.762567222 0.219290972 0.576261342
vn 0.350139409 0.204658523 0.995066166
vn 0.215221778 0.127043545 0.976041615
vn 0.995384216 0.0688055903 0.0623077154
vn 0.973780036 0.0877537802 -0.192890599
vn 0.993482947 0.0606667362 -0.0596488342
vn 0.929418743 0.237271175 0.152858719
vn 0.995384216 0.0688055903 0.0623077154
vn 0.993482947 0.0606667362 -0.0596488342
vn -0.295547068 0.259796798 -0.981104732
vn 0.517193615 0.259413779 -0.773248374
vn -0.148896083 0.0409516357 -0.993794501
vn -0.374067783 0.137556434 0.92602402
vn -0.707286477 0.140928805 0.689191997
vn -0.212523401 0.117514685 0.981067419
vn 0.81102705 0.094431825 0.450051516
vn -0.374067783 0.137556434 0.92602402
vn -0.212523401 0.117514685 0.981067419
vn 0.126960814 0.131821841 -0.99410373
vn 0.232971117 0.146733582 -0.982411563
vn -0.764995694 0.0214438476 -0.390783012
vn 0.997978806 0.143334001 -0.010539664
vn 0.920181334 0.305642426 0.149136141
vn 0.955306172 0.0302986503 0.0816641152
vn 1.01013637 0.120174348 -0.0226723775
vn 0.920181334 0.305642426 0.149136141
vn 0.997978806 0.143334001 -0.010539664
vn 0.00815478992 0.972858131 -0.0293108188
vn -0.930193961 0.347638786 -0.0326775387
vn 0.276176512 0.931662858 -0.0809623674
vn 0.454276919 0.176877484 0.856770813
vn -0.463564694 -0.511559784 0.670733392
vn -0.0874326304 -0.715196908 0.415851355
vn 0.216466665 0.306069642 0.908144891
vn -0.516455948 -0.200582251 0.580427229
vn 0.534558058 -0.294498801 0.780979037
vn -0.0836481005 -0.123937108 -0.993528366
vn 0.555270255 -0.0376896337 -0.80227983
vn 0.180797681 -0.591797352 -0.754443467
vn 0.416929156 0.518085003 0.657589316
vn -0.704301953 0.147308454 0.712710917
vn -0.374067783 0.137556434 0.92602402
vn -0.0407036208 0.569216192 -0.743158102
vn 0.614578724 0.194878757 -0.718675077
vn -0.447170734 0.124467038 -0.770815611
vn 0.500547528 0.0922159478 -0.803218901
vn 0.415692329 0.068925567 -0.847048104
vn 0.973780036 0.0877537802 -0.192890599
vn 0.929418743 0.237271175 0.152858719
vn 0.81102705 0.094431825 0.450051516
vn 0.995384216 0.0688055903 0.0623077154
vn -0.685842633 0.134780973 -0.525363445
vn 0.00815478992 0.972858131 -0.0293108188
vn 0.0406817496 0.626152754 -0.656919777
vn 0.635124505 0.64274925 -0.381068796
vn -0.0407036208 0.569216192 -0.743158102
vn 0.475462586 0.896945536 0.113247238
vn 0.378698915 0.619655788 0.652416945
vn 0.631331801 0.725909173 0.0215935633
vn 0.475462586 0.896945536 0.113247238
vn 0.631331801 0.725909173 0.0215935633
vn 0.552584946 0.683594704 0.441964805
vn 0.920181334 0.305642426 0.149136141
vn 0.897711277 -0.188320726 -0.39540267
vn 0.975112975 -0.0599615686 -0.00170810486
vn 0.789539635 -0.416758269 -0.331454873
vn 0.534558058 -0.294498801 0.780979037
vn 0.53787905 -0.803444922 0.173029453
vn 0.975112975 -0.0599615686 -0.00170810486
vn 0.180797681 -0.591797352 -0.754443467
vn 0.969628513 -0.0111167943 -0.178140253
vn 0.656459928 -0.479074538 -0.0968873054
vn 0.631331801 0.725909173 0.0215935633
vn 0.614578724 0.194878757 -0.718675077
vn 0.635124505 0.64274925 -0.381068796
vn -0.904835522 0.195200458 0.327398121
vn -0.940698743 0.30017218 -0.115140229
vn -0.824771225 0.174218386 -0.508548379
vn -0.228732824 -0.0439179838 -0.956420064
vn -0.0836481005 -0.123937108 -0.993528366
vn -0.104697242 -0.87183845 -0.410131425
vn -0.533063948 -0.702133536 -0.497653991
vn -0.228732824 -0.0439179838 -0.956420064
vn -0.104697242 -0.87183845 -0.410131425
vn 0.378698915 0.619655788 0.652416945
vn -0.912891388 0.16734536 -0.0258084498
vn -0.857066453 0.0442347862 0.424502969
vn -0.0278555341 -0.544335663 -0.742589235
vn 0.774864733 0.117772333 -0.592420518
vn 0.0533824377 -0.93158412 -0.143559158
vn -0.973528922 -0.185420051 -0.0489213392
vn -0.705745518 -0.355734646 -0.321055084
vn -0.487309277 -0.862438858 -0.0802085549
vn 0.0217985492 0.116657823 0.993429303
vn -0.6511482 0.211281985 0.662078202
vn 0.0204452071 0.0403028205 1.00097978
vn 0.293901533 0.888293922 -0.262151837
vn 0.929418743 0.237271175 0.152858719
vn 0.517193615 0.259413779 -0.773248374
vn 0.993482947 0.0606667362 -0.0596488342
vn 0.517193615 0.259413779 -0.773248374
vn 0.929418743 0.237271175 0.152858719
vn 0.920181334 0.305642426 0.149136141
vn 0.552584946 0.683594704 0.441964805
vn 0.901266634 0.233652249 0.395736605
vn -0.482214093 1.03093851 0.017862333
vn 0.929418743 0.237271175 0.152858719
vn 0.293901533 0.888293922 -0.262151837
vn 0.898922205 0.146163881 -0.367257476
vn 0.997978806 0.143334001 -0.010539664
vn 0.953916967 -0.236597985 -0.131340817
vn 0.0406817496 0.626152754 -0.656919777
vn 0.00815478992 0.972858131 -0.0293108188
vn 0.554595828 0.408000052 -0.473558843
vn -0.707286477 0.140928805 0.689191997
vn -0.898359358 0.0895366967 0.442159891
vn -0.837786376 0.122881338 0.529096067
vn 0.238523394 0.149555534 0.9580338
vn 0.557712436 0.156207636 0.658245444
vn 0.928031385 0.134076253 0.316703111
vn 0.0204452071 0.0403028205 1.00097978
vn -0.6511482 0.211281985 0.662078202
vn -0.522795796 -0.340277761 0.727795005
vn 0.631331801 0.725909173 0.0215935633
vn 0.378698915 0.619655788 0.652416945
vn 0.552584946 0.683594704 0.441964805
vn -0.546373844 -0.841476142 -0.00282578426
vn -0.463564694 -0.511559784 0.670733392
vn -0.338732213 0.070929274 0.777486682
vn -0.295547068 0.259796798 -0.981104732
vn -0.685404778 0.263108701 -0.680639744
vn -0.369328976 0.861230016 -0.431501389
vn -0.930193961 0.347638786 -0.0326775387
vn -0.884149313 -0.432618141 -0.193034574
vn -0.862459719 -0.470347971 0.0534642488
vn -0.515257835 0.0142685603 0.620809972
vn -0.973528922 -0.185420051 -0.0489213392
vn -0.338732213 0.070929274 0.777486682
vn -0.431384802 0.0496615656 -0.906740546
vn -0.295547068 0.259796798 -0.981104732
vn -0.148896083 0.0409516357 -0.993794501
vn -0.995348573 -0.0911292583 -0.0536280312
vn -0.926619887 -0.0478752851 -0.198329553
vn -0.973528922 -0.185420051 -0.0489213392
vn 0.454276919 0.176877484 0.856770813
vn 0.215221778 0.127043545 0.976041615
vn -0.338732213 0.070929274 0.777486682
vn 0.614578724 0.194878757 -0.718675077
vn 0.898922205 0.146163881 -0.367257476
vn 0.126960814 0.131821841 -0.99410373
vn -0.862459719 -0.470347971 0.0534642488
vn -0.121384867 -0.56111306 0.691161394
vn -0.516455948 -0.200582251 0.580427229
vn -0.228732824 -0.0439179838 -0.956420064
vn -0.431384802 0.0496615656 -0.906740546
vn -0.148896083 0.0409516357 -0.993794501
vn -0.522795796 -0.340277761 0.727795005
vn -0.115949705 -0.776866674 0.611978889
vn 0.0204452071 0.0403028205 1.00097978
vn -0.824771225 0.174218386 -0.508548379
vn -0.95622021 0.216172159 -0.173697695
vn -0.904835522 0.195200458 0.327398121
vn 0.416929156 0.518085003 0.657589316
vn -0.579835236 0.590809286 0.517632782
vn -0.704301953 0.147308454 0.712710917
vn -0.212523401 0.117514685 0.981067419
vn -0.6511482 0.211281985 0.662078202
vn 0.0217985492 0.116657823 0.993429303
vn -0.95622021 0.216172159 -0.173697695
vn -0.824771225 0.174218386 -0.508548379
vn -0.92897135 -0.0225230549 -0.337983608
vn 0.614578724 0.194878757 -0.718675077
vn 0.631331801 0.725909173 0.0215935633
vn 1.01013637 0.120174348 -0.0226723775
vn 1.01013637 0.120174348 -0.0226723775
vn 0.631331801 0.725909173 0.0215935633
vn 0.920181334 0.305642426 0.149136141
vn -0.487309277 -0.862438858 -0.0802085549
vn -0.124427631 -1.00480604 -0.0803300813
vn -0.546373844 -0.841476142 -0.00282578426
vn 0.00815478992 0.972858131 -0.0293108188
vn 0.276176512 0.931662858 -0.0809623674
vn 0.667801797 0.673215568 -0.0278118588
vn -0.707286477 0.140928805 0.689191997
vn -0.65647161 0.120148286 0.746828973
vn -0.845938206 0.156999156 0.524992943
vn 0.53787905 -0.803444922 0.173029453
vn 0.780924857 -0.611891985 -0.173081771
vn 0.975112975 -0.0599615686 -0.00170810486
vn -0.533063948 -0.702133536 -0.497653991
vn -0.185159296 -0.95489186 -0.209186807
vn -0.423407674 -0.891261697 0.0167906042
vn 0.554595828 0.408000052 -0.473558843
vn 0.667801797 0.673215568 -0.0278118588
vn 0.975112975 -0.0599615686 -0.00170810486
vn -0.513272762 -0.68202579 0.428647399
vn -0.981931746 0.0141490791 0.22605522
vn -0.855864823 -0.536772668 -0.016996989
vn -0.110607415 -0.937917471 -0.235883147
vn 0.446286827 -0.819134891 -0.341490239
vn 0.576399267 -0.814635694 -0.089948684
vn -0.513272762 -0.68202579 0.428647399
vn -0.423407674 -0.891261697 0.0167906042
vn -0.124127954 -0.983767867 0.102076754
vn 0.667801797 0.673215568 -0.0278118588
vn 0.554595828 0.408000052 -0.473558843
vn 0.00815478992 0.972858131 -0.0293108188
vn -0.973528922 -0.185420051 -0.0489213392
vn -0.926619887 -0.0478752851 -0.198329553
vn -0.705745518 -0.355734646 -0.321055084
vn -0.185159296 -0.95489186 -0.209186807
vn -0.533063948 -0.702133536 -0.497653991
vn -0.104697242 -0.87183845 -0.410131425
vn -0.124427631 -1.00480604 -0.0803300813
vn 0.0533824377 -0.93158412 -0.143559158
vn 0.955306172 0.0302986503 0.0816641152
vn -0.940698743 0.30017218 -0.115140229
vn -0.849911511 0.468883455 0.242259517
vn -0.459366679 0.842258096 -0.243789792
vn -0.845938206 0.156999156 0.524992943
vn -0.849911511 0.468883455 0.242259517
vn -0.904835522 0.195200458 0.327398121
vn -0.487309277 -0.862438858 -0.0802085549
vn 0.0533824377 -0.93158412 -0.143559158
vn -0.124427631 -1.00480604 -0.0803300813
vn 0.232971117 0.146733582 -0.982411563
vn 0.898922205 0.146163881 -0.367257476
vn 0.774864733 0.117772333 -0.592420518
vn -0.110607415 -0.937917471 -0.235883147
vn 0.422591716 -0.761363745 0.386342674
vn -0.862459719 -0.470347971 0.0534642488
vn -0.857066453 0.0442347862 0.424502969
vn -0.912891388 0.16734536 -0.0258084498
vn -0.995348573 -0.0911292583 -0.0536280312
vn -0.981931746 0.0141490791 0.22605522
vn -0.522795796 -0.340277761 0.727795005
vn -0.6511482 0.211281985 0.662078202
vn -0.83516109 0.224214688 -0.232466206
vn -0.912891388 0.16734536 -0.0258084498
vn 0.475462586 0.896945536 0.113247238
vn 0.995094955 0.133469746 0.0481345244
vn 0.995384216 0.0688055903 0.0623077154
vn 0.928031385 0.134076253 0.316703111
vn 0.973780036 0.0877537802 -0.192890599
vn 0.995384216 0.0688055903 0.0623077154
vn 0.995094955 0.133469746 0.0481345244
vn 0.667801797 0.673215568 -0.0278118588
vn 0.622087717 0.165466115 0.686839044
vn 0.975112975 -0.0599615686 -0.00170810486
vn -0.579835236 0.590809286 0.517632782
vn 0.416929156 0.518085003 0.657589316
vn -0.482214093 1.03093851 0.017862333
vn -0.752968669 0.0226520449 -0.654146016
vn -0.533063948 -0.702133536 -0.497653991
vn -0.92897135 -0.0225230549 -0.337983608
vn -0.579835236 0.590809286 0.517632782
vn -0.482214093 1.03093851 0.017862333
vn -0.849911511 0.468883455 0.242259517
vn 0.954258442 -0.0764556155 0.279608637
vn 0.969628513 -0.0111167943 -0.178140253
vn 0.995094955 0.133469746 0.0481345244
vn -0.212523401 0.117514685 0.981067419
vn -0.707286477 0.140928805 0.689191997
vn -0.6511482 0.211281985 0.662078202
vn 0.188774019 0.928729117 0.277557343
vn 0.216466665 0.306069642 0.908144891
vn 0.622087717 0.165466115 0.686839044
vn -0.707286477 0.140928805 0.689191997
vn -0.845938206 0.156999156 0.524992943
vn -0.898359358 0.0895366967 0.442159891
vn -0.926619887 -0.0478752851 -0.198329553
vn -0.764995694 0.0214438476 -0.390783012
vn 0.232971117 0.146733582 -0.982411563
vn -0.912891388 0.16734536 -0.0258084498
vn -0.83516109 0.224214688 -0.232466206
vn -0.764995694 0.0214438476 -0.390783012
vn 0.557712436 0.156207636 0.658245444
vn 0.0217985492 0.116657823 0.993429303
vn 0.308592945 -0.0558456257 0.95405376
vn -0.487309277 -0.862438858 -0.0802085549
vn -0.705745518 -0.355734646 -0.321055084
vn -0.0278555341 -0.544335663 -0.742589235
vn 0.576399267 -0.814635694 -0.089948684
vn 0.446286827 -0.819134891 -0.341490239
vn 0.789539635 -0.416758269 -0.331454873
vn 0.774864733 0.117772333 -0.592420518
vn 0.953916967 -0.236597985 -0.131340817
vn 0.0533824377 -0.93158412 -0.143559158
vn -0.124427631 -1.00480604 -0.0803300813
vn 0.955306172 0.0302986503 0.0816641152
vn 0.643015563 -0.508895159 0.584987104
vn -0.528024018 0.0721140802 -0.844634831
vn -0.431384802 0.0496615656 -0.906740546
vn -0.228732824 -0.0439179838 -0.956420064
vn -0.463564694 -0.511559784 0.670733392
vn -0.546373844 -0.841476142 -0.00282578426
vn -0.0874326304 -0.715196908 0.415851355
vn -0.930193961 0.347638786 -0.0326775387
vn -0.685842633 0.134780973 -0.525363445
vn -0.884149313 -0.432618141 -0.193034574
vn -0.115949705 -0.776866674 0.611978889
vn -0.513272762 -0.68202579 0.428647399
vn -0.124127954 -0.983767867 0.102076754
vn 0.614578724 0.194878757 -0.718675077
vn -0.0407036208 0.569216192 -0.743158102
vn 0.635124505 0.64274925 -0.381068796
vn 0.554595828 0.408000052 -0.473558843
vn 0.601671398 -0.118959039 -0.781438589
vn -0.307122111 -0.113115057 -0.859116912
vn 0.416929156 0.518085003 0.657589316
vn 0.81102705 0.094431825 0.450051516
vn 0.929418743 0.237271175 0.152858719
vn 0.667801797 0.673215568 -0.0278118588
vn 0.276176512 0.931662858 -0.0809623674
vn 0.188774019 0.928729117 0.277557343
vn -0.515257835 0.0142685603 0.620809972
vn -0.857066453 0.0442347862 0.424502969
vn -0.995348573 -0.0911292583 -0.0536280312
vn -0.0407036208 0.569216192 -0.743158102
vn -0.83516109 0.224214688 -0.232466206
vn 0.475462586 0.896945536 0.113247238
vn -0.338732213 0.070929274 0.777486682
vn -0.973528922 -0.185420051 -0.0489213392
vn -0.546373844 -0.841476142 -0.00282578426
vn 0.293901533 0.888293922 -0.262151837
vn -0.459366679 0.842258096 -0.243789792
vn -0.482214093 1.03093851 0.017862333
vn 0.293901533 0.888293922 -0.262151837
vn -0.369328976 0.861230016 -0.431501389
vn -0.459366679 0.842258096 -0.243789792
g Group29732
f 4/1/1 6/2/2 7/3/3
f 22/4/4 1/5/5 2/6/6
f 9/7/7 15/8/8 14/9/9
f 45/10/10 58/11/11 46/12/12
f 52/13/13 30/14/14 51/15/15
f 29/16/16 47/17/17 35/18/18
f 52/19/19 51/20/20 64/21/21
f 72/22/22 69/23/23 63/24/24
f 35/25/25 47/26/26 36/27/27
f 48/28/28 29/29/29 38/30/30
f 69/31/31 74/32/32 50/33/33
f 33/34/34 34/35/35 54/36/36
f 40/37/37 35/38/38 41/39/39
f 47/40/40 68/41/41 67/42/42
f 70/43/43 59/44/44 65/45/45
f 66/46/46 65/47/47 59/48/48
f 46/49/49 58/50/50 68/51/51
f 38/52/52 29/53/53 39/54/54
f 27/55/55 28/56/56 24/57/57
f 80/58/58 15/59/59 17/60/60
f 78/61/61 82/62/62 84/63/63
f 74/64/64 69/65/65 72/66/66
f 57/67/67 38/68/68 85/69/69
f 86/70/70 74/71/71 72/72/72
f 75/73/73 61/74/74 89/75/75
f 75/76/76 49/77/77 61/78/78
f 88/79/79 74/80/80 86/81/81
f 88/82/82 86/83/83 72/84/84
f 102/85/85 94/86/86 93/87/87
f 106/88/88 111/89/89 103/90/90
f 103/91/91 111/92/92 96/93/93
f 114/94/94 107/95/95 106/96/96
f 106/97/97 116/98/98 111/99/99
f 113/100/100 116/101/101 105/102/102
f 106/103/103 107/104/104 116/105/105
f 8/106/106 26/107/107 9/108/108
f 101/109/109 104/110/110 103/111/111
f 102/112/112 100/113/113 99/114/114
f 51/115/115 54/116/116 122/117/117
f 14/118/118 25/119/119 79/120/120
f 44/121/121 123/122/122 124/123/123
f 67/124/124 36/125/125 47/126/126
f 74/127/127 126/128/128 50/129/129
f 90/130/130 73/131/131 120/132/132
f 58/133/133 67/134/134 68/135/135
f 102/136/136 99/137/137 97/138/138
f 110/139/139 109/140/140 98/141/141
f 22/142/142 2/143/143 8/144/144
f 55/145/145 70/146/146 65/147/147
f 57/148/148 85/149/149 61/150/150
f 109/151/151 110/152/152 112/153/153
f 128/154/154 38/155/155 57/156/156
f 91/157/157 101/158/158 99/159/159
f 3/160/160 8/161/161 2/162/162
f 92/163/163 119/164/164 101/165/165
f 101/166/166 119/167/167 104/168/168
f 114/169/169 119/170/170 107/171/171
f 107/172/172 119/173/173 115/174/174
f 19/175/175 125/176/176 84/177/177
f 130/178/178 131/179/179 16/180/180
f 118/181/181 108/182/182 109/183/183
f 108/184/184 93/185/185 94/186/186
f 34/187/187 75/188/188 89/189/189
f 96/190/190 112/191/191 110/192/192
f 110/193/193 98/194/194 97/195/195
f 95/196/196 98/197/197 109/198/198
f 95/199/199 102/200/200 97/201/201
f 62/202/202 89/203/203 72/204/204
f 12/205/205 28/206/206 27/207/207
f 88/208/208 90/209/209 74/210/210
f 90/211/211 120/212/212 129/213/213
f 26/214/214 19/215/215 20/216/216
f 3/217/217 19/218/218 26/219/219
f 19/220/220 3/221/221 23/222/222
f 90/223/223 88/224/224 87/225/225
f 128/226/226 57/227/227 60/228/228
f 128/229/229 60/230/230 49/231/231
f 52/232/232 31/233/233 30/234/234
f 123/235/235 133/236/236 124/237/237
f 49/238/238 60/239/239 61/240/240
f 61/241/241 127/242/242 89/243/243
f 128/244/244 49/245/245 33/246/246
f 41/247/247 36/248/248 134/249/249
f 59/250/250 32/251/251 66/252/252
f 103/253/253 96/254/254 97/255/255
f 76/256/256 63/257/257 122/258/258
f 122/259/259 63/260/260 69/261/261
f 9/262/262 20/263/263 83/264/264
f 53/265/265 52/266/266 64/267/267
f 132/268/268 31/269/269 52/270/270
f 13/271/271 130/272/272 77/273/273
f 108/274/274 94/275/275 95/276/276
f 46/277/277 138/278/278 45/279/279
f 37/280/280 124/281/281 132/282/282
f 53/283/283 56/284/284 132/285/285
f 21/286/286 131/287/287 12/288/288
f 22/289/289 8/290/290 10/291/291
f 45/292/292 138/293/293 30/294/294
f 87/295/295 88/296/296 127/297/297
f 71/298/298 87/299/299 139/300/300
f 134/301/301 137/302/302 133/303/303
f 137/304/304 31/305/305 133/306/306
f 18/307/307 12/308/308 13/309/309
f 48/310/310 68/311/311 47/312/312
f 78/313/313 81/314/314 25/315/315
f 32/316/316 41/317/317 66/318/318
f 135/319/319 14/320/320 79/321/321
f 76/322/322 62/323/323 63/324/324
f 96/325/325 113/326/326 112/327/327
f 122/328/328 69/329/329 50/330/330
f 136/331/331 135/332/332 16/333/333
f 118/334/334 109/335/335 115/336/336
f 71/337/337 120/338/338 73/339/339
f 93/340/340 118/341/341 117/342/342
f 21/343/343 12/344/344 27/345/345
f 71/346/346 43/347/347 70/348/348
f 33/349/349 49/350/350 75/351/351
f 127/352/352 88/353/353 72/354/354
f 134/355/355 133/356/356 123/357/357
f 123/358/358 66/359/359 134/360/360
f 74/361/361 129/362/362 126/363/363
f 82/364/364 80/365/365 17/366/366
f 42/367/367 40/368/368 43/369/369
f 114/370/370 106/371/371 103/372/372
f 37/373/373 55/374/374 44/375/375
f 54/376/376 76/377/377 122/378/378
f 54/379/379 34/380/380 76/381/381
f 3/382/382 2/383/383 1/384/384
f 1/385/385 5/386/386 3/387/387
f 124/388/388 133/389/389 132/390/390
f 21/391/391 136/392/392 16/393/393
f 9/394/394 17/395/395 15/396/396
f 113/397/397 105/398/398 112/399/399
f 116/400/400 115/401/401 105/402/402
f 73/403/403 87/404/404 71/405/405
f 58/406/406 31/407/407 67/408/408
f 31/409/409 58/410/410 45/411/411
f 100/412/412 102/413/413 93/414/414
f 94/415/415 102/416/416 95/417/417
f 72/418/418 63/419/419 62/420/420
f 50/421/421 56/422/422 53/423/423
f 138/424/424 128/425/425 33/426/426
f 5/427/427 23/428/428 3/429/429
f 8/430/430 9/431/431 14/432/432
f 37/433/433 44/434/434 124/435/435
f 8/436/436 14/437/437 10/438/438
f 34/439/439 62/440/440 76/441/441
f 125/442/442 18/443/443 13/444/444
f 104/445/445 114/446/446 103/447/447
f 81/448/448 130/449/449 11/450/450
f 130/451/451 81/452/452 77/453/453
f 121/454/454 54/455/455 51/456/456
f 11/457/457 16/458/458 79/459/459
f 133/460/460 31/461/461 132/462/462
f 53/463/463 64/464/464 51/465/465
f 4/466/466 18/467/467 5/468/468
f 8/469/469 3/470/470 26/471/471
f 139/472/472 61/473/473 85/474/474
f 42/475/475 139/476/476 85/477/477
f 48/478/478 38/479/479 128/480/480
f 70/481/481 55/482/482 120/483/483
f 71/484/484 70/485/485 120/486/486
f 131/487/487 130/488/488 12/489/489
f 135/490/490 10/491/491 14/492/492
f 136/493/493 10/494/494 135/495/495
f 91/496/496 99/497/497 100/498/498
f 9/499/499 83/500/500 17/501/501
f 108/502/502 95/503/503 109/504/504
f 33/505/505 75/506/506 34/507/507
f 43/508/508 59/509/509 70/510/510
f 24/511/511 21/512/512 27/513/513
f 60/514/514 57/515/515 61/516/516
f 42/517/517 71/518/518 139/519/519
f 101/520/520 91/521/521 92/522/522
f 7/523/523 24/524/524 4/525/525
f 5/526/526 6/527/527 4/528/528
f 6/529/529 1/530/530 10/531/531
f 107/532/532 115/533/533 116/534/534
f 109/535/535 112/536/536 115/537/537
f 34/538/538 89/539/539 62/540/540
f 6/541/541 21/542/542 7/543/543
f 134/544/544 36/545/545 67/546/546
f 138/547/547 33/548/548 54/549/549
f 30/550/550 138/551/551 54/552/552
f 5/553/553 18/554/554 23/555/555
f 81/556/556 11/557/557 25/558/558
f 84/559/559 77/560/560 78/561/561
f 129/562/562 37/563/563 126/564/564
f 39/565/565 42/566/566 38/567/567
f 85/568/568 38/569/569 42/570/570
f 10/571/571 1/572/572 22/573/573
f 40/574/574 42/575/575 39/576/576
f 16/577/577 135/578/578 79/579/579
f 92/580/580 91/581/581 119/582/582
f 55/583/583 123/584/584 44/585/585
f 73/586/586 90/587/587 87/588/588
f 126/589/589 37/590/590 56/591/591
f 6/592/592 5/593/593 1/594/594
f 82/595/595 83/596/596 20/597/597
f 48/598/598 47/599/599 29/600/600
f 99/601/601 103/602/602 97/603/603
f 19/604/604 84/605/605 20/606/606
f 68/607/607 48/608/608 128/609/609
f 125/610/610 13/611/611 84/612/612
f 9/613/613 26/614/614 20/615/615
f 21/616/616 16/617/617 131/618/618
f 97/619/619 98/620/620 95/621/621
f 138/622/622 68/623/623 128/624/624
f 56/625/625 50/626/626 126/627/627
f 67/628/628 137/629/629 134/630/630
f 43/631/631 32/632/632 59/633/633
f 120/634/634 37/635/635 129/636/636
f 137/637/637 67/638/638 31/639/639
f 21/640/640 6/641/641 136/642/642
f 136/643/643 6/644/644 10/645/645
f 78/646/646 80/647/647 82/648/648
f 91/649/649 100/650/650 117/651/651
f 55/652/652 65/653/653 66/654/654
f 112/655/655 105/656/656 115/657/657
f 30/658/658 121/659/659 51/660/660
f 119/661/661 117/662/662 115/663/663
f 53/664/664 132/665/665 52/666/666
f 96/667/667 111/668/668 113/669/669
f 53/670/670 51/671/671 122/672/672
f 117/673/673 119/674/674 91/675/675
f 84/676/676 13/677/677 77/678/678
f 121/679/679 30/680/680 54/681/681
f 80/682/682 25/683/683 14/684/684
f 36/685/685 41/686/686 35/687/687
f 66/688/688 41/689/689 134/690/690
f 78/691/691 25/692/692 80/693/693
f 130/694/694 16/695/695 11/696/696
f 96/697/697 110/698/698 97/699/699
f 23/700/700 18/701/701 125/702/702
f 132/703/703 56/704/704 37/705/705
f 28/706/706 18/707/707 4/708/708
f 127/709/709 139/710/710 87/711/711
f 61/712/712 139/713/713 127/714/714
f 117/715/715 118/716/716 115/717/717
f 32/718/718 43/719/719 40/720/720
f 45/721/721 30/722/722 31/723/723
f 32/724/724 40/725/725 41/726/726
f 72/727/727 89/728/728 127/729/729
f 120/730/730 55/731/731 37/732/732
f 93/733/733 108/734/734 118/735/735
f 55/736/736 66/737/737 123/738/738
f 13/739/739 12/740/740 130/741/741
f 18/742/742 28/743/743 12/744/744
f 90/745/745 129/746/746 74/747/747
f 78/748/748 77/749/749 81/750/750
f 113/751/751 111/752/752 116/753/753
f 11/754/754 79/755/755 25/756/756
f 80/757/757 14/758/758 15/759/759
f 46/760/760 68/761/761 138/762/762
f 83/763/763 82/764/764 17/765/765
f 99/766/766 101/767/767 103/768/768
f 50/769/769 53/770/770 122/771/771
f 21/772/772 24/773/773 7/774/774
f 119/775/775 114/776/776 104/777/777
f 43/778/778 71/779/779 42/780/780
f 117/781/781 100/782/782 93/783/783
f 19/784/784 23/785/785 125/786/786
f 24/787/787 28/788/788 4/789/789
f 20/790/790 84/791/791 82/792/792
f 39/793/793 35/794/794 40/795/795
f 39/796/796 29/797/797 35/798/798
