# File exported by Houdini 16.5.405 (www.sidefx.com)
# 142 points
# 897 vertices
# 299 primitives
# Bounds: [-226.071594, -2.64088321, -206.483154] to [230.36412, 964.565308, 204.941391]
g 
v -93.34021 107.33783 40.461792
v -93.8578796 114.391289 37.4473419
v -93.0784683 116.98764 36.889946
v -93.4624557 109.53791 39.3801765
v -93.4033508 111.19101 39.8917274
v -93.5471802 106.400696 39.5876808
v -88.0804825 114.6996 51.9977036
v -93.4539948 112.76239 38.6983109
v -94.1346359 101.941368 36.3153305
v -93.2375336 124.532578 34.564167
v -93.3628387 121.23912 35.5973663
v -90.7748184 148.234772 30.7763882
v -93.4661865 119.445038 35.7625771
v -93.2055969 120.292511 36.0993004
v -94.0332413 109.089417 38.3176804
v -93.4690552 125.221252 33.5332031
v -93.4217224 121.558105 35.2713547
v -93.9978561 142.288727 21.8217812
v -93.3135071 127.597664 32.807682
v -93.3180084 126.37561 33.1139717
v -94.3957825 130.970871 29.2331123
v -93.5161896 115.740364 35.9960938
v -93.878273 121.430283 33.8592567
v 110.290573 617.208069 60.5000534
v -178.900864 167.256699 -6.57512426
v 12.3266211 911.001831 -22.2184906
v -11.2887831 808.41272 -71.3114624
v 7.7283926 800.24939 -39.1409454
v 9.23595524 804.146912 -44.930397
v 54.5487022 797.580444 -75.5769653
v 230.36412 477.16098 -18.1953564
v 52.1655083 428.345978 -153.266891
v 185.533112 203.980789 11.1799955
v 97.0906677 93.3887024 146.094635
v -24.115036 17.2709961 -19.3516827
v -39.3215714 696.369324 -139.672958
v 34.9945526 31.161932 -152.656616
v -188.404175 430.092896 -64.8924484
v -113.719604 56.6916504 69.3362274
v -222.671188 508.579041 -21.9992123
v 44.3704872 563.002991 120.688736
v 5.39851522 126.250397 -178.341888
v -182.991241 392.213165 114.227226
v 140.495636 307.672852 136.564163
v 193.192154 287.924744 -77.2683029
v 169.440201 85.761734 -83.0981827
v -26.4451599 653.052185 114.461319
v 153.010956 23.1857643 -70.0530243
v -91.917305 538.87677 156.252487
v -124.597733 653.285461 120.088516
v -168.312927 531.422485 137.195038
v 154.3992 552.749451 127.963058
v -123.786148 728.931885 -74.548851
v -128.267517 730.688965 -23.7053967
v -84.6176453 21.2047977 147.652328
v -155.8517 459.664734 -117.484756
v 136.658142 777.158508 8.16906834
v 83.5508194 279.192993 146.783447
v 62.99366 960.73175 -42.6268463
v -130.386276 148.598465 -85.665184
v 24.9888268 207.237 204.30397
v -26.3701992 716.114197 7.11974239
v 165.84964 348.111359 -100.021965
v 155.698685 596.741638 -115.440765
v -168.468521 604.299683 -83.5268097
v 170.429413 643.76416 -13.5759192
v -51.7444878 81.2016907 46.3912697
v -213.805649 228.639969 62.0299225
v 41.1180382 7.81605911 8.49580956
v 120.720688 440.079895 -106.219398
v -174.104385 541.248413 4.29111052
v 34.3896637 264.876373 -180.693817
v -64.6792526 731.709656 52.2031708
v 174.308365 89.8106461 99.339859
v 64.6577606 416.43454 -206.483154
v -11.3027153 344.911713 175.889038
v 20.466156 31.8946762 183.455017
v -77.5822067 647.841003 15.9578581
v 211.578766 381.222809 -1.72061789
v -106.743294 46.944664 -2.53215051
v -5.92044735 738.928345 42.3073616
v -70.4317627 519.940369 -156.60144
v -185.890335 429.337799 53.9599304
v 72.3874435 964.565308 7.69473314
v 139.472015 368.400543 -161.940231
v 115.885506 896.903442 -24.8845882
v -226.071594 298.464386 -36.2106361
v 155.971054 147.434555 138.814545
v 57.5162697 530.215942 -130.636826
v -173.329315 215.55603 34.5118561
v 134.249771 600.473572 132.488983
v -31.402359 362.260254 -160.969894
v 86.7244415 -2.64088321 110.434685
v -146.875061 383.089813 158.609238
v -102.107841 75.600235 -124.830505
v 107.913246 712.442383 62.3972206
v 57.507225 867.207092 -71.9688339
v 139.529755 0.0150808739 77.9294281
v 203.777435 538.776367 4.33375835
v -154.433914 47.0045662 91.6830978
v -89.1261826 511.643494 -104.017754
v -133.071671 651.528503 59.348381
v 170.149979 155.620544 -1.84961939
v 132.8797 634.587036 -95.737999
v 183.042343 232.777481 -45.7054443
v -117.689568 425.568085 -116.593819
v 107.943336 258.340454 -165.594131
v 69.3796005 427.271454 141.812576
v 180.231735 328.483856 101.667496
v -52.6817055 706.218445 -10.6756248
v 148.867203 381.466644 7.06144667
v 33.1557312 283.458069 181.47258
v 74.8918152 400.293121 176.527344
v -153.609436 53.2442055 7.75726032
v -8.78337383 227.531067 165.067413
v -80.1356583 165.234894 176.023941
v 8.70673656 366.384094 -155.197296
v -117.242928 114.776443 180.523849
v 229.172455 590.226074 -10.2898645
v 92.6322632 806.905029 37.6768875
v 83.0039978 6.33655071 3.37664175
v -13.0504923 551.576599 186.543289
v 46.5755768 700.23822 93.2401352
v -64.6944122 27.2178802 -147.437195
v -40.5882111 607.967407 136.038666
v 69.734108 648.346375 -148.405746
v -183.869553 523.81604 88.3556824
v -93.5440521 106.80423 38.4479828
v -170.504349 520.983643 -60.4176102
v -179.277344 303.337891 -70.5933609
v -126.483673 569.33844 21.670042
v -86.9258041 24.3279324 -63.3760643
v 147.512314 63.5968399 5.82575703
v -127.01667 247.667206 189.733734
v 65.2074966 7.65404081 -73.9195328
v -27.0063801 73.5991058 204.941391
v -59.7481689 431.397186 -94.2336044
v -110.149635 230.284836 -98.9534683
v 128.60527 768.508606 -82.7655258
v -43.8987427 52.9542122 1.59586394
v 215.068939 214.953949 77.8113556
v -213.941849 331.037109 1.25302768
vt 0.472652167 0.717869997 0
vt 0.476209998 0.724849999 0
vt 0.477117956 0.729605734 0
vt 0.476625025 0.719528913 0
vt 0.47200048 0.667586803 0
vt 0.476240009 0.720550001 0
vt 0.476240009 0.720550001 0
vt 0.47200048 0.667586803 0
vt 0.476999998 0.71815002 0
vt 0.477750003 0.71746999 0
vt 0.476999998 0.71815002 0
vt 0.47200048 0.667586803 0
vt 0.476240009 0.720550001 0
vt 0.476999998 0.71815002 0
vt 0.477116168 0.719854534 0
vt 0.477209866 0.723700166 0
vt 0.476209998 0.724849999 0
vt 0.472652167 0.717869997 0
vt 0.476209998 0.724849999 0
vt 0.476500005 0.725570023 0
vt 0.477117956 0.729605734 0
vt 0.476310015 0.719770014 0
vt 0.476625025 0.719528913 0
vt 0.476240009 0.720550001 0
vt 0.476310015 0.719770014 0
vt 0.476240009 0.720550001 0
vt 0.476179987 0.720340014 0
vt 0.478929996 0.722559988 0
vt 0.477209866 0.723700166 0
vt 0.472652167 0.717869997 0
vt 0.472652167 0.717869997 0
vt 0.476240009 0.720550001 0
vt 0.478929996 0.722559988 0
vt 0.472652167 0.717869997 0
vt 0.476310015 0.719770014 0
vt 0.476179987 0.720340014 0
vt 0.47863999 0.717540026 0
vt 0.476625025 0.719528913 0
vt 0.477201253 0.718615055 0
vt 0.476240009 0.720550001 0
vt 0.472652167 0.717869997 0
vt 0.476179987 0.720340014 0
vt 0.479400069 0.718573511 0
vt 0.478100002 0.719590008 0
vt 0.478359997 0.718410015 0
vt 0.477750003 0.71746999 0
vt 0.47863999 0.717540026 0
vt 0.477201253 0.718615055 0
vt 0.478190005 0.720470011 0
vt 0.476240009 0.720550001 0
vt 0.477116168 0.719854534 0
vt 0.476240009 0.720550001 0
vt 0.478190005 0.720470011 0
vt 0.478929996 0.722559988 0
vt 0.480639994 0.718100011 0
vt 0.478359997 0.718410015 0
vt 0.480328321 0.714244902 0
vt 0.473749995 0.720089972 0
vt 0.472652167 0.717869997 0
vt 0.473630011 0.720120013 0
vt 0.473630011 0.720120013 0
vt 0.472652167 0.717869997 0
vt 0.474660009 0.71983999 0
vt 0.474660009 0.71983999 0
vt 0.472652167 0.717869997 0
vt 0.475129992 0.719649971 0
vt 0.476310015 0.719770014 0
vt 0.471789211 0.720626891 0
vt 0.47518 0.71995002 0
vt 0.472652167 0.717869997 0
vt 0.476625025 0.719528913 0
vt 0.475450009 0.719590008 0
vt 0.472652167 0.717869997 0
vt 0.475450009 0.719590008 0
vt 0.475129992 0.719649971 0
vt 0.475410014 0.719869971 0
vt 0.476310015 0.719770014 0
vt 0.47518 0.71995002 0
vt 0.476625025 0.719528913 0
vt 0.476310015 0.719770014 0
vt 0.478359997 0.718410015 0
vt 0.478359997 0.718410015 0
vt 0.478100002 0.719590008 0
vt 0.476625025 0.719528913 0
vt 0.480328321 0.714244902 0
vt 0.478359997 0.718410015 0
vt 0.47863999 0.717540026 0
vt 0.476526111 0.719422817 0
vt 0.47477001 0.719889998 0
vt 0.474660009 0.71983999 0
vt 0.473630011 0.720120013 0
vt 0.474660009 0.71983999 0
vt 0.47477001 0.719889998 0
vt 0.471789211 0.720626891 0
vt 0.473630011 0.720120013 0
vt 0.47477001 0.719889998 0
vt 0.476526111 0.719422817 0
vt 0.474660009 0.71983999 0
vt 0.475450009 0.719590008 0
vt 0.475450009 0.719590008 0
vt 0.474660009 0.71983999 0
vt 0.475129992 0.719649971 0
vt 0.475410014 0.719869971 0
vt 0.47518 0.71995002 0
vt 0.47477001 0.719889998 0
vt 0.475410014 0.719869971 0
vt 0.47477001 0.719889998 0
vt 0.476310015 0.719770014 0
vt 0.47518 0.71995002 0
vt 0.471789211 0.720626891 0
vt 0.47477001 0.719889998 0
vt 0.476625025 0.719528913 0
vt 0.476526111 0.719422817 0
vt 0.475450009 0.719590008 0
vt 0.478359997 0.718410015 0
vt 0.476310015 0.719770014 0
vt 0.476526111 0.719422817 0
vt 0.472979993 0.720260024 0
vt 0.472652167 0.717869997 0
vt 0.473339826 0.720161021 0
vt 0.471789211 0.720626891 0
vt 0.472846478 0.720329702 0
vt 0.473489255 0.720194578 0
vt 0.472979993 0.720260024 0
vt 0.473339826 0.720161021 0
vt 0.473749995 0.720089972 0
vt 0.472652167 0.717869997 0
vt 0.473749995 0.720089972 0
vt 0.473339826 0.720161021 0
vt 0.471789211 0.720626891 0
vt 0.473489255 0.720194578 0
vt 0.473580003 0.720170021 0
vt 0.473630011 0.720120013 0
vt 0.471789211 0.720626891 0
vt 0.473580003 0.720170021 0
vt 0.473630011 0.720120013 0
vt 0.473580003 0.720170021 0
vt 0.473749995 0.720089972 0
vt 0.476526111 0.719422817 0
vt 0.472979993 0.720260024 0
vt 0.473749995 0.720089972 0
vt 0.476526111 0.719422817 0
vt 0.473749995 0.720089972 0
vt 0.47477001 0.719889998 0
vt 0.47477001 0.719889998 0
vt 0.473749995 0.720089972 0
vt 0.475199997 0.719749987 0
vt 0.47477001 0.719889998 0
vt 0.475199997 0.719749987 0
vt 0.476310015 0.719770014 0
vt 0.476526111 0.719422817 0
vt 0.476310015 0.719770014 0
vt 0.475199997 0.719749987 0
vt 0.472846478 0.720329702 0
vt 0.473580003 0.720170021 0
vt 0.473489255 0.720194578 0
vt 0.473580003 0.720170021 0
vt 0.472846478 0.720329702 0
vt 0.475199997 0.719749987 0
vt 0.473580003 0.720170021 0
vt 0.475199997 0.719749987 0
vt 0.473749995 0.720089972 0
vt 0.475199997 0.719749987 0
vt 0.472979993 0.720260024 0
vt 0.476526111 0.719422817 0
vt 0.471789211 0.720626891 0
vt 0.472652167 0.717869997 0
vt 0.472979993 0.720260024 0
vt 0.472846478 0.720329702 0
vt 0.472979993 0.720260024 0
vt 0.475199997 0.719749987 0
vt 0.472979993 0.720260024 0
vt 0.472846478 0.720329702 0
vt 0.471789211 0.720626891 0
vt 0.47200048 0.667586803 0
vt 0.510664046 0.519355714 0
vt 0.528436601 0.648447871 0
vt 0.848375797 0.654406607 0
vt 0.838362217 0.737709522 0
vt 0.838550746 0.635003328 0
vt 0.838362217 0.737709522 0
vt 0.839779973 0.653859973 0
vt 0.838550746 0.635003328 0
vt 0.838863313 0.654508114 0
vt 0.794054091 0.647851706 0
vt 0.839779973 0.653859973 0
vt 0.839779973 0.653859973 0
vt 0.794054091 0.647851706 0
vt 0.838550746 0.635003328 0
vt 0.0285160132 0.364405513 0
vt 0.117487296 0.363150656 0
vt 0.155014768 0.543414235 0
vt 0.764225423 0.0101676593 0
vt 0.771016002 0.0582217127 0
vt 0.726861238 0.0234690607 0
vt 0.865924478 0.410657525 0
vt 0.826252699 0.425301433 0
vt 0.782983601 0.320552349 0
vt 0.472652167 0.717869997 0
vt 0.47200048 0.667586803 0
vt 0.476625025 0.719528913 0
vt 0.861236095 0.0392540693 0
vt 0.838476837 0.135182321 0
vt 0.817272842 0.0325742513 0
vt 0.0285160132 0.364405513 0
vt 0.155014768 0.543414235 0
vt 0.113278657 0.541304648 0
vt 0.596262336 0.0984644368 0
vt 0.542449176 0.0893598199 0
vt 0.621708155 0.0277560223 0
vt 0.284367323 0.264566004 0
vt 0.221482724 0.257041782 0
vt 0.296720833 0.190610185 0
vt 0.649760604 0.077016443 0
vt 0.596262336 0.0984644368 0
vt 0.621708155 0.0277560223 0
vt 0.284367323 0.264566004 0
vt 0.338992864 0.322726458 0
vt 0.235716715 0.292252302 0
vt 0.865924478 0.410657525 0
vt 0.941342235 0.54277277 0
vt 0.916597247 0.590952933 0
vt 0.916597247 0.590952933 0
vt 0.832407236 0.548458099 0
vt 0.865924478 0.410657525 0
vt 0.0299753081 0.269962341 0
vt 0.034830071 0.0831522644 0
vt 0.056193728 0.169034287 0
vt 0.646338344 0.342700034 0
vt 0.705157757 0.35821417 0
vt 0.656092525 0.404976368 0
vt 0.10292583 0.283987969 0
vt 0.0285160132 0.364405513 0
vt 0.0299753081 0.269962341 0
vt 0.47200048 0.667586803 0
vt 0.472652167 0.717869997 0
vt 0.440870881 0.730121851 0
vt 0.448948175 0.643253624 0
vt 0.510664046 0.519355714 0
vt 0.47200048 0.667586803 0
vt 0.726861238 0.0234690607 0
vt 0.771016002 0.0582217127 0
vt 0.649760604 0.077016443 0
vt 0.261319131 0.141977489 0
vt 0.31168589 0.114187859 0
vt 0.296720833 0.190610185 0
vt 0.000934975862 0.325493991 0
vt 0.0299753081 0.269962341 0
vt 0.0285160132 0.364405513 0
vt 0.230736822 0.18361342 0
vt 0.218605906 0.151677877 0
vt 0.261319131 0.141977489 0
vt 0.205651641 0.708635688 0
vt 0.12577644 0.731133163 0
vt 0.100904703 0.685378909 0
vt 0.322588593 0.670210004 0
vt 0.253169924 0.673038542 0
vt 0.272464037 0.578866184 0
vt 0.0267163143 0.552526534 0
vt 0.126398295 0.638114035 0
vt 0.100904703 0.685378909 0
vt 0.335459411 0.638445973 0
vt 0.394298434 0.661591828 0
vt 0.322588593 0.670210004 0
vt 0.427280277 0.355487674 0
vt 0.457772136 0.270093471 0
vt 0.500377536 0.412329346 0
vt 0.198357254 0.65933913 0
vt 0.126398295 0.638114035 0
vt 0.113278657 0.541304648 0
vt 0.901716471 0.237551793 0
vt 0.840893865 0.199048907 0
vt 0.838476837 0.135182321 0
vt 0.0667091385 0.0356269479 0
vt 0.056193728 0.169034287 0
vt 0.034830071 0.0831522644 0
vt 0.287447423 0.338644117 0
vt 0.235716715 0.292252302 0
vt 0.338992864 0.322726458 0
vt 0.510664046 0.519355714 0
vt 0.500377536 0.412329346 0
vt 0.543686569 0.553891957 0
vt 0.221482724 0.257041782 0
vt 0.230736822 0.18361342 0
vt 0.296720833 0.190610185 0
vt 0.235716715 0.292252302 0
vt 0.188991666 0.341786653 0
vt 0.117487296 0.363150656 0
vt 0.178990901 0.165083051 0
vt 0.0667091385 0.0356269479 0
vt 0.127476692 0.0363371335 0
vt 0.342906713 0.783014536 0
vt 0.284992129 0.735054731 0
vt 0.253169924 0.673038542 0
vt 0.398954511 0.401862681 0
vt 0.273391783 0.476810724 0
vt 0.360177875 0.418073595 0
vt 0.0967316553 0.213651136 0
vt 0.178990901 0.165083051 0
vt 0.10292583 0.283987969 0
vt 0.0967316553 0.213651136 0
vt 0.10292583 0.283987969 0
vt 0.0299753081 0.269962341 0
vt 0.715201318 0.175448641 0
vt 0.71508044 0.263776273 0
vt 0.691527486 0.114534236 0
vt 0.748684227 0.106579974 0
vt 0.715201318 0.175448641 0
vt 0.691527486 0.114534236 0
vt 0.12577644 0.731133163 0
vt 0.205651641 0.708635688 0
vt 0.255812794 0.752920985 0
vt 0.284992129 0.735054731 0
vt 0.255812794 0.752920985 0
vt 0.198357254 0.65933913 0
vt 0.826252699 0.425301433 0
vt 0.865924478 0.410657525 0
vt 0.832407236 0.548458099 0
vt 0.296720833 0.190610185 0
vt 0.303276092 0.239425525 0
vt 0.284367323 0.264566004 0
vt 0.65703541 0.266696692 0
vt 0.705157757 0.35821417 0
vt 0.646338344 0.342700034 0
vt 0.937737048 0.458507568 0
vt 0.975545943 0.552105665 0
vt 0.941342235 0.54277277 0
vt 0.668901205 0.516116321 0
vt 0.583592951 0.540521264 0
vt 0.599833846 0.343377709 0
vt 0.750806749 0.533227921 0
vt 0.722568154 0.454297841 0
vt 0.724394441 0.382687867 0
vt 0.519281268 0.179636642 0
vt 0.584202349 0.143982917 0
vt 0.550337613 0.25083214 0
vt 0.985735953 0.368964553 0
vt 0.933617234 0.323128134 0
vt 0.94771564 0.222581759 0
vt 0.940552056 0.397046268 0
vt 0.985735953 0.368964553 0
vt 0.989561617 0.410379529 0
vt 0.745614231 0.733924747 0
vt 0.631613553 0.584991097 0
vt 0.725115597 0.635435998 0
vt 0.206130192 0.549639225 0
vt 0.253169924 0.673038542 0
vt 0.198357254 0.65933913 0
vt 0.000934975862 0.325493991 0
vt 0.0285160132 0.364405513 0
vt 0.00710490253 0.409062624 0
vt 0.933617234 0.323128134 0
vt 0.985735953 0.368964553 0
vt 0.940552056 0.397046268 0
vt 0.248995036 0.529715359 0
vt 0.190390632 0.442361027 0
vt 0.295465112 0.548980951 0
vt 0.65703541 0.266696692 0
vt 0.599833846 0.343377709 0
vt 0.550337613 0.25083214 0
vt 0.273391783 0.476810724 0
vt 0.398954511 0.401862681 0
vt 0.36927408 0.512085915 0
vt 0.599833846 0.343377709 0
vt 0.572352827 0.29843545 0
vt 0.550337613 0.25083214 0
vt 0.724394441 0.382687867 0
vt 0.754362583 0.332262486 0
vt 0.782983601 0.320552349 0
vt 0.0903413221 0.143140987 0
vt 0.178990901 0.165083051 0
vt 0.056193728 0.169034287 0
vt 0.167034209 0.231763467 0
vt 0.230736822 0.18361342 0
vt 0.221482724 0.257041782 0
vt 0.0267163143 0.552526534 0
vt 0.113278657 0.541304648 0
vt 0.126398295 0.638114035 0
vt 0.472652167 0.717869997 0
vt 0.471789211 0.720626891 0
vt 0.476310015 0.719770014 0
vt 0.128378466 0.331043184 0
vt 0.235716715 0.292252302 0
vt 0.117487296 0.363150656 0
vt 0.750806749 0.533227921 0
vt 0.794054091 0.647851706 0
vt 0.722568154 0.454297841 0
vt 0.794054091 0.647851706 0
vt 0.725115597 0.635435998 0
vt 0.722568154 0.454297841 0
vt 0.832407236 0.548458099 0
vt 0.750806749 0.533227921 0
vt 0.826252699 0.425301433 0
vt 0.230736822 0.18361342 0
vt 0.261319131 0.141977489 0
vt 0.296720833 0.190610185 0
vt 0.427280277 0.355487674 0
vt 0.500377536 0.412329346 0
vt 0.510664046 0.519355714 0
vt 0.358458489 0.569774866 0
vt 0.36927408 0.512085915 0
vt 0.389458984 0.59464395 0
vt 0.47863999 0.717540026 0
vt 0.478359997 0.718410015 0
vt 0.476526111 0.719422817 0
vt 0.47863999 0.717540026 0
vt 0.476526111 0.719422817 0
vt 0.476625025 0.719528913 0
vt 0.303276092 0.239425525 0
vt 0.361396313 0.232265472 0
vt 0.372204959 0.304971248 0
vt 0.0667091385 0.0356269479 0
vt 0.178990901 0.165083051 0
vt 0.0903413221 0.143140987 0
vt 0.296720833 0.190610185 0
vt 0.31168589 0.114187859 0
vt 0.361396313 0.232265472 0
vt 0.480328321 0.714244902 0
vt 0.47863999 0.717540026 0
vt 0.47200048 0.667586803 0
vt 0.0285160132 0.364405513 0
vt 0.10292583 0.283987969 0
vt 0.128378466 0.331043184 0
vt 0.748684227 0.106579974 0
vt 0.691527486 0.114534236 0
vt 0.783619583 0.114202306 0
vt 0.201980948 0.781216741 0
vt 0.12577644 0.731133163 0
vt 0.255812794 0.752920985 0
vt 0.440870881 0.730121851 0
vt 0.477117956 0.729605734 0
vt 0.436074317 0.767102242 0
vt 0.472652167 0.717869997 0
vt 0.477117956 0.729605734 0
vt 0.440870881 0.730121851 0
vt 0.394298434 0.661591828 0
vt 0.335459411 0.638445973 0
vt 0.295465112 0.548980951 0
vt 0.117487296 0.363150656 0
vt 0.190390632 0.442361027 0
vt 0.155014768 0.543414235 0
vt 0.722568154 0.454297841 0
vt 0.656092525 0.404976368 0
vt 0.724394441 0.382687867 0
vt 0.817272842 0.0325742513 0
vt 0.838476837 0.135182321 0
vt 0.771016002 0.0582217127 0
vt 0.910503983 0.121705078 0
vt 0.94771564 0.222581759 0
vt 0.901716471 0.237551793 0
vt 0.691527486 0.114534236 0
vt 0.771016002 0.0582217127 0
vt 0.783619583 0.114202306 0
vt 0.272464037 0.578866184 0
vt 0.248995036 0.529715359 0
vt 0.295465112 0.548980951 0
vt 0.750806749 0.533227921 0
vt 0.832407236 0.548458099 0
vt 0.794054091 0.647851706 0
vt 0.237762257 0.355366439 0
vt 0.190390632 0.442361027 0
vt 0.188991666 0.341786653 0
vt 0.36927408 0.512085915 0
vt 0.477036893 0.506382048 0
vt 0.389458984 0.59464395 0
vt 0.722568154 0.454297841 0
vt 0.725115597 0.635435998 0
vt 0.686500669 0.54593116 0
vt 0.389458984 0.59464395 0
vt 0.477036893 0.506382048 0
vt 0.448948175 0.643253624 0
vt 0.287447423 0.338644117 0
vt 0.338992864 0.322726458 0
vt 0.360177875 0.418073595 0
vt 0.895708561 0.355154932 0
vt 0.865924478 0.410657525 0
vt 0.865831375 0.337202787 0
vt 0.649760604 0.077016443 0
vt 0.65703541 0.266696692 0
vt 0.584202349 0.143982917 0
vt 0.198357254 0.65933913 0
vt 0.253169924 0.673038542 0
vt 0.284992129 0.735054731 0
vt 0.649760604 0.077016443 0
vt 0.584202349 0.143982917 0
vt 0.596262336 0.0984644368 0
vt 0.838362217 0.737709522 0
vt 0.790928543 0.694681108 0
vt 0.794054091 0.647851706 0
vt 0.794054091 0.647851706 0
vt 0.790928543 0.694681108 0
vt 0.725115597 0.635435998 0
vt 0.510664046 0.519355714 0
vt 0.543686569 0.553891957 0
vt 0.528436601 0.648447871 0
vt 0.838476837 0.135182321 0
vt 0.861236095 0.0392540693 0
vt 0.910503983 0.121705078 0
vt 0.0667091385 0.0356269479 0
vt 0.0634941682 0.00818408467 0
vt 0.127476692 0.0363371335 0
vt 0.235716715 0.292252302 0
vt 0.221482724 0.257041782 0
vt 0.284367323 0.264566004 0
vt 0.71508044 0.263776273 0
vt 0.782983601 0.320552349 0
vt 0.754362583 0.332262486 0
vt 0.237762257 0.355366439 0
vt 0.273391783 0.476810724 0
vt 0.190390632 0.442361027 0
vt 0.840893865 0.199048907 0
vt 0.865831375 0.337202787 0
vt 0.783619583 0.114202306 0
vt 0.338992864 0.322726458 0
vt 0.372204959 0.304971248 0
vt 0.427280277 0.355487674 0
vt 0.477036893 0.506382048 0
vt 0.510664046 0.519355714 0
vt 0.448948175 0.643253624 0
vt 0.188991666 0.341786653 0
vt 0.287447423 0.338644117 0
vt 0.237762257 0.355366439 0
vt 0.235716715 0.292252302 0
vt 0.287447423 0.338644117 0
vt 0.188991666 0.341786653 0
vt 0.790928543 0.694681108 0
vt 0.838362217 0.737709522 0
vt 0.794659615 0.767481923 0
vt 0.631613553 0.584991097 0
vt 0.668901205 0.516116321 0
vt 0.686500669 0.54593116 0
vt 0.272464037 0.578866184 0
vt 0.253169924 0.673038542 0
vt 0.248995036 0.529715359 0
vt 0.248995036 0.529715359 0
vt 0.197520033 0.466192365 0
vt 0.190390632 0.442361027 0
vt 0.838550746 0.635003328 0
vt 0.832407236 0.548458099 0
vt 0.916597247 0.590952933 0
vt 0.895708561 0.355154932 0
vt 0.865831375 0.337202787 0
vt 0.840893865 0.199048907 0
vt 0.477117956 0.729605734 0
vt 0.480948091 0.769896746 0
vt 0.436074317 0.767102242 0
vt 0.901716471 0.237551793 0
vt 0.933617234 0.323128134 0
vt 0.895708561 0.355154932 0
vt 0.838476837 0.135182321 0
vt 0.840893865 0.199048907 0
vt 0.783619583 0.114202306 0
vt 0.273391783 0.476810724 0
vt 0.295465112 0.548980951 0
vt 0.190390632 0.442361027 0
vt 0.750806749 0.533227921 0
vt 0.724394441 0.382687867 0
vt 0.826252699 0.425301433 0
vt 0.668901205 0.516116321 0
vt 0.599833846 0.343377709 0
vt 0.656092525 0.404976368 0
vt 0.722568154 0.454297841 0
vt 0.668901205 0.516116321 0
vt 0.656092525 0.404976368 0
vt 0.338992864 0.322726458 0
vt 0.427280277 0.355487674 0
vt 0.398954511 0.401862681 0
vt 0.287447423 0.338644117 0
vt 0.273391783 0.476810724 0
vt 0.237762257 0.355366439 0
vt 0.218605906 0.151677877 0
vt 0.127476692 0.0363371335 0
vt 0.191969246 0.0815143138 0
vt 0.71508044 0.263776273 0
vt 0.65703541 0.266696692 0
vt 0.691527486 0.114534236 0
vt 0.848375797 0.654406607 0
vt 0.916597247 0.590952933 0
vt 0.91916436 0.619234443 0
vt 0.865831375 0.337202787 0
vt 0.865924478 0.410657525 0
vt 0.838320851 0.359114945 0
vt 0.272464037 0.578866184 0
vt 0.335459411 0.638445973 0
vt 0.322588593 0.670210004 0
vt 0.508416951 0.229431957 0
vt 0.519281268 0.179636642 0
vt 0.550337613 0.25083214 0
vt 0.197520033 0.466192365 0
vt 0.155014768 0.543414235 0
vt 0.190390632 0.442361027 0
vt 0.724394441 0.382687867 0
vt 0.656092525 0.404976368 0
vt 0.705157757 0.35821417 0
vt 0.794659615 0.767481923 0
vt 0.745614231 0.733924747 0
vt 0.790928543 0.694681108 0
vt 0.295465112 0.548980951 0
vt 0.36927408 0.512085915 0
vt 0.358458489 0.569774866 0
vt 0.910503983 0.121705078 0
vt 0.980076671 0.234315619 0
vt 0.94771564 0.222581759 0
vt 0.686500669 0.54593116 0
vt 0.725115597 0.635435998 0
vt 0.631613553 0.584991097 0
vt 0.599833846 0.343377709 0
vt 0.556917071 0.456790984 0
vt 0.572352827 0.29843545 0
vt 0.303276092 0.239425525 0
vt 0.296720833 0.190610185 0
vt 0.361396313 0.232265472 0
vt 0.361396313 0.232265472 0
vt 0.31168589 0.114187859 0
vt 0.408341348 0.249019191 0
vt 0.117487296 0.363150656 0
vt 0.188991666 0.341786653 0
vt 0.190390632 0.442361027 0
vt 0.448948175 0.643253624 0
vt 0.440870881 0.730121851 0
vt 0.394298434 0.661591828 0
vt 0.300220937 0.79794383 0
vt 0.201980948 0.781216741 0
vt 0.255812794 0.752920985 0
vt 0.0634941682 0.00818408467 0
vt 0.0667091385 0.0356269479 0
vt 0.034830071 0.0831522644 0
vt 0.113278657 0.541304648 0
vt 0.00710490253 0.409062624 0
vt 0.0285160132 0.364405513 0
vt 0.916597247 0.590952933 0
vt 0.941342235 0.54277277 0
vt 0.975545943 0.552105665 0
vt 0.980076671 0.234315619 0
vt 0.985735953 0.368964553 0
vt 0.94771564 0.222581759 0
vt 0.178990901 0.165083051 0
vt 0.127476692 0.0363371335 0
vt 0.218605906 0.151677877 0
vt 0.724394441 0.382687867 0
vt 0.705157757 0.35821417 0
vt 0.754362583 0.332262486 0
vt 0.646338344 0.342700034 0
vt 0.656092525 0.404976368 0
vt 0.599833846 0.343377709 0
vt 0.901716471 0.237551793 0
vt 0.895708561 0.355154932 0
vt 0.840893865 0.199048907 0
vt 0.838476837 0.135182321 0
vt 0.783619583 0.114202306 0
vt 0.771016002 0.0582217127 0
vt 0.100904703 0.685378909 0
vt 0.126398295 0.638114035 0
vt 0.198357254 0.65933913 0
vt 0.448948175 0.643253624 0
vt 0.47200048 0.667586803 0
vt 0.440870881 0.730121851 0
vt 0.248995036 0.529715359 0
vt 0.253169924 0.673038542 0
vt 0.206130192 0.549639225 0
vt 0.100904703 0.685378909 0
vt 0.198357254 0.65933913 0
vt 0.205651641 0.708635688 0
vt 0.427280277 0.355487674 0
vt 0.510664046 0.519355714 0
vt 0.477036893 0.506382048 0
vt 0.865831375 0.337202787 0
vt 0.782983601 0.320552349 0
vt 0.715201318 0.175448641 0
vt 0.167034209 0.231763467 0
vt 0.178990901 0.165083051 0
vt 0.230736822 0.18361342 0
vt 0.783619583 0.114202306 0
vt 0.715201318 0.175448641 0
vt 0.748684227 0.106579974 0
vt 0.722568154 0.454297841 0
vt 0.686500669 0.54593116 0
vt 0.668901205 0.516116321 0
vt 0.155014768 0.543414235 0
vt 0.198357254 0.65933913 0
vt 0.113278657 0.541304648 0
vt 0.782983601 0.320552349 0
vt 0.865831375 0.337202787 0
vt 0.838320851 0.359114945 0
vt 0.300220937 0.79794383 0
vt 0.255812794 0.752920985 0
vt 0.284992129 0.735054731 0
vt 0.361396313 0.232265472 0
vt 0.408341348 0.249019191 0
vt 0.372204959 0.304971248 0
vt 0.782983601 0.320552349 0
vt 0.71508044 0.263776273 0
vt 0.715201318 0.175448641 0
vt 0.65703541 0.266696692 0
vt 0.550337613 0.25083214 0
vt 0.584202349 0.143982917 0
vt 0.838550746 0.635003328 0
vt 0.916597247 0.590952933 0
vt 0.848375797 0.654406607 0
vt 0.0267163143 0.552526534 0
vt 0.0270504821 0.505893171 0
vt 0.113278657 0.541304648 0
vt 0.631613553 0.584991097 0
vt 0.583592951 0.540521264 0
vt 0.668901205 0.516116321 0
vt 0.0967316553 0.213651136 0
vt 0.056193728 0.169034287 0
vt 0.178990901 0.165083051 0
vt 0.338992864 0.322726458 0
vt 0.398954511 0.401862681 0
vt 0.360177875 0.418073595 0
vt 0.255812794 0.752920985 0
vt 0.205651641 0.708635688 0
vt 0.198357254 0.65933913 0
vt 0.726861238 0.0234690607 0
vt 0.649760604 0.077016443 0
vt 0.665030539 0.0125043942 0
vt 0.989561617 0.410379529 0
vt 0.975545943 0.552105665 0
vt 0.937737048 0.458507568 0
vt 0.691527486 0.114534236 0
vt 0.65703541 0.266696692 0
vt 0.649760604 0.077016443 0
vt 0.65703541 0.266696692 0
vt 0.71508044 0.263776273 0
vt 0.705157757 0.35821417 0
vt 0.526984334 0.685810328 0
vt 0.47200048 0.667586803 0
vt 0.528436601 0.648447871 0
vt 0.372204959 0.304971248 0
vt 0.408341348 0.249019191 0
vt 0.427280277 0.355487674 0
vt 0.0667091385 0.0356269479 0
vt 0.0903413221 0.143140987 0
vt 0.056193728 0.169034287 0
vt 0.550337613 0.25083214 0
vt 0.528679967 0.378492594 0
vt 0.508416951 0.229431957 0
vt 0.10292583 0.283987969 0
vt 0.178990901 0.165083051 0
vt 0.167034209 0.231763467 0
vt 0.0967316553 0.213651136 0
vt 0.0299753081 0.269962341 0
vt 0.056193728 0.169034287 0
vt 0.71508044 0.263776273 0
vt 0.754362583 0.332262486 0
vt 0.705157757 0.35821417 0
vt 0.394298434 0.661591828 0
vt 0.295465112 0.548980951 0
vt 0.389458984 0.59464395 0
vt 0.865924478 0.410657525 0
vt 0.782983601 0.320552349 0
vt 0.838320851 0.359114945 0
vt 0.556917071 0.456790984 0
vt 0.500215888 0.390109628 0
vt 0.528679967 0.378492594 0
vt 0.10292583 0.283987969 0
vt 0.221482724 0.257041782 0
vt 0.128378466 0.331043184 0
vt 0.408341348 0.249019191 0
vt 0.457772136 0.270093471 0
vt 0.427280277 0.355487674 0
vt 0.646338344 0.342700034 0
vt 0.599833846 0.343377709 0
vt 0.65703541 0.266696692 0
vt 0.322588593 0.670210004 0
vt 0.342906713 0.783014536 0
vt 0.253169924 0.673038542 0
vt 0.865831375 0.337202787 0
vt 0.715201318 0.175448641 0
vt 0.783619583 0.114202306 0
vt 0.665030539 0.0125043942 0
vt 0.649760604 0.077016443 0
vt 0.621708155 0.0277560223 0
vt 0.248995036 0.529715359 0
vt 0.155014768 0.543414235 0
vt 0.197520033 0.466192365 0
vt 0.155014768 0.543414235 0
vt 0.248995036 0.529715359 0
vt 0.206130192 0.549639225 0
vt 0.36927408 0.512085915 0
vt 0.398954511 0.401862681 0
vt 0.477036893 0.506382048 0
vt 0.937737048 0.458507568 0
vt 0.865924478 0.410657525 0
vt 0.940552056 0.397046268 0
vt 0.764225423 0.0101676593 0
vt 0.817272842 0.0325742513 0
vt 0.771016002 0.0582217127 0
vt 0.771016002 0.0582217127 0
vt 0.691527486 0.114534236 0
vt 0.649760604 0.077016443 0
vt 0.901716471 0.237551793 0
vt 0.838476837 0.135182321 0
vt 0.910503983 0.121705078 0
vt 0.895708561 0.355154932 0
vt 0.940552056 0.397046268 0
vt 0.865924478 0.410657525 0
vt 0.440870881 0.730121851 0
vt 0.432848752 0.767051935 0
vt 0.405369371 0.792514324 0
vt 0.940552056 0.397046268 0
vt 0.895708561 0.355154932 0
vt 0.933617234 0.323128134 0
vt 0.342906713 0.783014536 0
vt 0.440870881 0.730121851 0
vt 0.405369371 0.792514324 0
vt 0.599833846 0.343377709 0
vt 0.583592951 0.540521264 0
vt 0.556917071 0.456790984 0
vt 0.155014768 0.543414235 0
vt 0.206130192 0.549639225 0
vt 0.198357254 0.65933913 0
vt 0.273391783 0.476810724 0
vt 0.287447423 0.338644117 0
vt 0.360177875 0.418073595 0
vt 0.794054091 0.647851706 0
vt 0.832407236 0.548458099 0
vt 0.838550746 0.635003328 0
vt 0.47863999 0.717540026 0
vt 0.477750003 0.71746999 0
vt 0.47200048 0.667586803 0
vt 0.398954511 0.401862681 0
vt 0.427280277 0.355487674 0
vt 0.477036893 0.506382048 0
vt 0.542449176 0.0893598199 0
vt 0.596262336 0.0984644368 0
vt 0.584202349 0.143982917 0
vt 0.394298434 0.661591828 0
vt 0.342906713 0.783014536 0
vt 0.322588593 0.670210004 0
vt 0.933617234 0.323128134 0
vt 0.901716471 0.237551793 0
vt 0.94771564 0.222581759 0
vt 0.338992864 0.322726458 0
vt 0.303276092 0.239425525 0
vt 0.372204959 0.304971248 0
vt 0.00710490253 0.409062624 0
vt 0.113278657 0.541304648 0
vt 0.0270504821 0.505893171 0
vt 0.284992129 0.735054731 0
vt 0.342906713 0.783014536 0
vt 0.300220937 0.79794383 0
vt 0.826252699 0.425301433 0
vt 0.724394441 0.382687867 0
vt 0.782983601 0.320552349 0
vt 0.542449176 0.0893598199 0
vt 0.584202349 0.143982917 0
vt 0.519281268 0.179636642 0
vt 0.941342235 0.54277277 0
vt 0.865924478 0.410657525 0
vt 0.937737048 0.458507568 0
vt 0.480328321 0.714244902 0
vt 0.47200048 0.667586803 0
vt 0.526984334 0.685810328 0
vt 0.10292583 0.283987969 0
vt 0.167034209 0.231763467 0
vt 0.221482724 0.257041782 0
vt 0.272464037 0.578866184 0
vt 0.295465112 0.548980951 0
vt 0.335459411 0.638445973 0
vt 0.937737048 0.458507568 0
vt 0.940552056 0.397046268 0
vt 0.989561617 0.410379529 0
vt 0.394298434 0.661591828 0
vt 0.389458984 0.59464395 0
vt 0.448948175 0.643253624 0
vt 0.218605906 0.151677877 0
vt 0.230736822 0.18361342 0
vt 0.178990901 0.165083051 0
vt 0.284367323 0.264566004 0
vt 0.303276092 0.239425525 0
vt 0.338992864 0.322726458 0
vt 0.556917071 0.456790984 0
vt 0.528679967 0.378492594 0
vt 0.572352827 0.29843545 0
vt 0.440870881 0.730121851 0
vt 0.342906713 0.783014536 0
vt 0.394298434 0.661591828 0
vt 0.273391783 0.476810724 0
vt 0.36927408 0.512085915 0
vt 0.295465112 0.548980951 0
vt 0.790928543 0.694681108 0
vt 0.745614231 0.733924747 0
vt 0.725115597 0.635435998 0
vt 0.235716715 0.292252302 0
vt 0.128378466 0.331043184 0
vt 0.221482724 0.257041782 0
vt 0.358458489 0.569774866 0
vt 0.389458984 0.59464395 0
vt 0.295465112 0.548980951 0
vt 0.0285160132 0.364405513 0
vt 0.128378466 0.331043184 0
vt 0.117487296 0.363150656 0
vt 0.572352827 0.29843545 0
vt 0.528679967 0.378492594 0
vt 0.550337613 0.25083214 0
vn -0.2363417 -0.439477354 -0.593382299
vn 0.475271314 -0.485821605 0.733549297
vn -0.123820707 -0.715252936 0.632876694
vn 0.80848825 0.0816586465 0.0744015723
vn 0.149108812 -0.334606141 0.383647561
vn 0.526754618 0.429435879 0.733562827
vn 0.526754618 0.429435879 0.733562827
vn 0.149108812 -0.334606141 0.383647561
vn 0.475271314 -0.485821605 0.733549297
vn 0.45206219 -0.706679463 0.544282913
vn 0.475271314 -0.485821605 0.733549297
vn 0.149108812 -0.334606141 0.383647561
vn 0.526754618 0.429435879 0.733562827
vn 0.475271314 -0.485821605 0.733549297
vn 1.15067601 0.146308407 -0.171085373
vn 1.15067601 0.146308407 -0.171085373
vn 0.475271314 -0.485821605 0.733549297
vn -0.2363417 -0.439477354 -0.593382299
vn 0.475271314 -0.485821605 0.733549297
vn 0.45206219 -0.706679463 0.544282913
vn -0.123820707 -0.715252936 0.632876694
vn -0.89470005 0.242865607 0.374870658
vn 0.80848825 0.0816586465 0.0744015723
vn 0.526754618 0.429435879 0.733562827
vn -0.89470005 0.242865607 0.374870658
vn 0.526754618 0.429435879 0.733562827
vn -0.360759407 0.418583632 0.833450854
vn 0.45206219 -0.706679463 0.544282913
vn 1.15067601 0.146308407 -0.171085373
vn -0.2363417 -0.439477354 -0.593382299
vn -0.2363417 -0.439477354 -0.593382299
vn 0.526754618 0.429435879 0.733562827
vn 0.45206219 -0.706679463 0.544282913
vn -0.2363417 -0.439477354 -0.593382299
vn -0.89470005 0.242865607 0.374870658
vn -0.360759407 0.418583632 0.833450854
vn 0.98801136 -0.0152077144 -0.153630137
vn 0.80848825 0.0816586465 0.0744015723
vn 1.15067601 0.146308407 -0.171085373
vn 0.526754618 0.429435879 0.733562827
vn -0.2363417 -0.439477354 -0.593382299
vn -0.360759407 0.418583632 0.833450854
vn 1.15067601 0.146308407 -0.171085373
vn -0.360759407 0.418583632 0.833450854
vn -0.978777289 -0.0582894795 -0.196462274
vn 0.45206219 -0.706679463 0.544282913
vn 0.98801136 -0.0152077144 -0.153630137
vn 1.15067601 0.146308407 -0.171085373
vn -0.978777289 -0.0582894795 -0.196462274
vn 0.526754618 0.429435879 0.733562827
vn 1.15067601 0.146308407 -0.171085373
vn 0.526754618 0.429435879 0.733562827
vn -0.978777289 -0.0582894795 -0.196462274
vn 0.45206219 -0.706679463 0.544282913
vn 0.45206219 -0.706679463 0.544282913
vn -0.978777289 -0.0582894795 -0.196462274
vn -0.123820707 -0.715252936 0.632876694
vn 0.206633329 0.890426815 -0.405515522
vn -0.2363417 -0.439477354 -0.593382299
vn 0.255091518 0.6091187 0.750934541
vn 0.255091518 0.6091187 0.750934541
vn -0.2363417 -0.439477354 -0.593382299
vn 0.984402537 -0.01911694 -0.174888715
vn 0.984402537 -0.01911694 -0.174888715
vn -0.2363417 -0.439477354 -0.593382299
vn 0.39795652 0.0173167307 0.917240798
vn -0.89470005 0.242865607 0.374870658
vn -0.391873628 -0.36679551 0.163905323
vn 0.39795652 0.0173167307 0.917240798
vn -0.2363417 -0.439477354 -0.593382299
vn 0.80848825 0.0816586465 0.0744015723
vn 0.985084593 -0.16516231 -0.0482677557
vn -0.2363417 -0.439477354 -0.593382299
vn 0.985084593 -0.16516231 -0.0482677557
vn 0.39795652 0.0173167307 0.917240798
vn 0.985084593 -0.16516231 -0.0482677557
vn -0.89470005 0.242865607 0.374870658
vn 0.39795652 0.0173167307 0.917240798
vn 0.80848825 0.0816586465 0.0744015723
vn -0.89470005 0.242865607 0.374870658
vn -0.978777289 -0.0582894795 -0.196462274
vn -0.978777289 -0.0582894795 -0.196462274
vn -0.360759407 0.418583632 0.833450854
vn 0.80848825 0.0816586465 0.0744015723
vn -0.123820707 -0.715252936 0.632876694
vn -0.978777289 -0.0582894795 -0.196462274
vn 0.98801136 -0.0152077144 -0.153630137
vn 0.267076135 0.124449655 1.1513052
vn 0.317771494 0.269557863 0.909043252
vn 0.984402537 -0.01911694 -0.174888715
vn 0.255091518 0.6091187 0.750934541
vn 0.984402537 -0.01911694 -0.174888715
vn 0.317771494 0.269557863 0.909043252
vn -0.391873628 -0.36679551 0.163905323
vn 0.255091518 0.6091187 0.750934541
vn 0.317771494 0.269557863 0.909043252
vn 0.267076135 0.124449655 1.1513052
vn 0.984402537 -0.01911694 -0.174888715
vn 0.985084593 -0.16516231 -0.0482677557
vn 0.985084593 -0.16516231 -0.0482677557
vn 0.984402537 -0.01911694 -0.174888715
vn 0.39795652 0.0173167307 0.917240798
vn 0.985084593 -0.16516231 -0.0482677557
vn 0.39795652 0.0173167307 0.917240798
vn 0.317771494 0.269557863 0.909043252
vn 0.985084593 -0.16516231 -0.0482677557
vn 0.317771494 0.269557863 0.909043252
vn -0.89470005 0.242865607 0.374870658
vn 0.39795652 0.0173167307 0.917240798
vn -0.391873628 -0.36679551 0.163905323
vn 0.317771494 0.269557863 0.909043252
vn 0.80848825 0.0816586465 0.0744015723
vn 0.267076135 0.124449655 1.1513052
vn 0.985084593 -0.16516231 -0.0482677557
vn -0.978777289 -0.0582894795 -0.196462274
vn -0.89470005 0.242865607 0.374870658
vn 0.267076135 0.124449655 1.1513052
vn 0.974966347 0.11985255 0.187285408
vn -0.2363417 -0.439477354 -0.593382299
vn 0.262127578 0.0617984161 0.020787321
vn -0.391873628 -0.36679551 0.163905323
vn 0.260396183 0.120737143 1.10700095
vn 0.491726756 0.556411266 0.136870503
vn 0.974966347 0.11985255 0.187285408
vn 0.262127578 0.0617984161 0.020787321
vn 0.206633329 0.890426815 -0.405515522
vn -0.2363417 -0.439477354 -0.593382299
vn 0.206633329 0.890426815 -0.405515522
vn 0.262127578 0.0617984161 0.020787321
vn -0.391873628 -0.36679551 0.163905323
vn 0.491726756 0.556411266 0.136870503
vn -0.940838456 0.131190196 0.312429488
vn 0.255091518 0.6091187 0.750934541
vn -0.391873628 -0.36679551 0.163905323
vn -0.940838456 0.131190196 0.312429488
vn 0.255091518 0.6091187 0.750934541
vn -0.940838456 0.131190196 0.312429488
vn 0.206633329 0.890426815 -0.405515522
vn 0.267076135 0.124449655 1.1513052
vn 0.974966347 0.11985255 0.187285408
vn 0.206633329 0.890426815 -0.405515522
vn 0.267076135 0.124449655 1.1513052
vn 0.206633329 0.890426815 -0.405515522
vn 0.317771494 0.269557863 0.909043252
vn 0.317771494 0.269557863 0.909043252
vn 0.206633329 0.890426815 -0.405515522
vn -0.99869889 -0.0509738103 -0.00151283713
vn 0.317771494 0.269557863 0.909043252
vn -0.99869889 -0.0509738103 -0.00151283713
vn -0.89470005 0.242865607 0.374870658
vn 0.267076135 0.124449655 1.1513052
vn -0.89470005 0.242865607 0.374870658
vn -0.99869889 -0.0509738103 -0.00151283713
vn 0.260396183 0.120737143 1.10700095
vn -0.940838456 0.131190196 0.312429488
vn 0.491726756 0.556411266 0.136870503
vn -0.940838456 0.131190196 0.312429488
vn 0.260396183 0.120737143 1.10700095
vn -0.99869889 -0.0509738103 -0.00151283713
vn -0.940838456 0.131190196 0.312429488
vn -0.99869889 -0.0509738103 -0.00151283713
vn 0.206633329 0.890426815 -0.405515522
vn -0.99869889 -0.0509738103 -0.00151283713
vn 0.974966347 0.11985255 0.187285408
vn 0.267076135 0.124449655 1.1513052
vn -0.391873628 -0.36679551 0.163905323
vn -0.2363417 -0.439477354 -0.593382299
vn 0.974966347 0.11985255 0.187285408
vn 0.260396183 0.120737143 1.10700095
vn 0.974966347 0.11985255 0.187285408
vn -0.99869889 -0.0509738103 -0.00151283713
vn 0.974966347 0.11985255 0.187285408
vn 0.260396183 0.120737143 1.10700095
vn -0.391873628 -0.36679551 0.163905323
vn 0.149108812 -0.334606141 0.383647561
vn -0.777372181 -0.279381156 -0.251520157
vn -0.868449032 -0.382599682 0.0682867989
vn -0.861845791 0.291081399 -0.0533160008
vn -1.01844692 0.103457481 -0.426322013
vn -0.293956578 0.764861047 -0.445738286
vn -1.01844692 0.103457481 -0.426322013
vn -0.127877489 0.812008142 0.569464743
vn -0.293956578 0.764861047 -0.445738286
vn -2.78326082 -5.21616077 4.72186327
vn -0.233957902 0.233443871 -0.692530334
vn -0.127877489 0.812008142 0.569464743
vn -0.127877489 0.812008142 0.569464743
vn -0.233957902 0.233443871 -0.692530334
vn -0.293956578 0.764861047 -0.445738286
vn 0.772591233 0.237014666 0.277743638
vn 0.529261112 -0.00548234116 0.776532233
vn 0.531159401 0.0661077127 0.811974406
vn -0.467821598 -0.638286889 0.470584542
vn -0.565908194 -0.782588482 -0.0721027702
vn -0.363354295 -0.827963591 0.219101533
vn -0.538337946 0.16282554 -0.668547034
vn -0.376328468 0.0638408512 -0.86738801
vn -0.365904868 -0.0737008825 -0.876334488
vn -0.2363417 -0.439477354 -0.593382299
vn 0.149108812 -0.334606141 0.383647561
vn 0.80848825 0.0816586465 0.0744015723
vn -0.868449032 -0.382599682 0.0682867989
vn -0.484066099 -0.261826962 -0.776462138
vn 0.612425029 -0.585570753 -0.311923563
vn 0.772591233 0.237014666 0.277743638
vn 0.531159401 0.0661077127 0.811974406
vn 0.65776962 0.363591969 0.982927561
vn 0.457127929 -0.573633671 -0.458112508
vn 0.913337946 -0.330658823 0.0311709829
vn 0.169750199 -0.924946368 -0.0169495549
vn -0.319953024 0.641883373 0.540616751
vn -0.171465471 0.517029524 0.816690981
vn -0.448326916 0.231177092 0.156618103
vn 0.326980561 -0.519840062 -0.559146702
vn 0.457127929 -0.573633671 -0.458112508
vn 0.169750199 -0.924946368 -0.0169495549
vn -0.319953024 0.641883373 0.540616751
vn -0.734279692 0.150105432 0.602670491
vn -0.102634966 -0.0395031273 0.989529669
vn -0.538337946 0.16282554 -0.668547034
vn -0.194127738 0.427904606 -0.810363173
vn -0.244803965 0.453680664 0.332960397
vn -0.244803965 0.453680664 0.332960397
vn -0.507539868 0.368891567 -0.791181028
vn -0.538337946 0.16282554 -0.668547034
vn 0.687374711 0.324378818 0.219169959
vn 0.849025786 0.428472251 0.059853524
vn 0.721924722 0.106353231 0.697035015
vn 0.687830627 0.0278903581 -0.665736079
vn 0.183969274 0.273785055 -0.785828292
vn 0.559108794 0.237291887 -0.690733552
vn 0.393602133 0.371887684 0.419313461
vn 0.772591233 0.237014666 0.277743638
vn 0.687374711 0.324378818 0.219169959
vn 0.149108812 -0.334606141 0.383647561
vn -0.2363417 -0.439477354 -0.593382299
vn -0.556019306 -0.326918364 -0.522570848
vn -0.733309507 -0.661036432 -0.257770061
vn -0.777372181 -0.279381156 -0.251520157
vn 0.149108812 -0.334606141 0.383647561
vn -0.363354295 -0.827963591 0.219101533
vn -0.565908194 -0.782588482 -0.0721027702
vn 0.326980561 -0.519840062 -0.559146702
vn -0.244803965 0.453680664 0.332960397
vn -0.709170341 0.467957556 0.455718338
vn -0.448326916 0.231177092 0.156618103
vn 0.932974935 0.130708247 0.0966494977
vn 0.687374711 0.324378818 0.219169959
vn 0.772591233 0.237014666 0.277743638
vn -0.550687611 0.790574908 0.0586693659
vn -0.856608748 0.160313845 -0.162643492
vn -0.244803965 0.453680664 0.332960397
vn 0.885951579 -0.161761671 0.328515321
vn 0.970350981 -0.0615027621 -0.154845566
vn 0.823646188 -0.337125778 -0.156094998
vn 0.455824614 -0.703875065 0.521207213
vn 0.469263673 -0.15732272 0.744069517
vn -0.0566966236 0.166996434 0.815036178
vn 0.641866565 0.184643477 -0.162532866
vn 0.987084031 -0.317946196 -0.0253338218
vn 0.823646188 -0.337125778 -0.156094998
vn -0.375543445 -0.265747309 0.861451387
vn -0.274750978 -0.824038386 0.383449048
vn 0.455824614 -0.703875065 0.521207213
vn -0.719129145 0.215486854 0.379898548
vn -0.977639854 0.343407333 -0.109332018
vn -0.895737886 -0.0708630234 0.456773609
vn 0.717791498 -0.101852179 0.72920537
vn 0.987084031 -0.317946196 -0.0253338218
vn 0.65776962 0.363591969 0.982927561
vn -0.891273081 0.0506493412 -0.421849728
vn -0.58380264 -0.0722481832 -0.453925282
vn -0.484066099 -0.261826962 -0.776462138
vn 0.348310322 0.388571382 0.815499067
vn 0.721924722 0.106353231 0.697035015
vn 0.849025786 0.428472251 0.059853524
vn -0.317363679 0.259993196 0.87522012
vn -0.102634966 -0.0395031273 0.989529669
vn -0.734279692 0.150105432 0.602670491
vn -0.777372181 -0.279381156 -0.251520157
vn -0.895737886 -0.0708630234 0.456773609
vn -0.871501744 -0.376583338 0.407990664
vn -0.171465471 0.517029524 0.816690981
vn -0.550687611 0.790574908 0.0586693659
vn -0.448326916 0.231177092 0.156618103
vn -0.102634966 -0.0395031273 0.989529669
vn 0.00713210087 0.219599172 0.681565046
vn 0.529261112 -0.00548234116 0.776532233
vn -0.130436778 0.208926633 0.831737161
vn 0.348310322 0.388571382 0.815499067
vn -1.01844692 0.103457481 -0.426322013
vn -0.16356416 -0.936491609 -0.00522555038
vn 0.00563806389 -0.623638391 0.729497433
vn 0.469263673 -0.15732272 0.744069517
vn -0.686619699 0.0609213449 0.726710856
vn -0.135442272 0.0801395178 0.992517889
vn -0.363352299 -0.11672055 0.900121272
vn -0.020342648 0.0865595564 0.936469734
vn -0.130436778 0.208926633 0.831737161
vn 0.393602133 0.371887684 0.419313461
vn -0.020342648 0.0865595564 0.936469734
vn 0.393602133 0.371887684 0.419313461
vn 0.687374711 0.324378818 0.219169959
vn -0.085579738 0.0607399642 -1.0197556
vn 0.0229213201 -0.155973718 -0.893455744
vn 0.44575569 -0.530195832 -0.598946571
vn -0.519336045 -0.29202345 -0.745911539
vn -0.085579738 0.0607399642 -1.0197556
vn 0.44575569 -0.530195832 -0.598946571
vn 0.970350981 -0.0615027621 -0.154845566
vn 0.885951579 -0.161761671 0.328515321
vn 0.734487116 -0.593290329 0.0911112875
vn 0.00563806389 -0.623638391 0.729497433
vn 0.734487116 -0.593290329 0.0911112875
vn 0.717791498 -0.101852179 0.72920537
vn -0.376328468 0.0638408512 -0.86738801
vn -0.538337946 0.16282554 -0.668547034
vn -0.507539868 0.368891567 -0.791181028
vn -0.448326916 0.231177092 0.156618103
vn -0.794525862 0.575383723 -0.196263984
vn -0.319953024 0.641883373 0.540616751
vn 0.502942979 -0.23006469 -0.888273776
vn 0.183969274 0.273785055 -0.785828292
vn 0.687830627 0.0278903581 -0.665736079
vn -0.686154008 0.0773036554 -0.639361978
vn -0.709170341 0.467957556 0.455718338
vn -0.194127738 0.427904606 -0.810363173
vn 0.506982267 0.241738796 -0.838593006
vn 0.932974935 0.130708247 0.0966494977
vn 0.714421511 -0.00896591786 -0.602687836
vn 0.438510746 0.0320791826 -0.864310741
vn 0.229141638 0.00837823004 -0.882530689
vn 0.21294488 0.142509207 -0.751657665
vn 0.970350981 -0.0615027621 -0.154845566
vn 0.788756371 -0.0913252234 -0.421421051
vn 0.839551449 -0.0905266479 -0.384814352
vn -0.977639854 0.343407333 -0.109332018
vn -0.647248566 0.0610558502 -0.396305293
vn -0.668718576 -0.163438678 -0.524207354
vn -0.695858896 0.150268584 -0.652897835
vn -0.977639854 0.343407333 -0.109332018
vn -0.538473308 0.638807833 0.382660657
vn 0.849025786 0.428472251 0.059853524
vn 0.687374711 0.324378818 0.219169959
vn 0.636996448 0.100475281 -0.726623058
vn -0.0927068964 -0.16527158 0.745867133
vn 0.469263673 -0.15732272 0.744069517
vn 0.717791498 -0.101852179 0.72920537
vn 0.932974935 0.130708247 0.0966494977
vn 0.772591233 0.237014666 0.277743638
vn 0.852170467 -0.152728707 -0.00695365202
vn -0.647248566 0.0610558502 -0.396305293
vn -0.977639854 0.343407333 -0.109332018
vn -0.695858896 0.150268584 -0.652897835
vn 0.0577250868 0.0391197801 0.818145037
vn 0.530976474 0.197729692 0.744064689
vn 0.0469721444 0.0280832089 0.895136833
vn 0.502942979 -0.23006469 -0.888273776
vn 0.714421511 -0.00896591786 -0.602687836
vn 0.839551449 -0.0905266479 -0.384814352
vn -0.135442272 0.0801395178 0.992517889
vn -0.686619699 0.0609213449 0.726710856
vn -0.517539561 0.0437601767 0.833701909
vn 0.714421511 -0.00896591786 -0.602687836
vn 0.930135608 0.0708138719 -0.185106039
vn 0.839551449 -0.0905266479 -0.384814352
vn 0.21294488 0.142509207 -0.751657665
vn -0.707541406 0.0574330464 -0.380563766
vn -0.365904868 -0.0737008825 -0.876334488
vn 0.216743529 0.0636996776 1.01337969
vn -0.130436778 0.208926633 0.831737161
vn 0.721924722 0.106353231 0.697035015
vn 0.450482011 0.473357499 0.7522434
vn -0.550687611 0.790574908 0.0586693659
vn -0.171465471 0.517029524 0.816690981
vn 0.641866565 0.184643477 -0.162532866
vn 0.65776962 0.363591969 0.982927561
vn 0.987084031 -0.317946196 -0.0253338218
vn -0.2363417 -0.439477354 -0.593382299
vn -0.391873628 -0.36679551 0.163905323
vn -0.89470005 0.242865607 0.374870658
vn 0.545375168 0.756221235 0.504276156
vn -0.102634966 -0.0395031273 0.989529669
vn 0.529261112 -0.00548234116 0.776532233
vn 0.438510746 0.0320791826 -0.864310741
vn -0.233957902 0.233443871 -0.692530334
vn 0.229141638 0.00837823004 -0.882530689
vn -0.233957902 0.233443871 -0.692530334
vn 0.636996448 0.100475281 -0.726623058
vn 0.229141638 0.00837823004 -0.882530689
vn -0.507539868 0.368891567 -0.791181028
vn 0.438510746 0.0320791826 -0.864310741
vn -0.376328468 0.0638408512 -0.86738801
vn -0.550687611 0.790574908 0.0586693659
vn -0.244803965 0.453680664 0.332960397
vn -0.448326916 0.231177092 0.156618103
vn -0.719129145 0.215486854 0.379898548
vn -0.895737886 -0.0708630234 0.456773609
vn -0.777372181 -0.279381156 -0.251520157
vn -0.323600143 -0.0200872179 0.919731498
vn -0.517539561 0.0437601767 0.833701909
vn -0.404434621 -0.0227270164 0.888089418
vn 0.98801136 -0.0152077144 -0.153630137
vn -0.978777289 -0.0582894795 -0.196462274
vn 0.267076135 0.124449655 1.1513052
vn 0.98801136 -0.0152077144 -0.153630137
vn 0.267076135 0.124449655 1.1513052
vn 0.80848825 0.0816586465 0.0744015723
vn -0.794525862 0.575383723 -0.196263984
vn -0.410937518 -0.0559598319 -0.354522318
vn -0.876025617 0.327194303 0.113976285
vn 0.348310322 0.388571382 0.815499067
vn -0.130436778 0.208926633 0.831737161
vn 0.216743529 0.0636996776 1.01337969
vn -0.448326916 0.231177092 0.156618103
vn -0.709170341 0.467957556 0.455718338
vn -0.410937518 -0.0559598319 -0.354522318
vn -0.123820707 -0.715252936 0.632876694
vn 0.98801136 -0.0152077144 -0.153630137
vn 0.149108812 -0.334606141 0.383647561
vn 0.772591233 0.237014666 0.277743638
vn 0.393602133 0.371887684 0.419313461
vn 0.545375168 0.756221235 0.504276156
vn -0.519336045 -0.29202345 -0.745911539
vn 0.44575569 -0.530195832 -0.598946571
vn -0.826342404 -0.276736081 -0.0637683421
vn 0.913337946 -0.330658823 0.0311709829
vn 0.970350981 -0.0615027621 -0.154845566
vn 0.734487116 -0.593290329 0.0911112875
vn -0.556019306 -0.326918364 -0.522570848
vn -0.123820707 -0.715252936 0.632876694
vn -0.467821598 -0.638286889 0.470584542
vn -0.2363417 -0.439477354 -0.593382299
vn -0.123820707 -0.715252936 0.632876694
vn -0.556019306 -0.326918364 -0.522570848
vn -0.274750978 -0.824038386 0.383449048
vn -0.375543445 -0.265747309 0.861451387
vn 0.0469721444 0.0280832089 0.895136833
vn 0.529261112 -0.00548234116 0.776532233
vn 0.530976474 0.197729692 0.744064689
vn 0.531159401 0.0661077127 0.811974406
vn 0.229141638 0.00837823004 -0.882530689
vn 0.559108794 0.237291887 -0.690733552
vn 0.21294488 0.142509207 -0.751657665
vn 0.612425029 -0.585570753 -0.311923563
vn -0.484066099 -0.261826962 -0.776462138
vn -0.565908194 -0.782588482 -0.0721027702
vn -0.871501744 -0.376583338 0.407990664
vn -0.668718576 -0.163438678 -0.524207354
vn -0.891273081 0.0506493412 -0.421849728
vn 0.44575569 -0.530195832 -0.598946571
vn -0.565908194 -0.782588482 -0.0721027702
vn -0.826342404 -0.276736081 -0.0637683421
vn -0.0566966236 0.166996434 0.815036178
vn 0.0577250868 0.0391197801 0.818145037
vn 0.0469721444 0.0280832089 0.895136833
vn 0.438510746 0.0320791826 -0.864310741
vn -0.507539868 0.368891567 -0.791181028
vn -0.233957902 0.233443871 -0.692530334
vn 0.0874374062 0.244541138 0.902224302
vn 0.530976474 0.197729692 0.744064689
vn 0.00713210087 0.219599172 0.681565046
vn -0.517539561 0.0437601767 0.833701909
vn -0.959079981 -0.134011805 0.0511133522
vn -0.404434621 -0.0227270164 0.888089418
vn 0.229141638 0.00837823004 -0.882530689
vn 0.636996448 0.100475281 -0.726623058
vn 0.511261642 0.305392891 -0.865886271
vn -0.404434621 -0.0227270164 0.888089418
vn -0.959079981 -0.134011805 0.0511133522
vn -0.733309507 -0.661036432 -0.257770061
vn -0.317363679 0.259993196 0.87522012
vn -0.734279692 0.150105432 0.602670491
vn -0.363352299 -0.11672055 0.900121272
vn -0.430164158 0.0696343556 -0.913400352
vn -0.538337946 0.16282554 -0.668547034
vn -0.311682343 0.123046532 -0.954127133
vn 0.326980561 -0.519840062 -0.559146702
vn 0.502942979 -0.23006469 -0.888273776
vn 0.788756371 -0.0913252234 -0.421421051
vn 0.717791498 -0.101852179 0.72920537
vn 0.469263673 -0.15732272 0.744069517
vn 0.00563806389 -0.623638391 0.729497433
vn 0.326980561 -0.519840062 -0.559146702
vn 0.788756371 -0.0913252234 -0.421421051
vn 0.457127929 -0.573633671 -0.458112508
vn -1.01844692 0.103457481 -0.426322013
vn -0.263842493 0.327995062 -0.836925864
vn -0.233957902 0.233443871 -0.692530334
vn -0.233957902 0.233443871 -0.692530334
vn -0.263842493 0.327995062 -0.836925864
vn 0.636996448 0.100475281 -0.726623058
vn -0.777372181 -0.279381156 -0.251520157
vn -0.871501744 -0.376583338 0.407990664
vn -0.868449032 -0.382599682 0.0682867989
vn -0.484066099 -0.261826962 -0.776462138
vn -0.868449032 -0.382599682 0.0682867989
vn -0.871501744 -0.376583338 0.407990664
vn 0.348310322 0.388571382 0.815499067
vn -0.0424591266 0.612655401 -0.80684793
vn -1.01844692 0.103457481 -0.426322013
vn -0.102634966 -0.0395031273 0.989529669
vn -0.171465471 0.517029524 0.816690981
vn -0.319953024 0.641883373 0.540616751
vn 0.0229213201 -0.155973718 -0.893455744
vn -0.365904868 -0.0737008825 -0.876334488
vn -0.707541406 0.0574330464 -0.380563766
vn 0.0874374062 0.244541138 0.902224302
vn -0.135442272 0.0801395178 0.992517889
vn 0.530976474 0.197729692 0.744064689
vn -0.58380264 -0.0722481832 -0.453925282
vn -0.311682343 0.123046532 -0.954127133
vn -0.826342404 -0.276736081 -0.0637683421
vn -0.734279692 0.150105432 0.602670491
vn -0.876025617 0.327194303 0.113976285
vn -0.719129145 0.215486854 0.379898548
vn -0.959079981 -0.134011805 0.0511133522
vn -0.777372181 -0.279381156 -0.251520157
vn -0.733309507 -0.661036432 -0.257770061
vn 0.00713210087 0.219599172 0.681565046
vn -0.317363679 0.259993196 0.87522012
vn 0.0874374062 0.244541138 0.902224302
vn -0.102634966 -0.0395031273 0.989529669
vn -0.317363679 0.259993196 0.87522012
vn 0.00713210087 0.219599172 0.681565046
vn -0.263842493 0.327995062 -0.836925864
vn -1.01844692 0.103457481 -0.426322013
vn -0.0424591266 0.612655401 -0.80684793
vn 0.687374711 0.324378818 0.219169959
vn 0.506982267 0.241738796 -0.838593006
vn 0.511261642 0.305392891 -0.865886271
vn -0.0566966236 0.166996434 0.815036178
vn 0.469263673 -0.15732272 0.744069517
vn 0.0577250868 0.0391197801 0.818145037
vn 0.0577250868 0.0391197801 0.818145037
vn 0.49649334 0.225626469 0.757060468
vn 0.530976474 0.197729692 0.744064689
vn -0.293956578 0.764861047 -0.445738286
vn -0.507539868 0.368891567 -0.791181028
vn -0.244803965 0.453680664 0.332960397
vn -0.430164158 0.0696343556 -0.913400352
vn -0.311682343 0.123046532 -0.954127133
vn -0.58380264 -0.0722481832 -0.453925282
vn -0.123820707 -0.715252936 0.632876694
vn 0.612425029 -0.585570753 -0.311923563
vn -0.467821598 -0.638286889 0.470584542
vn -0.891273081 0.0506493412 -0.421849728
vn -0.647248566 0.0610558502 -0.396305293
vn -0.430164158 0.0696343556 -0.913400352
vn -0.484066099 -0.261826962 -0.776462138
vn -0.58380264 -0.0722481832 -0.453925282
vn -0.826342404 -0.276736081 -0.0637683421
vn -0.135442272 0.0801395178 0.992517889
vn 0.0469721444 0.0280832089 0.895136833
vn 0.530976474 0.197729692 0.744064689
vn 0.438510746 0.0320791826 -0.864310741
vn 0.21294488 0.142509207 -0.751657665
vn -0.376328468 0.0638408512 -0.86738801
vn 0.506982267 0.241738796 -0.838593006
vn 0.714421511 -0.00896591786 -0.602687836
vn 0.559108794 0.237291887 -0.690733552
vn 0.229141638 0.00837823004 -0.882530689
vn 0.506982267 0.241738796 -0.838593006
vn 0.559108794 0.237291887 -0.690733552
vn -0.734279692 0.150105432 0.602670491
vn -0.719129145 0.215486854 0.379898548
vn -0.686619699 0.0609213449 0.726710856
vn -0.317363679 0.259993196 0.87522012
vn -0.135442272 0.0801395178 0.992517889
vn 0.0874374062 0.244541138 0.902224302
vn -0.856608748 0.160313845 -0.162643492
vn -1.01844692 0.103457481 -0.426322013
vn -0.861845791 0.291081399 -0.0533160008
vn 0.0229213201 -0.155973718 -0.893455744
vn 0.502942979 -0.23006469 -0.888273776
vn 0.44575569 -0.530195832 -0.598946571
vn -0.861845791 0.291081399 -0.0533160008
vn -0.244803965 0.453680664 0.332960397
vn -0.856608748 0.160313845 -0.162643492
vn -0.311682343 0.123046532 -0.954127133
vn -0.538337946 0.16282554 -0.668547034
vn -0.540149808 -0.0208523944 -0.577730656
vn -0.0566966236 0.166996434 0.815036178
vn -0.375543445 -0.265747309 0.861451387
vn 0.455824614 -0.703875065 0.521207213
vn 0.823646188 -0.337125778 -0.156094998
vn 0.970350981 -0.0615027621 -0.154845566
vn 0.839551449 -0.0905266479 -0.384814352
vn 0.49649334 0.225626469 0.757060468
vn 0.531159401 0.0661077127 0.811974406
vn 0.530976474 0.197729692 0.744064689
vn 0.21294488 0.142509207 -0.751657665
vn 0.559108794 0.237291887 -0.690733552
vn 0.183969274 0.273785055 -0.785828292
vn -0.0424591266 0.612655401 -0.80684793
vn 0.849025786 0.428472251 0.059853524
vn -0.263842493 0.327995062 -0.836925864
vn 0.0469721444 0.0280832089 0.895136833
vn -0.517539561 0.0437601767 0.833701909
vn -0.323600143 -0.0200872179 0.919731498
vn -0.871501744 -0.376583338 0.407990664
vn -0.895737886 -0.0708630234 0.456773609
vn -0.668718576 -0.163438678 -0.524207354
vn 0.511261642 0.305392891 -0.865886271
vn 0.636996448 0.100475281 -0.726623058
vn 0.687374711 0.324378818 0.219169959
vn 0.714421511 -0.00896591786 -0.602687836
vn 0.852170467 -0.152728707 -0.00695365202
vn 0.930135608 0.0708138719 -0.185106039
vn -0.794525862 0.575383723 -0.196263984
vn -0.448326916 0.231177092 0.156618103
vn -0.410937518 -0.0559598319 -0.354522318
vn -0.410937518 -0.0559598319 -0.354522318
vn -0.709170341 0.467957556 0.455718338
vn -0.538473308 0.638807833 0.382660657
vn 0.529261112 -0.00548234116 0.776532233
vn 0.00713210087 0.219599172 0.681565046
vn 0.530976474 0.197729692 0.744064689
vn -0.733309507 -0.661036432 -0.257770061
vn -0.556019306 -0.326918364 -0.522570848
vn -0.274750978 -0.824038386 0.383449048
vn 0.169750199 -0.924946368 -0.0169495549
vn 0.913337946 -0.330658823 0.0311709829
vn 0.734487116 -0.593290329 0.0911112875
vn -0.0424591266 0.612655401 -0.80684793
vn 0.348310322 0.388571382 0.815499067
vn 0.849025786 0.428472251 0.059853524
vn 0.65776962 0.363591969 0.982927561
vn 0.852170467 -0.152728707 -0.00695365202
vn 0.772591233 0.237014666 0.277743638
vn -0.244803965 0.453680664 0.332960397
vn -0.194127738 0.427904606 -0.810363173
vn -0.709170341 0.467957556 0.455718338
vn -0.895737886 -0.0708630234 0.456773609
vn -0.977639854 0.343407333 -0.109332018
vn -0.668718576 -0.163438678 -0.524207354
vn -0.130436778 0.208926633 0.831737161
vn -1.01844692 0.103457481 -0.426322013
vn -0.856608748 0.160313845 -0.162643492
vn 0.21294488 0.142509207 -0.751657665
vn 0.183969274 0.273785055 -0.785828292
vn -0.707541406 0.0574330464 -0.380563766
vn 0.687830627 0.0278903581 -0.665736079
vn 0.559108794 0.237291887 -0.690733552
vn 0.714421511 -0.00896591786 -0.602687836
vn -0.891273081 0.0506493412 -0.421849728
vn -0.430164158 0.0696343556 -0.913400352
vn -0.58380264 -0.0722481832 -0.453925282
vn -0.484066099 -0.261826962 -0.776462138
vn -0.826342404 -0.276736081 -0.0637683421
vn -0.565908194 -0.782588482 -0.0721027702
vn 0.823646188 -0.337125778 -0.156094998
vn 0.987084031 -0.317946196 -0.0253338218
vn 0.717791498 -0.101852179 0.72920537
vn -0.733309507 -0.661036432 -0.257770061
vn 0.149108812 -0.334606141 0.383647561
vn -0.556019306 -0.326918364 -0.522570848
vn 0.0577250868 0.0391197801 0.818145037
vn 0.469263673 -0.15732272 0.744069517
vn -0.0927068964 -0.16527158 0.745867133
vn 0.823646188 -0.337125778 -0.156094998
vn 0.717791498 -0.101852179 0.72920537
vn 0.885951579 -0.161761671 0.328515321
vn -0.719129145 0.215486854 0.379898548
vn -0.777372181 -0.279381156 -0.251520157
vn -0.959079981 -0.134011805 0.0511133522
vn -0.311682343 0.123046532 -0.954127133
vn -0.365904868 -0.0737008825 -0.876334488
vn -0.085579738 0.0607399642 -1.0197556
vn 0.450482011 0.473357499 0.7522434
vn -0.130436778 0.208926633 0.831737161
vn -0.550687611 0.790574908 0.0586693659
vn -0.826342404 -0.276736081 -0.0637683421
vn -0.085579738 0.0607399642 -1.0197556
vn -0.519336045 -0.29202345 -0.745911539
vn 0.229141638 0.00837823004 -0.882530689
vn 0.511261642 0.305392891 -0.865886271
vn 0.506982267 0.241738796 -0.838593006
vn 0.531159401 0.0661077127 0.811974406
vn 0.717791498 -0.101852179 0.72920537
vn 0.65776962 0.363591969 0.982927561
vn -0.365904868 -0.0737008825 -0.876334488
vn -0.311682343 0.123046532 -0.954127133
vn -0.540149808 -0.0208523944 -0.577730656
vn 0.169750199 -0.924946368 -0.0169495549
vn 0.734487116 -0.593290329 0.0911112875
vn 0.00563806389 -0.623638391 0.729497433
vn -0.410937518 -0.0559598319 -0.354522318
vn -0.538473308 0.638807833 0.382660657
vn -0.876025617 0.327194303 0.113976285
vn -0.365904868 -0.0737008825 -0.876334488
vn 0.0229213201 -0.155973718 -0.893455744
vn -0.085579738 0.0607399642 -1.0197556
vn 0.502942979 -0.23006469 -0.888273776
vn 0.839551449 -0.0905266479 -0.384814352
vn 0.788756371 -0.0913252234 -0.421421051
vn -0.293956578 0.764861047 -0.445738286
vn -0.244803965 0.453680664 0.332960397
vn -0.861845791 0.291081399 -0.0533160008
vn 0.641866565 0.184643477 -0.162532866
vn 0.362124592 -0.25187996 -0.00304211723
vn 0.65776962 0.363591969 0.982927561
vn 0.687374711 0.324378818 0.219169959
vn 0.932974935 0.130708247 0.0966494977
vn 0.506982267 0.241738796 -0.838593006
vn -0.020342648 0.0865595564 0.936469734
vn 0.721924722 0.106353231 0.697035015
vn -0.130436778 0.208926633 0.831737161
vn -0.734279692 0.150105432 0.602670491
vn -0.686619699 0.0609213449 0.726710856
vn -0.363352299 -0.11672055 0.900121272
vn 0.734487116 -0.593290329 0.0911112875
vn 0.885951579 -0.161761671 0.328515321
vn 0.717791498 -0.101852179 0.72920537
vn -0.363354295 -0.827963591 0.219101533
vn 0.326980561 -0.519840062 -0.559146702
vn -0.16356416 -0.936491609 -0.00522555038
vn -0.538473308 0.638807833 0.382660657
vn -0.709170341 0.467957556 0.455718338
vn -0.686154008 0.0773036554 -0.639361978
vn 0.44575569 -0.530195832 -0.598946571
vn 0.502942979 -0.23006469 -0.888273776
vn 0.326980561 -0.519840062 -0.559146702
vn 0.502942979 -0.23006469 -0.888273776
vn 0.0229213201 -0.155973718 -0.893455744
vn 0.183969274 0.273785055 -0.785828292
vn 0.612425029 -0.585570753 -0.311923563
vn 0.149108812 -0.334606141 0.383647561
vn -0.868449032 -0.382599682 0.0682867989
vn -0.876025617 0.327194303 0.113976285
vn -0.538473308 0.638807833 0.382660657
vn -0.719129145 0.215486854 0.379898548
vn 0.348310322 0.388571382 0.815499067
vn 0.216743529 0.0636996776 1.01337969
vn 0.721924722 0.106353231 0.697035015
vn 0.839551449 -0.0905266479 -0.384814352
vn 0.641866565 0.184643477 -0.162532866
vn 0.823646188 -0.337125778 -0.156094998
vn 0.393602133 0.371887684 0.419313461
vn -0.130436778 0.208926633 0.831737161
vn 0.450482011 0.473357499 0.7522434
vn -0.020342648 0.0865595564 0.936469734
vn 0.687374711 0.324378818 0.219169959
vn 0.721924722 0.106353231 0.697035015
vn 0.0229213201 -0.155973718 -0.893455744
vn -0.707541406 0.0574330464 -0.380563766
vn 0.183969274 0.273785055 -0.785828292
vn -0.274750978 -0.824038386 0.383449048
vn 0.0469721444 0.0280832089 0.895136833
vn -0.404434621 -0.0227270164 0.888089418
vn -0.538337946 0.16282554 -0.668547034
vn -0.365904868 -0.0737008825 -0.876334488
vn -0.540149808 -0.0208523944 -0.577730656
vn 0.852170467 -0.152728707 -0.00695365202
vn 0.362124592 -0.25187996 -0.00304211723
vn 0.641866565 0.184643477 -0.162532866
vn 0.393602133 0.371887684 0.419313461
vn -0.171465471 0.517029524 0.816690981
vn 0.545375168 0.756221235 0.504276156
vn -0.538473308 0.638807833 0.382660657
vn -0.977639854 0.343407333 -0.109332018
vn -0.719129145 0.215486854 0.379898548
vn 0.687830627 0.0278903581 -0.665736079
vn 0.714421511 -0.00896591786 -0.602687836
vn 0.502942979 -0.23006469 -0.888273776
vn 0.455824614 -0.703875065 0.521207213
vn -0.16356416 -0.936491609 -0.00522555038
vn 0.469263673 -0.15732272 0.744069517
vn -0.311682343 0.123046532 -0.954127133
vn -0.085579738 0.0607399642 -1.0197556
vn -0.826342404 -0.276736081 -0.0637683421
vn -0.16356416 -0.936491609 -0.00522555038
vn 0.326980561 -0.519840062 -0.559146702
vn 0.169750199 -0.924946368 -0.0169495549
vn 0.0577250868 0.0391197801 0.818145037
vn 0.531159401 0.0661077127 0.811974406
vn 0.49649334 0.225626469 0.757060468
vn 0.531159401 0.0661077127 0.811974406
vn 0.0577250868 0.0391197801 0.818145037
vn -0.0927068964 -0.16527158 0.745867133
vn -0.517539561 0.0437601767 0.833701909
vn -0.686619699 0.0609213449 0.726710856
vn -0.959079981 -0.134011805 0.0511133522
vn -0.686154008 0.0773036554 -0.639361978
vn -0.538337946 0.16282554 -0.668547034
vn -0.695858896 0.150268584 -0.652897835
vn -0.467821598 -0.638286889 0.470584542
vn 0.612425029 -0.585570753 -0.311923563
vn -0.565908194 -0.782588482 -0.0721027702
vn -0.565908194 -0.782588482 -0.0721027702
vn 0.44575569 -0.530195832 -0.598946571
vn 0.326980561 -0.519840062 -0.559146702
vn -0.891273081 0.0506493412 -0.421849728
vn -0.484066099 -0.261826962 -0.776462138
vn -0.871501744 -0.376583338 0.407990664
vn -0.430164158 0.0696343556 -0.913400352
vn -0.695858896 0.150268584 -0.652897835
vn -0.538337946 0.16282554 -0.668547034
vn -0.556019306 -0.326918364 -0.522570848
vn -0.467821598 -0.638286889 0.470584542
vn -0.363354295 -0.827963591 0.219101533
vn -0.695858896 0.150268584 -0.652897835
vn -0.430164158 0.0696343556 -0.913400352
vn -0.647248566 0.0610558502 -0.396305293
vn -0.16356416 -0.936491609 -0.00522555038
vn -0.556019306 -0.326918364 -0.522570848
vn -0.363354295 -0.827963591 0.219101533
vn 0.714421511 -0.00896591786 -0.602687836
vn 0.932974935 0.130708247 0.0966494977
vn 0.852170467 -0.152728707 -0.00695365202
vn 0.531159401 0.0661077127 0.811974406
vn -0.0927068964 -0.16527158 0.745867133
vn 0.717791498 -0.101852179 0.72920537
vn -0.135442272 0.0801395178 0.992517889
vn -0.317363679 0.259993196 0.87522012
vn -0.363352299 -0.11672055 0.900121272
vn -0.233957902 0.233443871 -0.692530334
vn -0.507539868 0.368891567 -0.791181028
vn -0.293956578 0.764861047 -0.445738286
vn 0.98801136 -0.0152077144 -0.153630137
vn 0.45206219 -0.706679463 0.544282913
vn 0.149108812 -0.334606141 0.383647561
vn -0.686619699 0.0609213449 0.726710856
vn -0.719129145 0.215486854 0.379898548
vn -0.959079981 -0.134011805 0.0511133522
vn 0.913337946 -0.330658823 0.0311709829
vn 0.457127929 -0.573633671 -0.458112508
vn 0.788756371 -0.0913252234 -0.421421051
vn -0.274750978 -0.824038386 0.383449048
vn -0.16356416 -0.936491609 -0.00522555038
vn 0.455824614 -0.703875065 0.521207213
vn -0.647248566 0.0610558502 -0.396305293
vn -0.891273081 0.0506493412 -0.421849728
vn -0.668718576 -0.163438678 -0.524207354
vn -0.734279692 0.150105432 0.602670491
vn -0.794525862 0.575383723 -0.196263984
vn -0.876025617 0.327194303 0.113976285
vn 0.852170467 -0.152728707 -0.00695365202
vn 0.65776962 0.363591969 0.982927561
vn 0.362124592 -0.25187996 -0.00304211723
vn 0.00563806389 -0.623638391 0.729497433
vn -0.16356416 -0.936491609 -0.00522555038
vn 0.169750199 -0.924946368 -0.0169495549
vn -0.376328468 0.0638408512 -0.86738801
vn 0.21294488 0.142509207 -0.751657665
vn -0.365904868 -0.0737008825 -0.876334488
vn 0.913337946 -0.330658823 0.0311709829
vn 0.788756371 -0.0913252234 -0.421421051
vn 0.970350981 -0.0615027621 -0.154845566
vn -0.194127738 0.427904606 -0.810363173
vn -0.538337946 0.16282554 -0.668547034
vn -0.686154008 0.0773036554 -0.639361978
vn -0.123820707 -0.715252936 0.632876694
vn 0.149108812 -0.334606141 0.383647561
vn 0.612425029 -0.585570753 -0.311923563
vn 0.393602133 0.371887684 0.419313461
vn 0.450482011 0.473357499 0.7522434
vn -0.171465471 0.517029524 0.816690981
vn -0.0566966236 0.166996434 0.815036178
vn 0.0469721444 0.0280832089 0.895136833
vn -0.375543445 -0.265747309 0.861451387
vn -0.686154008 0.0773036554 -0.639361978
vn -0.695858896 0.150268584 -0.652897835
vn -0.538473308 0.638807833 0.382660657
vn -0.274750978 -0.824038386 0.383449048
vn -0.404434621 -0.0227270164 0.888089418
vn -0.733309507 -0.661036432 -0.257770061
vn -0.856608748 0.160313845 -0.162643492
vn -0.550687611 0.790574908 0.0586693659
vn -0.130436778 0.208926633 0.831737161
vn -0.319953024 0.641883373 0.540616751
vn -0.794525862 0.575383723 -0.196263984
vn -0.734279692 0.150105432 0.602670491
vn 0.852170467 -0.152728707 -0.00695365202
vn 0.641866565 0.184643477 -0.162532866
vn 0.930135608 0.0708138719 -0.185106039
vn -0.556019306 -0.326918364 -0.522570848
vn -0.16356416 -0.936491609 -0.00522555038
vn -0.274750978 -0.824038386 0.383449048
vn -0.135442272 0.0801395178 0.992517889
vn -0.517539561 0.0437601767 0.833701909
vn 0.0469721444 0.0280832089 0.895136833
vn -0.263842493 0.327995062 -0.836925864
vn 0.849025786 0.428472251 0.059853524
vn 0.636996448 0.100475281 -0.726623058
vn -0.102634966 -0.0395031273 0.989529669
vn 0.545375168 0.756221235 0.504276156
vn -0.171465471 0.517029524 0.816690981
vn -0.323600143 -0.0200872179 0.919731498
vn -0.404434621 -0.0227270164 0.888089418
vn 0.0469721444 0.0280832089 0.895136833
vn 0.772591233 0.237014666 0.277743638
vn 0.545375168 0.756221235 0.504276156
vn 0.529261112 -0.00548234116 0.776532233
vn 0.930135608 0.0708138719 -0.185106039
vn 0.641866565 0.184643477 -0.162532866
vn 0.839551449 -0.0905266479 -0.384814352
g Group20477
f 7/1/1 1/2/2 9/3/3
f 2/4/4 39/5/5 5/6/6
f 5/7/7 39/8/8 1/9/9
f 6/10/10 1/11/11 39/12/12
f 5/13/13 1/14/14 4/15/15
f 4/16/16 1/17/17 7/18/18
f 1/19/19 6/20/20 9/21/21
f 3/22/22 2/23/23 5/24/24
f 3/25/25 5/26/26 8/27/27
f 6/28/28 4/29/29 7/30/30
f 7/31/31 5/32/32 6/33/33
f 7/34/34 3/35/35 8/36/36
f 128/37/37 2/38/38 4/39/39
f 5/40/40 7/41/41 8/42/42
f 4/43/43 8/44/44 15/45/45
f 6/46/46 128/47/47 4/48/48
f 15/49/49 5/50/50 4/51/51
f 5/52/52 15/53/53 6/54/54
f 6/55/55 15/56/56 9/57/57
f 16/58/58 7/59/59 10/60/60
f 10/61/61 7/62/62 11/63/63
f 11/64/64 7/65/65 14/66/66
f 3/67/67 12/68/68 14/69/69
f 7/70/70 2/71/71 13/72/72
f 7/73/73 13/74/74 14/75/75
f 13/76/76 3/77/77 14/78/78
f 2/79/79 3/80/80 15/81/81
f 15/82/82 8/83/83 2/84/84
f 9/85/85 15/86/86 128/87/87
f 22/88/88 17/89/89 11/90/90
f 10/91/91 11/92/92 17/93/93
f 12/94/94 10/95/95 17/96/96
f 22/97/97 11/98/98 13/99/99
f 13/100/100 11/101/101 14/102/102
f 13/103/103 14/104/104 17/105/105
f 13/106/106 17/107/107 3/108/108
f 14/109/109 12/110/110 17/111/111
f 2/112/112 22/113/113 13/114/114
f 15/115/115 3/116/116 22/117/117
f 21/118/118 7/119/119 19/120/120
f 12/121/121 18/122/122 19/123/123
f 21/124/124 19/125/125 16/126/126
f 7/127/127 16/128/128 19/129/129
f 12/130/130 19/131/131 20/132/132
f 10/133/133 12/134/134 20/135/135
f 10/136/136 20/137/137 16/138/138
f 22/139/139 21/140/140 16/141/141
f 22/142/142 16/143/143 17/144/144
f 17/145/145 16/146/146 23/147/147
f 17/148/148 23/149/149 3/150/150
f 22/151/151 3/152/152 23/153/153
f 18/154/154 20/155/155 19/156/156
f 20/157/157 18/158/158 23/159/159
f 20/160/160 23/161/161 16/162/162
f 23/163/163 21/164/164 22/165/165
f 12/166/166 7/167/167 21/168/168
f 18/169/169 21/170/170 23/171/171
f 21/172/172 18/173/173 12/174/174
f 39/175/175 90/176/176 114/177/177
f 28/178/178 26/179/179 27/180/180
f 26/181/181 29/182/182 27/183/183
f 28/184/184 30/185/185 29/186/186
f 29/187/187 30/188/188 27/189/189
f 99/190/190 52/191/191 44/192/192
f 140/193/193 132/194/194 35/195/195
f 101/196/196 82/197/197 92/198/198
f 7/199/199 39/200/200 2/201/201
f 114/202/202 60/203/203 80/204/204
f 99/205/205 44/206/206 109/207/207
f 48/208/208 133/209/209 121/210/210
f 50/211/211 47/212/212 78/213/213
f 135/214/214 48/215/215 121/216/216
f 50/217/217 51/218/218 125/219/219
f 101/220/220 53/221/221 110/222/222
f 110/223/223 36/224/224 101/225/225
f 66/226/226 86/227/227 57/228/228
f 85/229/229 75/230/230 70/231/231
f 24/232/232 99/233/233 66/234/234
f 39/235/235 7/236/236 67/237/237
f 100/238/238 90/239/239 39/240/240
f 35/241/241 132/242/242 135/243/243
f 110/244/244 54/245/245 78/246/246
f 119/247/247 66/248/248 99/249/249
f 73/250/250 62/251/251 110/252/252
f 74/253/253 103/254/254 33/255/255
f 77/256/256 34/257/257 61/258/258
f 79/259/259 141/260/260 33/261/261
f 136/262/262 55/263/263 77/264/264
f 83/265/265 40/266/266 142/267/267
f 88/268/268 141/269/269 109/270/270
f 130/271/271 138/272/272 60/273/273
f 84/274/274 57/275/275 86/276/276
f 49/277/277 125/278/278 51/279/279
f 90/280/280 142/281/281 25/282/282
f 47/283/283 73/284/284 78/285/285
f 125/286/286 41/287/287 52/288/288
f 81/289/289 84/290/290 26/291/291
f 69/292/292 93/293/293 34/294/294
f 43/295/295 76/296/296 94/297/297
f 96/298/298 81/299/299 24/300/300
f 96/301/301 24/302/302 66/303/303
f 42/304/304 72/305/305 37/306/306
f 124/307/307 42/308/308 37/309/309
f 103/310/310 74/311/311 98/312/312
f 93/313/313 98/314/314 88/315/315
f 82/316/316 101/317/317 36/318/318
f 78/319/319 102/320/320 50/321/321
f 107/322/322 75/323/323 85/324/324
f 65/325/325 54/326/326 53/327/327
f 64/328/328 119/329/329 63/330/330
f 126/331/331 89/332/332 32/333/333
f 103/334/334 46/335/335 105/336/336
f 40/337/337 38/338/338 87/339/339
f 129/340/340 40/341/341 71/342/342
f 86/343/343 66/344/344 139/345/345
f 58/346/346 34/347/347 88/348/348
f 119/349/349 99/350/350 31/351/351
f 38/352/352 40/353/353 129/354/354
f 112/355/355 108/356/356 115/357/357
f 107/358/358 63/359/359 105/360/360
f 76/361/361 43/362/362 134/363/363
f 63/364/364 45/365/365 105/366/366
f 32/367/367 117/368/368 92/369/369
f 120/370/370 81/371/371 57/372/372
f 123/373/373 73/374/374 47/375/375
f 79/376/376 109/377/377 141/378/378
f 7/379/379 12/380/380 3/381/381
f 91/382/382 125/383/383 52/384/384
f 126/385/385 30/386/386 89/387/387
f 30/388/388 139/389/389 89/390/390
f 36/391/391 126/392/392 82/393/393
f 73/394/394 110/395/395 78/396/396
f 83/397/397 142/398/398 90/399/399
f 116/400/400 134/401/401 118/402/402
f 128/403/403 15/404/404 22/405/405
f 128/406/406 22/407/407 2/408/408
f 102/409/409 131/410/410 127/411/411
f 84/412/412 81/413/413 120/414/414
f 78/415/415 54/416/416 131/417/417
f 9/418/418 128/419/419 39/420/420
f 99/421/421 24/422/422 91/423/423
f 124/424/424 37/425/425 95/426/426
f 133/427/427 103/428/428 98/429/429
f 67/430/430 9/431/431 140/432/432
f 7/433/433 9/434/434 67/435/435
f 55/436/436 136/437/437 115/438/438
f 52/439/439 108/440/440 44/441/441
f 89/442/442 70/443/443 32/444/444
f 80/445/445 60/446/446 132/447/447
f 25/448/448 87/449/449 130/450/450
f 37/451/451 132/452/452 95/453/453
f 61/454/454 112/455/455 115/456/456
f 126/457/457 36/458/458 30/459/459
f 122/460/460 108/461/461 41/462/462
f 134/463/463 68/464/464 118/465/465
f 89/466/466 139/467/467 104/468/468
f 118/469/469 68/470/470 100/471/471
f 49/472/472 51/473/473 94/474/474
f 56/475/475 101/476/476 106/477/477
f 135/478/478 107/479/479 46/480/480
f 88/481/481 34/482/482 93/483/483
f 135/484/484 46/485/485 48/486/486
f 26/487/487 97/488/488 30/489/489
f 30/490/490 97/491/491 139/492/492
f 90/493/493 25/494/494 114/495/495
f 60/496/496 114/497/497 25/498/498
f 84/499/499 59/500/500 26/501/501
f 125/502/502 47/503/503 50/504/504
f 72/505/505 92/506/506 117/507/507
f 122/508/508 76/509/509 108/510/510
f 138/511/511 106/512/512 95/513/513
f 51/514/514 127/515/515 83/516/516
f 68/517/517 90/518/518 100/519/519
f 41/520/520 49/521/521 122/522/522
f 125/523/523 49/524/524 41/525/525
f 97/526/526 26/527/527 59/528/528
f 66/529/529 64/530/530 104/531/531
f 61/532/532 34/533/533 112/534/534
f 112/535/535 113/536/536 108/537/537
f 27/538/538 36/539/539 110/540/540
f 56/541/541 106/542/542 138/543/543
f 9/544/544 80/545/545 140/546/546
f 130/547/547 38/548/548 56/549/549
f 60/550/550 138/551/551 95/552/552
f 76/553/553 115/554/554 108/555/555
f 126/556/556 32/557/557 82/558/558
f 64/559/559 63/560/560 70/561/561
f 89/562/562 64/563/563 70/564/564
f 51/565/565 83/566/566 43/567/567
f 49/568/568 76/569/569 122/570/570
f 62/571/571 26/572/572 28/573/573
f 72/574/574 107/575/575 37/576/576
f 28/577/577 110/578/578 62/579/579
f 106/580/580 101/581/581 137/582/582
f 61/583/583 136/584/584 77/585/585
f 33/586/586 103/587/587 105/588/588
f 113/589/589 44/590/590 108/591/591
f 32/592/592 70/593/593 75/594/594
f 59/595/595 86/596/596 97/597/597
f 115/598/598 134/599/599 116/600/600
f 25/601/601 142/602/602 87/603/603
f 104/604/604 139/605/605 66/606/606
f 63/607/607 31/608/608 45/609/609
f 102/610/610 78/611/611 131/612/612
f 131/613/613 54/614/614 71/615/615
f 52/616/616 41/617/617 108/618/618
f 100/619/619 67/620/620 55/621/621
f 121/622/622 133/623/623 98/624/624
f 59/625/625 84/626/626 86/627/627
f 109/628/628 31/629/629 99/630/630
f 110/631/631 53/632/632 54/633/633
f 142/634/634 40/635/635 87/636/636
f 81/637/637 26/638/638 62/639/639
f 32/640/640 75/641/641 117/642/642
f 85/643/643 70/644/644 63/645/645
f 130/646/646 56/647/647 138/648/648
f 60/649/649 95/650/650 132/651/651
f 33/652/652 141/653/653 88/654/654
f 100/655/655 39/656/656 67/657/657
f 112/658/658 34/659/659 58/660/660
f 33/661/661 88/662/662 74/663/663
f 83/664/664 90/665/665 68/666/666
f 106/667/667 92/668/668 42/669/669
f 123/670/670 81/671/671 73/672/672
f 95/673/673 42/674/674 124/675/675
f 89/676/676 104/677/677 64/678/678
f 44/679/679 88/680/680 109/681/681
f 92/682/682 106/683/683 137/684/684
f 121/685/685 98/686/686 93/687/687
f 131/688/688 71/689/689 127/690/690
f 92/691/691 72/692/692 42/693/693
f 107/694/694 105/695/695 46/696/696
f 27/697/697 110/698/698 28/699/699
f 79/700/700 111/701/701 109/702/702
f 66/703/703 119/704/704 64/705/705
f 96/706/706 57/707/707 81/708/708
f 51/709/709 43/710/710 94/711/711
f 98/712/712 74/713/713 88/714/714
f 35/715/715 135/716/716 69/717/717
f 71/718/718 54/719/719 65/720/720
f 37/721/721 107/722/722 135/723/723
f 107/724/724 72/725/725 75/726/726
f 80/727/727 39/728/728 114/729/729
f 127/730/730 71/731/731 83/732/732
f 84/733/733 120/734/734 57/735/735
f 105/736/736 79/737/737 33/738/738
f 24/739/739 81/740/740 123/741/741
f 96/742/742 66/743/743 57/744/744
f 72/745/745 117/746/746 75/747/747
f 55/748/748 115/749/749 118/750/750
f 101/751/751 92/752/752 137/753/753
f 31/754/754 111/755/755 79/756/756
f 24/757/757 47/758/758 91/759/759
f 71/760/760 40/761/761 83/762/762
f 85/763/763 63/764/764 107/765/765
f 77/766/766 69/767/767 34/768/768
f 106/769/769 42/770/770 95/771/771
f 69/772/772 135/773/773 121/774/774
f 112/775/775 44/776/776 113/777/777
f 44/778/778 112/779/779 58/780/780
f 134/781/781 43/782/782 68/783/783
f 65/784/784 101/785/785 129/786/786
f 140/787/787 80/788/788 132/789/789
f 132/790/790 37/791/791 135/792/792
f 130/793/793 60/794/794 25/795/795
f 56/796/796 129/797/797 101/798/798
f 67/799/799 140/800/800 35/801/801
f 129/802/802 56/803/803 38/804/804
f 69/805/805 67/806/806 35/807/807
f 63/808/808 119/809/809 31/810/810
f 44/811/811 58/812/812 88/813/813
f 76/814/814 49/815/815 94/816/816
f 30/817/817 36/818/818 27/819/819
f 128/820/820 6/821/821 39/822/822
f 43/823/823 83/824/824 68/825/825
f 133/826/826 48/827/827 46/828/828
f 55/829/829 69/830/830 77/831/831
f 38/832/832 130/833/833 87/834/834
f 51/835/835 102/836/836 127/837/837
f 31/838/838 109/839/839 111/840/840
f 93/841/841 69/842/842 121/843/843
f 82/844/844 32/845/845 92/846/846
f 133/847/847 46/848/848 103/849/849
f 53/850/850 101/851/851 65/852/852
f 9/853/853 39/854/854 80/855/855
f 24/856/856 123/857/857 47/858/858
f 61/859/859 115/860/860 136/861/861
f 65/862/862 129/863/863 71/864/864
f 55/865/865 118/866/866 100/867/867
f 62/868/868 73/869/869 81/870/870
f 50/871/871 102/872/872 51/873/873
f 31/874/874 79/875/875 45/876/876
f 67/877/877 69/878/878 55/879/879
f 76/880/880 134/881/881 115/882/882
f 97/883/883 86/884/884 139/885/885
f 125/886/886 91/887/887 47/888/888
f 116/889/889 118/890/890 115/891/891
f 99/892/892 91/893/893 52/894/894
f 45/895/895 79/896/896 105/897/897
