# File exported by Houdini 16.5.405 (www.sidefx.com)
# 140 points
# 816 vertices
# 272 primitives
# Bounds: [-79.5023727, -1.50345063, -67.5736237] to [89.805069, 54.0498734, 73.530983]
g 
v -69.5486679 50.9644432 22.911665
v -58.7160225 50.9082336 14.162611
v -58.9637451 50.8772278 14.3119831
v -69.2611847 43.9716606 24.7031002
v -56.2757187 50.9033737 12.0868216
v -57.4469414 51.0566521 18.4983692
v -50.8909912 50.8769188 10.5146227
v -53.1676636 50.8453712 9.51353359
v -25.6062737 50.8130493 6.81525326
v -52.3766251 50.9056396 8.86128139
v -52.2586479 50.9055405 8.80302238
v -52.1370659 50.8735962 8.67108536
v -51.1859474 50.8812256 7.87744951
v -50.9396706 50.9092331 7.70861292
v -34.5755463 50.2234802 -5.49118328
v -0.613754809 43.8820686 -13.8495655
v 89.805069 3.24296927 48.4737625
v 26.5490284 29.223875 -26.1386147
v -8.29594707 14.0694151 -67.0677795
v -79.5023727 11.415513 31.6742401
v -46.6448517 12.5888586 -65.4563141
v 41.0766182 43.9669991 26.6124954
v 8.48047066 34.2036247 -23.0528584
v 45.4189186 29.5278854 13.3576288
v 25.2756958 53.2131386 42.4835358
v -46.5006256 27.7560539 48.767334
v 74.0193787 28.6740589 56.8281937
v 38.4611664 33.4418678 -0.551750302
v -12.3558121 36.0412331 -1.14957547
v -61.3709602 38.4693489 25.8901844
v 29.8374157 34.2495537 63.7027092
v 75.2256012 -1.50345063 11.5985012
v -47.4646759 0.155041009 63.3553467
v 16.6166897 43.5706367 14.1500969
v -66.3767395 12.1029205 -10.3441668
v 85.1168365 3.37943792 22.0862427
v -57.7087059 44.6379128 40.9717712
v -17.0876884 2.84839869 -65.5537796
v 85.5275116 25.6899281 41.5463943
v 6.60026407 29.368681 -23.859005
v 57.1434326 16.6007271 -31.2939053
v 25.0148106 53.8582726 5.87781191
v -5.48266077 14.4206409 -53.2874565
v 71.90168 18.3418922 11.4711008
v -61.3838844 28.6513767 19.512352
v -15.7100534 51.9185333 47.7208099
v -3.01365376 25.1422043 -52.6989517
v 50.3679123 17.3240318 -11.9079418
v -70.8531342 29.4502544 37.965683
v 22.9842148 2.14569998 -52.916172
v -58.9380035 38.1728096 4.67985296
v 32.9623833 43.8676338 33.1885529
v -46.0405807 29.3623219 -3.61300468
v 29.8515816 15.6750469 72.6391449
v -47.1383057 51.2427444 48.7792778
v -66.2575912 9.21990299 51.871212
v 45.8558884 32.4163551 52.4478912
v -65.1677017 3.27398443 -53.7091675
v 72.4902725 0.533271849 68.2349014
v -57.7237244 42.2673035 57.3425865
v -51.9254227 12.9350595 -42.7312317
v 74.3308411 18.6492214 57.3467369
v -42.441494 37.1617661 56.9124565
v 71.9006424 18.3960361 65.4957581
v -63.1961975 29.0267963 -23.9453373
v 29.8327084 43.6951103 53.7370148
v 54.6761475 2.80409646 -28.5252991
v -29.8017445 43.9843864 -8.28549957
v 30.5466557 34.4238663 50.4067154
v 17.2947025 14.8154097 -56.8740082
v -21.7921753 25.1846657 63.5837402
v 85.1610336 28.3237629 24.5048447
v -6.460917 35.6759109 64.1601181
v 20.9738998 44.0185127 -3.87937927
v -8.6801548 33.666687 -19.9108868
v 86.5991669 15.0626774 26.9791794
v -45.9766006 13.0404863 50.2301865
v 47.7574501 29.2684116 49.635498
v 69.8382568 16.4797497 -15.8960428
v -62.2412682 43.6333885 27.8317413
v -17.8061466 43.9984665 69.4759674
v 80.790329 14.0523548 61.7985954
v 31.2694817 50.581604 6.13819122
v -70.6073837 37.9760933 37.381218
v -4.54237175 14.8629789 66.8156433
v 57.4617119 29.1754761 3.58382821
v 29.99053 49.6575089 56.6332741
v -69.1341858 50.7412109 40.3006439
v -31.3691006 29.459713 60.7486115
v 13.44767 35.1593781 10.3565264
v 20.1382484 50.4466667 -4.21031237
v 13.9574947 43.8793373 62.358448
v 26.1081371 29.3690453 64.1153412
v -37.3979492 2.2911427 -67.5736237
v -73.4893494 37.7358513 17.5193005
v -11.3453541 49.3065414 56.0645905
v 17.4294338 26.5520229 69.4415436
v -6.97526836 43.7058601 -3.06745601
v 75.1008224 17.4917355 -1.0790602
v 46.7840538 -1.23744655 71.9682999
v 40.6374016 50.2204323 35.421051
v 84.9490738 -1.14344382 58.7738152
v -76.1625748 31.7402287 25.1630135
v -73.656723 2.48613739 -39.2859344
v -70.3563156 45.0686073 35.7069435
v 35.433773 15.6088476 69.333168
v 70.8567963 -0.0387399644 -5.83349037
v -31.2983494 28.5545464 -47.2322845
v -45.9310379 44.7296638 69.4942322
v -54.6535645 54.0498734 11.1613207
v 23.5722923 -0.209724471 -27.2413788
v 32.9190941 29.2732468 -10.9264507
v -1.51551902 43.7888603 60.3195419
v 20.3250771 16.0941353 -31.4484844
v 0.3010481 29.2110519 57.3942642
v -54.0978889 28.4752502 -39.281086
v -58.3291435 12.5340738 29.3574219
v 87.7018356 14.6909704 37.7695351
v -33.0849037 37.9572449 73.530983
v 9.43575191 50.3236809 61.7493973
v -4.29740906 -1.02682495 70.8525391
v -52.682621 12.2777376 59.4760056
v 65.4548187 28.0301628 62.3411636
v -72.5497665 29.2721081 14.5379162
v -51.2442513 28.7400913 38.0092697
v 31.5544853 34.4392853 32.5479164
v -6.72283173 50.2611542 -15.1396952
v -66.88974 11.7010288 -52.6924934
v -79.2165375 10.8057547 -29.9969711
v -65.1837234 27.9568939 1.96487045
v -68.5046921 0.68768245 50.1087875
v -31.1963158 12.993783 67.1176605
v 64.1377258 7.24353123 -11.7385073
v -0.632315338 2.97772646 -58.8998566
v -62.7456322 38.061264 43.8206367
v 37.4586182 28.3258057 67.569809
v 46.57061 32.4476128 51.0998077
v 51.8000031 24.5550079 -10.7546387
v -71.8235931 1.9004885 21.4852581
v 46.5128937 31.7306824 44.5277557
vt 0.520406067 0.941197753 0
vt 0.561929286 0.941492081 0
vt 0.517580569 0.963053167 0
vt 0.60663873 0.790095866 0
vt 0.572170556 0.774445474 0
vt 0.577704132 0.761304975 0
vt 0.578446448 0.761830866 0
vt 0.577704132 0.761304975 0
vt 0.570705414 0.754045725 0
vt 0.577704132 0.761304975 0
vt 0.572170556 0.774445474 0
vt 0.570705414 0.754045725 0
vt 0.561929286 0.941492081 0
vt 0.5725618 0.941430449 0
vt 0.517580569 0.963053167 0
vt 0.610375762 0.79475224 0
vt 0.572170556 0.774445474 0
vt 0.561773062 0.744822264 0
vt 0.561773062 0.744822264 0
vt 0.572170556 0.774445474 0
vt 0.553645909 0.746721864 0
vt 0.481378257 0.728428006 0
vt 0.55908531 0.742109716 0
vt 0.559171557 0.742206216 0
vt 0.544167221 0.657027483 0
vt 0.559171557 0.742206216 0
vt 0.559407115 0.742365479 0
vt 0.559407115 0.742365479 0
vt 0.559171557 0.742206216 0
vt 0.55908531 0.742109716 0
vt 0.481378257 0.728428006 0
vt 0.558738589 0.741630614 0
vt 0.55908531 0.742109716 0
vt 0.584855497 0.941624403 0
vt 0.58797282 0.941432714 0
vt 0.588903606 0.941525698 0
vt 0.481378257 0.728428006 0
vt 0.555207074 0.738105655 0
vt 0.558738589 0.741630614 0
vt 0.584855497 0.941624403 0
vt 0.588903606 0.941525698 0
vt 0.592673182 0.941499174 0
vt 0.555963695 0.738718748 0
vt 0.558738589 0.741630614 0
vt 0.555207074 0.738105655 0
vt 0.584855497 0.941624403 0
vt 0.592673182 0.941499174 0
vt 0.656781495 0.944093645 0
vt 0.584855497 0.941624403 0
vt 0.656781495 0.944093645 0
vt 0.517580569 0.963053167 0
vt 0.555207074 0.738105655 0
vt 0.481378257 0.728428006 0
vt 0.505354106 0.691075444 0
vt 0.200797617 0.829063058 0
vt 0.168226644 0.849667549 0
vt 0.134735912 0.781770527 0
vt 0.86193198 0.19285357 0
vt 0.882315934 0.230966568 0
vt 0.857450187 0.248664394 0
vt 0.316670269 0.829795897 0
vt 0.439712018 0.859389424 0
vt 0.356377333 0.893262267 0
vt 0.812031686 0.0208949726 0
vt 0.833115697 0.00966476649 0
vt 0.83791405 0.0549041145 0
vt 0.0850999802 0.274049997 0
vt 0.169897243 0.0563907772 0
vt 0.176075071 0.093563512 0
vt 0.0850999802 0.274049997 0
vt 0.106413282 0.268772125 0
vt 0.139387459 0.290829569 0
vt 0.0850999802 0.274049997 0
vt 0.176075071 0.093563512 0
vt 0.106413282 0.268772125 0
vt 0.333930105 0.68677479 0
vt 0.180906817 0.726315677 0
vt 0.261360854 0.66825223 0
vt 0.574744999 0.122467577 0
vt 0.564033866 0.484399468 0
vt 0.397187501 0.223946691 0
vt 0.0559867658 0.187552378 0
vt 0.00888797641 0.299833447 0
vt 0.0660112649 0.0569993034 0
vt 0.564033866 0.484399468 0
vt 0.574744999 0.122467577 0
vt 0.783306062 0.288101614 0
vt 0.0543179102 0.816746712 0
vt 0.00164526363 0.820240498 0
vt 0.00268976251 0.692028761 0
vt 0.934908688 0.542980194 0
vt 0.978651345 0.482940406 0
vt 0.989665806 0.554692566 0
vt 0.304118276 0.314424664 0
vt 0.221320316 0.303699613 0
vt 0.294607103 0.269072831 0
vt 0.110157311 0.728336036 0
vt 0.19645603 0.75625807 0
vt 0.167980999 0.767499745 0
vt 0.948151052 0.67712605 0
vt 0.909553528 0.597996354 0
vt 0.939256251 0.575394809 0
vt 0.781197011 0.906841278 0
vt 0.638898373 0.90476501 0
vt 0.787387371 0.875141203 0
vt 0.787387371 0.875141203 0
vt 0.904447854 0.849792838 0
vt 0.883545935 0.892621458 0
vt 0.438103914 0.897480428 0
vt 0.647742629 0.936921716 0
vt 0.466434777 0.934778154 0
vt 0.294121116 0.95343411 0
vt 0.150699899 0.888057053 0
vt 0.214118317 0.897505879 0
vt 0.0455006808 0.464631766 0
vt 0.0530281663 0.409366727 0
vt 0.0949850157 0.422955036 0
vt 0.985640585 0.0576150306 0
vt 0.958993256 0.102131523 0
vt 0.960290849 0.00829264056 0
vt 0.19645603 0.75625807 0
vt 0.250861675 0.79351604 0
vt 0.167980999 0.767499745 0
vt 0.958993256 0.102131523 0
vt 0.985640585 0.0576150306 0
vt 0.971671641 0.223486796 0
vt 0.816845655 0.0974510312 0
vt 0.812031686 0.0208949726 0
vt 0.83791405 0.0549041145 0
vt 0.00400839932 0.506138623 0
vt 0.00245704339 0.437086821 0
vt 0.0411490761 0.453955412 0
vt 0.553721011 0.723130882 0
vt 0.640752256 0.720859766 0
vt 0.695089281 0.788680673 0
vt 0.632123649 0.571773589 0
vt 0.708668828 0.536455274 0
vt 0.665412009 0.606702507 0
vt 0.374437541 0.524323344 0
vt 0.24858515 0.453266501 0
vt 0.292542994 0.34048903 0
vt 0.438103914 0.897480428 0
vt 0.616914928 0.906292856 0
vt 0.647742629 0.936921716 0
vt 0.342545539 0.689615548 0
vt 0.422015995 0.661017776 0
vt 0.481378257 0.728428006 0
vt 0.82007879 0.620577812 0
vt 0.759747744 0.691661 0
vt 0.776713908 0.641732156 0
vt 0.934908688 0.542980194 0
vt 0.950295329 0.442120463 0
vt 0.978651345 0.482940406 0
vt 0.333930105 0.68677479 0
vt 0.261360854 0.66825223 0
vt 0.311685354 0.644804418 0
vt 0.718188703 0.817798615 0
vt 0.655463576 0.789268255 0
vt 0.786968887 0.796192527 0
vt 0.342569828 0.0967252403 0
vt 0.347341567 0.0647495911 0
vt 0.378998309 0.150562316 0
vt 0.238934994 0.0362327769 0
vt 0.347341567 0.0647495911 0
vt 0.342569828 0.0967252403 0
vt 0.0850999802 0.274049997 0
vt 0.113519825 0.12472295 0
vt 0.169897243 0.0563907772 0
vt 0.656781495 0.944093645 0
vt 0.74121815 0.940135896 0
vt 0.672706246 0.96257025 0
vt 0.572170556 0.774445474 0
vt 0.537564874 0.865502894 0
vt 0.562341332 0.755339861 0
vt 0.958371401 0.27156505 0
vt 0.958993256 0.102131523 0
vt 0.971671641 0.223486796 0
vt 0.24751538 0.4628039 0
vt 0.231980711 0.629238307 0
vt 0.224939242 0.44696784 0
vt 0.86193198 0.19285357 0
vt 0.881996334 0.151555479 0
vt 0.882315934 0.230966568 0
vt 0.86193198 0.19285357 0
vt 0.864517212 0.115681693 0
vt 0.881996334 0.151555479 0
vt 0.38073054 0.938779891 0
vt 0.367617518 0.914438188 0
vt 0.438103914 0.897480428 0
vt 0.134735912 0.781770527 0
vt 0.0769039914 0.783280551 0
vt 0.115513943 0.751445949 0
vt 0.60663873 0.790095866 0
vt 0.537564874 0.865502894 0
vt 0.572170556 0.774445474 0
vt 0.397187501 0.223946691 0
vt 0.502874792 0.141743422 0
vt 0.574744999 0.122467577 0
vt 0.873529732 0.544416428 0
vt 0.839015722 0.594868481 0
vt 0.751198351 0.606705725 0
vt 0.83256048 0.942744613 0
vt 0.832922995 0.963279903 0
vt 0.760704339 0.958628654 0
vt 0.853396177 0.351299852 0
vt 0.840266943 0.286088288 0
vt 0.861929655 0.297038317 0
vt 0.861929655 0.297038317 0
vt 0.840266943 0.286088288 0
vt 0.857450187 0.248664394 0
vt 0.632123649 0.571773589 0
vt 0.727317691 0.49261266 0
vt 0.708668828 0.536455274 0
vt 0.294063807 0.902410984 0
vt 0.347951144 0.925491691 0
vt 0.278049648 0.931352317 0
vt 0.886858106 0.337882608 0
vt 0.882315934 0.230966568 0
vt 0.901392162 0.326888591 0
vt 0.776877224 0.426104546 0
vt 0.564033866 0.484399468 0
vt 0.783306062 0.288101614 0
vt 0.00268976251 0.692028761 0
vt 0.0562145598 0.74040556 0
vt 0.0543179102 0.816746712 0
vt 0.939256251 0.575394809 0
vt 0.909553528 0.597996354 0
vt 0.873529732 0.544416428 0
vt 0.284237474 0.871173918 0
vt 0.168226644 0.849667549 0
vt 0.200797617 0.829063058 0
vt 0.632407188 0.857308626 0
vt 0.704048157 0.861471772 0
vt 0.638898373 0.90476501 0
vt 0.727317691 0.49261266 0
vt 0.885297596 0.42433238 0
vt 0.783389032 0.49616912 0
vt 0.238934994 0.0362327769 0
vt 0.342569828 0.0967252403 0
vt 0.264853209 0.0861686096 0
vt 0.214118317 0.897505879 0
vt 0.150699899 0.888057053 0
vt 0.168226644 0.849667549 0
vt 0.871018767 0.347514689 0
vt 0.857450187 0.248664394 0
vt 0.882315934 0.230966568 0
vt 0.323429853 0.233717278 0
vt 0.378998309 0.150562316 0
vt 0.362269789 0.204163387 0
vt 0.934908688 0.542980194 0
vt 0.989665806 0.554692566 0
vt 0.981586814 0.604855895 0
vt 0.883545935 0.892621458 0
vt 0.904447854 0.849792838 0
vt 0.992170751 0.879407525 0
vt 0.588479936 0.0138272382 0
vt 0.707824826 0.0122937588 0
vt 0.655978978 0.0462409407 0
vt 0.885297596 0.42433238 0
vt 0.934908688 0.542980194 0
vt 0.783389032 0.49616912 0
vt 0.125694484 0.0861185715 0
vt 0.0660112649 0.0569993034 0
vt 0.179505423 0.00149330997 0
vt 0.803163409 0.295544565 0
vt 0.730795205 0.17973578 0
vt 0.723380506 0.132775202 0
vt 0.701470196 0.914127409 0
vt 0.647742629 0.936921716 0
vt 0.616914928 0.906292856 0
vt 0.445993036 0.00531946821 0
vt 0.529557765 0.00772933383 0
vt 0.588479936 0.0138272382 0
vt 0.374437541 0.524323344 0
vt 0.292542994 0.34048903 0
vt 0.397187501 0.223946691 0
vt 0.678291559 0.731045485 0
vt 0.748170614 0.772801161 0
vt 0.695487618 0.776786447 0
vt 0.986046493 -0.000102240236 0
vt 0.985640585 0.0576150306 0
vt 0.960290849 0.00829264056 0
vt 0.873529732 0.544416428 0
vt 0.909553528 0.597996354 0
vt 0.839015722 0.594868481 0
vt 0.564033866 0.484399468 0
vt 0.421983272 0.549186528 0
vt 0.374437541 0.524323344 0
vt 0.294121116 0.95343411 0
vt 0.276417702 0.967903137 0
vt 0.150699899 0.888057053 0
vt 0.125694484 0.0861185715 0
vt 0.0559867658 0.187552378 0
vt 0.0660112649 0.0569993034 0
vt 0.604882002 0.840471506 0
vt 0.60663873 0.790095866 0
vt 0.625106573 0.828768671 0
vt 0.987387598 0.806091666 0
vt 0.852734268 0.848472774 0
vt 0.786968887 0.796192527 0
vt 0.839015722 0.594868481 0
vt 0.709177673 0.686817408 0
vt 0.751198351 0.606705725 0
vt 0.869703531 0.609157801 0
vt 0.796058893 0.66470027 0
vt 0.82007879 0.620577812 0
vt 0.439712018 0.859389424 0
vt 0.537564874 0.865502894 0
vt 0.42434299 0.88869071 0
vt 0.763544977 0.558151364 0
vt 0.706671238 0.553392291 0
vt 0.788722336 0.511394024 0
vt 0.352470905 0.251437306 0
vt 0.336865604 0.283669829 0
vt 0.294607103 0.269072831 0
vt 0.951088846 0.13003698 0
vt 0.90787971 0.00624785805 0
vt 0.952013195 0.00548429415 0
vt 0.54187417 0.622408569 0
vt 0.640752256 0.720859766 0
vt 0.553721011 0.723130882 0
vt 0.304118276 0.314424664 0
vt 0.206148893 0.360534787 0
vt 0.221320316 0.303699613 0
vt 0.169897243 0.0563907772 0
vt 0.238934994 0.0362327769 0
vt 0.176075071 0.093563512 0
vt 0.155712977 0.343637675 0
vt 0.142541125 0.374151409 0
vt 0.0572829992 0.289020538 0
vt 0.857450187 0.248664394 0
vt 0.840266943 0.286088288 0
vt 0.834533095 0.216995671 0
vt 0.268238991 0.804580986 0
vt 0.316670269 0.829795897 0
vt 0.29348743 0.872580111 0
vt 0.553721011 0.723130882 0
vt 0.695089281 0.788680673 0
vt 0.655463576 0.789268255 0
vt 0.92209065 0.34539333 0
vt 0.913441539 0.230436414 0
vt 0.948124111 0.254635453 0
vt 0.796058893 0.66470027 0
vt 0.759747744 0.691661 0
vt 0.82007879 0.620577812 0
vt 0.24858515 0.453266501 0
vt 0.328750342 0.529544175 0
vt 0.259749174 0.48863259 0
vt 0.776877224 0.426104546 0
vt 0.732087016 0.469096422 0
vt 0.564033866 0.484399468 0
vt 0.445993036 0.00531946821 0
vt 0.535186231 0.0466215611 0
vt 0.413497061 0.0292313956 0
vt 0.975582361 0.772690237 0
vt 0.911425769 0.72118187 0
vt 0.985147715 0.729769945 0
vt 0.188355431 0.0380484425 0
vt 0.125694484 0.0861185715 0
vt 0.179505423 0.00149330997 0
vt 0.304118276 0.314424664 0
vt 0.294607103 0.269072831 0
vt 0.336865604 0.283669829 0
vt 0.10033828 0.3784464 0
vt 0.0949850157 0.422955036 0
vt 0.0530281663 0.409366727 0
vt 0.0551241711 0.378191531 0
vt 0.10033828 0.3784464 0
vt 0.0530281663 0.409366727 0
vt 0.333930105 0.68677479 0
vt 0.311685354 0.644804418 0
vt 0.349891394 0.628725529 0
vt 0.397187501 0.223946691 0
vt 0.564033866 0.484399468 0
vt 0.374437541 0.524323344 0
vt 0.900022268 0.0316359289 0
vt 0.876303196 0.061184261 0
vt 0.875634193 0.0312362835 0
vt 0.672706246 0.96257025 0
vt 0.74121815 0.940135896 0
vt 0.760704339 0.958628654 0
vt 0.180906817 0.726315677 0
vt 0.176382542 0.646200836 0
vt 0.261360854 0.66825223 0
vt 0.284237474 0.871173918 0
vt 0.294063807 0.902410984 0
vt 0.239530817 0.90604955 0
vt 0.770832002 0.837220609 0
vt 0.677605331 0.837858975 0
vt 0.689032614 0.81136483 0
vt 0.349891394 0.628725529 0
vt 0.311685354 0.644804418 0
vt 0.315300226 0.520050287 0
vt 0.871018767 0.347514689 0
vt 0.882315934 0.230966568 0
vt 0.900797784 0.35074684 0
vt 0.268238991 0.804580986 0
vt 0.307951599 0.717411399 0
vt 0.316670269 0.829795897 0
vt 0.180906817 0.726315677 0
vt 0.14800249 0.736364186 0
vt 0.0803943574 0.68278414 0
vt 0.786968887 0.796192527 0
vt 0.852734268 0.848472774 0
vt 0.718188703 0.817798615 0
vt 0.948124111 0.254635453 0
vt 0.913441539 0.230436414 0
vt 0.950343251 0.202318341 0
vt 0.347951144 0.925491691 0
vt 0.325948447 0.963310301 0
vt 0.278049648 0.931352317 0
vt 0.805002987 0.412420809 0
vt 0.885297596 0.42433238 0
vt 0.727317691 0.49261266 0
vt 0.79493618 0.044331558 0
vt 0.655978978 0.0462409407 0
vt 0.707824826 0.0122937588 0
vt 0.35403803 0.0354389548 0
vt 0.188355431 0.0380484425 0
vt 0.257501662 0.000356808625 0
vt 0.35403803 0.0354389548 0
vt 0.257501662 0.000356808625 0
vt 0.497459382 0.0547808893 0
vt 0.878414869 0.769062877 0
vt 0.975582361 0.772690237 0
vt 0.941070616 0.77473098 0
vt 0.971671641 0.223486796 0
vt 0.973211169 0.275931686 0
vt 0.958371401 0.27156505 0
vt 0.176382542 0.646200836 0
vt 0.0803943574 0.68278414 0
vt 0.105841532 0.593959928 0
vt 0.112796731 0.855534673 0
vt 0.0699110478 0.809590042 0
vt 0.139628574 0.830619335 0
vt 0.439712018 0.859389424 0
vt 0.42434299 0.88869071 0
vt 0.356377333 0.893262267 0
vt 0.708668828 0.536455274 0
vt 0.727317691 0.49261266 0
vt 0.783389032 0.49616912 0
vt 0.917743981 0.545663357 0
vt 0.939256251 0.575394809 0
vt 0.873529732 0.544416428 0
vt 0.74121815 0.940135896 0
vt 0.83256048 0.942744613 0
vt 0.760704339 0.958628654 0
vt 0.326218426 0.721804142 0
vt 0.316670269 0.829795897 0
vt 0.307951599 0.717411399 0
vt 0.347951144 0.925491691 0
vt 0.294063807 0.902410984 0
vt 0.284237474 0.871173918 0
vt 0.878414869 0.769062877 0
vt 0.824908853 0.766807973 0
vt 0.786618292 0.719647348 0
vt 0.622964263 0.534026027 0
vt 0.421983272 0.549186528 0
vt 0.564033866 0.484399468 0
vt 0.973211169 0.275931686 0
vt 0.970368624 0.365761161 0
vt 0.958371401 0.27156505 0
vt 0.481378257 0.728428006 0
vt 0.326218426 0.721804142 0
vt 0.307951599 0.717411399 0
vt 0.956276357 0.834638715 0
vt 0.852734268 0.848472774 0
vt 0.987387598 0.806091666 0
vt 0.374437541 0.524323344 0
vt 0.328750342 0.529544175 0
vt 0.24858515 0.453266501 0
vt 0.0611729622 0.733483851 0
vt 0.0649830624 0.713577569 0
vt 0.167980999 0.767499745 0
vt 0.481378257 0.728428006 0
vt 0.562341332 0.755339861 0
vt 0.326218426 0.721804142 0
vt 0.29348743 0.872580111 0
vt 0.316670269 0.829795897 0
vt 0.356377333 0.893262267 0
vt 0.0949850157 0.422955036 0
vt 0.10033828 0.3784464 0
vt 0.131729081 0.379154116 0
vt 0.913441539 0.230436414 0
vt 0.951088846 0.13003698 0
vt 0.950343251 0.202318341 0
vt 0.352470905 0.251437306 0
vt 0.294607103 0.269072831 0
vt 0.349026322 0.222953767 0
vt 0.0803943574 0.68278414 0
vt 0.176382542 0.646200836 0
vt 0.180906817 0.726315677 0
vt 0.885297596 0.42433238 0
vt 0.950295329 0.442120463 0
vt 0.934908688 0.542980194 0
vt 0.955930829 0.408437759 0
vt 0.931029618 0.417081654 0
vt 0.92209065 0.34539333 0
vt 0.645509958 0.171307549 0
vt 0.783306062 0.288101614 0
vt 0.574744999 0.122467577 0
vt 0.206148893 0.360534787 0
vt 0.155712977 0.343637675 0
vt 0.221320316 0.303699613 0
vt 0.206148893 0.360534787 0
vt 0.142541125 0.374151409 0
vt 0.155712977 0.343637675 0
vt 0.781197011 0.906841278 0
vt 0.787387371 0.875141203 0
vt 0.883545935 0.892621458 0
vt 0.723380506 0.132775202 0
vt 0.52928555 0.0741317347 0
vt 0.497459382 0.0547808893 0
vt 0.0411490761 0.453955412 0
vt 0.00729930913 0.388204873 0
vt 0.0330662876 0.376782507 0
vt 0.0411490761 0.453955412 0
vt 0.00245704339 0.437086821 0
vt 0.00729930913 0.388204873 0
vt 0.886858106 0.337882608 0
vt 0.90183574 0.409212887 0
vt 0.891851187 0.398718446 0
vt 0.824908853 0.766807973 0
vt 0.748170614 0.772801161 0
vt 0.786618292 0.719647348 0
vt 0.294063807 0.902410984 0
vt 0.278049648 0.931352317 0
vt 0.239530817 0.90604955 0
vt 0.992170751 0.879407525 0
vt 0.904447854 0.849792838 0
vt 0.996052146 0.856836081 0
vt 0.723380506 0.132775202 0
vt 0.777802825 0.154695958 0
vt 0.803163409 0.295544565 0
vt 0.0502363183 0.347124457 0
vt 0.00888797641 0.299833447 0
vt 0.0559867658 0.187552378 0
vt 0.0660112649 0.0569993034 0
vt 0.00888797641 0.299833447 0
vt 0.000159937612 0.225875422 0
vt 0.168226644 0.849667549 0
vt 0.139628574 0.830619335 0
vt 0.134735912 0.781770527 0
vt 0.54187417 0.622408569 0
vt 0.650522649 0.528825998 0
vt 0.632123649 0.571773589 0
vt 0.647742629 0.936921716 0
vt 0.701470196 0.914127409 0
vt 0.704038978 0.944128871 0
vt 0.131729081 0.379154116 0
vt 0.110242911 0.42624113 0
vt 0.0949850157 0.422955036 0
vt 0.60663873 0.790095866 0
vt 0.604882002 0.840471506 0
vt 0.537564874 0.865502894 0
vt 0.330953956 0.690065503 0
vt 0.333930105 0.68677479 0
vt 0.33076638 0.701058447 0
vt 0.0850999802 0.274049997 0
vt 0.139387459 0.290829569 0
vt 0.100756414 0.300545752 0
vt 0.917743981 0.545663357 0
vt 0.953457355 0.552451074 0
vt 0.939256251 0.575394809 0
vt 0.901392162 0.326888591 0
vt 0.90183574 0.409212887 0
vt 0.886858106 0.337882608 0
vt 0.231980711 0.629238307 0
vt 0.215895444 0.633425295 0
vt 0.224939242 0.44696784 0
vt 0.212555692 0.362252295 0
vt 0.239972025 0.37421909 0
vt 0.224939242 0.44696784 0
vt 0.881996334 0.151555479 0
vt 0.864517212 0.115681693 0
vt 0.86913234 0.0642025396 0
vt 0.176075071 0.093563512 0
vt 0.238934994 0.0362327769 0
vt 0.264853209 0.0861686096 0
vt 0.19645603 0.75625807 0
vt 0.263131201 0.77892071 0
vt 0.250861675 0.79351604 0
vt 0.572170556 0.774445474 0
vt 0.562341332 0.755339861 0
vt 0.553645909 0.746721864 0
vt 0.695089281 0.788680673 0
vt 0.786968887 0.796192527 0
vt 0.655463576 0.789268255 0
vt 0.707824826 0.0122937588 0
vt 0.795765877 -0.00177944975 0
vt 0.79493618 0.044331558 0
vt 0.83052063 0.530663252 0
vt 0.763544977 0.558151364 0
vt 0.788722336 0.511394024 0
vt 0.224939242 0.44696784 0
vt 0.239972025 0.37421909 0
vt 0.24751538 0.4628039 0
vt 0.677605331 0.837858975 0
vt 0.62065053 0.818419039 0
vt 0.637245715 0.795184076 0
vt 0.224798217 0.733146787 0
vt 0.330953956 0.690065503 0
vt 0.312829852 0.69848758 0
vt 0.0543179102 0.816746712 0
vt 0.0161727984 0.849293053 0
vt 0.00164526363 0.820240498 0
vt 0.878414869 0.769062877 0
vt 0.786618292 0.719647348 0
vt 0.911425769 0.72118187 0
vt 0.505354106 0.691075444 0
vt 0.481378257 0.728428006 0
vt 0.422015995 0.661017776 0
vt 0.167980999 0.767499745 0
vt 0.0649830624 0.713577569 0
vt 0.110157311 0.728336036 0
vt 0.632123649 0.571773589 0
vt 0.640752256 0.720859766 0
vt 0.54187417 0.622408569 0
vt 0.796058893 0.66470027 0
vt 0.869703531 0.609157801 0
vt 0.942439914 0.649711967 0
vt 0.622964263 0.534026027 0
vt 0.505822182 0.56069082 0
vt 0.421983272 0.549186528 0
vt 0.783306062 0.288101614 0
vt 0.799359262 0.335371226 0
vt 0.776877224 0.426104546 0
vt 0.588479936 0.0138272382 0
vt 0.655978978 0.0462409407 0
vt 0.535186231 0.0466215611 0
vt 0.529442191 0.672045231 0
vt 0.54187417 0.622408569 0
vt 0.553721011 0.723130882 0
vt 0.903808713 0.160406426 0
vt 0.882315934 0.230966568 0
vt 0.881628036 0.128568083 0
vt 0.95245713 0.316164196 0
vt 0.955930829 0.408437759 0
vt 0.92209065 0.34539333 0
vt 0.112796731 0.855534673 0
vt 0.139628574 0.830619335 0
vt 0.168226644 0.849667549 0
vt 0.901392162 0.326888591 0
vt 0.882315934 0.230966568 0
vt 0.903808713 0.160406426 0
vt 0.972904503 0.69737339 0
vt 0.796058893 0.66470027 0
vt 0.942439914 0.649711967 0
vt 0.0949850157 0.422955036 0
vt 0.105841532 0.593959928 0
vt 0.0455006808 0.464631766 0
vt 0.816845655 0.0974510312 0
vt 0.83791405 0.0549041145 0
vt 0.857450187 0.248664394 0
vt 0.834533095 0.216995671 0
vt 0.816845655 0.0974510312 0
vt 0.857450187 0.248664394 0
vt 0.537564874 0.865502894 0
vt 0.316670269 0.829795897 0
vt 0.562341332 0.755339861 0
vt 0.326218426 0.721804142 0
vt 0.562341332 0.755339861 0
vt 0.316670269 0.829795897 0
vt 0.575140059 0.746503472 0
vt 0.553721011 0.723130882 0
vt 0.655463576 0.789268255 0
vt 0.951088846 0.13003698 0
vt 0.91198349 0.149261579 0
vt 0.90787971 0.00624785805 0
vt 0.0769039914 0.783280551 0
vt 0.134735912 0.781770527 0
vt 0.139628574 0.830619335 0
vt 0.786618292 0.719647348 0
vt 0.748170614 0.772801161 0
vt 0.678291559 0.731045485 0
vt 0.421983272 0.549186528 0
vt 0.328750342 0.529544175 0
vt 0.374437541 0.524323344 0
vt 0.0955821425 0.353972822 0
vt 0.10033828 0.3784464 0
vt 0.0551241711 0.378191531 0
vt 0.445993036 0.00531946821 0
vt 0.588479936 0.0138272382 0
vt 0.535186231 0.0466215611 0
vt 0.903808713 0.160406426 0
vt 0.881628036 0.128568083 0
vt 0.900022268 0.0316359289 0
vt 0.150699899 0.888057053 0
vt 0.112796731 0.855534673 0
vt 0.168226644 0.849667549 0
vt 0.876303196 0.061184261 0
vt 0.900022268 0.0316359289 0
vt 0.881628036 0.128568083 0
vt 0.0502363183 0.347124457 0
vt 0.0559867658 0.187552378 0
vt 0.0572829992 0.289020538 0
vt 0.126737699 0.00701312954 0
vt 0.179505423 0.00149330997 0
vt 0.0660112649 0.0569993034 0
vt 0.665412009 0.606702507 0
vt 0.65230906 0.706838429 0
vt 0.640752256 0.720859766 0
vt 0.68402195 0.49445644 0
vt 0.622964263 0.534026027 0
vt 0.564033866 0.484399468 0
vt 0.352470905 0.251437306 0
vt 0.349026322 0.222953767 0
vt 0.387799233 0.193850458 0
vt 0.0615230575 0.633733332 0
vt 0.0455006808 0.464631766 0
vt 0.0803943574 0.68278414 0
vt 0.445993036 0.00531946821 0
vt 0.413497061 0.0292313956 0
vt 0.417189091 -0.000936332624 0
vt 0.38073054 0.938779891 0
vt 0.438103914 0.897480428 0
vt 0.466434777 0.934778154 0
vt 0.684588313 0.636686206 0
vt 0.706671238 0.553392291 0
vt 0.763544977 0.558151364 0
vt 0.730795205 0.17973578 0
vt 0.52928555 0.0741317347 0
vt 0.723380506 0.132775202 0
vt 0.0803943574 0.68278414 0
vt 0.0455006808 0.464631766 0
vt 0.105841532 0.593959928 0
vt 0.00400839932 0.506138623 0
vt 0.0484510362 0.586718082 0
vt 0.00268976251 0.692028761 0
vt 0.770832002 0.837220609 0
vt 0.749805331 0.857296884 0
vt 0.677605331 0.837858975 0
vt 0.0562145598 0.74040556 0
vt 0.00268976251 0.692028761 0
vt 0.0484510362 0.586718082 0
vt 0.330953956 0.690065503 0
vt 0.224798217 0.733146787 0
vt 0.333930105 0.68677479 0
vt 0.312829852 0.69848758 0
vt 0.330953956 0.690065503 0
vt 0.33076638 0.701058447 0
vt 0.913441539 0.230436414 0
vt 0.91198349 0.149261579 0
vt 0.951088846 0.13003698 0
vt 0.179505423 0.00149330997 0
vt 0.257501662 0.000356808625 0
vt 0.188355431 0.0380484425 0
vt 0.250720024 0.406189442 0
vt 0.292542994 0.34048903 0
vt 0.24858515 0.453266501 0
vt 0.632123649 0.571773589 0
vt 0.665412009 0.606702507 0
vt 0.640752256 0.720859766 0
vt 0.708668828 0.536455274 0
vt 0.700462878 0.57280153 0
vt 0.665412009 0.606702507 0
vt 0.975582361 0.772690237 0
vt 0.878414869 0.769062877 0
vt 0.911425769 0.72118187 0
vt 0.52928555 0.0741317347 0
vt 0.35403803 0.0354389548 0
vt 0.497459382 0.0547808893 0
vt 0.732087016 0.469096422 0
vt 0.68402195 0.49445644 0
vt 0.564033866 0.484399468 0
vt 0.704048157 0.861471772 0
vt 0.787387371 0.875141203 0
vt 0.638898373 0.90476501 0
vt 0.284237474 0.871173918 0
vt 0.239530817 0.90604955 0
vt 0.168226644 0.849667549 0
vt 0.0572829992 0.289020538 0
vt 0.142541125 0.374151409 0
vt 0.0502363183 0.347124457 0
vt 0.562341332 0.755339861 0
vt 0.481378257 0.728428006 0
vt 0.553645909 0.746721864 0
vt 0.677605331 0.837858975 0
vt 0.637245715 0.795184076 0
vt 0.689032614 0.81136483 0
vt 0.316670269 0.829795897 0
vt 0.537564874 0.865502894 0
vt 0.439712018 0.859389424 0
vt 0.60663873 0.790095866 0
vt 0.62751919 0.791139126 0
vt 0.625106573 0.828768671 0
vt 0.517580569 0.963053167 0
vt 0.656781495 0.944093645 0
vt 0.672706246 0.96257025 0
vt 0.653073072 0.736190319 0
vt 0.751198351 0.606705725 0
vt 0.709177673 0.686817408 0
vt 0.95245713 0.316164196 0
vt 0.92209065 0.34539333 0
vt 0.948124111 0.254635453 0
vt 0.180906817 0.726315677 0
vt 0.333930105 0.68677479 0
vt 0.224798217 0.733146787 0
vt 0.342545539 0.689615548 0
vt 0.481378257 0.728428006 0
vt 0.307951599 0.717411399 0
vt 0.650522649 0.528825998 0
vt 0.727317691 0.49261266 0
vt 0.632123649 0.571773589 0
vt 0.861929655 0.297038317 0
vt 0.873196185 0.352460682 0
vt 0.853396177 0.351299852 0
vt 0.0484510362 0.586718082 0
vt 0.00400839932 0.506138623 0
vt 0.0411490761 0.453955412 0
vt 0.0161727984 0.849293053 0
vt 0.0543179102 0.816746712 0
vt 0.0635019392 0.861542761 0
vt 0.056300275 0.837284505 0
vt 0.0699110478 0.809590042 0
vt 0.112796731 0.855534673 0
vn -0.368780971 0.817327738 -0.268649906
vn -0.623736203 0.136790961 -0.769572258
vn -0.319154114 -0.829278469 -0.320257008
vn -0.368780971 0.817327738 -0.268649906
vn -0.223334432 0.940695882 0.0323250666
vn -0.0819085687 0.974350035 -0.117346987
vn -0.623736203 0.136790961 -0.769572258
vn -0.0819085687 0.974350035 -0.117346987
vn -0.461632878 0.705706418 -0.537469625
vn -0.0819085687 0.974350035 -0.117346987
vn -0.223334432 0.940695882 0.0323250666
vn -0.461632878 0.705706418 -0.537469625
vn -0.623736203 0.136790961 -0.769572258
vn -0.461632878 0.705706418 -0.537469625
vn -0.319154114 -0.829278469 -0.320257008
vn -0.319154114 -0.829278469 -0.320257008
vn -0.223334432 0.940695882 0.0323250666
vn -0.527912199 0.640298367 -0.578757167
vn -0.527912199 0.640298367 -0.578757167
vn -0.223334432 0.940695882 0.0323250666
vn -0.120087333 0.713655949 -0.506112576
vn -0.0492909886 0.922544241 -0.181880489
vn 0.0648453683 0.997721493 -0.0186278578
vn -4.70725298 1.82476842 -7.80254984
vn -22.7345524 0.252258748 -46.6232224
vn -4.70725298 1.82476842 -7.80254984
vn 0.0626192316 0.603663445 0.373840868
vn 0.0626192316 0.603663445 0.373840868
vn -4.70725298 1.82476842 -7.80254984
vn 0.0648453683 0.997721493 -0.0186278578
vn -0.0492909886 0.922544241 -0.181880489
vn -0.312182546 0.82362783 -0.473475665
vn 0.0648453683 0.997721493 -0.0186278578
vn -0.527912199 0.640298367 -0.578757167
vn -0.624160647 -0.371479899 -0.722487926
vn -0.312182546 0.82362783 -0.473475665
vn -0.0492909886 0.922544241 -0.181880489
vn 0.142913476 0.984156489 0.10493651
vn -0.312182546 0.82362783 -0.473475665
vn -0.527912199 0.640298367 -0.578757167
vn -0.312182546 0.82362783 -0.473475665
vn -0.592920363 0.379364967 -0.710301161
vn -0.592920363 0.379364967 -0.710301161
vn -0.312182546 0.82362783 -0.473475665
vn 0.142913476 0.984156489 0.10493651
vn -0.527912199 0.640298367 -0.578757167
vn -0.592920363 0.379364967 -0.710301161
vn -0.307156622 0.645329297 -0.51480478
vn -0.527912199 0.640298367 -0.578757167
vn -0.307156622 0.645329297 -0.51480478
vn -0.319154114 -0.829278469 -0.320257008
vn 0.142913476 0.984156489 0.10493651
vn -0.0492909886 0.922544241 -0.181880489
vn -0.307156622 0.645329297 -0.51480478
vn 0.822606802 -0.362478286 -0.281041116
vn 0.832249045 0.284034133 -0.229189873
vn 1.02686417 -0.259564787 0.110579088
vn 0.158682644 0.818779707 0.293807209
vn 0.0644525439 0.663328707 0.578394592
vn 0.0662767217 0.422712475 0.625903249
vn 0.123645402 0.933077455 0.0740709305
vn -0.0508602746 0.91526252 0.262359023
vn -0.0365527272 0.842749715 0.372987658
vn -0.358925551 0.567023396 0.430796802
vn -0.700344682 -0.483388007 0.449242115
vn -0.180626765 0.335840613 0.323513716
vn -0.319154114 -0.829278469 -0.320257008
vn 0.0165882707 -0.923491657 -0.174908698
vn -0.0714598075 -0.530901313 -0.463011384
vn -0.319154114 -0.829278469 -0.320257008
vn -0.320991397 -0.00122378219 -0.264616281
vn -0.180626765 0.335840613 0.323513716
vn -0.319154114 -0.829278469 -0.320257008
vn -0.0714598075 -0.530901313 -0.463011384
vn -0.320991397 -0.00122378219 -0.264616281
vn 0.257862806 0.922059178 0.0228075627
vn 0.151555493 0.95164299 -0.0488021336
vn 0.271014214 0.82054925 -0.0970404893
vn -0.107196212 -0.977800727 0.0706048831
vn -0.0228192788 -1.00242412 -0.0104397377
vn -0.0225852169 -0.955990374 0.0706567317
vn -0.63618505 0.402524143 -0.0242840219
vn -0.23549749 0.857676923 -0.209941387
vn -0.382816643 0.518658876 0.0446346328
vn -0.0228192788 -1.00242412 -0.0104397377
vn -0.107196212 -0.977800727 0.0706048831
vn -0.231048629 -0.914864421 -0.0498277172
vn 0.311916679 -0.193383202 0.935049891
vn 0.117959239 0.844152629 0.327856749
vn 0.0018973957 0.344735473 0.860261023
vn -0.0997194126 0.843162715 -0.121079244
vn -0.580094039 0.591903269 -0.155805215
vn -0.622132897 0.538951337 0.155388355
vn 0.355095506 0.682059944 -0.409405708
vn 0.304896891 0.603009641 -0.329005003
vn 0.12088085 0.801500618 -0.193785831
vn 0.377570122 0.613832355 -0.51268667
vn 0.506772459 0.663582921 0.0858394727
vn 0.332502723 -0.835915864 -0.018103322
vn -0.0997194126 0.843162715 -0.121079244
vn -0.496641189 -0.232746929 0.105602056
vn -0.373158872 -0.752244413 -0.38873899
vn 0.0352678001 0.861281157 -0.222001716
vn -0.357175618 0.366708636 -0.647208691
vn 0.215761542 0.580236197 -0.624653935
vn 0.215761542 0.580236197 -0.624653935
vn 0.272814125 0.689866185 -0.389575154
vn 0.304896891 0.603009641 -0.329005003
vn -0.382816643 0.518658876 0.0446346328
vn -0.231048629 -0.914864421 -0.0498277172
vn -0.699219882 -0.736845672 -0.051250197
vn 0.12088085 0.801500618 -0.193785831
vn 0.403668463 0.766945779 -0.207478791
vn 0.439290315 0.501575947 -0.38372767
vn -0.154043123 0.824431956 -0.333844692
vn -0.479453385 0.697696865 -0.273098201
vn -0.192693695 0.756147563 -0.319873601
vn -0.154043123 0.824431956 -0.333844692
vn -0.0997194126 0.843162715 -0.121079244
vn -0.373158872 -0.752244413 -0.38873899
vn 0.506772459 0.663582921 0.0858394727
vn 0.384693384 -0.525117099 0.434057146
vn 0.332502723 -0.835915864 -0.018103322
vn -0.0997194126 0.843162715 -0.121079244
vn -0.154043123 0.824431956 -0.333844692
vn -0.288114429 0.184008762 -0.934889257
vn -0.125821397 0.820874929 0.396591425
vn -0.358925551 0.567023396 0.430796802
vn -0.180626765 0.335840613 0.323513716
vn -0.175428957 0.459357023 0.792112887
vn -0.128096536 0.866333365 0.233816311
vn -0.158366784 -0.695328832 0.415380865
vn 0.209506452 0.919326007 0.178748831
vn 0.13009128 0.926841497 0.0344424136
vn 0.094402045 -0.183786541 0.496668786
vn 0.0996967033 0.989448249 -0.122922428
vn 0.195628017 0.876238465 -0.147105888
vn 0.461959153 0.693747699 -0.132746503
vn 0.0368698351 -1.00005913 -0.0709785372
vn 0.113019012 -0.959946692 0.0698271617
vn 0.0125117935 -0.612758815 0.575192988
vn -0.382816643 0.518658876 0.0446346328
vn -0.794881105 0.0154253384 -0.151406556
vn -0.231048629 -0.914864421 -0.0498277172
vn 0.230574131 0.839621603 -0.201938197
vn -0.0187438484 0.787701309 -0.412780732
vn -0.0492909886 0.922544241 -0.181880489
vn -0.950251997 0.372039229 0.451458335
vn -0.320991397 -0.00122378219 -0.264616281
vn -0.604734004 0.293577522 0.395127058
vn -0.0997194126 0.843162715 -0.121079244
vn -0.469668329 0.437532753 -0.65161413
vn -0.580094039 0.591903269 -0.155805215
vn 0.257862806 0.922059178 0.0228075627
vn 0.271014214 0.82054925 -0.0970404893
vn 0.484408647 0.581655324 0.330425501
vn -0.0317009501 0.454104602 0.731222868
vn -0.0268472563 0.905247986 0.402800113
vn 0.0343916267 -0.316592842 0.128199488
vn 0.520861983 -0.533856392 -0.237666458
vn 0.332502723 -0.835915864 -0.018103322
vn 0.384693384 -0.525117099 0.434057146
vn 0.225768328 -0.807990849 -0.229204953
vn 0.332502723 -0.835915864 -0.018103322
vn 0.520861983 -0.533856392 -0.237666458
vn -0.319154114 -0.829278469 -0.320257008
vn -0.322543681 -0.689242303 -0.506851971
vn 0.0165882707 -0.923491657 -0.174908698
vn -0.307156622 0.645329297 -0.51480478
vn -0.0187438484 0.787701309 -0.412780732
vn -0.322543681 -0.689242303 -0.506851971
vn -0.223334432 0.940695882 0.0323250666
vn -0.125821397 0.820874929 0.396591425
vn -0.108203642 0.910269439 -0.0953227133
vn -0.00520504871 0.862029076 -0.187872589
vn -0.0997194126 0.843162715 -0.121079244
vn -0.288114429 0.184008762 -0.934889257
vn -0.0431349985 0.879607499 -0.196593553
vn -0.192693695 0.756147563 -0.319873601
vn -0.0714598075 -0.530901313 -0.463011384
vn 0.158682644 0.818779707 0.293807209
vn 0.0317648239 -0.73316741 0.431670159
vn 0.0644525439 0.663328707 0.578394592
vn 0.158682644 0.818779707 0.293807209
vn -0.16090247 0.835566759 0.36514011
vn 0.0317648239 -0.73316741 0.431670159
vn -0.107196212 -0.977800727 0.0706048831
vn -0.653833389 0.266552866 0.707102239
vn -0.382816643 0.518658876 0.0446346328
vn 1.02686417 -0.259564787 0.110579088
vn 0.690613329 0.363682628 0.622676969
vn 0.113019012 -0.959946692 0.0698271617
vn -0.368780971 0.817327738 -0.268649906
vn -0.125821397 0.820874929 0.396591425
vn -0.223334432 0.940695882 0.0323250666
vn -0.0225852169 -0.955990374 0.0706567317
vn -0.158366784 -0.695328832 0.415380865
vn -0.107196212 -0.977800727 0.0706048831
vn -0.266714185 -0.780805051 0.229537815
vn -0.0795613751 -0.144181281 0.382858723
vn -0.17302914 -0.512732446 0.713897288
vn 0.230574131 0.839621603 -0.201938197
vn 0.225768328 -0.807990849 -0.229204953
vn 0.0165882707 -0.923491657 -0.174908698
vn 0.344522595 0.750978172 0.347431779
vn -0.0365527272 0.842749715 0.372987658
vn 0.0137965819 -0.647654295 0.631158173
vn 0.0137965819 -0.647654295 0.631158173
vn -0.0365527272 0.842749715 0.372987658
vn 0.0662767217 0.422712475 0.625903249
vn 0.0996967033 0.989448249 -0.122922428
vn 0.272814125 0.689866185 -0.389575154
vn 0.195628017 0.876238465 -0.147105888
vn 0.768644869 -0.0982186943 -0.448582351
vn 0.646870255 -0.436035037 -0.557816446
vn 0.436636478 0.487838298 -0.251994163
vn 0.0504056476 0.851055145 0.311228335
vn 0.0644525439 0.663328707 0.578394592
vn 0.094402045 -0.183786541 0.496668786
vn -0.112266891 -0.85169065 -0.279862285
vn -0.0228192788 -1.00242412 -0.0104397377
vn -0.231048629 -0.914864421 -0.0498277172
vn 0.0018973957 0.344735473 0.860261023
vn 0.0125117935 -0.612758815 0.575192988
vn 0.311916679 -0.193383202 0.935049891
vn -0.373158872 -0.752244413 -0.38873899
vn -0.496641189 -0.232746929 0.105602056
vn -0.266714185 -0.780805051 0.229537815
vn 0.553542435 -0.329187989 -0.341209859
vn 0.832249045 0.284034133 -0.229189873
vn 0.822606802 -0.362478286 -0.281041116
vn -0.469668329 0.437532753 -0.65161413
vn -0.0436965749 0.735598385 -0.433156371
vn -0.357175618 0.366708636 -0.647208691
vn 0.272814125 0.689866185 -0.389575154
vn -0.0436965749 0.735598385 -0.433156371
vn -0.00520504871 0.862029076 -0.187872589
vn 0.225768328 -0.807990849 -0.229204953
vn 0.520861983 -0.533856392 -0.237666458
vn 0.40195775 -0.535852075 -0.405861109
vn 0.439290315 0.501575947 -0.38372767
vn 0.403668463 0.766945779 -0.207478791
vn 0.832249045 0.284034133 -0.229189873
vn 0.384693384 -0.525117099 0.434057146
vn 0.0662767217 0.422712475 0.625903249
vn 0.0644525439 0.663328707 0.578394592
vn 0.0662767217 0.422712475 0.625903249
vn 0.384693384 -0.525117099 0.434057146
vn 0.0137965819 -0.647654295 0.631158173
vn -0.0997194126 0.843162715 -0.121079244
vn -0.622132897 0.538951337 0.155388355
vn -0.496641189 -0.232746929 0.105602056
vn 0.304896891 0.603009641 -0.329005003
vn 0.272814125 0.689866185 -0.389575154
vn 0.12088085 0.801500618 -0.193785831
vn -0.0317009501 0.454104602 0.731222868
vn -0.216712758 0.519835293 0.677561104
vn -0.153095588 0.291444093 0.824722826
vn -0.0436965749 0.735598385 -0.433156371
vn -0.0997194126 0.843162715 -0.121079244
vn -0.00520504871 0.862029076 -0.187872589
vn -0.855952024 0.116463386 0.33603406
vn -0.382816643 0.518658876 0.0446346328
vn -0.128096536 0.866333365 0.233816311
vn 0.69867748 0.508981466 0.0144415954
vn 0.626938164 0.0790827423 0.680549741
vn 0.117959239 0.844152629 0.327856749
vn -0.23549749 0.857676923 -0.209941387
vn -0.231048629 -0.914864421 -0.0498277172
vn -0.794881105 0.0154253384 -0.151406556
vn 0.354979306 0.385294586 0.83893764
vn -0.0268472563 0.905247986 0.402800113
vn -0.0317009501 0.454104602 0.731222868
vn 0.0368698351 -1.00005913 -0.0709785372
vn 0.0125117935 -0.612758815 0.575192988
vn -0.0225852169 -0.955990374 0.0706567317
vn -0.357175618 0.366708636 -0.647208691
vn -0.580094039 0.591903269 -0.155805215
vn -0.469668329 0.437532753 -0.65161413
vn -0.479453385 0.697696865 -0.273098201
vn -0.154043123 0.824431956 -0.333844692
vn -0.373158872 -0.752244413 -0.38873899
vn -0.266714185 -0.780805051 0.229537815
vn -0.496641189 -0.232746929 0.105602056
vn -0.0795613751 -0.144181281 0.382858723
vn -0.0228192788 -1.00242412 -0.0104397377
vn 0.553542435 -0.329187989 -0.341209859
vn 0.0368698351 -1.00005913 -0.0709785372
vn 0.12088085 0.801500618 -0.193785831
vn 0.61821723 0.484963924 -0.566439807
vn 0.403668463 0.766945779 -0.207478791
vn -0.855952024 0.116463386 0.33603406
vn -0.63618505 0.402524143 -0.0242840219
vn -0.382816643 0.518658876 0.0446346328
vn -0.358925551 0.567023396 0.430796802
vn -0.368780971 0.817327738 -0.268649906
vn -0.700344682 -0.483388007 0.449242115
vn -0.0795613751 -0.144181281 0.382858723
vn -0.216712758 0.519835293 0.677561104
vn 0.0343916267 -0.316592842 0.128199488
vn -0.0795613751 -0.144181281 0.382858723
vn 0.0343916267 -0.316592842 0.128199488
vn -0.17302914 -0.512732446 0.713897288
vn -0.16090247 0.835566759 0.36514011
vn -0.180626765 0.335840613 0.323513716
vn -0.950251997 0.372039229 0.451458335
vn -0.0508602746 0.91526252 0.262359023
vn -0.125821397 0.820874929 0.396591425
vn -0.0921589956 0.770419896 0.495914131
vn -0.138327241 -0.528980553 0.342668772
vn 0.0317648239 -0.73316741 0.431670159
vn -0.950251997 0.372039229 0.451458335
vn 0.80566293 0.293111295 -0.429697692
vn 0.436636478 0.487838298 -0.251994163
vn 0.12088085 0.801500618 -0.193785831
vn 0.303040981 -0.712650478 -0.63016063
vn 0.355095506 0.682059944 -0.409405708
vn 0.646870255 -0.436035037 -0.557816446
vn 0.403668463 0.766945779 -0.207478791
vn 0.13009128 0.926841497 0.0344424136
vn 0.209506452 0.919326007 0.178748831
vn 0.355095506 0.682059944 -0.409405708
vn 0.28629601 0.71321547 -0.61932081
vn 0.304896891 0.603009641 -0.329005003
vn 0.0165882707 -0.923491657 -0.174908698
vn 0.225768328 -0.807990849 -0.229204953
vn -0.0714598075 -0.530901313 -0.463011384
vn 0.0352678001 0.861281157 -0.222001716
vn 0.112267613 0.461057216 -0.749835491
vn -0.357175618 0.366708636 -0.647208691
vn 0.0662767217 0.422712475 0.625903249
vn -0.0365527272 0.842749715 0.372987658
vn -0.0921589956 0.770419896 0.495914131
vn 0.506772459 0.663582921 0.0858394727
vn 0.123645402 0.933077455 0.0740709305
vn 0.344522595 0.750978172 0.347431779
vn 0.209506452 0.919326007 0.178748831
vn 0.094402045 -0.183786541 0.496668786
vn -0.0268472563 0.905247986 0.402800113
vn -0.112579778 0.813529968 -0.299700081
vn 0.112267613 0.461057216 -0.749835491
vn 0.181313664 -0.295509249 -0.630377233
vn -0.180626765 0.335840613 0.323513716
vn -0.320991397 -0.00122378219 -0.264616281
vn -0.950251997 0.372039229 0.451458335
vn 0.113019012 -0.959946692 0.0698271617
vn 0.822606802 -0.362478286 -0.281041116
vn 1.02686417 -0.259564787 0.110579088
vn -0.112266891 -0.85169065 -0.279862285
vn 0.181313664 -0.295509249 -0.630377233
vn -0.0228192788 -1.00242412 -0.0104397377
vn 0.354979306 0.385294586 0.83893764
vn 0.0214944128 0.364634037 0.855850279
vn 0.626938164 0.0790827423 0.680549741
vn -0.544528186 0.48560077 0.476075977
vn -0.855952024 0.116463386 0.33603406
vn -0.560450137 0.308213085 0.560060203
vn -0.560450137 0.308213085 0.560060203
vn -0.855952024 0.116463386 0.33603406
vn -0.128096536 0.866333365 0.233816311
vn 0.355095506 0.682059944 -0.409405708
vn 0.12088085 0.801500618 -0.193785831
vn 0.436636478 0.487838298 -0.251994163
vn -0.441338271 0.665464461 0.455918908
vn -0.192693695 0.756147563 -0.319873601
vn -0.479453385 0.697696865 -0.273098201
vn -1.03812587 -0.0391655192 0.0990420505
vn -0.441338271 0.665464461 0.455918908
vn -0.479453385 0.697696865 -0.273098201
vn 0.257862806 0.922059178 0.0228075627
vn 0.484408647 0.581655324 0.330425501
vn 0.0504056476 0.851055145 0.311228335
vn -0.0225852169 -0.955990374 0.0706567317
vn -0.0228192788 -1.00242412 -0.0104397377
vn 0.0368698351 -1.00005913 -0.0709785372
vn -0.266714185 -0.780805051 0.229537815
vn -0.604734004 0.293577522 0.395127058
vn -0.441338271 0.665464461 0.455918908
vn -0.322543681 -0.689242303 -0.506851971
vn -0.0187438484 0.787701309 -0.412780732
vn 0.0165882707 -0.923491657 -0.174908698
vn 0.151555493 0.95164299 -0.0488021336
vn 0.39293462 0.621164918 -0.377560765
vn 0.271014214 0.82054925 -0.0970404893
vn 0.553542435 -0.329187989 -0.341209859
vn 0.768644869 -0.0982186943 -0.448582351
vn 0.80566293 0.293111295 -0.429697692
vn 0.39293462 0.621164918 -0.377560765
vn 0.520861983 -0.533856392 -0.237666458
vn 0.271014214 0.82054925 -0.0970404893
vn 0.0504056476 0.851055145 0.311228335
vn 0.484408647 0.581655324 0.330425501
vn 0.0644525439 0.663328707 0.578394592
vn 0.384693384 -0.525117099 0.434057146
vn 0.0644525439 0.663328707 0.578394592
vn 0.484408647 0.581655324 0.330425501
vn 0.506772459 0.663582921 0.0858394727
vn 0.377570122 0.613832355 -0.51268667
vn 0.123645402 0.933077455 0.0740709305
vn 0.151555493 0.95164299 -0.0488021336
vn 0.195628017 0.876238465 -0.147105888
vn 0.0609788224 0.968739033 -0.158094123
vn 0.0343916267 -0.316592842 0.128199488
vn -0.216712758 0.519835293 0.677561104
vn -0.0317009501 0.454104602 0.731222868
vn 0.181313664 -0.295509249 -0.630377233
vn 0.112267613 0.461057216 -0.749835491
vn 0.275027186 -0.715826035 -0.763244271
vn 0.646870255 -0.436035037 -0.557816446
vn 0.355095506 0.682059944 -0.409405708
vn 0.436636478 0.487838298 -0.251994163
vn 0.215761542 0.580236197 -0.624653935
vn -0.0436965749 0.735598385 -0.433156371
vn 0.272814125 0.689866185 -0.389575154
vn -0.560450137 0.308213085 0.560060203
vn -0.153095588 0.291444093 0.824722826
vn -0.216712758 0.519835293 0.677561104
vn -0.153095588 0.291444093 0.824722826
vn -0.560450137 0.308213085 0.560060203
vn -0.175428957 0.459357023 0.792112887
vn -0.153095588 0.291444093 0.824722826
vn -0.175428957 0.459357023 0.792112887
vn 0.0018973957 0.344735473 0.860261023
vn -0.496641189 -0.232746929 0.105602056
vn -0.544528186 0.48560077 0.476075977
vn -0.0795613751 -0.144181281 0.382858723
vn -0.288114429 0.184008762 -0.934889257
vn 0.0609788224 0.968739033 -0.158094123
vn -0.00520504871 0.862029076 -0.187872589
vn 0.39293462 0.621164918 -0.377560765
vn 0.0609788224 0.968739033 -0.158094123
vn -0.0431349985 0.879607499 -0.196593553
vn 0.817130804 0.361012667 0.330117792
vn 0.626938164 0.0790827423 0.680549741
vn 0.69867748 0.508981466 0.0144415954
vn -0.0508602746 0.91526252 0.262359023
vn -0.0921589956 0.770419896 0.495914131
vn -0.0365527272 0.842749715 0.372987658
vn 0.195628017 0.876238465 -0.147105888
vn 0.272814125 0.689866185 -0.389575154
vn -0.00520504871 0.862029076 -0.187872589
vn -1.03812587 -0.0391655192 0.0990420505
vn -0.373158872 -0.752244413 -0.38873899
vn -0.266714185 -0.780805051 0.229537815
vn -0.0187438484 0.787701309 -0.412780732
vn 0.230574131 0.839621603 -0.201938197
vn 0.0165882707 -0.923491657 -0.174908698
vn 0.0287194494 1.00973105 -0.101354055
vn 0.123645402 0.933077455 0.0740709305
vn 0.377570122 0.613832355 -0.51268667
vn 0.646870255 -0.436035037 -0.557816446
vn 0.768644869 -0.0982186943 -0.448582351
vn 0.553542435 -0.329187989 -0.341209859
vn -0.496641189 -0.232746929 0.105602056
vn -0.622132897 0.538951337 0.155388355
vn -0.63618505 0.402524143 -0.0242840219
vn 0.303040981 -0.712650478 -0.63016063
vn 0.553542435 -0.329187989 -0.341209859
vn -0.0228192788 -1.00242412 -0.0104397377
vn 0.0609788224 0.968739033 -0.158094123
vn 0.195628017 0.876238465 -0.147105888
vn -0.00520504871 0.862029076 -0.187872589
vn -0.0492909886 0.922544241 -0.181880489
vn 0.0287194494 1.00973105 -0.101354055
vn 0.377570122 0.613832355 -0.51268667
vn -0.544528186 0.48560077 0.476075977
vn -0.216712758 0.519835293 0.677561104
vn -0.0795613751 -0.144181281 0.382858723
vn 0.0368698351 -1.00005913 -0.0709785372
vn 0.822606802 -0.362478286 -0.281041116
vn 0.113019012 -0.959946692 0.0698271617
vn 0.225768328 -0.807990849 -0.229204953
vn 0.230574131 0.839621603 -0.201938197
vn 0.332502723 -0.835915864 -0.018103322
vn -0.0492909886 0.922544241 -0.181880489
vn -0.108203642 0.910269439 -0.0953227133
vn 0.0287194494 1.00973105 -0.101354055
vn 0.344522595 0.750978172 0.347431779
vn 0.123645402 0.933077455 0.0740709305
vn -0.0365527272 0.842749715 0.372987658
vn -0.192693695 0.756147563 -0.319873601
vn -0.441338271 0.665464461 0.455918908
vn -0.604734004 0.293577522 0.395127058
vn 0.112267613 0.461057216 -0.749835491
vn 0.303040981 -0.712650478 -0.63016063
vn 0.275027186 -0.715826035 -0.763244271
vn 0.80566293 0.293111295 -0.429697692
vn 0.12088085 0.801500618 -0.193785831
vn 0.439290315 0.501575947 -0.38372767
vn 0.0609788224 0.968739033 -0.158094123
vn 0.39293462 0.621164918 -0.377560765
vn 0.151555493 0.95164299 -0.0488021336
vn -0.0436965749 0.735598385 -0.433156371
vn -0.469668329 0.437532753 -0.65161413
vn -0.0997194126 0.843162715 -0.121079244
vn -0.368735611 -0.714183271 -0.460549891
vn -0.23549749 0.857676923 -0.209941387
vn -0.112579778 0.813529968 -0.299700081
vn -0.699219882 -0.736845672 -0.051250197
vn -0.231048629 -0.914864421 -0.0498277172
vn -0.107196212 -0.977800727 0.0706048831
vn 0.28629601 0.71321547 -0.61932081
vn 0.0352678001 0.861281157 -0.222001716
vn 0.304896891 0.603009641 -0.329005003
vn 0.28629601 0.71321547 -0.61932081
vn 0.112267613 0.461057216 -0.749835491
vn 0.0352678001 0.861281157 -0.222001716
vn 0.0352678001 0.861281157 -0.222001716
vn 0.215761542 0.580236197 -0.624653935
vn 0.304896891 0.603009641 -0.329005003
vn 0.117959239 0.844152629 0.327856749
vn 0.0214944128 0.364634037 0.855850279
vn 0.0018973957 0.344735473 0.860261023
vn -0.158366784 -0.695328832 0.415380865
vn -0.653833389 0.266552866 0.707102239
vn -0.107196212 -0.977800727 0.0706048831
vn -0.158366784 -0.695328832 0.415380865
vn -0.128096536 0.866333365 0.233816311
vn -0.653833389 0.266552866 0.707102239
vn 0.0504056476 0.851055145 0.311228335
vn 0.13009128 0.926841497 0.0344424136
vn 0.257862806 0.922059178 0.0228075627
vn -0.622132897 0.538951337 0.155388355
vn -0.580094039 0.591903269 -0.155805215
vn -0.63618505 0.402524143 -0.0242840219
vn 0.768644869 -0.0982186943 -0.448582351
vn 0.436636478 0.487838298 -0.251994163
vn 0.80566293 0.293111295 -0.429697692
vn 0.12088085 0.801500618 -0.193785831
vn 0.272814125 0.689866185 -0.389575154
vn 0.61821723 0.484963924 -0.566439807
vn 0.117959239 0.844152629 0.327856749
vn 0.690613329 0.363682628 0.622676969
vn 0.69867748 0.508981466 0.0144415954
vn -0.112579778 0.813529968 -0.299700081
vn -0.23549749 0.857676923 -0.209941387
vn -0.63618505 0.402524143 -0.0242840219
vn -0.382816643 0.518658876 0.0446346328
vn -0.23549749 0.857676923 -0.209941387
vn -0.794881105 0.0154253384 -0.151406556
vn 0.832249045 0.284034133 -0.229189873
vn 0.69867748 0.508981466 0.0144415954
vn 1.02686417 -0.259564787 0.110579088
vn 0.403668463 0.766945779 -0.207478791
vn 0.61821723 0.484963924 -0.566439807
vn 0.0996967033 0.989448249 -0.122922428
vn -0.231048629 -0.914864421 -0.0498277172
vn -0.23549749 0.857676923 -0.209941387
vn -0.368735611 -0.714183271 -0.460549891
vn -0.604734004 0.293577522 0.395127058
vn -0.320991397 -0.00122378219 -0.264616281
vn -0.192693695 0.756147563 -0.319873601
vn -0.368780971 0.817327738 -0.268649906
vn -0.358925551 0.567023396 0.430796802
vn -0.125821397 0.820874929 0.396591425
vn 0.556963265 0.761424541 0.0418729745
vn 0.257862806 0.922059178 0.0228075627
vn 0.13009128 0.926841497 0.0344424136
vn -0.319154114 -0.829278469 -0.320257008
vn -0.180626765 0.335840613 0.323513716
vn -0.700344682 -0.483388007 0.449242115
vn -1.03812587 -0.0391655192 0.0990420505
vn -0.479453385 0.697696865 -0.273098201
vn -0.373158872 -0.752244413 -0.38873899
vn 0.094402045 -0.183786541 0.496668786
vn 0.13009128 0.926841497 0.0344424136
vn 0.0504056476 0.851055145 0.311228335
vn -0.192693695 0.756147563 -0.319873601
vn -0.320991397 -0.00122378219 -0.264616281
vn -0.0714598075 -0.530901313 -0.463011384
vn 0.40195775 -0.535852075 -0.405861109
vn 0.39293462 0.621164918 -0.377560765
vn -0.0714598075 -0.530901313 -0.463011384
vn 0.0317648239 -0.73316741 0.431670159
vn -0.16090247 0.835566759 0.36514011
vn -0.950251997 0.372039229 0.451458335
vn -0.0714598075 -0.530901313 -0.463011384
vn 0.225768328 -0.807990849 -0.229204953
vn 0.40195775 -0.535852075 -0.405861109
vn 0.506772459 0.663582921 0.0858394727
vn 0.344522595 0.750978172 0.347431779
vn 0.384693384 -0.525117099 0.434057146
vn -0.223334432 0.940695882 0.0323250666
vn -0.108203642 0.910269439 -0.0953227133
vn -0.120087333 0.713655949 -0.506112576
vn 0.094402045 -0.183786541 0.496668786
vn 0.0343916267 -0.316592842 0.128199488
vn -0.0268472563 0.905247986 0.402800113
vn -0.216712758 0.519835293 0.677561104
vn -0.544528186 0.48560077 0.476075977
vn -0.560450137 0.308213085 0.560060203
vn -0.604734004 0.293577522 0.395127058
vn -0.138327241 -0.528980553 0.342668772
vn -0.950251997 0.372039229 0.451458335
vn -0.0714598075 -0.530901313 -0.463011384
vn 0.39293462 0.621164918 -0.377560765
vn -0.0431349985 0.879607499 -0.196593553
vn 0.520861983 -0.533856392 -0.237666458
vn 0.384693384 -0.525117099 0.434057146
vn 0.484408647 0.581655324 0.330425501
vn 0.461959153 0.693747699 -0.132746503
vn 0.556963265 0.761424541 0.0418729745
vn 0.914311111 0.400473714 -0.0343131498
vn 0.311916679 -0.193383202 0.935049891
vn 0.690613329 0.363682628 0.622676969
vn 0.117959239 0.844152629 0.327856749
vn -0.496641189 -0.232746929 0.105602056
vn -0.63618505 0.402524143 -0.0242840219
vn -0.855952024 0.116463386 0.33603406
vn -0.307156622 0.645329297 -0.51480478
vn -0.0492909886 0.922544241 -0.181880489
vn -0.0187438484 0.787701309 -0.412780732
vn 0.332502723 -0.835915864 -0.018103322
vn 0.230574131 0.839621603 -0.201938197
vn 0.377570122 0.613832355 -0.51268667
vn 0.0996967033 0.989448249 -0.122922428
vn 0.13009128 0.926841497 0.0344424136
vn 0.403668463 0.766945779 -0.207478791
vn -0.180626765 0.335840613 0.323513716
vn -0.16090247 0.835566759 0.36514011
vn 0.158682644 0.818779707 0.293807209
vn 0.303040981 -0.712650478 -0.63016063
vn 0.646870255 -0.436035037 -0.557816446
vn 0.553542435 -0.329187989 -0.341209859
vn -0.231048629 -0.914864421 -0.0498277172
vn -0.368735611 -0.714183271 -0.460549891
vn -0.112266891 -0.85169065 -0.279862285
vn -0.0317009501 0.454104602 0.731222868
vn -0.153095588 0.291444093 0.824722826
vn 0.0214944128 0.364634037 0.855850279
vn 0.817130804 0.361012667 0.330117792
vn 0.403668463 0.766945779 -0.207478791
vn 0.209506452 0.919326007 0.178748831
vn -0.17302914 -0.512732446 0.713897288
vn 0.0644525439 0.663328707 0.578394592
vn -0.138327241 -0.528980553 0.342668772
vn -0.112266891 -0.85169065 -0.279862285
vn -0.368735611 -0.714183271 -0.460549891
vn -0.112579778 0.813529968 -0.299700081
vn 0.817130804 0.361012667 0.330117792
vn 0.69867748 0.508981466 0.0144415954
vn 0.832249045 0.284034133 -0.229189873
vn 0.094402045 -0.183786541 0.496668786
vn 0.0644525439 0.663328707 0.578394592
vn -0.17302914 -0.512732446 0.713897288
vn 0.0662767217 0.422712475 0.625903249
vn -0.180626765 0.335840613 0.323513716
vn 0.158682644 0.818779707 0.293807209
vn -0.192693695 0.756147563 -0.319873601
vn -0.0431349985 0.879607499 -0.196593553
vn -0.154043123 0.824431956 -0.333844692
vn -0.125821397 0.820874929 0.396591425
vn -0.180626765 0.335840613 0.323513716
vn 0.0662767217 0.422712475 0.625903249
vn -0.0921589956 0.770419896 0.495914131
vn -0.125821397 0.820874929 0.396591425
vn 0.0662767217 0.422712475 0.625903249
vn -0.125821397 0.820874929 0.396591425
vn 0.123645402 0.933077455 0.0740709305
vn -0.108203642 0.910269439 -0.0953227133
vn 0.0287194494 1.00973105 -0.101354055
vn -0.108203642 0.910269439 -0.0953227133
vn 0.123645402 0.933077455 0.0740709305
vn 0.354979306 0.385294586 0.83893764
vn 0.209506452 0.919326007 0.178748831
vn -0.0268472563 0.905247986 0.402800113
vn 0.303040981 -0.712650478 -0.63016063
vn 0.28629601 0.71321547 -0.61932081
vn 0.355095506 0.682059944 -0.409405708
vn 0.690613329 0.363682628 0.622676969
vn 1.02686417 -0.259564787 0.110579088
vn 0.69867748 0.508981466 0.0144415954
vn -0.63618505 0.402524143 -0.0242840219
vn -0.580094039 0.591903269 -0.155805215
vn -0.357175618 0.366708636 -0.647208691
vn 0.553542435 -0.329187989 -0.341209859
vn 0.822606802 -0.362478286 -0.281041116
vn 0.0368698351 -1.00005913 -0.0709785372
vn -0.266714185 -0.780805051 0.229537815
vn -0.441338271 0.665464461 0.455918908
vn -1.03812587 -0.0391655192 0.0990420505
vn 0.354979306 0.385294586 0.83893764
vn -0.0317009501 0.454104602 0.731222868
vn 0.0214944128 0.364634037 0.855850279
vn -0.17302914 -0.512732446 0.713897288
vn -0.138327241 -0.528980553 0.342668772
vn -0.266714185 -0.780805051 0.229537815
vn 0.403668463 0.766945779 -0.207478791
vn 0.817130804 0.361012667 0.330117792
vn 0.832249045 0.284034133 -0.229189873
vn -0.604734004 0.293577522 0.395127058
vn -0.266714185 -0.780805051 0.229537815
vn -0.138327241 -0.528980553 0.342668772
vn -0.112579778 0.813529968 -0.299700081
vn -0.63618505 0.402524143 -0.0242840219
vn -0.357175618 0.366708636 -0.647208691
vn -0.653833389 0.266552866 0.707102239
vn -0.128096536 0.866333365 0.233816311
vn -0.382816643 0.518658876 0.0446346328
vn 0.461959153 0.693747699 -0.132746503
vn 0.914311111 0.400473714 -0.0343131498
vn 0.13009128 0.926841497 0.0344424136
vn 0.275027186 -0.715826035 -0.763244271
vn 0.303040981 -0.712650478 -0.63016063
vn -0.0228192788 -1.00242412 -0.0104397377
vn 0.80566293 0.293111295 -0.429697692
vn 0.439290315 0.501575947 -0.38372767
vn 0.832249045 0.284034133 -0.229189873
vn -0.288114429 0.184008762 -0.934889257
vn -0.154043123 0.824431956 -0.333844692
vn 0.0609788224 0.968739033 -0.158094123
vn 0.354979306 0.385294586 0.83893764
vn 0.626938164 0.0790827423 0.680549741
vn 0.209506452 0.919326007 0.178748831
vn -0.107196212 -0.977800727 0.0706048831
vn -0.382816643 0.518658876 0.0446346328
vn -0.699219882 -0.736845672 -0.051250197
vn 0.0644525439 0.663328707 0.578394592
vn 0.0317648239 -0.73316741 0.431670159
vn -0.138327241 -0.528980553 0.342668772
vn 0.626938164 0.0790827423 0.680549741
vn 0.0214944128 0.364634037 0.855850279
vn 0.117959239 0.844152629 0.327856749
vn 0.0609788224 0.968739033 -0.158094123
vn -0.154043123 0.824431956 -0.333844692
vn -0.0431349985 0.879607499 -0.196593553
vn -0.175428957 0.459357023 0.792112887
vn -0.0225852169 -0.955990374 0.0706567317
vn 0.0018973957 0.344735473 0.860261023
vn 0.39293462 0.621164918 -0.377560765
vn 0.40195775 -0.535852075 -0.405861109
vn 0.520861983 -0.533856392 -0.237666458
vn 0.0125117935 -0.612758815 0.575192988
vn 0.0018973957 0.344735473 0.860261023
vn -0.0225852169 -0.955990374 0.0706567317
vn 0.556963265 0.761424541 0.0418729745
vn 0.461959153 0.693747699 -0.132746503
vn 0.257862806 0.922059178 0.0228075627
vn 0.914311111 0.400473714 -0.0343131498
vn 0.556963265 0.761424541 0.0418729745
vn 0.13009128 0.926841497 0.0344424136
vn 0.112267613 0.461057216 -0.749835491
vn 0.28629601 0.71321547 -0.61932081
vn 0.303040981 -0.712650478 -0.63016063
vn -0.128096536 0.866333365 0.233816311
vn -0.175428957 0.459357023 0.792112887
vn -0.560450137 0.308213085 0.560060203
vn 0.311916679 -0.193383202 0.935049891
vn 0.0125117935 -0.612758815 0.575192988
vn 0.113019012 -0.959946692 0.0698271617
vn 0.0996967033 0.989448249 -0.122922428
vn 0.461959153 0.693747699 -0.132746503
vn 0.13009128 0.926841497 0.0344424136
vn 0.195628017 0.876238465 -0.147105888
vn 0.151555493 0.95164299 -0.0488021336
vn 0.461959153 0.693747699 -0.132746503
vn -0.544528186 0.48560077 0.476075977
vn -0.496641189 -0.232746929 0.105602056
vn -0.855952024 0.116463386 0.33603406
vn 0.0214944128 0.364634037 0.855850279
vn -0.153095588 0.291444093 0.824722826
vn 0.0018973957 0.344735473 0.860261023
vn 0.181313664 -0.295509249 -0.630377233
vn 0.275027186 -0.715826035 -0.763244271
vn -0.0228192788 -1.00242412 -0.0104397377
vn -0.0436965749 0.735598385 -0.433156371
vn 0.215761542 0.580236197 -0.624653935
vn -0.357175618 0.366708636 -0.647208691
vn 0.553542435 -0.329187989 -0.341209859
vn 0.80566293 0.293111295 -0.429697692
vn 0.832249045 0.284034133 -0.229189873
vn -0.357175618 0.366708636 -0.647208691
vn 0.112267613 0.461057216 -0.749835491
vn -0.112579778 0.813529968 -0.299700081
vn -0.108203642 0.910269439 -0.0953227133
vn -0.0492909886 0.922544241 -0.181880489
vn -0.120087333 0.713655949 -0.506112576
vn 0.520861983 -0.533856392 -0.237666458
vn 0.484408647 0.581655324 0.330425501
vn 0.271014214 0.82054925 -0.0970404893
vn 0.123645402 0.933077455 0.0740709305
vn -0.125821397 0.820874929 0.396591425
vn -0.0508602746 0.91526252 0.262359023
vn -0.368780971 0.817327738 -0.268649906
vn -0.319154114 -0.829278469 -0.320257008
vn -0.700344682 -0.483388007 0.449242115
vn -0.319154114 -0.829278469 -0.320257008
vn -0.307156622 0.645329297 -0.51480478
vn -0.322543681 -0.689242303 -0.506851971
vn 0.094402045 -0.183786541 0.496668786
vn -0.17302914 -0.512732446 0.713897288
vn 0.0343916267 -0.316592842 0.128199488
vn -0.112266891 -0.85169065 -0.279862285
vn -0.112579778 0.813529968 -0.299700081
vn 0.181313664 -0.295509249 -0.630377233
vn 0.151555493 0.95164299 -0.0488021336
vn 0.257862806 0.922059178 0.0228075627
vn 0.461959153 0.693747699 -0.132746503
vn 0.230574131 0.839621603 -0.201938197
vn -0.0492909886 0.922544241 -0.181880489
vn 0.377570122 0.613832355 -0.51268667
vn 0.61821723 0.484963924 -0.566439807
vn 0.272814125 0.689866185 -0.389575154
vn 0.0996967033 0.989448249 -0.122922428
vn 0.0137965819 -0.647654295 0.631158173
vn 0.384693384 -0.525117099 0.434057146
vn 0.344522595 0.750978172 0.347431779
vn -0.0225852169 -0.955990374 0.0706567317
vn -0.175428957 0.459357023 0.792112887
vn -0.158366784 -0.695328832 0.415380865
vn 0.690613329 0.363682628 0.622676969
vn 0.311916679 -0.193383202 0.935049891
vn 0.113019012 -0.959946692 0.0698271617
vn 0.209506452 0.919326007 0.178748831
vn 0.626938164 0.0790827423 0.680549741
vn 0.817130804 0.361012667 0.330117792
g Group39414
f 1/1/1 3/2/2 4/3/3
f 1/4/4 6/5/5 2/6/6
f 3/7/7 2/8/8 5/9/9
f 2/10/10 6/11/11 5/12/12
f 3/13/13 5/14/14 4/15/15
f 4/16/16 6/17/17 8/18/18
f 8/19/19 6/20/20 7/21/21
f 9/22/22 11/23/23 7/24/24
f 9/25/25 7/26/26 10/27/27
f 10/28/28 7/29/29 11/30/30
f 9/31/31 12/32/32 11/33/33
f 8/34/34 10/35/35 12/36/36
f 9/37/37 14/38/38 12/39/39
f 8/40/40 12/41/41 13/42/42
f 13/43/43 12/44/44 14/45/45
f 8/46/46 13/47/47 15/48/48
f 8/49/49 15/50/50 4/51/51
f 14/52/52 9/53/53 15/54/54
f 36/55/55 76/56/56 17/57/57
f 81/58/58 73/59/59 113/60/60
f 25/61/61 46/62/62 120/63/63
f 88/64/64 105/65/65 37/66/66
f 4/67/67 16/68/68 98/69/69
f 4/70/70 80/71/71 37/72/72
f 4/73/73 98/74/74 80/75/75
f 57/76/76 28/77/77 126/78/78
f 131/79/79 111/80/80 121/81/81
f 35/82/82 128/83/83 20/84/84
f 111/85/85 131/86/86 104/87/87
f 59/88/88 64/89/89 54/90/90
f 53/91/91 65/92/92 130/93/93
f 41/94/94 114/95/95 48/96/96
f 83/97/97 101/98/98 22/99/99
f 53/100/100 45/101/101 124/102/102
f 43/103/103 61/104/104 47/105/105
f 47/106/106 18/107/107 114/108/108
f 20/109/109 104/110/110 139/111/111
f 48/112/112 72/113/113 44/114/114
f 51/115/115 95/116/116 30/117/117
f 51/118/118 53/119/119 124/120/120
f 101/121/121 66/122/122 22/123/123
f 53/124/124 51/125/125 75/126/126
f 55/127/127 88/128/128 37/129/129
f 132/130/130 122/131/131 33/132/132
f 27/133/133 78/134/134 93/135/135
f 86/136/136 112/137/137 24/138/138
f 32/139/139 102/140/140 100/141/141
f 20/142/142 129/143/143 104/144/144
f 91/145/145 127/146/146 9/147/147
f 60/148/148 80/149/149 135/150/150
f 53/151/151 116/152/152 65/153/153
f 57/154/154 126/155/155 69/156/156
f 97/157/157 136/158/158 115/159/159
f 52/160/160 22/161/161 66/162/162
f 74/163/163 22/164/164 52/165/165
f 4/166/166 68/167/167 16/168/168
f 15/169/169 127/170/170 68/171/171
f 6/172/172 55/173/173 110/174/174
f 40/175/175 53/176/176 75/177/177
f 29/178/178 30/179/179 98/180/180
f 81/181/181 119/182/182 73/183/183
f 81/184/184 109/185/185 119/186/186
f 131/187/187 56/188/188 20/189/189
f 17/190/190 82/191/191 102/192/192
f 1/193/193 55/194/194 6/195/195
f 121/196/196 33/197/197 131/198/198
f 49/199/199 125/200/200 89/201/201
f 91/202/202 74/203/203 16/204/204
f 87/205/205 120/206/206 92/207/207
f 92/208/208 120/209/209 113/210/210
f 86/211/211 18/212/212 112/213/213
f 133/214/214 67/215/215 79/216/216
f 31/217/217 73/218/218 93/219/219
f 94/220/220 111/221/221 104/222/222
f 54/223/223 100/224/224 59/225/225
f 124/226/226 45/227/227 49/228/228
f 107/229/229 76/230/230 36/231/231
f 116/232/232 108/233/233 61/234/234
f 18/235/235 108/236/236 40/237/237
f 74/238/238 52/239/239 34/240/240
f 44/241/241 72/242/242 76/243/243
f 66/244/244 113/245/245 73/246/246
f 113/247/247 66/248/248 92/249/249
f 53/250/250 130/251/251 45/252/252
f 114/253/253 18/254/254 48/255/255
f 97/256/256 71/257/257 85/258/258
f 108/259/259 53/260/260 40/261/261
f 117/262/262 20/263/263 122/264/264
f 118/265/265 62/266/266 64/267/267
f 128/268/268 104/269/269 129/270/270
f 123/271/271 136/272/272 97/273/273
f 32/274/274 100/275/275 121/276/276
f 61/277/277 65/278/278 116/279/279
f 95/280/280 51/281/281 124/282/282
f 49/283/283 45/284/284 125/285/285
f 111/286/286 107/287/287 32/288/288
f 48/289/289 138/290/290 72/291/291
f 117/292/292 35/293/293 20/294/294
f 88/295/295 1/296/296 105/297/297
f 125/298/298 71/299/299 115/300/300
f 125/301/301 115/302/302 89/303/303
f 109/304/304 37/305/305 60/306/306
f 46/307/307 55/308/308 96/309/309
f 63/310/310 119/311/311 60/312/312
f 99/313/313 79/314/314 48/315/315
f 50/316/316 41/317/317 67/318/318
f 72/319/319 78/320/320 27/321/321
f 41/322/322 70/323/323 114/324/324
f 16/325/325 74/326/326 98/327/327
f 43/328/328 19/329/329 61/330/330
f 113/331/331 120/332/332 96/333/333
f 101/334/334 25/335/335 87/336/336
f 27/337/337 93/338/338 136/339/339
f 21/340/340 19/341/341 38/342/342
f 37/343/343 80/344/344 60/345/345
f 102/346/346 36/347/347 17/348/348
f 94/349/349 38/350/350 111/351/351
f 123/352/352 106/353/353 62/354/354
f 26/355/355 117/356/356 77/357/357
f 77/358/358 117/359/359 122/360/360
f 41/361/361 48/362/362 79/363/363
f 84/364/364 30/365/365 95/366/366
f 103/367/367 84/368/368 95/369/369
f 57/370/370 69/371/371 31/372/372
f 121/373/373 111/374/374 32/375/375
f 49/376/376 135/377/377 84/378/378
f 68/379/379 127/380/380 16/381/381
f 28/382/382 90/383/383 126/384/384
f 107/385/385 133/386/386 99/387/387
f 90/388/388 52/389/389 126/390/390
f 31/391/391 69/392/392 73/393/393
f 66/394/394 73/395/395 69/396/396
f 101/397/397 83/398/398 25/399/399
f 28/400/400 112/401/401 23/402/402
f 115/403/403 71/404/404 97/405/405
f 38/406/406 19/407/407 134/408/408
f 67/409/409 41/410/410 79/411/411
f 47/412/412 108/413/413 18/414/414
f 77/415/415 85/416/416 71/417/417
f 85/418/418 77/419/419 132/420/420
f 85/421/421 132/422/422 54/423/423
f 45/424/424 26/425/425 125/426/426
f 75/427/427 23/428/428 40/429/429
f 90/430/430 23/431/431 29/432/432
f 39/433/433 62/434/434 118/435/435
f 46/436/436 96/437/437 120/438/438
f 112/439/439 18/440/440 40/441/441
f 103/442/442 124/443/443 49/444/444
f 127/445/445 91/446/446 16/447/447
f 42/448/448 25/449/449 83/450/450
f 67/451/451 133/452/452 107/453/453
f 45/454/454 130/455/455 35/456/456
f 50/457/457 107/458/458 111/459/459
f 23/460/460 112/461/461 40/462/462
f 9/463/463 42/464/464 83/465/465
f 26/466/466 71/467/467 125/468/468
f 32/469/469 36/470/470 102/471/471
f 74/472/472 91/473/473 22/474/474
f 9/475/475 110/476/476 42/477/477
f 87/478/478 25/479/479 120/480/480
f 30/481/481 84/482/482 135/483/483
f 19/484/484 50/485/485 134/486/486
f 99/487/487 48/488/488 44/489/489
f 23/490/490 90/491/491 28/492/492
f 108/493/493 116/494/494 53/495/495
f 58/496/496 128/497/497 21/498/498
f 139/499/499 104/500/500 131/501/501
f 70/502/502 43/503/503 114/504/504
f 70/505/505 19/506/506 43/507/507
f 43/508/508 47/509/509 114/510/510
f 64/511/511 106/512/512 54/513/513
f 33/514/514 56/515/515 131/516/516
f 33/517/517 122/518/518 56/519/519
f 31/520/520 78/521/521 57/522/522
f 130/523/523 65/524/524 35/525/525
f 133/526/526 79/527/527 99/528/528
f 48/529/529 18/530/530 138/531/531
f 64/532/532 82/533/533 118/534/534
f 21/535/535 128/536/536 35/537/537
f 20/538/538 128/539/539 129/540/540
f 76/541/541 118/542/542 17/543/543
f 72/544/544 138/545/545 86/546/546
f 104/547/547 128/548/548 58/549/549
f 135/550/550 80/551/551 30/552/552
f 1/553/553 88/554/554 55/555/555
f 137/556/556 57/557/557 78/558/558
f 4/559/559 37/560/560 105/561/561
f 103/562/562 95/563/563 124/564/564
f 93/565/565 78/566/566 31/567/567
f 30/568/568 80/569/569 98/570/570
f 34/571/571 90/572/572 98/573/573
f 119/574/574 109/575/575 60/576/576
f 98/577/577 74/578/578 34/579/579
f 101/580/580 87/581/581 66/582/582
f 6/583/583 110/584/584 7/585/585
f 93/586/586 115/587/587 136/588/588
f 71/589/589 26/590/590 77/591/591
f 135/592/592 63/593/593 60/594/594
f 98/595/595 90/596/596 29/597/597
f 52/598/598 66/599/599 69/600/600
f 24/601/601 137/602/602 140/603/603
f 59/604/604 82/605/605 64/606/606
f 45/607/607 35/608/608 117/609/609
f 15/610/610 9/611/611 127/612/612
f 22/613/613 91/614/614 83/615/615
f 86/616/616 78/617/617 72/618/618
f 37/619/619 109/620/620 81/621/621
f 50/622/622 67/623/623 107/624/624
f 104/625/625 58/626/626 94/627/627
f 97/628/628 85/629/629 106/630/630
f 39/631/631 72/632/632 27/633/633
f 89/634/634 73/635/635 63/636/636
f 94/637/637 58/638/638 21/639/639
f 39/640/640 118/641/641 76/642/642
f 93/643/643 73/644/644 89/645/645
f 113/646/646 37/647/647 81/648/648
f 30/649/649 29/650/650 51/651/651
f 55/652/652 37/653/653 113/654/654
f 96/655/655 55/656/656 113/657/657
f 55/658/658 25/659/659 110/660/660
f 42/661/661 110/662/662 25/663/663
f 123/664/664 27/665/665 136/666/666
f 50/667/667 70/668/668 41/669/669
f 82/670/670 17/671/671 118/672/672
f 35/673/673 65/674/674 61/675/675
f 107/676/676 36/677/677 32/678/678
f 49/679/679 84/680/680 103/681/681
f 123/682/682 97/683/683 106/684/684
f 89/685/685 63/686/686 49/687/687
f 72/688/688 39/689/689 76/690/690
f 135/691/691 49/692/692 63/693/693
f 21/694/694 35/695/695 61/696/696
f 56/697/697 122/698/698 20/699/699
f 24/700/700 140/701/701 78/702/702
f 134/703/703 50/704/704 111/705/705
f 99/706/706 44/707/707 76/708/708
f 75/709/709 51/710/710 23/711/711
f 123/712/712 62/713/713 27/714/714
f 131/715/715 20/716/716 139/717/717
f 73/718/718 119/719/719 63/720/720
f 62/721/721 106/722/722 64/723/723
f 23/724/724 51/725/725 29/726/726
f 132/727/727 121/728/728 54/729/729
f 90/730/730 34/731/731 52/732/732
f 100/733/733 54/734/734 121/735/735
f 137/736/736 24/737/737 57/738/738
f 140/739/739 137/740/740 78/741/741
f 19/742/742 70/743/743 50/744/744
f 122/745/745 132/746/746 77/747/747
f 59/748/748 100/749/749 102/750/750
f 86/751/751 24/752/752 78/753/753
f 112/754/754 28/755/755 24/756/756
f 26/757/757 45/758/758 117/759/759
f 106/760/760 85/761/761 54/762/762
f 38/763/763 134/764/764 111/765/765
f 108/766/766 47/767/767 61/768/768
f 107/769/769 99/770/770 76/771/771
f 61/772/772 19/773/773 21/774/774
f 110/775/775 9/776/776 7/777/777
f 52/778/778 69/779/779 126/780/780
f 25/781/781 55/782/782 46/783/783
f 1/784/784 4/785/785 105/786/786
f 4/787/787 15/788/788 68/789/789
f 93/790/790 89/791/791 115/792/792
f 94/793/793 21/794/794 38/795/795
f 28/796/796 57/797/797 24/798/798
f 91/799/799 9/800/800 83/801/801
f 138/802/802 18/803/803 86/804/804
f 92/805/805 66/806/806 87/807/807
f 121/808/808 132/809/809 33/810/810
f 82/811/811 59/812/812 102/813/813
f 27/814/814 62/815/815 39/816/816
