# File exported by Houdini 16.5.405 (www.sidefx.com)
# 9 points
# 42 vertices
# 14 primitives
# Bounds: [-12.3388977, 0.483372867, -8.80424595] to [11.3996468, 10.1891451, 8.45397186]
g 
v 11.3996468 10.1891451 3.11289644
v -7.64479113 8.06684208 3.7565949
v 0.296364099 5.33956814 -8.80424595
v 11.0504532 3.61684895 -2.77582097
v -12.3388977 4.79185486 2.36811399
v -5.08315659 4.68221951 8.45397186
v 2.24441195 9.57207012 -5.14622402
v -1.85512316 0.483372867 -5.01195097
v 5.61485767 3.09799242 6.21258593
vt 0.705554307 0.814222038 0
vt 0.744574726 0.894630432 0
vt 0.526506364 0.901091874 0
vt 0.276118457 0.819481194 0
vt 0.394979149 0.776328146 0
vt 0.357877761 0.853473961 0
vt 0.0544934534 0.598662198 0
vt 0.00813637301 0.47929731 0
vt 0.160647273 0.382158786 0
vt 0.526506364 0.901091874 0
vt 0.744574726 0.894630432 0
vt 0.535927653 0.987640023 0
vt 0.166728675 0.470827967 0
vt 0.325065315 0.577621222 0
vt 0.0544934534 0.598662198 0
vt 0.198053569 0.186937764 0
vt 0.152654737 0.270600438 0
vt 0.0216014273 0.125030011 0
vt 0.0544934534 0.598662198 0
vt 0.160647273 0.382158786 0
vt 0.166728675 0.470827967 0
vt 0.649262965 0.842490733 0
vt 0.357877761 0.853473961 0
vt 0.394979149 0.776328146 0
vt 0.72562933 0.992338836 0
vt 0.535927653 0.987640023 0
vt 0.744574726 0.894630432 0
vt -0.0114035513 -0.0176089108 0
vt 0.124753244 0.0159117188 0
vt 0.0216014273 0.125030011 0
vt 0.124753244 0.0159117188 0
vt 0.292018324 0.00482188165 0
vt 0.198053569 0.186937764 0
vt 0.292018324 0.00482188165 0
vt 0.375881314 0.122847654 0
vt 0.198053569 0.186937764 0
vt 0.198053569 0.186937764 0
vt 0.0216014273 0.125030011 0
vt 0.124753244 0.0159117188 0
vt 0.649262965 0.842490733 0
vt 0.394979149 0.776328146 0
vt 0.547479808 0.740603447 0
vn -0.0106409751 0.955000579 -0.367623657
vn -0.147067562 0.0757306367 -0.970524073
vn -0.388956696 1.00630367 -0.0178360939
vn -0.775506914 -0.330251843 -0.0891324803
vn -0.156866938 -0.354171097 0.843381822
vn -0.388956696 1.00630367 -0.0178360939
vn 0.477043867 0.770562232 0.362275004
vn 0.883976102 -0.494726926 -0.433614403
vn -0.147067562 0.0757306367 -0.970524073
vn -0.388956696 1.00630367 -0.0178360939
vn -0.147067562 0.0757306367 -0.970524073
vn -0.775506914 -0.330251843 -0.0891324803
vn -0.0106409751 0.955000579 -0.367623657
vn -0.388956696 1.00630367 -0.0178360939
vn 0.477043867 0.770562232 0.362275004
vn -0.361937165 -0.953863561 -0.338255614
vn -0.147067562 0.0757306367 -0.970524073
vn 0.883976102 -0.494726926 -0.433614403
vn 0.477043867 0.770562232 0.362275004
vn -0.147067562 0.0757306367 -0.970524073
vn -0.0106409751 0.955000579 -0.367623657
vn 0.477043867 0.770562232 0.362275004
vn -0.388956696 1.00630367 -0.0178360939
vn -0.156866938 -0.354171097 0.843381822
vn -0.361937165 -0.953863561 -0.338255614
vn -0.775506914 -0.330251843 -0.0891324803
vn -0.147067562 0.0757306367 -0.970524073
vn 0.477043867 0.770562232 0.362275004
vn 0.218280047 -0.767610908 0.765605867
vn 0.883976102 -0.494726926 -0.433614403
vn 0.218280047 -0.767610908 0.765605867
vn -0.156866938 -0.354171097 0.843381822
vn -0.361937165 -0.953863561 -0.338255614
vn -0.156866938 -0.354171097 0.843381822
vn -0.775506914 -0.330251843 -0.0891324803
vn -0.361937165 -0.953863561 -0.338255614
vn -0.361937165 -0.953863561 -0.338255614
vn 0.883976102 -0.494726926 -0.433614403
vn 0.218280047 -0.767610908 0.765605867
vn 0.477043867 0.770562232 0.362275004
vn -0.156866938 -0.354171097 0.843381822
vn 0.218280047 -0.767610908 0.765605867
g ScatterSharp_03_LOD0
f 7/1/1 3/2/2 2/3/3
f 5/4/4 6/5/5 2/6/6
f 1/7/7 4/8/8 3/9/9
f 2/10/10 3/11/11 5/12/12
f 7/13/13 2/14/14 1/15/15
f 8/16/16 3/17/17 4/18/18
f 1/19/19 3/20/20 7/21/21
f 1/22/22 2/23/23 6/24/24
f 8/25/25 5/26/26 3/27/27
f 1/28/28 9/29/29 4/30/30
f 9/31/31 6/32/32 8/33/33
f 6/34/34 5/35/35 8/36/36
f 8/37/37 4/38/38 9/39/39
f 1/40/40 6/41/41 9/42/42
