# File exported by Houdini 16.5.405 (www.sidefx.com)
# 59 points
# 342 vertices
# 114 primitives
# Bounds: [-11.5214539, 0.0840896964, -7.85367775] to [11.9829702, 10.8634462, 8.63008213]
g 
v 9.93024254 5.16433764 3.49728918
v 10.5841093 3.39060307 0.143162727
v -1.09350002 2.24180007 -7.23290014
v -6.95707226 5.00288773 -7.85367775
v 7.74016619 4.20856142 -7.03510189
v -5.56997108 2.95878959 8.63008213
v 6.00666571 4.62176466 7.40010929
v 8.68018913 7.08784533 5.62273788
v -1.45490396 7.05883932 -7.73625946
v -2.57669997 7.96350002 -0.525399983
v 10.0004282 6.88301802 -5.0887537
v 11.8370209 5.9948554 -2.78257012
v 4.30179977 10.2997999 -1.70179999
v -11.0850306 1.78240454 0.252076298
v -11.0773153 3.05700684 1.42827582
v -9.74782753 4.32378244 3.65620089
v -10.0500536 1.7328521 2.24176288
v -2.29485059 7.29539728 2.57786226
v 3.88723016 10.5158501 0.0797213018
v 8.28784466 3.52256298 -6.92914867
v 9.63801765 3.99540448 -5.52954674
v 6.4435215 10.8634462 -1.67283273
v 7.08519983 6.30109978 -7.24529982
v 6.69967175 9.59992599 -4.82460213
v 5.73003912 7.52845621 -7.2678833
v -11.5214539 4.09700727 -3.294415
v 11.0816002 6.78490019 2.47819996
v 11.9829702 6.16779757 -0.366076142
v 11.0257864 9.76698208 1.54650903
v 9.85872173 9.32800674 3.49551582
v 10.218791 9.99713135 1.88662946
v 10.5476551 3.06487441 -3.1981914
v -6.74515533 6.71289253 1.23466873
v -10.1591892 5.15407228 1.77540028
v -8.23919296 5.14180708 4.78580141
v -10.7355156 3.01749253 -4.52923727
v 10.3022413 9.66747856 -1.8869313
v 3.28520131 2.40835214 7.10277319
v -6.60489988 6.77939987 1.92760003
v -1.07879996 8.5571003 0.267500013
v 6.63693523 4.06195784 6.71073151
v -2.22463417 1.67868602 8.17019463
v 10.3256998 7.96780014 3.65630007
v 0.239099994 6.59740019 -7.63700008
v -6.18153667 2.28335929 -7.24808979
v 7.28338861 2.1560688 -6.69070721
v -0.517175257 1.47483063 7.48279238
v -7.18894386 0.358570397 3.35631323
v 8.82233047 1.64381278 -2.22579598
v -4.9453001 1.67859995 7.47119999
v -4.72594023 0.525713265 5.45969725
v -2.67832327 0.689257145 -6.52073574
v 5.43754864 0.853073716 -5.94467497
v -8.17449474 0.0840896964 0.614476919
v -10.1494217 1.50600684 -3.12013173
v -8.78435898 1.22318041 -4.75846481
v -7.38015461 1.51335776 5.51384592
v -10.0833035 1.03950834 -1.15630805
v -8.81608677 1.05521011 3.08281422
vt 0.504100025 0.526899993 0
vt 0.420610845 0.48729369 0
vt 0.636753142 0.483705252 0
vt 0.876904309 0.582247794 0
vt 0.723403573 0.583135247 0
vt 0.67913115 0.545597613 0
vt 0.493032247 0.453209966 0
vt 0.420610845 0.48729369 0
vt 0.408800006 0.368200004 0
vt 0.513000011 0.308999985 0
vt 0.493032247 0.453209966 0
vt 0.408800006 0.368200004 0
vt 0.876904309 0.582247794 0
vt 0.942350566 0.530692518 0
vt 0.977190614 0.559817493 0
vt 0.829322457 0.485543162 0
vt 0.876904309 0.582247794 0
vt 0.734875321 0.440103114 0
vt 0.636753142 0.483705252 0
vt 0.420610845 0.48729369 0
vt 0.62470001 0.452600002 0
vt 0.146248788 0.822796226 0
vt 0.0956003815 0.793502867 0
vt 0.163199574 0.780852199 0
vt 0.408800006 0.368200004 0
vt 0.420610845 0.48729369 0
vt 0.349776357 0.485145658 0
vt 0.725600004 0.00100000005 0
vt 0.730163455 0.0616119578 0
vt 0.693128645 0.0351711251 0
vt 0.734875321 0.440103114 0
vt 0.65308404 0.504300058 0
vt 0.640754879 0.479727507 0
vt 0.142689198 0.868531883 0
vt 0.264040232 0.781793416 0
vt 0.173500001 0.871999979 0
vt 0.730163455 0.0616119578 0
vt 0.704294205 0.100037195 0
vt 0.693128645 0.0351711251 0
vt 0.346475035 0.395992041 0
vt 0.349776357 0.485145658 0
vt 0.308635622 0.433033019 0
vt 0.829322457 0.485543162 0
vt 0.913919032 0.532525539 0
vt 0.876904309 0.582247794 0
vt 0.723403573 0.583135247 0
vt 0.637163281 0.572173238 0
vt 0.67913115 0.545597613 0
vt 0.977190614 0.559817493 0
vt 0.942350566 0.530692518 0
vt 0.987123907 0.531808615 0
vt 0.360917091 0.500512838 0
vt 0.349776357 0.485145658 0
vt 0.420610845 0.48729369 0
vt 0.876904309 0.582247794 0
vt 0.913919032 0.532525539 0
vt 0.942350566 0.530692518 0
vt 0.895900011 0.481999993 0
vt 0.955909967 0.499914646 0
vt 0.913919032 0.532525539 0
vt 0.955909967 0.499914646 0
vt 0.942350566 0.530692518 0
vt 0.913919032 0.532525539 0
vt 0.142689198 0.868531883 0
vt 0.173396528 0.900092602 0
vt 0.0779124424 0.901286185 0
vt 0.173500001 0.871999979 0
vt 0.253399998 0.918500006 0
vt 0.173396528 0.900092602 0
vt 0.723403573 0.583135247 0
vt 0.764377713 0.611447334 0
vt 0.71130389 0.592300951 0
vt 0.913919032 0.532525539 0
vt 0.829322457 0.485543162 0
vt 0.895900011 0.481999993 0
vt 0.734875321 0.440103114 0
vt 0.81099999 0.448199987 0
vt 0.829322457 0.485543162 0
vt 0.876904309 0.582247794 0
vt 0.841627002 0.603398979 0
vt 0.723403573 0.583135247 0
vt 0.163199574 0.780852199 0
vt 0.264040232 0.781793416 0
vt 0.146248788 0.822796226 0
vt 0.895900011 0.481999993 0
vt 0.829322457 0.485543162 0
vt 0.898389041 0.47161445 0
vt 0.408800006 0.368200004 0
vt 0.349776357 0.485145658 0
vt 0.346475035 0.395992041 0
vt 0.67913115 0.545597613 0
vt 0.615999997 0.540000021 0
vt 0.64230001 0.523999989 0
vt 0.725600004 0.00100000005 0
vt 0.75828433 0.0138772316 0
vt 0.730163455 0.0616119578 0
vt 0.0813496709 0.750429213 0
vt 0.0956003815 0.793502867 0
vt 0.0527863987 0.810848713 0
vt 0.876904309 0.582247794 0
vt 0.67913115 0.545597613 0
vt 0.65308404 0.504300058 0
vt 0.142399997 0.763899982 0
vt 0.163199574 0.780852199 0
vt 0.0956003815 0.793502867 0
vt 0.240600005 0.772499979 0
vt 0.163199574 0.780852199 0
vt 0.142399997 0.763899982 0
vt 0.65308404 0.504300058 0
vt 0.67913115 0.545597613 0
vt 0.64230001 0.523999989 0
vt 0.10680484 0.73075968 0
vt 0.0956003815 0.793502867 0
vt 0.0813496709 0.750429213 0
vt 0.0706680566 0.890885055 0
vt 0.0927512348 0.850765347 0
vt 0.142689198 0.868531883 0
vt 0.71130389 0.592300951 0
vt 0.637163281 0.572173238 0
vt 0.723403573 0.583135247 0
vt 0.360917091 0.500512838 0
vt 0.420610845 0.48729369 0
vt 0.427444816 0.523945749 0
vt 0.294167459 0.464097559 0
vt 0.276647568 0.423859358 0
vt 0.308635622 0.433033019 0
vt 0.0706680566 0.890885055 0
vt 0.142689198 0.868531883 0
vt 0.0779124424 0.901286185 0
vt 0.693128645 0.0351711251 0
vt 0.704294205 0.100037195 0
vt 0.668330073 0.0659399852 0
vt 0.142689198 0.868531883 0
vt 0.173500001 0.871999979 0
vt 0.173396528 0.900092602 0
vt 0.0527863987 0.810848713 0
vt 0.0956003815 0.793502867 0
vt 0.0927512348 0.850765347 0
vt 0.0706680566 0.890885055 0
vt 0.0233999994 0.889900029 0
vt 0.0331110731 0.843392491 0
vt 0.680361688 0.133653075 0
vt 0.668330073 0.0659399852 0
vt 0.704294205 0.100037195 0
vt 0.67913115 0.545597613 0
vt 0.637163281 0.572173238 0
vt 0.615999997 0.540000021 0
vt 0.513000011 0.308999985 0
vt 0.408800006 0.368200004 0
vt 0.421099991 0.341699988 0
vt 0.829322457 0.485543162 0
vt 0.81099999 0.448199987 0
vt 0.898389041 0.47161445 0
vt 0.0956003815 0.793502867 0
vt 0.146248788 0.822796226 0
vt 0.0927512348 0.850765347 0
vt 0.0706680566 0.890885055 0
vt 0.0364000015 0.918200016 0
vt 0.0233999994 0.889900029 0
vt 0.640754879 0.479727507 0
vt 0.65308404 0.504300058 0
vt 0.64230001 0.523999989 0
vt 0.0927512348 0.850765347 0
vt 0.146248788 0.822796226 0
vt 0.142689198 0.868531883 0
vt 0.349776357 0.485145658 0
vt 0.360917091 0.500512838 0
vt 0.298603863 0.489140242 0
vt 0.0527863987 0.810848713 0
vt 0.0706680566 0.890885055 0
vt 0.0331110731 0.843392491 0
vt 0.264040232 0.781793416 0
vt 0.163199574 0.780852199 0
vt 0.240600005 0.772499979 0
vt 0.0927512348 0.850765347 0
vt 0.0706680566 0.890885055 0
vt 0.0527863987 0.810848713 0
vt 0.349776357 0.485145658 0
vt 0.298603863 0.489140242 0
vt 0.294167459 0.464097559 0
vt 0.836000025 0.438600004 0
vt 0.898389041 0.47161445 0
vt 0.81099999 0.448199987 0
vt 0.793299973 0.246600002 0
vt 0.688409507 0.179496914 0
vt 0.717569828 0.167554349 0
vt 0.0779124424 0.901286185 0
vt 0.0364000015 0.918200016 0
vt 0.0706680566 0.890885055 0
vt 0.142399997 0.763899982 0
vt 0.0956003815 0.793502867 0
vt 0.10680484 0.73075968 0
vt 0.142399997 0.763899982 0
vt 0.10680484 0.73075968 0
vt 0.119554594 0.736531615 0
vt 0.876904309 0.582247794 0
vt 0.65308404 0.504300058 0
vt 0.734875321 0.440103114 0
vt 0.146248788 0.822796226 0
vt 0.264040232 0.781793416 0
vt 0.142689198 0.868531883 0
vt 0.349776357 0.485145658 0
vt 0.294167459 0.464097559 0
vt 0.308635622 0.433033019 0
vt 0.717569828 0.167554349 0
vt 0.688409507 0.179496914 0
vt 0.692524016 0.167266876 0
vt 0.346475035 0.395992041 0
vt 0.308635622 0.433033019 0
vt 0.340299994 0.388399988 0
vt 0.826348662 0.00942615792 0
vt 0.730163455 0.0616119578 0
vt 0.75828433 0.0138772316 0
vt 0.493032247 0.453209966 0
vt 0.51849997 0.457100004 0
vt 0.420610845 0.48729369 0
vt 0.51849997 0.457100004 0
vt 0.62470001 0.452600002 0
vt 0.420610845 0.48729369 0
vt 0.919666171 0.0677450225 0
vt 0.963297904 0.176041037 0
vt 0.73679781 0.106066421 0
vt 0.823578119 0.244203612 0
vt 0.747652352 0.169944346 0
vt 0.948815703 0.217764273 0
vt 0.747652352 0.169944346 0
vt 0.73679781 0.106066421 0
vt 0.963297904 0.176041037 0
vt 0.717569828 0.167554349 0
vt 0.823578119 0.244203612 0
vt 0.793299973 0.246600002 0
vt 0.298603863 0.489140242 0
vt 0.360917091 0.500512838 0
vt 0.340795904 0.52140069 0
vt 0.427444816 0.523945749 0
vt 0.373198599 0.53456378 0
vt 0.360917091 0.500512838 0
vt 0.747652352 0.169944346 0
vt 0.704294205 0.100037195 0
vt 0.73679781 0.106066421 0
vt 0.904840887 0.286976218 0
vt 0.823578119 0.244203612 0
vt 0.948815703 0.217764273 0
vt 0.847034693 0.294371217 0
vt 0.823578119 0.244203612 0
vt 0.904840887 0.286976218 0
vt 0.73679781 0.106066421 0
vt 0.704294205 0.100037195 0
vt 0.730163455 0.0616119578 0
vt 0.73679781 0.106066421 0
vt 0.730163455 0.0616119578 0
vt 0.872522414 0.0381786749 0
vt 0.963297904 0.176041037 0
vt 0.948815703 0.217764273 0
vt 0.747652352 0.169944346 0
vt 0.717569828 0.167554349 0
vt 0.747652352 0.169944346 0
vt 0.823578119 0.244203612 0
vt 0.747652352 0.169944346 0
vt 0.717569828 0.167554349 0
vt 0.704294205 0.100037195 0
vt 0.984123409 0.195766926 0
vt 0.956941426 0.259483099 0
vt 0.948815703 0.217764273 0
vt 0.826348662 0.00942615792 0
vt 0.872522414 0.0381786749 0
vt 0.730163455 0.0616119578 0
vt 0.919666171 0.0677450225 0
vt 0.73679781 0.106066421 0
vt 0.872522414 0.0381786749 0
vt 0.919666171 0.0677450225 0
vt 0.977999985 0.104400001 0
vt 0.954142272 0.129824132 0
vt 0.717569828 0.167554349 0
vt 0.680361688 0.133653075 0
vt 0.704294205 0.100037195 0
vt 0.294167459 0.464097559 0
vt 0.298603863 0.489140242 0
vt 0.267639101 0.475901484 0
vt 0.360917091 0.500512838 0
vt 0.373198599 0.53456378 0
vt 0.340795904 0.52140069 0
vt 0.92227459 0.586229861 0
vt 0.876904309 0.582247794 0
vt 0.977190614 0.559817493 0
vt 0.985872686 0.253781974 0
vt 0.984123409 0.195766926 0
vt 0.994590104 0.219309077 0
vt 0.92227459 0.586229861 0
vt 0.977190614 0.559817493 0
vt 0.962932408 0.579502404 0
vt 0.954142272 0.129824132 0
vt 0.99096334 0.151436687 0
vt 0.963297904 0.176041037 0
vt 0.298603863 0.489140242 0
vt 0.340795904 0.52140069 0
vt 0.307639152 0.515125155 0
vt 0.692524016 0.167266876 0
vt 0.680361688 0.133653075 0
vt 0.717569828 0.167554349 0
vt 0.963297904 0.176041037 0
vt 0.99096334 0.151436687 0
vt 0.984123409 0.195766926 0
vt 0.984123409 0.195766926 0
vt 0.948815703 0.217764273 0
vt 0.963297904 0.176041037 0
vt 0.937294126 0.285310924 0
vt 0.904840887 0.286976218 0
vt 0.956941426 0.259483099 0
vt 0.977999985 0.104400001 0
vt 0.99096334 0.151436687 0
vt 0.954142272 0.129824132 0
vt 0.876904309 0.582247794 0
vt 0.879100025 0.602299988 0
vt 0.841627002 0.603398979 0
vt 0.764377713 0.611447334 0
vt 0.723403573 0.583135247 0
vt 0.841627002 0.603398979 0
vt 0.876904309 0.582247794 0
vt 0.92227459 0.586229861 0
vt 0.879100025 0.602299988 0
vt 0.764377713 0.611447334 0
vt 0.841627002 0.603398979 0
vt 0.818972826 0.613496065 0
vt 0.956941426 0.259483099 0
vt 0.904840887 0.286976218 0
vt 0.948815703 0.217764273 0
vt 0.841627002 0.603398979 0
vt 0.879100025 0.602299988 0
vt 0.818972826 0.613496065 0
vt 0.963297904 0.176041037 0
vt 0.919666171 0.0677450225 0
vt 0.954142272 0.129824132 0
vt 0.427444816 0.523945749 0
vt 0.420610845 0.48729369 0
vt 0.504100025 0.526899993 0
vt 0.793299973 0.246600002 0
vt 0.823578119 0.244203612 0
vt 0.847034693 0.294371217 0
vt 0.985872686 0.253781974 0
vt 0.956941426 0.259483099 0
vt 0.984123409 0.195766926 0
vn 0.0502300337 -0.284616351 -0.957324624
vn -0.321538419 0.399589002 -0.830221891
vn 0.220099747 -0.225510389 -0.99308008
vn -0.347715497 0.290787697 0.824641824
vn 0.355256736 -0.0406980477 0.94310689
vn 0.337485015 0.334066361 0.813184023
vn -0.168691695 0.635955393 -0.733843029
vn -0.321538419 0.399589002 -0.830221891
vn -0.335851103 0.932317913 -0.134117126
vn -0.290278137 0.940299749 -0.177693114
vn -0.168691695 0.635955393 -0.733843029
vn -0.335851103 0.932317913 -0.134117126
vn -0.347715497 0.290787697 0.824641824
vn -0.83534205 0.330832332 0.525362968
vn -0.720271409 -0.598463714 0.369304448
vn -0.234730542 0.850832224 0.4364461
vn -0.347715497 0.290787697 0.824641824
vn -0.213487431 0.940712512 0.314687073
vn 0.220099747 -0.225510389 -0.99308008
vn -0.321538419 0.399589002 -0.830221891
vn 0.266774893 0.191993967 -0.944441319
vn 0.150406569 0.843644321 -0.548480988
vn 0.686515629 0.364622951 -0.670492232
vn 0.186101854 0.493641198 -0.862970054
vn -0.335851103 0.932317913 -0.134117126
vn -0.321538419 0.399589002 -0.830221891
vn -0.806066215 0.538354576 -0.275374144
vn 0.875462115 -0.163466364 0.454802036
vn 0.722329855 -0.623244405 0.297932774
vn 0.992330015 -0.197050706 0.124682978
vn -0.213487431 0.940712512 0.314687073
vn 0.199202493 0.729222178 0.611250162
vn 0.187035307 0.929810762 0.302966118
vn -0.0534221381 0.993133008 -0.13408345
vn -0.168691695 0.635955393 -0.733843029
vn -0.290278137 0.940299749 -0.177693114
vn 0.722329855 -0.623244405 0.297932774
vn 0.818424582 -0.595156014 -0.225546509
vn 0.992330015 -0.197050706 0.124682978
vn -0.334307253 0.938435137 -0.0505602695
vn -0.806066215 0.538354576 -0.275374144
vn -0.554631531 0.815401196 0.165773928
vn -0.234730542 0.850832224 0.4364461
vn -0.332841694 0.804066479 0.506097019
vn -0.347715497 0.290787697 0.824641824
vn 0.355256736 -0.0406980477 0.94310689
vn 0.794732273 -0.35170576 0.522048533
vn 0.337485015 0.334066361 0.813184023
vn -0.720271409 -0.598463714 0.369304448
vn -0.83534205 0.330832332 0.525362968
vn -0.994281828 -0.12073794 0.381299049
vn -0.781331599 -0.376622796 -0.590135276
vn -0.806066215 0.538354576 -0.275374144
vn -0.321538419 0.399589002 -0.830221891
vn -0.347715497 0.290787697 0.824641824
vn -0.332841694 0.804066479 0.506097019
vn -0.83534205 0.330832332 0.525362968
vn -0.302930504 0.93933332 0.160891607
vn -0.554631531 0.815401196 0.165773928
vn -0.332841694 0.804066479 0.506097019
vn -0.554631531 0.815401196 0.165773928
vn -0.83534205 0.330832332 0.525362968
vn -0.332841694 0.804066479 0.506097019
vn -0.0534221381 0.993133008 -0.13408345
vn -0.213487431 0.940712512 0.314687073
vn 0.187035307 0.929810762 0.302966118
vn -0.290278137 0.940299749 -0.177693114
vn -0.314151257 0.941313803 0.12343967
vn -0.213487431 0.940712512 0.314687073
vn 0.355256736 -0.0406980477 0.94310689
vn 0.294271737 -0.855546474 0.453781068
vn 0.544502258 -0.575162292 0.630396128
vn -0.332841694 0.804066479 0.506097019
vn -0.234730542 0.850832224 0.4364461
vn -0.302930504 0.93933332 0.160891607
vn -0.213487431 0.940712512 0.314687073
vn -0.314151257 0.941313803 0.12343967
vn -0.234730542 0.850832224 0.4364461
vn -0.347715497 0.290787697 0.824641824
vn 0.088396281 -0.67110157 0.784938335
vn 0.355256736 -0.0406980477 0.94310689
vn 0.186101854 0.493641198 -0.862970054
vn -0.168691695 0.635955393 -0.733843029
vn 0.150406569 0.843644321 -0.548480988
vn -0.302930504 0.93933332 0.160891607
vn -0.234730542 0.850832224 0.4364461
vn -0.334307253 0.938435137 -0.0505602695
vn -0.335851103 0.932317913 -0.134117126
vn -0.806066215 0.538354576 -0.275374144
vn -0.334307253 0.938435137 -0.0505602695
vn 0.337485015 0.334066361 0.813184023
vn 0.875462115 -0.163466364 0.454802036
vn 0.784092128 0.112242423 0.610410511
vn 0.875462115 -0.163466364 0.454802036
vn 0.794732273 -0.35170576 0.522048533
vn 0.722329855 -0.623244405 0.297932774
vn 0.748982131 -0.282106668 -0.611277044
vn 0.686515629 0.364622951 -0.670492232
vn 0.98492223 -0.0230881777 -0.360022902
vn -0.347715497 0.290787697 0.824641824
vn 0.337485015 0.334066361 0.813184023
vn 0.199202493 0.729222178 0.611250162
vn 0.266774893 0.191993967 -0.944441319
vn 0.186101854 0.493641198 -0.862970054
vn 0.686515629 0.364622951 -0.670492232
vn 0.0513903312 -0.023636654 -0.99839884
vn 0.186101854 0.493641198 -0.862970054
vn 0.266774893 0.191993967 -0.944441319
vn 0.199202493 0.729222178 0.611250162
vn 0.337485015 0.334066361 0.813184023
vn 0.784092128 0.112242423 0.610410511
vn 0.536380231 -0.279341489 -0.840680242
vn 0.686515629 0.364622951 -0.670492232
vn 0.748982131 -0.282106668 -0.611277044
vn 0.714224517 0.700440884 0.207551628
vn 0.56130749 0.770777404 -0.362716198
vn -0.0534221381 0.993133008 -0.13408345
vn 0.544502258 -0.575162292 0.630396128
vn 0.794732273 -0.35170576 0.522048533
vn 0.355256736 -0.0406980477 0.94310689
vn -0.781331599 -0.376622796 -0.590135276
vn -0.321538419 0.399589002 -0.830221891
vn -0.263530612 -0.539343774 -0.80395925
vn -0.994281828 -0.12073794 0.381299049
vn -0.83534205 0.330832332 0.525362968
vn -0.554631531 0.815401196 0.165773928
vn 0.714224517 0.700440884 0.207551628
vn -0.0534221381 0.993133008 -0.13408345
vn 0.187035307 0.929810762 0.302966118
vn 0.992330015 -0.197050706 0.124682978
vn 0.818424582 -0.595156014 -0.225546509
vn 0.98492223 -0.0230881777 -0.360022902
vn -0.0534221381 0.993133008 -0.13408345
vn -0.290278137 0.940299749 -0.177693114
vn -0.213487431 0.940712512 0.314687073
vn 0.98492223 -0.0230881777 -0.360022902
vn 0.686515629 0.364622951 -0.670492232
vn 0.56130749 0.770777404 -0.362716198
vn 0.714224517 0.700440884 0.207551628
vn 0.875462115 -0.163466364 0.454802036
vn 0.992330015 -0.197050706 0.124682978
vn 0.748982131 -0.282106668 -0.611277044
vn 0.98492223 -0.0230881777 -0.360022902
vn 0.818424582 -0.595156014 -0.225546509
vn 0.337485015 0.334066361 0.813184023
vn 0.794732273 -0.35170576 0.522048533
vn 0.875462115 -0.163466364 0.454802036
vn -0.290278137 0.940299749 -0.177693114
vn -0.335851103 0.932317913 -0.134117126
vn -0.314151257 0.941313803 0.12343967
vn -0.234730542 0.850832224 0.4364461
vn -0.314151257 0.941313803 0.12343967
vn -0.334307253 0.938435137 -0.0505602695
vn 0.686515629 0.364622951 -0.670492232
vn 0.150406569 0.843644321 -0.548480988
vn 0.56130749 0.770777404 -0.362716198
vn 0.714224517 0.700440884 0.207551628
vn 0.784092128 0.112242423 0.610410511
vn 0.875462115 -0.163466364 0.454802036
vn 0.187035307 0.929810762 0.302966118
vn 0.199202493 0.729222178 0.611250162
vn 0.784092128 0.112242423 0.610410511
vn 0.56130749 0.770777404 -0.362716198
vn 0.150406569 0.843644321 -0.548480988
vn -0.0534221381 0.993133008 -0.13408345
vn -0.806066215 0.538354576 -0.275374144
vn -0.781331599 -0.376622796 -0.590135276
vn -0.851105452 -0.634301722 0.203607529
vn 0.98492223 -0.0230881777 -0.360022902
vn 0.714224517 0.700440884 0.207551628
vn 0.992330015 -0.197050706 0.124682978
vn -0.168691695 0.635955393 -0.733843029
vn 0.186101854 0.493641198 -0.862970054
vn 0.0513903312 -0.023636654 -0.99839884
vn 0.56130749 0.770777404 -0.362716198
vn 0.714224517 0.700440884 0.207551628
vn 0.98492223 -0.0230881777 -0.360022902
vn -0.806066215 0.538354576 -0.275374144
vn -0.851105452 -0.634301722 0.203607529
vn -0.994281828 -0.12073794 0.381299049
vn -0.335851103 0.932317913 -0.134117126
vn -0.334307253 0.938435137 -0.0505602695
vn -0.314151257 0.941313803 0.12343967
vn 0.0502300337 -0.284616351 -0.957324624
vn 0.220099747 -0.225510389 -0.99308008
vn 0.255148917 -0.476992577 -0.843749404
vn 0.187035307 0.929810762 0.302966118
vn 0.784092128 0.112242423 0.610410511
vn 0.714224517 0.700440884 0.207551628
vn 0.266774893 0.191993967 -0.944441319
vn 0.686515629 0.364622951 -0.670492232
vn 0.536380231 -0.279341489 -0.840680242
vn 0.266774893 0.191993967 -0.944441319
vn 0.536380231 -0.279341489 -0.840680242
vn 0.220099747 -0.225510389 -0.99308008
vn -0.347715497 0.290787697 0.824641824
vn 0.199202493 0.729222178 0.611250162
vn -0.213487431 0.940712512 0.314687073
vn 0.150406569 0.843644321 -0.548480988
vn -0.168691695 0.635955393 -0.733843029
vn -0.0534221381 0.993133008 -0.13408345
vn -0.806066215 0.538354576 -0.275374144
vn -0.994281828 -0.12073794 0.381299049
vn -0.554631531 0.815401196 0.165773928
vn 0.255148917 -0.476992577 -0.843749404
vn 0.220099747 -0.225510389 -0.99308008
vn 0.536380231 -0.279341489 -0.840680242
vn -0.334307253 0.938435137 -0.0505602695
vn -0.554631531 0.815401196 0.165773928
vn -0.302930504 0.93933332 0.160891607
vn 0.544502258 -0.575162292 0.630396128
vn 0.722329855 -0.623244405 0.297932774
vn 0.794732273 -0.35170576 0.522048533
vn -0.168691695 0.635955393 -0.733843029
vn 0.0513903312 -0.023636654 -0.99839884
vn -0.321538419 0.399589002 -0.830221891
vn 0.0513903312 -0.023636654 -0.99839884
vn 0.266774893 0.191993967 -0.944441319
vn -0.321538419 0.399589002 -0.830221891
vn 0.134007588 -0.954136491 0.23881425
vn 0.0278722811 -0.99108845 0.0915257707
vn 0.348566711 -0.960594058 0.0889317766
vn -0.0629685819 -0.846732438 -0.542336166
vn 0.136552989 -0.912945569 -0.389214069
vn -0.116095565 -1.00041604 0.0484403521
vn 0.136552989 -0.912945569 -0.389214069
vn 0.348566711 -0.960594058 0.0889317766
vn 0.0278722811 -0.99108845 0.0915257707
vn 0.255148917 -0.476992577 -0.843749404
vn -0.0629685819 -0.846732438 -0.542336166
vn 0.0502300337 -0.284616351 -0.957324624
vn -0.851105452 -0.634301722 0.203607529
vn -0.781331599 -0.376622796 -0.590135276
vn -0.57474345 -0.75957644 -0.319195211
vn -0.263530612 -0.539343774 -0.80395925
vn -0.359280556 -0.8477211 -0.419872612
vn -0.781331599 -0.376622796 -0.590135276
vn 0.136552989 -0.912945569 -0.389214069
vn 0.818424582 -0.595156014 -0.225546509
vn 0.348566711 -0.960594058 0.0889317766
vn -0.359280556 -0.8477211 -0.419872612
vn -0.0629685819 -0.846732438 -0.542336166
vn -0.116095565 -1.00041604 0.0484403521
vn -0.263530612 -0.539343774 -0.80395925
vn -0.0629685819 -0.846732438 -0.542336166
vn -0.359280556 -0.8477211 -0.419872612
vn 0.348566711 -0.960594058 0.0889317766
vn 0.818424582 -0.595156014 -0.225546509
vn 0.722329855 -0.623244405 0.297932774
vn 0.348566711 -0.960594058 0.0889317766
vn 0.722329855 -0.623244405 0.297932774
vn 0.294271737 -0.855546474 0.453781068
vn 0.0278722811 -0.99108845 0.0915257707
vn -0.116095565 -1.00041604 0.0484403521
vn 0.136552989 -0.912945569 -0.389214069
vn 0.255148917 -0.476992577 -0.843749404
vn 0.136552989 -0.912945569 -0.389214069
vn -0.0629685819 -0.846732438 -0.542336166
vn 0.136552989 -0.912945569 -0.389214069
vn 0.255148917 -0.476992577 -0.843749404
vn 0.818424582 -0.595156014 -0.225546509
vn -0.536866784 -0.768708646 0.362152129
vn -0.570574284 -0.830956161 -0.0547110848
vn -0.116095565 -1.00041604 0.0484403521
vn 0.544502258 -0.575162292 0.630396128
vn 0.294271737 -0.855546474 0.453781068
vn 0.722329855 -0.623244405 0.297932774
vn 0.134007588 -0.954136491 0.23881425
vn 0.348566711 -0.960594058 0.0889317766
vn 0.294271737 -0.855546474 0.453781068
vn 0.134007588 -0.954136491 0.23881425
vn -0.232743219 -0.799339473 0.553973734
vn -0.016833486 -0.991261899 0.188011199
vn 0.255148917 -0.476992577 -0.843749404
vn 0.748982131 -0.282106668 -0.611277044
vn 0.818424582 -0.595156014 -0.225546509
vn -0.994281828 -0.12073794 0.381299049
vn -0.851105452 -0.634301722 0.203607529
vn -0.720271409 -0.598463714 0.369304448
vn -0.781331599 -0.376622796 -0.590135276
vn -0.359280556 -0.8477211 -0.419872612
vn -0.57474345 -0.75957644 -0.319195211
vn -0.537569106 -0.681109846 0.535040081
vn -0.347715497 0.290787697 0.824641824
vn -0.720271409 -0.598463714 0.369304448
vn -0.851105452 -0.634301722 0.203607529
vn -0.536866784 -0.768708646 0.362152129
vn -0.720271409 -0.598463714 0.369304448
vn -0.537569106 -0.681109846 0.535040081
vn -0.720271409 -0.598463714 0.369304448
vn -0.536866784 -0.768708646 0.362152129
vn -0.016833486 -0.991261899 0.188011199
vn -0.537569106 -0.681109846 0.535040081
vn 0.0278722811 -0.99108845 0.0915257707
vn -0.851105452 -0.634301722 0.203607529
vn -0.57474345 -0.75957644 -0.319195211
vn -0.570574284 -0.830956161 -0.0547110848
vn 0.536380231 -0.279341489 -0.840680242
vn 0.748982131 -0.282106668 -0.611277044
vn 0.255148917 -0.476992577 -0.843749404
vn 0.0278722811 -0.99108845 0.0915257707
vn -0.537569106 -0.681109846 0.535040081
vn -0.536866784 -0.768708646 0.362152129
vn -0.536866784 -0.768708646 0.362152129
vn -0.116095565 -1.00041604 0.0484403521
vn 0.0278722811 -0.99108845 0.0915257707
vn -0.57474345 -0.75957644 -0.319195211
vn -0.359280556 -0.8477211 -0.419872612
vn -0.570574284 -0.830956161 -0.0547110848
vn -0.232743219 -0.799339473 0.553973734
vn -0.537569106 -0.681109846 0.535040081
vn -0.016833486 -0.991261899 0.188011199
vn -0.347715497 0.290787697 0.824641824
vn -0.232743219 -0.799339473 0.553973734
vn 0.088396281 -0.67110157 0.784938335
vn 0.294271737 -0.855546474 0.453781068
vn 0.355256736 -0.0406980477 0.94310689
vn 0.088396281 -0.67110157 0.784938335
vn -0.347715497 0.290787697 0.824641824
vn -0.537569106 -0.681109846 0.535040081
vn -0.232743219 -0.799339473 0.553973734
vn 0.294271737 -0.855546474 0.453781068
vn 0.088396281 -0.67110157 0.784938335
vn 0.134007588 -0.954136491 0.23881425
vn -0.570574284 -0.830956161 -0.0547110848
vn -0.359280556 -0.8477211 -0.419872612
vn -0.116095565 -1.00041604 0.0484403521
vn 0.088396281 -0.67110157 0.784938335
vn -0.232743219 -0.799339473 0.553973734
vn 0.134007588 -0.954136491 0.23881425
vn 0.0278722811 -0.99108845 0.0915257707
vn 0.134007588 -0.954136491 0.23881425
vn -0.016833486 -0.991261899 0.188011199
vn -0.263530612 -0.539343774 -0.80395925
vn -0.321538419 0.399589002 -0.830221891
vn 0.0502300337 -0.284616351 -0.957324624
vn 0.0502300337 -0.284616351 -0.957324624
vn -0.0629685819 -0.846732438 -0.542336166
vn -0.263530612 -0.539343774 -0.80395925
vn -0.851105452 -0.634301722 0.203607529
vn -0.570574284 -0.830956161 -0.0547110848
vn -0.536866784 -0.768708646 0.362152129
g ScatterSharp_04_LOD0
f 3/1/1 4/2/2 5/3/3
f 6/4/4 7/5/5 8/6/6
f 9/7/7 4/8/8 10/9/9
f 13/10/10 9/11/11 10/12/12
f 6/13/13 16/14/14 17/15/15
f 18/16/16 6/17/17 19/18/18
f 5/19/19 4/20/20 23/21/21
f 24/22/22 11/23/23 25/24/24
f 10/25/25 4/26/26 26/27/27
f 27/28/28 2/29/29 28/30/30
f 19/31/31 30/32/32 31/33/33
f 22/34/34 9/35/35 13/36/36
f 2/37/37 32/38/38 28/39/39
f 33/40/40 26/41/41 34/42/42
f 18/43/43 35/44/44 6/45/45
f 7/46/46 1/47/47 8/48/48
f 17/49/49 16/50/50 15/51/51
f 36/52/52 26/53/53 4/54/54
f 6/55/55 35/56/56 16/57/57
f 39/58/58 34/59/59 35/60/60
f 34/61/61 16/62/62 35/63/63
f 22/64/64 19/65/65 31/66/66
f 13/67/67 40/68/68 19/69/69
f 7/70/70 38/71/71 41/72/72
f 35/73/73 18/74/74 39/75/75
f 19/76/76 40/77/77 18/78/78
f 6/79/79 42/80/80 7/81/81
f 25/82/82 9/83/83 24/84/84
f 39/85/85 18/86/86 33/87/87
f 10/88/88 26/89/89 33/90/90
f 8/91/91 27/92/92 43/93/93
f 27/94/94 1/95/95 2/96/96
f 21/97/97 11/98/98 12/99/99
f 6/100/100 8/101/101 30/102/102
f 23/103/103 25/104/104 11/105/105
f 44/106/106 25/107/107 23/108/108
f 30/109/109 8/110/110 43/111/111
f 20/112/112 11/113/113 21/114/114
f 29/115/115 37/116/116 22/117/117
f 41/118/118 1/119/119 7/120/120
f 36/121/121 4/122/122 45/123/123
f 15/124/124 16/125/125 34/126/126
f 29/127/127 22/128/128 31/129/129
f 28/130/130 32/131/131 12/132/132
f 22/133/133 13/134/134 19/135/135
f 12/136/136 11/137/137 37/138/138
f 29/139/139 27/140/140 28/141/141
f 21/142/142 12/143/143 32/144/144
f 8/145/145 1/146/146 27/147/147
f 13/148/148 10/149/149 40/150/150
f 18/151/151 40/152/152 33/153/153
f 11/154/154 24/155/155 37/156/156
f 29/157/157 43/158/158 27/159/159
f 31/160/160 30/161/161 43/162/162
f 37/163/163 24/164/164 22/165/165
f 26/166/166 36/167/167 14/168/168
f 12/169/169 29/170/170 28/171/171
f 9/172/172 25/173/173 44/174/174
f 37/175/175 29/176/176 12/177/177
f 26/178/178 14/179/179 15/180/180
f 10/181/181 33/182/182 40/183/183
f 3/184/184 5/185/185 46/186/186
f 31/187/187 43/188/188 29/189/189
f 23/190/190 11/191/191 20/192/192
f 23/193/193 20/194/194 5/195/195
f 6/196/196 30/197/197 19/198/198
f 24/199/199 9/200/200 22/201/201
f 26/202/202 15/203/203 34/204/204
f 46/205/205 5/206/206 20/207/207
f 33/208/208 34/209/209 39/210/210
f 41/211/211 2/212/212 1/213/213
f 9/214/214 44/215/215 4/216/216
f 44/217/217 23/218/218 4/219/219
f 47/220/220 48/221/221 49/222/222
f 52/223/223 53/224/224 54/225/225
f 53/226/226 49/227/227 48/228/228
f 46/229/229 52/230/230 3/231/231
f 14/232/232 36/233/233 55/234/234
f 45/235/235 56/236/236 36/237/237
f 53/238/238 32/239/239 49/240/240
f 56/241/241 52/242/242 54/243/243
f 45/244/244 52/245/245 56/246/246
f 49/247/247 32/248/248 2/249/249
f 49/250/250 2/251/251 38/252/252
f 48/253/253 54/254/254 53/255/255
f 46/256/256 53/257/257 52/258/258
f 53/259/259 46/260/260 32/261/261
f 59/262/262 58/263/263 54/264/264
f 41/265/265 38/266/266 2/267/267
f 47/268/268 49/269/269 38/270/270
f 47/271/271 50/272/272 51/273/273
f 46/274/274 21/275/275 32/276/276
f 15/277/277 14/278/278 17/279/279
f 36/280/280 56/281/281 55/282/282
f 57/283/283 6/284/284 17/285/285
f 14/286/286 59/287/287 17/288/288
f 57/289/289 17/290/290 59/291/291
f 51/292/292 57/293/293 48/294/294
f 14/295/295 55/296/296 58/297/297
f 20/298/298 21/299/299 46/300/300
f 48/301/301 57/302/302 59/303/303
f 59/304/304 54/305/305 48/306/306
f 55/307/307 56/308/308 58/309/309
f 50/310/310 57/311/311 51/312/312
f 6/313/313 50/314/314 42/315/315
f 38/316/316 7/317/317 42/318/318
f 6/319/319 57/320/320 50/321/321
f 38/322/322 42/323/323 47/324/324
f 58/325/325 56/326/326 54/327/327
f 42/328/328 50/329/329 47/330/330
f 48/331/331 47/332/332 51/333/333
f 45/334/334 4/335/335 3/336/336
f 3/337/337 52/338/338 45/339/339
f 14/340/340 58/341/341 59/342/342
