# File exported by Houdini 16.5.405 (www.sidefx.com)
# 52 points
# 300 vertices
# 100 primitives
# Bounds: [-9.84471321, 0.342228413, -9.47744179] to [11.055994, 11.9485054, 9.91719246]
g 
v 3.73747849 9.58664703 7.70706034
v 6.4928627 7.94170523 8.71621132
v 3.13803291 2.72181106 -9.10115528
v -6.80561543 4.16024733 -4.00007868
v 2.90035677 8.9375658 -8.2943697
v 4.76797962 11.9485054 -3.86541343
v -9.72585487 5.74839163 0.532399952
v -8.92367172 6.39857626 3.20230055
v -6.00099182 3.4341414 5.58053589
v 4.20486021 6.25060368 9.91719246
v -9.60558987 4.92176151 3.13267374
v 8.71537113 10.5077133 0.618897915
v 11.055994 5.69935322 0.60508883
v 5.66680622 3.96789026 -9.3888092
v 6.14708185 7.01818895 -9.47744179
v 9.16630459 6.79949903 -8.42940617
v 7.916749 11.2865152 -1.73750353
v 10.9565935 6.28959942 -3.43229127
v 2.72329998 10.3099003 4.4849
v 6.51761293 9.82050419 6.45860529
v 3.58541036 11.3844337 -0.940978587
v -7.97484159 6.76776218 4.25306749
v 2.7493 10.8406 1.82360005
v -7.29146242 5.82911301 5.57951069
v -0.296223044 7.27289867 8.82940578
v 5.80250025 9.15983772 -8.49710178
v 6.30099964 11.4995365 -6.07449007
v -8.23907471 5.76505375 -2.47050118
v 5.16208553 11.5383015 -6.55997753
v 5.67729282 2.53841138 -8.57127762
v 8.75767612 5.79866219 -8.3214941
v 10.9227409 4.5254302 -1.75130808
v 2.8263483 0.666243494 -6.96169615
v -8.24061298 2.1934948 -1.13571107
v -3.97581148 7.81136274 6.60059404
v 9.21729946 7.59782839 5.77617741
v -9.84471321 4.0595994 -0.38499099
v -9.39157009 3.09049344 1.12600851
v 8.06270695 6.0222435 7.72756863
v 4.52272606 3.8640511 7.04255629
v 4.38059998 5.51590014 9.25430012
v -6.18079996 2.54259992 4.62400007
v 10.3102789 5.62240648 2.74226284
v 9.49647141 6.90749502 5.20681429
v 10.7945414 5.5359931 -3.32829332
v -8.29716778 3.26811647 3.71424985
v 8.91424561 2.89749026 1.53060842
v -3.05189991 0.393700004 -2.24950004
v 2.66774559 0.342228413 -6.30882788
v -6.6331377 1.06837118 -0.768996
v -7.11183882 1.70614469 2.55911088
v 7.12986279 2.99186492 3.80426621
vt 0.616445124 0.713994265 0
vt 0.465377748 0.680324316 0
vt 0.61108464 0.615047753 0
vt 0.593034267 0.533169627 0
vt 0.400431603 0.644472301 0
vt 0.377359211 0.611159742 0
vt 0.726591885 0.870236158 0
vt 0.755999684 0.831798553 0
vt 0.791771293 0.859200239 0
vt 0.878642917 0.794258833 0
vt 0.91191566 0.804036915 0
vt 0.863002241 0.875618517 0
vt 0.962499976 0.715399981 0
vt 0.994114578 0.769313693 0
vt 0.843902409 0.753193796 0
vt 0.67137444 0.588684738 0
vt 0.856385052 0.64810133 0
vt 0.688799977 0.627300024 0
vt 0.849301636 0.674798012 0
vt 0.859371603 0.714186609 0
vt 0.757051468 0.722941935 0
vt 0.61108464 0.615047753 0
vt 0.439803869 0.657649696 0
vt 0.619718969 0.560867131 0
vt 0.791771293 0.859200239 0
vt 0.878642917 0.794258833 0
vt 0.863002241 0.875618517 0
vt 0.391859651 0.223466694 0
vt 0.335121781 0.189376861 0
vt 0.38635093 0.0947333351 0
vt 0.715862632 0.766934276 0
vt 0.696803212 0.714918673 0
vt 0.757051468 0.722941935 0
vt 0.757051468 0.722941935 0
vt 0.696803212 0.714918673 0
vt 0.795031071 0.683096349 0
vt 0.61108464 0.615047753 0
vt 0.465377748 0.680324316 0
vt 0.439803869 0.657649696 0
vt 0.649806619 0.717931986 0
vt 0.675877929 0.756527007 0
vt 0.612565339 0.768732965 0
vt 0.777595282 0.805096805 0
vt 0.748965979 0.773646116 0
vt 0.806379378 0.771605074 0
vt 0.795031071 0.683096349 0
vt 0.696803212 0.714918673 0
vt 0.695599973 0.666400015 0
vt 0.649806619 0.717931986 0
vt 0.695599973 0.666400015 0
vt 0.696803212 0.714918673 0
vt 0.994114578 0.769313693 0
vt 0.878642917 0.794258833 0
vt 0.843902409 0.753193796 0
vt 0.540015996 0.0530552156 0
vt 0.504532456 0.00258211186 0
vt 0.564400017 0.0204000007 0
vt 0.564400017 0.0204000007 0
vt 0.643400013 0.177599996 0
vt 0.540015996 0.0530552156 0
vt 0.402716875 0.670185983 0
vt 0.439803869 0.657649696 0
vt 0.465377748 0.680324316 0
vt 0.417767048 0.70936811 0
vt 0.465377748 0.680324316 0
vt 0.592266083 0.749757946 0
vt 0.550965607 0.516642392 0
vt 0.377359211 0.611159742 0
vt 0.376055479 0.59037143 0
vt 0.863964796 0.887102783 0
vt 0.783846319 0.872518957 0
vt 0.863002241 0.875618517 0
vt 0.429577768 0.0385382809 0
vt 0.38635093 0.0947333351 0
vt 0.399486572 0.0575536601 0
vt 0.849301636 0.674798012 0
vt 0.856385052 0.64810133 0
vt 0.901982367 0.652889848 0
vt 0.408779413 0.256786555 0
vt 0.391859651 0.223466694 0
vt 0.445762932 0.229819477 0
vt 0.726591885 0.870236158 0
vt 0.791771293 0.859200239 0
vt 0.783846319 0.872518957 0
vt 0.878642917 0.794258833 0
vt 0.818398654 0.783124268 0
vt 0.843902409 0.753193796 0
vt 0.791771293 0.859200239 0
vt 0.818398654 0.783124268 0
vt 0.878642917 0.794258833 0
vt 0.619718969 0.560867131 0
vt 0.400431603 0.644472301 0
vt 0.593034267 0.533169627 0
vt 0.715862632 0.766934276 0
vt 0.675877929 0.756527007 0
vt 0.696803212 0.714918673 0
vt 0.783846319 0.872518957 0
vt 0.791771293 0.859200239 0
vt 0.863002241 0.875618517 0
vt 0.362844139 0.634094775 0
vt 0.377359211 0.611159742 0
vt 0.400431603 0.644472301 0
vt 0.362844139 0.634094775 0
vt 0.402716875 0.670185983 0
vt 0.374961883 0.679138839 0
vt 0.795031071 0.683096349 0
vt 0.849301636 0.674798012 0
vt 0.757051468 0.722941935 0
vt 0.859371603 0.714186609 0
vt 0.877300024 0.724300027 0
vt 0.715862632 0.766934276 0
vt 0.748965979 0.773646116 0
vt 0.777595282 0.805096805 0
vt 0.755999684 0.831798553 0
vt 0.755999684 0.831798553 0
vt 0.777595282 0.805096805 0
vt 0.791771293 0.859200239 0
vt 0.901982367 0.652889848 0
vt 0.856385052 0.64810133 0
vt 0.879090488 0.636788368 0
vt 0.843902409 0.753193796 0
vt 0.885266721 0.732980847 0
vt 0.924199998 0.718400002 0
vt 0.856385052 0.64810133 0
vt 0.849301636 0.674798012 0
vt 0.795031071 0.683096349 0
vt 0.856385052 0.64810133 0
vt 0.795031071 0.683096349 0
vt 0.688799977 0.627300024 0
vt 0.994114578 0.769313693 0
vt 0.99403429 0.825600088 0
vt 0.91191566 0.804036915 0
vt 0.417767048 0.70936811 0
vt 0.402716875 0.670185983 0
vt 0.465377748 0.680324316 0
vt 0.374961883 0.679138839 0
vt 0.402716875 0.670185983 0
vt 0.417767048 0.70936811 0
vt 0.863002241 0.875618517 0
vt 0.91191566 0.804036915 0
vt 0.924037874 0.878471613 0
vt 0.619718969 0.560867131 0
vt 0.439803869 0.657649696 0
vt 0.400431603 0.644472301 0
vt 0.400431603 0.644472301 0
vt 0.439803869 0.657649696 0
vt 0.402716875 0.670185983 0
vt 0.962499976 0.715399981 0
vt 0.843902409 0.753193796 0
vt 0.924199998 0.718400002 0
vt 0.688799977 0.627300024 0
vt 0.795031071 0.683096349 0
vt 0.695599973 0.666400015 0
vt 0.592266083 0.749757946 0
vt 0.465377748 0.680324316 0
vt 0.616445124 0.713994265 0
vt 0.675877929 0.756527007 0
vt 0.649806619 0.717931986 0
vt 0.696803212 0.714918673 0
vt 0.989884377 0.838721216 0
vt 0.958182514 0.871297777 0
vt 0.924037874 0.878471613 0
vt 0.791771293 0.859200239 0
vt 0.777595282 0.805096805 0
vt 0.818398654 0.783124268 0
vt 0.715862632 0.766934276 0
vt 0.719099998 0.779999971 0
vt 0.655054092 0.792925775 0
vt 0.715862632 0.766934276 0
vt 0.877300024 0.724300027 0
vt 0.719099998 0.779999971 0
vt 0.362844139 0.634094775 0
vt 0.400431603 0.644472301 0
vt 0.402716875 0.670185983 0
vt 0.818398654 0.783124268 0
vt 0.806379378 0.771605074 0
vt 0.843902409 0.753193796 0
vt 0.38635093 0.0947333351 0
vt 0.362543255 0.108613096 0
vt 0.399486572 0.0575536601 0
vt 0.994114578 0.769313693 0
vt 0.91191566 0.804036915 0
vt 0.878642917 0.794258833 0
vt 0.863964796 0.887102783 0
vt 0.863002241 0.875618517 0
vt 0.924037874 0.878471613 0
vt 0.593034267 0.533169627 0
vt 0.377359211 0.611159742 0
vt 0.550965607 0.516642392 0
vt 0.504532456 0.00258211186 0
vt 0.429577768 0.0385382809 0
vt 0.458790809 0.0033194283 0
vt 0.665575504 0.647670984 0
vt 0.616445124 0.713994265 0
vt 0.61108464 0.615047753 0
vt 0.408779413 0.256786555 0
vt 0.371909708 0.233370483 0
vt 0.391859651 0.223466694 0
vt 0.656658351 0.696985543 0
vt 0.616445124 0.713994265 0
vt 0.665575504 0.647670984 0
vt 0.715862632 0.766934276 0
vt 0.655054092 0.792925775 0
vt 0.675877929 0.756527007 0
vt 0.91191566 0.804036915 0
vt 0.99403429 0.825600088 0
vt 0.924037874 0.878471613 0
vt 0.99403429 0.825600088 0
vt 0.989884377 0.838721216 0
vt 0.924037874 0.878471613 0
vt 0.757051468 0.722941935 0
vt 0.859371603 0.714186609 0
vt 0.715862632 0.766934276 0
vt 0.818398654 0.783124268 0
vt 0.777595282 0.805096805 0
vt 0.806379378 0.771605074 0
vt 0.362543255 0.108613096 0
vt 0.38635093 0.0947333351 0
vt 0.335121781 0.189376861 0
vt 0.391859651 0.223466694 0
vt 0.371909708 0.233370483 0
vt 0.335121781 0.189376861 0
vt 0.612565339 0.768732965 0
vt 0.655054092 0.792925775 0
vt 0.60121125 0.781491578 0
vt 0.675877929 0.756527007 0
vt 0.655054092 0.792925775 0
vt 0.612565339 0.768732965 0
vt 0.445309103 0.0833528042 0
vt 0.54519999 0.226400003 0
vt 0.454418421 0.224297911 0
vt 0.454418421 0.224297911 0
vt 0.38635093 0.0947333351 0
vt 0.445309103 0.0833528042 0
vt 0.613495111 0.265324682 0
vt 0.445762932 0.229819477 0
vt 0.595652759 0.242600441 0
vt 0.540015996 0.0530552156 0
vt 0.633136094 0.210801482 0
vt 0.483264178 0.0713157058 0
vt 0.429577768 0.0385382809 0
vt 0.445309103 0.0833528042 0
vt 0.38635093 0.0947333351 0
vt 0.54519999 0.226400003 0
vt 0.483264178 0.0713157058 0
vt 0.633136094 0.210801482 0
vt 0.653728664 0.251003057 0
vt 0.613495111 0.265324682 0
vt 0.595652759 0.242600441 0
vt 0.504532456 0.00258211186 0
vt 0.540015996 0.0530552156 0
vt 0.483264178 0.0713157058 0
vt 0.454418421 0.224297911 0
vt 0.391859651 0.223466694 0
vt 0.38635093 0.0947333351 0
vt 0.595652759 0.242600441 0
vt 0.633136094 0.210801482 0
vt 0.653728664 0.251003057 0
vt 0.900918484 0.690571368 0
vt 0.849301636 0.674798012 0
vt 0.901982367 0.652889848 0
vt 0.54519999 0.226400003 0
vt 0.445309103 0.0833528042 0
vt 0.483264178 0.0713157058 0
vt 0.445309103 0.0833528042 0
vt 0.504532456 0.00258211186 0
vt 0.483264178 0.0713157058 0
vt 0.540015996 0.0530552156 0
vt 0.643400013 0.177599996 0
vt 0.633136094 0.210801482 0
vt 0.595652759 0.242600441 0
vt 0.54519999 0.226400003 0
vt 0.633136094 0.210801482 0
vt 0.595652759 0.242600441 0
vt 0.454418421 0.224297911 0
vt 0.54519999 0.226400003 0
vt 0.429577768 0.0385382809 0
vt 0.504532456 0.00258211186 0
vt 0.445309103 0.0833528042 0
vt 0.859371603 0.714186609 0
vt 0.849301636 0.674798012 0
vt 0.900918484 0.690571368 0
vt 0.859371603 0.714186609 0
vt 0.900918484 0.690571368 0
vt 0.877300024 0.724300027 0
vt 0.665843368 0.207408518 0
vt 0.633136094 0.210801482 0
vt 0.643400013 0.177599996 0
vt 0.374961883 0.679138839 0
vt 0.330287725 0.653708518 0
vt 0.362844139 0.634094775 0
vt 0.595652759 0.242600441 0
vt 0.445762932 0.229819477 0
vt 0.454418421 0.224297911 0
vt 0.445762932 0.229819477 0
vt 0.391859651 0.223466694 0
vt 0.454418421 0.224297911 0
vt 0.633136094 0.210801482 0
vt 0.665843368 0.207408518 0
vt 0.653728664 0.251003057 0
vn -0.335057735 -0.279077113 -0.901957512
vn -0.553105116 -0.0719437599 -0.850359142
vn -0.338280231 0.423449755 -0.841167271
vn -0.234916851 0.967534244 0.0125714559
vn -0.593122721 0.778499782 -0.177025124
vn -0.704088151 0.707791328 0.226687759
vn 0.349701345 -0.321121275 -0.887200832
vn 0.0724880248 0.224417746 -0.985424697
vn 0.727598667 0.249093041 -0.615990162
vn 0.522158742 0.847257197 0.0453172959
vn 0.719628811 0.710215151 0.0899755582
vn 0.950230896 0.296154588 -0.137382805
vn -0.146875843 0.964992583 0.217294261
vn 0.233129844 0.908881962 0.345511556
vn -0.234916851 0.967534244 0.0125714559
vn -0.236460119 0.974445403 0.0500827618
vn -0.577911317 0.73039645 0.385751188
vn -0.176880553 0.972327828 0.152616784
vn -0.57062 0.0984679386 0.850227177
vn -0.321561068 -0.516335964 0.802442789
vn -0.348706603 0.136560619 0.933705866
vn -0.338280231 0.423449755 -0.841167271
vn -0.628416955 0.568850577 -0.55385673
vn -0.274957567 0.922428906 -0.330773592
vn 0.727598667 0.249093041 -0.615990162
vn 0.522158742 0.847257197 0.0453172959
vn 0.950230896 0.296154588 -0.137382805
vn 0.485726684 -0.771831214 -0.449069291
vn 0.740777075 -0.394179106 -0.554732919
vn 0.813973784 -0.570532024 -0.11406602
vn -0.032527294 -0.286551625 0.956982613
vn -0.122464277 0.904854238 0.436557949
vn -0.348706603 0.136560619 0.933705866
vn -0.348706603 0.136560619 0.933705866
vn -0.122464277 0.904854238 0.436557949
vn -0.395469815 0.789099932 0.486148983
vn -0.338280231 0.423449755 -0.841167271
vn -0.553105116 -0.0719437599 -0.850359142
vn -0.628416955 0.568850577 -0.55385673
vn 0.233129844 0.908881962 0.345511556
vn 0.487598151 0.481848538 0.793310523
vn 0.818354309 0.419856459 0.397728533
vn 0.187562451 0.585609972 -0.830474675
vn -0.338280231 0.423449755 -0.841167271
vn -0.274957567 0.922428906 -0.330773592
vn -0.395469815 0.789099932 0.486148983
vn -0.122464277 0.904854238 0.436557949
vn -0.146875843 0.964992583 0.217294261
vn 0.233129844 0.908881962 0.345511556
vn -0.146875843 0.964992583 0.217294261
vn -0.122464277 0.904854238 0.436557949
vn 0.233129844 0.908881962 0.345511556
vn 0.522158742 0.847257197 0.0453172959
vn -0.234916851 0.967534244 0.0125714559
vn 0.139931917 -0.91075778 0.443401605
vn 0.67373234 -0.444920093 0.610199392
vn 0.135193229 -0.600643456 0.788003922
vn 0.135193229 -0.600643456 0.788003922
vn -0.237654775 -0.778205752 0.581305504
vn 0.139931917 -0.91075778 0.443401605
vn -0.95062834 -0.245555013 -0.333324701
vn -0.628416955 0.568850577 -0.55385673
vn -0.553105116 -0.0719437599 -0.850359142
vn -0.560096025 -0.723885655 -0.3947559
vn -0.553105116 -0.0719437599 -0.850359142
vn -0.0861939639 -0.879211068 -0.522663414
vn -0.236460119 0.974445403 0.0500827618
vn -0.704088151 0.707791328 0.226687759
vn -0.577911317 0.73039645 0.385751188
vn 0.964852214 -0.196911708 -0.206764728
vn 0.740777075 -0.394179106 -0.554732919
vn 0.950230896 0.296154588 -0.137382805
vn 0.912033319 -0.297898829 0.315121949
vn 0.813973784 -0.570532024 -0.11406602
vn 0.994964123 0.000902357686 0.151229069
vn -0.57062 0.0984679386 0.850227177
vn -0.577911317 0.73039645 0.385751188
vn -0.926944673 -0.055991333 0.512037277
vn -0.335057735 -0.279077113 -0.901957512
vn 0.485726684 -0.771831214 -0.449069291
vn -0.0861939639 -0.879211068 -0.522663414
vn 0.349701345 -0.321121275 -0.887200832
vn 0.727598667 0.249093041 -0.615990162
vn 0.740777075 -0.394179106 -0.554732919
vn 0.522158742 0.847257197 0.0453172959
vn 0.477558553 0.75417769 -0.476171821
vn -0.234916851 0.967534244 0.0125714559
vn 0.727598667 0.249093041 -0.615990162
vn 0.477558553 0.75417769 -0.476171821
vn 0.522158742 0.847257197 0.0453172959
vn -0.274957567 0.922428906 -0.330773592
vn -0.593122721 0.778499782 -0.177025124
vn -0.234916851 0.967534244 0.0125714559
vn -0.032527294 -0.286551625 0.956982613
vn 0.487598151 0.481848538 0.793310523
vn -0.122464277 0.904854238 0.436557949
vn 0.740777075 -0.394179106 -0.554732919
vn 0.727598667 0.249093041 -0.615990162
vn 0.950230896 0.296154588 -0.137382805
vn -0.926944673 -0.055991333 0.512037277
vn -0.704088151 0.707791328 0.226687759
vn -0.593122721 0.778499782 -0.177025124
vn -0.926944673 -0.055991333 0.512037277
vn -0.95062834 -0.245555013 -0.333324701
vn -0.774791658 -0.639484525 0.100110017
vn -0.395469815 0.789099932 0.486148983
vn -0.57062 0.0984679386 0.850227177
vn -0.348706603 0.136560619 0.933705866
vn -0.321561068 -0.516335964 0.802442789
vn -0.237654775 -0.778205752 0.581305504
vn -0.032527294 -0.286551625 0.956982613
vn -0.338280231 0.423449755 -0.841167271
vn 0.187562451 0.585609972 -0.830474675
vn 0.0724880248 0.224417746 -0.985424697
vn 0.0724880248 0.224417746 -0.985424697
vn 0.187562451 0.585609972 -0.830474675
vn 0.727598667 0.249093041 -0.615990162
vn -0.926944673 -0.055991333 0.512037277
vn -0.577911317 0.73039645 0.385751188
vn -0.704088151 0.707791328 0.226687759
vn -0.234916851 0.967534244 0.0125714559
vn -0.236460119 0.974445403 0.0500827618
vn -0.176880553 0.972327828 0.152616784
vn -0.577911317 0.73039645 0.385751188
vn -0.57062 0.0984679386 0.850227177
vn -0.395469815 0.789099932 0.486148983
vn -0.577911317 0.73039645 0.385751188
vn -0.395469815 0.789099932 0.486148983
vn -0.176880553 0.972327828 0.152616784
vn 0.233129844 0.908881962 0.345511556
vn 0.818354309 0.419856459 0.397728533
vn 0.719628811 0.710215151 0.0899755582
vn -0.560096025 -0.723885655 -0.3947559
vn -0.95062834 -0.245555013 -0.333324701
vn -0.553105116 -0.0719437599 -0.850359142
vn -0.774791658 -0.639484525 0.100110017
vn -0.95062834 -0.245555013 -0.333324701
vn -0.560096025 -0.723885655 -0.3947559
vn 0.950230896 0.296154588 -0.137382805
vn 0.719628811 0.710215151 0.0899755582
vn 0.994964123 0.000902357686 0.151229069
vn -0.274957567 0.922428906 -0.330773592
vn -0.628416955 0.568850577 -0.55385673
vn -0.593122721 0.778499782 -0.177025124
vn -0.593122721 0.778499782 -0.177025124
vn -0.628416955 0.568850577 -0.55385673
vn -0.95062834 -0.245555013 -0.333324701
vn -0.146875843 0.964992583 0.217294261
vn -0.234916851 0.967534244 0.0125714559
vn -0.176880553 0.972327828 0.152616784
vn -0.176880553 0.972327828 0.152616784
vn -0.395469815 0.789099932 0.486148983
vn -0.146875843 0.964992583 0.217294261
vn -0.0861939639 -0.879211068 -0.522663414
vn -0.553105116 -0.0719437599 -0.850359142
vn -0.335057735 -0.279077113 -0.901957512
vn 0.487598151 0.481848538 0.793310523
vn 0.233129844 0.908881962 0.345511556
vn -0.122464277 0.904854238 0.436557949
vn 0.905937374 0.0286630262 0.433258086
vn 0.912033319 -0.297898829 0.315121949
vn 0.994964123 0.000902357686 0.151229069
vn 0.727598667 0.249093041 -0.615990162
vn 0.187562451 0.585609972 -0.830474675
vn 0.477558553 0.75417769 -0.476171821
vn -0.032527294 -0.286551625 0.956982613
vn 0.135193229 -0.600643456 0.788003922
vn 0.67373234 -0.444920093 0.610199392
vn -0.032527294 -0.286551625 0.956982613
vn -0.237654775 -0.778205752 0.581305504
vn 0.135193229 -0.600643456 0.788003922
vn -0.926944673 -0.055991333 0.512037277
vn -0.593122721 0.778499782 -0.177025124
vn -0.95062834 -0.245555013 -0.333324701
vn 0.477558553 0.75417769 -0.476171821
vn -0.274957567 0.922428906 -0.330773592
vn -0.234916851 0.967534244 0.0125714559
vn 0.813973784 -0.570532024 -0.11406602
vn 0.964852214 -0.196911708 -0.206764728
vn 0.994964123 0.000902357686 0.151229069
vn 0.233129844 0.908881962 0.345511556
vn 0.719628811 0.710215151 0.0899755582
vn 0.522158742 0.847257197 0.0453172959
vn 0.964852214 -0.196911708 -0.206764728
vn 0.950230896 0.296154588 -0.137382805
vn 0.994964123 0.000902357686 0.151229069
vn -0.234916851 0.967534244 0.0125714559
vn -0.704088151 0.707791328 0.226687759
vn -0.236460119 0.974445403 0.0500827618
vn 0.67373234 -0.444920093 0.610199392
vn 0.912033319 -0.297898829 0.315121949
vn 0.905937374 0.0286630262 0.433258086
vn 0.0724880248 0.224417746 -0.985424697
vn -0.335057735 -0.279077113 -0.901957512
vn -0.338280231 0.423449755 -0.841167271
vn -0.335057735 -0.279077113 -0.901957512
vn 0.349701345 -0.321121275 -0.887200832
vn 0.485726684 -0.771831214 -0.449069291
vn 0.349701345 -0.321121275 -0.887200832
vn -0.335057735 -0.279077113 -0.901957512
vn 0.0724880248 0.224417746 -0.985424697
vn -0.032527294 -0.286551625 0.956982613
vn 0.67373234 -0.444920093 0.610199392
vn 0.487598151 0.481848538 0.793310523
vn 0.719628811 0.710215151 0.0899755582
vn 0.818354309 0.419856459 0.397728533
vn 0.994964123 0.000902357686 0.151229069
vn 0.818354309 0.419856459 0.397728533
vn 0.905937374 0.0286630262 0.433258086
vn 0.994964123 0.000902357686 0.151229069
vn -0.348706603 0.136560619 0.933705866
vn -0.321561068 -0.516335964 0.802442789
vn -0.032527294 -0.286551625 0.956982613
vn 0.477558553 0.75417769 -0.476171821
vn 0.187562451 0.585609972 -0.830474675
vn -0.274957567 0.922428906 -0.330773592
vn 0.964852214 -0.196911708 -0.206764728
vn 0.813973784 -0.570532024 -0.11406602
vn 0.740777075 -0.394179106 -0.554732919
vn 0.485726684 -0.771831214 -0.449069291
vn 0.349701345 -0.321121275 -0.887200832
vn 0.740777075 -0.394179106 -0.554732919
vn 0.818354309 0.419856459 0.397728533
vn 0.67373234 -0.444920093 0.610199392
vn 0.905937374 0.0286630262 0.433258086
vn 0.487598151 0.481848538 0.793310523
vn 0.67373234 -0.444920093 0.610199392
vn 0.818354309 0.419856459 0.397728533
vn 0.378521681 -0.911037683 0.157623708
vn -0.139634058 -0.985137403 -0.100033343
vn 0.180401519 -0.961972475 -0.0963972136
vn 0.180401519 -0.961972475 -0.0963972136
vn 0.813973784 -0.570532024 -0.11406602
vn 0.378521681 -0.911037683 0.157623708
vn -0.560096025 -0.723885655 -0.3947559
vn -0.0861939639 -0.879211068 -0.522663414
vn -0.388246119 -0.908763409 -0.160777479
vn 0.139931917 -0.91075778 0.443401605
vn -0.251874417 -0.909445941 0.339542568
vn 0.269174188 -0.926559091 0.380115092
vn 0.912033319 -0.297898829 0.315121949
vn 0.378521681 -0.911037683 0.157623708
vn 0.813973784 -0.570532024 -0.11406602
vn -0.139634058 -0.985137403 -0.100033343
vn 0.269174188 -0.926559091 0.380115092
vn -0.251874417 -0.909445941 0.339542568
vn -0.774791658 -0.639484525 0.100110017
vn -0.560096025 -0.723885655 -0.3947559
vn -0.388246119 -0.908763409 -0.160777479
vn 0.67373234 -0.444920093 0.610199392
vn 0.139931917 -0.91075778 0.443401605
vn 0.269174188 -0.926559091 0.380115092
vn 0.180401519 -0.961972475 -0.0963972136
vn 0.485726684 -0.771831214 -0.449069291
vn 0.813973784 -0.570532024 -0.11406602
vn -0.388246119 -0.908763409 -0.160777479
vn -0.251874417 -0.909445941 0.339542568
vn -0.774791658 -0.639484525 0.100110017
vn -0.656750858 -0.576437354 0.555454254
vn -0.57062 0.0984679386 0.850227177
vn -0.926944673 -0.055991333 0.512037277
vn -0.139634058 -0.985137403 -0.100033343
vn 0.378521681 -0.911037683 0.157623708
vn 0.269174188 -0.926559091 0.380115092
vn 0.378521681 -0.911037683 0.157623708
vn 0.67373234 -0.444920093 0.610199392
vn 0.269174188 -0.926559091 0.380115092
vn 0.139931917 -0.91075778 0.443401605
vn -0.237654775 -0.778205752 0.581305504
vn -0.251874417 -0.909445941 0.339542568
vn -0.388246119 -0.908763409 -0.160777479
vn -0.139634058 -0.985137403 -0.100033343
vn -0.251874417 -0.909445941 0.339542568
vn -0.388246119 -0.908763409 -0.160777479
vn 0.180401519 -0.961972475 -0.0963972136
vn -0.139634058 -0.985137403 -0.100033343
vn 0.912033319 -0.297898829 0.315121949
vn 0.67373234 -0.444920093 0.610199392
vn 0.378521681 -0.911037683 0.157623708
vn -0.321561068 -0.516335964 0.802442789
vn -0.57062 0.0984679386 0.850227177
vn -0.656750858 -0.576437354 0.555454254
vn -0.321561068 -0.516335964 0.802442789
vn -0.656750858 -0.576437354 0.555454254
vn -0.237654775 -0.778205752 0.581305504
vn -0.656750858 -0.576437354 0.555454254
vn -0.251874417 -0.909445941 0.339542568
vn -0.237654775 -0.778205752 0.581305504
vn -0.774791658 -0.639484525 0.100110017
vn -0.656750858 -0.576437354 0.555454254
vn -0.926944673 -0.055991333 0.512037277
vn -0.388246119 -0.908763409 -0.160777479
vn -0.0861939639 -0.879211068 -0.522663414
vn 0.180401519 -0.961972475 -0.0963972136
vn -0.0861939639 -0.879211068 -0.522663414
vn 0.485726684 -0.771831214 -0.449069291
vn 0.180401519 -0.961972475 -0.0963972136
vn -0.251874417 -0.909445941 0.339542568
vn -0.656750858 -0.576437354 0.555454254
vn -0.774791658 -0.639484525 0.100110017
g ScatterSharp_01_LOD0
f 3/1/1 4/2/2 5/3/3
f 6/4/4 7/5/5 8/6/6
f 14/7/7 15/8/8 16/9/9
f 17/10/10 12/11/11 18/12/12
f 19/13/13 20/14/14 6/15/15
f 21/16/16 22/17/17 23/18/18
f 24/19/19 9/20/20 25/21/21
f 5/22/22 28/23/23 29/24/24
f 16/25/25 17/26/26 18/27/27
f 30/28/28 31/29/29 32/30/30
f 10/31/31 1/32/32 25/33/33
f 25/34/34 1/35/35 35/36/36
f 5/37/37 4/38/38 28/39/39
f 20/40/40 2/41/41 36/42/42
f 26/43/43 5/44/44 29/45/45
f 35/46/46 1/47/47 19/48/48
f 20/49/49 19/50/50 1/51/51
f 20/52/52 17/53/53 6/54/54
f 40/55/55 39/56/56 41/57/57
f 41/58/58 42/59/59 40/60/60
f 37/61/61 28/62/62 4/63/63
f 34/64/64 4/65/65 33/66/66
f 21/67/67 8/68/68 22/69/69
f 45/70/70 31/71/71 18/72/72
f 43/73/73 32/74/74 13/75/75
f 24/76/76 22/77/77 11/78/78
f 3/79/79 30/80/80 33/81/81
f 14/82/82 16/83/83 31/84/84
f 17/85/85 27/86/86 6/87/87
f 16/88/88 27/89/89 17/90/90
f 29/91/91 7/92/92 6/93/93
f 10/94/94 2/95/95 1/96/96
f 31/97/97 16/98/98 18/99/99
f 11/100/100 8/101/101 7/102/102
f 11/103/103 37/104/104 38/105/105
f 35/106/106 24/107/107 25/108/108
f 9/109/109 42/110/110 10/111/111
f 5/112/112 26/113/113 15/114/114
f 15/115/115 26/116/116 16/117/117
f 11/118/118 22/119/119 8/120/120
f 6/121/121 21/122/122 23/123/123
f 22/124/124 24/125/125 35/126/126
f 22/127/127 35/128/128 23/129/129
f 20/130/130 36/131/131 12/132/132
f 34/133/133 37/134/134 4/135/135
f 38/136/136 37/137/137 34/138/138
f 18/139/139 12/140/140 13/141/141
f 29/142/142 28/143/143 7/144/144
f 7/145/145 28/146/146 37/147/147
f 19/148/148 6/149/149 23/150/150
f 23/151/151 35/152/152 19/153/153
f 33/154/154 4/155/155 3/156/156
f 2/157/157 20/158/158 1/159/159
f 44/160/160 43/161/161 13/162/162
f 16/163/163 26/164/164 27/165/165
f 10/166/166 41/167/167 39/168/168
f 10/169/169 42/170/170 41/171/171
f 11/172/172 7/173/173 37/174/174
f 27/175/175 29/176/176 6/177/177
f 32/178/178 45/179/179 13/180/180
f 20/181/181 12/182/182 17/183/183
f 45/184/184 18/185/185 13/186/186
f 6/187/187 8/188/188 21/189/189
f 39/190/190 43/191/191 44/192/192
f 15/193/193 3/194/194 5/195/195
f 3/196/196 14/197/197 30/198/198
f 14/199/199 3/200/200 15/201/201
f 10/202/202 39/203/203 2/204/204
f 12/205/205 36/206/206 13/207/207
f 36/208/208 44/209/209 13/210/210
f 25/211/211 9/212/212 10/213/213
f 27/214/214 26/215/215 29/216/216
f 45/217/217 32/218/218 31/219/219
f 30/220/220 14/221/221 31/222/222
f 36/223/223 39/224/224 44/225/225
f 2/226/226 39/227/227 36/228/228
f 47/229/229 48/230/230 49/231/231
f 49/232/232 32/233/233 47/234/234
f 34/235/235 33/236/236 50/237/237
f 40/238/238 51/239/239 52/240/240
f 43/241/241 47/242/242 32/243/243
f 48/244/244 52/245/245 51/246/246
f 38/247/247 34/248/248 50/249/249
f 39/250/250 40/251/251 52/252/252
f 49/253/253 30/254/254 32/255/255
f 50/256/256 51/257/257 38/258/258
f 46/259/259 24/260/260 11/261/261
f 48/262/262 47/263/263 52/264/264
f 47/265/265 39/266/266 52/267/267
f 40/268/268 42/269/269 51/270/270
f 50/271/271 48/272/272 51/273/273
f 50/274/274 49/275/275 48/276/276
f 43/277/277 39/278/278 47/279/279
f 9/280/280 24/281/281 46/282/282
f 9/283/283 46/284/284 42/285/285
f 46/286/286 51/287/287 42/288/288
f 38/289/289 46/290/290 11/291/291
f 50/292/292 33/293/293 49/294/294
f 33/295/295 30/296/296 49/297/297
f 51/298/298 46/299/299 38/300/300
