# File exported by Houdini 16.5.405 (www.sidefx.com)
# 19 points
# 102 vertices
# 34 primitives
# Bounds: [-10.4050779, -0.168682471, -6.71150827] to [10.9337959, 11.4684448, 6.93780088]
g 
v -10.0694466 7.34042835 -5.19566345
v -10.2210922 3.06928039 -1.58220589
v 10.7638235 7.4850111 2.55780578
v 6.02519989 0.617460668 3.45863914
v 6.7734642 11.4684448 -2.76254845
v 6.36505938 10.2426481 2.42199469
v 6.90956306 5.48199081 6.16445589
v 3.77251697 0.779579759 6.14185905
v 2.73391867 3.76135254 6.93780088
v -5.05244112 9.44822407 -4.25060701
v 5.95485735 10.6698704 -5.22726965
v 2.07188916 6.05576277 -6.71150827
v 10.9337959 9.97721672 -2.1503067
v 10.821497 4.90886784 -4.18615055
v -10.4050779 4.14734793 -5.90755796
v -0.35253942 3.71861744 -6.68853045
v 9.75954723 10.1003304 1.39718688
v -7.63161373 0.881358862 -1.06692123
v -6.21225166 -0.168682471 -4.2064724
vt 0.549401045 0.36592707 0
vt 0.727384448 0.219277754 0
vt 0.739730954 0.262148649 0
vt 0.292363048 0.777741373 0
vt 0.15042688 0.705561817 0
vt 0.230871975 0.672802567 0
vt 0.230871975 0.672802567 0
vt 0.15042688 0.705561817 0
vt 0.104368463 0.613037884 0
vt 0.549401045 0.36592707 0
vt 0.565755844 0.443456918 0
vt 0.514852285 0.427332282 0
vt 0.292363048 0.777741373 0
vt 0.280042946 0.663065135 0
vt 0.370668858 0.782377601 0
vt 0.0821457282 0.688745558 0
vt 0.124060698 0.727888107 0
vt 0.0433715209 0.721951723 0
vt 0.809021831 0.35628289 0
vt 0.644515932 0.444760472 0
vt 0.565755844 0.443456918 0
vt 0.818282127 0.432679683 0
vt 0.644515932 0.444760472 0
vt 0.809021831 0.35628289 0
vt 0.0433715209 0.721951723 0
vt 0.00926169474 0.681342959 0
vt 0.0821457282 0.688745558 0
vt 0.374956578 0.369545847 0
vt 0.294955879 0.391027391 0
vt 0.303247809 0.342030972 0
vt 0.292363048 0.777741373 0
vt 0.230871975 0.672802567 0
vt 0.280042946 0.663065135 0
vt 0.0821457282 0.688745558 0
vt 0.15042688 0.705561817 0
vt 0.124060698 0.727888107 0
vt 0.303247809 0.342030972 0
vt 0.338313371 0.208309472 0
vt 0.409890532 0.293521732 0
vt 0.565755844 0.443456918 0
vt 0.739730954 0.262148649 0
vt 0.809021831 0.35628289 0
vt 0.801778793 0.270106584 0
vt 0.859648228 0.360246599 0
vt 0.809021831 0.35628289 0
vt 0.801778793 0.270106584 0
vt 0.809021831 0.35628289 0
vt 0.739730954 0.262148649 0
vt 0.00926169474 0.681342959 0
vt 0.104368463 0.613037884 0
vt 0.0821457282 0.688745558 0
vt 0.809021831 0.35628289 0
vt 0.859648228 0.360246599 0
vt 0.818282127 0.432679683 0
vt 0.739730954 0.262148649 0
vt 0.727384448 0.219277754 0
vt 0.801778793 0.270106584 0
vt 0.15042688 0.705561817 0
vt 0.0821457282 0.688745558 0
vt 0.104368463 0.613037884 0
vt 0.859648228 0.360246599 0
vt 0.801778793 0.270106584 0
vt 0.874854624 0.317070544 0
vt 0.374956578 0.369545847 0
vt 0.303247809 0.342030972 0
vt 0.409890532 0.293521732 0
vt 0.565755844 0.443456918 0
vt 0.549401045 0.36592707 0
vt 0.739730954 0.262148649 0
vt 0.15042688 0.705561817 0
vt 0.292363048 0.777741373 0
vt 0.124060698 0.727888107 0
vt 0.100837409 0.364356518 0
vt 0.107518397 0.319911331 0
vt 0.294955879 0.391027391 0
vt 0.294955879 0.391027391 0
vt 0.107518397 0.319911331 0
vt 0.303247809 0.342030972 0
vt 0.107518397 0.319911331 0
vt 0.100837409 0.364356518 0
vt 0.0464772396 0.368865162 0
vt 0.549401045 0.36592707 0
vt 0.559958398 0.319095343 0
vt 0.727384448 0.219277754 0
vt 0.107518397 0.319911331 0
vt 0.0249754973 0.295978844 0
vt 0.165994555 0.234500527 0
vt 0.0464772396 0.368865162 0
vt 0.0249754973 0.295978844 0
vt 0.107518397 0.319911331 0
vt 0.107518397 0.319911331 0
vt 0.165994555 0.234500527 0
vt 0.303247809 0.342030972 0
vt 0.303247809 0.342030972 0
vt 0.202382356 0.201302797 0
vt 0.338313371 0.208309472 0
vt 0.370668858 0.782377601 0
vt 0.280042946 0.663065135 0
vt 0.398307174 0.747735262 0
vt 0.202382356 0.201302797 0
vt 0.303247809 0.342030972 0
vt 0.165994555 0.234500527 0
vn -0.68766892 0.00233320007 0.663245261
vn -0.0759607255 -0.726033866 0.633203685
vn -0.430917323 0.311117232 0.881316185
vn -0.162955567 0.800776362 -0.441734284
vn 0.0204947479 0.602975667 -0.783567607
vn 0.0777171999 -0.379263043 -0.85099858
vn 0.0777171999 -0.379263043 -0.85099858
vn 0.0204947479 0.602975667 -0.783567607
vn 0.431575209 -0.548422396 -0.630327702
vn -0.68766892 0.00233320007 0.663245261
vn -0.482236415 0.807306588 0.211153612
vn -0.611967504 -0.250697255 -0.746409237
vn -0.162955567 0.800776362 -0.441734284
vn 0.333203495 -0.398925006 -0.830010414
vn -0.482236415 0.807306588 0.211153612
vn 0.86418885 0.687268615 -0.350109309
vn -0.0231386255 1.02845109 0.100308895
vn 0.423961192 0.892744958 0.416227847
vn -0.186951429 0.875786006 0.576786876
vn -0.162955567 0.800776362 -0.441734284
vn -0.482236415 0.807306588 0.211153612
vn -0.0231386255 1.02845109 0.100308895
vn -0.162955567 0.800776362 -0.441734284
vn -0.186951429 0.875786006 0.576786876
vn 0.423961192 0.892744958 0.416227847
vn 0.891688645 0.00261746161 0.504545629
vn 0.86418885 0.687268615 -0.350109309
vn 0.564019859 -0.14202629 0.840445638
vn -0.0759607255 -0.726033866 0.633203685
vn 0.338519335 -0.840275884 -0.0800841227
vn -0.162955567 0.800776362 -0.441734284
vn 0.0777171999 -0.379263043 -0.85099858
vn 0.333203495 -0.398925006 -0.830010414
vn 0.86418885 0.687268615 -0.350109309
vn 0.0204947479 0.602975667 -0.783567607
vn -0.0231386255 1.02845109 0.100308895
vn 0.338519335 -0.840275884 -0.0800841227
vn 0.431575209 -0.548422396 -0.630327702
vn 0.891688645 0.00261746161 0.504545629
vn -0.482236415 0.807306588 0.211153612
vn -0.430917323 0.311117232 0.881316185
vn -0.186951429 0.875786006 0.576786876
vn 0.564019859 -0.14202629 0.840445638
vn 0.423961192 0.892744958 0.416227847
vn -0.186951429 0.875786006 0.576786876
vn 0.564019859 -0.14202629 0.840445638
vn -0.186951429 0.875786006 0.576786876
vn -0.430917323 0.311117232 0.881316185
vn 0.891688645 0.00261746161 0.504545629
vn 0.431575209 -0.548422396 -0.630327702
vn 0.86418885 0.687268615 -0.350109309
vn -0.186951429 0.875786006 0.576786876
vn 0.423961192 0.892744958 0.416227847
vn -0.0231386255 1.02845109 0.100308895
vn -0.430917323 0.311117232 0.881316185
vn -0.0759607255 -0.726033866 0.633203685
vn 0.564019859 -0.14202629 0.840445638
vn 0.0204947479 0.602975667 -0.783567607
vn 0.86418885 0.687268615 -0.350109309
vn 0.431575209 -0.548422396 -0.630327702
vn 0.423961192 0.892744958 0.416227847
vn 0.564019859 -0.14202629 0.840445638
vn 0.891688645 0.00261746161 0.504545629
vn 0.564019859 -0.14202629 0.840445638
vn 0.338519335 -0.840275884 -0.0800841227
vn 0.891688645 0.00261746161 0.504545629
vn -0.482236415 0.807306588 0.211153612
vn -0.68766892 0.00233320007 0.663245261
vn -0.430917323 0.311117232 0.881316185
vn 0.0204947479 0.602975667 -0.783567607
vn -0.162955567 0.800776362 -0.441734284
vn -0.0231386255 1.02845109 0.100308895
vn -0.390354425 -0.847508788 0.332189828
vn -0.0646670014 -0.966081679 -0.373455018
vn -0.0759607255 -0.726033866 0.633203685
vn -0.0759607255 -0.726033866 0.633203685
vn -0.0646670014 -0.966081679 -0.373455018
vn 0.338519335 -0.840275884 -0.0800841227
vn -0.0646670014 -0.966081679 -0.373455018
vn -0.390354425 -0.847508788 0.332189828
vn -0.68766892 0.00233320007 0.663245261
vn -0.68766892 0.00233320007 0.663245261
vn -0.390354425 -0.847508788 0.332189828
vn -0.0759607255 -0.726033866 0.633203685
vn -0.0646670014 -0.966081679 -0.373455018
vn -0.611967504 -0.250697255 -0.746409237
vn 0.333203495 -0.398925006 -0.830010414
vn -0.68766892 0.00233320007 0.663245261
vn -0.611967504 -0.250697255 -0.746409237
vn -0.0646670014 -0.966081679 -0.373455018
vn -0.0646670014 -0.966081679 -0.373455018
vn 0.333203495 -0.398925006 -0.830010414
vn 0.338519335 -0.840275884 -0.0800841227
vn 0.338519335 -0.840275884 -0.0800841227
vn 0.0777171999 -0.379263043 -0.85099858
vn 0.431575209 -0.548422396 -0.630327702
vn -0.482236415 0.807306588 0.211153612
vn 0.333203495 -0.398925006 -0.830010414
vn -0.611967504 -0.250697255 -0.746409237
vn 0.0777171999 -0.379263043 -0.85099858
vn 0.338519335 -0.840275884 -0.0800841227
vn 0.333203495 -0.398925006 -0.830010414
g ScatterSharp_02_LOD0
f 2/1/1 8/2/2 9/3/3
f 10/4/4 11/5/5 12/6/6
f 12/7/7 11/8/8 14/9/9
f 2/10/10 1/11/11 15/12/12
f 10/13/13 16/14/14 1/15/15
f 13/16/16 5/17/17 17/18/18
f 6/19/19 10/20/20 1/21/21
f 5/22/22 10/23/23 6/24/24
f 17/25/25 3/26/26 13/27/27
f 7/28/28 8/29/29 4/30/30
f 10/31/31 12/32/32 16/33/33
f 13/34/34 11/35/35 5/36/36
f 4/37/37 14/38/38 3/39/39
f 1/40/40 9/41/41 6/42/42
f 7/43/43 17/44/44 6/45/45
f 7/46/46 6/47/47 9/48/48
f 3/49/49 14/50/50 13/51/51
f 6/52/52 17/53/53 5/54/54
f 9/55/55 8/56/56 7/57/57
f 11/58/58 13/59/59 14/60/60
f 17/61/61 7/62/62 3/63/63
f 7/64/64 4/65/65 3/66/66
f 1/67/67 2/68/68 9/69/69
f 11/70/70 10/71/71 5/72/72
f 18/73/73 19/74/74 8/75/75
f 8/76/76 19/77/77 4/78/78
f 19/79/79 18/80/80 2/81/81
f 2/82/82 18/83/83 8/84/84
f 19/85/85 15/86/86 16/87/87
f 2/88/88 15/89/89 19/90/90
f 19/91/91 16/92/92 4/93/93
f 4/94/94 12/95/95 14/96/96
f 1/97/97 16/98/98 15/99/99
f 12/100/100 4/101/101 16/102/102
