# File exported by Houdini 16.5.405 (www.sidefx.com)
# 20 points
# 108 vertices
# 36 primitives
# Bounds: [-11.1376305, -0.33182925, -8.49295425] to [11.9972029, 10.5375004, 8.45397186]
g 
v 7.33083439 10.5375004 4.45618248
v -0.790617406 9.3840704 6.82241917
v 1.70788383 6.2999773 -8.49295425
v 11.1168413 5.04303837 -2.51971626
v 1.55106592 3.35922623 -8.27013397
v -1.46713579 6.79694033 -8.07968712
v -10.083993 5.96219921 -1.10958433
v -5.08315659 4.68221951 8.45397186
v 2.24441195 9.57207012 -5.14622402
v -8.09023571 8.33741665 2.83360267
v -11.1376305 4.72982168 4.03708935
v 10.9462738 7.53657007 4.31810999
v 11.2362728 9.57604408 0.485335112
v 1.80988252 -0.33182925 -4.42521429
v -1.8341701 1.66232038 -5.09825945
v -10.6392164 3.87380314 0.700213134
v 11.9972029 6.08160543 0.798374593
v 3.28415203 3.2111783 6.57681561
v 7.82755041 2.41026402 -4.97326803
v 7.91999054 2.04240537 2.4477613
vt 0.151441216 0.405106694 0
vt 0.0221836343 0.494401664 0
vt 0.125131324 0.368924081 0
vt 0.705554307 0.814222038 0
vt 0.716125727 0.892820835 0
vt 0.536176682 0.908063352 0
vt 0.301272869 0.807472944 0
vt 0.394979149 0.776328146 0
vt 0.347157955 0.862280846 0
vt 0.111007541 0.61506927 0
vt 0.0562960729 0.560014725 0
vt 0.166728675 0.470827967 0
vt 0.394979149 0.776328146 0
vt 0.459023118 0.840181172 0
vt 0.347157955 0.862280846 0
vt 0.231575534 0.633615673 0
vt 0.111007541 0.61506927 0
vt 0.32911709 0.563527882 0
vt 0.0562960729 0.560014725 0
vt 0.0221836343 0.494401664 0
vt 0.151441216 0.405106694 0
vt 0.151441216 0.405106694 0
vt 0.20154129 0.395617187 0
vt 0.166728675 0.470827967 0
vt 0.536176682 0.908063352 0
vt 0.716125727 0.892820835 0
vt 0.583790302 0.959894478 0
vt 0.720878422 0.978065014 0
vt 0.716125727 0.892820835 0
vt 0.773088813 0.92159915 0
vt 0.166728675 0.470827967 0
vt 0.32911709 0.563527882 0
vt 0.111007541 0.61506927 0
vt 0.583790302 0.959894478 0
vt 0.720878422 0.978065014 0
vt 0.566889107 0.993361235 0
vt 0.583790302 0.959894478 0
vt 0.515368581 0.985321105 0
vt 0.536176682 0.908063352 0
vt 0.566889107 0.993361235 0
vt 0.515368581 0.985321105 0
vt 0.583790302 0.959894478 0
vt 0.149915814 0.168199152 0
vt 0.140887305 0.239182219 0
vt 0.0642378405 0.165417865 0
vt 0.0221836343 0.494401664 0
vt 0.0391792096 0.426250041 0
vt 0.125131324 0.368924081 0
vt 0.0562960729 0.560014725 0
vt 0.151441216 0.405106694 0
vt 0.166728675 0.470827967 0
vt 0.773088813 0.92159915 0
vt 0.716125727 0.892820835 0
vt 0.758207977 0.878606856 0
vt 0.149915814 0.168199152 0
vt 0.343341827 0.140505418 0
vt 0.199426904 0.191774324 0
vt 0.199426904 0.191774324 0
vt 0.140887305 0.239182219 0
vt 0.149915814 0.168199152 0
vt 0.586066246 0.852484941 0
vt 0.459023118 0.840181172 0
vt 0.394979149 0.776328146 0
vt 0.0562960729 0.560014725 0
vt 0.0314856917 0.613950253 0
vt 0.00966468919 0.552057743 0
vt 0.586066246 0.852484941 0
vt 0.394979149 0.776328146 0
vt 0.635182202 0.802490413 0
vt 0.0314856917 0.613950253 0
vt 0.0562960729 0.560014725 0
vt 0.111007541 0.61506927 0
vt 0.720878422 0.978065014 0
vt 0.583790302 0.959894478 0
vt 0.716125727 0.892820835 0
vt 0.0226856098 -0.00152468449 0
vt 0.0872780979 0.065976724 0
vt 0.00525968149 0.0591979325 0
vt 0.0226856098 -0.00152468449 0
vt 0.160826162 0.0117905699 0
vt 0.0872780979 0.065976724 0
vt 0.0562960729 0.560014725 0
vt 0.00966468919 0.552057743 0
vt 0.0221836343 0.494401664 0
vt 0.160826162 0.0117905699 0
vt 0.292018324 0.00482188165 0
vt 0.149915814 0.168199152 0
vt 0.365260661 0.0919430405 0
vt 0.343341827 0.140505418 0
vt 0.149915814 0.168199152 0
vt 0.292018324 0.00482188165 0
vt 0.365260661 0.0919430405 0
vt 0.149915814 0.168199152 0
vt 0.0872780979 0.065976724 0
vt 0.160826162 0.0117905699 0
vt 0.149915814 0.168199152 0
vt 0.149915814 0.168199152 0
vt 0.0642378405 0.165417865 0
vt 0.0872780979 0.065976724 0
vt 0.0642378405 0.165417865 0
vt 0.00525968149 0.0591979325 0
vt 0.0872780979 0.065976724 0
vt 0.635182202 0.802490413 0
vt 0.394979149 0.776328146 0
vt 0.513200581 0.743391097 0
vt 0.0642378405 0.165417865 0
vt 0.00769844092 0.113311321 0
vt 0.00525968149 0.0591979325 0
vn 0.249656618 0.230789632 -0.955815494
vn 0.856144845 -0.171458974 -0.59743458
vn 0.0826492161 -0.332319558 -0.936467886
vn -0.0106409751 0.955000579 -0.367623657
vn -0.390626103 0.352229685 -0.843549967
vn -0.351352066 0.946090341 -0.0338733457
vn -0.659952044 -0.418913901 0.438287318
vn -0.156866938 -0.354171097 0.843381822
vn -0.351352066 0.946090341 -0.0338733457
vn 0.136431381 0.946326077 0.349743187
vn 0.602821469 0.793712556 -0.29633534
vn -0.0106409751 0.955000579 -0.367623657
vn -0.156866938 -0.354171097 0.843381822
vn -0.173576027 0.911319971 0.302778393
vn -0.351352066 0.946090341 -0.0338733457
vn -0.173576027 0.911319971 0.302778393
vn 0.136431381 0.946326077 0.349743187
vn -0.351352066 0.946090341 -0.0338733457
vn 0.602821469 0.793712556 -0.29633534
vn 0.856144845 -0.171458974 -0.59743458
vn 0.249656618 0.230789632 -0.955815494
vn 0.249656618 0.230789632 -0.955815494
vn -0.390626103 0.352229685 -0.843549967
vn -0.0106409751 0.955000579 -0.367623657
vn -0.351352066 0.946090341 -0.0338733457
vn -0.390626103 0.352229685 -0.843549967
vn -0.728608072 0.378288656 -0.58436507
vn -0.404218197 -0.758881152 -0.579778552
vn -0.390626103 0.352229685 -0.843549967
vn 0.0826492161 -0.332319558 -0.936467886
vn -0.0106409751 0.955000579 -0.367623657
vn -0.351352066 0.946090341 -0.0338733457
vn 0.136431381 0.946326077 0.349743187
vn -0.728608072 0.378288656 -0.58436507
vn -0.404218197 -0.758881152 -0.579778552
vn -0.576772988 -0.821936607 -0.256766707
vn -0.728608072 0.378288656 -0.58436507
vn -0.659952044 -0.418913901 0.438287318
vn -0.351352066 0.946090341 -0.0338733457
vn -0.576772988 -0.821936607 -0.256766707
vn -0.659952044 -0.418913901 0.438287318
vn -0.728608072 0.378288656 -0.58436507
vn -0.112514399 -0.995723665 -0.163914278
vn 0.0826492161 -0.332319558 -0.936467886
vn 0.586144626 -0.542098343 -0.655248225
vn 0.856144845 -0.171458974 -0.59743458
vn 0.586144626 -0.542098343 -0.655248225
vn 0.0826492161 -0.332319558 -0.936467886
vn 0.602821469 0.793712556 -0.29633534
vn 0.249656618 0.230789632 -0.955815494
vn -0.0106409751 0.955000579 -0.367623657
vn 0.0826492161 -0.332319558 -0.936467886
vn -0.390626103 0.352229685 -0.843549967
vn 0.249656618 0.230789632 -0.955815494
vn -0.112514399 -0.995723665 -0.163914278
vn -0.576772988 -0.821936607 -0.256766707
vn -0.404218197 -0.758881152 -0.579778552
vn -0.404218197 -0.758881152 -0.579778552
vn 0.0826492161 -0.332319558 -0.936467886
vn -0.112514399 -0.995723665 -0.163914278
vn 0.136431381 0.946326077 0.349743187
vn -0.173576027 0.911319971 0.302778393
vn -0.156866938 -0.354171097 0.843381822
vn 0.602821469 0.793712556 -0.29633534
vn 0.621229231 -0.0197374783 0.846141338
vn 0.939324379 -0.369364321 0.224841505
vn 0.136431381 0.946326077 0.349743187
vn -0.156866938 -0.354171097 0.843381822
vn 0.621229231 -0.0197374783 0.846141338
vn 0.621229231 -0.0197374783 0.846141338
vn 0.602821469 0.793712556 -0.29633534
vn 0.136431381 0.946326077 0.349743187
vn -0.404218197 -0.758881152 -0.579778552
vn -0.728608072 0.378288656 -0.58436507
vn -0.390626103 0.352229685 -0.843549967
vn 0.621229231 -0.0197374783 0.846141338
vn 0.40753904 -0.872193158 0.400592208
vn 0.939324379 -0.369364321 0.224841505
vn 0.621229231 -0.0197374783 0.846141338
vn 0.150683269 -0.749990463 0.69133687
vn 0.40753904 -0.872193158 0.400592208
vn 0.602821469 0.793712556 -0.29633534
vn 0.939324379 -0.369364321 0.224841505
vn 0.856144845 -0.171458974 -0.59743458
vn 0.150683269 -0.749990463 0.69133687
vn -0.156866938 -0.354171097 0.843381822
vn -0.112514399 -0.995723665 -0.163914278
vn -0.659952044 -0.418913901 0.438287318
vn -0.576772988 -0.821936607 -0.256766707
vn -0.112514399 -0.995723665 -0.163914278
vn -0.156866938 -0.354171097 0.843381822
vn -0.659952044 -0.418913901 0.438287318
vn -0.112514399 -0.995723665 -0.163914278
vn 0.40753904 -0.872193158 0.400592208
vn 0.150683269 -0.749990463 0.69133687
vn -0.112514399 -0.995723665 -0.163914278
vn -0.112514399 -0.995723665 -0.163914278
vn 0.586144626 -0.542098343 -0.655248225
vn 0.40753904 -0.872193158 0.400592208
vn 0.586144626 -0.542098343 -0.655248225
vn 0.939324379 -0.369364321 0.224841505
vn 0.40753904 -0.872193158 0.400592208
vn 0.621229231 -0.0197374783 0.846141338
vn -0.156866938 -0.354171097 0.843381822
vn 0.150683269 -0.749990463 0.69133687
vn 0.586144626 -0.542098343 -0.655248225
vn 0.856144845 -0.171458974 -0.59743458
vn 0.939324379 -0.369364321 0.224841505
g ScatterSharp_03_LOD0
f 3/1/1 4/2/2 5/3/3
f 9/4/4 6/5/5 10/6/6
f 11/7/7 8/8/8 10/9/9
f 1/10/10 13/11/11 9/12/12
f 8/13/13 2/14/14 10/15/15
f 2/16/16 1/17/17 10/18/18
f 13/19/19 4/20/20 3/21/21
f 3/22/22 6/23/23 9/24/24
f 10/25/25 6/26/26 7/27/27
f 15/28/28 6/29/29 5/30/30
f 9/31/31 10/32/32 1/33/33
f 7/34/34 15/35/35 16/36/36
f 7/37/37 11/38/38 10/39/39
f 16/40/40 11/41/41 7/42/42
f 14/43/43 5/44/44 19/45/45
f 4/46/46 19/47/47 5/48/48
f 13/49/49 3/50/50 9/51/51
f 5/52/52 6/53/53 3/54/54
f 14/55/55 16/56/56 15/57/57
f 15/58/58 5/59/59 14/60/60
f 1/61/61 2/62/62 8/63/63
f 13/64/64 12/65/65 17/66/66
f 1/67/67 8/68/68 12/69/69
f 12/70/70 13/71/71 1/72/72
f 15/73/73 7/74/74 6/75/75
f 12/76/76 20/77/77 17/78/78
f 12/79/79 18/80/80 20/81/81
f 13/82/82 17/83/83 4/84/84
f 18/85/85 8/86/86 14/87/87
f 11/88/88 16/89/89 14/90/90
f 8/91/91 11/92/92 14/93/93
f 20/94/94 18/95/95 14/96/96
f 14/97/97 19/98/98 20/99/99
f 19/100/100 17/101/101 20/102/102
f 12/103/103 8/104/104 18/105/105
f 19/106/106 4/107/107 17/108/108
