# File exported by Houdini 16.5.405 (www.sidefx.com)
# 60 points
# 348 vertices
# 116 primitives
# Bounds: [-11.3692951, -0.261942953, -8.06757832] to [11.6371279, 10.5502386, 8.32804775]
g 
v 8.03261566 10.5502386 3.22267246
v 0.712733328 9.63052654 6.54595613
v 3.14733768 6.77225542 -7.762465
v 10.1096315 6.34762859 -3.44625521
v 3.43096948 2.91793776 -7.37228489
v -5.04751253 6.43139315 -5.63993311
v -10.2143536 5.39701796 -0.786197484
v -1.56837332 5.45666742 8.32804775
v 2.08135891 9.48293209 -4.9685154
v -3.48530006 8.86660004 -0.842700005
v -10.8622599 5.45280647 4.5151639
v -7.11462688 5.94820023 7.06805706
v -9.07357311 7.81989431 3.41439533
v 6.03647947 6.62581301 6.27236223
v 9.90611076 10.1581421 1.82828534
v 2.87852883 8.79150009 -6.22130299
v 8.48486328 8.828372 -2.52402616
v 1.96335077 1.93445492 -6.92960596
v 0.634467721 0.741137445 -5.3820796
v -2.85457444 8.98829174 5.75163317
v -4.1395998 8.98429966 0.260899991
v -5.84954309 3.09835839 -3.13022113
v -10.8126001 6.21570015 3.10409999
v 10.9586668 9.13017273 2.33928967
v 11.4923649 8.07832432 -0.206763059
v 1.1299926 6.60244322 -8.06757832
v -0.44690001 7.50820017 -7.26749992
v -0.94768858 5.57469463 -7.91425085
v -3.73279595 7.04934216 7.55865717
v -8.87220001 4.67840004 5.91699982
v -10.7892704 4.33577251 4.02283716
v -4.83003139 4.35882854 7.50248528
v 5.7707324 10.341814 5.30405712
v -10.0836792 6.49094629 -0.0168078598
v -11.3692951 4.8254509 2.20209193
v -10.6048508 3.80952835 1.87023664
v -6.08790016 4.85029984 7.39510012
v -1.63759995 1.77380002 -5.11730003
v 9.4165144 9.6737566 3.97208476
v 9.87642956 6.83161879 4.53562593
v 11.6371279 7.04948282 1.50002217
v -8.08883858 8.19905281 2.81757474
v 1.47636378 3.6251967 -8.04707336
v -9.78411388 3.69787812 0.0905261487
v 10.6271114 7.79016781 3.76524091
v 3.92001534 3.30503678 6.30956125
v 7.1780467 2.55249596 -5.08979988
v 5.89965487 1.87041283 -5.62600613
v 10.9701519 5.49057722 -1.80542755
v 11.3610001 5.67460012 0.795899987
v -5.40114689 2.10903692 0.209967539
v 2.19335914 -0.261942953 -3.9839952
v 6.85118151 0.781376362 -0.795927703
v 8.04651165 1.89281261 -3.58876324
v 9.30658817 4.81006622 3.76218057
v 10.4988232 3.69550943 -0.880506039
v 6.5751214 2.89951372 4.69160748
v 9.83259964 3.85660005 -2.91630006
v 0.930205166 3.57364917 7.07586098
v -0.629100025 4.23040009 7.63509989
vt 0.137870446 0.424581289 0
vt 0.0483519807 0.493929088 0
vt 0.0980404317 0.383523256 0
vt 0.702378452 0.815675616 0
vt 0.664716721 0.923061907 0
vt 0.609399974 0.863600016 0
vt 0.311208427 0.812281251 0
vt 0.370780855 0.799872458 0
vt 0.336040884 0.849795163 0
vt 0.0990955979 0.598754942 0
vt 0.0736232847 0.577002525 0
vt 0.169442773 0.472845376 0
vt 0.370780855 0.799872458 0
vt 0.42706427 0.843985319 0
vt 0.336040884 0.849795163 0
vt 0.209498301 0.632390916 0
vt 0.0990955979 0.598754942 0
vt 0.267699987 0.534600019 0
vt 0.0837664083 0.515711606 0
vt 0.0483519807 0.493929088 0
vt 0.137870446 0.424581289 0
vt 0.162149027 0.407218248 0
vt 0.192300007 0.416099995 0
vt 0.153444692 0.455544561 0
vt 0.654756606 0.979737043 0
vt 0.664716721 0.923061907 0
vt 0.726161182 0.904323339 0
vt 0.416328043 0.807844877 0
vt 0.442621171 0.782272339 0
vt 0.482191205 0.843710542 0
vt 0.339300007 0.0560000017 0
vt 0.358389974 0.0921013951 0
vt 0.285084397 0.0178921968 0
vt 0.570631862 0.954561412 0
vt 0.580216706 0.96655184 0
vt 0.543001831 0.982374787 0
vt 0.339399993 0.791000009 0
vt 0.311208427 0.812281251 0
vt 0.301457584 0.799332201 0
vt 0.654756606 0.979737043 0
vt 0.726161182 0.904323339 0
vt 0.723999977 0.974799991 0
vt 0.267699987 0.534600019 0
vt 0.329597354 0.56372577 0
vt 0.259527981 0.614978015 0
vt 0.609399974 0.863600016 0
vt 0.570631862 0.954561412 0
vt 0.538032949 0.912096322 0
vt 0.416328043 0.807844877 0
vt 0.370780855 0.799872458 0
vt 0.442621171 0.782272339 0
vt 0.169442773 0.472845376 0
vt 0.0837664083 0.515711606 0
vt 0.153444692 0.455544561 0
vt 0.609399974 0.863600016 0
vt 0.664716721 0.923061907 0
vt 0.570631862 0.954561412 0
vt 0.267699987 0.534600019 0
vt 0.259527981 0.614978015 0
vt 0.209498301 0.632390916 0
vt 0.416328043 0.807844877 0
vt 0.482191205 0.843710542 0
vt 0.42706427 0.843985319 0
vt 0.0439113155 0.546165049 0
vt 0.0533730946 0.581879914 0
vt 0.0223010667 0.566018879 0
vt 0.723999977 0.974799991 0
vt 0.726161182 0.904323339 0
vt 0.770009279 0.919671774 0
vt 0.42706427 0.843985319 0
vt 0.370780855 0.799872458 0
vt 0.416328043 0.807844877 0
vt 0.0990955979 0.598754942 0
vt 0.209498301 0.632390916 0
vt 0.134848252 0.623990297 0
vt 0.617752492 0.837449193 0
vt 0.604209483 0.861364901 0
vt 0.560308635 0.849252284 0
vt 0.169442773 0.472845376 0
vt 0.256900012 0.519800007 0
vt 0.0990955979 0.598754942 0
vt 0.517715931 0.994810522 0
vt 0.5077824 0.979363024 0
vt 0.543001831 0.982374787 0
vt 0.580216706 0.96655184 0
vt 0.654756606 0.979737043 0
vt 0.582396567 0.995267749 0
vt 0.523900747 0.743947208 0
vt 0.619684935 0.793159485 0
vt 0.557024479 0.79268682 0
vt 0.0686570704 0.172858715 0
vt 0.09185756 0.178714544 0
vt 0.11575681 0.217815429 0
vt 0.570631862 0.954561412 0
vt 0.526899993 0.963 0
vt 0.525892854 0.92622894 0
vt 0.42706427 0.843985319 0
vt 0.346923679 0.862593055 0
vt 0.336040884 0.849795163 0
vt 0.0439113155 0.546165049 0
vt 0.0837664083 0.515711606 0
vt 0.0736232847 0.577002525 0
vt 0.543001831 0.982374787 0
vt 0.526899993 0.963 0
vt 0.570631862 0.954561412 0
vt 0.543001831 0.982374787 0
vt 0.5077824 0.979363024 0
vt 0.526899993 0.963 0
vt 0.305000007 0.0222999994 0
vt 0.339300007 0.0560000017 0
vt 0.285084397 0.0178921968 0
vt 0.664716721 0.923061907 0
vt 0.580216706 0.96655184 0
vt 0.570631862 0.954561412 0
vt 0.0208750479 0.506057978 0
vt 0.0483519807 0.493929088 0
vt 0.0439113155 0.546165049 0
vt 0.140985146 0.208200008 0
vt 0.11575681 0.217815429 0
vt 0.09185756 0.178714544 0
vt 0.0736232847 0.577002525 0
vt 0.0837664083 0.515711606 0
vt 0.169442773 0.472845376 0
vt 0.0731316656 0.609831214 0
vt 0.0364870951 0.606561601 0
vt 0.0533730946 0.581879914 0
vt 0.0483519807 0.493929088 0
vt 0.046757441 0.421619475 0
vt 0.0980404317 0.383523256 0
vt 0.370780855 0.799872458 0
vt 0.339399993 0.791000009 0
vt 0.381199986 0.782700002 0
vt 0.381199986 0.782700002 0
vt 0.442621171 0.782272339 0
vt 0.370780855 0.799872458 0
vt 0.0837664083 0.515711606 0
vt 0.137870446 0.424581289 0
vt 0.153444692 0.455544561 0
vt 0.129534408 0.371661454 0
vt 0.137870446 0.424581289 0
vt 0.0980404317 0.383523256 0
vt 0.770009279 0.919671774 0
vt 0.726161182 0.904323339 0
vt 0.74694854 0.877641201 0
vt 0.582396567 0.995267749 0
vt 0.654756606 0.979737043 0
vt 0.723999977 0.974799991 0
vt 0.163427651 0.185978562 0
vt 0.328953922 0.146681219 0
vt 0.1972 0.1928 0
vt 0.1972 0.1928 0
vt 0.144573241 0.240216315 0
vt 0.163427651 0.185978562 0
vt 0.163427651 0.185978562 0
vt 0.144573241 0.240216315 0
vt 0.140985146 0.208200008 0
vt 0.560308635 0.849252284 0
vt 0.482191205 0.843710542 0
vt 0.442621171 0.782272339 0
vt 0.162149027 0.407218248 0
vt 0.137870446 0.424581289 0
vt 0.129534408 0.371661454 0
vt 0.538032949 0.912096322 0
vt 0.570631862 0.954561412 0
vt 0.525892854 0.92622894 0
vt 0.714999974 0.875899971 0
vt 0.74694854 0.877641201 0
vt 0.726161182 0.904323339 0
vt 0.0736232847 0.577002525 0
vt 0.0533730946 0.581879914 0
vt 0.0439113155 0.546165049 0
vt 0.00490000006 0.547299981 0
vt 0.0439113155 0.546165049 0
vt 0.0223010667 0.566018879 0
vt 0.543001831 0.982374787 0
vt 0.552012563 0.998225868 0
vt 0.517715931 0.994810522 0
vt 0.153444692 0.455544561 0
vt 0.192300007 0.416099995 0
vt 0.169442773 0.472845376 0
vt 0.560308635 0.849252284 0
vt 0.557024479 0.79268682 0
vt 0.619684935 0.793159485 0
vt 0.560308635 0.849252284 0
vt 0.619684935 0.793159485 0
vt 0.617752492 0.837449193 0
vt 0.381199986 0.782700002 0
vt 0.396984696 0.771963596 0
vt 0.442621171 0.782272339 0
vt 0.153444692 0.455544561 0
vt 0.137870446 0.424581289 0
vt 0.162149027 0.407218248 0
vt 0.726161182 0.904323339 0
vt 0.664716721 0.923061907 0
vt 0.714999974 0.875899971 0
vt 0.702378452 0.815675616 0
vt 0.714999974 0.875899971 0
vt 0.664716721 0.923061907 0
vt 0.0533730946 0.581879914 0
vt 0.0364870951 0.606561601 0
vt 0.0223010667 0.566018879 0
vt 0.0181169622 0.00245462358 0
vt 0.0414510183 0.000843617541 0
vt 0.00131258473 0.0397979505 0
vt 0.617752492 0.837449193 0
vt 0.619684935 0.793159485 0
vt 0.635890305 0.80852592 0
vt 0.560308635 0.849252284 0
vt 0.442621171 0.782272339 0
vt 0.557024479 0.79268682 0
vt 0.0483519807 0.493929088 0
vt 0.0837664083 0.515711606 0
vt 0.0439113155 0.546165049 0
vt 0.304100007 0.834900022 0
vt 0.311208427 0.812281251 0
vt 0.336040884 0.849795163 0
vt 0.0736232847 0.577002525 0
vt 0.0731316656 0.609831214 0
vt 0.0533730946 0.581879914 0
vt 0.0731316656 0.609831214 0
vt 0.0736232847 0.577002525 0
vt 0.0990955979 0.598754942 0
vt 0.144573241 0.240216315 0
vt 0.11575681 0.217815429 0
vt 0.140985146 0.208200008 0
vt 0.370780855 0.799872458 0
vt 0.311208427 0.812281251 0
vt 0.339399993 0.791000009 0
vt 0.609399974 0.863600016 0
vt 0.538032949 0.912096322 0
vt 0.590699971 0.866999984 0
vt 0.0990955979 0.598754942 0
vt 0.256900012 0.519800007 0
vt 0.267699987 0.534600019 0
vt 0.654756606 0.979737043 0
vt 0.580216706 0.96655184 0
vt 0.664716721 0.923061907 0
vt 0.285084397 0.0178921968 0
vt 0.263234138 0.129967391 0
vt 0.147475362 0.161832362 0
vt 0.0414510183 0.000843617541 0
vt 0.0605097003 0.0290670209 0
vt 0.00131258473 0.0397979505 0
vt 0.163427651 0.185978562 0
vt 0.140985146 0.208200008 0
vt 0.147475362 0.161832362 0
vt 0.0302000009 0.128099993 0
vt 0.00499010179 0.101976976 0
vt 0.035013631 0.0958549157 0
vt 0.035013631 0.0958549157 0
vt 0.0142999999 0.0612999983 0
vt 0.0605097003 0.0290670209 0
vt 0.0605097003 0.0290670209 0
vt 0.108065568 0.0344013423 0
vt 0.035013631 0.0958549157 0
vt 0.108065568 0.0344013423 0
vt 0.0605097003 0.0290670209 0
vt 0.0414510183 0.000843617541 0
vt 0.149879009 0.0123592308 0
vt 0.197081089 0.00861593895 0
vt 0.108065568 0.0344013423 0
vt 0.0414510183 0.000843617541 0
vt 0.149879009 0.0123592308 0
vt 0.108065568 0.0344013423 0
vt 0.0439113155 0.546165049 0
vt 0.00490000006 0.547299981 0
vt 0.0208750479 0.506057978 0
vt 0.197081089 0.00861593895 0
vt 0.285084397 0.0178921968 0
vt 0.147475362 0.161832362 0
vt 0.222599998 0.00100000005 0
vt 0.285084397 0.0178921968 0
vt 0.197081089 0.00861593895 0
vt 0.035013631 0.0958549157 0
vt 0.108065568 0.0344013423 0
vt 0.0945223421 0.112921506 0
vt 0.358389974 0.0921013951 0
vt 0.345977366 0.123621456 0
vt 0.263234138 0.129967391 0
vt 0.285084397 0.0178921968 0
vt 0.358389974 0.0921013951 0
vt 0.263234138 0.129967391 0
vt 0.147475362 0.161832362 0
vt 0.140985146 0.208200008 0
vt 0.09185756 0.178714544 0
vt 0.582396567 0.995267749 0
vt 0.543001831 0.982374787 0
vt 0.580216706 0.96655184 0
vt 0.147475362 0.161832362 0
vt 0.09185756 0.178714544 0
vt 0.0683111101 0.14444384 0
vt 0.09185756 0.178714544 0
vt 0.0686570704 0.172858715 0
vt 0.0683111101 0.14444384 0
vt 0.543001831 0.982374787 0
vt 0.582396567 0.995267749 0
vt 0.552012563 0.998225868 0
vt 0.046757441 0.421619475 0
vt 0.0483519807 0.493929088 0
vt 0.0204000007 0.469999999 0
vt 0.108065568 0.0344013423 0
vt 0.197081089 0.00861593895 0
vt 0.0945223421 0.112921506 0
vt 0.0945223421 0.112921506 0
vt 0.197081089 0.00861593895 0
vt 0.147475362 0.161832362 0
vt 0.147475362 0.161832362 0
vt 0.0683111101 0.14444384 0
vt 0.0945223421 0.112921506 0
vt 0.00131258473 0.0397979505 0
vt 0.0605097003 0.0290670209 0
vt 0.0142999999 0.0612999983 0
vt 0.00499010179 0.101976976 0
vt 0.0142999999 0.0612999983 0
vt 0.035013631 0.0958549157 0
vt 0.523900747 0.743947208 0
vt 0.455199987 0.763599992 0
vt 0.478244752 0.750868857 0
vt 0.442621171 0.782272339 0
vt 0.396984696 0.771963596 0
vt 0.455199987 0.763599992 0
vt 0.0683111101 0.14444384 0
vt 0.035013631 0.0958549157 0
vt 0.0945223421 0.112921506 0
vt 0.455199987 0.763599992 0
vt 0.523900747 0.743947208 0
vt 0.442621171 0.782272339 0
vt 0.328953922 0.146681219 0
vt 0.163427651 0.185978562 0
vt 0.147475362 0.161832362 0
vt 0.0208750479 0.506057978 0
vt 0.0204000007 0.469999999 0
vt 0.0483519807 0.493929088 0
vt 0.557024479 0.79268682 0
vt 0.442621171 0.782272339 0
vt 0.523900747 0.743947208 0
vt 0.345977366 0.123621456 0
vt 0.147475362 0.161832362 0
vt 0.263234138 0.129967391 0
vt 0.0686570704 0.172858715 0
vt 0.0302000009 0.128099993 0
vt 0.0683111101 0.14444384 0
vt 0.0683111101 0.14444384 0
vt 0.0302000009 0.128099993 0
vt 0.035013631 0.0958549157 0
vt 0.345977366 0.123621456 0
vt 0.328953922 0.146681219 0
vt 0.147475362 0.161832362 0
vn 0.401448846 0.28927207 -0.88455528
vn 0.69413203 0.131418869 -0.731633723
vn 0.35772717 -0.32431972 -0.877288818
vn -0.10218475 0.944626391 -0.312919617
vn -0.534748733 0.398134112 -0.696378052
vn -0.329780847 0.893394351 -0.305108279
vn -0.756363571 0.299100548 0.601047873
vn -0.417833805 0.464141965 0.844189763
vn -0.442411423 0.896951139 0.170313925
vn 0.137830183 1.00908101 0.199316919
vn 0.38167876 0.930053055 -0.0590473562
vn -0.10218475 0.944626391 -0.312919617
vn -0.417833805 0.464141965 0.844189763
vn -0.216395497 0.89639914 0.381944746
vn -0.442411423 0.896951139 0.170313925
vn -0.126793489 0.930872262 0.230438918
vn 0.137830183 1.00908101 0.199316919
vn -0.241727337 0.961569071 -0.130202889
vn 0.316067517 0.781999171 -0.577859163
vn 0.69413203 0.131418869 -0.731633723
vn 0.401448846 0.28927207 -0.88455528
vn -0.000964680163 0.376768798 -0.951234877
vn -0.208686844 0.684507728 -0.698497593
vn 0.271882325 0.784273446 -0.605145574
vn -0.53040117 -0.608708918 -0.598452747
vn -0.534748733 0.398134112 -0.696378052
vn -0.361114264 -0.123412013 -0.951880991
vn -0.203654289 0.491367668 0.878500879
vn 0.0970889702 0.0425736308 1.01437008
vn -0.126793489 0.930872262 0.230438918
vn -0.439250112 -0.60267663 0.666213393
vn -0.441795379 -0.827593207 0.336050779
vn -0.139372185 -0.839914262 0.505448878
vn -0.617554128 0.743231773 -0.357001156
vn -0.771025956 -0.0609389581 -0.662732363
vn -1.00982046 -0.22189717 -0.0532662831
vn -0.439250112 -0.60267663 0.666213393
vn -0.756363571 0.299100548 0.601047873
vn -0.441795379 -0.827593207 0.336050779
vn -0.53040117 -0.608708918 -0.598452747
vn -0.361114264 -0.123412013 -0.951880991
vn -0.450379491 -0.677463412 -0.581551015
vn -0.241727337 0.961569071 -0.130202889
vn -0.340134144 0.942501426 -0.0181260947
vn -0.216395497 0.89639914 0.381944746
vn -0.329780847 0.893394351 -0.305108279
vn -0.617554128 0.743231773 -0.357001156
vn -0.340134144 0.942501426 -0.0181260947
vn -0.203654289 0.491367668 0.878500879
vn -0.417833805 0.464141965 0.844189763
vn 0.0970889702 0.0425736308 1.01437008
vn -0.10218475 0.944626391 -0.312919617
vn 0.316067517 0.781999171 -0.577859163
vn 0.271882325 0.784273446 -0.605145574
vn -0.329780847 0.893394351 -0.305108279
vn -0.534748733 0.398134112 -0.696378052
vn -0.617554128 0.743231773 -0.357001156
vn -0.241727337 0.961569071 -0.130202889
vn -0.216395497 0.89639914 0.381944746
vn -0.126793489 0.930872262 0.230438918
vn -0.203654289 0.491367668 0.878500879
vn -0.126793489 0.930872262 0.230438918
vn -0.216395497 0.89639914 0.381944746
vn 0.957817793 0.32493782 -0.260123461
vn 0.846912503 0.533365309 0.256378829
vn 0.990450203 -0.086061433 0.214641109
vn -0.450379491 -0.677463412 -0.581551015
vn -0.361114264 -0.123412013 -0.951880991
vn -0.121933177 -0.387031466 -0.926426113
vn -0.216395497 0.89639914 0.381944746
vn -0.417833805 0.464141965 0.844189763
vn -0.203654289 0.491367668 0.878500879
vn 0.137830183 1.00908101 0.199316919
vn -0.126793489 0.930872262 0.230438918
vn 0.14900656 0.702908039 0.696951091
vn 0.51627326 0.584256291 0.644825995
vn 0.137830183 1.00908101 0.199316919
vn 0.14900656 0.702908039 0.696951091
vn -0.10218475 0.944626391 -0.312919617
vn -0.329780847 0.893394351 -0.305108279
vn 0.137830183 1.00908101 0.199316919
vn -0.441795379 -0.827593207 0.336050779
vn -0.756363571 0.299100548 0.601047873
vn -1.00982046 -0.22189717 -0.0532662831
vn -0.771025956 -0.0609389581 -0.662732363
vn -0.53040117 -0.608708918 -0.598452747
vn -0.506251752 -0.818010569 -0.286430866
vn 0.2532897 -0.575591743 0.775905132
vn 0.632876933 -0.172832534 0.759921491
vn 0.321390957 0.0272653177 0.967103779
vn 0.557360768 -0.319847584 -0.774124563
vn 0.408877671 -0.6316365 -0.659758687
vn 0.35772717 -0.32431972 -0.877288818
vn -0.617554128 0.743231773 -0.357001156
vn -0.803587854 0.581253946 0.128025159
vn -0.442411423 0.896951139 0.170313925
vn -0.216395497 0.89639914 0.381944746
vn -0.340134144 0.942501426 -0.0181260947
vn -0.442411423 0.896951139 0.170313925
vn 0.957817793 0.32493782 -0.260123461
vn 0.316067517 0.781999171 -0.577859163
vn 0.38167876 0.930053055 -0.0590473562
vn -1.00982046 -0.22189717 -0.0532662831
vn -0.803587854 0.581253946 0.128025159
vn -0.617554128 0.743231773 -0.357001156
vn -1.00982046 -0.22189717 -0.0532662831
vn -0.756363571 0.299100548 0.601047873
vn -0.803587854 0.581253946 0.128025159
vn -0.283003002 -0.438423544 0.853049934
vn -0.439250112 -0.60267663 0.666213393
vn -0.139372185 -0.839914262 0.505448878
vn -0.534748733 0.398134112 -0.696378052
vn -0.771025956 -0.0609389581 -0.662732363
vn -0.617554128 0.743231773 -0.357001156
vn 0.932982385 -0.142051876 -0.397981286
vn 0.69413203 0.131418869 -0.731633723
vn 0.957817793 0.32493782 -0.260123461
vn -0.0129761817 -0.740428627 -0.7113837
vn 0.35772717 -0.32431972 -0.877288818
vn 0.408877671 -0.6316365 -0.659758687
vn 0.38167876 0.930053055 -0.0590473562
vn 0.316067517 0.781999171 -0.577859163
vn -0.10218475 0.944626391 -0.312919617
vn 0.51627326 0.584256291 0.644825995
vn 0.793463886 0.0903006047 0.635571182
vn 0.846912503 0.533365309 0.256378829
vn 0.69413203 0.131418869 -0.731633723
vn 0.557360768 -0.319847584 -0.774124563
vn 0.35772717 -0.32431972 -0.877288818
vn -0.417833805 0.464141965 0.844189763
vn -0.439250112 -0.60267663 0.666213393
vn -0.283003002 -0.438423544 0.853049934
vn -0.283003002 -0.438423544 0.853049934
vn 0.0970889702 0.0425736308 1.01437008
vn -0.417833805 0.464141965 0.844189763
vn 0.316067517 0.781999171 -0.577859163
vn 0.401448846 0.28927207 -0.88455528
vn 0.271882325 0.784273446 -0.605145574
vn -0.121933177 -0.387031466 -0.926426113
vn 0.401448846 0.28927207 -0.88455528
vn 0.35772717 -0.32431972 -0.877288818
vn -0.121933177 -0.387031466 -0.926426113
vn -0.361114264 -0.123412013 -0.951880991
vn -0.000964680163 0.376768798 -0.951234877
vn -0.506251752 -0.818010569 -0.286430866
vn -0.53040117 -0.608708918 -0.598452747
vn -0.450379491 -0.677463412 -0.581551015
vn -0.287634015 -0.804939508 -0.561752796
vn -0.506251752 -0.818010569 -0.286430866
vn -0.450379491 -0.677463412 -0.581551015
vn -0.450379491 -0.677463412 -0.581551015
vn -0.121933177 -0.387031466 -0.926426113
vn -0.287634015 -0.804939508 -0.561752796
vn -0.287634015 -0.804939508 -0.561752796
vn -0.121933177 -0.387031466 -0.926426113
vn -0.0129761817 -0.740428627 -0.7113837
vn 0.14900656 0.702908039 0.696951091
vn -0.126793489 0.930872262 0.230438918
vn 0.0970889702 0.0425736308 1.01437008
vn -0.000964680163 0.376768798 -0.951234877
vn 0.401448846 0.28927207 -0.88455528
vn -0.121933177 -0.387031466 -0.926426113
vn -0.340134144 0.942501426 -0.0181260947
vn -0.617554128 0.743231773 -0.357001156
vn -0.442411423 0.896951139 0.170313925
vn -0.208686844 0.684507728 -0.698497593
vn -0.000964680163 0.376768798 -0.951234877
vn -0.361114264 -0.123412013 -0.951880991
vn 0.38167876 0.930053055 -0.0590473562
vn 0.846912503 0.533365309 0.256378829
vn 0.957817793 0.32493782 -0.260123461
vn 0.908149362 -0.386110932 0.161811993
vn 0.957817793 0.32493782 -0.260123461
vn 0.990450203 -0.086061433 0.214641109
vn -1.00982046 -0.22189717 -0.0532662831
vn -0.426064253 -0.905990958 0.0200769119
vn -0.441795379 -0.827593207 0.336050779
vn 0.271882325 0.784273446 -0.605145574
vn -0.208686844 0.684507728 -0.698497593
vn -0.10218475 0.944626391 -0.312919617
vn 0.14900656 0.702908039 0.696951091
vn 0.321390957 0.0272653177 0.967103779
vn 0.632876933 -0.172832534 0.759921491
vn 0.14900656 0.702908039 0.696951091
vn 0.632876933 -0.172832534 0.759921491
vn 0.51627326 0.584256291 0.644825995
vn -0.283003002 -0.438423544 0.853049934
vn -0.139372185 -0.839914262 0.505448878
vn 0.0970889702 0.0425736308 1.01437008
vn 0.271882325 0.784273446 -0.605145574
vn 0.401448846 0.28927207 -0.88455528
vn -0.000964680163 0.376768798 -0.951234877
vn -0.361114264 -0.123412013 -0.951880991
vn -0.534748733 0.398134112 -0.696378052
vn -0.208686844 0.684507728 -0.698497593
vn -0.10218475 0.944626391 -0.312919617
vn -0.208686844 0.684507728 -0.698497593
vn -0.534748733 0.398134112 -0.696378052
vn 0.846912503 0.533365309 0.256378829
vn 0.793463886 0.0903006047 0.635571182
vn 0.990450203 -0.086061433 0.214641109
vn 0.793463886 0.0903006047 0.635571182
vn 0.632876933 -0.172832534 0.759921491
vn 0.990450203 -0.086061433 0.214641109
vn 0.51627326 0.584256291 0.644825995
vn 0.632876933 -0.172832534 0.759921491
vn 0.793463886 0.0903006047 0.635571182
vn 0.14900656 0.702908039 0.696951091
vn 0.0970889702 0.0425736308 1.01437008
vn 0.321390957 0.0272653177 0.967103779
vn 0.69413203 0.131418869 -0.731633723
vn 0.316067517 0.781999171 -0.577859163
vn 0.957817793 0.32493782 -0.260123461
vn -0.803587854 0.581253946 0.128025159
vn -0.756363571 0.299100548 0.601047873
vn -0.442411423 0.896951139 0.170313925
vn 0.38167876 0.930053055 -0.0590473562
vn 0.51627326 0.584256291 0.644825995
vn 0.846912503 0.533365309 0.256378829
vn 0.51627326 0.584256291 0.644825995
vn 0.38167876 0.930053055 -0.0590473562
vn 0.137830183 1.00908101 0.199316919
vn -0.121933177 -0.387031466 -0.926426113
vn 0.35772717 -0.32431972 -0.877288818
vn -0.0129761817 -0.740428627 -0.7113837
vn -0.417833805 0.464141965 0.844189763
vn -0.756363571 0.299100548 0.601047873
vn -0.439250112 -0.60267663 0.666213393
vn -0.329780847 0.893394351 -0.305108279
vn -0.340134144 0.942501426 -0.0181260947
vn -0.241727337 0.961569071 -0.130202889
vn 0.137830183 1.00908101 0.199316919
vn -0.329780847 0.893394351 -0.305108279
vn -0.241727337 0.961569071 -0.130202889
vn -0.53040117 -0.608708918 -0.598452747
vn -0.771025956 -0.0609389581 -0.662732363
vn -0.534748733 0.398134112 -0.696378052
vn -0.139372185 -0.839914262 0.505448878
vn -0.214052454 -0.960018039 0.206028342
vn -0.0630934387 -0.981859982 -0.0861556232
vn 0.632876933 -0.172832534 0.759921491
vn 0.667530537 -0.545471668 0.532187462
vn 0.990450203 -0.086061433 0.214641109
vn -0.287634015 -0.804939508 -0.561752796
vn -0.0129761817 -0.740428627 -0.7113837
vn -0.0630934387 -0.981859982 -0.0861556232
vn 0.799696326 -0.379439414 -0.465307981
vn 0.932982385 -0.142051876 -0.397981286
vn 0.782065213 -0.619760096 0.101555638
vn 0.782065213 -0.619760096 0.101555638
vn 0.908149362 -0.386110932 0.161811993
vn 0.667530537 -0.545471668 0.532187462
vn 0.667530537 -0.545471668 0.532187462
vn 0.367859423 -0.746390045 0.546956122
vn 0.782065213 -0.619760096 0.101555638
vn 0.367859423 -0.746390045 0.546956122
vn 0.667530537 -0.545471668 0.532187462
vn 0.632876933 -0.172832534 0.759921491
vn 0.2532897 -0.575591743 0.775905132
vn 0.0400664322 -0.804211795 0.614374995
vn 0.367859423 -0.746390045 0.546956122
vn 0.632876933 -0.172832534 0.759921491
vn 0.2532897 -0.575591743 0.775905132
vn 0.367859423 -0.746390045 0.546956122
vn 0.957817793 0.32493782 -0.260123461
vn 0.908149362 -0.386110932 0.161811993
vn 0.932982385 -0.142051876 -0.397981286
vn 0.0400664322 -0.804211795 0.614374995
vn -0.139372185 -0.839914262 0.505448878
vn -0.0630934387 -0.981859982 -0.0861556232
vn 0.0640561432 -0.533679962 0.84325707
vn -0.139372185 -0.839914262 0.505448878
vn 0.0400664322 -0.804211795 0.614374995
vn 0.782065213 -0.619760096 0.101555638
vn 0.367859423 -0.746390045 0.546956122
vn 0.246944919 -0.948868334 0.202273846
vn -0.441795379 -0.827593207 0.336050779
vn -0.426064253 -0.905990958 0.0200769119
vn -0.214052454 -0.960018039 0.206028342
vn -0.139372185 -0.839914262 0.505448878
vn -0.441795379 -0.827593207 0.336050779
vn -0.214052454 -0.960018039 0.206028342
vn -0.0630934387 -0.981859982 -0.0861556232
vn -0.0129761817 -0.740428627 -0.7113837
vn 0.408877671 -0.6316365 -0.659758687
vn -0.506251752 -0.818010569 -0.286430866
vn -1.00982046 -0.22189717 -0.0532662831
vn -0.771025956 -0.0609389581 -0.662732363
vn -0.0630934387 -0.981859982 -0.0861556232
vn 0.408877671 -0.6316365 -0.659758687
vn 0.59200722 -0.741048992 -0.386438698
vn 0.408877671 -0.6316365 -0.659758687
vn 0.557360768 -0.319847584 -0.774124563
vn 0.59200722 -0.741048992 -0.386438698
vn -1.00982046 -0.22189717 -0.0532662831
vn -0.506251752 -0.818010569 -0.286430866
vn -0.426064253 -0.905990958 0.0200769119
vn 0.557360768 -0.319847584 -0.774124563
vn 0.69413203 0.131418869 -0.731633723
vn 0.799696326 -0.379439414 -0.465307981
vn 0.367859423 -0.746390045 0.546956122
vn 0.0400664322 -0.804211795 0.614374995
vn 0.246944919 -0.948868334 0.202273846
vn 0.246944919 -0.948868334 0.202273846
vn 0.0400664322 -0.804211795 0.614374995
vn -0.0630934387 -0.981859982 -0.0861556232
vn -0.0630934387 -0.981859982 -0.0861556232
vn 0.59200722 -0.741048992 -0.386438698
vn 0.246944919 -0.948868334 0.202273846
vn 0.990450203 -0.086061433 0.214641109
vn 0.667530537 -0.545471668 0.532187462
vn 0.908149362 -0.386110932 0.161811993
vn 0.932982385 -0.142051876 -0.397981286
vn 0.908149362 -0.386110932 0.161811993
vn 0.782065213 -0.619760096 0.101555638
vn 0.2532897 -0.575591743 0.775905132
vn 0.0640561432 -0.533679962 0.84325707
vn 0.0400664322 -0.804211795 0.614374995
vn 0.0970889702 0.0425736308 1.01437008
vn -0.139372185 -0.839914262 0.505448878
vn 0.0640561432 -0.533679962 0.84325707
vn 0.59200722 -0.741048992 -0.386438698
vn 0.782065213 -0.619760096 0.101555638
vn 0.246944919 -0.948868334 0.202273846
vn 0.0640561432 -0.533679962 0.84325707
vn 0.2532897 -0.575591743 0.775905132
vn 0.0970889702 0.0425736308 1.01437008
vn -0.506251752 -0.818010569 -0.286430866
vn -0.287634015 -0.804939508 -0.561752796
vn -0.0630934387 -0.981859982 -0.0861556232
vn 0.932982385 -0.142051876 -0.397981286
vn 0.799696326 -0.379439414 -0.465307981
vn 0.69413203 0.131418869 -0.731633723
vn 0.321390957 0.0272653177 0.967103779
vn 0.0970889702 0.0425736308 1.01437008
vn 0.2532897 -0.575591743 0.775905132
vn -0.426064253 -0.905990958 0.0200769119
vn -0.0630934387 -0.981859982 -0.0861556232
vn -0.214052454 -0.960018039 0.206028342
vn 0.557360768 -0.319847584 -0.774124563
vn 0.799696326 -0.379439414 -0.465307981
vn 0.59200722 -0.741048992 -0.386438698
vn 0.59200722 -0.741048992 -0.386438698
vn 0.799696326 -0.379439414 -0.465307981
vn 0.782065213 -0.619760096 0.101555638
vn -0.426064253 -0.905990958 0.0200769119
vn -0.506251752 -0.818010569 -0.286430866
vn -0.0630934387 -0.981859982 -0.0861556232
g ScatterSharp_03_LOD0
f 3/1/1 4/2/2 5/3/3
f 9/4/4 6/5/5 10/6/6
f 11/7/7 12/8/8 13/9/9
f 1/10/10 15/11/11 9/12/12
f 12/13/13 20/14/14 13/15/15
f 2/16/16 1/17/17 21/18/18
f 17/19/19 4/20/20 3/21/21
f 26/22/22 27/23/23 16/24/24
f 22/25/25 6/26/26 28/27/27
f 29/28/28 8/29/29 2/30/30
f 30/31/31 31/32/32 32/33/33
f 34/34/34 7/35/35 35/36/36
f 30/37/37 11/38/38 31/39/39
f 22/40/40 28/41/41 38/42/42
f 21/43/43 42/44/44 20/45/45
f 10/46/46 34/47/47 42/48/48
f 29/49/49 12/50/50 8/51/51
f 9/52/52 17/53/53 16/54/54
f 10/55/55 6/56/56 34/57/57
f 21/58/58 20/59/59 2/60/60
f 29/61/61 2/62/62 20/63/63
f 25/64/64 24/65/65 41/66/66
f 38/67/67 28/68/68 43/69/69
f 20/70/70 12/71/71 29/72/72
f 1/73/73 2/74/74 33/75/75
f 39/76/76 1/77/77 33/78/78
f 9/79/79 10/80/80 1/81/81
f 31/82/82 11/83/83 35/84/84
f 7/85/85 22/86/86 44/87/87
f 46/88/88 40/89/89 14/90/90
f 47/91/91 48/92/92 5/93/93
f 34/94/94 23/95/95 13/96/96
f 20/97/97 42/98/98 13/99/99
f 25/100/100 17/101/101 15/102/102
f 35/103/103 23/104/104 34/105/105
f 35/106/106 11/107/107 23/108/108
f 37/109/109 30/110/110 32/111/111
f 6/112/112 7/113/113 34/114/114
f 49/115/115 4/116/116 25/117/117
f 18/118/118 5/119/119 48/120/120
f 15/121/121 17/122/122 9/123/123
f 39/124/124 45/125/125 24/126/126
f 4/127/127 47/128/128 5/129/129
f 12/130/130 30/131/131 37/132/132
f 37/133/133 8/134/134 12/135/135
f 17/136/136 3/137/137 16/138/138
f 43/139/139 3/140/140 5/141/141
f 43/142/142 28/143/143 26/144/144
f 44/145/145 22/146/146 38/147/147
f 19/148/148 44/149/149 38/150/150
f 38/151/151 43/152/152 19/153/153
f 19/154/154 43/155/155 18/156/156
f 33/157/157 2/158/158 8/159/159
f 26/160/160 3/161/161 43/162/162
f 42/163/163 34/164/164 13/165/165
f 27/166/166 26/167/167 28/168/168
f 15/169/169 24/170/170 25/171/171
f 50/172/172 25/173/173 41/174/174
f 35/175/175 36/176/176 31/177/177
f 16/178/178 27/179/179 9/180/180
f 33/181/181 14/182/182 40/183/183
f 33/184/184 40/185/185 39/186/186
f 37/187/187 32/188/188 8/189/189
f 16/190/190 3/191/191 26/192/192
f 28/193/193 6/194/194 27/195/195
f 9/196/196 27/197/197 6/198/198
f 24/199/199 45/200/200 41/201/201
f 45/202/202 40/203/203 41/204/204
f 39/205/205 40/206/206 45/207/207
f 33/208/208 8/209/209 14/210/210
f 4/211/211 17/212/212 25/213/213
f 23/214/214 11/215/215 13/216/216
f 15/217/217 39/218/218 24/219/219
f 39/220/220 15/221/221 1/222/222
f 43/223/223 5/224/224 18/225/225
f 12/226/226 11/227/227 30/228/228
f 10/229/229 42/230/230 21/231/231
f 1/232/232 10/233/233 21/234/234
f 22/235/235 7/236/236 6/237/237
f 32/238/238 51/239/239 52/240/240
f 40/241/241 55/242/242 41/243/243
f 19/244/244 18/245/245 52/246/246
f 58/247/247 49/248/248 56/249/249
f 56/250/250 50/251/251 55/252/252
f 55/253/253 57/254/254 56/255/255
f 57/256/256 55/257/257 40/258/258
f 46/259/259 59/260/260 57/261/261
f 40/262/262 46/263/263 57/264/264
f 25/265/265 50/266/266 49/267/267
f 59/268/268 32/269/269 52/270/270
f 60/271/271 32/272/272 59/273/273
f 56/274/274 57/275/275 53/276/276
f 31/277/277 36/278/278 51/279/279
f 32/280/280 31/281/281 51/282/282
f 52/283/283 18/284/284 48/285/285
f 44/286/286 35/287/287 7/288/288
f 52/289/289 48/290/290 54/291/291
f 48/292/292 47/293/293 54/294/294
f 35/295/295 44/296/296 36/297/297
f 47/298/298 4/299/299 58/300/300
f 57/301/301 59/302/302 53/303/303
f 53/304/304 59/305/305 52/306/306
f 52/307/307 54/308/308 53/309/309
f 41/310/310 55/311/311 50/312/312
f 49/313/313 50/314/314 56/315/315
f 46/316/316 60/317/317 59/318/318
f 8/319/319 32/320/320 60/321/321
f 54/322/322 56/323/323 53/324/324
f 60/325/325 46/326/326 8/327/327
f 44/328/328 19/329/329 52/330/330
f 49/331/331 58/332/332 4/333/333
f 14/334/334 8/335/335 46/336/336
f 36/337/337 52/338/338 51/339/339
f 47/340/340 58/341/341 54/342/342
f 54/343/343 58/344/344 56/345/345
f 36/346/346 44/347/347 52/348/348
