# File exported by Houdini 16.5.405 (www.sidefx.com)
# 57 points
# 330 vertices
# 110 primitives
# Bounds: [-10.7596893, -0.170013502, -6.78444338] to [11.4408674, 11.501709, 6.69167233]
g 
v -10.5328331 6.00807858 -3.9129107
v -10.3996029 3.43211937 -1.80798209
v 11.430666 5.66133547 -0.353032231
v 6.53333235 0.819855928 2.955369
v 6.49173117 11.501709 -3.38869715
v 6.06247854 9.88351917 2.47714972
v 5.93727493 4.25876236 6.52864504
v 9.00524712 6.82033253 4.52428436
v -9.72654533 2.64120626 -1.52795672
v 2.51461196 1.00916255 5.62680531
v 2.08683276 3.10988736 6.41805124
v -2.90263224 7.55123377 -5.65452099
v 5.43673515 10.507761 -5.30930519
v 2.03015041 6.14935064 -6.66336823
v 10.4510641 5.77549171 -4.24902201
v 7.39516163 10.2118034 -4.63097715
v 9.61696434 10.9639168 -2.34374905
v 7.76795006 5.85331202 -5.58628607
v -10.7509003 3.6652 -3.73749995
v -4.7295475 3.20107651 -6.78444338
v -9.77637482 6.01000977 -6.13730288
v 9.07469845 10.5581532 0.312824488
v 8.86930943 8.33052921 3.88033867
v 7.75851154 6.19273996 5.52150202
v 1.72523487 10.6363411 -1.65490043
v -9.25642395 7.0231452 -4.70466185
v -6.82280016 8.15540028 -4.97259998
v 4.3241744 1.3825351 5.86008453
v -4.63184977 9.27351284 -4.4055624
v 5.00089979 11.0888004 -2.84100008
v -2.47110009 9.81270027 -3.5947001
v 11.4408674 8.48691463 -1.60636425
v 10.5415792 8.65435886 1.97226214
v -10.0966721 6.03431082 -5.42112207
v -10.7596893 4.66934299 -4.65586138
v 5.57747841 1.91025281 5.69551229
v 4.22849226 5.12057352 6.69167233
v 4.38940334 0.46897018 2.965276
v 10.9251652 4.50586271 -3.45663977
v 11.2941456 4.37166834 -2.80629325
v 9.57166004 9.62331676 1.6615268
v 6.16114712 7.71094275 5.16101027
v 10.2217999 7.55459976 2.98959994
v 11.4193001 6.36639977 -0.0340999998
v -10.2054062 3.77592301 -5.64020014
v -8.84259033 3.93705058 -6.64169312
v 2.48693752 2.63789248 -2.46444178
v 4.1945219 4.12223005 -3.51250863
v -7.63161373 0.881358862 -1.06692123
v -1.56801224 -0.170013502 -1.84365249
v -1.59831274 0.531168222 2.77468085
v -9.32474136 2.07800841 -4.96771097
v -5.81604052 0.178236485 -3.82782149
v -5.92077017 0.97075808 -5.1049614
v 5.20365334 3.09024978 -0.835536301
v 0.870138168 4.36854696 -6.35040188
v 6.72880173 2.04909563 0.244839534
vt 0.549367905 0.35808447 0
vt 0.71186626 0.231479853 0
vt 0.727391958 0.260058224 0
vt 0.281479329 0.732534528 0
vt 0.157275259 0.706676006 0
vt 0.230682209 0.674393296 0
vt 0.105993234 0.631898165 0
vt 0.134219065 0.696632028 0
vt 0.0952831581 0.702958524 0
vt 0.230682209 0.674393296 0
vt 0.157275259 0.706676006 0
vt 0.148950949 0.634179115 0
vt 0.549300313 0.371746778 0
vt 0.556039751 0.418803275 0
vt 0.529500008 0.395599991 0
vt 0.281479329 0.732534528 0
vt 0.33835721 0.689514875 0
vt 0.377777398 0.761681259 0
vt 0.0952831581 0.702958524 0
vt 0.132055685 0.723403156 0
vt 0.0636058152 0.725657225 0
vt 0.838815033 0.293660134 0
vt 0.837540329 0.318244606 0
vt 0.815442681 0.282362461 0
vt 0.377777398 0.761681259 0
vt 0.362780154 0.781062961 0
vt 0.325300008 0.772199988 0
vt 0.744449615 0.41424796 0
vt 0.649001479 0.445450157 0
vt 0.556039751 0.418803275 0
vt 0.791499972 0.433200002 0
vt 0.681699991 0.437000006 0
vt 0.744449615 0.41424796 0
vt 0.0636058152 0.725657225 0
vt 0.0244681966 0.695317268 0
vt 0.0952831581 0.702958524 0
vt 0.303982407 0.382024705 0
vt 0.277844697 0.393028557 0
vt 0.305542141 0.332151681 0
vt 0.399148762 0.333566934 0
vt 0.319741666 0.370512784 0
vt 0.305542141 0.332151681 0
vt 0.281479329 0.732534528 0
vt 0.230682209 0.674393296 0
vt 0.33835721 0.689514875 0
vt 0.305542141 0.332151681 0
vt 0.277844697 0.393028557 0
vt 0.281332374 0.344951451 0
vt 0.201527938 0.200546205 0
vt 0.287452489 0.19400923 0
vt 0.341178566 0.218192428 0
vt 0.105993234 0.631898165 0
vt 0.0718118399 0.671920002 0
vt 0.0929001495 0.61352396 0
vt 0.0952831581 0.702958524 0
vt 0.134219065 0.696632028 0
vt 0.132055685 0.723403156 0
vt 0.305542141 0.332151681 0
vt 0.348677605 0.226939961 0
vt 0.378388345 0.25363037 0
vt 0.556039751 0.418803275 0
vt 0.763225019 0.273780376 0
vt 0.797205567 0.306931436 0
vt 0.00100000005 0.686200023 0
vt 0.0423000008 0.648100019 0
vt 0.0244681966 0.695317268 0
vt 0.105993234 0.631898165 0
vt 0.0952831581 0.702958524 0
vt 0.0718118399 0.671920002 0
vt 0.0952831581 0.702958524 0
vt 0.0244681966 0.695317268 0
vt 0.0718118399 0.671920002 0
vt 0.281479329 0.732534528 0
vt 0.377777398 0.761681259 0
vt 0.288267255 0.772239625 0
vt 0.288267255 0.772239625 0
vt 0.157275259 0.706676006 0
vt 0.281479329 0.732534528 0
vt 0.815442681 0.282362461 0
vt 0.837540329 0.318244606 0
vt 0.797205567 0.306931436 0
vt 0.797205567 0.306931436 0
vt 0.837540329 0.318244606 0
vt 0.80290252 0.353262275 0
vt 0.157275259 0.706676006 0
vt 0.132055685 0.723403156 0
vt 0.134219065 0.696632028 0
vt 0.157275259 0.706676006 0
vt 0.134219065 0.696632028 0
vt 0.148950949 0.634179115 0
vt 0.534481645 0.417221397 0
vt 0.556039751 0.418803275 0
vt 0.550147951 0.438321084 0
vt 0.377777398 0.761681259 0
vt 0.380944401 0.76980859 0
vt 0.362780154 0.781062961 0
vt 0.727391958 0.260058224 0
vt 0.71186626 0.231479853 0
vt 0.741519272 0.224622786 0
vt 0.353818297 0.381085336 0
vt 0.399148762 0.333566934 0
vt 0.387199432 0.355454952 0
vt 0.815442681 0.282362461 0
vt 0.797205567 0.306931436 0
vt 0.763225019 0.273780376 0
vt 0.0807422325 0.611421525 0
vt 0.0929001495 0.61352396 0
vt 0.0718118399 0.671920002 0
vt 0.0455429666 0.635986865 0
vt 0.0807422325 0.611421525 0
vt 0.0718118399 0.671920002 0
vt 0.0423000008 0.648100019 0
vt 0.0718118399 0.671920002 0
vt 0.0244681966 0.695317268 0
vt 0.80290252 0.353262275 0
vt 0.852165818 0.381046504 0
vt 0.814511716 0.441749901 0
vt 0.80290252 0.353262275 0
vt 0.837540329 0.318244606 0
vt 0.856016099 0.354061127 0
vt 0.556039751 0.418803275 0
vt 0.534481645 0.417221397 0
vt 0.529500008 0.395599991 0
vt 0.80290252 0.353262275 0
vt 0.856016099 0.354061127 0
vt 0.852165818 0.381046504 0
vt 0.763225019 0.273780376 0
vt 0.727391958 0.260058224 0
vt 0.741519272 0.224622786 0
vt 0.763225019 0.273780376 0
vt 0.741519272 0.224622786 0
vt 0.783400595 0.255879104 0
vt 0.791499972 0.433200002 0
vt 0.744449615 0.41424796 0
vt 0.814511716 0.441749901 0
vt 0.681699991 0.437000006 0
vt 0.649001479 0.445450157 0
vt 0.744449615 0.41424796 0
vt 0.105993234 0.631898165 0
vt 0.0929001495 0.61352396 0
vt 0.148950949 0.634179115 0
vt 0.134219065 0.696632028 0
vt 0.105993234 0.631898165 0
vt 0.148950949 0.634179115 0
vt 0.815442681 0.282362461 0
vt 0.763225019 0.273780376 0
vt 0.783400595 0.255879104 0
vt 0.837540329 0.318244606 0
vt 0.838815033 0.293660134 0
vt 0.864300013 0.314500004 0
vt 0.410600007 0.303600013 0
vt 0.378388345 0.25363037 0
vt 0.389299989 0.256900012 0
vt 0.549300313 0.371746778 0
vt 0.529500008 0.395599991 0
vt 0.549367905 0.35808447 0
vt 0.763225019 0.273780376 0
vt 0.549300313 0.371746778 0
vt 0.727391958 0.260058224 0
vt 0.814511716 0.441749901 0
vt 0.744449615 0.41424796 0
vt 0.80290252 0.353262275 0
vt 0.797205567 0.306931436 0
vt 0.80290252 0.353262275 0
vt 0.556039751 0.418803275 0
vt 0.744449615 0.41424796 0
vt 0.556039751 0.418803275 0
vt 0.80290252 0.353262275 0
vt 0.380944401 0.76980859 0
vt 0.377777398 0.761681259 0
vt 0.405299067 0.765645087 0
vt 0.399148762 0.333566934 0
vt 0.378388345 0.25363037 0
vt 0.410600007 0.303600013 0
vt 0.399148762 0.333566934 0
vt 0.305542141 0.332151681 0
vt 0.378388345 0.25363037 0
vt 0.402608961 0.745082855 0
vt 0.405299067 0.765645087 0
vt 0.377777398 0.761681259 0
vt 0.534481645 0.417221397 0
vt 0.511747777 0.422709525 0
vt 0.529500008 0.395599991 0
vt 0.377777398 0.761681259 0
vt 0.325300008 0.772199988 0
vt 0.288267255 0.772239625 0
vt 0.611500025 0.447100013 0
vt 0.573776543 0.435376942 0
vt 0.649001479 0.445450157 0
vt 0.573776543 0.435376942 0
vt 0.556039751 0.418803275 0
vt 0.649001479 0.445450157 0
vt 0.157275259 0.706676006 0
vt 0.288267255 0.772239625 0
vt 0.253800005 0.771300018 0
vt 0.303982407 0.382024705 0
vt 0.305542141 0.332151681 0
vt 0.319741666 0.370512784 0
vt 0.556039751 0.418803275 0
vt 0.549300313 0.371746778 0
vt 0.763225019 0.273780376 0
vt 0.856016099 0.354061127 0
vt 0.837540329 0.318244606 0
vt 0.870955884 0.337590188 0
vt 0.837540329 0.318244606 0
vt 0.864300013 0.314500004 0
vt 0.870955884 0.337590188 0
vt 0.132055685 0.723403156 0
vt 0.157275259 0.706676006 0
vt 0.147799999 0.740499973 0
vt 0.157275259 0.706676006 0
vt 0.253800005 0.771300018 0
vt 0.147799999 0.740499973 0
vt 0.0423000008 0.648100019 0
vt 0.0455429666 0.635986865 0
vt 0.0718118399 0.671920002 0
vt 0.727391958 0.260058224 0
vt 0.549300313 0.371746778 0
vt 0.549367905 0.35808447 0
vt 0.034397658 0.715775132 0
vt 0.0244681966 0.695317268 0
vt 0.0636058152 0.725657225 0
vt 0.573776543 0.435376942 0
vt 0.550147951 0.438321084 0
vt 0.556039751 0.418803275 0
vt 0.303982407 0.382024705 0
vt 0.319741666 0.370512784 0
vt 0.353818297 0.381085336 0
vt 0.353818297 0.381085336 0
vt 0.319741666 0.370512784 0
vt 0.399148762 0.333566934 0
vt 0.100837409 0.364356518 0
vt 0.175373405 0.323180825 0
vt 0.202448592 0.382306069 0
vt 0.0584461801 0.315434754 0
vt 0.113854438 0.319853395 0
vt 0.100837409 0.364356518 0
vt 0.202448592 0.382306069 0
vt 0.175373405 0.323180825 0
vt 0.281332374 0.344951451 0
vt 0.0584461801 0.315434754 0
vt 0.100837409 0.364356518 0
vt 0.0564329401 0.36782825 0
vt 0.549367905 0.35808447 0
vt 0.559958398 0.319095343 0
vt 0.71186626 0.231479853 0
vt 0.0584461801 0.315434754 0
vt 0.0455805175 0.279526681 0
vt 0.104609385 0.302652329 0
vt 0.104609385 0.302652329 0
vt 0.0455805175 0.279526681 0
vt 0.106689028 0.261265099 0
vt 0.104609385 0.302652329 0
vt 0.183507293 0.227047101 0
vt 0.175373405 0.323180825 0
vt 0.0564329401 0.36782825 0
vt 0.0283000004 0.335799992 0
vt 0.0584461801 0.315434754 0
vt 0.201527938 0.200546205 0
vt 0.247010127 0.245668501 0
vt 0.226776585 0.277033091 0
vt 0.201527938 0.200546205 0
vt 0.341178566 0.218192428 0
vt 0.247010127 0.245668501 0
vt 0.281332374 0.344951451 0
vt 0.272448123 0.280621856 0
vt 0.298543334 0.293886244 0
vt 0.226776585 0.277033091 0
vt 0.272448123 0.280621856 0
vt 0.281332374 0.344951451 0
vt 0.183507293 0.227047101 0
vt 0.201527938 0.200546205 0
vt 0.226776585 0.277033091 0
vt 0.183507293 0.227047101 0
vt 0.226776585 0.277033091 0
vt 0.175373405 0.323180825 0
vt 0.298543334 0.293886244 0
vt 0.341178566 0.218192428 0
vt 0.348677605 0.226939961 0
vt 0.104609385 0.302652329 0
vt 0.106689028 0.261265099 0
vt 0.183507293 0.227047101 0
vt 0.175373405 0.323180825 0
vt 0.226776585 0.277033091 0
vt 0.281332374 0.344951451 0
vt 0.104609385 0.302652329 0
vt 0.175373405 0.323180825 0
vt 0.113854438 0.319853395 0
vt 0.175373405 0.323180825 0
vt 0.100837409 0.364356518 0
vt 0.113854438 0.319853395 0
vt 0.0318670385 0.303257793 0
vt 0.0584461801 0.315434754 0
vt 0.0283000004 0.335799992 0
vt 0.281332374 0.344951451 0
vt 0.298543334 0.293886244 0
vt 0.305542141 0.332151681 0
vt 0.298543334 0.293886244 0
vt 0.348677605 0.226939961 0
vt 0.305542141 0.332151681 0
vt 0.202448592 0.382306069 0
vt 0.281332374 0.344951451 0
vt 0.277844697 0.393028557 0
vt 0.298543334 0.293886244 0
vt 0.247010127 0.245668501 0
vt 0.341178566 0.218192428 0
vt 0.272448123 0.280621856 0
vt 0.247010127 0.245668501 0
vt 0.298543334 0.293886244 0
vt 0.377777398 0.761681259 0
vt 0.33835721 0.689514875 0
vt 0.38234365 0.730809689 0
vt 0.0584461801 0.315434754 0
vt 0.104609385 0.302652329 0
vt 0.113854438 0.319853395 0
vt 0.33835721 0.689514875 0
vt 0.230682209 0.674393296 0
vt 0.259111226 0.660654247 0
vt 0.247010127 0.245668501 0
vt 0.272448123 0.280621856 0
vt 0.226776585 0.277033091 0
vt 0.0318670385 0.303257793 0
vt 0.0455805175 0.279526681 0
vt 0.0584461801 0.315434754 0
vt 0.402608961 0.745082855 0
vt 0.377777398 0.761681259 0
vt 0.38234365 0.730809689 0
vt 0.645936787 0.261262298 0
vt 0.71186626 0.231479853 0
vt 0.559958398 0.319095343 0
vn -0.656581521 -0.50527072 0.557856917
vn -0.311007947 -0.561237454 0.734124005
vn -0.480565697 0.0287822168 0.899344027
vn -0.0666208714 0.381946772 -0.929671288
vn -0.0813262314 0.659856379 -0.76311934
vn 0.0657719597 -0.126945496 -0.962317407
vn 0.629832387 0.178296775 -0.767965376
vn 0.453470558 0.380948395 -0.849628389
vn 0.564966142 0.774209738 -0.242323935
vn 0.0657719597 -0.126945496 -0.962317407
vn -0.0813262314 0.659856379 -0.76311934
vn 0.237812042 -0.328380853 -0.888049722
vn -0.702936053 0.228286505 0.650940359
vn -0.571605861 0.657842159 0.48910749
vn -0.940502048 -0.33011207 -0.0805115774
vn -0.0666208714 0.381946772 -0.929671288
vn -0.00271841441 -0.0901204795 -0.996950507
vn -0.290203422 0.502011657 -0.825457096
vn 0.564966142 0.774209738 -0.242323935
vn -0.00778139057 1.02640855 0.0303025264
vn 0.266353339 0.912813902 0.318369031
vn 0.714841187 -0.118453979 0.679582715
vn 0.402312249 0.666215837 0.673768759
vn 0.609257817 -0.0689184517 0.805497587
vn -0.290203422 0.502011657 -0.825457096
vn -0.535232067 0.834284604 0.0814359561
vn -0.395726055 0.849981904 -0.347752303
vn -0.231003627 0.932611465 0.279203802
vn -0.182252601 0.861376941 -0.345169187
vn -0.571605861 0.657842159 0.48910749
vn -0.18377921 0.982745111 -0.0209140852
vn -0.263260841 0.960870802 0.0861457214
vn -0.231003627 0.932611465 0.279203802
vn 0.266353339 0.912813902 0.318369031
vn 0.787230909 0.472463608 0.454226285
vn 0.564966142 0.774209738 -0.242323935
vn 0.174513698 -0.731337368 0.718359649
vn -0.311007947 -0.561237454 0.734124005
vn 0.613563418 -0.718649566 0.264408171
vn 0.714841187 -0.118453979 0.679582715
vn 0.599128008 -0.537915707 0.595587492
vn 0.613563418 -0.718649566 0.264408171
vn -0.0666208714 0.381946772 -0.929671288
vn 0.0657719597 -0.126945496 -0.962317407
vn -0.00271841441 -0.0901204795 -0.996950507
vn 0.613563418 -0.718649566 0.264408171
vn -0.311007947 -0.561237454 0.734124005
vn 0.231863484 -0.946734488 -0.16135028
vn 0.0657719597 -0.126945496 -0.962317407
vn 0.237812042 -0.328380853 -0.888049722
vn 0.367962301 -0.695219338 -0.499925554
vn 0.629832387 0.178296775 -0.767965376
vn 0.961848557 0.300975859 -0.212569624
vn 0.367962301 -0.695219338 -0.499925554
vn 0.564966142 0.774209738 -0.242323935
vn 0.453470558 0.380948395 -0.849628389
vn -0.00778139057 1.02640855 0.0303025264
vn 0.613563418 -0.718649566 0.264408171
vn 0.679767847 -0.665111363 -0.111967683
vn 0.870197654 -0.437607139 0.300097883
vn -0.571605861 0.657842159 0.48910749
vn -0.31889379 0.507894814 0.805121362
vn -0.16295287 0.686508775 0.726436138
vn 0.844061971 0.14027594 0.517573357
vn 0.946005881 -0.13968955 0.292506039
vn 0.787230909 0.472463608 0.454226285
vn 0.629832387 0.178296775 -0.767965376
vn 0.564966142 0.774209738 -0.242323935
vn 0.961848557 0.300975859 -0.212569624
vn 0.564966142 0.774209738 -0.242323935
vn 0.787230909 0.472463608 0.454226285
vn 0.961848557 0.300975859 -0.212569624
vn -0.0666208714 0.381946772 -0.929671288
vn -0.290203422 0.502011657 -0.825457096
vn -0.182252601 0.861376941 -0.345169187
vn -0.182252601 0.861376941 -0.345169187
vn -0.0813262314 0.659856379 -0.76311934
vn -0.0666208714 0.381946772 -0.929671288
vn 0.609257817 -0.0689184517 0.805497587
vn 0.402312249 0.666215837 0.673768759
vn -0.16295287 0.686508775 0.726436138
vn -0.16295287 0.686508775 0.726436138
vn 0.402312249 0.666215837 0.673768759
vn -0.131975532 0.883345664 0.460684597
vn -0.0813262314 0.659856379 -0.76311934
vn -0.00778139057 1.02640855 0.0303025264
vn 0.453470558 0.380948395 -0.849628389
vn -0.0813262314 0.659856379 -0.76311934
vn 0.453470558 0.380948395 -0.849628389
vn 0.237812042 -0.328380853 -0.888049722
vn -1.02095723 0.0325604491 -0.213849112
vn -0.571605861 0.657842159 0.48910749
vn -0.789451003 0.520070553 -0.435690671
vn -0.290203422 0.502011657 -0.825457096
vn -0.789451003 0.520070553 -0.435690671
vn -0.535232067 0.834284604 0.0814359561
vn -0.480565697 0.0287822168 0.899344027
vn -0.311007947 -0.561237454 0.734124005
vn 0.174513698 -0.731337368 0.718359649
vn 0.452401578 -0.115989551 0.893552005
vn 0.714841187 -0.118453979 0.679582715
vn 0.609257817 -0.0689184517 0.805497587
vn 0.609257817 -0.0689184517 0.805497587
vn -0.16295287 0.686508775 0.726436138
vn -0.31889379 0.507894814 0.805121362
vn 0.679767847 -0.665111363 -0.111967683
vn 0.367962301 -0.695219338 -0.499925554
vn 0.961848557 0.300975859 -0.212569624
vn 0.870197654 -0.437607139 0.300097883
vn 0.679767847 -0.665111363 -0.111967683
vn 0.961848557 0.300975859 -0.212569624
vn 0.946005881 -0.13968955 0.292506039
vn 0.961848557 0.300975859 -0.212569624
vn 0.787230909 0.472463608 0.454226285
vn -0.131975532 0.883345664 0.460684597
vn 0.266353339 0.912813902 0.318369031
vn -0.00778139057 1.02640855 0.0303025264
vn -0.131975532 0.883345664 0.460684597
vn 0.402312249 0.666215837 0.673768759
vn 0.478919953 0.763278842 0.46620518
vn -0.571605861 0.657842159 0.48910749
vn -1.02095723 0.0325604491 -0.213849112
vn -0.940502048 -0.33011207 -0.0805115774
vn -0.131975532 0.883345664 0.460684597
vn 0.478919953 0.763278842 0.46620518
vn 0.266353339 0.912813902 0.318369031
vn -0.31889379 0.507894814 0.805121362
vn -0.480565697 0.0287822168 0.899344027
vn 0.174513698 -0.731337368 0.718359649
vn -0.31889379 0.507894814 0.805121362
vn 0.174513698 -0.731337368 0.718359649
vn 0.452401578 -0.115989551 0.893552005
vn -0.18377921 0.982745111 -0.0209140852
vn -0.231003627 0.932611465 0.279203802
vn -0.00778139057 1.02640855 0.0303025264
vn -0.263260841 0.960870802 0.0861457214
vn -0.182252601 0.861376941 -0.345169187
vn -0.231003627 0.932611465 0.279203802
vn 0.629832387 0.178296775 -0.767965376
vn 0.367962301 -0.695219338 -0.499925554
vn 0.237812042 -0.328380853 -0.888049722
vn 0.453470558 0.380948395 -0.849628389
vn 0.629832387 0.178296775 -0.767965376
vn 0.237812042 -0.328380853 -0.888049722
vn 0.609257817 -0.0689184517 0.805497587
vn -0.31889379 0.507894814 0.805121362
vn 0.452401578 -0.115989551 0.893552005
vn 0.402312249 0.666215837 0.673768759
vn 0.714841187 -0.118453979 0.679582715
vn 0.844061971 0.14027594 0.517573357
vn 0.844061971 0.14027594 0.517573357
vn 0.870197654 -0.437607139 0.300097883
vn 0.946005881 -0.13968955 0.292506039
vn -0.702936053 0.228286505 0.650940359
vn -0.940502048 -0.33011207 -0.0805115774
vn -0.656581521 -0.50527072 0.557856917
vn -0.31889379 0.507894814 0.805121362
vn -0.702936053 0.228286505 0.650940359
vn -0.480565697 0.0287822168 0.899344027
vn -0.00778139057 1.02640855 0.0303025264
vn -0.231003627 0.932611465 0.279203802
vn -0.131975532 0.883345664 0.460684597
vn -0.16295287 0.686508775 0.726436138
vn -0.131975532 0.883345664 0.460684597
vn -0.571605861 0.657842159 0.48910749
vn -0.231003627 0.932611465 0.279203802
vn -0.571605861 0.657842159 0.48910749
vn -0.131975532 0.883345664 0.460684597
vn -0.789451003 0.520070553 -0.435690671
vn -0.290203422 0.502011657 -0.825457096
vn -1.02095723 0.0325604491 -0.213849112
vn 0.714841187 -0.118453979 0.679582715
vn 0.870197654 -0.437607139 0.300097883
vn 0.844061971 0.14027594 0.517573357
vn 0.714841187 -0.118453979 0.679582715
vn 0.613563418 -0.718649566 0.264408171
vn 0.870197654 -0.437607139 0.300097883
vn -0.765031993 -0.446282953 -0.521449089
vn -1.02095723 0.0325604491 -0.213849112
vn -0.290203422 0.502011657 -0.825457096
vn -1.02095723 0.0325604491 -0.213849112
vn -0.765031993 -0.446282953 -0.521449089
vn -0.940502048 -0.33011207 -0.0805115774
vn -0.290203422 0.502011657 -0.825457096
vn -0.395726055 0.849981904 -0.347752303
vn -0.182252601 0.861376941 -0.345169187
vn -0.395726055 0.849981904 -0.347752303
vn -0.535232067 0.834284604 0.0814359561
vn -0.182252601 0.861376941 -0.345169187
vn -0.535232067 0.834284604 0.0814359561
vn -0.571605861 0.657842159 0.48910749
vn -0.182252601 0.861376941 -0.345169187
vn -0.0813262314 0.659856379 -0.76311934
vn -0.182252601 0.861376941 -0.345169187
vn -0.263260841 0.960870802 0.0861457214
vn 0.174513698 -0.731337368 0.718359649
vn 0.613563418 -0.718649566 0.264408171
vn 0.599128008 -0.537915707 0.595587492
vn -0.571605861 0.657842159 0.48910749
vn -0.702936053 0.228286505 0.650940359
vn -0.31889379 0.507894814 0.805121362
vn 0.478919953 0.763278842 0.46620518
vn 0.402312249 0.666215837 0.673768759
vn 0.787230909 0.472463608 0.454226285
vn 0.402312249 0.666215837 0.673768759
vn 0.844061971 0.14027594 0.517573357
vn 0.787230909 0.472463608 0.454226285
vn -0.00778139057 1.02640855 0.0303025264
vn -0.0813262314 0.659856379 -0.76311934
vn -0.18377921 0.982745111 -0.0209140852
vn -0.0813262314 0.659856379 -0.76311934
vn -0.263260841 0.960870802 0.0861457214
vn -0.18377921 0.982745111 -0.0209140852
vn 0.946005881 -0.13968955 0.292506039
vn 0.870197654 -0.437607139 0.300097883
vn 0.961848557 0.300975859 -0.212569624
vn -0.480565697 0.0287822168 0.899344027
vn -0.702936053 0.228286505 0.650940359
vn -0.656581521 -0.50527072 0.557856917
vn 0.478919953 0.763278842 0.46620518
vn 0.787230909 0.472463608 0.454226285
vn 0.266353339 0.912813902 0.318369031
vn -0.535232067 0.834284604 0.0814359561
vn -0.789451003 0.520070553 -0.435690671
vn -0.571605861 0.657842159 0.48910749
vn 0.174513698 -0.731337368 0.718359649
vn 0.599128008 -0.537915707 0.595587492
vn 0.452401578 -0.115989551 0.893552005
vn 0.452401578 -0.115989551 0.893552005
vn 0.599128008 -0.537915707 0.595587492
vn 0.714841187 -0.118453979 0.679582715
vn -0.390354425 -0.847508788 0.332189828
vn 0.189040169 -0.922704935 -0.252934396
vn -0.248990297 -0.876113892 0.405420423
vn -0.581483364 -0.770435572 -0.419238746
vn -0.10149166 -0.96126318 -0.261297613
vn -0.390354425 -0.847508788 0.332189828
vn -0.248990297 -0.876113892 0.405420423
vn 0.189040169 -0.922704935 -0.252934396
vn 0.231863484 -0.946734488 -0.16135028
vn -0.581483364 -0.770435572 -0.419238746
vn -0.390354425 -0.847508788 0.332189828
vn -0.656581521 -0.50527072 0.557856917
vn -0.656581521 -0.50527072 0.557856917
vn -0.390354425 -0.847508788 0.332189828
vn -0.311007947 -0.561237454 0.734124005
vn -0.581483364 -0.770435572 -0.419238746
vn -0.185149789 -0.150054559 -0.980521619
vn 0.0157257263 -0.807036996 -0.611753106
vn 0.0157257263 -0.807036996 -0.611753106
vn -0.185149789 -0.150054559 -0.980521619
vn -0.00271841441 -0.0901204795 -0.996950507
vn 0.0157257263 -0.807036996 -0.611753106
vn 0.384794116 -0.511594117 -0.769797444
vn 0.189040169 -0.922704935 -0.252934396
vn -0.656581521 -0.50527072 0.557856917
vn -0.940502048 -0.33011207 -0.0805115774
vn -0.581483364 -0.770435572 -0.419238746
vn 0.0657719597 -0.126945496 -0.962317407
vn 0.0261538103 -0.943149567 -0.456236064
vn 0.49231869 -0.704753995 -0.502351761
vn 0.0657719597 -0.126945496 -0.962317407
vn 0.367962301 -0.695219338 -0.499925554
vn 0.0261538103 -0.943149567 -0.456236064
vn 0.231863484 -0.946734488 -0.16135028
vn 0.101541363 -0.857827961 -0.483360618
vn 0.018062003 -0.886708319 -0.462527364
vn 0.49231869 -0.704753995 -0.502351761
vn 0.101541363 -0.857827961 -0.483360618
vn 0.231863484 -0.946734488 -0.16135028
vn 0.384794116 -0.511594117 -0.769797444
vn 0.0657719597 -0.126945496 -0.962317407
vn 0.49231869 -0.704753995 -0.502351761
vn 0.384794116 -0.511594117 -0.769797444
vn 0.49231869 -0.704753995 -0.502351761
vn 0.189040169 -0.922704935 -0.252934396
vn 0.018062003 -0.886708319 -0.462527364
vn 0.367962301 -0.695219338 -0.499925554
vn 0.679767847 -0.665111363 -0.111967683
vn 0.0157257263 -0.807036996 -0.611753106
vn -0.00271841441 -0.0901204795 -0.996950507
vn 0.384794116 -0.511594117 -0.769797444
vn 0.189040169 -0.922704935 -0.252934396
vn 0.49231869 -0.704753995 -0.502351761
vn 0.231863484 -0.946734488 -0.16135028
vn 0.0157257263 -0.807036996 -0.611753106
vn 0.189040169 -0.922704935 -0.252934396
vn -0.10149166 -0.96126318 -0.261297613
vn 0.189040169 -0.922704935 -0.252934396
vn -0.390354425 -0.847508788 0.332189828
vn -0.10149166 -0.96126318 -0.261297613
vn -0.765031993 -0.446282953 -0.521449089
vn -0.581483364 -0.770435572 -0.419238746
vn -0.940502048 -0.33011207 -0.0805115774
vn 0.231863484 -0.946734488 -0.16135028
vn 0.018062003 -0.886708319 -0.462527364
vn 0.613563418 -0.718649566 0.264408171
vn 0.018062003 -0.886708319 -0.462527364
vn 0.679767847 -0.665111363 -0.111967683
vn 0.613563418 -0.718649566 0.264408171
vn -0.248990297 -0.876113892 0.405420423
vn 0.231863484 -0.946734488 -0.16135028
vn -0.311007947 -0.561237454 0.734124005
vn 0.018062003 -0.886708319 -0.462527364
vn 0.0261538103 -0.943149567 -0.456236064
vn 0.367962301 -0.695219338 -0.499925554
vn 0.101541363 -0.857827961 -0.483360618
vn 0.0261538103 -0.943149567 -0.456236064
vn 0.018062003 -0.886708319 -0.462527364
vn -0.290203422 0.502011657 -0.825457096
vn -0.00271841441 -0.0901204795 -0.996950507
vn -0.185149789 -0.150054559 -0.980521619
vn -0.581483364 -0.770435572 -0.419238746
vn 0.0157257263 -0.807036996 -0.611753106
vn -0.10149166 -0.96126318 -0.261297613
vn -0.00271841441 -0.0901204795 -0.996950507
vn 0.0657719597 -0.126945496 -0.962317407
vn 0.384794116 -0.511594117 -0.769797444
vn 0.0261538103 -0.943149567 -0.456236064
vn 0.101541363 -0.857827961 -0.483360618
vn 0.49231869 -0.704753995 -0.502351761
vn -0.765031993 -0.446282953 -0.521449089
vn -0.185149789 -0.150054559 -0.980521619
vn -0.581483364 -0.770435572 -0.419238746
vn -0.765031993 -0.446282953 -0.521449089
vn -0.290203422 0.502011657 -0.825457096
vn -0.185149789 -0.150054559 -0.980521619
vn -0.248990297 -0.876113892 0.405420423
vn -0.311007947 -0.561237454 0.734124005
vn -0.390354425 -0.847508788 0.332189828
g ScatterSharp_02_LOD0
f 9/1/1 10/2/2 11/3/3
f 12/4/4 13/5/5 14/6/6
f 15/7/7 16/8/8 17/9/9
f 14/10/10 13/11/11 18/12/12
f 2/13/13 1/14/14 19/15/15
f 12/16/16 20/17/17 21/18/18
f 17/19/19 5/20/20 22/21/21
f 8/22/22 23/23/23 24/24/24
f 21/25/25 26/26/26 27/27/27
f 25/28/28 29/29/29 1/30/30
f 30/31/31 31/32/32 25/33/33
f 22/34/34 33/35/35 17/36/36
f 28/37/37 10/38/38 4/39/39
f 8/40/40 36/41/41 4/42/42
f 12/43/43 14/44/44 20/45/45
f 4/46/46 10/47/47 38/48/48
f 14/49/49 18/50/50 39/51/51
f 15/52/52 32/53/53 39/54/54
f 17/55/55 16/56/56 5/57/57
f 4/58/58 40/59/59 3/60/60
f 1/61/61 37/62/62 42/63/63
f 43/64/64 44/65/65 33/66/66
f 15/67/67 17/68/68 32/69/69
f 17/70/70 33/71/71 32/72/72
f 12/73/73 21/74/74 29/75/75
f 29/76/76 13/77/77 12/78/78
f 24/79/79 23/80/80 42/81/81
f 42/82/82 23/83/83 6/84/84
f 13/85/85 5/86/86 16/87/87
f 13/88/88 16/89/89 18/90/90
f 35/91/91 1/92/92 34/93/93
f 21/94/94 34/95/95 26/96/96
f 11/97/97 10/98/98 28/99/99
f 7/100/100 8/101/101 24/102/102
f 24/103/103 42/104/104 37/105/105
f 40/106/106 39/107/107 32/108/108
f 3/109/109 40/110/110 32/111/111
f 44/112/112 32/113/113 33/114/114
f 6/115/115 22/116/116 5/117/117
f 6/118/118 23/119/119 41/120/120
f 1/121/121 35/122/122 19/123/123
f 6/124/124 41/125/125 22/126/126
f 37/127/127 11/128/128 28/129/129
f 37/130/130 28/131/131 7/132/132
f 30/133/133 25/134/134 5/135/135
f 31/136/136 29/137/137 25/138/138
f 15/139/139 39/140/140 18/141/141
f 16/142/142 15/143/143 18/144/144
f 24/145/145 37/146/146 7/147/147
f 23/148/148 8/149/149 43/150/150
f 43/151/151 3/152/152 44/153/153
f 2/154/154 19/155/155 9/156/156
f 37/157/157 2/158/158 11/159/159
f 5/160/160 25/161/161 6/162/162
f 42/163/163 6/164/164 1/165/165
f 25/166/166 1/167/167 6/168/168
f 34/169/169 21/170/170 35/171/171
f 8/172/172 3/173/173 43/174/174
f 8/175/175 4/176/176 3/177/177
f 45/178/178 35/179/179 21/180/180
f 35/181/181 45/182/182 19/183/183
f 21/184/184 27/185/185 29/186/186
f 27/187/187 26/188/188 29/189/189
f 26/190/190 1/191/191 29/192/192
f 13/193/193 29/194/194 31/195/195
f 28/196/196 4/197/197 36/198/198
f 1/199/199 2/200/200 37/201/201
f 41/202/202 23/203/203 33/204/204
f 23/205/205 43/206/206 33/207/207
f 5/208/208 13/209/209 30/210/210
f 13/211/211 31/212/212 30/213/213
f 44/214/214 3/215/215 32/216/216
f 11/217/217 2/218/218 9/219/219
f 41/220/220 33/221/221 22/222/222
f 26/223/223 34/224/224 1/225/225
f 28/226/226 36/227/227 7/228/228
f 7/229/229 36/230/230 8/231/231
f 49/232/232 50/233/233 51/234/234
f 52/235/235 53/236/236 49/237/237
f 51/238/238 50/239/239 38/240/240
f 52/241/241 49/242/242 9/243/243
f 9/244/244 49/245/245 10/246/246
f 52/247/247 46/248/248 54/249/249
f 54/250/250 46/251/251 20/252/252
f 54/253/253 56/254/254 50/255/255
f 9/256/256 19/257/257 52/258/258
f 14/259/259 48/260/260 47/261/261
f 14/262/262 39/263/263 48/264/264
f 38/265/265 55/266/266 57/267/267
f 47/268/268 55/269/269 38/270/270
f 56/271/271 14/272/272 47/273/273
f 56/274/274 47/275/275 50/276/276
f 57/277/277 39/278/278 40/279/279
f 54/280/280 20/281/281 56/282/282
f 50/283/283 47/284/284 38/285/285
f 54/286/286 50/287/287 53/288/288
f 50/289/289 49/290/290 53/291/291
f 45/292/292 52/293/293 19/294/294
f 38/295/295 57/296/296 4/297/297
f 57/298/298 40/299/299 4/300/300
f 51/301/301 38/302/302 10/303/303
f 57/304/304 48/305/305 39/306/306
f 55/307/307 48/308/308 57/309/309
f 21/310/310 20/311/311 46/312/312
f 52/313/313 54/314/314 53/315/315
f 20/316/316 14/317/317 56/318/318
f 48/319/319 55/320/320 47/321/321
f 45/322/322 46/323/323 52/324/324
f 45/325/325 21/326/326 46/327/327
f 51/328/328 10/329/329 49/330/330
