# File exported by Houdini 16.5.405 (www.sidefx.com)
# 20 points
# 108 vertices
# 36 primitives
# Bounds: [-10.7360802, 0.112137623, -7.96595907] to [12.1996288, 10.5158501, 8.63008213]
g 
v 12.1996288 6.60930634 0.864364147
v 9.52974033 1.32956123 -5.12487364
v -4.51018715 1.48563087 -7.37232828
v -9.37656879 4.26366138 -7.47688293
v 8.16119766 4.19932604 -6.90523481
v -5.56997108 2.95878959 8.63008213
v 6.61122704 4.02855778 7.09320593
v -1.68796968 6.79547119 -7.96595907
v -2.21362376 8.29876709 0.22919406
v 8.96769238 10.4593954 -3.20222378
v 4.30179977 10.2997999 -1.70179999
v -10.5732021 1.55970156 1.45390856
v -10.7360802 4.44066429 1.70450246
v -9.87818718 5.54781389 2.56781745
v 3.88723016 10.5158501 0.0797213018
v 7.01780891 6.35542059 -7.44444418
v 10.6483431 10.0021057 2.2932272
v -5.23783398 1.07345557 7.90103722
v -7.8003397 1.91911817 -6.45248318
v -8.08838463 0.112137623 2.59186411
vt 0.453439444 0.540487051 0
vt 0.396373481 0.49913013 0
vt 0.643205225 0.483456612 0
vt 0.491366982 0.458656698 0
vt 0.396373481 0.49913013 0
vt 0.406254768 0.355705023 0
vt 0.513000011 0.308999985 0
vt 0.491366982 0.458656698 0
vt 0.406254768 0.355705023 0
vt 0.876904309 0.582247794 0
vt 0.944954336 0.504834652 0
vt 0.990932763 0.556682646 0
vt 0.828930616 0.450417012 0
vt 0.876904309 0.582247794 0
vt 0.734875321 0.440103114 0
vt 0.643205225 0.483456612 0
vt 0.396373481 0.49913013 0
vt 0.623366058 0.451630086 0
vt 0.114835225 0.843953848 0
vt 0.267996937 0.777597606 0
vt 0.173500001 0.871999979 0
vt 0.300734282 0.419640809 0
vt 0.396373481 0.49913013 0
vt 0.302258104 0.444098324 0
vt 0.828930616 0.450417012 0
vt 0.944954336 0.504834652 0
vt 0.876904309 0.582247794 0
vt 0.990932763 0.556682646 0
vt 0.944954336 0.504834652 0
vt 0.973598182 0.515191078 0
vt 0.114835225 0.843953848 0
vt 0.173396528 0.900092602 0
vt 0.0715324953 0.903479159 0
vt 0.173500001 0.871999979 0
vt 0.270917386 0.92159301 0
vt 0.173396528 0.900092602 0
vt 0.876904309 0.582247794 0
vt 0.882064462 0.605406284 0
vt 0.715498149 0.591695309 0
vt 0.144817278 0.765225649 0
vt 0.267996937 0.777597606 0
vt 0.114835225 0.843953848 0
vt 0.406254768 0.355705023 0
vt 0.396373481 0.49913013 0
vt 0.300734282 0.419640809 0
vt 0.715498149 0.591695309 0
vt 0.5829041 0.543608129 0
vt 0.638200343 0.486512333 0
vt 0.112192802 0.739295483 0
vt 0.114835225 0.843953848 0
vt 0.0292200465 0.858058512 0
vt 0.876904309 0.582247794 0
vt 0.715498149 0.591695309 0
vt 0.638200343 0.486512333 0
vt 0.114835225 0.843953848 0
vt 0.173500001 0.871999979 0
vt 0.173396528 0.900092602 0
vt 0.681028664 0.170728058 0
vt 0.700647771 0.0151482578 0
vt 0.7088781 0.133063555 0
vt 0.114835225 0.843953848 0
vt 0.0715324953 0.903479159 0
vt 0.0292200465 0.858058512 0
vt 0.396373481 0.49913013 0
vt 0.280920595 0.485484749 0
vt 0.302258104 0.444098324 0
vt 0.832884967 0.271878362 0
vt 0.681028664 0.170728058 0
vt 0.7088781 0.133063555 0
vt 0.144817278 0.765225649 0
vt 0.114835225 0.843953848 0
vt 0.112192802 0.739295483 0
vt 0.876904309 0.582247794 0
vt 0.638200343 0.486512333 0
vt 0.734875321 0.440103114 0
vt 0.830391467 0.00665815547 0
vt 0.7088781 0.133063555 0
vt 0.700647771 0.0151482578 0
vt 0.491366982 0.458656698 0
vt 0.623366058 0.451630086 0
vt 0.396373481 0.49913013 0
vt 0.978114963 0.102579296 0
vt 0.966926754 0.193668082 0
vt 0.7088781 0.133063555 0
vt 0.832884967 0.271878362 0
vt 0.7088781 0.133063555 0
vt 0.966926754 0.193668082 0
vt 0.280920595 0.485484749 0
vt 0.396373481 0.49913013 0
vt 0.40121612 0.529241264 0
vt 0.876310885 0.299134284 0
vt 0.832884967 0.271878362 0
vt 0.966926754 0.193668082 0
vt 0.978114963 0.102579296 0
vt 0.7088781 0.133063555 0
vt 0.830391467 0.00665815547 0
vt 0.882064462 0.605406284 0
vt 0.876904309 0.582247794 0
vt 0.990932763 0.556682646 0
vt 0.966926754 0.193668082 0
vt 0.978114963 0.102579296 0
vt 0.991101742 0.233708411 0
vt 0.991101742 0.233708411 0
vt 0.876310885 0.299134284 0
vt 0.966926754 0.193668082 0
vt 0.40121612 0.529241264 0
vt 0.396373481 0.49913013 0
vt 0.453439444 0.540487051 0
vn -0.119714737 -0.599135816 -0.7858091
vn -0.571566761 0.318557978 -0.788146913
vn 0.348364174 -0.202422976 -0.943039596
vn -0.149289563 0.541124284 -0.790799439
vn -0.571566761 0.318557978 -0.788146913
vn -0.282337517 0.996527433 0.0464154445
vn -0.290278137 0.940299749 -0.177693114
vn -0.149289563 0.541124284 -0.790799439
vn -0.282337517 0.996527433 0.0464154445
vn -0.347715497 0.290787697 0.824641824
vn -0.47113511 0.91129446 0.205524519
vn -0.770973444 -0.679151118 0.321050733
vn -0.282337517 0.996527433 0.0464154445
vn -0.347715497 0.290787697 0.824641824
vn -0.213487431 0.940712512 0.314687073
vn 0.348364174 -0.202422976 -0.943039596
vn -0.571566761 0.318557978 -0.788146913
vn 0.300299615 0.201380506 -0.976282001
vn 0.325027555 0.947516143 -0.447023302
vn -0.149289563 0.541124284 -0.790799439
vn -0.290278137 0.940299749 -0.177693114
vn -0.47113511 0.91129446 0.205524519
vn -0.571566761 0.318557978 -0.788146913
vn -0.768989384 0.590962946 0.27732721
vn -0.282337517 0.996527433 0.0464154445
vn -0.47113511 0.91129446 0.205524519
vn -0.347715497 0.290787697 0.824641824
vn -0.770973444 -0.679151118 0.321050733
vn -0.47113511 0.91129446 0.205524519
vn -0.768989384 0.590962946 0.27732721
vn 0.325027555 0.947516143 -0.447023302
vn -0.213487431 0.940712512 0.314687073
vn 0.323433578 0.803709567 0.429234266
vn -0.290278137 0.940299749 -0.177693114
vn -0.282337517 0.996527433 0.0464154445
vn -0.213487431 0.940712512 0.314687073
vn -0.347715497 0.290787697 0.824641824
vn -0.047285229 -0.932347834 0.308149517
vn 0.471108884 -0.405872375 0.752903104
vn 0.300299615 0.201380506 -0.976282001
vn -0.149289563 0.541124284 -0.790799439
vn 0.325027555 0.947516143 -0.447023302
vn -0.282337517 0.996527433 0.0464154445
vn -0.571566761 0.318557978 -0.788146913
vn -0.47113511 0.91129446 0.205524519
vn 0.471108884 -0.405872375 0.752903104
vn 1.0410372 -0.12000706 0.264832586
vn 0.323433578 0.803709567 0.429234266
vn 0.348364174 -0.202422976 -0.943039596
vn 0.325027555 0.947516143 -0.447023302
vn 1.0410372 -0.12000706 0.264832586
vn -0.347715497 0.290787697 0.824641824
vn 0.471108884 -0.405872375 0.752903104
vn 0.323433578 0.803709567 0.429234266
vn 0.325027555 0.947516143 -0.447023302
vn -0.290278137 0.940299749 -0.177693114
vn -0.213487431 0.940712512 0.314687073
vn 0.348364174 -0.202422976 -0.943039596
vn 1.0410372 -0.12000706 0.264832586
vn 0.409630328 -0.918494642 -0.222776026
vn 0.325027555 0.947516143 -0.447023302
vn 0.323433578 0.803709567 0.429234266
vn 1.0410372 -0.12000706 0.264832586
vn -0.571566761 0.318557978 -0.788146913
vn -0.770973444 -0.679151118 0.321050733
vn -0.768989384 0.590962946 0.27732721
vn -0.119714737 -0.599135816 -0.7858091
vn 0.348364174 -0.202422976 -0.943039596
vn 0.409630328 -0.918494642 -0.222776026
vn 0.300299615 0.201380506 -0.976282001
vn 0.325027555 0.947516143 -0.447023302
vn 0.348364174 -0.202422976 -0.943039596
vn -0.347715497 0.290787697 0.824641824
vn 0.323433578 0.803709567 0.429234266
vn -0.213487431 0.940712512 0.314687073
vn 0.471108884 -0.405872375 0.752903104
vn 0.409630328 -0.918494642 -0.222776026
vn 1.0410372 -0.12000706 0.264832586
vn -0.149289563 0.541124284 -0.790799439
vn 0.300299615 0.201380506 -0.976282001
vn -0.571566761 0.318557978 -0.788146913
vn -0.047285229 -0.932347834 0.308149517
vn -0.0505439565 -1.0063976 0.0861939564
vn 0.409630328 -0.918494642 -0.222776026
vn -0.119714737 -0.599135816 -0.7858091
vn 0.409630328 -0.918494642 -0.222776026
vn -0.0505439565 -1.0063976 0.0861939564
vn -0.770973444 -0.679151118 0.321050733
vn -0.571566761 0.318557978 -0.788146913
vn -0.367852271 -0.741851211 -0.634335577
vn -0.367852271 -0.741851211 -0.634335577
vn -0.119714737 -0.599135816 -0.7858091
vn -0.0505439565 -1.0063976 0.0861939564
vn -0.047285229 -0.932347834 0.308149517
vn 0.409630328 -0.918494642 -0.222776026
vn 0.471108884 -0.405872375 0.752903104
vn -0.047285229 -0.932347834 0.308149517
vn -0.347715497 0.290787697 0.824641824
vn -0.770973444 -0.679151118 0.321050733
vn -0.0505439565 -1.0063976 0.0861939564
vn -0.047285229 -0.932347834 0.308149517
vn -0.770973444 -0.679151118 0.321050733
vn -0.770973444 -0.679151118 0.321050733
vn -0.367852271 -0.741851211 -0.634335577
vn -0.0505439565 -1.0063976 0.0861939564
vn -0.367852271 -0.741851211 -0.634335577
vn -0.571566761 0.318557978 -0.788146913
vn -0.119714737 -0.599135816 -0.7858091
g ScatterSharp_04_LOD0
f 3/1/1 4/2/2 5/3/3
f 8/4/4 4/5/5 9/6/6
f 11/7/7 8/8/8 9/9/9
f 6/10/10 14/11/11 12/12/12
f 9/13/13 6/14/14 15/15/15
f 5/16/16 4/17/17 16/18/18
f 10/19/19 8/20/20 11/21/21
f 14/22/22 4/23/23 13/24/24
f 9/25/25 14/26/26 6/27/27
f 12/28/28 14/29/29 13/30/30
f 10/31/31 15/32/32 17/33/33
f 11/34/34 9/35/35 15/36/36
f 6/37/37 18/38/38 7/39/39
f 16/40/40 8/41/41 10/42/42
f 9/43/43 4/44/44 14/45/45
f 7/46/46 1/47/47 17/48/48
f 5/49/49 10/50/50 1/51/51
f 6/52/52 7/53/53 17/54/54
f 10/55/55 11/56/56 15/57/57
f 5/58/58 1/59/59 2/60/60
f 10/61/61 17/62/62 1/63/63
f 4/64/64 12/65/65 13/66/66
f 3/67/67 5/68/68 2/69/69
f 16/70/70 10/71/71 5/72/72
f 6/73/73 17/74/74 15/75/75
f 7/76/76 2/77/77 1/78/78
f 8/79/79 16/80/80 4/81/81
f 18/82/82 20/83/83 2/84/84
f 3/85/85 2/86/86 20/87/87
f 12/88/88 4/89/89 19/90/90
f 19/91/91 3/92/92 20/93/93
f 18/94/94 2/95/95 7/96/96
f 18/97/97 6/98/98 12/99/99
f 20/100/100 18/101/101 12/102/102
f 12/103/103 19/104/104 20/105/105
f 19/106/106 4/107/107 3/108/108
