# File exported by Houdini 16.5.405 (www.sidefx.com)
# 8 points
# 36 vertices
# 12 primitives
# Bounds: [-11.3216791, -0.168682471, -6.43020821] to [10.821497, 12.0772762, 6.91930008]
g 
v -8.8611517 7.96453714 -4.84353447
v -11.3216791 2.98322368 -3.54347992
v 10.1596327 9.11194324 3.86574316
v 4.04883003 0.949879587 6.91930008
v 8.45011044 12.0772762 -3.05961347
v 1.31469595 4.80256939 -6.43020821
v 10.821497 4.90886784 -4.18615055
v -6.21225166 -0.168682471 -4.2064724
vt 0.35183695 0.784563124 0
vt 0.107539974 0.717980385 0
vt 0.250263751 0.663954318 0
vt 0.250263751 0.663954318 0
vt 0.107539974 0.717980385 0
vt 0.104368463 0.613037884 0
vt 0.84379828 0.438336492 0
vt 0.585196912 0.443384498 0
vt 0.85648036 0.325517625 0
vt 0.301083148 0.394542605 0
vt 0.338313371 0.208309472 0
vt 0.433000088 0.312905192 0
vt 0.585196912 0.443384498 0
vt 0.739611566 0.22423023 0
vt 0.85648036 0.325517625 0
vt 5.67391226e-06 0.715457082 0
vt 0.104368463 0.613037884 0
vt 0.107539974 0.717980385 0
vt 0.585196912 0.443384498 0
vt 0.525607407 0.382353425 0
vt 0.739611566 0.22423023 0
vt 0.0323051549 0.345642328 0
vt 0.107518397 0.319911331 0
vt 0.301083148 0.394542605 0
vt 0.107518397 0.319911331 0
vt 0.0323051549 0.345642328 0
vt 0.191627681 0.218876839 0
vt 0.107518397 0.319911331 0
vt 0.191627681 0.218876839 0
vt 0.301083148 0.394542605 0
vt 0.301083148 0.394542605 0
vt 0.191627681 0.218876839 0
vt 0.338313371 0.208309472 0
vt 0.35183695 0.784563124 0
vt 0.250263751 0.663954318 0
vt 0.426338822 0.752467096 0
vn -0.340878814 0.823574364 0.0210369453
vn 0.272850543 0.993298054 -0.357081831
vn 0.250906736 -0.365353733 -0.839601278
vn 0.250906736 -0.365353733 -0.839601278
vn 0.272850543 0.993298054 -0.357081831
vn 0.431575209 -0.548422396 -0.630327702
vn 0.272850543 0.993298054 -0.357081831
vn -0.340878814 0.823574364 0.0210369453
vn 0.409193009 0.630569696 0.679706514
vn 0.0696660876 -0.620954156 0.626088142
vn 0.431575209 -0.548422396 -0.630327702
vn 0.409193009 0.630569696 0.679706514
vn -0.340878814 0.823574364 0.0210369453
vn 0.0696660876 -0.620954156 0.626088142
vn 0.409193009 0.630569696 0.679706514
vn 0.409193009 0.630569696 0.679706514
vn 0.431575209 -0.548422396 -0.630327702
vn 0.272850543 0.993298054 -0.357081831
vn -0.340878814 0.823574364 0.0210369453
vn -0.769935191 -0.346643597 0.271723717
vn 0.0696660876 -0.620954156 0.626088142
vn -0.769935191 -0.346643597 0.271723717
vn -0.0646670014 -0.966081679 -0.373455018
vn 0.0696660876 -0.620954156 0.626088142
vn -0.0646670014 -0.966081679 -0.373455018
vn -0.769935191 -0.346643597 0.271723717
vn 0.250906736 -0.365353733 -0.839601278
vn -0.0646670014 -0.966081679 -0.373455018
vn 0.250906736 -0.365353733 -0.839601278
vn 0.0696660876 -0.620954156 0.626088142
vn 0.0696660876 -0.620954156 0.626088142
vn 0.250906736 -0.365353733 -0.839601278
vn 0.431575209 -0.548422396 -0.630327702
vn -0.340878814 0.823574364 0.0210369453
vn 0.250906736 -0.365353733 -0.839601278
vn -0.769935191 -0.346643597 0.271723717
g ScatterSharp_02_LOD0
f 1/1/1 5/2/2 6/3/3
f 6/4/4 5/5/5 7/6/6
f 5/7/7 1/8/8 3/9/9
f 4/10/10 7/11/11 3/12/12
f 1/13/13 4/14/14 3/15/15
f 3/16/16 7/17/17 5/18/18
f 1/19/19 2/20/20 4/21/21
f 2/22/22 8/23/23 4/24/24
f 8/25/25 2/26/26 6/27/27
f 8/28/28 6/29/29 4/30/30
f 4/31/31 6/32/32 7/33/33
f 1/34/34 6/35/35 2/36/36
