# File exported by Houdini 16.5.405 (www.sidefx.com)
# 18 points
# 96 vertices
# 32 primitives
# Bounds: [-10.1082792, 0.500335515, -9.74190998] to [11.4505444, 12.0236731, 9.73151302]
g 
v 2.52270389 10.4671745 4.68882418
v 7.30554819 9.64345646 6.80253696
v 4.35496426 2.7411871 -9.74190998
v -9.42384243 5.05544758 -2.34922862
v 2.90035677 8.9375658 -8.2943697
v 5.53027821 12.0236731 -6.01858425
v -8.52803516 6.71846008 4.50082684
v -7.22116852 2.28000402 4.20137501
v 4.58249712 5.26975727 9.73151302
v -10.1082792 2.91633272 0.395984739
v 8.51769352 10.8957691 0.00260869111
v 9.92379093 6.59112453 5.76355886
v 7.62105656 6.18300772 -9.65283489
v 11.4505444 5.35920525 -2.67141342
v 3.58541036 11.3844337 -0.940978587
v 2.92856336 0.56277591 -7.06283283
v 8.57613087 2.79659986 2.35336685
v -5.30984259 0.500335515 -0.964937329
vt 0.635621727 0.715258658 0
vt 0.426362187 0.667146444 0
vt 0.61108464 0.615047753 0
vt 0.620455146 0.548313797 0
vt 0.426362187 0.667146444 0
vt 0.367738187 0.59356159 0
vt 0.964681208 0.712319076 0
vt 0.999493837 0.780267656 0
vt 0.815837145 0.769108832 0
vt 0.67137444 0.588684738 0
vt 0.858624041 0.649305224 0
vt 0.696875334 0.668743908 0
vt 0.858624041 0.649305224 0
vt 0.89209193 0.716592491 0
vt 0.719054163 0.779714763 0
vt 0.61108464 0.615047753 0
vt 0.426362187 0.667146444 0
vt 0.620455146 0.548313797 0
vt 0.764157772 0.854641438 0
vt 0.902703583 0.800191939 0
vt 0.874841452 0.88917464 0
vt 0.392328382 0.247818604 0
vt 0.328653902 0.214861572 0
vt 0.367032975 0.0975442454 0
vt 0.719054163 0.779714763 0
vt 0.696875334 0.668743908 0
vt 0.858624041 0.649305224 0
vt 0.764157772 0.854641438 0
vt 0.748965979 0.773646116 0
vt 0.815837145 0.769108832 0
vt 0.999493837 0.780267656 0
vt 0.902703583 0.800191939 0
vt 0.815837145 0.769108832 0
vt 0.384571284 0.691998422 0
vt 0.426362187 0.667146444 0
vt 0.594162285 0.750695765 0
vt 0.764157772 0.854641438 0
vt 0.815837145 0.769108832 0
vt 0.902703583 0.800191939 0
vt 0.719054163 0.779714763 0
vt 0.64451766 0.731423855 0
vt 0.696875334 0.668743908 0
vt 0.384571284 0.691998422 0
vt 0.367738187 0.59356159 0
vt 0.426362187 0.667146444 0
vt 0.815837145 0.769108832 0
vt 0.885266721 0.732980847 0
vt 0.964681208 0.712319076 0
vt 0.999493837 0.780267656 0
vt 0.997792244 0.845228434 0
vt 0.902703583 0.800191939 0
vt 0.874841452 0.88917464 0
vt 0.902703583 0.800191939 0
vt 0.997792244 0.845228434 0
vt 0.594162285 0.750695765 0
vt 0.426362187 0.667146444 0
vt 0.635621727 0.715258658 0
vt 0.620455146 0.548313797 0
vt 0.367738187 0.59356159 0
vt 0.550965607 0.516642392 0
vt 0.689025402 0.661032021 0
vt 0.635621727 0.715258658 0
vt 0.61108464 0.615047753 0
vt 0.719054163 0.779714763 0
vt 0.607218981 0.79041338 0
vt 0.64451766 0.731423855 0
vt 0.455336332 0.0764963925 0
vt 0.579712749 0.231604487 0
vt 0.444769531 0.229819715 0
vt 0.444769531 0.229819715 0
vt 0.367032975 0.0975442454 0
vt 0.455336332 0.0764963925 0
vt 0.649078667 0.268099844 0
vt 0.444769531 0.229819715 0
vt 0.579712749 0.231604487 0
vt 0.563911378 0.017115863 0
vt 0.650152266 0.192946091 0
vt 0.455336332 0.0764963925 0
vt 0.462669283 0.00234279293 0
vt 0.455336332 0.0764963925 0
vt 0.367032975 0.0975442454 0
vt 0.579712749 0.231604487 0
vt 0.455336332 0.0764963925 0
vt 0.650152266 0.192946091 0
vt 0.462669283 0.00234279293 0
vt 0.563911378 0.017115863 0
vt 0.455336332 0.0764963925 0
vt 0.444769531 0.229819715 0
vt 0.392328382 0.247818604 0
vt 0.367032975 0.0975442454 0
vt 0.579712749 0.231604487 0
vt 0.650152266 0.192946091 0
vt 0.649078667 0.268099844 0
vt 0.89209193 0.716592491 0
vt 0.858624041 0.649305224 0
vt 0.953606844 0.653499246 0
vn -0.0291058868 -0.437785804 -0.822942019
vn -0.673886418 0.326179922 -0.694990635
vn -0.338280231 0.423449755 -0.841167271
vn -0.0931761041 0.931792974 -0.245874837
vn -0.673886418 0.326179922 -0.694990635
vn -0.624277771 0.697621703 0.423623443
vn -0.193046704 1.03431141 0.161346525
vn 0.426843375 0.908200026 0.414628893
vn -0.0931761041 0.931792974 -0.245874837
vn -0.236460119 0.974445403 0.0500827618
vn -0.624277771 0.697621703 0.423623443
vn -0.193046704 1.03431141 0.161346525
vn -0.624277771 0.697621703 0.423623443
vn -0.292111754 -0.8191908 0.550462186
vn 0.0835239142 -0.683582306 0.816099942
vn -0.338280231 0.423449755 -0.841167271
vn -0.673886418 0.326179922 -0.694990635
vn -0.0931761041 0.931792974 -0.245874837
vn 0.514987588 0.0226793829 -0.896420419
vn 0.641148984 0.784470022 0.0962153599
vn 0.961411595 -0.181541935 -0.148733392
vn -0.0291058868 -0.437785804 -0.822942019
vn 0.514987588 0.0226793829 -0.896420419
vn 0.961411595 -0.181541935 -0.148733392
vn 0.0835239142 -0.683582306 0.816099942
vn -0.193046704 1.03431141 0.161346525
vn -0.624277771 0.697621703 0.423623443
vn 0.514987588 0.0226793829 -0.896420419
vn -0.338280231 0.423449755 -0.841167271
vn -0.0931761041 0.931792974 -0.245874837
vn 0.426843375 0.908200026 0.414628893
vn 0.641148984 0.784470022 0.0962153599
vn -0.0931761041 0.931792974 -0.245874837
vn -0.825757384 -0.668953955 -0.141073838
vn -0.673886418 0.326179922 -0.694990635
vn 0.1079138 -0.914709091 -0.29824999
vn 0.514987588 0.0226793829 -0.896420419
vn -0.0931761041 0.931792974 -0.245874837
vn 0.641148984 0.784470022 0.0962153599
vn 0.0835239142 -0.683582306 0.816099942
vn 0.426843375 0.908200026 0.414628893
vn -0.193046704 1.03431141 0.161346525
vn -0.825757384 -0.668953955 -0.141073838
vn -0.624277771 0.697621703 0.423623443
vn -0.673886418 0.326179922 -0.694990635
vn -0.0931761041 0.931792974 -0.245874837
vn -0.236460119 0.974445403 0.0500827618
vn -0.193046704 1.03431141 0.161346525
vn 0.426843375 0.908200026 0.414628893
vn 0.94001317 -0.04021357 0.465763122
vn 0.641148984 0.784470022 0.0962153599
vn 0.961411595 -0.181541935 -0.148733392
vn 0.641148984 0.784470022 0.0962153599
vn 0.94001317 -0.04021357 0.465763122
vn 0.1079138 -0.914709091 -0.29824999
vn -0.673886418 0.326179922 -0.694990635
vn -0.0291058868 -0.437785804 -0.822942019
vn -0.0931761041 0.931792974 -0.245874837
vn -0.624277771 0.697621703 0.423623443
vn -0.236460119 0.974445403 0.0500827618
vn 0.514987588 0.0226793829 -0.896420419
vn -0.0291058868 -0.437785804 -0.822942019
vn -0.338280231 0.423449755 -0.841167271
vn 0.0835239142 -0.683582306 0.816099942
vn 0.94001317 -0.04021357 0.465763122
vn 0.426843375 0.908200026 0.414628893
vn 0.326860607 -0.935399055 0.257826537
vn -0.208190963 -0.98077023 -0.0688218847
vn 0.1079138 -0.914709091 -0.29824999
vn 0.1079138 -0.914709091 -0.29824999
vn 0.961411595 -0.181541935 -0.148733392
vn 0.326860607 -0.935399055 0.257826537
vn -0.825757384 -0.668953955 -0.141073838
vn 0.1079138 -0.914709091 -0.29824999
vn -0.208190963 -0.98077023 -0.0688218847
vn 0.0835239142 -0.683582306 0.816099942
vn -0.292111754 -0.8191908 0.550462186
vn 0.326860607 -0.935399055 0.257826537
vn 0.94001317 -0.04021357 0.465763122
vn 0.326860607 -0.935399055 0.257826537
vn 0.961411595 -0.181541935 -0.148733392
vn -0.208190963 -0.98077023 -0.0688218847
vn 0.326860607 -0.935399055 0.257826537
vn -0.292111754 -0.8191908 0.550462186
vn 0.94001317 -0.04021357 0.465763122
vn 0.0835239142 -0.683582306 0.816099942
vn 0.326860607 -0.935399055 0.257826537
vn 0.1079138 -0.914709091 -0.29824999
vn -0.0291058868 -0.437785804 -0.822942019
vn 0.961411595 -0.181541935 -0.148733392
vn -0.208190963 -0.98077023 -0.0688218847
vn -0.292111754 -0.8191908 0.550462186
vn -0.825757384 -0.668953955 -0.141073838
vn -0.292111754 -0.8191908 0.550462186
vn -0.624277771 0.697621703 0.423623443
vn -0.825757384 -0.668953955 -0.141073838
g ScatterSharp_01_LOD0
f 3/1/1 4/2/2 5/3/3
f 6/4/4 4/5/5 7/6/6
f 1/7/7 2/8/8 6/9/9
f 15/10/10 7/11/11 1/12/12
f 7/13/13 8/14/14 9/15/15
f 5/16/16 4/17/17 6/18/18
f 13/19/19 11/20/20 14/21/21
f 3/22/22 13/23/23 14/24/24
f 9/25/25 1/26/26 7/27/27
f 13/28/28 5/29/29 6/30/30
f 2/31/31 11/32/32 6/33/33
f 10/34/34 4/35/35 16/36/36
f 13/37/37 6/38/38 11/39/39
f 9/40/40 2/41/41 1/42/42
f 10/43/43 7/44/44 4/45/45
f 6/46/46 15/47/47 1/48/48
f 2/49/49 12/50/50 11/51/51
f 14/52/52 11/53/53 12/54/54
f 16/55/55 4/56/56 3/57/57
f 6/58/58 7/59/59 15/60/60
f 13/61/61 3/62/62 5/63/63
f 9/64/64 12/65/65 2/66/66
f 17/67/67 18/68/68 16/69/69
f 16/70/70 14/71/71 17/72/72
f 10/73/73 16/74/74 18/75/75
f 9/76/76 8/77/77 17/78/78
f 12/79/79 17/80/80 14/81/81
f 18/82/82 17/83/83 8/84/84
f 12/85/85 9/86/86 17/87/87
f 16/88/88 3/89/89 14/90/90
f 18/91/91 8/92/92 10/93/93
f 8/94/94 7/95/95 10/96/96
