# File exported by Houdini 16.5.405 (www.sidefx.com)
# 8 points
# 36 vertices
# 12 primitives
# Bounds: [-11.746274, 0.59344703, -9.6168232] to [12.2238503, 12.6289816, 8.88822746]
g 
v 3.93638134 6.88667107 8.88822746
v 9.88798332 7.83665466 6.53025055
v 3.18585777 0.59344703 -7.9025588
v -11.746274 2.48188114 0.758612454
v 5.82923079 7.19037199 -9.6168232
v 5.82735348 12.6289816 -2.39984345
v -8.52803516 6.71846008 4.50082684
v 12.2238503 4.14102411 3.28045726
vt 0.606300712 0.745524764 0
vt 0.372555345 0.687934637 0
vt 0.656959414 0.638780892 0
vt 0.591274083 0.507116199 0
vt 0.372555345 0.687934637 0
vt 0.367738187 0.59356159 0
vt 1.03415835 0.729087353 0
vt 1.00044942 0.826682866 0
vt 0.862878561 0.763318837 0
vt 0.63316083 0.570528984 0
vt 0.858624041 0.649305224 0
vt 0.710504293 0.748588502 0
vt 0.858624041 0.649305224 0
vt 0.961787105 0.673941553 0
vt 0.710504293 0.748588502 0
vt 0.656959414 0.638780892 0
vt 0.372555345 0.687934637 0
vt 0.591274083 0.507116199 0
vt 0.755524278 0.829975009 0
vt 1.00044942 0.826682866 0
vt 0.959625721 0.90454179 0
vt 0.435403109 0.23766233 0
vt 0.327273637 0.228960767 0
vt 0.423039854 0.0320927948 0
vt 0.755524278 0.829975009 0
vt 0.862878561 0.763318837 0
vt 1.00044942 0.826682866 0
vt 0.423039854 0.0320927948 0
vt 0.668914378 0.267143399 0
vt 0.435403109 0.23766233 0
vt 0.569646835 0.0211743247 0
vt 0.668914378 0.267143399 0
vt 0.423039854 0.0320927948 0
vt 0.466373056 -0.0179407001 0
vt 0.569646835 0.0211743247 0
vt 0.423039854 0.0320927948 0
vn 0.017825773 -0.843550205 -0.499657601
vn -0.735909879 -0.533208072 -0.15165779
vn 0.0866571069 0.153562725 -1.02422988
vn -0.0851945505 1.04799855 0.126069561
vn -0.735909879 -0.533208072 -0.15165779
vn -0.624277771 0.697621703 0.423623443
vn -0.00828507822 0.0721454397 0.69979465
vn 0.926890731 0.392184436 0.470637798
vn -0.0851945505 1.04799855 0.126069561
vn -0.0851945505 1.04799855 0.126069561
vn -0.624277771 0.697621703 0.423623443
vn -0.00828507822 0.0721454397 0.69979465
vn -0.624277771 0.697621703 0.423623443
vn -0.735909879 -0.533208072 -0.15165779
vn -0.00828507822 0.0721454397 0.69979465
vn 0.0866571069 0.153562725 -1.02422988
vn -0.735909879 -0.533208072 -0.15165779
vn -0.0851945505 1.04799855 0.126069561
vn 0.0866571069 0.153562725 -1.02422988
vn 0.926890731 0.392184436 0.470637798
vn 0.720807016 -0.684090853 0.269272566
vn 0.017825773 -0.843550205 -0.499657601
vn 0.0866571069 0.153562725 -1.02422988
vn 0.720807016 -0.684090853 0.269272566
vn 0.0866571069 0.153562725 -1.02422988
vn -0.0851945505 1.04799855 0.126069561
vn 0.926890731 0.392184436 0.470637798
vn 0.720807016 -0.684090853 0.269272566
vn -0.735909879 -0.533208072 -0.15165779
vn 0.017825773 -0.843550205 -0.499657601
vn -0.00828507822 0.0721454397 0.69979465
vn -0.735909879 -0.533208072 -0.15165779
vn 0.720807016 -0.684090853 0.269272566
vn 0.926890731 0.392184436 0.470637798
vn -0.00828507822 0.0721454397 0.69979465
vn 0.720807016 -0.684090853 0.269272566
g ScatterSharp_01_LOD0
f 3/1/1 4/2/2 5/3/3
f 6/4/4 4/5/5 7/6/6
f 1/7/7 2/8/8 6/9/9
f 6/10/10 7/11/11 1/12/12
f 7/13/13 4/14/14 1/15/15
f 5/16/16 4/17/17 6/18/18
f 5/19/19 2/20/20 8/21/21
f 3/22/22 5/23/23 8/24/24
f 5/25/25 6/26/26 2/27/27
f 8/28/28 4/29/29 3/30/30
f 1/31/31 4/32/32 8/33/33
f 2/34/34 1/35/35 8/36/36
