# File exported by Houdini 16.5.405 (www.sidefx.com)
# 142 points
# 882 vertices
# 294 primitives
# Bounds: [-480.260162, -1.50631571, -297.713593] to [470.273804, 486.661255, 290.926392]
g 
v 275.48288 118.540352 265.532776
v 61.210247 227.309448 214.805389
v 198.510208 171.009491 203.294357
v 200.297241 170.162292 202.693817
v 199.567474 169.706116 202.881699
v 198.814575 169.749878 197.737595
v 239.139038 186.354279 177.041595
v 214.508911 169.933517 200.505142
v 229.604248 170.255188 197.019424
v 230.853577 170.867279 196.412872
v 232.880371 171.618271 195.165085
v 233.027466 170.48436 195.674957
v 232.163727 170.09314 196.114624
v 231.930527 171.392105 195.640167
v 233.18985 170.980927 195.506195
v 425.348206 55.4165001 175.805832
v 175.567154 216.443466 180.958618
v -156.923599 170.95224 148.769302
v -229.137741 192.14209 128.675598
v -234.088684 198.827759 119.783661
v -233.032211 197.953339 121.485832
v -232.708069 197.544525 122.109108
v -232.030609 154.826843 122.476051
v -236.147186 201.223907 115.030403
v -236.682266 201.753143 113.730309
v -236.004562 200.975891 115.077324
v -237.184875 202.125702 112.58934
v -237.718033 202.412033 111.338417
v -237.525558 202.325363 111.718018
v -237.385712 202.162903 111.830505
v -239.685364 203.891907 107.676811
v -229.216919 195.771454 97.0350647
v -239.753723 203.685135 107.537224
v -242.005066 205.538605 103.783379
v -240.661224 204.310684 105.668594
v -240.58902 201.999802 105.81707
v -239.704254 203.815186 107.035599
v -242.022171 205.500946 103.697754
v -241.91629 205.364456 103.81118
v -243.078735 205.842972 101.595345
v -245.803848 208.211716 98.6316681
v -245.933594 207.990311 98.3236847
v -245.997803 208.31221 97.6028366
v -245.574966 207.671188 98.0207367
v -244.582687 207.024078 99.2013092
v -244.753403 206.684021 98.4583206
v -244.703537 206.384766 98.3112793
v -246.098755 208.179535 97.2002487
v -245.640289 207.68689 97.5694199
v -245.083633 206.880554 97.7786942
v -244.729996 206.829819 97.0948181
v -246.295837 207.858124 96.1970367
v -249.027252 210.417267 93.1629333
v -245.507721 207.162476 88.1400223
v -246.541916 205.664963 94.5573273
v -249.020767 210.4198 93.0939865
v -247.427353 209.056488 95.2275238
v -251.685043 212.082809 89.2846603
v -249.509613 210.733398 92.4823074
v -249.307266 210.575378 92.7249832
v -249.567093 210.754333 92.0727539
v -249.687775 210.732483 91.8794937
v -252.996033 213.045319 86.5515137
v -253.419724 213.297089 85.9702148
v -255.544067 217.518143 84.035202
v -252.939774 212.0439 86.346199
v -270.460999 202.933273 19.9982243
v 404.160706 100.536064 50.204628
v -146.338181 65.4672852 -26.8994694
v -146.649338 64.0185242 -37.3141136
v -147.169373 63.8857384 -39.5402145
v -147.285339 64.1614761 -40.7991028
v -147.087738 62.3536682 -43.5136032
v -146.053131 62.2766495 -46.7348061
v -146.266769 61.6840897 -48.7160683
v -148.212341 60.4685059 -54.8087654
v -135.681046 14.3494158 -88.5917969
v -224.089981 106.371834 -86.5520859
v 255.943115 2.23958397 -297.713593
v -34.7527733 276.447571 -210.259338
v -222.164383 406.213165 58.8624344
v 448.319733 5.04567337 13.1315289
v 59.5415421 106.373116 290.926392
v 319.893433 87.9536057 -196.144196
v -318.601563 276.01123 38.6319427
v -213.348877 281.940765 -173.176666
v 26.135313 4.89078856 154.894424
v 10.0259447 138.354248 -204.814941
v -284.233185 420.118774 -45.5760765
v -433.056702 486.661255 -47.2602806
v 430.001282 -0.882246971 -150.091675
v 233.99292 149.831009 195.572876
v -127.480995 311.917725 207.403442
v 13.3298502 1.60024929 -256.593872
v -248.647736 381.691406 119.893196
v -16.7345276 300.569092 181.750153
v -347.868835 349.810303 123.453888
v -214.381531 0.458209038 -50.7688675
v 470.273804 73.7514877 -83.1632996
v -29.6099377 78.9757614 169.161285
v 74.7768707 4.62381744 -243.070297
v 203.459259 201.288086 46.3408279
v -269.857574 154.838715 31.6883049
v 76.1500854 162.864639 -222.329483
v 200.617035 208.347397 -130.737518
v 153.630096 0.0564069748 207.741364
v 301.696289 5.20911169 -194.336121
v -192.885223 98.8252029 -181.099457
v 54.4732323 73.9476013 192.048126
v -480.260162 473.171478 47.9753914
v -220.903549 182.237534 -152.335938
v -212.873474 285.115356 207.299271
v -209.148529 387.240692 -104.434593
v -184.733612 166.789856 -125.978745
v 261.201508 2.81708431 284.560425
v 98.3245392 259.585144 -74.3061829
v -199.12326 240.217514 -96.2090454
v 25.6034756 264.142883 -176.164093
v -20.852066 131.30835 241.216446
v -36.9606819 283.87323 78.3960037
v 434.641968 6.43593884 264.55426
v 47.6117134 175.164322 245.678131
v -425.046967 478.736267 86.7997742
v 168.538284 192.749069 -219.795212
v -330.040833 311.103302 124.454391
v -285.44397 283.025085 -19.4035378
v -151.613586 1.59774303 -210.111389
v 408.527161 59.4894409 -168.525696
v -213.19696 96.6445007 21.5564709
v -238.532333 105.594582 -35.9107056
v -132.28067 7.85866404 67.4282837
v -81.2172394 160.972763 -155.837677
v 463.976685 52.7682571 108.246994
v 26.4080849 84.2015915 -210.103317
v -351.310669 452.860474 22.1217899
v 155.011765 118.622665 -206.180267
v -68.5543137 -1.50631571 157.715591
v -272.543152 252.705383 95.6551437
v 138.31691 183.76828 277.409637
v -9.03763962 281.334137 -88.3478241
v -145.897675 61.5104523 -46.8308411
v 198.037445 169.920883 203.924133
vt 0.806217492 0.736537278 0
vt 0.762861967 0.623457074 0
vt 0.822776854 0.568406403 0
vt 0.762861967 0.623457074 0
vt 0.715926647 0.553039551 0
vt 0.822776854 0.568406403 0
vt 0.716350019 0.688679993 0
vt 0.71679002 0.686550021 0
vt 0.717321694 0.688252091 0
vt 0.70942831 0.70145601 0
vt 0.716350019 0.688679993 0
vt 0.717321694 0.688252091 0
vt 0.71894002 0.68621999 0
vt 0.806217492 0.736537278 0
vt 0.720578849 0.686699331 0
vt 0.806217492 0.736537278 0
vt 0.73336184 0.721628845 0
vt 0.720578849 0.686699331 0
vt 0.71679002 0.686550021 0
vt 0.716350019 0.688679993 0
vt 0.70942831 0.70145601 0
vt 0.71679002 0.686550021 0
vt 0.71894002 0.68621999 0
vt 0.717376769 0.691115201 0
vt 0.71679002 0.686550021 0
vt 0.717376769 0.691115201 0
vt 0.717321694 0.688252091 0
vt 0.716719985 0.689029992 0
vt 0.717376769 0.691115201 0
vt 0.705495059 0.730001032 0
vt 0.71894002 0.68621999 0
vt 0.720578849 0.686699331 0
vt 0.73336184 0.721628845 0
vt 0.71894002 0.68621999 0
vt 0.73336184 0.721628845 0
vt 0.717376769 0.691115201 0
vt 0.717321694 0.688252091 0
vt 0.705495059 0.730001032 0
vt 0.70942831 0.70145601 0
vt 0.0660902411 0.51048249 0
vt 0.0675810128 0.51177758 0
vt 0.0684195086 0.512581587 0
vt 0.0660902411 0.51048249 0
vt 0.0684195086 0.512581587 0
vt 0.0663717166 0.511919975 0
vt 0.029428374 0.508819699 0
vt 0.0301922224 0.509238064 0
vt 0.0287033785 0.509293914 0
vt 0.702024102 0.71510607 0
vt 0.70068121 0.716227531 0
vt 0.678810298 0.655302942 0
vt 0.699308336 0.716804445 0
vt 0.678810298 0.655302942 0
vt 0.70068121 0.716227531 0
vt 0.0301922224 0.509238064 0
vt 0.0294733476 0.509741426 0
vt 0.0297800004 0.509519994 0
vt 0.70942831 0.70145601 0
vt 0.705495059 0.730001032 0
vt 0.702024102 0.71510607 0
vt 0.673901618 0.723158836 0
vt 0.699308336 0.716804445 0
vt 0.70068121 0.716227531 0
vt 0.702024102 0.71510607 0
vt 0.705495059 0.730001032 0
vt 0.702280164 0.716561198 0
vt 0.0672634244 0.512762427 0
vt 0.0653496981 0.512969255 0
vt 0.0663717166 0.511919975 0
vt 0.0672634244 0.512762427 0
vt 0.0663717166 0.511919975 0
vt 0.0684195086 0.512581587 0
vt 0.0287033785 0.509293914 0
vt 0.0297800004 0.509519994 0
vt 0.0294733476 0.509741426 0
vt 0.698670745 0.716830969 0
vt 0.678810298 0.655302942 0
vt 0.699308336 0.716804445 0
vt 0.673901618 0.723158836 0
vt 0.698670745 0.716830969 0
vt 0.699308336 0.716804445 0
vt 0.0297800004 0.509519994 0
vt 0.0287033785 0.509293914 0
vt 0.0301922224 0.509238064 0
vt 0.678810298 0.655302942 0
vt 0.698670745 0.716830969 0
vt 0.673901618 0.723158836 0
vt 0.678810298 0.655302942 0
vt 0.594649971 0.463965684 0
vt 0.670928478 0.476090312 0
vt 0.557479322 0.662726581 0
vt 0.678810298 0.655302942 0
vt 0.673901618 0.723158836 0
vt 0.837702453 0.274528652 0
vt 0.832360029 0.269490004 0
vt 0.831241965 0.268286824 0
vt 0.837702453 0.274528652 0
vt 0.831241965 0.268286824 0
vt 0.833159983 0.269459993 0
vt 0.832360029 0.269490004 0
vt 0.837702453 0.274528652 0
vt 0.824886739 0.347458303 0
vt 0.832360029 0.269490004 0
vt 0.824886739 0.347458303 0
vt 0.832669973 0.270009995 0
vt 0.837702453 0.274528652 0
vt 0.833159983 0.269459993 0
vt 0.862354279 0.280722618 0
vt 0.812742352 0.274029881 0
vt 0.832669973 0.270009995 0
vt 0.824886739 0.347458303 0
vt 0.862354279 0.280722618 0
vt 0.833159983 0.269459993 0
vt 0.831241965 0.268286824 0
vt 0.812742352 0.274029881 0
vt 0.832360029 0.269490004 0
vt 0.832669973 0.270009995 0
vt 0.812742352 0.274029881 0
vt 0.831241965 0.268286824 0
vt 0.832360029 0.269490004 0
vt 0.0280484241 0.51368463 0
vt 0.0270306077 0.512831092 0
vt 0.0282799993 0.513570011 0
vt 0.0280484241 0.51368463 0
vt 0.0282799993 0.513570011 0
vt 0.0321691856 0.513674796 0
vt 0.0269658118 0.514009774 0
vt 0.0280484241 0.51368463 0
vt 0.0321691856 0.513674796 0
vt 0.0269658118 0.514009774 0
vt 0.0321691856 0.513674796 0
vt 0.0282300003 0.513909996 0
vt 0.831241965 0.268286824 0
vt 0.812742352 0.274029881 0
vt 0.827709973 0.266220003 0
vt 0.241610005 0.0494799986 0
vt 0.242418602 0.0502322763 0
vt 0.209994808 0.0520562008 0
vt 0.826738358 0.265422434 0
vt 0.827709973 0.266220003 0
vt 0.812742352 0.274029881 0
vt 0.209994808 0.0520562008 0
vt 0.238653734 0.0456540771 0
vt 0.241610005 0.0494799986 0
vt 0.243819997 0.0513099991 0
vt 0.244059995 0.0516100004 0
vt 0.244027302 0.0521662794 0
vt 0.243819997 0.0513099991 0
vt 0.244027302 0.0521662794 0
vt 0.209994808 0.0520562008 0
vt 0.243369997 0.0519400015 0
vt 0.243786171 0.0504702665 0
vt 0.243819997 0.0513099991 0
vt 0.243369997 0.0519400015 0
vt 0.243819997 0.0513099991 0
vt 0.209994808 0.0520562008 0
vt 0.244059995 0.0516100004 0
vt 0.243819997 0.0513099991 0
vt 0.24373433 0.0509245321 0
vt 0.244059995 0.0516100004 0
vt 0.24373433 0.0509245321 0
vt 0.244029999 0.051479999 0
vt 0.242418602 0.0502322763 0
vt 0.243369997 0.0519400015 0
vt 0.209994808 0.0520562008 0
vt 0.812742352 0.274029881 0
vt 0.825240016 0.264869988 0
vt 0.826738358 0.265422434 0
vt 0.246000007 0.0545499995 0
vt 0.260101885 0.0535122193 0
vt 0.245963991 0.0545205809 0
vt 0.243271425 0.0323898047 0
vt 0.244059995 0.0516100004 0
vt 0.244029999 0.051479999 0
vt 0.244027302 0.0521662794 0
vt 0.260101885 0.0535122193 0
vt 0.209994808 0.0520562008 0
vt 0.260101885 0.0535122193 0
vt 0.245291397 0.0560517386 0
vt 0.209994808 0.0520562008 0
vt 0.245291397 0.0560517386 0
vt 0.245179996 0.056189999 0
vt 0.209994808 0.0520562008 0
vt 0.986229777 0.34735629 0
vt 0.955805838 0.424294025 0
vt 0.862354279 0.280722618 0
vt 0.243987367 0.0581390373 0
vt 0.245179996 0.056189999 0
vt 0.245291397 0.0560517386 0
vt 0.243987367 0.0581390373 0
vt 0.245291397 0.0560517386 0
vt 0.245869994 0.0576599985 0
vt 0.245670006 0.0566600002 0
vt 0.245660007 0.0564800017 0
vt 0.245869994 0.0576599985 0
vt 0.260101885 0.0535122193 0
vt 0.245660007 0.0564800017 0
vt 0.245291397 0.0560517386 0
vt 0.209994808 0.0520562008 0
vt 0.245179996 0.056189999 0
vt 0.243987367 0.0581390373 0
vt 0.245660007 0.0564800017 0
vt 0.260101885 0.0535122193 0
vt 0.245869994 0.0576599985 0
vt 0.246622622 0.0596345365 0
vt 0.246629998 0.0597099997 0
vt 0.246778741 0.0619062074 0
vt 0.246629998 0.0597099997 0
vt 0.246622622 0.0596345365 0
vt 0.246612906 0.0595430024 0
vt 0.246565059 0.0595059283 0
vt 0.245869994 0.0576599985 0
vt 0.260101885 0.0535122193 0
vt 0.243987367 0.0581390373 0
vt 0.245869994 0.0576599985 0
vt 0.246565059 0.0595059283 0
vt 0.243987367 0.0581390373 0
vt 0.246565059 0.0595059283 0
vt 0.246622622 0.0596345365 0
vt 0.243987367 0.0581390373 0
vt 0.246622622 0.0596345365 0
vt 0.246778741 0.0619062074 0
vt 0.819172502 0.26068005 0
vt 0.812742352 0.274029881 0
vt 0.817403674 0.25979954 0
vt 0.257875353 0.0478636138 0
vt 0.246629998 0.0597099997 0
vt 0.246612906 0.0595430024 0
vt 0.247700006 0.0640499964 0
vt 0.248476207 0.0638312623 0
vt 0.248539999 0.06391 0
vt 0.812742352 0.274029881 0
vt 0.807319403 0.258063465 0
vt 0.817403674 0.25979954 0
vt 0.248539999 0.06391 0
vt 0.248476207 0.0638312623 0
vt 0.248690084 0.0636629984 0
vt 0.248539999 0.06391 0
vt 0.248690084 0.0636629984 0
vt 0.248840004 0.064319998 0
vt 0.248539999 0.06391 0
vt 0.248840004 0.064319998 0
vt 0.247700006 0.0640499964 0
vt 0.247539997 0.0631600022 0
vt 0.248300001 0.0633300021 0
vt 0.248476207 0.0638312623 0
vt 0.247700006 0.0640499964 0
vt 0.247130007 0.0648500025 0
vt 0.246778741 0.0619062074 0
vt 0.246778741 0.0619062074 0
vt 0.246554792 0.0686915889 0
vt 0.243987367 0.0581390373 0
vt 0.248476207 0.0638312623 0
vt 0.248610005 0.0635500029 0
vt 0.248690084 0.0636629984 0
vt 0.249029994 0.0636600032 0
vt 0.249019995 0.0637599975 0
vt 0.248860002 0.0636499971 0
vt 0.249029994 0.0636600032 0
vt 0.248860002 0.0636499971 0
vt 0.248610005 0.0635500029 0
vt 0.248480007 0.0630299971 0
vt 0.248476207 0.0638312623 0
vt 0.248300001 0.0633300021 0
vt 0.247769997 0.0652400032 0
vt 0.247700006 0.0640499964 0
vt 0.248840004 0.064319998 0
vt 0.249410003 0.0641700029 0
vt 0.248840004 0.064319998 0
vt 0.248690084 0.0636629984 0
vt 0.0658700019 0.515969992 0
vt 0.0666500032 0.515789986 0
vt 0.066610001 0.516149998 0
vt 0.247879997 0.0627899989 0
vt 0.248300001 0.0633300021 0
vt 0.247539997 0.0631600022 0
vt 0.246554792 0.0686915889 0
vt 0.247130007 0.0648500025 0
vt 0.247700006 0.0640499964 0
vt 0.246554792 0.0686915889 0
vt 0.247700006 0.0640499964 0
vt 0.247769997 0.0652400032 0
vt 0.814100027 0.258089989 0
vt 0.813709736 0.258195549 0
vt 0.813859999 0.257779986 0
vt 0.817403674 0.25979954 0
vt 0.813709736 0.258195549 0
vt 0.814849973 0.258240014 0
vt 0.246778741 0.0619062074 0
vt 0.247130007 0.0648500025 0
vt 0.246554792 0.0686915889 0
vt 0.248610005 0.0635500029 0
vt 0.248860002 0.0636499971 0
vt 0.249019995 0.0637599975 0
vt 0.248610005 0.0635500029 0
vt 0.249019995 0.0637599975 0
vt 0.248690084 0.0636629984 0
vt 0.248690084 0.0636629984 0
vt 0.249019995 0.0637599975 0
vt 0.249410003 0.0641700029 0
vt 0.10317 0.00194999995 0
vt 0.10317 0.00194999995 0
vt 0.10317 0.00194999995 0
vt 0.10317 0.00194999995 0
vt 0.10317 0.00194999995 0
vt 0.10317 0.00194999995 0
vt 0.247769997 0.0652400032 0
vt 0.247612566 0.0657169893 0
vt 0.246554792 0.0686915889 0
vt 0.249090001 0.0687600002 0
vt 0.249559999 0.0692299977 0
vt 0.246554792 0.0686915889 0
vt 0.249090001 0.0687600002 0
vt 0.247759551 0.0655639619 0
vt 0.249559999 0.0692299977 0
vt 0.246554792 0.0686915889 0
vt 0.248480007 0.0678400025 0
vt 0.247759551 0.0655639619 0
vt 0.246554792 0.0686915889 0
vt 0.247759551 0.0655639619 0
vt 0.249090001 0.0687600002 0
vt 0.246554792 0.0686915889 0
vt 0.247612566 0.0657169893 0
vt 0.248480007 0.0678400025 0
vt 0.250360012 0.0709900036 0
vt 0.249559999 0.0692299977 0
vt 0.255467623 0.0709450692 0
vt 0.250360012 0.0709900036 0
vt 0.255467623 0.0709450692 0
vt 0.250400007 0.0710299984 0
vt 0.813709736 0.258195549 0
vt 0.807319403 0.258063465 0
vt 0.812870026 0.256779999 0
vt 0.250360012 0.0709900036 0
vt 0.250649989 0.0715200007 0
vt 0.251856506 0.0740363896 0
vt 0.250360012 0.0709900036 0
vt 0.251856506 0.0740363896 0
vt 0.250499994 0.0713400021 0
vt 0.250649989 0.0715200007 0
vt 0.250360012 0.0709900036 0
vt 0.250400007 0.0710299984 0
vt 0.250649989 0.0715200007 0
vt 0.250400007 0.0710299984 0
vt 0.250569999 0.0713199973 0
vt 0.246554792 0.0686915889 0
vt 0.249559999 0.0692299977 0
vt 0.250360012 0.0709900036 0
vt 0.246554792 0.0686915889 0
vt 0.250360012 0.0709900036 0
vt 0.250499994 0.0713400021 0
vt 0.812129974 0.25503999 0
vt 0.807319403 0.258063465 0
vt 0.809740007 0.253969997 0
vt 0.0791700035 0.509389997 0
vt 0.0786800012 0.509689987 0
vt 0.075818561 0.510492086 0
vt 0.250759989 0.071510002 0
vt 0.250649989 0.0715200007 0
vt 0.250569999 0.0713199973 0
vt 0.250490397 0.0719846487 0
vt 0.246554792 0.0686915889 0
vt 0.250499994 0.0713400021 0
vt 0.250490397 0.0719846487 0
vt 0.250499994 0.0713400021 0
vt 0.251250327 0.0745405778 0
vt 0.807319403 0.258063465 0
vt 0.80923003 0.253839999 0
vt 0.809740007 0.253969997 0
vt 0.246554792 0.0686915889 0
vt 0.250490397 0.0719846487 0
vt 0.251194119 0.0744323134 0
vt 0.807319403 0.258063465 0
vt 0.809095085 0.253805757 0
vt 0.80923003 0.253839999 0
vt 0.243987367 0.0581390373 0
vt 0.242697299 0.139386028 0
vt 0.209994808 0.0520562008 0
vt 0.809095085 0.253805757 0
vt 0.807319403 0.258063465 0
vt 0.806843758 0.252377898 0
vt 0.0728987232 0.52199769 0
vt 0.0672499985 0.519519985 0
vt 0.0696636513 0.519940078 0
vt 0.251194119 0.0744323134 0
vt 0.250360489 0.0766478479 0
vt 0.246554792 0.0686915889 0
vt 0.0671999976 0.519649982 0
vt 0.0666589811 0.51936537 0
vt 0.0693865493 0.520903826 0
vt 0.0666589811 0.51936537 0
vt 0.0672499985 0.519519985 0
vt 0.0728987232 0.52199769 0
vt 0.0693865493 0.520903826 0
vt 0.0666589811 0.51936537 0
vt 0.0728987232 0.52199769 0
vt 0.806843758 0.252377898 0
vt 0.807319403 0.258063465 0
vt 0.80500406 0.251380622 0
vt 0.253589988 0.0791700035 0
vt 0.25143829 0.0776773393 0
vt 0.250360489 0.0766478479 0
vt 0.25143829 0.0776773393 0
vt 0.253589988 0.0791700035 0
vt 0.242697299 0.139386028 0
vt 0.25143829 0.0776773393 0
vt 0.242697299 0.139386028 0
vt 0.250360489 0.0766478479 0
vt 0.209994808 0.0520562008 0
vt 0.242697299 0.139386028 0
vt 0.207608223 0.122387007 0
vt 0.242697299 0.139386028 0
vt 0.246554792 0.0686915889 0
vt 0.250360489 0.0766478479 0
vt 0.242697299 0.139386028 0
vt 0.275993049 0.0668022111 0
vt 0.309993804 0.11218027 0
vt 0.0869467556 0.168125212 0
vt 0.242697299 0.139386028 0
vt 0.0817599967 0.170340002 0
vt 0.0817599967 0.170340002 0
vt 0.0740293115 0.170159355 0
vt 0.0869467556 0.168125212 0
vt 0.0804783702 0.171252161 0
vt 0.0817599967 0.170340002 0
vt 0.242697299 0.139386028 0
vt 0.0740293115 0.170159355 0
vt 0.0789263397 0.170144171 0
vt 0.0869467556 0.168125212 0
vt 0.0818699971 0.172440007 0
vt 0.0804783702 0.171252161 0
vt 0.242697299 0.139386028 0
vt 0.0789263397 0.170144171 0
vt 0.101138428 0.121620312 0
vt 0.0869467556 0.168125212 0
vt 0.0785600021 0.171189994 0
vt 0.0740293115 0.170159355 0
vt 0.0817599967 0.170340002 0
vt 0.0785600021 0.171189994 0
vt 0.0817599967 0.170340002 0
vt 0.0804783702 0.171252161 0
vt 0.0740293115 0.170159355 0
vt 0.101138428 0.121620312 0
vt 0.0789263397 0.170144171 0
vt 0.0785600021 0.171189994 0
vt 0.0698899999 0.170839995 0
vt 0.0740293115 0.170159355 0
vt 0.0801900029 0.175600007 0
vt 0.145149261 0.223168209 0
vt 0.0801284686 0.176863819 0
vt 0.0740293115 0.170159355 0
vt 0.0680224225 0.169140548 0
vt 0.0616299994 0.166160002 0
vt 0.0801900029 0.175600007 0
vt 0.0801284686 0.176863819 0
vt 0.0417804383 0.211109385 0
vt 0.0698899999 0.170839995 0
vt 0.0050846911 0.150591776 0
vt 0.0696699992 0.170259997 0
vt 0.0740293115 0.170159355 0
vt 0.0696699992 0.170259997 0
vt 0.0680224225 0.169140548 0
vt 0.145149261 0.223168209 0
vt 0.0417804383 0.211109385 0
vt 0.0801284686 0.176863819 0
vt 0.0616299994 0.166160002 0
vt 0.0680224225 0.169140548 0
vt 0.0696699992 0.170259997 0
vt 0.0616299994 0.166160002 0
vt 0.0696699992 0.170259997 0
vt 0.0050846911 0.150591776 0
vt 0.692241073 0.388505548 0
vt 0.625080466 0.276203692 0
vt 0.717859268 0.325168014 0
vt 0.715926647 0.553039551 0
vt 0.717859268 0.325168014 0
vt 0.772395849 0.54356432 0
vt 0.0377965346 0.0876344591 0
vt 0.101138428 0.121620312 0
vt 0.0050846911 0.150591776 0
vt 0.678810298 0.655302942 0
vt 0.670928478 0.476090312 0
vt 0.715926647 0.553039551 0
vt 0.145149261 0.223168209 0
vt 0.0454099812 0.324886918 0
vt 0.0417804383 0.211109385 0
vt 0.715926647 0.553039551 0
vt 0.772395849 0.54356432 0
vt 0.822776854 0.568406403 0
vt 0.955805838 0.424294025 0
vt 0.893194973 0.46211943 0
vt 0.862354279 0.280722618 0
vt 0.598369122 0.897623956 0
vt 0.704276323 0.755952597 0
vt 0.733222365 0.839603901 0
vt 0.33664313 0.885072172 0
vt 0.41548577 0.857177973 0
vt 0.469254196 0.916472018 0
vt 0.41548577 0.857177973 0
vt 0.522175491 0.830886602 0
vt 0.469254196 0.916472018 0
vt 0.145149261 0.223168209 0
vt 0.242697299 0.139386028 0
vt 0.309732378 0.170768976 0
vt 0.594649971 0.463965684 0
vt 0.692241073 0.388505548 0
vt 0.670928478 0.476090312 0
vt 0.959698379 0.498007089 0
vt 0.936965168 0.61788255 0
vt 0.888935983 0.533523619 0
vt 0.487032741 0.149090305 0
vt 0.520503879 0.0844714046 0
vt 0.562737405 0.123355374 0
vt 0.315944731 0.755875707 0
vt 0.344551951 0.823351979 0
vt 0.33664313 0.885072172 0
vt 0.321703315 0.614001691 0
vt 0.344551951 0.823351979 0
vt 0.315944731 0.755875707 0
vt 0.888935983 0.533523619 0
vt 0.893194973 0.46211943 0
vt 0.959698379 0.498007089 0
vt 0.520503879 0.0844714046 0
vt 0.487032741 0.149090305 0
vt 0.309732378 0.170768976 0
vt 0.362616718 0.499259561 0
vt 0.428373724 0.307280391 0
vt 0.478570193 0.251737505 0
vt 0.469254196 0.916472018 0
vt 0.522175491 0.830886602 0
vt 0.543256283 0.894901037 0
vt 0.20967719 0.309638143 0
vt 0.199816823 0.286488533 0
vt 0.145149261 0.223168209 0
vt 0.594649971 0.463965684 0
vt 0.625080466 0.276203692 0
vt 0.692241073 0.388505548 0
vt 0.140310302 0.509935975 0
vt 0.209131792 0.403498173 0
vt 0.217413694 0.505096674 0
vt 0.82197994 0.489024669 0
vt 0.888935983 0.533523619 0
vt 0.822776854 0.568406403 0
vt 0.70942831 0.70145601 0
vt 0.678810298 0.655302942 0
vt 0.715926647 0.553039551 0
vt 0.336499065 0.0399170704 0
vt 0.373573482 0.0369158648 0
vt 0.309993804 0.11218027 0
vt 0.309732378 0.170768976 0
vt 0.32868135 0.310404718 0
vt 0.261971533 0.274057329 0
vt 0.145149261 0.223168209 0
vt 0.309732378 0.170768976 0
vt 0.20967719 0.309638143 0
vt 0.0412819423 0.514216661 0
vt 0.0312383771 0.452203929 0
vt 0.199816823 0.286488533 0
vt 0.261971533 0.274057329 0
vt 0.209131792 0.403498173 0
vt 0.20967719 0.309638143 0
vt 0.0412819423 0.514216661 0
vt 0.199816823 0.286488533 0
vt 0.20967719 0.309638143 0
vt 0.321703315 0.614001691 0
vt 0.266783118 0.632151425 0
vt 0.255727917 0.558217525 0
vt 0.598369122 0.897623956 0
vt 0.522175491 0.830886602 0
vt 0.673901618 0.723158836 0
vt 0.598369122 0.897623956 0
vt 0.673901618 0.723158836 0
vt 0.704276323 0.755952597 0
vt 0.329504013 0.451981157 0
vt 0.32868135 0.310404718 0
vt 0.428373724 0.307280391 0
vt 0.594649971 0.463965684 0
vt 0.563623846 0.294749588 0
vt 0.625080466 0.276203692 0
vt 0.209131792 0.403498173 0
vt 0.32868135 0.310404718 0
vt 0.217413694 0.505096674 0
vt 0.557479322 0.662726581 0
vt 0.594649971 0.463965684 0
vt 0.678810298 0.655302942 0
vt 0.822776854 0.568406403 0
vt 0.936965168 0.61788255 0
vt 0.9065606 0.719076335 0
vt 0.315944731 0.755875707 0
vt 0.33664313 0.885072172 0
vt 0.257997721 0.786254585 0
vt 0.520503879 0.0844714046 0
vt 0.309732378 0.170768976 0
vt 0.373573482 0.0369158648 0
vt 0.207608223 0.122387007 0
vt 0.141312554 0.110447139 0
vt 0.209994808 0.0520562008 0
vt 0.0698899999 0.170839995 0
vt 0.0696699992 0.170259997 0
vt 0.0740293115 0.170159355 0
vt 0.209131792 0.403498173 0
vt 0.140310302 0.509935975 0
vt 0.0412819423 0.514216661 0
vt 0.824886739 0.347458303 0
vt 0.768820822 0.237456545 0
vt 0.812742352 0.274029881 0
vt 0.0616299994 0.166160002 0
vt 0.0050846911 0.150591776 0
vt 0.101138428 0.121620312 0
vt 0.321703315 0.614001691 0
vt 0.329504013 0.451981157 0
vt 0.362616718 0.499259561 0
vt 0.207608223 0.122387007 0
vt 0.242697299 0.139386028 0
vt 0.141312554 0.110447139 0
vt 0.309732378 0.170768976 0
vt 0.261971533 0.274057329 0
vt 0.20967719 0.309638143 0
vt 0.806217492 0.736537278 0
vt 0.715926647 0.553039551 0
vt 0.762861967 0.623457074 0
vt 0.82197994 0.489024669 0
vt 0.822776854 0.568406403 0
vt 0.772395849 0.54356432 0
vt 0.562737405 0.123355374 0
vt 0.520503879 0.0844714046 0
vt 0.668741763 0.192819834 0
vt 0.768820822 0.237456545 0
vt 0.80122 0.248359993 0
vt 0.812742352 0.274029881 0
vt 0.955805838 0.424294025 0
vt 0.959698379 0.498007089 0
vt 0.893194973 0.46211943 0
vt 0.182385594 0.74868995 0
vt 0.217413694 0.505096674 0
vt 0.255727917 0.558217525 0
vt 0.822776854 0.568406403 0
vt 0.888935983 0.533523619 0
vt 0.936965168 0.61788255 0
vt 0.543256283 0.894901037 0
vt 0.598369122 0.897623956 0
vt 0.469254196 0.916472018 0
vt 0.837702453 0.274528652 0
vt 0.862354279 0.280722618 0
vt 0.824886739 0.347458303 0
vt 0.82197994 0.489024669 0
vt 0.717859268 0.325168014 0
vt 0.824886739 0.347458303 0
vt 0.717859268 0.325168014 0
vt 0.625080466 0.276203692 0
vt 0.668741763 0.192819834 0
vt 0.535690308 0.198352143 0
vt 0.478570193 0.251737505 0
vt 0.487032741 0.149090305 0
vt 0.128834352 0.305274516 0
vt 0.199816823 0.286488533 0
vt 0.0312383771 0.452203929 0
vt 0.253589988 0.0791700035 0
vt 0.275993049 0.0668022111 0
vt 0.242697299 0.139386028 0
vt 0.456409693 0.559622526 0
vt 0.401416361 0.63788116 0
vt 0.436912715 0.476956308 0
vt 0.329504013 0.451981157 0
vt 0.255727917 0.558217525 0
vt 0.217413694 0.505096674 0
vt 0.755083084 0.948631048 0
vt 0.630631864 0.956225097 0
vt 0.733222365 0.839603901 0
vt 0.145149261 0.223168209 0
vt 0.128834352 0.305274516 0
vt 0.0454099812 0.324886918 0
vt 0.141312554 0.110447139 0
vt 0.242697299 0.139386028 0
vt 0.0869467556 0.168125212 0
vt 0.217413694 0.505096674 0
vt 0.128044844 0.611547649 0
vt 0.140310302 0.509935975 0
vt 0.0377965346 0.0876344591 0
vt 0.103997961 0.003056166 0
vt 0.141312554 0.110447139 0
vt 0.456409693 0.559622526 0
vt 0.41548577 0.857177973 0
vt 0.401416361 0.63788116 0
vt 0.41548577 0.857177973 0
vt 0.456409693 0.559622526 0
vt 0.557479322 0.662726581 0
vt 0.266783118 0.632151425 0
vt 0.321703315 0.614001691 0
vt 0.257997721 0.786254585 0
vt 0.535690308 0.198352143 0
vt 0.562737405 0.123355374 0
vt 0.563623846 0.294749588 0
vt 0.563623846 0.294749588 0
vt 0.562737405 0.123355374 0
vt 0.625080466 0.276203692 0
vt 0.522175491 0.830886602 0
vt 0.41548577 0.857177973 0
vt 0.557479322 0.662726581 0
vt 0.309732378 0.170768976 0
vt 0.242697299 0.139386028 0
vt 0.309993804 0.11218027 0
vt 0.436912715 0.476956308 0
vt 0.362616718 0.499259561 0
vt 0.478570193 0.251737505 0
vt 0.630631864 0.956225097 0
vt 0.598369122 0.897623956 0
vt 0.733222365 0.839603901 0
vt 0.32868135 0.310404718 0
vt 0.329504013 0.451981157 0
vt 0.217413694 0.505096674 0
vt 0.321703315 0.614001691 0
vt 0.255727917 0.558217525 0
vt 0.329504013 0.451981157 0
vt 0.456409693 0.559622526 0
vt 0.563623846 0.294749588 0
vt 0.557479322 0.662726581 0
vt 0.257997721 0.786254585 0
vt 0.182385594 0.74868995 0
vt 0.255727917 0.558217525 0
vt 0.266783118 0.632151425 0
vt 0.257997721 0.786254585 0
vt 0.255727917 0.558217525 0
vt 0.715926647 0.553039551 0
vt 0.692241073 0.388505548 0
vt 0.717859268 0.325168014 0
vt 0.0740293115 0.170159355 0
vt 0.0616299994 0.166160002 0
vt 0.101138428 0.121620312 0
vt 0.141312554 0.110447139 0
vt 0.0869467556 0.168125212 0
vt 0.101138428 0.121620312 0
vt 0.806217492 0.736537278 0
vt 0.822776854 0.568406403 0
vt 0.9065606 0.719076335 0
vt 0.717859268 0.325168014 0
vt 0.699582517 0.211444959 0
vt 0.768820822 0.237456545 0
vt 0.217413694 0.505096674 0
vt 0.182385594 0.74868995 0
vt 0.128044844 0.611547649 0
vt 0.456409693 0.559622526 0
vt 0.535690308 0.198352143 0
vt 0.563623846 0.294749588 0
vt 0.673901618 0.723158836 0
vt 0.522175491 0.830886602 0
vt 0.557479322 0.662726581 0
vt 0.309732378 0.170768976 0
vt 0.487032741 0.149090305 0
vt 0.32868135 0.310404718 0
vt 0.199816823 0.286488533 0
vt 0.128834352 0.305274516 0
vt 0.145149261 0.223168209 0
vt 0.715926647 0.553039551 0
vt 0.806217492 0.736537278 0
vt 0.71894002 0.68621999 0
vt 0.321703315 0.614001691 0
vt 0.315944731 0.755875707 0
vt 0.257997721 0.786254585 0
vt 0.20967719 0.309638143 0
vt 0.209131792 0.403498173 0
vt 0.0412819423 0.514216661 0
vt 0.209994808 0.0520562008 0
vt 0.141312554 0.110447139 0
vt 0.103997961 0.003056166 0
vt 0.824886739 0.347458303 0
vt 0.717859268 0.325168014 0
vt 0.768820822 0.237456545 0
vt 0.478570193 0.251737505 0
vt 0.535690308 0.198352143 0
vt 0.456409693 0.559622526 0
vt 0.824886739 0.347458303 0
vt 0.862354279 0.280722618 0
vt 0.893194973 0.46211943 0
vt 0.248476207 0.0638312623 0
vt 0.246778741 0.0619062074 0
vt 0.247539997 0.0631600022 0
vt 0.247700006 0.0640499964 0
vt 0.246778741 0.0619062074 0
vt 0.248476207 0.0638312623 0
vt 0.807319403 0.258063465 0
vt 0.813709736 0.258195549 0
vt 0.817403674 0.25979954 0
vt 0.772395849 0.54356432 0
vt 0.717859268 0.325168014 0
vt 0.82197994 0.489024669 0
vt 0.344551951 0.823351979 0
vt 0.362616718 0.499259561 0
vt 0.401416361 0.63788116 0
vt 0.487032741 0.149090305 0
vt 0.478570193 0.251737505 0
vt 0.428373724 0.307280391 0
vt 0.309993804 0.11218027 0
vt 0.275993049 0.0668022111 0
vt 0.336499065 0.0399170704 0
vt 0.812742352 0.274029881 0
vt 0.80122 0.248359993 0
vt 0.807319403 0.258063465 0
vt 0.562737405 0.123355374 0
vt 0.535690308 0.198352143 0
vt 0.487032741 0.149090305 0
vt 0.70942831 0.70145601 0
vt 0.702024102 0.71510607 0
vt 0.678810298 0.655302942 0
vt 0.594649971 0.463965684 0
vt 0.557479322 0.662726581 0
vt 0.563623846 0.294749588 0
vt 0.469254196 0.916472018 0
vt 0.598369122 0.897623956 0
vt 0.630631864 0.956225097 0
vt 0.692241073 0.388505548 0
vt 0.715926647 0.553039551 0
vt 0.670928478 0.476090312 0
vt 0.32868135 0.310404718 0
vt 0.209131792 0.403498173 0
vt 0.261971533 0.274057329 0
vt 0.33664313 0.885072172 0
vt 0.344551951 0.823351979 0
vt 0.41548577 0.857177973 0
vt 0.456409693 0.559622526 0
vt 0.436912715 0.476956308 0
vt 0.478570193 0.251737505 0
vt 0.82197994 0.489024669 0
vt 0.893194973 0.46211943 0
vt 0.888935983 0.533523619 0
vt 0.80122 0.248359993 0
vt 0.80500406 0.251380622 0
vt 0.807319403 0.258063465 0
vt 0.82197994 0.489024669 0
vt 0.824886739 0.347458303 0
vt 0.893194973 0.46211943 0
vt 0.128834352 0.305274516 0
vt 0.0312383771 0.452203929 0
vt 0.0454099812 0.324886918 0
vt 0.73336184 0.721628845 0
vt 0.705495059 0.730001032 0
vt 0.717376769 0.691115201 0
vt 0.625080466 0.276203692 0
vt 0.562737405 0.123355374 0
vt 0.668741763 0.192819834 0
vt 0.362616718 0.499259561 0
vt 0.329504013 0.451981157 0
vt 0.428373724 0.307280391 0
vt 0.0818699971 0.172440007 0
vt 0.145149261 0.223168209 0
vt 0.0801900029 0.175600007 0
vt 0.242697299 0.139386028 0
vt 0.145149261 0.223168209 0
vt 0.0818699971 0.172440007 0
vt 0.309993804 0.11218027 0
vt 0.373573482 0.0369158648 0
vt 0.309732378 0.170768976 0
vt 0.598369122 0.897623956 0
vt 0.543256283 0.894901037 0
vt 0.522175491 0.830886602 0
vt 0.401416361 0.63788116 0
vt 0.362616718 0.499259561 0
vt 0.436912715 0.476956308 0
vt 0.362616718 0.499259561 0
vt 0.344551951 0.823351979 0
vt 0.321703315 0.614001691 0
vt 0.71679002 0.686550021 0
vt 0.70942831 0.70145601 0
vt 0.715926647 0.553039551 0
vt 0.71894002 0.68621999 0
vt 0.71679002 0.686550021 0
vt 0.715926647 0.553039551 0
vt 0.0377965346 0.0876344591 0
vt 0.141312554 0.110447139 0
vt 0.101138428 0.121620312 0
vt 0.246554792 0.0686915889 0
vt 0.242697299 0.139386028 0
vt 0.243987367 0.0581390373 0
vt 0.668741763 0.192819834 0
vt 0.699582517 0.211444959 0
vt 0.717859268 0.325168014 0
vt 0.487032741 0.149090305 0
vt 0.428373724 0.307280391 0
vt 0.32868135 0.310404718 0
vt 0.41548577 0.857177973 0
vt 0.344551951 0.823351979 0
vt 0.401416361 0.63788116 0
vn 0.39567855 0.684331298 0.451314121
vn 0.163398236 0.502808154 0.753496647
vn -0.40850234 -0.240335152 0.801732838
vn 0.163398236 0.502808154 0.753496647
vn 0.19971028 0.723649383 0.51598227
vn -0.40850234 -0.240335152 0.801732838
vn 0.228156164 -0.455977857 0.8602494
vn 0.282345384 0.211951599 0.935605407
vn -0.0117034651 -0.707144439 0.375154227
vn 0.214758992 -0.263127476 0.936413348
vn 0.228156164 -0.455977857 0.8602494
vn -0.0117034651 -0.707144439 0.375154227
vn 0.502683401 0.620716691 0.601681113
vn 0.39567855 0.684331298 0.451314121
vn -0.314690053 -0.749233007 0.274679422
vn 0.39567855 0.684331298 0.451314121
vn 0.438348532 0.731902361 0.356797248
vn -0.314690053 -0.749233007 0.274679422
vn 0.282345384 0.211951599 0.935605407
vn 0.228156164 -0.455977857 0.8602494
vn 0.214758992 -0.263127476 0.936413348
vn 0.282345384 0.211951599 0.935605407
vn 0.502683401 0.620716691 0.601681113
vn 0.553346694 -0.227277443 0.614320099
vn 0.282345384 0.211951599 0.935605407
vn 0.553346694 -0.227277443 0.614320099
vn -0.0117034651 -0.707144439 0.375154227
vn 0.228156164 -0.455977857 0.8602494
vn 0.553346694 -0.227277443 0.614320099
vn 0.397804171 0.736090839 0.269661695
vn 0.502683401 0.620716691 0.601681113
vn -0.314690053 -0.749233007 0.274679422
vn 0.438348532 0.731902361 0.356797248
vn 0.502683401 0.620716691 0.601681113
vn 0.438348532 0.731902361 0.356797248
vn 0.553346694 -0.227277443 0.614320099
vn -0.0117034651 -0.707144439 0.375154227
vn 0.397804171 0.736090839 0.269661695
vn 0.214758992 -0.263127476 0.936413348
vn 0.0337195918 4.43764591 -1.8540256
vn 1.0366447 3.15844655 0.397817522
vn 0.934758544 -0.113589428 1.13126993
vn 0.0337195918 4.43764591 -1.8540256
vn 0.934758544 -0.113589428 1.13126993
vn 0.383340687 -1.20875645 -0.311985731
vn -0.386893302 0.434233248 0.508157492
vn 0.811350286 -0.393721491 0.178527728
vn 0.159914538 0.297812283 -0.571260035
vn 0.135164291 -0.64784354 0.709292829
vn 0.758425891 -0.0493278727 0.643377364
vn 0.389654994 0.867569387 0.151593417
vn 0.647657514 -0.423490435 0.487126231
vn 0.389654994 0.867569387 0.151593417
vn 0.758425891 -0.0493278727 0.643377364
vn 0.811350286 -0.393721491 0.178527728
vn -0.386893302 0.434233248 0.508157492
vn -0.917669177 -0.389213741 0.0799743682
vn 0.214758992 -0.263127476 0.936413348
vn 0.397804171 0.736090839 0.269661695
vn 0.135164291 -0.64784354 0.709292829
vn 0.397804171 0.736090839 0.269661695
vn 0.647657514 -0.423490435 0.487126231
vn 0.758425891 -0.0493278727 0.643377364
vn 0.135164291 -0.64784354 0.709292829
vn 0.397804171 0.736090839 0.269661695
vn 0.758425891 -0.0493278727 0.643377364
vn 0.714305639 2.21379733 0.0917576626
vn -1.26704478 0.381251603 -3.05690384
vn 0.383340687 -1.20875645 -0.311985731
vn 0.714305639 2.21379733 0.0917576626
vn 0.383340687 -1.20875645 -0.311985731
vn 0.934758544 -0.113589428 1.13126993
vn 0.159914538 0.297812283 -0.571260035
vn -0.917669177 -0.389213741 0.0799743682
vn -0.386893302 0.434233248 0.508157492
vn 0.859909177 -0.347466022 0.330856979
vn 0.389654994 0.867569387 0.151593417
vn 0.647657514 -0.423490435 0.487126231
vn 0.397804171 0.736090839 0.269661695
vn 0.859909177 -0.347466022 0.330856979
vn 0.647657514 -0.423490435 0.487126231
vn -0.917669177 -0.389213741 0.0799743682
vn 0.159914538 0.297812283 -0.571260035
vn 0.811350286 -0.393721491 0.178527728
vn 0.389654994 0.867569387 0.151593417
vn 0.859909177 -0.347466022 0.330856979
vn 0.397804171 0.736090839 0.269661695
vn 0.389654994 0.867569387 0.151593417
vn 0.237312585 0.795506179 0.116988122
vn 0.261788189 0.867968678 0.236701295
vn 0.387956768 0.765246987 0.0557342544
vn 0.389654994 0.867569387 0.151593417
vn 0.397804171 0.736090839 0.269661695
vn -0.319686592 0.398419946 0.892104805
vn -0.179541841 0.833954096 0.521809578
vn 0.158030331 0.736616254 0.224682257
vn -0.319686592 0.398419946 0.892104805
vn 0.158030331 0.736616254 0.224682257
vn -0.863263845 -0.133273914 0.486840427
vn -0.179541841 0.833954096 0.521809578
vn -0.319686592 0.398419946 0.892104805
vn -0.36334306 -0.189925551 0.624506295
vn -0.179541841 0.833954096 0.521809578
vn -0.36334306 -0.189925551 0.624506295
vn -0.863263845 -0.133273914 0.486840427
vn -0.319686592 0.398419946 0.892104805
vn -0.863263845 -0.133273914 0.486840427
vn -0.735874176 -0.541678131 0.566812992
vn -0.216235325 0.130060285 0.521269083
vn -0.863263845 -0.133273914 0.486840427
vn -0.36334306 -0.189925551 0.624506295
vn -0.735874176 -0.541678131 0.566812992
vn -0.863263845 -0.133273914 0.486840427
vn 0.158030331 0.736616254 0.224682257
vn -0.216235325 0.130060285 0.521269083
vn -0.179541841 0.833954096 0.521809578
vn -0.863263845 -0.133273914 0.486840427
vn -0.216235325 0.130060285 0.521269083
vn 0.158030331 0.736616254 0.224682257
vn -0.179541841 0.833954096 0.521809578
vn 0.355312526 -0.794746399 -0.648394287
vn -0.427543819 3.30907845 2.51806402
vn -0.109606579 0.844252467 0.524618208
vn 0.355312526 -0.794746399 -0.648394287
vn -0.109606579 0.844252467 0.524618208
vn -0.917480171 -2.01553702 -1.56255126
vn -0.0545588136 2.09811306 1.56157756
vn 0.355312526 -0.794746399 -0.648394287
vn -0.917480171 -2.01553702 -1.56255126
vn -0.0545588136 2.09811306 1.56157756
vn -0.917480171 -2.01553702 -1.56255126
vn -0.109606579 0.844252467 0.524618208
vn 0.158030331 0.736616254 0.224682257
vn -0.216235325 0.130060285 0.521269083
vn -0.109606579 0.844252467 0.524618208
vn -0.109606579 0.844252467 0.524618208
vn 0.433742762 0.831589222 0.0763953105
vn -0.735874176 -0.541678131 0.566812992
vn 0.433742762 0.831589222 0.0763953105
vn -0.109606579 0.844252467 0.524618208
vn -0.216235325 0.130060285 0.521269083
vn -0.735874176 -0.541678131 0.566812992
vn 0.158030331 0.736616254 0.224682257
vn -0.109606579 0.844252467 0.524618208
vn 0.624496996 -0.512162149 0.589655161
vn 0.778686047 0.606990814 -0.158777237
vn -0.310379386 1.05729771 0.16152814
vn 0.624496996 -0.512162149 0.589655161
vn -0.310379386 1.05729771 0.16152814
vn -0.735874176 -0.541678131 0.566812992
vn 0.799507022 0.596576989 -0.0698871464
vn -0.349492669 0.408443183 0.597683549
vn 0.624496996 -0.512162149 0.589655161
vn 0.799507022 0.596576989 -0.0698871464
vn 0.624496996 -0.512162149 0.589655161
vn -0.735874176 -0.541678131 0.566812992
vn 0.778686047 0.606990814 -0.158777237
vn 0.624496996 -0.512162149 0.589655161
vn -0.323584378 0.335077167 0.62867254
vn 0.778686047 0.606990814 -0.158777237
vn -0.323584378 0.335077167 0.62867254
vn 0.799507022 0.596576989 -0.0698871464
vn 0.433742762 0.831589222 0.0763953105
vn 0.799507022 0.596576989 -0.0698871464
vn -0.735874176 -0.541678131 0.566812992
vn -0.216235325 0.130060285 0.521269083
vn 0.799507022 0.596576989 -0.0698871464
vn 0.433742762 0.831589222 0.0763953105
vn 0.799507022 0.596576989 -0.0698871464
vn 5.60283184 -0.525160313 -5.22868061
vn -0.279675514 0.955970228 0.166729972
vn 1.82628298 0.316077143 5.92861891
vn 0.778686047 0.606990814 -0.158777237
vn 0.799507022 0.596576989 -0.0698871464
vn -0.310379386 1.05729771 0.16152814
vn 5.60283184 -0.525160313 -5.22868061
vn -0.735874176 -0.541678131 0.566812992
vn 5.60283184 -0.525160313 -5.22868061
vn -0.391522378 0.692605078 0.496921033
vn -0.735874176 -0.541678131 0.566812992
vn -0.391522378 0.692605078 0.496921033
vn -0.821745038 0.191375032 0.536759257
vn -0.735874176 -0.541678131 0.566812992
vn -0.657452881 -0.522614896 0.313247561
vn -0.466630906 -0.45140329 0.734831154
vn -0.735874176 -0.541678131 0.566812992
vn -0.903188944 -0.0335280113 0.423520178
vn -0.821745038 0.191375032 0.536759257
vn -0.391522378 0.692605078 0.496921033
vn -0.903188944 -0.0335280113 0.423520178
vn -0.391522378 0.692605078 0.496921033
vn -0.0252394117 0.918015838 0.395739675
vn -0.821745038 0.191375032 0.536759257
vn 0.56022048 0.826163232 0.0600606427
vn -0.0252394117 0.918015838 0.395739675
vn 5.60283184 -0.525160313 -5.22868061
vn 0.56022048 0.826163232 0.0600606427
vn -0.391522378 0.692605078 0.496921033
vn -0.735874176 -0.541678131 0.566812992
vn -0.821745038 0.191375032 0.536759257
vn -0.903188944 -0.0335280113 0.423520178
vn 0.56022048 0.826163232 0.0600606427
vn 5.60283184 -0.525160313 -5.22868061
vn -0.0252394117 0.918015838 0.395739675
vn -0.850282967 -0.267908037 0.312773108
vn 0.555280924 0.81864965 -0.146546453
vn -0.332315236 0.97448796 0.362683535
vn 0.555280924 0.81864965 -0.146546453
vn -0.850282967 -0.267908037 0.312773108
vn 0.551044524 0.738918126 0.372460842
vn -0.0324345082 0.442359686 0.459578156
vn -0.0252394117 0.918015838 0.395739675
vn 5.60283184 -0.525160313 -5.22868061
vn -0.903188944 -0.0335280113 0.423520178
vn -0.0252394117 0.918015838 0.395739675
vn -0.0324345082 0.442359686 0.459578156
vn -0.903188944 -0.0335280113 0.423520178
vn -0.0324345082 0.442359686 0.459578156
vn -0.850282967 -0.267908037 0.312773108
vn -0.903188944 -0.0335280113 0.423520178
vn -0.850282967 -0.267908037 0.312773108
vn -0.332315236 0.97448796 0.362683535
vn 0.50770992 0.730991244 0.40525791
vn -0.216235325 0.130060285 0.521269083
vn -0.332315236 0.97448796 0.362683535
vn 2.96972966 16.1253185 -99.0648575
vn 0.555280924 0.81864965 -0.146546453
vn 0.551044524 0.738918126 0.372460842
vn -0.647727966 -0.747070551 -0.14944537
vn 0.930816948 0.0367745645 -0.645601034
vn 0.392453671 -0.800166249 -0.453556836
vn -0.216235325 0.130060285 0.521269083
vn 0.303091496 0.594646573 0.401037872
vn -0.332315236 0.97448796 0.362683535
vn 0.392453671 -0.800166249 -0.453556836
vn 0.930816948 0.0367745645 -0.645601034
vn -0.475027412 -0.820001841 0.124671496
vn 0.392453671 -0.800166249 -0.453556836
vn -0.475027412 -0.820001841 0.124671496
vn 0.220983937 0.830993176 0.510505915
vn 0.392453671 -0.800166249 -0.453556836
vn 0.220983937 0.830993176 0.510505915
vn -0.647727966 -0.747070551 -0.14944537
vn 0.647861302 0.751011491 -0.127504453
vn 0.220983937 0.830993176 0.510505915
vn 0.930816948 0.0367745645 -0.645601034
vn -0.647727966 -0.747070551 -0.14944537
vn -0.41479671 -0.513283074 0.751321614
vn -0.332315236 0.97448796 0.362683535
vn -0.332315236 0.97448796 0.362683535
vn -0.887185693 -0.278177649 0.45827195
vn -0.903188944 -0.0335280113 0.423520178
vn 0.930816948 0.0367745645 -0.645601034
vn 0.0283267945 -0.837207973 0.546150565
vn -0.475027412 -0.820001841 0.124671496
vn 0.220983937 0.830993176 0.510505915
vn -0.275936663 0.793576598 0.54230547
vn -0.119459733 0.344406962 0.93118906
vn 0.220983937 0.830993176 0.510505915
vn -0.119459733 0.344406962 0.93118906
vn 0.0283267945 -0.837207973 0.546150565
vn -0.275936663 0.793576598 0.54230547
vn 0.930816948 0.0367745645 -0.645601034
vn 0.220983937 0.830993176 0.510505915
vn -0.500830531 0.7711097 0.393139362
vn -0.647727966 -0.747070551 -0.14944537
vn 0.220983937 0.830993176 0.510505915
vn -0.500830531 0.7711097 0.393139362
vn 0.220983937 0.830993176 0.510505915
vn -0.475027412 -0.820001841 0.124671496
vn -0.500830531 0.7711097 0.393139362
vn -0.275936663 0.793576598 0.54230547
vn 0.220983937 0.830993176 0.510505915
vn -0.500830531 0.7711097 0.393139362
vn 0.220983937 0.830993176 0.510505915
vn 0.647861302 0.751011491 -0.127504453
vn -0.887185693 -0.278177649 0.45827195
vn -0.41479671 -0.513283074 0.751321614
vn -0.647727966 -0.747070551 -0.14944537
vn -0.887185693 -0.278177649 0.45827195
vn -0.647727966 -0.747070551 -0.14944537
vn -0.500830531 0.7711097 0.393139362
vn -0.41479671 -0.513283074 0.751321614
vn 0.447224438 0.782311201 0.0621985793
vn -0.500830531 0.7711097 0.393139362
vn -0.332315236 0.97448796 0.362683535
vn 0.447224438 0.782311201 0.0621985793
vn 0.647861302 0.751011491 -0.127504453
vn -0.332315236 0.97448796 0.362683535
vn -0.41479671 -0.513283074 0.751321614
vn -0.887185693 -0.278177649 0.45827195
vn 0.0283267945 -0.837207973 0.546150565
vn -0.119459733 0.344406962 0.93118906
vn -0.275936663 0.793576598 0.54230547
vn 0.0283267945 -0.837207973 0.546150565
vn -0.275936663 0.793576598 0.54230547
vn -0.475027412 -0.820001841 0.124671496
vn -0.475027412 -0.820001841 0.124671496
vn -0.275936663 0.793576598 0.54230547
vn -0.500830531 0.7711097 0.393139362
vn -0.275936663 0.793576598 0.54230547
vn -0.500830531 0.7711097 0.393139362
vn -0.453584969 0.759356558 0.456475556
vn -0.275936663 0.793576598 0.54230547
vn -0.453584969 0.759356558 0.456475556
vn -0.500830531 0.7711097 0.393139362
vn -0.500830531 0.7711097 0.393139362
vn 0.447224438 0.782311201 0.0621985793
vn -0.887185693 -0.278177649 0.45827195
vn 0.0283267945 -0.837207973 0.546150565
vn -0.150569439 0.811105013 0.56518805
vn -0.887185693 -0.278177649 0.45827195
vn 0.0283267945 -0.837207973 0.546150565
vn 0.303091496 0.594646573 0.401037872
vn -0.150569439 0.811105013 0.56518805
vn -0.887185693 -0.278177649 0.45827195
vn -0.119459733 0.344406962 0.93118906
vn 0.303091496 0.594646573 0.401037872
vn -0.887185693 -0.278177649 0.45827195
vn 0.303091496 0.594646573 0.401037872
vn 0.0283267945 -0.837207973 0.546150565
vn -0.887185693 -0.278177649 0.45827195
vn 0.447224438 0.782311201 0.0621985793
vn -0.119459733 0.344406962 0.93118906
vn -0.292098761 0.753679931 0.588765562
vn -0.150569439 0.811105013 0.56518805
vn 6.06499386 1.16223848 -3.60628462
vn -0.292098761 0.753679931 0.588765562
vn 6.06499386 1.16223848 -3.60628462
vn 0.504418075 0.860669672 0.0693548694
vn 0.447224438 0.782311201 0.0621985793
vn 0.303091496 0.594646573 0.401037872
vn -0.119459733 0.344406962 0.93118906
vn -0.292098761 0.753679931 0.588765562
vn -0.716573894 0.0652740821 0.69445008
vn -0.398970485 0.800622463 0.543486834
vn -0.292098761 0.753679931 0.588765562
vn -0.398970485 0.800622463 0.543486834
vn -0.392101854 0.761090696 0.516717374
vn -0.716573894 0.0652740821 0.69445008
vn -0.292098761 0.753679931 0.588765562
vn 0.504418075 0.860669672 0.0693548694
vn -0.716573894 0.0652740821 0.69445008
vn 0.504418075 0.860669672 0.0693548694
vn -0.392101854 0.761090696 0.516717374
vn -0.887185693 -0.278177649 0.45827195
vn -0.150569439 0.811105013 0.56518805
vn -0.292098761 0.753679931 0.588765562
vn -0.887185693 -0.278177649 0.45827195
vn -0.292098761 0.753679931 0.588765562
vn -0.392101854 0.761090696 0.516717374
vn -0.150569439 0.811105013 0.56518805
vn 0.303091496 0.594646573 0.401037872
vn -0.392101854 0.761090696 0.516717374
vn -0.392101854 0.761090696 0.516717374
vn 0.537294507 0.843011439 -0.0254257359
vn -0.434455931 0.684308112 0.569587111
vn 0.537294507 0.843011439 -0.0254257359
vn -0.716573894 0.0652740821 0.69445008
vn -0.392101854 0.761090696 0.516717374
vn -0.703796864 0.286034614 0.618254602
vn -0.887185693 -0.278177649 0.45827195
vn -0.392101854 0.761090696 0.516717374
vn -0.703796864 0.286034614 0.618254602
vn -0.392101854 0.761090696 0.516717374
vn -0.461452782 0.659899414 0.580727875
vn 0.303091496 0.594646573 0.401037872
vn 0.537294507 0.843011439 -0.0254257359
vn -0.392101854 0.761090696 0.516717374
vn -0.887185693 -0.278177649 0.45827195
vn -0.703796864 0.286034614 0.618254602
vn -0.43355301 0.690300703 0.564114511
vn 0.303091496 0.594646573 0.401037872
vn 0.387163609 0.830165327 0.105260894
vn 0.537294507 0.843011439 -0.0254257359
vn -0.903188944 -0.0335280113 0.423520178
vn -0.845008969 -0.484033585 -0.194967315
vn -0.735874176 -0.541678131 0.566812992
vn 0.387163609 0.830165327 0.105260894
vn 0.303091496 0.594646573 0.401037872
vn -0.43355301 0.690300703 0.564114511
vn 41.7908249 -8.34479713 -25.4043026
vn 0.019831324 0.948830187 0.315163434
vn -5.30186176 2.32910824 -0.430695057
vn -0.43355301 0.690300703 0.564114511
vn -0.794127584 -0.282283753 0.475177646
vn -0.887185693 -0.278177649 0.45827195
vn 0.019831324 0.948830187 0.315163434
vn 0.636400044 0.0780384764 1.09616506
vn -5.30186176 2.32910824 -0.430695057
vn 0.636400044 0.0780384764 1.09616506
vn 0.019831324 0.948830187 0.315163434
vn 41.7908249 -8.34479713 -25.4043026
vn -5.30186176 2.32910824 -0.430695057
vn 0.636400044 0.0780384764 1.09616506
vn 41.7908249 -8.34479713 -25.4043026
vn -0.43355301 0.690300703 0.564114511
vn 0.303091496 0.594646573 0.401037872
vn -0.794127584 -0.282283753 0.475177646
vn -0.632315874 -0.221790686 0.74228394
vn 0.585641384 0.158756539 0.516262114
vn -0.794127584 -0.282283753 0.475177646
vn 0.585641384 0.158756539 0.516262114
vn -0.632315874 -0.221790686 0.74228394
vn -0.845008969 -0.484033585 -0.194967315
vn 0.585641384 0.158756539 0.516262114
vn -0.845008969 -0.484033585 -0.194967315
vn -0.794127584 -0.282283753 0.475177646
vn -0.735874176 -0.541678131 0.566812992
vn -0.845008969 -0.484033585 -0.194967315
vn -0.720561802 -0.313581169 -0.261391521
vn -0.845008969 -0.484033585 -0.194967315
vn -0.887185693 -0.278177649 0.45827195
vn -0.794127584 -0.282283753 0.475177646
vn -0.845008969 -0.484033585 -0.194967315
vn -0.592554152 -0.75922823 0.250344694
vn -0.695539653 -0.674015641 -0.075038746
vn -0.410218805 0.294615865 -0.289018273
vn -0.845008969 -0.484033585 -0.194967315
vn -0.885072947 0.458799601 -0.0784121826
vn -0.885072947 0.458799601 -0.0784121826
vn -0.0353059433 1.01455891 -0.238836735
vn -0.410218805 0.294615865 -0.289018273
vn -0.639844477 -0.293242007 0.149007231
vn -0.885072947 0.458799601 -0.0784121826
vn -0.845008969 -0.484033585 -0.194967315
vn -0.0353059433 1.01455891 -0.238836735
vn -0.172019362 -0.499712825 -0.00967246853
vn -0.410218805 0.294615865 -0.289018273
vn -0.922990739 -0.382038981 0.0461978242
vn -0.639844477 -0.293242007 0.149007231
vn -0.845008969 -0.484033585 -0.194967315
vn -0.172019362 -0.499712825 -0.00967246853
vn -0.386714309 0.617352486 -0.166913405
vn -0.410218805 0.294615865 -0.289018273
vn -0.922990739 -0.382038981 0.0461978242
vn -0.0353059433 1.01455891 -0.238836735
vn -0.885072947 0.458799601 -0.0784121826
vn -0.922990739 -0.382038981 0.0461978242
vn -0.885072947 0.458799601 -0.0784121826
vn -0.639844477 -0.293242007 0.149007231
vn -0.0353059433 1.01455891 -0.238836735
vn -0.386714309 0.617352486 -0.166913405
vn -0.172019362 -0.499712825 -0.00967246853
vn -0.922990739 -0.382038981 0.0461978242
vn -0.897198558 -0.44125402 0.0181490239
vn -0.0353059433 1.01455891 -0.238836735
vn -0.897198558 -0.44125402 0.0181490239
vn -0.600843251 -0.364587128 0.485891342
vn -0.784976006 0.191505462 0.143490598
vn -0.0353059433 1.01455891 -0.238836735
vn -0.298615694 -0.0262530856 0.0966904461
vn 0.295649081 0.9166255 -0.269052446
vn -0.897198558 -0.44125402 0.0181490239
vn -0.784976006 0.191505462 0.143490598
vn -0.0378239118 0.114740774 -0.1882222
vn -0.897198558 -0.44125402 0.0181490239
vn -0.0378239118 0.114740774 -0.1882222
vn -0.751587391 0.64874202 -0.119374916
vn -0.0353059433 1.01455891 -0.238836735
vn -0.751587391 0.64874202 -0.119374916
vn -0.298615694 -0.0262530856 0.0966904461
vn -0.600843251 -0.364587128 0.485891342
vn -0.0378239118 0.114740774 -0.1882222
vn -0.784976006 0.191505462 0.143490598
vn 0.295649081 0.9166255 -0.269052446
vn -0.298615694 -0.0262530856 0.0966904461
vn -0.751587391 0.64874202 -0.119374916
vn 0.295649081 0.9166255 -0.269052446
vn -0.751587391 0.64874202 -0.119374916
vn -0.0378239118 0.114740774 -0.1882222
vn 0.305207521 0.785240233 0.431296229
vn 0.297252864 0.798333168 0.396676302
vn -0.224241018 0.122735471 0.814219177
vn 0.19971028 0.723649383 0.51598227
vn -0.224241018 0.122735471 0.814219177
vn 0.157574147 0.56763953 0.635299027
vn -0.859073699 -0.384114206 -0.297226489
vn -0.386714309 0.617352486 -0.166913405
vn -0.0378239118 0.114740774 -0.1882222
vn 0.389654994 0.867569387 0.151593417
vn 0.261788189 0.867968678 0.236701295
vn 0.19971028 0.723649383 0.51598227
vn -0.600843251 -0.364587128 0.485891342
vn -0.543292582 -0.385946095 -0.536590934
vn -0.0378239118 0.114740774 -0.1882222
vn 0.19971028 0.723649383 0.51598227
vn 0.157574147 0.56763953 0.635299027
vn -0.40850234 -0.240335152 0.801732838
vn -0.466630906 -0.45140329 0.734831154
vn -0.294078588 -0.376809806 0.789652228
vn -0.735874176 -0.541678131 0.566812992
vn 0.535615385 0.562699378 0.376032144
vn 0.438348532 0.731902361 0.356797248
vn 0.39567855 0.684331298 0.451314121
vn 0.618925214 -0.496832758 -0.423441768
vn 0.593920112 0.679510653 0.0623854995
vn 0.909701705 -0.18465285 -0.0468239039
vn 0.593920112 0.679510653 0.0623854995
vn 0.53614682 0.686587811 0.118594572
vn 0.909701705 -0.18465285 -0.0468239039
vn -0.600843251 -0.364587128 0.485891342
vn -0.845008969 -0.484033585 -0.194967315
vn -0.699398816 -0.497379571 -0.27269578
vn 0.237312585 0.795506179 0.116988122
vn 0.305207521 0.785240233 0.431296229
vn 0.261788189 0.867968678 0.236701295
vn -0.189625219 -0.267361313 0.148646474
vn -0.512887895 -0.810158312 0.297349513
vn -0.404820323 -0.679573059 0.433861732
vn 0.0165207218 0.719619513 -0.517975807
vn -0.888437927 -0.450541019 0.0229796581
vn 0.287568569 0.811832249 0.411374718
vn 0.598109841 0.12128368 -0.668478072
vn 0.395976901 0.549120307 -0.599218905
vn 0.618925214 -0.496832758 -0.423441768
vn 0.157569781 0.206246287 -0.756328285
vn 0.395976901 0.549120307 -0.599218905
vn 0.598109841 0.12128368 -0.668478072
vn -0.404820323 -0.679573059 0.433861732
vn -0.294078588 -0.376809806 0.789652228
vn -0.189625219 -0.267361313 0.148646474
vn -0.888437927 -0.450541019 0.0229796581
vn 0.0165207218 0.719619513 -0.517975807
vn -0.699398816 -0.497379571 -0.27269578
vn 0.245889381 0.71654284 -0.423395187
vn 0.239698872 0.838469803 -0.349197954
vn 0.279352993 0.832096994 -0.273429602
vn 0.909701705 -0.18465285 -0.0468239039
vn 0.53614682 0.686587811 0.118594572
vn 0.725360572 0.428934991 0.0706683472
vn 0.114368796 0.513314307 -0.614601612
vn 0.0317167193 0.635827065 -0.458342373
vn -0.600843251 -0.364587128 0.485891342
vn 0.237312585 0.795506179 0.116988122
vn 0.297252864 0.798333168 0.396676302
vn 0.305207521 0.785240233 0.431296229
vn -0.26090765 0.45006609 -0.00116384053
vn -0.0458904542 0.36743328 -0.383497238
vn -0.467108428 -0.175475031 -0.729922295
vn -0.36301747 -0.443511009 0.804911137
vn -0.404820323 -0.679573059 0.433861732
vn -0.40850234 -0.240335152 0.801732838
vn 0.214758992 -0.263127476 0.936413348
vn 0.389654994 0.867569387 0.151593417
vn 0.19971028 0.723649383 0.51598227
vn -0.756638229 -0.385191381 0.499798
vn -0.515094161 -0.339466929 0.439684898
vn -0.695539653 -0.674015641 -0.075038746
vn -0.699398816 -0.497379571 -0.27269578
vn -0.404550016 -0.187988505 -0.679006279
vn -0.169880509 0.175005049 -0.407837391
vn -0.600843251 -0.364587128 0.485891342
vn -0.699398816 -0.497379571 -0.27269578
vn 0.114368796 0.513314307 -0.614601612
vn -0.337106466 0.0999436155 -0.690296531
vn -0.487588227 -0.245341346 -0.924503744
vn 0.0317167193 0.635827065 -0.458342373
vn -0.169880509 0.175005049 -0.407837391
vn -0.0458904542 0.36743328 -0.383497238
vn 0.114368796 0.513314307 -0.614601612
vn -0.337106466 0.0999436155 -0.690296531
vn 0.0317167193 0.635827065 -0.458342373
vn 0.114368796 0.513314307 -0.614601612
vn 0.157569781 0.206246287 -0.756328285
vn -0.0707744285 0.00188192609 -0.715842187
vn 0.0580782034 0.222501904 -0.671905816
vn 0.535615385 0.562699378 0.376032144
vn 0.53614682 0.686587811 0.118594572
vn 0.397804171 0.736090839 0.269661695
vn 0.535615385 0.562699378 0.376032144
vn 0.397804171 0.736090839 0.269661695
vn 0.438348532 0.731902361 0.356797248
vn -0.0579240508 0.389679372 -0.55790174
vn -0.404550016 -0.187988505 -0.679006279
vn 0.239698872 0.838469803 -0.349197954
vn 0.237312585 0.795506179 0.116988122
vn 0.231654808 0.69038713 0.51982826
vn 0.297252864 0.798333168 0.396676302
vn -0.0458904542 0.36743328 -0.383497238
vn -0.404550016 -0.187988505 -0.679006279
vn -0.467108428 -0.175475031 -0.729922295
vn 0.387956768 0.765246987 0.0557342544
vn 0.237312585 0.795506179 0.116988122
vn 0.389654994 0.867569387 0.151593417
vn -0.40850234 -0.240335152 0.801732838
vn -0.512887895 -0.810158312 0.297349513
vn 0.0327156484 -0.162820429 0.919363022
vn 0.598109841 0.12128368 -0.668478072
vn 0.618925214 -0.496832758 -0.423441768
vn 0.595467567 0.248110458 -0.473560095
vn -0.888437927 -0.450541019 0.0229796581
vn -0.699398816 -0.497379571 -0.27269578
vn -0.515094161 -0.339466929 0.439684898
vn -0.720561802 -0.313581169 -0.261391521
vn -0.532604694 -0.0674935132 0.147287428
vn -0.735874176 -0.541678131 0.566812992
vn -0.897198558 -0.44125402 0.0181490239
vn -0.751587391 0.64874202 -0.119374916
vn -0.0353059433 1.01455891 -0.238836735
vn -0.0458904542 0.36743328 -0.383497238
vn -0.26090765 0.45006609 -0.00116384053
vn -0.337106466 0.0999436155 -0.690296531
vn -0.36334306 -0.189925551 0.624506295
vn -0.592554152 -0.75922823 0.250344694
vn -0.216235325 0.130060285 0.521269083
vn 0.295649081 0.9166255 -0.269052446
vn -0.0378239118 0.114740774 -0.1882222
vn -0.386714309 0.617352486 -0.166913405
vn 0.157569781 0.206246287 -0.756328285
vn -0.0579240508 0.389679372 -0.55790174
vn 0.245889381 0.71654284 -0.423395187
vn -0.720561802 -0.313581169 -0.261391521
vn -0.845008969 -0.484033585 -0.194967315
vn -0.532604694 -0.0674935132 0.147287428
vn -0.699398816 -0.497379571 -0.27269578
vn -0.169880509 0.175005049 -0.407837391
vn 0.114368796 0.513314307 -0.614601612
vn 0.39567855 0.684331298 0.451314121
vn 0.19971028 0.723649383 0.51598227
vn 0.163398236 0.502808154 0.753496647
vn -0.36301747 -0.443511009 0.804911137
vn -0.40850234 -0.240335152 0.801732838
vn 0.157574147 0.56763953 0.635299027
vn 0.287568569 0.811832249 0.411374718
vn -0.888437927 -0.450541019 0.0229796581
vn -0.515094161 -0.339466929 0.439684898
vn -0.592554152 -0.75922823 0.250344694
vn -0.632315874 -0.221790686 0.74228394
vn -0.216235325 0.130060285 0.521269083
vn -0.466630906 -0.45140329 0.734831154
vn -0.189625219 -0.267361313 0.148646474
vn -0.294078588 -0.376809806 0.789652228
vn 0.169653237 0.198867381 -0.941583931
vn -0.467108428 -0.175475031 -0.729922295
vn 0.0580782034 0.222501904 -0.671905816
vn -0.40850234 -0.240335152 0.801732838
vn -0.404820323 -0.679573059 0.433861732
vn -0.512887895 -0.810158312 0.297349513
vn 0.725360572 0.428934991 0.0706683472
vn 0.535615385 0.562699378 0.376032144
vn 0.909701705 -0.18465285 -0.0468239039
vn -0.319686592 0.398419946 0.892104805
vn -0.735874176 -0.541678131 0.566812992
vn -0.36334306 -0.189925551 0.624506295
vn -0.36301747 -0.443511009 0.804911137
vn -0.224241018 0.122735471 0.814219177
vn -0.36334306 -0.189925551 0.624506295
vn -0.224241018 0.122735471 0.814219177
vn 0.297252864 0.798333168 0.396676302
vn -0.515094161 -0.339466929 0.439684898
vn 0.293384135 0.782041669 0.341943175
vn 0.279352993 0.832096994 -0.273429602
vn 0.0165207218 0.719619513 -0.517975807
vn -0.493980169 0.204156503 -0.864809811
vn 0.0317167193 0.635827065 -0.458342373
vn -0.487588227 -0.245341346 -0.924503744
vn -0.632315874 -0.221790686 0.74228394
vn -0.592554152 -0.75922823 0.250344694
vn -0.845008969 -0.484033585 -0.194967315
vn 0.425395221 0.902426541 -0.103477098
vn 0.452773511 0.805455506 -0.298321187
vn 0.148543581 0.802890062 -0.306158781
vn -0.0579240508 0.389679372 -0.55790174
vn 0.0580782034 0.222501904 -0.671905816
vn -0.467108428 -0.175475031 -0.729922295
vn 0.0327156484 -0.162820429 0.919363022
vn 0.415730506 0.274999321 0.77782774
vn 0.39567855 0.684331298 0.451314121
vn -0.600843251 -0.364587128 0.485891342
vn -0.493980169 0.204156503 -0.864809811
vn -0.543292582 -0.385946095 -0.536590934
vn -0.532604694 -0.0674935132 0.147287428
vn -0.845008969 -0.484033585 -0.194967315
vn -0.410218805 0.294615865 -0.289018273
vn -0.467108428 -0.175475031 -0.729922295
vn -0.337106466 0.0999436155 -0.690296531
vn -0.26090765 0.45006609 -0.00116384053
vn -0.859073699 -0.384114206 -0.297226489
vn -0.657452881 -0.522614896 0.313247561
vn -0.532604694 -0.0674935132 0.147287428
vn 0.425395221 0.902426541 -0.103477098
vn 0.593920112 0.679510653 0.0623854995
vn 0.452773511 0.805455506 -0.298321187
vn 0.593920112 0.679510653 0.0623854995
vn 0.425395221 0.902426541 -0.103477098
vn 0.387956768 0.765246987 0.0557342544
vn -0.0707744285 0.00188192609 -0.715842187
vn 0.157569781 0.206246287 -0.756328285
vn 0.595467567 0.248110458 -0.473560095
vn 0.293384135 0.782041669 0.341943175
vn 0.287568569 0.811832249 0.411374718
vn 0.231654808 0.69038713 0.51982826
vn 0.231654808 0.69038713 0.51982826
vn 0.287568569 0.811832249 0.411374718
vn 0.297252864 0.798333168 0.396676302
vn 0.53614682 0.686587811 0.118594572
vn 0.593920112 0.679510653 0.0623854995
vn 0.387956768 0.765246987 0.0557342544
vn -0.699398816 -0.497379571 -0.27269578
vn -0.845008969 -0.484033585 -0.194967315
vn -0.695539653 -0.674015641 -0.075038746
vn 0.148543581 0.802890062 -0.306158781
vn 0.245889381 0.71654284 -0.423395187
vn 0.279352993 0.832096994 -0.273429602
vn 0.415730506 0.274999321 0.77782774
vn 0.535615385 0.562699378 0.376032144
vn 0.39567855 0.684331298 0.451314121
vn -0.404550016 -0.187988505 -0.679006279
vn -0.0579240508 0.389679372 -0.55790174
vn -0.467108428 -0.175475031 -0.729922295
vn 0.157569781 0.206246287 -0.756328285
vn 0.0580782034 0.222501904 -0.671905816
vn -0.0579240508 0.389679372 -0.55790174
vn 0.425395221 0.902426541 -0.103477098
vn 0.231654808 0.69038713 0.51982826
vn 0.387956768 0.765246987 0.0557342544
vn 0.595467567 0.248110458 -0.473560095
vn 0.169653237 0.198867381 -0.941583931
vn 0.0580782034 0.222501904 -0.671905816
vn -0.0707744285 0.00188192609 -0.715842187
vn 0.595467567 0.248110458 -0.473560095
vn 0.0580782034 0.222501904 -0.671905816
vn 0.19971028 0.723649383 0.51598227
vn 0.305207521 0.785240233 0.431296229
vn -0.224241018 0.122735471 0.814219177
vn -0.0353059433 1.01455891 -0.238836735
vn 0.295649081 0.9166255 -0.269052446
vn -0.386714309 0.617352486 -0.166913405
vn -0.532604694 -0.0674935132 0.147287428
vn -0.410218805 0.294615865 -0.289018273
vn -0.386714309 0.617352486 -0.166913405
vn 0.39567855 0.684331298 0.451314121
vn -0.40850234 -0.240335152 0.801732838
vn 0.0327156484 -0.162820429 0.919363022
vn -0.224241018 0.122735471 0.814219177
vn -0.756638229 -0.385191381 0.499798
vn -0.592554152 -0.75922823 0.250344694
vn -0.467108428 -0.175475031 -0.729922295
vn 0.169653237 0.198867381 -0.941583931
vn -0.337106466 0.0999436155 -0.690296531
vn 0.425395221 0.902426541 -0.103477098
vn 0.293384135 0.782041669 0.341943175
vn 0.231654808 0.69038713 0.51982826
vn 0.397804171 0.736090839 0.269661695
vn 0.53614682 0.686587811 0.118594572
vn 0.387956768 0.765246987 0.0557342544
vn -0.699398816 -0.497379571 -0.27269578
vn 0.0165207218 0.719619513 -0.517975807
vn -0.404550016 -0.187988505 -0.679006279
vn 0.0317167193 0.635827065 -0.458342373
vn -0.493980169 0.204156503 -0.864809811
vn -0.600843251 -0.364587128 0.485891342
vn 0.19971028 0.723649383 0.51598227
vn 0.39567855 0.684331298 0.451314121
vn 0.502683401 0.620716691 0.601681113
vn 0.157569781 0.206246287 -0.756328285
vn 0.598109841 0.12128368 -0.668478072
vn 0.595467567 0.248110458 -0.473560095
vn 0.114368796 0.513314307 -0.614601612
vn -0.0458904542 0.36743328 -0.383497238
vn -0.337106466 0.0999436155 -0.690296531
vn -0.735874176 -0.541678131 0.566812992
vn -0.532604694 -0.0674935132 0.147287428
vn -0.657452881 -0.522614896 0.313247561
vn -0.36334306 -0.189925551 0.624506295
vn -0.224241018 0.122735471 0.814219177
vn -0.592554152 -0.75922823 0.250344694
vn 0.279352993 0.832096994 -0.273429602
vn 0.293384135 0.782041669 0.341943175
vn 0.425395221 0.902426541 -0.103477098
vn -0.36334306 -0.189925551 0.624506295
vn -0.735874176 -0.541678131 0.566812992
vn -0.294078588 -0.376809806 0.789652228
vn 0.930816948 0.0367745645 -0.645601034
vn -0.332315236 0.97448796 0.362683535
vn 0.647861302 0.751011491 -0.127504453
vn -0.647727966 -0.747070551 -0.14944537
vn -0.332315236 0.97448796 0.362683535
vn 0.930816948 0.0367745645 -0.645601034
vn 0.303091496 0.594646573 0.401037872
vn 0.447224438 0.782311201 0.0621985793
vn -0.332315236 0.97448796 0.362683535
vn 0.157574147 0.56763953 0.635299027
vn -0.224241018 0.122735471 0.814219177
vn -0.36301747 -0.443511009 0.804911137
vn 0.395976901 0.549120307 -0.599218905
vn 0.245889381 0.71654284 -0.423395187
vn 0.452773511 0.805455506 -0.298321187
vn 0.0165207218 0.719619513 -0.517975807
vn 0.279352993 0.832096994 -0.273429602
vn 0.239698872 0.838469803 -0.349197954
vn -0.695539653 -0.674015641 -0.075038746
vn -0.592554152 -0.75922823 0.250344694
vn -0.756638229 -0.385191381 0.499798
vn -0.216235325 0.130060285 0.521269083
vn -0.632315874 -0.221790686 0.74228394
vn 0.303091496 0.594646573 0.401037872
vn 0.287568569 0.811832249 0.411374718
vn 0.293384135 0.782041669 0.341943175
vn 0.0165207218 0.719619513 -0.517975807
vn 0.214758992 -0.263127476 0.936413348
vn 0.135164291 -0.64784354 0.709292829
vn 0.389654994 0.867569387 0.151593417
vn 0.237312585 0.795506179 0.116988122
vn 0.387956768 0.765246987 0.0557342544
vn 0.231654808 0.69038713 0.51982826
vn 0.909701705 -0.18465285 -0.0468239039
vn 0.535615385 0.562699378 0.376032144
vn 0.415730506 0.274999321 0.77782774
vn 0.305207521 0.785240233 0.431296229
vn 0.19971028 0.723649383 0.51598227
vn 0.261788189 0.867968678 0.236701295
vn -0.404550016 -0.187988505 -0.679006279
vn -0.0458904542 0.36743328 -0.383497238
vn -0.169880509 0.175005049 -0.407837391
vn 0.618925214 -0.496832758 -0.423441768
vn 0.395976901 0.549120307 -0.599218905
vn 0.593920112 0.679510653 0.0623854995
vn 0.425395221 0.902426541 -0.103477098
vn 0.148543581 0.802890062 -0.306158781
vn 0.279352993 0.832096994 -0.273429602
vn -0.36301747 -0.443511009 0.804911137
vn -0.294078588 -0.376809806 0.789652228
vn -0.404820323 -0.679573059 0.433861732
vn -0.632315874 -0.221790686 0.74228394
vn -0.794127584 -0.282283753 0.475177646
vn 0.303091496 0.594646573 0.401037872
vn -0.36301747 -0.443511009 0.804911137
vn -0.36334306 -0.189925551 0.624506295
vn -0.294078588 -0.376809806 0.789652228
vn -0.493980169 0.204156503 -0.864809811
vn -0.487588227 -0.245341346 -0.924503744
vn -0.543292582 -0.385946095 -0.536590934
vn 0.438348532 0.731902361 0.356797248
vn 0.397804171 0.736090839 0.269661695
vn 0.553346694 -0.227277443 0.614320099
vn 0.297252864 0.798333168 0.396676302
vn 0.287568569 0.811832249 0.411374718
vn -0.515094161 -0.339466929 0.439684898
vn 0.245889381 0.71654284 -0.423395187
vn -0.0579240508 0.389679372 -0.55790174
vn 0.239698872 0.838469803 -0.349197954
vn -0.922990739 -0.382038981 0.0461978242
vn -0.600843251 -0.364587128 0.485891342
vn -0.897198558 -0.44125402 0.0181490239
vn -0.845008969 -0.484033585 -0.194967315
vn -0.600843251 -0.364587128 0.485891342
vn -0.922990739 -0.382038981 0.0461978242
vn -0.695539653 -0.674015641 -0.075038746
vn -0.515094161 -0.339466929 0.439684898
vn -0.699398816 -0.497379571 -0.27269578
vn 0.535615385 0.562699378 0.376032144
vn 0.725360572 0.428934991 0.0706683472
vn 0.53614682 0.686587811 0.118594572
vn 0.452773511 0.805455506 -0.298321187
vn 0.245889381 0.71654284 -0.423395187
vn 0.148543581 0.802890062 -0.306158781
vn 0.245889381 0.71654284 -0.423395187
vn 0.395976901 0.549120307 -0.599218905
vn 0.157569781 0.206246287 -0.756328285
vn 0.282345384 0.211951599 0.935605407
vn 0.214758992 -0.263127476 0.936413348
vn 0.19971028 0.723649383 0.51598227
vn 0.502683401 0.620716691 0.601681113
vn 0.282345384 0.211951599 0.935605407
vn 0.19971028 0.723649383 0.51598227
vn -0.859073699 -0.384114206 -0.297226489
vn -0.532604694 -0.0674935132 0.147287428
vn -0.386714309 0.617352486 -0.166913405
vn -0.887185693 -0.278177649 0.45827195
vn -0.845008969 -0.484033585 -0.194967315
vn -0.903188944 -0.0335280113 0.423520178
vn -0.515094161 -0.339466929 0.439684898
vn -0.756638229 -0.385191381 0.499798
vn -0.224241018 0.122735471 0.814219177
vn 0.0165207218 0.719619513 -0.517975807
vn 0.239698872 0.838469803 -0.349197954
vn -0.404550016 -0.187988505 -0.679006279
vn 0.593920112 0.679510653 0.0623854995
vn 0.395976901 0.549120307 -0.599218905
vn 0.452773511 0.805455506 -0.298321187
g Group3294
f 1/1/1 139/2/2 83/3/3
f 139/4/4 2/5/5 83/6/6
f 4/7/7 3/8/8 5/9/9
f 8/10/10 4/11/11 5/12/12
f 142/13/13 1/14/14 5/15/15
f 1/16/16 92/17/17 5/18/18
f 3/19/19 4/20/20 8/21/21
f 3/22/22 142/23/23 6/24/24
f 3/25/25 6/26/26 5/27/27
f 4/28/28 6/29/29 7/30/30
f 142/31/31 5/32/32 92/33/33
f 142/34/34 92/35/35 6/36/36
f 5/37/37 7/38/38 8/39/39
f 11/40/40 10/41/41 9/42/42
f 11/43/43 9/44/44 13/45/45
f 12/46/46 11/47/47 13/48/48
f 9/49/49 10/50/50 17/51/51
f 14/52/52 17/53/53 10/54/54
f 11/55/55 12/56/56 15/57/57
f 8/58/58 7/59/59 9/60/60
f 7/61/61 14/62/62 10/63/63
f 9/64/64 7/65/65 10/66/66
f 10/67/67 11/68/68 13/69/69
f 10/70/70 13/71/71 9/72/72
f 13/73/73 15/74/74 12/75/75
f 11/76/76 17/77/77 14/78/78
f 7/79/79 11/80/80 14/81/81
f 15/82/82 13/83/83 11/84/84
f 17/85/85 11/86/86 7/87/87
f 17/88/88 120/89/89 96/90/90
f 102/91/91 17/92/92 7/93/93
f 19/94/94 21/95/95 20/96/96
f 19/97/97 20/98/98 22/99/99
f 21/100/100 19/101/101 18/102/102
f 21/103/103 18/104/104 22/105/105
f 19/106/106 22/107/107 23/108/108
f 32/109/109 22/110/110 18/111/111
f 23/112/112 22/113/113 20/114/114
f 32/115/115 21/116/116 22/117/117
f 32/118/118 20/119/119 21/120/120
f 24/121/121 25/122/122 26/123/123
f 24/124/124 26/125/125 20/126/126
f 25/127/127 24/128/128 20/129/129
f 25/130/130 20/131/131 26/132/132
f 20/133/133 32/134/134 26/135/135
f 26/136/136 25/137/137 23/138/138
f 25/139/139 26/140/140 32/141/141
f 23/142/142 20/143/143 26/144/144
f 27/145/145 29/146/146 28/147/147
f 27/148/148 28/149/149 23/150/150
f 30/151/151 25/152/152 27/153/153
f 30/154/154 27/155/155 23/156/156
f 29/157/157 27/158/158 25/159/159
f 29/160/160 25/161/161 30/162/162
f 25/163/163 30/164/164 23/165/165
f 32/166/166 30/167/167 25/168/168
f 30/169/169 32/170/170 28/171/171
f 32/172/172 29/173/173 30/174/174
f 28/175/175 32/176/176 23/177/177
f 32/178/178 31/179/179 23/180/180
f 31/181/181 33/182/182 23/183/183
f 131/184/184 137/185/185 23/186/186
f 36/187/187 33/188/188 31/189/189
f 36/190/190 31/191/191 35/192/192
f 33/193/193 37/194/194 35/195/195
f 32/196/196 37/197/197 31/198/198
f 23/199/199 33/200/200 36/201/201
f 37/202/202 32/203/203 35/204/204
f 34/205/205 38/206/206 40/207/207
f 38/208/208 34/209/209 39/210/210
f 39/211/211 35/212/212 32/213/213
f 36/214/214 35/215/215 39/216/216
f 36/217/217 39/218/218 34/219/219
f 36/220/220 34/221/221 40/222/222
f 39/223/223 32/224/224 40/225/225
f 32/226/226 38/227/227 39/228/228
f 45/229/229 42/230/230 41/231/231
f 32/232/232 54/233/233 40/234/234
f 41/235/235 42/236/236 43/237/237
f 41/238/238 43/239/239 44/240/240
f 41/241/241 44/242/242 45/243/243
f 46/244/244 44/245/245 42/246/246
f 45/247/247 47/248/248 40/249/249
f 40/250/250 55/251/251 36/252/252
f 42/253/253 48/254/254 43/255/255
f 44/256/256 49/257/257 52/258/258
f 44/259/259 52/260/260 48/261/261
f 49/262/262 42/263/263 44/264/264
f 50/265/265 45/266/266 44/267/267
f 50/268/268 44/269/269 43/270/270
f 50/271/271 49/272/272 44/273/273
f 50/274/274 44/275/275 46/276/276
f 55/277/277 47/278/278 45/279/279
f 55/280/280 45/281/281 50/282/282
f 47/283/283 51/284/284 50/285/285
f 40/286/286 51/287/287 46/288/288
f 40/289/289 47/290/290 55/291/291
f 48/292/292 52/293/293 49/294/294
f 48/295/295 49/296/296 43/297/297
f 43/298/298 49/299/299 50/300/300
f 49/301/301 50/302/302 51/303/303
f 49/304/304 51/305/305 50/306/306
f 50/307/307 51/308/308 55/309/309
f 48/310/310 57/311/311 55/312/312
f 48/313/313 54/314/314 57/315/315
f 55/316/316 52/317/317 54/318/318
f 55/319/319 54/320/320 48/321/321
f 55/322/322 51/323/323 52/324/324
f 53/325/325 57/326/326 54/327/327
f 53/328/328 54/329/329 56/330/330
f 51/331/331 54/332/332 52/333/333
f 53/334/334 59/335/335 58/336/336
f 53/337/337 58/338/338 60/339/339
f 59/340/340 53/341/341 56/342/342
f 59/343/343 56/344/344 60/345/345
f 55/346/346 57/347/347 53/348/348
f 55/349/349 53/350/350 60/351/351
f 57/352/352 54/353/353 60/354/354
f 60/355/355 61/356/356 58/357/357
f 61/358/358 59/359/359 60/360/360
f 62/361/361 55/362/362 60/363/363
f 62/364/364 60/365/365 58/366/366
f 54/367/367 61/368/368 60/369/369
f 55/370/370 62/371/371 58/372/372
f 54/373/373 62/374/374 61/375/375
f 36/376/376 67/377/377 23/378/378
f 62/379/379 54/380/380 58/381/381
f 54/382/382 63/383/383 58/384/384
f 58/385/385 66/386/386 55/387/387
f 63/388/388 64/389/389 58/390/390
f 64/391/391 63/392/392 54/393/393
f 58/394/394 64/395/395 54/396/396
f 58/397/397 54/398/398 66/399/399
f 65/400/400 64/401/401 66/402/402
f 64/403/403 65/404/404 67/405/405
f 64/406/406 67/407/407 66/408/408
f 23/409/409 67/410/410 103/411/411
f 67/412/412 55/413/413 66/414/414
f 67/415/415 138/416/416 85/417/417
f 69/418/418 67/419/419 70/420/420
f 70/421/421 73/422/422 69/423/423
f 71/424/424 70/425/425 67/426/426
f 73/427/427 71/428/428 69/429/429
f 72/430/430 71/431/431 67/432/432
f 71/433/433 130/434/434 69/435/435
f 72/436/436 73/437/437 70/438/438
f 72/439/439 70/440/440 71/441/441
f 73/442/442 130/443/443 71/444/444
f 72/445/445 74/446/446 73/447/447
f 74/448/448 78/449/449 75/450/450
f 73/451/451 75/452/452 76/453/453
f 74/454/454 75/455/455 77/456/456
f 74/457/457 77/458/458 141/459/459
f 73/460/460 141/461/461 75/462/462
f 78/463/463 77/464/464 75/465/465
f 76/466/466 75/467/467 141/468/468
f 76/469/469 141/470/470 77/471/471
f 93/472/472 95/473/473 112/474/474
f 2/475/475 112/476/476 122/477/477
f 98/478/478 130/479/479 77/480/480
f 17/481/481 96/482/482 2/483/483
f 78/484/484 127/485/485 77/486/486
f 2/487/487 122/488/488 83/489/489
f 137/490/490 100/491/491 23/492/492
f 16/493/493 92/494/494 1/495/495
f 91/496/496 99/497/497 82/498/498
f 99/499/499 68/500/500 82/501/501
f 78/502/502 67/503/503 126/504/504
f 120/505/505 93/506/506 96/507/507
f 87/508/508 106/509/509 109/510/510
f 90/511/511 110/512/512 123/513/513
f 84/514/514 128/515/515 91/516/516
f 124/517/517 128/518/518 84/519/519
f 109/520/520 100/521/521 87/522/522
f 110/523/523 90/524/524 126/525/525
f 118/526/526 113/527/527 89/528/528
f 82/529/529 68/530/530 133/531/531
f 114/532/532 111/533/533 78/534/534
f 120/535/535 95/536/536 93/537/537
f 134/538/538 132/539/539 88/540/540
f 119/541/541 109/542/542 83/543/543
f 8/544/544 17/545/545 2/546/546
f 125/547/547 97/548/548 85/549/549
f 126/550/550 86/551/551 117/552/552
f 78/553/553 126/554/554 114/555/555
f 101/556/556 94/557/557 111/558/558
f 117/559/559 132/560/560 114/561/561
f 101/562/562 111/563/563 114/564/564
f 124/565/565 136/566/566 104/567/567
f 16/568/568 68/569/569 7/570/570
f 16/571/571 7/572/572 92/573/573
f 80/574/574 86/575/575 113/576/576
f 120/577/577 81/578/578 95/579/579
f 132/580/580 86/581/581 88/582/582
f 102/583/583 120/584/584 17/585/585
f 83/586/586 106/587/587 115/588/588
f 84/589/589 91/590/590 107/591/591
f 110/592/592 126/593/593 97/594/594
f 103/595/595 129/596/596 23/597/597
f 74/598/598 141/599/599 73/600/600
f 132/601/601 134/602/602 101/603/603
f 18/604/604 138/605/605 32/606/606
f 76/607/607 77/608/608 130/609/609
f 124/610/610 80/611/611 118/612/612
f 103/613/613 67/614/614 129/615/615
f 126/616/616 117/617/617 114/618/618
f 1/619/619 2/620/620 139/621/621
f 119/622/622 83/623/623 122/624/624
f 123/625/625 110/626/626 97/627/627
f 138/628/628 65/629/629 32/630/630
f 137/631/631 87/632/632 100/633/633
f 79/634/634 88/635/635 104/636/636
f 83/637/637 109/638/638 106/639/639
f 133/640/640 16/641/641 82/642/642
f 19/643/643 23/644/644 18/645/645
f 119/646/646 112/647/647 18/648/648
f 112/649/649 95/650/650 97/651/651
f 135/652/652 89/653/653 90/654/654
f 108/655/655 111/656/656 94/657/657
f 65/658/658 138/659/659 67/660/660
f 116/661/661 105/662/662 140/663/663
f 80/664/664 104/665/665 88/666/666
f 115/667/667 121/668/668 1/669/669
f 78/670/670 108/671/671 127/672/672
f 129/673/673 67/674/674 69/675/675
f 88/676/676 101/677/677 134/678/678
f 98/679/679 131/680/680 129/681/681
f 116/682/682 99/683/683 105/684/684
f 99/685/685 116/686/686 102/687/687
f 136/688/688 124/689/689 107/690/690
f 135/691/691 123/692/692 81/693/693
f 81/694/694 123/695/695 95/696/696
f 68/697/697 99/698/698 102/699/699
f 126/700/700 67/701/701 85/702/702
f 140/703/703 118/704/704 89/705/705
f 121/706/706 16/707/707 1/708/708
f 86/709/709 80/710/710 88/711/711
f 124/712/712 104/713/713 80/714/714
f 116/715/715 81/716/716 102/717/717
f 107/718/718 79/719/719 104/720/720
f 136/721/721 107/722/722 104/723/723
f 2/724/724 93/725/725 112/726/726
f 73/727/727 76/728/728 130/729/729
f 129/730/730 69/731/731 130/732/732
f 1/733/733 83/734/734 115/735/735
f 112/736/736 125/737/737 138/738/738
f 88/739/739 79/740/740 101/741/741
f 116/742/742 135/743/743 81/744/744
f 7/745/745 68/746/746 102/747/747
f 126/748/748 90/749/749 86/750/750
f 111/751/751 108/752/752 78/753/753
f 2/754/754 1/755/755 142/756/756
f 124/757/757 84/758/758 107/759/759
f 114/760/760 132/761/761 101/762/762
f 23/763/763 129/764/764 131/765/765
f 18/766/766 112/767/767 138/768/768
f 89/769/769 135/770/770 116/771/771
f 18/772/772 23/773/773 100/774/774
f 42/775/775 40/776/776 46/777/777
f 45/778/778 40/779/779 42/780/780
f 54/781/781 51/782/782 40/783/783
f 122/784/784 112/785/785 119/786/786
f 128/787/787 118/788/788 105/789/789
f 90/790/790 89/791/791 113/792/792
f 85/793/793 138/794/794 125/795/795
f 32/796/796 65/797/797 54/798/798
f 123/799/799 135/800/800 90/801/801
f 8/802/802 9/803/803 17/804/804
f 120/805/805 102/806/806 81/807/807
f 82/808/808 16/809/809 121/810/810
f 93/811/811 2/812/812 96/813/813
f 86/814/814 132/815/815 117/816/816
f 91/817/817 128/818/818 99/819/819
f 116/820/820 140/821/821 89/822/822
f 119/823/823 100/824/824 109/825/825
f 65/826/826 66/827/827 54/828/828
f 119/829/829 18/830/830 100/831/831
f 108/832/832 94/833/833 127/834/834
f 92/835/835 7/836/836 6/837/837
f 95/838/838 123/839/839 97/840/840
f 118/841/841 80/842/842 113/843/843
f 72/844/844 78/845/845 74/846/846
f 67/847/847 78/848/848 72/849/849
f 85/850/850 97/851/851 126/852/852
f 16/853/853 133/854/854 68/855/855
f 105/856/856 118/857/857 140/858/858
f 118/859/859 128/860/860 124/861/861
f 3/862/862 8/863/863 2/864/864
f 142/865/865 3/866/866 2/867/867
f 98/868/868 129/869/869 130/870/870
f 55/871/871 67/872/872 36/873/873
f 97/874/874 125/875/875 112/876/876
f 90/877/877 113/878/878 86/879/879
f 99/880/880 128/881/881 105/882/882
