# File exported by Houdini 16.5.405 (www.sidefx.com)
# 139 points
# 903 vertices
# 301 primitives
# Bounds: [-368.118591, -9.87872887, -317.548889] to [385.042358, 912.193726, 316.48941]
g 
v -202.683517 164.294067 29.7873402
v -200.940842 155.968903 21.1377106
v -199.215302 155.777817 20.5207977
v -199.494827 156.049088 20.3781757
v -166.959686 85.4585495 36.6083603
v -221.906921 117.738548 21.1547127
v -183.990204 125.647148 -44.155468
v 290.691681 509.272766 -119.615685
v 111.854599 162.32547 -127.305916
v 57.8902626 156.832382 -180.359192
v 56.6837959 155.906464 -180.169418
v 56.828167 155.479385 -180.141846
v 58.5329361 155.405396 -180.561172
v 93.0041962 245.565796 -221.636078
v 69.4456863 199.568344 -212.949173
v 58.9702988 158.29216 -180.735855
v 58.9185524 156.921249 -180.728333
v 59.3074226 156.658188 -181.130417
v 59.1269264 155.442673 -180.862427
v 60.4811363 154.976563 -181.657394
v 60.3630905 153.962219 -181.135956
v 64.7905426 152.863342 -182.304108
v 62.5372925 152.123734 -181.775528
v 63.4150429 151.498108 -181.989014
v 63.0236473 150.069733 -182.018814
v 64.1468277 148.8423 -182.180435
v 63.6230621 148.803955 -182.107559
v 65.0116882 146.939148 -182.213089
v 64.2440414 149.839584 -182.034592
v 70.0059814 142.388702 -182.951553
v 67.0588379 143.762665 -182.648773
v 65.9838943 145.687622 -182.324799
v 70.3392258 139.633789 -183.044922
v 70.4105911 139.432419 -183.112305
v 203.309158 381.842072 -202.669159
v 23.0539246 787.325562 -312.884216
v 24.9421654 912.193726 61.5275192
v 234.945313 818.350281 -227.676239
v -298.875061 386.108673 205.6716
v -189.492874 629.199524 -317.548889
v 148.852905 393.502075 264.437927
v -13.0549717 661.893066 204.370163
v -85.5872421 884.086426 296.002228
v 192.835602 -1.13672721 268.091797
v 177.333923 40.1230202 33.6952019
v 15.7135487 -6.92643976 -99.736557
v 9.1541605 5.5807929 24.8093491
v 143.371201 108.276711 -205.461655
v -72.7736816 -6.05049515 -133.019852
v -217.778763 94.8269577 -209.609879
v -322.429626 749.379639 197.006577
v -42.472744 1.33485901 299.860382
v -167.301514 376.687866 273.470734
v 15.0506716 356.272003 -266.395844
v 177.796539 93.2993927 119.885506
v 2.99391031 880.217224 -160.485596
v 164.613708 231.567825 214.236816
v -332.415131 447.160645 -247.830948
v -142.098053 -3.69946718 0.295355976
v 101.619179 861.714478 -278.843109
v 293.386627 403.938751 55.9116631
v -87.9755859 244.811081 -276.55481
v -295.576172 784.925354 109.732513
v 309.650208 817.198547 -174.093842
v -61.3691444 -4.51930571 52.3283043
v -74.4917755 -1.39789188 292.551483
v 271.345123 905.683594 -80.3652573
v -26.2801476 138.383163 -197.347076
v -325.707886 232.138885 -153.114471
v 98.3482361 289.084198 203.232346
v -195.646729 -9.87872887 -133.91188
v -82.9337463 236.408386 294.468079
v 277.635254 158.210907 -57.4045067
v -325.228027 770.608826 -226.509293
v 28.9512329 345.149567 304.671906
v -77.103569 794.549561 -250.288651
v 75.9030457 774.90979 251.198685
v -139.656006 533.984558 -256.938446
v 74.7503738 890.529358 243.435776
v -271.60968 213.893692 -262.11499
v 337.515289 846.639038 35.3971443
v -242.356689 817.435852 -258.067169
v -9.40663815 229.872742 289.758636
v 90.628952 520.446777 -273.967163
v 238.373459 351.662689 139.74292
v -347.186371 860.496399 12.0779781
v -249.721298 244.675507 122.319031
v 62.5764198 100.582687 -84.7449493
v 68.964653 635.214111 260.116455
v 169.90976 394.098663 -292.101685
v 328.417267 764.020264 -16.210825
v -258.133575 889.16925 63.8408585
v -120.550781 80.291481 142.407883
v 40.1750641 486.63443 -240.005295
v 260.049683 729.938599 168.819412
v -368.118591 298.952332 23.1341057
v 146.749878 885.554871 -97.2848358
v -8.06291199 251.222504 -210.680435
v 235.607697 799.184326 170.517105
v 240.059357 62.2051544 -53.4521751
v 106.14502 -5.05737209 316.48941
v 129.816666 -2.02322412 30.5627861
v 183.402237 620.471985 -267.999359
v -348.239227 746.656067 -85.3875504
v -233.468063 158.91362 114.056717
v -7.35008097 774.120056 205.852707
v 73.222435 212.367462 304.009583
v -5.36202335 529.342773 -301.529846
v -101.439568 32.4501801 -244.758316
v 157.24646 886.163574 105.21814
v -115.46093 260.184021 200.656143
v -160.854675 827.084717 -229.245209
v -336.226349 137.151672 3.0887835
v 171.813553 787.652832 -297.398621
v 385.042358 713.762939 -74.1393204
v 304.564636 851.609741 -87.4072723
v -91.0608521 619.590881 -252.493027
v -238.056763 776.071106 247.297592
v -110.016891 726.186157 -224.504288
v 185.395981 789.355591 257.207397
v -288.404327 850.612793 211.110016
v -81.1362991 770.7453 297.422638
v -323.935944 416.363251 50.9012413
v 0.755544901 884.357117 211.134155
v -361.650818 771.963928 -21.3508644
v 218.835831 422.002014 114.831947
v -152.399033 814.61261 297.937195
v 46.6008148 146.408035 -12.2399282
v -226.595978 384.873932 76.6187134
v 73.1572418 318.835693 -229.518799
v 270.191711 160.113281 122.316818
v 2.98009539 568.421448 308.465027
v -307.329559 764.766785 48.636097
v 98.8101654 806.250305 -283.697571
v 281.475677 461.795837 -173.850006
v 321.65033 460.271484 -44.0277252
v -245.995331 867.082153 -189.127441
v -76.4151993 555.266052 276.010406
v 75.6229858 133.939148 -185.240494
vt 0.715164542 0.669433177 0
vt 0.742544413 0.780536056 0
vt 0.711179972 0.66257 0
vt 0.715164542 0.669433177 0
vt 0.711179972 0.66257 0
vt 0.711663783 0.66277492 0
vt 0.70946002 0.663879991 0
vt 0.709559977 0.663839996 0
vt 0.709388435 0.664574206 0
vt 0.716993749 0.623487115 0
vt 0.715164542 0.669433177 0
vt 0.711663783 0.66277492 0
vt 0.716993749 0.623487115 0
vt 0.711663783 0.66277492 0
vt 0.711179972 0.66257 0
vt 0.742544413 0.780536056 0
vt 0.673190236 0.637053668 0
vt 0.711179972 0.66257 0
vt 0.700424492 0.659532607 0
vt 0.709559977 0.663839996 0
vt 0.70946002 0.663879991 0
vt 0.700424492 0.659532607 0
vt 0.70946002 0.663879991 0
vt 0.709388435 0.664574206 0
vt 0.673190236 0.637053668 0
vt 0.716993749 0.623487115 0
vt 0.711179972 0.66257 0
vt 0.742544413 0.780536056 0
vt 0.709559977 0.663839996 0
vt 0.673190236 0.637053668 0
vt 0.709559977 0.663839996 0
vt 0.700424492 0.659532607 0
vt 0.673190236 0.637053668 0
vt 0.235585123 0.339436203 0
vt 0.353051901 0.338469416 0
vt 0.393917829 0.418543875 0
vt 0.347440571 0.421178609 0
vt 0.170631081 0.432957917 0
vt 0.197745055 0.39003551 0
vt 0.607642949 0.550339937 0
vt 0.624980628 0.504263818 0
vt 0.692783296 0.505750418 0
vt 0.60116303 0.729146719 0
vt 0.58273077 0.646711588 0
vt 0.668727875 0.69969213 0
vt 0.450931698 0.537462056 0
vt 0.45061022 0.537924111 0
vt 0.419645697 0.50249809 0
vt 0.451840013 0.537169993 0
vt 0.450931698 0.537462056 0
vt 0.419645697 0.50249809 0
vt 0.419645697 0.50249809 0
vt 0.451909989 0.537339985 0
vt 0.451840013 0.537169993 0
vt 0.148839995 0.00194999995 0
vt 0.148839995 0.00194999995 0
vt 0.148839995 0.00194999995 0
vt 0.148839995 0.00194999995 0
vt 0.148839995 0.00194999995 0
vt 0.148839995 0.00194999995 0
vt 0.419645697 0.50249809 0
vt 0.450399995 0.538150012 0
vt 0.415908873 0.566235006 0
vt 0.419645697 0.50249809 0
vt 0.45061022 0.537924111 0
vt 0.45054999 0.537940025 0
vt 0.419645697 0.50249809 0
vt 0.45054999 0.537940025 0
vt 0.450399995 0.538150012 0
vt 0.192048371 0.04234083 0
vt 0.238289997 0.0543299988 0
vt 0.238810003 0.0547400005 0
vt 0.192048371 0.04234083 0
vt 0.238810003 0.0547400005 0
vt 0.238759995 0.0550200008 0
vt 0.450723827 0.538193107 0
vt 0.451660007 0.537599981 0
vt 0.445498168 0.564726651 0
vt 0.45061022 0.537924111 0
vt 0.450590014 0.537949979 0
vt 0.45054999 0.537940025 0
vt 0.137250006 0.00496000005 0
vt 0.13707 0.00520000001 0
vt 0.136790007 0.00451999996 0
vt 0.137250006 0.00496000005 0
vt 0.136790007 0.00451999996 0
vt 0.137290001 0.00389999989 0
vt 0.491527528 0.54836005 0
vt 0.451660007 0.537599981 0
vt 0.451909989 0.537339985 0
vt 0.491527528 0.54836005 0
vt 0.451909989 0.537339985 0
vt 0.419645697 0.50249809 0
vt 0.242290005 0.0544000007 0
vt 0.241666585 0.0539838299 0
vt 0.242217973 0.0534345843 0
vt 0.242290005 0.0544000007 0
vt 0.242217973 0.0534345843 0
vt 0.242469996 0.0542699993 0
vt 0.45061022 0.537924111 0
vt 0.450590014 0.537959993 0
vt 0.450590014 0.537949979 0
vt 0.141340002 0.00368000008 0
vt 0.141340002 0.00368000008 0
vt 0.141340002 0.00368999992 0
vt 0.141340002 0.00368000008 0
vt 0.141340002 0.00368999992 0
vt 0.141340002 0.00369003345 0
vt 0.14734 0.00263 0
vt 0.14734 0.00263 0
vt 0.14734 0.00263 0
vt 0.14734 0.00263 0
vt 0.14734 0.00263 0
vt 0.14734 0.00263 0
vt 0.144339994 0.00203000009 0
vt 0.144339994 0.00203000009 0
vt 0.144339994 0.00203000009 0
vt 0.144339994 0.00203000009 0
vt 0.144339994 0.00203000009 0
vt 0.144339994 0.00203000009 0
vt 0.231704354 0.0528137535 0
vt 0.231820002 0.0537500009 0
vt 0.231020004 0.0541100018 0
vt 0.234019995 0.0538400002 0
vt 0.234390005 0.0534599982 0
vt 0.23432 0.0545100011 0
vt 0.234019995 0.0538400002 0
vt 0.23432 0.0545100011 0
vt 0.233849108 0.0551615879 0
vt 0.231020004 0.0541100018 0
vt 0.231820002 0.0537500009 0
vt 0.230691716 0.0544527099 0
vt 0.236244977 0.0538423248 0
vt 0.236469999 0.05308 0
vt 0.236489996 0.0537800007 0
vt 0.236244977 0.0538423248 0
vt 0.236489996 0.0537800007 0
vt 0.236117467 0.0548053831 0
vt 0.231020004 0.0541100018 0
vt 0.230691716 0.0544527099 0
vt 0.229704544 0.0545369238 0
vt 0.231020004 0.0541100018 0
vt 0.229704544 0.0545369238 0
vt 0.227945685 0.0539059527 0
vt 0.229704544 0.0545369238 0
vt 0.228919998 0.0544600002 0
vt 0.227861941 0.0543471351 0
vt 0.229704544 0.0545369238 0
vt 0.227861941 0.0543471351 0
vt 0.227945685 0.0539059527 0
vt 0.445498168 0.564726651 0
vt 0.415908873 0.566235006 0
vt 0.450329989 0.538460016 0
vt 0.445498168 0.564726651 0
vt 0.450329989 0.538460016 0
vt 0.450470001 0.538269997 0
vt 0.445498168 0.564726651 0
vt 0.450470001 0.538269997 0
vt 0.450723827 0.538193107 0
vt 0.238189995 0.0543799996 0
vt 0.192048371 0.04234083 0
vt 0.238759995 0.0550200008 0
vt 0.238189995 0.0543799996 0
vt 0.238759995 0.0550200008 0
vt 0.238460004 0.0550200008 0
vt 0.450723827 0.538193107 0
vt 0.450470001 0.538269997 0
vt 0.45054999 0.538110018 0
vt 0.13741 0.00521000009 0
vt 0.137250006 0.00496000005 0
vt 0.137290001 0.00389999989 0
vt 0.13741 0.00521000009 0
vt 0.137290001 0.00389999989 0
vt 0.137759998 0.00455000019 0
vt 0.450723827 0.538193107 0
vt 0.45054999 0.538110018 0
vt 0.450569987 0.538039982 0
vt 0.450723827 0.538193107 0
vt 0.450569987 0.538039982 0
vt 0.45061022 0.537924111 0
vt 0.139520004 0.00547999982 0
vt 0.139259994 0.00472000008 0
vt 0.139253348 0.00233624084 0
vt 0.139520004 0.00547999982 0
vt 0.139253348 0.00233624084 0
vt 0.139840007 0.00456999987 0
vt 0.142839998 0.00474999985 0
vt 0.142839998 0.00474999985 0
vt 0.142839998 0.00474999985 0
vt 0.142839998 0.00474999985 0
vt 0.142839998 0.00474999985 0
vt 0.142839998 0.00474999985 0
vt 0.231130004 0.05638 0
vt 0.231040642 0.0575647093 0
vt 0.226769224 0.0531294979 0
vt 0.231704354 0.0528137535 0
vt 0.231020004 0.0541100018 0
vt 0.227945685 0.0539059527 0
vt 0.419645697 0.50249809 0
vt 0.376717061 0.540944934 0
vt 0.380524546 0.537427425 0
vt 0.234390005 0.0534599982 0
vt 0.234720007 0.0538799986 0
vt 0.234676078 0.0552474149 0
vt 0.234390005 0.0534599982 0
vt 0.234676078 0.0552474149 0
vt 0.23432 0.0545100011 0
vt 0.230478659 0.0551442355 0
vt 0.231130004 0.05638 0
vt 0.226769224 0.0531294979 0
vt 0.236469999 0.05308 0
vt 0.236735404 0.053847488 0
vt 0.236740261 0.0548972599 0
vt 0.236469999 0.05308 0
vt 0.236740261 0.0548972599 0
vt 0.236489996 0.0537800007 0
vt 0.229704544 0.0545369238 0
vt 0.230478659 0.0551442355 0
vt 0.228919998 0.0544600002 0
vt 0.378366768 0.537025511 0
vt 0.378450006 0.535269976 0
vt 0.380524546 0.537427425 0
vt 0.246380001 0.0542699993 0
vt 0.245019764 0.0565132946 0
vt 0.246399999 0.0541599989 0
vt 0.246380001 0.0542699993 0
vt 0.246399999 0.0541599989 0
vt 0.273623079 0.0709711835 0
vt 0.380524546 0.537427425 0
vt 0.378450006 0.535269976 0
vt 0.419645697 0.50249809 0
vt 0.376717061 0.540944934 0
vt 0.31605497 0.551118493 0
vt 0.377152681 0.537069321 0
vt 0.230478659 0.0551442355 0
vt 0.226769224 0.0531294979 0
vt 0.228919998 0.0544600002 0
vt 0.377152681 0.537069321 0
vt 0.31605497 0.551118493 0
vt 0.377898633 0.53263402 0
vt 0.377453774 0.537632346 0
vt 0.377152681 0.537069321 0
vt 0.377898633 0.53263402 0
vt 0.377700001 0.535740018 0
vt 0.377453774 0.537632346 0
vt 0.377898633 0.53263402 0
vt 0.151730001 0.00848000031 0
vt 0.151730001 0.00848000031 0
vt 0.151730001 0.00848000031 0
vt 0.151730001 0.00848000031 0
vt 0.151730001 0.00848000031 0
vt 0.151730001 0.00848000031 0
vt 0.419645697 0.50249809 0
vt 0.377700001 0.535740018 0
vt 0.377898633 0.53263402 0
vt 0.85398829 0.411145002 0
vt 0.678171456 0.285533726 0
vt 0.786615431 0.196340993 0
vt 0.800659001 0.782774329 0
vt 0.931102097 0.955320597 0
vt 0.877542913 0.954377294 0
vt 0.773006558 0.709460378 0
vt 0.760497212 0.66855669 0
vt 0.849207938 0.680230737 0
vt 0.888039172 0.202659741 0
vt 0.935135305 0.225920185 0
vt 0.891174853 0.30854404 0
vt 0.563692927 0.334139436 0
vt 0.441589892 0.275494099 0
vt 0.518404245 0.211722419 0
vt 0.80533886 0.155052155 0
vt 0.823797464 0.23782672 0
vt 0.786615431 0.196340993 0
vt 0.563692927 0.334139436 0
vt 0.46739164 0.371107936 0
vt 0.441589892 0.275494099 0
vt 0.431989849 0.379406899 0
vt 0.471059263 0.469986349 0
vt 0.393917829 0.418543875 0
vt 0.491527528 0.54836005 0
vt 0.471059263 0.469986349 0
vt 0.542499602 0.496458203 0
vt 0.471059263 0.469986349 0
vt 0.431989849 0.379406899 0
vt 0.46739164 0.371107936 0
vt 0.31605497 0.551118493 0
vt 0.234432995 0.501128495 0
vt 0.368285149 0.509909272 0
vt 0.491527528 0.54836005 0
vt 0.542499602 0.496458203 0
vt 0.563381612 0.534133255 0
vt 0.673190236 0.637053668 0
vt 0.700424492 0.659532607 0
vt 0.58273077 0.646711588 0
vt 0.673190236 0.637053668 0
vt 0.58273077 0.646711588 0
vt 0.615456462 0.602968156 0
vt 0.518404245 0.211722419 0
vt 0.392790735 0.191893935 0
vt 0.397168189 0.149420798 0
vt 0.887723625 0.646038234 0
vt 0.781098425 0.60082674 0
vt 0.844831347 0.538088739 0
vt 0.234432995 0.501128495 0
vt 0.31605497 0.551118493 0
vt 0.224131495 0.544856787 0
vt 0.442339182 0.623886287 0
vt 0.440779448 0.570607901 0
vt 0.497542709 0.575410724 0
vt 0.687035143 0.208930865 0
vt 0.786615431 0.196340993 0
vt 0.678171456 0.285533726 0
vt 0.392790735 0.191893935 0
vt 0.462468028 0.244013831 0
vt 0.441589892 0.275494099 0
vt 0.549809039 0.816086173 0
vt 0.463898808 0.878759027 0
vt 0.43896845 0.814364791 0
vt 0.0554527454 0.338332534 0
vt 0.347440571 0.421178609 0
vt 0.197745055 0.39003551 0
vt 0.559907079 0.587937534 0
vt 0.497542709 0.575410724 0
vt 0.607642949 0.550339937 0
vt 0.274314523 0.29018116 0
vt 0.401014179 0.328013778 0
vt 0.353051901 0.338469416 0
vt 0.685594976 0.576068759 0
vt 0.607642949 0.550339937 0
vt 0.720121503 0.541770458 0
vt 0.518404245 0.211722419 0
vt 0.441589892 0.275494099 0
vt 0.462468028 0.244013831 0
vt 0.915615678 0.404758811 0
vt 0.891174853 0.30854404 0
vt 0.941822648 0.418056667 0
vt 0.58273077 0.646711588 0
vt 0.700424492 0.659532607 0
vt 0.668727875 0.69969213 0
vt 0.471059263 0.469986349 0
vt 0.419645697 0.50249809 0
vt 0.393917829 0.418543875 0
vt 0.321574837 0.142572075 0
vt 0.397168189 0.149420798 0
vt 0.330330431 0.206344321 0
vt 0.4131262 0.968372822 0
vt 0.463898808 0.878759027 0
vt 0.458634853 0.978647888 0
vt 0.43896845 0.814364791 0
vt 0.381807089 0.769586265 0
vt 0.482712448 0.662827909 0
vt 0.816233635 0.319252133 0
vt 0.859990537 0.241799682 0
vt 0.891174853 0.30854404 0
vt 0.859990537 0.241799682 0
vt 0.853247941 0.181057498 0
vt 0.888039172 0.202659741 0
vt 0.549809039 0.816086173 0
vt 0.43896845 0.814364791 0
vt 0.555164874 0.705908477 0
vt 0.0554527454 0.338332534 0
vt 0.0741161183 0.37959376 0
vt 0.00093258702 0.376704395 0
vt 0.649312496 0.415922165 0
vt 0.626019716 0.30999288 0
vt 0.678171456 0.285533726 0
vt 0.528107405 0.973148823 0
vt 0.549809039 0.816086173 0
vt 0.629183054 0.973741412 0
vt 0.864341497 0.753368318 0
vt 0.773006558 0.709460378 0
vt 0.849207938 0.680230737 0
vt 0.936025858 0.814626634 0
vt 0.864341497 0.753368318 0
vt 0.849207938 0.680230737 0
vt 0.381807089 0.769586265 0
vt 0.367076248 0.730912268 0
vt 0.412527859 0.681994796 0
vt 0.720086336 0.978502274 0
vt 0.629183054 0.973741412 0
vt 0.700567782 0.812014103 0
vt 0.720121503 0.541770458 0
vt 0.607642949 0.550339937 0
vt 0.692783296 0.505750418 0
vt 0.52840054 0.364282191 0
vt 0.46739164 0.371107936 0
vt 0.563692927 0.334139436 0
vt 0.941822648 0.418056667 0
vt 0.85398829 0.411145002 0
vt 0.915615678 0.404758811 0
vt 0.800659001 0.782774329 0
vt 0.773006558 0.709460378 0
vt 0.864341497 0.753368318 0
vt 0.800659001 0.782774329 0
vt 0.818657994 0.957361281 0
vt 0.762998343 0.9815678 0
vt 0.43896845 0.814364791 0
vt 0.482712448 0.662827909 0
vt 0.58273077 0.646711588 0
vt 0.192421123 0.615148008 0
vt 0.149294063 0.64138031 0
vt 0.161690012 0.585139036 0
vt 0.192421123 0.615148008 0
vt 0.161690012 0.585139036 0
vt 0.224131495 0.544856787 0
vt 0.442339182 0.623886287 0
vt 0.412527859 0.681994796 0
vt 0.3856619 0.639317095 0
vt 0.271946311 0.209597766 0
vt 0.274314523 0.29018116 0
vt 0.0932222903 0.239116743 0
vt 0.347440571 0.421178609 0
vt 0.393917829 0.418543875 0
vt 0.419645697 0.50249809 0
vt 0.896693051 0.48851344 0
vt 0.81892097 0.497431159 0
vt 0.85398829 0.411145002 0
vt 0.608649254 0.267965704 0
vt 0.678171456 0.285533726 0
vt 0.626019716 0.30999288 0
vt 0.816233635 0.319252133 0
vt 0.823797464 0.23782672 0
vt 0.859990537 0.241799682 0
vt 0.397168189 0.149420798 0
vt 0.392790735 0.191893935 0
vt 0.346847832 0.24934496 0
vt 0.346847832 0.24934496 0
vt 0.392790735 0.191893935 0
vt 0.441589892 0.275494099 0
vt 0.742544413 0.780536056 0
vt 0.678374946 0.76435703 0
vt 0.700424492 0.659532607 0
vt 0.191067591 0.461432159 0
vt 0.170631081 0.432957917 0
vt 0.347440571 0.421178609 0
vt 0.859990537 0.241799682 0
vt 0.888039172 0.202659741 0
vt 0.891174853 0.30854404 0
vt -0.0113853225 0.712668419 0
vt 0.00728270132 0.662580252 0
vt 0.0359142609 0.689290702 0
vt 0.668727875 0.69969213 0
vt 0.678374946 0.76435703 0
vt 0.60116303 0.729146719 0
vt 0.271946311 0.209597766 0
vt 0.346847832 0.24934496 0
vt 0.274314523 0.29018116 0
vt 0.985588491 0.794447243 0
vt 0.849207938 0.680230737 0
vt 0.887723625 0.646038234 0
vt 0.816233635 0.319252133 0
vt 0.786615431 0.196340993 0
vt 0.823797464 0.23782672 0
vt 0.463898808 0.878759027 0
vt 0.401625961 0.851475835 0
vt 0.43896845 0.814364791 0
vt 0.800659001 0.782774329 0
vt 0.877542913 0.954377294 0
vt 0.818657994 0.957361281 0
vt 0.381807089 0.769586265 0
vt 0.43896845 0.814364791 0
vt 0.401625961 0.851475835 0
vt 0.271946311 0.209597766 0
vt 0.0973414034 0.126587495 0
vt 0.155872062 0.0868178308 0
vt 0.687035143 0.208930865 0
vt 0.647856593 0.180287182 0
vt 0.696774483 0.164104939 0
vt 0.503904641 0.438121587 0
vt 0.471059263 0.469986349 0
vt 0.46739164 0.371107936 0
vt 0.823797464 0.23782672 0
vt 0.80533886 0.155052155 0
vt 0.853247941 0.181057498 0
vt 0.859990537 0.241799682 0
vt 0.823797464 0.23782672 0
vt 0.853247941 0.181057498 0
vt 0.626019716 0.30999288 0
vt 0.569577277 0.41947794 0
vt 0.583893836 0.309221834 0
vt 0.060215883 0.222336352 0
vt 0.0810701922 0.175448298 0
vt 0.0932222903 0.239116743 0
vt 0.931102097 0.955320597 0
vt 0.800659001 0.782774329 0
vt 0.864341497 0.753368318 0
vt 0.915615678 0.404758811 0
vt 0.816233635 0.319252133 0
vt 0.891174853 0.30854404 0
vt 0.555164874 0.705908477 0
vt 0.58273077 0.646711588 0
vt 0.60116303 0.729146719 0
vt 0.503904641 0.438121587 0
vt 0.55192697 0.446346104 0
vt 0.471059263 0.469986349 0
vt 0.176184177 0.130301639 0
vt 0.224265367 0.0951658413 0
vt 0.321574837 0.142572075 0
vt 0.815963984 0.519630134 0
vt 0.771475434 0.524579883 0
vt 0.81892097 0.497431159 0
vt 0.781098425 0.60082674 0
vt 0.849207938 0.680230737 0
vt 0.760497212 0.66855669 0
vt 0.717950284 0.491433024 0
vt 0.680552363 0.45644182 0
vt 0.81892097 0.497431159 0
vt 0.742544413 0.780536056 0
vt 0.700567782 0.812014103 0
vt 0.678374946 0.76435703 0
vt 0.81892097 0.497431159 0
vt 0.896693051 0.48851344 0
vt 0.859811962 0.529648423 0
vt 0.815963984 0.519630134 0
vt 0.81892097 0.497431159 0
vt 0.859811962 0.529648423 0
vt 0.896693051 0.48851344 0
vt 0.85398829 0.411145002 0
vt 0.941822648 0.418056667 0
vt 0.419645697 0.50249809 0
vt 0.377898633 0.53263402 0
vt 0.368285149 0.509909272 0
vt 0.482712448 0.662827909 0
vt 0.559907079 0.587937534 0
vt 0.58273077 0.646711588 0
vt 0.844831347 0.538088739 0
vt 0.781098425 0.60082674 0
vt 0.720121503 0.541770458 0
vt 0.431989849 0.379406899 0
vt 0.401014179 0.328013778 0
vt 0.46739164 0.371107936 0
vt 0.224265367 0.0951658413 0
vt 0.155872062 0.0868178308 0
vt 0.218437836 0.0491523072 0
vt 0.0932222903 0.239116743 0
vt 0.238003641 0.292100221 0
vt 0.235585123 0.339436203 0
vt 0.224131495 0.544856787 0
vt 0.111856304 0.52958554 0
vt 0.234432995 0.501128495 0
vt 0.52840054 0.364282191 0
vt 0.503904641 0.438121587 0
vt 0.46739164 0.371107936 0
vt 0.192421123 0.615148008 0
vt 0.31605497 0.551118493 0
vt 0.280301601 0.579144299 0
vt 0.271946311 0.209597766 0
vt 0.176184177 0.130301639 0
vt 0.330330431 0.206344321 0
vt 0.347440571 0.421178609 0
vt 0.419645697 0.50249809 0
vt 0.368285149 0.509909272 0
vt 0.649312496 0.415922165 0
vt 0.678171456 0.285533726 0
vt 0.776378274 0.4294056 0
vt 0.235585123 0.339436203 0
vt 0.274314523 0.29018116 0
vt 0.353051901 0.338469416 0
vt 0.0254421178 0.531353891 0
vt 0.111856304 0.52958554 0
vt 0.161690012 0.585139036 0
vt 0.347440571 0.421178609 0
vt 0.235585123 0.339436203 0
vt 0.393917829 0.418543875 0
vt 0.234432995 0.501128495 0
vt 0.347440571 0.421178609 0
vt 0.368285149 0.509909272 0
vt 0.466980308 0.979389906 0
vt 0.463898808 0.878759027 0
vt 0.528107405 0.973148823 0
vt 0.0176308416 0.434366465 0
vt 0.170631081 0.432957917 0
vt 0.191067591 0.461432159 0
vt 0.401625961 0.851475835 0
vt 0.463898808 0.878759027 0
vt 0.4131262 0.968372822 0
vt 0.673190236 0.637053668 0
vt 0.615456462 0.602968156 0
vt 0.607642949 0.550339937 0
vt 0.649312496 0.415922165 0
vt 0.680552363 0.45644182 0
vt 0.628710747 0.45119226 0
vt 0.680552363 0.45644182 0
vt 0.649312496 0.415922165 0
vt 0.81892097 0.497431159 0
vt 0.111856304 0.52958554 0
vt 0.0254421178 0.531353891 0
vt 0.234432995 0.501128495 0
vt 0.716993749 0.623487115 0
vt 0.685594976 0.576068759 0
vt 0.720121503 0.541770458 0
vt 0.235585123 0.339436203 0
vt 0.238003641 0.292100221 0
vt 0.274314523 0.29018116 0
vt 0.119436778 0.0225206818 0
vt 0.218437836 0.0491523072 0
vt 0.155872062 0.0868178308 0
vt 0.224265367 0.0951658413 0
vt 0.176184177 0.130301639 0
vt 0.155872062 0.0868178308 0
vt 0.549809039 0.816086173 0
vt 0.528107405 0.973148823 0
vt 0.463898808 0.878759027 0
vt 0.81892097 0.497431159 0
vt 0.776378274 0.4294056 0
vt 0.85398829 0.411145002 0
vt 0.0231735203 0.60821259 0
vt 0.0175033975 0.56867218 0
vt 0.149294063 0.64138031 0
vt 0.00728270132 0.662580252 0
vt 0.149294063 0.64138031 0
vt 0.0359142609 0.689290702 0
vt 0.63580519 0.234230474 0
vt 0.687035143 0.208930865 0
vt 0.678171456 0.285533726 0
vt 0.700567782 0.812014103 0
vt 0.629183054 0.973741412 0
vt 0.678374946 0.76435703 0
vt 0.0254421178 0.531353891 0
vt 0.0143585308 0.483500928 0
vt 0.234432995 0.501128495 0
vt 0.170631081 0.432957917 0
vt 0.0741161183 0.37959376 0
vt 0.197745055 0.39003551 0
vt 0.149294063 0.64138031 0
vt 0.0175033975 0.56867218 0
vt 0.161690012 0.585139036 0
vt 0.471059263 0.469986349 0
vt 0.55192697 0.446346104 0
vt 0.542499602 0.496458203 0
vt 0.687035143 0.208930865 0
vt 0.63580519 0.234230474 0
vt 0.647856593 0.180287182 0
vt 0.091273129 0.682612479 0
vt 0.0359142609 0.689290702 0
vt 0.149294063 0.64138031 0
vt 0.887723625 0.646038234 0
vt 0.849207938 0.680230737 0
vt 0.781098425 0.60082674 0
vt 0.92124486 0.63554126 0
vt 0.985588491 0.794447243 0
vt 0.887723625 0.646038234 0
vt 0.31605497 0.551118493 0
vt 0.368285149 0.509909272 0
vt 0.377898633 0.53263402 0
vt 0.235585123 0.339436203 0
vt 0.0554527454 0.338332534 0
vt 0.0178149976 0.308069199 0
vt 0.608649254 0.267965704 0
vt 0.626019716 0.30999288 0
vt 0.583893836 0.309221834 0
vt 0.330386311 0.599892735 0
vt 0.280301601 0.579144299 0
vt 0.345963269 0.556740761 0
vt 0.397168189 0.149420798 0
vt 0.346847832 0.24934496 0
vt 0.330330431 0.206344321 0
vt 0.119436778 0.0225206818 0
vt 0.107575074 -0.0144601502 0
vt 0.218437836 0.0491523072 0
vt 0.559907079 0.587937534 0
vt 0.482712448 0.662827909 0
vt 0.412527859 0.681994796 0
vt 0.559907079 0.587937534 0
vt 0.412527859 0.681994796 0
vt 0.442339182 0.623886287 0
vt 0.0143585308 0.483500928 0
vt 0.0176308416 0.434366465 0
vt 0.191067591 0.461432159 0
vt 0.238003641 0.292100221 0
vt 0.0932222903 0.239116743 0
vt 0.274314523 0.29018116 0
vt 0.280301601 0.579144299 0
vt 0.31605497 0.551118493 0
vt 0.345963269 0.556740761 0
vt 0.559907079 0.587937534 0
vt 0.607642949 0.550339937 0
vt 0.615456462 0.602968156 0
vt 0.346847832 0.24934496 0
vt 0.271946311 0.209597766 0
vt 0.330330431 0.206344321 0
vt 0.771475434 0.524579883 0
vt 0.717950284 0.491433024 0
vt 0.81892097 0.497431159 0
vt 0.985588491 0.794447243 0
vt 0.936025858 0.814626634 0
vt 0.849207938 0.680230737 0
vt 0.742544413 0.780536056 0
vt 0.762998343 0.9815678 0
vt 0.700567782 0.812014103 0
vt 0.0973414034 0.126587495 0
vt 0.271946311 0.209597766 0
vt 0.0810701922 0.175448298 0
vt 0.678171456 0.285533726 0
vt 0.608649254 0.267965704 0
vt 0.63580519 0.234230474 0
vt 0.700424492 0.659532607 0
vt 0.678374946 0.76435703 0
vt 0.668727875 0.69969213 0
vt 0.81892097 0.497431159 0
vt 0.649312496 0.415922165 0
vt 0.776378274 0.4294056 0
vt 0.0810701922 0.175448298 0
vt 0.271946311 0.209597766 0
vt 0.0932222903 0.239116743 0
vt 0.896693051 0.48851344 0
vt 0.941822648 0.418056667 0
vt 0.938697398 0.464769036 0
vt 0.861250937 0.530620813 0
vt 0.92124486 0.63554126 0
vt 0.887723625 0.646038234 0
vt 0.0175033975 0.56867218 0
vt 0.0254421178 0.531353891 0
vt 0.161690012 0.585139036 0
vt 0.762998343 0.9815678 0
vt 0.720086336 0.978502274 0
vt 0.700567782 0.812014103 0
vt 0.170631081 0.432957917 0
vt 0.0176308416 0.434366465 0
vt 0.0741161183 0.37959376 0
vt 0.758739531 0.159533888 0
vt 0.687035143 0.208930865 0
vt 0.696774483 0.164104939 0
vt 0.401625961 0.851475835 0
vt 0.4131262 0.968372822 0
vt 0.40062654 0.911645293 0
vt 0.786615431 0.196340993 0
vt 0.687035143 0.208930865 0
vt 0.758739531 0.159533888 0
vt 0.265339553 0.616933465 0
vt 0.192421123 0.615148008 0
vt 0.280301601 0.579144299 0
vt 0.720121503 0.541770458 0
vt 0.781098425 0.60082674 0
vt 0.716993749 0.623487115 0
vt 0.482712448 0.662827909 0
vt 0.381807089 0.769586265 0
vt 0.412527859 0.681994796 0
vt 0.491527528 0.54836005 0
vt 0.445498168 0.564726651 0
vt 0.451660007 0.537599981 0
vt 0.607642949 0.550339937 0
vt 0.685594976 0.576068759 0
vt 0.673190236 0.637053668 0
vt 0.555164874 0.705908477 0
vt 0.43896845 0.814364791 0
vt 0.58273077 0.646711588 0
vt 0.401014179 0.328013778 0
vt 0.346847832 0.24934496 0
vt 0.441589892 0.275494099 0
vt 0.0741161183 0.37959376 0
vt 0.0176308416 0.434366465 0
vt 0.00093258702 0.376704395 0
vt 0.844831347 0.538088739 0
vt 0.861250937 0.530620813 0
vt 0.887723625 0.646038234 0
vt 0.678374946 0.76435703 0
vt 0.629183054 0.973741412 0
vt 0.60116303 0.729146719 0
vt 0.629183054 0.973741412 0
vt 0.720086336 0.978502274 0
vt 0.662571192 0.988299966 0
vt 0.760497212 0.66855669 0
vt 0.716993749 0.623487115 0
vt 0.781098425 0.60082674 0
vt 0.715164542 0.669433177 0
vt 0.716993749 0.623487115 0
vt 0.742544413 0.780536056 0
vt 0.816233635 0.319252133 0
vt 0.85398829 0.411145002 0
vt 0.786615431 0.196340993 0
vt 0.46739164 0.371107936 0
vt 0.401014179 0.328013778 0
vt 0.441589892 0.275494099 0
vt 0.0143585308 0.483500928 0
vt 0.191067591 0.461432159 0
vt 0.234432995 0.501128495 0
vt 0.915615678 0.404758811 0
vt 0.85398829 0.411145002 0
vt 0.816233635 0.319252133 0
vt 0.060215883 0.222336352 0
vt 0.0932222903 0.239116743 0
vt 0.0178149976 0.308069199 0
vt 0.762998343 0.9815678 0
vt 0.742544413 0.780536056 0
vt 0.773006558 0.709460378 0
vt 0.0554527454 0.338332534 0
vt 0.235585123 0.339436203 0
vt 0.347440571 0.421178609 0
vt 0.31605497 0.551118493 0
vt 0.192421123 0.615148008 0
vt 0.224131495 0.544856787 0
vt 0.471059263 0.469986349 0
vt 0.491527528 0.54836005 0
vt 0.419645697 0.50249809 0
vt 0.891174853 0.30854404 0
vt 0.935135305 0.225920185 0
vt 0.952293098 0.275023609 0
vt 0.800659001 0.782774329 0
vt 0.762998343 0.9815678 0
vt 0.773006558 0.709460378 0
vt 0.271946311 0.209597766 0
vt 0.155872062 0.0868178308 0
vt 0.176184177 0.130301639 0
vt 0.392790735 0.191893935 0
vt 0.518404245 0.211722419 0
vt 0.462468028 0.244013831 0
vt 0.773006558 0.709460378 0
vt 0.742544413 0.780536056 0
vt 0.716993749 0.623487115 0
vt 0.347440571 0.421178609 0
vt 0.234432995 0.501128495 0
vt 0.191067591 0.461432159 0
vt 0.760497212 0.66855669 0
vt 0.773006558 0.709460378 0
vt 0.716993749 0.623487115 0
vt 0.346847832 0.24934496 0
vt 0.401014179 0.328013778 0
vt 0.274314523 0.29018116 0
vt 0.431989849 0.379406899 0
vt 0.393917829 0.418543875 0
vt 0.353051901 0.338469416 0
vt 0.0178149976 0.308069199 0
vt 0.0932222903 0.239116743 0
vt 0.235585123 0.339436203 0
vt 0.975659192 0.361167461 0
vt 0.941822648 0.418056667 0
vt 0.891174853 0.30854404 0
vt 0.615456462 0.602968156 0
vt 0.58273077 0.646711588 0
vt 0.559907079 0.587937534 0
vt 0.649312496 0.415922165 0
vt 0.569577277 0.41947794 0
vt 0.626019716 0.30999288 0
vt 0.161690012 0.585139036 0
vt 0.111856304 0.52958554 0
vt 0.224131495 0.544856787 0
vt 0.60116303 0.729146719 0
vt 0.549809039 0.816086173 0
vt 0.555164874 0.705908477 0
vt 0.685594976 0.576068759 0
vt 0.716993749 0.623487115 0
vt 0.673190236 0.637053668 0
vt 0.936025858 0.814626634 0
vt 0.931102097 0.955320597 0
vt 0.864341497 0.753368318 0
vt 0.742544413 0.780536056 0
vt 0.709388435 0.664574206 0
vt 0.709559977 0.663839996 0
vt 0.742544413 0.780536056 0
vt 0.700424492 0.659532607 0
vt 0.709388435 0.664574206 0
vt 0.102172039 0.0770085081 0
vt 0.119436778 0.0225206818 0
vt 0.155872062 0.0868178308 0
vt 0.197745055 0.39003551 0
vt 0.0741161183 0.37959376 0
vt 0.0554527454 0.338332534 0
vt 0.563692927 0.334139436 0
vt 0.518404245 0.211722419 0
vt 0.535370886 0.209060341 0
vt 0.31605497 0.551118493 0
vt 0.376717061 0.540944934 0
vt 0.419645697 0.50249809 0
vt 0.629183054 0.973741412 0
vt 0.549809039 0.816086173 0
vt 0.60116303 0.729146719 0
vt 0.176184177 0.130301639 0
vt 0.321574837 0.142572075 0
vt 0.330330431 0.206344321 0
vt 0.353051901 0.338469416 0
vt 0.401014179 0.328013778 0
vt 0.431989849 0.379406899 0
vt 0.442339182 0.623886287 0
vt 0.497542709 0.575410724 0
vt 0.559907079 0.587937534 0
vt 0.786615431 0.196340993 0
vt 0.758739531 0.159533888 0
vt 0.80533886 0.155052155 0
vt 0.149294063 0.64138031 0
vt 0.00728270132 0.662580252 0
vt 0.0231735203 0.60821259 0
vt 0.776378274 0.4294056 0
vt 0.678171456 0.285533726 0
vt 0.85398829 0.411145002 0
vt 0.155872062 0.0868178308 0
vt 0.0973414034 0.126587495 0
vt 0.102172039 0.0770085081 0
vt 0.569577277 0.41947794 0
vt 0.564868271 0.338839293 0
vt 0.583893836 0.309221834 0
vt 0.569577277 0.41947794 0
vt 0.649312496 0.415922165 0
vt 0.628710747 0.45119226 0
vt 0.952293098 0.275023609 0
vt 0.975659192 0.361167461 0
vt 0.891174853 0.30854404 0
vt 0.0178149976 0.308069199 0
vt 0.0554527454 0.338332534 0
vt 0.00093258702 0.376704395 0
vt 0.985588491 0.794447243 0
vt 0.92124486 0.63554126 0
vt 0.954404354 0.685452282 0
vn -0.960656822 -0.20997563 0.327733427
vn -0.373118371 -0.201018274 0.329462886
vn -0.764604449 -0.325036407 -0.556535184
vn -0.960656822 -0.20997563 0.327733427
vn -0.764604449 -0.325036407 -0.556535184
vn 0.597512603 0.13099499 1.51063097
vn -0.764604449 -0.325036407 -0.556535184
vn 0.827362955 0.109839112 0.550823033
vn 0.596141696 -0.283273935 0.750569284
vn -0.753413737 -0.366004527 -0.0993567407
vn -0.960656822 -0.20997563 0.327733427
vn 0.597512603 0.13099499 1.51063097
vn -0.753413737 -0.366004527 -0.0993567407
vn 0.597512603 0.13099499 1.51063097
vn -0.764604449 -0.325036407 -0.556535184
vn -0.373118371 -0.201018274 0.329462886
vn -0.729626894 -0.489770472 0.0840261728
vn -0.764604449 -0.325036407 -0.556535184
vn 0.0523960739 -0.343349606 0.855496168
vn 0.827362955 0.109839112 0.550823033
vn -0.764604449 -0.325036407 -0.556535184
vn 0.0523960739 -0.343349606 0.855496168
vn -0.764604449 -0.325036407 -0.556535184
vn 0.596141696 -0.283273935 0.750569284
vn -0.729626894 -0.489770472 0.0840261728
vn -0.753413737 -0.366004527 -0.0993567407
vn -0.764604449 -0.325036407 -0.556535184
vn -0.373118371 -0.201018274 0.329462886
vn 0.827362955 0.109839112 0.550823033
vn -0.729626894 -0.489770472 0.0840261728
vn 0.827362955 0.109839112 0.550823033
vn 0.0523960739 -0.343349606 0.855496168
vn -0.729626894 -0.489770472 0.0840261728
vn 0.899869263 -0.134897053 0.214282721
vn 0.770999968 -0.219589099 0.46026203
vn 0.5204615 -0.599803269 -0.407723367
vn 0.79665637 -0.234181166 -0.385236353
vn 0.840732872 -0.169635564 -0.419310987
vn 0.777253926 -0.216718271 -0.266615778
vn 0.178507686 -0.870449007 -0.116577119
vn 0.591341317 -0.493593603 -0.324731857
vn 0.623655796 -0.264011681 -0.246476024
vn -0.938429296 -0.137020141 0.00360556412
vn -0.585498571 -0.31856823 -0.42287004
vn -0.725459456 -0.448491037 0.0306714103
vn -0.0197552592 -1.0282222 -0.0401514955
vn 0.319218457 0.259867281 0.51221925
vn -0.237274885 -0.229008809 0.0408322141
vn 0.88811034 -0.442788631 -0.123281471
vn -0.0197552592 -1.0282222 -0.0401514955
vn -0.237274885 -0.229008809 0.0408322141
vn -0.237274885 -0.229008809 0.0408322141
vn 0.902719557 -0.410901874 0.127503201
vn 0.88811034 -0.442788631 -0.123281471
vn -0.491299808 -2.00575018 0.0364338979
vn 0.88811034 -0.442788631 -0.123281471
vn 0.902719557 -0.410901874 0.127503201
vn -0.491299808 -2.00575018 0.0364338979
vn 0.902719557 -0.410901874 0.127503201
vn 0.664938152 -0.00187395478 -0.320079774
vn -0.237274885 -0.229008809 0.0408322141
vn 0.945563912 -0.0524398983 0.321183801
vn -0.206620961 -0.413102865 -0.824428439
vn -0.237274885 -0.229008809 0.0408322141
vn 0.319218457 0.259867281 0.51221925
vn 0.800034821 -0.449511558 -0.397345573
vn -0.237274885 -0.229008809 0.0408322141
vn 0.800034821 -0.449511558 -0.397345573
vn 0.945563912 -0.0524398983 0.321183801
vn 52.3909645 150.877182 -23.9805851
vn 0.945563912 -0.0524398983 0.321183801
vn 0.800034821 -0.449511558 -0.397345573
vn 52.3909645 150.877182 -23.9805851
vn 0.800034821 -0.449511558 -0.397345573
vn -0.221231073 -0.784788013 0.578933895
vn -0.291594684 -0.688007176 -0.435462564
vn 0.88811034 -0.442788631 -0.123281471
vn 0.12742047 -0.177577347 -0.971806526
vn 0.319218457 0.259867281 0.51221925
vn -0.301238418 -0.490882695 0.817489862
vn 0.800034821 -0.449511558 -0.397345573
vn -0.221231073 -0.784788013 0.578933895
vn 0.800034821 -0.449511558 -0.397345573
vn -0.301238418 -0.490882695 0.817489862
vn -0.221231073 -0.784788013 0.578933895
vn -0.301238418 -0.490882695 0.817489862
vn -0.130210251 -0.709760487 0.692304373
vn 0.108518511 -0.477632761 -0.775704563
vn 0.88811034 -0.442788631 -0.123281471
vn 0.902719557 -0.410901874 0.127503201
vn 0.108518511 -0.477632761 -0.775704563
vn 0.902719557 -0.410901874 0.127503201
vn -0.237274885 -0.229008809 0.0408322141
vn 0.88811034 -0.442788631 -0.123281471
vn -0.892808437 -2.65754652 0.431046098
vn 0.649623513 -0.0276940912 -0.303899437
vn 0.88811034 -0.442788631 -0.123281471
vn 0.649623513 -0.0276940912 -0.303899437
vn 0.902719557 -0.410901874 0.127503201
vn 0.319218457 0.259867281 0.51221925
vn 0.370760977 0.848467052 -0.377677113
vn -0.301238418 -0.490882695 0.817489862
vn -0.130210251 -0.709760487 0.692304373
vn -0.301238418 -0.490882695 0.817489862
vn 0.370760977 0.848467052 -0.377677113
vn -0.130210251 -0.709760487 0.692304373
vn 0.370760977 0.848467052 -0.377677113
vn -1.77056324 -0.791207194 0.612698615
vn 0.140064627 0.919193625 -0.631273627
vn 0.370760977 0.848467052 -0.377677113
vn 0.626063049 0.779249251 0.0285595469
vn 0.140064627 0.919193625 -0.631273627
vn 0.626063049 0.779249251 0.0285595469
vn 0.370760977 0.848467052 -0.377677113
vn -2.61007977 -1.22747099 0.613718033
vn 0.370760977 0.848467052 -0.377677113
vn 0.626063049 0.779249251 0.0285595469
vn -2.61007977 -1.22747099 0.613718033
vn 0.626063049 0.779249251 0.0285595469
vn -0.980990529 -0.111115977 0.159094229
vn 0.0357296392 0.0702413991 0.380977482
vn -0.980990529 -0.111115977 0.159094229
vn 0.0664330125 -0.0299850237 0.997340143
vn -0.980990529 -0.111115977 0.159094229
vn 0.626063049 0.779249251 0.0285595469
vn 0.784926176 0.619359672 0.016867457
vn -0.980990529 -0.111115977 0.159094229
vn 0.784926176 0.619359672 0.016867457
vn -1.59230876 -0.610602617 0.0322256088
vn 0.0664330125 -0.0299850237 0.997340143
vn -0.980990529 -0.111115977 0.159094229
vn -0.64283967 -0.277311414 0.305296361
vn -1.22052598 -0.476276487 0.0626508519
vn 0.784926176 0.619359672 0.016867457
vn 0.816423178 0.577311277 0.0128350686
vn -1.22052598 -0.476276487 0.0626508519
vn 0.816423178 0.577311277 0.0128350686
vn -1.36199939 -0.956069887 0.139400929
vn 0.0664330125 -0.0299850237 0.997340143
vn -0.64283967 -0.277311414 0.305296361
vn -0.860559821 -0.708243251 0.176594079
vn 0.0664330125 -0.0299850237 0.997340143
vn -0.860559821 -0.708243251 0.176594079
vn -7.19165516 -0.924512208 -5.88557577
vn -0.860559821 -0.708243251 0.176594079
vn -0.21153371 -0.025911985 -0.977027178
vn -0.0269892756 -0.360017627 -0.231998891
vn -0.860559821 -0.708243251 0.176594079
vn -0.0269892756 -0.360017627 -0.231998891
vn -7.19165516 -0.924512208 -5.88557577
vn 0.12742047 -0.177577347 -0.971806526
vn -0.206620961 -0.413102865 -0.824428439
vn 0.945563912 -0.0524398983 0.321183801
vn 0.12742047 -0.177577347 -0.971806526
vn 0.945563912 -0.0524398983 0.321183801
vn 0.800034821 -0.449511558 -0.397345573
vn 0.12742047 -0.177577347 -0.971806526
vn 0.800034821 -0.449511558 -0.397345573
vn -0.291594684 -0.688007176 -0.435462564
vn 0.945563912 -0.0524398983 0.321183801
vn 52.3909645 150.877182 -23.9805851
vn -0.221231073 -0.784788013 0.578933895
vn 0.945563912 -0.0524398983 0.321183801
vn -0.221231073 -0.784788013 0.578933895
vn 0.800034821 -0.449511558 -0.397345573
vn -0.291594684 -0.688007176 -0.435462564
vn 0.800034821 -0.449511558 -0.397345573
vn -0.301238418 -0.490882695 0.817489862
vn 0.800034821 -0.449511558 -0.397345573
vn -0.221231073 -0.784788013 0.578933895
vn -0.130210251 -0.709760487 0.692304373
vn 0.800034821 -0.449511558 -0.397345573
vn -0.130210251 -0.709760487 0.692304373
vn -0.301238418 -0.490882695 0.817489862
vn -0.291594684 -0.688007176 -0.435462564
vn -0.301238418 -0.490882695 0.817489862
vn 0.370760977 0.848467052 -0.377677113
vn -0.291594684 -0.688007176 -0.435462564
vn 0.370760977 0.848467052 -0.377677113
vn 0.319218457 0.259867281 0.51221925
vn -0.301238418 -0.490882695 0.817489862
vn -0.130210251 -0.709760487 0.692304373
vn -1.5397917 -0.624747097 0.451960266
vn -0.301238418 -0.490882695 0.817489862
vn -1.5397917 -0.624747097 0.451960266
vn 0.370760977 0.848467052 -0.377677113
vn 0.370760977 0.848467052 -0.377677113
vn -1.79239583 -0.81660223 0.631071508
vn -0.980990529 -0.111115977 0.159094229
vn 0.370760977 0.848467052 -0.377677113
vn -0.980990529 -0.111115977 0.159094229
vn 0.626063049 0.779249251 0.0285595469
vn -0.980990529 -0.111115977 0.159094229
vn 0.0357296392 0.0702413991 0.380977482
vn -2.34552264 -0.22443293 1.71589434
vn 0.0357296392 0.0702413991 0.380977482
vn 0.0664330125 -0.0299850237 0.997340143
vn -7.19165516 -0.924512208 -5.88557577
vn -0.237274885 -0.229008809 0.0408322141
vn -0.968203247 0.0563122034 0.268034905
vn -0.593119442 -0.289863914 0.701179922
vn 0.626063049 0.779249251 0.0285595469
vn -0.980990529 -0.111115977 0.159094229
vn -1.47496355 -0.574315488 0.0568040647
vn 0.626063049 0.779249251 0.0285595469
vn -1.47496355 -0.574315488 0.0568040647
vn 0.784926176 0.619359672 0.016867457
vn -0.325338751 -0.0981559157 -0.786070704
vn -0.980990529 -0.111115977 0.159094229
vn -2.34552264 -0.22443293 1.71589434
vn 0.784926176 0.619359672 0.016867457
vn -1.24088502 -0.498179644 0.0659463704
vn -1.30335379 -0.871352494 0.124645837
vn 0.784926176 0.619359672 0.016867457
vn -1.30335379 -0.871352494 0.124645837
vn 0.816423178 0.577311277 0.0128350686
vn -0.860559821 -0.708243251 0.176594079
vn -0.325338751 -0.0981559157 -0.786070704
vn -0.21153371 -0.025911985 -0.977027178
vn -0.911895335 -0.469220132 -0.218611017
vn -0.718479812 -0.628874004 0.297160178
vn -0.593119442 -0.289863914 0.701179922
vn -0.718479812 -0.628874004 0.297160178
vn -0.705125451 3.21860075 3.06749249
vn -0.686734796 -0.626246154 -0.369067758
vn -0.718479812 -0.628874004 0.297160178
vn -0.686734796 -0.626246154 -0.369067758
vn -24.7199707 -6.11217594 471.697296
vn -0.593119442 -0.289863914 0.701179922
vn -0.718479812 -0.628874004 0.297160178
vn -0.237274885 -0.229008809 0.0408322141
vn -0.968203247 0.0563122034 0.268034905
vn -0.206620961 -0.413102865 -0.824428439
vn -0.67498076 -0.48888734 -0.756271899
vn -0.325338751 -0.0981559157 -0.786070704
vn -2.34552264 -0.22443293 1.71589434
vn -0.21153371 -0.025911985 -0.977027178
vn -0.67498076 -0.48888734 -0.756271899
vn -0.206620961 -0.413102865 -0.824428439
vn -0.457768023 -0.649866164 -0.444631755
vn -0.919121563 -0.478647768 -0.186551288
vn -0.67498076 -0.48888734 -0.756271899
vn -0.457768023 -0.649866164 -0.444631755
vn -0.718479812 -0.628874004 0.297160178
vn -0.919121563 -0.478647768 -0.186551288
vn -0.457768023 -0.649866164 -0.444631755
vn -0.699582875 2.45627189 2.55613112
vn -0.718479812 -0.628874004 0.297160178
vn -24.460537 -167.818542 381.386078
vn -0.699582875 2.45627189 2.55613112
vn -24.460537 -167.818542 381.386078
vn -0.686734796 -0.626246154 -0.369067758
vn -0.237274885 -0.229008809 0.0408322141
vn -0.718479812 -0.628874004 0.297160178
vn -0.457768023 -0.649866164 -0.444631755
vn -0.0336583406 0.896155 -0.203931645
vn -0.24616605 0.842045963 -0.110464141
vn 0.0206649546 0.968766034 0.289732128
vn -0.657777548 -0.133295849 0.589574993
vn -0.447985083 -0.0585074835 0.905059636
vn -0.512362003 -0.00852662697 0.859206975
vn -0.659048796 -0.306196094 0.144849703
vn -0.759953499 -0.295465708 0.290927172
vn -0.142746836 -0.238055497 0.699388444
vn -0.208101019 0.268981427 0.861614048
vn 0.45659101 0.191229329 0.886115968
vn 0.499091208 0.765861273 0.39280495
vn -0.120499291 -0.81665498 0.090340063
vn 0.610079169 -0.496085882 0.237113997
vn 0.174988672 -0.485481232 0.569798648
vn 0.520737052 -0.441227436 0.733475149
vn 0.253331214 0.628592134 0.53905201
vn 0.0206649546 0.968766034 0.289732128
vn -0.120499291 -0.81665498 0.090340063
vn 0.0183702353 -0.804455936 -0.44909066
vn 0.610079169 -0.496085882 0.237113997
vn 0.094529368 -0.806386352 -0.190107346
vn -0.00109044276 -0.557706594 -0.366013438
vn 0.5204615 -0.599803269 -0.407723367
vn 0.108518511 -0.477632761 -0.775704563
vn -0.00109044276 -0.557706594 -0.366013438
vn 0.591341317 -0.493593603 -0.324731857
vn -0.00109044276 -0.557706594 -0.366013438
vn 0.094529368 -0.806386352 -0.190107346
vn 0.0183702353 -0.804455936 -0.44909066
vn -0.206620961 -0.413102865 -0.824428439
vn 0.641743004 -0.223057911 -0.505560994
vn 0.346548557 -0.461356729 -0.667137444
vn 0.108518511 -0.477632761 -0.775704563
vn 0.591341317 -0.493593603 -0.324731857
vn 0.178507686 -0.870449007 -0.116577119
vn -0.729626894 -0.489770472 0.0840261728
vn 0.0523960739 -0.343349606 0.855496168
vn -0.585498571 -0.31856823 -0.42287004
vn -0.729626894 -0.489770472 0.0840261728
vn -0.585498571 -0.31856823 -0.42287004
vn -0.710475206 -0.649422884 0.280857831
vn 0.174988672 -0.485481232 0.569798648
vn 0.237505764 0.372543156 0.867185891
vn 0.192701921 0.237265661 0.826482713
vn -0.681008816 0.281631052 0.570009232
vn -0.626434267 -0.292584628 0.324453324
vn -0.734926403 -0.400714755 0.371665627
vn 0.641743004 -0.223057911 -0.505560994
vn -0.206620961 -0.413102865 -0.824428439
vn 0.42408374 -0.151578844 -0.808549523
vn 0.323573202 0.24600707 -0.861320078
vn 0.12742047 -0.177577347 -0.971806526
vn 0.108518511 -0.477632761 -0.775704563
vn -0.6078161 0.481838375 0.534404218
vn 0.0206649546 0.968766034 0.289732128
vn -0.24616605 0.842045963 -0.110464141
vn 0.237505764 0.372543156 0.867185891
vn 0.191261441 -0.22261779 0.831015468
vn 0.610079169 -0.496085882 0.237113997
vn -0.689257205 0.00067104277 -0.611222386
vn 0.123334654 0.0765665323 -1.0275327
vn -0.0645417124 0.0179859176 -0.87248224
vn 0.937256694 -0.0772747174 0.23359412
vn 0.79665637 -0.234181166 -0.385236353
vn 0.777253926 -0.216718271 -0.266615778
vn 0.332425416 -0.332938492 -0.906612158
vn 0.108518511 -0.477632761 -0.775704563
vn 0.178507686 -0.870449007 -0.116577119
vn 0.803028286 -0.086925976 0.44528684
vn 0.694514096 -0.0395815633 0.368314803
vn 0.770999968 -0.219589099 0.46026203
vn -0.763360739 -0.548173308 -0.0537699647
vn 0.178507686 -0.870449007 -0.116577119
vn -0.120499291 -0.81665498 0.090340063
vn 0.174988672 -0.485481232 0.569798648
vn 0.610079169 -0.496085882 0.237113997
vn 0.191261441 -0.22261779 0.831015468
vn 0.570562065 0.851825476 -0.0531973988
vn 0.499091208 0.765861273 0.39280495
vn 0.464508951 0.875966966 0.0444157086
vn -0.585498571 -0.31856823 -0.42287004
vn 0.0523960739 -0.343349606 0.855496168
vn -0.725459456 -0.448491037 0.0306714103
vn -0.00109044276 -0.557706594 -0.366013438
vn -0.237274885 -0.229008809 0.0408322141
vn 0.5204615 -0.599803269 -0.407723367
vn 0.402225822 -0.0260643587 0.797023714
vn 0.192701921 0.237265661 0.826482713
vn 0.379122823 -0.211524203 0.864178538
vn 0.394872904 0.363047838 -0.780511856
vn 0.123334654 0.0765665323 -1.0275327
vn 0.0896753147 0.473289758 -0.90493232
vn -0.0645417124 0.0179859176 -0.87248224
vn -0.139964089 -0.127892271 -0.751719177
vn -0.177291691 -0.120562002 -0.958127975
vn -0.0941204578 0.972958982 -0.0843129084
vn 0.278417915 0.720360637 0.498867065
vn 0.499091208 0.765861273 0.39280495
vn 0.278417915 0.720360637 0.498867065
vn 0.304403007 -0.236967966 0.688649774
vn -0.208101019 0.268981427 0.861614048
vn -0.689257205 0.00067104277 -0.611222386
vn -0.0645417124 0.0179859176 -0.87248224
vn -0.0972576886 -0.175325274 -0.899129808
vn 0.937256694 -0.0772747174 0.23359412
vn 0.800328076 0.010471534 -0.0696653351
vn 0.464508951 0.875966966 0.0444157086
vn 0.104539409 1.01676846 -0.134500518
vn -0.751860201 0.566684067 0.199154511
vn -0.24616605 0.842045963 -0.110464141
vn -0.794332087 -0.038391646 -0.649743438
vn -0.689257205 0.00067104277 -0.611222386
vn -0.870501399 -0.0704660863 0.300552696
vn -0.162774712 -0.185390234 0.951740503
vn -0.659048796 -0.306196094 0.144849703
vn -0.142746836 -0.238055497 0.699388444
vn 0.169460103 -0.137443095 0.898321807
vn -0.162774712 -0.185390234 0.951740503
vn -0.142746836 -0.238055497 0.699388444
vn -0.139964089 -0.127892271 -0.751719177
vn 0.0168042369 -0.188786015 -0.882629216
vn 0.817286432 -0.252812147 -0.456770957
vn -0.928852022 0.0432521589 0.372729242
vn -0.870501399 -0.0704660863 0.300552696
vn -0.870978117 0.0262396391 0.44201988
vn -0.120499291 -0.81665498 0.090340063
vn 0.178507686 -0.870449007 -0.116577119
vn 0.623655796 -0.264011681 -0.246476024
vn 0.623655796 -0.264011681 -0.246476024
vn 0.0183702353 -0.804455936 -0.44909066
vn -0.120499291 -0.81665498 0.090340063
vn 0.464508951 0.875966966 0.0444157086
vn -0.0336583406 0.896155 -0.203931645
vn 0.570562065 0.851825476 -0.0531973988
vn -0.657777548 -0.133295849 0.589574993
vn -0.659048796 -0.306196094 0.144849703
vn -0.162774712 -0.185390234 0.951740503
vn -0.657777548 -0.133295849 0.589574993
vn -0.778133094 0.00120361848 0.405568093
vn -0.823650479 0.0241846535 -0.324933946
vn -0.0645417124 0.0179859176 -0.87248224
vn -0.177291691 -0.120562002 -0.958127975
vn -0.585498571 -0.31856823 -0.42287004
vn 0.0168042369 -0.188786015 -0.882629216
vn -0.139964089 -0.127892271 -0.751719177
vn 0.171376899 0.0711786896 -0.909357369
vn 0.0168042369 -0.188786015 -0.882629216
vn 0.171376899 0.0711786896 -0.909357369
vn 0.42408374 -0.151578844 -0.808549523
vn 0.323573202 0.24600707 -0.861320078
vn 0.817286432 -0.252812147 -0.456770957
vn -0.193913728 -0.243356019 -0.87279892
vn 0.260463893 -0.146173894 0.847153366
vn 0.803028286 -0.086925976 0.44528684
vn 0.72271955 -0.0408249311 0.674211919
vn 0.79665637 -0.234181166 -0.385236353
vn 0.5204615 -0.599803269 -0.407723367
vn -0.237274885 -0.229008809 0.0408322141
vn 0.373672843 0.121473767 -0.828405857
vn -0.0301634651 0.882836163 -0.449783295
vn -0.0336583406 0.896155 -0.203931645
vn -0.928852022 0.0432521589 0.372729242
vn -0.24616605 0.842045963 -0.110464141
vn -0.751860201 0.566684067 0.199154511
vn -0.0941204578 0.972958982 -0.0843129084
vn 0.253331214 0.628592134 0.53905201
vn 0.278417915 0.720360637 0.498867065
vn 0.192701921 0.237265661 0.826482713
vn 0.237505764 0.372543156 0.867185891
vn 0.650235236 0.0544117019 0.414008915
vn 0.650235236 0.0544117019 0.414008915
vn 0.237505764 0.372543156 0.867185891
vn 0.610079169 -0.496085882 0.237113997
vn -0.373118371 -0.201018274 0.329462886
vn -0.832068861 -0.0492674746 0.181345895
vn 0.0523960739 -0.343349606 0.855496168
vn 0.844667196 -0.153117746 -0.403082043
vn 0.840732872 -0.169635564 -0.419310987
vn 0.79665637 -0.234181166 -0.385236353
vn 0.278417915 0.720360637 0.498867065
vn -0.208101019 0.268981427 0.861614048
vn 0.499091208 0.765861273 0.39280495
vn 0.394872904 0.363047838 -0.780511856
vn -0.661674082 -0.0385232419 -0.788014889
vn -0.176411808 0.179249734 -0.875588536
vn -0.725459456 -0.448491037 0.0306714103
vn -0.832068861 -0.0492674746 0.181345895
vn -0.938429296 -0.137020141 0.00360556412
vn 0.260463893 -0.146173894 0.847153366
vn 0.650235236 0.0544117019 0.414008915
vn 0.803028286 -0.086925976 0.44528684
vn -0.478302062 -0.0806411654 0.899350524
vn -0.142746836 -0.238055497 0.699388444
vn -0.681008816 0.281631052 0.570009232
vn -0.0941204578 0.972958982 -0.0843129084
vn 0.0206649546 0.968766034 0.289732128
vn 0.253331214 0.628592134 0.53905201
vn 0.123334654 0.0765665323 -1.0275327
vn 0.181923136 -0.117123485 -0.603541911
vn -0.0645417124 0.0179859176 -0.87248224
vn -0.657777548 -0.133295849 0.589574993
vn -0.512362003 -0.00852662697 0.859206975
vn -0.778133094 0.00120361848 0.405568093
vn -0.139964089 -0.127892271 -0.751719177
vn -0.0645417124 0.0179859176 -0.87248224
vn 0.181923136 -0.117123485 -0.603541911
vn 0.260463893 -0.146173894 0.847153366
vn -0.208101019 0.268981427 0.861614048
vn 0.0394867994 0.436826766 0.488770008
vn -0.6078161 0.481838375 0.534404218
vn -0.778133094 0.00120361848 0.405568093
vn -0.512362003 -0.00852662697 0.859206975
vn -0.00444930186 -0.623330832 -0.22611551
vn -0.00109044276 -0.557706594 -0.366013438
vn 0.0183702353 -0.804455936 -0.44909066
vn 0.253331214 0.628592134 0.53905201
vn 0.520737052 -0.441227436 0.733475149
vn 0.304403007 -0.236967966 0.688649774
vn 0.278417915 0.720360637 0.498867065
vn 0.253331214 0.628592134 0.53905201
vn 0.304403007 -0.236967966 0.688649774
vn -0.751860201 0.566684067 0.199154511
vn -0.794332087 -0.038391646 -0.649743438
vn -0.951605856 -0.00317874574 0.101838224
vn 0.648252904 0.475249857 0.419741184
vn 0.45659101 0.191229329 0.886115968
vn 0.72271955 -0.0408249311 0.674211919
vn -0.447985083 -0.0585074835 0.905059636
vn -0.657777548 -0.133295849 0.589574993
vn -0.162774712 -0.185390234 0.951740503
vn 0.570562065 0.851825476 -0.0531973988
vn -0.0941204578 0.972958982 -0.0843129084
vn 0.499091208 0.765861273 0.39280495
vn -0.0972576886 -0.175325274 -0.899129808
vn -0.585498571 -0.31856823 -0.42287004
vn -0.938429296 -0.137020141 0.00360556412
vn -0.00444930186 -0.623330832 -0.22611551
vn 0.623655796 -0.264011681 -0.246476024
vn -0.00109044276 -0.557706594 -0.366013438
vn 0.509712696 0.195352003 0.633651257
vn -0.478302062 -0.0806411654 0.899350524
vn 0.402225822 -0.0260643587 0.797023714
vn 0.537124872 -0.0598491728 -0.855702341
vn -0.00267246319 0.123375461 -1.0557431
vn -0.0301634651 0.882836163 -0.449783295
vn -0.626434267 -0.292584628 0.324453324
vn -0.142746836 -0.238055497 0.699388444
vn -0.759953499 -0.295465708 0.290927172
vn -0.661674082 -0.0385232419 -0.788014889
vn 0.394872904 0.363047838 -0.780511856
vn -0.0301634651 0.882836163 -0.449783295
vn -0.373118371 -0.201018274 0.329462886
vn -0.870978117 0.0262396391 0.44201988
vn -0.832068861 -0.0492674746 0.181345895
vn -0.0301634651 0.882836163 -0.449783295
vn 0.373672843 0.121473767 -0.828405857
vn 0.224714816 -0.148715243 -0.826017141
vn 0.537124872 -0.0598491728 -0.855702341
vn -0.0301634651 0.882836163 -0.449783295
vn 0.224714816 -0.148715243 -0.826017141
vn 0.373672843 0.121473767 -0.828405857
vn -0.0336583406 0.896155 -0.203931645
vn 0.464508951 0.875966966 0.0444157086
vn -0.237274885 -0.229008809 0.0408322141
vn -0.457768023 -0.649866164 -0.444631755
vn 0.346548557 -0.461356729 -0.667137444
vn -0.177291691 -0.120562002 -0.958127975
vn 0.332425416 -0.332938492 -0.906612158
vn -0.585498571 -0.31856823 -0.42287004
vn -0.734926403 -0.400714755 0.371665627
vn -0.626434267 -0.292584628 0.324453324
vn -0.120499291 -0.81665498 0.090340063
vn 0.094529368 -0.806386352 -0.190107346
vn 0.694514096 -0.0395815633 0.368314803
vn 0.0183702353 -0.804455936 -0.44909066
vn -0.478302062 -0.0806411654 0.899350524
vn 0.0394867994 0.436826766 0.488770008
vn 0.169460103 -0.137443095 0.898321807
vn 0.72271955 -0.0408249311 0.674211919
vn 0.815467656 -0.0652906299 0.444188833
vn 0.899869263 -0.134897053 0.214282721
vn 0.42408374 -0.151578844 -0.808549523
vn 0.197517395 0.0661249012 -0.894613564
vn 0.641743004 -0.223057911 -0.505560994
vn 0.623655796 -0.264011681 -0.246476024
vn -0.00444930186 -0.623330832 -0.22611551
vn 0.0183702353 -0.804455936 -0.44909066
vn 0.0168042369 -0.188786015 -0.882629216
vn -0.206620961 -0.413102865 -0.824428439
vn -0.193913728 -0.243356019 -0.87279892
vn 0.260463893 -0.146173894 0.847153366
vn 0.509712696 0.195352003 0.633651257
vn 0.379122823 -0.211524203 0.864178538
vn 0.79665637 -0.234181166 -0.385236353
vn -0.237274885 -0.229008809 0.0408322141
vn 0.346548557 -0.461356729 -0.667137444
vn 0.104539409 1.01676846 -0.134500518
vn -0.24616605 0.842045963 -0.110464141
vn -0.227572963 0.890230179 -0.308398068
vn 0.899869263 -0.134897053 0.214282721
vn 0.803028286 -0.086925976 0.44528684
vn 0.770999968 -0.219589099 0.46026203
vn 0.224714816 -0.148715243 -0.826017141
vn 0.197517395 0.0661249012 -0.894613564
vn 0.171376899 0.0711786896 -0.909357369
vn 0.79665637 -0.234181166 -0.385236353
vn 0.899869263 -0.134897053 0.214282721
vn 0.5204615 -0.599803269 -0.407723367
vn 0.641743004 -0.223057911 -0.505560994
vn 0.79665637 -0.234181166 -0.385236353
vn 0.346548557 -0.461356729 -0.667137444
vn 0.0896753147 0.473289758 -0.90493232
vn 0.123334654 0.0765665323 -1.0275327
vn -0.794332087 -0.038391646 -0.649743438
vn 0.97602731 0.10203182 -0.111737862
vn 0.840732872 -0.169635564 -0.419310987
vn 0.844667196 -0.153117746 -0.403082043
vn 0.181923136 -0.117123485 -0.603541911
vn 0.123334654 0.0765665323 -1.0275327
vn 0.394872904 0.363047838 -0.780511856
vn -0.729626894 -0.489770472 0.0840261728
vn -0.710475206 -0.649422884 0.280857831
vn 0.178507686 -0.870449007 -0.116577119
vn 0.104539409 1.01676846 -0.134500518
vn 0.394872904 0.363047838 -0.780511856
vn 0.0896753147 0.473289758 -0.90493232
vn 0.394872904 0.363047838 -0.780511856
vn 0.104539409 1.01676846 -0.134500518
vn -0.0301634651 0.882836163 -0.449783295
vn 0.197517395 0.0661249012 -0.894613564
vn 0.224714816 -0.148715243 -0.826017141
vn 0.641743004 -0.223057911 -0.505560994
vn -0.753413737 -0.366004527 -0.0993567407
vn -0.763360739 -0.548173308 -0.0537699647
vn -0.120499291 -0.81665498 0.090340063
vn 0.899869263 -0.134897053 0.214282721
vn 0.815467656 -0.0652906299 0.444188833
vn 0.803028286 -0.086925976 0.44528684
vn 0.520737052 -0.441227436 0.733475149
vn 0.169460103 -0.137443095 0.898321807
vn 0.0394867994 0.436826766 0.488770008
vn -0.478302062 -0.0806411654 0.899350524
vn 0.509712696 0.195352003 0.633651257
vn 0.0394867994 0.436826766 0.488770008
vn -0.689257205 0.00067104277 -0.611222386
vn -0.794332087 -0.038391646 -0.649743438
vn 0.123334654 0.0765665323 -1.0275327
vn -0.0301634651 0.882836163 -0.449783295
vn -0.227572963 0.890230179 -0.308398068
vn -0.0336583406 0.896155 -0.203931645
vn -0.00267246319 0.123375461 -1.0557431
vn 0.537124872 -0.0598491728 -0.855702341
vn -0.139964089 -0.127892271 -0.751719177
vn -0.661674082 -0.0385232419 -0.788014889
vn -0.139964089 -0.127892271 -0.751719177
vn -0.176411808 0.179249734 -0.875588536
vn -0.823650479 0.0241846535 -0.324933946
vn -0.6078161 0.481838375 0.534404218
vn -0.24616605 0.842045963 -0.110464141
vn -0.870978117 0.0262396391 0.44201988
vn -0.870501399 -0.0704660863 0.300552696
vn -0.832068861 -0.0492674746 0.181345895
vn 0.224714816 -0.148715243 -0.826017141
vn 0.373672843 0.121473767 -0.828405857
vn 0.641743004 -0.223057911 -0.505560994
vn 0.840732872 -0.169635564 -0.419310987
vn 0.800328076 0.010471534 -0.0696653351
vn 0.777253926 -0.216718271 -0.266615778
vn -0.139964089 -0.127892271 -0.751719177
vn 0.537124872 -0.0598491728 -0.855702341
vn 0.171376899 0.0711786896 -0.909357369
vn -0.00109044276 -0.557706594 -0.366013438
vn 0.623655796 -0.264011681 -0.246476024
vn 0.591341317 -0.493593603 -0.324731857
vn -0.6078161 0.481838375 0.534404218
vn -0.823650479 0.0241846535 -0.324933946
vn -0.778133094 0.00120361848 0.405568093
vn 0.181923136 -0.117123485 -0.603541911
vn -0.176411808 0.179249734 -0.875588536
vn -0.139964089 -0.127892271 -0.751719177
vn -0.681008816 0.281631052 0.570009232
vn -0.142746836 -0.238055497 0.699388444
vn -0.626434267 -0.292584628 0.324453324
vn 0.192701921 0.237265661 0.826482713
vn -0.478302062 -0.0806411654 0.899350524
vn -0.681008816 0.281631052 0.570009232
vn -0.206620961 -0.413102865 -0.824428439
vn 0.346548557 -0.461356729 -0.667137444
vn -0.457768023 -0.649866164 -0.444631755
vn 0.899869263 -0.134897053 0.214282721
vn 0.937256694 -0.0772747174 0.23359412
vn 0.71522969 0.366217494 0.00535667036
vn -0.928852022 0.0432521589 0.372729242
vn -0.751860201 0.566684067 0.199154511
vn -0.951605856 -0.00317874574 0.101838224
vn 0.323573202 0.24600707 -0.861320078
vn -0.193913728 -0.243356019 -0.87279892
vn 0.12742047 -0.177577347 -0.971806526
vn 0.192701921 0.237265661 0.826482713
vn 0.650235236 0.0544117019 0.414008915
vn 0.379122823 -0.211524203 0.864178538
vn 0.520737052 -0.441227436 0.733475149
vn -0.447985083 -0.0585074835 0.905059636
vn 0.169460103 -0.137443095 0.898321807
vn 0.332425416 -0.332938492 -0.906612158
vn -0.177291691 -0.120562002 -0.958127975
vn 0.817286432 -0.252812147 -0.456770957
vn 0.332425416 -0.332938492 -0.906612158
vn 0.817286432 -0.252812147 -0.456770957
vn 0.323573202 0.24600707 -0.861320078
vn 0.373672843 0.121473767 -0.828405857
vn 0.97602731 0.10203182 -0.111737862
vn 0.844667196 -0.153117746 -0.403082043
vn 0.815467656 -0.0652906299 0.444188833
vn 0.72271955 -0.0408249311 0.674211919
vn 0.803028286 -0.086925976 0.44528684
vn -0.193913728 -0.243356019 -0.87279892
vn -0.206620961 -0.413102865 -0.824428439
vn 0.12742047 -0.177577347 -0.971806526
vn 0.332425416 -0.332938492 -0.906612158
vn 0.178507686 -0.870449007 -0.116577119
vn -0.710475206 -0.649422884 0.280857831
vn 0.650235236 0.0544117019 0.414008915
vn 0.260463893 -0.146173894 0.847153366
vn 0.379122823 -0.211524203 0.864178538
vn -0.00267246319 0.123375461 -1.0557431
vn -0.661674082 -0.0385232419 -0.788014889
vn -0.0301634651 0.882836163 -0.449783295
vn -0.478302062 -0.0806411654 0.899350524
vn 0.169460103 -0.137443095 0.898321807
vn -0.142746836 -0.238055497 0.699388444
vn -0.373118371 -0.201018274 0.329462886
vn -0.823650479 0.0241846535 -0.324933946
vn -0.870978117 0.0262396391 0.44201988
vn -0.208101019 0.268981427 0.861614048
vn 0.260463893 -0.146173894 0.847153366
vn 0.45659101 0.191229329 0.886115968
vn -0.24616605 0.842045963 -0.110464141
vn -0.928852022 0.0432521589 0.372729242
vn -0.823650479 0.0241846535 -0.324933946
vn 0.0523960739 -0.343349606 0.855496168
vn -0.832068861 -0.0492674746 0.181345895
vn -0.725459456 -0.448491037 0.0306714103
vn -0.0301634651 0.882836163 -0.449783295
vn 0.104539409 1.01676846 -0.134500518
vn -0.227572963 0.890230179 -0.308398068
vn 0.45659101 0.191229329 0.886115968
vn 0.260463893 -0.146173894 0.847153366
vn 0.72271955 -0.0408249311 0.674211919
vn 0.373672843 0.121473767 -0.828405857
vn 0.464508951 0.875966966 0.0444157086
vn 0.97602731 0.10203182 -0.111737862
vn 0.174988672 -0.485481232 0.569798648
vn 0.192701921 0.237265661 0.826482713
vn -0.681008816 0.281631052 0.570009232
vn 0.537124872 -0.0598491728 -0.855702341
vn 0.224714816 -0.148715243 -0.826017141
vn 0.171376899 0.0711786896 -0.909357369
vn -0.823650479 0.0241846535 -0.324933946
vn -0.928852022 0.0432521589 0.372729242
vn -0.870978117 0.0262396391 0.44201988
vn 0.840732872 -0.169635564 -0.419310987
vn 0.97602731 0.10203182 -0.111737862
vn 0.800328076 0.010471534 -0.0696653351
vn -0.447985083 -0.0585074835 0.905059636
vn -0.6078161 0.481838375 0.534404218
vn -0.512362003 -0.00852662697 0.859206975
vn 0.181923136 -0.117123485 -0.603541911
vn 0.394872904 0.363047838 -0.780511856
vn -0.176411808 0.179249734 -0.875588536
vn 0.0206649546 0.968766034 0.289732128
vn -0.6078161 0.481838375 0.534404218
vn -0.447985083 -0.0585074835 0.905059636
vn 0.817286432 -0.252812147 -0.456770957
vn 0.0168042369 -0.188786015 -0.882629216
vn -0.193913728 -0.243356019 -0.87279892
vn -0.120499291 -0.81665498 0.090340063
vn -0.626434267 -0.292584628 0.324453324
vn -0.753413737 -0.366004527 -0.0993567407
vn -0.177291691 -0.120562002 -0.958127975
vn -0.139964089 -0.127892271 -0.751719177
vn 0.817286432 -0.252812147 -0.456770957
vn 0.108518511 -0.477632761 -0.775704563
vn 0.12742047 -0.177577347 -0.971806526
vn 0.88811034 -0.442788631 -0.123281471
vn 0.178507686 -0.870449007 -0.116577119
vn -0.763360739 -0.548173308 -0.0537699647
vn -0.729626894 -0.489770472 0.0840261728
vn -0.0972576886 -0.175325274 -0.899129808
vn -0.0645417124 0.0179859176 -0.87248224
vn -0.585498571 -0.31856823 -0.42287004
vn 0.694514096 -0.0395815633 0.368314803
vn 0.650235236 0.0544117019 0.414008915
vn 0.610079169 -0.496085882 0.237113997
vn 0.800328076 0.010471534 -0.0696653351
vn 0.97602731 0.10203182 -0.111737862
vn 0.464508951 0.875966966 0.0444157086
vn -0.734926403 -0.400714755 0.371665627
vn 0.174988672 -0.485481232 0.569798648
vn -0.681008816 0.281631052 0.570009232
vn -0.832068861 -0.0492674746 0.181345895
vn -0.870501399 -0.0704660863 0.300552696
vn -0.938429296 -0.137020141 0.00360556412
vn -0.870501399 -0.0704660863 0.300552696
vn -0.928852022 0.0432521589 0.372729242
vn -0.951605856 -0.00317874574 0.101838224
vn -0.759953499 -0.295465708 0.290927172
vn -0.753413737 -0.366004527 -0.0993567407
vn -0.626434267 -0.292584628 0.324453324
vn -0.960656822 -0.20997563 0.327733427
vn -0.753413737 -0.366004527 -0.0993567407
vn -0.373118371 -0.201018274 0.329462886
vn -0.0941204578 0.972958982 -0.0843129084
vn -0.0336583406 0.896155 -0.203931645
vn 0.0206649546 0.968766034 0.289732128
vn 0.0183702353 -0.804455936 -0.44909066
vn 0.694514096 -0.0395815633 0.368314803
vn 0.610079169 -0.496085882 0.237113997
vn 0.373672843 0.121473767 -0.828405857
vn 0.844667196 -0.153117746 -0.403082043
vn 0.641743004 -0.223057911 -0.505560994
vn 0.570562065 0.851825476 -0.0531973988
vn -0.0336583406 0.896155 -0.203931645
vn -0.0941204578 0.972958982 -0.0843129084
vn 0.648252904 0.475249857 0.419741184
vn 0.72271955 -0.0408249311 0.674211919
vn 0.71522969 0.366217494 0.00535667036
vn -0.823650479 0.0241846535 -0.324933946
vn -0.373118371 -0.201018274 0.329462886
vn -0.659048796 -0.306196094 0.144849703
vn 0.937256694 -0.0772747174 0.23359412
vn 0.899869263 -0.134897053 0.214282721
vn 0.79665637 -0.234181166 -0.385236353
vn -0.206620961 -0.413102865 -0.824428439
vn 0.0168042369 -0.188786015 -0.882629216
vn 0.42408374 -0.151578844 -0.808549523
vn -0.00109044276 -0.557706594 -0.366013438
vn 0.108518511 -0.477632761 -0.775704563
vn -0.237274885 -0.229008809 0.0408322141
vn 0.499091208 0.765861273 0.39280495
vn 0.45659101 0.191229329 0.886115968
vn 0.648252904 0.475249857 0.419741184
vn -0.657777548 -0.133295849 0.589574993
vn -0.823650479 0.0241846535 -0.324933946
vn -0.659048796 -0.306196094 0.144849703
vn 0.260463893 -0.146173894 0.847153366
vn 0.0394867994 0.436826766 0.488770008
vn 0.509712696 0.195352003 0.633651257
vn 0.237505764 0.372543156 0.867185891
vn 0.174988672 -0.485481232 0.569798648
vn 0.191261441 -0.22261779 0.831015468
vn -0.659048796 -0.306196094 0.144849703
vn -0.373118371 -0.201018274 0.329462886
vn -0.753413737 -0.366004527 -0.0993567407
vn 0.79665637 -0.234181166 -0.385236353
vn 0.641743004 -0.223057911 -0.505560994
vn 0.844667196 -0.153117746 -0.403082043
vn -0.759953499 -0.295465708 0.290927172
vn -0.659048796 -0.306196094 0.144849703
vn -0.753413737 -0.366004527 -0.0993567407
vn 0.650235236 0.0544117019 0.414008915
vn 0.694514096 -0.0395815633 0.368314803
vn 0.803028286 -0.086925976 0.44528684
vn 0.094529368 -0.806386352 -0.190107346
vn 0.5204615 -0.599803269 -0.407723367
vn 0.770999968 -0.219589099 0.46026203
vn 0.71522969 0.366217494 0.00535667036
vn 0.72271955 -0.0408249311 0.674211919
vn 0.899869263 -0.134897053 0.214282721
vn 0.71522969 0.366217494 0.00535667036
vn 0.464508951 0.875966966 0.0444157086
vn 0.499091208 0.765861273 0.39280495
vn -0.710475206 -0.649422884 0.280857831
vn -0.585498571 -0.31856823 -0.42287004
vn 0.332425416 -0.332938492 -0.906612158
vn 0.104539409 1.01676846 -0.134500518
vn -0.794332087 -0.038391646 -0.649743438
vn -0.751860201 0.566684067 0.199154511
vn 0.171376899 0.0711786896 -0.909357369
vn 0.197517395 0.0661249012 -0.894613564
vn 0.42408374 -0.151578844 -0.808549523
vn -0.938429296 -0.137020141 0.00360556412
vn -0.689257205 0.00067104277 -0.611222386
vn -0.0972576886 -0.175325274 -0.899129808
vn -0.763360739 -0.548173308 -0.0537699647
vn -0.753413737 -0.366004527 -0.0993567407
vn -0.729626894 -0.489770472 0.0840261728
vn 0.169460103 -0.137443095 0.898321807
vn -0.447985083 -0.0585074835 0.905059636
vn -0.162774712 -0.185390234 0.951740503
vn -0.373118371 -0.201018274 0.329462886
vn 0.596141696 -0.283273935 0.750569284
vn 0.827362955 0.109839112 0.550823033
vn -0.373118371 -0.201018274 0.329462886
vn 0.0523960739 -0.343349606 0.855496168
vn 0.596141696 -0.283273935 0.750569284
vn 0.304403007 -0.236967966 0.688649774
vn 0.520737052 -0.441227436 0.733475149
vn 0.0394867994 0.436826766 0.488770008
vn 0.777253926 -0.216718271 -0.266615778
vn 0.800328076 0.010471534 -0.0696653351
vn 0.937256694 -0.0772747174 0.23359412
vn -0.120499291 -0.81665498 0.090340063
vn 0.174988672 -0.485481232 0.569798648
vn -0.734926403 -0.400714755 0.371665627
vn -0.206620961 -0.413102865 -0.824428439
vn -0.968203247 0.0563122034 0.268034905
vn -0.237274885 -0.229008809 0.0408322141
vn -0.870501399 -0.0704660863 0.300552696
vn -0.689257205 0.00067104277 -0.611222386
vn -0.938429296 -0.137020141 0.00360556412
vn 0.509712696 0.195352003 0.633651257
vn 0.402225822 -0.0260643587 0.797023714
vn 0.379122823 -0.211524203 0.864178538
vn 0.770999968 -0.219589099 0.46026203
vn 0.694514096 -0.0395815633 0.368314803
vn 0.094529368 -0.806386352 -0.190107346
vn 0.323573202 0.24600707 -0.861320078
vn 0.108518511 -0.477632761 -0.775704563
vn 0.332425416 -0.332938492 -0.906612158
vn 0.0206649546 0.968766034 0.289732128
vn -0.447985083 -0.0585074835 0.905059636
vn 0.520737052 -0.441227436 0.733475149
vn -0.139964089 -0.127892271 -0.751719177
vn -0.661674082 -0.0385232419 -0.788014889
vn -0.00267246319 0.123375461 -1.0557431
vn -0.227572963 0.890230179 -0.308398068
vn -0.24616605 0.842045963 -0.110464141
vn -0.0336583406 0.896155 -0.203931645
vn 0.0394867994 0.436826766 0.488770008
vn -0.208101019 0.268981427 0.861614048
vn 0.304403007 -0.236967966 0.688649774
vn -0.794332087 -0.038391646 -0.649743438
vn -0.870501399 -0.0704660863 0.300552696
vn -0.951605856 -0.00317874574 0.101838224
vn -0.794332087 -0.038391646 -0.649743438
vn 0.104539409 1.01676846 -0.134500518
vn 0.0896753147 0.473289758 -0.90493232
vn 0.648252904 0.475249857 0.419741184
vn 0.71522969 0.366217494 0.00535667036
vn 0.499091208 0.765861273 0.39280495
vn 0.71522969 0.366217494 0.00535667036
vn 0.937256694 -0.0772747174 0.23359412
vn 0.464508951 0.875966966 0.0444157086
vn -0.478302062 -0.0806411654 0.899350524
vn 0.192701921 0.237265661 0.826482713
vn 0.402225822 -0.0260643587 0.797023714
g Group30402
f 1/1/1 129/2/2 3/3/3
f 1/4/4 3/5/5 2/6/6
f 3/7/7 4/8/8 2/9/9
f 5/10/10 1/11/11 2/12/12
f 5/13/13 2/14/14 3/15/15
f 129/16/16 7/17/17 3/18/18
f 6/19/19 4/20/20 3/21/21
f 6/22/22 3/23/23 2/24/24
f 7/25/25 5/26/26 3/27/27
f 129/28/28 4/29/29 7/30/30
f 4/31/31 6/32/32 7/33/33
f 61/34/34 131/35/35 100/36/36
f 73/37/37 8/38/38 136/39/39
f 49/40/40 46/41/41 47/42/42
f 69/43/43 50/44/44 113/45/45
f 10/46/46 13/47/47 9/48/48
f 11/49/49 10/50/50 9/51/51
f 9/52/52 12/53/53 11/54/54
f 10/55/55 11/56/56 12/57/57
f 10/58/58 12/59/59 13/60/60
f 9/61/61 16/62/62 14/63/63
f 9/64/64 13/65/65 17/66/66
f 9/67/67 17/68/68 16/69/69
f 14/70/70 16/71/71 17/72/72
f 14/73/73 17/74/74 18/75/75
f 10/76/76 11/77/77 15/78/78
f 13/79/79 19/80/80 17/81/81
f 18/82/82 17/83/83 19/84/84
f 18/85/85 19/86/86 20/87/87
f 68/88/88 11/89/89 12/90/90
f 68/91/91 12/92/92 9/93/93
f 11/94/94 10/95/95 13/96/96
f 11/97/97 13/98/98 12/99/99
f 13/100/100 21/101/101 19/102/102
f 20/103/103 19/104/104 21/105/105
f 20/106/106 21/107/107 22/108/108
f 13/109/109 21/110/110 23/111/111
f 13/112/112 23/113/113 21/114/114
f 22/115/115 21/116/116 23/117/117
f 22/118/118 23/119/119 24/120/120
f 22/121/121 24/122/122 29/123/123
f 24/124/124 23/125/125 25/126/126
f 24/127/127 25/128/128 26/129/129
f 29/130/130 24/131/131 26/132/132
f 26/133/133 25/134/134 27/135/135
f 26/136/136 27/137/137 28/138/138
f 29/139/139 26/140/140 28/141/141
f 29/142/142 28/143/143 30/144/144
f 28/145/145 32/146/146 31/147/147
f 28/148/148 31/149/149 30/150/150
f 15/151/151 14/152/152 16/153/153
f 15/154/154 16/155/155 17/156/156
f 15/157/157 17/158/158 10/159/159
f 16/160/160 14/161/161 18/162/162
f 16/163/163 18/164/164 17/165/165
f 10/166/166 17/167/167 19/168/168
f 17/169/169 18/170/170 20/171/171
f 17/172/172 20/173/173 19/174/174
f 10/175/175 19/176/176 21/177/177
f 10/178/178 21/179/179 13/180/180
f 19/181/181 20/182/182 22/183/183
f 19/184/184 22/185/185 21/186/186
f 21/187/187 22/188/188 24/189/189
f 21/190/190 24/191/191 23/192/192
f 24/193/193 22/194/194 30/195/195
f 22/196/196 29/197/197 30/198/198
f 9/199/199 22/200/200 30/201/201
f 23/202/202 24/203/203 26/204/204
f 23/205/205 26/206/206 25/207/207
f 26/208/208 24/209/209 30/210/210
f 25/211/211 26/212/212 28/213/213
f 25/214/214 28/215/215 27/216/216
f 28/217/217 26/218/218 32/219/219
f 31/220/220 33/221/221 30/222/222
f 33/223/223 31/224/224 34/225/225
f 33/226/226 34/227/227 9/228/228
f 30/229/229 33/230/230 9/231/231
f 22/232/232 14/233/233 30/234/234
f 26/235/235 30/236/236 32/237/237
f 30/238/238 14/239/239 139/240/240
f 31/241/241 30/242/242 139/243/243
f 33/244/244 31/245/245 139/246/246
f 31/247/247 33/248/248 9/249/249
f 31/250/250 9/251/251 34/252/252
f 9/253/253 33/254/254 139/255/255
f 97/256/256 92/257/257 43/258/258
f 39/259/259 127/260/260 118/261/261
f 87/262/262 105/263/263 111/264/264
f 77/265/265 120/266/266 110/267/267
f 65/268/268 44/269/269 52/270/270
f 122/271/271 124/272/272 43/273/273
f 65/274/274 102/275/275 44/276/276
f 45/277/277 88/278/278 100/279/279
f 68/280/280 88/281/281 46/282/282
f 88/283/283 45/284/284 102/285/285
f 14/286/286 35/287/287 48/288/288
f 68/289/289 46/290/290 49/291/291
f 7/292/292 6/293/293 50/294/294
f 7/295/295 50/296/296 71/297/297
f 52/298/298 107/299/299 83/300/300
f 72/301/301 93/302/302 66/303/303
f 35/304/304 14/305/305 90/306/306
f 98/307/307 15/308/308 68/309/309
f 121/310/310 43/311/311 92/312/312
f 107/313/313 101/314/314 44/315/315
f 58/316/316 40/317/317 78/318/318
f 91/319/319 73/320/320 136/321/321
f 109/322/322 68/323/323 49/324/324
f 85/325/325 55/326/326 131/327/327
f 59/328/328 49/329/329 65/330/330
f 52/331/331 44/332/332 101/333/333
f 67/334/334 110/335/335 116/336/336
f 50/337/337 6/338/338 113/339/339
f 88/340/340 9/341/341 100/342/342
f 75/343/343 83/344/344 70/345/345
f 112/346/346 40/347/347 82/348/348
f 78/349/349 108/350/350 62/351/351
f 37/352/352 79/353/353 110/354/354
f 79/355/355 106/356/356 77/357/357
f 58/358/358 78/359/359 80/360/360
f 91/361/361 115/362/362 116/363/363
f 137/364/364 86/365/365 92/366/366
f 74/367/367 58/368/368 104/369/369
f 53/370/370 87/371/371 111/372/372
f 138/373/373 53/374/374 111/375/375
f 108/376/376 94/377/377 54/378/378
f 133/379/379 104/380/380 123/381/381
f 65/382/382 49/383/383 47/384/384
f 47/385/385 102/386/386 65/387/387
f 116/388/388 97/389/389 67/390/390
f 39/391/391 87/392/392 53/393/393
f 39/394/394 51/395/395 63/396/396
f 78/397/397 62/398/398 50/399/399
f 94/400/400 108/401/401 84/402/402
f 94/403/403 84/404/404 90/405/405
f 98/406/406 54/407/407 130/408/408
f 41/409/409 85/410/410 95/411/411
f 73/412/412 100/413/413 9/414/414
f 38/415/415 60/416/416 97/417/417
f 133/418/418 92/419/419 86/420/420
f 37/421/421 124/422/422 79/423/423
f 83/424/424 107/425/425 57/426/426
f 57/427/427 107/428/428 44/429/429
f 129/430/430 96/431/431 6/432/432
f 135/433/433 8/434/434 73/435/435
f 79/436/436 77/437/437 110/438/438
f 112/439/439 76/440/440 119/441/441
f 113/442/442 96/443/443 69/444/444
f 41/445/445 57/446/446 85/447/447
f 132/448/448 111/449/449 72/450/450
f 37/451/451 43/452/452 124/453/453
f 40/454/454 117/455/455 78/456/456
f 39/457/457 118/458/458 51/459/459
f 108/460/460 78/461/461 117/462/462
f 41/463/463 77/464/464 42/465/465
f 121/466/466 51/467/467 118/468/468
f 128/469/469 88/470/470 102/471/471
f 124/472/472 122/473/473 106/474/474
f 79/475/475 124/476/476 106/477/477
f 86/478/478 74/479/479 125/480/480
f 99/481/481 120/482/482 95/483/483
f 127/484/484 39/485/485 53/486/486
f 67/487/487 37/488/488 110/489/489
f 80/490/490 50/491/491 69/492/492
f 128/493/493 47/494/494 88/495/495
f 89/496/496 132/497/497 75/498/498
f 134/499/499 36/500/500 60/501/501
f 93/502/502 111/503/503 105/504/504
f 76/505/505 112/506/506 60/507/507
f 129/508/508 123/509/509 96/510/510
f 60/511/511 38/512/512 114/513/513
f 134/514/514 60/515/515 114/516/516
f 38/517/517 97/518/518 116/519/519
f 9/520/520 139/521/521 48/522/522
f 62/523/523 109/524/524 50/525/525
f 66/526/526 93/527/527 65/528/528
f 45/529/529 55/530/530 102/531/531
f 132/532/532 42/533/533 138/534/534
f 95/535/535 126/536/536 61/537/537
f 90/538/538 103/539/539 35/540/540
f 47/541/541 128/542/542 102/543/543
f 94/544/544 14/545/545 130/546/546
f 41/547/547 89/548/548 70/549/549
f 73/550/550 9/551/551 48/552/552
f 137/553/553 92/554/554 56/555/555
f 61/556/556 85/557/557 131/558/558
f 114/559/559 103/560/560 84/561/561
f 73/562/562 61/563/563 100/564/564
f 35/565/565 73/566/566 48/567/567
f 82/568/568 40/569/569 74/570/570
f 64/571/571 8/572/572 135/573/573
f 117/574/574 40/575/575 112/576/576
f 7/577/577 71/578/578 49/579/579
f 137/580/580 112/581/581 82/582/582
f 112/583/583 137/584/584 60/585/585
f 103/586/586 114/587/587 35/588/588
f 5/589/589 59/590/590 65/591/591
f 61/592/592 126/593/593 85/594/594
f 122/595/595 138/596/596 42/597/597
f 132/598/598 89/599/599 42/600/600
f 58/601/601 74/602/602 40/603/603
f 60/604/604 56/605/605 97/606/606
f 36/607/607 134/608/608 108/609/609
f 76/610/610 108/611/611 119/612/612
f 63/613/613 121/614/614 92/615/615
f 123/616/616 104/617/617 96/618/618
f 114/619/619 38/620/620 35/621/621
f 8/622/622 115/623/623 136/624/624
f 108/625/625 134/626/626 84/627/627
f 88/628/628 47/629/629 46/630/630
f 121/631/631 63/632/632 51/633/633
f 117/634/634 119/635/635 108/636/636
f 72/637/637 111/638/638 93/639/639
f 83/640/640 132/641/641 72/642/642
f 14/643/643 48/644/644 139/645/645
f 61/646/646 91/647/647 81/648/648
f 133/649/649 86/650/650 125/651/651
f 98/652/652 130/653/653 15/654/654
f 83/655/655 57/656/656 70/657/657
f 122/658/658 127/659/659 138/660/660
f 109/661/661 62/662/662 54/663/663
f 109/664/664 54/665/665 98/666/666
f 38/667/667 64/668/668 135/669/669
f 126/670/670 95/671/671 85/672/672
f 130/673/673 14/674/674 15/675/675
f 109/676/676 49/677/677 71/678/678
f 57/679/679 41/680/680 70/681/681
f 36/682/682 76/683/683 60/684/684
f 132/685/685 138/686/686 111/687/687
f 129/688/688 63/689/689 123/690/690
f 77/691/691 41/692/692 120/693/693
f 92/694/694 133/695/695 63/696/696
f 6/697/697 96/698/698 113/699/699
f 60/700/700 137/701/701 56/702/702
f 120/703/703 41/704/704 95/705/705
f 38/706/706 116/707/707 64/708/708
f 52/709/709 83/710/710 72/711/711
f 134/712/712 114/713/713 84/714/714
f 63/715/715 133/716/716 123/717/717
f 8/718/718 64/719/719 115/720/720
f 127/721/721 121/722/722 118/723/723
f 117/724/724 112/725/725 119/726/726
f 43/727/727 121/728/728 127/729/729
f 54/730/730 94/731/731 130/732/732
f 65/733/733 93/734/734 5/735/735
f 62/736/736 108/737/737 54/738/738
f 68/739/739 15/740/740 11/741/741
f 49/742/742 59/743/743 7/744/744
f 80/745/745 78/746/746 50/747/747
f 55/748/748 57/749/749 44/750/750
f 115/751/751 64/752/752 116/753/753
f 66/754/754 52/755/755 72/756/756
f 96/757/757 104/758/758 69/759/759
f 104/760/760 133/761/761 125/762/762
f 105/763/763 5/764/764 93/765/765
f 1/766/766 5/767/767 129/768/768
f 37/769/769 97/770/770 43/771/771
f 102/772/772 55/773/773 44/774/774
f 38/775/775 135/776/776 35/777/777
f 67/778/778 97/779/779 37/780/780
f 99/781/781 95/782/782 81/783/783
f 63/784/784 129/785/785 87/786/786
f 91/787/787 61/788/788 73/789/789
f 14/790/790 94/791/791 90/792/792
f 88/793/793 68/794/794 9/795/795
f 110/796/796 120/797/797 99/798/798
f 39/799/799 63/800/800 87/801/801
f 41/802/802 42/803/803 89/804/804
f 107/805/805 52/806/806 101/807/807
f 87/808/808 129/809/809 5/810/810
f 73/811/811 35/812/812 135/813/813
f 105/814/814 87/815/815 5/816/816
f 57/817/817 55/818/818 85/819/819
f 45/820/820 100/821/821 131/822/822
f 81/823/823 95/824/824 61/825/825
f 81/826/826 116/827/827 110/828/828
f 71/829/829 50/830/830 109/831/831
f 137/832/832 74/833/833 86/834/834
f 84/835/835 103/836/836 90/837/837
f 69/838/838 58/839/839 80/840/840
f 59/841/841 5/842/842 7/843/843
f 138/844/844 127/845/845 53/846/846
f 129/847/847 2/848/848 4/849/849
f 129/850/850 6/851/851 2/852/852
f 106/853/853 122/854/854 42/855/855
f 136/856/856 115/857/857 91/858/858
f 65/859/859 52/860/860 66/861/861
f 14/862/862 22/863/863 9/864/864
f 104/865/865 58/866/866 69/867/867
f 89/868/868 75/869/869 70/870/870
f 131/871/871 55/872/872 45/873/873
f 98/874/874 68/875/875 109/876/876
f 43/877/877 127/878/878 122/879/879
f 108/880/880 76/881/881 36/882/882
f 56/883/883 92/884/884 97/885/885
f 42/886/886 77/887/887 106/888/888
f 74/889/889 104/890/890 125/891/891
f 74/892/892 137/893/893 82/894/894
f 99/895/895 81/896/896 110/897/897
f 81/898/898 91/899/899 116/900/900
f 132/901/901 83/902/902 75/903/903
