# File exported by ZBrush version 4.8
# www.zbrush.com
#Vertex Count 895
#UV Vertex Count 1093
#Face Count 1774
#Auto scale x=0.027260 y=0.027260 z=0.027260
#Auto offset x=0.000205 y=-0.159854 z=-0.000103
mtllib ScatterSharp_LOD0.mtl
usemtl defaultMat
v 9.49110594 3.35545528 -32.2882849
v -5.38901197 5.65298576 -32.02053607
v 4.34068821 8.27742453 -34.5758194
v -6.30492575 11.65018097 -25.7262106
v 1.46529614 1.98487943 -26.50362983
v -5.80920428 9.66202885 -32.19217834
v 5.61158553 -0.25310456 -29.64788886
v 11.90915308 5.17280666 -26.45832064
v 1.44700243 4.96023755 -36.66409144
v 4.15595411 1.24315523 -34.58623601
v -0.5718827 10.47456369 -22.50669572
v -7.14291885 6.1838037 -29.47203534
v 7.85716006 7.97342365 -30.77147011
v 7.69514014 2.10093694 -24.49705514
v 1.14933442 0.22899429 -32.62508858
v 5.3056627 7.01216844 -34.78002779
v 0.01117366 7.42535457 -36.31768891
v -6.22120914 9.5684696 -21.94954709
v 9.22901366 8.29274606 -24.38202202
v 7.87475394 0.46306679 -31.19061398
v -10.2995159 10.03167087 -26.26525042
v -9.63707731 8.96578274 -24.18766612
v 11.40528461 3.64580376 -29.50403733
v 2.29354745 5.97202009 -21.10473913
v 4.56723633 0.55729184 -33.40604998
v 6.15944908 1.43628832 -24.73393897
v 7.00553616 6.70943356 -22.5819778
v -0.09840261 1.64792816 -34.19615981
v 9.02309213 6.4600264 -23.37202204
v -2.32779254 11.06367495 -28.28532472
v -4.09883522 8.46670988 -34.05532132
v -6.8717257 8.56984228 -21.67480576
v 10.22151706 5.8095656 -30.93690265
v -8.18967979 10.87366039 -28.41656874
v 3.51557674 2.91045219 -22.45690853
v 1.52300251 -0.09065171 -31.98245554
v 5.09191395 9.34291853 -22.71604244
v 8.98822743 2.25603186 -32.26528702
v 11.28913637 3.36381026 -26.57126782
v -3.19481041 6.28100898 -20.97963925
v 1.19737881 4.12074831 -36.43798719
v 0.05397832 5.44752832 -36.48322203
v -2.70199538 9.55687336 -21.3441156
v 9.90665626 8.15957024 -25.19476676
v 3.3235238 9.63626392 -32.68805615
v -8.77738949 10.40222467 -23.88463551
v -9.24674966 8.67489391 -28.97881198
v 9.89759748 1.63231473 -30.23110525
v 0.29329363 8.3367805 -21.05191267
v 7.94933415 0.57913578 -28.53290503
v -5.53546273 4.83531641 -28.31935581
v 11.51465354 6.41185943 -25.75385265
v 3.11002705 6.68896658 -36.24945182
v 11.33079843 4.39394514 -30.02555871
v -8.72538134 9.75481625 -29.75093545
v 10.14764201 4.02237597 -24.30462338
v 2.16910926 2.42364245 -35.63101487
v -9.10214597 10.77908441 -27.41757136
v 11.21517385 7.10738179 -27.62586418
v -7.62865883 11.44654326 -25.18010829
v 11.67815756 6.10103222 -28.32125809
v -1.03187965 1.8793044 -33.58300114
v -9.54639443 10.77005187 -25.4421153
v -8.25626333 8.65716174 -22.62927673
v -1.11321007 6.32850305 -20.51898637
v -8.51885032 8.29995886 -23.44976178
v 8.24078437 4.59858619 -23.09850953
v -10.15173518 8.94433019 -27.50974217
v -7.25563097 10.06202531 -30.76083922
v 9.24718259 7.51292602 -23.79392093
v 10.0431053 2.64139035 -31.32741178
v -3.40385184 7.62169802 -20.52394541
v 2.82138625 2.63665434 -35.77440723
v 5.3073015 -0.1723026 -31.09909913
v 11.01467709 6.75718181 -28.77688195
v 4.72946561 2.1604651 -23.26004131
v 4.23710291 6.01987658 -35.90540199
v 0.62792202 8.40295188 -35.81373408
v 11.01042321 4.80944926 -24.80365853
v -1.76546636 8.59536341 -35.22728601
v -6.07011146 7.62078351 -21.73600661
v -1.69296567 7.52950918 -35.72150205
v 0.09467488 9.25764293 -21.48012625
v 6.73205809 0.33294282 -32.19832248
v -6.64307195 9.32470149 -31.90388929
v 8.12883808 7.06856987 -31.70080478
v 9.36524733 2.62577118 -25.22935323
v -8.86904701 7.36440899 -27.47059898
v 2.20061505 8.45112596 -21.4285636
v 3.53988271 8.85682871 -34.51463604
v 12.00851755 4.96158882 -27.34490874
v 2.3520146 9.46254554 -21.81402185
v -0.41412507 0.97138702 -32.89348462
v 11.02352268 5.75775095 -24.68416927
v 10.74480078 7.39422118 -25.37596853
v 8.04891291 0.90550318 -31.83044389
v -6.85594882 11.25961062 -24.18796786
v 6.09236592 1.09680942 -33.53283787
v -5.58392817 7.85691353 -21.15109785
v 7.80449595 5.5582108 -33.26340542
v -5.69134671 8.57792915 -21.19837491
v 3.23127674 5.82009208 -36.38565925
v -10.03798446 9.69367553 -27.82470683
v -6.37907575 5.96633403 -30.86022119
v -2.47000582 3.43270332 -33.66356587
v 1.15428621 3.9584712 -21.72815261
v 0.51499664 2.63439347 -35.49547651
v 10.88191562 4.9634818 -30.66334641
v 3.62009869 -0.34876288 -30.89586156
v -4.01675441 11.1329747 -23.84747769
v 5.26958885 8.46726799 -22.32018945
v 1.82619984 6.19351078 -36.68002247
v -2.25727053 8.72777996 -20.7630114
v 10.77175736 7.62942466 -26.18172951
v -7.92009975 11.28799609 -26.8263829
v 1.41648769 7.5986832 -36.27729066
v 11.87170773 6.05830532 -27.06892108
v 0.43902044 6.83363806 -20.64361397
v 11.07599602 2.60410435 -27.75038245
v -10.24274057 8.99559766 -25.67137253
v 3.97813982 9.18382473 -33.73469355
v 10.15199647 4.9440589 -23.9978407
v -9.27047675 9.51362169 -23.36556741
v 10.09506918 1.52447801 -29.27517368
v -9.72927982 10.16426835 -24.35991187
v -7.28353706 6.36993498 -26.96687155
v 11.67580923 3.62484673 -28.18722843
v -9.27661104 7.86551259 -26.16717599
v 4.25308642 0.43244067 -28.00681382
v 9.82355078 4.54381508 -31.98494818
v 0.97934967 4.90637412 -21.12208266
v -5.19562197 11.49000483 -26.82554765
v -5.16075071 10.37317449 -22.55368416
v 2.92251689 9.89844913 -22.98400118
v -4.22343385 7.24958687 -20.82613202
v -10.13301634 10.04662452 -25.0973964
v 9.40761127 4.07596662 -23.76428913
v 4.10835262 -0.07253361 -31.95962384
v -9.13694726 10.34696897 -28.52738187
v 5.68728032 2.38987347 -23.3209448
v 5.28893305 8.54717238 -33.28646889
v 11.9445737 5.39424597 -28.02584971
v 0.32303219 3.92824576 -36.14511955
v 10.90787843 2.49319939 -29.27529613
v -9.55637483 8.20242123 -28.20908057
v 8.92618913 0.81525706 -30.34677246
v 1.79839079 1.21880171 -34.23637877
v 2.50062756 4.94027511 -36.57848896
v 7.60467483 7.90476018 -23.05313038
v -9.98683178 8.3999219 -26.81595754
v -8.29807626 9.68911881 -22.86075984
v 8.95469815 4.20117666 -32.78310442
v -5.96358284 7.14948608 -22.53073876
v 3.30628195 7.93116849 -35.50904172
v -1.48165408 7.22792879 -20.41245009
v 4.08609325 7.05967453 -35.64574331
v -0.42595243 8.5291576 -35.66306059
v 11.44924909 4.31136116 -25.78599021
v 10.34877942 6.45995152 -24.20847747
v -5.24933014 11.31134053 -23.96918409
v -1.40321944 7.99899835 -20.52435648
v 11.69737931 3.84622235 -27.13254461
v 6.34198025 -0.05707433 -28.86311853
v 11.03724095 5.88844834 -29.86928771
v -10.40250017 9.30633358 -26.54693179
v -0.67510909 5.38981989 -20.91111353
v 2.67569093 -0.26736946 -30.91687407
v -0.92187984 2.37160532 -34.28056408
v 4.30969748 6.55411425 -21.68384048
v -2.11318039 10.3263391 -22.14155904
v 7.89144588 8.64333961 -23.6317332
v 11.63532462 5.36173725 -29.21685904
v 0.42223992 0.29481528 -32.31493427
v 10.60320246 2.61877512 -30.33352649
v -0.45950484 0.80955241 -32.23471939
v 11.35590521 6.9632564 -26.37150683
v 8.16429478 6.33079344 -32.37922687
v -0.1271097 4.52128649 -21.49350341
v -8.99421851 10.86119392 -24.83350898
v 5.33527482 7.570172 -22.10619854
v 0.45703588 6.25848011 -36.59159062
v 3.3216986 3.67929204 -21.94214352
v 1.97411489 9.99830558 -22.02319365
v 4.7339622 4.29809742 -22.07231614
v -6.66903749 10.33361805 -22.90167411
v 4.65569387 3.1741051 -22.47494299
v -8.78938478 7.9334802 -24.78671295
v 10.73010076 3.90293919 -31.00103782
v -4.07047981 9.13531666 -33.68929253
v 5.49347597 5.81101527 -35.13384264
v -9.99908179 9.43334558 -24.47661112
v 10.51169964 7.16861326 -24.66772659
v -9.76189732 9.23436955 -28.42304523
v 1.39996056 5.51090367 -20.96884656
v -9.66526053 8.47872702 -25.1110272
v 7.42737055 1.2466411 -32.81534693
v 2.01470966 7.57098593 -21.18720177
v 11.86682631 4.66374137 -28.71825682
v 7.75180177 5.52693364 -22.81032106
v 1.45322665 3.21362273 -36.08370879
v 6.3481233 4.93650445 -22.40356605
v -9.8420313 10.31304175 -27.23546438
v -2.95658132 2.72387622 -30.53165196
v 9.59664298 5.50425992 -23.5895245
v 3.66971314 9.37460457 -33.50358653
v 9.01372287 1.42586187 -31.46249096
v -6.73353017 9.02827529 -21.71290378
v -8.16927896 9.18374164 -22.50017113
v 10.3412359 2.7966151 -26.11800977
v -8.0464476 10.48516615 -29.49971238
v -8.98243095 7.48989261 -27.96983092
v 5.30238346 -0.24251249 -28.90419897
v -10.31200424 9.54886958 -25.38023662
v 0.48585326 0.66488367 -33.13982298
v 2.53177408 7.37842079 -36.16310154
v 1.52288102 2.00135381 -35.11631108
v -0.47319745 6.57102593 -36.34257595
v 5.38069771 7.92164399 -33.94328811
v -3.74272479 10.7979257 -23.11447117
v -4.84703127 8.94793577 -21.19464033
v 10.36448851 6.80219254 -29.70616415
v 0.83666212 10.17981673 -22.23253163
v 1.68088949 0.09533252 -31.11131306
v -0.53322814 9.80749622 -21.84582706
v -1.75436687 10.72721783 -29.388908
v 5.74878565 1.62751475 -24.08450583
v -8.60985898 11.13302827 -26.63204012
v -5.46208457 8.34340568 -32.80724804
v -9.53993434 10.73249392 -26.35823024
v -2.79778871 6.63364311 -20.63918844
v 10.12741008 1.72883344 -28.5539744
v -6.52912718 6.51647813 -31.17511588
v -4.1501057 8.34707795 -20.81126802
v -1.97011943 10.67713108 -22.59967992
v 11.64950752 5.37779127 -25.71146904
v 5.55484574 0.51648581 -33.17388905
v 2.32604496 3.45847207 -36.2466312
v -10.46362996 9.87209822 26.34614969
v 10.09372775 4.24245826 25.92652041
v -5.2292551 6.64672236 23.32533315
v 5.74184179 5.39841075 36.25095833
v 11.47956199 5.83580227 27.67829051
v 3.70551586 1.74186349 35.62058733
v 8.29316587 10.46874643 26.04390186
v 3.12474866 6.69375344 23.43604133
v -10.42409758 9.39133914 27.63312126
v -9.88619912 8.07601052 24.62201727
v 7.98482092 8.52361476 32.86239003
v 3.95357639 10.95907921 29.11846319
v -3.28062608 2.76387051 31.1218062
v -6.75375772 4.45279357 29.78769751
v -1.35326552 9.5600788 24.1556357
v 10.3795985 5.5360684 32.9776593
v -8.81375743 9.76769926 23.62716117
v 3.60288636 1.05660632 32.24132051
v 2.37660673 2.59710774 36.2152961
v 0.78530931 4.34867094 25.84235229
v 4.70488523 3.59236288 27.04300857
v -8.31992621 5.2520152 25.90211441
v 0.50447337 1.57476974 30.91470285
v 10.5085423 2.5463418 28.09682215
v 2.64959502 9.11618893 24.10734409
v 8.56492861 3.3854678 25.74991472
v -6.62415905 11.49402586 24.23470922
v 9.54677598 7.49928046 32.89172446
v 2.46519519 10.1385395 30.19680085
v 11.48036882 5.13933751 30.23464961
v -1.00257788 6.4085534 33.84023934
v 10.99024267 8.46023721 28.93256477
v 5.79070518 5.59121039 23.91224915
v -5.40867868 11.98660091 25.01541699
v -9.95082189 9.9872669 24.53861443
v 1.02852689 2.13097871 35.62283945
v 6.88433867 6.25940173 35.54886491
v 2.64346127 5.57691598 25.10611845
v 4.20323828 3.0206621 29.15254676
v 4.81451818 1.11842815 31.36732243
v 9.13191606 8.81995295 25.76315632
v -8.81466156 11.49900676 25.71938645
v 1.74786182 3.0113117 28.80963829
v 0.75806834 5.88020952 23.59902058
v -8.33117917 10.94693196 23.99028188
v 2.07412111 1.10813945 33.42019899
v 11.17998063 7.43778825 30.35353539
v -10.39418044 7.95547009 26.3751299
v -1.35375203 7.11623285 23.41320088
v 8.25604632 10.43148257 26.70109716
v -3.00341561 5.68869282 33.50041825
v 7.86519063 4.46040486 24.64188842
v -9.42691064 11.07644645 26.30757063
v 7.28918594 3.69268806 34.36030449
v 5.61644017 10.0099051 24.78257823
v 8.00097442 5.63529567 35.2774296
v 8.16263575 1.61846145 29.16987716
v -4.92990005 5.46818552 24.10680621
v 10.77500654 3.17466595 29.36968626
v 6.93702247 10.05100631 24.70485599
v 11.43602389 4.50980504 29.25812097
v 10.05314255 9.07374245 29.83650076
v 4.63994487 1.86770625 35.0971593
v 7.31783708 2.16403242 32.13963831
v -6.37488965 3.70648122 26.67348571
v -2.85447603 11.94061172 25.14178068
v 6.75462686 8.26900859 33.67986642
v -2.39234643 2.83545271 27.4437244
v -10.64580145 9.12932776 26.25060288
v -3.67257667 2.49657812 28.14532804
v 10.87399493 6.60879816 31.82093907
v 4.88296573 0.89760927 33.37727749
v 10.45375671 7.60108401 31.63534239
v -0.40370713 2.3263221 34.67881132
v 11.6630279 6.91675884 28.34338791
v 2.82576613 4.26526045 36.67283099
v -9.20424579 6.86806874 24.72983486
v 6.70058141 10.65598847 27.14701722
v 5.76184468 2.35266536 28.54679603
v -1.53363654 2.01977474 29.42841197
v -0.61464448 11.79299499 25.73931445
v -9.58972481 6.51793873 28.0657385
v 9.13392603 3.91858214 25.26997669
v 10.7609428 8.79443346 27.3462622
v 5.14272936 3.95772095 36.5054918
v -7.54111198 8.02317968 23.28850331
v 9.37002598 5.17580822 34.2319117
v 1.76307033 4.42989436 36.50489706
v 8.44667583 8.39968849 25.17370833
v 3.7214488 0.74688604 33.40300853
v -7.52988909 11.26066124 26.53378858
v -9.2080897 5.99893458 26.69811474
v -7.58530494 4.95589729 25.08806212
v -10.42964151 8.228073 27.73416499
v 9.77644209 5.98210052 33.69832944
v -8.59658021 5.27171853 27.75738152
v 4.30266644 5.69093073 36.30759372
v 11.35685635 6.34266518 30.74644969
v 5.640809 10.75688243 28.3750007
v 5.36998318 10.45039274 25.39131138
v 4.36983678 2.52006632 36.11001051
v 9.78350457 1.88273697 27.50920647
v 8.23861096 6.58631248 34.67588138
v 8.10538485 2.39258176 27.58194781
v 6.72894994 9.37866167 32.11319447
v 7.29227496 2.85638651 33.2397975
v -2.14210963 3.14584781 33.55355083
v -1.42385013 5.99219735 23.49065637
v -8.84305469 11.32015989 24.68443821
v -4.9371052 7.55793675 23.31116447
v 4.14359833 8.55145633 23.86901278
v 0.11942023 1.63913997 32.85850239
v 9.72520414 4.51914479 32.98144636
v 3.48809813 4.50136177 26.35374568
v 1.15827116 1.38991867 31.75650215
v -10.16759624 9.20818919 24.64454723
v 2.4035655 7.70574534 23.54827132
v 2.07459586 6.96390088 23.36973275
v 1.44125077 2.87873991 36.16787473
v 11.35870724 7.82957321 28.78702087
v -2.58832774 10.70447687 24.5737694
v -1.58073855 11.51501104 25.17164425
v -9.83705258 10.76695575 25.69132895
v -4.5190248 11.26868251 24.45222917
v 10.58945687 9.19597525 27.85133216
v -6.24740099 11.87074457 25.62649409
v -3.9007461 12.29674319 25.32248829
v -8.93972865 8.77284043 23.43338251
v -9.91950428 7.72344253 28.50526079
v -0.75231381 12.0389857 26.39330867
v 9.79946511 3.08181376 25.86503093
v -9.57337507 6.7740126 25.55220906
v 11.59981325 6.80510062 29.42748488
v 4.98441068 0.55301882 32.44867749
v 2.66315476 4.54549297 26.5856486
v 9.61314797 8.27482693 31.89125336
v -1.66355936 2.03211249 30.21614286
v -8.78440059 5.65989737 28.87648913
v 2.74321467 1.80146026 35.69098034
v 8.02780145 9.12114141 31.85829367
v 7.2938744 5.03732351 35.53185374
v 2.75000766 11.5391962 27.84833224
v 9.54345465 9.782185 26.72158928
v 3.4074883 3.43168358 28.45425352
v 0.26471232 7.21825232 33.49918942
v 5.92760519 6.38945137 35.71079026
v 11.69878525 5.76329762 28.71936102
v 9.37967512 2.6331261 30.12725184
v 10.35917525 3.84657711 31.09493817
v -7.32032918 4.33151901 26.1778528
v 7.54201501 7.54538991 34.25189217
v -9.51265087 8.63839971 23.8375618
v 9.93229327 2.44309843 26.4962678
v -3.2610605 9.38501352 24.00980318
v 0.76516382 4.38580033 36.06751757
v -10.03766741 7.09259705 27.03925649
v 3.97659887 2.2665444 30.48468758
v -10.17460624 10.30306026 26.82837482
v 10.32261108 3.23678405 26.58955811
v -0.55801401 10.56810544 24.71327411
v 10.21114418 6.64214705 32.87281539
v -3.71054979 4.41516865 25.38633922
v 5.8796115 10.6492168 26.3516816
v 11.0931198 4.00738597 29.95399591
v 2.96882204 3.21884443 36.54781856
v 10.82589464 3.20814357 28.07960982
v 4.43849451 4.86120378 36.60174266
v -3.54095356 7.13336045 23.34179332
v 11.46070976 4.782555 28.44831928
v 4.20028018 7.22824474 34.36450699
v 5.12532352 1.94419994 29.66236148
v -10.19429263 8.49519976 28.41934344
v 7.03523847 1.57779753 31.37804078
v -0.54122064 6.42740453 23.39245512
v 10.69314957 4.55944054 26.57374078
v -9.55758726 10.76279151 24.75871886
v -5.20841369 6.1359893 23.59529037
v 9.51415848 9.32306706 26.26000932
v 6.65666012 7.34746451 34.74570589
v 4.49117885 9.61854432 24.45623489
v -2.50935289 12.26215782 25.7320683
v 5.8152123 9.21505488 24.2291467
v 3.90011775 3.89432072 36.68760753
v 10.51383915 8.3034655 30.50607617
v -8.35458429 5.78086745 24.90226865
v -10.26881161 10.05944084 25.35618703
v 1.49225449 2.45256937 29.62713217
v 0.14243655 4.23544006 25.79037857
v -10.20114738 7.99978058 25.42977237
v -4.17480825 2.78500109 28.6011137
v 1.59932087 3.78391675 36.4470722
v 8.78347077 7.40580867 33.66481
v 6.69013583 5.14796664 36.02116322
v -8.09126044 11.76294885 25.27767326
v 3.11305211 5.11613082 36.5079407
v -3.05125433 3.04654401 32.7638302
v -9.18775282 10.52401853 23.90756998
v 8.83340227 1.98151929 29.27503156
v 0.26871597 11.21224719 25.22424769
v 8.8790613 5.32058519 34.6935179
v 3.1729856 5.79682964 35.94684321
v -9.41933651 9.59851027 23.64769265
v 3.17891792 0.95650444 32.74066614
v 6.90214082 3.93498491 34.9851742
v 11.25464283 8.22503154 27.88694629
v -4.80145806 11.76002655 24.75348432
v -2.56715753 2.21621413 28.63958781
v 11.11860485 5.80176025 31.51607178
v -9.81101653 8.8345584 28.37609397
v -7.5676963 4.96698243 29.65695201
v 2.83454886 1.21853222 32.19697339
v 9.3316776 4.56825142 25.37845898
v 4.58572012 0.63511029 33.11364808
v 7.3802531 10.48915656 27.51850358
v 4.67125865 4.31223577 26.02129318
v 9.96609149 2.13121322 28.08630933
v 5.50641036 4.6808575 36.44888702
v 9.05934473 8.91629674 31.41287214
v 3.57043312 2.45677843 36.20118863
v -2.12513795 2.49008386 32.42020018
v 9.17841199 6.28078486 34.18673807
v 4.59054578 3.15372805 36.41701184
v 7.6497025 0.83681566 5.65686138
v -8.68181372 7.24303659 4.23309802
v -0.04715969 6.45445404 3.15219967
v 7.53317762 3.74114257 15.99653064
v -0.94063217 9.62942665 12.59068441
v 11.72509571 5.37412556 11.12894712
v -11.80233583 6.86929975 9.69058159
v -9.15737433 7.66875424 16.18613194
v 2.49033121 -0.24084144 5.81713207
v 4.96432362 9.75911824 10.84707005
v 6.29859958 3.87507629 3.58667792
v -6.86178466 3.81817988 4.78768896
v -10.15726491 8.15187312 5.62714594
v 9.2903796 1.51261173 11.52458693
v 3.11231689 2.03685752 14.24169612
v 11.41403181 4.41052939 11.67915462
v -11.32053269 6.05698684 8.79961826
v -7.0661461 4.44670382 14.63283606
v 6.82363471 6.80924901 4.96968552
v 10.64167657 3.48900007 7.50945382
v -9.91137696 10.05937305 12.34413723
v 7.81157209 0.06029618 9.74535516
v 9.68659556 7.68536364 13.430506
v -6.6119249 4.31644045 4.05564341
v 7.6967702 8.51397655 7.51088763
v 6.81146724 4.7555443 17.24819856
v -10.64496073 5.48092422 11.81559383
v 5.53484777 0.51359303 4.59056492
v 7.2609005 1.63833314 4.64408833
v -10.49394724 7.69438415 14.30420671
v -9.48810166 6.74463717 4.97676659
v 9.32236738 6.15208541 6.40427492
v -8.19328866 9.94017351 15.07462359
v -9.48308139 9.8578377 13.99044135
v 7.04624325 9.33120203 8.65267335
v 4.7563063 3.09422776 16.60429953
v 3.05501816 4.71292727 18.7791394
v 10.42590474 2.09025467 10.39309046
v -4.0359778 1.94187703 5.31277547
v 10.98131399 6.69440775 13.24886912
v -6.08550679 10.29324494 11.89687136
v -5.72934525 7.54605735 19.51381206
v -7.38176946 6.28987698 17.66563148
v 5.9285536 7.51409581 5.08599339
v -11.59314653 8.09077831 7.67455072
v 7.54435842 0.17906498 6.82603059
v -11.42928064 8.943777 8.09775825
v -3.28270027 10.12570897 11.23455412
v 8.55856036 4.81990359 15.79869379
v -3.50524432 4.28642492 18.06375299
v -7.38231117 8.90631361 17.59820558
v 10.98225201 7.37846616 12.71571105
v -2.37945632 4.50127158 18.96237463
v -11.3377155 7.83656682 12.77145871
v -8.07762691 3.94681265 6.05317409
v -2.80831274 7.56026704 18.83819309
v 8.71055178 0.54998119 9.6932087
v -8.19484109 5.5351189 16.13489836
v 10.50245829 2.6143146 7.80144684
v 11.29648419 6.06469544 8.9723937
v 9.37714313 6.35976436 15.39622983
v 5.19191198 -0.486092 7.37554059
v 6.39453722 5.02052662 3.84687038
v 11.59786396 4.2011045 10.3839475
v 3.999122 -0.54020414 5.95922509
v -8.40644923 4.0104769 11.54516104
v 10.38690587 7.12044957 14.06862058
v -10.47483372 5.99226076 13.26806025
v 8.65847201 3.76340523 5.14412928
v -10.45390102 4.96700484 9.29276619
v 5.34123857 6.17186636 3.77766028
v -9.78843299 8.22195401 15.28537079
v -8.19489193 5.75360803 4.28075389
v 8.97770095 8.55036635 8.84596113
v 3.32400292 0.39858998 4.8585149
v 9.86175376 7.61295684 8.27748466
v 6.44896313 0.17497399 5.56289762
v 9.6358135 3.03479608 6.16009793
v 5.89757818 3.43584016 16.87712984
v -7.31051824 5.61487461 3.71192348
v -6.50043559 10.2496489 13.95870503
v -10.94518274 8.78562122 13.07368905
v -4.76664638 6.38251243 19.75784582
v 11.05734824 7.55132852 10.76052627
v -11.71723843 8.91435019 9.3816266
v 5.14661372 5.21292613 3.33048625
v -6.9512562 7.43615437 3.19542674
v -10.5069669 6.21590682 6.44659184
v -11.91595099 7.84120553 10.82775319
v 9.7679857 1.44063786 8.19644545
v 5.15357945 9.87802042 10.12556794
v -9.02308939 5.1561344 14.56654935
v 5.35910686 9.38141778 8.41004278
v 6.75502918 -0.10023908 9.59573667
v -11.00336182 7.73765112 6.55868573
v 10.61703114 5.8159672 7.69425296
v 10.75731754 4.41948403 13.10370676
v 8.89728326 0.98874804 7.1305699
v 9.30888963 3.53491875 14.22777342
v -11.232806 5.83926245 10.11486161
v -0.17437454 9.92483284 10.6353914
v 9.65829317 4.40856398 6.15147646
v 5.83351134 8.21698568 5.89062886
v 6.79430356 6.58734124 16.31915251
v -8.49583385 8.82752106 16.56707174
v 10.51696261 5.95487226 14.07487951
v -11.5134586 6.98548572 11.88058284
v -5.74469575 5.98398695 18.85715464
v 7.68839417 2.72839549 14.90498746
v 8.38941838 7.34646253 6.49556565
v -12.02357834 7.9154758 9.58519433
v -11.79029572 7.23207717 8.41101906
v -9.87648001 4.67422085 11.72621084
v 0.6292502 4.64748565 19.11110211
v 11.23963342 3.70492878 8.73384429
v -6.44975137 3.11871385 5.41190107
v -1.4539411 7.45328252 3.00989155
v -0.30353278 3.08058357 15.63908069
v 0.84387198 6.9030526 3.10021775
v 8.69070796 1.6685307 5.8629212
v 11.56109535 6.49138392 10.45618375
v -3.08732026 9.74242084 13.47980778
v 3.17835598 3.45117345 17.68931374
v -6.74560033 5.31158108 17.42142607
v 11.11897218 3.03479389 9.50786675
v -5.2198514 7.11218504 19.763627
v -11.23277976 9.35511388 9.8953388
v 8.58435699 0.45775244 8.21386113
v -6.49197264 9.76505903 15.33716302
v -4.22116259 7.40772133 19.45803816
v -1.82667254 9.77207778 9.94900051
v -9.83555372 9.28174173 14.42683035
v 6.21174476 1.73939545 4.12157045
v -7.31086699 7.55914863 18.16384668
v 11.52142302 6.5518419 11.76124882
v -10.5556335 5.59900372 7.38445069
v 11.60852218 4.77617198 9.44027578
v 8.69196412 4.98854814 5.3858825
v -9.08332709 4.94858828 5.84956044
v 0.70787206 0.21309825 5.79030395
v 8.85570975 1.10004275 11.43191103
v 11.40468332 5.74295091 12.4475446
v 6.75958973 2.82782939 3.88199801
v 5.19510212 7.92758259 14.91045159
v -9.74033489 6.9803523 15.25896521
v 7.58605984 8.5283781 12.64256629
v 6.2865469 -0.33672387 6.76546492
v -6.26281545 6.84872728 18.96066477
v 11.11329378 3.13291697 10.51449621
v 7.43016055 -0.10492754 7.82793605
v 6.59119226 8.84334714 7.35109414
v -0.41503125 4.34747682 19.01957852
v -10.52439351 5.07215487 10.50624316
v -3.05951038 5.22375927 19.39630379
v 0.45499664 9.51643356 12.56976264
v -2.21283117 3.76148928 16.8088337
v -6.37654649 4.54021387 15.93527403
v 7.91987891 2.51920347 4.70127855
v -5.93911616 4.56742382 16.96678067
v -0.50274359 3.54147806 17.05582803
v 5.18833318 6.79748768 4.13341568
v -7.3583381 4.95017789 16.36942402
v 9.6583369 1.94300746 6.95942124
v -2.75962755 2.94231779 4.25576628
v -11.06753854 9.34045978 11.26808231
v 11.0924868 4.56433153 8.12627656
v 8.02246742 5.79076968 16.61992553
v 4.70783813 0.17841175 4.83447733
v -8.86287555 7.82273595 4.44017403
v -11.39207472 6.31805966 11.23215878
v -10.76264501 7.02156284 13.64187854
v -5.65532698 2.92120552 4.82820911
v -8.29588099 7.08476601 17.07415111
v 3.15894373 4.03290929 18.29351531
v -9.75920461 6.09943824 14.63116774
v -7.86257226 8.19262122 17.5744774
v 9.63646508 1.21720609 9.27980556
v 1.97246024 3.77522968 18.32713424
v -9.68450305 4.9396044 12.97351993
v -6.72807205 8.28268804 18.54427155
v -11.2156691 7.14054592 6.99918867
v 8.31528094 6.49118877 5.7612893
v -8.04784752 9.64042816 15.93209372
v -8.79810027 6.34282425 16.14421952
v -8.73660259 10.11018354 11.81976353
v -8.93369548 10.18510047 12.70132261
v 5.97933402 -0.25712559 8.8461366
v -11.58753372 8.35446512 11.87885986
v -11.84770842 8.4782684 10.66721738
v 9.69417406 4.74023862 14.62420257
v 5.7517227 4.21825643 17.62016595
v 5.69997802 5.00428238 18.18918523
v -11.88606992 8.23097015 8.69225001
v 2.57423859 9.24877438 12.91971062
v 6.35777079 0.98082243 4.54043909
v 7.40165044 7.92425415 6.46412341
v 5.43461196 -0.17122737 5.52370797
v -9.38872297 4.55691264 7.0681342
v 7.46806507 5.88132519 4.79999746
v 10.51236434 4.50737991 7.17203353
v 10.43475252 2.04963394 8.92382604
v -10.68620298 9.24660644 12.96405883
v -10.26687982 7.32436277 5.62607509
v -7.98933117 4.93471423 4.67559344
v 7.53205812 4.50292432 4.40712907
v -8.28891745 4.70992626 14.43021947
v 9.14598253 5.59315312 15.52449143
v -10.87336959 8.49562996 6.6484191
v 2.4604507 3.7409865 3.76749348
v 11.21421834 7.44411223 11.49555424
v -5.87351492 10.43919882 12.56126471
v 10.65051232 7.69100761 11.8609052
v -9.37241804 6.01983722 5.23054734
v -11.3629163 6.47760716 8.02936646
v 9.61835081 1.39913788 10.65188655
v 0.58818875 7.64118543 3.74760321
v 1.97234217 7.08693942 3.50812807
v 10.50942893 6.90086061 8.386624
v -2.51370162 1.21463528 5.61779144
v 4.82006594 -0.56860055 6.26552619
v 11.66427531 5.67497729 9.98293321
v 7.61696201 3.46911936 4.36539294
v 9.85898781 6.931232 7.54560474
v -7.58712632 6.46413762 3.56248647
v -7.34069557 9.98942172 15.09382894
v -4.51379244 4.27351185 17.48781883
v -11.86321636 7.18525764 10.54023817
v 8.48949785 3.03501036 14.53427295
v 8.71025933 8.155236 7.83542436
v -10.14565117 4.82905748 8.29267554
v -4.82492932 7.40975043 3.08225244
v 9.88161616 5.38420107 6.64815727
v 10.52490953 3.0931919 -13.71827028
v -6.02404683 8.08431112 -13.80591607
v 5.93028697 3.89921007 -19.24622285
v -0.90240323 4.53074212 -4.14807059
v -7.42948546 10.55389959 -6.53540852
v -7.08902318 4.60523596 -10.64463822
v 8.78896114 8.6269035 -5.5463079
v 6.89796674 5.80604693 -19.2382464
v 2.2631408 2.2564022 -8.38855415
v 4.69540391 10.18655451 -5.32344517
v 8.14980467 9.98138952 -16.27501968
v 9.25906527 4.8487712 -18.16591404
v -6.72181039 4.56923946 -9.41561833
v 5.87289395 6.45206362 -0.39387798
v 1.47496031 1.11613831 -16.75343042
v -1.29507155 6.47905738 -2.19464624
v -8.72695509 7.58033169 -7.33369322
v 10.62950855 7.08754071 -9.7346226
v -6.17987232 9.67685896 -12.73957042
v 9.05586596 2.14577056 -7.39709591
v 4.85681925 9.14614761 -17.81964051
v 4.3528103 9.72013905 -3.56911793
v 9.00594867 9.80170739 -15.19258447
v 8.02914015 10.56549473 -12.95324099
v 3.63561291 5.73300768 -0.38882348
v -8.54176292 7.30638953 -11.17335327
v 10.34882096 4.91361207 -5.6467148
v -4.03821544 10.40931338 -4.11688363
v 10.47182069 4.11513277 -15.51735024
v -7.44810045 8.37556127 -5.19103354
v 5.25866333 1.36900701 -9.62588886
v -7.73178686 9.82849233 -11.36188317
v 6.55822109 1.97734494 -16.84764235
v -6.34332934 5.97243335 -5.18429959
v 8.12079385 6.11986367 -1.79129018
v -4.14916276 2.87509415 -12.05780731
v 1.91392039 1.93765266 -17.90515991
v 8.59148397 4.62216568 -18.69603174
v 7.7115052 2.80660151 -4.43870961
v 4.28270236 10.58521391 -14.66537703
v -8.8849447 9.14430765 -10.4348367
v 8.92970452 10.04504366 -13.2585598
v -5.97482213 7.25324329 -13.99287168
v -3.61878158 9.35607267 -3.00340796
v 11.032705 3.61296651 -9.61400181
v 0.49699279 10.10137184 -14.80727818
v 10.24491507 2.22633419 -9.49154106
v 7.46672418 4.48654259 -1.78072161
v 6.23127481 7.94298721 -1.2915563
v 9.3684976 3.54903769 -16.94231345
v -9.1729566 9.09534423 -9.59914218
v 3.53584064 8.14699335 -0.74685666
v -9.10857927 7.51447189 -8.88863173
v 9.70540733 5.55617897 -4.01295642
v -1.31861415 9.76902976 -2.62219512
v -6.33157622 7.40058998 -4.40018357
v 7.21637628 6.67552 -18.90437266
v 5.84425265 8.64883326 -1.85795161
v -7.786362 9.30585036 -5.70625827
v 8.56012536 4.58408433 -2.72861141
v 3.46733652 10.82827905 -10.5463025
v 6.23952293 1.94325345 -5.76571592
v -6.80780317 9.83379138 -5.11587445
v 4.35010421 3.82103166 -2.32482187
v 6.33405738 3.29813304 -18.89861773
v 8.3490409 8.05367188 -3.41142132
v -7.87405972 6.90499916 -12.04795373
v 9.46681583 9.01633248 -8.78867033
v -7.8147196 6.51822516 -6.58986722
v 10.75142048 2.81142963 -10.62921119
v -8.22541965 10.28351928 -9.06126012
v 4.90311292 10.67564097 -7.98468043
v 2.38528724 2.8453216 -18.77061414
v 9.95350476 4.62999891 -17.13417999
v -6.43668633 10.55535691 -5.61040754
v -8.05249553 6.16381721 -11.16965804
v 7.69378942 8.63064464 -3.56968478
v 10.20081831 4.06197532 -5.9388576
v -8.21818881 8.83619665 -11.59443768
v 7.25367567 8.6433101 -17.79357822
v 7.72017586 1.2114998 -10.00725284
v 4.34551359 4.66797285 -19.22887933
v 8.1781497 7.86283464 -17.43372528
v 9.65858616 7.32692046 -15.40913142
v 6.48166481 5.27256799 -0.75412843
v 2.97376441 1.46755454 -17.67186636
v 4.59506424 5.1151764 -0.55399128
v 7.20917113 1.3272829 -7.32317713
v -8.8958336 9.68373339 -7.85424761
v 7.76636075 10.44099396 -15.48457312
v -5.81880422 9.12556803 -4.07157225
v 4.38813199 1.78011457 -18.0815218
v 7.3758161 10.33941125 -16.32023922
v 10.34179128 8.30528251 -9.57873096
v -9.09699779 7.88097843 -10.07855107
v 9.14678936 5.81682487 -3.07269076
v 1.05562122 8.66103899 -1.26966002
v -8.41986848 8.39347438 -6.32801491
v 2.65766658 7.70808274 -0.57206914
v -8.9803122 8.93858509 -7.41974504
v 10.11060445 1.9797493 -11.14942502
v 9.26480818 8.24247838 -5.68539554
v -8.22257771 6.34102529 -7.77524461
v 8.8138274 3.9651617 -18.07080782
v 11.1345479 3.62116708 -11.83472374
v 4.62566467 6.08911511 -0.1935482
v 9.8420313 9.23469535 -12.04810132
v 4.95691075 7.2462967 -0.37181187
v 1.20843785 0.88408124 -16.17378026
v 3.25179564 10.7296733 -12.51472232
v 9.18307257 3.70740448 -4.33498383
v -5.71483765 8.78917979 -13.70373972
v 6.69927496 10.77602546 -15.06746819
v 3.38510347 2.12421087 -18.46585618
v 8.86026538 8.34310393 -16.31548243
v 7.11026309 10.87895179 -14.30125271
v 4.92729808 6.87119383 -18.84112522
v 9.93257533 1.99144174 -12.54661061
v 9.11712804 9.7303862 -11.22690347
v -5.390841 6.66386472 -4.03290737
v 5.73507668 4.64960111 -19.42305593
v 3.55474617 3.24033797 -19.17935889
v -6.83446785 5.66534127 -6.17196858
v -7.41867473 5.53560814 -7.28452427
v -8.14931653 10.44919124 -7.51334037
v 2.98888806 3.72904671 -3.15325685
v -8.70455905 10.01914426 -9.45005829
v 3.09856829 0.98989104 -14.7040206
v 7.62524785 5.30804984 -1.46157262
v 10.75519333 4.16563687 -7.42769853
v -4.07017069 9.75708259 -13.60560079
v 8.09372029 3.73161642 -3.01461827
v 8.44918706 2.98551972 -4.60882295
v 7.15387334 6.25215121 -1.00299353
v 7.28664302 7.87356065 -1.99021947
v -8.46827871 6.42986875 -10.32470249
v -7.78393277 5.42442822 -10.14012473
v -7.40507509 7.46796066 -5.37357674
v 9.62582545 5.33726948 -17.37304481
v 4.63400462 4.49888252 -1.27614116
v -7.02532094 7.18016577 -13.10781743
v 9.95249349 8.26948033 -7.93522669
v 6.97553976 10.91560561 -12.86399139
v -7.28497907 7.97703087 -12.82206257
v -7.19198831 8.97658254 -12.53726868
v 9.64513138 4.69979664 -4.22052331
v 8.69033297 1.3945265 -8.99650452
v 6.78748542 1.09291139 -9.69047773
v 6.16530186 8.8155154 -17.94865319
v 3.84841325 6.91793847 -0.26277446
v 10.63333825 3.06096661 -8.80985503
v -5.36388769 9.91242759 -4.26882968
v 1.64493221 8.95757452 -16.81501173
v 4.70721005 8.43490795 -1.13401603
v -0.14064264 8.40135353 -1.40189932
v 6.73519138 8.71354568 -2.58011242
v -2.19203157 7.90806894 -2.35584867
v 7.81225484 4.28755563 -18.96094683
v 7.54777596 9.96945874 -16.71795076
v -8.7407149 8.2297856 -10.98189233
v 10.1856307 3.17850439 -7.06722406
v -8.12135852 9.89975667 -6.50601177
v 0.85587745 2.69762287 -8.01367814
v 0.85461596 1.00838304 -15.67635876
v 7.88406636 6.97393703 -1.9518398
v 10.5060267 2.60285229 -12.25084146
v 10.09046108 2.49203452 -13.62094146
v 2.1427936 9.99961968 -15.5500388
v -9.27897249 8.9124829 -8.8131299
v 5.32352552 9.35595132 -2.70825294
v 9.4009686 9.65029595 -13.74128456
v 4.81541356 8.90587685 -1.75314036
v 4.64112832 8.50373432 -18.27667359
v -8.09131019 7.42260283 -6.24871235
v -8.35354022 9.91659292 -10.45540316
v 4.69725808 3.75113171 -19.42142916
v -9.06623447 8.24138512 -7.83187727
v -1.0675207 4.51872907 -16.79116002
v -1.24346066 9.22699003 -2.17398685
v 5.15364122 2.56219658 -18.86503269
v 10.02409346 5.74045553 -5.12859511
v 5.27524266 3.31350022 -19.32143496
v 8.04156673 10.52124929 -14.08371417
v 7.36193548 7.4155327 -18.4896412
v 5.65340502 5.50054938 -0.44396493
v 6.64738488 7.17268567 -1.06802367
v 1.72715282 2.71111237 -18.23790321
v 8.70673246 5.2044681 -2.56439622
v -2.24160612 4.13686656 -15.48730519
v -6.69421206 8.66215193 -4.55956681
v -8.98317874 9.71211778 -8.70783119
v -8.16954572 7.8735027 -11.87101569
v 5.87384673 10.88792529 -10.74884913
v -0.06201636 9.46263738 -2.17597618
v 5.22388445 1.95050971 -17.98419188
v 10.81462966 3.75659693 -13.92579453
v -6.96183735 6.6373356 -5.33136148
v 10.57916817 4.52335631 -14.61526514
v 4.33829861 8.86073767 -18.01677221
v 9.95909898 5.33394049 -16.5418928
v 7.98778967 1.18479194 -8.20727149
v -8.52181798 9.3949163 -6.72901827
v 8.21151881 1.4565268 -7.6489077
v 9.13006189 6.86260187 -16.92650705
vt 0.17731 0.48377
vt 0.20093 0.61943
vt 0.09482 0.60086
vt 0.12954 0.39663
vt 0.0494 0.48312
vt 0.09501 0.38486
vt 0.64796 0.94425
vt 0.62372 0.94569
vt 0.6669 0.92769
vt 0.48397 0.81901
vt 0.48267 0.83493
vt 0.45768 0.80923
vt 0.70222 0.81578
vt 0.62926 0.93407
vt 0.60936 0.86361
vt 0.32524 0.81939
vt 0.35682 0.81959
vt 0.34733 0.83868
vt 0.55852 0.78683
vt 0.49433 0.78407
vt 0.53803 0.77061
vt 0.0808 0.58512
vt 0.17026 0.4726
vt 0.70449 0.88814
vt 0.12834 0.45377
vt 0.13668 0.46856
vt 0.09405 0.49287
vt 0.14825 0.21113
vt 0.13327 0.20171
vt 0.15544 0.18837
vt 0.37696 0.82314
vt 0.41698 0.83083
vt 0.39186 0.83783
vt 0.26774 0.53455
vt 0.64268 0.98169
vt 0.58502 0.98035
vt 0.54513 0.94829
vt 0.52693 0.96296
vt 0.52567 0.93075
vt 0.05558 0.57056
vt 0.04241 0.57753
vt 0.04127 0.56455
vt 0.06983 0.51716
vt 0.06068 0.49674
vt 0.08987 0.4768
vt 0.12743 0.42813
vt 0.15667 0.43783
vt 0.19231 0.4161
vt 0.16444 0.45613
vt 0.1735 0.41145
vt 0.1585 0.42098
vt 0.15195 0.3989
vt 0.66642 0.97859
vt 0.74424 0.91385
vt 0.45143 0.8228
vt 0.33927 0.05605
vt 0.3364 0.06986
vt 0.30659 0.03435
vt 0.56608 0.83503
vt 0.52404 0.84677
vt 0.52884 0.83291
vt 0.07759 0.59685
vt 0.05264 0.54104
vt 0.04169 0.54524
vt 0.04448 0.526
vt 0.55324 0.96872
vt 0.56221 0.97578
vt 0.54108 0.97674
vt 0.33942 0.79098
vt 0.32314 0.80411
vt 0.30987 0.79724
vt 0.52987 0.98519
vt 0.54685 0.98566
vt 0.5351 0.99307
vt 0.41181 0.78559
vt 0.38124 0.78272
vt 0.40183 0.77856
vt 0.03791 0.47061
vt 0.56078 0.81473
vt 0.59228 0.82004
vt 0.52137 0.80086
vt 0.72396 0.97484
vt 0.61432 0.82721
vt 0.59309 0.83684
vt 0.03939 0.00621
vt 0.01417 0.03885
vt 0.01061 0.01977
vt 0.32946 0.56381
vt 0.25201 0.62008
vt 0.57047 0.94665
vt 0.55803 0.90084
vt 0.65867 0.92143
vt 0.69152 0.90228
vt 0.7273 0.90703
vt 0.70456 0.91028
vt 0.72312 0.89321
vt 0.36321 0.7974
vt 0.36765 0.8065
vt 0.33765 0.80605
vt 0.42275 0.80369
vt 0.39985 0.79316
vt 0.05917 0.55444
vt 0.04893 0.55664
vt 0.11258 0.51831
vt 0.10148 0.50426
vt 0.14376 0.47899
vt 0.57068 0.96102
vt 0.58875 0.96197
vt 0.44035 0.82956
vt 0.45785 0.84233
vt 0.43587 0.84272
vt 0.0233 0.56456
vt 0.13839 0.38293
vt 0.11079 0.38377
vt 0.1283 0.37329
vt 0.75651 0.88635
vt 0.74069 0.90068
vt 0.76549 0.90537
vt 0.77063 0.91876
vt 0.76135 0.93056
vt 0.4136 0.81483
vt 0.3886 0.79962
vt 0.12705 0.61938
vt 0.61652 0.84013
vt 0.60742 0.85757
vt 0.59311 0.85092
vt 0.25687 0.51981
vt 0.31611 0.83174
vt 0.51564 0.98839
vt 0.51169 0.97623
vt 0.52464 0.97826
vt 0.57779 0.99291
vt 0.46465 0.78836
vt 0.48443 0.8056
vt 0.43615 0.79675
vt 0.44557 0.77582
vt 0.42241 0.77421
vt 0.05998 0.58944
vt 0.61721 0.80424
vt 0.63501 0.80731
vt 0.62968 0.82113
vt 0.13418 0.41327
vt 0.14519 0.42012
vt 0.15035 0.45729
vt 0.14005 0.43659
vt 0.05544 0.51934
vt 0.04441 0.50883
vt 0.03251 0.49129
vt 0.58537 0.94954
vt 0.62397 0.79105
vt 0.54351 0.75342
vt 0.61008 0.7879
vt 0.58842 0.79034
vt 0.06943 0.17109
vt 0.09809 0.18622
vt 0.11393 0.21477
vt 0.54092 0.96258
vt 0.07248 0.56484
vt 0.0633 0.53325
vt 0.07123 0.54915
vt 0.53782 0.91182
vt 0.54914 0.93873
vt 0.34699 0.86246
vt 0.38492 0.84695
vt 0.06862 0.58142
vt 0.16891 0.19435
vt 0.34154 0.79845
vt 0.30497 0.02234
vt 0.43773 0.7865
vt 0.35346 0.08463
vt 0.60496 0.80922
vt 0.57665 0.80121
vt 0.57233 0.97788
vt 0.60456 0.94564
vt 0.56981 0.84934
vt 0.02222 0.50622
vt 0.03185 0.52875
vt 0.12391 0.21129
vt 0.13549 0.2243
vt 0.12205 0.22994
vt 0.0777 0.53613
vt 0.06492 0.48074
vt 0.11414 0.44392
vt 0.05118 0.60804
vt 0.03534 0.60644
vt 0.04482 0.58916
vt 0.02766 0.58821
vt 0.26229 0.01153
vt 0.53268 0.8198
vt 0.16403 0.47025
vt 0.02486 0.54758
vt 0.23208 0.62652
vt 0.07596 0.60895
vt 0.33183 0.84773
vt 0.3685 0.84388
vt 0.04575 0.42233
vt 0.36219 0.79143
vt 0.37857 0.79248
vt 0.56133 0.9865
vt 0.64662 0.99059
vt 0.16939 0.18293
vt 0.27039 0.16828
vt 0.19725 0.19284
vt 0.15541 0.23224
vt 0.55562 0.95716
vt 0.71495 0.87588
vt 0.73475 0.87516
vt 0.4836 0.77392
vt 0.00487 0.54727
vt 0.30946 0.81623
vt 0.30409 0.80537
vt 0.59074 0.86697
vt 0.21607 0.63146
vt 0.16966 0.62723
vt 0.41748 0.76674
vt 0.01938 0.003
vt 0.00097 0.04076
vt 0.01434 0.06132
vt 0.41642 0.8387
vt 0.30409 0.83486
vt 0.47548 0.84221
vt 0.35631 0.10868
vt 0.36188 0.08992
vt 0.14149 0.23915
vt 0.70871 0.31729
vt 0.73335 0.38135
vt 0.5849 0.41731
vt 0.54987 0.40076
vt 0.54758 0.3841
vt 0.39297 0.30632
vt 0.35385 0.32298
vt 0.38465 0.27664
vt 0.77642 0.41424
vt 0.81405 0.36129
vt 0.80217 0.4281
vt 0.35369 0.3816
vt 0.33932 0.38132
vt 0.36648 0.35012
vt 0.55087 0.35639
vt 0.66402 0.25859
vt 0.66236 0.29713
vt 0.27464 0.72314
vt 0.21832 0.70532
vt 0.22592 0.68399
vt 0.10459 0.63841
vt 0.12609 0.6952
vt 0.09864 0.70021
vt 0.21781 0.66725
vt 0.17395 0.69857
vt 0.17656 0.64688
vt 0.53993 0.40189
vt 0.52948 0.39556
vt 0.30282 0.72548
vt 0.33255 0.7023
vt 0.31558 0.75646
vt 0.09616 0.70819
vt 0.13053 0.72434
vt 0.07327 0.72753
vt 0.83579 0.29302
vt 0.83635 0.31007
vt 0.81963 0.2916
vt 0.75237 0.40249
vt 0.3448 0.76322
vt 0.36295 0.781
vt 0.3253 0.77224
vt 0.73868 0.23839
vt 0.7163 0.23397
vt 0.74069 0.22319
vt 0.65581 0.44425
vt 0.79149 0.43318
vt 0.68173 0.43698
vt 0.73365 0.42011
vt 0.06713 0.66977
vt 0.044 0.66743
vt 0.05503 0.65443
vt 0.05623 0.71858
vt 0.05334 0.70107
vt 0.07827 0.70603
vt 0.54487 0.43282
vt 0.5346 0.41699
vt 0.54831 0.41858
vt 0.30332 0.38007
vt 0.28003 0.39215
vt 0.29953 0.34209
vt 0.36595 0.33896
vt 0.32412 0.35998
vt 0.77331 0.24352
vt 0.78217 0.25694
vt 0.76283 0.25573
vt 0.69174 0.30428
vt 0.55695 0.37232
vt 0.28207 0.68594
vt 0.27915 0.35344
vt 0.21593 0.19824
vt 0.25879 0.19395
vt 0.31463 0.21198
vt 0.09415 0.64542
vt 0.08069 0.66665
vt 0.09209 0.62639
vt 0.17504 0.72359
vt 0.25384 0.77125
vt 0.16337 0.73417
vt 0.11974 0.70272
vt 0.11671 0.70994
vt 0.06733 0.65556
vt 0.33188 0.29972
vt 0.34328 0.26199
vt 0.35893 0.26953
vt 0.37889 0.74557
vt 0.39624 0.75751
vt 0.38117 0.75694
vt 0.38707 0.74577
vt 0.83971 0.33649
vt 0.85384 0.32848
vt 0.85695 0.35307
vt 0.7951 0.35868
vt 0.7636 0.31391
vt 0.79732 0.3325
vt 0.81414 0.3446
vt 0.00097 0.68621
vt 0.04228 0.6481
vt 0.84836 0.31219
vt 0.86431 0.31447
vt 0.78734 0.27937
vt 0.78856 0.29469
vt 0.76772 0.28117
vt 0.74819 0.26133
vt 0.77019 0.26933
vt 0.75231 0.2728
vt 0.07592 0.69612
vt 0.06259 0.68629
vt 0.29516 0.19657
vt 0.1414 0.63113
vt 0.15776 0.70793
vt 0.28902 0.74425
vt 0.28908 0.76443
vt 0.24523 0.74676
vt 0.19098 0.70872
vt 0.25972 0.73752
vt 0.25378 0.38987
vt 0.72024 0.2661
vt 0.6905 0.23987
vt 0.72636 0.24466
vt 0.82069 0.30788
vt 0.80166 0.29549
vt 0.80909 0.32082
vt 0.82739 0.32652
vt 0.13524 0.71756
vt 0.13654 0.68843
vt 0.55872 0.41428
vt 0.3691 0.76022
vt 0.3754 0.77213
vt 0.04214 0.68699
vt 0.02598 0.69786
vt 0.02759 0.6832
vt 0.73435 0.26463
vt 0.73123 0.25662
vt 0.74888 0.24666
vt 0.11871 0.63019
vt 0.10381 0.62234
vt 0.118 0.6398
vt 0.55745 0.43972
vt 0.56473 0.42571
vt 0.60121 0.43576
vt 0.40109 0.32627
vt 0.39938 0.3363
vt 0.38367 0.35799
vt 0.17437 0.71219
vt 0.80092 0.27881
vt 0.3501 0.23981
vt 0.3433 0.2345
vt 0.06917 0.63044
vt 0.04915 0.63243
vt 0.06743 0.61905
vt 0.84705 0.38921
vt 0.84 0.35525
vt 0.31472 0.3716
vt 0.31389 0.33568
vt 0.33007 0.37619
vt 0.32098 0.38375
vt 0.31787 0.7654
vt 0.30261 0.7734
vt 0.25516 0.76094
vt 0.79717 0.31343
vt 0.03384 0.71471
vt 0.83014 0.36603
vt 0.08832 0.69589
vt 0.07648 0.68245
vt 0.14779 0.74049
vt 0.28149 0.77242
vt 0.78539 0.26877
vt 0.846 0.29633
vt 0.41062 0.30359
vt 0.38927 0.25695
vt 0.30798 0.3337
vt 0.53967 0.36852
vt 0.5512 0.36796
vt 0.34081 0.21828
vt 0.35901 0.23574
vt 0.32091 0.24177
vt 0.34317 0.30801
vt 0.3885 0.768
vt 0.31371 0.69241
vt 0.19876 0.6925
vt 0.40485 0.7494
vt 0.51656 0.41982
vt 0.2714 0.7558
vt 0.61152 0.44706
vt 0.57361 0.43511
vt 0.63466 0.44709
vt 0.30887 0.32387
vt 0.85673 0.37439
vt 0.81222 0.27971
vt 0.75234 0.28445
vt 0.37472 0.25027
vt 0.09435 0.61208
vt 0.86914 0.34036
vt 0.75615 0.23315
vt 0.40578 0.766
vt 0.8152 0.44101
vt 0.76693 0.02256
vt 0.72858 0.05438
vt 0.75527 0.01319
vt 0.50413 0.52688
vt 0.45137 0.47363
vt 0.57273 0.47944
vt 0.84035 0.56985
vt 0.72125 0.58071
vt 0.70761 0.54408
vt 0.49311 0.45261
vt 0.42651 0.4849
vt 0.40879 0.36823
vt 0.08237 0.79078
vt 0.09525 0.80625
vt 0.08219 0.81964
vt 0.51295 0.30896
vt 0.30353 0.47145
vt 0.29584 0.44838
vt 0.31721 0.46077
vt 0.93308 0.56409
vt 0.9449 0.55169
vt 0.96431 0.55297
vt 0.80077 0.47665
vt 0.87449 0.5795
vt 0.77063 0.48192
vt 0.107 0.72904
vt 0.10355 0.74693
vt 0.08226 0.7426
vt 0.69641 0.48277
vt 0.14035 0.85406
vt 0.15624 0.85434
vt 0.14891 0.87325
vt 0.62468 0.4526
vt 0.13612 0.80256
vt 0.1138 0.80219
vt 0.12762 0.78428
vt 0.39984 0.48892
vt 0.36577 0.48705
vt 0.72556 0.00097
vt 0.70442 0.05104
vt 0.7568 0.59313
vt 0.86811 0.58448
vt 0.05513 0.87165
vt 0.03887 0.87073
vt 0.04746 0.85365
vt 0.73269 0.43987
vt 0.66464 0.49835
vt 0.64657 0.47667
vt 0.16571 0.7772
vt 0.22988 0.78227
vt 0.16661 0.79157
vt 0.26479 0.78223
vt 0.17352 0.872
vt 0.06822 0.8127
vt 0.05588 0.80457
vt 0.71692 0.06057
vt 0.70315 0.07455
vt 0.34633 0.39622
vt 0.349 0.48107
vt 0.3265 0.42696
vt 0.85069 0.49283
vt 0.8967 0.52492
vt 0.88952 0.56746
vt 0.04912 0.891
vt 0.68824 0.5539
vt 0.70032 0.57647
vt 0.66867 0.56096
vt 0.42872 0.50823
vt 0.39341 0.5039
vt 0.40477 0.49457
vt 0.42249 0.49892
vt 0.12104 0.8688
vt 0.08355 0.90089
vt 0.07198 0.83128
vt 0.09004 0.83702
vt 0.07978 0.85309
vt 0.67329 0.58474
vt 0.75145 0.60429
vt 0.11963 0.73652
vt 0.12525 0.75554
vt 0.1055 0.78656
vt 0.98882 0.54136
vt 0.38014 0.49945
vt 0.37968 0.48971
vt 0.11126 0.82465
vt 0.12702 0.81953
vt 0.12888 0.83438
vt 0.09628 0.85259
vt 0.90033 0.55715
vt 0.9147 0.53794
vt 0.91833 0.55217
vt 0.89589 0.48196
vt 0.94321 0.49658
vt 0.90143 0.50488
vt 0.95995 0.49705
vt 0.94461 0.51908
vt 0.92039 0.52671
vt 0.31155 0.43679
vt 0.17296 0.89974
vt 0.25339 0.9185
vt 0.71268 0.59213
vt 0.6878 0.06537
vt 0.68266 0.0448
vt 0.0316 0.84475
vt 0.73101 0.51711
vt 0.65454 0.51047
vt 0.64251 0.4913
vt 0.73584 0.45076
vt 0.81105 0.44817
vt 0.82063 0.47787
vt 0.88415 0.58791
vt 0.89916 0.57496
vt 0.86239 0.59212
vt 0.1487 0.8118
vt 0.16286 0.81767
vt 0.17066 0.80062
vt 0.21489 0.79065
vt 0.35169 0.49138
vt 0.36603 0.49563
vt 0.3188 0.47765
vt 0.33476 0.47826
vt 0.32884 0.48915
vt 0.8569 0.45938
vt 0.64546 0.54956
vt 0.61598 0.54
vt 0.64228 0.52401
vt 0.90718 0.56503
vt 0.06451 0.88814
vt 0.06951 0.90885
vt 0.05527 0.91109
vt 0.08469 0.88344
vt 0.85692 0.57824
vt 0.07892 0.7646
vt 0.06274 0.78311
vt 0.70566 0.0985
vt 0.68845 0.10546
vt 0.68902 0.08309
vt 0.07794 0.89145
vt 0.07293 0.87233
vt 0.06732 0.86114
vt 0.06189 0.84809
vt 0.66618 0.5455
vt 0.14237 0.76387
vt 0.11859 0.77197
vt 0.24064 0.77246
vt 0.05681 0.82972
vt 0.66866 0.53349
vt 0.63904 0.50451
vt 0.10478 0.76403
vt 0.14727 0.78184
vt 0.97697 0.52973
vt 0.9486 0.53115
vt 0.10813 0.85625
vt 0.12543 0.85506
vt 0.10652 0.8435
vt 0.77886 0.029
vt 0.81754 0.02161
vt 0.73241 0.06177
vt 0.4149 0.51179
vt 0.90892 0.52369
vt 0.28832 0.42392
vt 0.27779 0.43039
vt 0.34002 0.48809
vt 0.33213 0.4689
vt 0.29087 0.45479
vt 0.28782 0.47151
vt 0.67105 0.09532
vt 0.66861 0.07211
vt 0.37211 0.51516
vt 0.36051 0.50293
vt 0.09861 0.82126
vt 0.02339 0.88989
vt 0.67032 0.12098
vt 0.63464 0.56856
vt 0.42108 0.3417
vt 0.14367 0.83753
vt 0.16573 0.83177
vt 0.23565 0.79564
vt 0.03636 0.91818
vt 0.79233 0.01192
vt 0.34137 0.50065
vt 0.04079 0.83089
vt 0.68686 0.13755
vt 0.83595 0.43859
vt 0.89955 0.47159
vt 0.79331 0.24659
vt 0.68839 0.17945
vt 0.70877 0.16957
vt 0.91937 0.57634
vt 0.71838 0.08209
vt 0.69537 0.03438
vt 0.31479 0.42244
vt 0.34034 0.38839
vt 0.31367 0.48453
vt 0.86239 0.02862
vt 0.82785 0.00986
vt 0.69436 0.16675
vt 0.63774 0.48347
vt 0.51853 0.45712
vt 0.69209 0.72365
vt 0.6896 0.73699
vt 0.67629 0.71886
vt 0.63559 0.67921
vt 0.46768 0.6738
vt 0.6168 0.61845
vt 0.57374 0.57198
vt 0.40151 0.63935
vt 0.38406 0.62569
vt 0.85259 0.71717
vt 0.73082 0.76479
vt 0.79387 0.73591
vt 0.36351 0.63216
vt 0.38041 0.64188
vt 0.3687 0.6474
vt 0.9073 0.82164
vt 0.94752 0.85628
vt 0.91626 0.87021
vt 0.73762 0.86073
vt 0.73601 0.84852
vt 0.76647 0.85895
vt 0.87211 0.79516
vt 0.84229 0.86259
vt 0.96246 0.7154
vt 0.99114 0.76297
vt 0.85559 0.76593
vt 0.67138 0.58869
vt 0.85458 0.64718
vt 0.68879 0.62727
vt 0.84585 0.68123
vt 0.86339 0.70246
vt 0.7992 0.71503
vt 0.78473 0.79687
vt 0.81201 0.78316
vt 0.79482 0.81125
vt 0.61312 0.60651
vt 0.48055 0.64287
vt 0.53529 0.61208
vt 0.81464 0.85099
vt 0.84875 0.79027
vt 0.38373 0.19089
vt 0.34043 0.16947
vt 0.36845 0.12102
vt 0.70965 0.74782
vt 0.72437 0.74989
vt 0.71614 0.76276
vt 0.53173 0.71579
vt 0.59313 0.75029
vt 0.43492 0.69661
vt 0.70951 0.72904
vt 0.72545 0.73272
vt 0.75482 0.71904
vt 0.76672 0.70216
vt 0.96047 0.78822
vt 0.92899 0.79873
vt 0.91567 0.78839
vt 0.9768 0.82469
vt 0.56925 0.62737
vt 0.46791 0.66377
vt 0.39972 0.67987
vt 0.37812 0.68155
vt 0.38648 0.65949
vt 0.51749 0.0059
vt 0.55388 0.0302
vt 0.49595 0.01646
vt 0.64467 0.72352
vt 0.663 0.74928
vt 0.63384 0.76444
vt 0.77187 0.7873
vt 0.75861 0.77223
vt 0.80577 0.77225
vt 0.63167 0.64262
vt 0.81625 0.66872
vt 0.7061 0.69161
vt 0.69563 0.66636
vt 0.65517 0.71187
vt 0.69557 0.70642
vt 0.8135 0.80718
vt 0.82919 0.78867
vt 0.54261 0.56072
vt 0.9615 0.77919
vt 0.88162 0.78231
vt 0.81987 0.77217
vt 0.56438 0.02037
vt 0.64336 0.17755
vt 0.42935 0.68237
vt 0.42586 0.66913
vt 0.44706 0.67909
vt 0.45388 0.68893
vt 0.95822 0.87117
vt 0.93045 0.87756
vt 0.61373 0.76611
vt 0.64377 0.77644
vt 0.60916 0.78164
vt 0.52502 0.53892
vt 0.37744 0.6087
vt 0.37793 0.58965
vt 0.85508 0.88459
vt 0.80366 0.87887
vt 0.82972 0.86829
vt 0.42939 0.03807
vt 0.40749 0.07178
vt 0.4062 0.05437
vt 0.8623 0.68224
vt 0.86104 0.66177
vt 0.88165 0.66311
vt 0.81231 0.69013
vt 0.42768 0.65462
vt 0.44384 0.66588
vt 0.45379 0.65371
vt 0.74339 0.87177
vt 0.42839 0.24399
vt 0.41949 0.22895
vt 0.44576 0.22977
vt 0.67178 0.73551
vt 0.70209 0.772
vt 0.6987 0.7591
vt 0.41121 0.25546
vt 0.39145 0.25132
vt 0.40579 0.23734
vt 0.61411 0.71511
vt 0.7679 0.82347
vt 0.7903 0.85585
vt 0.77853 0.85662
vt 0.78428 0.86952
vt 0.49503 0.00097
vt 0.47039 0.01775
vt 0.62335 0.55956
vt 0.60277 0.55192
vt 0.59964 0.53969
vt 0.56001 0.60464
vt 0.39781 0.66112
vt 0.40907 0.66352
vt 0.85371 0.78103
vt 0.83987 0.76943
vt 0.82834 0.82263
vt 0.47166 0.68407
vt 0.83696 0.6708
vt 0.78192 0.69317
vt 0.88385 0.87391
vt 0.85285 0.87342
vt 0.38669 0.07601
vt 0.39373 0.09291
vt 0.68946 0.77569
vt 0.67927 0.762
vt 0.68534 0.74857
vt 0.80666 0.86067
vt 0.40176 0.64822
vt 0.39068 0.64816
vt 0.73731 0.73674
vt 0.77031 0.71851
vt 0.7822 0.7022
vt 0.36804 0.66073
vt 0.99471 0.82239
vt 0.99585 0.83602
vt 0.97177 0.83906
vt 0.9067 0.80451
vt 0.87731 0.72433
vt 0.74925 0.7805
vt 0.75771 0.83384
vt 0.70602 0.71939
vt 0.36652 0.62091
vt 0.88972 0.64696
vt 0.87617 0.63724
vt 0.66087 0.76299
vt 0.66946 0.7762
vt 0.88535 0.73302
vt 0.92422 0.71842
vt 0.39017 0.21525
vt 0.99509 0.77611
vt 0.40404 0.70735
vt 0.41412 0.65284
vt 0.55392 0.70392
vt 0.42276 0.71166
vt 0.41768 0.69083
vt 0.97169 0.85295
vt 0.47519 0.03287
vt 0.41469 0.67676
vt 0.77563 0.81427
vt 0.64551 0.69098
vt 0.65685 0.67256
vt 0.63069 0.70399
vt 0.80629 0.82808
vt 0.80256 0.85041
vt 0.71907 0.78001
vt 0.66857 0.79147
vt 0.38099 0.22748
vt 0.33528 0.18911
vt 0.85512 0.75
vt 0.39937 0.22292
vt 0.80225 0.78021
vt 0.34598 0.64234
vt 0.37419 0.09951
vt 0.90315 0.88528
vt 0.87814 0.89185
vt 0.58365 0.52654
vt 0.44071 0.01859
vt 0.4657 0.00148
vt 0.83323 0.75556
vt 0.66786 0.64796
vt 0.38241 0.11031
vt 0.37042 0.23508
vt 0.65621 0.69517
vt 0.64221 0.78804
vt 0.60947 0.61504
vt 0.44067 0.05948
vt 0.90171 0.67172
vt 0.90054 0.65236
vt 0.35738 0.11728
vt 0.60277 0.71982
vt 0.36209 0.21955
vt 0.72612 0.86811
vt 0.6049 0.73209
vt 0.55109 0.51656
vt 0.29874 0.04604
vt 0.25787 0.12821
vt 0.14851 0.15906
vt 0.11327 0.09541
vt 0.15889 0.08074
vt 0.12322 0.13712
vt 0.08973 0.13354
vt 0.05351 0.12743
vt 0.08991 0.11414
vt 0.03237 0.03983
vt 0.11174 0.13484
vt 0.06165 0.09099
vt 0.02838 0.07996
vt 0.12306 0.02706
vt 0.12979 0.1852
vt 0.14719 0.1703
vt 0.28493 0.15073
vt 0.15955 0.16985
vt 0.03025 0.12806
vt 0.00503 0.10235
vt 0.02355 0.10509
vt 0.31999 0.12932
vt 0.20679 0.1482
vt 0.01265 0.52251
vt 0.52062 0.75547
vt 0.48063 0.76343
vt 0.48843 0.74866
vt 0.09409 0.16757
vt 0.1391 0.16174
vt 0.07831 0.03274
vt 0.09855 0.04467
vt 0.10967 0.02254
vt 0.05275 0.00097
vt 0.14587 0.01642
vt 0.18685 0.0096
vt 0.12847 0.00809
vt 0.13511 0.15251
vt 0.13588 0.14145
vt 0.20789 0.01082
vt 0.08036 0.1629
vt 0.06634 0.14533
vt 0.04622 0.13664
vt 0.2226 0.00097
vt 0.55519 0.99856
vt 0.04094 0.11175
vt 0.02666 0.0909
vt 0.08271 0.10174
vt 0.33304 0.11235
vt 0.2947 0.11599
vt 0.3322 0.09058
vt 0.34414 0.12456
vt 0.34619 0.09853
vt 0.10313 0.14773
vt 0.0959 0.1057
vt 0.10612 0.03714
vt 0.05082 0.03258
vt 0.32083 0.13693
vt 0.04892 0.15575
vt 0.02036 0.47004
vt 0.03658 0.44235
vt 0.00842 0.08499
vt 0.45524 0.76356
vt 0.33296 0.14359
vt 0.16106 0.16113
vt 0.52856 0.74366
vt 0.36763 0.71702
vt 0.33937 0.6902
vt 0.19747 0.26315
vt 0.24409 0.30649
vt 0.24191 0.33229
vt 0.26027 0.23355
vt 0.26903 0.24947
vt 0.13469 0.36504
vt 0.16687 0.33342
vt 0.19191 0.36083
vt 0.08067 0.33531
vt 0.09362 0.32109
vt 0.09709 0.34678
vt 0.20916 0.33795
vt 0.24995 0.3599
vt 0.06238 0.34386
vt 0.07596 0.35643
vt 0.0461 0.35805
vt 0.5592 0.32263
vt 0.08549 0.30822
vt 0.06552 0.27214
vt 0.10065 0.30781
vt 0.20549 0.25842
vt 0.20044 0.20264
vt 0.24098 0.29234
vt 0.25856 0.27528
vt 0.28041 0.30053
vt 0.27988 0.33255
vt 0.11153 0.26849
vt 0.14807 0.28625
vt 0.18602 0.22404
vt 0.18127 0.30683
vt 0.11182 0.32015
vt 0.128 0.32187
vt 0.04645 0.30879
vt 0.02826 0.30854
vt 0.04071 0.29377
vt 0.02826 0.33581
vt 0.04723 0.3362
vt 0.22292 0.22806
vt 0.24513 0.24398
vt 0.27364 0.28056
vt 0.29505 0.26721
vt 0.33268 0.26481
vt 0.30033 0.31075
vt 0.29359 0.2857
vt 0.29015 0.32859
vt 0.25605 0.33849
vt 0.28832 0.33754
vt 0.04631 0.32177
vt 0.06618 0.32154
vt 0.23278 0.67379
vt 0.27228 0.67361
vt 0.12147 0.27598
vt 0.15785 0.23915
vt 0.20583 0.32712
vt 0.17147 0.32474
vt 0.21559 0.37025
vt 0.20355 0.38258
vt 0.06638 0.30893
vt 0.18804 0.32401
vt 0.57687 0.30772
vt 0.04339 0.28339
vt 0.12108 0.36879
vt 0.09631 0.36454
vt 0.25507 0.66147
vt 0.23516 0.25167
vt 0.38458 0.73259
vt 0.39492 0.73476
vt 0.0595 0.36827
vt 0.28631 0.66966
vt 0.106 0.26199
vt 0.64686 0.2611
vt 0.87358 0.09308
vt 0.94299 0.16683
vt 0.73664 0.13797
vt 0.97801 0.1044
vt 0.97004 0.13205
vt 0.94042 0.1105
vt 0.80361 0.21883
vt 0.77186 0.18922
vt 0.92608 0.21391
vt 0.75337 0.17399
vt 0.73657 0.18121
vt 0.83045 0.2597
vt 0.32385 0.50231
vt 0.335 0.51901
vt 0.39443 0.51389
vt 0.39497 0.5324
vt 0.73231 0.15237
vt 0.71984 0.13591
vt 0.82147 0.08001
vt 0.73839 0.10177
vt 0.87488 0.04115
vt 0.93101 0.26162
vt 0.81703 0.23697
vt 0.94599 0.22693
vt 0.85845 0.29482
vt 0.84427 0.27582
vt 0.88248 0.28989
vt 0.98815 0.13474
vt 0.97557 0.16099
vt 0.95311 0.26318
vt 0.96036 0.23536
vt 0.96985 0.25269
vt 0.72844 0.09109
vt 0.82696 0.0365
vt 0.95521 0.18107
vt 0.9572 0.21145
vt 0.71932 0.15663
vt 0.97672 0.21803
vt 0.34691 0.51211
vt 0.93113 0.07253
vt 0.91754 0.26948
vt 0.84433 0.26114
vt 0.936 0.58292
vt 0.90801 0.59107
vt 0.70609 0.14915
vt 0.70433 0.12403
vt 0.90692 0.09691
vt 0.88944 0.07866
vt 0.93439 0.09423
vt 0.84024 0.60239
vt 0.79006 0.60046
vt 0.80269 0.60735
vt 0.76796 0.61234
vt 0.29405 0.48954
vt 0.26803 0.47596
vt 0.31399 0.49418
vt 0.8701 0.27205
vt 0.36077 0.5273
vt 0.71601 0.11436
vt 0.95078 0.56873
vt 0.98413 0.24839
vt 0.99438 0.21959
vt 0.74038 0.1162
vt 0.72182 0.1704
vt 0.73852 0.16125
vt 0.96226 0.57971
vt 0.96417 0.15017
vt 0.96685 0.187
vt 0.91681 0.28868
vt 0.89635 0.27521
vt 0.31286 0.51744
vt 0.83512 0.28606
vt 0.44288 0.52434
vt 0.87913 0.60229
vt 0.98367 0.19484
vt 0.94198 0.28144
vt 0.94373 0.24834
vt 0.29891 0.50371
vt 0.85488 0.03818
vt 0.94772 0.14573
vt 0.9524 0.12991
vt 0.97787 0.5592
vt 0.82923 0.61234
vt 0.98988 0.16711
vt 0.41859 0.52448
vt 0.46333 0.12041
vt 0.54521 0.22644
vt 0.46162 0.22201
vt 0.44504 0.19353
vt 0.43249 0.10359
vt 0.6073 0.26428
vt 0.59283 0.24118
vt 0.58612 0.11443
vt 0.63717 0.19336
vt 0.52702 0.1407
vt 0.44804 0.07329
vt 0.65028 0.25279
vt 0.62112 0.25868
vt 0.60893 0.24514
vt 0.48449 0.03917
vt 0.54361 0.04642
vt 0.4865 0.06997
vt 0.88469 0.69445
vt 0.87827 0.6809
vt 0.64111 0.22569
vt 0.50764 0.13265
vt 0.46162 0.07919
vt 0.64988 0.20889
vt 0.66247 0.23007
vt 0.60005 0.22493
vt 0.45374 0.22425
vt 0.43099 0.08359
vt 0.55029 0.06839
vt 0.88365 0.71021
vt 0.6551 0.18601
vt 0.44556 0.10829
vt 0.33235 0.65527
vt 0.35309 0.66556
vt 0.63153 0.21058
vt 0.90276 0.68956
vt 0.44571 0.08212
vt 0.66536 0.21004
g Group32729
f 45/1 134/2 44/3
f 148/4 1/5 73/6
f 228/7 85/8 31/9
f 89/10 92/11 49/12
f 205/13 6/14 225/15
f 46/16 185/17 97/18
f 201/19 24/20 184/21
f 44/3 114/22 205/23
f 157/24 6/14 205/13
f 16/25 218/26 177/27
f 107/28 216/29 28/30
f 133/31 170/32 219/33
f 134/2 45/1 30/34
f 85/8 232/35 47/36
f 227/37 63/38 60/39
f 117/40 8/41 91/42
f 33/43 130/44 100/45
f 148/4 77/46 1/5
f 154/47 78/48 90/49
f 116/50 215/51 112/52
f 2/53 31/9 42/54
f 83/55 49/12 92/11
f 64/56 66/57 81/58
f 149/59 37/60 111/61
f 95/62 114/22 44/3
f 172/63 198/64 54/65
f 202/66 103/67 21/68
f 64/69 123/70 22/71
f 213/72 165/73 120/74
f 72/75 99/76 135/77
f 38/78 73/6 1/5
f 149/59 27/79 29/80
f 169/81 24/20 201/19
f 2/53 42/54 105/82
f 159/83 70/84 29/80
f 56/85 39/86 158/87
f 30/34 4/88 11/89
f 225/15 34/90 132/91
f 31/9 189/92 80/93
f 217/94 82/95 17/96
f 207/97 18/98 151/99
f 113/100 233/101 72/75
f 172/63 61/102 142/103
f 13/104 86/105 141/106
f 225/15 6/14 34/90
f 103/67 139/107 55/108
f 30/34 11/89 134/2
f 224/109 222/110 11/111
f 91/42 8/41 162/112
f 9/113 237/114 41/115
f 17/96 112/116 181/117
f 9/118 41/119 42/54
f 105/82 42/54 143/120
f 43/121 18/98 220/122
f 170/32 133/31 43/121
f 44/3 134/2 171/123
f 192/124 44/125 19/126
f 205/23 45/1 44/3
f 205/23 225/127 45/1
f 179/128 46/16 97/18
f 191/129 125/130 136/131
f 47/36 232/35 145/132
f 118/133 197/134 161/135
f 65/136 72/75 230/137
f 52/138 8/41 117/40
f 122/139 79/140 94/141
f 102/142 53/143 77/46
f 3/144 16/25 156/145
f 130/44 108/146 188/147
f 38/78 1/5 71/148
f 139/107 210/149 55/108
f 31/9 85/8 189/92
f 122/139 56/150 79/140
f 186/151 137/152 67/153
f 98/154 10/155 73/156
f 229/157 63/38 227/37
f 210/149 139/107 34/90
f 59/158 13/104 205/23
f 61/102 164/159 75/160
f 4/161 115/162 60/39
f 11/111 4/163 110/164
f 61/102 75/160 59/158
f 52/138 117/40 176/165
f 168/166 107/28 28/30
f 21/68 63/38 229/157
f 136/131 125/130 63/38
f 64/69 208/167 123/70
f 99/168 64/56 81/58
f 118/133 155/169 65/136
f 64/56 22/170 66/57
f 204/171 67/153 137/152
f 27/79 199/172 29/80
f 103/67 55/108 193/173
f 6/14 85/8 69/174
f 6/14 210/149 34/90
f 192/124 19/126 70/84
f 149/59 171/175 37/60
f 1/5 188/147 71/148
f 174/176 188/147 23/177
f 155/169 72/75 65/136
f 161/135 113/100 72/75
f 57/178 73/156 10/155
f 200/179 237/180 57/178
f 59/158 221/181 13/104
f 86/105 13/104 221/181
f 152/182 190/183 100/45
f 190/183 156/145 16/25
f 154/47 116/50 78/48
f 82/95 80/93 17/96
f 94/184 79/185 235/186
f 158/187 162/112 8/41
f 80/93 189/92 157/24
f 80/93 157/24 17/96
f 99/168 81/58 40/188
f 42/54 31/9 82/95
f 82/95 31/9 80/93
f 49/12 83/55 113/100
f 43/121 224/109 170/32
f 47/36 55/108 85/8
f 85/8 55/108 69/174
f 221/181 33/43 86/105
f 100/45 177/27 33/43
f 197/134 118/133 169/81
f 149/59 111/61 180/189
f 3/144 154/47 90/49
f 13/104 141/106 121/190
f 91/42 162/112 127/191
f 54/65 198/64 23/177
f 111/61 37/60 92/11
f 134/2 11/89 222/192
f 94/184 235/186 52/138
f 70/84 159/83 192/124
f 52/138 176/165 95/62
f 192/193 94/184 52/138
f 60/194 179/128 97/18
f 4/163 60/194 160/195
f 38/78 98/196 73/6
f 32/197 64/69 99/76
f 99/76 72/75 101/198
f 177/27 100/45 16/25
f 190/183 16/25 100/45
f 101/198 32/197 99/76
f 207/97 220/122 18/98
f 9/113 148/4 237/114
f 9/118 181/117 112/116
f 68/199 103/67 193/173
f 21/68 103/67 165/73
f 104/200 145/132 232/35
f 104/200 2/53 105/82
f 62/201 104/202 105/203
f 105/203 143/204 168/166
f 57/178 107/28 200/179
f 168/166 143/204 107/28
f 130/44 33/43 108/146
f 164/159 33/43 221/181
f 160/195 60/194 97/18
f 133/31 160/195 97/18
f 111/61 92/11 89/10
f 180/189 111/61 89/10
f 102/142 112/52 53/143
f 112/52 148/4 9/113
f 113/100 83/55 43/121
f 220/122 113/100 43/121
f 59/158 205/23 114/22
f 117/40 59/158 176/165
f 132/91 34/90 115/162
f 34/90 58/205 227/37
f 78/206 116/207 17/96
f 17/96 116/207 112/116
f 59/158 117/40 61/102
f 61/102 117/40 142/103
f 118/133 65/136 194/208
f 169/81 118/133 24/20
f 119/209 127/191 162/112
f 213/72 120/74 191/129
f 121/190 3/144 90/49
f 90/49 78/48 205/23
f 29/80 199/172 204/171
f 29/80 204/171 159/83
f 151/99 123/70 208/167
f 123/70 125/210 191/211
f 179/128 125/210 46/16
f 123/70 46/16 125/210
f 127/191 23/177 198/64
f 130/44 152/182 100/45
f 1/5 130/44 188/147
f 132/91 115/162 4/161
f 30/212 132/91 4/161
f 185/17 133/31 97/18
f 18/98 43/121 133/31
f 134/2 183/213 37/214
f 134/2 37/214 171/123
f 99/76 40/215 135/77
f 21/68 136/131 63/38
f 213/72 21/68 165/73
f 56/150 122/139 137/152
f 202/66 139/107 103/67
f 34/90 139/107 58/205
f 141/106 3/144 121/190
f 86/105 218/26 141/106
f 142/103 117/40 91/42
f 198/64 91/42 127/191
f 42/54 41/119 143/120
f 107/28 143/204 200/179
f 148/4 112/52 102/142
f 102/142 77/46 148/4
f 149/59 29/80 70/84
f 70/84 171/175 149/59
f 151/99 46/16 123/70
f 151/99 185/17 46/16
f 77/46 152/182 1/5
f 1/5 152/182 130/44
f 215/51 116/50 154/47
f 156/145 77/46 53/143
f 49/12 161/135 197/134
f 161/135 49/12 113/100
f 154/47 156/145 215/51
f 3/144 156/145 154/47
f 17/96 157/24 78/206
f 205/13 78/206 157/24
f 235/186 79/185 158/187
f 79/216 56/85 158/87
f 159/83 94/141 192/124
f 159/83 204/171 94/141
f 4/163 160/195 110/164
f 133/31 219/33 160/195
f 155/169 118/133 161/135
f 161/135 72/75 155/169
f 158/87 39/86 162/217
f 39/86 119/218 162/217
f 108/146 33/43 164/159
f 108/146 172/63 54/65
f 68/199 165/73 103/67
f 62/201 105/203 168/166
f 62/201 168/166 28/30
f 27/79 169/81 199/172
f 180/189 197/134 169/81
f 219/33 170/32 234/219
f 224/109 11/111 170/32
f 70/84 19/126 171/175
f 19/126 44/125 171/175
f 172/63 164/159 61/102
f 108/146 164/159 172/63
f 174/176 71/148 188/147
f 176/165 59/158 114/22
f 95/62 176/165 114/22
f 218/26 86/105 177/27
f 33/43 177/27 86/105
f 63/220 179/128 60/194
f 63/220 125/210 179/128
f 180/189 169/81 27/79
f 27/79 149/59 180/189
f 181/117 9/118 42/54
f 42/54 82/95 217/94
f 92/11 37/60 183/221
f 83/55 92/11 183/221
f 67/153 184/21 186/151
f 151/99 18/98 185/17
f 18/98 133/31 185/17
f 188/147 108/146 54/65
f 188/147 54/65 23/177
f 157/24 189/92 6/14
f 189/92 85/8 6/14
f 77/46 190/183 152/182
f 77/46 156/145 190/183
f 120/222 22/170 191/223
f 191/211 22/71 123/70
f 95/62 192/193 52/138
f 192/193 95/62 44/3
f 193/173 55/108 47/36
f 193/173 47/36 145/132
f 24/20 118/133 194/208
f 194/208 184/21 24/20
f 89/10 49/12 197/134
f 89/10 197/134 180/189
f 198/64 172/63 142/103
f 142/103 91/42 198/64
f 204/171 199/172 67/153
f 201/19 199/172 169/81
f 41/224 237/180 200/179
f 41/224 200/179 143/204
f 201/19 67/153 199/172
f 184/21 67/153 201/19
f 58/205 139/107 202/66
f 202/66 21/68 229/157
f 204/171 137/152 122/139
f 204/171 122/139 94/141
f 121/190 90/49 205/23
f 13/104 121/190 205/23
f 151/99 208/167 207/97
f 207/97 32/197 101/198
f 32/197 208/167 64/69
f 32/197 207/97 208/167
f 210/149 69/174 55/108
f 69/174 210/149 6/14
f 136/131 21/68 213/72
f 191/129 136/131 213/72
f 215/51 53/143 112/52
f 215/51 156/145 53/143
f 107/28 57/178 216/29
f 216/29 57/178 10/155
f 217/94 17/96 181/117
f 217/94 181/117 42/54
f 218/26 16/25 3/144
f 218/26 3/144 141/106
f 234/219 110/164 219/33
f 110/164 160/195 219/33
f 101/198 220/122 207/97
f 233/101 101/198 72/75
f 75/160 221/181 59/158
f 75/160 164/159 221/181
f 183/213 134/2 222/192
f 83/55 183/221 222/110
f 224/109 83/55 222/110
f 224/109 43/121 83/55
f 225/15 132/91 30/212
f 45/1 225/127 30/34
f 115/162 34/90 227/37
f 115/162 227/37 60/39
f 31/9 2/53 228/7
f 232/35 85/8 228/7
f 227/37 58/205 229/157
f 202/66 229/157 58/205
f 135/77 230/137 72/75
f 232/35 228/7 2/53
f 232/35 2/53 104/200
f 220/122 101/198 233/101
f 233/101 113/100 220/122
f 234/219 11/111 110/164
f 170/32 11/111 234/219
f 235/186 8/41 52/138
f 235/186 158/187 8/41
f 237/180 73/156 57/178
f 237/114 148/4 73/6
f 382/225 266/226 328/227
f 382/225 395/228 246/229
f 350/230 343/231 386/232
f 336/233 377/234 451/235
f 322/236 459/237 441/238
f 366/239 344/240 288/241
f 252/242 262/243 354/244
f 239/245 278/246 321/247
f 245/248 419/249 270/250
f 246/229 238/251 306/252
f 391/253 347/254 361/255
f 362/256 287/257 299/258
f 437/259 458/260 293/261
f 266/226 249/262 328/227
f 264/263 431/264 271/265
f 256/266 273/267 376/268
f 249/262 418/269 328/227
f 315/270 367/271 379/272
f 384/273 267/274 298/275
f 421/276 284/277 269/278
f 413/279 423/280 360/281
f 376/282 273/283 327/284
f 291/285 300/286 343/231
f 459/287 322/288 420/289
f 288/241 268/290 446/291
f 252/242 354/244 286/292
f 327/284 273/283 283/293
f 245/294 270/295 263/296
f 412/297 242/298 396/299
f 337/300 367/301 400/302
f 321/247 415/303 380/304
f 406/305 396/299 242/298
f 410/306 435/307 385/308
f 347/254 254/309 264/263
f 272/310 434/311 439/312
f 265/313 398/314 310/315
f 342/316 377/234 336/233
f 266/226 407/317 304/318
f 304/318 248/319 342/316
f 253/320 401/321 267/274
f 398/314 332/322 253/323
f 241/324 383/325 334/326
f 313/327 404/328 432/329
f 412/297 321/247 242/298
f 357/330 284/277 370/331
f 270/295 289/332 263/296
f 289/333 270/250 297/334
f 358/335 361/255 303/336
f 436/337 417/338 397/339
f 311/340 283/293 273/283
f 392/341 311/342 356/343
f 293/261 340/344 274/345
f 388/346 429/347 248/319
f 297/334 244/348 415/303
f 297/334 326/349 289/333
f 395/228 382/225 290/350
f 423/280 238/251 360/281
f 254/309 282/351 264/263
f 264/263 346/352 431/264
f 370/331 284/277 335/353
f 308/354 253/320 445/355
f 362/256 244/348 287/257
f 400/302 244/348 337/300
f 325/356 313/327 432/329
f 428/357 356/343 402/358
f 320/359 239/245 368/360
f 239/245 449/361 278/246
f 346/362 360/281 279/363
f 279/363 328/227 363/364
f 291/285 343/231 324/365
f 441/238 437/366 378/367
f 436/337 292/368 417/338
f 419/249 297/334 270/250
f 322/236 441/238 378/367
f 430/369 274/345 241/324
f 453/370 435/307 339/371
f 453/370 385/308 435/307
f 403/372 396/299 406/305
f 297/334 417/338 292/368
f 297/334 337/300 244/348
f 296/373 261/374 298/275
f 401/321 298/275 267/274
f 377/234 299/375 451/235
f 248/319 429/347 373/376
f 300/286 243/377 309/378
f 338/379 456/380 243/377
f 300/286 309/378 343/231
f 443/381 364/382 303/336
f 292/368 436/337 318/383
f 274/345 340/344 388/346
f 334/326 383/325 416/384
f 238/251 423/280 306/252
f 310/385 308/354 284/277
f 284/277 308/354 335/353
f 299/258 421/276 269/278
f 455/386 373/376 299/375
f 242/298 442/387 312/388
f 406/305 242/298 384/273
f 313/327 428/357 402/358
f 420/289 402/358 459/287
f 315/389 287/257 244/348
f 315/270 379/272 451/235
f 303/336 418/390 318/383
f 367/271 418/269 249/262
f 320/359 368/360 289/333
f 326/349 449/361 289/333
f 362/256 321/247 380/304
f 269/278 284/277 357/330
f 322/288 404/328 420/289
f 430/369 454/391 322/288
f 332/322 324/392 253/323
f 253/393 350/230 401/394
f 344/240 392/341 288/241
f 268/290 288/241 392/341
f 449/361 326/349 278/246
f 326/349 297/334 278/246
f 327/284 450/395 243/377
f 290/350 328/227 279/363
f 382/225 328/227 290/350
f 246/229 306/252 331/396
f 288/241 446/291 409/397
f 458/260 398/314 265/313
f 458/260 340/344 293/261
f 432/329 268/290 325/356
f 268/290 382/225 246/229
f 335/353 267/274 370/331
f 445/355 253/320 267/274
f 336/233 249/262 342/316
f 451/235 379/272 336/233
f 297/334 292/368 337/300
f 292/368 318/383 337/300
f 338/379 243/377 300/286
f 338/379 300/286 291/285
f 339/371 390/398 261/399
f 429/347 340/344 458/260
f 340/344 429/347 388/346
f 341/400 390/398 339/371
f 304/318 342/316 266/226
f 249/262 266/226 342/316
f 343/231 309/378 301/401
f 386/232 343/231 301/401
f 392/341 344/240 311/342
f 282/351 346/352 264/263
f 413/402 434/311 272/310
f 391/253 286/292 405/403
f 262/243 348/404 354/244
f 417/338 297/334 419/249
f 324/365 350/230 253/393
f 324/365 343/231 350/230
f 353/405 272/310 439/312
f 423/280 353/406 306/252
f 245/248 354/244 348/404
f 311/342 273/267 356/343
f 256/266 356/343 273/267
f 442/387 321/247 362/256
f 321/247 442/387 242/298
f 361/255 358/335 391/253
f 262/243 252/242 397/339
f 359/407 303/336 318/383
f 303/336 359/407 358/335
f 360/281 290/350 279/363
f 360/281 395/228 290/350
f 264/263 361/255 347/254
f 443/381 264/263 271/265
f 269/278 442/387 362/256
f 269/278 362/256 299/258
f 271/408 431/409 363/364
f 443/381 271/265 364/382
f 271/408 363/364 364/410
f 363/364 328/227 418/269
f 409/397 246/229 331/396
f 318/383 418/390 367/301
f 337/300 318/383 367/301
f 263/296 289/332 390/398
f 263/296 390/398 341/400
f 357/330 370/331 312/388
f 384/273 370/331 267/274
f 410/306 309/378 371/411
f 373/376 421/412 299/375
f 265/313 310/315 373/376
f 456/380 376/282 243/377
f 376/282 327/284 243/377
f 248/319 377/234 342/316
f 248/319 373/376 455/386
f 437/259 293/261 378/413
f 430/369 293/261 274/345
f 379/272 249/262 336/233
f 249/262 379/272 367/271
f 380/304 244/348 362/256
f 415/303 244/348 380/304
f 382/225 268/290 438/414
f 382/225 407/317 266/226
f 241/324 274/345 383/325
f 383/325 274/345 416/384
f 312/388 384/273 242/298
f 312/388 370/331 384/273
f 386/232 410/306 385/308
f 296/415 385/308 453/370
f 401/394 350/230 386/232
f 386/232 385/308 296/415
f 304/318 388/346 248/319
f 304/318 334/326 416/384
f 390/416 289/333 368/360
f 368/360 412/297 396/299
f 391/253 252/242 286/292
f 358/335 252/242 391/253
f 392/341 356/343 428/357
f 268/290 392/341 325/356
f 238/251 395/228 360/281
f 395/228 238/251 246/229
f 390/416 368/360 396/299
f 390/416 396/299 403/372
f 397/339 252/242 358/335
f 397/339 358/335 359/407
f 310/315 398/314 308/417
f 398/314 253/323 308/417
f 244/348 400/302 315/389
f 400/302 367/301 315/389
f 401/321 296/373 298/275
f 386/232 296/415 401/394
f 402/358 356/343 256/266
f 459/287 402/358 456/418
f 261/374 403/372 298/275
f 390/416 403/372 261/374
f 454/391 404/328 322/288
f 241/324 334/326 404/328
f 347/254 391/253 405/403
f 406/305 298/275 403/372
f 384/273 298/275 406/305
f 407/317 334/326 304/318
f 382/225 438/414 407/317
f 331/396 366/239 409/397
f 288/241 409/397 366/239
f 386/232 301/401 410/306
f 301/401 309/378 410/306
f 368/360 239/245 412/297
f 412/297 239/245 321/247
f 434/311 413/402 346/352
f 346/362 413/279 360/281
f 278/246 297/334 415/303
f 278/246 415/303 321/247
f 416/384 388/346 304/318
f 274/345 388/346 416/384
f 419/249 262/243 417/338
f 417/338 262/243 397/339
f 303/336 364/382 418/390
f 363/364 418/269 364/410
f 348/404 419/249 245/248
f 419/249 348/404 262/243
f 313/327 402/358 420/289
f 404/328 313/327 420/289
f 373/376 310/315 421/412
f 310/385 284/277 421/276
f 272/310 353/405 423/419
f 423/419 413/402 272/310
f 392/341 428/357 325/356
f 325/356 428/357 313/327
f 429/347 265/313 373/376
f 458/260 265/313 429/347
f 322/288 378/413 430/369
f 430/369 378/413 293/261
f 431/409 346/362 279/363
f 431/409 279/363 363/364
f 432/329 438/414 268/290
f 432/329 404/328 334/326
f 434/311 282/351 254/309
f 434/311 346/352 282/351
f 359/407 436/337 397/339
f 359/407 318/383 436/337
f 437/366 291/285 324/365
f 324/392 332/322 437/259
f 432/329 334/326 438/414
f 438/414 334/326 407/317
f 254/309 439/312 434/311
f 437/366 441/238 291/285
f 441/238 338/379 291/285
f 312/388 442/387 357/330
f 269/278 357/330 442/387
f 264/263 443/381 361/255
f 443/381 303/336 361/255
f 335/353 308/354 445/355
f 445/355 267/274 335/353
f 446/291 246/229 409/397
f 246/229 446/291 268/290
f 320/359 289/333 449/361
f 320/359 449/361 239/245
f 371/411 309/378 450/395
f 309/378 243/377 450/395
f 451/235 299/375 287/420
f 451/235 287/420 315/270
f 261/399 296/415 453/370
f 261/399 453/370 339/371
f 454/391 241/324 404/328
f 454/391 430/369 241/324
f 455/386 377/234 248/319
f 377/234 455/386 299/375
f 456/418 256/266 376/268
f 402/358 256/266 456/418
f 458/260 332/322 398/314
f 458/260 437/259 332/322
f 456/380 338/379 459/237
f 459/237 338/379 441/238
f 687/421 473/422 558/423
f 623/424 690/425 668/426
f 515/427 651/428 563/429
f 576/430 546/431 590/432
f 537/433 561/434 659/435
f 552/436 576/430 590/432
f 647/437 661/438 624/439
f 467/440 531/441 489/442
f 614/443 501/444 653/445
f 654/446 488/447 460/448
f 515/427 605/449 653/445
f 484/450 610/451 494/452
f 668/426 690/425 470/453
f 658/454 597/455 664/456
f 590/432 628/457 667/458
f 556/459 473/422 497/460
f 496/461 651/428 585/462
f 465/463 475/464 523/465
f 550/466 482/467 671/468
f 545/469 578/470 530/471
f 610/451 576/472 552/473
f 537/433 479/474 518/475
f 674/476 636/477 497/460
f 500/478 506/479 644/480
f 581/481 588/482 639/483
f 465/463 601/484 475/464
f 626/485 485/486 508/487
f 546/431 690/425 539/488
f 490/489 461/490 683/491
f 533/492 494/452 671/493
f 625/494 555/495 519/496
f 485/486 463/497 508/487
f 633/498 651/428 496/461
f 592/499 602/500 488/447
f 528/501 664/456 597/455
f 489/442 531/441 513/502
f 662/503 472/504 628/457
f 491/505 641/506 569/507
f 519/496 555/495 677/508
f 510/509 642/510 564/511
f 670/512 645/513 540/514
f 480/515 493/516 492/517
f 624/439 661/438 480/518
f 494/452 550/519 671/493
f 552/473 560/520 550/519
f 651/428 633/498 650/521
f 497/460 660/522 584/523
f 608/524 523/465 475/464
f 603/525 515/427 526/526
f 526/526 511/527 482/467
f 540/514 581/481 670/512
f 469/528 560/529 614/443
f 464/530 639/483 501/444
f 607/531 501/444 593/532
f 585/462 542/533 496/461
f 569/507 478/534 503/535
f 620/536 676/537 503/535
f 504/538 667/458 554/539
f 648/540 544/541 570/542
f 636/477 660/522 497/460
f 667/458 506/479 590/432
f 506/479 667/458 504/538
f 670/512 581/481 507/543
f 590/432 506/479 500/478
f 649/544 556/545 565/546
f 556/459 558/423 473/422
f 635/547 510/509 564/511
f 501/444 639/483 635/547
f 594/548 511/549 499/550
f 677/508 543/551 519/496
f 653/445 501/444 515/427
f 589/552 651/428 515/427
f 579/553 537/433 622/554
f 587/555 557/556 549/557
f 669/558 594/548 580/559
f 680/560 465/463 596/561
f 666/562 649/544 565/546
f 515/427 563/429 526/526
f 470/563 664/456 681/564
f 462/565 545/469 470/563
f 479/474 574/566 518/475
f 625/494 519/496 596/561
f 526/526 520/567 565/546
f 526/526 499/568 511/527
f 681/564 617/569 602/500
f 617/569 537/433 579/553
f 522/570 530/471 658/454
f 478/534 620/536 503/535
f 531/441 541/571 513/502
f 591/572 642/510 493/516
f 623/424 539/488 690/425
f 543/551 535/573 533/492
f 533/492 484/450 494/452
f 533/492 535/573 688/574
f 491/505 569/507 682/575
f 528/501 561/434 537/433
f 617/569 528/501 537/433
f 568/576 538/577 600/578
f 650/521 463/497 485/486
f 490/489 683/491 532/579
f 540/514 645/513 492/517
f 510/509 588/482 684/580
f 661/438 493/581 480/518
f 661/438 591/582 493/581
f 607/531 542/533 585/462
f 543/551 533/492 671/493
f 669/558 511/549 594/548
f 544/541 506/479 652/583
f 506/479 586/584 480/518
f 545/469 530/471 522/570
f 545/469 522/570 470/563
f 546/431 683/491 461/490
f 546/431 628/457 590/432
f 554/539 472/504 662/503
f 541/585 647/437 513/586
f 557/556 622/587 549/557
f 584/523 660/522 518/588
f 550/466 560/529 469/528
f 605/449 550/466 469/528
f 494/452 552/473 550/519
f 610/451 552/473 494/452
f 662/503 547/589 640/590
f 659/435 691/591 555/495
f 491/505 682/575 555/495
f 601/484 556/592 475/464
f 556/592 608/524 475/464
f 579/593 622/587 557/556
f 508/487 463/497 558/594
f 649/544 558/594 556/545
f 552/436 590/432 560/595
f 464/530 560/529 507/543
f 691/591 491/505 555/495
f 658/454 491/505 597/455
f 655/596 503/535 562/597
f 503/535 675/598 562/597
f 626/485 526/526 563/429
f 651/428 626/485 563/429
f 635/547 564/511 531/441
f 531/441 591/572 541/571
f 601/484 565/599 556/592
f 499/568 526/526 565/546
f 538/577 568/576 463/600
f 463/600 687/421 558/423
f 569/507 503/535 655/596
f 535/573 569/507 688/574
f 544/541 652/583 570/542
f 571/601 504/538 640/590
f 570/542 652/583 571/601
f 518/475 574/566 584/602
f 596/561 465/463 523/465
f 576/430 690/425 546/431
f 578/470 545/469 462/565
f 576/472 578/470 462/565
f 503/535 676/537 675/598
f 460/448 488/447 579/553
f 460/603 579/593 557/556
f 519/496 543/551 580/559
f 519/496 680/560 596/561
f 464/530 507/543 581/481
f 464/530 581/481 639/483
f 608/524 584/602 523/465
f 574/566 523/465 584/602
f 501/444 607/531 585/462
f 515/427 501/444 589/552
f 506/479 544/541 586/584
f 544/541 648/540 624/439
f 587/555 549/557 636/477
f 588/482 581/481 540/514
f 684/580 588/482 540/514
f 585/462 589/552 501/444
f 589/552 585/462 651/428
f 590/604 500/605 507/543
f 590/604 507/543 560/529
f 531/441 564/511 591/572
f 564/511 642/510 591/572
f 592/499 488/447 654/446
f 623/606 592/607 487/608
f 632/609 607/531 593/532
f 467/440 635/547 531/441
f 580/559 594/548 465/463
f 594/548 601/484 465/463
f 574/566 625/494 596/561
f 596/561 523/465 574/566
f 528/501 597/455 561/434
f 597/455 491/505 691/591
f 516/610 674/476 600/578
f 473/422 687/421 600/578
f 594/548 499/550 601/484
f 499/550 565/599 601/484
f 470/563 681/564 602/500
f 470/563 602/500 592/499
f 482/467 603/525 526/526
f 550/466 605/449 482/467
f 603/525 482/467 605/449
f 515/427 603/525 605/449
f 556/459 497/460 608/611
f 584/523 608/611 497/460
f 484/450 562/597 610/451
f 562/597 675/598 610/451
f 614/443 560/529 464/530
f 501/444 614/443 464/530
f 488/447 602/500 617/569
f 488/447 617/569 579/553
f 620/536 478/534 530/471
f 676/537 620/536 530/471
f 622/554 537/433 518/475
f 549/557 622/587 518/588
f 586/584 624/439 480/518
f 544/541 624/439 586/584
f 625/494 574/566 479/474
f 659/435 479/474 537/433
f 626/485 520/567 526/526
f 626/485 508/487 666/562
f 662/503 628/457 461/490
f 461/490 628/457 546/431
f 632/609 593/532 467/440
f 593/532 501/444 635/547
f 593/532 635/547 467/440
f 516/610 587/555 636/477
f 674/476 516/610 636/477
f 639/483 588/482 510/509
f 639/483 510/509 635/547
f 554/539 662/503 640/590
f 640/590 504/538 554/539
f 641/506 478/534 569/507
f 658/454 530/471 478/534
f 510/509 684/580 642/510
f 492/517 493/516 642/510
f 506/479 480/518 644/480
f 644/480 645/612 670/613
f 644/480 480/518 645/612
f 645/513 480/515 492/517
f 647/437 548/614 513/586
f 648/540 570/542 548/614
f 648/540 647/437 624/439
f 647/437 648/540 548/614
f 508/487 558/594 649/544
f 666/562 508/487 649/544
f 633/615 538/577 650/616
f 650/616 538/577 463/600
f 651/428 650/521 485/486
f 651/428 485/486 626/485
f 506/479 504/538 652/583
f 652/583 504/538 571/601
f 653/445 469/528 614/443
f 469/528 653/445 605/449
f 487/608 592/607 654/617
f 484/450 655/596 562/597
f 569/507 655/596 484/450
f 641/506 658/454 478/534
f 658/454 641/506 491/505
f 659/435 625/494 479/474
f 625/494 659/435 555/495
f 549/557 518/588 660/522
f 549/557 660/522 636/477
f 541/585 661/438 647/437
f 541/585 591/582 661/438
f 547/589 662/503 490/489
f 662/503 461/490 490/489
f 470/563 522/570 664/456
f 658/454 664/456 522/570
f 626/485 666/562 520/567
f 520/567 666/562 565/546
f 554/539 667/458 472/504
f 628/457 472/504 667/458
f 668/426 592/618 623/424
f 668/426 470/453 592/618
f 669/558 580/559 543/551
f 543/551 671/493 669/558
f 507/543 500/605 670/512
f 500/478 644/480 670/613
f 669/558 671/493 511/549
f 671/468 482/467 511/527
f 473/422 674/476 497/460
f 600/578 674/476 473/422
f 675/598 576/472 610/451
f 578/470 576/472 675/598
f 676/537 578/470 675/598
f 530/471 578/470 676/537
f 677/508 535/573 543/551
f 682/575 569/507 535/573
f 580/559 465/463 680/560
f 519/496 580/559 680/560
f 617/569 681/564 528/501
f 664/456 528/501 681/564
f 555/495 682/575 677/508
f 677/508 682/575 535/573
f 532/579 683/491 539/488
f 546/431 539/488 683/491
f 540/514 492/517 684/580
f 642/510 684/580 492/517
f 568/576 600/578 687/421
f 687/421 463/600 568/576
f 688/574 569/507 484/450
f 533/492 688/574 484/450
f 576/430 462/619 690/425
f 462/619 470/453 690/425
f 561/434 691/591 659/435
f 597/455 691/591 561/434
f 749/620 740/621 847/622
f 773/623 693/624 864/625
f 731/626 762/627 816/628
f 811/629 716/630 707/631
f 893/632 780/633 791/634
f 709/635 821/636 736/637
f 694/638 812/639 849/640
f 798/641 709/635 889/642
f 701/643 768/644 715/645
f 884/646 766/647 763/648
f 782/649 747/650 848/651
f 771/652 702/653 774/654
f 712/655 822/656 737/657
f 891/658 862/659 889/642
f 724/660 741/661 858/662
f 799/663 841/664 797/665
f 880/666 706/667 758/668
f 799/663 845/669 743/670
f 788/671 845/669 885/672
f 793/673 833/674 759/675
f 833/674 793/673 872/676
f 844/677 803/678 822/656
f 786/679 744/680 860/681
f 739/682 831/683 823/684
f 757/685 856/686 787/687
f 840/688 712/689 784/690
f 773/623 864/625 808/691
f 719/692 713/693 701/694
f 768/695 701/694 861/696
f 806/697 702/653 714/698
f 731/626 816/628 801/699
f 698/700 810/701 715/645
f 781/702 714/698 702/653
f 831/683 739/682 778/703
f 778/703 725/704 831/683
f 883/705 770/706 835/707
f 758/668 832/708 880/666
f 852/709 842/710 821/636
f 745/711 879/712 837/713
f 752/714 696/715 766/716
f 692/717 741/718 720/719
f 852/720 738/721 842/722
f 881/723 754/724 750/725
f 848/651 735/726 782/649
f 737/657 822/656 723/727
f 836/728 710/729 803/678
f 756/730 694/638 849/640
f 728/731 777/732 706/733
f 826/734 856/686 757/685
f 876/735 705/736 797/665
f 764/737 813/738 805/739
f 764/740 693/624 773/623
f 748/741 703/742 729/743
f 756/730 849/640 795/744
f 751/745 823/684 802/746
f 784/747 804/748 807/749
f 784/747 712/655 859/750
f 786/679 742/751 732/752
f 710/729 836/728 723/727
f 733/753 714/698 874/754
f 891/658 775/755 862/659
f 693/624 764/740 734/756
f 835/707 836/728 693/624
f 843/757 782/649 735/726
f 746/758 713/693 719/692
f 889/642 709/635 796/759
f 887/760 796/759 692/717
f 737/657 762/627 731/626
f 784/747 859/750 731/626
f 761/761 738/721 792/762
f 739/682 823/684 751/745
f 705/736 776/763 825/764
f 799/663 740/621 845/669
f 705/736 825/764 877/765
f 741/718 765/766 720/719
f 795/744 729/743 703/742
f 732/752 742/751 818/767
f 882/768 816/628 818/767
f 716/630 790/769 846/770
f 788/671 870/771 846/770
f 868/772 860/681 744/680
f 745/773 837/774 718/775
f 785/776 872/676 718/775
f 746/758 719/692 735/726
f 870/771 735/726 846/770
f 811/629 725/777 716/630
f 864/778 748/741 699/779
f 699/779 748/741 729/743
f 861/696 749/620 847/622
f 885/672 863/780 861/696
f 853/781 816/628 780/633
f 853/782 754/724 696/783
f 726/784 879/712 787/687
f 726/784 820/785 879/712
f 801/699 696/715 752/714
f 715/645 884/786 763/787
f 843/757 735/726 719/692
f 766/647 719/692 763/648
f 886/788 741/661 724/660
f 757/789 745/773 793/673
f 698/700 715/645 768/644
f 758/668 883/705 832/708
f 744/680 786/679 827/790
f 759/675 785/776 798/641
f 810/701 733/753 715/645
f 842/722 738/721 761/761
f 796/759 709/635 736/637
f 737/657 723/727 762/627
f 818/767 866/791 732/752
f 701/643 715/645 763/787
f 763/648 719/692 701/694
f 764/737 805/739 728/731
f 880/666 832/708 869/792
f 795/744 703/742 765/766
f 806/697 775/755 891/658
f 766/647 843/757 719/692
f 766/647 696/783 754/724
f 758/668 706/667 767/793
f 758/668 767/793 717/794
f 768/644 757/789 698/700
f 826/734 757/685 847/622
f 769/795 852/709 821/636
f 802/746 824/796 852/720
f 732/752 770/706 851/797
f 723/727 770/706 732/752
f 875/798 771/652 774/654
f 864/778 840/688 748/741
f 867/799 773/623 812/800
f 764/740 773/623 813/801
f 703/742 875/798 774/654
f 895/802 891/658 830/803
f 806/697 714/698 775/755
f 714/698 862/659 775/755
f 776/763 778/804 739/805
f 825/764 776/763 820/785
f 805/739 813/738 871/806
f 871/806 795/807 886/788
f 716/630 725/777 778/804
f 797/665 778/804 876/735
f 791/634 780/633 860/681
f 882/768 818/767 742/751
f 733/753 874/754 715/645
f 884/786 715/645 834/808
f 747/650 782/649 881/723
f 782/649 754/724 881/723
f 805/739 871/806 783/809
f 702/653 784/690 781/702
f 702/653 771/652 850/810
f 709/635 798/641 785/776
f 785/776 718/775 709/635
f 732/752 851/797 786/679
f 717/794 827/790 786/679
f 757/685 787/687 745/711
f 787/687 879/712 745/711
f 790/769 788/671 846/770
f 788/671 743/670 845/669
f 789/811 893/632 791/634
f 790/769 743/670 788/671
f 743/670 790/769 799/663
f 792/762 857/812 761/761
f 698/700 793/673 759/675
f 757/789 793/673 698/700
f 741/718 795/744 765/766
f 886/788 795/807 741/661
f 796/759 736/637 761/813
f 857/814 796/759 761/813
f 716/630 778/804 797/665
f 841/664 716/630 797/665
f 889/642 862/659 798/641
f 798/641 733/753 810/701
f 877/765 799/663 705/736
f 799/663 797/665 705/736
f 804/748 801/699 807/749
f 834/815 801/699 752/714
f 802/746 852/720 769/816
f 751/745 802/746 837/817
f 693/624 803/678 864/625
f 693/624 836/728 803/678
f 804/748 784/747 731/626
f 804/748 731/626 801/699
f 728/731 805/739 777/732
f 805/739 783/809 777/732
f 806/697 774/654 702/653
f 774/654 895/802 830/803
f 874/754 807/818 715/645
f 807/818 781/702 784/690
f 812/800 773/623 808/691
f 699/819 808/691 864/625
f 792/762 809/820 857/812
f 759/675 810/701 698/700
f 798/641 810/701 759/675
f 811/629 848/651 747/650
f 812/639 699/779 849/640
f 699/819 812/800 808/691
f 813/738 873/821 871/806
f 873/822 867/799 812/800
f 801/699 816/628 696/715
f 853/781 696/715 816/628
f 866/791 818/767 762/627
f 818/767 816/628 762/627
f 776/763 739/805 820/785
f 739/805 751/823 820/785
f 709/635 718/775 821/636
f 718/775 769/795 821/636
f 822/656 803/678 710/729
f 822/656 710/729 723/727
f 802/746 823/684 824/796
f 825/764 856/686 877/765
f 726/784 825/764 820/785
f 877/765 856/686 826/734
f 740/621 826/734 847/622
f 717/794 767/793 827/790
f 703/742 774/654 830/803
f 830/803 765/766 703/742
f 869/792 832/708 734/756
f 835/707 693/624 734/756
f 833/674 785/776 759/675
f 785/776 833/674 872/676
f 807/818 834/808 715/645
f 807/749 801/699 834/815
f 883/705 835/707 832/708
f 832/708 835/707 734/756
f 723/727 836/728 770/706
f 835/707 770/706 836/728
f 718/775 837/774 769/795
f 837/817 802/746 769/816
f 771/652 840/688 850/810
f 840/688 771/652 875/798
f 799/663 790/769 841/664
f 841/664 790/769 716/630
f 736/637 842/710 761/813
f 842/710 736/637 821/636
f 843/757 766/647 754/724
f 782/649 843/757 754/724
f 890/824 822/656 712/655
f 712/689 840/688 864/778
f 845/669 863/780 885/672
f 740/621 749/620 845/669
f 846/770 707/631 716/630
f 848/651 811/629 707/631
f 847/622 757/685 768/695
f 768/695 861/696 847/622
f 846/770 735/726 848/651
f 846/770 848/651 707/631
f 849/640 699/779 729/743
f 849/640 729/743 795/744
f 850/810 840/688 784/690
f 702/653 850/810 784/690
f 786/679 851/797 717/794
f 883/705 758/668 717/794
f 852/720 711/825 738/721
f 852/720 824/796 711/825
f 754/724 853/782 750/725
f 789/826 750/725 893/827
f 726/784 856/686 825/764
f 856/686 726/784 787/687
f 809/820 858/662 857/812
f 857/814 692/717 796/759
f 857/812 858/662 692/828
f 692/828 858/662 741/661
f 737/657 859/750 712/655
f 859/750 737/657 731/626
f 742/751 786/679 860/681
f 860/681 882/768 742/751
f 746/758 861/696 713/693
f 861/696 701/694 713/693
f 733/753 798/641 862/659
f 862/659 714/698 733/753
f 863/780 845/669 749/620
f 863/780 749/620 861/696
f 864/625 803/678 844/677
f 864/625 890/824 712/655
f 866/791 723/727 732/752
f 723/727 866/791 762/627
f 867/799 873/822 813/801
f 773/623 867/799 813/801
f 791/634 860/681 868/772
f 734/756 764/740 869/792
f 878/829 869/792 764/740
f 870/771 788/671 746/758
f 735/726 870/771 746/758
f 871/806 756/830 795/807
f 871/806 873/821 756/830
f 745/773 718/775 872/676
f 745/773 872/676 793/673
f 812/639 694/638 873/831
f 694/638 756/730 873/831
f 714/698 781/702 874/754
f 874/754 781/702 807/818
f 875/798 748/741 840/688
f 875/798 703/742 748/741
f 776/763 705/736 876/735
f 876/735 778/804 776/763
f 826/734 740/621 877/765
f 877/765 740/621 799/663
f 878/829 764/740 728/832
f 880/666 869/792 878/829
f 879/712 751/823 837/713
f 820/785 751/823 879/712
f 878/829 728/832 880/666
f 880/666 728/832 706/667
f 882/768 780/633 816/628
f 780/633 882/768 860/681
f 770/706 883/705 851/797
f 717/794 851/797 883/705
f 834/815 752/714 884/833
f 884/833 752/714 766/716
f 885/672 746/758 788/671
f 885/672 861/696 746/758
f 783/809 871/806 886/788
f 886/788 724/660 783/809
f 887/760 889/642 796/759
f 720/719 887/760 692/717
f 889/642 887/760 720/719
f 720/719 891/658 889/642
f 864/625 844/677 890/824
f 890/824 844/677 822/656
f 765/766 891/658 720/719
f 830/803 891/658 765/766
f 893/632 853/781 780/633
f 750/725 853/782 893/827
f 895/802 806/697 891/658
f 895/802 774/654 806/697
f 153/834 51/835 173/836
f 129/837 5/838 167/839
f 74/840 20/841 7/842
f 56/85 209/843 39/86
f 109/844 74/840 7/842
f 209/843 50/845 231/846
f 76/847 5/838 129/837
f 28/30 147/848 214/849
f 12/850 104/202 93/851
f 206/852 174/853 48/854
f 51/835 88/855 203/856
f 144/857 174/176 23/177
f 231/846 119/218 209/843
f 182/858 131/859 106/860
f 10/155 25/861 15/862
f 14/863 26/864 50/845
f 140/865 14/863 137/866
f 104/202 62/201 93/851
f 35/867 106/868 76/847
f 137/866 186/869 140/865
f 15/862 25/861 36/870
f 223/871 178/872 173/836
f 10/155 98/154 236/873
f 84/874 96/875 20/841
f 127/191 119/209 144/857
f 178/872 40/188 173/836
f 166/876 40/188 178/872
f 165/73 150/877 120/74
f 206/852 48/854 146/878
f 50/845 146/878 124/879
f 163/880 146/878 50/845
f 50/845 26/864 163/880
f 128/881 88/855 126/882
f 153/834 187/883 126/882
f 15/862 147/848 10/155
f 62/201 28/30 93/851
f 182/858 194/208 131/859
f 120/222 150/884 195/885
f 145/132 68/199 193/173
f 84/874 20/841 74/840
f 36/870 25/861 138/886
f 76/847 212/887 226/888
f 226/888 14/863 140/865
f 173/836 40/188 153/834
f 236/873 98/154 84/874
f 138/886 236/873 84/874
f 87/889 14/863 50/845
f 56/85 14/863 87/889
f 88/855 211/890 203/856
f 68/199 145/132 150/877
f 93/851 28/30 214/849
f 173/836 15/862 36/870
f 196/891 96/875 84/874
f 38/78 71/148 206/892
f 196/893 38/78 206/892
f 76/847 106/868 5/838
f 5/838 178/872 223/871
f 36/870 138/886 109/844
f 223/871 167/839 5/838
f 39/86 209/843 119/218
f 22/170 120/222 195/885
f 144/894 119/218 124/879
f 124/879 146/878 48/854
f 126/882 88/855 51/835
f 153/834 126/882 51/835
f 23/177 127/191 144/857
f 128/881 126/882 187/883
f 22/170 195/885 66/57
f 212/887 163/880 26/864
f 109/844 7/842 212/887
f 131/859 166/895 106/860
f 131/859 194/208 65/136
f 230/137 40/215 166/895
f 137/866 14/863 56/85
f 138/886 84/874 74/840
f 138/886 74/840 109/844
f 140/865 76/847 226/888
f 76/847 140/865 186/869
f 174/853 144/894 48/854
f 124/879 48/854 144/894
f 12/850 145/896 104/202
f 145/896 211/890 150/884
f 20/841 146/878 163/880
f 146/878 20/841 96/875
f 216/29 10/155 147/848
f 216/29 147/848 28/30
f 88/855 150/884 211/890
f 150/884 88/855 128/881
f 81/58 66/57 153/834
f 40/188 81/58 153/834
f 7/842 20/841 163/880
f 212/887 7/842 163/880
f 165/73 68/199 150/877
f 166/895 131/859 65/136
f 65/136 230/137 166/895
f 167/839 36/870 109/844
f 167/839 109/844 212/887
f 173/836 93/851 214/849
f 12/850 93/851 175/897
f 174/176 206/892 71/148
f 93/851 173/836 175/897
f 51/835 203/856 173/836
f 106/868 178/872 5/838
f 166/876 178/872 106/868
f 182/858 106/860 35/898
f 186/869 35/867 76/847
f 184/21 194/208 182/858
f 182/858 35/898 186/151
f 182/858 186/151 184/21
f 66/57 195/885 187/883
f 66/57 187/883 153/834
f 195/885 150/884 128/881
f 195/885 128/881 187/883
f 196/893 98/196 38/78
f 98/154 196/891 84/874
f 211/890 175/897 203/856
f 175/897 173/836 203/856
f 196/891 206/852 96/875
f 96/875 206/852 146/878
f 209/843 56/85 87/889
f 209/843 87/889 50/845
f 211/890 12/850 175/897
f 211/890 145/896 12/850
f 129/837 212/887 76/847
f 212/887 129/837 167/839
f 214/849 147/848 15/862
f 173/836 214/849 15/862
f 167/839 223/871 36/870
f 223/871 173/836 36/870
f 26/864 14/863 226/888
f 26/864 226/888 212/887
f 230/137 135/77 40/215
f 124/879 231/846 50/845
f 119/218 231/846 124/879
f 25/861 10/155 236/873
f 25/861 236/873 138/886
f 323/899 347/254 240/900
f 425/901 424/902 260/903
f 452/904 263/296 258/905
f 251/906 427/907 250/908
f 329/909 259/910 333/911
f 250/908 374/912 349/913
f 393/914 319/915 331/916
f 366/239 375/917 344/240
f 422/918 323/919 330/920
f 257/921 355/922 280/923
f 381/924 394/925 448/926
f 330/920 323/919 414/927
f 399/928 281/929 305/930
f 333/911 387/931 302/932
f 399/928 305/930 330/920
f 247/933 353/934 389/935
f 331/916 306/936 285/937
f 355/922 275/938 280/923
f 245/294 263/296 452/904
f 351/939 258/905 276/940
f 316/941 294/942 277/943
f 277/943 276/940 408/944
f 255/945 394/925 277/943
f 424/902 381/924 448/926
f 352/946 424/902 448/926
f 281/929 355/922 257/921
f 281/929 425/901 305/930
f 352/946 440/947 283/293
f 440/947 327/284 283/293
f 306/936 426/948 285/937
f 369/949 422/918 259/910
f 286/292 355/950 411/951
f 405/403 411/951 240/900
f 316/941 341/400 294/942
f 330/920 414/927 295/952
f 295/952 414/927 345/953
f 371/411 294/942 410/306
f 317/954 425/901 260/903
f 352/946 283/293 374/912
f 330/920 305/930 302/932
f 427/907 251/906 302/932
f 353/934 426/948 306/936
f 307/955 374/912 250/908
f 302/932 305/930 307/955
f 255/945 277/943 371/411
f 277/943 294/942 371/411
f 457/956 349/913 311/340
f 433/957 251/906 250/908
f 389/935 314/958 247/933
f 247/933 314/958 369/949
f 316/941 258/905 263/296
f 276/940 258/905 408/944
f 425/901 317/954 305/930
f 307/955 305/930 444/959
f 344/240 375/917 447/960
f 333/911 302/932 251/906
f 422/918 365/961 323/919
f 254/309 347/254 323/899
f 327/284 440/947 371/411
f 319/915 393/914 329/909
f 285/937 426/948 369/949
f 330/920 302/932 387/931
f 422/918 330/920 259/910
f 319/915 329/909 333/911
f 447/962 375/963 333/911
f 294/942 341/400 339/371
f 316/941 263/296 341/400
f 311/340 433/957 457/956
f 295/952 345/953 281/929
f 411/951 355/950 281/964
f 286/292 411/951 405/403
f 374/912 283/293 349/913
f 311/340 349/913 283/293
f 258/905 351/939 452/904
f 280/923 275/938 372/965
f 352/946 260/903 424/902
f 260/903 352/946 374/912
f 355/922 245/294 275/938
f 286/292 354/244 355/950
f 354/244 245/248 355/950
f 254/309 323/899 365/966
f 439/312 389/967 353/405
f 319/915 366/968 331/916
f 329/909 369/949 259/910
f 369/949 329/909 393/914
f 371/411 450/395 327/284
f 372/965 275/938 351/939
f 381/924 351/939 276/940
f 307/955 444/959 374/912
f 317/954 260/903 374/912
f 319/915 375/963 366/968
f 319/915 333/911 375/963
f 372/965 381/924 424/902
f 372/965 351/939 381/924
f 387/931 259/910 330/920
f 259/910 387/931 333/911
f 389/935 365/961 422/918
f 389/967 439/312 365/966
f 285/937 369/949 393/914
f 331/916 285/937 393/914
f 381/924 276/940 394/925
f 394/925 276/940 277/943
f 295/952 399/928 330/920
f 295/952 281/929 399/928
f 347/254 405/403 240/900
f 408/944 316/941 277/943
f 258/905 316/941 408/944
f 240/900 411/951 345/969
f 411/951 281/964 345/969
f 240/970 345/953 414/927
f 414/927 323/919 240/970
f 314/958 389/935 422/918
f 369/949 314/958 422/918
f 280/923 372/965 424/902
f 425/901 280/923 424/902
f 425/901 281/929 257/921
f 257/921 280/923 425/901
f 247/933 369/949 426/948
f 353/934 247/933 426/948
f 250/908 427/907 307/955
f 302/932 307/955 427/907
f 433/971 344/240 447/960
f 344/240 433/971 311/342
f 435/307 294/942 339/371
f 410/306 294/942 435/307
f 439/312 254/309 365/966
f 255/945 371/411 440/947
f 448/926 394/925 255/945
f 444/959 317/954 374/912
f 305/930 317/954 444/959
f 447/962 333/911 251/906
f 433/957 447/962 251/906
f 448/926 255/945 440/947
f 352/946 448/926 440/947
f 275/938 245/294 452/904
f 275/938 452/904 351/939
f 250/908 349/913 457/956
f 457/956 433/957 250/908
f 577/972 477/973 521/974
f 567/975 583/976 685/977
f 678/978 599/979 525/980
f 468/981 521/974 477/973
f 534/982 631/983 623/606
f 466/984 571/601 476/985
f 672/986 598/987 547/589
f 679/988 606/989 521/974
f 474/990 553/991 637/992
f 529/993 498/994 572/995
f 663/996 471/997 598/998
f 583/976 502/999 517/1000
f 559/1001 486/1002 629/1003
f 481/1004 516/610 600/578
f 481/1004 600/578 495/1005
f 665/1006 638/1007 572/995
f 477/973 525/980 599/979
f 534/982 599/979 678/978
f 679/988 656/1008 606/989
f 527/1009 629/1003 486/1002
f 640/590 673/1010 571/601
f 538/577 495/1005 600/578
f 512/1011 474/990 637/992
f 512/1011 567/975 685/977
f 631/983 534/982 498/994
f 689/1012 575/1013 498/994
f 643/1014 502/1015 632/609
f 536/1016 460/603 505/1017
f 615/1018 619/1019 509/1020
f 512/1011 509/1020 619/1019
f 613/1021 573/1022 542/533
f 611/1023 637/1024 573/1022
f 513/586 566/1025 630/1026
f 548/614 570/542 686/1027
f 514/1028 575/1013 689/1012
f 547/589 598/987 595/1029
f 505/1017 557/556 587/555
f 481/1004 609/1030 587/555
f 643/1014 632/609 604/1031
f 566/1032 527/1009 630/1033
f 521/974 609/1030 481/1004
f 619/1019 646/1034 553/991
f 468/981 627/1035 524/1036
f 521/974 468/981 524/1036
f 572/995 525/980 665/1006
f 525/980 572/995 678/978
f 643/1014 604/1031 634/1037
f 621/1038 517/1000 551/1039
f 689/1012 595/1040 657/1041
f 466/984 476/985 559/1042
f 471/997 663/996 483/1043
f 623/606 487/608 534/982
f 654/617 460/603 536/1016
f 627/1035 487/608 656/1008
f 627/1035 656/1008 524/1036
f 532/579 539/488 483/1044
f 613/1021 542/533 567/1045
f 490/489 672/986 547/589
f 566/1025 513/586 548/614
f 551/1039 517/1000 634/1046
f 527/1009 486/1002 638/1007
f 521/974 481/1004 553/991
f 553/991 481/1004 495/1005
f 640/590 547/589 673/1010
f 460/603 557/556 505/1017
f 476/1047 529/993 559/1001
f 612/1048 529/993 572/995
f 548/614 686/1027 566/1025
f 629/1049 466/984 559/1042
f 567/975 502/999 583/976
f 607/531 567/1045 542/533
f 570/542 571/601 466/984
f 486/1002 612/1048 572/995
f 486/1002 572/995 638/1007
f 496/461 542/533 573/1022
f 637/1024 496/461 573/1022
f 514/1028 471/997 575/1013
f 575/1013 631/983 498/994
f 619/1019 553/991 474/990
f 619/1019 474/990 512/1011
f 538/577 582/1050 495/1005
f 495/1005 582/1050 553/991
f 621/1038 551/1039 665/1006
f 621/1038 616/1051 618/1052
f 481/1004 587/555 516/610
f 595/1040 689/1012 476/1047
f 547/589 595/1029 673/1010
f 595/1040 598/998 657/1041
f 514/1028 598/998 471/997
f 599/979 468/981 477/973
f 534/982 468/981 599/979
f 604/1031 467/440 489/442
f 634/1037 604/1031 630/1053
f 606/989 536/1016 505/1017
f 505/1017 587/555 609/1030
f 607/531 502/1015 567/1045
f 502/1015 607/531 632/609
f 606/989 505/1017 609/1030
f 606/989 609/1030 521/974
f 637/1024 611/1023 512/1054
f 573/1022 613/1021 611/1023
f 486/1002 559/1001 612/1048
f 559/1001 529/993 612/1048
f 611/1023 613/1021 512/1054
f 613/1021 567/1045 512/1054
f 616/1051 615/1018 685/977
f 477/973 577/972 615/1018
f 477/973 615/1018 616/1051
f 621/1038 477/973 616/1051
f 615/1018 509/1020 685/977
f 509/1020 512/1011 685/977
f 619/1019 577/972 646/1034
f 577/972 619/1019 615/1018
f 517/1000 621/1038 583/976
f 583/976 621/1038 618/1052
f 483/1044 539/488 623/424
f 623/606 631/983 483/1043
f 487/608 627/1035 534/982
f 468/981 534/982 627/1035
f 566/1032 629/1003 527/1009
f 566/1025 686/1027 629/1049
f 489/442 513/502 630/1053
f 604/1031 489/442 630/1053
f 471/997 483/1043 631/983
f 575/1013 471/997 631/983
f 632/609 467/440 604/1031
f 633/615 582/1050 538/577
f 582/1050 637/992 553/991
f 527/1009 634/1046 630/1033
f 634/1046 527/1009 551/1039
f 637/992 582/1050 633/615
f 496/461 637/1024 633/498
f 551/1039 638/1007 665/1006
f 527/1009 638/1007 551/1039
f 643/1055 634/1046 517/1000
f 502/999 643/1055 517/1000
f 646/1034 521/974 553/991
f 646/1034 577/972 521/974
f 487/608 654/617 536/1016
f 487/608 536/1016 656/1008
f 656/1008 536/1016 606/989
f 514/1028 689/1012 657/1041
f 657/1041 598/998 514/1028
f 663/1056 598/987 672/986
f 663/1056 532/579 483/1044
f 477/973 665/1006 525/980
f 477/973 621/1038 665/1006
f 532/579 663/1056 672/986
f 672/986 490/489 532/579
f 673/1010 595/1029 476/985
f 673/1010 476/985 571/601
f 534/982 678/978 498/994
f 498/994 678/978 572/995
f 656/1008 679/988 524/1036
f 521/974 524/1036 679/988
f 685/977 618/1052 616/1051
f 685/977 583/976 618/1052
f 686/1027 466/984 629/1049
f 686/1027 570/542 466/984
f 689/1012 498/994 529/993
f 529/993 476/1047 689/1012
f 722/1057 727/1058 855/1059
f 819/1060 809/820 772/1061
f 767/1062 706/733 697/1063
f 695/1064 814/1065 854/1066
f 711/825 894/1067 738/721
f 727/1058 854/1066 814/1065
f 744/1068 827/1069 828/1070
f 730/1071 755/1072 753/1073
f 819/1060 724/660 809/820
f 829/1074 721/1075 789/826
f 828/1070 794/1076 744/1068
f 789/826 721/1075 750/725
f 727/1058 722/1057 700/1077
f 894/1067 730/1071 779/1078
f 695/1064 725/704 814/1065
f 794/1076 760/1079 708/1080
f 697/1063 727/1058 704/1081
f 697/1063 800/1082 727/1058
f 711/825 824/796 894/1067
f 838/1083 792/762 738/721
f 794/1076 708/1080 744/1068
f 747/650 721/1075 829/1074
f 854/1066 753/1073 817/1084
f 700/1077 722/1057 779/1078
f 755/1072 817/1084 753/1073
f 831/683 725/704 695/1064
f 783/809 724/660 800/1082
f 747/650 888/1085 725/777
f 888/1086 814/1065 725/704
f 855/1059 839/1087 722/1057
f 722/1057 839/1087 779/1078
f 779/1078 730/1071 753/1073
f 753/1073 700/1077 779/1078
f 777/732 783/809 800/1082
f 865/1088 789/811 708/1089
f 708/1089 789/811 868/772
f 868/772 744/680 708/1089
f 724/660 858/662 809/820
f 794/1076 828/1070 815/1090
f 815/1090 760/1079 794/1076
f 697/1063 706/733 800/1082
f 706/733 777/732 800/1082
f 809/820 792/762 838/1083
f 747/650 725/777 811/629
f 814/1065 704/1081 727/1058
f 704/1081 815/1090 697/1063
f 704/1081 814/1065 815/1090
f 814/1065 760/1079 815/1090
f 817/1084 695/1064 854/1066
f 831/683 695/1064 817/1084
f 800/1082 724/660 819/1060
f 800/1082 819/1060 839/1087
f 823/684 755/1072 730/1071
f 894/1067 824/796 730/1071
f 824/796 823/684 730/1071
f 767/1062 697/1063 827/1069
f 815/1090 828/1070 697/1063
f 697/1063 828/1070 827/1069
f 865/1091 829/1074 789/826
f 888/1086 760/1079 814/1065
f 831/683 755/1072 823/684
f 755/1072 831/683 817/1084
f 772/1061 809/820 838/1083
f 819/1060 772/1061 839/1087
f 839/1087 772/1061 892/1092
f 839/1087 892/1092 779/1078
f 727/1058 700/1077 854/1066
f 700/1077 753/1073 854/1066
f 800/1082 855/1059 727/1058
f 855/1059 800/1082 839/1087
f 888/1086 865/1093 760/1079
f 760/1079 865/1093 708/1080
f 791/634 868/772 789/811
f 881/723 750/725 721/1075
f 881/723 721/1075 747/650
f 888/1085 747/650 829/1074
f 888/1085 829/1074 865/1091
f 772/1061 838/1083 892/1092
f 894/1067 838/1083 738/721
f 892/1092 838/1083 894/1067
f 779/1078 892/1092 894/1067

 