# File exported by Houdini 16.5.405 (www.sidefx.com)
# 127 points
# 750 vertices
# 250 primitives
# Bounds: [-153.975403, -1.90568423, -133.250259] to [155.670197, 183.49292, 133.092041]
g 
v -133.807007 102.579948 16.3561077
v 78.3334808 -1.85899925 -45.2889977
v 54.4786339 51.1966476 -112.75666
v -82.6752548 28.3221073 -128.167374
v 7.05511141 110.197769 115.6036
v -133.677124 64.4837646 79.4404221
v 129.169464 93.21241 62.040123
v 37.7686577 175.774475 -22.2922077
v 100.889153 -1.83006823 24.7272701
v -84.1706848 80.2555237 -122.106705
v -33.649128 128.796356 98.379509
v 83.2888412 138.638931 67.1599274
v -115.240234 22.4533501 112.211235
v -62.218502 -1.8871392 -96.3314285
v 49.4748535 -1.89141989 -89.2604523
v 144.931168 58.42453 -43.0685539
v -150.568726 22.4355183 3.23528385
v 106.923439 107.503418 -62.9190598
v -107.332939 36.6900558 -107.222733
v 40.5935936 84.4465179 118.141823
v -39.3486328 80.2705231 -126.761536
v -58.5788918 -1.80476439 49.5641479
v 58.1595955 115.968895 -93.1444473
v 139.601715 24.9580021 54.678112
v -46.6828728 169.954559 37.5725746
v -77.7518311 -1.4631325 78.4458694
v -71.6431503 137.251129 -101.882622
v -28.6669521 8.4675312 125.628204
v -57.7879715 175.844696 -9.04585743
v 72.6748047 14.3156586 107.950897
v -120.010017 126.931236 -65.7113419
v -110.496445 40.0342216 118.168251
v 146.579575 93.6837006 16.7952175
v -148.498856 15.6602612 59.9078903
v -43.996254 166.50647 -73.5480042
v 53.8661308 43.2867165 122.371407
v -119.972588 -0.587152958 2.34844637
v 20.5139809 121.254417 -106.270615
v 54.9991341 148.853287 78.3619003
v -3.25141931 32.2638054 -129.796158
v -82.2757263 155.499298 -66.7156143
v -85.185463 9.42111588 71.0699234
v 103.105179 54.2140999 -81.8856201
v -121.425903 102.875801 -93.6845016
v 148.338837 20.6041203 27.9069595
v -137.243881 3.45153213 62.8238602
v 155.670197 33.6157646 6.59116888
v -118.894348 58.0585136 -103.751442
v -41.443821 30.6983261 133.092041
v 104.157295 33.9831352 -71.6388321
v -8.2814045 167.92836 -75.5980301
v -149.855682 41.4674988 -23.0240707
v 151.453293 23.9398174 7.11447811
v 95.5551071 61.3374443 100.591896
v -74.9760742 157.628647 37.8067703
v -109.507065 -1.90131247 44.6553612
v 114.704384 14.4775209 11.5343266
v 98.5124054 145.557434 -19.3193474
v -136.421555 89.9102631 -66.2785416
v -114.229561 58.1034775 106.447876
v -122.369133 127.64682 -25.9561672
v 9.48876762 142.361267 89.1702042
v -144.015671 54.0225906 -63.7558479
v 65.2141418 146.845779 -70.8929977
v 118.696068 -0.432485044 56.0584183
v -68.9087448 131.645828 77.2857285
v 11.303381 182.029785 10.444005
v -141.812134 92.94207 -20.6954765
v 68.7015839 -1.898193 87.7889709
v 13.205739 77.7079163 -121.102379
v 70.7736053 18.0659351 -93.5782776
v 55.4344063 161.53685 51.9388351
v -40.1006546 -1.88267672 99.7212524
v -35.321804 145.698151 -100.324677
v 117.739113 37.0909615 89.1705322
v 101.546562 10.4500513 -25.7932396
v -5.96399498 3.84580088 -118.525009
v 130.413651 122.376648 -9.17432308
v -36.4501686 121.185776 -115.353203
v -58.5755501 174.383286 10.0107889
v -142.123535 24.1343307 -24.1317806
v -63.3573341 10.2788591 117.652519
v -153.975403 44.5566559 26.3758812
v 32.1951981 17.8103085 118.380127
v -84.2996216 23.142971 -120.344269
v -145.297226 10.7183495 40.0576057
v -145.826416 44.3966713 75.8763733
v -97.7087173 18.0252533 97.6675568
v -102.789726 126.496056 -95.3460464
v -150.964661 13.9922409 18.1427212
v -102.728416 127.431534 47.7881927
v 31.0102444 22.2276039 -118.787308
v 93.6244125 7.55256462 93.8738098
v 138.904831 76.3072968 57.5772667
v -27.4951019 182.534576 7.00959539
v -84.8310471 12.4155607 120.202202
v -2.06766796 181.399063 22.3493614
v -2.51331401 3.47519159 120.319847
v 3.43372369 24.0276184 130.734161
v -142.496338 39.1226997 -49.5223427
v -31.2846069 83.3628311 125.153427
v -107.937149 117.322739 54.4717636
v 136.090652 24.4702473 -18.5305138
v -49.374073 26.9004536 -133.250259
v -79.2703781 100.091705 103.036606
v -28.567152 164.068619 -81.0989685
v 111.230713 29.8183136 -57.8089218
v -45.1482773 128.593872 -112.233688
v -23.0700188 -1.90568423 -116.313576
v 117.581772 15.3111515 79.1194382
v 94.3993683 124.427551 72.6919937
v 31.9011116 155.251801 -81.9846878
v 139.444489 19.3304405 47.9981079
v -20.4229183 170.802246 -65.126091
v 4.10755587 60.130703 131.85376
v -8.15788841 183.49292 6.14691162
v 54.2083092 26.2043095 -112.364616
v 38.6811142 171.836319 30.6532593
v 140.40741 38.5515633 -32.7624664
v 53.2499733 13.2519321 109.620476
v 138.179825 42.1354446 66.6562347
v -122.506752 42.7637672 -89.9763412
v -83.7121201 154.31427 33.5549812
v -143.087891 26.8453426 77.6550064
v -42.7707443 176.43515 20.3987942
v -13.3508434 181.313248 -10.7297363
v -7.63384056 172.882187 -53.7135201
vt 0.936190009 0.357899994 0
vt 0.945108294 0.439979434 0
vt 0.853902161 0.410984367 0
vt 0.82585597 0.15791294 0
vt 0.855152845 0.23452805 0
vt 0.795998275 0.264096558 0
vt 0.795998275 0.264096558 0
vt 0.676832378 0.2381569 0
vt 0.738939345 0.168004885 0
vt 0.125099078 0.672063708 0
vt 0.132874206 0.548066556 0
vt 0.185112283 0.648609459 0
vt 0.311129719 0.430492789 0
vt 0.400891423 0.409810007 0
vt 0.371107012 0.432191193 0
vt 0.736518323 0.821647465 0
vt 0.692037344 0.845430017 0
vt 0.683715343 0.798891783 0
vt 0.42538166 0.612620592 0
vt 0.368945301 0.56539011 0
vt 0.49243772 0.505811155 0
vt 0.481375426 0.676067829 0
vt 0.570285678 0.632235467 0
vt 0.576002419 0.743208647 0
vt 0.832349539 0.501176417 0
vt 0.74821198 0.393474251 0
vt 0.853902161 0.410984367 0
vt 0.330799907 0.0668636486 0
vt 0.374954283 0.0409491509 0
vt 0.393544972 0.134756252 0
vt 0.230552897 0.0288871545 0
vt 0.298058569 0.00235186913 0
vt 0.330799907 0.0668636486 0
vt 0.716765225 0.53534925 0
vt 0.614973485 0.48734501 0
vt 0.68975091 0.391669065 0
vt 0.185112283 0.648609459 0
vt 0.221649095 0.530020297 0
vt 0.28986311 0.650762796 0
vt 0.726086855 0.868428469 0
vt 0.736518323 0.821647465 0
vt 0.793603301 0.863896012 0
vt 0.0764958933 0.371089578 0
vt 0.159294859 0.37195912 0
vt 0.121008262 0.447898507 0
vt 0.74821198 0.393474251 0
vt 0.806750894 0.322965592 0
vt 0.853902161 0.410984367 0
vt 0.537945151 0.539721668 0
vt 0.492111683 0.608840942 0
vt 0.49243772 0.505811155 0
vt 0.314332873 0.800104141 0
vt 0.317871243 0.762035549 0
vt 0.358859092 0.802520871 0
vt 0.789393544 0.964853466 0
vt 0.750469565 0.912229836 0
vt 0.834801078 0.919245481 0
vt 0.0510712452 0.377843529 0
vt 0.0511206612 0.340116322 0
vt 0.0764958933 0.371089578 0
vt 0.76169467 0.0239805374 0
vt 0.798982739 0.0703388825 0
vt 0.735321224 0.100354813 0
vt 0.916013777 0.783825696 0
vt 0.952769995 0.785880029 0
vt 0.962186158 0.826969504 0
vt 0.177354515 0.45036155 0
vt 0.145693257 0.419168532 0
vt 0.180231437 0.381466866 0
vt 0.721048832 0.311963916 0
vt 0.68975091 0.391669065 0
vt 0.626924276 0.307407141 0
vt 0.683715343 0.798891783 0
vt 0.692037344 0.845430017 0
vt 0.626202762 0.848959386 0
vt 0.493225098 0.427434891 0
vt 0.487245589 0.411070287 0
vt 0.510281205 0.374584019 0
vt 0.559759974 0.295752704 0
vt 0.594601095 0.29472658 0
vt 0.550272703 0.351357996 0
vt 0.692037344 0.845430017 0
vt 0.654640436 0.910874069 0
vt 0.626202762 0.848959386 0
vt 0.654640436 0.910874069 0
vt 0.570059478 0.91141814 0
vt 0.626202762 0.848959386 0
vt 0.388234705 0.771743178 0
vt 0.358859092 0.802520871 0
vt 0.317871243 0.762035549 0
vt 0.518728137 0.159960255 0
vt 0.546588778 0.245770842 0
vt 0.483059406 0.219698131 0
vt 0.537945151 0.539721668 0
vt 0.570285678 0.632235467 0
vt 0.492111683 0.608840942 0
vt 0.112698212 0.333482563 0
vt 0.159294859 0.37195912 0
vt 0.0764958933 0.371089578 0
vt 0.711356878 0.73445791 0
vt 0.683715343 0.798891783 0
vt 0.629062355 0.709459901 0
vt 0.683715343 0.798891783 0
vt 0.626202762 0.848959386 0
vt 0.632820427 0.779155433 0
vt 0.396269321 0.68827951 0
vt 0.333545238 0.707965434 0
vt 0.35319671 0.629455328 0
vt 0.132874206 0.548066556 0
vt 0.0738250464 0.637328029 0
vt 0.0957565084 0.566584527 0
vt 0.500177979 0.784953773 0
vt 0.593550563 0.784043968 0
vt 0.506461024 0.816529691 0
vt 0.793603301 0.863896012 0
vt 0.736518323 0.821647465 0
vt 0.763875484 0.768191695 0
vt 0.736518323 0.821647465 0
vt 0.683715343 0.798891783 0
vt 0.711356878 0.73445791 0
vt 0.35319671 0.629455328 0
vt 0.302259356 0.524334669 0
vt 0.368945301 0.56539011 0
vt 0.612181544 0.753281772 0
vt 0.596297383 0.704514742 0
vt 0.629062355 0.709459901 0
vt 0.195944518 0.742910326 0
vt 0.146585077 0.742720425 0
vt 0.125099078 0.672063708 0
vt 0.459971011 0.370370865 0
vt 0.400891423 0.409810007 0
vt 0.416689932 0.364476591 0
vt 0.894179463 0.475735515 0
vt 0.853902161 0.410984367 0
vt 0.932783842 0.471668273 0
vt 0.75414747 0.686215878 0
vt 0.711356878 0.73445791 0
vt 0.661869228 0.629356563 0
vt 0.594601095 0.29472658 0
vt 0.676832378 0.2381569 0
vt 0.626924276 0.307407141 0
vt 0.626924276 0.307407141 0
vt 0.676832378 0.2381569 0
vt 0.721048832 0.311963916 0
vt 0.763875484 0.768191695 0
vt 0.896335959 0.814902604 0
vt 0.793603301 0.863896012 0
vt 0.311129719 0.430492789 0
vt 0.271625727 0.447132051 0
vt 0.247111604 0.404265255 0
vt 0.483059406 0.219698131 0
vt 0.447701514 0.15766567 0
vt 0.518728137 0.159960255 0
vt 0.629062355 0.709459901 0
vt 0.596297383 0.704514742 0
vt 0.610589743 0.655099332 0
vt 0.211400688 0.44129625 0
vt 0.177354515 0.45036155 0
vt 0.180231437 0.381466866 0
vt 0.247111604 0.404265255 0
vt 0.211400688 0.44129625 0
vt 0.180231437 0.381466866 0
vt 0.49243772 0.505811155 0
vt 0.492111683 0.608840942 0
vt 0.42538166 0.612620592 0
vt 0.661869228 0.629356563 0
vt 0.629062355 0.709459901 0
vt 0.604170382 0.624388456 0
vt 0.590551019 0.85969007 0
vt 0.570059478 0.91141814 0
vt 0.559508026 0.898687541 0
vt 0.698551118 0.543753266 0
vt 0.744213164 0.55189389 0
vt 0.75414747 0.686215878 0
vt 0.593550563 0.784043968 0
vt 0.519121885 0.756061256 0
vt 0.576002419 0.743208647 0
vt 0.159294859 0.37195912 0
vt 0.180231437 0.381466866 0
vt 0.145693257 0.419168532 0
vt 0.726086855 0.868428469 0
vt 0.692037344 0.845430017 0
vt 0.736518323 0.821647465 0
vt 0.692037344 0.845430017 0
vt 0.726086855 0.868428469 0
vt 0.654640436 0.910874069 0
vt 0.28986311 0.650762796 0
vt 0.249203727 0.707709014 0
vt 0.185112283 0.648609459 0
vt 0.708960235 0.136827931 0
vt 0.738939345 0.168004885 0
vt 0.676832378 0.2381569 0
vt 0.676832378 0.2381569 0
vt 0.667084634 0.156413183 0
vt 0.708960235 0.136827931 0
vt 0.550272703 0.351357996 0
vt 0.6313954 0.410250008 0
vt 0.583518445 0.467967004 0
vt 0.87681061 0.940054476 0
vt 0.834801078 0.919245481 0
vt 0.960371494 0.872175992 0
vt 0.333545238 0.707965434 0
vt 0.388234705 0.771743178 0
vt 0.317871243 0.762035549 0
vt 0.429996431 0.446831286 0
vt 0.302259356 0.524334669 0
vt 0.354357451 0.442704707 0
vt 0.676832378 0.2381569 0
vt 0.795998275 0.264096558 0
vt 0.721048832 0.311963916 0
vt 0.763875484 0.768191695 0
vt 0.736518323 0.821647465 0
vt 0.711356878 0.73445791 0
vt 0.317871243 0.762035549 0
vt 0.314332873 0.800104141 0
vt 0.265971601 0.760851443 0
vt 0.317871243 0.762035549 0
vt 0.265971601 0.760851443 0
vt 0.249203727 0.707709014 0
vt 0.0164032243 0.280541271 0
vt 0.019793814 0.229276061 0
vt 0.0297651179 0.307082683 0
vt 0.654640436 0.910874069 0
vt 0.658378959 0.986597955 0
vt 0.564437032 0.969824314 0
vt 0.388234705 0.771743178 0
vt 0.500177979 0.784953773 0
vt 0.450054556 0.819454193 0
vt 0.195944518 0.742910326 0
vt 0.249203727 0.707709014 0
vt 0.265971601 0.760851443 0
vt 0.763875484 0.768191695 0
vt 0.711356878 0.73445791 0
vt 0.75414747 0.686215878 0
vt 0.632820427 0.779155433 0
vt 0.626202762 0.848959386 0
vt 0.605255067 0.825982869 0
vt 0.429996431 0.446831286 0
vt 0.50019002 0.472970009 0
vt 0.49243772 0.505811155 0
vt 0.590551019 0.85969007 0
vt 0.626202762 0.848959386 0
vt 0.570059478 0.91141814 0
vt 0.0144459167 0.104269445 0
vt 0.0407646745 0.0710923746 0
vt -0.00250956672 0.182778224 0
vt 0.447701514 0.15766567 0
vt 0.466254681 0.0872760639 0
vt 0.518728137 0.159960255 0
vt 0.185112283 0.648609459 0
vt 0.249203727 0.707709014 0
vt 0.125099078 0.672063708 0
vt 0.570285678 0.632235467 0
vt 0.537945151 0.539721668 0
vt 0.570448697 0.608628809 0
vt 0.832349539 0.501176417 0
vt 0.853902161 0.410984367 0
vt 0.894179463 0.475735515 0
vt 0.546588778 0.245770842 0
vt 0.518728137 0.159960255 0
vt 0.551317334 0.20600909 0
vt 0.559759974 0.295752704 0
vt 0.550272703 0.351357996 0
vt 0.535391748 0.342837185 0
vt 0.28986311 0.650762796 0
vt 0.302259356 0.524334669 0
vt 0.35319671 0.629455328 0
vt 0.974798143 0.190784395 0
vt 0.969423532 0.239603236 0
vt 0.950413048 0.182726502 0
vt 0.466254681 0.0872760639 0
vt 0.447701514 0.15766567 0
vt 0.393544972 0.134756252 0
vt 0.962186158 0.826969504 0
vt 0.896335959 0.814902604 0
vt 0.916013777 0.783825696 0
vt 0.632820427 0.779155433 0
vt 0.612181544 0.753281772 0
vt 0.629062355 0.709459901 0
vt 0.896335959 0.814902604 0
vt 0.883575141 0.715702832 0
vt 0.916013777 0.783825696 0
vt 0.0867950469 0.0255041588 0
vt 0.14306429 0.00132158736 0
vt 0.202522993 0.0425915122 0
vt 0.0764958933 0.371089578 0
vt 0.0511206612 0.340116322 0
vt 0.112698212 0.333482563 0
vt 0.121008262 0.447898507 0
vt 0.0510712452 0.377843529 0
vt 0.0764958933 0.371089578 0
vt 0.502583802 0.344866753 0
vt 0.488275588 0.300723851 0
vt 0.54516077 0.300038517 0
vt 0.716765225 0.53534925 0
vt 0.74821198 0.393474251 0
vt 0.786994457 0.52864176 0
vt 0.500177979 0.784953773 0
vt 0.519121885 0.756061256 0
vt 0.593550563 0.784043968 0
vt 0.896335959 0.814902604 0
vt 0.962186158 0.826969504 0
vt 0.960371494 0.872175992 0
vt 0.506461024 0.816529691 0
vt 0.593550563 0.784043968 0
vt 0.58607775 0.815481603 0
vt 0.68975091 0.391669065 0
vt 0.74821198 0.393474251 0
vt 0.716765225 0.53534925 0
vt 0.431494445 0.402218759 0
vt 0.400891423 0.409810007 0
vt 0.459971011 0.370370865 0
vt 0.265971601 0.760851443 0
vt 0.22584343 0.757771671 0
vt 0.195944518 0.742910326 0
vt 0.483621508 0.436869055 0
vt 0.50019002 0.472970009 0
vt 0.429996431 0.446831286 0
vt 0.311129719 0.430492789 0
vt 0.416689932 0.364476591 0
vt 0.400891423 0.409810007 0
vt 0.570448697 0.608628809 0
vt 0.537945151 0.539721668 0
vt 0.555820882 0.544610441 0
vt 0.853902161 0.410984367 0
vt 0.934307337 0.31731075 0
vt 0.936190009 0.357899994 0
vt 0.614973485 0.48734501 0
vt 0.583518445 0.467967004 0
vt 0.6313954 0.410250008 0
vt 0.82585597 0.15791294 0
vt 0.795998275 0.264096558 0
vt 0.738939345 0.168004885 0
vt 0.14306429 0.00132158736 0
vt 0.230552897 0.0288871545 0
vt 0.202522993 0.0425915122 0
vt 0.798982739 0.0703388825 0
vt 0.76169467 0.0239805374 0
vt 0.863446474 0.00330652739 0
vt 0.798982739 0.0703388825 0
vt 0.82585597 0.15791294 0
vt 0.738939345 0.168004885 0
vt 0.483059406 0.219698131 0
vt 0.546588778 0.245770842 0
vt 0.488275588 0.300723851 0
vt 0.452254683 0.250605166 0
vt 0.483059406 0.219698131 0
vt 0.488275588 0.300723851 0
vt 0.159294859 0.37195912 0
vt 0.199000344 0.326735735 0
vt 0.180231437 0.381466866 0
vt 0.515650451 0.461724848 0
vt 0.493225098 0.427434891 0
vt 0.510281205 0.374584019 0
vt 0.626202762 0.848959386 0
vt 0.590551019 0.85969007 0
vt 0.605255067 0.825982869 0
vt 0.459971011 0.370370865 0
vt 0.416689932 0.364476591 0
vt 0.488275588 0.300723851 0
vt 0.744235277 0.962559938 0
vt 0.750469565 0.912229836 0
vt 0.789393544 0.964853466 0
vt 0.629062355 0.709459901 0
vt 0.610589743 0.655099332 0
vt 0.604170382 0.624388456 0
vt 0.388234705 0.771743178 0
vt 0.396269321 0.68827951 0
vt 0.500177979 0.784953773 0
vt 0.221649095 0.530020297 0
vt 0.185112283 0.648609459 0
vt 0.132874206 0.548066556 0
vt 0.750469565 0.912229836 0
vt 0.793603301 0.863896012 0
vt 0.834801078 0.919245481 0
vt 0.536449432 0.471328855 0
vt 0.537945151 0.539721668 0
vt 0.49243772 0.505811155 0
vt 0.388234705 0.771743178 0
vt 0.450054556 0.819454193 0
vt 0.415265054 0.818453074 0
vt 0.626924276 0.307407141 0
vt 0.68975091 0.391669065 0
vt 0.6313954 0.410250008 0
vt 0.429996431 0.446831286 0
vt 0.49243772 0.505811155 0
vt 0.368945301 0.56539011 0
vt 0.75414747 0.686215878 0
vt 0.744213164 0.55189389 0
vt 0.842476726 0.660748541 0
vt 0.661869228 0.629356563 0
vt 0.711356878 0.73445791 0
vt 0.629062355 0.709459901 0
vt 0.536858559 0.284907758 0
vt 0.488275588 0.300723851 0
vt 0.546588778 0.245770842 0
vt 0.125099078 0.672063708 0
vt 0.249203727 0.707709014 0
vt 0.195944518 0.742910326 0
vt 0.536858559 0.284907758 0
vt 0.54516077 0.300038517 0
vt 0.488275588 0.300723851 0
vt 0.950413048 0.182726502 0
vt 0.855152845 0.23452805 0
vt 0.82585597 0.15791294 0
vt 0.0510712452 0.377843529 0
vt 0.121008262 0.447898507 0
vt 0.0601753853 0.411749423 0
vt 0.429996431 0.446831286 0
vt 0.354357451 0.442704707 0
vt 0.414303571 0.418751299 0
vt 0.536449432 0.471328855 0
vt 0.49243772 0.505811155 0
vt 0.50019002 0.472970009 0
vt 0.143584222 0.0870015249 0
vt 0.0880499333 0.0441075675 0
vt 0.0867950469 0.0255041588 0
vt 0.333545238 0.707965434 0
vt 0.28986311 0.650762796 0
vt 0.35319671 0.629455328 0
vt 0.019793814 0.229276061 0
vt 0.0407646745 0.0710923746 0
vt 0.143584222 0.0870015249 0
vt 0.342608929 0.00407311227 0
vt 0.374954283 0.0409491509 0
vt 0.330799907 0.0668636486 0
vt 0.247111604 0.404265255 0
vt 0.271625727 0.447132051 0
vt 0.211400688 0.44129625 0
vt 0.806750894 0.322965592 0
vt 0.721048832 0.311963916 0
vt 0.795998275 0.264096558 0
vt 0.883575141 0.715702832 0
vt 0.904412806 0.714459777 0
vt 0.916013777 0.783825696 0
vt 0.855152845 0.23452805 0
vt 0.8601138 0.307237267 0
vt 0.795998275 0.264096558 0
vt 0.629062355 0.709459901 0
vt 0.683715343 0.798891783 0
vt 0.632820427 0.779155433 0
vt 0.143584222 0.0870015249 0
vt 0.0407646745 0.0710923746 0
vt 0.0880499333 0.0441075675 0
vt 0.374954283 0.0409491509 0
vt 0.452631801 0.0604907311 0
vt 0.466254681 0.0872760639 0
vt 0.302259356 0.524334669 0
vt 0.28986311 0.650762796 0
vt 0.221649095 0.530020297 0
vt 0.202522993 0.0425915122 0
vt 0.143584222 0.0870015249 0
vt 0.0867950469 0.0255041588 0
vt 0.374954283 0.0409491509 0
vt 0.466254681 0.0872760639 0
vt 0.393544972 0.134756252 0
vt 0.708960235 0.136827931 0
vt 0.798982739 0.0703388825 0
vt 0.738939345 0.168004885 0
vt 0.840471983 0.950287879 0
vt 0.789393544 0.964853466 0
vt 0.834801078 0.919245481 0
vt 0.990928233 0.853459716 0
vt 0.960371494 0.872175992 0
vt 0.962186158 0.826969504 0
vt 0.912403286 0.103546016 0
vt 0.82585597 0.15791294 0
vt 0.798982739 0.0703388825 0
vt 0.500177979 0.784953773 0
vt 0.506461024 0.816529691 0
vt 0.450054556 0.819454193 0
vt 0.550272703 0.351357996 0
vt 0.583518445 0.467967004 0
vt 0.515650451 0.461724848 0
vt 0.626924276 0.307407141 0
vt 0.6313954 0.410250008 0
vt 0.550272703 0.351357996 0
vt 0.500177979 0.784953773 0
vt 0.481375426 0.676067829 0
vt 0.519121885 0.756061256 0
vt 0.763875484 0.768191695 0
vt 0.75414747 0.686215878 0
vt 0.883575141 0.715702832 0
vt 0.934307337 0.31731075 0
vt 0.960049629 0.334213555 0
vt 0.936190009 0.357899994 0
vt 0.910600007 0.94115001 0
vt 0.87681061 0.940054476 0
vt 0.960371494 0.872175992 0
vt 0.0297651179 0.307082683 0
vt 0.0811503902 0.268743575 0
vt 0.0511206612 0.340116322 0
vt 0.483621508 0.436869055 0
vt 0.429996431 0.446831286 0
vt 0.45065394 0.422740519 0
vt 0.125099078 0.672063708 0
vt 0.0738250464 0.637328029 0
vt 0.132874206 0.548066556 0
vt 0.620665371 0.237551987 0
vt 0.643592656 0.224696606 0
vt 0.594601095 0.29472658 0
vt 0.466254681 0.0872760639 0
vt 0.533166945 0.122961044 0
vt 0.518728137 0.159960255 0
vt 0.806750894 0.322965592 0
vt 0.8601138 0.307237267 0
vt 0.853902161 0.410984367 0
vt 0.452254683 0.250605166 0
vt 0.447701514 0.15766567 0
vt 0.483059406 0.219698131 0
vt 0.570285678 0.632235467 0
vt 0.481375426 0.676067829 0
vt 0.492111683 0.608840942 0
vt 0.112698212 0.333482563 0
vt 0.199000344 0.326735735 0
vt 0.159294859 0.37195912 0
vt 0.459971011 0.370370865 0
vt 0.488275588 0.300723851 0
vt 0.502583802 0.344866753 0
vt 0.594601095 0.29472658 0
vt 0.626924276 0.307407141 0
vt 0.550272703 0.351357996 0
vt 0.019793814 0.229276061 0
vt -0.00250956672 0.182778224 0
vt 0.0407646745 0.0710923746 0
vt 0.969423532 0.239603236 0
vt 0.8601138 0.307237267 0
vt 0.855152845 0.23452805 0
vt 0.855152845 0.23452805 0
vt 0.950413048 0.182726502 0
vt 0.969423532 0.239603236 0
vt 0.63407284 0.55063504 0
vt 0.668078005 0.524328053 0
vt 0.698551118 0.543753266 0
vt 0.605255067 0.825982869 0
vt 0.612181544 0.753281772 0
vt 0.632820427 0.779155433 0
vt 0.654640436 0.910874069 0
vt 0.744235277 0.962559938 0
vt 0.658378959 0.986597955 0
vt 0.658378959 0.986597955 0
vt 0.744235277 0.962559938 0
vt 0.734671712 0.981300771 0
vt 0.8601138 0.307237267 0
vt 0.971383274 0.294516206 0
vt 0.934307337 0.31731075 0
vt 0.42538166 0.612620592 0
vt 0.481375426 0.676067829 0
vt 0.396269321 0.68827951 0
vt 0.35319671 0.629455328 0
vt 0.42538166 0.612620592 0
vt 0.396269321 0.68827951 0
vt 0.302259356 0.524334669 0
vt 0.221649095 0.530020297 0
vt 0.249195814 0.508563638 0
vt 0.35319671 0.629455328 0
vt 0.368945301 0.56539011 0
vt 0.42538166 0.612620592 0
vt 0.667084634 0.156413183 0
vt 0.676832378 0.2381569 0
vt 0.643592656 0.224696606 0
vt 0.750469565 0.912229836 0
vt 0.726086855 0.868428469 0
vt 0.793603301 0.863896012 0
vt 0.786994457 0.52864176 0
vt 0.74821198 0.393474251 0
vt 0.832349539 0.501176417 0
vt 0.249203727 0.707709014 0
vt 0.28986311 0.650762796 0
vt 0.333545238 0.707965434 0
vt 0.515650451 0.461724848 0
vt 0.510281205 0.374584019 0
vt 0.550272703 0.351357996 0
vt 0.550272703 0.351357996 0
vt 0.510281205 0.374584019 0
vt 0.535391748 0.342837185 0
vt 0.763875484 0.768191695 0
vt 0.883575141 0.715702832 0
vt 0.896335959 0.814902604 0
vt 0.0297651179 0.307082683 0
vt 0.019793814 0.229276061 0
vt 0.0811503902 0.268743575 0
vt 0.313349396 0.47466439 0
vt 0.354357451 0.442704707 0
vt 0.302259356 0.524334669 0
vt 0.654640436 0.910874069 0
vt 0.750469565 0.912229836 0
vt 0.744235277 0.962559938 0
vt 0.726086855 0.868428469 0
vt 0.750469565 0.912229836 0
vt 0.654640436 0.910874069 0
vt 0.795998275 0.264096558 0
vt 0.8601138 0.307237267 0
vt 0.806750894 0.322965592 0
vt 0.840471983 0.950287879 0
vt 0.834801078 0.919245481 0
vt 0.87681061 0.940054476 0
vt 0.876770854 0.972228408 0
vt 0.840471983 0.950287879 0
vt 0.87681061 0.940054476 0
vt 0.414303571 0.418751299 0
vt 0.45065394 0.422740519 0
vt 0.429996431 0.446831286 0
vt 0.388234705 0.771743178 0
vt 0.415265054 0.818453074 0
vt 0.358859092 0.802520871 0
vt 0.396269321 0.68827951 0
vt 0.481375426 0.676067829 0
vt 0.500177979 0.784953773 0
vt 0.452254683 0.250605166 0
vt 0.393544972 0.134756252 0
vt 0.447701514 0.15766567 0
vt 0.368945301 0.56539011 0
vt 0.302259356 0.524334669 0
vt 0.429996431 0.446831286 0
vt 0.333545238 0.707965434 0
vt 0.317871243 0.762035549 0
vt 0.249203727 0.707709014 0
vt 0.834801078 0.919245481 0
vt 0.793603301 0.863896012 0
vt 0.896335959 0.814902604 0
vt 0.8601138 0.307237267 0
vt 0.969423532 0.239603236 0
vt 0.971383274 0.294516206 0
vt 0.82585597 0.15791294 0
vt 0.912403286 0.103546016 0
vt 0.950413048 0.182726502 0
vt 0.744213164 0.55189389 0
vt 0.828678489 0.639041126 0
vt 0.842476726 0.660748541 0
vt 0.481375426 0.676067829 0
vt 0.576002419 0.743208647 0
vt 0.519121885 0.756061256 0
vt 0.661869228 0.629356563 0
vt 0.698551118 0.543753266 0
vt 0.75414747 0.686215878 0
vt 0.121008262 0.447898507 0
vt 0.145693257 0.419168532 0
vt 0.177354515 0.45036155 0
vt 0.68975091 0.391669065 0
vt 0.721048832 0.311963916 0
vt 0.74821198 0.393474251 0
vt 0.74821198 0.393474251 0
vt 0.721048832 0.311963916 0
vt 0.806750894 0.322965592 0
vt 0.570059478 0.91141814 0
vt 0.654640436 0.910874069 0
vt 0.564437032 0.969824314 0
vt 0.0738250464 0.637328029 0
vt 0.0970630199 0.709508836 0
vt 0.0382851735 0.66483891 0
vt 0.853902161 0.410984367 0
vt 0.945108294 0.439979434 0
vt 0.932783842 0.471668273 0
vt 0.842476726 0.660748541 0
vt 0.883575141 0.715702832 0
vt 0.75414747 0.686215878 0
vt 0.863446474 0.00330652739 0
vt 0.912403286 0.103546016 0
vt 0.798982739 0.0703388825 0
vt 0.960371494 0.872175992 0
vt 0.834801078 0.919245481 0
vt 0.896335959 0.814902604 0
vt 0.298058569 0.00235186913 0
vt 0.342608929 0.00407311227 0
vt 0.330799907 0.0668636486 0
vt 0.594601095 0.29472658 0
vt 0.643592656 0.224696606 0
vt 0.676832378 0.2381569 0
vt 0.125099078 0.672063708 0
vt 0.146585077 0.742720425 0
vt 0.0970630199 0.709508836 0
vt 0.63407284 0.55063504 0
vt 0.604170382 0.624388456 0
vt 0.608496308 0.581611753 0
vt 0.63407284 0.55063504 0
vt 0.661869228 0.629356563 0
vt 0.604170382 0.624388456 0
vt 0.798982739 0.0703388825 0
vt 0.708960235 0.136827931 0
vt 0.735321224 0.100354813 0
vt 0.614973485 0.48734501 0
vt 0.6313954 0.410250008 0
vt 0.68975091 0.391669065 0
vt 0.249195814 0.508563638 0
vt 0.221649095 0.530020297 0
vt 0.132874206 0.548066556 0
vt 0.125099078 0.672063708 0
vt 0.0970630199 0.709508836 0
vt 0.0738250464 0.637328029 0
vt 0.698551118 0.543753266 0
vt 0.661869228 0.629356563 0
vt 0.63407284 0.55063504 0
vt 0.333545238 0.707965434 0
vt 0.396269321 0.68827951 0
vt 0.388234705 0.771743178 0
vt 0.121008262 0.447898507 0
vt 0.159294859 0.37195912 0
vt 0.145693257 0.419168532 0
vt 0.302259356 0.524334669 0
vt 0.249195814 0.508563638 0
vt 0.313349396 0.47466439 0
vt 0.853902161 0.410984367 0
vt 0.8601138 0.307237267 0
vt 0.934307337 0.31731075 0
vt 0.42538166 0.612620592 0
vt 0.492111683 0.608840942 0
vt 0.481375426 0.676067829 0
vt 0.143584222 0.0870015249 0
vt 0.416689932 0.364476591 0
vt 0.247111604 0.404265255 0
vt 0.416689932 0.364476591 0
vt 0.202522993 0.0425915122 0
vt 0.330799907 0.0668636486 0
vt 0.199000344 0.326735735 0
vt 0.143584222 0.0870015249 0
vt 0.247111604 0.404265255 0
vt 0.202522993 0.0425915122 0
vt 0.416689932 0.364476591 0
vt 0.143584222 0.0870015249 0
vt 0.416689932 0.364476591 0
vt 0.330799907 0.0668636486 0
vt 0.393544972 0.134756252 0
vt 0.112698212 0.333482563 0
vt 0.143584222 0.0870015249 0
vt 0.199000344 0.326735735 0
vt 0.0811503902 0.268743575 0
vt 0.112698212 0.333482563 0
vt 0.0511206612 0.340116322 0
vt 0.452254683 0.250605166 0
vt 0.488275588 0.300723851 0
vt 0.416689932 0.364476591 0
vt 0.416689932 0.364476591 0
vt 0.393544972 0.134756252 0
vt 0.452254683 0.250605166 0
vt 0.247111604 0.404265255 0
vt 0.416689932 0.364476591 0
vt 0.311129719 0.430492789 0
vt 0.202522993 0.0425915122 0
vt 0.230552897 0.0288871545 0
vt 0.330799907 0.0668636486 0
vt 0.0811503902 0.268743575 0
vt 0.143584222 0.0870015249 0
vt 0.112698212 0.333482563 0
vt 0.180231437 0.381466866 0
vt 0.199000344 0.326735735 0
vt 0.247111604 0.404265255 0
vt 0.0811503902 0.268743575 0
vt 0.019793814 0.229276061 0
vt 0.143584222 0.0870015249 0
vn 0.0327728391 0.976308644 -0.213886365
vn 0.0113553926 0.985853136 -0.184769347
vn 0.302518249 0.942937791 -0.136575088
vn 0.258099347 0.193331599 -0.952097476
vn 0.281395435 0.367912143 -0.888829291
vn 0.428805798 0.313778818 -0.849767387
vn 0.428805798 0.313778818 -0.849767387
vn 0.624074042 0.00455600629 -0.785536051
vn 0.408186257 0.176871717 -0.896320403
vn 0.648272872 -0.0460548699 0.784120739
vn 0.721061289 0.488434494 0.493922919
vn 0.485745192 0.282486945 0.835980773
vn 0.169271335 -0.746427894 0.653937399
vn 0.199219182 -0.580827534 0.792249143
vn 0.257383138 -0.476973265 0.841673255
vn -0.759964943 0.621514618 -0.174821466
vn -0.778188527 0.262002796 -0.572584689
vn -0.927787006 0.280929118 -0.249587908
vn -0.191086248 0.718503296 0.674406171
vn -0.0439657308 0.790437818 0.614572525
vn -0.17511262 0.851332903 0.496977121
vn -0.467612505 0.547299445 0.70422554
vn -0.68193841 0.596751928 0.430684537
vn -0.735547245 0.502381742 0.458670527
vn 0.382356465 0.918411314 0.151237652
vn 0.511009455 0.870031595 -0.0794062167
vn 0.302518249 0.942937791 -0.136575088
vn 0.080685772 -0.968930304 -0.118086696
vn 0.582187176 -0.547955334 -0.605585992
vn 0.257373691 -0.927677572 -0.125543997
vn 0.205727801 -0.554058373 -0.82706058
vn 0.302718252 -0.436953753 -0.886444807
vn 0.080685772 -0.968930304 -0.118086696
vn 0.628880322 0.719649971 0.29937911
vn 0.721061289 0.488434494 0.493922919
vn 0.738373458 0.643748164 -0.0698641464
vn 0.485745192 0.282486945 0.835980773
vn 0.510100067 0.426985353 0.74630928
vn 0.340453446 0.373386949 0.870588005
vn -0.487628877 0.564471424 -0.667232931
vn -0.759964943 0.621514618 -0.174821466
vn -0.479476422 0.871475756 -0.175059736
vn -0.216531709 -0.909111261 0.271547556
vn -0.130777493 -0.900666595 0.188928708
vn -0.375687778 -0.699730814 0.474378556
vn 0.511009455 0.870031595 -0.0794062167
vn 0.483332723 0.703284264 -0.511388242
vn 0.302518249 0.942937791 -0.136575088
vn -0.475458503 0.770345807 0.42482999
vn -0.412942886 0.703287959 0.58506757
vn -0.17511262 0.851332903 0.496977121
vn 0.169271335 -0.746427894 0.653937399
vn 0.119530335 -0.231001958 0.978057504
vn -0.0153138433 -0.708501518 0.705551445
vn 0.00764938444 0.620200694 -0.792469263
vn -0.264363408 0.572114646 -0.787282467
vn -0.165763587 0.95135206 -0.277098686
vn -0.890715778 -0.388598889 0.336233348
vn -0.25975433 -0.957307875 0.0284802429
vn -0.216531709 -0.909111261 0.271547556
vn 0.205727801 -0.554058373 -0.82706058
vn 0.174966052 -0.0563500598 -0.982241988
vn 0.302718252 -0.436953753 -0.886444807
vn -0.393407464 0.909371912 0.170620039
vn -0.252193809 0.942847192 0.217801154
vn -0.155293494 0.987461269 0.07162413
vn -0.180190131 -0.759684682 0.548411369
vn -0.485887676 -0.8555094 -0.00292403507
vn -0.108085439 -0.936415195 -0.00645489944
vn 0.663205326 0.389366835 -0.655369639
vn 0.738373458 0.643748164 -0.0698641464
vn 0.87063098 0.11045336 -0.457977265
vn -0.927787006 0.280929118 -0.249587908
vn -0.778188527 0.262002796 -0.572584689
vn -0.768300235 -0.0248287302 -0.68217355
vn 0.842329383 -0.355396241 0.445886344
vn 0.82004863 -0.434057921 0.3846035
vn 0.81327492 -0.566951931 0.138225555
vn 0.419598699 -0.818617702 -0.331295848
vn 0.667547405 -0.574946105 -0.491077095
vn 0.997742295 -0.0901679024 -0.0310726687
vn -0.778188527 0.262002796 -0.572584689
vn -0.270115584 0.239728734 -0.942710817
vn -0.768300235 -0.0248287302 -0.68217355
vn -0.270115584 0.239728734 -0.942710817
vn -0.337031692 -0.391407073 -0.84000802
vn -0.768300235 -0.0248287302 -0.68217355
vn -0.108798668 -0.0201843791 1.01902008
vn -0.0153138433 -0.708501518 0.705551445
vn 0.119530335 -0.231001958 0.978057504
vn 0.419598699 -0.818617702 -0.331295848
vn 0.81327492 -0.566951931 0.138225555
vn 0.409270525 -0.849679947 -0.2650913
vn -0.475458503 0.770345807 0.42482999
vn -0.68193841 0.596751928 0.430684537
vn -0.412942886 0.703287959 0.58506757
vn -0.0726287365 -0.985490501 0.0632340461
vn -0.130777493 -0.900666595 0.188928708
vn -0.216531709 -0.909111261 0.271547556
vn -0.956455231 0.303028584 -0.038267944
vn -0.927787006 0.280929118 -0.249587908
vn -0.989703715 -0.0610139444 -0.158146501
vn -0.927787006 0.280929118 -0.249587908
vn -0.768300235 -0.0248287302 -0.68217355
vn -0.941540658 -0.0533497222 -0.310634762
vn -0.133023024 0.326912254 0.942933679
vn 0.0579798743 0.117267743 0.997113168
vn 0.101722799 0.478712738 0.884177446
vn 0.721061289 0.488434494 0.493922919
vn 0.855427027 -0.0951448753 0.525415421
vn 0.863419592 0.259847552 0.450598478
vn -0.364794612 0.185480848 0.910328925
vn -0.89161706 0.26434651 0.373576283
vn -0.375687778 -0.699730814 0.474378556
vn -0.479476422 0.871475756 -0.175059736
vn -0.759964943 0.621514618 -0.174821466
vn -0.711470783 0.704112709 0.0502308607
vn -0.759964943 0.621514618 -0.174821466
vn -0.927787006 0.280929118 -0.249587908
vn -0.956455231 0.303028584 -0.038267944
vn 0.101722799 0.478712738 0.884177446
vn 0.195040926 0.744183123 0.635158837
vn -0.0439657308 0.790437818 0.614572525
vn -0.730774581 -0.592014551 -0.342196941
vn -0.738775432 -0.637139738 -0.403580099
vn -0.989703715 -0.0610139444 -0.158146501
vn 0.252901822 -0.507899046 0.841499627
vn 0.326814562 -0.704861701 0.638350964
vn 0.648272872 -0.0460548699 0.784120739
vn 0.326814562 -0.704861701 0.638350964
vn 0.199219182 -0.580827534 0.792249143
vn 0.0526026487 -0.991125047 0.0957149714
vn 0.141856998 0.992909431 0.0432029851
vn 0.302518249 0.942937791 -0.136575088
vn 0.0361193195 1.00168848 -0.0304604396
vn -0.8317132 0.527325988 0.202899694
vn -0.956455231 0.303028584 -0.038267944
vn -1.00200081 0.174983799 -0.00303057441
vn 0.667547405 -0.574946105 -0.491077095
vn 0.624074042 0.00455600629 -0.785536051
vn 0.87063098 0.11045336 -0.457977265
vn 0.87063098 0.11045336 -0.457977265
vn 0.624074042 0.00455600629 -0.785536051
vn 0.663205326 0.389366835 -0.655369639
vn -0.711470783 0.704112709 0.0502308607
vn -0.381165504 0.928677559 -0.0909701735
vn -0.479476422 0.871475756 -0.175059736
vn 0.169271335 -0.746427894 0.653937399
vn -0.0153138433 -0.708501518 0.705551445
vn -0.0479595475 -0.992114067 0.0773990825
vn 0.409270525 -0.849679947 -0.2650913
vn 0.556313396 -0.795581698 -0.260053813
vn 0.419598699 -0.818617702 -0.331295848
vn -0.989703715 -0.0610139444 -0.158146501
vn -0.738775432 -0.637139738 -0.403580099
vn -0.849256039 -0.449648976 -0.278132081
vn -0.234439731 -0.864097834 0.146594122
vn -0.180190131 -0.759684682 0.548411369
vn -0.108085439 -0.936415195 -0.00645489944
vn -0.0479595475 -0.992114067 0.0773990825
vn -0.234439731 -0.864097834 0.146594122
vn -0.108085439 -0.936415195 -0.00645489944
vn -0.17511262 0.851332903 0.496977121
vn -0.412942886 0.703287959 0.58506757
vn -0.191086248 0.718503296 0.674406171
vn -1.00200081 0.174983799 -0.00303057441
vn -0.989703715 -0.0610139444 -0.158146501
vn -0.835530639 -0.515040636 -0.177455693
vn -0.648557067 -0.664978266 -0.374818325
vn -0.337031692 -0.391407073 -0.84000802
vn -0.537368119 -0.697811663 -0.469479173
vn -0.89161706 0.26434651 0.373576283
vn -0.735547245 0.502381742 0.458670527
vn -0.8317132 0.527325988 0.202899694
vn -0.89161706 0.26434651 0.373576283
vn -0.556509137 0.472728789 0.69005686
vn -0.735547245 0.502381742 0.458670527
vn -0.130777493 -0.900666595 0.188928708
vn -0.108085439 -0.936415195 -0.00645489944
vn -0.485887676 -0.8555094 -0.00292403507
vn -0.487628877 0.564471424 -0.667232931
vn -0.778188527 0.262002796 -0.572584689
vn -0.759964943 0.621514618 -0.174821466
vn -0.778188527 0.262002796 -0.572584689
vn -0.487628877 0.564471424 -0.667232931
vn -0.270115584 0.239728734 -0.942710817
vn 0.340453446 0.373386949 0.870588005
vn 0.323290288 -0.0712466612 0.952284813
vn 0.485745192 0.282486945 0.835980773
vn 0.424422413 -0.368199617 -0.827706754
vn 0.408186257 0.176871717 -0.896320403
vn 0.624074042 0.00455600629 -0.785536051
vn 0.624074042 0.00455600629 -0.785536051
vn 0.582187176 -0.547955334 -0.605585992
vn 0.424422413 -0.368199617 -0.827706754
vn 0.997742295 -0.0901679024 -0.0310726687
vn 0.958450198 0.313160539 0.0608354919
vn 0.863419592 0.259847552 0.450598478
vn -0.0341909714 0.975454152 -0.23922585
vn -0.165763587 0.95135206 -0.277098686
vn 0.0113553926 0.985853136 -0.184769347
vn 0.0579798743 0.117267743 0.997113168
vn -0.108798668 -0.0201843791 1.01902008
vn 0.119530335 -0.231001958 0.978057504
vn -0.0119006177 0.918371618 0.406842411
vn 0.195040926 0.744183123 0.635158837
vn 0.382356465 0.918411314 0.151237652
vn 0.624074042 0.00455600629 -0.785536051
vn 0.428805798 0.313778818 -0.849767387
vn 0.663205326 0.389366835 -0.655369639
vn -0.711470783 0.704112709 0.0502308607
vn -0.759964943 0.621514618 -0.174821466
vn -0.956455231 0.303028584 -0.038267944
vn 0.119530335 -0.231001958 0.978057504
vn 0.169271335 -0.746427894 0.653937399
vn 0.257383138 -0.476973265 0.841673255
vn 0.119530335 -0.231001958 0.978057504
vn 0.257383138 -0.476973265 0.841673255
vn 0.323290288 -0.0712466612 0.952284813
vn -0.849256039 -0.449648976 -0.278132081
vn -0.738775432 -0.637139738 -0.403580099
vn -0.835530639 -0.515040636 -0.177455693
vn -0.270115584 0.239728734 -0.942710817
vn 0.00555865094 0.187046498 -0.9866063
vn -0.0319428518 -0.135169879 -0.987129509
vn -0.108798668 -0.0201843791 1.01902008
vn -0.364794612 0.185480848 0.910328925
vn -0.180190131 -0.759684682 0.548411369
vn 0.252901822 -0.507899046 0.841499627
vn 0.323290288 -0.0712466612 0.952284813
vn 0.257383138 -0.476973265 0.841673255
vn -0.711470783 0.704112709 0.0502308607
vn -0.956455231 0.303028584 -0.038267944
vn -0.8317132 0.527325988 0.202899694
vn -0.941540658 -0.0533497222 -0.310634762
vn -0.768300235 -0.0248287302 -0.68217355
vn -0.72361213 -0.513304353 -0.46264565
vn -0.0119006177 0.918371618 0.406842411
vn -0.252193809 0.942847192 0.217801154
vn -0.17511262 0.851332903 0.496977121
vn -0.648557067 -0.664978266 -0.374818325
vn -0.768300235 -0.0248287302 -0.68217355
vn -0.337031692 -0.391407073 -0.84000802
vn -0.72361213 -0.513304353 -0.46264565
vn -0.648557067 -0.664978266 -0.374818325
vn -0.730774581 -0.592014551 -0.342196941
vn 0.556313396 -0.795581698 -0.260053813
vn 0.594809949 -0.687342703 -0.424707025
vn 0.419598699 -0.818617702 -0.331295848
vn 0.485745192 0.282486945 0.835980773
vn 0.323290288 -0.0712466612 0.952284813
vn 0.648272872 -0.0460548699 0.784120739
vn -0.68193841 0.596751928 0.430684537
vn -0.475458503 0.770345807 0.42482999
vn -0.695842564 0.629727244 0.353669554
vn 0.382356465 0.918411314 0.151237652
vn 0.302518249 0.942937791 -0.136575088
vn 0.141856998 0.992909431 0.0432029851
vn 0.81327492 -0.566951931 0.138225555
vn 0.419598699 -0.818617702 -0.331295848
vn 0.838876188 -0.556770265 -0.147418916
vn 0.419598699 -0.818617702 -0.331295848
vn 0.997742295 -0.0901679024 -0.0310726687
vn 0.838876188 -0.556770265 -0.147418916
vn 0.340453446 0.373386949 0.870588005
vn 0.195040926 0.744183123 0.635158837
vn 0.101722799 0.478712738 0.884177446
vn -0.0487134159 0.436572403 -0.904152334
vn 0.00764938444 0.620200694 -0.792469263
vn 0.0120301964 0.396198213 -0.92189151
vn 0.594809949 -0.687342703 -0.424707025
vn 0.556313396 -0.795581698 -0.260053813
vn 0.257373691 -0.927677572 -0.125543997
vn -0.155293494 0.987461269 0.07162413
vn -0.381165504 0.928677559 -0.0909701735
vn -0.393407464 0.909371912 0.170620039
vn -0.941540658 -0.0533497222 -0.310634762
vn -0.730774581 -0.592014551 -0.342196941
vn -0.989703715 -0.0610139444 -0.158146501
vn -0.381165504 0.928677559 -0.0909701735
vn -0.637044013 0.739722431 0.239054382
vn -0.393407464 0.909371912 0.170620039
vn -0.337031692 -0.391407073 -0.84000802
vn -0.0319428518 -0.135169879 -0.987129509
vn -0.0031871167 -0.979630291 -0.0986739248
vn -0.216531709 -0.909111261 0.271547556
vn -0.25975433 -0.957307875 0.0284802429
vn -0.0726287365 -0.985490501 0.0632340461
vn -0.375687778 -0.699730814 0.474378556
vn -0.890715778 -0.388598889 0.336233348
vn -0.216531709 -0.909111261 0.271547556
vn 0.697814643 -0.430813015 0.613299072
vn 0.383684397 -0.946441174 0.115876406
vn 0.842329383 -0.355396241 0.445886344
vn 0.628880322 0.719649971 0.29937911
vn 0.511009455 0.870031595 -0.0794062167
vn 0.428946346 0.893386841 0.163415417
vn -0.364794612 0.185480848 0.910328925
vn -0.556509137 0.472728789 0.69005686
vn -0.89161706 0.26434651 0.373576283
vn -0.381165504 0.928677559 -0.0909701735
vn -0.155293494 0.987461269 0.07162413
vn 0.0113553926 0.985853136 -0.184769347
vn -0.375687778 -0.699730814 0.474378556
vn -0.89161706 0.26434651 0.373576283
vn -0.774358273 -0.30811131 0.539869785
vn 0.738373458 0.643748164 -0.0698641464
vn 0.511009455 0.870031595 -0.0794062167
vn 0.628880322 0.719649971 0.29937911
vn 0.252901822 -0.507899046 0.841499627
vn 0.199219182 -0.580827534 0.792249143
vn 0.326814562 -0.704861701 0.638350964
vn 0.257383138 -0.476973265 0.841673255
vn 0.199219182 -0.580827534 0.792249143
vn 0.252901822 -0.507899046 0.841499627
vn -0.155293494 0.987461269 0.07162413
vn -0.252193809 0.942847192 0.217801154
vn -0.0119006177 0.918371618 0.406842411
vn 0.169271335 -0.746427894 0.653937399
vn 0.0526026487 -0.991125047 0.0957149714
vn 0.199219182 -0.580827534 0.792249143
vn -0.695842564 0.629727244 0.353669554
vn -0.475458503 0.770345807 0.42482999
vn -0.637044013 0.739722431 0.239054382
vn 0.302518249 0.942937791 -0.136575088
vn 0.0752908289 0.927831113 -0.37562114
vn 0.0327728391 0.976308644 -0.213886365
vn 0.721061289 0.488434494 0.493922919
vn 0.863419592 0.259847552 0.450598478
vn 0.958450198 0.313160539 0.0608354919
vn 0.258099347 0.193331599 -0.952097476
vn 0.428805798 0.313778818 -0.849767387
vn 0.408186257 0.176871717 -0.896320403
vn -0.0319428518 -0.135169879 -0.987129509
vn 0.205727801 -0.554058373 -0.82706058
vn -0.0031871167 -0.979630291 -0.0986739248
vn 0.174966052 -0.0563500598 -0.982241988
vn 0.205727801 -0.554058373 -0.82706058
vn -0.0319428518 -0.135169879 -0.987129509
vn 0.174966052 -0.0563500598 -0.982241988
vn 0.258099347 0.193331599 -0.952097476
vn 0.408186257 0.176871717 -0.896320403
vn 0.409270525 -0.849679947 -0.2650913
vn 0.81327492 -0.566951931 0.138225555
vn 0.383684397 -0.946441174 0.115876406
vn 0.246064156 -0.935826004 -0.0860294178
vn 0.409270525 -0.849679947 -0.2650913
vn 0.383684397 -0.946441174 0.115876406
vn -0.130777493 -0.900666595 0.188928708
vn -0.0559858754 -0.986165583 0.0130844172
vn -0.108085439 -0.936415195 -0.00645489944
vn 0.855427027 -0.0951448753 0.525415421
vn 0.842329383 -0.355396241 0.445886344
vn 0.81327492 -0.566951931 0.138225555
vn -0.768300235 -0.0248287302 -0.68217355
vn -0.648557067 -0.664978266 -0.374818325
vn -0.72361213 -0.513304353 -0.46264565
vn 0.326814562 -0.704861701 0.638350964
vn 0.0526026487 -0.991125047 0.0957149714
vn 0.383684397 -0.946441174 0.115876406
vn -0.0487134159 0.436572403 -0.904152334
vn -0.264363408 0.572114646 -0.787282467
vn 0.00764938444 0.620200694 -0.792469263
vn -0.989703715 -0.0610139444 -0.158146501
vn -0.849256039 -0.449648976 -0.278132081
vn -0.835530639 -0.515040636 -0.177455693
vn -0.108798668 -0.0201843791 1.01902008
vn -0.133023024 0.326912254 0.942933679
vn -0.364794612 0.185480848 0.910328925
vn 0.510100067 0.426985353 0.74630928
vn 0.485745192 0.282486945 0.835980773
vn 0.721061289 0.488434494 0.493922919
vn -0.264363408 0.572114646 -0.787282467
vn -0.479476422 0.871475756 -0.175059736
vn -0.165763587 0.95135206 -0.277098686
vn -0.393407464 0.909371912 0.170620039
vn -0.475458503 0.770345807 0.42482999
vn -0.17511262 0.851332903 0.496977121
vn -0.108798668 -0.0201843791 1.01902008
vn -0.180190131 -0.759684682 0.548411369
vn -0.234439731 -0.864097834 0.146594122
vn 0.87063098 0.11045336 -0.457977265
vn 0.738373458 0.643748164 -0.0698641464
vn 0.958450198 0.313160539 0.0608354919
vn -0.0119006177 0.918371618 0.406842411
vn -0.17511262 0.851332903 0.496977121
vn -0.0439657308 0.790437818 0.614572525
vn -0.8317132 0.527325988 0.202899694
vn -0.735547245 0.502381742 0.458670527
vn -0.695842564 0.629727244 0.353669554
vn -1.00200081 0.174983799 -0.00303057441
vn -0.956455231 0.303028584 -0.038267944
vn -0.989703715 -0.0610139444 -0.158146501
vn 0.82004863 -0.434057921 0.3846035
vn 0.383684397 -0.946441174 0.115876406
vn 0.81327492 -0.566951931 0.138225555
vn 0.648272872 -0.0460548699 0.784120739
vn 0.323290288 -0.0712466612 0.952284813
vn 0.252901822 -0.507899046 0.841499627
vn 0.82004863 -0.434057921 0.3846035
vn 0.842329383 -0.355396241 0.445886344
vn 0.383684397 -0.946441174 0.115876406
vn 0.0120301964 0.396198213 -0.92189151
vn 0.281395435 0.367912143 -0.888829291
vn 0.258099347 0.193331599 -0.952097476
vn -0.890715778 -0.388598889 0.336233348
vn -0.375687778 -0.699730814 0.474378556
vn -0.774358273 -0.30811131 0.539869785
vn -0.0119006177 0.918371618 0.406842411
vn 0.382356465 0.918411314 0.151237652
vn 0.141856998 0.992909431 0.0432029851
vn -0.393407464 0.909371912 0.170620039
vn -0.17511262 0.851332903 0.496977121
vn -0.252193809 0.942847192 0.217801154
vn -0.0706152767 -0.987333775 -0.0673480928
vn -0.537368119 -0.697811663 -0.469479173
vn -0.337031692 -0.391407073 -0.84000802
vn 0.0579798743 0.117267743 0.997113168
vn 0.340453446 0.373386949 0.870588005
vn 0.101722799 0.478712738 0.884177446
vn -0.738775432 -0.637139738 -0.403580099
vn -0.648557067 -0.664978266 -0.374818325
vn -0.0706152767 -0.987333775 -0.0673480928
vn 0.424422413 -0.368199617 -0.827706754
vn 0.582187176 -0.547955334 -0.605585992
vn 0.080685772 -0.968930304 -0.118086696
vn -0.0479595475 -0.992114067 0.0773990825
vn -0.0153138433 -0.708501518 0.705551445
vn -0.234439731 -0.864097834 0.146594122
vn 0.483332723 0.703284264 -0.511388242
vn 0.663205326 0.389366835 -0.655369639
vn 0.428805798 0.313778818 -0.849767387
vn -0.637044013 0.739722431 0.239054382
vn -0.475458503 0.770345807 0.42482999
vn -0.393407464 0.909371912 0.170620039
vn 0.281395435 0.367912143 -0.888829291
vn 0.263694704 0.728844047 -0.631135523
vn 0.428805798 0.313778818 -0.849767387
vn -0.989703715 -0.0610139444 -0.158146501
vn -0.927787006 0.280929118 -0.249587908
vn -0.941540658 -0.0533497222 -0.310634762
vn -0.0706152767 -0.987333775 -0.0673480928
vn -0.648557067 -0.664978266 -0.374818325
vn -0.537368119 -0.697811663 -0.469479173
vn 0.582187176 -0.547955334 -0.605585992
vn 0.664470971 -0.506334603 -0.554986358
vn 0.594809949 -0.687342703 -0.424707025
vn 0.195040926 0.744183123 0.635158837
vn 0.340453446 0.373386949 0.870588005
vn 0.510100067 0.426985353 0.74630928
vn -0.0031871167 -0.979630291 -0.0986739248
vn -0.0706152767 -0.987333775 -0.0673480928
vn -0.337031692 -0.391407073 -0.84000802
vn 0.582187176 -0.547955334 -0.605585992
vn 0.594809949 -0.687342703 -0.424707025
vn 0.257373691 -0.927677572 -0.125543997
vn 0.424422413 -0.368199617 -0.827706754
vn 0.174966052 -0.0563500598 -0.982241988
vn 0.408186257 0.176871717 -0.896320403
vn -0.0313061588 0.830567777 -0.566431999
vn 0.00764938444 0.620200694 -0.792469263
vn -0.165763587 0.95135206 -0.277098686
vn 0.0361193195 1.00168848 -0.0304604396
vn 0.0113553926 0.985853136 -0.184769347
vn -0.155293494 0.987461269 0.07162413
vn 0.00555865094 0.187046498 -0.9866063
vn 0.258099347 0.193331599 -0.952097476
vn 0.174966052 -0.0563500598 -0.982241988
vn -0.364794612 0.185480848 0.910328925
vn -0.375687778 -0.699730814 0.474378556
vn -0.180190131 -0.759684682 0.548411369
vn 0.997742295 -0.0901679024 -0.0310726687
vn 0.863419592 0.259847552 0.450598478
vn 0.855427027 -0.0951448753 0.525415421
vn 0.87063098 0.11045336 -0.457977265
vn 0.958450198 0.313160539 0.0608354919
vn 0.997742295 -0.0901679024 -0.0310726687
vn -0.364794612 0.185480848 0.910328925
vn -0.467612505 0.547299445 0.70422554
vn -0.556509137 0.472728789 0.69005686
vn -0.711470783 0.704112709 0.0502308607
vn -0.8317132 0.527325988 0.202899694
vn -0.637044013 0.739722431 0.239054382
vn 0.0752908289 0.927831113 -0.37562114
vn -0.0341909714 0.975454152 -0.23922585
vn 0.0327728391 0.976308644 -0.213886365
vn 0.0327728391 0.976308644 -0.213886365
vn -0.0341909714 0.975454152 -0.23922585
vn 0.0113553926 0.985853136 -0.184769347
vn -0.835530639 -0.515040636 -0.177455693
vn -0.314535677 -0.942582905 -0.115311228
vn -0.25975433 -0.957307875 0.0284802429
vn -0.155293494 0.987461269 0.07162413
vn -0.0119006177 0.918371618 0.406842411
vn 0.0361193195 1.00168848 -0.0304604396
vn 0.648272872 -0.0460548699 0.784120739
vn 0.855427027 -0.0951448753 0.525415421
vn 0.721061289 0.488434494 0.493922919
vn 0.594809949 -0.687342703 -0.424707025
vn 0.664470971 -0.506334603 -0.554986358
vn 0.667547405 -0.574946105 -0.491077095
vn 0.594809949 -0.687342703 -0.424707025
vn 0.667547405 -0.574946105 -0.491077095
vn 0.419598699 -0.818617702 -0.331295848
vn 0.483332723 0.703284264 -0.511388242
vn 0.263694704 0.728844047 -0.631135523
vn 0.302518249 0.942937791 -0.136575088
vn 0.246064156 -0.935826004 -0.0860294178
vn 0.556313396 -0.795581698 -0.260053813
vn 0.409270525 -0.849679947 -0.2650913
vn -0.68193841 0.596751928 0.430684537
vn -0.467612505 0.547299445 0.70422554
vn -0.412942886 0.703287959 0.58506757
vn -0.0726287365 -0.985490501 0.0632340461
vn -0.0559858754 -0.986165583 0.0130844172
vn -0.130777493 -0.900666595 0.188928708
vn 0.326814562 -0.704861701 0.638350964
vn 0.383684397 -0.946441174 0.115876406
vn 0.697814643 -0.430813015 0.613299072
vn 0.667547405 -0.574946105 -0.491077095
vn 0.87063098 0.11045336 -0.457977265
vn 0.997742295 -0.0901679024 -0.0310726687
vn -0.738775432 -0.637139738 -0.403580099
vn -0.730774581 -0.592014551 -0.342196941
vn -0.648557067 -0.664978266 -0.374818325
vn 0.00764938444 0.620200694 -0.792469263
vn 0.263694704 0.728844047 -0.631135523
vn 0.281395435 0.367912143 -0.888829291
vn 0.281395435 0.367912143 -0.888829291
vn 0.0120301964 0.396198213 -0.92189151
vn 0.00764938444 0.620200694 -0.792469263
vn -0.890715778 -0.388598889 0.336233348
vn -0.774358273 -0.30811131 0.539869785
vn -0.89161706 0.26434651 0.373576283
vn -0.72361213 -0.513304353 -0.46264565
vn -0.730774581 -0.592014551 -0.342196941
vn -0.941540658 -0.0533497222 -0.310634762
vn -0.270115584 0.239728734 -0.942710817
vn -0.0487134159 0.436572403 -0.904152334
vn 0.00555865094 0.187046498 -0.9866063
vn 0.00555865094 0.187046498 -0.9866063
vn -0.0487134159 0.436572403 -0.904152334
vn 0.0120301964 0.396198213 -0.92189151
vn 0.263694704 0.728844047 -0.631135523
vn -0.0313061588 0.830567777 -0.566431999
vn 0.0752908289 0.927831113 -0.37562114
vn -0.191086248 0.718503296 0.674406171
vn -0.467612505 0.547299445 0.70422554
vn -0.133023024 0.326912254 0.942933679
vn 0.101722799 0.478712738 0.884177446
vn -0.191086248 0.718503296 0.674406171
vn -0.133023024 0.326912254 0.942933679
vn 0.195040926 0.744183123 0.635158837
vn 0.510100067 0.426985353 0.74630928
vn 0.628880322 0.719649971 0.29937911
vn 0.101722799 0.478712738 0.884177446
vn -0.0439657308 0.790437818 0.614572525
vn -0.191086248 0.718503296 0.674406171
vn 0.582187176 -0.547955334 -0.605585992
vn 0.624074042 0.00455600629 -0.785536051
vn 0.664470971 -0.506334603 -0.554986358
vn -0.264363408 0.572114646 -0.787282467
vn -0.487628877 0.564471424 -0.667232931
vn -0.479476422 0.871475756 -0.175059736
vn 0.428946346 0.893386841 0.163415417
vn 0.511009455 0.870031595 -0.0794062167
vn 0.382356465 0.918411314 0.151237652
vn 0.323290288 -0.0712466612 0.952284813
vn 0.340453446 0.373386949 0.870588005
vn 0.0579798743 0.117267743 0.997113168
vn 0.855427027 -0.0951448753 0.525415421
vn 0.81327492 -0.566951931 0.138225555
vn 0.997742295 -0.0901679024 -0.0310726687
vn 0.997742295 -0.0901679024 -0.0310726687
vn 0.81327492 -0.566951931 0.138225555
vn 0.838876188 -0.556770265 -0.147418916
vn -0.711470783 0.704112709 0.0502308607
vn -0.637044013 0.739722431 0.239054382
vn -0.381165504 0.928677559 -0.0909701735
vn -0.835530639 -0.515040636 -0.177455693
vn -0.738775432 -0.637139738 -0.403580099
vn -0.314535677 -0.942582905 -0.115311228
vn 0.428946346 0.893386841 0.163415417
vn 0.382356465 0.918411314 0.151237652
vn 0.195040926 0.744183123 0.635158837
vn -0.270115584 0.239728734 -0.942710817
vn -0.264363408 0.572114646 -0.787282467
vn -0.0487134159 0.436572403 -0.904152334
vn -0.487628877 0.564471424 -0.667232931
vn -0.264363408 0.572114646 -0.787282467
vn -0.270115584 0.239728734 -0.942710817
vn 0.428805798 0.313778818 -0.849767387
vn 0.263694704 0.728844047 -0.631135523
vn 0.483332723 0.703284264 -0.511388242
vn -0.0313061588 0.830567777 -0.566431999
vn -0.165763587 0.95135206 -0.277098686
vn -0.0341909714 0.975454152 -0.23922585
vn 0.0752908289 0.927831113 -0.37562114
vn -0.0313061588 0.830567777 -0.566431999
vn -0.0341909714 0.975454152 -0.23922585
vn 0.141856998 0.992909431 0.0432029851
vn 0.0361193195 1.00168848 -0.0304604396
vn -0.0119006177 0.918371618 0.406842411
vn -0.108798668 -0.0201843791 1.01902008
vn -0.234439731 -0.864097834 0.146594122
vn -0.0153138433 -0.708501518 0.705551445
vn -0.133023024 0.326912254 0.942933679
vn -0.467612505 0.547299445 0.70422554
vn -0.364794612 0.185480848 0.910328925
vn 0.246064156 -0.935826004 -0.0860294178
vn 0.257373691 -0.927677572 -0.125543997
vn 0.556313396 -0.795581698 -0.260053813
vn -0.0439657308 0.790437818 0.614572525
vn 0.195040926 0.744183123 0.635158837
vn -0.0119006177 0.918371618 0.406842411
vn 0.0579798743 0.117267743 0.997113168
vn 0.119530335 -0.231001958 0.978057504
vn 0.323290288 -0.0712466612 0.952284813
vn -0.165763587 0.95135206 -0.277098686
vn -0.479476422 0.871475756 -0.175059736
vn -0.381165504 0.928677559 -0.0909701735
vn 0.263694704 0.728844047 -0.631135523
vn 0.00764938444 0.620200694 -0.792469263
vn -0.0313061588 0.830567777 -0.566431999
vn 0.258099347 0.193331599 -0.952097476
vn 0.00555865094 0.187046498 -0.9866063
vn 0.0120301964 0.396198213 -0.92189151
vn -0.735547245 0.502381742 0.458670527
vn -0.68193841 0.596751928 0.430684537
vn -0.695842564 0.629727244 0.353669554
vn -0.467612505 0.547299445 0.70422554
vn -0.735547245 0.502381742 0.458670527
vn -0.556509137 0.472728789 0.69005686
vn -1.00200081 0.174983799 -0.00303057441
vn -0.89161706 0.26434651 0.373576283
vn -0.8317132 0.527325988 0.202899694
vn -0.375687778 -0.699730814 0.474378556
vn -0.485887676 -0.8555094 -0.00292403507
vn -0.180190131 -0.759684682 0.548411369
vn 0.738373458 0.643748164 -0.0698641464
vn 0.663205326 0.389366835 -0.655369639
vn 0.511009455 0.870031595 -0.0794062167
vn 0.511009455 0.870031595 -0.0794062167
vn 0.663205326 0.389366835 -0.655369639
vn 0.483332723 0.703284264 -0.511388242
vn -0.337031692 -0.391407073 -0.84000802
vn -0.270115584 0.239728734 -0.942710817
vn -0.0319428518 -0.135169879 -0.987129509
vn 0.855427027 -0.0951448753 0.525415421
vn 0.697814643 -0.430813015 0.613299072
vn 0.842329383 -0.355396241 0.445886344
vn 0.302518249 0.942937791 -0.136575088
vn 0.0113553926 0.985853136 -0.184769347
vn 0.0361193195 1.00168848 -0.0304604396
vn -0.695842564 0.629727244 0.353669554
vn -0.637044013 0.739722431 0.239054382
vn -0.8317132 0.527325988 0.202899694
vn -0.0319428518 -0.135169879 -0.987129509
vn 0.00555865094 0.187046498 -0.9866063
vn 0.174966052 -0.0563500598 -0.982241988
vn 0.0113553926 0.985853136 -0.184769347
vn -0.165763587 0.95135206 -0.277098686
vn -0.381165504 0.928677559 -0.0909701735
vn 0.302718252 -0.436953753 -0.886444807
vn 0.424422413 -0.368199617 -0.827706754
vn 0.080685772 -0.968930304 -0.118086696
vn 0.667547405 -0.574946105 -0.491077095
vn 0.664470971 -0.506334603 -0.554986358
vn 0.624074042 0.00455600629 -0.785536051
vn 0.648272872 -0.0460548699 0.784120739
vn 0.326814562 -0.704861701 0.638350964
vn 0.697814643 -0.430813015 0.613299072
vn -0.890715778 -0.388598889 0.336233348
vn -0.835530639 -0.515040636 -0.177455693
vn -0.25975433 -0.957307875 0.0284802429
vn -0.890715778 -0.388598889 0.336233348
vn -1.00200081 0.174983799 -0.00303057441
vn -0.835530639 -0.515040636 -0.177455693
vn 0.174966052 -0.0563500598 -0.982241988
vn 0.424422413 -0.368199617 -0.827706754
vn 0.302718252 -0.436953753 -0.886444807
vn 0.721061289 0.488434494 0.493922919
vn 0.958450198 0.313160539 0.0608354919
vn 0.738373458 0.643748164 -0.0698641464
vn 0.628880322 0.719649971 0.29937911
vn 0.510100067 0.426985353 0.74630928
vn 0.721061289 0.488434494 0.493922919
vn 0.648272872 -0.0460548699 0.784120739
vn 0.697814643 -0.430813015 0.613299072
vn 0.855427027 -0.0951448753 0.525415421
vn -0.89161706 0.26434651 0.373576283
vn -1.00200081 0.174983799 -0.00303057441
vn -0.890715778 -0.388598889 0.336233348
vn 0.0579798743 0.117267743 0.997113168
vn -0.133023024 0.326912254 0.942933679
vn -0.108798668 -0.0201843791 1.01902008
vn -0.375687778 -0.699730814 0.474378556
vn -0.130777493 -0.900666595 0.188928708
vn -0.485887676 -0.8555094 -0.00292403507
vn 0.195040926 0.744183123 0.635158837
vn 0.628880322 0.719649971 0.29937911
vn 0.428946346 0.893386841 0.163415417
vn 0.302518249 0.942937791 -0.136575088
vn 0.263694704 0.728844047 -0.631135523
vn 0.0752908289 0.927831113 -0.37562114
vn -0.191086248 0.718503296 0.674406171
vn -0.412942886 0.703287959 0.58506757
vn -0.467612505 0.547299445 0.70422554
vn -0.0706152767 -0.987333775 -0.0673480928
vn 0.0526026487 -0.991125047 0.0957149714
vn -0.0479595475 -0.992114067 0.0773990825
vn 0.0526026487 -0.991125047 0.0957149714
vn -0.0031871167 -0.979630291 -0.0986739248
vn 0.080685772 -0.968930304 -0.118086696
vn -0.0559858754 -0.986165583 0.0130844172
vn -0.0706152767 -0.987333775 -0.0673480928
vn -0.0479595475 -0.992114067 0.0773990825
vn -0.0031871167 -0.979630291 -0.0986739248
vn 0.0526026487 -0.991125047 0.0957149714
vn -0.0706152767 -0.987333775 -0.0673480928
vn 0.0526026487 -0.991125047 0.0957149714
vn 0.080685772 -0.968930304 -0.118086696
vn 0.257373691 -0.927677572 -0.125543997
vn -0.0726287365 -0.985490501 0.0632340461
vn -0.0706152767 -0.987333775 -0.0673480928
vn -0.0559858754 -0.986165583 0.0130844172
vn -0.314535677 -0.942582905 -0.115311228
vn -0.0726287365 -0.985490501 0.0632340461
vn -0.25975433 -0.957307875 0.0284802429
vn 0.246064156 -0.935826004 -0.0860294178
vn 0.383684397 -0.946441174 0.115876406
vn 0.0526026487 -0.991125047 0.0957149714
vn 0.0526026487 -0.991125047 0.0957149714
vn 0.257373691 -0.927677572 -0.125543997
vn 0.246064156 -0.935826004 -0.0860294178
vn -0.0479595475 -0.992114067 0.0773990825
vn 0.0526026487 -0.991125047 0.0957149714
vn 0.169271335 -0.746427894 0.653937399
vn -0.0031871167 -0.979630291 -0.0986739248
vn 0.205727801 -0.554058373 -0.82706058
vn 0.080685772 -0.968930304 -0.118086696
vn -0.314535677 -0.942582905 -0.115311228
vn -0.0706152767 -0.987333775 -0.0673480928
vn -0.0726287365 -0.985490501 0.0632340461
vn -0.108085439 -0.936415195 -0.00645489944
vn -0.0559858754 -0.986165583 0.0130844172
vn -0.0479595475 -0.992114067 0.0773990825
vn -0.314535677 -0.942582905 -0.115311228
vn -0.738775432 -0.637139738 -0.403580099
vn -0.0706152767 -0.987333775 -0.0673480928
g Group62776
f 127/1/1 126/2/2 8/3/3
f 70/4/4 38/5/5 23/6/6
f 23/7/7 43/8/8 3/9/9
f 75/10/10 7/11/11 54/12/12
f 98/13/13 120/14/14 84/15/15
f 31/16/16 44/17/17 59/18/18
f 11/19/19 62/20/20 25/21/21
f 105/22/22 102/23/23 6/24/24
f 118/25/25 58/26/26 8/27/27
f 15/28/28 71/29/29 2/30/30
f 77/31/31 92/32/32 15/33/33
f 12/34/34 7/35/35 78/36/36
f 54/37/37 111/38/38 20/39/39
f 89/40/40 31/41/41 41/42/42
f 46/43/43 42/44/44 13/45/45
f 58/46/46 64/47/47 8/48/48
f 55/49/49 66/50/50 25/51/51
f 98/52/52 99/53/53 28/54/54
f 74/55/55 27/56/56 35/57/57
f 34/58/58 86/59/59 46/60/60
f 77/61/61 40/62/62 92/63/63
f 80/64/64 125/65/65 95/66/66
f 96/67/67 88/68/68 26/69/69
f 18/70/70 78/71/71 16/72/72
f 59/73/73 44/74/74 48/75/75
f 24/76/76 113/77/77 45/78/78
f 103/79/79 119/80/80 47/81/81
f 44/82/82 10/83/83 48/84/84
f 10/85/85 4/86/86 48/87/87
f 49/88/88 28/89/89 99/90/90
f 103/91/91 45/92/92 57/93/93
f 55/94/94 102/95/95 66/96/96
f 56/97/97 42/98/98 46/99/99
f 68/100/100 59/101/101 52/102/102
f 59/103/103 48/104/104 63/105/105
f 101/106/106 115/107/107 5/108/108
f 7/109/109 121/110/110 94/111/111
f 32/112/112 87/113/113 13/114/114
f 41/115/115 31/116/116 61/117/117
f 31/118/118 59/119/119 68/120/120
f 5/121/121 39/122/122 62/123/123
f 100/124/124 81/125/125 52/126/126
f 30/127/127 93/128/128 75/129/129
f 93/130/130 120/131/131 69/132/132
f 67/133/133 8/134/134 116/135/135
f 1/136/136 68/137/137 83/138/138
f 119/139/139 43/140/140 16/141/141
f 16/142/142 43/143/143 18/144/144
f 61/145/145 29/146/146 41/147/147
f 98/148/148 28/149/149 73/150/150
f 57/151/151 76/152/152 103/153/153
f 52/154/154 81/155/155 17/156/156
f 82/157/157 96/158/158 26/159/159
f 73/160/160 82/161/161 26/162/162
f 25/163/163 66/164/164 11/165/165
f 83/166/166 52/167/167 90/168/168
f 19/169/169 4/170/170 85/171/171
f 87/172/172 6/173/173 1/174/174
f 87/175/175 60/176/176 6/177/177
f 42/178/178 26/179/179 88/180/180
f 89/181/181 44/182/182 31/183/183
f 44/184/184 89/185/185 10/186/186
f 20/187/187 36/188/188 54/189/189
f 117/190/190 3/191/191 43/192/192
f 43/193/193 71/194/194 117/195/195
f 47/196/196 33/197/197 94/198/198
f 114/199/199 35/200/200 126/201/201
f 115/202/202 49/203/203 99/204/204
f 97/205/205 39/206/206 118/207/207
f 43/208/208 23/209/209 18/210/210
f 61/211/211 31/212/212 68/213/213
f 99/214/214 98/215/215 84/216/216
f 99/217/217 84/218/218 36/219/219
f 17/220/220 81/221/221 90/222/222
f 10/223/223 21/224/224 104/225/225
f 49/226/226 32/227/227 96/228/228
f 30/229/229 36/230/230 84/231/231
f 61/232/232 68/233/233 1/234/234
f 63/235/235 48/236/236 122/237/237
f 97/238/238 125/239/239 25/240/240
f 19/241/241 48/242/242 4/243/243
f 122/244/244 19/245/245 100/246/246
f 76/247/247 107/248/248 103/249/249
f 54/250/250 36/251/251 75/252/252
f 102/253/253 55/254/254 91/255/255
f 118/256/256 8/257/257 67/258/258
f 45/259/259 103/260/260 53/261/261
f 103/262/262 47/263/263 53/264/264
f 20/265/265 39/266/266 5/267/267
f 108/268/268 74/269/269 79/270/270
f 107/271/271 76/272/272 2/273/273
f 95/274/274 29/275/275 80/276/276
f 63/277/277 100/278/278 52/279/279
f 29/280/280 123/281/281 80/282/282
f 4/283/283 104/284/284 109/285/285
f 46/286/286 86/287/287 56/288/288
f 13/289/289 34/290/290 46/291/291
f 110/292/292 65/293/293 24/294/294
f 12/295/295 58/296/296 72/297/297
f 32/298/298 60/299/299 87/300/300
f 29/301/301 95/302/302 126/303/303
f 13/304/304 87/305/305 124/306/306
f 78/307/307 58/308/308 12/309/309
f 30/310/310 120/311/311 93/312/312
f 84/313/313 120/314/314 30/315/315
f 95/316/316 125/317/317 97/318/318
f 98/319/319 69/320/320 120/321/321
f 91/322/322 55/323/323 123/324/324
f 8/325/325 51/326/326 127/327/327
f 7/328/328 94/329/329 33/330/330
f 70/331/331 23/332/332 3/333/333
f 104/334/334 77/335/335 109/336/336
f 40/337/337 77/338/338 104/339/339
f 40/340/340 70/341/341 3/342/342
f 57/343/343 45/344/344 65/345/345
f 9/346/346 57/347/347 65/348/348
f 42/349/349 22/350/350 26/351/351
f 121/352/352 24/353/353 45/354/354
f 48/355/355 19/356/356 122/357/357
f 93/358/358 69/359/359 65/360/360
f 108/361/361 27/362/362 74/363/363
f 52/364/364 17/365/365 90/366/366
f 49/367/367 101/368/368 32/369/369
f 111/370/370 54/371/371 7/372/372
f 27/373/373 41/374/374 35/375/375
f 80/376/376 55/377/377 25/378/378
f 49/379/379 96/380/380 82/381/381
f 16/382/382 78/383/383 33/384/384
f 97/385/385 25/386/386 62/387/387
f 1/388/388 6/389/389 91/390/390
f 83/391/391 68/392/392 52/393/393
f 113/394/394 65/395/395 45/396/396
f 75/397/397 36/398/398 30/399/399
f 113/400/400 24/401/401 65/402/402
f 79/403/403 38/404/404 70/405/405
f 34/406/406 13/407/407 124/408/408
f 97/409/409 118/410/410 67/411/411
f 80/412/412 25/413/413 125/414/414
f 14/415/415 85/416/416 4/417/417
f 115/418/418 20/419/419 5/420/420
f 81/421/421 19/422/422 14/423/423
f 117/424/424 71/425/425 15/426/426
f 73/427/427 28/428/428 82/429/429
f 64/430/430 18/431/431 23/432/432
f 123/433/433 55/434/434 80/435/435
f 38/436/436 112/437/437 23/438/438
f 52/439/439 59/440/440 63/441/441
f 14/442/442 19/443/443 85/444/444
f 71/445/445 50/446/446 107/447/447
f 39/448/448 20/449/449 111/450/450
f 109/451/451 14/452/452 4/453/453
f 71/454/454 107/455/455 2/456/456
f 117/457/457 40/458/458 3/459/459
f 106/460/460 74/461/461 35/462/462
f 116/463/463 126/464/464 95/465/465
f 21/466/466 70/467/467 40/468/468
f 32/469/469 13/470/470 96/471/471
f 47/472/472 94/473/473 121/474/474
f 16/475/475 33/476/476 47/477/477
f 32/478/478 105/479/479 60/480/480
f 61/481/481 1/482/482 123/483/483
f 51/484/484 114/485/485 127/486/486
f 127/487/487 114/488/488 126/489/489
f 90/490/490 37/491/491 86/492/492
f 95/493/493 97/494/494 116/495/495
f 75/496/496 121/497/497 7/498/498
f 107/499/499 50/500/500 119/501/501
f 107/502/502 119/503/503 103/504/504
f 64/505/505 112/506/506 8/507/507
f 9/508/508 76/509/509 57/510/510
f 102/511/511 105/512/512 66/513/513
f 56/514/514 22/515/515 42/516/516
f 93/517/517 65/518/518 110/519/519
f 119/520/520 16/521/521 47/522/522
f 81/523/523 100/524/524 19/525/525
f 74/526/526 112/527/527 38/528/528
f 38/529/529 79/530/530 74/531/531
f 34/532/532 124/533/533 87/534/534
f 122/535/535 100/536/536 63/537/537
f 10/538/538 108/539/539 21/540/540
f 21/541/541 108/542/542 79/543/543
f 112/544/544 106/545/545 51/546/546
f 11/547/547 105/548/548 101/549/549
f 5/550/550 11/551/551 101/552/552
f 39/553/553 111/554/554 12/555/555
f 5/556/556 62/557/557 11/558/558
f 71/559/559 43/560/560 50/561/561
f 27/562/562 89/563/563 41/564/564
f 72/565/565 58/566/566 118/567/567
f 36/568/568 20/569/569 115/570/570
f 121/571/571 45/572/572 47/573/573
f 47/574/574 45/575/575 53/576/576
f 61/577/577 123/578/578 29/579/579
f 90/580/580 81/581/581 37/582/582
f 72/583/583 118/584/584 39/585/585
f 10/586/586 27/587/587 108/588/588
f 89/589/589 27/590/590 10/591/591
f 23/592/592 112/593/593 64/594/594
f 106/595/595 35/596/596 114/597/597
f 51/598/598 106/599/599 114/600/600
f 67/601/601 116/602/602 97/603/603
f 49/604/604 82/605/605 28/606/606
f 101/607/607 105/608/608 32/609/609
f 9/610/610 2/611/611 76/612/612
f 62/613/613 39/614/614 97/615/615
f 115/616/616 99/617/617 36/618/618
f 35/619/619 41/620/620 29/621/621
f 112/622/622 74/623/623 106/624/624
f 70/625/625 21/626/626 79/627/627
f 6/628/628 102/629/629 91/630/630
f 105/631/631 6/632/632 60/633/633
f 83/634/634 87/635/635 1/636/636
f 13/637/637 88/638/638 96/639/639
f 78/640/640 18/641/641 58/642/642
f 58/643/643 18/644/644 64/645/645
f 4/646/646 10/647/647 104/648/648
f 121/649/649 110/650/650 24/651/651
f 8/652/652 126/653/653 116/654/654
f 91/655/655 123/656/656 1/657/657
f 104/658/658 21/659/659 40/660/660
f 126/661/661 35/662/662 29/663/663
f 92/664/664 117/665/665 15/666/666
f 119/667/667 50/668/668 43/669/669
f 75/670/670 93/671/671 110/672/672
f 34/673/673 90/674/674 86/675/675
f 34/676/676 83/677/677 90/678/678
f 40/679/679 117/680/680 92/681/681
f 7/682/682 33/683/683 78/684/684
f 12/685/685 111/686/686 7/687/687
f 75/688/688 110/689/689 121/690/690
f 87/691/691 83/692/692 34/693/693
f 115/694/694 101/695/695 49/696/696
f 13/697/697 42/698/698 88/699/699
f 39/700/700 12/701/701 72/702/702
f 8/703/703 112/704/704 51/705/705
f 11/706/706 66/707/707 105/708/708
f 14/709/709 69/710/710 73/711/711
f 69/712/712 109/713/713 15/714/714
f 22/715/715 14/716/716 73/717/717
f 109/718/718 69/719/719 14/720/720
f 69/721/721 15/722/722 2/723/723
f 56/724/724 14/725/725 22/726/726
f 37/727/727 56/728/728 86/729/729
f 9/730/730 65/731/731 69/732/732
f 69/733/733 2/734/734 9/735/735
f 73/736/736 69/737/737 98/738/738
f 109/739/739 77/740/740 15/741/741
f 37/742/742 14/743/743 56/744/744
f 26/745/745 22/746/746 73/747/747
f 37/748/748 81/749/749 14/750/750
