# File exported by Houdini 16.5.405 (www.sidefx.com)
# 49 points
# 282 vertices
# 94 primitives
# Bounds: [-153.065628, -1.92234492, -135.250839] to [154.325806, 184.680054, 127.492989]
g 
v -133.199615 119.079857 -27.6924038
v 68.1154251 -1.83391154 -70.8805466
v 46.5176163 29.1327724 -119.046143
v -84.0981522 26.5495872 -126.249588
v 7.55317211 90.4759369 127.492989
v -138.932373 56.3695869 81.6909943
v 137.263824 83.9360046 59.0556068
v 37.7686577 175.774475 -22.2922077
v 106.929466 4.01714468 16.3966541
v -84.1706848 80.2555237 -122.106705
v -13.687356 134.134918 98.3462982
v 72.2504425 149.560715 70.7429352
v -113.049568 22.924511 111.221725
v -48.6063843 -1.88691998 -114.273376
v 138.745621 63.733139 -53.7523918
v -149.429001 23.669548 -10.713707
v 65.1032181 143.106552 -81.1956253
v -117.07724 41.1273804 -99.4370117
v -46.4809456 28.2423458 -135.250839
v -63.9187393 -1.92234492 82.5240326
v 139.537552 22.844511 52.6196442
v -52.5368347 180.562119 16.6552448
v -93.8021469 143.411972 -89.1232224
v -11.2559214 6.26575994 125.307404
v 43.4091415 16.208086 116.55365
v -108.316612 57.8282051 115.197685
v 146.579575 93.6837006 16.7952175
v -153.065628 26.1611748 69.6069641
v -21.9383392 169.564758 -75.4955597
v 54.2162209 51.9164162 126.651573
v -149.579239 9.72195053 24.8293781
v 4.26923275 45.8308182 -129.602402
v -136.41478 70.8300323 -85.8502274
v 154.325806 23.9455261 12.8848219
v -128.067307 -0.418518305 55.3331261
v -76.2164841 12.2755966 125.590004
v 93.9536514 27.6181526 -78.5961456
v -90.3947678 147.191345 40.3482361
v 125.263023 128.426422 -11.6027222
v 114.260124 -1.91488647 66.3108521
v -13.7333021 184.680054 2.27268195
v 50.745327 165.14328 45.4602928
v -38.4402199 132.343124 -111.017822
v 138.080093 39.77145 70.7630386
v -5.96399498 3.84580088 -118.525009
v 107.46331 7.79955387 86.0759811
v -142.496338 39.1226997 -49.5223427
v 138.664917 32.5479355 -32.0158157
v -7.63384056 172.882187 -53.7135201
vt 0.936190009 0.357899994 0
vt 0.943387508 0.466830254 0
vt 0.853902161 0.410984367 0
vt 0.805908084 0.309464246 0
vt 0.641115665 0.299438894 0
vt 0.725804925 0.129324198 0
vt 0.0783029422 0.646328747 0
vt 0.109429397 0.555622041 0
vt 0.255362391 0.698599339 0
vt 0.504520237 0.757211924 0
vt 0.558039725 0.566979349 0
vt 0.579539478 0.760698259 0
vt 0.80074054 0.520972788 0
vt 0.699912667 0.392483354 0
vt 0.853902161 0.410984367 0
vt 0.230552897 0.0288871545 0
vt 0.326802135 -0.00781960879 0
vt 0.367685288 0.0929430276 0
vt 0.739444852 0.549300075 0
vt 0.596524239 0.474822879 0
vt 0.699912667 0.392483354 0
vt 0.255362391 0.698599339 0
vt 0.275783867 0.504534781 0
vt 0.342667282 0.662897646 0
vt 0.699912667 0.392483354 0
vt 0.805908084 0.309464246 0
vt 0.853902161 0.410984367 0
vt 0.754636943 0.972580612 0
vt 0.752634764 0.874854565 0
vt 0.860963166 0.950578332 0
vt 0.0432995334 0.4002105 0
vt 0.0382893607 0.316975147 0
vt 0.0866102278 0.356733412 0
vt 0.76169467 0.0239805374 0
vt 0.805671573 0.0991748795 0
vt 0.725804925 0.129324198 0
vt 0.192590669 0.45700711 0
vt 0.124601156 0.446047217 0
vt 0.202659532 0.381903857 0
vt 0.805908084 0.309464246 0
vt 0.699912667 0.392483354 0
vt 0.641115665 0.299438894 0
vt 0.654640436 0.910874069 0
vt 0.567516804 0.907749772 0
vt 0.649786949 0.816954195 0
vt 0.434607267 0.814346015 0
vt 0.330973566 0.797846079 0
vt 0.255362391 0.698599339 0
vt 0.524306297 0.131505519 0
vt 0.556688309 0.216990843 0
vt 0.465121686 0.233651116 0
vt 0.745494127 0.763501048 0
vt 0.649786949 0.816954195 0
vt 0.606487453 0.680606484 0
vt 0.504520237 0.757211924 0
vt 0.579539478 0.760698259 0
vt 0.504514158 0.816013753 0
vt 0.342667282 0.662897646 0
vt 0.275783867 0.504534781 0
vt 0.397680879 0.59582603 0
vt 0.247170582 0.757664442 0
vt 0.115710393 0.732645154 0
vt 0.0783029422 0.646328747 0
vt 0.480463356 0.354792088 0
vt 0.387292117 0.424273223 0
vt 0.484103948 0.318323106 0
vt 0.745494127 0.763501048 0
vt 0.933943689 0.783697963 0
vt 0.752634764 0.874854565 0
vt 0.517170429 0.470270991 0
vt 0.558039725 0.566979349 0
vt 0.397680879 0.59582603 0
vt 0.659681141 0.545648038 0
vt 0.606487453 0.680606484 0
vt 0.600432992 0.610179901 0
vt 0.752634764 0.874854565 0
vt 0.649786949 0.816954195 0
vt 0.745494127 0.763501048 0
vt 0.649786949 0.816954195 0
vt 0.752634764 0.874854565 0
vt 0.654640436 0.910874069 0
vt 0.641115665 0.299438894 0
vt 0.648134351 0.20230107 0
vt 0.725804925 0.129324198 0
vt 0.53086859 0.352638155 0
vt 0.6313954 0.410250008 0
vt 0.596524239 0.474822879 0
vt 0.342667282 0.662897646 0
vt 0.434607267 0.814346015 0
vt 0.255362391 0.698599339 0
vt 0.517170429 0.470270991 0
vt 0.275783867 0.504534781 0
vt 0.325290024 0.464135796 0
vt 0.255362391 0.698599339 0
vt 0.330973566 0.797846079 0
vt 0.247170582 0.757664442 0
vt 0.600640774 0.841885269 0
vt 0.649786949 0.816954195 0
vt 0.567516804 0.907749772 0
vt 0.465121686 0.233651116 0
vt 0.427105159 0.0549473241 0
vt 0.524306297 0.131505519 0
vt 0.80074054 0.520972788 0
vt 0.853902161 0.410984367 0
vt 0.943387508 0.466830254 0
vt 0.427105159 0.0549473241 0
vt 0.465121686 0.233651116 0
vt 0.367685288 0.0929430276 0
vt 0.649786949 0.816954195 0
vt 0.612181544 0.753281772 0
vt 0.606487453 0.680606484 0
vt 0.0854196623 0.0313434117 0
vt 0.146915525 -0.00389236654 0
vt 0.160324663 0.053738866 0
vt 0.124601156 0.446047217 0
vt 0.0432995334 0.4002105 0
vt 0.0866102278 0.356733412 0
vt 0.480463356 0.354792088 0
vt 0.484103948 0.318323106 0
vt 0.542344928 0.295283079 0
vt 0.739444852 0.549300075 0
vt 0.699912667 0.392483354 0
vt 0.80074054 0.520972788 0
vt 0.504514158 0.816013753 0
vt 0.579539478 0.760698259 0
vt 0.60807699 0.817540467 0
vt 0.299038023 0.441496372 0
vt 0.484103948 0.318323106 0
vt 0.387292117 0.424273223 0
vt 0.853902161 0.410984367 0
vt 0.959702313 0.315789908 0
vt 0.936190009 0.357899994 0
vt 0.805671573 0.0991748795 0
vt 0.805908084 0.309464246 0
vt 0.725804925 0.129324198 0
vt 0.146915525 -0.00389236654 0
vt 0.230552897 0.0288871545 0
vt 0.160324663 0.053738866 0
vt 0.805671573 0.0991748795 0
vt 0.76169467 0.0239805374 0
vt 0.864655375 0.00901446585 0
vt 0.465121686 0.233651116 0
vt 0.556688309 0.216990843 0
vt 0.484103948 0.318323106 0
vt 0.508808732 0.466751009 0
vt 0.490674406 0.422185808 0
vt 0.53086859 0.352638155 0
vt 0.434607267 0.814346015 0
vt 0.342667282 0.662897646 0
vt 0.504520237 0.757211924 0
vt 0.275783867 0.504534781 0
vt 0.255362391 0.698599339 0
vt 0.109429397 0.555622041 0
vt 0.641115665 0.299438894 0
vt 0.699912667 0.392483354 0
vt 0.6313954 0.410250008 0
vt 0.745494127 0.763501048 0
vt 0.727197707 0.541641414 0
vt 0.874660671 0.694759071 0
vt 0.659681141 0.545648038 0
vt 0.745494127 0.763501048 0
vt 0.606487453 0.680606484 0
vt 0.542344928 0.295283079 0
vt 0.484103948 0.318323106 0
vt 0.556688309 0.216990843 0
vt 0.0783029422 0.646328747 0
vt 0.255362391 0.698599339 0
vt 0.247170582 0.757664442 0
vt 0.964593649 0.203800499 0
vt 0.805908084 0.309464246 0
vt 0.805671573 0.0991748795 0
vt 0.517170429 0.470270991 0
vt 0.325290024 0.464135796 0
vt 0.462747693 0.418871105 0
vt 0.0128960116 0.254767746 0
vt 0.0233963206 0.086602658 0
vt 0.160324663 0.053738866 0
vt 0.326802135 -0.00781960879 0
vt 0.427105159 0.0549473241 0
vt 0.367685288 0.0929430276 0
vt 0.202659532 0.381903857 0
vt 0.299038023 0.441496372 0
vt 0.192590669 0.45700711 0
vt 0.160324663 0.053738866 0
vt 0.0233963206 0.086602658 0
vt 0.0854196623 0.0313434117 0
vt 0.504520237 0.757211924 0
vt 0.504514158 0.816013753 0
vt 0.434607267 0.814346015 0
vt 0.53086859 0.352638155 0
vt 0.596524239 0.474822879 0
vt 0.508808732 0.466751009 0
vt 0.641115665 0.299438894 0
vt 0.6313954 0.410250008 0
vt 0.53086859 0.352638155 0
vt 0.910600007 0.94115001 0
vt 0.860963166 0.950578332 0
vt 0.977569222 0.851981819 0
vt 0.0866102278 0.356733412 0
vt 0.202659532 0.381903857 0
vt 0.124601156 0.446047217 0
vt 0.586978912 0.288646698 0
vt 0.641115665 0.299438894 0
vt 0.53086859 0.352638155 0
vt 0.0128960116 0.254767746 0
vt -0.00250956672 0.182778224 0
vt 0.0233963206 0.086602658 0
vt 0.600640774 0.841885269 0
vt 0.612181544 0.753281772 0
vt 0.649786949 0.816954195 0
vt 0.654640436 0.910874069 0
vt 0.754636943 0.972580612 0
vt 0.566541851 0.979002237 0
vt 0.397680879 0.59582603 0
vt 0.504520237 0.757211924 0
vt 0.342667282 0.662897646 0
vt 0.745494127 0.763501048 0
vt 0.874660671 0.694759071 0
vt 0.933943689 0.783697963 0
vt 0.654640436 0.910874069 0
vt 0.752634764 0.874854565 0
vt 0.754636943 0.972580612 0
vt 0.397680879 0.59582603 0
vt 0.275783867 0.504534781 0
vt 0.517170429 0.470270991 0
vt 0.860963166 0.950578332 0
vt 0.752634764 0.874854565 0
vt 0.933943689 0.783697963 0
vt 0.805908084 0.309464246 0
vt 0.964593649 0.203800499 0
vt 0.959702313 0.315789908 0
vt 0.805671573 0.0991748795 0
vt 0.864655375 0.00901446585 0
vt 0.964593649 0.203800499 0
vt 0.659681141 0.545648038 0
vt 0.727197707 0.541641414 0
vt 0.745494127 0.763501048 0
vt 0.567516804 0.907749772 0
vt 0.654640436 0.910874069 0
vt 0.566541851 0.979002237 0
vt 0.0783029422 0.646328747 0
vt 0.115710393 0.732645154 0
vt 0.033066418 0.668290138 0
vt 0.977569222 0.851981819 0
vt 0.860963166 0.950578332 0
vt 0.933943689 0.783697963 0
vt 0.586978912 0.288646698 0
vt 0.648134351 0.20230107 0
vt 0.641115665 0.299438894 0
vt 0.596524239 0.474822879 0
vt 0.6313954 0.410250008 0
vt 0.699912667 0.392483354 0
vt 0.853902161 0.410984367 0
vt 0.805908084 0.309464246 0
vt 0.959702313 0.315789908 0
vt 0.397680879 0.59582603 0
vt 0.558039725 0.566979349 0
vt 0.504520237 0.757211924 0
vt 0.160324663 0.053738866 0
vt 0.484103948 0.318323106 0
vt 0.202659532 0.381903857 0
vt 0.484103948 0.318323106 0
vt 0.160324663 0.053738866 0
vt 0.367685288 0.0929430276 0
vt 0.0866102278 0.356733412 0
vt 0.160324663 0.053738866 0
vt 0.202659532 0.381903857 0
vt 0.484103948 0.318323106 0
vt 0.367685288 0.0929430276 0
vt 0.465121686 0.233651116 0
vt 0.202659532 0.381903857 0
vt 0.484103948 0.318323106 0
vt 0.299038023 0.441496372 0
vt 0.160324663 0.053738866 0
vt 0.230552897 0.0288871545 0
vt 0.367685288 0.0929430276 0
vt 0.0382893607 0.316975147 0
vt 0.160324663 0.053738866 0
vt 0.0866102278 0.356733412 0
vt 0.0382893607 0.316975147 0
vt 0.0128960116 0.254767746 0
vt 0.160324663 0.053738866 0
vn 0.0327728391 0.976308644 -0.213886365
vn -0.0227840673 1.00892937 -0.0862117931
vn 0.302518249 0.942937791 -0.136575088
vn 0.471328259 0.520454526 -0.728607297
vn 0.758564055 0.077544786 -0.648159504
vn 0.362765759 -0.145089373 -0.915936708
vn 0.825702012 -0.0954404473 0.606205225
vn 0.794427335 0.402552456 0.473777026
vn 0.333631486 0.139450744 0.953691661
vn -0.475440115 0.39706412 0.815472007
vn -0.619250774 0.700912058 0.373930901
vn -0.794766665 0.460169464 0.442280114
vn 0.409338564 0.908304036 0.158087209
vn 0.659401953 0.734802783 -0.070991911
vn 0.302518249 0.942937791 -0.136575088
vn 0.205727801 -0.554058373 -0.82706058
vn 0.362765759 -0.145089373 -0.915936708
vn 0.163859501 -0.960895061 -0.0914908722
vn 0.45739904 0.692421615 0.504343569
vn 0.794427335 0.402552456 0.473777026
vn 0.659401953 0.734802783 -0.070991911
vn 0.333631486 0.139450744 0.953691661
vn 0.45739904 0.692421615 0.504343569
vn 0.12057627 0.36206767 0.947002888
vn 0.659401953 0.734802783 -0.070991911
vn 0.471328259 0.520454526 -0.728607297
vn 0.302518249 0.942937791 -0.136575088
vn 0.00851947907 0.479403108 -0.89156431
vn -0.478282869 0.751281202 -0.459442914
vn -0.00909531303 0.952713072 -0.343243778
vn -0.984486103 0.027933199 0.248623565
vn -0.553528965 -0.800521016 -0.107598193
vn -0.122203328 -0.983703911 0.0971873626
vn 0.205727801 -0.554058373 -0.82706058
vn 0.198666036 0.111927196 -0.996484458
vn 0.362765759 -0.145089373 -0.915936708
vn -0.176358923 -0.469369024 0.738625288
vn -0.30729869 -0.790907443 0.277737081
vn -0.085942544 -0.997811377 0.0331604481
vn 0.471328259 0.520454526 -0.728607297
vn 0.659401953 0.734802783 -0.070991911
vn 0.758564055 0.077544786 -0.648159504
vn -0.270115584 0.239728734 -0.942710817
vn -0.407422721 -0.496140301 -0.735001743
vn -0.934414446 0.0790179893 -0.487051964
vn -0.176358923 -0.469369024 0.738625288
vn 0.0974575579 -0.70796442 0.719886243
vn 0.333631486 0.139450744 0.953691661
vn 0.575156212 -0.691189706 -0.442892909
vn 0.922397137 -0.360545427 -0.00213235361
vn 0.530783892 -0.816179395 -0.186011747
vn -0.850821018 0.548585773 0.0373839587
vn -0.934414446 0.0790179893 -0.487051964
vn -0.820648372 -0.503252447 -0.326434135
vn -0.475440115 0.39706412 0.815472007
vn -0.794766665 0.460169464 0.442280114
vn -0.30729869 -0.790907443 0.277737081
vn 0.12057627 0.36206767 0.947002888
vn 0.45739904 0.692421615 0.504343569
vn -0.104119472 0.74445653 0.672424376
vn 0.164852336 -0.548122108 0.854618371
vn 0.485773116 -0.638591647 0.6024068
vn 0.825702012 -0.0954404473 0.606205225
vn 0.485773116 -0.638591647 0.6024068
vn 0.164852336 -0.548122108 0.854618371
vn 0.123605058 -0.989214599 0.089809373
vn -0.850821018 0.548585773 0.0373839587
vn -0.272742569 0.911190748 0.295468271
vn -0.478282869 0.751281202 -0.459442914
vn -0.272742569 0.911190748 0.295468271
vn -0.619250774 0.700912058 0.373930901
vn -0.104119472 0.74445653 0.672424376
vn -0.984486103 0.027933199 0.248623565
vn -0.820648372 -0.503252447 -0.326434135
vn -0.553528965 -0.800521016 -0.107598193
vn -0.478282869 0.751281202 -0.459442914
vn -0.934414446 0.0790179893 -0.487051964
vn -0.850821018 0.548585773 0.0373839587
vn -0.934414446 0.0790179893 -0.487051964
vn -0.478282869 0.751281202 -0.459442914
vn -0.270115584 0.239728734 -0.942710817
vn 0.758564055 0.077544786 -0.648159504
vn 0.654590666 -0.579327881 -0.507839382
vn 0.362765759 -0.145089373 -0.915936708
vn 0.922397137 -0.360545427 -0.00213235361
vn 0.958450198 0.313160539 0.0608354919
vn 0.794427335 0.402552456 0.473777026
vn 0.12057627 0.36206767 0.947002888
vn -0.176358923 -0.469369024 0.738625288
vn 0.333631486 0.139450744 0.953691661
vn -0.272742569 0.911190748 0.295468271
vn 0.45739904 0.692421615 0.504343569
vn 0.409338564 0.908304036 0.158087209
vn 0.333631486 0.139450744 0.953691661
vn 0.0974575579 -0.70796442 0.719886243
vn 0.164852336 -0.548122108 0.854618371
vn -0.67259568 -0.633542955 -0.388543963
vn -0.934414446 0.0790179893 -0.487051964
vn -0.407422721 -0.496140301 -0.735001743
vn 0.530783892 -0.816179395 -0.186011747
vn 0.654590666 -0.579327881 -0.507839382
vn 0.575156212 -0.691189706 -0.442892909
vn 0.409338564 0.908304036 0.158087209
vn 0.302518249 0.942937791 -0.136575088
vn -0.0227840673 1.00892937 -0.0862117931
vn 0.654590666 -0.579327881 -0.507839382
vn 0.530783892 -0.816179395 -0.186011747
vn 0.163859501 -0.960895061 -0.0914908722
vn -0.934414446 0.0790179893 -0.487051964
vn -0.730774581 -0.592014551 -0.342196941
vn -0.820648372 -0.503252447 -0.326434135
vn -0.407422721 -0.496140301 -0.735001743
vn -0.00340408366 -0.0298535638 -1.01578832
vn -0.0534567982 -0.990270853 -0.0805596262
vn -0.30729869 -0.790907443 0.277737081
vn -0.984486103 0.027933199 0.248623565
vn -0.122203328 -0.983703911 0.0971873626
vn 0.485773116 -0.638591647 0.6024068
vn 0.123605058 -0.989214599 0.089809373
vn 0.836570859 -0.381772816 0.430992782
vn 0.45739904 0.692421615 0.504343569
vn 0.659401953 0.734802783 -0.070991911
vn 0.409338564 0.908304036 0.158087209
vn -0.30729869 -0.790907443 0.277737081
vn -0.794766665 0.460169464 0.442280114
vn -0.984486103 0.027933199 0.248623565
vn 0.0974575579 -0.70796442 0.719886243
vn 0.123605058 -0.989214599 0.089809373
vn 0.164852336 -0.548122108 0.854618371
vn 0.302518249 0.942937791 -0.136575088
vn -0.00909531303 0.952713072 -0.343243778
vn 0.0327728391 0.976308644 -0.213886365
vn 0.198666036 0.111927196 -0.996484458
vn 0.471328259 0.520454526 -0.728607297
vn 0.362765759 -0.145089373 -0.915936708
vn -0.00340408366 -0.0298535638 -1.01578832
vn 0.205727801 -0.554058373 -0.82706058
vn -0.0534567982 -0.990270853 -0.0805596262
vn 0.198666036 0.111927196 -0.996484458
vn 0.205727801 -0.554058373 -0.82706058
vn -0.00340408366 -0.0298535638 -1.01578832
vn 0.530783892 -0.816179395 -0.186011747
vn 0.922397137 -0.360545427 -0.00213235361
vn 0.123605058 -0.989214599 0.089809373
vn 0.825702012 -0.0954404473 0.606205225
vn 0.836570859 -0.381772816 0.430992782
vn 0.922397137 -0.360545427 -0.00213235361
vn -0.176358923 -0.469369024 0.738625288
vn 0.12057627 0.36206767 0.947002888
vn -0.475440115 0.39706412 0.815472007
vn 0.45739904 0.692421615 0.504343569
vn 0.333631486 0.139450744 0.953691661
vn 0.794427335 0.402552456 0.473777026
vn 0.758564055 0.077544786 -0.648159504
vn 0.659401953 0.734802783 -0.070991911
vn 0.958450198 0.313160539 0.0608354919
vn -0.850821018 0.548585773 0.0373839587
vn -0.794766665 0.460169464 0.442280114
vn -0.619250774 0.700912058 0.373930901
vn -0.984486103 0.027933199 0.248623565
vn -0.850821018 0.548585773 0.0373839587
vn -0.820648372 -0.503252447 -0.326434135
vn 0.836570859 -0.381772816 0.430992782
vn 0.123605058 -0.989214599 0.089809373
vn 0.922397137 -0.360545427 -0.00213235361
vn 0.825702012 -0.0954404473 0.606205225
vn 0.333631486 0.139450744 0.953691661
vn 0.164852336 -0.548122108 0.854618371
vn 0.00851947907 0.479403108 -0.89156431
vn 0.471328259 0.520454526 -0.728607297
vn 0.198666036 0.111927196 -0.996484458
vn -0.272742569 0.911190748 0.295468271
vn 0.409338564 0.908304036 0.158087209
vn -0.0227840673 1.00892937 -0.0862117931
vn -0.820648372 -0.503252447 -0.326434135
vn -0.67259568 -0.633542955 -0.388543963
vn -0.0534567982 -0.990270853 -0.0805596262
vn 0.362765759 -0.145089373 -0.915936708
vn 0.654590666 -0.579327881 -0.507839382
vn 0.163859501 -0.960895061 -0.0914908722
vn -0.085942544 -0.997811377 0.0331604481
vn 0.0974575579 -0.70796442 0.719886243
vn -0.176358923 -0.469369024 0.738625288
vn -0.0534567982 -0.990270853 -0.0805596262
vn -0.67259568 -0.633542955 -0.388543963
vn -0.407422721 -0.496140301 -0.735001743
vn -0.475440115 0.39706412 0.815472007
vn -0.30729869 -0.790907443 0.277737081
vn -0.176358923 -0.469369024 0.738625288
vn 0.922397137 -0.360545427 -0.00213235361
vn 0.794427335 0.402552456 0.473777026
vn 0.825702012 -0.0954404473 0.606205225
vn 0.758564055 0.077544786 -0.648159504
vn 0.958450198 0.313160539 0.0608354919
vn 0.922397137 -0.360545427 -0.00213235361
vn 0.0327728391 0.976308644 -0.213886365
vn -0.00909531303 0.952713072 -0.343243778
vn -0.0227840673 1.00892937 -0.0862117931
vn -0.122203328 -0.983703911 0.0971873626
vn -0.085942544 -0.997811377 0.0331604481
vn -0.30729869 -0.790907443 0.277737081
vn 0.575156212 -0.691189706 -0.442892909
vn 0.758564055 0.077544786 -0.648159504
vn 0.922397137 -0.360545427 -0.00213235361
vn -0.820648372 -0.503252447 -0.326434135
vn -0.730774581 -0.592014551 -0.342196941
vn -0.67259568 -0.633542955 -0.388543963
vn -0.67259568 -0.633542955 -0.388543963
vn -0.730774581 -0.592014551 -0.342196941
vn -0.934414446 0.0790179893 -0.487051964
vn -0.270115584 0.239728734 -0.942710817
vn 0.00851947907 0.479403108 -0.89156431
vn -0.00340408366 -0.0298535638 -1.01578832
vn -0.104119472 0.74445653 0.672424376
vn -0.475440115 0.39706412 0.815472007
vn 0.12057627 0.36206767 0.947002888
vn -0.850821018 0.548585773 0.0373839587
vn -0.619250774 0.700912058 0.373930901
vn -0.272742569 0.911190748 0.295468271
vn -0.270115584 0.239728734 -0.942710817
vn -0.478282869 0.751281202 -0.459442914
vn 0.00851947907 0.479403108 -0.89156431
vn -0.104119472 0.74445653 0.672424376
vn 0.45739904 0.692421615 0.504343569
vn -0.272742569 0.911190748 0.295468271
vn -0.00909531303 0.952713072 -0.343243778
vn -0.478282869 0.751281202 -0.459442914
vn -0.272742569 0.911190748 0.295468271
vn 0.471328259 0.520454526 -0.728607297
vn 0.00851947907 0.479403108 -0.89156431
vn -0.00909531303 0.952713072 -0.343243778
vn 0.198666036 0.111927196 -0.996484458
vn -0.00340408366 -0.0298535638 -1.01578832
vn 0.00851947907 0.479403108 -0.89156431
vn -0.984486103 0.027933199 0.248623565
vn -0.794766665 0.460169464 0.442280114
vn -0.850821018 0.548585773 0.0373839587
vn -0.407422721 -0.496140301 -0.735001743
vn -0.270115584 0.239728734 -0.942710817
vn -0.00340408366 -0.0298535638 -1.01578832
vn 0.825702012 -0.0954404473 0.606205225
vn 0.485773116 -0.638591647 0.6024068
vn 0.836570859 -0.381772816 0.430992782
vn -0.0227840673 1.00892937 -0.0862117931
vn -0.00909531303 0.952713072 -0.343243778
vn -0.272742569 0.911190748 0.295468271
vn 0.575156212 -0.691189706 -0.442892909
vn 0.654590666 -0.579327881 -0.507839382
vn 0.758564055 0.077544786 -0.648159504
vn 0.794427335 0.402552456 0.473777026
vn 0.958450198 0.313160539 0.0608354919
vn 0.659401953 0.734802783 -0.070991911
vn 0.302518249 0.942937791 -0.136575088
vn 0.471328259 0.520454526 -0.728607297
vn -0.00909531303 0.952713072 -0.343243778
vn -0.104119472 0.74445653 0.672424376
vn -0.619250774 0.700912058 0.373930901
vn -0.475440115 0.39706412 0.815472007
vn -0.0534567982 -0.990270853 -0.0805596262
vn 0.123605058 -0.989214599 0.089809373
vn -0.085942544 -0.997811377 0.0331604481
vn 0.123605058 -0.989214599 0.089809373
vn -0.0534567982 -0.990270853 -0.0805596262
vn 0.163859501 -0.960895061 -0.0914908722
vn -0.122203328 -0.983703911 0.0971873626
vn -0.0534567982 -0.990270853 -0.0805596262
vn -0.085942544 -0.997811377 0.0331604481
vn 0.123605058 -0.989214599 0.089809373
vn 0.163859501 -0.960895061 -0.0914908722
vn 0.530783892 -0.816179395 -0.186011747
vn -0.085942544 -0.997811377 0.0331604481
vn 0.123605058 -0.989214599 0.089809373
vn 0.0974575579 -0.70796442 0.719886243
vn -0.0534567982 -0.990270853 -0.0805596262
vn 0.205727801 -0.554058373 -0.82706058
vn 0.163859501 -0.960895061 -0.0914908722
vn -0.553528965 -0.800521016 -0.107598193
vn -0.0534567982 -0.990270853 -0.0805596262
vn -0.122203328 -0.983703911 0.0971873626
vn -0.553528965 -0.800521016 -0.107598193
vn -0.820648372 -0.503252447 -0.326434135
vn -0.0534567982 -0.990270853 -0.0805596262
g Group62776
f 49/1/1 41/2/2 8/3/3
f 17/4/4 15/5/5 3/6/6
f 44/7/7 7/8/8 30/9/9
f 26/10/10 38/11/11 6/12/12
f 42/13/13 39/14/14 8/15/15
f 45/16/16 3/17/17 2/18/18
f 12/19/19 7/20/20 39/21/21
f 30/22/22 12/23/23 5/24/24
f 39/25/25 17/26/26 8/27/27
f 43/28/28 23/29/29 29/30/30
f 28/31/31 31/32/32 35/33/33
f 45/34/34 32/35/35 3/36/36
f 36/37/37 13/38/38 20/39/39
f 17/40/40 39/41/41 15/42/42
f 10/43/43 4/44/44 33/45/45
f 36/46/46 24/47/47 30/48/48
f 48/49/49 34/50/50 9/51/51
f 1/52/52 33/53/53 16/54/54
f 26/55/55 6/56/56 13/57/57
f 5/58/58 12/59/59 11/60/60
f 25/61/61 46/62/62 44/63/63
f 46/64/64 25/65/65 40/66/66
f 1/67/67 22/68/68 23/69/69
f 22/70/70 38/71/71 11/72/72
f 28/73/73 16/74/74 31/75/75
f 23/76/76 33/77/77 1/78/78
f 33/79/79 23/80/80 10/81/81
f 15/82/82 37/83/83 3/84/84
f 34/85/85 27/86/86 7/87/87
f 5/88/88 36/89/89 30/90/90
f 22/91/91 12/92/92 42/93/93
f 30/94/94 24/95/95 25/96/96
f 18/97/97 33/98/98 4/99/99
f 9/100/100 37/101/101 48/102/102
f 42/103/103 8/104/104 41/105/105
f 37/106/106 9/107/107 2/108/108
f 33/109/109 47/110/110 16/111/111
f 4/112/112 19/113/113 14/114/114
f 13/115/115 28/116/116 35/117/117
f 46/118/118 40/119/119 21/120/120
f 12/121/121 39/122/122 42/123/123
f 13/124/124 6/125/125 28/126/126
f 24/127/127 40/128/128 25/129/129
f 8/130/130 29/131/131 49/132/132
f 32/133/133 17/134/134 3/135/135
f 19/136/136 45/137/137 14/138/138
f 32/139/139 45/140/140 19/141/141
f 9/142/142 34/143/143 40/144/144
f 44/145/145 21/146/146 34/147/147
f 36/148/148 5/149/149 26/150/150
f 12/151/151 30/152/152 7/153/153
f 15/154/154 39/155/155 27/156/156
f 1/157/157 6/158/158 38/159/159
f 28/160/160 1/161/161 16/162/162
f 21/163/163 40/164/164 34/165/165
f 44/166/166 30/167/167 25/168/168
f 43/169/169 17/170/170 32/171/171
f 22/172/172 42/173/173 41/174/174
f 16/175/175 18/176/176 14/177/177
f 3/178/178 37/179/179 2/180/180
f 20/181/181 24/182/182 36/183/183
f 14/184/184 18/185/185 4/186/186
f 26/187/187 13/188/188 36/189/189
f 34/190/190 7/191/191 44/192/192
f 15/193/193 27/194/194 34/195/195
f 49/196/196 29/197/197 41/198/198
f 35/199/199 20/200/200 13/201/201
f 48/202/202 15/203/203 34/204/204
f 16/205/205 47/206/206 18/207/207
f 18/208/208 47/209/209 33/210/210
f 10/211/211 43/212/212 19/213/213
f 11/214/214 26/215/215 5/216/216
f 1/217/217 38/218/218 22/219/219
f 10/220/220 23/221/221 43/222/222
f 11/223/223 12/224/224 22/225/225
f 29/226/226 23/227/227 22/228/228
f 17/229/229 43/230/230 29/231/231
f 32/232/232 19/233/233 43/234/234
f 28/235/235 6/236/236 1/237/237
f 4/238/238 10/239/239 19/240/240
f 44/241/241 46/242/242 21/243/243
f 41/244/244 29/245/245 22/246/246
f 48/247/247 37/248/248 15/249/249
f 7/250/250 27/251/251 39/252/252
f 8/253/253 17/254/254 29/255/255
f 11/256/256 38/257/257 26/258/258
f 14/259/259 40/260/260 20/261/261
f 40/262/262 14/263/263 2/264/264
f 35/265/265 14/266/266 20/267/267
f 40/268/268 2/269/269 9/270/270
f 20/271/271 40/272/272 24/273/273
f 14/274/274 45/275/275 2/276/276
f 31/277/277 14/278/278 35/279/279
f 31/280/280 16/281/281 14/282/282
