# File exported by Houdini 16.5.405 (www.sidefx.com)
# 41 points
# 234 vertices
# 78 primitives
# Bounds: [-28.4693928, -1.46438444, -27.5548439] to [29.3105087, 80.9773941, 28.6078281]
g 
v 23.8393116 48.8563728 19.573122
v -3.5440433 37.4711342 -26.4997978
v 21.2218819 36.7588005 -26.1848431
v -28.4693928 22.2696991 -4.48888493
v 24.1007538 -0.85106045 1.06980026
v -0.65904355 73.097435 13.7248907
v 9.24675655 80.9773941 -18.6945343
v -8.44860458 -1.43593669 -21.4226208
v 26.762886 20.0159893 22.4489269
v 0.451628715 1.2000941 25.687849
v -14.4534416 44.0506439 20.8695831
v -21.7057533 48.6399727 -16.8056335
v -18.3254051 67.7582703 -5.00163651
v -20.5338917 -1.46438444 -3.89429379
v 15.6143818 70.5038605 15.098546
v 24.5463581 3.35240984 -17.4266186
v 17.3097973 -1.36968529 13.5093994
v 7.75358725 0.823301792 -27.5548439
v 3.96014452 65.3340073 19.5589676
v 18.0891342 -0.838916659 -23.4581394
v -11.7889957 5.70344019 28.6078281
v -13.7173681 9.86167908 -27.0626774
v -14.4593182 31.551321 26.0664406
v -25.578064 5.50621891 10.3659849
v 25.3120232 54.3975334 7.81229734
v -26.0627403 11.1726799 -21.0301876
v 20.8392925 3.14082217 16.2832966
v -7.82148457 69.6426697 14.7316589
v -25.7790699 44.6615448 -8.15872478
v 22.3152866 6.84268808 -25.5411949
v 17.9568462 79.4639053 -2.22492528
v -9.35815048 74.2231598 -15.6560469
v 29.3105087 12.4403496 17.8901672
v -23.4811764 26.328516 -21.259737
v -21.0738468 5.81397486 21.5198498
v -13.8654594 -1.21532619 13.200634
v -19.8818893 1.73817289 -19.3114738
v 14.6427031 78.06073 -16.4359818
v 17.2123241 66.216095 -21.722744
v -11.790596 65.8415909 -19.3630219
v -18.5621586 11.5727167 26.8292274
vt 0.772266269 0.124586418 0
vt 0.623014629 0.11402867 0
vt 0.832977414 0.0102172885 0
vt 0.632354856 0.323221892 0
vt 0.448267728 0.30203855 0
vt 0.46783483 0.151998535 0
vt 0.973369002 0.7892555 0
vt 0.852685452 0.890432775 0
vt 0.763077736 0.730993688 0
vt 0.0156023484 0.0795583278 0
vt 0.257131904 0.0487558618 0
vt 0.0543320477 0.259468764 0
vt -0.00692628976 0.152145863 0
vt 0.0156023484 0.0795583278 0
vt 0.0543320477 0.259468764 0
vt 0.148900956 0.635339499 0
vt 0.342993259 0.67672646 0
vt 0.197356656 0.921384871 0
vt 0.2984837 0.338877082 0
vt 0.187635794 0.315406531 0
vt 0.365362823 0.292911887 0
vt 0.860218823 0.33771646 0
vt 0.890452266 0.211449161 0
vt 0.89873898 0.292505473 0
vt 0.148900956 0.635339499 0
vt 0.197356656 0.921384871 0
vt 0.0289368182 0.886760235 0
vt 0.558795094 0.739467263 0
vt 0.703451812 0.783808649 0
vt 0.50070709 0.824542761 0
vt 0.35614574 0.142839819 0
vt 0.399415255 0.220992982 0
vt 0.291057229 0.248410568 0
vt 0.291057229 0.248410568 0
vt 0.257131904 0.0487558618 0
vt 0.35614574 0.142839819 0
vt 0.527386665 0.569091916 0
vt 0.151997223 0.583650529 0
vt 0.343661338 0.511675179 0
vt 0.435802698 0.820536435 0
vt 0.197356656 0.921384871 0
vt 0.342993259 0.67672646 0
vt 0.581432819 0.428937525 0
vt 0.542006493 0.332758576 0
vt 0.596881211 0.355042458 0
vt 0.581432819 0.428937525 0
vt 0.612149 0.541777134 0
vt 0.527386665 0.569091916 0
vt 0.832977414 0.0102172885 0
vt 0.623014629 0.11402867 0
vt 0.73234278 0.013030583 0
vt 0.525612712 0.65844655 0
vt 0.422071189 0.647653282 0
vt 0.527386665 0.569091916 0
vt 0.763077736 0.730993688 0
vt 0.630728126 0.518998325 0
vt 0.656423688 0.464844465 0
vt 0.435802698 0.820536435 0
vt 0.495787233 0.858591676 0
vt 0.465848953 0.903427899 0
vt 0.50070709 0.824542761 0
vt 0.703451812 0.783808649 0
vt 0.70551157 0.838042438 0
vt 0.365362823 0.292911887 0
vt 0.291057229 0.248410568 0
vt 0.399415255 0.220992982 0
vt 0.0141545953 0.954716563 0
vt 0.0289368182 0.886760235 0
vt 0.0620778129 0.936295569 0
vt 0.585070133 0.0577219091 0
vt 0.73234278 0.013030583 0
vt 0.623014629 0.11402867 0
vt 0.976343095 0.583868623 0
vt 0.880256474 0.369693369 0
vt 0.938495517 0.382867515 0
vt 0.763077736 0.730993688 0
vt 0.852685452 0.890432775 0
vt 0.680418849 0.709242284 0
vt 0.46783483 0.151998535 0
vt 0.585070133 0.0577219091 0
vt 0.623014629 0.11402867 0
vt 0.623014629 0.11402867 0
vt 0.632354856 0.323221892 0
vt 0.46783483 0.151998535 0
vt 0.581432819 0.428937525 0
vt 0.34112224 0.343678534 0
vt 0.542006493 0.332758576 0
vt 0.151997223 0.583650529 0
vt 0.0861584693 0.573058248 0
vt 0.0417091362 0.445735961 0
vt 0.890452266 0.211449161 0
vt 0.623014629 0.11402867 0
vt 0.772266269 0.124586418 0
vt 0.976343095 0.583868623 0
vt 0.656423688 0.464844465 0
vt 0.880256474 0.369693369 0
vt 0.752737164 0.355342746 0
vt 0.880256474 0.369693369 0
vt 0.656423688 0.464844465 0
vt 0.342993259 0.67672646 0
vt 0.485087901 0.746912479 0
vt 0.435802698 0.820536435 0
vt 0.532241285 0.995287836 0
vt 0.508191586 0.959758401 0
vt 0.629215837 0.98642242 0
vt 0.721995831 0.352272958 0
vt 0.632354856 0.323221892 0
vt 0.860218823 0.33771646 0
vt 0.465848953 0.903427899 0
vt 0.28644529 0.934259355 0
vt 0.197356656 0.921384871 0
vt 0.0156023484 0.0795583278 0
vt 0.169988185 0.0164167061 0
vt 0.257131904 0.0487558618 0
vt 0.629215837 0.98642242 0
vt 0.70551157 0.838042438 0
vt 0.75123316 0.940541983 0
vt 0.591194868 0.620874345 0
vt 0.525612712 0.65844655 0
vt 0.527386665 0.569091916 0
vt 0.148900956 0.635339499 0
vt 0.0289368182 0.886760235 0
vt 0.00649925834 0.802442014 0
vt 0.656423688 0.464844465 0
vt 0.647907794 0.384453416 0
vt 0.752737164 0.355342746 0
vt 0.00649925834 0.802442014 0
vt 0.019660892 0.651126564 0
vt 0.0932098553 0.60448873 0
vt 0.343661338 0.511675179 0
vt 0.34112224 0.343678534 0
vt 0.581432819 0.428937525 0
vt 0.527386665 0.569091916 0
vt 0.343661338 0.511675179 0
vt 0.581432819 0.428937525 0
vt 0.137125805 0.385347694 0
vt 0.0417091362 0.445735961 0
vt 0.051479198 0.404863834 0
vt 0.0417091362 0.445735961 0
vt 0.137125805 0.385347694 0
vt 0.34112224 0.343678534 0
vt 0.832977414 0.0102172885 0
vt 0.941923916 0.111955747 0
vt 0.890452266 0.211449161 0
vt 0.772266269 0.124586418 0
vt 0.832977414 0.0102172885 0
vt 0.890452266 0.211449161 0
vt 0.880256474 0.369693369 0
vt 0.926519811 0.324147791 0
vt 0.938495517 0.382867515 0
vt 0.00649925834 0.802442014 0
vt 0.0932098553 0.60448873 0
vt 0.148900956 0.635339499 0
vt 0.949697137 0.874774516 0
vt 0.852685452 0.890432775 0
vt 0.973369002 0.7892555 0
vt 0.727722585 0.857770085 0
vt 0.680418849 0.709242284 0
vt 0.852685452 0.890432775 0
vt 0.763077736 0.730993688 0
vt 0.680418849 0.709242284 0
vt 0.630728126 0.518998325 0
vt 0.46783483 0.151998535 0
vt 0.449654728 0.0480556451 0
vt 0.585070133 0.0577219091 0
vt 0.169988185 0.0164167061 0
vt 0.279407024 0.0137898978 0
vt 0.257131904 0.0487558618 0
vt 0.291057229 0.248410568 0
vt 0.0543320477 0.259468764 0
vt 0.257131904 0.0487558618 0
vt 0.0289368182 0.886760235 0
vt 0.197356656 0.921384871 0
vt 0.0620778129 0.936295569 0
vt 0.860218823 0.33771646 0
vt 0.623014629 0.11402867 0
vt 0.890452266 0.211449161 0
vt 0.392702758 0.0796476528 0
vt 0.449654728 0.0480556451 0
vt 0.46783483 0.151998535 0
vt 0.860218823 0.33771646 0
vt 0.632354856 0.323221892 0
vt 0.623014629 0.11402867 0
vt 0.435802698 0.820536435 0
vt 0.485087901 0.746912479 0
vt 0.495787233 0.858591676 0
vt 0.435802698 0.820536435 0
vt 0.465848953 0.903427899 0
vt 0.197356656 0.921384871 0
vt 0.508191586 0.959758401 0
vt 0.70551157 0.838042438 0
vt 0.629215837 0.98642242 0
vt 0.0417091362 0.445735961 0
vt 0.343661338 0.511675179 0
vt 0.151997223 0.583650529 0
vt 0.973369002 0.7892555 0
vt 0.763077736 0.730993688 0
vt 0.976343095 0.583868623 0
vt 0.291057229 0.248410568 0
vt 0.365362823 0.292911887 0
vt 0.187635794 0.315406531 0
vt 0.343661338 0.511675179 0
vt 0.0417091362 0.445735961 0
vt 0.34112224 0.343678534 0
vt 0.591194868 0.620874345 0
vt 0.527386665 0.569091916 0
vt 0.612149 0.541777134 0
vt 0.187635794 0.315406531 0
vt 0.0801355317 0.337676316 0
vt 0.0543320477 0.259468764 0
vt 0.832977414 0.0102172885 0
vt 0.91096741 0.00619364204 0
vt 0.941923916 0.111955747 0
vt 0.169988185 0.0164167061 0
vt 0.0156023484 0.0795583278 0
vt 0.0429261997 0.0233649965 0
vt 0.508191586 0.959758401 0
vt 0.50070709 0.824542761 0
vt 0.70551157 0.838042438 0
vt 0.257131904 0.0487558618 0
vt 0.279407024 0.0137898978 0
vt 0.35614574 0.142839819 0
vt 0.422071189 0.647653282 0
vt 0.151997223 0.583650529 0
vt 0.527386665 0.569091916 0
vt 0.422071189 0.647653282 0
vt 0.267759204 0.652737617 0
vt 0.151997223 0.583650529 0
vt 0.976343095 0.583868623 0
vt 0.763077736 0.730993688 0
vt 0.656423688 0.464844465 0
vt 0.187635794 0.315406531 0
vt 0.0543320477 0.259468764 0
vt 0.291057229 0.248410568 0
vn -0.992962182 0.119086206 0.0887028947
vn -0.975380003 0.180315703 0.174623817
vn -0.844147861 -0.1572835 -0.510585964
vn -0.821581483 0.247355387 0.512755334
vn -0.567014992 0.618654609 0.51427865
vn -0.816631496 0.528886199 0.119806342
vn 0.79886955 0.295761824 -0.455768615
vn 0.655136883 0.710312724 0.102013908
vn 1.00223231 0.174807861 -0.0118854064
vn 0.244438872 -0.897954345 -0.339193225
vn 0.086938642 -0.99479574 0.138442442
vn -0.156547248 -0.909209073 -0.400770962
vn -0.0625256598 -0.479317337 -0.892976463
vn 0.244438872 -0.897954345 -0.339193225
vn -0.156547248 -0.909209073 -0.400770962
vn 0.495106429 0.0338397175 0.800756931
vn 0.567843139 0.208118424 0.731353819
vn -0.152320877 0.202874273 0.966212392
vn -0.897882164 -0.33496812 0.264437526
vn -0.566199124 -0.825362682 0.0705155432
vn -0.72521323 -0.411975324 0.427280307
vn -0.832753837 0.111250006 0.543835282
vn -0.897882164 -0.33496812 0.264437526
vn -0.72521323 -0.411975324 0.427280307
vn 0.495106429 0.0338397175 0.800756931
vn -0.152320877 0.202874273 0.966212392
vn 0.0573717169 -0.217882752 0.98291105
vn -0.816631496 0.528886199 0.119806342
vn -0.567014992 0.618654609 0.51427865
vn -0.491828591 0.842637122 -0.0735824108
vn 0.139775991 -0.552658617 0.810905695
vn 0.0573717169 -0.217882752 0.98291105
vn -0.151967183 -0.995917618 0.15628235
vn -0.151967183 -0.995917618 0.15628235
vn 0.086938642 -0.99479574 0.138442442
vn 0.139775991 -0.552658617 0.810905695
vn -0.252758741 -0.0557825193 -0.960778177
vn -0.401484519 0.269313216 -0.871453464
vn -0.148342177 0.140720844 -0.99609226
vn -0.01639992 0.331903845 0.948583663
vn -0.152320877 0.202874273 0.966212392
vn 0.567843139 0.208118424 0.731353819
vn -0.0625256598 -0.479317337 -0.892976463
vn 0.812193453 -0.299056321 -0.522837281
vn 0.244438872 -0.897954345 -0.339193225
vn -0.0625256598 -0.479317337 -0.892976463
vn -0.156547248 -0.909209073 -0.400770962
vn -0.252758741 -0.0557825193 -0.960778177
vn -0.844147861 -0.1572835 -0.510585964
vn -0.975380003 0.180315703 0.174623817
vn -0.657739103 0.129918471 -0.74849081
vn -0.844147861 -0.1572835 -0.510585964
vn -0.657739103 0.129918471 -0.74849081
vn -0.252758741 -0.0557825193 -0.960778177
vn 1.00223231 0.174807861 -0.0118854064
vn 0.495106429 0.0338397175 0.800756931
vn 0.955643117 -0.074602738 0.20199129
vn -0.01639992 0.331903845 0.948583663
vn -0.266049117 0.862788081 0.418231249
vn -0.567014992 0.618654609 0.51427865
vn -0.491828591 0.842637122 -0.0735824108
vn -0.567014992 0.618654609 0.51427865
vn -0.266049117 0.862788081 0.418231249
vn -0.72521323 -0.411975324 0.427280307
vn -0.151967183 -0.995917618 0.15628235
vn 0.0573717169 -0.217882752 0.98291105
vn -0.72521323 -0.411975324 0.427280307
vn 0.0573717169 -0.217882752 0.98291105
vn -0.832753837 0.111250006 0.543835282
vn -0.801041782 0.264894456 -0.548106074
vn -0.657739103 0.129918471 -0.74849081
vn -0.975380003 0.180315703 0.174623817
vn 0.74455446 0.138029903 -0.584341764
vn 0.859155238 -0.370102227 -0.335174233
vn 0.812193453 -0.299056321 -0.522837281
vn 1.00223231 0.174807861 -0.0118854064
vn 0.655136883 0.710312724 0.102013908
vn 0.567843139 0.208118424 0.731353819
vn -0.816631496 0.528886199 0.119806342
vn -0.801041782 0.264894456 -0.548106074
vn -0.975380003 0.180315703 0.174623817
vn -0.975380003 0.180315703 0.174623817
vn -0.821581483 0.247355387 0.512755334
vn -0.816631496 0.528886199 0.119806342
vn -0.0625256598 -0.479317337 -0.892976463
vn 0.74455446 0.138029903 -0.584341764
vn 0.812193453 -0.299056321 -0.522837281
vn -0.401484519 0.269313216 -0.871453464
vn -0.491828591 0.842637122 -0.0735824108
vn -0.0907440037 0.542747676 -0.760157645
vn -0.897882164 -0.33496812 0.264437526
vn -0.975380003 0.180315703 0.174623817
vn -0.992962182 0.119086206 0.0887028947
vn 0.74455446 0.138029903 -0.584341764
vn 0.955643117 -0.074602738 0.20199129
vn 0.859155238 -0.370102227 -0.335174233
vn 0.648233593 -0.781134963 0.0168087557
vn 0.859155238 -0.370102227 -0.335174233
vn 0.955643117 -0.074602738 0.20199129
vn 0.567843139 0.208118424 0.731353819
vn 0.470091581 0.570441663 0.661867261
vn -0.01639992 0.331903845 0.948583663
vn 0.711798251 0.552782357 -0.480820388
vn -0.0907440037 0.542747676 -0.760157645
vn 0.655136883 0.710312724 0.102013908
vn -0.152320877 0.202874273 0.966212392
vn -0.821581483 0.247355387 0.512755334
vn -0.832753837 0.111250006 0.543835282
vn -0.567014992 0.618654609 0.51427865
vn -0.821581483 0.247355387 0.512755334
vn -0.152320877 0.202874273 0.966212392
vn 0.244438872 -0.897954345 -0.339193225
vn 0.648233593 -0.781134963 0.0168087557
vn 0.086938642 -0.99479574 0.138442442
vn 0.655136883 0.710312724 0.102013908
vn -0.266049117 0.862788081 0.418231249
vn 0.470091581 0.570441663 0.661867261
vn -0.511273861 -0.651770771 -0.564960539
vn -0.844147861 -0.1572835 -0.510585964
vn -0.252758741 -0.0557825193 -0.960778177
vn 0.495106429 0.0338397175 0.800756931
vn 0.0573717169 -0.217882752 0.98291105
vn 0.139775991 -0.552658617 0.810905695
vn 0.955643117 -0.074602738 0.20199129
vn 0.463827163 -0.637087464 0.625426829
vn 0.648233593 -0.781134963 0.0168087557
vn 0.139775991 -0.552658617 0.810905695
vn 0.463827163 -0.637087464 0.625426829
vn 0.955643117 -0.074602738 0.20199129
vn -0.148342177 0.140720844 -0.99609226
vn 0.74455446 0.138029903 -0.584341764
vn -0.0625256598 -0.479317337 -0.892976463
vn -0.252758741 -0.0557825193 -0.960778177
vn -0.148342177 0.140720844 -0.99609226
vn -0.0625256598 -0.479317337 -0.892976463
vn 0.79886955 0.295761824 -0.455768615
vn -0.0907440037 0.542747676 -0.760157645
vn 0.711798251 0.552782357 -0.480820388
vn -0.0907440037 0.542747676 -0.760157645
vn 0.79886955 0.295761824 -0.455768615
vn 0.74455446 0.138029903 -0.584341764
vn -0.844147861 -0.1572835 -0.510585964
vn -0.566199124 -0.825362682 0.0705155432
vn -0.897882164 -0.33496812 0.264437526
vn -0.992962182 0.119086206 0.0887028947
vn -0.844147861 -0.1572835 -0.510585964
vn -0.897882164 -0.33496812 0.264437526
vn 0.859155238 -0.370102227 -0.335174233
vn 0.244438872 -0.897954345 -0.339193225
vn 0.812193453 -0.299056321 -0.522837281
vn 0.139775991 -0.552658617 0.810905695
vn 0.955643117 -0.074602738 0.20199129
vn 0.495106429 0.0338397175 0.800756931
vn 0.711798251 0.552782357 -0.480820388
vn 0.655136883 0.710312724 0.102013908
vn 0.79886955 0.295761824 -0.455768615
vn 0.470091581 0.570441663 0.661867261
vn 0.567843139 0.208118424 0.731353819
vn 0.655136883 0.710312724 0.102013908
vn 1.00223231 0.174807861 -0.0118854064
vn 0.567843139 0.208118424 0.731353819
vn 0.495106429 0.0338397175 0.800756931
vn -0.816631496 0.528886199 0.119806342
vn -0.401484519 0.269313216 -0.871453464
vn -0.801041782 0.264894456 -0.548106074
vn 0.648233593 -0.781134963 0.0168087557
vn 0.463827163 -0.637087464 0.625426829
vn 0.086938642 -0.99479574 0.138442442
vn -0.151967183 -0.995917618 0.15628235
vn -0.156547248 -0.909209073 -0.400770962
vn 0.086938642 -0.99479574 0.138442442
vn 0.0573717169 -0.217882752 0.98291105
vn -0.152320877 0.202874273 0.966212392
vn -0.832753837 0.111250006 0.543835282
vn -0.832753837 0.111250006 0.543835282
vn -0.975380003 0.180315703 0.174623817
vn -0.897882164 -0.33496812 0.264437526
vn -0.491828591 0.842637122 -0.0735824108
vn -0.401484519 0.269313216 -0.871453464
vn -0.816631496 0.528886199 0.119806342
vn -0.832753837 0.111250006 0.543835282
vn -0.821581483 0.247355387 0.512755334
vn -0.975380003 0.180315703 0.174623817
vn -0.01639992 0.331903845 0.948583663
vn 0.470091581 0.570441663 0.661867261
vn -0.266049117 0.862788081 0.418231249
vn -0.01639992 0.331903845 0.948583663
vn -0.567014992 0.618654609 0.51427865
vn -0.152320877 0.202874273 0.966212392
vn -0.0907440037 0.542747676 -0.760157645
vn -0.266049117 0.862788081 0.418231249
vn 0.655136883 0.710312724 0.102013908
vn -0.0907440037 0.542747676 -0.760157645
vn -0.148342177 0.140720844 -0.99609226
vn -0.401484519 0.269313216 -0.871453464
vn 0.79886955 0.295761824 -0.455768615
vn 1.00223231 0.174807861 -0.0118854064
vn 0.74455446 0.138029903 -0.584341764
vn -0.151967183 -0.995917618 0.15628235
vn -0.72521323 -0.411975324 0.427280307
vn -0.566199124 -0.825362682 0.0705155432
vn -0.148342177 0.140720844 -0.99609226
vn -0.0907440037 0.542747676 -0.760157645
vn 0.74455446 0.138029903 -0.584341764
vn -0.511273861 -0.651770771 -0.564960539
vn -0.252758741 -0.0557825193 -0.960778177
vn -0.156547248 -0.909209073 -0.400770962
vn -0.566199124 -0.825362682 0.0705155432
vn -0.511273861 -0.651770771 -0.564960539
vn -0.156547248 -0.909209073 -0.400770962
vn -0.844147861 -0.1572835 -0.510585964
vn -0.511273861 -0.651770771 -0.564960539
vn -0.566199124 -0.825362682 0.0705155432
vn 0.648233593 -0.781134963 0.0168087557
vn 0.244438872 -0.897954345 -0.339193225
vn 0.859155238 -0.370102227 -0.335174233
vn -0.0907440037 0.542747676 -0.760157645
vn -0.491828591 0.842637122 -0.0735824108
vn -0.266049117 0.862788081 0.418231249
vn 0.086938642 -0.99479574 0.138442442
vn 0.463827163 -0.637087464 0.625426829
vn 0.139775991 -0.552658617 0.810905695
vn -0.657739103 0.129918471 -0.74849081
vn -0.401484519 0.269313216 -0.871453464
vn -0.252758741 -0.0557825193 -0.960778177
vn -0.657739103 0.129918471 -0.74849081
vn -0.801041782 0.264894456 -0.548106074
vn -0.401484519 0.269313216 -0.871453464
vn 0.74455446 0.138029903 -0.584341764
vn 1.00223231 0.174807861 -0.0118854064
vn 0.955643117 -0.074602738 0.20199129
vn -0.566199124 -0.825362682 0.0705155432
vn -0.156547248 -0.909209073 -0.400770962
vn -0.151967183 -0.995917618 0.15628235
g Group62913
f 4/1/1 29/2/2 26/3/3
f 11/4/4 28/5/5 13/6/6
f 39/7/7 31/8/8 25/9/9
f 20/10/10 17/11/11 8/12/12
f 18/13/13 20/14/14 8/15/15
f 9/16/16 1/17/17 23/18/18
f 24/19/19 14/20/20 35/21/21
f 41/22/22 24/23/23 35/24/24
f 9/25/25 23/26/26 21/27/27
f 13/28/28 28/29/29 32/30/30
f 10/31/31 21/32/32 36/33/33
f 36/34/34 17/35/35 10/36/36
f 22/37/37 40/38/38 2/39/39
f 19/40/40 23/41/41 1/42/42
f 18/43/43 30/44/44 20/45/45
f 18/46/46 8/47/47 22/48/48
f 26/49/49 29/50/50 34/51/51
f 26/52/52 34/53/53 22/54/54
f 25/55/55 9/56/56 33/57/57
f 19/58/58 6/59/59 28/60/60
f 32/61/61 28/62/62 6/63/63
f 35/64/64 36/65/65 21/66/66
f 35/67/67 21/68/68 41/69/69
f 12/70/70 34/71/71 29/72/72
f 3/73/73 16/74/74 30/75/75
f 25/76/76 31/77/77 1/78/78
f 13/79/79 12/80/80 29/81/81
f 29/82/82 11/83/83 13/84/84
f 18/85/85 3/86/86 30/87/87
f 40/88/88 32/89/89 7/90/90
f 24/91/91 29/92/92 4/93/93
f 3/94/94 33/95/95 16/96/96
f 5/97/97 16/98/98 33/99/99
f 1/100/100 15/101/101 19/102/102
f 38/103/103 7/104/104 31/105/105
f 23/106/106 11/107/107 41/108/108
f 28/109/109 11/110/110 23/111/111
f 20/112/112 5/113/113 17/114/114
f 31/115/115 6/116/116 15/117/117
f 37/118/118 26/119/119 22/120/120
f 9/121/121 21/122/122 10/123/123
f 33/124/124 27/125/125 5/126/126
f 10/127/127 27/128/128 33/129/129
f 2/130/130 3/131/131 18/132/132
f 22/133/133 2/134/134 18/135/135
f 39/136/136 7/137/137 38/138/138
f 7/139/139 39/140/140 3/141/141
f 26/142/142 14/143/143 24/144/144
f 4/145/145 26/146/146 24/147/147
f 16/148/148 20/149/149 30/150/150
f 10/151/151 33/152/152 9/153/153
f 38/154/154 31/155/155 39/156/156
f 15/157/157 1/158/158 31/159/159
f 25/160/160 1/161/161 9/162/162
f 13/163/163 40/164/164 12/165/165
f 5/166/166 27/167/167 17/168/168
f 36/169/169 8/170/170 17/171/171
f 21/172/172 23/173/173 41/174/174
f 41/175/175 29/176/176 24/177/177
f 32/178/178 40/179/179 13/180/180
f 41/181/181 11/182/182 29/183/183
f 19/184/184 15/185/185 6/186/186
f 19/187/187 28/188/188 23/189/189
f 7/190/190 6/191/191 31/192/192
f 7/193/193 2/194/194 40/195/195
f 39/196/196 25/197/197 3/198/198
f 36/199/199 35/200/200 14/201/201
f 2/202/202 7/203/203 3/204/204
f 37/205/205 22/206/206 8/207/207
f 14/208/208 37/209/209 8/210/210
f 26/211/211 37/212/212 14/213/213
f 5/214/214 20/215/215 16/216/216
f 7/217/217 32/218/218 6/219/219
f 17/220/220 27/221/221 10/222/222
f 34/223/223 40/224/224 22/225/225
f 34/226/226 12/227/227 40/228/228
f 3/229/229 25/230/230 33/231/231
f 14/232/232 8/233/233 36/234/234
