# File exported by Houdini 16.5.405 (www.sidefx.com)
# 126 points
# 744 vertices
# 248 primitives
# Bounds: [-28.4293442, -1.36988831, -28.5015507] to [28.6559353, 80.5007019, 28.6160755]
g 
v 23.6748104 49.8916855 18.2449951
v -5.76348209 51.7566376 -23.4200687
v 22.068203 19.8881111 -26.516098
v 18.6060123 26.9477634 -27.7613964
v -27.7676182 27.6942062 -5.51979446
v 24.2400875 0.961837769 -6.99652004
v 6.84574842 76.682991 7.88185883
v 15.8638783 65.3600082 -22.6557121
v -11.4947119 -0.140059218 -21.5062122
v -4.14387703 41.1423645 -25.7486725
v 25.8928795 29.9594116 21.8251095
v 20.4178429 45.1502419 -24.3871841
v -2.14486504 0.641597271 24.433136
v -14.4534416 44.0506439 20.8695831
v -16.6872997 57.1929016 -18.4638729
v -19.3449345 65.8844757 -6.06055021
v -20.4624023 -0.538300097 -2.39660287
v 14.45436 75.0023804 9.94649887
v 26.7718792 3.90258265 -4.69487333
v 6.70509052 -1.34361959 11.0955725
v -22.008543 44.862442 -17.3037872
v 4.57873869 0.685250998 -25.5983086
v 2.59270167 66.0263367 18.9827137
v -20.8836021 -0.770030022 -9.30517483
v 3.24243999 78.6221466 -10.3655415
v 16.40065 -1.20553923 -22.8384457
v -14.4000092 16.9888973 28.6160755
v -13.7173681 9.86167908 -27.0626774
v 15.6251545 71.3820419 13.9321079
v 14.2664042 -0.96498239 15.9485769
v 9.67847729 75.763504 -20.4364147
v 0.138540044 41.9341011 23.9986591
v 16.6893406 50.2418785 -25.1274109
v -26.7966862 9.99843216 6.33240891
v 22.0564022 68.2630463 0.604413509
v -27.3663578 10.158452 -14.6366405
v 18.5532322 2.37158585 16.8756714
v -6.912992 70.4420166 14.0773544
v -12.7201719 5.69185209 26.7080002
v 27.6954746 27.2111816 8.8225193
v -24.4832745 18.5774422 -20.9116592
v -25.4362488 38.8907318 -13.2732382
v 10.6183691 80.0026703 -17.0804329
v 18.9789753 3.34770584 -25.3080826
v -22.0076561 35.2413521 7.4215703
v 18.2157078 77.7365875 -2.73817277
v -23.1111145 6.9029932 -20.7852116
v -22.6722527 55.6095467 -7.6343503
v 16.2215557 44.156292 21.7183552
v 17.0852222 7.08099174 -28.5015507
v -27.7459621 19.7677708 -14.1019516
v -5.92575264 75.0194397 -9.9740057
v 0.915020704 19.1865826 -27.7818184
v 14.2298698 80.5007019 -6.9274497
v 2.35964298 58.5814896 21.1632004
v -27.088995 7.72725725 -1.93222964
v 28.6559353 7.0790658 6.22880888
v 10.9289732 67.5733414 17.7901897
v -23.5350037 28.4204502 -20.8985634
v 23.5962753 -0.356490642 4.59195852
v 16.4265614 79.2961884 -9.14598751
v -14.1027842 33.6441345 24.9658833
v 0.716621816 3.80639577 26.5788307
v -15.7444401 67.90271 0.915146291
v -20.7704487 5.9686799 21.6542397
v 18.5077248 0.362926483 -22.7017746
v 13.8851862 78.8450546 2.35183406
v -20.9771328 52.3029099 0.0809980109
v -16.4035778 0.0078363819 12.6572809
v 6.74377441 33.5012703 -27.0863476
v -3.31245971 72.0252075 13.79175
v -19.9213066 1.82579005 -18.9946804
v -8.33538151 69.6569595 14.0271482
v 14.6427031 78.06073 -16.4359818
v 27.5960846 11.5520954 17.8332996
v -9.31914139 73.7687912 -15.5844822
v 1.82519126 4.19590807 -28.2496071
v 17.0032291 66.3909912 -21.7997665
v -28.4293442 16.2903614 -4.56603432
v 17.6937122 59.0547256 18.835144
v 18.9317265 59.8356438 -22.0774841
v -11.2820568 66.5516891 -19.1344414
v -9.00375938 53.0263367 20.9379253
v 24.4190578 3.58045197 -17.4942131
v 17.1147175 75.5791321 5.45774746
v -17.9250984 11.405282 26.8386993
v -24.9896221 45.1848068 -9.29323483
v 7.85884905 70.9099426 15.164854
v -9.97261047 -0.993558049 16.4445724
v 11.1451359 0.388449609 -25.4946156
v -14.0865641 70.6255341 -11.4463453
v -19.2552185 -1.34513092 -14.5650063
v -4.14922476 2.5889833 25.6721878
v 3.26869035 78.7147675 -16.8305397
v -20.5556736 2.91055322 -19.9002609
v -9.4439106 62.1496658 17.1580067
v 23.4244938 -0.374806404 -5.39142704
v -24.4853439 5.41760015 9.37809086
v 25.3276787 50.6745148 8.49110031
v 23.828043 1.65100741 8.78050804
v -20.6413364 50.994709 -17.0402298
v 26.9387074 18.9318771 22.1386929
v -25.2487392 12.442915 -20.9058132
v 22.748951 -1.33005464 4.8577714
v 21.7841759 28.2279396 -26.042305
v -14.4885902 -1.34905839 6.02630615
v -17.2817974 20.2897778 26.2440891
v -18.3617649 48.5584106 -19.7097092
v -9.6216774 11.0829735 28.3150425
v -15.6171198 7.56570387 27.2457924
v 20.0796165 58.6346054 17.2700825
v -16.8015537 29.0100594 23.846487
v 23.9571915 45.6375618 19.4458389
v 16.4628105 77.048111 3.80916882
v 22.9541473 8.11476517 -24.5037823
v 1.88764191 72.4794922 13.9279099
v -6.07369518 -1.36988831 -21.4778442
v 14.6173363 70.5735703 14.886508
v 21.201355 3.97136211 16.7238846
v 22.699255 10.8430328 -26.1515427
v 0.547093987 2.402668 25.3904037
v -23.3469105 5.48574495 14.5679989
v -7.79510927 25.2763824 26.8541336
v 8.78398323 1.2367363 20.7032394
v -17.182291 68.1620865 -5.57126045
v -22.7542076 27.9717445 -21.2447777
vt 0.050776016 0.243030161 0
vt 0.196044266 0.0218267161 0
vt 0.253495306 0.119848385 0
vt 0.966273546 0.525478899 0
vt 0.795877457 0.387750715 0
vt 0.961046934 0.468604326 0
vt 0.736339927 0.121302113 0
vt 0.657356381 0.0775176436 0
vt 0.782042027 0.0616383776 0
vt 0.00387596618 0.737676978 0
vt 0.0134036932 0.666791022 0
vt 0.0244143847 0.803314686 0
vt 0.632354856 0.323221892 0
vt 0.448640943 0.296142071 0
vt 0.465319335 0.194305882 0
vt 0.974403322 0.79070729 0
vt 0.899712563 0.886102378 0
vt 0.822894514 0.81577903 0
vt 0.0211795755 0.0901450962 0
vt 0.196044266 0.0218267161 0
vt 0.050776016 0.243030161 0
vt 0.409269243 0.360826284 0
vt 0.538408995 0.370856941 0
vt 0.560506999 0.46806547 0
vt 0.00797104184 0.173355743 0
vt 0.0211795755 0.0901450962 0
vt 0.050776016 0.243030161 0
vt 0.755758643 0.707391798 0
vt 0.644835591 0.585129619 0
vt 0.729181767 0.55279094 0
vt 0.215444311 0.647806346 0
vt 0.304328144 0.724856257 0
vt 0.159770072 0.873018861 0
vt 0.738564014 0.889194429 0
vt 0.749138713 0.935476959 0
vt 0.714871347 0.853458285 0
vt 0.290970653 0.335243016 0
vt 0.198801741 0.314822972 0
vt 0.322868735 0.318647087 0
vt 0.800765932 0.340793937 0
vt 0.857910633 0.18697916 0
vt 0.897722483 0.294355601 0
vt 0.215444311 0.647806346 0
vt 0.159770072 0.873018861 0
vt 0.100480556 0.911714733 0
vt 0.601413488 0.747982681 0
vt 0.698086143 0.7816571 0
vt 0.542748272 0.840341747 0
vt 0.808579087 0.360574931 0
vt 0.880395114 0.370672852 0
vt 0.795877457 0.387750715 0
vt 0.350320309 0.160483733 0
vt 0.389186203 0.229994088 0
vt 0.306624264 0.21977517 0
vt 0.306624264 0.21977517 0
vt 0.27553317 0.0659884438 0
vt 0.350320309 0.160483733 0
vt 0.54973948 0.126107439 0
vt 0.618531585 0.107948758 0
vt 0.736339927 0.121302113 0
vt 0.527386665 0.569091916 0
vt 0.270665348 0.622917771 0
vt 0.319077939 0.517887235 0
vt 0.389602691 0.826799095 0
vt 0.276969105 0.83106184 0
vt 0.304328144 0.724856257 0
vt 0.114689514 0.321319878 0
vt 0.050776016 0.243030161 0
vt 0.253495306 0.119848385 0
vt 0.0779595077 0.439788491 0
vt 0.0534878448 0.48598063 0
vt 0.0431509241 0.43545413 0
vt 0.589632154 0.404829592 0
vt 0.566609085 0.352968752 0
vt 0.593329251 0.350180387 0
vt 0.115257993 0.0195610151 0
vt 0.127880931 0.0271735191 0
vt 0.0420732498 0.0232212935 0
vt 0.560506999 0.46806547 0
vt 0.602791607 0.561780334 0
vt 0.527386665 0.569091916 0
vt 0.463071376 0.476939708 0
vt 0.527386665 0.569091916 0
vt 0.319077939 0.517887235 0
vt 0.457404256 0.776732743 0
vt 0.484315425 0.798792005 0
vt 0.440260619 0.829955101 0
vt 0.196044266 0.0218267161 0
vt 0.283178747 0.00805954728 0
vt 0.27553317 0.0659884438 0
vt 0.196044266 0.0218267161 0
vt 0.27553317 0.0659884438 0
vt 0.253495306 0.119848385 0
vt 0.481785804 0.144970939 0
vt 0.432452947 0.11137224 0
vt 0.443814725 0.049389489 0
vt 0.159770072 0.873018861 0
vt 0.212373987 0.920997322 0
vt 0.100480556 0.911714733 0
vt 0.248865217 0.380514294 0
vt 0.366648525 0.441945165 0
vt 0.319077939 0.517887235 0
vt 0.857910633 0.18697916 0
vt 0.809977651 0.120592788 0
vt 0.8669101 0.132279828 0
vt 0.668531001 0.968808591 0
vt 0.593001485 0.970992208 0
vt 0.651109397 0.953689814 0
vt 0.705314279 0.94261837 0
vt 0.741903067 0.943116963 0
vt 0.683887899 0.969780385 0
vt 0.782042027 0.0616383776 0
vt 0.657356381 0.0775176436 0
vt 0.71901989 0.0172393173 0
vt 0.474817812 0.652473807 0
vt 0.41074577 0.643737257 0
vt 0.527386665 0.569091916 0
vt 0.729181767 0.55279094 0
vt 0.632596493 0.510376036 0
vt 0.655333579 0.45700556 0
vt 0.440260619 0.829955101 0
vt 0.487359643 0.875898778 0
vt 0.473274916 0.898636162 0
vt 0.542748272 0.840341747 0
vt 0.700185239 0.792371571 0
vt 0.702975929 0.818758368 0
vt 0.366360158 0.290457189 0
vt 0.306624264 0.21977517 0
vt 0.389186203 0.229994088 0
vt 0.0152986329 0.953047574 0
vt 0.0394393615 0.911883414 0
vt 0.0612605438 0.930837929 0
vt 0.825038135 0.0102032628 0
vt 0.782042027 0.0616383776 0
vt 0.71901989 0.0172393173 0
vt 0.0244143847 0.803314686 0
vt 0.0129864011 0.801670015 0
vt 0.00387596618 0.737676978 0
vt 0.389186203 0.229994088 0
vt 0.350320309 0.160483733 0
vt 0.366006076 0.172231957 0
vt 0.281099528 0.350691646 0
vt 0.409269243 0.360826284 0
vt 0.248865217 0.380514294 0
vt 0.409269243 0.360826284 0
vt 0.39855969 0.336852282 0
vt 0.456243128 0.334632903 0
vt 0.610691667 0.050660383 0
vt 0.71901989 0.0172393173 0
vt 0.657356381 0.0775176436 0
vt 0.510327697 0.915554404 0
vt 0.593001485 0.970992208 0
vt 0.521919608 0.966377616 0
vt 0.961046934 0.468604326 0
vt 0.795877457 0.387750715 0
vt 0.932619631 0.392411441 0
vt 0.690822721 0.21682702 0
vt 0.632354856 0.323221892 0
vt 0.573653638 0.177045196 0
vt 0.800765932 0.340793937 0
vt 0.7064538 0.34805119 0
vt 0.739857435 0.330989242 0
vt 0.822894514 0.81577903 0
vt 0.798095822 0.87555784 0
vt 0.689998806 0.714961052 0
vt 0.517004251 0.654732943 0
vt 0.527386665 0.569091916 0
vt 0.553403139 0.638761938 0
vt 0.866394281 0.00305801095 0
vt 0.842428863 0.052241344 0
vt 0.825038135 0.0102032628 0
vt 0.481785804 0.144970939 0
vt 0.567481935 0.0579420552 0
vt 0.54973948 0.126107439 0
vt 0.573653638 0.177045196 0
vt 0.632354856 0.323221892 0
vt 0.465319335 0.194305882 0
vt 0.304328144 0.724856257 0
vt 0.215444311 0.647806346 0
vt 0.322552085 0.672246575 0
vt 0.408501506 0.707161963 0
vt 0.493591249 0.745932579 0
vt 0.406206906 0.725988209 0
vt 0.566609085 0.352968752 0
vt 0.515647709 0.331689715 0
vt 0.536038756 0.324908763 0
vt 0.538408995 0.370856941 0
vt 0.409269243 0.360826284 0
vt 0.515647709 0.331689715 0
vt 0.842428863 0.052241344 0
vt 0.782042027 0.0616383776 0
vt 0.825038135 0.0102032628 0
vt 0.782042027 0.0616383776 0
vt 0.842428863 0.052241344 0
vt 0.809977651 0.120592788 0
vt 0.510327697 0.915554404 0
vt 0.542748272 0.840341747 0
vt 0.553339839 0.905566633 0
vt 0.145197242 0.579054832 0
vt 0.0885406956 0.573195279 0
vt 0.0779595077 0.439788491 0
vt 0.352303743 0.676447749 0
vt 0.408501506 0.707161963 0
vt 0.406206906 0.725988209 0
vt 0.560506999 0.46806547 0
vt 0.538408995 0.370856941 0
vt 0.589632154 0.404829592 0
vt 0.602791607 0.561780334 0
vt 0.560506999 0.46806547 0
vt 0.589761019 0.450312346 0
vt 0.857910633 0.18697916 0
vt 0.690822721 0.21682702 0
vt 0.736339927 0.121302113 0
vt 0.690822721 0.21682702 0
vt 0.54973948 0.126107439 0
vt 0.736339927 0.121302113 0
vt 0.457404256 0.776732743 0
vt 0.440260619 0.829955101 0
vt 0.389602691 0.826799095 0
vt 0.892846704 0.206405893 0
vt 0.895272076 0.242492035 0
vt 0.857910633 0.18697916 0
vt 0.966273546 0.525478899 0
vt 0.727411866 0.419362187 0
vt 0.795877457 0.387750715 0
vt 0.730260432 0.360127866 0
vt 0.795877457 0.387750715 0
vt 0.727411866 0.419362187 0
vt 0.484315425 0.798792005 0
vt 0.457404256 0.776732743 0
vt 0.485436022 0.753031313 0
vt 0.406206906 0.725988209 0
vt 0.485436022 0.753031313 0
vt 0.457404256 0.776732743 0
vt 0.730260432 0.360127866 0
vt 0.808579087 0.360574931 0
vt 0.795877457 0.387750715 0
vt 0.532241285 0.995287836 0
vt 0.521919608 0.966377616 0
vt 0.583574235 0.989361703 0
vt 0.7064538 0.34805119 0
vt 0.632354856 0.323221892 0
vt 0.739857435 0.330989242 0
vt 0.412516356 0.909194529 0
vt 0.28644529 0.934259355 0
vt 0.347257972 0.899008334 0
vt 0.366360158 0.290457189 0
vt 0.292299241 0.266502887 0
vt 0.306624264 0.21977517 0
vt 0.00384780602 0.127161205 0
vt 0.017836066 0.0755467191 0
vt 0.0211795755 0.0901450962 0
vt 0.0211795755 0.0901450962 0
vt 0.127880931 0.0271735191 0
vt 0.196044266 0.0218267161 0
vt 0.705314279 0.94261837 0
vt 0.668531001 0.968808591 0
vt 0.651109397 0.953689814 0
vt 0.651109397 0.953689814 0
vt 0.676772356 0.899238467 0
vt 0.705314279 0.94261837 0
vt 0.319077939 0.517887235 0
vt 0.270665348 0.622917771 0
vt 0.246835545 0.533843458 0
vt 0.573653638 0.177045196 0
vt 0.481785804 0.144970939 0
vt 0.54973948 0.126107439 0
vt 0.573653638 0.177045196 0
vt 0.54973948 0.126107439 0
vt 0.690822721 0.21682702 0
vt 0.248865217 0.380514294 0
vt 0.409269243 0.360826284 0
vt 0.366648525 0.441945165 0
vt 0.366648525 0.441945165 0
vt 0.409269243 0.360826284 0
vt 0.463071376 0.476939708 0
vt 0.866394281 0.00305801095 0
vt 0.910731912 0.00838583149 0
vt 0.842428863 0.052241344 0
vt 0.58202976 0.624095976 0
vt 0.553403139 0.638761938 0
vt 0.527386665 0.569091916 0
vt 0.215444311 0.647806346 0
vt 0.100480556 0.911714733 0
vt 0.0244143847 0.803314686 0
vt 0.0657767951 0.875660002 0
vt 0.0394393615 0.911883414 0
vt 0.0244143847 0.803314686 0
vt 0.502163112 0.313393801 0
vt 0.448640943 0.296142071 0
vt 0.632354856 0.323221892 0
vt 0.655333579 0.45700556 0
vt 0.645968437 0.390915185 0
vt 0.7024858 0.376730859 0
vt 0.0244143847 0.803314686 0
vt 0.0264978781 0.650289118 0
vt 0.0852090642 0.61465925 0
vt 0.71901989 0.0172393173 0
vt 0.721014559 0.0118561639 0
vt 0.784126341 0.0115350541 0
vt 0.500691593 0.823260665 0
vt 0.542748272 0.840341747 0
vt 0.510327697 0.915554404 0
vt 0.522090077 0.780708432 0
vt 0.601413488 0.747982681 0
vt 0.542748272 0.840341747 0
vt 0.406206906 0.725988209 0
vt 0.304328144 0.724856257 0
vt 0.322552085 0.672246575 0
vt 0.463071376 0.476939708 0
vt 0.409269243 0.360826284 0
vt 0.560506999 0.46806547 0
vt 0.527386665 0.569091916 0
vt 0.463071376 0.476939708 0
vt 0.560506999 0.46806547 0
vt 0.136480004 0.387454093 0
vt 0.145515367 0.394439548 0
vt 0.051479198 0.404863834 0
vt 0.145515367 0.394439548 0
vt 0.136480004 0.387454093 0
vt 0.248865217 0.380514294 0
vt 0.736339927 0.121302113 0
vt 0.782042027 0.0616383776 0
vt 0.809977651 0.120592788 0
vt 0.857910633 0.18697916 0
vt 0.736339927 0.121302113 0
vt 0.809977651 0.120592788 0
vt 0.179251254 0.368304342 0
vt 0.248865217 0.380514294 0
vt 0.136480004 0.387454093 0
vt 0.842428863 0.052241344 0
vt 0.932778955 0.0762683302 0
vt 0.8669101 0.132279828 0
vt 0.809977651 0.120592788 0
vt 0.842428863 0.052241344 0
vt 0.8669101 0.132279828 0
vt 0.880395114 0.370672852 0
vt 0.92274642 0.331879854 0
vt 0.932619631 0.392411441 0
vt 0.932619631 0.392411441 0
vt 0.795877457 0.387750715 0
vt 0.880395114 0.370672852 0
vt 0.854406297 0.878662825 0
vt 0.798095822 0.87555784 0
vt 0.822894514 0.81577903 0
vt 0.668531001 0.968808591 0
vt 0.628115416 0.99218446 0
vt 0.593001485 0.970992208 0
vt 0.618531585 0.107948758 0
vt 0.657356381 0.0775176436 0
vt 0.736339927 0.121302113 0
vt 0.140839189 0.633421421 0
vt 0.215444311 0.647806346 0
vt 0.0244143847 0.803314686 0
vt 0.0244143847 0.803314686 0
vt 0.0852090642 0.61465925 0
vt 0.140839189 0.633421421 0
vt 0.702975929 0.818758368 0
vt 0.714871347 0.853458285 0
vt 0.676772356 0.899238467 0
vt 0.440260619 0.829955101 0
vt 0.493553102 0.840775967 0
vt 0.487359643 0.875898778 0
vt 0.560506999 0.46806547 0
vt 0.589632154 0.404829592 0
vt 0.589761019 0.450312346 0
vt 0.0211795755 0.0901450962 0
vt 0.00797104184 0.173355743 0
vt 0.00384780602 0.127161205 0
vt 0.500691593 0.823260665 0
vt 0.522090077 0.780708432 0
vt 0.542748272 0.840341747 0
vt 0.114689514 0.321319878 0
vt 0.0819591507 0.338121742 0
vt 0.0558966957 0.281549543 0
vt 0.0244143847 0.803314686 0
vt 0.0105180396 0.833904326 0
vt 0.0129864011 0.801670015 0
vt 0.0558966957 0.281549543 0
vt 0.050776016 0.243030161 0
vt 0.114689514 0.321319878 0
vt 0.473274916 0.898636162 0
vt 0.412516356 0.909194529 0
vt 0.440260619 0.829955101 0
vt 0.473274916 0.898636162 0
vt 0.467437416 0.9080773 0
vt 0.412516356 0.909194529 0
vt 0.017836066 0.0755467191 0
vt 0.0420732498 0.0232212935 0
vt 0.0211795755 0.0901450962 0
vt 0.573653638 0.177045196 0
vt 0.465319335 0.194305882 0
vt 0.481785804 0.144970939 0
vt 0.522090077 0.780708432 0
vt 0.556550324 0.748062015 0
vt 0.601413488 0.747982681 0
vt 0.857910633 0.18697916 0
vt 0.8669101 0.132279828 0
vt 0.892846704 0.206405893 0
vt 0.7024858 0.376730859 0
vt 0.727411866 0.419362187 0
vt 0.655333579 0.45700556 0
vt 0.949697137 0.874774516 0
vt 0.899712563 0.886102378 0
vt 0.974403322 0.79070729 0
vt 0.736330569 0.862033546 0
vt 0.689998806 0.714961052 0
vt 0.798095822 0.87555784 0
vt 0.822894514 0.81577903 0
vt 0.755758643 0.707391798 0
vt 0.972108781 0.642922401 0
vt 0.729181767 0.55279094 0
vt 0.972108781 0.642922401 0
vt 0.755758643 0.707391798 0
vt 0.7024858 0.376730859 0
vt 0.730260432 0.360127866 0
vt 0.727411866 0.419362187 0
vt 0.196044266 0.0218267161 0
vt 0.127880931 0.0271735191 0
vt 0.193582937 0.014971924 0
vt 0.293928772 0.653403878 0
vt 0.251601875 0.644970238 0
vt 0.270665348 0.622917771 0
vt 0.755758643 0.707391798 0
vt 0.689998806 0.714961052 0
vt 0.644835591 0.585129619 0
vt 0.822894514 0.81577903 0
vt 0.689998806 0.714961052 0
vt 0.755758643 0.707391798 0
vt 0.481785804 0.144970939 0
vt 0.443814725 0.049389489 0
vt 0.517670512 0.0498741716 0
vt 0.729181767 0.55279094 0
vt 0.644835591 0.585129619 0
vt 0.632596493 0.510376036 0
vt 0.589632154 0.404829592 0
vt 0.538408995 0.370856941 0
vt 0.566609085 0.352968752 0
vt 0.825038135 0.0102032628 0
vt 0.71901989 0.0172393173 0
vt 0.784126341 0.0115350541 0
vt 0.517004251 0.654732943 0
vt 0.474817812 0.652473807 0
vt 0.527386665 0.569091916 0
vt 0.223520651 0.00386114628 0
vt 0.283178747 0.00805954728 0
vt 0.196044266 0.0218267161 0
vt 0.223520651 0.00386114628 0
vt 0.196044266 0.0218267161 0
vt 0.193582937 0.014971924 0
vt 0.409269243 0.360826284 0
vt 0.281099528 0.350691646 0
vt 0.39855969 0.336852282 0
vt 0.245516986 0.262414545 0
vt 0.114689514 0.321319878 0
vt 0.253495306 0.119848385 0
vt 0.245516986 0.262414545 0
vt 0.253495306 0.119848385 0
vt 0.306624264 0.21977517 0
vt 0.100480556 0.911714733 0
vt 0.212373987 0.920997322 0
vt 0.121089958 0.934901774 0
vt 0.0244143847 0.803314686 0
vt 0.100480556 0.911714733 0
vt 0.0657767951 0.875660002 0
vt 0.90090704 0.00353617803 0
vt 0.910731912 0.00838583149 0
vt 0.866394281 0.00305801095 0
vt 0.714871347 0.853458285 0
vt 0.749138713 0.935476959 0
vt 0.705314279 0.94261837 0
vt 0.800765932 0.340793937 0
vt 0.690822721 0.21682702 0
vt 0.857910633 0.18697916 0
vt 0.0657767951 0.875660002 0
vt 0.100480556 0.911714733 0
vt 0.0394393615 0.911883414 0
vt 0.319077939 0.517887235 0
vt 0.0779595077 0.439788491 0
vt 0.145515367 0.394439548 0
vt 0.542748272 0.840341747 0
vt 0.698086143 0.7816571 0
vt 0.700185239 0.792371571 0
vt 0.0270252358 0.892820716 0
vt 0.0394393615 0.911883414 0
vt 0.0152986329 0.953047574 0
vt 0.736330569 0.862033546 0
vt 0.703028858 0.776170194 0
vt 0.689998806 0.714961052 0
vt 0.395194113 0.0789089799 0
vt 0.443814725 0.049389489 0
vt 0.432452947 0.11137224 0
vt 0.739857435 0.330989242 0
vt 0.632354856 0.323221892 0
vt 0.690822721 0.21682702 0
vt 0.808579087 0.360574931 0
vt 0.730260432 0.360127866 0
vt 0.796663761 0.351534069 0
vt 0.0779595077 0.439788491 0
vt 0.0885406956 0.573195279 0
vt 0.0534878448 0.48598063 0
vt 0.352303743 0.676447749 0
vt 0.406206906 0.725988209 0
vt 0.322552085 0.672246575 0
vt 0.689998806 0.714961052 0
vt 0.677196443 0.68759799 0
vt 0.644835591 0.585129619 0
vt 0.389602691 0.826799095 0
vt 0.406206906 0.725988209 0
vt 0.457404256 0.776732743 0
vt 0.347257972 0.899008334 0
vt 0.28644529 0.934259355 0
vt 0.212373987 0.920997322 0
vt 0.92274642 0.331879854 0
vt 0.941491544 0.351287335 0
vt 0.932619631 0.392411441 0
vt 0.462294996 0.1498207 0
vt 0.481785804 0.144970939 0
vt 0.465319335 0.194305882 0
vt 0.100480556 0.911714733 0
vt 0.0612605438 0.930837929 0
vt 0.0394393615 0.911883414 0
vt 0.440260619 0.829955101 0
vt 0.484315425 0.798792005 0
vt 0.493553102 0.840775967 0
vt 0.602791607 0.561780334 0
vt 0.589761019 0.450312346 0
vt 0.613797069 0.52581948 0
vt 0.100480556 0.911714733 0
vt 0.121089958 0.934901774 0
vt 0.0612605438 0.930837929 0
vt 0.897722483 0.294355601 0
vt 0.863240957 0.338655233 0
vt 0.800765932 0.340793937 0
vt 0.493591249 0.745932579 0
vt 0.485436022 0.753031313 0
vt 0.406206906 0.725988209 0
vt 0.749138713 0.935476959 0
vt 0.741903067 0.943116963 0
vt 0.705314279 0.94261837 0
vt 0.0394393615 0.911883414 0
vt 0.0270252358 0.892820716 0
vt 0.0105180396 0.833904326 0
vt 0.593001485 0.970992208 0
vt 0.676772356 0.899238467 0
vt 0.651109397 0.953689814 0
vt 0.253495306 0.119848385 0
vt 0.27553317 0.0659884438 0
vt 0.306624264 0.21977517 0
vt 0.440260619 0.829955101 0
vt 0.412516356 0.909194529 0
vt 0.347257972 0.899008334 0
vt 0.0134036932 0.666791022 0
vt 0.0264978781 0.650289118 0
vt 0.0244143847 0.803314686 0
vt 0.553339839 0.905566633 0
vt 0.676772356 0.899238467 0
vt 0.593001485 0.970992208 0
vt 0.283178747 0.00805954728 0
vt 0.284640044 0.0306497552 0
vt 0.27553317 0.0659884438 0
vt 0.409269243 0.360826284 0
vt 0.456243128 0.334632903 0
vt 0.515647709 0.331689715 0
vt 0.947062135 0.408246547 0
vt 0.961046934 0.468604326 0
vt 0.932619631 0.392411441 0
vt 0.510327697 0.915554404 0
vt 0.553339839 0.905566633 0
vt 0.593001485 0.970992208 0
vt 0.729181767 0.55279094 0
vt 0.655333579 0.45700556 0
vt 0.727411866 0.419362187 0
vt 0.145197242 0.579054832 0
vt 0.246835545 0.533843458 0
vt 0.270665348 0.622917771 0
vt 0.0779595077 0.439788491 0
vt 0.246835545 0.533843458 0
vt 0.145197242 0.579054832 0
vt 0.358202785 0.140687436 0
vt 0.366006076 0.172231957 0
vt 0.350320309 0.160483733 0
vt 0.358202785 0.140687436 0
vt 0.350320309 0.160483733 0
vt 0.316248655 0.093555592 0
vt 0.248865217 0.380514294 0
vt 0.179251254 0.368304342 0
vt 0.281099528 0.350691646 0
vt 0.969688058 0.744692266 0
vt 0.822894514 0.81577903 0
vt 0.972108781 0.642922401 0
vt 0.292299241 0.266502887 0
vt 0.322868735 0.318647087 0
vt 0.198801741 0.314822972 0
vt 0.583574235 0.989361703 0
vt 0.521919608 0.966377616 0
vt 0.593001485 0.970992208 0
vt 0.319077939 0.517887235 0
vt 0.145515367 0.394439548 0
vt 0.248865217 0.380514294 0
vt 0.292299241 0.266502887 0
vt 0.198801741 0.314822972 0
vt 0.245516986 0.262414545 0
vt 0.0105180396 0.833904326 0
vt 0.0244143847 0.803314686 0
vt 0.0394393615 0.911883414 0
vt 0.937111914 0.12351881 0
vt 0.892846704 0.206405893 0
vt 0.932778955 0.0762683302 0
vt 0.892846704 0.206405893 0
vt 0.8669101 0.132279828 0
vt 0.932778955 0.0762683302 0
vt 0.481785804 0.144970939 0
vt 0.517670512 0.0498741716 0
vt 0.567481935 0.0579420552 0
vt 0.276969105 0.83106184 0
vt 0.212373987 0.920997322 0
vt 0.159770072 0.873018861 0
vt 0.714871347 0.853458285 0
vt 0.705314279 0.94261837 0
vt 0.676772356 0.899238467 0
vt 0.739857435 0.330989242 0
vt 0.690822721 0.21682702 0
vt 0.800765932 0.340793937 0
vt 0.538408995 0.370856941 0
vt 0.515647709 0.331689715 0
vt 0.566609085 0.352968752 0
vt 0.592137396 0.622374475 0
vt 0.58202976 0.624095976 0
vt 0.602791607 0.561780334 0
vt 0.58202976 0.624095976 0
vt 0.527386665 0.569091916 0
vt 0.602791607 0.561780334 0
vt 0.319077939 0.517887235 0
vt 0.366648525 0.441945165 0
vt 0.463071376 0.476939708 0
vt 0.152244866 0.326671541 0
vt 0.0819591507 0.338121742 0
vt 0.114689514 0.321319878 0
vt 0.842428863 0.052241344 0
vt 0.910731912 0.00838583149 0
vt 0.932778955 0.0762683302 0
vt 0.292299241 0.266502887 0
vt 0.245516986 0.262414545 0
vt 0.306624264 0.21977517 0
vt 0.389602691 0.826799095 0
vt 0.440260619 0.829955101 0
vt 0.347257972 0.899008334 0
vt 0.304328144 0.724856257 0
vt 0.276969105 0.83106184 0
vt 0.159770072 0.873018861 0
vt 0.251601875 0.644970238 0
vt 0.209997833 0.615204573 0
vt 0.270665348 0.622917771 0
vt 0.209997833 0.615204573 0
vt 0.145197242 0.579054832 0
vt 0.270665348 0.622917771 0
vt 0.127880931 0.0271735191 0
vt 0.0211795755 0.0901450962 0
vt 0.0420732498 0.0232212935 0
vt 0.567481935 0.0579420552 0
vt 0.657356381 0.0775176436 0
vt 0.618531585 0.107948758 0
vt 0.54973948 0.126107439 0
vt 0.567481935 0.0579420552 0
vt 0.618531585 0.107948758 0
vt 0.553339839 0.905566633 0
vt 0.542748272 0.840341747 0
vt 0.676772356 0.899238467 0
vt 0.316248655 0.093555592 0
vt 0.350320309 0.160483733 0
vt 0.27553317 0.0659884438 0
vt 0.27553317 0.0659884438 0
vt 0.284640044 0.0306497552 0
vt 0.316248655 0.093555592 0
vt 0.657356381 0.0775176436 0
vt 0.567481935 0.0579420552 0
vt 0.610691667 0.050660383 0
vt 0.683887899 0.969780385 0
vt 0.668531001 0.968808591 0
vt 0.705314279 0.94261837 0
vt 0.857910633 0.18697916 0
vt 0.895272076 0.242492035 0
vt 0.897722483 0.294355601 0
vt 0.798095822 0.87555784 0
vt 0.854406297 0.878662825 0
vt 0.809789181 0.885617852 0
vt 0.41074577 0.643737257 0
vt 0.270665348 0.622917771 0
vt 0.527386665 0.569091916 0
vt 0.407951266 0.649059117 0
vt 0.293928772 0.653403878 0
vt 0.270665348 0.622917771 0
vt 0.966273546 0.525478899 0
vt 0.729181767 0.55279094 0
vt 0.727411866 0.419362187 0
vt 0.972108781 0.642922401 0
vt 0.729181767 0.55279094 0
vt 0.966273546 0.525478899 0
vt 0.406206906 0.725988209 0
vt 0.389602691 0.826799095 0
vt 0.304328144 0.724856257 0
vt 0.152244866 0.326671541 0
vt 0.245516986 0.262414545 0
vt 0.198801741 0.314822972 0
vt 0.152244866 0.326671541 0
vt 0.114689514 0.321319878 0
vt 0.245516986 0.262414545 0
vt 0.974403322 0.79070729 0
vt 0.822894514 0.81577903 0
vt 0.969688058 0.744692266 0
vt 0.542748272 0.840341747 0
vt 0.702975929 0.818758368 0
vt 0.676772356 0.899238467 0
vt 0.462294996 0.1498207 0
vt 0.432452947 0.11137224 0
vt 0.481785804 0.144970939 0
vt 0.407951266 0.649059117 0
vt 0.270665348 0.622917771 0
vt 0.41074577 0.643737257 0
vt 0.389602691 0.826799095 0
vt 0.347257972 0.899008334 0
vt 0.276969105 0.83106184 0
vt 0.145515367 0.394439548 0
vt 0.0779595077 0.439788491 0
vt 0.051479198 0.404863834 0
vt 0.292299241 0.266502887 0
vt 0.366360158 0.290457189 0
vt 0.322868735 0.318647087 0
vt 0.246835545 0.533843458 0
vt 0.0779595077 0.439788491 0
vt 0.319077939 0.517887235 0
vt 0.347257972 0.899008334 0
vt 0.212373987 0.920997322 0
vt 0.276969105 0.83106184 0
vt 0.628115416 0.99218446 0
vt 0.583574235 0.989361703 0
vt 0.593001485 0.970992208 0
vt 0.822894514 0.81577903 0
vt 0.899712563 0.886102378 0
vt 0.854406297 0.878662825 0
vt 0.0431509241 0.43545413 0
vt 0.051479198 0.404863834 0
vt 0.0779595077 0.439788491 0
vn -0.106265277 -0.916239977 -0.390161008
vn 0.194202051 -0.972242177 0.058445096
vn -0.0145564135 -1.0050503 0.0347226709
vn 0.874373198 0.0721251741 -0.416286767
vn 0.932460785 -0.318714678 -0.146852776
vn 0.786237359 0.0523487367 -0.615703225
vn -0.981406033 0.145218492 0.123414971
vn -0.94203794 0.181241095 -0.285599828
vn -0.980748415 0.0829554871 -0.209189594
vn 0.327795088 -0.620519698 0.712394297
vn 0.435752898 -0.627384722 0.645374119
vn 0.166441947 -0.339323878 0.94530803
vn -0.821581483 0.247355387 0.512755334
vn -0.635975301 0.661978543 0.397164851
vn -0.801490486 0.487305641 0.327870458
vn 0.766426504 0.311574042 -0.520675957
vn 0.879211843 0.455744386 -0.163135916
vn 0.970584154 0.235635862 -0.0431756414
vn 0.161086187 -0.939347506 -0.301331848
vn 0.194202051 -0.972242177 0.058445096
vn -0.106265277 -0.916239977 -0.390161008
vn 0.214822158 0.0955080464 -0.9727965
vn 0.220478788 -0.222090319 -0.947558224
vn -0.119730711 -0.284319878 -0.952718377
vn -0.0461377501 -0.693200409 -0.720770061
vn 0.161086187 -0.939347506 -0.301331848
vn -0.106265277 -0.916239977 -0.390161008
vn 0.985649407 0.13838841 0.0169465877
vn 0.477916241 0.148977831 0.819080055
vn 1.01698291 0.0919442028 -0.0615102425
vn 0.477916241 0.148977831 0.819080055
vn 0.166853026 0.136397421 0.976949036
vn 0.0868949592 0.133436039 0.98692137
vn 0.0339648835 0.689242482 0.72373414
vn 0.29291755 0.584289551 0.758938789
vn -0.112246744 0.743947446 0.698130667
vn -0.847373128 -0.533854425 0.181458279
vn -0.552826166 -0.828873634 0.119976714
vn -0.760979116 -0.59879756 0.222044498
vn -0.826802313 0.187502205 0.541430354
vn -0.967062056 -0.0170920193 0.276036292
vn -0.742109001 -0.325042188 0.474245369
vn 0.477916241 0.148977831 0.819080055
vn 0.0868949592 0.133436039 0.98692137
vn 0.0197796244 0.100824557 1.02219439
vn -0.801490486 0.487305641 0.327870458
vn -0.635975301 0.661978543 0.397164851
vn -0.401247084 0.917036116 0.150814444
vn 0.72439909 -0.679513693 -0.116219692
vn 0.879827678 -0.402882457 -0.252168596
vn 0.932460785 -0.318714678 -0.146852776
vn -0.0626152381 -0.847590983 0.52067703
vn -0.280034989 -0.744693398 0.5958184
vn -0.152934775 -0.935452461 0.280961871
vn -0.152934775 -0.935452461 0.280961871
vn 0.18988733 -0.911892235 0.352644503
vn -0.0626152381 -0.847590983 0.52067703
vn -0.961527884 0.234817997 0.113558754
vn -0.982426226 0.191405728 -0.0516149737
vn -0.981406033 0.145218492 0.123414971
vn -0.252758741 -0.0557825193 -0.960778177
vn -0.466961712 0.192268834 -0.866196215
vn -0.163307294 0.141434357 -0.982771039
vn 0.0139437681 0.211923674 0.977565408
vn 0.0333881639 0.155695185 0.990265846
vn 0.166853026 0.136397421 0.976949036
vn -0.335148543 -0.930919945 -0.160173103
vn -0.106265277 -0.916239977 -0.390161008
vn -0.0145564135 -1.0050503 0.0347226709
vn -0.0842824727 0.295700312 -0.967098594
vn -0.273477137 0.808685541 -0.50104022
vn 0.0870949253 0.888295889 -0.474126637
vn 0.0630121306 -0.711355805 -0.7294963
vn 0.523041487 -0.565026045 -0.649522126
vn 0.502759099 -0.694605589 -0.514544904
vn 0.72439909 -0.679513693 -0.116219692
vn 0.553973079 -0.830911934 -0.051885765
vn 0.879827678 -0.402882457 -0.252168596
vn -0.119730711 -0.284319878 -0.952718377
vn -0.267875612 -0.671776175 -0.692162693
vn -0.252758741 -0.0557825193 -0.960778177
vn -0.0512174815 0.0474044941 -1.00140679
vn -0.252758741 -0.0557825193 -0.960778177
vn -0.163307294 0.141434357 -0.982771039
vn 0.145937949 0.400730819 0.901144028
vn 0.0339648835 0.689242482 0.72373414
vn -0.0820898265 0.393422246 0.915213883
vn 0.194202051 -0.972242177 0.058445096
vn 0.476304799 -0.615806758 0.633369327
vn 0.18988733 -0.911892235 0.352644503
vn 0.194202051 -0.972242177 0.058445096
vn 0.18988733 -0.911892235 0.352644503
vn -0.0145564135 -1.0050503 0.0347226709
vn -0.860908329 0.465223372 -0.145024434
vn -0.684702396 0.695739448 -0.167788669
vn -0.494837999 0.339587718 -0.767187059
vn 0.0868949592 0.133436039 0.98692137
vn -0.282425016 0.232385233 0.916590214
vn 0.0197796244 0.100824557 1.02219439
vn 0.195811972 0.153566882 -0.969497621
vn -0.0552675873 0.0875435248 -1.00134528
vn -0.163307294 0.141434357 -0.982771039
vn -0.967062056 -0.0170920193 0.276036292
vn -1.0051322 -0.0159373339 -0.0140692247
vn -0.897129655 -0.437655151 0.0519874468
vn 0.540491939 0.771344244 0.364220679
vn 0.132213876 1.00512505 0.0989439264
vn 0.0852576122 0.961061478 0.261373371
vn 0.297811836 0.801701188 0.522263527
vn 0.670067847 0.527838171 0.510838151
vn 0.766358912 0.536874712 0.372137964
vn -0.980748415 0.0829554871 -0.209189594
vn -0.94203794 0.181241095 -0.285599828
vn -0.73847276 0.160914317 -0.674353063
vn -0.635559559 0.051944565 -0.770302355
vn -0.54597193 0.127919585 -0.82798028
vn -0.252758741 -0.0557825193 -0.960778177
vn 1.01698291 0.0919442028 -0.0615102425
vn 0.57850039 -0.059425652 0.711310267
vn 0.795369983 -0.337788731 0.502112329
vn -0.0820898265 0.393422246 0.915213883
vn -0.271407038 0.829499543 0.460580438
vn -0.408480614 0.713999927 0.552427471
vn -0.401247084 0.917036116 0.150814444
vn -0.408480614 0.713999927 0.552427471
vn -0.271407038 0.829499543 0.460580438
vn -0.742109001 -0.325042188 0.474245369
vn -0.152934775 -0.935452461 0.280961871
vn -0.280034989 -0.744693398 0.5958184
vn -0.742109001 -0.325042188 0.474245369
vn -0.280983299 -0.400198996 0.869633853
vn -0.700341284 -0.0474849753 0.722569227
vn -0.782471418 -0.0557842329 -0.630815566
vn -0.980748415 0.0829554871 -0.209189594
vn -0.73847276 0.160914317 -0.674353063
vn 0.166441947 -0.339323878 0.94530803
vn 0.199043766 -0.628173232 0.752183437
vn 0.327795088 -0.620519698 0.712394297
vn -0.280034989 -0.744693398 0.5958184
vn -0.0626152381 -0.847590983 0.52067703
vn -0.105374329 -0.636680365 0.769218743
vn 0.848670721 0.125815898 -0.493371546
vn 0.214822158 0.0955080464 -0.9727965
vn 0.195811972 0.153566882 -0.969497621
vn 0.214822158 0.0955080464 -0.9727965
vn 0.874373198 0.0721251741 -0.416286767
vn 0.786237359 0.0523487367 -0.615703225
vn -0.790492415 0.217885688 -0.5724051
vn -0.73847276 0.160914317 -0.674353063
vn -0.94203794 0.181241095 -0.285599828
vn -0.273477137 0.808685541 -0.50104022
vn 0.132213876 1.00512505 0.0989439264
vn 0.0870949253 0.888295889 -0.474126637
vn 0.786237359 0.0523487367 -0.615703225
vn 0.932460785 -0.318714678 -0.146852776
vn 0.855108798 -0.217534557 -0.474864542
vn -0.917998195 0.189888403 0.355406642
vn -0.821581483 0.247355387 0.512755334
vn -0.908080876 0.230461404 0.351092666
vn -0.826802313 0.187502205 0.541430354
vn -0.282425016 0.232385233 0.916590214
vn -0.886352956 0.189392418 0.428374857
vn 0.970584154 0.235635862 -0.0431756414
vn 0.766358912 0.536874712 0.372137964
vn 0.878133357 0.297596097 0.382463664
vn -0.782471418 -0.0557842329 -0.630815566
vn -0.252758741 -0.0557825193 -0.960778177
vn -0.676855087 -0.437856287 -0.597340405
vn -0.676855087 -0.437856287 -0.597340405
vn -0.914183199 -0.378755271 -0.189891145
vn -0.782471418 -0.0557842329 -0.630815566
vn -0.860908329 0.465223372 -0.145024434
vn -0.788965404 0.295335293 -0.568029463
vn -0.961527884 0.234817997 0.113558754
vn -0.908080876 0.230461404 0.351092666
vn -0.821581483 0.247355387 0.512755334
vn -0.801490486 0.487305641 0.327870458
vn 0.166853026 0.136397421 0.976949036
vn 0.477916241 0.148977831 0.819080055
vn 0.684102774 0.195871413 0.702593625
vn 0.76124686 0.364869058 0.535758495
vn 0.670067847 0.527838171 0.510838151
vn 0.32811746 0.249167681 0.924922407
vn 0.523041487 -0.565026045 -0.649522126
vn 0.824668884 -0.144967869 -0.574589133
vn 0.855108798 -0.217534557 -0.474864542
vn 0.220478788 -0.222090319 -0.947558224
vn 0.214822158 0.0955080464 -0.9727965
vn 0.824668884 -0.144967869 -0.574589133
vn -0.914183199 -0.378755271 -0.189891145
vn -0.980748415 0.0829554871 -0.209189594
vn -0.782471418 -0.0557842329 -0.630815566
vn -0.980748415 0.0829554871 -0.209189594
vn -0.914183199 -0.378755271 -0.189891145
vn -1.0051322 -0.0159373339 -0.0140692247
vn -0.273477137 0.808685541 -0.50104022
vn -0.401247084 0.917036116 0.150814444
vn -0.286072552 0.964663029 0.109114297
vn -0.494837999 0.339587718 -0.767187059
vn -0.529262543 0.701341629 -0.471459568
vn -0.0842824727 0.295700312 -0.967098594
vn 0.878133357 0.297596097 0.382463664
vn 0.76124686 0.364869058 0.535758495
vn 0.32811746 0.249167681 0.924922407
vn -0.119730711 -0.284319878 -0.952718377
vn 0.220478788 -0.222090319 -0.947558224
vn 0.0630121306 -0.711355805 -0.7294963
vn -0.267875612 -0.671776175 -0.692162693
vn -0.119730711 -0.284319878 -0.952718377
vn -0.0461377501 -0.693200409 -0.720770061
vn -0.967062056 -0.0170920193 0.276036292
vn -0.917998195 0.189888403 0.355406642
vn -0.981406033 0.145218492 0.123414971
vn -0.917998195 0.189888403 0.355406642
vn -0.961527884 0.234817997 0.113558754
vn -0.981406033 0.145218492 0.123414971
vn 0.145937949 0.400730819 0.901144028
vn -0.0820898265 0.393422246 0.915213883
vn 0.0139437681 0.211923674 0.977565408
vn -0.847373128 -0.533854425 0.181458279
vn -0.760979116 -0.59879756 0.222044498
vn -0.967062056 -0.0170920193 0.276036292
vn 0.874373198 0.0721251741 -0.416286767
vn 0.992822111 -0.0980307832 -0.0662907511
vn 0.932460785 -0.318714678 -0.146852776
vn 0.702057481 -0.731729269 0.0753805712
vn 0.932460785 -0.318714678 -0.146852776
vn 0.992822111 -0.0980307832 -0.0662907511
vn 0.0339648835 0.689242482 0.72373414
vn 0.145937949 0.400730819 0.901144028
vn 0.29291755 0.584289551 0.758938789
vn 0.32811746 0.249167681 0.924922407
vn 0.29291755 0.584289551 0.758938789
vn 0.145937949 0.400730819 0.901144028
vn 0.702057481 -0.731729269 0.0753805712
vn 0.72439909 -0.679513693 -0.116219692
vn 0.932460785 -0.318714678 -0.146852776
vn 0.711798251 0.552782357 -0.480820388
vn 0.0870949253 0.888295889 -0.474126637
vn 0.879211843 0.455744386 -0.163135916
vn -0.282425016 0.232385233 0.916590214
vn -0.821581483 0.247355387 0.512755334
vn -0.886352956 0.189392418 0.428374857
vn -0.57681179 0.351454467 0.73493886
vn -0.821581483 0.247355387 0.512755334
vn -0.260911256 0.283891886 0.926840961
vn -0.742109001 -0.325042188 0.474245369
vn -0.352701873 -0.966822743 0.179443806
vn -0.152934775 -0.935452461 0.280961871
vn 0.0630121306 -0.711355805 -0.7294963
vn 0.502759099 -0.694605589 -0.514544904
vn 0.161086187 -0.939347506 -0.301331848
vn 0.161086187 -0.939347506 -0.301331848
vn 0.553973079 -0.830911934 -0.051885765
vn 0.194202051 -0.972242177 0.058445096
vn 0.297811836 0.801701188 0.522263527
vn 0.540491939 0.771344244 0.364220679
vn 0.0852576122 0.961061478 0.261373371
vn 0.0852576122 0.961061478 0.261373371
vn -0.203938127 0.953900099 0.240132913
vn 0.297811836 0.801701188 0.522263527
vn -0.163307294 0.141434357 -0.982771039
vn -0.466961712 0.192268834 -0.866196215
vn -0.207840621 0.176950142 -0.964273572
vn -0.908080876 0.230461404 0.351092666
vn -0.860908329 0.465223372 -0.145024434
vn -0.961527884 0.234817997 0.113558754
vn -0.908080876 0.230461404 0.351092666
vn -0.961527884 0.234817997 0.113558754
vn -0.917998195 0.189888403 0.355406642
vn 0.195811972 0.153566882 -0.969497621
vn 0.214822158 0.0955080464 -0.9727965
vn -0.0552675873 0.0875435248 -1.00134528
vn -0.0552675873 0.0875435248 -1.00134528
vn 0.214822158 0.0955080464 -0.9727965
vn -0.0512174815 0.0474044941 -1.00140679
vn -0.676855087 -0.437856287 -0.597340405
vn -0.585786521 -0.667167902 -0.444770873
vn -0.914183199 -0.378755271 -0.189891145
vn -0.491359085 -0.597673595 -0.646484375
vn -0.676855087 -0.437856287 -0.597340405
vn -0.252758741 -0.0557825193 -0.960778177
vn 0.477916241 0.148977831 0.819080055
vn 0.0197796244 0.100824557 1.02219439
vn 0.166441947 -0.339323878 0.94530803
vn 0.0557205677 -0.0801475346 0.995733261
vn -0.280983299 -0.400198996 0.869633853
vn 0.166441947 -0.339323878 0.94530803
vn -0.57681179 0.351454467 0.73493886
vn -0.635975301 0.661978543 0.397164851
vn -0.821581483 0.247355387 0.512755334
vn 0.795369983 -0.337788731 0.502112329
vn 0.476304799 -0.615806758 0.633369327
vn 0.679979324 -0.659875095 0.337625057
vn 0.166441947 -0.339323878 0.94530803
vn 0.476304799 -0.615806758 0.633369327
vn 0.795369983 -0.337788731 0.502112329
vn -0.73847276 0.160914317 -0.674353063
vn -0.54597193 0.127919585 -0.82798028
vn -0.635559559 0.051944565 -0.770302355
vn -0.529262543 0.701341629 -0.471459568
vn -0.401247084 0.917036116 0.150814444
vn -0.273477137 0.808685541 -0.50104022
vn -0.684702396 0.695739448 -0.167788669
vn -0.801490486 0.487305641 0.327870458
vn -0.401247084 0.917036116 0.150814444
vn 0.32811746 0.249167681 0.924922407
vn 0.166853026 0.136397421 0.976949036
vn 0.684102774 0.195871413 0.702593625
vn -0.0512174815 0.0474044941 -1.00140679
vn 0.214822158 0.0955080464 -0.9727965
vn -0.119730711 -0.284319878 -0.952718377
vn -0.252758741 -0.0557825193 -0.960778177
vn -0.0512174815 0.0474044941 -1.00140679
vn -0.119730711 -0.284319878 -0.952718377
vn 0.766426504 0.311574042 -0.520675957
vn 0.178086847 0.231386006 -0.944241166
vn 0.711798251 0.552782357 -0.480820388
vn 0.178086847 0.231386006 -0.944241166
vn 0.766426504 0.311574042 -0.520675957
vn 0.195811972 0.153566882 -0.969497621
vn -0.981406033 0.145218492 0.123414971
vn -0.980748415 0.0829554871 -0.209189594
vn -1.0051322 -0.0159373339 -0.0140692247
vn -0.967062056 -0.0170920193 0.276036292
vn -0.981406033 0.145218492 0.123414971
vn -1.0051322 -0.0159373339 -0.0140692247
vn 0.858473182 0.203081891 -0.419795692
vn 0.195811972 0.153566882 -0.969497621
vn 0.766426504 0.311574042 -0.520675957
vn -0.914183199 -0.378755271 -0.189891145
vn -0.634537876 -0.760752678 -0.0867451578
vn -0.897129655 -0.437655151 0.0519874468
vn -1.0051322 -0.0159373339 -0.0140692247
vn -0.914183199 -0.378755271 -0.189891145
vn -0.897129655 -0.437655151 0.0519874468
vn 0.879827678 -0.402882457 -0.252168596
vn 0.502759099 -0.694605589 -0.514544904
vn 0.855108798 -0.217534557 -0.474864542
vn 0.855108798 -0.217534557 -0.474864542
vn 0.932460785 -0.318714678 -0.146852776
vn 0.879827678 -0.402882457 -0.252168596
vn 0.845099449 0.531485379 -0.05038343
vn 0.766358912 0.536874712 0.372137964
vn 0.970584154 0.235635862 -0.0431756414
vn 0.540491939 0.771344244 0.364220679
vn 0.845099449 0.531485379 -0.05038343
vn 0.132213876 1.00512505 0.0989439264
vn -0.982426226 0.191405728 -0.0516149737
vn -0.94203794 0.181241095 -0.285599828
vn -0.981406033 0.145218492 0.123414971
vn 0.57850039 -0.059425652 0.711310267
vn 0.477916241 0.148977831 0.819080055
vn 0.166441947 -0.339323878 0.94530803
vn 0.166441947 -0.339323878 0.94530803
vn 0.795369983 -0.337788731 0.502112329
vn 0.57850039 -0.059425652 0.711310267
vn -0.271407038 0.829499543 0.460580438
vn -0.112246744 0.743947446 0.698130667
vn -0.203938127 0.953900099 0.240132913
vn -0.0820898265 0.393422246 0.915213883
vn -0.112246744 0.743947446 0.698130667
vn -0.271407038 0.829499543 0.460580438
vn -0.119730711 -0.284319878 -0.952718377
vn 0.0630121306 -0.711355805 -0.7294963
vn -0.0461377501 -0.693200409 -0.720770061
vn 0.161086187 -0.939347506 -0.301331848
vn -0.0461377501 -0.693200409 -0.720770061
vn 0.0630121306 -0.711355805 -0.7294963
vn -0.529262543 0.701341629 -0.471459568
vn -0.684702396 0.695739448 -0.167788669
vn -0.401247084 0.917036116 0.150814444
vn -0.335148543 -0.930919945 -0.160173103
vn -0.585786521 -0.667167902 -0.444770873
vn -0.267875612 -0.671776175 -0.692162693
vn 0.166441947 -0.339323878 0.94530803
vn -0.105374329 -0.636680365 0.769218743
vn 0.199043766 -0.628173232 0.752183437
vn -0.267875612 -0.671776175 -0.692162693
vn -0.106265277 -0.916239977 -0.390161008
vn -0.335148543 -0.930919945 -0.160173103
vn -0.408480614 0.713999927 0.552427471
vn -0.57681179 0.351454467 0.73493886
vn -0.0820898265 0.393422246 0.915213883
vn -0.408480614 0.713999927 0.552427471
vn -0.635975301 0.661978543 0.397164851
vn -0.57681179 0.351454467 0.73493886
vn 0.502759099 -0.694605589 -0.514544904
vn 0.879827678 -0.402882457 -0.252168596
vn 0.161086187 -0.939347506 -0.301331848
vn -0.908080876 0.230461404 0.351092666
vn -0.801490486 0.487305641 0.327870458
vn -0.860908329 0.465223372 -0.145024434
vn -0.684702396 0.695739448 -0.167788669
vn -0.631807148 0.774489224 0.0314037614
vn -0.801490486 0.487305641 0.327870458
vn -0.967062056 -0.0170920193 0.276036292
vn -0.897129655 -0.437655151 0.0519874468
vn -0.847373128 -0.533854425 0.181458279
vn 0.679979324 -0.659875095 0.337625057
vn 0.992822111 -0.0980307832 -0.0662907511
vn 0.795369983 -0.337788731 0.502112329
vn 0.711798251 0.552782357 -0.480820388
vn 0.879211843 0.455744386 -0.163135916
vn 0.766426504 0.311574042 -0.520675957
vn 0.670067847 0.527838171 0.510838151
vn 0.878133357 0.297596097 0.382463664
vn 0.766358912 0.536874712 0.372137964
vn 0.970584154 0.235635862 -0.0431756414
vn 0.985649407 0.13838841 0.0169465877
vn 0.848670721 0.125815898 -0.493371546
vn 1.01698291 0.0919442028 -0.0615102425
vn 0.848670721 0.125815898 -0.493371546
vn 0.985649407 0.13838841 0.0169465877
vn 0.679979324 -0.659875095 0.337625057
vn 0.702057481 -0.731729269 0.0753805712
vn 0.992822111 -0.0980307832 -0.0662907511
vn 0.194202051 -0.972242177 0.058445096
vn 0.553973079 -0.830911934 -0.051885765
vn 0.702057481 -0.731729269 0.0753805712
vn -0.790492415 0.217885688 -0.5724051
vn -0.788965404 0.295335293 -0.568029463
vn -0.466961712 0.192268834 -0.866196215
vn 0.985649407 0.13838841 0.0169465877
vn 0.878133357 0.297596097 0.382463664
vn 0.477916241 0.148977831 0.819080055
vn 0.970584154 0.235635862 -0.0431756414
vn 0.878133357 0.297596097 0.382463664
vn 0.985649407 0.13838841 0.0169465877
vn -0.860908329 0.465223372 -0.145024434
vn -0.494837999 0.339587718 -0.767187059
vn -0.692968011 0.335475743 -0.637032986
vn 1.01698291 0.0919442028 -0.0615102425
vn 0.477916241 0.148977831 0.819080055
vn 0.57850039 -0.059425652 0.711310267
vn 0.0630121306 -0.711355805 -0.7294963
vn 0.220478788 -0.222090319 -0.947558224
vn 0.523041487 -0.565026045 -0.649522126
vn -0.782471418 -0.0557842329 -0.630815566
vn -0.73847276 0.160914317 -0.674353063
vn -0.635559559 0.051944565 -0.770302355
vn -0.782471418 -0.0557842329 -0.630815566
vn -0.635559559 0.051944565 -0.770302355
vn -0.252758741 -0.0557825193 -0.960778177
vn 0.679979324 -0.659875095 0.337625057
vn 0.476304799 -0.615806758 0.633369327
vn 0.194202051 -0.972242177 0.058445096
vn 0.679979324 -0.659875095 0.337625057
vn 0.194202051 -0.972242177 0.058445096
vn 0.702057481 -0.731729269 0.0753805712
vn 0.214822158 0.0955080464 -0.9727965
vn 0.848670721 0.125815898 -0.493371546
vn 0.874373198 0.0721251741 -0.416286767
vn -0.0884062052 -1.00307012 0.0286406465
vn -0.335148543 -0.930919945 -0.160173103
vn -0.0145564135 -1.0050503 0.0347226709
vn -0.0884062052 -1.00307012 0.0286406465
vn -0.0145564135 -1.0050503 0.0347226709
vn -0.152934775 -0.935452461 0.280961871
vn 0.0197796244 0.100824557 1.02219439
vn -0.282425016 0.232385233 0.916590214
vn -0.826802313 0.187502205 0.541430354
vn 0.166441947 -0.339323878 0.94530803
vn 0.0197796244 0.100824557 1.02219439
vn 0.0557205677 -0.0801475346 0.995733261
vn -0.491359085 -0.597673595 -0.646484375
vn -0.585786521 -0.667167902 -0.444770873
vn -0.676855087 -0.437856287 -0.597340405
vn -0.112246744 0.743947446 0.698130667
vn 0.29291755 0.584289551 0.758938789
vn 0.297811836 0.801701188 0.522263527
vn -0.826802313 0.187502205 0.541430354
vn -0.917998195 0.189888403 0.355406642
vn -0.967062056 -0.0170920193 0.276036292
vn 0.0557205677 -0.0801475346 0.995733261
vn 0.0197796244 0.100824557 1.02219439
vn -0.280983299 -0.400198996 0.869633853
vn -0.163307294 0.141434357 -0.982771039
vn -0.0842824727 0.295700312 -0.967098594
vn 0.178086847 0.231386006 -0.944241166
vn -0.401247084 0.917036116 0.150814444
vn -0.635975301 0.661978543 0.397164851
vn -0.408480614 0.713999927 0.552427471
vn -0.280034989 -0.744693398 0.5958184
vn -0.280983299 -0.400198996 0.869633853
vn -0.742109001 -0.325042188 0.474245369
vn 0.670067847 0.527838171 0.510838151
vn 0.76124686 0.364869058 0.535758495
vn 0.878133357 0.297596097 0.382463664
vn -0.529262543 0.701341629 -0.471459568
vn -0.494837999 0.339587718 -0.767187059
vn -0.684702396 0.695739448 -0.167788669
vn -0.886352956 0.189392418 0.428374857
vn -0.821581483 0.247355387 0.512755334
vn -0.917998195 0.189888403 0.355406642
vn 0.72439909 -0.679513693 -0.116219692
vn 0.702057481 -0.731729269 0.0753805712
vn 0.553973079 -0.830911934 -0.051885765
vn -0.0842824727 0.295700312 -0.967098594
vn -0.529262543 0.701341629 -0.471459568
vn -0.273477137 0.808685541 -0.50104022
vn 0.878133357 0.297596097 0.382463664
vn 0.32811746 0.249167681 0.924922407
vn 0.684102774 0.195871413 0.702593625
vn 0.878133357 0.297596097 0.382463664
vn 0.684102774 0.195871413 0.702593625
vn 0.477916241 0.148977831 0.819080055
vn 0.0139437681 0.211923674 0.977565408
vn 0.32811746 0.249167681 0.924922407
vn 0.145937949 0.400730819 0.901144028
vn -0.260911256 0.283891886 0.926840961
vn -0.821581483 0.247355387 0.512755334
vn -0.282425016 0.232385233 0.916590214
vn 0.502759099 -0.694605589 -0.514544904
vn 0.523041487 -0.565026045 -0.649522126
vn 0.855108798 -0.217534557 -0.474864542
vn -0.631807148 0.774489224 0.0314037614
vn -0.860908329 0.465223372 -0.145024434
vn -0.801490486 0.487305641 0.327870458
vn 0.0197796244 0.100824557 1.02219439
vn -0.700341284 -0.0474849753 0.722569227
vn -0.280983299 -0.400198996 0.869633853
vn -0.0820898265 0.393422246 0.915213883
vn 0.0339648835 0.689242482 0.72373414
vn -0.112246744 0.743947446 0.698130667
vn -0.267875612 -0.671776175 -0.692162693
vn -0.0461377501 -0.693200409 -0.720770061
vn -0.106265277 -0.916239977 -0.390161008
vn 0.0197796244 0.100824557 1.02219439
vn -0.826802313 0.187502205 0.541430354
vn -0.700341284 -0.0474849753 0.722569227
vn -0.742109001 -0.325042188 0.474245369
vn -0.700341284 -0.0474849753 0.722569227
vn -0.826802313 0.187502205 0.541430354
vn 0.670067847 0.527838171 0.510838151
vn 0.29291755 0.584289551 0.758938789
vn 0.32811746 0.249167681 0.924922407
vn 0.29291755 0.584289551 0.758938789
vn 0.670067847 0.527838171 0.510838151
vn 0.297811836 0.801701188 0.522263527
vn -0.280983299 -0.400198996 0.869633853
vn -0.280034989 -0.744693398 0.5958184
vn -0.105374329 -0.636680365 0.769218743
vn 0.132213876 1.00512505 0.0989439264
vn -0.203938127 0.953900099 0.240132913
vn 0.0852576122 0.961061478 0.261373371
vn -0.0145564135 -1.0050503 0.0347226709
vn 0.18988733 -0.911892235 0.352644503
vn -0.152934775 -0.935452461 0.280961871
vn -0.0820898265 0.393422246 0.915213883
vn -0.57681179 0.351454467 0.73493886
vn -0.260911256 0.283891886 0.926840961
vn 0.435752898 -0.627384722 0.645374119
vn 0.476304799 -0.615806758 0.633369327
vn 0.166441947 -0.339323878 0.94530803
vn -0.286072552 0.964663029 0.109114297
vn -0.203938127 0.953900099 0.240132913
vn 0.132213876 1.00512505 0.0989439264
vn 0.476304799 -0.615806758 0.633369327
vn 0.435752898 -0.627384722 0.645374119
vn 0.18988733 -0.911892235 0.352644503
vn 0.214822158 0.0955080464 -0.9727965
vn 0.786237359 0.0523487367 -0.615703225
vn 0.824668884 -0.144967869 -0.574589133
vn 0.824668884 -0.144967869 -0.574589133
vn 0.786237359 0.0523487367 -0.615703225
vn 0.855108798 -0.217534557 -0.474864542
vn -0.273477137 0.808685541 -0.50104022
vn -0.286072552 0.964663029 0.109114297
vn 0.132213876 1.00512505 0.0989439264
vn 1.01698291 0.0919442028 -0.0615102425
vn 0.795369983 -0.337788731 0.502112329
vn 0.992822111 -0.0980307832 -0.0662907511
vn -0.494837999 0.339587718 -0.767187059
vn -0.207840621 0.176950142 -0.964273572
vn -0.466961712 0.192268834 -0.866196215
vn -0.0842824727 0.295700312 -0.967098594
vn -0.207840621 0.176950142 -0.964273572
vn -0.494837999 0.339587718 -0.767187059
vn 0.199043766 -0.628173232 0.752183437
vn -0.105374329 -0.636680365 0.769218743
vn -0.0626152381 -0.847590983 0.52067703
vn 0.199043766 -0.628173232 0.752183437
vn -0.0626152381 -0.847590983 0.52067703
vn 0.327795088 -0.620519698 0.712394297
vn 0.195811972 0.153566882 -0.969497621
vn 0.858473182 0.203081891 -0.419795692
vn 0.848670721 0.125815898 -0.493371546
vn 0.858473182 0.203081891 -0.419795692
vn 0.970584154 0.235635862 -0.0431756414
vn 0.848670721 0.125815898 -0.493371546
vn -0.352701873 -0.966822743 0.179443806
vn -0.760979116 -0.59879756 0.222044498
vn -0.552826166 -0.828873634 0.119976714
vn 0.879211843 0.455744386 -0.163135916
vn 0.0870949253 0.888295889 -0.474126637
vn 0.132213876 1.00512505 0.0989439264
vn -0.163307294 0.141434357 -0.982771039
vn 0.178086847 0.231386006 -0.944241166
vn 0.195811972 0.153566882 -0.969497621
vn -0.352701873 -0.966822743 0.179443806
vn -0.552826166 -0.828873634 0.119976714
vn -0.0884062052 -1.00307012 0.0286406465
vn -0.105374329 -0.636680365 0.769218743
vn 0.166441947 -0.339323878 0.94530803
vn -0.280983299 -0.400198996 0.869633853
vn -0.552826166 -0.828873634 0.119976714
vn -0.847373128 -0.533854425 0.181458279
vn -0.634537876 -0.760752678 -0.0867451578
vn -0.847373128 -0.533854425 0.181458279
vn -0.897129655 -0.437655151 0.0519874468
vn -0.634537876 -0.760752678 -0.0867451578
vn -0.860908329 0.465223372 -0.145024434
vn -0.692968011 0.335475743 -0.637032986
vn -0.788965404 0.295335293 -0.568029463
vn 0.0333881639 0.155695185 0.990265846
vn -0.282425016 0.232385233 0.916590214
vn 0.0868949592 0.133436039 0.98692137
vn -0.112246744 0.743947446 0.698130667
vn 0.297811836 0.801701188 0.522263527
vn -0.203938127 0.953900099 0.240132913
vn -0.886352956 0.189392418 0.428374857
vn -0.917998195 0.189888403 0.355406642
vn -0.826802313 0.187502205 0.541430354
vn 0.220478788 -0.222090319 -0.947558224
vn 0.824668884 -0.144967869 -0.574589133
vn 0.523041487 -0.565026045 -0.649522126
vn -0.585786521 -0.667167902 -0.444770873
vn -0.491359085 -0.597673595 -0.646484375
vn -0.267875612 -0.671776175 -0.692162693
vn -0.491359085 -0.597673595 -0.646484375
vn -0.252758741 -0.0557825193 -0.960778177
vn -0.267875612 -0.671776175 -0.692162693
vn -0.163307294 0.141434357 -0.982771039
vn -0.0552675873 0.0875435248 -1.00134528
vn -0.0512174815 0.0474044941 -1.00140679
vn -0.634537876 -0.760752678 -0.0867451578
vn -0.585786521 -0.667167902 -0.444770873
vn -0.335148543 -0.930919945 -0.160173103
vn -0.914183199 -0.378755271 -0.189891145
vn -0.585786521 -0.667167902 -0.444770873
vn -0.634537876 -0.760752678 -0.0867451578
vn -0.352701873 -0.966822743 0.179443806
vn -0.0884062052 -1.00307012 0.0286406465
vn -0.152934775 -0.935452461 0.280961871
vn 0.0139437681 0.211923674 0.977565408
vn -0.0820898265 0.393422246 0.915213883
vn -0.260911256 0.283891886 0.926840961
vn 0.166853026 0.136397421 0.976949036
vn 0.0333881639 0.155695185 0.990265846
vn 0.0868949592 0.133436039 0.98692137
vn -0.788965404 0.295335293 -0.568029463
vn -0.692968011 0.335475743 -0.637032986
vn -0.466961712 0.192268834 -0.866196215
vn -0.692968011 0.335475743 -0.637032986
vn -0.494837999 0.339587718 -0.767187059
vn -0.466961712 0.192268834 -0.866196215
vn 0.553973079 -0.830911934 -0.051885765
vn 0.161086187 -0.939347506 -0.301331848
vn 0.879827678 -0.402882457 -0.252168596
vn -0.788965404 0.295335293 -0.568029463
vn -0.94203794 0.181241095 -0.285599828
vn -0.982426226 0.191405728 -0.0516149737
vn -0.961527884 0.234817997 0.113558754
vn -0.788965404 0.295335293 -0.568029463
vn -0.982426226 0.191405728 -0.0516149737
vn -0.286072552 0.964663029 0.109114297
vn -0.401247084 0.917036116 0.150814444
vn -0.203938127 0.953900099 0.240132913
vn 0.327795088 -0.620519698 0.712394297
vn -0.0626152381 -0.847590983 0.52067703
vn 0.18988733 -0.911892235 0.352644503
vn 0.18988733 -0.911892235 0.352644503
vn 0.435752898 -0.627384722 0.645374119
vn 0.327795088 -0.620519698 0.712394297
vn -0.94203794 0.181241095 -0.285599828
vn -0.788965404 0.295335293 -0.568029463
vn -0.790492415 0.217885688 -0.5724051
vn 0.766358912 0.536874712 0.372137964
vn 0.540491939 0.771344244 0.364220679
vn 0.297811836 0.801701188 0.522263527
vn -0.967062056 -0.0170920193 0.276036292
vn -0.760979116 -0.59879756 0.222044498
vn -0.742109001 -0.325042188 0.474245369
vn 0.766358912 0.536874712 0.372137964
vn 0.845099449 0.531485379 -0.05038343
vn 0.540491939 0.771344244 0.364220679
vn -0.54597193 0.127919585 -0.82798028
vn -0.466961712 0.192268834 -0.866196215
vn -0.252758741 -0.0557825193 -0.960778177
vn -0.73847276 0.160914317 -0.674353063
vn -0.790492415 0.217885688 -0.5724051
vn -0.466961712 0.192268834 -0.866196215
vn 0.874373198 0.0721251741 -0.416286767
vn 1.01698291 0.0919442028 -0.0615102425
vn 0.992822111 -0.0980307832 -0.0662907511
vn 0.848670721 0.125815898 -0.493371546
vn 1.01698291 0.0919442028 -0.0615102425
vn 0.874373198 0.0721251741 -0.416286767
vn 0.32811746 0.249167681 0.924922407
vn 0.0139437681 0.211923674 0.977565408
vn 0.166853026 0.136397421 0.976949036
vn -0.634537876 -0.760752678 -0.0867451578
vn -0.0884062052 -1.00307012 0.0286406465
vn -0.552826166 -0.828873634 0.119976714
vn -0.634537876 -0.760752678 -0.0867451578
vn -0.335148543 -0.930919945 -0.160173103
vn -0.0884062052 -1.00307012 0.0286406465
vn 0.766426504 0.311574042 -0.520675957
vn 0.970584154 0.235635862 -0.0431756414
vn 0.858473182 0.203081891 -0.419795692
vn -0.401247084 0.917036116 0.150814444
vn -0.271407038 0.829499543 0.460580438
vn -0.203938127 0.953900099 0.240132913
vn -0.631807148 0.774489224 0.0314037614
vn -0.684702396 0.695739448 -0.167788669
vn -0.860908329 0.465223372 -0.145024434
vn -0.73847276 0.160914317 -0.674353063
vn -0.466961712 0.192268834 -0.866196215
vn -0.54597193 0.127919585 -0.82798028
vn 0.0139437681 0.211923674 0.977565408
vn -0.260911256 0.283891886 0.926840961
vn 0.0333881639 0.155695185 0.990265846
vn 0.178086847 0.231386006 -0.944241166
vn -0.0842824727 0.295700312 -0.967098594
vn 0.711798251 0.552782357 -0.480820388
vn -0.352701873 -0.966822743 0.179443806
vn -0.742109001 -0.325042188 0.474245369
vn -0.760979116 -0.59879756 0.222044498
vn -0.207840621 0.176950142 -0.964273572
vn -0.0842824727 0.295700312 -0.967098594
vn -0.163307294 0.141434357 -0.982771039
vn -0.260911256 0.283891886 0.926840961
vn -0.282425016 0.232385233 0.916590214
vn 0.0333881639 0.155695185 0.990265846
vn 0.845099449 0.531485379 -0.05038343
vn 0.879211843 0.455744386 -0.163135916
vn 0.132213876 1.00512505 0.0989439264
vn 0.970584154 0.235635862 -0.0431756414
vn 0.879211843 0.455744386 -0.163135916
vn 0.845099449 0.531485379 -0.05038343
vn 0.0870949253 0.888295889 -0.474126637
vn 0.711798251 0.552782357 -0.480820388
vn -0.0842824727 0.295700312 -0.967098594
g Group62913
f 117/1/1 104/2/2 20/3/3
f 105/4/4 19/5/5 3/6/6
f 5/7/7 42/8/8 51/9/9
f 124/10/10 37/11/11 63/12/12
f 14/13/13 73/14/14 64/15/15
f 78/16/16 61/17/17 35/18/18
f 26/19/19 104/20/20 117/21/21
f 4/22/22 50/23/23 77/24/24
f 22/25/25 26/26/26 117/27/27
f 99/28/28 11/29/29 40/30/30
f 11/31/31 49/32/32 123/33/33
f 88/34/34 118/35/35 116/36/36
f 98/37/37 17/38/38 122/39/39
f 107/40/40 34/41/41 65/42/42
f 11/43/43 123/44/44 27/45/45
f 64/46/46 73/47/47 52/48/48
f 6/49/49 84/50/50 19/51/51
f 13/52/52 39/53/53 89/54/54
f 89/55/55 30/56/56 13/57/57
f 48/58/58 87/59/59 5/60/60
f 28/61/61 108/62/62 10/63/63
f 55/64/64 32/65/65 49/66/66
f 92/67/67 117/68/68 20/69/69
f 31/70/70 94/71/71 43/72/72
f 90/73/73 44/74/74 66/75/75
f 6/76/76 97/77/77 84/78/78
f 77/79/79 9/80/80 28/81/81
f 53/82/82 28/83/83 10/84/84
f 58/85/85 88/86/86 23/87/87
f 104/88/88 119/89/89 30/90/90
f 104/91/91 30/92/92 20/93/93
f 16/94/94 91/95/95 82/96/96
f 123/97/97 62/98/98 27/99/99
f 33/100/100 70/101/101 10/102/102
f 34/103/103 79/104/104 56/105/105
f 114/106/106 54/107/107 67/108/108
f 18/109/109 29/110/110 85/111/111
f 51/112/112 42/113/113 59/114/114
f 41/115/115 126/116/116 28/117/117
f 40/118/118 102/119/119 75/120/120
f 23/121/121 71/122/122 38/123/123
f 52/124/124 38/125/125 71/126/126
f 65/127/127 89/128/128 39/129/129
f 65/130/130 110/131/131 86/132/132
f 103/133/133 51/134/134 59/135/135
f 63/136/136 121/137/137 124/138/138
f 39/139/139 13/140/140 93/141/141
f 12/142/142 4/143/143 33/144/144
f 4/145/145 105/146/146 3/147/147
f 21/148/148 59/149/149 42/150/150
f 94/151/151 54/152/152 43/153/153
f 3/154/154 19/155/155 115/156/156
f 45/157/157 14/158/158 68/159/159
f 107/160/160 62/161/161 112/162/162
f 35/163/163 85/164/164 1/165/165
f 103/166/166 28/167/167 47/168/168
f 47/169/169 36/170/170 103/171/171
f 16/172/172 101/173/173 48/174/174
f 68/175/175 14/176/176 64/177/177
f 49/178/178 11/179/179 113/180/180
f 111/181/181 29/182/182 80/183/183
f 44/184/184 120/185/185 115/186/186
f 50/187/187 4/188/188 120/189/189
f 36/190/190 51/191/191 103/192/192
f 51/193/193 36/194/194 79/195/195
f 94/196/196 52/197/197 25/198/198
f 82/199/199 76/200/200 31/201/201
f 1/202/202 111/203/203 80/204/204
f 77/205/205 50/206/206 90/207/207
f 9/208/208 77/209/209 22/210/210
f 34/211/211 45/212/212 5/213/213
f 45/214/214 48/215/215 5/216/216
f 58/217/217 23/218/218 55/219/219
f 98/220/220 122/221/221 34/222/222
f 105/223/223 57/224/224 19/225/225
f 60/226/226 19/227/227 57/228/228
f 88/229/229 58/230/230 118/231/231
f 80/232/232 118/233/233 58/234/234
f 60/235/235 6/236/236 19/237/237
f 74/238/238 43/239/239 61/240/240
f 62/241/241 14/242/242 112/243/243
f 96/244/244 14/245/245 83/246/246
f 65/247/247 69/248/248 89/249/249
f 90/250/250 66/251/251 26/252/252
f 26/253/253 97/254/254 104/255/255
f 18/256/256 114/257/257 67/258/258
f 67/259/259 7/260/260 18/261/261
f 10/262/262 108/263/263 2/264/264
f 68/265/265 16/266/266 48/267/267
f 68/268/268 48/269/269 45/270/270
f 33/271/271 4/272/272 70/273/273
f 70/274/274 4/275/275 53/276/276
f 47/277/277 72/278/278 36/279/279
f 95/280/280 47/281/281 28/282/282
f 11/283/283 27/284/284 63/285/285
f 109/286/286 110/287/287 63/288/288
f 96/289/289 73/290/290 14/291/291
f 75/292/292 119/293/293 100/294/294
f 63/295/295 119/296/296 75/297/297
f 59/298/298 126/299/299 41/300/300
f 76/301/301 52/302/302 94/303/303
f 91/304/304 64/305/305 52/306/306
f 80/307/307 49/308/308 113/309/309
f 53/310/310 4/311/311 77/312/312
f 28/313/313 53/314/314 77/315/315
f 78/316/316 8/317/317 74/318/318
f 8/319/319 78/320/320 33/321/321
f 5/322/322 51/323/323 79/324/324
f 34/325/325 5/326/326 79/327/327
f 81/328/328 33/329/329 78/330/330
f 36/331/331 24/332/332 56/333/333
f 79/334/334 36/335/335 56/336/336
f 84/337/337 66/338/338 115/339/339
f 115/340/340 19/341/341 84/342/342
f 46/343/343 85/344/344 35/345/345
f 114/346/346 46/347/347 54/348/348
f 87/349/349 42/350/350 5/351/351
f 102/352/352 11/353/353 63/354/354
f 63/355/355 75/356/356 102/357/357
f 71/358/358 116/359/359 7/360/360
f 23/361/361 116/362/362 71/363/363
f 77/364/364 90/365/365 22/366/366
f 26/367/367 22/368/368 90/369/369
f 76/370/370 91/371/371 52/372/372
f 92/373/373 72/374/374 9/375/375
f 63/376/376 93/377/377 121/378/378
f 9/379/379 117/380/380 92/381/381
f 38/382/382 96/383/383 23/384/384
f 38/385/385 73/386/386 96/387/387
f 66/388/388 84/389/389 26/390/390
f 68/391/391 64/392/392 16/393/393
f 91/394/394 125/395/395 64/396/396
f 34/397/397 56/398/398 98/399/399
f 100/400/400 57/401/401 75/402/402
f 74/403/403 61/404/404 78/405/405
f 29/406/406 1/407/407 85/408/408
f 35/409/409 99/410/410 12/411/411
f 40/412/412 12/413/413 99/414/414
f 100/415/415 60/416/416 57/417/417
f 104/418/418 97/419/419 60/420/420
f 21/421/421 101/422/422 108/423/423
f 99/424/424 1/425/425 11/426/426
f 35/427/427 1/428/428 99/429/429
f 16/430/430 82/431/431 15/432/432
f 40/433/433 11/434/434 102/435/435
f 90/436/436 50/437/437 44/438/438
f 103/439/439 59/440/440 41/441/441
f 103/442/442 41/443/443 28/444/444
f 100/445/445 119/446/446 104/447/447
f 100/448/448 104/449/449 60/450/450
f 4/451/451 12/452/452 105/453/453
f 106/454/454 92/455/455 20/456/456
f 106/457/457 20/458/458 89/459/459
f 27/460/460 62/461/461 107/462/462
f 63/463/463 27/464/464 109/465/465
f 95/466/466 72/467/467 47/468/468
f 116/469/469 118/470/470 18/471/471
f 107/472/472 45/473/473 34/474/474
f 109/475/475 27/476/476 110/477/477
f 10/478/478 31/479/479 8/480/480
f 52/481/481 73/482/482 38/483/483
f 39/484/484 110/485/485 65/486/486
f 29/487/487 111/488/488 1/489/489
f 76/490/490 82/491/491 91/492/492
f 112/493/493 14/494/494 45/495/495
f 6/496/496 60/497/497 97/498/498
f 31/499/499 76/500/500 94/501/501
f 1/502/502 80/503/503 113/504/504
f 1/505/505 113/506/506 11/507/507
f 55/508/508 80/509/509 58/510/510
f 83/511/511 14/512/512 62/513/513
f 66/514/514 44/515/515 115/516/516
f 125/517/517 16/518/518 64/519/519
f 27/520/520 86/521/521 110/522/522
f 23/523/523 88/524/524 116/525/525
f 9/526/526 22/527/527 117/528/528
f 27/529/529 107/530/530 86/531/531
f 65/532/532 86/533/533 107/534/534
f 29/535/535 118/536/536 80/537/537
f 118/538/538 29/539/539 18/540/540
f 110/541/541 39/542/542 93/543/543
f 54/544/544 7/545/545 67/546/546
f 20/547/547 30/548/548 89/549/549
f 23/550/550 96/551/551 83/552/552
f 37/553/553 119/554/554 63/555/555
f 25/556/556 7/557/557 54/558/558
f 119/559/559 37/560/560 30/561/561
f 4/562/562 3/563/563 120/564/564
f 120/565/565 3/566/566 115/567/567
f 94/568/568 25/569/569 54/570/570
f 40/571/571 75/572/572 57/573/573
f 82/574/574 2/575/575 108/576/576
f 31/577/577 2/578/578 82/579/579
f 121/580/580 93/581/581 13/582/582
f 121/583/583 13/584/584 124/585/585
f 33/586/586 81/587/587 12/588/588
f 81/589/589 35/590/590 12/591/591
f 69/592/592 122/593/593 17/594/594
f 61/595/595 43/596/596 54/597/597
f 10/598/598 8/599/599 33/600/600
f 69/601/601 17/602/602 106/603/603
f 93/604/604 63/605/605 110/606/606
f 17/607/607 98/608/608 24/609/609
f 98/610/610 56/611/611 24/612/612
f 16/613/613 15/614/614 101/615/615
f 32/616/616 62/617/617 123/618/618
f 116/619/619 18/620/620 7/621/621
f 112/622/622 45/623/623 107/624/624
f 50/625/625 120/626/626 44/627/627
f 72/628/628 95/629/629 9/630/630
f 95/631/631 28/632/632 9/633/633
f 10/634/634 70/635/635 53/636/636
f 24/637/637 72/638/638 92/639/639
f 36/640/640 72/641/641 24/642/642
f 69/643/643 106/644/644 89/645/645
f 55/646/646 23/647/647 83/648/648
f 49/649/649 32/650/650 123/651/651
f 101/652/652 15/653/653 108/654/654
f 15/655/655 82/656/656 108/657/657
f 97/658/658 26/659/659 84/660/660
f 101/661/661 42/662/662 87/663/663
f 48/664/664 101/665/665 87/666/666
f 25/667/667 52/668/668 7/669/669
f 124/670/670 13/671/671 30/672/672
f 30/673/673 37/674/674 124/675/675
f 42/676/676 101/677/677 21/678/678
f 85/679/679 114/680/680 18/681/681
f 34/682/682 122/683/683 65/684/684
f 85/685/685 46/686/686 114/687/687
f 126/688/688 108/689/689 28/690/690
f 59/691/691 21/692/692 108/693/693
f 105/694/694 40/695/695 57/696/696
f 12/697/697 40/698/698 105/699/699
f 80/700/700 55/701/701 49/702/702
f 24/703/703 106/704/704 17/705/705
f 24/706/706 92/707/707 106/708/708
f 78/709/709 35/710/710 81/711/711
f 52/712/712 71/713/713 7/714/714
f 125/715/715 91/716/716 16/717/717
f 59/718/718 108/719/719 126/720/720
f 55/721/721 83/722/722 32/723/723
f 8/724/724 31/725/725 74/726/726
f 69/727/727 65/728/728 122/729/729
f 2/730/730 31/731/731 10/732/732
f 83/733/733 62/734/734 32/735/735
f 46/736/736 61/737/737 54/738/738
f 35/739/739 61/740/740 46/741/741
f 43/742/742 74/743/743 31/744/744
