# File exported by Houdini 16.5.405 (www.sidefx.com)
# 16 points
# 84 vertices
# 28 primitives
# Bounds: [-26.1141529, -1.0635252, -28.0161629] to [28.6466827, 81.2248077, 28.8099995]
g 
v 17.9432793 69.5605774 16.3268623
v -25.2907162 16.2134151 -25.3519058
v 23.0894032 10.8929377 -28.0161629
v -26.1141529 45.6149597 -15.8970337
v 22.3414783 -0.54373318 14.3479567
v -7.05410671 70.8782578 15.8895264
v 14.481842 81.2248077 -18.4960651
v -16.3740635 -1.0635252 -19.2725735
v 28.6466827 15.7976093 21.980793
v -18.1347561 5.57709026 28.8099995
v -15.1581717 34.7830925 25.3247681
v -18.3254051 67.7582703 -5.00163651
v -24.4000053 0.782252431 7.09611797
v 21.824192 0.539631009 -26.6940098
v 21.145462 78.7256622 1.44567001
v -9.55348969 74.2821198 -17.8639946
vt 0.697636783 0.348348647 0
vt 0.439704448 0.311089218 0
vt 0.46783483 0.151998535 0
vt -0.00938996952 0.0577733926 0
vt 0.257127911 0.0147469006 0
vt 0.07825993 0.30909735 0
vt 0.122429982 0.619685829 0
vt 0.477815092 0.731241345 0
vt 0.218805879 0.927909076 0
vt 0.122429982 0.619685829 0
vt 0.218805879 0.927909076 0
vt 0.0230314564 0.927209556 0
vt 0.558795094 0.739467263 0
vt 0.711647868 0.791144967 0
vt 0.485970557 0.826220334 0
vt 0.266543657 0.32523495 0
vt 0.257127911 0.0147469006 0
vt 0.407141626 0.258029848 0
vt 0.470446497 0.896196663 0
vt 0.218805879 0.927909076 0
vt 0.477815092 0.731241345 0
vt 0.582117081 0.338176072 0
vt 0.612029731 0.597392321 0
vt 0.490591198 0.649267852 0
vt 0.613001585 0.0660731494 0
vt 0.697636783 0.348348647 0
vt 0.46783483 0.151998535 0
vt 0.962661028 0.409132779 0
vt 0.632104874 0.489515841 0
vt 0.940176129 0.341079205 0
vt 0.665490329 0.364254743 0
vt 0.940176129 0.341079205 0
vt 0.632104874 0.489515841 0
vt 0.65781337 0.999226809 0
vt 0.711647868 0.791144967 0
vt 0.764745414 0.952707767 0
vt 0.0230314564 0.927209556 0
vt -0.00576314097 0.636155427 0
vt 0.122429982 0.619685829 0
vt 0.490591198 0.649267852 0
vt 0.515135884 0.325497061 0
vt 0.582117081 0.338176072 0
vt 0.613001585 0.0660731494 0
vt 0.79894346 -0.0152113149 0
vt 0.919592917 0.188986242 0
vt 0.828640997 0.885581791 0
vt 0.721973777 0.846530855 0
vt 0.632104874 0.489515841 0
vt 0.46783483 0.151998535 0
vt 0.392850012 0.0677326471 0
vt 0.613001585 0.0660731494 0
vt 0.266543657 0.32523495 0
vt 0.07825993 0.30909735 0
vt 0.257127911 0.0147469006 0
vt 0.901940346 0.348311603 0
vt 0.613001585 0.0660731494 0
vt 0.919592917 0.188986242 0
vt 0.901940346 0.348311603 0
vt 0.697636783 0.348348647 0
vt 0.613001585 0.0660731494 0
vt 0.517886162 0.992196739 0
vt 0.711647868 0.791144967 0
vt 0.65781337 0.999226809 0
vt 0.0372709334 0.411687076 0
vt 0.490591198 0.649267852 0
vt 0.0934758484 0.573342264 0
vt 0.963687658 0.893583179 0
vt 0.828640997 0.885581791 0
vt 0.962661028 0.409132779 0
vt 0.490591198 0.649267852 0
vt 0.0372709334 0.411687076 0
vt 0.515135884 0.325497061 0
vt 0.79894346 -0.0152113149 0
vt 0.94012624 -0.00100855995 0
vt 0.919592917 0.188986242 0
vt 0.517886162 0.992196739 0
vt 0.485970557 0.826220334 0
vt 0.711647868 0.791144967 0
vt 0.490591198 0.649267852 0
vt 0.289621472 0.68051362 0
vt 0.0934758484 0.573342264 0
vt 0.962661028 0.409132779 0
vt 0.828640997 0.885581791 0
vt 0.632104874 0.489515841 0
vn -0.3860403 0.209907249 0.832409024
vn -0.408501238 0.660637975 0.621412635
vn -0.816631496 0.528886199 0.119806342
vn 0.440620184 -0.60062784 -0.611119628
vn 0.277878433 -0.928608477 0.243686184
vn -0.274871737 -0.873009324 -0.384100854
vn 0.719163537 -0.0223616268 0.553534508
vn 0.509223521 0.389416158 0.737186909
vn -0.3860403 0.209907249 0.832409024
vn 0.719163537 -0.0223616268 0.553534508
vn -0.3860403 0.209907249 0.832409024
vn -0.427541316 -0.183731124 0.809974492
vn -0.816631496 0.528886199 0.119806342
vn -0.408501238 0.660637975 0.621412635
vn -0.437651515 0.519706368 -0.587057412
vn -0.661379337 -0.740453541 0.158309102
vn 0.277878433 -0.928608477 0.243686184
vn -0.427541316 -0.183731124 0.809974492
vn -0.408501238 0.660637975 0.621412635
vn -0.3860403 0.209907249 0.832409024
vn 0.509223521 0.389416158 0.737186909
vn 0.440620184 -0.60062784 -0.611119628
vn -0.274871737 -0.873009324 -0.384100854
vn -0.507935822 0.0626465231 -0.904175818
vn -0.965245008 0.231118083 -0.118290283
vn -0.3860403 0.209907249 0.832409024
vn -0.816631496 0.528886199 0.119806342
vn 0.756359398 -0.0310145188 -0.595023692
vn 0.719163537 -0.0223616268 0.553534508
vn 0.440620184 -0.60062784 -0.611119628
vn 0.277878433 -0.928608477 0.243686184
vn 0.440620184 -0.60062784 -0.611119628
vn 0.719163537 -0.0223616268 0.553534508
vn 0.949442029 0.398051739 0.0028343352
vn -0.408501238 0.660637975 0.621412635
vn 0.509223521 0.389416158 0.737186909
vn -0.427541316 -0.183731124 0.809974492
vn 0.277878433 -0.928608477 0.243686184
vn 0.719163537 -0.0223616268 0.553534508
vn -0.507935822 0.0626465231 -0.904175818
vn 0.756359398 -0.0310145188 -0.595023692
vn 0.440620184 -0.60062784 -0.611119628
vn -0.965245008 0.231118083 -0.118290283
vn -0.507935822 0.0626465231 -0.904175818
vn -0.661379337 -0.740453541 0.158309102
vn 0.949442029 0.398051739 0.0028343352
vn 0.509223521 0.389416158 0.737186909
vn 0.719163537 -0.0223616268 0.553534508
vn -0.816631496 0.528886199 0.119806342
vn -0.437651515 0.519706368 -0.587057412
vn -0.965245008 0.231118083 -0.118290283
vn -0.661379337 -0.740453541 0.158309102
vn -0.274871737 -0.873009324 -0.384100854
vn 0.277878433 -0.928608477 0.243686184
vn -0.427541316 -0.183731124 0.809974492
vn -0.965245008 0.231118083 -0.118290283
vn -0.661379337 -0.740453541 0.158309102
vn -0.427541316 -0.183731124 0.809974492
vn -0.3860403 0.209907249 0.832409024
vn -0.965245008 0.231118083 -0.118290283
vn 0.196257904 0.541538119 -0.691226065
vn -0.408501238 0.660637975 0.621412635
vn 0.949442029 0.398051739 0.0028343352
vn 0.196257904 0.541538119 -0.691226065
vn -0.507935822 0.0626465231 -0.904175818
vn -0.437651515 0.519706368 -0.587057412
vn 0.196257904 0.541538119 -0.691226065
vn 0.949442029 0.398051739 0.0028343352
vn 0.756359398 -0.0310145188 -0.595023692
vn -0.507935822 0.0626465231 -0.904175818
vn 0.196257904 0.541538119 -0.691226065
vn 0.756359398 -0.0310145188 -0.595023692
vn -0.507935822 0.0626465231 -0.904175818
vn -0.274871737 -0.873009324 -0.384100854
vn -0.661379337 -0.740453541 0.158309102
vn 0.196257904 0.541538119 -0.691226065
vn -0.437651515 0.519706368 -0.587057412
vn -0.408501238 0.660637975 0.621412635
vn -0.507935822 0.0626465231 -0.904175818
vn -0.965245008 0.231118083 -0.118290283
vn -0.437651515 0.519706368 -0.587057412
vn 0.756359398 -0.0310145188 -0.595023692
vn 0.949442029 0.398051739 0.0028343352
vn 0.719163537 -0.0223616268 0.553534508
g Group62913
f 11/1/1 6/2/2 12/3/3
f 14/4/4 5/5/5 8/6/6
f 9/7/7 1/8/8 11/9/9
f 9/10/10 11/11/11 10/12/12
f 12/13/13 6/14/14 16/15/15
f 13/16/16 5/17/17 10/18/18
f 6/19/19 11/20/20 1/21/21
f 14/22/22 8/23/23 2/24/24
f 4/25/25 11/26/26 12/27/27
f 3/28/28 9/29/29 14/30/30
f 5/31/31 14/32/32 9/33/33
f 15/34/34 6/35/35 1/36/36
f 10/37/37 5/38/38 9/39/39
f 2/40/40 3/41/41 14/42/42
f 4/43/43 2/44/44 13/45/45
f 15/46/46 1/47/47 9/48/48
f 12/49/49 16/50/50 4/51/51
f 13/52/52 8/53/53 5/54/54
f 10/55/55 4/56/56 13/57/57
f 10/58/58 11/59/59 4/60/60
f 7/61/61 6/62/62 15/63/63
f 7/64/64 2/65/65 16/66/66
f 7/67/67 15/68/68 3/69/69
f 2/70/70 7/71/71 3/72/72
f 2/73/73 8/74/74 13/75/75
f 7/76/76 16/77/77 6/78/78
f 2/79/79 4/80/80 16/81/81
f 3/82/82 15/83/83 9/84/84
