# File exported by ZBrush version 4.8
# www.zbrush.com
#Vertex Count 778
#UV Vertex Count 1133
#Face Count 1601
#Auto scale x=0.002320 y=0.002320 z=0.002320
#Auto offset x=0.002182 y=-0.543045 z=-0.000488
mtllib BigFormation_01_LOD2.mtl
usemtl defaultMat
v -360.15332749 299.04006236 365.08518804
v 57.10537535 878.13955199 358.74030833
v -267.23059854 294.96091017 368.51647201
v 1.29282524 882.99395198 359.541068
v -1.19358744 879.52104741 347.8009775
v -2.51389692 879.55362452 348.85400422
v -0.79152771 879.24398785 348.42667377
v 209.30995411 111.07990575 340.73711488
v -142.82246832 -4.52004788 343.2400027
v 4.1901284 878.99405875 342.9606052
v -433.9856406 152.30044101 371.35455976
v -188.16673092 741.50037527 351.98276814
v -524.03020272 86.14088439 325.6728749
v -526.1469953 88.06062144 322.10663229
v -527.4046566 81.57515662 305.60288497
v -527.18941133 82.41045882 310.33838366
v 660.43851361 162.79870915 381.49803803
v -527.29937192 82.16131332 309.52960817
v -527.38317832 82.00382305 309.32813366
v -527.48738396 81.68118637 307.90645639
v 675.53281291 164.15891897 301.7012369
v -527.38549058 80.66638894 302.5118365
v -527.24839953 80.71224867 301.98310081
v -527.38209927 80.35196076 301.25086096
v -527.21140345 80.55781571 300.47440566
v -527.43481869 79.84988024 299.4953968
v 593.35310431 172.8739502 315.90511241
v -526.77418168 79.68694332 296.54948088
v -527.46821793 79.53942143 297.92781622
v -527.67436833 79.20779265 297.71747807
v -527.87913137 78.87146228 297.09594387
v -527.83006018 78.93042479 296.46320807
v -528.06431733 78.61765374 296.20837186
v -295.40370704 876.34390597 342.08225651
v -405.65684025 305.35745192 289.72534775
v -528.09483909 78.76024281 292.84106027
v -528.09781933 78.35074241 294.70851466
v -408.17193163 307.09955639 290.00191916
v -527.84696533 78.22351699 292.9462165
v -408.80369114 306.9545266 288.70178944
v -407.6448659 306.66857771 289.6534623
v -383.68771803 299.21715542 302.11993493
v 150.40933738 177.98361032 281.94846269
v -486.23032791 84.08807706 322.54542126
v -527.65936436 78.08380539 290.94131138
v -527.41847875 77.934909 288.63149688
v -527.47392149 77.89646133 288.7512717
v 173.68478103 833.53301442 216.60510648
v -360.37843839 398.39247941 293.74828645
v -405.89793139 304.3180932 285.31317941
v -527.23683826 77.68208958 286.35860138
v -526.75850973 67.1549311 250.06639405
v 195.90051811 841.86489211 283.98432634
v 175.4853984 845.947821 330.85705387
v 196.02988879 841.77784855 283.93417609
v -362.57711049 397.14581416 284.03809912
v -410.7156436 306.53521197 283.52197806
v -410.49618489 306.4925894 284.10939365
v -410.8891912 306.438868 282.79451688
v -410.17236639 306.01641897 282.63286455
v -407.8298977 304.56892151 282.93142808
v -406.10981105 304.21491524 284.08436991
v -527.33970792 78.06070853 285.2017544
v -364.06134712 396.84789292 281.26013001
v -363.32748869 396.94927247 282.11440554
v -416.21875964 326.96740383 273.35848594
v -409.83148859 306.20962074 281.95082633
v -409.45728862 305.77080608 282.4768387
v -408.72163177 305.21614744 283.08167328
v -527.25754579 77.70764 285.35685535
v -46.41970855 705.81785826 253.25738333
v -412.17912131 307.13287856 281.46080807
v -411.14770133 306.52699061 281.95221369
v -410.29427362 305.58842053 281.22156673
v -408.86645603 305.34612187 282.29591758
v -412.29809969 307.19636281 281.40330999
v -414.93923468 300.81099295 254.47645567
v 701.17325689 172.02135747 298.28760313
v -525.90857609 74.69285742 253.07918553
v 735.90168601 164.27313154 269.16009844
v -344.77736981 418.57818486 299.02647144
v -396.93927839 396.41360001 232.91547219
v -451.77962633 154.70105007 251.02032779
v -414.36761949 323.09273207 228.11641217
v -454.30640745 150.79017866 248.6968196
v -448.99433508 154.69279018 250.79781176
v -455.58868143 150.14225906 242.83671704
v -452.27419203 151.687308 239.81662912
v -455.60692256 150.11911082 243.02264805
v -456.75837427 149.84322023 236.83505309
v -154.05359291 702.84013598 265.04667348
v -465.15062751 146.83935663 244.35802683
v -448.88288438 162.93500375 248.3860268
v -450.85328551 153.03282216 236.92998401
v -450.04887761 153.98911953 235.75558958
v -450.67652644 152.49158744 233.29021169
v -450.66686635 153.18702389 231.89831112
v -456.56887211 149.42915955 232.97762047
v -523.91679945 71.6392161 231.58068433
v -456.22578482 149.40557455 231.4308245
v -455.8498635 149.58523678 231.04236562
v -523.73094551 71.52798378 230.63422688
v -523.75545542 71.33317628 229.60892153
v -455.92411259 149.3920607 230.31125621
v -453.74103536 150.43104689 227.29897857
v -450.7142419 151.57314682 227.21129271
v -449.81117777 151.97122725 223.85962739
v -454.34520196 149.41741843 225.33571974
v -454.2525576 149.43600639 225.27483035
v -449.1454538 150.80893362 227.58747095
v -523.08012274 70.8515849 219.65065491
v -454.11546656 149.2680339 223.74157392
v -453.82735956 149.38525239 223.33633834
v -457.73527641 64.05966918 185.01638595
v -453.90412643 149.20266131 222.62123488
v -452.71593555 149.2894608 218.44771697
v -450.30250632 151.6019087 218.75499
v 177.95436029 -4.97720643 231.72214296
v -445.92330046 148.72794246 209.44035246
v -448.44545707 152.80786541 210.11244798
v -456.97983694 147.04117797 226.90815605
v -448.42320804 150.92358294 205.19024752
v -417.26818952 323.04784862 201.67396247
v -447.39060624 147.97556031 198.9633956
v -521.25960713 68.6466954 201.66085969
v -416.38110565 323.39198927 199.74152087
v -415.18947207 323.51569493 199.52659674
v -521.1855122 68.32804094 201.69233206
v -521.16495882 68.27227705 202.46713024
v -415.74037973 325.56972262 192.68130647
v -415.02807666 324.23365017 196.8488639
v -490.14240683 143.27543912 142.55143348
v -48.5871331 706.33770461 185.3951719
v -432.94019294 230.87041091 260.35962939
v -519.09631253 66.65006302 191.56071052
v -446.01008711 152.08281925 190.8217266
v -445.97221751 152.04020953 190.1640056
v -519.93915525 67.1564726 190.98917241
v -399.24590712 328.16612832 187.60977287
v -446.14152597 152.453371 189.80093015
v -446.06208716 152.17433318 189.837695
v -42.1912232 684.60430397 187.19884658
v -380.34740845 328.27411064 169.53285702
v -519.41884644 66.71102948 187.85813477
v -440.40250852 152.35702703 147.40709236
v -519.21022964 66.50427532 187.75703784
v -514.10286893 61.0039083 148.90800292
v -461.50820894 143.9714151 186.08702435
v -140.44174466 710.12949487 168.32855743
v -231.40027704 711.00732972 163.62277122
v -444.94696354 143.31910221 115.75748245
v 17.04520362 825.59339798 130.87518691
v 102.39131773 829.27291541 165.14892389
v 576.10445113 328.52545278 139.10856253
v -204.43768553 715.14159067 118.33045729
v -208.46441376 728.23193545 110.0774275
v -144.76458287 713.03507478 73.29141238
v -211.2179372 713.40149016 93.68058987
v 403.79041353 659.64222429 108.56229657
v 275.80793497 170.35275703 99.44944184
v 502.40249783 82.43561102 81.77715781
v -317.05219653 151.28674832 58.04003387
v -259.27312635 144.57623683 38.38551767
v 367.62445533 484.49171752 46.887147
v 260.81249742 394.6769165 396.34983315
v 219.38559338 353.04573756 231.23741719
v 311.61063786 741.62020147 376.35961603
v 158.82593354 168.96455607 202.19156081
v 498.49170351 384.22223437 97.01014746
v 425.01537494 458.60386224 63.65596869
v 171.66177609 668.79608302 133.2719679
v -229.62510732 638.77550829 134.16542332
v 177.53788459 775.791634 28.00340181
v 548.11742779 495.21775565 266.17901056
v -412.74462186 712.24202262 252.93456681
v -358.50337925 806.18160435 288.87258802
v -124.76423036 624.94811931 194.54187548
v 247.04021719 709.2029999 332.83652418
v -177.33536957 296.0890081 137.50565583
v 319.29958015 827.82482704 196.73718197
v 334.13095034 420.23329715 406.76328006
v 639.96015372 -7.1477204 305.05010182
v -411.40279447 599.67681404 231.45589962
v 198.99080867 575.52654148 106.49066363
v 52.8635303 758.00473919 8.40847997
v 118.62308603 154.97496239 283.93266028
v 452.44976928 -5.11005834 47.83981863
v -171.07127749 147.33426917 125.62984879
v -245.59446677 495.76812378 139.9785614
v 239.64249061 289.59439703 313.9796718
v -103.09707583 850.85011036 424.65430344
v 630.36151985 389.70382074 268.85120684
v 629.68264172 331.29979936 271.83026508
v 316.13870157 665.06703196 372.49897195
v -148.52193337 637.69799736 333.45004256
v 368.83415019 713.35442292 343.87792822
v -134.08685803 145.52938697 320.03952751
v -123.7634863 816.8942314 110.99780784
v -347.89333925 430.08234826 229.10351393
v -42.81067638 704.68310616 178.47505448
v -211.89533805 498.35235159 202.08807454
v 761.74262821 123.29932676 129.58652854
v -146.90391993 -5.19353075 105.30908194
v 38.36366685 860.6726733 118.62670856
v 161.93989902 50.1697337 302.31537188
v 182.57563357 652.50788927 97.00191327
v -312.93003638 635.79583345 84.55729787
v -146.53183953 95.68620793 411.15055312
v 218.00538255 704.66984923 81.84647408
v 184.48479848 328.09002943 259.32641099
v 765.49670302 -5.05389623 165.58942136
v 173.33667101 401.29510477 198.69415917
v -62.46423878 887.23688893 354.57267383
v 509.34291172 454.14393299 350.87334809
v 611.84873105 491.88276426 242.54984324
v -337.95300545 643.50453267 308.80659165
v -194.86515445 796.81584028 71.28364263
v 216.18170686 884.83779568 293.80110864
v 374.79612043 652.63439533 377.45670405
v -293.7152469 170.48390044 421.3983141
v 186.82359325 45.45079333 244.05396527
v 363.22510717 400.14681314 49.2498704
v -172.61107247 323.08093956 289.47392853
v 454.35249841 88.412521 412.42126582
v -193.74744882 884.37318653 197.31022304
v 601.15059413 491.01890571 178.83490562
v -68.78103743 46.88751311 205.55695836
v 149.08151198 451.6595946 232.07635477
v -29.60551207 932.39749423 381.9442776
v -306.46332652 802.62422539 242.60973066
v 703.4010891 112.93209926 369.37796693
v -204.47581204 480.99620423 235.40741533
v 118.79360201 677.30173954 440.09878095
v 289.46349769 795.26359766 256.11569047
v -216.35212007 676.04628772 115.63418786
v 112.05296697 456.25517615 174.49355652
v 172.51060498 549.6656625 181.50604854
v -286.11093316 379.35691539 157.67278617
v -288.97833516 -4.267267 80.84928832
v 237.45363274 536.87041287 101.0088396
v 183.99882666 52.39863212 156.61463395
v 414.54527777 164.77767847 92.37657427
v 230.01341205 801.39549296 331.41692793
v 403.47471361 666.38594233 318.52117227
v -381.38391539 640.24497218 181.54298039
v 319.89442065 572.35803246 353.17771595
v 656.95255764 93.47627001 111.99621396
v -165.68490465 942.70131456 222.31157252
v -285.67586949 834.11744977 164.77139684
v 467.37866526 573.6857294 215.85300693
v -33.82553199 934.45365434 156.89778245
v -193.77446366 244.2432362 352.36439302
v 314.21300404 573.46411259 67.97457419
v -166.17289327 847.73858559 114.65494777
v 302.07425505 49.42717863 52.74424041
v -421.37046427 294.92853859 121.04122969
v 91.36543791 933.11357398 210.93905353
v 96.02661686 785.34777376 422.49013532
v 407.26712047 376.68685152 401.14514217
v -42.47661652 870.42936266 163.58603205
v 137.69125285 798.37532796 305.53878412
v -129.69787647 79.74803824 291.87672139
v 211.75694958 578.8810072 335.47115916
v 370.21831755 736.21317248 92.0986155
v -209.37691959 934.84005788 336.74767819
v 226.91478452 408.4803094 85.74266908
v 376.51692646 772.33101008 126.68947828
v 572.07249463 331.92678021 187.48970259
v 368.03418696 180.70584124 70.41524307
v -411.81527511 -4.00292485 408.71096971
v -353.99959422 748.78624008 188.0207377
v -220.85058691 413.71892914 231.73056985
v -417.00284538 322.11130818 204.1420637
v 493.30315694 570.57245759 263.59316416
v -9.6292038 840.12535682 122.48322912
v 156.37274636 396.95826457 314.64557561
v -291.02653083 585.03751518 146.91306619
v 603.00055246 160.06806419 84.6440524
v 157.4306802 287.53546221 283.72368379
v 91.97036241 582.05681267 286.24648269
v 136.58932193 777.27933901 310.29473342
v -132.2460588 293.5659009 216.6149978
v 106.13591871 455.58678024 272.49311158
v 10.37815772 857.02655512 363.16704387
v -204.84091714 144.65788513 71.59604116
v 282.59597123 665.98386684 98.91001839
v -41.46172595 747.18919109 419.50455138
v 108.96724954 47.3537023 245.60001618
v -357.8453371 804.43497814 225.63613308
v 164.16801384 727.27404519 125.14992738
v 548.89434554 330.21727854 287.6929011
v 432.02875332 715.24995836 214.88442891
v -252.61904674 883.13011812 245.67832456
v -380.98376678 489.92366748 244.07940007
v 26.41081997 680.31455671 307.06559193
v -444.54365485 610.18401006 279.05498359
v -398.22234881 640.34691694 253.89006774
v 486.05125659 160.80618744 416.89293619
v -325.58169497 839.86021822 309.69439489
v 88.65068971 654.71187956 165.08037837
v -243.81788401 49.07123263 49.9345356
v 233.26112865 734.85402886 335.65256842
v 239.66545901 495.52297334 385.54063091
v 382.80240689 295.5500728 348.38996029
v -334.49744279 325.14218663 137.89267597
v 283.25902326 325.53830164 352.45937533
v 404.68826223 536.78455113 407.0730195
v 349.76382527 532.32344006 75.4516882
v 64.26806119 676.88018972 84.49740404
v 264.10422395 830.5833989 290.98822447
v 376.58798977 714.14233673 224.47676831
v 475.93257084 520.01633319 74.61056683
v -307.69927832 135.1123946 32.12654466
v 118.30168255 156.39814263 199.98288177
v -206.02381553 355.87616917 145.53045318
v 381.64820616 774.79808363 169.17750193
v 343.62864142 798.30683383 220.09841028
v 68.25419007 802.36854134 145.23882641
v 429.11510621 327.08242568 79.92475234
v 459.73234555 662.33240478 277.49991488
v -258.70685505 507.05198063 175.62513569
v 88.51136991 539.67497292 246.8511004
v -208.55423203 117.83951412 449.01514538
v 93.36228867 580.39774385 192.95092828
v 737.36267163 -4.43490551 234.62487109
v 538.281351 -6.71851445 346.84367815
v 368.09178781 391.31101796 72.90260024
v -352.25661624 509.1964175 207.98674037
v 165.86738013 552.83802528 345.30536045
v -181.29843371 737.8880674 44.90369126
v -355.81777188 260.90637498 61.48887814
v -266.30700673 835.06773529 412.0785639
v 239.37547651 669.90010781 402.85094423
v -265.45432408 154.64043044 408.85921096
v -227.76785255 567.22220531 335.04876151
v 702.96751556 102.2823784 154.64484942
v 171.2741265 369.828831 214.79270946
v -333.18320831 388.48873062 293.43595216
v -366.1067167 785.17671825 211.063941
v 539.79793351 521.19111299 242.83039688
v 65.13633229 843.89063322 329.06816477
v -283.5591026 421.55123124 303.21124232
v 541.52950437 363.73608988 300.11325709
v 518.44276644 192.88826616 87.92638218
v -272.34697705 589.98286387 110.61751893
v 248.74219118 797.11468642 126.22551143
v -448.38395109 634.15032987 287.0813096
v 270.13145117 260.63876998 370.67033775
v 378.23665343 537.53140956 325.22365509
v 290.47626548 397.81893735 93.13531513
v -241.77313103 157.82291576 69.63161335
v 293.31841252 709.98438801 137.98901994
v -48.86605852 700.34726794 338.17896417
v 219.42698275 782.2073201 404.72631167
v 150.83804235 832.94261859 373.63241376
v 47.81949969 785.35424807 56.79458898
v -164.24453665 705.00707881 401.37924517
v -322.76305585 735.22090669 271.69528076
v 263.63303772 478.32154154 86.0061313
v 250.83473077 777.32342601 110.35385761
v -151.32310211 57.52762527 149.66531788
v 644.76080662 393.9119197 216.32725048
v 106.49821699 557.15968167 193.25434754
v 490.8931704 79.79330706 343.85745192
v 354.53282597 569.53132614 76.10251097
v 238.08490411 157.28622848 128.3840916
v 193.65269774 933.30441211 253.81206767
v -313.370521 863.74232056 224.66907087
v -166.94995233 151.11186475 407.82337201
v -390.3385348 678.76180025 172.87267846
v -124.12341452 881.0094204 192.51542785
v 58.11130271 830.04844581 333.49906237
v 697.73472784 99.03358274 216.5519503
v 363.9260288 66.3234955 94.16809677
v 597.07455063 112.89389566 424.49956218
v 192.57622732 883.50562837 349.25703031
v -41.66720837 685.13663651 265.54321745
v -214.02641523 369.38241159 281.59530425
v -145.24609717 326.80762699 185.50159987
v -225.47643331 443.46141664 176.40863052
v -304.0989171 731.78021954 229.13321356
v 380.56406677 56.32679405 44.52443645
v -269.68063848 442.1752889 160.1366611
v -3.35628441 808.41539704 72.99932958
v 292.62049682 645.5699418 60.32578807
v 55.96854865 702.96160646 435.31020316
v 141.93615521 163.34893597 246.78699955
v 442.70207203 466.752969 49.16185698
v -542.19748921 -1.90267774 261.36168372
v 438.90601694 666.82573328 270.23632479
v -241.39335595 828.49245219 340.69544291
v 433.00478194 348.10817346 327.18280325
v 77.60356925 471.61178797 234.46848556
v -399.76644715 595.95274717 297.13134706
v 257.83672772 331.86432362 260.45484292
v -202.07954489 762.03695261 396.51490248
v -411.76296676 46.4949821 76.55740222
v -290.36517446 743.77388737 350.97238969
v -210.27804399 363.64221232 304.54803414
v 599.7247548 329.89405095 159.56146192
v -173.6974342 520.20408832 240.24393388
v -276.85695378 96.00555607 412.3635879
v -97.85374167 730.8607641 63.45831583
v -292.59138809 370.67064605 123.4524109
v -379.15469583 90.249672 383.93695345
v -380.01020457 527.34870003 283.60514217
v 141.7989614 407.93736619 215.37212208
v 710.33574804 192.44964419 184.61522252
v 290.06619986 628.12109869 349.89528982
v 145.71077055 53.40718646 180.76860612
v -211.66399692 -5.30400517 442.13716238
v 355.50564312 734.9942543 233.82177347
v 205.6561541 -5.11789431 126.54429435
v -68.59200414 -5.05171243 253.21830622
v -196.67029356 897.93759501 243.18121738
v 256.24294158 568.59362958 361.97253283
v -285.47367562 444.51385245 137.16798949
v 490.88597672 529.27295882 281.05487882
v 678.01679162 101.22572914 277.43023892
v -286.97060395 304.262856 59.77980681
v 214.67419353 301.29153096 144.57644237
v -317.23162754 327.24364125 115.91542232
v 148.60368444 864.115981 194.59103659
v -292.08436191 831.32188183 218.7779584
v -463.92266584 -5.14690027 192.89761795
v 236.30269486 666.08262583 97.19853846
v 454.14007923 -5.70163599 339.33915107
v 233.88939409 550.96350566 366.7651956
v -139.33858054 561.51756339 217.57561138
v -160.92876266 644.55922935 127.40480013
v 734.1603523 -4.86251857 124.29363504
v -234.40027403 424.38700674 273.18622292
v 244.38831737 387.83831892 353.15605783
v -288.30603411 803.32185848 354.96596275
v 498.81593307 182.75254679 344.01286116
v -279.19338491 322.91718051 327.87157269
v -128.55631607 780.36542898 38.65373606
v -392.56261602 599.48314982 321.29842202
v 327.80318132 379.51157957 322.48830855
v 444.02031442 166.66609731 340.99541948
v -304.62125555 674.51881192 340.17662422
v -317.17261364 762.84362138 345.14193539
v -381.82108578 398.29166508 188.11429411
v -143.1938422 797.53993584 376.64173685
v 525.06511677 372.74286349 358.44593255
v -379.63094333 637.12666479 333.00578126
v -423.46942679 252.29371243 122.45572613
v -146.99467595 822.31775447 374.61057479
v 377.10873533 548.8326854 84.00808587
v -369.38202622 635.69301517 110.53948032
v 186.04446601 327.17576372 178.63914752
v -246.82903121 827.05263656 136.74077465
v 373.57270619 526.23789262 49.23924688
v 244.71316354 159.18604159 172.48031444
v 172.58958135 823.17817033 161.33655456
v -232.26477788 910.06193095 281.28201936
v 526.09407034 160.44019598 176.28403851
v 407.68093708 527.15169588 78.10511025
v -235.25213455 150.03333899 114.2478367
v 486.30247028 162.07606516 95.19544461
v -356.2781419 445.30001922 217.31060124
v 99.10752352 711.94127529 379.37009525
v -362.89833412 104.10637523 431.34802538
v -208.35697097 366.28696984 233.01001774
v -239.43351412 501.86543802 321.14291001
v 396.91189101 266.94441842 343.43636455
v -160.58394118 567.16912621 265.5082767
v 687.89515698 255.63330264 270.71619482
v -381.94263333 151.50911019 76.61763005
v -96.46141719 668.7582648 351.77571853
v 684.56196401 164.93171321 154.35296573
v 262.69976013 212.45631686 368.21680374
v -87.45482342 663.97564749 189.19365485
v 269.78047652 163.54957549 319.36853673
v 509.69791997 362.40453918 323.80051339
v 237.36163068 453.22016133 98.20856365
v 202.03787291 258.56239048 328.85564282
v -149.60686921 291.46480597 282.0937494
v 490.81188179 571.71409507 188.14111627
v 224.35041641 44.90867225 96.43854513
v -51.16469712 693.16370758 210.54201361
v 198.72600407 866.18878935 269.70155154
v -240.76442253 859.82690172 416.82485312
v -194.75683814 165.05770542 94.34165079
v -238.80016172 449.88203555 296.04476695
v 190.38749791 458.98106814 360.93592312
v 18.0644393 677.11598837 227.51085822
v -212.81638638 948.19307485 268.95723659
v 362.41422496 514.11150135 412.51105839
v -291.39926638 502.70807521 300.34468814
v 339.48657019 467.41987479 400.74938685
v 481.75349351 491.76381157 97.11021673
v 276.8801534 796.32631015 196.76325907
v 31.31350435 729.99310318 18.06814052
v 99.23889173 121.56760175 233.12198227
v 153.60984545 534.9879802 147.60920916
v 14.17366846 705.21250984 89.49866435
v -141.0597591 155.42551816 270.37850279
v 690.67952334 168.26572831 169.39369779
v 169.85351544 707.30916011 433.95260104
v -296.8005918 503.57938436 173.43885984
v 162.89554126 554.28210574 249.09085358
v -427.55495054 231.03085573 99.35619372
v 49.18780562 809.48561152 397.75311515
v -301.25206847 493.75620482 146.11520968
v 568.82655075 289.60714012 299.30044799
v 553.9165125 362.74020156 329.71048358
v -306.0880475 866.58238657 340.07503914
v -204.59387837 889.69702571 316.30379659
v -286.89776792 714.61413956 109.97860428
v 127.69168677 672.56058867 334.69565445
v -199.03213381 326.99951848 126.82441122
v -421.70874721 120.56780828 81.17271502
v -236.42421672 329.81289079 89.08001127
v 291.54881791 405.44840329 52.72190146
v -282.690748 675.40759145 125.9062789
v 427.27329216 663.76749314 205.82853273
v 151.02692791 707.04741281 123.81795276
v -254.51532725 734.96589063 103.14570384
v -381.71914102 711.49259502 154.59098672
v 515.4068781 163.94972411 125.02573358
v -258.79004485 854.88458465 136.42673185
v -185.59360193 151.8875493 294.57656196
v 143.24008731 452.91771835 288.53463908
v 293.8229723 773.60994413 56.18843769
v -213.42285239 573.16613996 295.56024672
v -318.50241731 587.16386508 317.34441421
v -157.3349143 78.89324887 326.1224287
v 113.65464047 666.28374065 132.96472057
v -209.59228047 828.64583179 101.89266062
v 256.52722051 157.530788 360.63340306
v -341.18284062 326.02405508 299.45529202
v 166.22764233 425.50338925 336.22662432
v -94.69924106 632.18352558 255.18842474
v 289.80735573 356.03034521 251.22157107
v -237.97463523 857.41480846 173.82327227
v 165.13607803 46.37281794 212.37216362
v 363.3485816 333.58037668 325.14907202
v -229.8400186 155.06033599 392.31258415
v -200.99902802 666.84407717 368.05489449
v 330.24880229 363.04947854 282.01901217
v -120.22764985 664.22722086 326.38425306
v 54.82068093 654.70889932 273.80351799
v 297.8943399 385.53328307 271.8034943
v -71.04718242 45.34724283 167.24461072
v 71.76091138 645.62867308 286.1250636
v -268.27476161 872.90625045 282.65018077
v 421.61453565 357.18382658 356.52701763
v 458.38841143 392.44566729 379.10762859
v -63.7500839 750.1096722 18.06133703
v -345.13204407 161.86630508 426.3126015
v 180.58688855 572.38079532 308.06060673
v -540.6197604 1.23294586 314.78847298
v 284.43375168 111.74240541 109.44830139
v 472.01098598 267.02506474 335.5405525
v -380.49878409 234.62939283 387.12000399
v 23.72042431 667.2807851 292.20274937
v -187.62380055 715.72119598 343.7050743
v 434.28484643 716.53166712 266.75165341
v -276.54074003 377.10765628 303.30306455
v -16.93544536 708.15631903 389.72964092
v -130.62783983 45.31123588 110.82591736
v -268.41005423 787.03782679 120.90014359
v 310.61765271 276.37592761 351.70396155
v 273.59967985 543.41224534 405.06040686
v 423.45940702 194.6692679 69.8804634
v 638.0313218 363.36880099 180.91883848
v -313.32748736 838.16312566 216.77605922
v -294.56859753 498.82903585 285.64303547
v 727.78089153 197.68175107 254.43082716
v -389.78783268 736.156291 263.78279478
v 197.29881592 756.45706969 28.29195199
v 197.11246099 639.12907781 342.38292677
v 119.14889287 883.43215004 381.0296522
v 706.75745601 167.89110443 205.70958005
v 118.04775839 88.25062459 283.66949994
v 742.55214309 122.00147075 301.1104043
v -177.84328212 352.14832562 267.80493704
v -60.79682658 892.75701289 162.49824443
v 693.37237576 102.67194202 89.74070609
v 551.48319787 87.5266061 364.91590526
v 181.55774029 949.91174847 326.96087813
v 75.2904084 646.04477625 202.05688478
v 309.08329153 776.12187543 256.80101722
v -340.00107266 452.86381711 322.06830024
v -278.46828736 446.80313927 295.29608441
v -419.82094497 298.30502212 168.40400118
v -175.25572723 564.83143618 172.39460685
v 588.61036056 -5.11666111 91.22630437
v -395.09679635 540.08095355 254.21951273
v 141.3640005 742.46592166 417.15288506
v 180.97674763 869.37826282 261.76992523
v -118.72436281 227.64139788 190.52717097
v -64.01790729 -5.05695354 164.43713466
v 520.18081161 242.66432557 339.65328379
v 313.51549941 730.85768109 149.23182141
v -233.29272947 803.6111473 354.34142262
v 285.82107912 476.60096674 53.14309802
v -297.86358691 43.75033515 75.03983058
v 169.19394463 574.73189643 188.57086175
v 217.20778296 333.66097162 254.46720665
v -167.49533626 -4.15761472 407.95141956
v 260.02355594 59.18587194 349.21032275
v -184.37402861 89.71044123 391.96320239
v -250.11636446 802.19563604 135.80215318
v 357.45459166 200.93657144 355.81304461
v 295.3985687 180.11133473 352.44272709
v -80.20521606 661.59006809 253.55879864
v -321.86618344 717.94378708 268.97568324
v -400.39273432 251.83156969 367.74173806
v -108.99039778 183.71608923 250.69250138
v -227.88382499 497.29698693 279.41777643
v 414.88392039 740.50096718 211.35552923
v 161.54327018 943.43373424 362.26999161
v -114.92907848 709.64027305 193.36861149
v 644.07530002 330.51060096 224.17589252
v -175.29459881 894.54690396 195.09400349
v 621.83073683 271.16048182 290.32088193
v 641.60267706 254.52390828 286.10605173
v 25.45453062 876.62857028 177.41239336
v -153.31269496 851.71016654 352.00054682
v 655.65527969 275.76451595 297.20426018
v 188.73903978 397.09181016 247.37369578
v -219.50919627 192.96408244 79.19095815
v 236.67622685 842.56422086 298.06588355
v -136.05954572 129.53303837 214.77287545
v -403.36447042 670.3577802 261.58861873
v 246.84776048 834.01519671 323.65597175
v -2.95872043 685.14305944 391.75985239
v 332.79706169 825.4309749 274.71714141
v -143.06023239 626.59495887 283.44500565
v -259.86490954 892.10444308 289.17020096
v -162.37782732 323.27226584 232.77290881
v -279.64373515 329.22411354 60.6108506
v -315.29277584 710.00283467 349.99255869
v 30.94310996 884.60739229 384.340108
v 227.87429336 173.44834009 128.58254732
v 162.68429105 325.97393053 228.84844648
v -145.7480364 885.5108161 335.9947565
v -272.05362893 295.69222511 337.46684094
v -289.14078394 567.1502171 166.09136058
v -148.69021417 862.25888038 335.9550371
v 380.23079371 575.59883799 367.11152005
v -390.89196024 264.96659238 338.46563243
v 458.69383466 572.80234514 290.19879485
v -178.01384948 846.99969159 98.2093344
v 298.79141785 -5.86793852 51.89743796
v 200.08505776 885.9681288 245.34497443
v 453.93839919 659.75331531 194.68505546
v 58.4908016 675.90405833 167.584782
v -216.822998 441.53279025 241.88072797
v -335.88623466 397.03205121 318.98791383
v 452.94402668 452.10904563 385.82429324
v 352.05850735 653.76226204 65.97879606
v 529.53727528 408.1580581 345.65276395
v 77.24957582 931.46139055 388.83695626
v 215.76668274 414.9969126 372.99387164
v -433.74809492 636.17781801 195.11576438
v -134.39270516 178.47969183 302.98628558
v -386.28093795 603.47477031 147.28239758
v -318.47968014 323.51160994 97.94632822
v -326.15760067 299.90094067 69.90596886
v -306.84479725 -5.35392419 447.10111189
v -438.22040758 157.81149579 366.68552556
v 339.74402696 709.40267598 124.56490111
v -7.59309368 835.42582654 153.84527156
v 586.79267104 156.00976083 416.77308429
v 491.55396156 528.58231388 293.59035942
v -103.23309424 634.95165476 188.86929683
v -229.67998484 306.97543967 92.70753507
v -254.50209601 633.53449923 323.04867076
v 450.30425335 495.34205221 385.7396647
v -112.46742588 168.7339343 188.91328106
v -542.5256753 22.40478963 266.57525403
v 696.89717762 -2.1043064 107.62551849
v 684.93737149 162.08733098 103.32856469
v 322.81544128 146.26373354 382.30450127
v 299.29816143 675.68480516 389.81609358
v 519.6192419 525.16474928 337.24614903
v -123.97598255 825.97204262 424.26548488
v -346.38256308 145.34976328 54.54006306
v -345.35147709 452.7179395 261.26919352
v 424.89793806 567.79081456 129.2130094
v 516.36353516 495.28635255 336.98242348
v -16.05465757 740.26074955 393.59144113
v -315.32011184 44.60655041 39.27921073
v 183.69947953 670.3015667 332.62207535
v 656.07795995 308.90894748 268.2161074
v 225.8748092 729.04811016 34.42278431
v -504.62077272 151.02789135 320.35851596
v 151.79351759 876.26087032 339.69901506
v -328.31814625 604.44005979 96.69089567
v -171.02472409 668.26035918 101.54091522
v -267.05974857 637.72040054 327.5145091
v 414.02943932 73.7157369 338.51221153
v -210.95367212 904.71990202 335.78403298
v 469.87980604 302.92534481 334.55021359
v 376.47232562 330.11456302 73.73862181
v 0.19580576 892.10629289 164.95506698
v 503.85382336 525.18232242 200.18575648
v -361.64175187 399.26476485 220.78859277
v -426.80315929 256.44333703 274.18041559
v -14.5013343 788.36696247 27.2974157
v 375.02850208 666.29108849 144.44960232
v 315.39091823 337.10006588 82.54212249
v 614.14793487 96.09768659 79.85116482
v -106.48339929 794.88140756 413.81409129
v 129.67710472 890.04026716 219.77384673
v 149.46467836 880.66268489 226.3305547
v 258.34637446 666.72743674 96.86080147
v 581.5394841 87.01525086 305.49020107
v 11.75690011 839.08026884 400.8491735
v 35.86560908 669.22508344 194.14297292
v -196.80606148 51.77003269 82.70092946
v 693.44246279 169.02107787 275.88991726
v -349.13152623 151.61025851 427.55872722
v 742.024024 160.89306401 134.17164072
v -265.07570513 151.77588022 432.83876201
v -130.50201461 873.58389538 149.20541032
v 165.14774207 800.62864637 73.45171589
v 221.87059976 669.63666487 365.91780545
v 194.48864223 661.22483453 357.07463675
v 266.72439449 283.50699979 104.44523624
v 696.35328381 129.08962489 92.59571183
v -165.4739499 561.00840479 224.08645963
v -350.83994885 502.77754563 270.18126742
v -149.76730118 325.68566938 217.88948718
v -122.98578495 849.7025124 143.311536
v -257.47134001 870.14089597 237.14782414
v 130.32510139 480.00943647 319.96499581
v -213.89651787 642.01991067 346.38053343
v 539.12594076 464.74608562 333.27428547
v -191.87394402 636.30833197 137.43974371
v -303.09167304 557.37703366 316.68405981
v -161.05250685 240.40848938 135.24843228
v 430.89148343 368.78479639 364.50491474
v 581.14424261 397.3307432 317.63814769
v 502.02159232 327.27752864 311.59792046
v -439.85933408 207.01059614 348.94600629
v 196.04462299 166.59355672 316.84090779
v -169.22941206 711.33880435 148.37195793
v -38.70039223 882.61320062 345.07755192
v -86.88936141 884.877772 332.28887937
v -37.81517101 696.56246583 136.53177247
v -242.7924502 323.73754297 310.69264685
v -307.64668736 145.91946443 96.54502448
v 655.11631869 210.62716883 308.02448417
v 342.07901936 799.06104009 264.50558007
v -260.73454873 328.46076102 97.72058788
v -277.21463397 716.59209406 203.55283684
v -502.34063216 134.28760032 206.9298342
v -454.84130916 157.70093145 317.38868105
v 113.75319393 703.93177737 74.92584925
v -375.41238783 325.59132936 297.98677873
v -217.4423484 713.39332019 156.33479968
v -362.36949566 146.77895538 138.8798548
v 231.48231071 664.36693246 178.58901012
v -365.72057008 392.72925254 272.90775032
v -436.76841407 169.89868149 106.78056905
v 190.6337274 666.43855898 124.62281026
v 390.97635755 163.70755391 173.06806403
v 588.92698537 459.14025406 296.00538154
v 564.97515569 367.3333424 181.43128562
v 668.68612244 225.93557013 301.27704083
v 91.59174989 665.42882282 153.42939962
v -444.02144485 149.73111439 260.48921845
v 101.7831368 669.71923807 138.89137753
v 127.39519142 670.59419545 142.30367533
v 127.2271547 673.990179 192.95374152
v 110.35407599 673.18705568 132.99325123
v 100.55056989 673.53923785 181.1565897
v -399.11613822 297.56111823 285.83364237
v -281.09357056 861.23100586 245.49388367
v 138.63223795 669.81871643 139.43534842
v -49.50419279 707.24030628 210.22799651
v 180.47597738 670.35546794 98.52379469
v -462.09048619 147.52443931 252.40624218
v -209.57922908 713.39527276 131.20011015
vt 0.87562 0.2079
vt 0.89222 0.16857
vt 0.89735 0.20817
vt 0.93335 0.13863
vt 0.90774 0.13411
vt 0.93338 0.13706
vt 0.93757 0.13194
vt 0.0064 0.59341
vt 0.01225 0.59159
vt 0.01237 0.59159
vt 0.01191 0.59175
vt 0.01228 0.59166
vt 0.00657 0.59395
vt 0.01202 0.57258
vt 0.01026 0.5726
vt 0.01127 0.57256
vt 0.01192 0.5726
vt 0.93987 0.12921
vt 0.75486 0.25089
vt 0.73019 0.25754
vt 0.69977 0.24271
vt 0.93846 0.131
vt 0.01175 0.55464
vt 0.01018 0.55416
vt 0.00989 0.55396
vt 0.01043 0.55414
vt 0.01024 0.55398
vt 0.01179 0.55449
vt 0.93848 0.13088
vt 0.93807 0.13126
vt 0.06666 0.78147
vt 0.06733 0.78135
vt 0.06783 0.78156
vt 0.06702 0.78155
vt 0.06733 0.78175
vt 0.06667 0.78164
vt 0.01146 0.55607
vt 0.01268 0.5562
vt 0.01281 0.55634
vt 0.01197 0.55626
vt 0.01174 0.55788
vt 0.01293 0.5581
vt 0.0124 0.55814
vt 0.01157 0.55798
vt 0.01197 0.58279
vt 0.01229 0.58274
vt 0.01314 0.58279
vt 0.01229 0.58284
vt 0.0051 0.5506
vt 0.00454 0.5505
vt 0.0044 0.55044
vt 0.00497 0.55045
vt 0.00497 0.55075
vt 0.0044 0.55076
vt 0.01188 0.5636
vt 0.01243 0.56342
vt 0.01262 0.56351
vt 0.01221 0.5636
vt 0.01249 0.56366
vt 0.01193 0.56376
vt 0.06671 0.78327
vt 0.06672 0.78272
vt 0.06748 0.78358
vt 0.06681 0.78345
vt 0.06645 0.7841
vt 0.06665 0.78358
vt 0.69317 0.27591
vt 0.70576 0.26738
vt 0.71564 0.27341
vt 0.94075 0.12771
vt 0.93937 0.14995
vt 0.06594 0.77668
vt 0.06738 0.77761
vt 0.06734 0.77777
vt 0.06656 0.77764
vt 0.06733 0.77789
vt 0.06567 0.77835
vt 0.05449 0.77475
vt 0.05405 0.7746
vt 0.05526 0.774
vt 0.00266 0.55246
vt -0.01296 0.54288
vt 0.00355 0.55236
vt 0.00268 0.55261
vt -0.00513 0.56667
vt 0.00274 0.55274
vt 0.05437 0.77541
vt 0.05347 0.77421
vt 0.94061 0.12759
vt 0.94164 0.12612
vt 0.93713 0.13851
vt 0.02941 0.58032
vt 0.01083 0.56929
vt 0.01087 0.56925
vt 0.01183 0.56905
vt 0.01082 0.56923
vt 0.02344 0.55579
vt 0.94212 0.12525
vt 0.94178 0.12624
vt 0.94221 0.12536
vt 0.01161 0.5777
vt 0.01261 0.57753
vt 0.02939 0.57597
vt 0.01156 0.57774
vt 0.01262 0.5776
vt 0.01162 0.57776
vt 0.06479 0.78601
vt 0.06745 0.78521
vt 0.06717 0.78542
vt 0.06691 0.78551
vt 0.06685 0.78529
vt 0.12491 0.79597
vt 0.12688 0.7963
vt 0.128 0.79682
vt 0.12734 0.80518
vt 0.12647 0.80485
vt 0.12942 0.80373
vt 0.12783 0.80493
vt 0.70205 0.26942
vt 0.70177 0.26935
vt 0.12622 0.80278
vt 0.12715 0.80278
vt 0.12752 0.80319
vt 0.1285 0.8048
vt 0.70188 0.2691
vt 0.94218 0.1248
vt 0.92822 0.11902
vt 0.94203 0.12467
vt 0.94939 0.1108
vt 0.0675 0.78539
vt 0.6978 0.26956
vt 0.69774 0.26967
vt 0.6978 0.26957
vt 0.12722 0.79677
vt 0.1277 0.79666
vt 0.70105 0.26912
vt 0.12682 0.79705
vt 0.94669 0.11174
vt 0.02766 0.56573
vt 0.69773 0.26959
vt 0.69779 0.26958
vt 0.69795 0.26954
vt 0.69772 0.26959
vt 0.70003 0.26956
vt 0.69999 0.26972
vt 0.12736 0.79633
vt 0.01218 0.56188
vt 0.01213 0.56153
vt 0.0128 0.5616
vt 0.69921 0.26981
vt 0.69082 0.2626
vt 0.91951 0.08975
vt 0.89063 0.11078
vt 0.88259 0.1208
vt 0.89252 0.10585
vt 0.70886 0.19092
vt 0.70549 0.19094
vt 0.71032 0.18801
vt 0.88768 0.10771
vt 0.88549 0.10864
vt 0.88964 0.10038
vt 0.02209 0.56
vt 0.88983 0.10451
vt 0.88987 0.10442
vt 0.88694 0.10049
vt 0.70547 0.18376
vt 0.7076 0.17979
vt 0.70574 0.19113
vt 0.70489 0.193
vt 0.70199 0.17848
vt 0.70353 0.19284
vt 0.88837 0.09455
vt 0.88828 0.0947
vt 0.88802 0.09508
vt 0.88784 0.09533
vt 0.06234 0.77845
vt 0.06678 0.77368
vt 0.06798 0.77281
vt 0.06712 0.77402
vt 0.88677 0.09324
vt 0.88726 0.09656
vt 0.8875 0.09591
vt 0.70645 0.17843
vt 0.70335 0.16372
vt 0.06621 0.77984
vt 0.06638 0.77966
vt 0.06708 0.77956
vt 0.06879 0.77965
vt 0.8904 0.09489
vt 0.89052 0.09735
vt 0.06617 0.77954
vt 0.0687 0.77898
vt 0.8906 0.09725
vt 0.94868 0.10166
vt -0.00213 0.55851
vt 0.00518 0.55425
vt 0.00562 0.55414
vt 0.0048 0.55445
vt 0.00523 0.55437
vt -0.00327 0.55566
vt 0.12935 0.81037
vt 0.12774 0.81059
vt 0.12724 0.81053
vt 0.12746 0.81042
vt 0.12745 0.81075
vt 0.89244 0.09574
vt 0.95071 0.61917
vt 0.94438 0.61334
vt 0.941 0.6102
vt 0.94878 0.10119
vt 0.94403 0.61308
vt 0.8889 0.09393
vt 0.88764 0.09345
vt 0.9492 0.09674
vt 0.66906 0.1523
vt 0.6824 0.15583
vt 0.67816 0.15573
vt 0.70516 0.17223
vt 0.88942 0.0932
vt 0.89146 0.09413
vt 0.89143 0.09409
vt 0.69808 0.17
vt 0.89149 0.09408
vt 0.94495 0.57764
vt 0.70502 0.17459
vt 0.01103 0.55999
vt 0.01119 0.55984
vt 0.0119 0.55972
vt 0.01188 0.55976
vt 0.8916 0.09316
vt 0.01099 0.55975
vt 0.01186 0.55969
vt 0.89163 0.09311
vt 0.68523 0.15593
vt 0.89049 0.08986
vt 0.88816 0.09355
vt 0.88911 0.09192
vt 0.12511 0.8141
vt 0.12699 0.81452
vt 0.12747 0.81469
vt 0.12726 0.81473
vt 0.89207 0.09071
vt 0.12534 0.81364
vt 0.12733 0.81452
vt 0.90013 0.0814
vt 0.65617 0.15494
vt 0.88824 0.08499
vt 0.69129 0.15584
vt 0.89019 0.08535
vt 0.89238 0.08508
vt 0.64958 0.12518
vt 0.69017 0.15484
vt 0.6914 0.15727
vt 0.89342 0.08353
vt 0.69449 0.1554
vt 0.93345 0.60588
vt 0.89562 0.0812
vt 0.88772 0.58921
vt 0.93281 0.60579
vt 0.93472 0.61389
vt 0.93307 0.60567
vt 0.94872 0.59672
vt 0.65214 0.06775
vt 0.6519 0.06864
vt 0.65166 0.06912
vt 0.65206 0.06891
vt 0.65278 0.06876
vt 0.65146 0.06971
vt 0.66823 0.05244
vt 0.65247 0.06803
vt 0.12627 0.79217
vt 0.12454 0.79122
vt 0.12773 0.79207
vt 0.12744 0.79253
vt 0.65298 0.06698
vt 0.6584 0.05885
vt 0.12476 0.79535
vt 0.1265 0.79442
vt 0.12769 0.79408
vt 0.12796 0.79454
vt 0.65339 0.06782
vt 0.7002 0.15566
vt 0.93157 0.60117
vt 0.93218 0.60107
vt 0.6549 0.0656
vt 0.70746 0.14075
vt 0.70163 0.15116
vt 0.70106 0.15069
vt 0.7011 0.15086
vt 0.70108 0.1508
vt 0.70163 0.15147
vt 0.93078 0.60002
vt 0.93087 0.59993
vt 0.93073 0.60037
vt 0.92169 0.58758
vt 0.84418 0.54777
vt 0.86217 0.60035
vt 0.85895 0.60485
vt 0.87823 0.56713
vt 0.87296 0.60006
vt 0.77069 0.44639
vt 0.79033 0.41546
vt 0.78127 0.44411
vt 0.88683 0.28858
vt 0.90085 0.24213
vt 0.90028 0.28442
vt 0.87258 0.37517
vt 0.86872 0.32354
vt 0.89908 0.34028
vt 0.79044 0.09429
vt 0.83125 0.23149
vt 0.7425 0.22159
vt 0.79096 0.3763
vt 0.77285 0.29555
vt 0.79348 0.34775
vt 0.83982 0.33595
vt 0.83832 0.26792
vt 0.84976 0.32169
vt 0.68821 0.07322
vt 0.63917 0.11305
vt 0.66998 0.07488
vt 0.93875 0.31518
vt 0.90148 0.31868
vt 0.91785 0.19941
vt 0.93175 0.49194
vt 0.90999 0.44629
vt 0.94843 0.48137
vt 0.9158 0.53763
vt 0.91438 0.49821
vt 0.88483 0.54798
vt 0.86816 0.51629
vt 0.64473 0.07399
vt 0.93466 0.38895
vt 0.93233 0.37571
vt 0.85935 0.34623
vt 0.84767 0.38542
vt 0.84158 0.36003
vt 0.68773 0.0322
vt 0.70783 0.02781
vt 0.71944 0.03983
vt 0.69477 0.08766
vt 0.78209 0.07573
vt 0.80253 0.06981
vt 0.82305 0.38581
vt 0.77414 0.42354
vt 0.71374 0.11693
vt 0.70444 0.09324
vt 0.72297 0.06108
vt 0.73555 0.02578
vt 0.91097 0.4701
vt 0.90304 0.40816
vt 0.78996 0.23601
vt 0.74441 0.27316
vt 0.7424 0.25322
vt 0.92083 0.41782
vt 0.93818 0.42958
vt 0.7561 0.0891
vt 0.94292 0.29068
vt 0.9462 0.2719
vt 0.8119 0.24241
vt 0.86278 0.28376
vt 0.94757 0.3551
vt 0.77209 0.36892
vt 0.77339 0.37807
vt 0.77872 0.39038
vt 0.7613 0.30529
vt 0.75654 0.32425
vt 0.78783 0.05668
vt 0.63732 0.08727
vt 0.72965 0.01632
vt 0.69964 0.02465
vt 0.73266 0.23013
vt 0.72809 0.20843
vt 0.69425 0.22736
vt 0.87608 0.49887
vt 0.861 0.42391
vt 0.87155 0.48067
vt 0.84648 0.50623
vt 0.86676 0.45357
vt 0.98156 0.13651
vt 0.97144 0.11651
vt 0.89688 0.61552
vt 0.87384 0.26393
vt 0.84645 0.44157
vt 0.7352 0.10485
vt 0.81617 0.41444
vt 0.80644 0.30808
vt 0.8507 0.2408
vt 0.62765 0.07563
vt 0.74953 0.31173
vt 0.71644 0.00249
vt 0.7117 0.28494
vt 0.84019 0.09099
vt 0.74561 0.00198
vt 0.98126 0.62273
vt 0.97641 0.57576
vt 0.95244 0.24034
vt 0.96452 0.20135
vt 0.82959 0.45178
vt 0.75585 0.00703
vt 0.97076 0.62587
vt 0.84705 0.46128
vt 0.81732 0.07981
vt 0.95636 0.39566
vt 0.86075 0.60471
vt 0.54373 0.52985
vt 0.58775 0.46984
vt 0.58581 0.51076
vt 0.51991 0.4776
vt 0.49988 0.48966
vt 0.51855 0.47187
vt 0.52269 0.47605
vt 0.52104 0.48954
vt 0.52213 0.47714
vt 0.52197 0.47622
vt 0.522 0.47663
vt 0.51029 0.6424
vt 0.50629 0.59572
vt 0.55689 0.6233
vt 0.33153 0.56655
vt 0.32661 0.58466
vt 0.32654 0.58469
vt 0.31851 0.61474
vt 0.31765 0.58437
vt 0.43037 0.52832
vt 0.46175 0.53795
vt 0.4357 0.56284
vt 0.4341 0.54038
vt 0.32672 0.58466
vt 0.34363 0.57802
vt 0.74099 0.60358
vt 0.73687 0.62132
vt 0.71476 0.63645
vt 0.75007 0.61589
vt 0.75745 0.65136
vt 0.74085 0.61078
vt 0.79874 0.61524
vt 0.81835 0.6348
vt 0.74562 0.62363
vt 0.7492 0.53983
vt 0.75417 0.59085
vt 0.07911 0.74074
vt 0.06891 0.72564
vt 0.12705 0.72671
vt 0.85324 0.61377
vt 0.85438 0.64435
vt 0.14949 0.77756
vt 0.18517 0.7774
vt 0.153 0.78278
vt 0.1959 0.73467
vt 0.13542 0.75213
vt 0.6768 0.67657
vt 0.65828 0.68442
vt 0.63669 0.64945
vt 0.14793 0.79762
vt 0.16874 0.79798
vt 0.15446 0.81785
vt 0.24375 0.69795
vt 0.26661 0.70595
vt 0.13083 0.71093
vt 0.31474 0.68971
vt 0.27351 0.66342
vt 0.69203 0.66265
vt 0.70439 0.68935
vt 0.69439 0.44436
vt 0.65798 0.49855
vt 0.66033 0.45684
vt 0.48196 0.66815
vt 0.51574 0.68715
vt 0.4465 0.7153
vt 0.40774 0.68818
vt 0.35934 0.70463
vt 0.42902 0.64413
vt 0.32822 0.72107
vt 0.34046 0.73648
vt 0.67942 0.5053
vt 0.69829 0.51111
vt 0.65958 0.54842
vt 0.2489 0.86301
vt 0.22468 0.89131
vt 0.21511 0.86366
vt 0.79039 0.71986
vt 0.73552 0.69976
vt 0.74724 0.61083
vt 0.2297 0.64665
vt 0.24556 0.6355
vt 0.28283 0.64004
vt 0.29755 0.61571
vt 0.28868 0.80842
vt 0.36879 0.81267
vt 0.34181 0.81737
vt 0.50348 0.47057
vt 0.7867 0.7355
vt 0.74051 0.72521
vt 0.61899 0.53543
vt 0.53342 0.5458
vt 0.59744 0.51791
vt 0.60537 0.66541
vt 0.57183 0.69654
vt 0.57732 0.65945
vt 0.84437 0.73134
vt 0.86675 0.69863
vt 0.88202 0.70695
vt 0.4438 0.57393
vt 0.45822 0.58476
vt 0.41162 0.61167
vt 0.87417 0.64969
vt 0.89617 0.63494
vt 0.85602 0.68596
vt 0.66061 0.42122
vt 0.67804 0.42679
vt 0.64436 0.45598
vt 0.44545 0.73128
vt 0.51594 0.69819
vt 0.49698 0.74234
vt 0.6997 0.45911
vt 0.16138 0.68462
vt 0.16488 0.67709
vt 0.18723 0.69203
vt 0.24676 0.66406
vt 0.62231 0.72032
vt 0.59233 0.69004
vt 0.64117 0.42898
vt 0.65297 0.41171
vt 0.64139 0.45403
vt 0.62088 0.62374
vt 0.54765 0.64567
vt 0.62161 0.6092
vt 0.40743 0.76587
vt 0.31157 0.80147
vt 0.38919 0.76228
vt 0.58275 0.46121
vt 0.60324 0.43618
vt 0.23193 0.88977
vt 0.24358 0.89812
vt 0.63785 0.48906
vt 0.07346 0.69664
vt 0.06593 0.71593
vt 0.04129 0.7031
vt 0.45172 0.75921
vt 0.46735 0.75955
vt 0.37861 0.63856
vt 0.4279 0.62693
vt 0.22096 0.8409
vt 0.19947 0.85903
vt 0.20125 0.83252
vt 0.72768 0.51985
vt 0.69378 0.52434
vt 0.74291 0.49347
vt 0.0418 0.74616
vt 0.07646 0.76986
vt 0.05397 0.77233
vt 0.51153 0.51701
vt 0.39741 0.74741
vt 0.48698 0.55286
vt 0.16554 0.72738
vt 0.47288 0.49172
vt 0.23206 0.83523
vt 0.17516 0.75549
vt 0.26507 0.75055
vt 0.20958 0.77362
vt 0.65765 0.51156
vt 0.6239 0.54615
vt 0.14887 0.76997
vt 0.22487 0.74473
vt 0.68855 0.43498
vt 0.71354 0.47936
vt 0.31969 0.63944
vt 0.38847 0.61998
vt 0.2721 0.73447
vt 0.50157 0.58998
vt 0.15052 0.69456
vt 0.1108 0.69113
vt 0.1271 0.68614
vt 0.32033 0.71447
vt 0.35189 0.67603
vt 0.46586 0.51723
vt 0.13952 0.64135
vt 0.1755 0.65061
vt 0.10422 0.64588
vt 0.16824 0.63166
vt 0.625 0.48435
vt 0.28164 0.84136
vt 0.35288 0.66689
vt 0.22584 0.82845
vt 0.26345 0.79225
vt 0.2265 0.82479
vt 0.39637 0.69794
vt 0.87886 0.62106
vt 0.23413 0.65901
vt 0.1817 0.6618
vt 0.32754 0.7815
vt 0.33207 0.77436
vt 0.13052 0.70304
vt 0.12633 0.66767
vt 0.10351 0.63973
vt 0.66407 0.68894
vt 0.72678 0.52406
vt 0.68592 0.57319
vt 0.49536 0.76987
vt 0.24236 0.72419
vt 0.45815 0.50719
vt 0.31009 0.58702
vt 0.42468 0.70141
vt 0.50721 0.51472
vt 0.53468 0.73995
vt 0.52895 0.749
vt 0.41247 0.59928
vt 0.4289 0.57727
vt 0.55663 0.46178
vt 0.579 0.45416
vt 0.4236 0.50569
vt 0.44247 0.50649
vt 0.42892 0.52037
vt 0.83921 0.71589
vt 0.4239 0.77915
vt 0.44887 0.78195
vt 0.35733 0.79509
vt 0.39085 0.79778
vt 0.57756 0.73906
vt 0.56138 0.73206
vt 0.13864 0.81379
vt 0.67657 0.56606
vt 0.63895 0.64581
vt 0.38626 0.58421
vt 0.40042 0.6149
vt 0.80822 0.75122
vt 0.22258 0.60759
vt 0.23874 0.61185
vt 0.20733 0.6209
vt 0.62285 0.57006
vt 0.29644 0.59972
vt 0.76297 0.60358
vt 0.75366 0.62024
vt 0.85366 0.74004
vt 0.26543 0.85181
vt 0.29356 0.85065
vt 0.70243 0.70269
vt 0.70911 0.72274
vt 0.67103 0.70282
vt 0.67938 0.71058
vt 0.74318 0.73921
vt 0.77049 0.75065
vt 0.76321 0.75253
vt 0.093 0.65277
vt 0.76269 0.62064
vt 0.81783 0.62731
vt 0.0865 0.68141
vt 0.088 0.69155
vt 0.78335 0.61836
vt 0.76135 0.57289
vt 0.08714 0.66907
vt 0.19619 0.62036
vt 0.74224 0.52457
vt 0.35632 0.58134
vt 0.47352 0.78078
vt 0.52547 0.9937
vt 0.51873 0.95355
vt 0.54381 0.96894
vt 0.39042 0.71559
vt 0.5417 0.953
vt 0.14658 0.77859
vt 0.12821 0.78441
vt 0.14028 0.78101
vt 0.8332 0.61797
vt 0.1693 0.81318
vt 0.33393 0.83414
vt 0.30604 0.83321
vt 0.31298 0.83732
vt 0.24157 0.81522
vt 0.18495 0.86092
vt 0.6459 0.41078
vt 0.09376 0.77657
vt 0.76456 0.5599
vt 0.76291 0.76127
vt 0.78583 0.76747
vt 0.76278 0.77233
vt 0.38042 0.8031
vt 0.30856 0.8596
vt 0.30698 0.8372
vt 0.29874 0.83866
vt 0.30035 0.83679
vt 0.60258 0.73895
vt 0.53718 0.46984
vt 0.18575 0.8355
vt 0.30073 0.58054
vt 0.31965 0.83751
vt 0.6321 0.42342
vt 0.30213 0.83675
vt 0.28686 0.59682
vt 0.54392 0.45967
vt 0.34298 0.83149
vt 0.84551 0.61341
vt 0.14526 0.63497
vt 0.15042 0.39818
vt 0.19388 0.48322
vt 0.13403 0.48197
vt 0.19277 0.54577
vt 0.0995 0.52292
vt 0.168 0.53296
vt 0.11284 0.46169
vt 0.10549 0.46776
vt 0.27915 0.14157
vt 0.26283 0.10415
vt 0.3096 0.12269
vt 0.06599 0.36991
vt 0.0729 0.35683
vt 0.10938 0.34281
vt 0.60906 0.28631
vt 0.60412 0.27479
vt 0.6311 0.27635
vt 0.08949 0.47246
vt 0.22137 0.38506
vt 0.07146 0.4202
vt 0.17407 0.32417
vt 0.4677 0.19067
vt 0.50027 0.22597
vt 0.43812 0.21828
vt 0.16865 0.19987
vt 0.19359 0.17393
vt 0.22377 0.17608
vt 0.14081 0.17362
vt 0.1886 0.15474
vt 0.23918 0.186
vt 0.49829 0.17479
vt 0.33491 0.05714
vt 0.34973 0.02541
vt 0.39621 0.04524
vt 0.27493 0.08518
vt 0.29875 0.05443
vt 0.49314 0.39575
vt 0.56262 0.41114
vt 0.52543 0.44433
vt 0.55464 0.26362
vt 0.60885 0.24701
vt 0.29445 0.02628
vt 0.33197 0.02597
vt 0.1557 0.10231
vt 0.22999 0.09596
vt 0.15843 0.13496
vt 0.57543 0.17803
vt 0.57944 0.15438
vt 0.61515 0.14602
vt 0.14041 0.0328
vt 0.18824 0.04226
vt 0.16501 0.04785
vt 0.31434 0.19908
vt 0.4003 0.22677
vt 0.32427 0.21122
vt 0.55185 0.18526
vt 0.57053 0.21558
vt 0.56074 0.23169
vt 0.60015 0.18045
vt 0.24276 0.16767
vt 0.26674 0.16612
vt 0.31211 0.148
vt 0.33328 0.15749
vt 0.33094 0.1166
vt 0.35358 0.12476
vt 0.36641 0.4321
vt 0.38811 0.45251
vt 0.35353 0.46853
vt 0.53989 0.37307
vt 0.54272 0.39855
vt 0.21109 0.11632
vt 0.52375 0.07714
vt 0.55856 0.06892
vt 0.53843 0.11085
vt 0.24867 0.08255
vt 0.20309 0.06156
vt 0.24483 0.05434
vt 0.43951 0.23212
vt 0.5486 0.24856
vt 0.38151 0.20286
vt 0.41146 0.17637
vt 0.40991 0.20951
vt 0.31432 0.17907
vt 0.38299 0.17913
vt 0.38323 0.28516
vt 0.41159 0.25761
vt 0.42924 0.33771
vt 0.18802 0.08822
vt 0.16253 0.07781
vt 0.50033 0.33654
vt 0.58106 0.35624
vt 0.50558 0.35184
vt 0.25291 0.14942
vt 0.29866 0.15534
vt 0.28919 0.16278
vt 0.27627 0.17929
vt 0.42326 0.04124
vt 0.43781 0.07062
vt 0.31939 0.47649
vt 0.3416 0.49584
vt 0.28412 0.49433
vt 0.35848 0.44742
vt 0.2627 0.02887
vt 0.29465 0.00467
vt 0.27602 0.44966
vt 0.20826 0.51246
vt 0.24966 0.46837
vt 0.17669 0.13813
vt 0.566 0.1457
vt 0.48865 0.16372
vt 0.46901 0.14239
vt 0.53204 0.12406
vt 0.4922 0.12103
vt 0.38968 0.13657
vt 0.349 0.10392
vt 0.34484 0.09067
vt 0.38591 0.08017
vt 0.44633 0.12104
vt 0.60905 0.13379
vt 0.57608 0.3744
vt 0.13082 0.25479
vt 0.15002 0.26398
vt 0.1032 0.28226
vt 0.18369 0.27784
vt 0.23722 0.28142
vt 0.20557 0.30375
vt 0.44457 0.17253
vt 0.45058 0.15096
vt 0.47202 0.18317
vt 0.61464 0.20557
vt 0.58959 0.21187
vt 0.17644 0.58364
vt 0.23279 0.53408
vt 0.09714 0.49224
vt 0.11997 0.49794
vt 0.43037 0.39242
vt 0.41976 0.42229
vt 0.38882 0.37751
vt 0.15908 0.50466
vt 0.4451 0.41262
vt 0.31529 0.32629
vt 0.30885 0.36881
vt 0.30477 0.31877
vt 0.33636 0.25327
vt 0.55462 0.0601
vt 0.48352 0.08175
vt 0.52361 0.06452
vt 0.16508 0.23826
vt 0.22351 0.22752
vt 0.20025 0.24329
vt 0.53923 0.28156
vt 0.46604 0.27218
vt 0.65061 0.33475
vt 0.64598 0.34452
vt 0.61273 0.35891
vt 0.02001 0.55769
vt 0.00985 0.5037
vt 0.04057 0.50693
vt 0.11561 0.0882
vt 0.35632 0.27105
vt 0.24094 0.21973
vt 0.21488 0.21343
vt 0.2917 0.20761
vt 0.1251 0.23709
vt 0.10551 0.22953
vt 0.11926 0.21935
vt 0.44157 0.13729
vt 0.45761 0.1302
vt 0.45786 0.08026
vt 0.45584 0.33341
vt 0.48874 0.35658
vt 0.45302 0.3505
vt 0.2208 0.27356
vt 0.2412 0.29779
vt 0.23286 0.31187
vt 0.26742 0.28013
vt 0.39802 0.16735
vt 0.16103 0.48762
vt 0.39102 0.42941
vt 0.13981 0.15531
vt 0.30801 0.09664
vt 0.10771 0.0472
vt 0.1099 0.03802
vt 0.19001 0.26297
vt 0.15135 0.2813
vt 0.34989 0.34858
vt 0.34725 0.36403
vt 0.38134 0.34666
vt 0.36804 0.02788
vt 0.40552 0.02641
vt 0.2794 0.23977
vt 0.26018 0.23659
vt 0.28481 0.22844
vt 0.36301 0.50532
vt 0.24834 0.22819
vt 0.29963 0.01907
vt 0.44503 0.05048
vt 0.16639 0.22351
vt 0.16208 0.2183
vt 0.11869 0.58314
vt 0.14368 0.54442
vt 0.22053 0.09152
vt 0.42485 0.44681
vt 0.10788 0.24305
vt 0.10695 0.25993
vt 0.64375 0.3069
vt 0.62636 0.33644
vt 0.62239 0.30738
vt 0.23257 0.25802
vt 0.25705 0.2651
vt 0.58926 0.35769
vt 0.59768 0.34728
vt 0.10297 0.11377
vt 0.07166 0.52062
vt 0.54132 0.1422
vt 0.57945 0.12494
vt 0.33054 0.00482
vt 0.5535 0.28031
vt 0.44152 0.26353
vt 0.3389 0.45928
vt 0.47374 0.43448
vt 0.13375 0.2993
vt 0.29083 0.24826
vt 0.31157 0.25142
vt 0.31195 0.2248
vt 0.6258 0.28924
vt 0.63667 0.28901
vt 0.29213 0.46544
vt 0.36367 0.02284
vt 0.35576 0.02209
vt 0.14424 0.20044
vt 0.10844 0.20312
vt 0.11168 0.17717
vt 0.62566 0.22677
vt 0.04246 0.47545
vt 0.04638 0.45735
vt 0.01415 0.48494
vt 0.22937 0.1338
vt 0.10307 0.1561
vt 0.10306 0.141
vt 0.29243 0.26945
vt 0.14965 0.32328
vt 0.22112 0.57389
vt 0.01699 0.46713
vt 0.02361 0.44554
vt 0.65399 0.30698
vt 0.24047 0.04252
vt 0.32278 0.4547
vt 0.33198 0.43432
vt 0.31416 0.43319
vt 0.22723 0.03687
vt 0.21458 0.02399
vt 0.25047 0.32386
vt 0.27247 0.3132
vt 0.57197 0.10193
vt 0.58705 0.28378
vt 0.62068 0.16576
vt 0.63795 0.19394
vt 0.09631 0.17406
vt 0.06433 0.57028
vt 0.56212 0.1156
vt 0.29209 0.30951
vt 0.48819 0.06236
vt 0.62656 0.25265
vt 0.0786 0.33408
vt 0.43264 0.10504
vt 0.33385 0.41044
vt 0.31511 -0.00056
vt 0.45216 0.00984
vt 0.45948 0.04571
vt 0.39185 0.02967
vt 0.6157 0.23517
vt 0.0749 0.31006
vt 0.57748 0.40015
vt 0.58016 0.38905
vt 0.03795 0.56592
vt 0.07057 0.32893
vt 0.24326 0.03157
vt 0.37432 0.02394
vt 0.37459 0.00138
vt 0.37935 0.02552
vt 0.10224 0.45981
vt 0.05413 0.42991
vt 0.57211 0.45415
vt 0.43134 0.04479
vt 0.06315 0.40487
vt 0.34522 0.00948
vt 0.42849 0.01627
vt 0.66105 0.32961
vt 0.08128 0.30032
vt 0.10062 0.10965
vt 0.00512 0.54999
vt 0.58588 0.1243
vt 0.49922 0.84837
vt 0.53967 0.84088
vt 0.5148 0.86809
vt 0.53921 0.91922
vt 0.55736 0.91716
vt 0.53471 0.94496
vt 0.55391 0.91404
vt 0.55044 0.91249
vt 0.54674 0.90304
vt 0.55376 0.91427
vt 0.02715 0.56109
vt 0.55467 0.91429
vt 0.55445 0.91462
vt 0.55496 0.91457
vt 0.56442 0.85874
vt 0.55709 0.88105
vt 0.52012 0.88658
vt 0.54364 0.95337
vt 0.574 0.95579
vt 0.55883 0.96234
vt 0.57646 0.92243
vt 0.55135 0.80577
vt 0.61435 0.80017
vt 0.58246 0.845
vt 0.58079 0.88962
vt 0.6369 0.87798
vt 0.63588 0.90973
vt 0.65068 0.73814
vt 0.67885 0.75001
vt 0.64315 0.74906
vt 0.66779 0.92988
vt 0.70914 0.91049
vt 0.70652 0.93088
vt 0.58347 0.76789
vt 0.55083 0.77762
vt 0.55809 0.7525
vt 0.60213 0.76484
vt 0.62903 0.74094
vt 0.58438 0.90669
vt 0.59266 0.92195
vt 0.71154 0.8952
vt 0.70486 0.87186
vt 0.73526 0.88093
vt 0.72765 0.86226
vt 0.74107 0.84432
vt 0.74218 0.84844
vt 0.63543 0.92699
vt 0.63707 0.83192
vt 0.66697 0.83216
vt 0.49219 0.9402
vt 0.51147 0.91899
vt 0.66152 0.78108
vt 0.68094 0.79236
vt 0.52532 0.81523
vt 0.49177 0.83159
vt 0.55086 0.83229
vt 0.52382 0.76662
vt 0.59075 0.95355
vt 0.60046 0.95155
vt 0.67241 0.94408
vt 0.73022 0.79229
vt 0.71618 0.75817
vt 0.76198 0.77946
vt 0.50414 0.80037
vt 0.51479 0.81295
vt 0.5376 0.91124
vt 0.53987 0.89448
vt 0.51702 0.89946
vt 0.73189 0.8683
vt 0.72183 0.89951
vt 0.65698 0.86369
vt 0.68579 0.86559
vt 0.57605 0.78494
vt 0.60075 0.7772
vt 0.53198 0.80017
vt 0.54513 0.8578
vt 0.70296 0.78675
vt 0.68711 0.81021
vt 0.68329 0.84325
vt 0.70784 0.8373
vt 0.71189 0.85917
vt 0.68319 0.88046
vt 0.50715 0.9495
vt 0.52662 0.79128
vt 0.72659 0.82954
vt 0.62914 0.86821
vt 0.61972 0.84871
vt 0.63936 0.84553
vt 0.61978 0.78031
vt 0.68328 0.78004
vt 0.65974 0.9571
vt 0.64387 0.97036
vt 0.73573 0.80597
vt 0.77461 0.81029
vt 0.68118 0.73832
vt 0.70191 0.74183
vt 0.73688 0.74567
vt 0.61678 0.80869
vt 0.61541 0.8385
vt 0.69031 0.9015
vt 0.58265 0.87838
vt 0.48631 0.7897
vt 0.45486 0.81125
vt 0.52167 0.87056
vt 0.64919 0.95394
vt 0.62764 0.95126
vt 0.46209 0.81094
vt 0.74481 0.90448
vt 0.61986 0.94904
vt 0.76342 0.82164
vt 0.7209 0.91863
vt 0.75723 0.76257
vt 0.70476 0.93594
vt 0.93705 0.79098
vt 0.97284 0.83262
vt 0.95305 0.85787
vt 0.82796 0.79204
vt 0.8496 0.80004
vt 0.79869 0.83434
vt 0.75968 0.83757
vt 0.77103 0.83119
vt 0.86852 0.89923
vt 0.92771 0.83355
vt 0.93456 0.8589
vt 0.77806 0.89432
vt 0.78921 0.90707
vt 0.94423 0.83708
vt 0.90907 0.81863
vt 0.93882 0.81354
vt 0.93203 0.89092
vt 0.89433 0.91103
vt 0.94477 0.86182
vt 0.76296 0.86849
vt 0.74441 0.89201
vt 0.92695 0.79129
vt 0.82479 0.91304
vt 0.85006 0.92864
vt 0.86227 0.78136
vt 0.76329 0.91995
vt 0.90124 0.78653
vt 0.80273 0.93367
vt 0.91025 0.90869
vt 0.89275 0.92236
vt 0.74497 0.86148
vt 0.86807 0.92912
vt 0.96738 0.81234
g Group24172
f 716/1 11/2 463/3
f 13/4 690/5 14/6
f 14/6 15/7 13/4
f 14/8 18/9 19/10
f 14/8 19/10 16/11
f 18/12 14/13 16/11
f 18/12 16/11 19/10
f 18/14 15/15 20/16
f 18/14 20/16 19/17
f 15/15 18/14 19/17
f 15/15 19/17 20/16
f 15/7 14/6 690/5
f 13/4 15/7 28/18
f 556/19 644/20 702/21
f 15/7 23/22 28/18
f 15/23 23/24 24/25
f 15/23 24/25 22/26
f 23/27 15/28 22/26
f 23/27 22/26 24/25
f 25/29 15/7 690/5
f 15/7 25/29 23/30
f 23/22 25/29 28/18
f 23/31 25/32 26/33
f 23/31 26/33 24/34
f 25/35 23/36 24/34
f 25/35 24/34 26/33
f 690/5 28/18 25/29
f 25/37 29/38 30/39
f 25/37 30/39 26/40
f 29/41 25/42 26/43
f 29/41 26/43 30/44
f 31/45 30/46 26/47
f 31/45 26/47 30/48
f 29/49 28/50 32/51
f 29/49 32/51 30/52
f 28/50 29/49 30/53
f 28/50 30/53 32/54
f 30/55 32/56 33/57
f 30/55 33/57 31/58
f 32/59 30/60 31/58
f 32/59 31/58 33/57
f 32/61 28/62 37/63
f 32/61 37/63 33/64
f 28/65 32/66 33/64
f 28/65 33/64 37/63
f 66/67 772/68 42/69
f 28/18 36/70 44/71
f 28/72 36/73 39/74
f 28/72 39/74 37/75
f 36/76 28/77 37/75
f 36/76 37/75 39/74
f 41/78 38/79 35/80
f 36/81 44/82 45/83
f 36/81 45/83 39/84
f 44/85 36/86 39/84
f 44/85 39/84 45/83
f 41/78 40/87 38/79
f 38/79 40/88 35/80
f 36/89 46/90 44/91
f 44/92 46/93 47/94
f 44/92 47/94 45/95
f 46/96 44/97 45/95
f 46/96 45/95 47/94
f 36/89 51/98 46/90
f 46/99 51/100 44/71
f 46/101 51/102 52/103
f 46/101 52/103 47/104
f 51/105 46/106 47/104
f 51/105 47/104 52/103
f 40/107 59/108 57/109
f 40/107 57/109 58/110
f 40/107 58/111 59/108
f 35/112 61/113 60/114
f 62/115 61/116 35/117
f 62/115 35/117 50/118
f 50/119 772/68 66/67
f 50/119 66/67 62/120
f 61/121 62/122 50/123
f 61/121 50/123 35/124
f 772/68 50/119 62/125
f 36/89 70/126 51/98
f 44/127 63/128 70/126
f 51/98 70/126 52/129
f 51/100 52/129 44/71
f 59/130 58/110 57/109
f 67/131 59/132 60/133
f 67/131 60/133 68/133
f 69/134 35/112 60/114
f 61/113 68/135 60/114
f 61/136 62/120 66/67
f 69/134 61/137 35/112
f 61/136 772/68 62/125
f 36/89 79/138 63/128
f 70/126 63/128 79/138
f 72/139 66/139 73/139
f 66/67 59/132 73/140
f 67/131 73/140 59/132
f 60/141 74/142 73/143
f 75/144 66/67 68/145
f 68/135 61/113 69/146
f 68/135 69/146 60/114
f 68/147 60/148 74/149
f 60/133 59/132 74/142
f 61/136 66/67 75/144
f 52/129 70/126 79/138
f 76/139 66/139 72/139
f 76/139 72/139 73/139
f 76/139 73/139 66/139
f 66/67 73/143 74/142
f 66/67 74/142 67/150
f 75/144 67/150 74/142
f 77/151 61/136 75/144
f 77/151 75/144 74/142
f 61/136 77/151 772/68
f 77/151 59/132 66/67
f 74/142 59/132 77/151
f 79/138 690/5 751/152
f 777/153 11/2 766/154
f 777/153 92/155 11/2
f 83/156 85/157 86/158
f 85/159 83/160 90/161
f 88/162 87/162 83/162
f 777/153 89/163 87/164
f 89/162 83/162 87/162
f 88/162 83/162 89/162
f 83/160 88/165 90/161
f 85/159 90/161 89/163
f 85/157 88/166 86/158
f 88/166 95/167 86/158
f 92/155 777/153 87/164
f 89/163 92/155 87/164
f 89/162 87/162 88/162
f 90/161 92/155 89/163
f 88/168 83/156 93/169
f 110/170 88/166 766/171
f 88/172 93/173 94/174
f 88/172 94/174 95/175
f 93/176 94/177 96/178
f 93/176 96/178 94/179
f 94/174 93/173 95/175
f 110/180 96/181 88/165
f 93/173 97/182 95/175
f 96/181 95/175 97/182
f 90/161 88/165 96/181
f 90/161 96/181 97/182
f 96/183 120/184 95/167
f 101/185 100/186 98/187
f 101/185 98/187 90/188
f 105/189 101/190 90/161
f 105/189 90/161 97/182
f 100/186 101/191 90/192
f 100/186 90/192 98/187
f 90/161 101/193 92/155
f 79/138 102/194 52/129
f 52/195 102/196 103/197
f 52/195 103/197 99/198
f 102/199 52/200 99/198
f 102/199 99/198 103/197
f 105/201 104/202 100/203
f 105/201 100/203 101/204
f 104/202 105/201 101/205
f 104/202 101/205 100/203
f 101/193 105/189 121/206
f 101/193 121/206 92/155
f 52/207 102/208 111/209
f 102/194 79/138 103/210
f 102/208 103/211 111/209
f 97/182 106/212 105/189
f 96/181 110/180 106/213
f 79/138 111/214 103/210
f 93/215 107/216 97/217
f 107/218 120/184 96/183
f 97/182 107/219 106/212
f 108/220 105/189 109/221
f 119/222 110/170 766/171
f 121/206 105/189 108/220
f 121/206 108/220 109/223
f 111/209 114/224 52/207
f 106/225 107/218 96/183
f 113/226 112/227 108/228
f 113/226 108/228 109/229
f 105/189 113/230 109/221
f 112/227 113/231 109/232
f 112/227 109/232 108/228
f 109/223 113/233 121/206
f 107/216 93/215 117/234
f 117/235 106/212 110/236
f 117/235 110/236 107/237
f 116/238 115/239 112/240
f 116/238 112/240 113/241
f 105/189 116/242 113/230
f 105/189 106/212 117/235
f 115/239 116/243 113/244
f 115/239 113/244 112/240
f 113/233 116/242 121/206
f 148/245 92/155 121/206
f 756/246 119/222 766/171
f 119/247 107/237 110/236
f 117/234 93/215 119/248
f 107/237 119/247 120/249
f 117/235 116/242 105/189
f 121/206 116/242 148/245
f 116/242 117/235 148/245
f 148/245 117/235 119/250
f 134/251 120/252 93/215
f 93/215 122/253 119/248
f 148/245 119/250 122/254
f 134/251 122/255 120/252
f 111/209 129/256 114/224
f 122/254 124/257 148/245
f 132/258 125/259 111/260
f 111/209 128/261 129/256
f 114/262 125/259 128/261
f 127/263 126/264 123/265
f 126/266 127/267 273/268
f 273/268 127/267 143/269
f 128/261 125/259 132/258
f 130/270 123/265 126/264
f 131/271 130/272 126/273
f 131/271 126/273 127/274
f 131/275 127/263 139/276
f 130/270 273/268 123/265
f 130/270 126/266 273/268
f 130/277 131/278 127/279
f 130/277 127/279 126/280
f 127/267 131/281 143/269
f 134/251 124/282 122/255
f 132/258 138/283 128/261
f 128/261 138/283 129/256
f 135/284 129/256 138/283
f 130/285 131/275 139/276
f 124/282 145/286 120/184
f 134/251 137/287 124/282
f 145/286 140/288 134/251
f 134/251 141/289 137/287
f 136/290 140/288 141/289
f 145/286 136/291 137/287
f 145/286 141/289 140/288
f 145/286 137/287 141/289
f 138/283 144/292 146/293
f 138/283 146/293 135/284
f 135/294 132/258 144/292
f 147/295 144/292 132/258
f 147/295 146/293 144/292
f 146/293 147/295 135/284
f 756/296 124/297 119/298
f 151/299 148/300 124/297
f 514/301 179/302 670/303
f 208/304 402/305 604/306
f 626/307 197/308 262/309
f 459/310 334/311 664/312
f 282/313 3/314 478/315
f 659/316 539/317 523/318
f 256/319 702/320 587/321
f 604/306 9/322 528/323
f 44/71 405/324 463/3
f 599/325 714/326 239/327
f 397/328 686/329 599/325
f 513/330 151/299 681/331
f 681/331 151/299 756/296
f 123/265 273/268 84/332
f 139/276 123/265 84/332
f 127/263 123/265 139/276
f 545/333 262/309 227/334
f 498/335 673/336 611/337
f 305/338 661/339 662/340
f 256/319 447/341 702/320
f 447/341 256/319 662/340
f 351/342 484/343 459/310
f 593/344 179/302 282/313
f 179/302 514/301 512/345
f 134/251 759/346 145/286
f 503/347 447/341 331/348
f 447/341 503/347 702/320
f 659/316 523/318 498/335
f 420/349 662/340 661/339
f 662/340 256/319 587/321
f 262/309 208/304 528/323
f 686/329 301/350 599/325
f 545/333 361/351 262/309
f 556/19 664/312 551/352
f 1/353 644/20 610/354
f 714/326 562/355 203/356
f 162/357 351/342 459/310
f 405/324 402/305 463/3
f 602/358 604/306 411/359
f 539/317 220/360 334/311
f 1/353 610/354 556/19
f 610/354 644/20 556/19
f 523/318 539/317 369/361
f 664/312 334/311 551/352
f 551/352 334/311 220/360
f 136/291 145/286 124/282
f 124/282 137/287 136/291
f 227/334 262/309 414/362
f 633/363 282/313 727/364
f 379/365 512/345 727/364
f 640/366 282/313 745/367
f 282/313 640/366 3/314
f 644/20 1/353 42/69
f 351/342 624/368 484/343
f 3/314 640/366 1/353
f 397/328 599/325 147/295
f 331/348 662/340 420/349
f 84/332 587/321 77/369
f 84/332 143/269 587/321
f 634/370 661/339 422/371
f 634/370 420/349 661/339
f 739/372 752/373 664/312
f 752/373 134/374 93/169
f 397/328 313/375 686/329
f 626/307 188/376 498/335
f 163/377 313/375 681/331
f 163/377 746/378 285/379
f 553/380 52/129 674/381
f 752/373 739/372 134/374
f 702/21 644/20 42/69
f 624/368 351/342 420/349
f 9/322 414/362 262/309
f 659/316 498/335 611/337
f 79/138 751/152 111/214
f 751/382 132/258 111/260
f 702/320 77/369 587/321
f 188/376 626/307 361/351
f 282/313 179/302 379/365
f 323/383 463/3 402/305
f 188/376 484/384 673/336
f 331/348 447/341 662/340
f 759/346 469/385 145/286
f 602/358 9/322 604/306
f 756/296 151/299 124/297
f 163/377 285/379 301/350
f 587/321 143/269 305/338
f 662/340 587/321 305/338
f 673/336 593/344 611/337
f 735/386 179/302 593/344
f 145/286 459/310 664/312
f 262/309 197/308 208/304
f 11/2 690/5 13/4
f 13/4 44/71 463/3
f 420/349 351/342 162/357
f 681/331 746/378 163/377
f 208/304 369/361 323/383
f 664/312 556/19 739/372
f 179/302 512/345 379/365
f 252/387 3/314 220/360
f 718/388 716/1 323/383
f 551/352 3/314 1/353
f 1/353 556/19 551/352
f 498/335 197/308 626/307
f 66/389 84/332 77/369
f 436/390 640/366 745/367
f 634/370 422/371 749/391
f 633/363 745/367 282/313
f 640/366 436/390 754/392
f 539/317 334/311 718/388
f 361/351 714/326 285/379
f 42/69 754/392 66/67
f 702/21 739/372 556/19
f 756/393 766/154 11/2
f 361/351 562/355 714/326
f 252/387 478/315 3/314
f 420/349 634/370 514/394
f 402/305 208/304 323/383
f 197/308 523/318 369/361
f 197/308 498/335 523/318
f 739/372 702/21 134/374
f 282/313 478/315 611/337
f 397/328 513/330 313/375
f 389/395 114/224 425/396
f 148/245 751/152 690/5
f 640/366 754/392 42/69
f 484/384 670/303 735/386
f 735/386 593/344 673/336
f 484/384 735/386 673/336
f 663/397 405/324 270/398
f 459/310 756/393 334/311
f 626/307 262/309 361/351
f 301/350 285/379 714/326
f 331/348 420/349 162/357
f 759/346 503/347 469/385
f 599/325 301/350 714/326
f 478/315 252/387 659/316
f 714/326 203/356 239/327
f 469/385 162/357 145/286
f 624/399 670/303 484/384
f 624/368 420/349 670/400
f 545/333 562/355 361/351
f 405/324 44/71 270/398
f 611/337 478/315 659/316
f 469/385 503/347 331/348
f 640/366 42/69 1/353
f 670/303 179/302 735/386
f 674/401 52/207 389/395
f 425/396 599/325 239/327
f 425/396 114/224 599/325
f 285/379 746/378 459/402
f 752/373 93/169 83/156
f 313/375 301/350 686/329
f 83/156 86/158 752/373
f 301/350 313/375 163/377
f 11/2 716/1 718/388
f 746/378 681/331 756/296
f 746/403 756/393 459/310
f 402/305 405/324 663/397
f 147/295 132/258 513/330
f 553/380 44/71 52/129
f 334/311 11/2 718/388
f 528/323 9/322 262/309
f 273/268 143/269 84/332
f 663/397 411/359 402/305
f 282/313 611/337 593/344
f 463/3 11/2 13/4
f 484/384 188/376 459/402
f 323/383 716/1 463/3
f 513/330 132/258 151/299
f 539/317 252/387 220/360
f 539/317 718/388 369/361
f 331/348 162/357 469/385
f 562/355 545/333 594/404
f 203/356 562/355 594/404
f 188/376 285/379 459/402
f 402/305 411/359 604/306
f 145/286 162/357 459/310
f 28/18 44/71 13/4
f 151/299 132/258 148/300
f 132/258 751/382 148/300
f 188/376 673/336 498/335
f 252/387 539/317 659/316
f 702/21 772/68 77/151
f 42/69 772/68 702/21
f 147/295 513/330 397/328
f 334/311 756/393 11/2
f 420/349 514/394 670/400
f 11/2 92/155 690/5
f 92/155 148/245 690/5
f 313/375 513/330 681/331
f 135/284 114/224 129/256
f 147/295 114/224 135/284
f 95/167 120/184 86/158
f 120/184 145/286 664/312
f 369/361 718/388 323/383
f 690/5 36/89 28/18
f 79/138 36/89 690/5
f 766/171 88/166 85/157
f 147/295 599/325 114/224
f 369/361 208/304 197/308
f 528/323 208/304 604/306
f 379/365 727/364 282/313
f 285/379 188/376 361/351
f 119/298 124/297 120/405
f 422/371 661/339 305/338
f 270/398 44/71 553/380
f 3/314 551/352 220/360
f 86/158 664/312 752/373
f 86/158 120/184 664/312
f 777/153 85/159 89/163
f 85/159 777/153 766/154
f 702/320 759/346 134/251
f 702/320 503/347 759/346
f 130/285 143/269 131/281
f 389/395 52/207 114/224
f 712/406 621/407 191/408
f 10/409 2/410 4/411
f 6/412 284/413 4/411
f 284/413 7/414 4/411
f 10/409 284/413 2/410
f 5/415 10/409 4/411
f 5/415 4/411 7/414
f 10/409 5/415 6/416
f 7/414 10/409 6/416
f 10/409 7/414 284/413
f 354/417 281/418 258/419
f 54/420 53/421 55/422
f 53/421 48/423 482/424
f 53/421 482/424 55/422
f 482/425 54/426 625/427
f 482/425 625/427 55/428
f 48/423 55/429 625/430
f 615/431 775/432 71/433
f 133/434 91/435 71/433
f 133/436 775/432 615/431
f 741/437 150/438 91/435
f 481/439 133/434 71/433
f 750/440 149/441 615/431
f 271/442 339/443 563/444
f 158/445 510/446 150/438
f 155/447 157/448 158/449
f 563/444 437/450 519/451
f 377/452 295/453 629/454
f 235/455 693/456 733/457
f 384/458 356/459 605/460
f 720/461 384/458 318/462
f 377/452 353/463 470/464
f 424/465 391/466 299/467
f 167/468 302/469 412/470
f 316/471 525/472 584/473
f 572/474 525/472 689/475
f 434/476 442/477 396/478
f 487/479 295/480 377/481
f 91/435 635/482 357/483
f 481/439 71/433 200/484
f 275/485 204/486 153/487
f 48/423 204/486 423/488
f 309/489 426/490 776/491
f 4/411 2/410 636/492
f 357/483 441/493 540/494
f 448/495 504/496 680/497
f 386/498 500/499 462/500
f 627/501 370/502 245/503
f 628/504 243/505 748/506
f 712/406 191/408 504/496
f 245/503 516/507 172/508
f 520/509 516/507 370/502
f 773/510 368/511 508/512
f 311/513 178/514 196/515
f 391/466 424/465 230/516
f 646/517 254/518 198/519
f 254/518 152/520 318/462
f 629/454 511/521 233/522
f 547/523 729/524 34/525
f 685/526 591/527 287/528
f 665/529 753/530 352/531
f 642/532 547/523 34/525
f 642/532 509/533 547/523
f 557/534 487/479 543/535
f 299/467 332/536 508/512
f 302/469 178/514 412/470
f 230/537 289/538 176/539
f 292/540 311/513 559/541
f 311/513 665/529 352/531
f 493/542 234/543 584/473
f 481/544 608/545 473/546
f 358/547 398/548 571/549
f 571/550 381/551 358/552
f 372/553 621/407 712/406
f 720/461 356/459 384/458
f 352/531 596/554 311/513
f 470/464 357/483 540/494
f 628/504 355/555 243/505
f 628/504 372/553 355/555
f 372/553 628/504 54/426
f 217/556 289/538 605/460
f 2/410 574/557 636/492
f 142/558 487/479 377/481
f 519/451 381/551 571/550
f 330/559 494/560 403/561
f 605/460 198/519 384/458
f 500/499 386/498 233/522
f 680/497 332/536 391/466
f 448/495 597/562 444/563
f 444/563 597/562 434/476
f 157/448 156/564 403/561
f 519/451 403/561 156/564
f 178/514 311/513 412/470
f 494/560 330/559 550/565
f 299/467 568/566 424/465
f 158/449 693/456 235/455
f 434/476 230/516 176/567
f 434/476 176/567 442/477
f 455/568 180/569 493/542
f 185/570 550/565 437/450
f 441/493 635/482 627/501
f 571/549 442/477 176/567
f 281/418 444/563 258/419
f 448/495 444/563 261/571
f 198/519 530/572 646/517
f 249/573 522/574 530/572
f 525/472 173/575 360/576
f 153/487 204/486 48/423
f 691/577 2/410 54/426
f 225/578 719/579 729/580
f 371/581 719/579 225/578
f 483/582 332/536 191/408
f 332/536 483/582 508/512
f 142/558 650/583 487/479
f 455/568 493/542 318/462
f 720/461 318/462 493/542
f 346/584 720/461 493/542
f 720/461 346/584 360/576
f 133/585 497/586 200/587
f 178/514 500/499 196/515
f 267/588 525/472 316/471
f 510/446 158/445 235/589
f 245/503 370/502 516/507
f 510/446 235/589 516/507
f 275/485 666/590 728/591
f 753/530 518/592 352/531
f 290/593 352/531 518/592
f 482/424 48/423 423/488
f 452/594 530/572 198/519
f 249/573 530/572 452/594
f 522/574 536/595 254/518
f 34/525 729/524 773/510
f 729/580 293/596 225/578
f 550/565 185/570 494/560
f 511/521 295/453 557/597
f 609/598 71/433 558/599
f 311/513 196/515 559/541
f 196/515 244/600 559/541
f 173/575 185/570 703/601
f 173/575 525/472 572/474
f 574/557 691/577 376/602
f 584/473 525/472 360/576
f 318/462 152/520 455/568
f 482/424 423/488 592/603
f 353/463 357/483 470/464
f 613/604 267/588 316/471
f 689/475 613/604 596/554
f 341/605 54/426 284/413
f 54/426 2/410 284/413
f 613/604 316/471 584/473
f 384/458 198/519 318/462
f 244/600 678/606 194/607
f 185/570 437/450 703/601
f 34/525 508/512 621/407
f 621/407 508/512 483/582
f 628/504 748/506 630/608
f 310/609 625/427 628/504
f 630/608 310/609 628/504
f 642/532 284/413 743/610
f 642/532 743/610 639/611
f 509/533 642/532 639/611
f 648/612 218/613 592/614
f 442/477 398/548 396/478
f 510/446 520/509 175/615
f 516/507 235/589 172/508
f 271/442 519/451 571/550
f 234/543 243/505 261/571
f 584/473 234/543 281/418
f 519/451 437/450 330/559
f 704/616 292/540 517/617
f 158/449 157/448 693/456
f 209/618 665/529 286/619
f 286/619 665/529 704/616
f 275/485 153/487 666/590
f 34/525 773/510 508/512
f 511/521 721/620 333/621
f 235/455 733/457 172/622
f 678/606 233/522 333/621
f 519/451 156/564 381/551
f 753/530 497/586 518/592
f 628/504 625/427 54/426
f 481/544 142/558 377/481
f 377/481 608/545 481/544
f 12/623 685/526 287/528
f 685/526 12/623 561/624
f 630/625 317/626 180/569
f 317/626 630/608 748/506
f 685/526 302/469 591/527
f 330/559 403/561 519/451
f 353/463 91/435 357/483
f 511/521 333/621 233/522
f 216/627 540/494 441/493
f 358/547 12/623 398/548
f 396/478 398/548 287/528
f 665/529 209/618 753/530
f 699/628 620/629 260/630
f 353/463 629/454 561/624
f 377/452 629/454 353/463
f 444/563 434/476 707/631
f 423/488 620/629 709/632
f 744/633 142/634 481/439
f 216/627 627/501 297/635
f 355/555 712/406 504/496
f 372/553 712/406 355/555
f 713/636 650/583 300/637
f 540/494 542/638 470/464
f 540/494 195/639 542/638
f 704/616 665/529 292/540
f 360/576 346/584 493/542
f 504/496 261/571 243/505
f 356/459 217/556 605/460
f 12/623 358/547 558/599
f 437/450 217/556 703/601
f 254/518 536/595 729/580
f 596/554 613/604 412/470
f 728/591 254/518 729/580
f 728/591 729/580 719/579
f 608/640 542/638 534/641
f 731/642 694/643 671/644
f 540/494 694/643 731/642
f 629/454 386/498 561/624
f 591/527 258/419 287/528
f 729/580 536/595 773/645
f 470/464 608/640 377/452
f 615/646 741/437 91/435
f 741/437 755/647 150/438
f 568/648 249/573 424/649
f 149/650 741/437 615/646
f 642/532 372/553 341/605
f 741/651 149/441 750/440
f 627/501 245/503 297/635
f 295/453 511/521 629/454
f 568/648 368/652 249/573
f 437/450 563/444 217/556
f 339/443 271/442 571/550
f 540/494 731/642 195/639
f 744/633 481/439 200/484
f 371/581 579/653 260/630
f 358/547 381/654 609/598
f 309/489 650/583 142/558
f 173/575 356/459 360/576
f 720/461 360/576 356/459
f 412/470 613/604 167/468
f 258/419 591/527 354/417
f 592/603 423/488 709/632
f 455/568 310/655 180/569
f 310/655 455/568 625/430
f 254/518 728/591 666/590
f 185/570 572/474 689/475
f 563/444 519/451 271/442
f 157/448 403/561 497/586
f 204/486 260/630 423/488
f 244/600 390/656 559/541
f 613/604 354/417 167/468
f 629/454 233/522 386/498
f 504/496 191/408 680/497
f 414/657 594/658 227/659
f 452/594 605/460 424/649
f 249/573 452/594 424/649
f 561/624 71/433 353/463
f 264/660 613/604 689/475
f 302/469 685/526 462/500
f 391/466 448/495 680/497
f 594/658 545/661 227/659
f 753/530 209/618 426/490
f 753/530 426/490 309/489
f 693/456 133/585 473/546
f 180/569 317/626 493/542
f 156/564 155/662 755/663
f 155/662 778/664 755/663
f 728/591 204/486 275/485
f 728/591 719/579 204/486
f 778/665 158/445 150/438
f 778/665 150/438 755/647
f 71/433 91/435 353/463
f 176/539 289/538 339/443
f 693/456 430/666 733/457
f 497/586 753/530 309/489
f 175/615 370/502 627/501
f 333/621 194/607 678/606
f 264/660 267/588 613/604
f 563/444 339/443 289/538
f 540/494 216/627 694/643
f 309/489 171/667 770/668
f 178/514 462/500 500/499
f 178/514 302/469 462/500
f 621/407 642/532 34/525
f 500/499 233/522 678/606
f 770/668 171/667 768/669
f 290/593 596/554 352/531
f 290/593 689/475 596/554
f 309/489 744/670 497/586
f 534/671 473/546 608/545
f 293/672 729/524 547/523
f 482/425 592/614 691/577
f 517/617 292/540 390/656
f 354/417 591/527 167/468
f 572/474 185/570 173/575
f 522/574 646/517 530/572
f 525/472 267/588 264/660
f 2/410 691/577 574/557
f 455/568 666/590 153/487
f 493/542 317/626 234/543
f 678/606 196/515 500/499
f 156/564 755/663 750/673
f 750/673 381/551 156/564
f 175/615 520/509 370/502
f 292/540 559/541 390/656
f 744/670 309/489 142/558
f 481/544 473/546 133/585
f 299/467 368/511 568/566
f 755/674 741/651 750/440
f 260/630 620/629 423/488
f 261/571 281/418 234/543
f 625/430 455/568 48/423
f 650/583 713/636 487/479
f 175/615 635/482 91/435
f 389/675 553/676 674/677
f 426/490 209/618 710/678
f 209/618 286/619 710/678
f 180/569 310/655 630/625
f 768/669 171/667 769/679
f 309/489 776/491 171/667
f 529/680 770/668 768/669
f 455/568 153/487 48/423
f 765/681 770/668 771/682
f 650/583 770/668 765/681
f 309/489 770/668 650/583
f 452/594 198/519 605/460
f 299/467 508/512 368/511
f 341/605 284/413 642/532
f 689/475 290/593 494/560
f 687/683 721/620 511/521
f 693/456 473/546 430/666
f 150/438 510/446 175/615
f 150/438 175/615 91/435
f 561/624 12/623 558/599
f 497/586 133/585 157/448
f 743/610 284/413 742/684
f 430/666 473/546 669/685
f 608/640 470/464 542/638
f 195/639 534/641 542/638
f 260/630 719/579 371/581
f 448/495 261/571 504/496
f 358/547 609/598 558/599
f 592/603 709/632 648/686
f 516/507 520/509 510/446
f 646/517 522/574 254/518
f 191/408 332/536 680/497
f 497/586 744/670 200/587
f 54/426 341/605 372/553
f 703/601 356/459 173/575
f 398/548 12/623 287/528
f 750/440 615/431 609/598
f 685/526 561/624 462/500
f 525/472 264/660 689/475
f 579/653 699/628 260/630
f 609/598 381/654 750/440
f 774/687 769/679 171/667
f 621/407 372/553 642/532
f 547/523 509/533 632/688
f 620/629 699/628 709/632
f 767/689 770/668 529/680
f 597/562 391/466 230/516
f 699/628 708/690 709/632
f 71/433 561/624 558/599
f 678/606 244/600 196/515
f 357/483 635/482 441/493
f 775/432 200/484 71/433
f 770/668 767/689 771/682
f 152/520 666/590 455/568
f 487/479 557/534 295/480
f 605/460 289/538 424/649
f 175/615 627/501 635/482
f 133/434 615/646 91/435
f 330/559 437/450 550/565
f 133/436 200/484 775/432
f 448/495 391/466 597/562
f 669/685 473/546 534/671
f 403/561 494/560 290/593
f 368/652 522/574 249/573
f 289/538 230/537 424/649
f 584/473 360/576 493/542
f 703/601 217/556 356/459
f 615/431 71/433 609/598
f 311/513 596/554 412/470
f 536/595 368/652 773/645
f 742/684 4/411 213/691
f 742/684 6/412 4/411
f 6/412 742/684 284/413
f 707/631 396/478 287/528
f 584/473 281/418 354/417
f 444/563 707/631 258/419
f 217/556 563/444 289/538
f 254/518 666/590 152/520
f 218/613 376/602 592/614
f 504/496 243/505 355/555
f 176/539 339/443 571/550
f 497/586 403/561 290/593
f 290/593 518/592 497/586
f 621/407 483/582 191/408
f 442/477 571/549 398/548
f 767/689 765/681 771/682
f 230/516 434/476 597/562
f 157/448 133/585 693/456
f 396/478 707/631 434/476
f 299/467 391/466 332/536
f 522/574 368/652 536/595
f 234/543 317/626 243/505
f 317/626 748/506 243/505
f 776/491 760/692 171/667
f 592/614 376/602 691/577
f 185/570 689/475 494/560
f 632/688 293/672 547/523
f 354/417 613/604 584/473
f 462/500 561/624 386/498
f 302/469 167/468 591/527
f 204/486 719/579 260/630
f 261/571 444/563 281/418
f 155/662 156/564 778/664
f 156/693 158/445 778/665
f 254/518 318/462 198/519
f 665/529 311/513 292/540
f 225/578 617/694 371/581
f 258/419 707/631 287/528
f 216/627 441/493 627/501
f 482/425 691/577 54/426
f 457/695 298/696 17/697
f 364/698 419/699 581/700
f 21/701 17/697 78/702
f 730/703 329/704 322/705
f 715/706 21/707 27/708
f 688/709 193/710 618/711
f 80/712 457/695 21/701
f 761/713 499/714 440/715
f 170/716 169/717 222/718
f 259/719 181/720 165/721
f 653/722 491/723 259/719
f 433/724 259/719 165/721
f 170/716 492/725 169/717
f 324/726 300/727 206/728
f 324/726 552/729 280/730
f 161/731 247/732 589/733
f 193/710 268/734 291/735
f 546/736 583/737 324/726
f 349/738 428/739 307/740
f 215/741 174/742 684/743
f 244/744 194/745 219/746
f 407/747 350/748 212/749
f 226/750 362/751 567/752
f 684/743 762/753 215/741
f 433/724 657/754 533/755
f 491/723 165/721 181/720
f 730/703 322/705 393/756
f 236/757 363/758 496/759
f 241/760 413/761 537/762
f 161/731 278/763 706/764
f 565/765 307/740 428/739
f 649/766 320/767 250/768
f 263/769 409/770 573/771
f 169/717 492/725 567/752
f 327/772 169/717 763/773
f 266/774 598/775 515/776
f 228/777 476/778 266/774
f 169/717 567/752 763/773
f 723/779 705/780 269/781
f 219/746 246/782 643/783
f 344/784 471/785 521/786
f 486/787 283/788 524/789
f 276/790 533/755 524/789
f 206/728 426/791 385/792
f 205/793 221/794 603/795
f 410/796 241/760 537/762
f 511/797 557/798 573/771
f 457/695 531/799 298/696
f 224/800 298/696 677/801
f 307/740 565/765 489/802
f 340/803 312/804 458/805
f 479/806 458/805 683/807
f 240/808 363/758 237/809
f 600/810 184/811 365/812
f 515/776 350/748 266/774
f 679/813 684/743 174/742
f 676/814 278/763 471/785
f 738/815 697/816 506/817
f 466/818 348/819 606/820
f 515/776 327/772 350/748
f 164/821 453/822 388/823
f 737/824 192/825 762/753
f 326/826 364/698 695/827
f 419/699 577/828 231/829
f 17/697 577/828 80/712
f 374/830 255/831 241/760
f 374/830 241/760 554/832
f 375/833 224/800 581/700
f 255/831 374/830 382/834
f 168/835 454/836 387/837
f 387/837 451/838 168/835
f 388/823 312/804 492/725
f 320/767 649/766 390/839
f 649/766 159/840 517/841
f 322/705 363/758 393/756
f 283/788 236/757 228/777
f 392/842 541/843 538/844
f 154/845 319/846 268/734
f 78/847 715/848 575/849
f 219/746 409/770 246/782
f 431/850 247/851 336/852
f 246/782 349/738 645/853
f 421/854 212/749 350/748
f 276/790 544/855 439/856
f 276/790 433/724 533/755
f 623/857 544/855 276/790
f 475/858 507/859 445/860
f 308/861 365/812 449/862
f 654/863 449/862 365/812
f 458/805 308/861 449/862
f 453/822 308/861 458/805
f 453/822 458/805 312/804
f 566/864 460/865 242/866
f 242/866 161/731 374/830
f 348/819 466/818 564/867
f 472/868 607/869 606/820
f 348/819 477/870 472/868
f 359/871 598/775 476/778
f 240/808 359/871 476/778
f 667/872 375/833 17/697
f 413/761 241/760 480/873
f 491/723 181/720 259/719
f 491/723 672/874 489/802
f 388/823 492/725 170/716
f 552/729 502/875 428/739
f 428/739 502/875 363/758
f 407/747 266/774 350/748
f 320/876 390/877 219/746
f 304/878 466/818 555/879
f 164/821 388/823 170/716
f 194/745 573/771 409/770
f 454/836 637/880 366/881
f 637/880 160/882 366/881
f 515/776 164/821 222/718
f 515/776 222/718 327/772
f 184/811 324/726 206/728
f 460/865 344/784 521/786
f 228/777 407/747 524/789
f 283/788 228/777 524/789
f 206/728 529/883 760/884
f 533/755 486/787 524/789
f 601/885 395/886 166/887
f 118/888 221/794 537/762
f 541/843 544/855 535/889
f 546/736 557/798 543/890
f 385/792 426/791 286/891
f 548/892 541/843 392/842
f 475/858 736/893 392/842
f 182/894 711/895 326/826
f 736/893 445/860 259/719
f 263/769 552/729 428/739
f 246/782 416/896 428/739
f 647/897 255/831 382/834
f 475/858 343/898 507/859
f 475/858 291/899 343/898
f 764/900 570/901 468/902
f 161/731 382/834 374/830
f 564/867 306/903 190/904
f 269/781 566/864 242/866
f 537/762 413/761 118/888
f 499/905 408/906 575/849
f 393/756 236/757 283/788
f 419/699 364/698 711/895
f 554/832 410/796 366/881
f 575/849 570/901 78/847
f 215/741 192/825 362/751
f 645/853 349/738 668/907
f 577/828 419/699 373/908
f 340/803 700/909 418/910
f 713/911 300/727 583/737
f 154/845 268/734 400/912
f 400/912 268/734 193/710
f 319/846 698/913 268/734
f 288/914 221/794 205/793
f 161/731 589/733 187/915
f 595/916 555/879 466/818
f 515/776 598/775 164/821
f 601/885 166/887 210/917
f 395/886 601/885 210/917
f 606/820 607/869 440/715
f 161/731 706/764 247/732
f 451/838 212/749 421/854
f 638/918 337/919 451/838
f 337/919 212/749 451/838
f 471/785 408/906 499/905
f 468/902 622/920 619/921
f 619/921 622/920 618/711
f 618/711 622/920 688/709
f 337/919 623/857 212/749
f 205/793 603/795 8/922
f 387/837 638/918 451/838
f 736/893 439/856 548/892
f 581/700 231/829 375/833
f 581/700 419/699 231/829
f 246/782 645/853 643/783
f 767/923 529/883 765/924
f 600/810 365/812 237/809
f 549/925 445/860 653/722
f 653/722 445/860 655/926
f 655/926 445/860 507/859
f 655/926 214/927 653/722
f 439/856 541/843 548/892
f 489/802 565/765 491/723
f 395/886 535/889 166/887
f 395/886 541/843 535/889
f 763/773 567/752 507/928
f 653/722 259/719 549/925
f 445/860 549/925 259/719
f 349/738 246/782 428/739
f 202/929 577/828 373/908
f 672/874 491/723 653/722
f 717/930 499/714 80/712
f 580/931 336/852 247/851
f 565/765 329/704 303/932
f 190/904 306/903 210/917
f 683/807 458/805 449/862
f 449/862 159/840 683/807
f 214/927 684/933 679/934
f 190/904 279/935 477/870
f 324/726 184/811 600/810
f 324/726 600/810 552/729
f 435/936 606/820 440/715
f 255/831 480/873 241/760
f 480/873 255/831 647/897
f 326/826 695/827 427/937
f 427/937 221/794 118/888
f 695/827 221/794 427/937
f 724/938 676/939 717/930
f 304/878 555/879 697/816
f 78/847 570/901 764/900
f 78/847 764/900 747/940
f 722/941 573/771 194/745
f 241/760 410/796 554/832
f 576/942 495/943 288/914
f 186/944 495/943 576/942
f 580/931 202/929 336/852
f 486/787 303/932 730/703
f 623/857 337/919 166/887
f 544/855 623/857 535/889
f 395/886 210/917 306/903
f 683/807 159/840 250/768
f 683/807 250/768 479/806
f 336/852 202/929 373/908
f 721/945 194/745 333/946
f 390/877 244/744 219/746
f 721/945 722/941 194/745
f 761/713 474/947 387/837
f 554/832 242/866 374/830
f 237/809 363/758 502/875
f 231/829 17/697 375/833
f 740/948 607/869 472/868
f 320/876 219/746 645/853
f 433/724 736/893 259/719
f 320/767 645/949 250/768
f 408/906 616/950 570/901
f 307/740 672/874 679/934
f 730/703 283/788 486/787
f 324/726 583/737 300/727
f 638/918 166/887 337/919
f 638/918 210/917 166/887
f 210/917 279/935 190/904
f 638/918 279/935 210/917
f 732/951 655/952 737/824
f 655/926 732/953 214/927
f 159/840 649/766 250/768
f 711/895 325/954 373/908
f 736/893 548/892 392/842
f 274/955 479/806 250/768
f 700/909 274/955 418/910
f 491/723 657/754 165/721
f 677/801 8/922 224/800
f 667/872 17/697 298/696
f 475/858 738/815 291/899
f 421/854 705/780 723/779
f 546/736 324/726 280/730
f 567/752 492/725 226/750
f 476/778 228/777 236/757
f 236/757 496/759 476/778
f 740/948 43/956 387/837
f 468/902 616/950 688/709
f 159/840 286/891 704/957
f 205/793 8/922 576/942
f 506/958 618/711 193/710
f 193/710 291/735 506/958
f 407/747 623/857 276/790
f 298/696 531/799 677/801
f 730/703 303/932 329/704
f 654/863 385/792 286/891
f 657/754 486/787 533/755
f 747/959 27/708 21/707
f 385/792 654/863 253/960
f 375/833 298/696 224/800
f 654/863 286/891 159/840
f 697/816 738/815 538/844
f 319/846 344/784 566/864
f 499/714 27/708 440/715
f 454/836 366/881 314/961
f 457/695 454/836 531/799
f 479/806 274/955 700/909
f 565/765 303/932 491/723
f 506/817 697/816 555/879
f 577/828 202/929 80/712
f 573/771 557/798 546/736
f 395/886 538/844 541/843
f 645/949 418/910 274/955
f 554/832 366/881 242/866
f 487/962 713/911 583/737
f 43/956 477/870 279/935
f 637/880 421/854 723/779
f 409/770 263/769 246/782
f 487/962 583/737 543/890
f 263/769 416/896 246/782
f 595/916 606/820 435/936
f 435/936 27/708 747/959
f 416/896 263/769 428/739
f 164/821 170/716 222/718
f 202/929 724/938 717/930
f 161/731 187/915 382/834
f 286/891 426/791 757/963
f 710/964 286/891 757/963
f 453/822 240/808 308/861
f 537/762 221/794 288/914
f 760/884 529/883 171/965
f 600/810 237/809 502/875
f 373/908 419/699 711/895
f 538/844 395/886 306/903
f 168/835 421/854 637/880
f 215/741 762/753 192/825
f 474/947 761/713 440/715
f 168/835 637/880 454/836
f 711/895 182/894 325/954
f 319/846 566/864 698/913
f 475/858 445/860 736/893
f 499/714 457/695 80/712
f 340/803 458/805 700/909
f 619/921 764/900 468/902
f 304/878 564/867 466/818
f 616/950 468/902 570/901
f 472/868 477/870 740/948
f 343/966 268/734 763/773
f 763/773 507/928 343/966
f 555/879 619/967 506/817
f 387/837 474/947 740/948
f 278/763 580/968 706/764
f 80/712 78/702 17/697
f 278/763 676/814 724/969
f 595/916 619/967 555/879
f 495/943 314/961 410/796
f 667/872 298/696 375/833
f 240/808 237/809 308/861
f 647/897 382/834 187/915
f 677/801 531/799 8/922
f 350/748 327/772 705/780
f 654/863 159/840 449/862
f 307/740 489/802 672/874
f 269/781 242/866 160/882
f 160/882 242/866 366/881
f 206/728 385/792 253/960
f 583/737 546/736 543/890
f 413/761 480/873 647/897
f 211/970 336/852 373/908
f 226/750 215/741 362/751
f 215/741 492/725 174/742
f 211/970 373/908 325/954
f 276/790 439/856 433/724
f 668/907 349/738 307/740
f 679/934 668/907 307/740
f 435/936 747/959 595/916
f 154/845 408/906 471/785
f 764/971 619/967 595/916
f 764/971 595/916 747/959
f 154/845 471/785 344/784
f 580/968 278/763 724/969
f 393/756 363/758 236/757
f 242/866 278/763 161/731
f 421/854 350/748 705/780
f 454/836 314/961 531/799
f 598/775 359/871 164/821
f 312/804 340/803 174/742
f 687/972 511/797 722/941
f 279/935 387/837 43/956
f 524/789 407/747 276/790
f 768/973 769/974 774/975
f 21/701 457/695 17/697
f 573/771 280/730 263/769
f 546/736 280/730 573/771
f 431/850 336/852 211/970
f 511/797 573/771 722/941
f 165/721 657/754 433/724
f 774/975 529/883 768/973
f 365/812 308/861 237/809
f 688/709 622/920 468/902
f 228/777 266/774 407/747
f 343/966 291/735 268/734
f 705/780 327/772 698/913
f 603/795 221/794 695/827
f 535/889 623/857 166/887
f 715/976 78/702 80/712
f 679/934 653/722 214/927
f 570/901 575/849 408/906
f 676/939 471/977 717/930
f 606/820 348/819 472/868
f 717/930 80/712 202/929
f 695/827 224/800 603/795
f 303/932 486/787 657/754
f 222/718 169/717 327/772
f 304/878 538/844 306/903
f 409/770 219/746 194/745
f 407/747 212/749 623/857
f 616/950 400/912 193/710
f 589/733 247/732 675/978
f 740/948 477/870 43/956
f 206/728 760/884 426/791
f 580/931 724/938 202/929
f 457/695 761/713 454/836
f 224/800 8/922 603/795
f 8/922 186/944 576/942
f 531/799 186/944 8/922
f 192/825 567/752 362/751
f 364/698 326/826 711/895
f 607/869 740/948 474/947
f 312/804 174/742 492/725
f 426/791 710/979 757/963
f 288/914 495/943 410/796
f 575/980 715/706 499/714
f 492/725 215/741 226/750
f 348/819 564/867 190/904
f 253/960 184/811 206/728
f 552/729 263/769 280/730
f 595/916 466/818 606/820
f 765/924 300/727 650/981
f 531/799 314/961 186/944
f 171/965 529/883 774/975
f 776/982 426/791 760/884
f 715/976 80/712 21/701
f 747/940 21/983 78/847
f 688/709 616/950 193/710
f 344/784 460/865 566/864
f 327/772 763/773 268/734
f 654/863 365/812 253/960
f 476/778 598/775 266/774
f 428/739 329/704 565/765
f 410/796 537/762 288/914
f 428/739 363/758 329/704
f 506/817 619/967 618/984
f 303/932 657/754 491/723
f 538/844 738/815 392/842
f 240/808 453/822 359/871
f 453/822 164/821 359/871
f 645/853 668/907 418/985
f 607/869 474/947 440/715
f 460/865 278/763 242/866
f 279/935 638/918 387/837
f 721/945 687/972 722/941
f 154/845 400/912 408/906
f 363/758 240/808 496/759
f 314/961 366/881 410/796
f 304/878 697/816 538/844
f 319/846 154/845 344/784
f 247/851 431/850 675/986
f 453/822 312/804 388/823
f 274/955 250/768 645/949
f 247/732 706/764 580/968
f 705/780 698/913 269/781
f 698/913 566/864 269/781
f 439/856 736/893 433/724
f 186/944 314/961 495/943
f 283/788 730/703 393/756
f 440/715 27/708 435/936
f 700/909 458/805 479/806
f 348/819 190/904 477/870
f 517/841 390/839 649/766
f 552/729 600/810 502/875
f 439/856 544/855 541/843
f 499/714 715/706 27/708
f 160/882 723/779 269/781
f 499/714 761/713 457/695
f 300/727 765/924 206/728
f 765/924 529/883 206/728
f 454/836 761/713 387/837
f 695/827 364/698 224/800
f 184/811 253/960 365/812
f 159/840 704/957 517/841
f 737/824 655/952 507/928
f 679/934 672/874 653/722
f 327/772 268/734 698/913
f 717/930 471/977 499/714
f 460/865 521/786 471/785
f 304/878 306/903 564/867
f 363/758 322/705 329/704
f 205/793 576/942 288/914
f 732/951 762/753 684/743
f 732/953 684/933 214/927
f 637/880 723/779 160/882
f 451/838 421/854 168/835
f 340/803 418/910 668/987
f 643/783 645/853 219/746
f 278/763 460/865 471/785
f 340/803 679/813 174/742
f 737/824 507/928 192/825
f 762/753 732/951 737/824
f 364/698 581/700 224/800
f 291/899 738/815 506/817
f 17/697 231/829 577/828
f 340/803 668/987 679/813
f 192/825 507/928 567/752
f 475/858 392/842 738/815
f 496/759 240/808 476/778
f 400/912 616/950 408/906
f 734/988 406/989 490/990
f 338/991 758/992 532/993
f 56/994 49/995 81/996
f 758/992 49/995 56/997
f 65/998 64/998 49/998
f 65/998 49/998 56/998
f 65/999 56/994 81/996
f 64/998 65/998 56/998
f 64/998 56/998 49/998
f 56/997 65/1000 758/992
f 81/996 758/992 64/1001
f 81/996 64/1001 65/999
f 65/1000 64/1001 758/992
f 294/1002 682/1003 586/1004
f 754/1005 84/1006 66/1007
f 84/1006 758/992 82/1008
f 183/1009 277/1010 328/1011
f 199/1012 383/1013 238/1014
f 430/1015 177/1016 733/1017
f 315/1018 578/1019 633/1020
f 450/1021 658/1022 245/1023
f 207/1024 245/1023 172/1025
f 701/1026 238/1014 443/1027
f 378/1028 432/1029 560/1030
f 586/1031 490/1032 569/1033
f 404/1034 443/1027 238/1014
f 321/1035 277/1010 201/1036
f 745/1037 560/1038 532/993
f 277/1010 588/1039 725/1040
f 394/1041 406/989 527/1042
f 394/1041 183/1009 590/1043
f 245/1023 658/1022 297/1044
f 139/1045 443/1027 143/1046
f 238/1014 315/1018 404/1034
f 512/1047 315/1018 633/1020
f 682/1003 199/1012 81/996
f 526/1048 631/1049 671/1050
f 446/1051 438/1052 527/1042
f 652/1053 758/992 338/991
f 585/1054 682/1003 81/996
f 342/1055 652/1053 560/1038
f 432/1029 342/1056 560/1030
f 560/1030 399/1057 378/1028
f 383/1013 380/1058 651/1059
f 660/1060 450/1021 692/1061
f 296/1062 394/1041 438/1052
f 394/1041 527/1042 438/1052
f 443/1027 404/1034 143/1046
f 490/990 406/989 726/1063
f 590/1043 328/1011 726/1063
f 296/1062 183/1009 394/1041
f 725/1040 467/1064 401/1065
f 232/1066 612/1067 485/1068
f 432/1029 378/1028 272/1069
f 436/1070 745/1037 532/993
f 438/1052 347/1071 296/1062
f 443/1027 82/1008 701/1026
f 207/1024 450/1021 245/1023
f 490/1032 586/1031 485/1068
f 490/1032 612/1067 465/1072
f 417/1073 505/1074 189/1075
f 321/1035 189/1075 505/1074
f 692/1061 207/1024 345/1076
f 446/1051 347/1071 438/1052
f 725/1040 429/1077 467/1064
f 514/1078 634/1079 512/1047
f 467/1064 526/1048 335/1080
f 526/1048 527/1081 335/1080
f 177/1016 669/1082 534/1083
f 631/1049 534/1083 195/1084
f 641/1085 321/1035 501/1086
f 201/1036 232/1066 380/1058
f 485/1068 651/1059 232/1066
f 560/1038 652/1053 338/991
f 328/1011 294/1002 726/1063
f 586/1004 726/1063 294/1002
f 464/1087 315/1018 238/1014
f 578/1019 378/1028 399/1057
f 342/1055 585/1054 81/996
f 682/1003 585/1054 586/1004
f 586/1031 342/1056 432/1029
f 725/1040 588/1039 429/1077
f 406/989 590/1043 726/1063
f 461/1088 294/1002 505/1074
f 294/1002 328/1011 505/1074
f 216/1089 347/1071 446/1051
f 49/995 758/992 652/1053
f 485/1068 586/1031 432/1029
f 651/1059 432/1029 272/1069
f 199/1012 461/1088 383/1013
f 532/993 754/1005 436/1070
f 297/1044 658/1022 347/1071
f 347/1071 658/1022 296/1062
f 660/1060 183/1009 296/1062
f 201/1036 189/1075 321/1035
f 177/1016 430/1015 669/1082
f 671/1090 446/1051 527/1042
f 380/1058 189/1075 201/1036
f 631/1049 467/1064 429/1077
f 660/1060 345/1076 277/1010
f 342/1055 586/1004 585/1054
f 232/1066 201/1036 612/1067
f 569/1091 726/1063 586/1004
f 578/1019 464/1087 378/1028
f 404/1034 315/1018 512/1047
f 328/1011 277/1010 641/1085
f 321/1035 641/1085 277/1010
f 634/1079 749/1092 512/1047
f 734/988 527/1042 406/989
f 485/1068 432/1029 651/1059
f 201/1036 401/1065 612/1067
f 526/1048 467/1064 631/1049
f 177/1016 534/1083 631/1049
f 177/1016 631/1049 429/1077
f 641/1085 501/1086 328/1011
f 232/1066 651/1059 380/1058
f 294/1002 199/1012 682/1003
f 590/1043 183/1009 328/1011
f 81/996 199/1012 701/1026
f 590/1043 406/989 394/1041
f 294/1002 461/1088 199/1012
f 532/993 84/1006 754/1005
f 383/1013 651/1059 272/1069
f 749/1092 422/1093 512/1047
f 404/1034 512/1047 422/1093
f 660/1060 277/1010 183/1009
f 82/1008 81/996 701/1026
f 726/1063 569/1091 490/990
f 505/1074 417/1073 461/1088
f 658/1022 450/1021 660/1060
f 578/1019 315/1018 464/1087
f 82/1008 758/992 81/996
f 725/1040 401/1065 201/1036
f 671/1090 694/1094 446/1051
f 660/1060 692/1061 345/1076
f 272/1069 378/1028 464/1087
f 733/1017 177/1016 345/1076
f 560/1030 745/1095 399/1057
f 345/1076 207/1024 733/1017
f 465/1072 612/1067 401/1065
f 692/1061 450/1021 207/1024
f 143/1046 404/1034 305/1096
f 527/1081 734/1097 335/1080
f 335/1080 734/1097 465/1072
f 305/1096 404/1034 422/1093
f 238/1014 272/1069 464/1087
f 505/1074 328/1011 501/1086
f 238/1014 383/1013 272/1069
f 81/996 49/995 652/1053
f 321/1035 505/1074 501/1086
f 633/1020 578/1019 223/1098
f 342/1055 81/996 652/1053
f 195/1084 731/1099 631/1049
f 223/1098 578/1019 399/1057
f 417/1073 189/1075 380/1058
f 417/1073 380/1058 383/1013
f 658/1022 660/1060 296/1062
f 277/1010 345/1076 588/1039
f 216/1089 297/1044 347/1071
f 223/1098 399/1057 745/1095
f 633/1020 223/1098 745/1095
f 335/1080 465/1072 467/1064
f 612/1067 490/1032 485/1068
f 733/1017 207/1024 172/1025
f 588/1039 177/1016 429/1077
f 560/1038 338/991 532/993
f 532/993 758/992 84/1006
f 201/1036 277/1010 725/1040
f 671/1050 631/1049 731/1099
f 82/1008 443/1027 139/1045
f 82/1008 139/1045 84/1006
f 465/1072 401/1065 467/1064
f 417/1073 383/1013 461/1088
f 216/1089 446/1051 694/1094
f 177/1016 588/1039 345/1076
f 512/1047 633/1020 727/1100
f 701/1026 199/1012 238/1014
f 671/1050 527/1081 526/1048
f 734/1097 490/1032 465/1072
f 225/1101 632/1102 509/1103
f 699/1104 251/1105 257/1106
f 257/1106 709/1107 708/1108
f 229/1109 488/1110 265/1111
f 582/1112 488/1110 614/1113
f 456/1114 248/1115 415/1116
f 639/1117 213/1118 696/1119
f 456/1114 415/1116 509/1103
f 367/1120 257/1106 582/1112
f 582/1112 218/1121 367/1120
f 617/1122 225/1101 415/1116
f 257/1106 708/1108 699/1104
f 656/1123 229/1109 636/1124
f 579/1125 248/1115 251/1105
f 614/1113 376/1126 218/1121
f 582/1112 614/1113 218/1121
f 257/1106 488/1110 582/1112
f 251/1105 488/1110 257/1106
f 265/1111 488/1110 456/1114
f 509/1103 696/1119 456/1114
f 696/1119 265/1111 456/1114
f 614/1113 229/1109 656/1123
f 415/1116 579/1125 371/1127
f 579/1125 251/1105 699/1104
f 656/1123 574/1128 614/1113
f 509/1103 639/1117 696/1119
f 656/1123 636/1124 574/1128
f 743/1129 742/1130 213/1118
f 251/1105 248/1115 488/1110
f 367/1120 218/1121 648/1131
f 488/1110 248/1115 456/1114
f 614/1113 574/1128 376/1126
f 639/1117 743/1129 213/1118
f 614/1113 488/1110 229/1109
f 367/1120 648/1131 709/1107
f 636/1124 229/1109 213/1118
f 257/1106 367/1120 709/1107
f 415/1116 248/1115 579/1125
f 213/1118 4/1132 636/1124
f 632/1102 225/1101 293/1133
f 225/1101 509/1103 415/1116
f 371/1127 617/1122 415/1116
f 265/1111 696/1119 213/1118
f 229/1109 265/1111 213/1118

 