# File exported by Houdini 16.5.405 (www.sidefx.com)
# 162 points
# 885 vertices
# 295 primitives
# Bounds: [-658.48053, -9.86521721, -431.331635] to [661.278137, 868.477173, 428.886017]
g 
v -346.806946 252.310944 184.399261
v -344.948761 257.81073 184.233673
v -352.771637 230.596741 184.43158
v -352.596802 230.799957 184.413544
v -291.564209 276.822815 177.934036
v -346.504364 251.53244 184.228226
v -340.6875 245.701752 168.285797
v -307.362518 136.235504 154.73407
v -401.221954 264.327057 137.888245
v -351.010529 236.651764 184.979416
v -370.720581 187.272079 180.544006
v -193.415009 211.12973 84.2620316
v -224.075348 239.416336 125.694565
v -194.768463 205.993744 79.2320557
v -195.094315 206.32843 79.143898
v -195.084335 184.451218 57.3107109
v -68.4363861 357.279205 -333.00943
v 491.385193 -4.16515255 165.656616
v 232.440582 254.822372 357.392487
v 584.458984 12.5443125 -141.871017
v -484.027222 111.315147 -345.129669
v 4.49941874 553.924744 -208.89769
v -213.370972 107.320686 35.7082138
v -493.011536 -3.92328548 48.0302773
v -110.62532 834.259644 -129.911087
v -195.802383 694.363098 -85.6096878
v -145.365265 303.819092 294.034973
v -311.95047 635.795837 -86.0458679
v 367.384827 364.65387 61.2291603
v 661.278137 -7.2983079 8.70133591
v -295.701996 474.830994 -74.2483063
v 288.6185 296.283234 -80.0583801
v -572.520874 1.85846698 -310.03775
v -237.004593 680.840515 -11.902153
v -358.167725 58.2098618 -416.522156
v -270.102966 -5.82600451 238.772705
v 303.799103 243.705734 -158.100876
v 220.518234 169.153473 -308.668854
v 6.16612387 342.271454 -135.233246
v -212.168076 657.608398 89.5107422
v 213.494415 -9.86521721 -389.15567
v 476.409851 115.778702 -122.545479
v -53.848774 86.1641846 342.012024
v -579.687195 135.499466 -184.501556
v -144.503174 272.72113 217.258926
v -70.019104 270.100708 235.991028
v 63.73489 583.782043 122.287498
v -334.099457 431.325958 -16.2768936
v -123.972046 711.603271 109.802635
v 20.2713737 581.336853 -154.973663
v -28.9227715 199.325562 272.868164
v -458.196228 46.2465172 26.1694908
v 262.690613 371.195435 119.311363
v -127.823494 187.496826 -347.125458
v -7.62856197 350.626129 302.918854
v -356.600952 -5.51650429 -339.803253
v -385.64444 40.3973122 171.455414
v -520.117432 -7.98786545 -190.754791
v 217.81398 -2.86511636 365.503296
v -132.63855 630.259766 145.084488
v 369.760864 -7.22827435 -337.510498
v -307.994904 394.338593 122.500671
v -585.062988 179.140015 -147.613098
v 414.698975 275.942352 48.8692322
v -426.31723 323.470154 -36.6348076
v 374.670685 1.36023211 -130.193695
v -96.2311096 184.760315 376.171783
v 166.636459 449.410309 -107.473083
v -178.899002 424.091095 -248.894608
v 167.017975 198.833694 331.234772
v -43.6134796 548.824829 88.2490845
v -223.537781 445.339142 105.410568
v 118.466614 278.914429 -254.257278
v -469.484833 226.969086 -213.524979
v 200.819122 98.2364273 -431.331635
v -54.0745544 -5.01815367 308.470673
v -433.90802 4.30389881 -395.116791
v 156.731735 485.806061 80.8933716
v 491.989502 109.14193 95.2715073
v -306.980225 211.325928 -349.026093
v -614.122009 -0.237226903 -225.869431
v -243.013412 131.710068 103.544785
v 321.578033 117.334 -326.380005
v -12.6356916 81.0497513 -365.764404
v -477.032532 198.155594 -20.6478329
v 342.243927 212.781845 -89.990715
v -67.4004822 781.909912 -101.837082
v 141.342957 355.71286 -179.178802
v -256.190582 65.4112778 142.144821
v 346.915527 0.0473144315 249.83049
v -94.5654602 -5.8478713 -372.681091
v -8.00270081 402.056213 -209.333084
v 124.66011 -5.29372692 -385.691711
v 126.972755 430.645752 166.711731
v -127.105476 661.121948 -124.751808
v -12.7146082 320.556946 -174.379593
v 32.7472343 416.292786 196.613602
v 102.061264 292.341156 -157.196716
v -173.573883 364.056671 201.520676
v 407.68808 98.0572815 -242.193604
v -282.191772 -1.56229866 168.478424
v 444.88559 -1.38870251 -87.8364563
v -27.4199448 692.286316 -104.917732
v 258.830231 308.388031 282.321838
v 253.032883 456.667938 -15.6723738
v -421.404297 263.235687 70.5902405
v 564.067261 110.293121 -75.6998901
v -355.325684 192.612854 -384.787048
v -504.966461 194.564514 20.3774776
v 226.777939 -4.77400303 -333.236176
v -250.891815 391.34021 48.1175194
v -614.777405 85.2655945 -31.0937634
v 453.721802 -6.00622368 220.173798
v -658.48053 -1.92527127 -129.553299
v -210.734116 548.418335 -135.859665
v -320.174194 399.075867 -225.085907
v -193.328751 266.116669 178.412354
v -3.58671236 431.453217 293.096497
v -448.312958 149.905853 -258.627411
v -422.025177 344.877594 62.3803825
v -622.371826 7.44277 -13.2454681
v -454.902344 147.310059 -125.93161
v -84.4348831 301.010406 -286.966553
v 195.067215 378.401459 -158.56517
v 473.401276 106.238708 -17.7729759
v -454.190674 -3.05753684 138.804016
v -48.2667542 666.110168 21.5317345
v -23.3617573 91.160347 428.886017
v 75.3254623 356.210266 -128.292511
v 138.485168 567.681091 -160.051132
v -238.749222 274.25296 -322.45871
v -226.598282 840.543945 -34.462059
v 200.265106 488.817993 -48.7397575
v -247.315857 369.077972 -221.452621
v -11.8087826 376.640015 263.632446
v 425.465576 187.575882 -121.189262
v -524.019043 101.369896 -164.895615
v -76.9373016 487.306946 267.761749
v 130.865326 53.4113617 -426.657227
v 171.951569 228.591995 -237.852066
v 163.126038 69.6221008 412.569183
v -451.879974 110.545616 -202.271484
v 129.528183 461.808655 -202.376221
v -189.334976 210.376678 290.767914
v -141.099304 868.477173 -61.7026024
v -22.395586 124.010132 405.713257
v 495.701141 158.225464 -3.29452586
v -240.526657 499.865173 -203.092377
v -55.2415504 589.205444 120.989922
v -10.5535479 -4.79994631 407.637268
v -212.91095 130.32312 382.991211
v -14.3431406 301.085205 281.395233
v -6.5848484 678.278809 22.2427082
v -152.9561 608.133911 79.5379868
v -176.577454 495.492706 61.352005
v 199.462631 415.674286 -48.2216148
v -172.76976 19.8358555 -416.934845
v -524.767883 93.1319733 61.9043732
v -0.24097608 -5.38548279 -324.456024
v -357.880341 252.211151 -274.837799
v -257.600098 113.350098 308.355743
v 66.1076431 634.64032 -81.5727005
vt 0.727351725 0.420108736 0
vt 0.790718555 0.525763094 0
vt 0.656704485 0.51793623 0
vt 0.356299996 0.140670002 0
vt 0.354849994 0.138270006 0
vt 0.354959995 0.138339996 0
vt 0.341235161 0.121567793 0
vt 0.354959995 0.138339996 0
vt 0.354849994 0.138270006 0
vt 0.330750525 0.166434601 0
vt 0.356299996 0.140670002 0
vt 0.360000014 0.147039995 0
vt 0.360280007 0.146939993 0
vt 0.360100001 0.146689996 0
vt 0.389945537 0.153759301 0
vt 0.361290276 0.149153605 0
vt 0.360000014 0.147039995 0
vt 0.356299996 0.140670002 0
vt 0.356299996 0.140670002 0
vt 0.360100001 0.146689996 0
vt 0.361290276 0.149153605 0
vt 0.356299996 0.140670002 0
vt 0.341235161 0.121567793 0
vt 0.354849994 0.138270006 0
vt 0.355019987 0.138260007 0
vt 0.365860492 0.0856662989 0
vt 0.365239054 0.141474605 0
vt 0.354959995 0.138339996 0
vt 0.365239054 0.141474605 0
vt 0.356299996 0.140670002 0
vt 0.341235161 0.121567793 0
vt 0.365860492 0.0856662989 0
vt 0.354959995 0.138339996 0
vt 0.360100001 0.146689996 0
vt 0.356299996 0.140670002 0
vt 0.389945537 0.153759301 0
vt 0.356299996 0.140670002 0
vt 0.330750525 0.166434601 0
vt 0.341235161 0.121567793 0
vt 0.389945537 0.153759301 0
vt 0.356299996 0.140670002 0
vt 0.365239054 0.141474605 0
vt 0.312511653 0.0567944236 0
vt 0.330750525 0.166434601 0
vt 0.271439105 0.0510068312 0
vt 0.879400015 0.195910007 0
vt 0.929963052 0.18533121 0
vt 0.876150012 0.196720004 0
vt 0.876150012 0.196720004 0
vt 0.849044085 0.186668694 0
vt 0.878660023 0.194629997 0
vt 0.878660023 0.194629997 0
vt 0.849044085 0.186668694 0
vt 0.87865001 0.194549993 0
vt 0.89203465 0.189478099 0
vt 0.879400015 0.195910007 0
vt 0.876150012 0.196720004 0
vt 0.89203465 0.189478099 0
vt 0.876150012 0.196720004 0
vt 0.878660023 0.194629997 0
vt 0.289168715 0.455723524 0
vt 0.155094028 0.501233637 0
vt 0.200679004 0.439011574 0
vt 0.561392009 0.811259031 0
vt 0.553087234 0.71718657 0
vt 0.635458589 0.719614267 0
vt 0.700168908 0.664171517 0
vt 0.900015533 0.669016242 0
vt 0.834468842 0.726020157 0
vt 0.193585739 0.29916364 0
vt 0.291227281 0.255957752 0
vt 0.283341706 0.37649852 0
vt 0.452788174 0.534738958 0
vt 0.363970578 0.551708579 0
vt 0.432652146 0.474848598 0
vt 0.638600051 0.444422096 0
vt 0.565906346 0.358588755 0
vt 0.626111567 0.358233839 0
vt 0.929963052 0.18533121 0
vt 0.879400015 0.195910007 0
vt 0.89203465 0.189478099 0
vt 0.312511653 0.0567944236 0
vt 0.271439105 0.0510068312 0
vt 0.336844862 0.00914139394 0
vt 0.537198901 0.450095266 0
vt 0.462015867 0.437617272 0
vt 0.481699049 0.391685337 0
vt 0.514658809 0.503951728 0
vt 0.452788174 0.534738958 0
vt 0.432652146 0.474848598 0
vt 0.554466784 0.293423444 0
vt 0.480962276 0.280607224 0
vt 0.481589496 0.181065053 0
vt 0.386400461 0.213972583 0
vt 0.330750525 0.166434601 0
vt 0.389945537 0.153759301 0
vt 0.656704485 0.51793623 0
vt 0.755457759 0.552525282 0
vt 0.613986015 0.558441937 0
vt 0.41149047 0.250144303 0
vt 0.453047723 0.25359869 0
vt 0.426731586 0.391329437 0
vt 0.363970578 0.551708579 0
vt 0.251307726 0.52187115 0
vt 0.432652146 0.474848598 0
vt 0.233018085 0.200245336 0
vt 0.182221293 0.243185163 0
vt 0.15345642 0.195946127 0
vt 0.899574935 0.506876469 0
vt 0.894744694 0.623722911 0
vt 0.820572853 0.495634645 0
vt 0.233018085 0.200245336 0
vt 0.193585739 0.29916364 0
vt 0.182221293 0.243185163 0
vt 0.512080431 0.136769146 0
vt 0.554466784 0.293423444 0
vt 0.481589496 0.181065053 0
vt 0.397546381 0.61741215 0
vt 0.418616623 0.685891211 0
vt 0.380470604 0.674493015 0
vt 0.727351725 0.420108736 0
vt 0.747410059 0.396869183 0
vt 0.820572853 0.495634645 0
vt 0.299184442 0.187686399 0
vt 0.231797025 0.170470908 0
vt 0.235006377 0.0886727646 0
vt 0.569663942 0.102038637 0
vt 0.512080431 0.136769146 0
vt 0.516175747 0.0943454728 0
vt 0.697141767 0.919444263 0
vt 0.702506423 0.851600826 0
vt 0.765085995 0.874624968 0
vt 0.395528793 0.561738431 0
vt 0.347496241 0.630893707 0
vt 0.363970578 0.551708579 0
vt 0.512080431 0.136769146 0
vt 0.569663942 0.102038637 0
vt 0.598790228 0.167180732 0
vt 0.0402479731 0.541141033 0
vt 0.022607822 0.625871837 0
vt 0.00136237149 0.596582055 0
vt 0.291227281 0.255957752 0
vt 0.360692203 0.281991065 0
vt 0.37351644 0.339199483 0
vt 0.688943803 0.607667029 0
vt 0.612795472 0.635472357 0
vt 0.755457759 0.552525282 0
vt 0.380181909 0.421312779 0
vt 0.432652146 0.474848598 0
vt 0.336800665 0.420503467 0
vt 0.37351644 0.339199483 0
vt 0.283341706 0.37649852 0
vt 0.291227281 0.255957752 0
vt 0.635281503 0.769487083 0
vt 0.561392009 0.811259031 0
vt 0.635458589 0.719614267 0
vt 0.995746076 0.400931954 0
vt 0.968549132 0.45313105 0
vt 0.94589591 0.403058499 0
vt 0.101361819 0.330747753 0
vt 0.0449619405 0.356979251 0
vt 0.0489887781 0.287177384 0
vt 0.635458589 0.719614267 0
vt 0.587806165 0.659994483 0
vt 0.612795472 0.635472357 0
vt 0.820572853 0.495634645 0
vt 0.782753766 0.355903983 0
vt 0.819620907 0.385747731 0
vt 0.715924561 0.782701433 0
vt 0.74857378 0.80796206 0
vt 0.702506423 0.851600826 0
vt 0.837889016 0.247288272 0
vt 0.929963052 0.18533121 0
vt 0.953266859 0.234569445 0
vt 0.94589591 0.403058499 0
vt 0.968549132 0.45313105 0
vt 0.922108471 0.43255356 0
vt 0.901146352 0.419130474 0
vt 0.91423285 0.338164419 0
vt 0.94589591 0.403058499 0
vt 0.695510566 0.205915689 0
vt 0.665309727 0.278214425 0
vt 0.645281672 0.186066434 0
vt 0.64917475 0.119145311 0
vt 0.695510566 0.205915689 0
vt 0.645281672 0.186066434 0
vt 0.432652146 0.474848598 0
vt 0.462015867 0.437617272 0
vt 0.514658809 0.503951728 0
vt 0.462015867 0.437617272 0
vt 0.432652146 0.474848598 0
vt 0.380181909 0.421312779 0
vt 0.389945537 0.153759301 0
vt 0.423399866 0.130398691 0
vt 0.386400461 0.213972583 0
vt 0.251307726 0.52187115 0
vt 0.289168715 0.455723524 0
vt 0.336800665 0.420503467 0
vt 0.525400281 0.828787029 0
vt 0.444727123 0.798136473 0
vt 0.502800822 0.784081459 0
vt 0.598832369 0.862174511 0
vt 0.525400281 0.828787029 0
vt 0.561392009 0.811259031 0
vt 0.652808428 0.872573316 0
vt 0.702506423 0.851600826 0
vt 0.697141767 0.919444263 0
vt 0.755457759 0.552525282 0
vt 0.790718555 0.525763094 0
vt 0.894744694 0.623722911 0
vt 0.612795472 0.635472357 0
vt 0.573414683 0.629309356 0
vt 0.613986015 0.558441937 0
vt 0.15345642 0.195946127 0
vt 0.182221293 0.243185163 0
vt 0.13329798 0.200452775 0
vt 0.0775690377 0.243206054 0
vt 0.130863577 0.229832977 0
vt 0.143304437 0.266713619 0
vt 0.533541739 0.311013222 0
vt 0.480962276 0.280607224 0
vt 0.554466784 0.293423444 0
vt 0.573414683 0.629309356 0
vt 0.612795472 0.635472357 0
vt 0.587806165 0.659994483 0
vt 0.568988979 0.204038724 0
vt 0.512080431 0.136769146 0
vt 0.598790228 0.167180732 0
vt 0.834468842 0.726020157 0
vt 0.736298323 0.695635617 0
vt 0.700168908 0.664171517 0
vt 0.41149047 0.250144303 0
vt 0.426731586 0.391329437 0
vt 0.37351644 0.339199483 0
vt 0.37351644 0.339199483 0
vt 0.426731586 0.391329437 0
vt 0.380181909 0.421312779 0
vt 0.336800665 0.420503467 0
vt 0.37351644 0.339199483 0
vt 0.380181909 0.421312779 0
vt 0.645131826 0.353827685 0
vt 0.626111567 0.358233839 0
vt 0.613606155 0.288777769 0
vt 0.336800665 0.420503467 0
vt 0.283341706 0.37649852 0
vt 0.37351644 0.339199483 0
vt 0.283341706 0.37649852 0
vt 0.336800665 0.420503467 0
vt 0.289168715 0.455723524 0
vt 0.837889016 0.247288272 0
vt 0.953266859 0.234569445 0
vt 0.924807787 0.307342529 0
vt 0.700168908 0.664171517 0
vt 0.635281503 0.769487083 0
vt 0.635458589 0.719614267 0
vt 0.322630107 0.219523475 0
vt 0.231797025 0.170470908 0
vt 0.299184442 0.187686399 0
vt 0.330750525 0.166434601 0
vt 0.322630107 0.219523475 0
vt 0.299184442 0.187686399 0
vt 0.380470604 0.674493015 0
vt 0.34923771 0.691856086 0
vt 0.322375238 0.678037882 0
vt 0.561392009 0.811259031 0
vt 0.520837188 0.744250894 0
vt 0.553087234 0.71718657 0
vt 0.577132702 0.473165631 0
vt 0.565906346 0.358588755 0
vt 0.638600051 0.444422096 0
vt 0.221623048 0.522120595 0
vt 0.0907642394 0.558018327 0
vt 0.155094028 0.501233637 0
vt 0.289168715 0.455723524 0
vt 0.221623048 0.522120595 0
vt 0.155094028 0.501233637 0
vt 0.635458589 0.719614267 0
vt 0.553087234 0.71718657 0
vt 0.587806165 0.659994483 0
vt 0.577132702 0.473165631 0
vt 0.494137645 0.526409447 0
vt 0.514658809 0.503951728 0
vt 0.591178596 0.301887035 0
vt 0.626111567 0.358233839 0
vt 0.565906346 0.358588755 0
vt 0.927370548 0.548791409 0
vt 0.899574935 0.506876469 0
vt 0.922108471 0.43255356 0
vt 0.163389653 0.408530802 0
vt 0.200679004 0.439011574 0
vt 0.155094028 0.501233637 0
vt 0.645131826 0.353827685 0
vt 0.665309727 0.278214425 0
vt 0.780335009 0.305596262 0
vt 0.598790228 0.167180732 0
vt 0.645281672 0.186066434 0
vt 0.613606155 0.288777769 0
vt 0.794499338 0.763369739 0
vt 0.834468842 0.726020157 0
vt 0.811441302 0.795083463 0
vt 0.283341706 0.37649852 0
vt 0.289168715 0.455723524 0
vt 0.26929009 0.412476271 0
vt 0.715924561 0.782701433 0
vt 0.678139865 0.756687522 0
vt 0.736298323 0.695635617 0
vt 0.715924561 0.782701433 0
vt 0.736298323 0.695635617 0
vt 0.794499338 0.763369739 0
vt 0.669474006 0.418940455 0
vt 0.710994065 0.419565111 0
vt 0.727351725 0.420108736 0
vt 0.286091328 0.658110321 0
vt 0.347496241 0.630893707 0
vt 0.322375238 0.678037882 0
vt 0.143304437 0.266713619 0
vt 0.130863577 0.229832977 0
vt 0.182221293 0.243185163 0
vt 0.520837188 0.744250894 0
vt 0.561392009 0.811259031 0
vt 0.502800822 0.784081459 0
vt 0.200579569 0.365874648 0
vt 0.163389653 0.408530802 0
vt 0.15124771 0.313170642 0
vt 0.575476229 0.963892758 0
vt 0.591042459 0.931600273 0
vt 0.628963232 0.963841498 0
vt 0.575476229 0.963892758 0
vt 0.499839395 0.96519959 0
vt 0.591042459 0.931600273 0
vt 0.819620907 0.385747731 0
vt 0.863973856 0.309710979 0
vt 0.877152622 0.37404263 0
vt 0.922108471 0.43255356 0
vt 0.901146352 0.419130474 0
vt 0.94589591 0.403058499 0
vt 0.700168908 0.664171517 0
vt 0.635458589 0.719614267 0
vt 0.688943803 0.607667029 0
vt 0.271439105 0.0510068312 0
vt 0.235006377 0.0886727646 0
vt 0.2086422 0.0680105835 0
vt 0.221623048 0.522120595 0
vt 0.251307726 0.52187115 0
vt 0.281205922 0.582116008 0
vt 0.591178596 0.301887035 0
vt 0.519636214 0.349758267 0
vt 0.533541739 0.311013222 0
vt 0.291227281 0.255957752 0
vt 0.193585739 0.29916364 0
vt 0.233018085 0.200245336 0
vt 0.864693284 0.809566975 0
vt 0.811441302 0.795083463 0
vt 0.834468842 0.726020157 0
vt 0.747410059 0.396869183 0
vt 0.782753766 0.355903983 0
vt 0.820572853 0.495634645 0
vt 0.389945537 0.153759301 0
vt 0.365239054 0.141474605 0
vt 0.365860492 0.0856662989 0
vt 0.837889016 0.247288272 0
vt 0.849044085 0.186668694 0
vt 0.876150012 0.196720004 0
vt 0.876150012 0.196720004 0
vt 0.929963052 0.18533121 0
vt 0.837889016 0.247288272 0
vt 0.0739984885 0.395363778 0
vt 0.138305932 0.38978067 0
vt 0.163389653 0.408530802 0
vt 0.702506423 0.851600826 0
vt 0.74857378 0.80796206 0
vt 0.765085995 0.874624968 0
vt 0.899574935 0.506876469 0
vt 0.927370548 0.548791409 0
vt 0.894744694 0.623722911 0
vt 0.519636214 0.349758267 0
vt 0.481699049 0.391685337 0
vt 0.480962276 0.280607224 0
vt 0.645281672 0.186066434 0
vt 0.598790228 0.167180732 0
vt 0.612054169 0.140506953 0
vt 0.834468842 0.726020157 0
vt 0.900015533 0.669016242 0
vt 0.898868978 0.697100878 0
vt 0.252489269 0.629752576 0
vt 0.347496241 0.630893707 0
vt 0.286091328 0.658110321 0
vt 0.251307726 0.52187115 0
vt 0.363970578 0.551708579 0
vt 0.281205922 0.582116008 0
vt 0.502800822 0.784081459 0
vt 0.561392009 0.811259031 0
vt 0.525400281 0.828787029 0
vt 0.022607822 0.625871837 0
vt 0.0402479731 0.541141033 0
vt 0.0907642394 0.558018327 0
vt 0.336844862 0.00914139394 0
vt 0.373804629 0.0270472821 0
vt 0.312511653 0.0567944236 0
vt 0.341235161 0.121567793 0
vt 0.330750525 0.166434601 0
vt 0.312511653 0.0567944236 0
vt 0.612795472 0.635472357 0
vt 0.688943803 0.607667029 0
vt 0.635458589 0.719614267 0
vt 0.426731586 0.391329437 0
vt 0.462015867 0.437617272 0
vt 0.380181909 0.421312779 0
vt 0.74857378 0.80796206 0
vt 0.715924561 0.782701433 0
vt 0.794499338 0.763369739 0
vt 0.67023313 0.411271811 0
vt 0.626111567 0.358233839 0
vt 0.645131826 0.353827685 0
vt 0.635281503 0.769487083 0
vt 0.598832369 0.862174511 0
vt 0.561392009 0.811259031 0
vt 0.512080431 0.136769146 0
vt 0.568988979 0.204038724 0
vt 0.554466784 0.293423444 0
vt 0.101361819 0.330747753 0
vt 0.15124771 0.313170642 0
vt 0.163389653 0.408530802 0
vt 0.550245285 0.665294886 0
vt 0.573414683 0.629309356 0
vt 0.587806165 0.659994483 0
vt 0.066693306 0.185727939 0
vt 0.130863577 0.229832977 0
vt 0.0775690377 0.243206054 0
vt 0.363970578 0.551708579 0
vt 0.452788174 0.534738958 0
vt 0.395528793 0.561738431 0
vt 0.577132702 0.473165631 0
vt 0.514658809 0.503951728 0
vt 0.537198901 0.450095266 0
vt 0.626111567 0.358233839 0
vt 0.591178596 0.301887035 0
vt 0.613606155 0.288777769 0
vt 0.423399866 0.130398691 0
vt 0.389945537 0.153759301 0
vt 0.402875155 0.0658989996 0
vt 0.37351644 0.339199483 0
vt 0.360692203 0.281991065 0
vt 0.41149047 0.250144303 0
vt 0.613986015 0.558441937 0
vt 0.755457759 0.552525282 0
vt 0.612795472 0.635472357 0
vt 0.143304437 0.266713619 0
vt 0.15124771 0.313170642 0
vt 0.0775690377 0.243206054 0
vt 0.652808428 0.872573316 0
vt 0.598832369 0.862174511 0
vt 0.635281503 0.769487083 0
vt 0.0843747556 0.135743946 0
vt 0.13329798 0.200452775 0
vt 0.066693306 0.185727939 0
vt 0.91423285 0.338164419 0
vt 0.863973856 0.309710979 0
vt 0.924807787 0.307342529 0
vt 0.322630107 0.219523475 0
vt 0.386400461 0.213972583 0
vt 0.360692203 0.281991065 0
vt 0.628963232 0.963841498 0
vt 0.594958663 0.996128082 0
vt 0.575476229 0.963892758 0
vt 0.281205922 0.582116008 0
vt 0.347496241 0.630893707 0
vt 0.252489269 0.629752576 0
vt 0.423399866 0.130398691 0
vt 0.41149047 0.250144303 0
vt 0.386400461 0.213972583 0
vt 0.336800665 0.420503467 0
vt 0.432652146 0.474848598 0
vt 0.251307726 0.52187115 0
vt 0.322375238 0.678037882 0
vt 0.347496241 0.630893707 0
vt 0.380470604 0.674493015 0
vt 0.200679004 0.439011574 0
vt 0.200579569 0.365874648 0
vt 0.26929009 0.412476271 0
vt 0.423399866 0.130398691 0
vt 0.449430525 0.139809072 0
vt 0.481589496 0.181065053 0
vt 0.94589591 0.403058499 0
vt 0.91423285 0.338164419 0
vt 0.995746076 0.400931954 0
vt 0.453047723 0.25359869 0
vt 0.480962276 0.280607224 0
vt 0.481699049 0.391685337 0
vt 0.231797025 0.170470908 0
vt 0.207765043 0.118090324 0
vt 0.235006377 0.0886727646 0
vt 0.289168715 0.455723524 0
vt 0.200679004 0.439011574 0
vt 0.26929009 0.412476271 0
vt 0.834468842 0.726020157 0
vt 0.938815475 0.786624134 0
vt 0.864693284 0.809566975 0
vt 0.863973856 0.309710979 0
vt 0.813528538 0.2925089 0
vt 0.837889016 0.247288272 0
vt 0.864693284 0.809566975 0
vt 0.897013128 0.855475903 0
vt 0.811441302 0.795083463 0
vt 0.291227281 0.255957752 0
vt 0.233018085 0.200245336 0
vt 0.322630107 0.219523475 0
vt 0.877152622 0.37404263 0
vt 0.863973856 0.309710979 0
vt 0.91423285 0.338164419 0
vt 0.565906346 0.358588755 0
vt 0.519636214 0.349758267 0
vt 0.591178596 0.301887035 0
vt 0.665309727 0.278214425 0
vt 0.695510566 0.205915689 0
vt 0.730465293 0.253324628 0
vt 0.138305932 0.38978067 0
vt 0.101361819 0.330747753 0
vt 0.163389653 0.408530802 0
vt 0.568988979 0.204038724 0
vt 0.598790228 0.167180732 0
vt 0.554466784 0.293423444 0
vt 0.0236360002 0.394011736 0
vt 0.0449619405 0.356979251 0
vt 0.0739984885 0.395363778 0
vt 0.299184442 0.187686399 0
vt 0.271439105 0.0510068312 0
vt 0.330750525 0.166434601 0
vt 0.207765043 0.118090324 0
vt 0.13329798 0.200452775 0
vt 0.151581928 0.130194545 0
vt 0.426731586 0.391329437 0
vt 0.453047723 0.25359869 0
vt 0.481699049 0.391685337 0
vt 0.330750525 0.166434601 0
vt 0.386400461 0.213972583 0
vt 0.322630107 0.219523475 0
vt 0.395528793 0.561738431 0
vt 0.397546381 0.61741215 0
vt 0.347496241 0.630893707 0
vt 0.635281503 0.769487083 0
vt 0.700168908 0.664171517 0
vt 0.678139865 0.756687522 0
vt 0.782753766 0.355903983 0
vt 0.813528538 0.2925089 0
vt 0.819620907 0.385747731 0
vt 0.0489887781 0.287177384 0
vt 0.15124771 0.313170642 0
vt 0.101361819 0.330747753 0
vt 0.0907642394 0.558018327 0
vt 0.221623048 0.522120595 0
vt 0.281205922 0.582116008 0
vt 0.207765043 0.118090324 0
vt 0.2086422 0.0680105835 0
vt 0.235006377 0.0886727646 0
vt 0.924807787 0.307342529 0
vt 0.863973856 0.309710979 0
vt 0.837889016 0.247288272 0
vt 0.472407103 0.761308312 0
vt 0.520837188 0.744250894 0
vt 0.502800822 0.784081459 0
vt 0.864693284 0.809566975 0
vt 0.938815475 0.786624134 0
vt 0.897013128 0.855475903 0
vt 0.652808428 0.872573316 0
vt 0.635281503 0.769487083 0
vt 0.678139865 0.756687522 0
vt 0.702506423 0.851600826 0
vt 0.652808428 0.872573316 0
vt 0.715924561 0.782701433 0
vt 0.347496241 0.630893707 0
vt 0.397546381 0.61741215 0
vt 0.380470604 0.674493015 0
vt 0.790718555 0.525763094 0
vt 0.820572853 0.495634645 0
vt 0.894744694 0.623722911 0
vt 0.899574935 0.506876469 0
vt 0.820572853 0.495634645 0
vt 0.901146352 0.419130474 0
vt 0.450241119 0.594261706 0
vt 0.397546381 0.61741215 0
vt 0.452788174 0.534738958 0
vt 0.708911598 0.37339139 0
vt 0.67023313 0.411271811 0
vt 0.645131826 0.353827685 0
vt 0.901146352 0.419130474 0
vt 0.820572853 0.495634645 0
vt 0.877152622 0.37404263 0
vt 0.533541739 0.311013222 0
vt 0.613606155 0.288777769 0
vt 0.591178596 0.301887035 0
vt 0.554466784 0.293423444 0
vt 0.613606155 0.288777769 0
vt 0.533541739 0.311013222 0
vt 0.591042459 0.931600273 0
vt 0.525400281 0.828787029 0
vt 0.598832369 0.862174511 0
vt 0.877152622 0.37404263 0
vt 0.91423285 0.338164419 0
vt 0.901146352 0.419130474 0
vt 0.13329798 0.200452775 0
vt 0.182221293 0.243185163 0
vt 0.130863577 0.229832977 0
vt 0.365860492 0.0856662989 0
vt 0.373804629 0.0270472821 0
vt 0.402875155 0.0658989996 0
vt 0.182221293 0.243185163 0
vt 0.193585739 0.29916364 0
vt 0.143304437 0.266713619 0
vt 0.299184442 0.187686399 0
vt 0.235006377 0.0886727646 0
vt 0.271439105 0.0510068312 0
vt 0.929963052 0.18533121 0
vt 0.964376807 0.194641247 0
vt 0.953266859 0.234569445 0
vt 0.389945537 0.153759301 0
vt 0.365860492 0.0856662989 0
vt 0.402875155 0.0658989996 0
vt 0.819620907 0.385747731 0
vt 0.877152622 0.37404263 0
vt 0.820572853 0.495634645 0
vt 0.514658809 0.503951728 0
vt 0.494137645 0.526409447 0
vt 0.452788174 0.534738958 0
vt 0.715924561 0.782701433 0
vt 0.652808428 0.872573316 0
vt 0.678139865 0.756687522 0
vt 0.281205922 0.582116008 0
vt 0.252489269 0.629752576 0
vt 0.237670094 0.60264957 0
vt 0.0907642394 0.558018327 0
vt 0.0474668257 0.514024496 0
vt 0.0669059083 0.478284925 0
vt 0.645131826 0.353827685 0
vt 0.613606155 0.288777769 0
vt 0.665309727 0.278214425 0
vt 0.790718555 0.525763094 0
vt 0.755457759 0.552525282 0
vt 0.656704485 0.51793623 0
vt 0.207765043 0.118090324 0
vt 0.15345642 0.195946127 0
vt 0.13329798 0.200452775 0
vt 0.499839395 0.96519959 0
vt 0.525400281 0.828787029 0
vt 0.591042459 0.931600273 0
vt 0.418616623 0.685891211 0
vt 0.397546381 0.61741215 0
vt 0.450241119 0.594261706 0
vt 0.151581928 0.130194545 0
vt 0.13329798 0.200452775 0
vt 0.0843747556 0.135743946 0
vt 0.968549132 0.45313105 0
vt 0.927370548 0.548791409 0
vt 0.922108471 0.43255356 0
vt 0.678139865 0.756687522 0
vt 0.700168908 0.664171517 0
vt 0.736298323 0.695635617 0
vt 0.066693306 0.185727939 0
vt 0.13329798 0.200452775 0
vt 0.130863577 0.229832977 0
vt 0.74857378 0.80796206 0
vt 0.794499338 0.763369739 0
vt 0.765085995 0.874624968 0
vt 0.894744694 0.623722911 0
vt 0.900015533 0.669016242 0
vt 0.688943803 0.607667029 0
vt 0.550245285 0.665294886 0
vt 0.587806165 0.659994483 0
vt 0.553087234 0.71718657 0
vt 0.151581928 0.130194545 0
vt 0.133677006 0.0940093324 0
vt 0.207765043 0.118090324 0
vt 0.480908394 0.125405893 0
vt 0.481589496 0.181065053 0
vt 0.449430525 0.139809072 0
vt 0.747410059 0.396869183 0
vt 0.727351725 0.420108736 0
vt 0.710994065 0.419565111 0
vt 0.811441302 0.795083463 0
vt 0.765085995 0.874624968 0
vt 0.794499338 0.763369739 0
vt 0.765085995 0.874624968 0
vt 0.811441302 0.795083463 0
vt 0.827531755 0.859458327 0
vt 0.897013128 0.855475903 0
vt 0.827531755 0.859458327 0
vt 0.811441302 0.795083463 0
vt 0.645131826 0.353827685 0
vt 0.780335009 0.305596262 0
vt 0.708911598 0.37339139 0
vt 0.924807787 0.307342529 0
vt 0.988657594 0.249827623 0
vt 0.989264607 0.28483209 0
vt 0.924807787 0.307342529 0
vt 0.953266859 0.234569445 0
vt 0.988657594 0.249827623 0
vt 0.233018085 0.200245336 0
vt 0.15345642 0.195946127 0
vt 0.231797025 0.170470908 0
vt 0.91423285 0.338164419 0
vt 0.924807787 0.307342529 0
vt 0.989264607 0.28483209 0
vt 0.537198901 0.450095266 0
vt 0.514658809 0.503951728 0
vt 0.462015867 0.437617272 0
vt 0.591042459 0.931600273 0
vt 0.646896899 0.944950759 0
vt 0.628963232 0.963841498 0
vt 0.591042459 0.931600273 0
vt 0.598832369 0.862174511 0
vt 0.646896899 0.944950759 0
vt 0.155094028 0.501233637 0
vt 0.0669059083 0.478284925 0
vt 0.163389653 0.408530802 0
vt 0.0449619405 0.356979251 0
vt 0.101361819 0.330747753 0
vt 0.0739984885 0.395363778 0
vt 0.193585739 0.29916364 0
vt 0.200579569 0.365874648 0
vt 0.15124771 0.313170642 0
vt 0.0775690377 0.243206054 0
vt 0.15124771 0.313170642 0
vt 0.0489887781 0.287177384 0
vt 0.900015533 0.669016242 0
vt 0.700168908 0.664171517 0
vt 0.688943803 0.607667029 0
vt 0.646896899 0.944950759 0
vt 0.652808428 0.872573316 0
vt 0.697141767 0.919444263 0
vt 0.312511653 0.0567944236 0
vt 0.365860492 0.0856662989 0
vt 0.341235161 0.121567793 0
vt 0.363970578 0.551708579 0
vt 0.347496241 0.630893707 0
vt 0.281205922 0.582116008 0
vt 0.143304437 0.266713619 0
vt 0.193585739 0.29916364 0
vt 0.15124771 0.313170642 0
vt 0.67023313 0.411271811 0
vt 0.638600051 0.444422096 0
vt 0.626111567 0.358233839 0
vt 0.834468842 0.726020157 0
vt 0.794499338 0.763369739 0
vt 0.736298323 0.695635617 0
vt 0.133677006 0.0940093324 0
vt 0.2086422 0.0680105835 0
vt 0.207765043 0.118090324 0
vt 0.91423285 0.338164419 0
vt 0.989264607 0.28483209 0
vt 0.995746076 0.400931954 0
vt 0.480908394 0.125405893 0
vt 0.516175747 0.0943454728 0
vt 0.512080431 0.136769146 0
vt 0.480962276 0.280607224 0
vt 0.533541739 0.311013222 0
vt 0.519636214 0.349758267 0
vt 0.790718555 0.525763094 0
vt 0.727351725 0.420108736 0
vt 0.820572853 0.495634645 0
vt 0.688943803 0.607667029 0
vt 0.755457759 0.552525282 0
vt 0.894744694 0.623722911 0
vt 0.849044085 0.186668694 0
vt 0.902185142 0.149295866 0
vt 0.929963052 0.18533121 0
vt 0.0236360002 0.394011736 0
vt 0.0739984885 0.395363778 0
vt 0.0474668257 0.514024496 0
vt 0.0474668257 0.514024496 0
vt 0.0739984885 0.395363778 0
vt 0.0669059083 0.478284925 0
vt 0.665309727 0.278214425 0
vt 0.613606155 0.288777769 0
vt 0.645281672 0.186066434 0
vt 0.565906346 0.358588755 0
vt 0.577132702 0.473165631 0
vt 0.537198901 0.450095266 0
vt 0.453047723 0.25359869 0
vt 0.41149047 0.250144303 0
vt 0.481589496 0.181065053 0
vt 0.423399866 0.130398691 0
vt 0.481589496 0.181065053 0
vt 0.41149047 0.250144303 0
vt 0.289168715 0.455723524 0
vt 0.251307726 0.52187115 0
vt 0.221623048 0.522120595 0
vt 0.472407103 0.761308312 0
vt 0.502800822 0.784081459 0
vt 0.444727123 0.798136473 0
vt 0.519636214 0.349758267 0
vt 0.537198901 0.450095266 0
vt 0.481699049 0.391685337 0
vt 0.452788174 0.534738958 0
vt 0.397546381 0.61741215 0
vt 0.395528793 0.561738431 0
vt 0.612054169 0.140506953 0
vt 0.598790228 0.167180732 0
vt 0.569663942 0.102038637 0
vt 0.101361819 0.330747753 0
vt 0.138305932 0.38978067 0
vt 0.0739984885 0.395363778 0
vt 0.0474668257 0.514024496 0
vt 0.0907642394 0.558018327 0
vt 0.0402479731 0.541141033 0
vt 0.481699049 0.391685337 0
vt 0.462015867 0.437617272 0
vt 0.426731586 0.391329437 0
vt 0.360692203 0.281991065 0
vt 0.291227281 0.255957752 0
vt 0.322630107 0.219523475 0
vt 0.730465293 0.253324628 0
vt 0.780335009 0.305596262 0
vt 0.665309727 0.278214425 0
vt 0.863973856 0.309710979 0
vt 0.819620907 0.385747731 0
vt 0.813528538 0.2925089 0
vt 0.525400281 0.828787029 0
vt 0.499839395 0.96519959 0
vt 0.453889728 0.821622074 0
vt 0.898868978 0.697100878 0
vt 0.938815475 0.786624134 0
vt 0.834468842 0.726020157 0
vt 0.646896899 0.944950759 0
vt 0.598832369 0.862174511 0
vt 0.652808428 0.872573316 0
vt 0.163389653 0.408530802 0
vt 0.0669059083 0.478284925 0
vt 0.0739984885 0.395363778 0
vt 0.849044085 0.186668694 0
vt 0.929963052 0.18533121 0
vt 0.89203465 0.189478099 0
vt 0.922108471 0.43255356 0
vt 0.899574935 0.506876469 0
vt 0.901146352 0.419130474 0
vt 0.0907642394 0.558018327 0
vt 0.281205922 0.582116008 0
vt 0.237670094 0.60264957 0
vt 0.525400281 0.828787029 0
vt 0.453889728 0.821622074 0
vt 0.444727123 0.798136473 0
vt 0.155094028 0.501233637 0
vt 0.0907642394 0.558018327 0
vt 0.0669059083 0.478284925 0
vt 0.0843747556 0.135743946 0
vt 0.133677006 0.0940093324 0
vt 0.151581928 0.130194545 0
vt 0.193585739 0.29916364 0
vt 0.283341706 0.37649852 0
vt 0.200579569 0.365874648 0
vt 0.361290276 0.149153605 0
vt 0.330750525 0.166434601 0
vt 0.360000014 0.147039995 0
vt 0.330750525 0.166434601 0
vt 0.361290276 0.149153605 0
vt 0.389945537 0.153759301 0
vt 0.207765043 0.118090324 0
vt 0.231797025 0.170470908 0
vt 0.15345642 0.195946127 0
vt 0.163389653 0.408530802 0
vt 0.200579569 0.365874648 0
vt 0.200679004 0.439011574 0
vt 0.512080431 0.136769146 0
vt 0.481589496 0.181065053 0
vt 0.480908394 0.125405893 0
vt 0.373804629 0.0270472821 0
vt 0.365860492 0.0856662989 0
vt 0.312511653 0.0567944236 0
vt 0.480962276 0.280607224 0
vt 0.453047723 0.25359869 0
vt 0.481589496 0.181065053 0
vt 0.598790228 0.167180732 0
vt 0.613606155 0.288777769 0
vt 0.554466784 0.293423444 0
vt 0.283341706 0.37649852 0
vt 0.26929009 0.412476271 0
vt 0.200579569 0.365874648 0
vt 0.386400461 0.213972583 0
vt 0.41149047 0.250144303 0
vt 0.360692203 0.281991065 0
vt 0.565906346 0.358588755 0
vt 0.537198901 0.450095266 0
vt 0.519636214 0.349758267 0
vt 0.322630107 0.219523475 0
vt 0.233018085 0.200245336 0
vt 0.231797025 0.170470908 0
vn -0.327747583 0.577808201 0.694610834
vn 0.395233303 0.236905083 0.761275172
vn 0.425195247 0.529140949 0.586407363
vn 0.236236125 -0.0774178058 0.96860677
vn 0.553183317 -0.215658605 0.804661214
vn 0.408047169 -0.194339022 0.892036974
vn -0.06840799 -0.0105061773 0.950724483
vn 0.408047169 -0.194339022 0.892036974
vn 0.553183317 -0.215658605 0.804661214
vn -0.752008855 0.461680502 0.516412437
vn 0.236236125 -0.0774178058 0.96860677
vn 0.0431329943 0.073496297 0.996362209
vn 0.0431329943 0.073496297 0.996362209
vn 0.751194358 -0.150678366 0.642652988
vn 0.272927374 0.147498757 0.893454134
vn 0.351005703 0.0578764081 0.919449627
vn 0.0431329943 0.073496297 0.996362209
vn 0.236236125 -0.0774178058 0.96860677
vn 0.236236125 -0.0774178058 0.96860677
vn 0.751194358 -0.150678366 0.642652988
vn 0.351005703 0.0578764081 0.919449627
vn 0.236236125 -0.0774178058 0.96860677
vn -0.06840799 -0.0105061773 0.950724483
vn 0.553183317 -0.215658605 0.804661214
vn 0.553183317 -0.215658605 0.804661214
vn 0.450514257 -0.198820353 0.82793802
vn 0.347907573 -0.196164027 0.859122932
vn 0.408047169 -0.194339022 0.892036974
vn 0.347907573 -0.196164027 0.859122932
vn 0.236236125 -0.0774178058 0.96860677
vn -0.06840799 -0.0105061773 0.950724483
vn 0.450514257 -0.198820353 0.82793802
vn 0.408047169 -0.194339022 0.892036974
vn 0.751194358 -0.150678366 0.642652988
vn 0.236236125 -0.0774178058 0.96860677
vn 0.272927374 0.147498757 0.893454134
vn 0.236236125 -0.0774178058 0.96860677
vn -0.752008855 0.461680502 0.516412437
vn -0.06840799 -0.0105061773 0.950724483
vn 0.272927374 0.147498757 0.893454134
vn 0.236236125 -0.0774178058 0.96860677
vn 0.347907573 -0.196164027 0.859122932
vn 0.378435045 -0.180672333 0.788992405
vn -0.752008855 0.461680502 0.516412437
vn -0.643451035 -0.119859621 0.679919004
vn -0.642444253 0.626483977 -0.441342443
vn -0.628010213 0.404291242 -0.015048001
vn -0.961695015 -0.187804744 0.199679524
vn -0.961695015 -0.187804744 0.199679524
vn 0.112248555 -0.378017992 0.715428114
vn 0.288206667 -0.364309102 0.885559559
vn 0.288206667 -0.364309102 0.885559559
vn 0.112248555 -0.378017992 0.715428114
vn -0.642444253 0.626483977 -0.441342443
vn 0.350681812 -0.627628863 0.658664227
vn -0.642444253 0.626483977 -0.441342443
vn -0.961695015 -0.187804744 0.199679524
vn 0.350681812 -0.627628863 0.658664227
vn -0.961695015 -0.187804744 0.199679524
vn 0.288206667 -0.364309102 0.885559559
vn -0.724467814 0.480499625 -0.556580782
vn 0.1501109 0.324688941 -0.946496904
vn -0.557382822 0.386755615 -0.679342508
vn 0.234540284 0.283686697 -0.696174383
vn 0.357624233 0.570157826 -0.714613199
vn 0.597997069 0.57473886 -0.449600339
vn 0.605968773 0.699556887 0.239552662
vn 0.566976368 0.350153178 0.746822596
vn 0.674626887 0.486042053 0.490674645
vn -0.854337931 0.334559292 -0.185238495
vn -0.752533257 0.63115871 0.151722521
vn -0.405068249 0.437425703 -0.625813603
vn 0.40212065 0.47315383 -0.574343503
vn 0.287860125 0.511943817 -0.737302423
vn -0.344717652 0.476379216 -0.76016438
vn 1.0005821 0.401253581 0.0244555566
vn 0.352614105 0.498841017 0.660223246
vn 0.550620377 0.601084948 0.60023433
vn -0.628010213 0.404291242 -0.015048001
vn -0.642444253 0.626483977 -0.441342443
vn 0.350681812 -0.627628863 0.658664227
vn 0.378435045 -0.180672333 0.788992405
vn -0.643451035 -0.119859621 0.679919004
vn -0.227028817 0.142990291 0.899266839
vn -0.709940016 0.516160727 0.383224994
vn -0.630244255 0.121855401 -0.682219148
vn -0.763695717 0.219285205 0.151039869
vn 0.160153612 0.491944671 -0.832818389
vn 0.40212065 0.47315383 -0.574343503
vn -0.344717652 0.476379216 -0.76016438
vn -0.330096185 0.587650537 0.343579352
vn -0.547761381 0.131900415 0.623133838
vn -0.710092366 0.200972065 0.593658984
vn -0.0941671208 0.65327841 0.672016203
vn -0.752008855 0.461680502 0.516412437
vn 0.272927374 0.147498757 0.893454134
vn 0.425195247 0.529140949 0.586407363
vn 0.649186492 0.552420318 0.405815721
vn 0.0425987393 0.811942339 0.610460639
vn -0.328694105 0.294511855 0.149077624
vn -0.561204016 0.253827035 0.689587116
vn -0.901758671 0.175080284 0.0281363241
vn 0.287860125 0.511943817 -0.737302423
vn 0.0761032626 0.120822787 -0.823425591
vn -0.344717652 0.476379216 -0.76016438
vn -0.385176003 0.500297368 -0.205214769
vn -0.472474188 0.331521779 -0.326862484
vn -0.468804479 0.856243968 -0.203511745
vn 0.540964425 0.264937222 0.692283213
vn 0.388514757 0.0287914015 0.863918364
vn -0.0600768067 0.284313828 0.627474785
vn -0.385176003 0.500297368 -0.205214769
vn -0.854337931 0.334559292 -0.185238495
vn -0.472474188 0.331521779 -0.326862484
vn -0.594305277 -0.0930722728 0.701794744
vn -0.330096185 0.587650537 0.343579352
vn -0.710092366 0.200972065 0.593658984
vn 0.709082901 0.468281388 -0.475768626
vn 0.824396491 0.422103435 -0.125429392
vn 0.815338135 0.499748409 -0.23205249
vn -0.327747583 0.577808201 0.694610834
vn 0.288671941 -0.387405843 0.360270113
vn -0.0600768067 0.284313828 0.627474785
vn -0.838690639 0.216442391 0.403326601
vn -0.352731377 0.531930268 0.624753118
vn -0.888928592 0.08025112 0.102408424
vn 0.288671941 -0.387405843 0.360270113
vn -0.594305277 -0.0930722728 0.701794744
vn 0.125150874 -0.443178684 0.40719381
vn 0.418506831 -0.225806564 -0.57170701
vn 0.883169413 -0.106507197 -0.239015728
vn 0.945437312 -0.339989871 -0.111725993
vn -0.136416197 0.530840516 -0.41099149
vn 0.109885871 0.0190619472 -0.836134553
vn 0.287860125 0.511943817 -0.737302423
vn -0.594305277 -0.0930722728 0.701794744
vn 0.288671941 -0.387405843 0.360270113
vn 0.518179536 0.42154792 0.630836189
vn -0.205976307 -0.495502383 -0.781208694
vn -0.416177005 -0.39005965 -0.89087671
vn -0.275696665 -0.602439463 -0.750869334
vn -0.752533257 0.63115871 0.151722521
vn 0.000331125193 0.828641295 -0.300659984
vn -0.846275449 0.395428181 -0.0514484905
vn 0.709736586 0.448237419 0.32401374
vn 0.695623636 0.486463904 -0.233436555
vn 0.649186492 0.552420318 0.405815721
vn -0.291292369 0.361600846 -0.785386384
vn -0.344717652 0.476379216 -0.76016438
vn -0.554274142 0.494797677 -0.623127222
vn -0.846275449 0.395428181 -0.0514484905
vn -0.405068249 0.437425703 -0.625813603
vn -0.752533257 0.63115871 0.151722521
vn 0.441998035 0.714645863 -0.490431786
vn 0.234540284 0.283686697 -0.696174383
vn 0.597997069 0.57473886 -0.449600339
vn -0.00558303762 -0.37383762 0.828674853
vn -0.317611665 -0.157512724 0.715324879
vn -0.49303335 -0.587853372 0.468022317
vn -0.737261713 0.44082427 -0.473243475
vn -0.183395416 -0.169913322 -0.968576849
vn -0.777237058 0.630029917 -0.301080734
vn 0.597997069 0.57473886 -0.449600339
vn 0.685112536 0.433365881 -0.451118141
vn 0.695623636 0.486463904 -0.233436555
vn -0.0600768067 0.284313828 0.627474785
vn 0.125150874 -0.443178684 0.40719381
vn -0.0962228775 0.810745776 0.438718259
vn 0.278674066 0.750703931 -0.522340536
vn 0.855439425 -0.292522579 -0.227457404
vn 0.883169413 -0.106507197 -0.239015728
vn -0.918718278 0.277008981 0.082179606
vn -0.628010213 0.404291242 -0.015048001
vn -0.59904027 0.503324091 0.143253788
vn -0.49303335 -0.587853372 0.468022317
vn -0.317611665 -0.157512724 0.715324879
vn -0.291799039 -0.23109819 0.81048727
vn -0.0122591415 0.0695226043 0.908995152
vn -0.338394195 -0.294528037 0.775833249
vn -0.49303335 -0.587853372 0.468022317
vn 0.425195247 0.529140949 0.586407363
vn 0.380646437 0.700703442 0.44591707
vn 0.301549584 0.163060352 0.793800831
vn -0.327747583 0.577808201 0.694610834
vn 0.425195247 0.529140949 0.586407363
vn 0.301549584 0.163060352 0.793800831
vn -0.344717652 0.476379216 -0.76016438
vn -0.630244255 0.121855401 -0.682219148
vn 0.160153612 0.491944671 -0.832818389
vn -0.630244255 0.121855401 -0.682219148
vn -0.344717652 0.476379216 -0.76016438
vn -0.291292369 0.361600846 -0.785386384
vn 0.272927374 0.147498757 0.893454134
vn 0.112248555 -0.378017992 0.715428114
vn -0.0941671208 0.65327841 0.672016203
vn 0.0761032626 0.120822787 -0.823425591
vn -0.724467814 0.480499625 -0.556580782
vn -0.554274142 0.494797677 -0.623127222
vn -0.0261313841 0.809528708 -0.544933617
vn 0.145812422 0.0219114851 -0.310245484
vn 0.139106154 0.310361207 -0.554140747
vn 0.628350198 0.45127216 -0.317758232
vn -0.0261313841 0.809528708 -0.544933617
vn 0.234540284 0.283686697 -0.696174383
vn 0.358681202 0.555100381 -0.701230824
vn 0.883169413 -0.106507197 -0.239015728
vn 0.418506831 -0.225806564 -0.57170701
vn 0.649186492 0.552420318 0.405815721
vn 0.395233303 0.236905083 0.761275172
vn 0.388514757 0.0287914015 0.863918364
vn 0.695623636 0.486463904 -0.233436555
vn 0.824396491 0.422103435 -0.125429392
vn 0.0425987393 0.811942339 0.610460639
vn -0.468804479 0.856243968 -0.203511745
vn -0.472474188 0.331521779 -0.326862484
vn -0.761856973 0.122103915 -0.413471997
vn -0.375092268 0.325480789 0.203041449
vn 0.109477587 0.003253242 -0.972692192
vn -0.836372733 0.0432956591 0.11667981
vn -0.568512976 0.512461305 0.155876726
vn -0.547761381 0.131900415 0.623133838
vn -0.330096185 0.587650537 0.343579352
vn 0.824396491 0.422103435 -0.125429392
vn 0.695623636 0.486463904 -0.233436555
vn 0.685112536 0.433365881 -0.451118141
vn -0.266446918 0.427417785 0.835709512
vn -0.594305277 -0.0930722728 0.701794744
vn 0.518179536 0.42154792 0.630836189
vn 0.674626887 0.486042053 0.490674645
vn 0.71574682 0.600592494 -0.0569188036
vn 0.605968773 0.699556887 0.239552662
vn -0.328694105 0.294511855 0.149077624
vn -0.901758671 0.175080284 0.0281363241
vn -0.846275449 0.395428181 -0.0514484905
vn -0.846275449 0.395428181 -0.0514484905
vn -0.901758671 0.175080284 0.0281363241
vn -0.291292369 0.361600846 -0.785386384
vn -0.554274142 0.494797677 -0.623127222
vn -0.846275449 0.395428181 -0.0514484905
vn -0.291292369 0.361600846 -0.785386384
vn 0.447226286 0.725692153 0.433396071
vn 0.550620377 0.601084948 0.60023433
vn -0.137744263 0.6120767 0.197176054
vn -0.554274142 0.494797677 -0.623127222
vn -0.405068249 0.437425703 -0.625813603
vn -0.846275449 0.395428181 -0.0514484905
vn -0.405068249 0.437425703 -0.625813603
vn -0.554274142 0.494797677 -0.623127222
vn -0.724467814 0.480499625 -0.556580782
vn -0.918718278 0.277008981 0.082179606
vn -0.59904027 0.503324091 0.143253788
vn -0.913576126 0.316803753 0.143909708
vn 0.605968773 0.699556887 0.239552662
vn 0.441998035 0.714645863 -0.490431786
vn 0.597997069 0.57473886 -0.449600339
vn -0.768725753 0.46427086 0.357660055
vn -0.352731377 0.531930268 0.624753118
vn -0.838690639 0.216442391 0.403326601
vn -0.752008855 0.461680502 0.516412437
vn -0.768725753 0.46427086 0.357660055
vn -0.838690639 0.216442391 0.403326601
vn 0.815338135 0.499748409 -0.23205249
vn 0.357624233 0.570157826 -0.714613199
vn 0.078662917 -0.264342934 -0.703679621
vn 0.234540284 0.283686697 -0.696174383
vn 0.078662917 -0.264342934 -0.703679621
vn 0.357624233 0.570157826 -0.714613199
vn 0.436373353 0.911316991 0.252413273
vn 0.352614105 0.498841017 0.660223246
vn 1.0005821 0.401253581 0.0244555566
vn 0.230548382 0.0113741774 -0.836939096
vn -0.0384908468 0.346024454 -0.859841287
vn 0.1501109 0.324688941 -0.946496904
vn -0.724467814 0.480499625 -0.556580782
vn 0.230548382 0.0113741774 -0.836939096
vn 0.1501109 0.324688941 -0.946496904
vn 0.597997069 0.57473886 -0.449600339
vn 0.357624233 0.570157826 -0.714613199
vn 0.685112536 0.433365881 -0.451118141
vn 0.436373353 0.911316991 0.252413273
vn 1.0005821 0.401253581 0.0244555566
vn 0.160153612 0.491944671 -0.832818389
vn 0.446034491 -0.0764467418 0.74088037
vn 0.550620377 0.601084948 0.60023433
vn 0.352614105 0.498841017 0.660223246
vn 0.292821318 -0.0979026258 0.875518262
vn 0.540964425 0.264937222 0.692283213
vn -0.291799039 -0.23109819 0.81048727
vn 0.0200695433 0.643877625 -0.616137087
vn -0.557382822 0.386755615 -0.679342508
vn 0.1501109 0.324688941 -0.946496904
vn 0.447226286 0.725692153 0.433396071
vn 0.380646437 0.700703442 0.44591707
vn 0.824396491 0.422103435 -0.125429392
vn 0.518179536 0.42154792 0.630836189
vn 0.301549584 0.163060352 0.793800831
vn -0.137744263 0.6120767 0.197176054
vn 0.819300592 -0.252402633 -0.159093395
vn 0.674626887 0.486042053 0.490674645
vn -0.204988822 0.549087763 -0.4011482
vn -0.405068249 0.437425703 -0.625813603
vn -0.724467814 0.480499625 -0.556580782
vn -0.00649833167 0.210665897 -0.889281332
vn 0.278674066 0.750703931 -0.522340536
vn 0.528035939 0.634314477 -0.444264144
vn 0.71574682 0.600592494 -0.0569188036
vn 0.278674066 0.750703931 -0.522340536
vn 0.71574682 0.600592494 -0.0569188036
vn 0.819300592 -0.252402633 -0.159093395
vn 0.301549584 0.163060352 0.793800831
vn 0.619952083 0.100330904 0.230327755
vn -0.327747583 0.577808201 0.694610834
vn -0.490036577 0.00678148679 -0.456390709
vn 0.109885871 0.0190619472 -0.836134553
vn 0.078662917 -0.264342934 -0.703679621
vn -0.836372733 0.0432956591 0.11667981
vn 0.109477587 0.003253242 -0.972692192
vn -0.472474188 0.331521779 -0.326862484
vn 0.078662917 -0.264342934 -0.703679621
vn 0.234540284 0.283686697 -0.696174383
vn 0.139106154 0.310361207 -0.554140747
vn -0.250724167 0.316513926 -0.824025631
vn 0.0200695433 0.643877625 -0.616137087
vn -0.504301906 0.475821674 -0.273650944
vn -0.416177005 -0.39005965 -0.89087671
vn 0.519483507 0.343528062 -0.594849586
vn 0.65357089 -0.600956082 -0.363471597
vn -0.416177005 -0.39005965 -0.89087671
vn -0.0384908468 0.346024454 -0.859841287
vn 0.519483507 0.343528062 -0.594849586
vn -0.0962228775 0.810745776 0.438718259
vn -0.119981982 0.859493613 0.32054171
vn 0.153941467 0.851221919 0.412009358
vn -0.291799039 -0.23109819 0.81048727
vn -0.0122591415 0.0695226043 0.908995152
vn -0.49303335 -0.587853372 0.468022317
vn 0.605968773 0.699556887 0.239552662
vn 0.597997069 0.57473886 -0.449600339
vn 0.709736586 0.448237419 0.32401374
vn -0.643451035 -0.119859621 0.679919004
vn -0.888928592 0.08025112 0.102408424
vn 0.378749311 -0.00215990609 0.484034508
vn 0.230548382 0.0113741774 -0.836939096
vn 0.0761032626 0.120822787 -0.823425591
vn 1.08501542 -0.398967355 -0.142118409
vn 0.446034491 -0.0764467418 0.74088037
vn -0.439524204 -0.0236459505 0.76088351
vn -0.568512976 0.512461305 0.155876726
vn -0.752533257 0.63115871 0.151722521
vn -0.854337931 0.334559292 -0.185238495
vn -0.385176003 0.500297368 -0.205214769
vn 0.273918599 0.877915978 -0.432741523
vn -0.204988822 0.549087763 -0.4011482
vn 0.674626887 0.486042053 0.490674645
vn 0.288671941 -0.387405843 0.360270113
vn 0.125150874 -0.443178684 0.40719381
vn -0.0600768067 0.284313828 0.627474785
vn 0.272927374 0.147498757 0.893454134
vn 0.347907573 -0.196164027 0.859122932
vn 0.450514257 -0.198820353 0.82793802
vn -0.918718278 0.277008981 0.082179606
vn 0.112248555 -0.378017992 0.715428114
vn -0.961695015 -0.187804744 0.199679524
vn -0.961695015 -0.187804744 0.199679524
vn -0.628010213 0.404291242 -0.015048001
vn -0.918718278 0.277008981 0.082179606
vn -0.141481906 0.093268387 -0.886404097
vn -0.250262618 0.736789584 -0.714561462
vn 0.0200695433 0.643877625 -0.616137087
vn 0.883169413 -0.106507197 -0.239015728
vn 0.855439425 -0.292522579 -0.227457404
vn 0.945437312 -0.339989871 -0.111725993
vn 0.540964425 0.264937222 0.692283213
vn 0.292821318 -0.0979026258 0.875518262
vn 0.388514757 0.0287914015 0.863918364
vn -0.439524204 -0.0236459505 0.76088351
vn -0.763695717 0.219285205 0.151039869
vn -0.547761381 0.131900415 0.623133838
vn 0.301549584 0.163060352 0.793800831
vn 0.518179536 0.42154792 0.630836189
vn 0.619952083 0.100330904 0.230327755
vn 0.674626887 0.486042053 0.490674645
vn 0.566976368 0.350153178 0.746822596
vn 0.0393096395 0.105369486 0.734090984
vn 0.145812422 0.0219114851 -0.310245484
vn 0.109885871 0.0190619472 -0.836134553
vn -0.490036577 0.00678148679 -0.456390709
vn 0.0761032626 0.120822787 -0.823425591
vn 0.287860125 0.511943817 -0.737302423
vn 1.08501542 -0.398967355 -0.142118409
vn 0.139106154 0.310361207 -0.554140747
vn 0.234540284 0.283686697 -0.696174383
vn -0.0261313841 0.809528708 -0.544933617
vn -0.416177005 -0.39005965 -0.89087671
vn -0.205976307 -0.495502383 -0.781208694
vn -0.0384908468 0.346024454 -0.859841287
vn -0.227028817 0.142990291 0.899266839
vn -0.59904027 0.503324091 0.143253788
vn 0.378435045 -0.180672333 0.788992405
vn -0.06840799 -0.0105061773 0.950724483
vn -0.752008855 0.461680502 0.516412437
vn 0.378435045 -0.180672333 0.788992405
vn 0.695623636 0.486463904 -0.233436555
vn 0.709736586 0.448237419 0.32401374
vn 0.597997069 0.57473886 -0.449600339
vn -0.901758671 0.175080284 0.0281363241
vn -0.630244255 0.121855401 -0.682219148
vn -0.291292369 0.361600846 -0.785386384
vn 0.855439425 -0.292522579 -0.227457404
vn 0.278674066 0.750703931 -0.522340536
vn 0.819300592 -0.252402633 -0.159093395
vn 0.40212065 0.47315383 -0.574343503
vn 0.550620377 0.601084948 0.60023433
vn 0.447226286 0.725692153 0.433396071
vn 0.441998035 0.714645863 -0.490431786
vn 0.628350198 0.45127216 -0.317758232
vn 0.234540284 0.283686697 -0.696174383
vn -0.594305277 -0.0930722728 0.701794744
vn -0.266446918 0.427417785 0.835709512
vn -0.330096185 0.587650537 0.343579352
vn -0.737261713 0.44082427 -0.473243475
vn -0.504301906 0.475821674 -0.273650944
vn 0.0200695433 0.643877625 -0.616137087
vn 0.815338135 0.499748409 -0.23205249
vn 0.824396491 0.422103435 -0.125429392
vn 0.685112536 0.433365881 -0.451118141
vn -0.199232623 0.072418265 -0.792481065
vn 0.109477587 0.003253242 -0.972692192
vn -0.375092268 0.325480789 0.203041449
vn 0.287860125 0.511943817 -0.737302423
vn 0.40212065 0.47315383 -0.574343503
vn -0.136416197 0.530840516 -0.41099149
vn 0.436373353 0.911316991 0.252413273
vn 0.160153612 0.491944671 -0.832818389
vn -0.709940016 0.516160727 0.383224994
vn 0.550620377 0.601084948 0.60023433
vn 0.446034491 -0.0764467418 0.74088037
vn -0.137744263 0.6120767 0.197176054
vn 0.112248555 -0.378017992 0.715428114
vn 0.272927374 0.147498757 0.893454134
vn 0.680171609 -0.230963454 0.663762152
vn -0.846275449 0.395428181 -0.0514484905
vn 0.000331125193 0.828641295 -0.300659984
vn -0.328694105 0.294511855 0.149077624
vn 0.0425987393 0.811942339 0.610460639
vn 0.649186492 0.552420318 0.405815721
vn 0.695623636 0.486463904 -0.233436555
vn -0.836372733 0.0432956591 0.11667981
vn -0.504301906 0.475821674 -0.273650944
vn -0.375092268 0.325480789 0.203041449
vn 0.358681202 0.555100381 -0.701230824
vn 0.628350198 0.45127216 -0.317758232
vn 0.441998035 0.714645863 -0.490431786
vn -0.877655029 0.26685667 -0.14778313
vn -0.761856973 0.122103915 -0.413471997
vn -0.199232623 0.072418265 -0.792481065
vn -0.338394195 -0.294528037 0.775833249
vn -0.119981982 0.859493613 0.32054171
vn -0.913576126 0.316803753 0.143909708
vn -0.768725753 0.46427086 0.357660055
vn -0.0941671208 0.65327841 0.672016203
vn 0.000331125193 0.828641295 -0.300659984
vn 0.65357089 -0.600956082 -0.363471597
vn -0.275696665 -0.602439463 -0.750869334
vn -0.416177005 -0.39005965 -0.89087671
vn 1.08501542 -0.398967355 -0.142118409
vn 0.109885871 0.0190619472 -0.836134553
vn 0.145812422 0.0219114851 -0.310245484
vn 0.112248555 -0.378017992 0.715428114
vn -0.328694105 0.294511855 0.149077624
vn -0.0941671208 0.65327841 0.672016203
vn -0.554274142 0.494797677 -0.623127222
vn -0.344717652 0.476379216 -0.76016438
vn 0.0761032626 0.120822787 -0.823425591
vn 0.078662917 -0.264342934 -0.703679621
vn 0.109885871 0.0190619472 -0.836134553
vn 0.815338135 0.499748409 -0.23205249
vn -0.557382822 0.386755615 -0.679342508
vn -0.250724167 0.316513926 -0.824025631
vn -0.00649833167 0.210665897 -0.889281332
vn 0.112248555 -0.378017992 0.715428114
vn -0.918718278 0.277008981 0.082179606
vn -0.710092366 0.200972065 0.593658984
vn -0.49303335 -0.587853372 0.468022317
vn -0.338394195 -0.294528037 0.775833249
vn -0.00558303762 -0.37383762 0.828674853
vn -0.561204016 0.253827035 0.689587116
vn -0.547761381 0.131900415 0.623133838
vn -0.763695717 0.219285205 0.151039869
vn -0.352731377 0.531930268 0.624753118
vn -0.328565031 0.358484477 0.844310164
vn -0.888928592 0.08025112 0.102408424
vn -0.724467814 0.480499625 -0.556580782
vn -0.557382822 0.386755615 -0.679342508
vn -0.00649833167 0.210665897 -0.889281332
vn 0.674626887 0.486042053 0.490674645
vn 0.837944984 0.572595894 0.245507583
vn 0.273918599 0.877915978 -0.432741523
vn -0.119981982 0.859493613 0.32054171
vn -0.442563295 0.228589296 0.640765429
vn -0.918718278 0.277008981 0.082179606
vn 0.273918599 0.877915978 -0.432741523
vn -0.105272479 -0.0513857193 -0.888383985
vn -0.204988822 0.549087763 -0.4011482
vn -0.752533257 0.63115871 0.151722521
vn -0.385176003 0.500297368 -0.205214769
vn -0.768725753 0.46427086 0.357660055
vn 0.153941467 0.851221919 0.412009358
vn -0.119981982 0.859493613 0.32054171
vn -0.338394195 -0.294528037 0.775833249
vn 0.352614105 0.498841017 0.660223246
vn -0.439524204 -0.0236459505 0.76088351
vn 0.446034491 -0.0764467418 0.74088037
vn 0.380646437 0.700703442 0.44591707
vn 0.425195247 0.529140949 0.586407363
vn 0.0425987393 0.811942339 0.610460639
vn -0.250262618 0.736789584 -0.714561462
vn -0.737261713 0.44082427 -0.473243475
vn 0.0200695433 0.643877625 -0.616137087
vn -0.266446918 0.427417785 0.835709512
vn 0.518179536 0.42154792 0.630836189
vn -0.330096185 0.587650537 0.343579352
vn 0.0584851578 -0.965005517 -0.390710443
vn -0.183395416 -0.169913322 -0.968576849
vn -0.141481906 0.093268387 -0.886404097
vn -0.838690639 0.216442391 0.403326601
vn -0.643451035 -0.119859621 0.679919004
vn -0.752008855 0.461680502 0.516412437
vn -0.328565031 0.358484477 0.844310164
vn -0.761856973 0.122103915 -0.413471997
vn -0.806946337 0.393824011 0.338621557
vn -0.901758671 0.175080284 0.0281363241
vn -0.561204016 0.253827035 0.689587116
vn -0.763695717 0.219285205 0.151039869
vn -0.752008855 0.461680502 0.516412437
vn -0.0941671208 0.65327841 0.672016203
vn -0.768725753 0.46427086 0.357660055
vn -0.136416197 0.530840516 -0.41099149
vn 0.709082901 0.468281388 -0.475768626
vn 0.109885871 0.0190619472 -0.836134553
vn 0.441998035 0.714645863 -0.490431786
vn 0.605968773 0.699556887 0.239552662
vn 0.528035939 0.634314477 -0.444264144
vn 0.125150874 -0.443178684 0.40719381
vn -0.442563295 0.228589296 0.640765429
vn -0.0962228775 0.810745776 0.438718259
vn -0.777237058 0.630029917 -0.301080734
vn -0.504301906 0.475821674 -0.273650944
vn -0.737261713 0.44082427 -0.473243475
vn -0.0384908468 0.346024454 -0.859841287
vn 0.230548382 0.0113741774 -0.836939096
vn 1.08501542 -0.398967355 -0.142118409
vn -0.328565031 0.358484477 0.844310164
vn 0.378749311 -0.00215990609 0.484034508
vn -0.888928592 0.08025112 0.102408424
vn -0.913576126 0.316803753 0.143909708
vn -0.119981982 0.859493613 0.32054171
vn -0.918718278 0.277008981 0.082179606
vn -0.490036577 0.00678148679 -0.456390709
vn 0.078662917 -0.264342934 -0.703679621
vn 0.139106154 0.310361207 -0.554140747
vn 0.273918599 0.877915978 -0.432741523
vn 0.837944984 0.572595894 0.245507583
vn -0.105272479 -0.0513857193 -0.888383985
vn 0.358681202 0.555100381 -0.701230824
vn 0.441998035 0.714645863 -0.490431786
vn 0.528035939 0.634314477 -0.444264144
vn 0.883169413 -0.106507197 -0.239015728
vn 0.358681202 0.555100381 -0.701230824
vn 0.278674066 0.750703931 -0.522340536
vn 0.109885871 0.0190619472 -0.836134553
vn 0.709082901 0.468281388 -0.475768626
vn 0.815338135 0.499748409 -0.23205249
vn 0.395233303 0.236905083 0.761275172
vn -0.0600768067 0.284313828 0.627474785
vn 0.388514757 0.0287914015 0.863918364
vn 0.540964425 0.264937222 0.692283213
vn -0.0600768067 0.284313828 0.627474785
vn -0.0122591415 0.0695226043 0.908995152
vn 0.749444842 0.690582871 0.13174808
vn 0.709082901 0.468281388 -0.475768626
vn 0.40212065 0.47315383 -0.574343503
vn 0.749444842 0.690582871 0.13174808
vn 0.40212065 0.47315383 -0.574343503
vn 0.447226286 0.725692153 0.433396071
vn -0.0122591415 0.0695226043 0.908995152
vn -0.0600768067 0.284313828 0.627474785
vn 0.153941467 0.851221919 0.412009358
vn -0.568512976 0.512461305 0.155876726
vn -0.137744263 0.6120767 0.197176054
vn 0.446034491 -0.0764467418 0.74088037
vn -0.330096185 0.587650537 0.343579352
vn -0.137744263 0.6120767 0.197176054
vn -0.568512976 0.512461305 0.155876726
vn 0.519483507 0.343528062 -0.594849586
vn -0.0261313841 0.809528708 -0.544933617
vn 0.628350198 0.45127216 -0.317758232
vn 0.153941467 0.851221919 0.412009358
vn -0.338394195 -0.294528037 0.775833249
vn -0.0122591415 0.0695226043 0.908995152
vn -0.761856973 0.122103915 -0.413471997
vn -0.472474188 0.331521779 -0.326862484
vn 0.109477587 0.003253242 -0.972692192
vn 0.450514257 -0.198820353 0.82793802
vn -0.59904027 0.503324091 0.143253788
vn 0.680171609 -0.230963454 0.663762152
vn -0.472474188 0.331521779 -0.326862484
vn -0.854337931 0.334559292 -0.185238495
vn -0.836372733 0.0432956591 0.11667981
vn -0.838690639 0.216442391 0.403326601
vn -0.888928592 0.08025112 0.102408424
vn -0.643451035 -0.119859621 0.679919004
vn -0.628010213 0.404291242 -0.015048001
vn 0.680171609 -0.230963454 0.663762152
vn -0.59904027 0.503324091 0.143253788
vn 0.272927374 0.147498757 0.893454134
vn 0.450514257 -0.198820353 0.82793802
vn 0.680171609 -0.230963454 0.663762152
vn -0.0962228775 0.810745776 0.438718259
vn 0.153941467 0.851221919 0.412009358
vn -0.0600768067 0.284313828 0.627474785
vn 0.160153612 0.491944671 -0.832818389
vn 1.0005821 0.401253581 0.0244555566
vn 0.40212065 0.47315383 -0.574343503
vn 0.278674066 0.750703931 -0.522340536
vn 0.358681202 0.555100381 -0.701230824
vn 0.528035939 0.634314477 -0.444264144
vn 1.08501542 -0.398967355 -0.142118409
vn 0.145812422 0.0219114851 -0.310245484
vn 0.189414695 0.423805594 -0.618246078
vn -0.0384908468 0.346024454 -0.859841287
vn 0.0977801681 -0.894837022 -0.425502092
vn 0.212486967 -0.00761167705 -0.890001237
vn 0.447226286 0.725692153 0.433396071
vn -0.137744263 0.6120767 0.197176054
vn 0.380646437 0.700703442 0.44591707
vn 0.395233303 0.236905083 0.761275172
vn 0.649186492 0.552420318 0.405815721
vn 0.425195247 0.529140949 0.586407363
vn -0.328565031 0.358484477 0.844310164
vn -0.468804479 0.856243968 -0.203511745
vn -0.761856973 0.122103915 -0.413471997
vn -0.0384908468 0.346024454 -0.859841287
vn -0.0261313841 0.809528708 -0.544933617
vn 0.519483507 0.343528062 -0.594849586
vn 0.824396491 0.422103435 -0.125429392
vn 0.709082901 0.468281388 -0.475768626
vn 0.749444842 0.690582871 0.13174808
vn -0.806946337 0.393824011 0.338621557
vn -0.761856973 0.122103915 -0.413471997
vn -0.877655029 0.26685667 -0.14778313
vn -0.317611665 -0.157512724 0.715324879
vn 0.292821318 -0.0979026258 0.875518262
vn -0.291799039 -0.23109819 0.81048727
vn 0.528035939 0.634314477 -0.444264144
vn 0.605968773 0.699556887 0.239552662
vn 0.71574682 0.600592494 -0.0569188036
vn -0.199232623 0.072418265 -0.792481065
vn -0.761856973 0.122103915 -0.413471997
vn 0.109477587 0.003253242 -0.972692192
vn 0.855439425 -0.292522579 -0.227457404
vn 0.819300592 -0.252402633 -0.159093395
vn 0.945437312 -0.339989871 -0.111725993
vn 0.388514757 0.0287914015 0.863918364
vn 0.566976368 0.350153178 0.746822596
vn 0.709736586 0.448237419 0.32401374
vn 0.815338135 0.499748409 -0.23205249
vn 0.685112536 0.433365881 -0.451118141
vn 0.357624233 0.570157826 -0.714613199
vn -0.806946337 0.393824011 0.338621557
vn -0.643451035 0.581675947 0.0594527945
vn -0.328565031 0.358484477 0.844310164
vn -0.442563295 0.228589296 0.640765429
vn -0.710092366 0.200972065 0.593658984
vn -0.918718278 0.277008981 0.082179606
vn 0.288671941 -0.387405843 0.360270113
vn -0.327747583 0.577808201 0.694610834
vn 0.619952083 0.100330904 0.230327755
vn -0.204988822 0.549087763 -0.4011482
vn 0.945437312 -0.339989871 -0.111725993
vn 0.819300592 -0.252402633 -0.159093395
vn 0.945437312 -0.339989871 -0.111725993
vn -0.204988822 0.549087763 -0.4011482
vn -0.473428309 0.268505752 -0.0625823885
vn -0.105272479 -0.0513857193 -0.888383985
vn -0.473428309 0.268505752 -0.0625823885
vn -0.204988822 0.549087763 -0.4011482
vn 0.447226286 0.725692153 0.433396071
vn 0.824396491 0.422103435 -0.125429392
vn 0.749444842 0.690582871 0.13174808
vn -0.913576126 0.316803753 0.143909708
vn -0.227028817 0.142990291 0.899266839
vn -0.474550396 -0.589894831 0.571430445
vn -0.913576126 0.316803753 0.143909708
vn -0.59904027 0.503324091 0.143253788
vn -0.227028817 0.142990291 0.899266839
vn -0.385176003 0.500297368 -0.205214769
vn -0.468804479 0.856243968 -0.203511745
vn -0.352731377 0.531930268 0.624753118
vn -0.338394195 -0.294528037 0.775833249
vn -0.913576126 0.316803753 0.143909708
vn -0.474550396 -0.589894831 0.571430445
vn -0.709940016 0.516160727 0.383224994
vn 0.160153612 0.491944671 -0.832818389
vn -0.630244255 0.121855401 -0.682219148
vn 0.519483507 0.343528062 -0.594849586
vn 0.562668502 0.128287941 -0.619887769
vn 0.65357089 -0.600956082 -0.363471597
vn 0.519483507 0.343528062 -0.594849586
vn 0.628350198 0.45127216 -0.317758232
vn 0.562668502 0.128287941 -0.619887769
vn 0.1501109 0.324688941 -0.946496904
vn 0.212486967 -0.00761167705 -0.890001237
vn 0.0200695433 0.643877625 -0.616137087
vn -0.183395416 -0.169913322 -0.968576849
vn -0.737261713 0.44082427 -0.473243475
vn -0.141481906 0.093268387 -0.886404097
vn -0.854337931 0.334559292 -0.185238495
vn -0.250724167 0.316513926 -0.824025631
vn -0.504301906 0.475821674 -0.273650944
vn -0.375092268 0.325480789 0.203041449
vn -0.504301906 0.475821674 -0.273650944
vn -0.777237058 0.630029917 -0.301080734
vn 0.566976368 0.350153178 0.746822596
vn 0.605968773 0.699556887 0.239552662
vn 0.709736586 0.448237419 0.32401374
vn 0.562668502 0.128287941 -0.619887769
vn 0.358681202 0.555100381 -0.701230824
vn 0.418506831 -0.225806564 -0.57170701
vn 0.378435045 -0.180672333 0.788992405
vn 0.450514257 -0.198820353 0.82793802
vn -0.06840799 -0.0105061773 0.950724483
vn 0.287860125 0.511943817 -0.737302423
vn 0.109885871 0.0190619472 -0.836134553
vn 1.08501542 -0.398967355 -0.142118409
vn -0.836372733 0.0432956591 0.11667981
vn -0.854337931 0.334559292 -0.185238495
vn -0.504301906 0.475821674 -0.273650944
vn 0.40212065 0.47315383 -0.574343503
vn 1.0005821 0.401253581 0.0244555566
vn 0.550620377 0.601084948 0.60023433
vn 0.674626887 0.486042053 0.490674645
vn 0.819300592 -0.252402633 -0.159093395
vn 0.71574682 0.600592494 -0.0569188036
vn -0.643451035 0.581675947 0.0594527945
vn 0.378749311 -0.00215990609 0.484034508
vn -0.328565031 0.358484477 0.844310164
vn -0.338394195 -0.294528037 0.775833249
vn -0.474550396 -0.589894831 0.571430445
vn -0.00558303762 -0.37383762 0.828674853
vn -0.442563295 0.228589296 0.640765429
vn 0.125150874 -0.443178684 0.40719381
vn -0.594305277 -0.0930722728 0.701794744
vn -0.547761381 0.131900415 0.623133838
vn -0.568512976 0.512461305 0.155876726
vn -0.439524204 -0.0236459505 0.76088351
vn 0.395233303 0.236905083 0.761275172
vn -0.327747583 0.577808201 0.694610834
vn -0.0600768067 0.284313828 0.627474785
vn 0.709736586 0.448237419 0.32401374
vn 0.649186492 0.552420318 0.405815721
vn 0.388514757 0.0287914015 0.863918364
vn 0.112248555 -0.378017992 0.715428114
vn 0.680171609 -0.230963454 0.663762152
vn -0.628010213 0.404291242 -0.015048001
vn 0.0584851578 -0.965005517 -0.390710443
vn -0.141481906 0.093268387 -0.886404097
vn 0.0977801681 -0.894837022 -0.425502092
vn 0.0977801681 -0.894837022 -0.425502092
vn -0.141481906 0.093268387 -0.886404097
vn 0.212486967 -0.00761167705 -0.890001237
vn 0.380646437 0.700703442 0.44591707
vn -0.137744263 0.6120767 0.197176054
vn 0.301549584 0.163060352 0.793800831
vn 0.352614105 0.498841017 0.660223246
vn 0.436373353 0.911316991 0.252413273
vn -0.709940016 0.516160727 0.383224994
vn -0.561204016 0.253827035 0.689587116
vn -0.328694105 0.294511855 0.149077624
vn -0.710092366 0.200972065 0.593658984
vn 0.112248555 -0.378017992 0.715428114
vn -0.710092366 0.200972065 0.593658984
vn -0.328694105 0.294511855 0.149077624
vn -0.724467814 0.480499625 -0.556580782
vn 0.0761032626 0.120822787 -0.823425591
vn 0.230548382 0.0113741774 -0.836939096
vn -0.490036577 0.00678148679 -0.456390709
vn 0.139106154 0.310361207 -0.554140747
vn 0.145812422 0.0219114851 -0.310245484
vn -0.439524204 -0.0236459505 0.76088351
vn -0.709940016 0.516160727 0.383224994
vn -0.763695717 0.219285205 0.151039869
vn 0.40212065 0.47315383 -0.574343503
vn 0.709082901 0.468281388 -0.475768626
vn -0.136416197 0.530840516 -0.41099149
vn 0.619952083 0.100330904 0.230327755
vn 0.518179536 0.42154792 0.630836189
vn 0.288671941 -0.387405843 0.360270113
vn -0.737261713 0.44082427 -0.473243475
vn -0.250262618 0.736789584 -0.714561462
vn -0.141481906 0.093268387 -0.886404097
vn 0.0977801681 -0.894837022 -0.425502092
vn -0.0384908468 0.346024454 -0.859841287
vn -0.205976307 -0.495502383 -0.781208694
vn -0.763695717 0.219285205 0.151039869
vn -0.630244255 0.121855401 -0.682219148
vn -0.901758671 0.175080284 0.0281363241
vn 0.000331125193 0.828641295 -0.300659984
vn -0.752533257 0.63115871 0.151722521
vn -0.768725753 0.46427086 0.357660055
vn 0.0425987393 0.811942339 0.610460639
vn 0.824396491 0.422103435 -0.125429392
vn 0.380646437 0.700703442 0.44591707
vn -0.119981982 0.859493613 0.32054171
vn -0.0962228775 0.810745776 0.438718259
vn -0.442563295 0.228589296 0.640765429
vn -0.0261313841 0.809528708 -0.544933617
vn -0.0384908468 0.346024454 -0.859841287
vn 0.189414695 0.423805594 -0.618246078
vn 0.0393096395 0.105369486 0.734090984
vn 0.837944984 0.572595894 0.245507583
vn 0.674626887 0.486042053 0.490674645
vn 0.562668502 0.128287941 -0.619887769
vn 0.628350198 0.45127216 -0.317758232
vn 0.358681202 0.555100381 -0.701230824
vn 0.0200695433 0.643877625 -0.616137087
vn 0.212486967 -0.00761167705 -0.890001237
vn -0.141481906 0.093268387 -0.886404097
vn 0.112248555 -0.378017992 0.715428114
vn -0.628010213 0.404291242 -0.015048001
vn 0.350681812 -0.627628863 0.658664227
vn -0.291799039 -0.23109819 0.81048727
vn 0.540964425 0.264937222 0.692283213
vn -0.0122591415 0.0695226043 0.908995152
vn -0.0384908468 0.346024454 -0.859841287
vn 1.08501542 -0.398967355 -0.142118409
vn 0.189414695 0.423805594 -0.618246078
vn -0.0261313841 0.809528708 -0.544933617
vn 0.189414695 0.423805594 -0.618246078
vn 0.145812422 0.0219114851 -0.310245484
vn 0.1501109 0.324688941 -0.946496904
vn -0.0384908468 0.346024454 -0.859841287
vn 0.212486967 -0.00761167705 -0.890001237
vn -0.877655029 0.26685667 -0.14778313
vn -0.643451035 0.581675947 0.0594527945
vn -0.806946337 0.393824011 0.338621557
vn -0.854337931 0.334559292 -0.185238495
vn -0.405068249 0.437425703 -0.625813603
vn -0.250724167 0.316513926 -0.824025631
vn 0.351005703 0.0578764081 0.919449627
vn -0.752008855 0.461680502 0.516412437
vn 0.0431329943 0.073496297 0.996362209
vn -0.752008855 0.461680502 0.516412437
vn 0.351005703 0.0578764081 0.919449627
vn 0.272927374 0.147498757 0.893454134
vn -0.328565031 0.358484477 0.844310164
vn -0.352731377 0.531930268 0.624753118
vn -0.468804479 0.856243968 -0.203511745
vn 0.0200695433 0.643877625 -0.616137087
vn -0.250724167 0.316513926 -0.824025631
vn -0.557382822 0.386755615 -0.679342508
vn -0.594305277 -0.0930722728 0.701794744
vn -0.710092366 0.200972065 0.593658984
vn -0.442563295 0.228589296 0.640765429
vn -0.59904027 0.503324091 0.143253788
vn 0.450514257 -0.198820353 0.82793802
vn 0.378435045 -0.180672333 0.788992405
vn -0.547761381 0.131900415 0.623133838
vn -0.561204016 0.253827035 0.689587116
vn -0.710092366 0.200972065 0.593658984
vn 0.518179536 0.42154792 0.630836189
vn -0.137744263 0.6120767 0.197176054
vn -0.330096185 0.587650537 0.343579352
vn -0.405068249 0.437425703 -0.625813603
vn -0.00649833167 0.210665897 -0.889281332
vn -0.250724167 0.316513926 -0.824025631
vn -0.0941671208 0.65327841 0.672016203
vn -0.328694105 0.294511855 0.149077624
vn 0.000331125193 0.828641295 -0.300659984
vn 0.352614105 0.498841017 0.660223246
vn -0.709940016 0.516160727 0.383224994
vn -0.439524204 -0.0236459505 0.76088351
vn -0.768725753 0.46427086 0.357660055
vn -0.385176003 0.500297368 -0.205214769
vn -0.352731377 0.531930268 0.624753118
g Group26744
f 55/1/1 19/2/2 94/3/3
f 10/4/4 3/5/5 4/6/6
f 11/7/7 4/8/8 3/9/9
f 9/10/10 10/11/11 1/12/12
f 1/13/13 6/14/14 5/15/15
f 2/16/16 1/17/17 10/18/18
f 10/19/19 6/20/20 2/21/21
f 10/22/22 11/23/23 3/24/24
f 3/25/25 8/26/26 7/27/27
f 4/28/28 7/29/29 10/30/30
f 11/31/31 8/32/32 4/33/33
f 6/34/34 10/35/35 5/36/36
f 10/37/37 9/38/38 11/39/39
f 5/40/40 10/41/41 7/42/42
f 57/43/43 9/44/44 126/45/45
f 14/46/46 23/47/47 12/48/48
f 12/49/49 13/50/50 15/51/51
f 15/52/52 13/53/53 14/54/54
f 16/55/55 14/56/56 12/57/57
f 16/58/58 12/59/59 15/60/60
f 69/61/61 54/62/62 131/63/63
f 140/64/64 124/65/65 32/66/66
f 29/67/67 113/68/68 79/69/69
f 74/70/70 65/71/71 116/72/72
f 103/73/73 22/74/74 95/75/75
f 87/76/76 49/77/77 127/78/78
f 23/79/79 14/80/80 16/81/81
f 57/82/82 126/83/83 101/84/84
f 132/85/85 26/86/86 34/87/87
f 25/88/88 103/89/89 95/90/90
f 60/91/91 155/92/92 99/93/93
f 62/94/94 9/95/95 5/96/96
f 94/97/97 104/98/98 78/99/99
f 111/100/100 72/101/101 28/102/102
f 22/103/103 17/104/104 95/105/105
f 85/106/106 122/107/107 63/108/108
f 141/109/109 90/110/110 70/111/111
f 85/112/112 74/113/113 122/114/114
f 27/115/115 60/116/116 99/117/117
f 130/118/118 133/119/119 68/120/120
f 55/121/121 152/122/122 70/123/123
f 106/124/124 109/125/125 52/126/126
f 152/127/127 27/128/128 46/129/129
f 61/130/130 100/131/131 66/132/132
f 50/133/133 143/134/134 22/135/135
f 27/136/136 152/137/137 118/138/138
f 159/139/139 139/140/140 93/141/141
f 65/142/142 48/143/143 31/144/144
f 53/145/145 105/146/146 104/147/147
f 115/148/148 95/149/149 148/150/150
f 31/151/151 116/152/152 65/153/153
f 37/154/154 140/155/155 32/156/156
f 76/157/157 150/158/158 43/159/159
f 21/160/160 77/161/161 33/162/162
f 32/163/163 156/164/164 105/165/165
f 70/166/166 46/167/167 51/168/168
f 136/169/169 42/170/170 100/171/171
f 117/172/172 23/173/173 89/174/174
f 43/175/175 150/176/176 128/177/177
f 146/178/178 151/179/179 43/180/180
f 94/181/181 47/182/182 97/183/183
f 55/184/184 94/185/185 97/186/186
f 95/187/187 26/188/188 25/189/189
f 26/190/190 95/191/191 115/192/192
f 5/193/193 13/194/194 62/195/195
f 17/196/196 69/197/197 148/198/198
f 73/199/199 39/200/200 98/201/201
f 38/202/202 73/203/203 140/204/204
f 83/205/205 100/206/206 61/207/207
f 104/208/208 19/209/209 90/210/210
f 105/211/211 133/212/212 78/213/213
f 63/214/214 122/215/215 44/216/216
f 58/217/217 137/218/218 142/219/219
f 154/220/220 155/221/221 60/222/222
f 133/223/223 105/224/224 156/225/225
f 138/226/226 27/227/227 118/228/228
f 79/229/229 64/230/230 29/231/231
f 111/232/232 28/233/233 31/234/234
f 31/235/235 28/236/236 115/237/237
f 148/238/238 31/239/239 115/240/240
f 153/241/241 127/242/242 71/243/243
f 148/244/244 116/245/245 31/246/246
f 116/247/247 148/248/248 69/249/249
f 117/250/250 89/251/251 161/252/252
f 29/253/253 37/254/254 32/255/255
f 120/256/256 109/257/257 106/258/258
f 9/259/259 120/260/260 106/261/261
f 68/262/262 124/263/263 88/264/264
f 140/265/265 88/266/266 124/267/267
f 145/268/268 49/269/269 87/270/270
f 123/271/271 84/272/272 54/273/273
f 69/274/274 123/275/275 54/276/276
f 32/277/277 124/278/278 156/279/279
f 145/280/280 87/281/281 25/282/282
f 149/283/283 127/284/284 49/285/285
f 59/286/286 141/287/287 128/288/288
f 80/289/289 131/290/290 54/291/291
f 153/292/292 47/293/293 133/294/294
f 118/295/295 97/296/296 71/297/297
f 147/298/298 79/299/299 125/300/300
f 116/301/301 69/302/302 134/303/303
f 136/304/304 86/305/305 64/306/306
f 136/307/307 64/308/308 147/309/309
f 97/310/310 135/311/311 55/312/312
f 129/313/313 143/314/314 88/315/315
f 142/316/316 137/317/317 122/318/318
f 88/319/319 140/320/320 98/321/321
f 160/322/322 80/323/323 119/324/324
f 139/325/325 75/326/326 41/327/327
f 139/328/328 84/329/329 75/330/330
f 51/331/331 144/332/332 67/333/333
f 128/334/334 146/335/335 43/336/336
f 29/337/337 32/338/338 53/339/339
f 126/340/340 52/341/341 24/342/342
f 123/343/343 17/344/344 92/345/345
f 149/346/346 40/347/347 154/348/348
f 65/349/349 74/350/350 85/351/351
f 107/352/352 125/353/353 79/354/354
f 152/355/355 46/356/356 70/357/357
f 5/358/358 7/359/359 8/360/360
f 117/361/361 13/362/362 12/363/363
f 12/364/364 23/365/365 117/366/366
f 35/367/367 108/368/368 80/369/369
f 100/370/370 42/371/371 66/372/372
f 141/373/373 59/374/374 90/375/375
f 40/376/376 34/377/377 155/378/378
f 97/379/379 118/380/380 135/381/381
f 79/382/382 113/383/383 18/384/384
f 39/385/385 143/386/386 129/387/387
f 17/388/388 22/389/389 92/390/390
f 98/391/391 140/392/392 73/393/393
f 139/394/394 159/395/395 84/396/396
f 101/397/397 89/398/398 57/399/399
f 11/400/400 9/401/401 57/402/402
f 105/403/403 53/404/404 32/405/405
f 28/406/406 26/407/407 115/408/408
f 42/409/409 136/410/410 147/411/411
f 103/412/412 127/413/413 153/414/414
f 37/415/415 38/416/416 140/417/417
f 27/418/418 138/419/419 60/420/420
f 21/421/421 119/422/422 80/423/423
f 68/424/424 133/425/425 156/426/426
f 81/427/427 137/428/428 58/429/429
f 22/430/430 103/431/431 50/432/432
f 145/433/433 25/434/434 132/435/435
f 127/436/436 149/437/437 71/438/438
f 13/439/439 5/440/440 82/441/441
f 31/442/442 48/443/443 111/444/444
f 78/445/445 104/446/446 105/447/447
f 142/448/448 119/449/449 58/450/450
f 83/451/451 38/452/452 37/453/453
f 114/454/454 44/455/455 81/456/456
f 151/457/457 144/458/458 161/459/459
f 120/460/460 62/461/461 48/462/462
f 41/463/463 93/464/464 139/465/465
f 92/466/466 143/467/467 39/468/468
f 13/469/469 111/470/470 62/471/471
f 148/472/472 95/473/473 17/474/474
f 88/475/475 143/476/476 68/477/477
f 131/478/478 160/479/479 134/480/480
f 13/481/481 117/482/482 99/483/483
f 43/484/484 151/485/485 76/486/486
f 72/487/487 155/488/488 34/489/489
f 109/490/490 158/491/491 52/492/492
f 69/493/493 131/494/494 134/495/495
f 79/496/496 30/497/497 107/498/498
f 144/499/499 45/500/500 117/501/501
f 107/502/502 20/503/503 125/504/504
f 65/505/505 85/506/506 120/507/507
f 67/508/508 144/509/509 151/510/510
f 49/511/511 40/512/512 149/513/513
f 47/514/514 94/515/515 78/516/516
f 108/517/517 21/518/518 80/519/519
f 138/520/520 118/521/521 60/522/522
f 56/523/523 77/524/524 35/525/525
f 106/526/526 126/527/527 9/528/528
f 158/529/529 44/530/530 112/531/531
f 28/532/532 72/533/533 34/534/534
f 9/535/535 62/536/536 120/537/537
f 50/538/538 130/539/539 143/540/540
f 37/541/541 29/542/542 86/543/543
f 46/544/544 45/545/545 51/546/546
f 33/547/547 119/548/548 21/549/549
f 84/550/550 123/551/551 92/552/552
f 158/553/553 24/554/554 52/555/555
f 161/556/556 144/557/557 117/558/558
f 129/559/559 88/560/560 98/561/561
f 107/562/562 30/563/563 20/564/564
f 83/565/565 37/566/566 86/567/567
f 100/568/568 83/569/569 136/570/570
f 143/571/571 130/572/572 68/573/573
f 19/574/574 70/575/575 90/576/576
f 141/577/577 70/578/578 146/579/579
f 162/580/580 130/581/581 103/582/582
f 162/583/583 103/584/584 153/585/585
f 146/586/586 70/587/587 67/588/588
f 154/589/589 71/590/590 149/591/591
f 60/592/592 71/593/593 154/594/594
f 75/595/595 73/596/596 38/597/597
f 67/598/598 151/599/599 146/600/600
f 44/601/601 122/602/602 137/603/603
f 8/604/604 89/605/605 82/606/606
f 122/607/607 74/608/608 142/609/609
f 106/610/610 52/611/611 126/612/612
f 23/613/613 82/614/614 89/615/615
f 5/616/616 8/617/617 82/618/618
f 51/619/619 67/620/620 70/621/621
f 25/622/622 87/623/623 103/624/624
f 136/625/625 83/626/626 86/627/627
f 92/628/628 39/629/629 96/630/630
f 84/631/631 91/632/632 157/633/633
f 153/634/634 71/635/635 47/636/636
f 19/637/637 104/638/638 94/639/639
f 158/640/640 63/641/641 44/642/642
f 84/643/643 73/644/644 75/645/645
f 133/646/646 130/647/647 162/648/648
f 112/649/649 44/650/650 114/651/651
f 150/652/652 59/653/653 128/654/654
f 86/655/655 29/656/656 64/657/657
f 81/658/658 44/659/659 137/660/660
f 42/661/661 147/662/662 66/663/663
f 90/664/664 113/665/665 53/666/666
f 68/667/667 156/668/668 124/669/669
f 112/670/670 121/671/671 158/672/672
f 45/673/673 99/674/674 117/675/675
f 152/676/676 55/677/677 135/678/678
f 125/679/679 66/680/680 147/681/681
f 66/682/682 125/683/683 102/684/684
f 20/685/685 102/686/686 125/687/687
f 153/688/688 133/689/689 162/690/690
f 161/691/691 101/692/692 36/693/693
f 161/694/694 89/695/695 101/696/696
f 85/697/697 63/698/698 109/699/699
f 151/700/700 161/701/701 36/702/702
f 132/703/703 25/704/704 26/705/705
f 75/706/706 110/707/707 41/708/708
f 75/709/709 38/710/710 110/711/711
f 54/712/712 157/713/713 80/714/714
f 77/715/715 21/716/716 35/717/717
f 74/718/718 160/719/719 119/720/720
f 58/721/721 119/722/722 33/723/723
f 113/724/724 29/725/725 53/726/726
f 110/727/727 83/728/728 61/729/729
f 57/730/730 8/731/731 11/732/732
f 22/733/733 143/734/734 92/735/735
f 142/736/736 74/737/737 119/738/738
f 103/739/739 87/740/740 127/741/741
f 79/742/742 147/743/743 64/744/744
f 121/745/745 24/746/746 158/747/747
f 151/748/748 36/749/749 76/750/750
f 45/751/751 46/752/752 27/753/753
f 155/754/754 154/755/755 40/756/756
f 19/757/757 55/758/758 70/759/759
f 53/760/760 104/761/761 90/762/762
f 13/763/763 82/764/764 23/765/765
f 56/766/766 35/767/767 91/768/768
f 91/769/769 35/770/770 157/771/771
f 47/772/772 71/773/773 97/774/774
f 49/775/775 145/776/776 132/777/777
f 72/778/778 111/779/779 99/780/780
f 13/781/781 99/782/782 111/783/783
f 69/784/784 17/785/785 123/786/786
f 129/787/787 98/788/788 39/789/789
f 40/790/790 132/791/791 34/792/792
f 103/793/793 130/794/794 50/795/795
f 135/796/796 118/797/797 152/798/798
f 21/799/799 108/800/800 35/801/801
f 91/802/802 84/803/803 159/804/804
f 34/805/805 26/806/806 28/807/807
f 48/808/808 65/809/809 120/810/810
f 78/811/811 133/812/812 47/813/813
f 144/814/814 51/815/815 45/816/816
f 73/817/817 84/818/818 96/819/819
f 18/820/820 30/821/821 79/822/822
f 110/823/823 38/824/824 83/825/825
f 80/826/826 157/827/827 35/828/828
f 13/829/829 23/830/830 16/831/831
f 128/832/832 141/833/833 146/834/834
f 84/835/835 92/836/836 96/837/837
f 73/838/838 96/839/839 39/840/840
f 54/841/841 84/842/842 157/843/843
f 114/844/844 121/845/845 112/846/846
f 74/847/847 116/848/848 160/849/849
f 2/850/850 9/851/851 1/852/852
f 9/853/853 2/854/854 5/855/855
f 158/856/856 109/857/857 63/858/858
f 80/859/859 160/860/860 131/861/861
f 27/862/862 99/863/863 45/864/864
f 89/865/865 8/866/866 57/867/867
f 155/868/868 72/869/869 99/870/870
f 118/871/871 71/872/872 60/873/873
f 116/874/874 134/875/875 160/876/876
f 62/877/877 111/878/878 48/879/879
f 49/880/880 132/881/881 40/882/882
f 120/883/883 85/884/884 109/885/885
