# File exported by Houdini 16.5.405 (www.sidefx.com)
# 145 points
# 858 vertices
# 286 primitives
# Bounds: [-155.669922, -2.19494224, -191.036758] to [154.94548, 216.651398, 191.289978]
g 
v -14.8659191 128.649048 -175.778641
v 82.9700317 4.97979927 124.460365
v 61.3775673 3.49477243 -153.128372
v -120.51265 -1.3533597 49.5238037
v -23.1899166 173.782898 138.919571
v -25.1474514 2.37083983 -147.981003
v 10.3924942 208.966385 -66.1398468
v 53.2683601 159.737747 137.752243
v -97.6557312 171.946152 5.2038908
v -70.702507 2.05615115 157.824829
v -87.1016083 118.511909 143.973709
v 116.07206 59.9263458 -142.141693
v 24.7130947 109.756706 -178.95015
v -51.0327797 154.430923 -152.860001
v 74.0311661 113.326866 156.624664
v -76.8524399 -1.77370274 -79.4919815
v 142.285248 134.517975 -11.9885626
v -123.111946 11.9610662 -14.693924
v -6.47833538 205.891724 82.1546249
v -31.7392311 71.1569977 -185.466156
v 104.265236 169.781631 -16.6518536
v 57.3552856 177.273987 -109.36293
v -9.71687412 6.25221109 171.869995
v -33.6546478 127.415161 180.090927
v 111.698532 26.9374561 -113.31945
v -108.628754 159.356384 -37.8367462
v 140.22789 83.7025909 -116.299149
v 0.00779632991 205.339584 69.3787155
v 76.8237457 -1.01342881 50.9856224
v -59.97966 193.728607 -61.622364
v 153.384323 77.1018829 -93.3689194
v -140.829056 98.4806442 50.4171486
v -19.6893654 216.651398 -32.0197906
v 148.022324 27.1880035 51.8732109
v -37.2441826 194.459167 95.2186279
v 46.776947 43.3860855 -175.210266
v 147.644821 65.8889008 68.2967224
v -18.2729893 42.4198456 -179.786438
v -115.816292 12.7485733 118.029732
v 110.56041 114.83345 111.440536
v -98.2582397 154.58255 -89.9951401
v 152.562149 93.6556702 10.6717138
v 112.825348 157.083069 -71.5117722
v -133.023102 53.746891 -59.1297264
v -113.085579 97.4148102 -92.391098
v 70.1458206 54.7163467 171.394714
v -64.1461334 48.8995743 -144.070892
v -118.34845 139.086197 69.940094
v 105.719978 1.80730438 21.5957279
v -98.839798 110.722672 -123.329933
v -89.9534683 55.5673561 158.055267
v 130.058014 147.040359 22.5796471
v -42.71241 189.846375 -116.723083
v -71.0265274 106.143768 -160.325729
v 109.84343 71.3420181 -147.183426
v -29.6954346 33.9272423 188.459091
v -115.848351 38.2549095 -79.5505371
v -77.8969879 186.972122 -10.8115492
v -147.428085 37.3553467 -2.03362346
v -152.336426 32.8718338 63.8335953
v -64.2428055 89.6897888 -162.670532
v 0.70780313 143.163696 172.030289
v -94.749321 74.2094269 -137.629547
v -129.501587 85.7030945 100.659706
v 0.714122534 62.7009354 -189.108063
v -135.032089 15.7047682 83.5514374
v 2.57730222 1.42109334 -67.6607971
v 151.419998 34.0778542 47.2997246
v 14.4085464 122.166618 179.048355
v -95.6046829 29.6769142 -83.7631531
v -6.70153046 180.360596 -126.325317
v -60.8740654 185.445297 9.99261856
v 91.3938217 146.298874 -124.998047
v -123.1409 106.41346 101.68689
v -72.9177246 161.585052 -133.241241
v 132.097977 117.15699 66.3997955
v -104.548447 0.789523602 -53.7843552
v -68.176178 178.890808 66.1105881
v 139.428589 29.049324 5.24168015
v -147.389771 91.6509399 8.6872263
v -49.3655624 88.2099152 -178.488098
v 55.2608566 27.9065781 164.438507
v 99.9197464 169.476913 51.5799522
v 87.1386032 1.77066839 -74.6035004
v -61.1676559 89.5293884 173.840302
v 113.048897 42.3968773 125.904907
v 130.891907 125.237671 -88.9588623
v -19.8700752 213.668167 23.3055458
v -23.6527328 98.580658 -191.036758
v -6.88519955 -2.19494224 19.6522865
v -0.786521137 176.109009 135.207306
v -65.008255 192.578094 -77.5247192
v 68.62117 122.542351 -155.022629
v 75.4394379 183.849182 0.96009016
v 28.9745102 54.7582703 188.290085
v -45.4649887 37.5724831 -152.534225
v -155.669922 36.7420921 36.0047684
v 24.5453949 93.113327 189.041275
v -148.974243 22.1286125 51.1786346
v 128.949188 12.1218691 13.9880095
v -93.237236 15.6359625 147.884033
v 132.932068 37.372963 103.102509
v 111.034485 -0.776872396 -39.6692085
v -11.9029922 212.287415 16.943697
v -6.74952936 203.24617 -75.7446213
v -79.2037888 148.722397 128.57048
v 89.5597229 64.7350235 158.262604
v 148.476212 68.7217941 -99.7536392
v 17.7244358 181.921326 -123.552795
v 16.8036079 164.703613 146.522461
v 137.52829 33.063015 -35.4692078
v 20.5125523 5.51106739 136.844238
v -91.6594696 169.058319 45.1398697
v 46.2640877 95.1980972 185.933029
v 55.685627 144.655685 -146.045822
v -7.82007408 3.27834082 100.985611
v 126.629448 63.2631149 116.857239
v -75.3313599 58.3204651 -149.656296
v 71.0811615 28.4206638 -166.18866
v -24.6285572 101.818878 191.289978
v -44.315876 203.738571 -53.3678741
v 92.1227875 164.560211 88.8307114
v -125.044922 113.256058 -54.8490486
v 133.231827 25.7849846 -52.5463638
v -111.883377 0.172567844 101.914085
v -44.1180191 26.3078995 186.454559
v 116.869423 89.2110214 -142.668686
v -8.13952637 196.480377 -95.6748734
v 154.94548 69.9415054 -0.989578485
v -12.9375315 110.191002 -189.817062
v -127.846596 132.213989 31.5409889
v 5.45878172 190.589233 115.311455
v -67.9506836 24.7732735 176.337265
v 126.146423 10.1298819 88.3198395
v -7.87717438 151.540985 -155.746796
v 89.293129 41.3870354 -156.220871
v 50.7612305 51.8720856 184.092865
v -47.3079491 200.989502 9.31958771
v 5.95209599 158.715317 155.706894
v 137.589401 22.3629932 80.2483292
v -106.556648 67.3805847 -115.219337
v 14.0429916 79.7589493 -185.373367
v -15.6320314 191.262863 -112.858765
v 6.6662097 105.518158 187.980362
v 140.731445 46.0707817 -69.1922302
vt 0.449119985 0.0724899992 0
vt 0.374639988 0.0998699963 0
vt 0.42069 0.0410499983 0
vt 0.23567 0.12387 0
vt 0.297039986 0.175040007 0
vt 0.250840008 0.198789999 0
vt 0.948119998 0.564530015 0
vt 0.969200015 0.630869985 0
vt 0.886849999 0.627470016 0
vt 0.43900001 0.634259999 0
vt 0.516439974 0.660520017 0
vt 0.405990005 0.676069975 0
vt 0.163660005 0.364600003 0
vt 0.140790001 0.450780004 0
vt 0.035769999 0.480430007 0
vt 0.112489998 0.576960027 0
vt 0.161210001 0.591030002 0
vt 0.13019 0.669439971 0
vt 0.897679985 0.403530002 0
vt 0.891059995 0.526870012 0
vt 0.83841002 0.431639999 0
vt 0.73526001 0.334820002 0
vt 0.662090003 0.35721001 0
vt 0.645919979 0.31742999 0
vt 0.76868999 0.12494 0
vt 0.613370001 0.12297 0
vt 0.720550001 0.0964400023 0
vt 0.12077 0.0944800004 0
vt 0.0502899997 0.168300003 0
vt 0.00704000005 0.0759000033 0
vt 0.234339997 0.674769998 0
vt 0.367419988 0.689480007 0
vt 0.343719989 0.769349992 0
vt 0.234339997 0.674769998 0
vt 0.343719989 0.769349992 0
vt 0.200839996 0.738730013 0
vt 0.613370001 0.12297 0
vt 0.77433002 0.165340006 0
vt 0.732089996 0.228729993 0
vt 0.190630004 0.656639993 0
vt 0.200839996 0.738730013 0
vt 0.154699996 0.706659973 0
vt 0.22405 0.520290017 0
vt 0.182549998 0.460079998 0
vt 0.273680001 0.47676 0
vt 0.140790001 0.450780004 0
vt 0.156069994 0.51473999 0
vt 0.0648600012 0.500220001 0
vt 0.372909993 0.603959978 0
vt 0.398440003 0.483850002 0
vt 0.437779993 0.531029999 0
vt 0.169650003 0.949829996 0
vt 0.268570006 0.948700011 0
vt 0.230509996 0.95897001 0
vt 0.305229992 0.232299998 0
vt 0.297039986 0.175040007 0
vt 0.337080002 0.196620002 0
vt 0.397410005 0.118529998 0
vt 0.425830007 0.171939999 0
vt 0.376940012 0.145219997 0
vt 0.886849999 0.627470016 0
vt 0.969200015 0.630869985 0
vt 0.918280005 0.73220998 0
vt 0.112489998 0.576960027 0
vt 0.0648600012 0.500220001 0
vt 0.156069994 0.51473999 0
vt 0.302469999 0.0301600005 0
vt 0.36206001 0.0451700017 0
vt 0.285360008 0.0630099997 0
vt 0.762989998 0.653909981 0
vt 0.800970018 0.696449995 0
vt 0.694710016 0.706210017 0
vt 0.478819996 0.0194400009 0
vt 0.449119985 0.0724899992 0
vt 0.42069 0.0410499983 0
vt 0.540319979 0.0777600035 0
vt 0.565289974 0.142309994 0
vt 0.481110007 0.103469998 0
vt 0.405990005 0.676069975 0
vt 0.516439974 0.660520017 0
vt 0.496699989 0.736509979 0
vt 0.367419988 0.689480007 0
vt 0.234339997 0.674769998 0
vt 0.320109993 0.566110015 0
vt 0.163660005 0.364600003 0
vt 0.035769999 0.480430007 0
vt 0.0344999991 0.345160007 0
vt 0.143979996 0.821030021 0
vt 0.0790399984 0.836799979 0
vt 0.129069999 0.763199985 0
vt 0.126249999 0.315829992 0
vt 0.163660005 0.364600003 0
vt 0.0344999991 0.345160007 0
vt 0.235540003 0.860729992 0
vt 0.169760004 0.889909983 0
vt 0.205109999 0.785319984 0
vt 0.540319979 0.0777600035 0
vt 0.613370001 0.12297 0
vt 0.565289974 0.142309994 0
vt 0.645910025 0.227699995 0
vt 0.565289974 0.142309994 0
vt 0.613370001 0.12297 0
vt 0.112489998 0.576960027 0
vt 0.156069994 0.51473999 0
vt 0.161210001 0.591030002 0
vt 0.337080002 0.196620002 0
vt 0.350950003 0.255519986 0
vt 0.305229992 0.232299998 0
vt 0.337080002 0.196620002 0
vt 0.332190007 0.135759994 0
vt 0.376940012 0.145219997 0
vt 0.613370001 0.12297 0
vt 0.68246001 0.251540005 0
vt 0.645910025 0.227699995 0
vt 0.20555 0.150049999 0
vt 0.250840008 0.198789999 0
vt 0.243880004 0.222880006 0
vt 0.833500028 0.333759993 0
vt 0.876540005 0.305350006 0
vt 0.832300007 0.356400013 0
vt 0.0173000004 0.495680004 0
vt 0.0648600012 0.500220001 0
vt 0.0524899997 0.54922998 0
vt 0.832300007 0.356400013 0
vt 0.704999983 0.378789991 0
vt 0.74654001 0.356970012 0
vt 0.375990003 0.077229999 0
vt 0.285360008 0.0630099997 0
vt 0.36206001 0.0451700017 0
vt 0.263850003 0.305519998 0
vt 0.350950003 0.255519986 0
vt 0.299840003 0.313050002 0
vt 0.800970018 0.696449995 0
vt 0.886849999 0.627470016 0
vt 0.918280005 0.73220998 0
vt 0.243880004 0.222880006 0
vt 0.250840008 0.198789999 0
vt 0.305229992 0.232299998 0
vt 0.732089996 0.228729993 0
vt 0.68246001 0.251540005 0
vt 0.613370001 0.12297 0
vt 0.169650003 0.949829996 0
vt 0.235540003 0.860729992 0
vt 0.268570006 0.948700011 0
vt 0.268570006 0.948700011 0
vt 0.235540003 0.860729992 0
vt 0.279619992 0.891839981 0
vt 0.939109981 0.406410009 0
vt 0.929729998 0.529429972 0
vt 0.897679985 0.403530002 0
vt 0.914059997 0.361559987 0
vt 0.939109981 0.406410009 0
vt 0.897679985 0.403530002 0
vt 0.285360008 0.0630099997 0
vt 0.228640005 0.0509800017 0
vt 0.261979997 0.0145699997 0
vt 0.085830003 0.702560008 0
vt 0.02465 0.757719994 0
vt 0.056189999 0.693859994 0
vt 0.00588000007 0.709020019 0
vt 0.056189999 0.693859994 0
vt 0.02465 0.757719994 0
vt 0.337080002 0.196620002 0
vt 0.376940012 0.145219997 0
vt 0.425830007 0.171939999 0
vt 0.663500011 0.0475500003 0
vt 0.613370001 0.12297 0
vt 0.579230011 0.0185100008 0
vt 0.73526001 0.334820002 0
vt 0.74654001 0.356970012 0
vt 0.662090003 0.35721001 0
vt 0.200839996 0.738730013 0
vt 0.205109999 0.785319984 0
vt 0.154699996 0.706659973 0
vt 0.02465 0.757719994 0
vt 0.01688 0.765269995 0
vt 0.00588000007 0.709020019 0
vt 0.640950024 0.757189989 0
vt 0.67474997 0.670270026 0
vt 0.694710016 0.706210017 0
vt 0.332190007 0.135759994 0
vt 0.374639988 0.0998699963 0
vt 0.397410005 0.118529998 0
vt 0.145280004 0.145740002 0
vt 0.20555 0.150049999 0
vt 0.147719994 0.208849996 0
vt 0.332159996 0.506760001 0
vt 0.341670007 0.540180027 0
vt 0.320109993 0.566110015 0
vt 0.0648600012 0.500220001 0
vt 0.112489998 0.576960027 0
vt 0.0524899997 0.54922998 0
vt 0.459129989 0.00113999995 0
vt 0.42069 0.0410499983 0
vt 0.367370009 0.0374800004 0
vt 0.367370009 0.0374800004 0
vt 0.42069 0.0410499983 0
vt 0.375990003 0.077229999 0
vt 0.205829993 0.305110008 0
vt 0.163660005 0.364600003 0
vt 0.126249999 0.315829992 0
vt 0.163660005 0.364600003 0
vt 0.205829993 0.305110008 0
vt 0.23883 0.336919993 0
vt 0.540319979 0.0777600035 0
vt 0.481110007 0.103469998 0
vt 0.45897001 0.0966999978 0
vt 0.140790001 0.450780004 0
vt 0.163660005 0.364600003 0
vt 0.182549998 0.460079998 0
vt 0.711820006 0.3116 0
vt 0.73526001 0.334820002 0
vt 0.645919979 0.31742999 0
vt 0.780990005 0.307779998 0
vt 0.73526001 0.334820002 0
vt 0.711820006 0.3116 0
vt 0.388339996 0.638010025 0
vt 0.372909993 0.603959978 0
vt 0.43900001 0.634259999 0
vt 0.600549996 0.310790002 0
vt 0.645919979 0.31742999 0
vt 0.581870019 0.330639988 0
vt 0.297039986 0.175040007 0
vt 0.332190007 0.135759994 0
vt 0.337080002 0.196620002 0
vt 0.694710016 0.706210017 0
vt 0.715799987 0.733479977 0
vt 0.640950024 0.757189989 0
vt 0.45352 0.447560012 0
vt 0.412110001 0.445300013 0
vt 0.456739992 0.410360008 0
vt 0.0668400005 0.775020003 0
vt 0.0437199995 0.827530026 0
vt 0.0178699996 0.804019988 0
vt 0.23567 0.12387 0
vt 0.250840008 0.198789999 0
vt 0.20555 0.150049999 0
vt 0.367370009 0.0374800004 0
vt 0.375990003 0.077229999 0
vt 0.36206001 0.0451700017 0
vt 0.0173000004 0.495680004 0
vt 0.0524899997 0.54922998 0
vt 0.0466299988 0.583509982 0
vt 0.540870011 0.0317299999 0
vt 0.540319979 0.0777600035 0
vt 0.478819996 0.0194400009 0
vt 0.478819996 0.0194400009 0
vt 0.540319979 0.0777600035 0
vt 0.449119985 0.0724899992 0
vt 0.158189997 0.0862699971 0
vt 0.228640005 0.0509800017 0
vt 0.23567 0.12387 0
vt 0.0100199999 0.618409991 0
vt 0.0338700004 0.576049984 0
vt 0.0466299988 0.583509982 0
vt 0.914059997 0.361559987 0
vt 0.897679985 0.403530002 0
vt 0.83841002 0.431639999 0
vt 0.158189997 0.0862699971 0
vt 0.162369996 0.0335199982 0
vt 0.228640005 0.0509800017 0
vt 0.0466299988 0.583509982 0
vt 0.085830003 0.702560008 0
vt 0.056189999 0.693859994 0
vt 0.397410005 0.118529998 0
vt 0.481110007 0.103469998 0
vt 0.425830007 0.171939999 0
vt 0.425830007 0.171939999 0
vt 0.44058001 0.237810001 0
vt 0.350950003 0.255519986 0
vt 0.832300007 0.356400013 0
vt 0.848540008 0.383379996 0
vt 0.741829991 0.401679993 0
vt 0.554440022 0.239490002 0
vt 0.565289974 0.142309994 0
vt 0.645910025 0.227699995 0
vt 0.169650003 0.949829996 0
vt 0.169760004 0.889909983 0
vt 0.235540003 0.860729992 0
vt 0.169760004 0.889909983 0
vt 0.103880003 0.903349996 0
vt 0.0790399984 0.836799979 0
vt 0.906080008 0.321909994 0
vt 0.95638001 0.336970001 0
vt 0.914059997 0.361559987 0
vt 0.147719994 0.208849996 0
vt 0.20555 0.150049999 0
vt 0.243880004 0.222880006 0
vt 0.129069999 0.763199985 0
vt 0.0790399984 0.836799979 0
vt 0.0668400005 0.775020003 0
vt 0.0790399984 0.836799979 0
vt 0.0437199995 0.827530026 0
vt 0.0668400005 0.775020003 0
vt 0.12077 0.0944800004 0
vt 0.145280004 0.145740002 0
vt 0.0593999997 0.191939995 0
vt 0.200839996 0.738730013 0
vt 0.352519989 0.793229997 0
vt 0.205109999 0.785319984 0
vt 0.540319979 0.0777600035 0
vt 0.45897001 0.0966999978 0
vt 0.449119985 0.0724899992 0
vt 0.44058001 0.237810001 0
vt 0.554440022 0.239490002 0
vt 0.497559994 0.263110012 0
vt 0.449119985 0.0724899992 0
vt 0.45897001 0.0966999978 0
vt 0.374639988 0.0998699963 0
vt 0.897679985 0.403530002 0
vt 0.929729998 0.529429972 0
vt 0.891059995 0.526870012 0
vt 0.813250005 0.303299993 0
vt 0.833500028 0.333759993 0
vt 0.73526001 0.334820002 0
vt 0.156069994 0.51473999 0
vt 0.140790001 0.450780004 0
vt 0.182549998 0.460079998 0
vt 0.250840008 0.198789999 0
vt 0.297039986 0.175040007 0
vt 0.305229992 0.232299998 0
vt 0.43900001 0.634259999 0
vt 0.372909993 0.603959978 0
vt 0.437779993 0.531029999 0
vt 0.398440003 0.483850002 0
vt 0.45352 0.447560012 0
vt 0.437779993 0.531029999 0
vt 0.891059995 0.526870012 0
vt 0.929729998 0.529429972 0
vt 0.886849999 0.627470016 0
vt 0.77433002 0.165340006 0
vt 0.613370001 0.12297 0
vt 0.76868999 0.12494 0
vt 0.376940012 0.145219997 0
vt 0.332190007 0.135759994 0
vt 0.397410005 0.118529998 0
vt 0.243880004 0.222880006 0
vt 0.263850003 0.305519998 0
vt 0.222580001 0.31261 0
vt 0.140790001 0.450780004 0
vt 0.0648600012 0.500220001 0
vt 0.035769999 0.480430007 0
vt 0.53433001 0.318430007 0
vt 0.554440022 0.239490002 0
vt 0.586499989 0.307260007 0
vt 0.00191999995 0.660979986 0
vt 0.0466299988 0.583509982 0
vt 0.056189999 0.693859994 0
vt 0.0991000012 0.0506500006 0
vt 0.158189997 0.0862699971 0
vt 0.12077 0.0944800004 0
vt 0.67474997 0.670270026 0
vt 0.640950024 0.757189989 0
vt 0.579530001 0.720200002 0
vt 0.886849999 0.627470016 0
vt 0.929729998 0.529429972 0
vt 0.948119998 0.564530015 0
vt 0.22405 0.520290017 0
vt 0.156069994 0.51473999 0
vt 0.182549998 0.460079998 0
vt 0.44058001 0.237810001 0
vt 0.497559994 0.263110012 0
vt 0.43077001 0.32438001 0
vt 0.162369996 0.0335199982 0
vt 0.158189997 0.0862699971 0
vt 0.121040002 0.0253400002 0
vt 0.0790399984 0.836799979 0
vt 0.143979996 0.821030021 0
vt 0.169760004 0.889909983 0
vt 0.169760004 0.889909983 0
vt 0.143979996 0.821030021 0
vt 0.205109999 0.785319984 0
vt 0.129069999 0.763199985 0
vt 0.0668400005 0.775020003 0
vt 0.085830003 0.702560008 0
vt 0.581870019 0.330639988 0
vt 0.542060018 0.352050006 0
vt 0.564390004 0.317900002 0
vt 0.73526001 0.334820002 0
vt 0.833500028 0.333759993 0
vt 0.74654001 0.356970012 0
vt 0.43900001 0.634259999 0
vt 0.405990005 0.676069975 0
vt 0.388339996 0.638010025 0
vt 0.311839998 0.104730003 0
vt 0.285360008 0.0630099997 0
vt 0.375990003 0.077229999 0
vt 0.311839998 0.104730003 0
vt 0.375990003 0.077229999 0
vt 0.374639988 0.0998699963 0
vt 0.374639988 0.0998699963 0
vt 0.332190007 0.135759994 0
vt 0.311839998 0.104730003 0
vt 0.0466299988 0.583509982 0
vt 0.13019 0.669439971 0
vt 0.085830003 0.702560008 0
vt 0.231319994 0.0225799996 0
vt 0.193110004 0.0189299993 0
vt 0.205630004 0.000809999998 0
vt 0.285360008 0.0630099997 0
vt 0.261979997 0.0145699997 0
vt 0.302469999 0.0301600005 0
vt 0.143979996 0.821030021 0
vt 0.129069999 0.763199985 0
vt 0.205109999 0.785319984 0
vt 0.53433001 0.318430007 0
vt 0.497559994 0.263110012 0
vt 0.554440022 0.239490002 0
vt 0.651750028 0.767139971 0
vt 0.591239989 0.746749997 0
vt 0.640950024 0.757189989 0
vt 0.00191999995 0.660979986 0
vt 0.056189999 0.693859994 0
vt 0.00588000007 0.709020019 0
vt 0.412110001 0.445300013 0
vt 0.45352 0.447560012 0
vt 0.398440003 0.483850002 0
vt 0.350950003 0.255519986 0
vt 0.43077001 0.32438001 0
vt 0.347570002 0.32543999 0
vt 0.579230011 0.0185100008 0
vt 0.613370001 0.12297 0
vt 0.540319979 0.0777600035 0
vt 0.169650003 0.949829996 0
vt 0.103880003 0.903349996 0
vt 0.169760004 0.889909983 0
vt 0.322259992 0.843029976 0
vt 0.279619992 0.891839981 0
vt 0.235540003 0.860729992 0
vt 0.985819995 0.335979998 0
vt 0.975459993 0.410210013 0
vt 0.939109981 0.406410009 0
vt 0.481110007 0.103469998 0
vt 0.397410005 0.118529998 0
vt 0.45897001 0.0966999978 0
vt 0.333640009 0.473219991 0
vt 0.332159996 0.506760001 0
vt 0.273680001 0.47676 0
vt 0.800970018 0.696449995 0
vt 0.715799987 0.733479977 0
vt 0.694710016 0.706210017 0
vt 0.0466299988 0.583509982 0
vt 0.112489998 0.576960027 0
vt 0.13019 0.669439971 0
vt 0.832300007 0.356400013 0
vt 0.741829991 0.401679993 0
vt 0.704999983 0.378789991 0
vt 0.305229992 0.232299998 0
vt 0.350950003 0.255519986 0
vt 0.263850003 0.305519998 0
vt 0.235540003 0.860729992 0
vt 0.205109999 0.785319984 0
vt 0.352519989 0.793229997 0
vt 0.305229992 0.232299998 0
vt 0.263850003 0.305519998 0
vt 0.243880004 0.222880006 0
vt 0.306100011 0.451790005 0
vt 0.333640009 0.473219991 0
vt 0.273680001 0.47676 0
vt 0.579230011 0.0185100008 0
vt 0.540319979 0.0777600035 0
vt 0.540870011 0.0317299999 0
vt 0.161210001 0.591030002 0
vt 0.22405 0.520290017 0
vt 0.190630004 0.656639993 0
vt 0.00191999995 0.660979986 0
vt 0.0100199999 0.618409991 0
vt 0.0466299988 0.583509982 0
vt 0.284209996 0.915920019 0
vt 0.268570006 0.948700011 0
vt 0.279619992 0.891839981 0
vt 0.372909993 0.603959978 0
vt 0.387279987 0.507009983 0
vt 0.398440003 0.483850002 0
vt 0.914059997 0.361559987 0
vt 0.83841002 0.431639999 0
vt 0.848540008 0.383379996 0
vt 0.129069999 0.763199985 0
vt 0.154699996 0.706659973 0
vt 0.205109999 0.785319984 0
vt 0.0790399984 0.836799979 0
vt 0.0591400005 0.863539994 0
vt 0.0437199995 0.827530026 0
vt 0.1008 0.938109994 0
vt 0.0591400005 0.863539994 0
vt 0.103880003 0.903349996 0
vt 0.95638001 0.336970001 0
vt 0.985819995 0.335979998 0
vt 0.939109981 0.406410009 0
vt 0.95638001 0.336970001 0
vt 0.939109981 0.406410009 0
vt 0.914059997 0.361559987 0
vt 0.190630004 0.656639993 0
vt 0.13019 0.669439971 0
vt 0.161210001 0.591030002 0
vt 0.12077 0.0944800004 0
vt 0.0593999997 0.191939995 0
vt 0.0502899997 0.168300003 0
vt 0.13019 0.669439971 0
vt 0.129069999 0.763199985 0
vt 0.085830003 0.702560008 0
vt 0.581870019 0.330639988 0
vt 0.645919979 0.31742999 0
vt 0.662090003 0.35721001 0
vt 0.350950003 0.255519986 0
vt 0.337080002 0.196620002 0
vt 0.425830007 0.171939999 0
vt 0.876940012 0.277240008 0
vt 0.876540005 0.305350006 0
vt 0.833500028 0.333759993 0
vt 0.459129989 0.00113999995 0
vt 0.478819996 0.0194400009 0
vt 0.42069 0.0410499983 0
vt 0.813250005 0.303299993 0
vt 0.876940012 0.277240008 0
vt 0.833500028 0.333759993 0
vt 0.311839998 0.104730003 0
vt 0.297039986 0.175040007 0
vt 0.23567 0.12387 0
vt 0.147719994 0.208849996 0
vt 0.243880004 0.222880006 0
vt 0.172680005 0.292360008 0
vt 0.315429986 0.0242899992 0
vt 0.367370009 0.0374800004 0
vt 0.36206001 0.0451700017 0
vt 0.350950003 0.255519986 0
vt 0.347570002 0.32543999 0
vt 0.299840003 0.313050002 0
vt 0.948119998 0.564530015 0
vt 0.929729998 0.529429972 0
vt 0.943199992 0.487940013 0
vt 0.554440022 0.239490002 0
vt 0.645910025 0.227699995 0
vt 0.586499989 0.307260007 0
vt 0.613370001 0.12297 0
vt 0.663500011 0.0475500003 0
vt 0.720550001 0.0964400023 0
vt 0.266629994 0.388069987 0
vt 0.273680001 0.47676 0
vt 0.23883 0.336919993 0
vt 0.833500028 0.333759993 0
vt 0.832300007 0.356400013 0
vt 0.74654001 0.356970012 0
vt 0.780990005 0.307779998 0
vt 0.813250005 0.303299993 0
vt 0.73526001 0.334820002 0
vt 0.228640005 0.0509800017 0
vt 0.162369996 0.0335199982 0
vt 0.193110004 0.0189299993 0
vt 0.496520013 0.173749998 0
vt 0.554440022 0.239490002 0
vt 0.44058001 0.237810001 0
vt 0.425830007 0.171939999 0
vt 0.496520013 0.173749998 0
vt 0.44058001 0.237810001 0
vt 0.914059997 0.361559987 0
vt 0.832300007 0.356400013 0
vt 0.876540005 0.305350006 0
vt 0.035769999 0.480430007 0
vt 0.0648600012 0.500220001 0
vt 0.0173000004 0.495680004 0
vt 0.800970018 0.696449995 0
vt 0.918280005 0.73220998 0
vt 0.842050016 0.718079984 0
vt 0.243880004 0.222880006 0
vt 0.222580001 0.31261 0
vt 0.172680005 0.292360008 0
vt 0.273680001 0.47676 0
vt 0.332159996 0.506760001 0
vt 0.320109993 0.566110015 0
vt 0.035769999 0.480430007 0
vt -0.00231999997 0.426450014 0
vt 0.0344999991 0.345160007 0
vt 0.44058001 0.237810001 0
vt 0.43077001 0.32438001 0
vt 0.350950003 0.255519986 0
vt 0.581870019 0.330639988 0
vt 0.662090003 0.35721001 0
vt 0.586950004 0.374819994 0
vt 0.496699989 0.736509979 0
vt 0.579530001 0.720200002 0
vt 0.545229971 0.757780015 0
vt 0.169650003 0.949829996 0
vt 0.130850002 1.00120997 0
vt 0.111419998 0.972060025 0
vt 0.311839998 0.104730003 0
vt 0.23567 0.12387 0
vt 0.285360008 0.0630099997 0
vt 0.0991000012 0.0506500006 0
vt 0.121040002 0.0253400002 0
vt 0.158189997 0.0862699971 0
vt 0.169650003 0.949829996 0
vt 0.230509996 0.95897001 0
vt 0.216549993 0.987980008 0
vt 0.228640005 0.0509800017 0
vt 0.231319994 0.0225799996 0
vt 0.261979997 0.0145699997 0
vt 0.231319994 0.0225799996 0
vt 0.228640005 0.0509800017 0
vt 0.193110004 0.0189299993 0
vt 0.332190007 0.135759994 0
vt 0.297039986 0.175040007 0
vt 0.311839998 0.104730003 0
vt 0.45897001 0.0966999978 0
vt 0.397410005 0.118529998 0
vt 0.374639988 0.0998699963 0
vt 0.190630004 0.656639993 0
vt 0.320109993 0.566110015 0
vt 0.234339997 0.674769998 0
vt 0.0338700004 0.576049984 0
vt 0.0173000004 0.495680004 0
vt 0.0466299988 0.583509982 0
vt 0.1008 0.938109994 0
vt 0.103880003 0.903349996 0
vt 0.111419998 0.972060025 0
vt 0.315429986 0.0242899992 0
vt 0.36206001 0.0451700017 0
vt 0.302469999 0.0301600005 0
vt 0.02465 0.757719994 0
vt 0.0668400005 0.775020003 0
vt 0.0178699996 0.804019988 0
vt 0.0790399984 0.836799979 0
vt 0.103880003 0.903349996 0
vt 0.0591400005 0.863539994 0
vt 0.129069999 0.763199985 0
vt 0.13019 0.669439971 0
vt 0.154699996 0.706659973 0
vt 0.375990003 0.077229999 0
vt 0.42069 0.0410499983 0
vt 0.374639988 0.0998699963 0
vt 0.200839996 0.738730013 0
vt 0.190630004 0.656639993 0
vt 0.234339997 0.674769998 0
vt 0.437779993 0.531029999 0
vt 0.516439974 0.660520017 0
vt 0.43900001 0.634259999 0
vt 0.158189997 0.0862699971 0
vt 0.23567 0.12387 0
vt 0.20555 0.150049999 0
vt 0.352519989 0.793229997 0
vt 0.200839996 0.738730013 0
vt 0.343719989 0.769349992 0
vt 0.948119998 0.564530015 0
vt 0.996320009 0.621510029 0
vt 0.969200015 0.630869985 0
vt 0.169650003 0.949829996 0
vt 0.185120001 0.97773999 0
vt 0.130850002 1.00120997 0
vt 0.804390013 0.605059981 0
vt 0.891059995 0.526870012 0
vt 0.762989998 0.653909981 0
vt 0.158189997 0.0862699971 0
vt 0.20555 0.150049999 0
vt 0.145280004 0.145740002 0
vt 0.497559994 0.263110012 0
vt 0.53433001 0.318430007 0
vt 0.43077001 0.32438001 0
vt 0.22405 0.520290017 0
vt 0.273680001 0.47676 0
vt 0.320109993 0.566110015 0
vt 0.516439974 0.660520017 0
vt 0.579530001 0.720200002 0
vt 0.496699989 0.736509979 0
vt 0.22405 0.520290017 0
vt 0.320109993 0.566110015 0
vt 0.190630004 0.656639993 0
vt 0.12895 0.262529999 0
vt 0.147719994 0.208849996 0
vt 0.172680005 0.292360008 0
vt 0.169650003 0.949829996 0
vt 0.111419998 0.972060025 0
vt 0.103880003 0.903349996 0
vt 0.23883 0.336919993 0
vt 0.182549998 0.460079998 0
vt 0.163660005 0.364600003 0
vt 0.565289974 0.142309994 0
vt 0.554440022 0.239490002 0
vt 0.496520013 0.173749998 0
vt 0.182549998 0.460079998 0
vt 0.23883 0.336919993 0
vt 0.273680001 0.47676 0
vt 0.762989998 0.653909981 0
vt 0.886849999 0.627470016 0
vt 0.800970018 0.696449995 0
vt 0.540870011 0.0317299999 0
vt 0.478819996 0.0194400009 0
vt 0.509679973 0.0197999999 0
vt 0.891059995 0.526870012 0
vt 0.886849999 0.627470016 0
vt 0.762989998 0.653909981 0
vt 0.848540008 0.383379996 0
vt 0.832300007 0.356400013 0
vt 0.914059997 0.361559987 0
vt 0.842050016 0.718079984 0
vt 0.780359983 0.719299972 0
vt 0.800970018 0.696449995 0
vt 0.780359983 0.719299972 0
vt 0.715799987 0.733479977 0
vt 0.800970018 0.696449995 0
vt 0.581870019 0.330639988 0
vt 0.586950004 0.374819994 0
vt 0.542060018 0.352050006 0
vt 0.322259992 0.843029976 0
vt 0.235540003 0.860729992 0
vt 0.352519989 0.793229997 0
vt 0.154699996 0.706659973 0
vt 0.13019 0.669439971 0
vt 0.190630004 0.656639993 0
vt 0.545229971 0.757780015 0
vt 0.579530001 0.720200002 0
vt 0.591239989 0.746749997 0
vt 0.591239989 0.746749997 0
vt 0.579530001 0.720200002 0
vt 0.640950024 0.757189989 0
vt 0.939109981 0.406410009 0
vt 0.943199992 0.487940013 0
vt 0.929729998 0.529429972 0
vt 0.975459993 0.410210013 0
vt 0.943199992 0.487940013 0
vt 0.939109981 0.406410009 0
vt 0.425830007 0.171939999 0
vt 0.481110007 0.103469998 0
vt 0.496520013 0.173749998 0
vt 0.23567 0.12387 0
vt 0.228640005 0.0509800017 0
vt 0.285360008 0.0630099997 0
vt 0.161210001 0.591030002 0
vt 0.156069994 0.51473999 0
vt 0.22405 0.520290017 0
vt 0.12077 0.0944800004 0
vt 0.00704000005 0.0759000033 0
vt 0.0628099963 0.0381500013 0
vt 0.12895 0.262529999 0
vt 0.0892800018 0.220899999 0
vt 0.147719994 0.208849996 0
vt 0.085830003 0.702560008 0
vt 0.0668400005 0.775020003 0
vt 0.02465 0.757719994 0
vt 0.315739989 0.882019997 0
vt 0.279619992 0.891839981 0
vt 0.322259992 0.843029976 0
vt 0.876540005 0.305350006 0
vt 0.906080008 0.321909994 0
vt 0.914059997 0.361559987 0
vt 0.216549993 0.987980008 0
vt 0.185120001 0.97773999 0
vt 0.169650003 0.949829996 0
vt 0.0991000012 0.0506500006 0
vt 0.12077 0.0944800004 0
vt 0.0628099963 0.0381500013 0
vt 0.496520013 0.173749998 0
vt 0.481110007 0.103469998 0
vt 0.565289974 0.142309994 0
vt 0.147719994 0.208849996 0
vt 0.0892800018 0.220899999 0
vt 0.145280004 0.145740002 0
vt 0.564390004 0.317900002 0
vt 0.600549996 0.310790002 0
vt 0.581870019 0.330639988 0
vt 0.0593999997 0.191939995 0
vt 0.145280004 0.145740002 0
vt 0.0892800018 0.220899999 0
vt 0.273680001 0.47676 0
vt 0.266629994 0.388069987 0
vt 0.306100011 0.451790005 0
vt 0.0466299988 0.583509982 0
vt 0.0524899997 0.54922998 0
vt 0.112489998 0.576960027 0
vt 0.74654001 0.356970012 0
vt 0.704999983 0.378789991 0
vt 0.662090003 0.35721001 0
vt 0.12077 0.0944800004 0
vt 0.158189997 0.0862699971 0
vt 0.145280004 0.145740002 0
vt 0.622979999 0.636229992 0
vt 0.536019981 0.526709974 0
vt 0.64576 0.512679994 0
vt 0.521910012 0.389820009 0
vt 0.437779993 0.531029999 0
vt 0.45352 0.447560012 0
vt 0.45352 0.447560012 0
vt 0.456739992 0.410360008 0
vt 0.521910012 0.389820009 0
vt 0.83841002 0.431639999 0
vt 0.891059995 0.526870012 0
vt 0.758189976 0.497249991 0
vt 0.704999983 0.378789991 0
vt 0.741829991 0.401679993 0
vt 0.586950004 0.374819994 0
vt 0.536019981 0.526709974 0
vt 0.516439974 0.660520017 0
vt 0.489659995 0.571460009 0
vt 0.741829991 0.401679993 0
vt 0.83841002 0.431639999 0
vt 0.758189976 0.497249991 0
vt 0.741829991 0.401679993 0
vt 0.64576 0.512679994 0
vt 0.586950004 0.374819994 0
vt 0.67474997 0.670270026 0
vt 0.516439974 0.660520017 0
vt 0.622979999 0.636229992 0
vt 0.758189976 0.497249991 0
vt 0.762989998 0.653909981 0
vt 0.64576 0.512679994 0
vt 0.521910012 0.389820009 0
vt 0.498019993 0.37974 0
vt 0.542060018 0.352050006 0
vt 0.542060018 0.352050006 0
vt 0.586950004 0.374819994 0
vt 0.521910012 0.389820009 0
vt 0.622979999 0.636229992 0
vt 0.762989998 0.653909981 0
vt 0.67474997 0.670270026 0
vt 0.64576 0.512679994 0
vt 0.536019981 0.526709974 0
vt 0.521910012 0.389820009 0
vt 0.848540008 0.383379996 0
vt 0.83841002 0.431639999 0
vt 0.741829991 0.401679993 0
vt 0.498019993 0.37974 0
vt 0.521910012 0.389820009 0
vt 0.456739992 0.410360008 0
vt 0.741829991 0.401679993 0
vt 0.758189976 0.497249991 0
vt 0.64576 0.512679994 0
vt 0.804390013 0.605059981 0
vt 0.762989998 0.653909981 0
vt 0.758189976 0.497249991 0
vt 0.67474997 0.670270026 0
vt 0.579530001 0.720200002 0
vt 0.516439974 0.660520017 0
vt 0.891059995 0.526870012 0
vt 0.804390013 0.605059981 0
vt 0.758189976 0.497249991 0
vt 0.536019981 0.526709974 0
vt 0.622979999 0.636229992 0
vt 0.516439974 0.660520017 0
vt 0.67474997 0.670270026 0
vt 0.762989998 0.653909981 0
vt 0.694710016 0.706210017 0
vt 0.489659995 0.571460009 0
vt 0.516439974 0.660520017 0
vt 0.437779993 0.531029999 0
vt 0.64576 0.512679994 0
vt 0.762989998 0.653909981 0
vt 0.622979999 0.636229992 0
vt 0.586950004 0.374819994 0
vt 0.64576 0.512679994 0
vt 0.521910012 0.389820009 0
vt 0.536019981 0.526709974 0
vt 0.437779993 0.531029999 0
vt 0.521910012 0.389820009 0
vt 0.536019981 0.526709974 0
vt 0.489659995 0.571460009 0
vt 0.437779993 0.531029999 0
vt 0.586950004 0.374819994 0
vt 0.662090003 0.35721001 0
vt 0.704999983 0.378789991 0
vn -0.403917253 0.909493983 -0.0983436927
vn -0.495371252 0.865882218 0.0696796328
vn -0.136905462 0.989649951 -0.043010287
vn -0.594347239 0.632370591 0.496849
vn -0.770863891 0.591326594 0.236858293
vn -0.832888782 0.34201178 0.435114026
vn 0.578843236 -0.281005621 -0.76549089
vn 0.684484899 -0.277593017 -0.674108684
vn 0.677274406 -0.632580519 -0.375687838
vn 0.39174366 -0.582455814 0.712237418
vn 0.335431725 -0.845646501 0.415171802
vn 0.576540709 -0.23171553 0.783523321
vn 0.303344429 0.324359208 -0.895976126
vn 0.407387823 0.392203778 -0.824749291
vn 0.478213459 0.0159715582 -0.878098428
vn 0.793002784 0.509890079 -0.33340475
vn 0.631917477 0.74164021 -0.225056008
vn 0.868867457 0.495001823 -0.00652416982
vn -0.285930037 -0.466810673 -0.836858273
vn 0.254893392 -0.821897566 -0.509425044
vn -0.290008426 -0.821784198 -0.490475088
vn -0.666544437 -0.59852922 -0.444388628
vn -0.732800364 -0.642908216 -0.222873509
vn -0.916839898 -0.312175095 -0.248900205
vn 0.0245031212 0.359678894 -0.932754397
vn -0.301980197 0.559278488 -0.7720204
vn 0.0640015602 0.615428627 -0.785589814
vn -0.17215015 0.184376225 0.967662036
vn 0.0713718683 -0.332265645 0.940481603
vn 0.140229896 -0.239814505 0.960637569
vn 0.387651086 0.921505332 0.0235475469
vn 0.103619799 0.99461472 -0.00207226886
vn 0.301522881 0.948569238 0.0964376777
vn 0.387651086 0.921505332 0.0235475469
vn 0.301522881 0.948569238 0.0964376777
vn 0.549357772 0.820552349 0.157796517
vn -0.301980197 0.559278488 -0.7720204
vn -0.245449305 0.124633566 -0.96136415
vn -0.638274789 -0.0731882155 -0.766321599
vn 0.549745381 0.833978713 -0.0475343913
vn 0.549357772 0.820552349 0.157796517
vn 0.792891562 0.592328429 0.143073663
vn 0.388645083 0.823213696 -0.41385296
vn 0.300638199 0.608089983 -0.734740198
vn 0.170664877 0.794649363 -0.582585514
vn 0.407387823 0.392203778 -0.824749291
vn 0.544918776 0.618248165 -0.566420972
vn 0.606479049 0.23064962 -0.760909915
vn 0.140229896 -0.239814505 0.960637569
vn -0.192578465 -0.336800545 0.921671808
vn 0.0997589231 -0.82287246 0.559400678
vn 0.368602425 0.24190785 0.897559404
vn 0.0874959379 0.571675241 0.815801382
vn 0.11454393 0.401551753 0.908645093
vn -0.935755908 0.307162791 0.173239589
vn -0.770863891 0.591326594 0.236858293
vn -0.847510874 0.527557552 0.0583805852
vn -0.369821221 0.926312327 0.0719571039
vn -0.79619962 0.592951715 -0.120310009
vn -0.667625129 0.74141252 0.0677053109
vn 0.677274406 -0.632580519 -0.375687838
vn 0.684484899 -0.277593017 -0.674108684
vn 0.857489407 -0.312843651 -0.408461541
vn 0.793002784 0.509890079 -0.33340475
vn 0.606479049 0.23064962 -0.760909915
vn 0.544918776 0.618248165 -0.566420972
vn 0.0562665947 0.963163793 0.262962937
vn -0.145590469 0.987107456 -0.0665012673
vn -0.38704887 0.861636639 0.328291893
vn 0.407931119 -0.907758057 -0.0978137255
vn 0.812592983 -0.561863244 -0.15492712
vn 0.628683209 -0.777661383 0.000418414798
vn -0.123356946 0.947042644 -0.296468079
vn -0.403917253 0.909493983 -0.0983436927
vn -0.136905462 0.989649951 -0.043010287
vn -0.2176864 0.857649744 -0.465885907
vn -0.620853662 0.558051765 -0.550562263
vn -0.394321382 0.905481935 -0.156885684
vn 0.576540709 -0.23171553 0.783523321
vn 0.335431725 -0.845646501 0.415171802
vn 0.658455431 -0.351122797 0.665694594
vn 0.103619799 0.99461472 -0.00207226886
vn 0.387651086 0.921505332 0.0235475469
vn 0.177784547 0.960987508 -0.211886078
vn 0.303344429 0.324359208 -0.895976126
vn 0.478213459 0.0159715582 -0.878098428
vn 0.270237803 -0.130220965 -0.953946531
vn 0.765121043 0.395497799 0.508105695
vn 0.823418081 0.0798383877 0.561790586
vn 0.865378678 0.386244535 0.319272131
vn 0.289925784 0.0509478189 -0.955691993
vn 0.303344429 0.324359208 -0.895976126
vn 0.270237803 -0.130220965 -0.953946531
vn 0.43392998 0.688230097 0.581415653
vn 0.615454257 0.398295045 0.680130124
vn 0.589384437 0.71902436 0.368279636
vn -0.2176864 0.857649744 -0.465885907
vn -0.301980197 0.559278488 -0.7720204
vn -0.620853662 0.558051765 -0.550562263
vn -0.447474152 0.145793676 -0.882332742
vn -0.620853662 0.558051765 -0.550562263
vn -0.301980197 0.559278488 -0.7720204
vn 0.793002784 0.509890079 -0.33340475
vn 0.544918776 0.618248165 -0.566420972
vn 0.631917477 0.74164021 -0.225056008
vn -0.847510874 0.527557552 0.0583805852
vn -0.964301705 0.250365615 -0.0862517357
vn -0.935755908 0.307162791 0.173239589
vn -0.847510874 0.527557552 0.0583805852
vn -0.574697196 0.800996363 0.167713955
vn -0.667625129 0.74141252 0.0677053109
vn -0.301980197 0.559278488 -0.7720204
vn -0.583549857 -0.0918688104 -0.806864202
vn -0.447474152 0.145793676 -0.882332742
vn -0.674994707 0.345620275 0.651865602
vn -0.832888782 0.34201178 0.435114026
vn -0.875109434 0.147118285 0.461020291
vn -0.367751092 -0.490252137 -0.790197492
vn -0.583549857 -0.0918688104 -0.806864202
vn -0.502377152 -0.572739542 -0.647755086
vn 0.684484899 -0.277593017 -0.674108684
vn 0.606479049 0.23064962 -0.760909915
vn 0.828775465 0.15143916 -0.538699687
vn -0.502377152 -0.572739542 -0.647755086
vn -0.641128242 -0.70276773 -0.30833748
vn -0.665525496 -0.559004903 -0.494559735
vn -0.605246484 0.793988168 -0.0570912696
vn -0.38704887 0.861636639 0.328291893
vn -0.145590469 0.987107456 -0.0665012673
vn -0.938455641 -0.155415326 0.308459371
vn -0.964301705 0.250365615 -0.0862517357
vn -0.983492255 -0.173572928 -0.0511422306
vn 0.812592983 -0.561863244 -0.15492712
vn 0.677274406 -0.632580519 -0.375687838
vn 0.857489407 -0.312843651 -0.408461541
vn -0.875109434 0.147118285 0.461020291
vn -0.832888782 0.34201178 0.435114026
vn -0.935755908 0.307162791 0.173239589
vn -0.638274789 -0.0731882155 -0.766321599
vn -0.583549857 -0.0918688104 -0.806864202
vn -0.301980197 0.559278488 -0.7720204
vn 0.368602425 0.24190785 0.897559404
vn 0.43392998 0.688230097 0.581415653
vn 0.0874959379 0.571675241 0.815801382
vn 0.0874959379 0.571675241 0.815801382
vn 0.43392998 0.688230097 0.581415653
vn 0.203790933 0.736470163 0.645043492
vn 0.0699655339 -0.20196721 -0.976890028
vn 0.431657463 -0.320729852 -0.843092084
vn -0.285930037 -0.466810673 -0.836858273
vn -0.421320558 -0.264021188 -0.867629945
vn 0.0699655339 -0.20196721 -0.976890028
vn -0.285930037 -0.466810673 -0.836858273
vn -0.38704887 0.861636639 0.328291893
vn -0.214881033 0.77175802 0.598511279
vn 0.175583065 0.88780421 0.425410777
vn 0.973891914 0.202877864 0.101857789
vn 0.9630512 -0.264505565 0.0506865755
vn 0.993310452 -0.113978796 -0.0185240246
vn 0.872734129 -0.471608073 -0.126178011
vn 0.993310452 -0.113978796 -0.0185240246
vn 0.9630512 -0.264505565 0.0506865755
vn -0.847510874 0.527557552 0.0583805852
vn -0.667625129 0.74141252 0.0677053109
vn -0.79619962 0.592951715 -0.120310009
vn 0.121329367 0.651767015 -0.748651445
vn -0.301980197 0.559278488 -0.7720204
vn 0.0213100556 0.745358288 -0.666323543
vn -0.666544437 -0.59852922 -0.444388628
vn -0.665525496 -0.559004903 -0.494559735
vn -0.732800364 -0.642908216 -0.222873509
vn 0.549357772 0.820552349 0.157796517
vn 0.589384437 0.71902436 0.368279636
vn 0.792891562 0.592328429 0.143073663
vn 0.9630512 -0.264505565 0.0506865755
vn 0.818051815 -0.569754004 0.0785596818
vn 0.872734129 -0.471608073 -0.126178011
vn 0.818051815 -0.569754004 0.0785596818
vn 0.294820786 -0.953721702 0.0591249019
vn 0.628683209 -0.777661383 0.000418414798
vn -0.574697196 0.800996363 0.167713955
vn -0.495371252 0.865882218 0.0696796328
vn -0.369821221 0.926312327 0.0719571039
vn -0.537908614 0.166200787 0.826457202
vn -0.674994707 0.345620275 0.651865602
vn -0.71304512 0.0493198484 0.699381351
vn 0.0746192336 0.930752337 -0.357955366
vn -0.123356946 0.947042644 -0.296468079
vn 0.177784547 0.960987508 -0.211886078
vn 0.606479049 0.23064962 -0.760909915
vn 0.793002784 0.509890079 -0.33340475
vn 0.828775465 0.15143916 -0.538699687
vn 0.177784547 0.960987508 -0.211886078
vn -0.136905462 0.989649951 -0.043010287
vn 0.103619799 0.99461472 -0.00207226886
vn 0.103619799 0.99461472 -0.00207226886
vn -0.136905462 0.989649951 -0.043010287
vn -0.605246484 0.793988168 -0.0570912696
vn 0.0245031212 0.359678894 -0.932754397
vn 0.303344429 0.324359208 -0.895976126
vn 0.289925784 0.0509478189 -0.955691993
vn 0.303344429 0.324359208 -0.895976126
vn 0.0245031212 0.359678894 -0.932754397
vn 0.0640015602 0.615428627 -0.785589814
vn -0.2176864 0.857649744 -0.465885907
vn -0.394321382 0.905481935 -0.156885684
vn -0.357686698 0.933309317 -0.0315273516
vn 0.407387823 0.392203778 -0.824749291
vn 0.303344429 0.324359208 -0.895976126
vn 0.300638199 0.608089983 -0.734740198
vn -0.921864033 -0.152529702 -0.356232226
vn -0.666544437 -0.59852922 -0.444388628
vn -0.916839898 -0.312175095 -0.248900205
vn -0.864932239 -0.152420878 -0.478184015
vn -0.666544437 -0.59852922 -0.444388628
vn -0.921864033 -0.152529702 -0.356232226
vn 0.334144771 -0.317260861 0.887520552
vn 0.140229896 -0.239814505 0.960637569
vn 0.39174366 -0.582455814 0.712237418
vn -0.983492255 -0.173572928 -0.0511422306
vn -0.916839898 -0.312175095 -0.248900205
vn -0.793668747 -0.607975006 0.0213601701
vn -0.770863891 0.591326594 0.236858293
vn -0.574697196 0.800996363 0.167713955
vn -0.847510874 0.527557552 0.0583805852
vn 0.628683209 -0.777661383 0.000418414798
vn 0.872734129 -0.471608073 -0.126178011
vn 0.818051815 -0.569754004 0.0785596818
vn -0.264164656 -0.863038838 0.43055886
vn -0.493886113 -0.256881654 0.830715537
vn -0.702718258 -0.384184092 0.598823488
vn 0.952573121 0.105734065 0.285350472
vn 0.816073716 -0.261671036 0.51531738
vn 0.86579746 -0.398528457 0.302605122
vn -0.594347239 0.632370591 0.496849
vn -0.832888782 0.34201178 0.435114026
vn -0.674994707 0.345620275 0.651865602
vn 0.103619799 0.99461472 -0.00207226886
vn -0.605246484 0.793988168 -0.0570912696
vn -0.145590469 0.987107456 -0.0665012673
vn 0.684484899 -0.277593017 -0.674108684
vn 0.828775465 0.15143916 -0.538699687
vn 0.966287851 1.81666019e-05 -0.257463962
vn 0.0542620271 0.89114219 -0.450467914
vn -0.2176864 0.857649744 -0.465885907
vn -0.123356946 0.947042644 -0.296468079
vn -0.123356946 0.947042644 -0.296468079
vn -0.2176864 0.857649744 -0.465885907
vn -0.403917253 0.909493983 -0.0983436927
vn -0.295398533 0.464785278 0.834694147
vn -0.214881033 0.77175802 0.598511279
vn -0.594347239 0.632370591 0.496849
vn 0.912106991 -0.404726386 -0.0652496591
vn 0.857489407 -0.312843651 -0.408461541
vn 0.966287851 1.81666019e-05 -0.257463962
vn -0.421320558 -0.264021188 -0.867629945
vn -0.285930037 -0.466810673 -0.836858273
vn -0.290008426 -0.821784198 -0.490475088
vn -0.295398533 0.464785278 0.834694147
vn 0.0874959379 0.571675241 0.815801382
vn -0.214881033 0.77175802 0.598511279
vn 0.966287851 1.81666019e-05 -0.257463962
vn 0.973891914 0.202877864 0.101857789
vn 0.993310452 -0.113978796 -0.0185240246
vn -0.369821221 0.926312327 0.0719571039
vn -0.394321382 0.905481935 -0.156885684
vn -0.79619962 0.592951715 -0.120310009
vn -0.79619962 0.592951715 -0.120310009
vn -0.922206521 0.27082476 -0.276023656
vn -0.964301705 0.250365615 -0.0862517357
vn -0.502377152 -0.572739542 -0.647755086
vn -0.611497402 -0.468275636 -0.637800157
vn -0.317037225 -0.894715905 -0.314596206
vn -0.852401674 0.207748652 -0.479845792
vn -0.620853662 0.558051765 -0.550562263
vn -0.447474152 0.145793676 -0.882332742
vn 0.368602425 0.24190785 0.897559404
vn 0.615454257 0.398295045 0.680130124
vn 0.43392998 0.688230097 0.581415653
vn 0.615454257 0.398295045 0.680130124
vn 0.682301879 -0.0258751605 0.730612516
vn 0.823418081 0.0798383877 0.561790586
vn -0.638274789 -0.0731882155 -0.766321599
vn -0.245449305 0.124633566 -0.96136415
vn -0.421320558 -0.264021188 -0.867629945
vn -0.71304512 0.0493198484 0.699381351
vn -0.674994707 0.345620275 0.651865602
vn -0.875109434 0.147118285 0.461020291
vn 0.865378678 0.386244535 0.319272131
vn 0.823418081 0.0798383877 0.561790586
vn 0.952573121 0.105734065 0.285350472
vn 0.823418081 0.0798383877 0.561790586
vn 0.816073716 -0.261671036 0.51531738
vn 0.952573121 0.105734065 0.285350472
vn -0.17215015 0.184376225 0.967662036
vn -0.537908614 0.166200787 0.826457202
vn -0.192578465 -0.336800545 0.921671808
vn 0.549357772 0.820552349 0.157796517
vn 0.0562665947 0.963163793 0.262962937
vn 0.589384437 0.71902436 0.368279636
vn -0.2176864 0.857649744 -0.465885907
vn -0.357686698 0.933309317 -0.0315273516
vn -0.403917253 0.909493983 -0.0983436927
vn -0.922206521 0.27082476 -0.276023656
vn -0.852401674 0.207748652 -0.479845792
vn -0.918648183 0.130193889 -0.37300837
vn -0.403917253 0.909493983 -0.0983436927
vn -0.357686698 0.933309317 -0.0315273516
vn -0.495371252 0.865882218 0.0696796328
vn -0.285930037 -0.466810673 -0.836858273
vn 0.431657463 -0.320729852 -0.843092084
vn 0.254893392 -0.821897566 -0.509425044
vn -0.775813282 -0.144792378 -0.614124596
vn -0.367751092 -0.490252137 -0.790197492
vn -0.666544437 -0.59852922 -0.444388628
vn 0.544918776 0.618248165 -0.566420972
vn 0.407387823 0.392203778 -0.824749291
vn 0.300638199 0.608089983 -0.734740198
vn -0.832888782 0.34201178 0.435114026
vn -0.770863891 0.591326594 0.236858293
vn -0.935755908 0.307162791 0.173239589
vn 0.39174366 -0.582455814 0.712237418
vn 0.140229896 -0.239814505 0.960637569
vn 0.0997589231 -0.82287246 0.559400678
vn -0.192578465 -0.336800545 0.921671808
vn -0.264164656 -0.863038838 0.43055886
vn 0.0997589231 -0.82287246 0.559400678
vn 0.254893392 -0.821897566 -0.509425044
vn 0.431657463 -0.320729852 -0.843092084
vn 0.677274406 -0.632580519 -0.375687838
vn -0.245449305 0.124633566 -0.96136415
vn -0.301980197 0.559278488 -0.7720204
vn 0.0245031212 0.359678894 -0.932754397
vn -0.667625129 0.74141252 0.0677053109
vn -0.574697196 0.800996363 0.167713955
vn -0.369821221 0.926312327 0.0719571039
vn -0.875109434 0.147118285 0.461020291
vn -0.938455641 -0.155415326 0.308459371
vn -0.797441244 -0.487098336 0.35612154
vn 0.407387823 0.392203778 -0.824749291
vn 0.606479049 0.23064962 -0.760909915
vn 0.478213459 0.0159715582 -0.878098428
vn -0.864932239 -0.152420878 -0.478184015
vn -0.852401674 0.207748652 -0.479845792
vn -0.775813282 -0.144792378 -0.614124596
vn 0.923534811 -0.377302438 -0.068748638
vn 0.966287851 1.81666019e-05 -0.257463962
vn 0.993310452 -0.113978796 -0.0185240246
vn 0.0926443562 0.331078261 0.939044237
vn -0.295398533 0.464785278 0.834694147
vn -0.17215015 0.184376225 0.967662036
vn 0.294820786 -0.953721702 0.0591249019
vn 0.818051815 -0.569754004 0.0785596818
vn 0.548897207 -0.782300472 0.294478923
vn 0.677274406 -0.632580519 -0.375687838
vn 0.431657463 -0.320729852 -0.843092084
vn 0.578843236 -0.281005621 -0.76549089
vn 0.388645083 0.823213696 -0.41385296
vn 0.544918776 0.618248165 -0.566420972
vn 0.300638199 0.608089983 -0.734740198
vn -0.922206521 0.27082476 -0.276023656
vn -0.918648183 0.130193889 -0.37300837
vn -0.921864033 -0.152529702 -0.356232226
vn 0.0874959379 0.571675241 0.815801382
vn -0.295398533 0.464785278 0.834694147
vn 0.11454393 0.401551753 0.908645093
vn 0.823418081 0.0798383877 0.561790586
vn 0.765121043 0.395497799 0.508105695
vn 0.615454257 0.398295045 0.680130124
vn 0.615454257 0.398295045 0.680130124
vn 0.765121043 0.395497799 0.508105695
vn 0.589384437 0.71902436 0.368279636
vn 0.865378678 0.386244535 0.319272131
vn 0.952573121 0.105734065 0.285350472
vn 0.973891914 0.202877864 0.101857789
vn -0.793668747 -0.607975006 0.0213601701
vn -0.797441244 -0.487098336 0.35612154
vn -0.938455641 -0.155415326 0.308459371
vn -0.666544437 -0.59852922 -0.444388628
vn -0.367751092 -0.490252137 -0.790197492
vn -0.665525496 -0.559004903 -0.494559735
vn 0.39174366 -0.582455814 0.712237418
vn 0.576540709 -0.23171553 0.783523321
vn 0.334144771 -0.317260861 0.887520552
vn -0.564500749 0.805887103 0.178563729
vn -0.38704887 0.861636639 0.328291893
vn -0.605246484 0.793988168 -0.0570912696
vn -0.564500749 0.805887103 0.178563729
vn -0.605246484 0.793988168 -0.0570912696
vn -0.495371252 0.865882218 0.0696796328
vn -0.495371252 0.865882218 0.0696796328
vn -0.574697196 0.800996363 0.167713955
vn -0.564500749 0.805887103 0.178563729
vn 0.966287851 1.81666019e-05 -0.257463962
vn 0.868867457 0.495001823 -0.00652416982
vn 0.973891914 0.202877864 0.101857789
vn 0.0595129021 0.787193477 0.613827825
vn 0.109404653 0.719445467 0.685878217
vn 0.203790933 0.736470163 0.645043492
vn -0.38704887 0.861636639 0.328291893
vn 0.175583065 0.88780421 0.425410777
vn 0.0562665947 0.963163793 0.262962937
vn 0.765121043 0.395497799 0.508105695
vn 0.865378678 0.386244535 0.319272131
vn 0.589384437 0.71902436 0.368279636
vn -0.864932239 -0.152420878 -0.478184015
vn -0.918648183 0.130193889 -0.37300837
vn -0.852401674 0.207748652 -0.479845792
vn 0.9630512 -0.264505565 0.0506865755
vn 0.86579746 -0.398528457 0.302605122
vn 0.818051815 -0.569754004 0.0785596818
vn 0.923534811 -0.377302438 -0.068748638
vn 0.993310452 -0.113978796 -0.0185240246
vn 0.872734129 -0.471608073 -0.126178011
vn -0.493886113 -0.256881654 0.830715537
vn -0.264164656 -0.863038838 0.43055886
vn -0.192578465 -0.336800545 0.921671808
vn -0.964301705 0.250365615 -0.0862517357
vn -0.921864033 -0.152529702 -0.356232226
vn -0.916839898 -0.312175095 -0.248900205
vn 0.0213100556 0.745358288 -0.666323543
vn -0.301980197 0.559278488 -0.7720204
vn -0.2176864 0.857649744 -0.465885907
vn 0.368602425 0.24190785 0.897559404
vn 0.682301879 -0.0258751605 0.730612516
vn 0.615454257 0.398295045 0.680130124
vn 0.175583065 0.88780421 0.425410777
vn 0.203790933 0.736470163 0.645043492
vn 0.43392998 0.688230097 0.581415653
vn 0.0245031212 0.359678894 -0.932754397
vn 0.289925784 0.0509478189 -0.955691993
vn 0.0699655339 -0.20196721 -0.976890028
vn -0.394321382 0.905481935 -0.156885684
vn -0.369821221 0.926312327 0.0719571039
vn -0.357686698 0.933309317 -0.0315273516
vn 0.0542620271 0.89114219 -0.450467914
vn 0.0746192336 0.930752337 -0.357955366
vn 0.170664877 0.794649363 -0.582585514
vn 0.812592983 -0.561863244 -0.15492712
vn 0.872734129 -0.471608073 -0.126178011
vn 0.628683209 -0.777661383 0.000418414798
vn 0.966287851 1.81666019e-05 -0.257463962
vn 0.793002784 0.509890079 -0.33340475
vn 0.868867457 0.495001823 -0.00652416982
vn -0.502377152 -0.572739542 -0.647755086
vn -0.317037225 -0.894715905 -0.314596206
vn -0.641128242 -0.70276773 -0.30833748
vn -0.935755908 0.307162791 0.173239589
vn -0.964301705 0.250365615 -0.0862517357
vn -0.938455641 -0.155415326 0.308459371
vn 0.43392998 0.688230097 0.581415653
vn 0.589384437 0.71902436 0.368279636
vn 0.0562665947 0.963163793 0.262962937
vn -0.935755908 0.307162791 0.173239589
vn -0.938455641 -0.155415326 0.308459371
vn -0.875109434 0.147118285 0.461020291
vn 0.0213100556 0.745358288 -0.666323543
vn 0.0542620271 0.89114219 -0.450467914
vn 0.170664877 0.794649363 -0.582585514
vn 0.0213100556 0.745358288 -0.666323543
vn -0.2176864 0.857649744 -0.465885907
vn 0.0542620271 0.89114219 -0.450467914
vn 0.631917477 0.74164021 -0.225056008
vn 0.388645083 0.823213696 -0.41385296
vn 0.549745381 0.833978713 -0.0475343913
vn 0.923534811 -0.377302438 -0.068748638
vn 0.912106991 -0.404726386 -0.0652496591
vn 0.966287851 1.81666019e-05 -0.257463962
vn 0.109404653 0.719445467 0.685878217
vn 0.0874959379 0.571675241 0.815801382
vn 0.203790933 0.736470163 0.645043492
vn 0.140229896 -0.239814505 0.960637569
vn 0.0713718683 -0.332265645 0.940481603
vn -0.192578465 -0.336800545 0.921671808
vn -0.421320558 -0.264021188 -0.867629945
vn -0.290008426 -0.821784198 -0.490475088
vn -0.611497402 -0.468275636 -0.637800157
vn 0.865378678 0.386244535 0.319272131
vn 0.792891562 0.592328429 0.143073663
vn 0.589384437 0.71902436 0.368279636
vn 0.823418081 0.0798383877 0.561790586
vn 0.658455431 -0.351122797 0.665694594
vn 0.816073716 -0.261671036 0.51531738
vn 0.576540709 -0.23171553 0.783523321
vn 0.658455431 -0.351122797 0.665694594
vn 0.682301879 -0.0258751605 0.730612516
vn -0.245449305 0.124633566 -0.96136415
vn 0.0245031212 0.359678894 -0.932754397
vn 0.0699655339 -0.20196721 -0.976890028
vn -0.245449305 0.124633566 -0.96136415
vn 0.0699655339 -0.20196721 -0.976890028
vn -0.421320558 -0.264021188 -0.867629945
vn 0.549745381 0.833978713 -0.0475343913
vn 0.868867457 0.495001823 -0.00652416982
vn 0.631917477 0.74164021 -0.225056008
vn -0.17215015 0.184376225 0.967662036
vn -0.192578465 -0.336800545 0.921671808
vn 0.0713718683 -0.332265645 0.940481603
vn 0.868867457 0.495001823 -0.00652416982
vn 0.865378678 0.386244535 0.319272131
vn 0.973891914 0.202877864 0.101857789
vn -0.793668747 -0.607975006 0.0213601701
vn -0.916839898 -0.312175095 -0.248900205
vn -0.732800364 -0.642908216 -0.222873509
vn -0.964301705 0.250365615 -0.0862517357
vn -0.847510874 0.527557552 0.0583805852
vn -0.79619962 0.592951715 -0.120310009
vn -0.447474152 0.145793676 -0.882332742
vn -0.583549857 -0.0918688104 -0.806864202
vn -0.367751092 -0.490252137 -0.790197492
vn 0.177784547 0.960987508 -0.211886078
vn -0.123356946 0.947042644 -0.296468079
vn -0.136905462 0.989649951 -0.043010287
vn -0.775813282 -0.144792378 -0.614124596
vn -0.447474152 0.145793676 -0.882332742
vn -0.367751092 -0.490252137 -0.790197492
vn -0.564500749 0.805887103 0.178563729
vn -0.770863891 0.591326594 0.236858293
vn -0.594347239 0.632370591 0.496849
vn -0.71304512 0.0493198484 0.699381351
vn -0.875109434 0.147118285 0.461020291
vn -0.75200516 -0.415545255 0.511674106
vn 0.301522881 0.948569238 0.0964376777
vn 0.103619799 0.99461472 -0.00207226886
vn -0.145590469 0.987107456 -0.0665012673
vn -0.964301705 0.250365615 -0.0862517357
vn -0.916839898 -0.312175095 -0.248900205
vn -0.983492255 -0.173572928 -0.0511422306
vn 0.578843236 -0.281005621 -0.76549089
vn 0.431657463 -0.320729852 -0.843092084
vn 0.270237803 -0.130220965 -0.953946531
vn -0.852401674 0.207748652 -0.479845792
vn -0.447474152 0.145793676 -0.882332742
vn -0.775813282 -0.144792378 -0.614124596
vn -0.301980197 0.559278488 -0.7720204
vn 0.121329367 0.651767015 -0.748651445
vn 0.0640015602 0.615428627 -0.785589814
vn 0.121329367 0.651767015 -0.748651445
vn 0.170664877 0.794649363 -0.582585514
vn 0.0640015602 0.615428627 -0.785589814
vn -0.367751092 -0.490252137 -0.790197492
vn -0.502377152 -0.572739542 -0.647755086
vn -0.665525496 -0.559004903 -0.494559735
vn -0.864932239 -0.152420878 -0.478184015
vn -0.775813282 -0.144792378 -0.614124596
vn -0.666544437 -0.59852922 -0.444388628
vn -0.214881033 0.77175802 0.598511279
vn 0.0874959379 0.571675241 0.815801382
vn 0.109404653 0.719445467 0.685878217
vn -0.811250567 0.498609722 -0.305386305
vn -0.852401674 0.207748652 -0.479845792
vn -0.922206521 0.27082476 -0.276023656
vn -0.79619962 0.592951715 -0.120310009
vn -0.811250567 0.498609722 -0.305386305
vn -0.922206521 0.27082476 -0.276023656
vn -0.421320558 -0.264021188 -0.867629945
vn -0.502377152 -0.572739542 -0.647755086
vn -0.583549857 -0.0918688104 -0.806864202
vn 0.478213459 0.0159715582 -0.878098428
vn 0.606479049 0.23064962 -0.760909915
vn 0.684484899 -0.277593017 -0.674108684
vn 0.812592983 -0.561863244 -0.15492712
vn 0.857489407 -0.312843651 -0.408461541
vn 0.912106991 -0.404726386 -0.0652496591
vn -0.875109434 0.147118285 0.461020291
vn -0.797441244 -0.487098336 0.35612154
vn -0.75200516 -0.415545255 0.511674106
vn 0.170664877 0.794649363 -0.582585514
vn 0.0746192336 0.930752337 -0.357955366
vn 0.177784547 0.960987508 -0.211886078
vn 0.478213459 0.0159715582 -0.878098428
vn 0.578843236 -0.281005621 -0.76549089
vn 0.270237803 -0.130220965 -0.953946531
vn -0.922206521 0.27082476 -0.276023656
vn -0.921864033 -0.152529702 -0.356232226
vn -0.964301705 0.250365615 -0.0862517357
vn -0.793668747 -0.607975006 0.0213601701
vn -0.732800364 -0.642908216 -0.222873509
vn -0.371797621 -0.928310275 0.00256586145
vn 0.658455431 -0.351122797 0.665694594
vn 0.548897207 -0.782300472 0.294478923
vn 0.816073716 -0.261671036 0.51531738
vn 0.368602425 0.24190785 0.897559404
vn 0.140229896 -0.239814505 0.960637569
vn 0.334144771 -0.317260861 0.887520552
vn -0.564500749 0.805887103 0.178563729
vn -0.594347239 0.632370591 0.496849
vn -0.38704887 0.861636639 0.328291893
vn 0.0926443562 0.331078261 0.939044237
vn 0.11454393 0.401551753 0.908645093
vn -0.295398533 0.464785278 0.834694147
vn 0.368602425 0.24190785 0.897559404
vn 0.11454393 0.401551753 0.908645093
vn 0.0926443562 0.331078261 0.939044237
vn -0.214881033 0.77175802 0.598511279
vn 0.0595129021 0.787193477 0.613827825
vn 0.175583065 0.88780421 0.425410777
vn 0.0595129021 0.787193477 0.613827825
vn -0.214881033 0.77175802 0.598511279
vn 0.109404653 0.719445467 0.685878217
vn -0.574697196 0.800996363 0.167713955
vn -0.770863891 0.591326594 0.236858293
vn -0.564500749 0.805887103 0.178563729
vn -0.357686698 0.933309317 -0.0315273516
vn -0.369821221 0.926312327 0.0719571039
vn -0.495371252 0.865882218 0.0696796328
vn 0.549745381 0.833978713 -0.0475343913
vn 0.177784547 0.960987508 -0.211886078
vn 0.387651086 0.921505332 0.0235475469
vn 0.857489407 -0.312843651 -0.408461541
vn 0.684484899 -0.277593017 -0.674108684
vn 0.966287851 1.81666019e-05 -0.257463962
vn 0.576540709 -0.23171553 0.783523321
vn 0.682301879 -0.0258751605 0.730612516
vn 0.334144771 -0.317260861 0.887520552
vn 0.301522881 0.948569238 0.0964376777
vn -0.145590469 0.987107456 -0.0665012673
vn 0.0562665947 0.963163793 0.262962937
vn 0.9630512 -0.264505565 0.0506865755
vn 0.952573121 0.105734065 0.285350472
vn 0.86579746 -0.398528457 0.302605122
vn 0.823418081 0.0798383877 0.561790586
vn 0.682301879 -0.0258751605 0.730612516
vn 0.658455431 -0.351122797 0.665694594
vn 0.865378678 0.386244535 0.319272131
vn 0.868867457 0.495001823 -0.00652416982
vn 0.792891562 0.592328429 0.143073663
vn -0.605246484 0.793988168 -0.0570912696
vn -0.136905462 0.989649951 -0.043010287
vn -0.495371252 0.865882218 0.0696796328
vn 0.549357772 0.820552349 0.157796517
vn 0.549745381 0.833978713 -0.0475343913
vn 0.387651086 0.921505332 0.0235475469
vn 0.0997589231 -0.82287246 0.559400678
vn 0.335431725 -0.845646501 0.415171802
vn 0.39174366 -0.582455814 0.712237418
vn -0.295398533 0.464785278 0.834694147
vn -0.594347239 0.632370591 0.496849
vn -0.674994707 0.345620275 0.651865602
vn 0.0562665947 0.963163793 0.262962937
vn 0.549357772 0.820552349 0.157796517
vn 0.301522881 0.948569238 0.0964376777
vn 0.578843236 -0.281005621 -0.76549089
vn 0.478213459 0.0159715582 -0.878098428
vn 0.684484899 -0.277593017 -0.674108684
vn 0.368602425 0.24190785 0.897559404
vn 0.098313272 0.104900114 0.989611268
vn 0.140229896 -0.239814505 0.960637569
vn -0.0647673085 -0.997748554 -0.0174082592
vn 0.254893392 -0.821897566 -0.509425044
vn 0.407931119 -0.907758057 -0.0978137255
vn -0.295398533 0.464785278 0.834694147
vn -0.674994707 0.345620275 0.651865602
vn -0.537908614 0.166200787 0.826457202
vn -0.918648183 0.130193889 -0.37300837
vn -0.864932239 -0.152420878 -0.478184015
vn -0.921864033 -0.152529702 -0.356232226
vn 0.388645083 0.823213696 -0.41385296
vn 0.170664877 0.794649363 -0.582585514
vn 0.177784547 0.960987508 -0.211886078
vn 0.335431725 -0.845646501 0.415171802
vn 0.548897207 -0.782300472 0.294478923
vn 0.658455431 -0.351122797 0.665694594
vn 0.388645083 0.823213696 -0.41385296
vn 0.177784547 0.960987508 -0.211886078
vn 0.549745381 0.833978713 -0.0475343913
vn -0.702718258 -0.384184092 0.598823488
vn -0.71304512 0.0493198484 0.699381351
vn -0.75200516 -0.415545255 0.511674106
vn 0.368602425 0.24190785 0.897559404
vn 0.334144771 -0.317260861 0.887520552
vn 0.682301879 -0.0258751605 0.730612516
vn 0.0640015602 0.615428627 -0.785589814
vn 0.300638199 0.608089983 -0.734740198
vn 0.303344429 0.324359208 -0.895976126
vn -0.620853662 0.558051765 -0.550562263
vn -0.852401674 0.207748652 -0.479845792
vn -0.811250567 0.498609722 -0.305386305
vn 0.300638199 0.608089983 -0.734740198
vn 0.0640015602 0.615428627 -0.785589814
vn 0.170664877 0.794649363 -0.582585514
vn 0.407931119 -0.907758057 -0.0978137255
vn 0.677274406 -0.632580519 -0.375687838
vn 0.812592983 -0.561863244 -0.15492712
vn 0.0542620271 0.89114219 -0.450467914
vn -0.123356946 0.947042644 -0.296468079
vn 0.0746192336 0.930752337 -0.357955366
vn 0.254893392 -0.821897566 -0.509425044
vn 0.677274406 -0.632580519 -0.375687838
vn 0.407931119 -0.907758057 -0.0978137255
vn -0.611497402 -0.468275636 -0.637800157
vn -0.502377152 -0.572739542 -0.647755086
vn -0.421320558 -0.264021188 -0.867629945
vn 0.912106991 -0.404726386 -0.0652496591
vn 0.923534811 -0.377302438 -0.068748638
vn 0.812592983 -0.561863244 -0.15492712
vn 0.923534811 -0.377302438 -0.068748638
vn 0.872734129 -0.471608073 -0.126178011
vn 0.812592983 -0.561863244 -0.15492712
vn -0.793668747 -0.607975006 0.0213601701
vn -0.371797621 -0.928310275 0.00256586145
vn -0.797441244 -0.487098336 0.35612154
vn 0.175583065 0.88780421 0.425410777
vn 0.43392998 0.688230097 0.581415653
vn 0.0562665947 0.963163793 0.262962937
vn 0.792891562 0.592328429 0.143073663
vn 0.868867457 0.495001823 -0.00652416982
vn 0.549745381 0.833978713 -0.0475343913
vn 0.816073716 -0.261671036 0.51531738
vn 0.548897207 -0.782300472 0.294478923
vn 0.86579746 -0.398528457 0.302605122
vn 0.86579746 -0.398528457 0.302605122
vn 0.548897207 -0.782300472 0.294478923
vn 0.818051815 -0.569754004 0.0785596818
vn 0.0699655339 -0.20196721 -0.976890028
vn 0.270237803 -0.130220965 -0.953946531
vn 0.431657463 -0.320729852 -0.843092084
vn 0.289925784 0.0509478189 -0.955691993
vn 0.270237803 -0.130220965 -0.953946531
vn 0.0699655339 -0.20196721 -0.976890028
vn -0.79619962 0.592951715 -0.120310009
vn -0.394321382 0.905481935 -0.156885684
vn -0.811250567 0.498609722 -0.305386305
vn -0.594347239 0.632370591 0.496849
vn -0.214881033 0.77175802 0.598511279
vn -0.38704887 0.861636639 0.328291893
vn 0.631917477 0.74164021 -0.225056008
vn 0.544918776 0.618248165 -0.566420972
vn 0.388645083 0.823213696 -0.41385296
vn -0.17215015 0.184376225 0.967662036
vn 0.140229896 -0.239814505 0.960637569
vn 0.098313272 0.104900114 0.989611268
vn -0.702718258 -0.384184092 0.598823488
vn -0.493886113 -0.256881654 0.830715537
vn -0.71304512 0.0493198484 0.699381351
vn 0.973891914 0.202877864 0.101857789
vn 0.952573121 0.105734065 0.285350472
vn 0.9630512 -0.264505565 0.0506865755
vn 0.0595129021 0.787193477 0.613827825
vn 0.203790933 0.736470163 0.645043492
vn 0.175583065 0.88780421 0.425410777
vn -0.583549857 -0.0918688104 -0.806864202
vn -0.638274789 -0.0731882155 -0.766321599
vn -0.421320558 -0.264021188 -0.867629945
vn 0.0926443562 0.331078261 0.939044237
vn 0.098313272 0.104900114 0.989611268
vn 0.368602425 0.24190785 0.897559404
vn 0.0926443562 0.331078261 0.939044237
vn -0.17215015 0.184376225 0.967662036
vn 0.098313272 0.104900114 0.989611268
vn -0.811250567 0.498609722 -0.305386305
vn -0.394321382 0.905481935 -0.156885684
vn -0.620853662 0.558051765 -0.550562263
vn -0.71304512 0.0493198484 0.699381351
vn -0.493886113 -0.256881654 0.830715537
vn -0.537908614 0.166200787 0.826457202
vn -0.938455641 -0.155415326 0.308459371
vn -0.983492255 -0.173572928 -0.0511422306
vn -0.793668747 -0.607975006 0.0213601701
vn -0.192578465 -0.336800545 0.921671808
vn -0.537908614 0.166200787 0.826457202
vn -0.493886113 -0.256881654 0.830715537
vn 0.170664877 0.794649363 -0.582585514
vn 0.121329367 0.651767015 -0.748651445
vn 0.0213100556 0.745358288 -0.666323543
vn 0.966287851 1.81666019e-05 -0.257463962
vn 0.828775465 0.15143916 -0.538699687
vn 0.793002784 0.509890079 -0.33340475
vn -0.665525496 -0.559004903 -0.494559735
vn -0.641128242 -0.70276773 -0.30833748
vn -0.732800364 -0.642908216 -0.222873509
vn -0.17215015 0.184376225 0.967662036
vn -0.295398533 0.464785278 0.834694147
vn -0.537908614 0.166200787 0.826457202
vn 0.0710057691 -0.99608767 0.0526066199
vn 0.0160603579 -0.998096824 0.0595378466
vn 0.00631985627 -0.999880254 0.0141214551
vn -0.376783192 -0.901815653 0.211572632
vn 0.0997589231 -0.82287246 0.559400678
vn -0.264164656 -0.863038838 0.43055886
vn -0.264164656 -0.863038838 0.43055886
vn -0.702718258 -0.384184092 0.598823488
vn -0.376783192 -0.901815653 0.211572632
vn -0.290008426 -0.821784198 -0.490475088
vn 0.254893392 -0.821897566 -0.509425044
vn 0.01926402 -0.999267995 -0.033051908
vn -0.641128242 -0.70276773 -0.30833748
vn -0.317037225 -0.894715905 -0.314596206
vn -0.371797621 -0.928310275 0.00256586145
vn 0.0160603579 -0.998096824 0.0595378466
vn 0.335431725 -0.845646501 0.415171802
vn 0.00598993199 -0.999264419 0.0378763452
vn -0.317037225 -0.894715905 -0.314596206
vn -0.290008426 -0.821784198 -0.490475088
vn 0.01926402 -0.999267995 -0.033051908
vn -0.317037225 -0.894715905 -0.314596206
vn 0.00631985627 -0.999880254 0.0141214551
vn -0.371797621 -0.928310275 0.00256586145
vn 0.294820786 -0.953721702 0.0591249019
vn 0.335431725 -0.845646501 0.415171802
vn 0.0710057691 -0.99608767 0.0526066199
vn 0.01926402 -0.999267995 -0.033051908
vn 0.407931119 -0.907758057 -0.0978137255
vn 0.00631985627 -0.999880254 0.0141214551
vn -0.376783192 -0.901815653 0.211572632
vn -0.75200516 -0.415545255 0.511674106
vn -0.797441244 -0.487098336 0.35612154
vn -0.797441244 -0.487098336 0.35612154
vn -0.371797621 -0.928310275 0.00256586145
vn -0.376783192 -0.901815653 0.211572632
vn 0.0710057691 -0.99608767 0.0526066199
vn 0.407931119 -0.907758057 -0.0978137255
vn 0.294820786 -0.953721702 0.0591249019
vn 0.00631985627 -0.999880254 0.0141214551
vn 0.0160603579 -0.998096824 0.0595378466
vn -0.376783192 -0.901815653 0.211572632
vn -0.611497402 -0.468275636 -0.637800157
vn -0.290008426 -0.821784198 -0.490475088
vn -0.317037225 -0.894715905 -0.314596206
vn -0.75200516 -0.415545255 0.511674106
vn -0.376783192 -0.901815653 0.211572632
vn -0.702718258 -0.384184092 0.598823488
vn -0.317037225 -0.894715905 -0.314596206
vn 0.01926402 -0.999267995 -0.033051908
vn 0.00631985627 -0.999880254 0.0141214551
vn -0.0647673085 -0.997748554 -0.0174082592
vn 0.407931119 -0.907758057 -0.0978137255
vn 0.01926402 -0.999267995 -0.033051908
vn 0.294820786 -0.953721702 0.0591249019
vn 0.548897207 -0.782300472 0.294478923
vn 0.335431725 -0.845646501 0.415171802
vn 0.254893392 -0.821897566 -0.509425044
vn -0.0647673085 -0.997748554 -0.0174082592
vn 0.01926402 -0.999267995 -0.033051908
vn 0.0160603579 -0.998096824 0.0595378466
vn 0.0710057691 -0.99608767 0.0526066199
vn 0.335431725 -0.845646501 0.415171802
vn 0.294820786 -0.953721702 0.0591249019
vn 0.407931119 -0.907758057 -0.0978137255
vn 0.628683209 -0.777661383 0.000418414798
vn 0.00598993199 -0.999264419 0.0378763452
vn 0.335431725 -0.845646501 0.415171802
vn 0.0997589231 -0.82287246 0.559400678
vn 0.00631985627 -0.999880254 0.0141214551
vn 0.407931119 -0.907758057 -0.0978137255
vn 0.0710057691 -0.99608767 0.0526066199
vn -0.371797621 -0.928310275 0.00256586145
vn 0.00631985627 -0.999880254 0.0141214551
vn -0.376783192 -0.901815653 0.211572632
vn 0.0160603579 -0.998096824 0.0595378466
vn 0.0997589231 -0.82287246 0.559400678
vn -0.376783192 -0.901815653 0.211572632
vn 0.0160603579 -0.998096824 0.0595378466
vn 0.00598993199 -0.999264419 0.0378763452
vn 0.0997589231 -0.82287246 0.559400678
vn -0.371797621 -0.928310275 0.00256586145
vn -0.732800364 -0.642908216 -0.222873509
vn -0.641128242 -0.70276773 -0.30833748
g Group63999
f 121/1/1 72/2/2 33/3/3
f 106/4/4 48/5/5 74/6/6
f 136/7/7 12/8/8 25/9/9
f 82/10/10 2/11/11 46/12/12
f 13/13/13 93/14/14 55/15/15
f 87/16/16 43/17/17 17/18/18
f 38/19/19 3/20/20 6/21/21
f 57/22/22 18/23/23 59/24/24
f 130/25/25 14/26/26 1/27/27
f 120/28/28 56/29/29 95/30/30
f 94/31/31 104/32/32 28/33/33
f 94/34/34 28/35/35 83/36/36
f 14/37/37 89/38/38 81/39/39
f 21/40/40 83/41/41 52/42/42
f 22/43/43 115/44/44 109/45/45
f 93/46/46 73/47/47 127/48/48
f 95/49/49 126/50/50 23/51/51
f 114/52/52 62/53/53 69/54/54
f 32/55/55 48/56/56 131/57/57
f 58/58/58 26/59/59 9/60/60
f 25/61/61 12/62/62 108/63/63
f 87/64/64 127/65/65 73/66/66
f 19/67/67 88/68/68 35/69/69
f 103/70/70 124/71/71 100/72/72
f 105/73/73 121/74/74 33/75/75
f 53/76/76 75/77/77 92/78/78
f 46/79/79 2/80/80 86/81/81
f 104/82/82 94/83/83 7/84/84
f 13/85/85 55/86/86 36/87/87
f 40/88/88 117/89/89 76/90/90
f 142/91/91 13/92/92 36/93/93
f 8/94/94 15/95/95 122/96/96
f 53/97/97 14/98/98 75/99/99
f 54/100/100 75/101/101 14/102/102
f 87/103/103 73/104/104 43/105/105
f 131/106/106 80/107/107 32/108/108
f 131/109/109 113/110/110 9/111/111
f 14/112/112 61/113/113 54/114/114
f 11/115/115 74/116/116 64/117/117
f 118/118/118 61/119/119 47/120/120
f 12/121/121 127/122/122 27/123/123
f 47/124/124 77/125/125 70/126/126
f 138/127/127 35/128/128 88/129/129
f 60/130/130 80/131/131 97/132/132
f 124/133/133 25/134/134 108/135/135
f 64/136/136 74/137/137 32/138/138
f 81/139/139 61/140/140 14/141/141
f 114/142/142 8/143/143 62/144/144
f 62/145/145 8/146/146 110/147/147
f 65/148/148 119/149/149 38/150/150
f 20/151/151 65/152/152 38/153/153
f 35/154/154 5/155/155 132/156/156
f 42/157/157 68/158/158 129/159/159
f 79/160/160 129/161/161 68/162/162
f 131/163/163 9/164/164 26/165/165
f 135/166/166 14/167/167 71/168/168
f 57/169/169 70/170/170 18/171/171
f 83/172/172 122/173/173 52/174/174
f 68/175/175 34/176/176 79/177/177
f 34/178/178 49/179/179 100/180/180
f 113/181/181 72/182/182 58/183/183
f 85/184/184 11/185/185 51/186/186
f 128/187/187 105/188/188 7/189/189
f 127/190/190 87/191/191 27/192/192
f 7/193/193 33/194/194 104/195/195
f 104/196/196 33/197/197 138/198/198
f 130/199/199 13/200/200 142/201/201
f 13/202/202 130/203/203 1/204/204
f 53/205/205 92/206/206 30/207/207
f 93/208/208 13/209/209 115/210/210
f 44/211/211 57/212/212 59/213/213
f 141/214/214 57/215/215 44/216/216
f 137/217/217 95/218/218 82/219/219
f 97/220/220 59/221/221 99/222/222
f 48/223/223 113/224/224 131/225/225
f 100/226/226 79/227/227 34/228/228
f 10/229/229 133/230/230 101/231/231
f 37/232/232 102/233/233 140/234/234
f 106/235/235 74/236/236 11/237/237
f 104/238/238 138/239/239 88/240/240
f 12/241/241 27/242/242 31/243/243
f 143/244/244 53/245/245 105/246/246
f 105/247/247 53/248/248 121/249/249
f 24/250/250 5/251/251 106/252/252
f 145/253/253 108/254/254 31/255/255
f 20/256/256 38/257/257 6/258/258
f 24/259/259 62/260/260 5/261/261
f 31/262/262 42/263/263 129/264/264
f 58/265/265 92/266/266 26/267/267
f 26/268/268 123/269/269 80/270/270
f 47/271/271 96/272/272 16/273/273
f 50/274/274 75/275/275 54/276/276
f 114/277/277 15/278/278 8/279/279
f 15/280/280 107/281/281 117/282/282
f 81/283/283 89/284/284 20/285/285
f 51/286/286 11/287/287 64/288/288
f 76/289/289 117/290/290 37/291/291
f 117/292/292 102/293/293 37/294/294
f 120/295/295 85/296/296 126/297/297
f 83/298/298 19/299/299 122/300/300
f 53/301/301 30/302/302 121/303/303
f 123/304/304 50/305/305 45/306/306
f 121/307/307 30/308/308 72/309/309
f 38/310/310 119/311/311 3/312/312
f 63/313/313 118/314/314 57/315/315
f 73/316/316 93/317/317 115/318/318
f 74/319/319 48/320/320 32/321/321
f 82/322/322 95/323/323 23/324/324
f 126/325/325 10/326/326 23/327/327
f 3/328/328 119/329/329 25/330/330
f 89/331/331 14/332/332 130/333/333
f 9/334/334 113/335/335 58/336/336
f 64/337/337 60/338/338 66/339/339
f 93/340/340 127/341/341 55/342/342
f 141/343/343 50/344/344 63/345/345
f 111/346/346 31/347/347 129/348/348
f 144/349/349 24/350/350 120/351/351
f 49/352/352 34/353/353 134/354/354
f 25/355/355 119/356/356 136/357/357
f 22/358/358 73/359/359 115/360/360
f 123/361/361 45/362/362 44/363/363
f 62/364/364 24/365/365 69/366/366
f 117/367/367 40/368/368 15/369/369
f 15/370/370 40/371/371 122/372/372
f 76/373/373 37/374/374 42/375/375
f 99/376/376 66/377/377 60/378/378
f 57/379/379 118/380/380 70/381/381
f 82/382/382 46/383/383 137/384/384
f 78/385/385 35/386/386 138/387/387
f 78/388/388 138/389/389 72/390/390
f 72/391/391 113/392/392 78/393/393
f 31/394/394 17/395/395 42/396/396
f 91/397/397 139/398/398 110/399/399
f 35/400/400 132/401/401 19/402/402
f 40/403/403 76/404/404 122/405/405
f 141/406/406 45/407/407 50/408/408
f 68/409/409 140/410/410 34/411/411
f 111/412/412 129/413/413 79/414/414
f 133/415/415 10/416/416 126/417/417
f 80/418/418 44/419/419 59/420/420
f 71/421/421 14/422/422 53/423/423
f 114/424/424 107/425/425 15/426/426
f 132/427/427 110/428/428 8/429/429
f 130/430/430 142/431/431 65/432/432
f 92/433/433 58/434/434 30/435/435
f 143/436/436 128/437/437 109/438/438
f 124/439/439 79/440/440 100/441/441
f 31/442/442 87/443/443 17/444/444
f 47/445/445 16/446/446 77/447/447
f 32/448/448 80/449/449 60/450/450
f 8/451/451 122/452/452 19/453/453
f 32/454/454 60/455/455 64/456/456
f 71/457/457 143/458/458 109/459/459
f 71/460/460 53/461/461 143/462/462
f 43/463/463 22/464/464 21/465/465
f 111/466/466 145/467/467 31/468/468
f 139/469/469 62/470/470 110/471/471
f 95/472/472 56/473/473 126/474/474
f 20/475/475 6/476/476 96/477/477
f 76/478/478 52/479/479 122/480/480
f 117/481/481 86/482/482 102/483/483
f 46/484/484 86/485/485 107/486/486
f 89/487/487 130/488/488 65/489/489
f 89/490/490 65/491/491 20/492/492
f 21/493/493 17/494/494 43/495/495
f 120/496/496 126/497/497 56/498/498
f 17/499/499 76/500/500 42/501/501
f 99/502/502 59/503/503 18/504/504
f 80/505/505 131/506/506 26/507/507
f 54/508/508 61/509/509 118/510/510
f 7/511/511 105/512/512 33/513/513
f 63/514/514 54/515/515 118/516/516
f 78/517/517 48/518/518 106/519/519
f 51/520/520 64/521/521 39/522/522
f 28/523/523 104/524/524 88/525/525
f 80/526/526 59/527/527 97/528/528
f 136/529/529 119/530/530 36/531/531
f 50/532/532 54/533/533 63/534/534
f 14/535/535 135/536/536 1/537/537
f 135/538/538 109/539/539 1/540/540
f 118/541/541 47/542/542 70/543/543
f 141/544/544 63/545/545 57/546/546
f 5/547/547 62/548/548 139/549/549
f 41/550/550 50/551/551 123/552/552
f 26/553/553 41/554/554 123/555/555
f 20/556/556 47/557/557 61/558/558
f 55/559/559 127/560/560 12/561/561
f 124/562/562 108/563/563 145/564/564
f 64/565/565 66/566/566 39/567/567
f 109/568/568 128/569/569 7/570/570
f 55/571/571 136/572/572 36/573/573
f 123/574/574 44/575/575 80/576/576
f 99/577/577 18/578/578 4/579/579
f 86/580/580 134/581/581 102/582/582
f 114/583/583 95/584/584 137/585/585
f 78/586/586 106/587/587 35/588/588
f 144/589/589 69/590/590 24/591/591
f 114/592/592 69/593/593 144/594/594
f 5/595/595 91/596/596 132/597/597
f 91/598/598 5/599/599 139/600/600
f 113/601/601 48/602/602 78/603/603
f 30/604/604 58/605/605 72/606/606
f 21/607/607 7/608/608 94/609/609
f 108/610/610 12/611/611 31/612/612
f 46/613/613 107/614/614 137/615/615
f 28/616/616 88/617/617 19/618/618
f 68/619/619 37/620/620 140/621/621
f 117/622/622 107/623/623 86/624/624
f 76/625/625 17/626/626 52/627/627
f 138/628/628 33/629/629 72/630/630
f 83/631/631 21/632/632 94/633/633
f 23/634/634 2/635/635 82/636/636
f 24/637/637 106/638/638 11/639/639
f 19/640/640 83/641/641 28/642/642
f 136/643/643 55/644/644 12/645/645
f 114/646/646 98/647/647 95/648/648
f 84/649/649 3/650/650 103/651/651
f 24/652/652 11/653/653 85/654/654
f 45/655/655 141/656/656 44/657/657
f 22/658/658 109/659/659 7/660/660
f 2/661/661 134/662/662 86/663/663
f 22/664/664 7/665/665 21/666/666
f 101/667/667 51/668/668 39/669/669
f 114/670/670 137/671/671 107/672/672
f 1/673/673 115/674/674 13/675/675
f 75/676/676 50/677/677 41/678/678
f 115/679/679 1/680/680 109/681/681
f 103/682/682 25/683/683 124/684/684
f 143/685/685 105/686/686 128/687/687
f 3/688/688 25/689/689 103/690/690
f 96/691/691 47/692/692 20/693/693
f 145/694/694 111/695/695 124/696/696
f 111/697/697 79/698/698 124/699/699
f 99/700/700 4/701/701 66/702/702
f 132/703/703 8/704/704 19/705/705
f 52/706/706 17/707/707 21/708/708
f 102/709/709 134/710/710 140/711/711
f 140/712/712 134/713/713 34/714/714
f 65/715/715 36/716/716 119/717/717
f 142/718/718 36/719/719 65/720/720
f 26/721/721 92/722/722 41/723/723
f 106/724/724 5/725/725 35/726/726
f 43/727/727 73/728/728 22/729/729
f 120/730/730 95/731/731 98/732/732
f 101/733/733 133/734/734 51/735/735
f 42/736/736 37/737/737 68/738/738
f 91/739/739 110/740/740 132/741/741
f 61/742/742 81/743/743 20/744/744
f 144/745/745 98/746/746 114/747/747
f 144/748/748 120/749/749 98/750/750
f 41/751/751 92/752/752 75/753/753
f 51/754/754 133/755/755 85/756/756
f 60/757/757 97/758/758 99/759/759
f 126/760/760 85/761/761 133/762/762
f 109/763/763 135/764/764 71/765/765
f 31/766/766 27/767/767 87/768/768
f 70/769/769 77/770/770 18/771/771
f 120/772/772 24/773/773 85/774/774
f 29/775/775 116/776/776 90/777/777
f 125/778/778 23/779/779 10/780/780
f 10/781/781 101/782/782 125/783/783
f 6/784/784 3/785/785 67/786/786
f 77/787/787 16/788/788 4/789/789
f 116/790/790 2/791/791 112/792/792
f 16/793/793 6/794/794 67/795/795
f 16/796/796 90/797/797 4/798/798
f 49/799/799 2/800/800 29/801/801
f 67/802/802 103/803/803 90/804/804
f 125/805/805 39/806/806 66/807/807
f 66/808/808 4/809/809 125/810/810
f 29/811/811 103/812/812 49/813/813
f 90/814/814 116/815/815 125/816/816
f 96/817/817 6/818/818 16/819/819
f 39/820/820 125/821/821 101/822/822
f 16/823/823 67/824/824 90/825/825
f 84/826/826 103/827/827 67/828/828
f 49/829/829 134/830/830 2/831/831
f 3/832/832 84/833/833 67/834/834
f 116/835/835 29/836/836 2/837/837
f 49/838/838 103/839/839 100/840/840
f 112/841/841 2/842/842 23/843/843
f 90/844/844 103/845/845 29/846/846
f 4/847/847 90/848/848 125/849/849
f 116/850/850 23/851/851 125/852/852
f 116/853/853 112/854/854 23/855/855
f 4/856/856 18/857/857 77/858/858
