# File exported by Houdini 16.5.405 (www.sidefx.com)
# 55 points
# 318 vertices
# 106 primitives
# Bounds: [-155.509491, -1.70347059, -191.909637] to [156.603546, 216.651398, 188.734665]
g 
v -13.4334841 109.338539 -191.909637
v 82.9700317 4.97979927 124.460365
v 62.839119 5.45237637 -155.538651
v -121.281647 -0.845256627 76.4195175
v 1.80542946 169.983551 152.600952
v -30.5259476 3.70181108 -146.26889
v 6.77661228 208.978394 -63.1329956
v 83.4997025 167.872833 103.796684
v -85.6347427 182.531067 5.85841703
v -39.1132507 6.51337576 178.529449
v -85.3097992 137.787643 136.805206
v 119.736526 71.7908096 -145.391464
v -62.1179161 163.077682 -142.85051
v 63.384655 89.5085754 182.242432
v -101.337608 -1.70347059 -54.914135
v 140.707748 137.974899 -2.99510765
v -123.490082 24.6478653 -48.3728561
v -1.45209265 205.581894 75.3567276
v -23.6640091 55.6691017 -188.057938
v 95.1224823 176.382111 -9.11468697
v 82.5592346 152.735367 -132.715118
v -29.2475834 116.664322 188.734665
v 101.005188 40.8896675 -151.902679
v -105.749664 158.210403 -64.5311813
v 95.090271 -1.48638844 28.1517086
v -52.1183548 196.471741 -100.434639
v 152.137802 71.321907 -99.9360275
v -133.113922 110.00972 87.9498444
v -19.6893654 216.651398 -32.0197906
v 145.553055 20.4923878 73.6603165
v -44.5159454 191.768967 92.615036
v 46.776947 43.3860855 -175.210266
v 137.198196 75.6763535 98.8576202
v -109.572311 11.3532028 128.030655
v 156.603546 76.6731796 3.00055647
v 119.6744 150.881149 -76.2891159
v -106.33313 69.5701675 -125.924385
v 61.39468 55.0755005 180.693497
v -67.4534912 49.688694 -143.410507
v -79.4787979 106.892883 -157.166534
v -71.115509 22.7303848 179.082458
v -29.6954346 33.9272423 188.459091
v -155.509491 33.0922318 31.4360981
v -149.044312 25.0103493 67.9489288
v -60.3022346 86.2713165 -169.261917
v 16.8422565 108.551193 186.237381
v -8.19018364 186.855408 -123.270393
v -56.3659439 192.693359 5.72100639
v 135.763214 32.4154091 -42.8511086
v -147.029755 91.8325882 -2.54850817
v 130.783279 39.1340561 106.945137
v -12.4207182 212.951828 19.0207233
v 28.9745102 54.7582703 188.290085
v 118.364906 0.589488387 -30.8900776
v 12.30511 170.862335 143.286407
vt 0.510330021 0.0861700028 0
vt 0.379649997 0.0909100026 0
vt 0.42069 0.0410499983 0
vt 0.203789994 0.301530004 0
vt 0.168740004 0.502470016 0
vt 0.0360400006 0.497409999 0
vt 0.90933001 0.3847 0
vt 0.898500025 0.530889988 0
vt 0.840990007 0.425520003 0
vt 0.139650002 0.0872299969 0
vt 0.0502899997 0.168300003 0
vt 0.00704000005 0.0759000033 0
vt 0.205310002 0.663789988 0
vt 0.368600011 0.692439973 0
vt 0.345999986 0.779720008 0
vt 0.205310002 0.663789988 0
vt 0.345999986 0.779720008 0
vt 0.216319993 0.802990019 0
vt 0.58160001 0.128920004 0
vt 0.771529973 0.121289998 0
vt 0.70411998 0.251010001 0
vt 0.205310002 0.663789988 0
vt 0.216319993 0.802990019 0
vt 0.136030003 0.678960025 0
vt 0.372909993 0.603959978 0
vt 0.408100009 0.443549991 0
vt 0.425110012 0.492170006 0
vt 0.151270002 0.934689999 0
vt 0.299050003 0.910809994 0
vt 0.211040005 0.973129988 0
vt 0.949679971 0.591910005 0
vt 0.991980016 0.641030014 0
vt 0.921909988 0.739750028 0
vt 0.149399996 0.587379992 0
vt 0.0360400006 0.497409999 0
vt 0.168740004 0.502470016 0
vt 0.309399992 0.0255900007 0
vt 0.365990013 0.0382199995 0
vt 0.28689 0.0715899989 0
vt 0.457819998 0.000910000002 0
vt 0.510330021 0.0861700028 0
vt 0.42069 0.0410499983 0
vt 0.392820001 0.658930004 0
vt 0.516439974 0.660520017 0
vt 0.535269976 0.758599997 0
vt 0.368600011 0.692439973 0
vt 0.205310002 0.663789988 0
vt 0.326359987 0.569369972 0
vt 0.203789994 0.301530004 0
vt 0.0360400006 0.497409999 0
vt 0.0344999991 0.345160007 0
vt 0.58160001 0.128920004 0
vt 0.70411998 0.251010001 0
vt 0.625209987 0.235850006 0
vt 0.379649997 0.0909100026 0
vt 0.28689 0.0715899989 0
vt 0.365990013 0.0382199995 0
vt 0.253600001 0.312440008 0
vt 0.362989992 0.261139989 0
vt 0.303550005 0.319260001 0
vt 0.753289998 0.667110026 0
vt 0.949679971 0.591910005 0
vt 0.921909988 0.739750028 0
vt 0.151270002 0.934689999 0
vt 0.216319993 0.802990019 0
vt 0.299050003 0.910809994 0
vt 0.299050003 0.910809994 0
vt 0.216319993 0.802990019 0
vt 0.291979998 0.887000024 0
vt 0.28689 0.0715899989 0
vt 0.207190007 0.0220599994 0
vt 0.221729994 0.00679000001 0
vt -0.00107999996 0.652459979 0
vt 0.064410001 0.697019994 0
vt 0.0143999998 0.79242003 0
vt 0.269659996 0.205349997 0
vt 0.378010005 0.127509996 0
vt 0.458829999 0.174309999 0
vt 0.771529973 0.121289998 0
vt 0.58160001 0.128920004 0
vt 0.564599991 0.0186700001 0
vt 0.60352999 0.753009975 0
vt 0.65951997 0.650489986 0
vt 0.753289998 0.667110026 0
vt 0.139650002 0.0872299969 0
vt 0.22349 0.134770006 0
vt 0.0901499987 0.223460004 0
vt 0.457819998 0.000910000002 0
vt 0.42069 0.0410499983 0
vt 0.365990013 0.0382199995 0
vt 0.365990013 0.0382199995 0
vt 0.42069 0.0410499983 0
vt 0.379649997 0.0909100026 0
vt 0.790629983 0.306129992 0
vt 0.69907999 0.344830006 0
vt 0.605929971 0.315429986 0
vt 0.753289998 0.667110026 0
vt 0.790440023 0.714850008 0
vt 0.60352999 0.753009975 0
vt 0.425110012 0.492170006 0
vt 0.408100009 0.443549991 0
vt 0.485300004 0.388990015 0
vt 0.0860100016 0.808910012 0
vt 0.0465000011 0.832310021 0
vt 0.0143999998 0.79242003 0
vt 0.564599991 0.0186700001 0
vt 0.510330021 0.0861700028 0
vt 0.457819998 0.000910000002 0
vt 0.139650002 0.0872299969 0
vt 0.207190007 0.0220599994 0
vt 0.22349 0.134770006 0
vt 0.378010005 0.127509996 0
vt 0.510330021 0.0861700028 0
vt 0.458829999 0.174309999 0
vt 0.828989983 0.352129996 0
vt 0.90933001 0.3847 0
vt 0.706459999 0.381559998 0
vt 0.884259999 0.313560009 0
vt 0.985589981 0.33803001 0
vt 0.90933001 0.3847 0
vt 0.0901499987 0.223460004 0
vt 0.22349 0.134770006 0
vt 0.269659996 0.205349997 0
vt 0.362989992 0.261139989 0
vt 0.625209987 0.235850006 0
vt 0.544539988 0.31577 0
vt 0.790629983 0.306129992 0
vt 0.828989983 0.352129996 0
vt 0.69907999 0.344830006 0
vt 0.392820001 0.658930004 0
vt 0.372909993 0.603959978 0
vt 0.425110012 0.492170006 0
vt -0.00107999996 0.652459979 0
vt 0.0388000011 0.576489985 0
vt 0.064410001 0.697019994 0
vt 0.207190007 0.0220599994 0
vt 0.139650002 0.0872299969 0
vt 0.0954800025 0.0323200002 0
vt 0.151270002 0.934689999 0
vt 0.0860100016 0.808910012 0
vt 0.216319993 0.802990019 0
vt 0.379649997 0.0909100026 0
vt 0.378010005 0.127509996 0
vt 0.28689 0.0715899989 0
vt 0.0388000011 0.576489985 0
vt 0.136030003 0.678960025 0
vt 0.064410001 0.697019994 0
vt 0.28689 0.0715899989 0
vt 0.221729994 0.00679000001 0
vt 0.309399992 0.0255900007 0
vt 0.362989992 0.261139989 0
vt 0.544539988 0.31577 0
vt 0.303550005 0.319260001 0
vt 0.564599991 0.0186700001 0
vt 0.58160001 0.128920004 0
vt 0.510330021 0.0861700028 0
vt 0.0388000011 0.576489985 0
vt 0.149399996 0.587379992 0
vt 0.136030003 0.678960025 0
vt 0.269659996 0.205349997 0
vt 0.362989992 0.261139989 0
vt 0.253600001 0.312440008 0
vt 0.149399996 0.587379992 0
vt 0.168740004 0.502470016 0
vt 0.205310002 0.663789988 0
vt 0.372909993 0.603959978 0
vt 0.387279987 0.507009983 0
vt 0.408100009 0.443549991 0
vt 0.0860100016 0.808910012 0
vt 0.136030003 0.678960025 0
vt 0.216319993 0.802990019 0
vt 0.108230002 0.955039978 0
vt 0.0465000011 0.832310021 0
vt 0.151270002 0.934689999 0
vt 0.205310002 0.663789988 0
vt 0.136030003 0.678960025 0
vt 0.149399996 0.587379992 0
vt 0.139650002 0.0872299969 0
vt 0.0901499987 0.223460004 0
vt 0.0502899997 0.168300003 0
vt 0.136030003 0.678960025 0
vt 0.0860100016 0.808910012 0
vt 0.064410001 0.697019994 0
vt 0.362989992 0.261139989 0
vt 0.269659996 0.205349997 0
vt 0.458829999 0.174309999 0
vt 0.865459979 0.270229995 0
vt 0.884259999 0.313560009 0
vt 0.828989983 0.352129996 0
vt 0.790629983 0.306129992 0
vt 0.865459979 0.270229995 0
vt 0.828989983 0.352129996 0
vt 0.28689 0.0715899989 0
vt 0.269659996 0.205349997 0
vt 0.22349 0.134770006 0
vt 0.0901499987 0.223460004 0
vt 0.269659996 0.205349997 0
vt 0.157499999 0.286350012 0
vt 0.949679971 0.591910005 0
vt 0.898500025 0.530889988 0
vt 0.943199992 0.487940013 0
vt 0.458829999 0.174309999 0
vt 0.625209987 0.235850006 0
vt 0.362989992 0.261139989 0
vt 0.90933001 0.3847 0
vt 0.828989983 0.352129996 0
vt 0.884259999 0.313560009 0
vt 0.753289998 0.667110026 0
vt 0.921909988 0.739750028 0
vt 0.790440023 0.714850008 0
vt 0.269659996 0.205349997 0
vt 0.253600001 0.312440008 0
vt 0.157499999 0.286350012 0
vt 0.0360400006 0.497409999 0
vt -0.0110299997 0.448000014 0
vt 0.0344999991 0.345160007 0
vt 0.605929971 0.315429986 0
vt 0.69907999 0.344830006 0
vt 0.553929985 0.375880003 0
vt 0.151270002 0.934689999 0
vt 0.130850002 1.00120997 0
vt 0.108230002 0.955039978 0
vt 0.378010005 0.127509996 0
vt 0.269659996 0.205349997 0
vt 0.28689 0.0715899989 0
vt 0.510330021 0.0861700028 0
vt 0.378010005 0.127509996 0
vt 0.379649997 0.0909100026 0
vt 0.0860100016 0.808910012 0
vt 0.151270002 0.934689999 0
vt 0.0465000011 0.832310021 0
vt 0.425110012 0.492170006 0
vt 0.516439974 0.660520017 0
vt 0.392820001 0.658930004 0
vt 0.151270002 0.934689999 0
vt 0.211040005 0.973129988 0
vt 0.130850002 1.00120997 0
vt 0.168740004 0.502470016 0
vt 0.313510001 0.459069997 0
vt 0.326359987 0.569369972 0
vt 0.516439974 0.660520017 0
vt 0.60352999 0.753009975 0
vt 0.535269976 0.758599997 0
vt 0.168740004 0.502470016 0
vt 0.326359987 0.569369972 0
vt 0.205310002 0.663789988 0
vt 0.58160001 0.128920004 0
vt 0.625209987 0.235850006 0
vt 0.458829999 0.174309999 0
vt 0.168740004 0.502470016 0
vt 0.203789994 0.301530004 0
vt 0.313510001 0.459069997 0
vt 0.898500025 0.530889988 0
vt 0.949679971 0.591910005 0
vt 0.753289998 0.667110026 0
vt 0.605929971 0.315429986 0
vt 0.553929985 0.375880003 0
vt 0.559840024 0.328960001 0
vt 0.291979998 0.887000024 0
vt 0.216319993 0.802990019 0
vt 0.345999986 0.779720008 0
vt 0.90933001 0.3847 0
vt 0.943199992 0.487940013 0
vt 0.898500025 0.530889988 0
vt 0.985589981 0.33803001 0
vt 0.943199992 0.487940013 0
vt 0.90933001 0.3847 0
vt 0.22349 0.134770006 0
vt 0.207190007 0.0220599994 0
vt 0.28689 0.0715899989 0
vt 0.139650002 0.0872299969 0
vt 0.00704000005 0.0759000033 0
vt 0.0954800025 0.0323200002 0
vt 0.064410001 0.697019994 0
vt 0.0860100016 0.808910012 0
vt 0.0143999998 0.79242003 0
vt 0.458829999 0.174309999 0
vt 0.510330021 0.0861700028 0
vt 0.58160001 0.128920004 0
vt 0.0388000011 0.576489985 0
vt 0.0360400006 0.497409999 0
vt 0.149399996 0.587379992 0
vt 0.828989983 0.352129996 0
vt 0.706459999 0.381559998 0
vt 0.69907999 0.344830006 0
vt 0.425110012 0.492170006 0
vt 0.485300004 0.388990015 0
vt 0.553929985 0.375880003 0
vt 0.706459999 0.381559998 0
vt 0.65951997 0.650489986 0
vt 0.553929985 0.375880003 0
vt 0.840990007 0.425520003 0
vt 0.753289998 0.667110026 0
vt 0.65951997 0.650489986 0
vt 0.553929985 0.375880003 0
vt 0.485300004 0.388990015 0
vt 0.559840024 0.328960001 0
vt 0.65951997 0.650489986 0
vt 0.425110012 0.492170006 0
vt 0.553929985 0.375880003 0
vt 0.90933001 0.3847 0
vt 0.840990007 0.425520003 0
vt 0.706459999 0.381559998 0
vt 0.706459999 0.381559998 0
vt 0.840990007 0.425520003 0
vt 0.65951997 0.650489986 0
vt 0.898500025 0.530889988 0
vt 0.753289998 0.667110026 0
vt 0.840990007 0.425520003 0
vt 0.65951997 0.650489986 0
vt 0.60352999 0.753009975 0
vt 0.516439974 0.660520017 0
vt 0.425110012 0.492170006 0
vt 0.65951997 0.650489986 0
vt 0.516439974 0.660520017 0
vt 0.553929985 0.375880003 0
vt 0.69907999 0.344830006 0
vt 0.706459999 0.381559998 0
vn -0.367971331 0.868532121 -0.332037747
vn -0.395510226 0.916855216 0.0542977378
vn -0.13013947 0.99131614 -0.018869739
vn -0.0534021854 0.288055897 -0.956123412
vn 0.479972124 0.64242059 -0.59743005
vn 0.675274432 0.0699362159 -0.734243333
vn -0.265757382 -0.320529431 -0.909194112
vn 0.272568047 -0.784329236 -0.557256043
vn -0.329921901 -0.803718328 -0.495164931
vn -0.239913374 0.341833264 0.908620715
vn 0.154464275 -0.774834752 0.6130023
vn 0.140970886 -0.203332976 0.968908131
vn 0.501871347 0.864890456 -0.00946242269
vn -0.0454277582 0.995416045 0.0841622576
vn 0.0751110464 0.965366244 0.249852613
vn 0.501871347 0.864890456 -0.00946242269
vn 0.0751110464 0.965366244 0.249852613
vn 0.570697904 0.713918388 0.405739337
vn -0.475528061 0.590191841 -0.652339339
vn -0.0534021854 0.288055897 -0.956123412
vn -0.596211553 -0.0765476972 -0.799169719
vn 0.501871347 0.864890456 -0.00946242269
vn 0.570697904 0.713918388 0.405739337
vn 0.848413825 0.526126206 0.0581823811
vn 0.140970886 -0.203332976 0.968908131
vn -0.510045826 -0.317451537 0.799423397
vn -0.0460904613 -0.734262824 0.677298903
vn 0.485492408 0.219898224 0.846133471
vn 0.0484659858 0.781704009 0.621763587
vn 0.162028536 0.306077331 0.938116968
vn 0.600415468 -0.401994735 -0.691304266
vn 0.675274432 0.0699362159 -0.734243333
vn 0.932550192 -0.0791595429 -0.352255434
vn 0.678835094 0.681639373 -0.273039788
vn 0.675274432 0.0699362159 -0.734243333
vn 0.479972124 0.64242059 -0.59743005
vn 0.0751110464 0.965366244 0.249852613
vn -0.0454277582 0.995416045 0.0841622576
vn -0.393073469 0.857045472 0.333116055
vn 0.226642758 0.951584458 -0.207653642
vn -0.367971331 0.868532121 -0.332037747
vn -0.13013947 0.99131614 -0.018869739
vn 0.453076214 -0.312866271 0.834767342
vn 0.340129346 -0.84194237 0.418861657
vn 0.75824964 -0.261126071 0.597386539
vn -0.0454277582 0.995416045 0.0841622576
vn 0.501871347 0.864890456 -0.00946242269
vn 0.226642758 0.951584458 -0.207653642
vn -0.0534021854 0.288055897 -0.956123412
vn 0.675274432 0.0699362159 -0.734243333
vn 0.252425104 -0.192559302 -0.94826287
vn -0.475528061 0.590191841 -0.652339339
vn -0.596211553 -0.0765476972 -0.799169719
vn -0.645500183 0.161901042 -0.746403098
vn -0.395510226 0.916855216 0.0542977378
vn -0.393073469 0.857045472 0.333116055
vn -0.0454277582 0.995416045 0.0841622576
vn -0.914947271 -0.326856822 0.236719519
vn -0.960001528 0.251981944 -0.122074485
vn -0.953846276 -0.298215151 -0.0352837443
vn 0.491559416 -0.863952279 -0.109343357
vn 0.600415468 -0.401994735 -0.691304266
vn 0.932550192 -0.0791595429 -0.352255434
vn 0.485492408 0.219898224 0.846133471
vn 0.570697904 0.713918388 0.405739337
vn 0.0484659858 0.781704009 0.621763587
vn 0.0484659858 0.781704009 0.621763587
vn 0.570697904 0.713918388 0.405739337
vn 0.182583481 0.919922292 0.346995831
vn -0.393073469 0.857045472 0.333116055
vn 0.0484659858 0.781704009 0.621763587
vn 0.182583481 0.919922292 0.346995831
vn 0.885090888 -0.457745463 -0.0841618851
vn 0.999615908 -0.00169987557 0.027662944
vn 0.806789577 -0.54415369 0.230189562
vn -0.862923265 0.369735867 0.344469011
vn -0.601073086 0.796795011 0.0618770272
vn -0.818760872 0.528536975 -0.224230304
vn -0.0534021854 0.288055897 -0.956123412
vn -0.475528061 0.590191841 -0.652339339
vn 0.090529263 0.818971694 -0.566647947
vn 0.806789577 -0.54415369 0.230189562
vn 0.155059919 -0.986643255 0.0499150641
vn 0.491559416 -0.863952279 -0.109343357
vn -0.239913374 0.341833264 0.908620715
vn -0.635664463 0.516238809 0.573958218
vn -0.510045826 -0.317451537 0.799423397
vn 0.226642758 0.951584458 -0.207653642
vn -0.13013947 0.99131614 -0.018869739
vn -0.0454277582 0.995416045 0.0841622576
vn -0.0454277582 0.995416045 0.0841622576
vn -0.13013947 0.99131614 -0.018869739
vn -0.395510226 0.916855216 0.0542977378
vn -0.810195148 -0.180153936 -0.557788849
vn -0.817881405 -0.470673174 -0.330963403
vn -0.953846276 -0.298215151 -0.0352837443
vn 0.491559416 -0.863952279 -0.109343357
vn 0.885090888 -0.457745463 -0.0841618851
vn 0.806789577 -0.54415369 0.230189562
vn -0.0460904613 -0.734262824 0.677298903
vn -0.510045826 -0.317451537 0.799423397
vn -0.669790387 -0.535642266 0.514264762
vn 0.875182867 0.198109239 0.441370249
vn 0.75824964 -0.261126071 0.597386539
vn 0.806789577 -0.54415369 0.230189562
vn 0.090529263 0.818971694 -0.566647947
vn -0.367971331 0.868532121 -0.332037747
vn 0.226642758 0.951584458 -0.207653642
vn -0.239913374 0.341833264 0.908620715
vn 0.0484659858 0.781704009 0.621763587
vn -0.635664463 0.516238809 0.573958218
vn -0.601073086 0.796795011 0.0618770272
vn -0.367971331 0.868532121 -0.332037747
vn -0.818760872 0.528536975 -0.224230304
vn -0.569826066 -0.524211347 -0.632851183
vn -0.265757382 -0.320529431 -0.909194112
vn -0.464220732 -0.847057164 -0.258830786
vn -0.596211553 -0.0765476972 -0.799169719
vn -0.0534021854 0.288055897 -0.956123412
vn -0.265757382 -0.320529431 -0.909194112
vn -0.510045826 -0.317451537 0.799423397
vn -0.635664463 0.516238809 0.573958218
vn -0.862923265 0.369735867 0.344469011
vn -0.960001528 0.251981944 -0.122074485
vn -0.645500183 0.161901042 -0.746403098
vn -0.810195148 -0.180153936 -0.557788849
vn -0.810195148 -0.180153936 -0.557788849
vn -0.569826066 -0.524211347 -0.632851183
vn -0.817881405 -0.470673174 -0.330963403
vn 0.453076214 -0.312866271 0.834767342
vn 0.140970886 -0.203332976 0.968908131
vn -0.0460904613 -0.734262824 0.677298903
vn 0.885090888 -0.457745463 -0.0841618851
vn 0.932550192 -0.0791595429 -0.352255434
vn 0.999615908 -0.00169987557 0.027662944
vn 0.0484659858 0.781704009 0.621763587
vn -0.239913374 0.341833264 0.908620715
vn 0.162028536 0.306077331 0.938116968
vn 0.485492408 0.219898224 0.846133471
vn 0.875182867 0.198109239 0.441370249
vn 0.570697904 0.713918388 0.405739337
vn -0.395510226 0.916855216 0.0542977378
vn -0.601073086 0.796795011 0.0618770272
vn -0.393073469 0.857045472 0.333116055
vn 0.932550192 -0.0791595429 -0.352255434
vn 0.848413825 0.526126206 0.0581823811
vn 0.999615908 -0.00169987557 0.027662944
vn -0.393073469 0.857045472 0.333116055
vn 0.182583481 0.919922292 0.346995831
vn 0.0751110464 0.965366244 0.249852613
vn -0.960001528 0.251981944 -0.122074485
vn -0.810195148 -0.180153936 -0.557788849
vn -0.953846276 -0.298215151 -0.0352837443
vn 0.090529263 0.818971694 -0.566647947
vn -0.475528061 0.590191841 -0.652339339
vn -0.367971331 0.868532121 -0.332037747
vn 0.932550192 -0.0791595429 -0.352255434
vn 0.678835094 0.681639373 -0.273039788
vn 0.848413825 0.526126206 0.0581823811
vn -0.862923265 0.369735867 0.344469011
vn -0.960001528 0.251981944 -0.122074485
vn -0.914947271 -0.326856822 0.236719519
vn 0.678835094 0.681639373 -0.273039788
vn 0.479972124 0.64242059 -0.59743005
vn 0.501871347 0.864890456 -0.00946242269
vn 0.140970886 -0.203332976 0.968908131
vn 0.154464275 -0.774834752 0.6130023
vn -0.510045826 -0.317451537 0.799423397
vn 0.875182867 0.198109239 0.441370249
vn 0.848413825 0.526126206 0.0581823811
vn 0.570697904 0.713918388 0.405739337
vn 0.453076214 -0.312866271 0.834767342
vn 0.75824964 -0.261126071 0.597386539
vn 0.485492408 0.219898224 0.846133471
vn 0.501871347 0.864890456 -0.00946242269
vn 0.848413825 0.526126206 0.0581823811
vn 0.678835094 0.681639373 -0.273039788
vn -0.239913374 0.341833264 0.908620715
vn -0.510045826 -0.317451537 0.799423397
vn 0.154464275 -0.774834752 0.6130023
vn 0.848413825 0.526126206 0.0581823811
vn 0.875182867 0.198109239 0.441370249
vn 0.999615908 -0.00169987557 0.027662944
vn -0.960001528 0.251981944 -0.122074485
vn -0.862923265 0.369735867 0.344469011
vn -0.818760872 0.528536975 -0.224230304
vn -0.645500183 0.161901042 -0.746403098
vn -0.596211553 -0.0765476972 -0.799169719
vn -0.569826066 -0.524211347 -0.632851183
vn -0.810195148 -0.180153936 -0.557788849
vn -0.645500183 0.161901042 -0.746403098
vn -0.569826066 -0.524211347 -0.632851183
vn -0.393073469 0.857045472 0.333116055
vn -0.862923265 0.369735867 0.344469011
vn -0.635664463 0.516238809 0.573958218
vn -0.510045826 -0.317451537 0.799423397
vn -0.862923265 0.369735867 0.344469011
vn -0.669790387 -0.535642266 0.514264762
vn 0.600415468 -0.401994735 -0.691304266
vn 0.272568047 -0.784329236 -0.557256043
vn 0.252425104 -0.192559302 -0.94826287
vn -0.818760872 0.528536975 -0.224230304
vn -0.645500183 0.161901042 -0.746403098
vn -0.960001528 0.251981944 -0.122074485
vn -0.265757382 -0.320529431 -0.909194112
vn -0.569826066 -0.524211347 -0.632851183
vn -0.596211553 -0.0765476972 -0.799169719
vn 0.491559416 -0.863952279 -0.109343357
vn 0.932550192 -0.0791595429 -0.352255434
vn 0.885090888 -0.457745463 -0.0841618851
vn -0.862923265 0.369735867 0.344469011
vn -0.914947271 -0.326856822 0.236719519
vn -0.669790387 -0.535642266 0.514264762
vn 0.675274432 0.0699362159 -0.734243333
vn 0.600415468 -0.401994735 -0.691304266
vn 0.252425104 -0.192559302 -0.94826287
vn -0.953846276 -0.298215151 -0.0352837443
vn -0.817881405 -0.470673174 -0.330963403
vn -0.418218315 -0.901681185 0.109838292
vn 0.485492408 0.219898224 0.846133471
vn 0.140970886 -0.203332976 0.968908131
vn 0.453076214 -0.312866271 0.834767342
vn -0.601073086 0.796795011 0.0618770272
vn -0.862923265 0.369735867 0.344469011
vn -0.393073469 0.857045472 0.333116055
vn -0.367971331 0.868532121 -0.332037747
vn -0.601073086 0.796795011 0.0618770272
vn -0.395510226 0.916855216 0.0542977378
vn 0.875182867 0.198109239 0.441370249
vn 0.485492408 0.219898224 0.846133471
vn 0.75824964 -0.261126071 0.597386539
vn -0.0460904613 -0.734262824 0.677298903
vn 0.340129346 -0.84194237 0.418861657
vn 0.453076214 -0.312866271 0.834767342
vn 0.485492408 0.219898224 0.846133471
vn 0.162028536 0.306077331 0.938116968
vn 0.140970886 -0.203332976 0.968908131
vn 0.479972124 0.64242059 -0.59743005
vn 0.090529263 0.818971694 -0.566647947
vn 0.226642758 0.951584458 -0.207653642
vn 0.340129346 -0.84194237 0.418861657
vn 0.806789577 -0.54415369 0.230189562
vn 0.75824964 -0.261126071 0.597386539
vn 0.479972124 0.64242059 -0.59743005
vn 0.226642758 0.951584458 -0.207653642
vn 0.501871347 0.864890456 -0.00946242269
vn -0.475528061 0.590191841 -0.652339339
vn -0.645500183 0.161901042 -0.746403098
vn -0.818760872 0.528536975 -0.224230304
vn 0.479972124 0.64242059 -0.59743005
vn -0.0534021854 0.288055897 -0.956123412
vn 0.090529263 0.818971694 -0.566647947
vn 0.272568047 -0.784329236 -0.557256043
vn 0.600415468 -0.401994735 -0.691304266
vn 0.491559416 -0.863952279 -0.109343357
vn -0.953846276 -0.298215151 -0.0352837443
vn -0.418218315 -0.901681185 0.109838292
vn -0.914947271 -0.326856822 0.236719519
vn 0.182583481 0.919922292 0.346995831
vn 0.570697904 0.713918388 0.405739337
vn 0.0751110464 0.965366244 0.249852613
vn -0.265757382 -0.320529431 -0.909194112
vn 0.252425104 -0.192559302 -0.94826287
vn 0.272568047 -0.784329236 -0.557256043
vn -0.0534021854 0.288055897 -0.956123412
vn 0.252425104 -0.192559302 -0.94826287
vn -0.265757382 -0.320529431 -0.909194112
vn -0.635664463 0.516238809 0.573958218
vn 0.0484659858 0.781704009 0.621763587
vn -0.393073469 0.857045472 0.333116055
vn -0.239913374 0.341833264 0.908620715
vn 0.140970886 -0.203332976 0.968908131
vn 0.162028536 0.306077331 0.938116968
vn 0.999615908 -0.00169987557 0.027662944
vn 0.875182867 0.198109239 0.441370249
vn 0.806789577 -0.54415369 0.230189562
vn -0.818760872 0.528536975 -0.224230304
vn -0.367971331 0.868532121 -0.332037747
vn -0.475528061 0.590191841 -0.652339339
vn 0.932550192 -0.0791595429 -0.352255434
vn 0.675274432 0.0699362159 -0.734243333
vn 0.678835094 0.681639373 -0.273039788
vn -0.569826066 -0.524211347 -0.632851183
vn -0.464220732 -0.847057164 -0.258830786
vn -0.817881405 -0.470673174 -0.330963403
vn -0.0460904613 -0.734262824 0.677298903
vn -0.669790387 -0.535642266 0.514264762
vn -0.418218315 -0.901681185 0.109838292
vn -0.464220732 -0.847057164 -0.258830786
vn 0.155059919 -0.986643255 0.0499150641
vn -0.418218315 -0.901681185 0.109838292
vn -0.329921901 -0.803718328 -0.495164931
vn 0.491559416 -0.863952279 -0.109343357
vn 0.155059919 -0.986643255 0.0499150641
vn -0.418218315 -0.901681185 0.109838292
vn -0.669790387 -0.535642266 0.514264762
vn -0.914947271 -0.326856822 0.236719519
vn 0.155059919 -0.986643255 0.0499150641
vn -0.0460904613 -0.734262824 0.677298903
vn -0.418218315 -0.901681185 0.109838292
vn -0.265757382 -0.320529431 -0.909194112
vn -0.329921901 -0.803718328 -0.495164931
vn -0.464220732 -0.847057164 -0.258830786
vn -0.464220732 -0.847057164 -0.258830786
vn -0.329921901 -0.803718328 -0.495164931
vn 0.155059919 -0.986643255 0.0499150641
vn 0.272568047 -0.784329236 -0.557256043
vn 0.491559416 -0.863952279 -0.109343357
vn -0.329921901 -0.803718328 -0.495164931
vn 0.155059919 -0.986643255 0.0499150641
vn 0.806789577 -0.54415369 0.230189562
vn 0.340129346 -0.84194237 0.418861657
vn -0.0460904613 -0.734262824 0.677298903
vn 0.155059919 -0.986643255 0.0499150641
vn 0.340129346 -0.84194237 0.418861657
vn -0.418218315 -0.901681185 0.109838292
vn -0.817881405 -0.470673174 -0.330963403
vn -0.464220732 -0.847057164 -0.258830786
g Group49728
f 26/1/1 48/2/2 29/3/3
f 1/4/4 21/5/5 12/6/6
f 19/7/7 3/8/8 6/9/9
f 22/10/10 42/11/11 53/12/12
f 20/13/13 52/14/14 18/15/15
f 20/16/16 18/17/17 8/18/18
f 13/19/19 1/20/20 45/21/21
f 20/22/22 8/23/23 16/24/24
f 53/25/25 41/26/26 10/27/27
f 14/28/28 5/29/29 46/30/30
f 23/31/31 12/32/32 27/33/33
f 36/34/34 12/35/35 21/36/36
f 18/37/37 52/38/38 31/39/39
f 7/40/40 26/41/41 29/42/42
f 38/43/43 2/44/44 51/45/45
f 52/46/46 20/47/47 7/48/48
f 1/49/49 12/50/50 32/51/51
f 13/52/52 45/53/53 40/54/54
f 48/55/55 31/56/56 52/57/57
f 44/58/58 50/59/59 43/60/60
f 54/61/61 23/62/62 27/63/63
f 14/64/64 8/65/65 5/66/66
f 5/67/67 8/68/68 55/69/69
f 31/70/70 5/71/71 55/72/72
f 49/73/73 35/74/74 30/75/75
f 28/76/76 9/77/77 24/78/78
f 1/79/79 13/80/80 47/81/81
f 30/82/82 25/83/83 54/84/84
f 22/85/85 11/86/86 41/87/87
f 7/88/88 29/89/89 52/90/90
f 52/91/91 29/92/92 48/93/93
f 37/94/94 17/95/95 43/96/96
f 54/97/97 49/98/98 30/99/99
f 10/100/100 41/101/101 34/102/102
f 33/103/103 51/104/104 30/105/105
f 47/106/106 26/107/107 7/108/108
f 22/109/109 5/110/110 11/111/111
f 9/112/112 26/113/113 24/114/114
f 39/115/115 19/116/116 15/117/117
f 45/118/118 1/119/119 19/120/120
f 41/121/121 11/122/122 28/123/123
f 50/124/124 40/125/125 37/126/126
f 37/127/127 39/128/128 17/129/129
f 38/130/130 53/131/131 10/132/132
f 49/133/133 27/134/134 35/135/135
f 5/136/136 22/137/137 46/138/138
f 14/139/139 33/140/140 8/141/141
f 48/142/142 9/143/143 31/144/144
f 27/145/145 16/146/146 35/147/147
f 31/148/148 55/149/149 18/150/150
f 50/151/151 37/152/152 43/153/153
f 47/154/154 13/155/155 26/156/156
f 27/157/157 36/158/158 16/159/159
f 28/160/160 50/161/161 44/162/162
f 36/163/163 21/164/164 20/165/165
f 53/166/166 42/167/167 41/168/168
f 33/169/169 16/170/170 8/171/171
f 38/172/172 51/173/173 14/174/174
f 20/175/175 16/176/176 36/177/177
f 22/178/178 41/179/179 42/180/180
f 16/181/181 33/182/182 35/183/183
f 50/184/184 28/185/185 24/186/186
f 40/187/187 45/188/188 39/189/189
f 37/190/190 40/191/191 39/192/192
f 31/193/193 28/194/194 11/195/195
f 41/196/196 28/197/197 34/198/198
f 23/199/199 3/200/200 32/201/201
f 24/202/202 40/203/203 50/204/204
f 19/205/205 39/206/206 45/207/207
f 54/208/208 27/209/209 49/210/210
f 28/211/211 44/212/212 34/213/213
f 12/214/214 23/215/215 32/216/216
f 43/217/217 17/218/218 4/219/219
f 14/220/220 53/221/221 38/222/222
f 9/223/223 28/224/224 31/225/225
f 26/226/226 9/227/227 48/228/228
f 33/229/229 14/230/230 51/231/231
f 10/232/232 2/233/233 38/234/234
f 14/235/235 46/236/236 53/237/237
f 21/238/238 47/239/239 7/240/240
f 2/241/241 30/242/242 51/243/243
f 21/244/244 7/245/245 20/246/246
f 13/247/247 40/248/248 24/249/249
f 21/250/250 1/251/251 47/252/252
f 3/253/253 23/254/254 54/255/255
f 43/256/256 4/257/257 44/258/258
f 55/259/259 8/260/260 18/261/261
f 19/262/262 32/263/263 3/264/264
f 1/265/265 32/266/266 19/267/267
f 11/268/268 5/269/269 31/270/270
f 22/271/271 53/272/272 46/273/273
f 35/274/274 33/275/275 30/276/276
f 24/277/277 26/278/278 13/279/279
f 27/280/280 12/281/281 36/282/282
f 39/283/283 15/284/284 17/285/285
f 10/286/286 34/287/287 4/288/288
f 15/289/289 25/290/290 4/291/291
f 6/292/292 54/293/293 25/294/294
f 4/295/295 34/296/296 44/297/297
f 25/298/298 10/299/299 4/300/300
f 19/301/301 6/302/302 15/303/303
f 15/304/304 6/305/305 25/306/306
f 3/307/307 54/308/308 6/309/309
f 25/310/310 30/311/311 2/312/312
f 10/313/313 25/314/314 2/315/315
f 4/316/316 17/317/317 15/318/318
