# File exported by Houdini 16.5.405 (www.sidefx.com)
# 70 points
# 366 vertices
# 122 primitives
# Bounds: [-107.301872, -1.5280093, -74.13974] to [107.321648, 72.3348312, 74.4970932]
g 
v -107.301872 -1.50703442 -5.41538906
v -102.585716 19.2835522 -28.8218918
v -90.1014175 18.3057842 22.5331497
v -85.2456818 -1.16450417 -60.7397537
v -88.6916885 18.8302383 -57.589489
v -54.8903656 20.7863579 -12.357461
v -69.3999481 20.6437187 -67.4713516
v -64.8526917 -1.5280093 -67.6158218
v -47.520134 13.8317575 -60.1499748
v -36.6254196 19.5664063 -26.1432571
v -22.4920292 10.2579308 -59.1608315
v -28.6346722 11.9048777 -31.9261417
v -13.7977762 56.2320938 -35.2091179
v 9.91126728 -1.15001667 -48.1909904
v 7.55667067 11.1772957 -41.2924881
v -68.7335587 17.9430561 30.1807766
v -68.6756821 10.8243828 48.9150848
v -62.0071526 -1.07181954 54.9691734
v -66.9204788 49.4545937 25.9231205
v -57.387001 10.7552795 57.280098
v -33.7486153 13.3421001 48.1595879
v -43.6650047 46.9614372 46.6049461
v -22.8535175 -1.16178358 46.1400337
v -21.5699482 53.5268364 48.1261978
v 4.50706005 -0.720263779 54.7518158
v 9.74927044 15.8950672 53.3735695
v -52.5905838 55.3714218 -12.3286161
v -64.3836517 56.0352631 5.89017725
v -34.5647278 56.4127464 12.6162872
v -34.1620598 71.8887711 13.0818777
v 17.755003 70.924614 -24.1151791
v -31.5395088 52.9486198 33.4377327
v -32.5524445 72.0658569 29.6686516
v -0.00847881474 71.5736313 41.1664124
v 7.44312716 51.9932899 41.4938965
v 50.9438553 72.3348312 -9.20376873
v 14.098073 15.3149681 -49.248394
v 11.6971903 23.1833687 -40.5062408
v 32.7642021 0.463367611 -63.3804474
v 28.5738144 21.0569801 -60.2552071
v 32.7002411 23.9449978 -41.394146
v 38.1710548 15.7009563 -74.13974
v 41.1263466 -1.21808791 -71.518158
v 25.9934578 54.6375771 -37.6166763
v 47.9458122 51.5505409 -23.1571426
v 50.7927437 25.9931526 -24.4186192
v 71.4890747 -1.15402353 -52.4533997
v 73.8644638 15.804142 -50.2471962
v 74.5929413 26.1052418 5.05346441
v 75.5802612 49.4249077 14.3864689
v 89.838028 19.207262 -23.005312
v 75.7230759 7.61875105 1.00326538
v 79.8461609 4.61439371 28.2247276
v 90.3407059 2.41781569 -21.096302
v 107.321648 0.777604043 7.10781097
v 13.4265022 7.78262043 68.1223297
v 24.5275726 0.565628231 74.4970932
v 47.4689369 16.5489845 64.6399002
v 50.8304062 17.2056942 53.1580162
v 53.1039391 49.0249786 49.5574875
v 53.9804802 -0.409205437 59.4224129
v 49.8283386 -0.883121371 51.5126839
v 62.158474 5.29362154 40.0938988
v 75.5552826 38.230484 29.9444561
v 21.4227409 54.624588 -23.5950031
v 50.5132103 52.9282455 -11.2578106
v 64.5169296 70.1600494 12.2103491
v 36.3729782 71.3763809 45.0984993
v 58.1305351 71.8732147 36.4427643
v 60.7013016 48.7389946 37.1274185
vt 0.645168006 0.647926569 0
vt 0.839446485 0.65057385 0
vt 0.756646693 0.731553495 0
vt 0.839446485 0.65057385 0
vt 0.978729904 0.715652764 0
vt 0.756646693 0.731553495 0
vt 0.839446485 0.65057385 0
vt 0.954936266 0.641942382 0
vt 0.978729904 0.715652764 0
vt 0.398341388 0.474112719 0
vt 0.535372317 0.349667996 0
vt 0.500776231 0.420614868 0
vt 0.398341388 0.474112719 0
vt 0.33125928 0.30171746 0
vt 0.535372317 0.349667996 0
vt 0.442556471 0.566144645 0
vt 0.538557291 0.639545441 0
vt 0.459249884 0.638635576 0
vt 0.520246863 0.562178195 0
vt 0.538557291 0.639545441 0
vt 0.442556471 0.566144645 0
vt 0.520246863 0.562178195 0
vt 0.603425264 0.578767776 0
vt 0.538557291 0.639545441 0
vt 0.603425264 0.578767776 0
vt 0.698890269 0.595992923 0
vt 0.538557291 0.639545441 0
vt 0.38132894 0.232503563 0
vt 0.510422885 0.263173521 0
vt 0.535372317 0.349667996 0
vt 0.535372317 0.349667996 0
vt 0.33125928 0.30171746 0
vt 0.38132894 0.232503563 0
vt 0.510422885 0.263173521 0
vt 0.38132894 0.232503563 0
vt 0.405949593 0.194456115 0
vt 0.698890269 0.595992923 0
vt 0.825578809 0.637769043 0
vt 0.538557291 0.639545441 0
vt 0.140520304 0.904544473 0
vt 0.0204923563 0.869684815 0
vt 0.107854933 0.81531179 0
vt 0.703352928 0.407055408 0
vt 0.647916734 0.573166907 0
vt 0.611648977 0.54269439 0
vt 0.0204923563 0.869684815 0
vt 0.0100589124 0.731436014 0
vt 0.107854933 0.81531179 0
vt 0.703352928 0.407055408 0
vt 0.790734887 0.572153926 0
vt 0.647916734 0.573166907 0
vt 0.207865983 0.437907577 0
vt 0.33125928 0.30171746 0
vt 0.398341388 0.474112719 0
vt 0.645168006 0.647926569 0
vt 0.756646693 0.731553495 0
vt 0.515559196 0.6596542 0
vt 0.476715118 0.701897979 0
vt 0.515559196 0.6596542 0
vt 0.756646693 0.731553495 0
vt 0.173713446 0.359782934 0
vt 0.33125928 0.30171746 0
vt 0.207865983 0.437907577 0
vt 0.0966612175 0.367960453 0
vt 0.0633721799 0.325284481 0
vt 0.207865983 0.437907577 0
vt 0.0633721799 0.325284481 0
vt 0.173713446 0.359782934 0
vt 0.207865983 0.437907577 0
vt 0.0392078646 0.00334193534 0
vt 0.0480559953 0.0455141775 0
vt 0.00141338585 0.0398166291 0
vt 0.10916166 0.203894034 0
vt -7.7641911e-05 0.225124389 0
vt -0.00584695814 0.110427938 0
vt 0.10916166 0.203894034 0
vt -0.00584695814 0.110427938 0
vt 0.133438036 0.0741051063 0
vt 0.133438036 0.0741051063 0
vt 0.0392078646 0.00334193534 0
vt 0.177947164 0.0207979381 0
vt 0.279388607 0.0204715952 0
vt 0.10916166 0.203894034 0
vt 0.133438036 0.0741051063 0
vt 0.187283963 0.224694341 0
vt 0.10916166 0.203894034 0
vt 0.279388607 0.0204715952 0
vt 0.279388607 0.0204715952 0
vt 0.133438036 0.0741051063 0
vt 0.177947164 0.0207979381 0
vt 0.187283963 0.224694341 0
vt 0.279388607 0.0204715952 0
vt 0.30050388 0.0831229463 0
vt 0.537060261 0.406660646 0
vt 0.611648977 0.54269439 0
vt 0.526525021 0.535553336 0
vt 0.611648977 0.54269439 0
vt 0.537060261 0.406660646 0
vt 0.703352928 0.407055408 0
vt 0.558414876 0.342630118 0
vt 0.788419545 0.406290174 0
vt 0.623760819 0.387213916 0
vt 0.535326123 0.804295719 0
vt 0.767963409 0.820289373 0
vt 0.532885492 0.861939192 0
vt 0.605071127 0.997219861 0
vt 0.525993586 0.999307156 0
vt 0.652024209 0.888955772 0
vt 0.652024209 0.888955772 0
vt 0.525993586 0.999307156 0
vt 0.486773193 0.854144216 0
vt 0.525993586 0.999307156 0
vt 0.449514449 0.976802289 0
vt 0.486773193 0.854144216 0
vt 0.514536321 0.278505087 0
vt 0.649436712 0.276794255 0
vt 0.558414876 0.342630118 0
vt 0.514536321 0.278505087 0
vt 0.555012643 0.1706388 0
vt 0.649436712 0.276794255 0
vt 0.649436712 0.276794255 0
vt 0.555012643 0.1706388 0
vt 0.621699274 0.192675158 0
vt 0.649436712 0.276794255 0
vt 0.788419545 0.406290174 0
vt 0.558414876 0.342630118 0
vt 0.708546817 0.255291432 0
vt 0.649436712 0.276794255 0
vt 0.621699274 0.192675158 0
vt 0.555012643 0.1706388 0
vt 0.625575602 0.128614202 0
vt 0.621699274 0.192675158 0
vt 0.694742143 0.19451192 0
vt 0.708546817 0.255291432 0
vt 0.621699274 0.192675158 0
vt 0.0333949141 0.447998405 0
vt 0.160522908 0.436813265 0
vt 0.0117581822 0.504428208 0
vt 0.844148934 0.729576409 0
vt 0.973732173 0.723840594 0
vt 0.966635346 0.79489255 0
vt 0.625575602 0.128614202 0
vt 0.729345322 0.102425247 0
vt 0.621699274 0.192675158 0
vt 0.844148934 0.729576409 0
vt 0.966635346 0.79489255 0
vt 0.817278743 0.802437127 0
vt 0.160522908 0.436813265 0
vt 0.294597834 0.666227937 0
vt 0.0117581822 0.504428208 0
vt 0.0100589124 0.731436014 0
vt 0.0217696372 0.695281744 0
vt 0.107854933 0.81531179 0
vt 0.698890269 0.595992923 0
vt 0.843809903 0.574007928 0
vt 0.825578809 0.637769043 0
vt 0.803182244 0.524804652 0
vt 0.830968738 0.55878365 0
vt 0.790734887 0.572153926 0
vt 0.703352928 0.407055408 0
vt 0.803182244 0.524804652 0
vt 0.790734887 0.572153926 0
vt 0.843809903 0.574007928 0
vt 0.938004553 0.628310978 0
vt 0.825578809 0.637769043 0
vt 0.914947689 0.548684597 0
vt 0.938004553 0.628310978 0
vt 0.843809903 0.574007928 0
vt 0.104773849 0.657248855 0
vt 0.121946834 0.750662625 0
vt 0.0789124593 0.694370508 0
vt 0.104773849 0.657248855 0
vt 0.17360425 0.700563848 0
vt 0.121946834 0.750662625 0
vt 0.321351647 0.230449021 0
vt 0.287655413 0.29244864 0
vt 0.276691586 0.230423346 0
vt 0.121946834 0.750662625 0
vt 0.122889355 0.816040933 0
vt 0.0571177714 0.782479882 0
vt 0.803182244 0.524804652 0
vt 0.845131516 0.406134218 0
vt 0.88141185 0.514437199 0
vt 0.17360425 0.700563848 0
vt 0.264457017 0.683535814 0
vt 0.121946834 0.750662625 0
vt 0.287655413 0.29244864 0
vt 0.141848087 0.227556273 0
vt 0.276691586 0.230423346 0
vt 0.706384063 0.235978499 0
vt 0.835144162 0.0992897823 0
vt 0.835966885 0.191150725 0
vt 0.287655413 0.29244864 0
vt 0.129192397 0.290412188 0
vt 0.141848087 0.227556273 0
vt 0.121946834 0.750662625 0
vt 0.281542808 0.816938341 0
vt 0.122889355 0.816040933 0
vt 0.121946834 0.750662625 0
vt 0.387150019 0.765597105 0
vt 0.281542808 0.816938341 0
vt 0.399766833 0.645930469 0
vt 0.387150019 0.765597105 0
vt 0.121946834 0.750662625 0
vt 0.399326056 0.774652123 0
vt 0.513668358 0.805702507 0
vt 0.421058714 0.877561092 0
vt 0.763652325 0.949709296 0
vt 0.779501557 0.887299597 0
vt 0.902174115 0.94338274 0
vt 0.779501557 0.887299597 0
vt 0.896460772 0.881441653 0
vt 0.902174115 0.94338274 0
vt 1.01234424 0.853007078 0
vt 1.00206161 0.921427548 0
vt 0.902174115 0.94338274 0
vt 0.896460772 0.881441653 0
vt 1.01234424 0.853007078 0
vt 0.902174115 0.94338274 0
vt 0.200969607 0.863978505 0
vt 0.22479704 0.923905432 0
vt 0.161697447 0.917574167 0
vt 0.200969607 0.863978505 0
vt 0.325314164 0.819206774 0
vt 0.22479704 0.923905432 0
vt 0.446917444 0.0860746056 0
vt 0.460984826 0.20368138 0
vt 0.30050388 0.0831229463 0
vt 0.124640286 0.97499615 0
vt 0.0313745625 0.91771692 0
vt 0.159869701 0.937240839 0
vt 0.00151784753 0.982123852 0
vt 0.0313745625 0.91771692 0
vt 0.124640286 0.97499615 0
vt 0.22479704 0.923905432 0
vt 0.325314164 0.819206774 0
vt 0.356279284 0.848184466 0
vt 0.416275233 0.826163352 0
vt 0.356279284 0.848184466 0
vt 0.400044709 0.798924863 0
vt 0.446917444 0.0860746056 0
vt 0.443797916 0.00779941678 0
vt 0.511836946 0.0385789648 0
vt 0.356279284 0.848184466 0
vt 0.325314164 0.819206774 0
vt 0.400044709 0.798924863 0
vt 0.591554046 0.0390716307 0
vt 0.460984826 0.20368138 0
vt 0.446917444 0.0860746056 0
vt 0.597834587 0.0473817438 0
vt 0.511836946 0.0385789648 0
vt 0.443797916 0.00779941678 0
vt 0.591554046 0.0390716307 0
vt 0.446917444 0.0860746056 0
vt 0.511836946 0.0385789648 0
vt 0.737972617 0.0501926169 0
vt 0.597834587 0.0473817438 0
vt 0.443797916 0.00779941678 0
vt 0.835144162 0.0992897823 0
vt 0.903007805 0.113012992 0
vt 0.948643386 0.23165822 0
vt 0.461846113 0.689484954 0
vt 0.513668358 0.805702507 0
vt 0.399326056 0.774652123 0
vt 0.532885492 0.861939192 0
vt 0.767963409 0.820289373 0
vt 0.781704187 0.878196478 0
vt 0.703352928 0.407055408 0
vt 0.845131516 0.406134218 0
vt 0.803182244 0.524804652 0
vt 0.649436712 0.276794255 0
vt 0.885363221 0.312748432 0
vt 0.788419545 0.406290174 0
vt 0.885363221 0.312748432 0
vt 0.922935784 0.351612866 0
vt 0.788419545 0.406290174 0
vt 0.0117581822 0.504428208 0
vt 0.294597834 0.666227937 0
vt 0.161913887 0.688551128 0
vt 0.845131516 0.406134218 0
vt 0.939108789 0.39519158 0
vt 0.88141185 0.514437199 0
vt 0.885363221 0.312748432 0
vt 0.959589124 0.223429978 0
vt 0.922935784 0.351612866 0
vt 0.767963409 0.820289373 0
vt 0.901668429 0.870589316 0
vt 0.781704187 0.878196478 0
vt 0.767963409 0.820289373 0
vt 0.896121562 0.797078967 0
vt 0.901668429 0.870589316 0
vt 0.939108789 0.39519158 0
vt 0.96688503 0.484295547 0
vt 0.88141185 0.514437199 0
vt 0.959589124 0.223429978 0
vt 1.00377452 0.0938647762 0
vt 0.922935784 0.351612866 0
vt 0.673297882 0.147636175 0
vt 0.835144162 0.0992897823 0
vt 0.706384063 0.235978499 0
vt 0.922935784 0.351612866 0
vt 1.00377452 0.0938647762 0
vt 0.973681509 0.267493308 0
vt 0.246163175 0.908607304 0
vt 0.3387115 0.914108217 0
vt 0.241574362 0.981364906 0
vt 0.187283963 0.224694341 0
vt 0.30050388 0.0831229463 0
vt 0.460984826 0.20368138 0
vt 0.625575602 0.128614202 0
vt 0.869969845 0.00703876466 0
vt 0.729345322 0.102425247 0
vt 0.708887339 0.732264578 0
vt 0.844148934 0.729576409 0
vt 0.817278743 0.802437127 0
vt 0.160522908 0.436813265 0
vt 0.364197344 0.510983706 0
vt 0.294597834 0.666227937 0
vt 0.708887339 0.732264578 0
vt 0.817278743 0.802437127 0
vt 0.647121847 0.818202972 0
vt 0.364197344 0.510983706 0
vt 0.160522908 0.436813265 0
vt 0.295449913 0.459400475 0
vt 0.62328428 0.727765322 0
vt 0.708887339 0.732264578 0
vt 0.647121847 0.818202972 0
vt 0.62328428 0.727765322 0
vt 0.647121847 0.818202972 0
vt 0.611091256 0.812031269 0
vt 0.364197344 0.510983706 0
vt 0.365145415 0.604221106 0
vt 0.294597834 0.666227937 0
vt 0.869969845 0.00703876466 0
vt 1.00377452 0.0938647762 0
vt 0.91589582 0.0385603197 0
vt 0.241574362 0.981364906 0
vt 0.3387115 0.914108217 0
vt 0.437143147 0.982102931 0
vt 0.91589582 0.0385603197 0
vt 1.00377452 0.0938647762 0
vt 0.959589124 0.223429978 0
vt 0.3387115 0.914108217 0
vt 0.428449959 0.895909667 0
vt 0.437143147 0.982102931 0
vt 0.835144162 0.0992897823 0
vt 0.849826276 0.260601044 0
vt 0.835966885 0.191150725 0
vt 0.835144162 0.0992897823 0
vt 0.948643386 0.23165822 0
vt 0.849826276 0.260601044 0
vt 0.835144162 0.0992897823 0
vt 0.965568304 0.0111004775 0
vt 0.903007805 0.113012992 0
vt 0.572851479 0.165426627 0
vt 0.460984826 0.20368138 0
vt 0.591554046 0.0390716307 0
vt 0.264457017 0.683535814 0
vt 0.399766833 0.645930469 0
vt 0.121946834 0.750662625 0
vt 0.133438036 0.0741051063 0
vt 0.0480559953 0.0455141775 0
vt 0.0392078646 0.00334193534 0
vt 0.0633721799 0.325284481 0
vt 0.0917156711 0.232956246 0
vt 0.173713446 0.359782934 0
vn -0.567846298 0.620649517 0.384774983
vn -0.616505623 0.725617468 -0.0129929679
vn -0.909430146 0.0840377137 0.338267922
vn -0.616505623 0.725617468 -0.0129929679
vn -0.762423515 -0.169179067 -0.680810988
vn -0.909430146 0.0840377137 0.338267922
vn -0.616505623 0.725617468 -0.0129929679
vn -0.67633146 0.240768537 -0.582996309
vn -0.762423515 -0.169179067 -0.680810988
vn -0.616505623 0.725617468 -0.0129929679
vn 0.077086091 0.877877712 -0.24678047
vn -0.67633146 0.240768537 -0.582996309
vn -0.616505623 0.725617468 -0.0129929679
vn -0.166215897 0.830046713 -0.224043265
vn 0.077086091 0.877877712 -0.24678047
vn -0.67633146 0.240768537 -0.582996309
vn -0.00937116798 -0.144727111 -1.04935873
vn -0.762423515 -0.169179067 -0.680810988
vn 0.077086091 0.877877712 -0.24678047
vn -0.00937116798 -0.144727111 -1.04935873
vn -0.67633146 0.240768537 -0.582996309
vn 0.077086091 0.877877712 -0.24678047
vn 0.643838763 0.571808279 -0.365209937
vn -0.00937116798 -0.144727111 -1.04935873
vn 0.643838763 0.571808279 -0.365209937
vn 0.141080156 0.773726881 -0.419150025
vn -0.00937116798 -0.144727111 -1.04935873
vn -0.155767858 0.552508533 -0.566260636
vn 0.643838763 0.571808279 -0.365209937
vn 0.077086091 0.877877712 -0.24678047
vn 0.077086091 0.877877712 -0.24678047
vn -0.166215897 0.830046713 -0.224043265
vn -0.155767858 0.552508533 -0.566260636
vn 0.643838763 0.571808279 -0.365209937
vn -0.155767858 0.552508533 -0.566260636
vn -0.314827979 0.457045883 -0.715080917
vn 0.141080156 0.773726881 -0.419150025
vn 0.232850417 -0.158110723 -0.974577904
vn -0.00937116798 -0.144727111 -1.04935873
vn 0.643838763 0.571808279 -0.365209937
vn -0.314827979 0.457045883 -0.715080917
vn 0.141080156 0.773726881 -0.419150025
vn -0.163897723 0.430009723 -0.646435082
vn -0.314827979 0.457045883 -0.715080917
vn -0.155767858 0.552508533 -0.566260636
vn -0.314827979 0.457045883 -0.715080917
vn -0.126777917 0.58185035 -0.606004357
vn 0.141080156 0.773726881 -0.419150025
vn -0.163897723 0.430009723 -0.646435082
vn -0.126777917 0.58185035 -0.606004357
vn -0.314827979 0.457045883 -0.715080917
vn -0.567846298 0.620649517 0.384774983
vn -0.166215897 0.830046713 -0.224043265
vn -0.616505623 0.725617468 -0.0129929679
vn -0.567846298 0.620649517 0.384774983
vn -0.909430146 0.0840377137 0.338267922
vn -0.636218727 0.0229604635 0.687493861
vn -0.478003353 0.0801299959 0.838367105
vn -0.636218727 0.0229604635 0.687493861
vn -0.909430146 0.0840377137 0.338267922
vn -0.614837766 0.580417871 0.36092177
vn -0.166215897 0.830046713 -0.224043265
vn -0.567846298 0.620649517 0.384774983
vn -0.636218727 0.0229604635 0.687493861
vn 0.0197696444 0.543461204 0.636668742
vn -0.567846298 0.620649517 0.384774983
vn 0.0197696444 0.543461204 0.636668742
vn -0.614837766 0.580417871 0.36092177
vn -0.567846298 0.620649517 0.384774983
vn -0.478003353 0.0801299959 0.838367105
vn 0.0197696444 0.543461204 0.636668742
vn -0.636218727 0.0229604635 0.687493861
vn -0.343944371 0.31630373 0.80831331
vn -0.781895399 0.209163621 0.51187408
vn -0.614837766 0.580417871 0.36092177
vn -0.343944371 0.31630373 0.80831331
vn -0.614837766 0.580417871 0.36092177
vn 0.0256899185 0.617345989 0.657506585
vn 0.0256899185 0.617345989 0.657506585
vn -0.478003353 0.0801299959 0.838367105
vn 0.182149723 -0.0591381453 0.948211014
vn -0.194215268 -0.162909791 0.91197443
vn -0.343944371 0.31630373 0.80831331
vn 0.0256899185 0.617345989 0.657506585
vn -0.099629797 0.46604985 0.781899989
vn -0.343944371 0.31630373 0.80831331
vn -0.194215268 -0.162909791 0.91197443
vn -0.194215268 -0.162909791 0.91197443
vn 0.0256899185 0.617345989 0.657506585
vn 0.182149723 -0.0591381453 0.948211014
vn -0.099629797 0.46604985 0.781899989
vn -0.194215268 -0.162909791 0.91197443
vn -0.214284196 0.373592198 0.747669518
vn -0.579503 0.409081578 -0.618511796
vn -0.155767858 0.552508533 -0.566260636
vn -0.166215897 0.830046713 -0.224043265
vn -0.155767858 0.552508533 -0.566260636
vn -0.579503 0.409081578 -0.618511796
vn -0.163897723 0.430009723 -0.646435082
vn -0.638675213 0.610102236 -0.211255595
vn -0.163897723 0.430009723 -0.646435082
vn -0.579503 0.409081578 -0.618511796
vn -0.222013742 0.867620289 -0.211172879
vn -0.146615908 0.693080366 -0.586117566
vn -0.266144514 0.706853151 -0.257064223
vn -0.781895399 0.209163621 0.51187408
vn -0.638675213 0.610102236 -0.211255595
vn -0.614837766 0.580417871 0.36092177
vn -0.614837766 0.580417871 0.36092177
vn -0.638675213 0.610102236 -0.211255595
vn -0.166215897 0.830046713 -0.224043265
vn -0.638675213 0.610102236 -0.211255595
vn -0.579503 0.409081578 -0.618511796
vn -0.166215897 0.830046713 -0.224043265
vn -0.781895399 0.209163621 0.51187408
vn -0.266144514 0.706853151 -0.257064223
vn -0.638675213 0.610102236 -0.211255595
vn -0.781895399 0.209163621 0.51187408
vn -0.343944371 0.31630373 0.80831331
vn -0.266144514 0.706853151 -0.257064223
vn -0.266144514 0.706853151 -0.257064223
vn -0.343944371 0.31630373 0.80831331
vn -0.536179781 0.494764537 0.47733447
vn -0.266144514 0.706853151 -0.257064223
vn -0.163897723 0.430009723 -0.646435082
vn -0.638675213 0.610102236 -0.211255595
vn -0.222013742 0.867620289 -0.211172879
vn -0.266144514 0.706853151 -0.257064223
vn -0.536179781 0.494764537 0.47733447
vn -0.343944371 0.31630373 0.80831331
vn -0.099629797 0.46604985 0.781899989
vn -0.536179781 0.494764537 0.47733447
vn -0.667888165 0.420780122 0.468034953
vn -0.222013742 0.867620289 -0.211172879
vn -0.536179781 0.494764537 0.47733447
vn -0.667888165 0.420780122 0.468034953
vn -0.00613177428 0.815081954 0.446993202
vn -0.222013742 0.867620289 -0.211172879
vn -0.00613177428 0.815081954 0.446993202
vn -0.667888165 0.420780122 0.468034953
vn -0.536179781 0.494764537 0.47733447
vn -0.099629797 0.46604985 0.781899989
vn 0.0572873354 0.446929187 0.782966733
vn -0.536179781 0.494764537 0.47733447
vn -0.00613177428 0.815081954 0.446993202
vn -0.536179781 0.494764537 0.47733447
vn 0.0572873354 0.446929187 0.782966733
vn -0.00613177428 0.815081954 0.446993202
vn 0.238804609 0.811245441 -0.272867918
vn -0.222013742 0.867620289 -0.211172879
vn -0.126777917 0.58185035 -0.606004357
vn -0.565837383 0.231035307 -0.689789236
vn 0.141080156 0.773726881 -0.419150025
vn 0.141080156 0.773726881 -0.419150025
vn -0.565837383 0.231035307 -0.689789236
vn 0.232850417 -0.158110723 -0.974577904
vn -0.463331938 0.537683189 -0.671744347
vn -0.565837383 0.231035307 -0.689789236
vn -0.126777917 0.58185035 -0.606004357
vn -0.163897723 0.430009723 -0.646435082
vn -0.463331938 0.537683189 -0.671744347
vn -0.126777917 0.58185035 -0.606004357
vn -0.565837383 0.231035307 -0.689789236
vn -0.812493682 -0.289437532 -0.533230066
vn 0.232850417 -0.158110723 -0.974577904
vn -0.0572661832 0.948211312 -0.265835702
vn -0.812493682 -0.289437532 -0.533230066
vn -0.565837383 0.231035307 -0.689789236
vn -0.463331938 0.537683189 -0.671744347
vn -0.0572661832 0.948211312 -0.265835702
vn -0.565837383 0.231035307 -0.689789236
vn -0.463331938 0.537683189 -0.671744347
vn 0.418975055 0.508697629 -0.614423156
vn -0.0572661832 0.948211312 -0.265835702
vn -0.812493682 -0.289437532 -0.533230066
vn 0.133407429 0.750208616 -0.573256314
vn 0.0437553339 -0.242625192 -0.976021528
vn -0.0572661832 0.948211312 -0.265835702
vn 0.133407429 0.750208616 -0.573256314
vn -0.812493682 -0.289437532 -0.533230066
vn -0.463331938 0.537683189 -0.671744347
vn 0.165859252 0.619431078 -0.596433043
vn 0.418975055 0.508697629 -0.614423156
vn 0.418975055 0.508697629 -0.614423156
vn 0.669447005 0.2812244 -0.671436548
vn -0.0572661832 0.948211312 -0.265835702
vn 0.133407429 0.750208616 -0.573256314
vn 0.697297215 -0.0884544849 -0.753814578
vn 0.0437553339 -0.242625192 -0.976021528
vn 0.669447005 0.2812244 -0.671436548
vn 0.745175958 0.478663445 -0.314433515
vn 0.633088291 0.476159573 0.00221258053
vn 0.133407429 0.750208616 -0.573256314
vn 0.470108211 0.565304041 -0.556023717
vn 0.697297215 -0.0884544849 -0.753814578
vn -0.0572661832 0.948211312 -0.265835702
vn 0.470108211 0.565304041 -0.556023717
vn 0.133407429 0.750208616 -0.573256314
vn -0.0572661832 0.948211312 -0.265835702
vn 0.478877932 0.773525476 -0.118911892
vn 0.470108211 0.565304041 -0.556023717
vn 0.633088291 0.476159573 0.00221258053
vn 0.478877932 0.773525476 -0.118911892
vn -0.0572661832 0.948211312 -0.265835702
vn 0.576425016 0.387571156 0.25388813
vn 0.773555696 0.441511959 0.17003639
vn 0.839139462 0.248540014 -0.179775
vn 0.697297215 -0.0884544849 -0.753814578
vn 0.470108211 0.565304041 -0.556023717
vn 0.839139462 0.248540014 -0.179775
vn 0.470108211 0.565304041 -0.556023717
vn 0.478877932 0.773525476 -0.118911892
vn 0.839139462 0.248540014 -0.179775
vn 0.633088291 0.476159573 0.00221258053
vn 0.576425016 0.387571156 0.25388813
vn 0.839139462 0.248540014 -0.179775
vn 0.478877932 0.773525476 -0.118911892
vn 0.633088291 0.476159573 0.00221258053
vn 0.839139462 0.248540014 -0.179775
vn -0.562870562 0.476561934 0.647177458
vn -0.214284196 0.373592198 0.747669518
vn -0.194215268 -0.162909791 0.91197443
vn -0.562870562 0.476561934 0.647177458
vn 0.268930763 0.607722044 0.748428941
vn -0.214284196 0.373592198 0.747669518
vn 0.416439533 0.189188376 0.665644944
vn 0.252368778 0.383327246 0.784147799
vn -0.214284196 0.373592198 0.747669518
vn 0.0865946859 -0.00531597203 1.05387294
vn 0.268930763 0.607722044 0.748428941
vn -0.562870562 0.476561934 0.647177458
vn 0.748530805 -0.0934801102 0.603293657
vn 0.268930763 0.607722044 0.748428941
vn 0.0865946859 -0.00531597203 1.05387294
vn -0.214284196 0.373592198 0.747669518
vn 0.268930763 0.607722044 0.748428941
vn 0.416439533 0.189188376 0.665644944
vn 0.500513196 -0.0294928923 0.244268447
vn 0.416439533 0.189188376 0.665644944
vn 0.748530805 -0.0934801102 0.603293657
vn 0.416439533 0.189188376 0.665644944
vn 0.500513196 -0.0294928923 0.244268447
vn 0.457923591 0.446935296 0.623522639
vn 0.416439533 0.189188376 0.665644944
vn 0.268930763 0.607722044 0.748428941
vn 0.748530805 -0.0934801102 0.603293657
vn 0.574209452 0.406292856 0.328886569
vn 0.252368778 0.383327246 0.784147799
vn 0.416439533 0.189188376 0.665644944
vn 0.574209452 0.406292856 0.328886569
vn 0.457923591 0.446935296 0.623522639
vn 0.500513196 -0.0294928923 0.244268447
vn 0.574209452 0.406292856 0.328886569
vn 0.416439533 0.189188376 0.665644944
vn 0.457923591 0.446935296 0.623522639
vn 0.773555696 0.441511959 0.17003639
vn 0.574209452 0.406292856 0.328886569
vn 0.500513196 -0.0294928923 0.244268447
vn 0.745175958 0.478663445 -0.314433515
vn 0.827225983 0.0780276209 0.571164131
vn 0.574209452 0.406292856 0.328886569
vn 0.574209452 0.406292856 0.328886569
vn 0.773555696 0.441511959 0.17003639
vn 0.576425016 0.387571156 0.25388813
vn -0.266144514 0.706853151 -0.257064223
vn -0.146615908 0.693080366 -0.586117566
vn -0.0413833186 0.464179069 -0.836987555
vn -0.163897723 0.430009723 -0.646435082
vn 0.165859252 0.619431078 -0.596433043
vn -0.463331938 0.537683189 -0.671744347
vn -0.266144514 0.706853151 -0.257064223
vn -0.0413833186 0.464179069 -0.836987555
vn -0.163897723 0.430009723 -0.646435082
vn -0.0413833186 0.464179069 -0.836987555
vn 0.165859252 0.619431078 -0.596433043
vn -0.163897723 0.430009723 -0.646435082
vn -0.222013742 0.867620289 -0.211172879
vn 0.238804609 0.811245441 -0.272867918
vn -0.146615908 0.693080366 -0.586117566
vn 0.165859252 0.619431078 -0.596433043
vn 0.673974037 0.19931154 -0.688963711
vn 0.418975055 0.508697629 -0.614423156
vn -0.0413833186 0.464179069 -0.836987555
vn 0.685132504 0.334759712 -0.665335119
vn 0.165859252 0.619431078 -0.596433043
vn -0.146615908 0.693080366 -0.586117566
vn 0.685132504 0.334759712 -0.665335119
vn -0.0413833186 0.464179069 -0.836987555
vn -0.146615908 0.693080366 -0.586117566
vn 0.238804609 0.811245441 -0.272867918
vn 0.685132504 0.334759712 -0.665335119
vn 0.673974037 0.19931154 -0.688963711
vn 0.669447005 0.2812244 -0.671436548
vn 0.418975055 0.508697629 -0.614423156
vn 0.685132504 0.334759712 -0.665335119
vn 0.745175958 0.478663445 -0.314433515
vn 0.165859252 0.619431078 -0.596433043
vn 0.673974037 0.19931154 -0.688963711
vn 0.745175958 0.478663445 -0.314433515
vn 0.669447005 0.2812244 -0.671436548
vn 0.165859252 0.619431078 -0.596433043
vn 0.745175958 0.478663445 -0.314433515
vn 0.673974037 0.19931154 -0.688963711
vn 0.238804609 0.811245441 -0.272867918
vn 0.934006393 0.213408113 -0.239763811
vn 0.685132504 0.334759712 -0.665335119
vn -0.099629797 0.46604985 0.781899989
vn -0.214284196 0.373592198 0.747669518
vn 0.252368778 0.383327246 0.784147799
vn -0.099629797 0.46604985 0.781899989
vn 0.252368778 0.383327246 0.784147799
vn 0.0572873354 0.446929187 0.782966733
vn 0.0204733405 0.336716056 0.878496766
vn -0.00613177428 0.815081954 0.446993202
vn 0.0572873354 0.446929187 0.782966733
vn -0.00613177428 0.815081954 0.446993202
vn 0.280155927 0.732590199 0.441753685
vn 0.238804609 0.811245441 -0.272867918
vn 0.0204733405 0.336716056 0.878496766
vn 0.0572873354 0.446929187 0.782966733
vn 0.252368778 0.383327246 0.784147799
vn 0.280155927 0.732590199 0.441753685
vn -0.00613177428 0.815081954 0.446993202
vn 0.0204733405 0.336716056 0.878496766
vn 0.280155927 0.732590199 0.441753685
vn 0.0204733405 0.336716056 0.878496766
vn 0.252368778 0.383327246 0.784147799
vn 0.280155927 0.732590199 0.441753685
vn 0.252368778 0.383327246 0.784147799
vn 0.648535192 0.512858987 0.448135167
vn 0.280155927 0.732590199 0.441753685
vn 0.934006393 0.213408113 -0.239763811
vn 0.238804609 0.811245441 -0.272867918
vn 0.252368778 0.383327246 0.784147799
vn 0.745175958 0.478663445 -0.314433515
vn 0.648535192 0.512858987 0.448135167
vn 0.685132504 0.334759712 -0.665335119
vn 0.934006393 0.213408113 -0.239763811
vn 0.648535192 0.512858987 0.448135167
vn 0.648535192 0.512858987 0.448135167
vn 0.745175958 0.478663445 -0.314433515
vn 0.685132504 0.334759712 -0.665335119
vn 0.934006393 0.213408113 -0.239763811
vn 0.280155927 0.732590199 0.441753685
vn 0.648535192 0.512858987 0.448135167
vn 0.745175958 0.478663445 -0.314433515
vn 0.576425016 0.387571156 0.25388813
vn 0.633088291 0.476159573 0.00221258053
vn 0.745175958 0.478663445 -0.314433515
vn 0.574209452 0.406292856 0.328886569
vn 0.576425016 0.387571156 0.25388813
vn 0.745175958 0.478663445 -0.314433515
vn 0.252368778 0.383327246 0.784147799
vn 0.827225983 0.0780276209 0.571164131
vn 0.827225983 0.0780276209 0.571164131
vn 0.252368778 0.383327246 0.784147799
vn 0.574209452 0.406292856 0.328886569
vn 0.669447005 0.2812244 -0.671436548
vn 0.633088291 0.476159573 0.00221258053
vn -0.0572661832 0.948211312 -0.265835702
vn 0.0256899185 0.617345989 0.657506585
vn 0.0197696444 0.543461204 0.636668742
vn -0.478003353 0.0801299959 0.838367105
vn 0.0197696444 0.543461204 0.636668742
vn 0.0256899185 0.617345989 0.657506585
vn -0.614837766 0.580417871 0.36092177
g boutsidea surface_polygons
f 3/1/1 2/2/2 1/3/3
f 2/4/4 4/5/5 1/6/6
f 2/7/7 5/8/8 4/9/9
f 2/10/10 7/11/11 5/12/12
f 2/13/13 6/14/14 7/15/15
f 5/16/16 8/17/17 4/18/18
f 7/19/19 8/20/20 5/21/21
f 7/22/22 9/23/23 8/24/24
f 9/25/25 11/26/26 8/27/27
f 10/28/28 9/29/29 7/30/30
f 7/31/31 6/32/32 10/33/33
f 9/34/34 10/35/35 12/36/36
f 11/37/37 14/38/38 8/39/39
f 9/40/40 12/41/41 11/42/42
f 13/43/43 12/44/44 10/45/45
f 12/46/46 15/47/47 11/48/48
f 13/49/49 15/50/50 12/51/51
f 3/52/52 6/53/53 2/54/54
f 3/55/55 1/56/56 17/57/57
f 18/58/58 17/59/59 1/60/60
f 16/61/61 6/62/62 3/63/63
f 17/64/64 20/65/65 3/66/66
f 20/67/67 16/68/68 3/69/69
f 18/70/70 20/71/71 17/72/72
f 22/73/73 19/74/74 16/75/75
f 22/76/76 16/77/77 21/78/78
f 21/79/79 18/80/80 23/81/81
f 25/82/82 22/83/83 21/84/84
f 24/85/85 22/86/86 25/87/87
f 25/88/88 21/89/89 23/90/90
f 24/91/91 25/92/92 26/93/93
f 27/94/94 10/95/95 6/96/96
f 10/97/97 27/98/98 13/99/99
f 28/100/100 13/101/101 27/102/102
f 30/103/103 31/104/104 29/105/105
f 19/106/106 28/107/107 16/108/108
f 16/109/109 28/110/110 6/111/111
f 28/112/112 27/113/113 6/114/114
f 19/115/115 29/116/116 28/117/117
f 19/118/118 22/119/119 29/120/120
f 29/121/121 22/122/122 32/123/123
f 29/124/124 13/125/125 28/126/126
f 30/127/127 29/128/128 32/129/129
f 22/130/130 24/131/131 32/132/132
f 33/133/133 30/134/134 32/135/135
f 33/136/136 34/137/137 30/138/138
f 34/139/139 33/140/140 32/141/141
f 24/142/142 35/143/143 32/144/144
f 34/145/145 32/146/146 35/147/147
f 34/148/148 36/149/149 30/150/150
f 15/151/151 37/152/152 11/153/153
f 11/154/154 37/155/155 14/156/156
f 38/157/157 37/158/158 15/159/159
f 13/160/160 38/161/161 15/162/162
f 37/163/163 39/164/164 14/165/165
f 40/166/166 39/167/167 37/168/168
f 38/169/169 40/170/170 37/171/171
f 38/172/172 41/173/173 40/174/174
f 39/175/175 42/176/176 43/177/177
f 40/178/178 42/179/179 39/180/180
f 38/181/181 44/182/182 41/183/183
f 41/184/184 46/185/185 40/186/186
f 42/187/187 47/188/188 43/189/189
f 46/190/190 50/191/191 49/192/192
f 42/193/193 48/194/194 47/195/195
f 40/196/196 48/197/197 42/198/198
f 40/199/199 51/200/200 48/201/201
f 49/202/202 51/203/203 40/204/204
f 52/205/205 55/206/206 54/207/207
f 47/208/208 48/209/209 54/210/210
f 48/211/211 51/212/212 54/213/213
f 49/214/214 52/215/215 54/216/216
f 51/217/217 49/218/218 54/219/219
f 56/220/220 26/221/221 25/222/222
f 56/223/223 58/224/224 26/225/225
f 59/226/226 60/227/227 26/228/228
f 57/229/229 58/230/230 56/231/231
f 61/232/232 58/233/233 57/234/234
f 26/235/235 58/236/236 59/237/237
f 62/238/238 59/239/239 61/240/240
f 59/241/241 62/242/242 63/243/243
f 59/244/244 58/245/245 61/246/246
f 53/247/247 60/248/248 59/249/249
f 53/250/250 63/251/251 62/252/252
f 53/253/253 59/254/254 63/255/255
f 55/256/256 53/257/257 62/258/258
f 50/259/259 64/260/260 53/261/261
f 53/262/262 55/263/263 52/264/264
f 29/265/265 31/266/266 65/267/267
f 13/268/268 44/269/269 38/270/270
f 29/271/271 65/272/272 13/273/273
f 65/274/274 44/275/275 13/276/276
f 30/277/277 36/278/278 31/279/279
f 44/280/280 45/281/281 41/282/282
f 65/283/283 66/284/284 44/285/285
f 31/286/286 66/287/287 65/288/288
f 31/289/289 36/290/290 66/291/291
f 45/292/292 46/293/293 41/294/294
f 66/295/295 50/296/296 44/297/297
f 45/298/298 50/299/299 46/300/300
f 44/301/301 50/302/302 45/303/303
f 36/304/304 67/305/305 66/306/306
f 24/307/307 26/308/308 60/309/309
f 24/310/310 60/311/311 35/312/312
f 68/313/313 34/314/314 35/315/315
f 34/316/316 69/317/317 36/318/318
f 68/319/319 35/320/320 60/321/321
f 69/322/322 34/323/323 68/324/324
f 69/325/325 68/326/326 60/327/327
f 69/328/328 60/329/329 70/330/330
f 69/331/331 67/332/332 36/333/333
f 60/334/334 50/335/335 70/336/336
f 66/337/337 67/338/338 70/339/339
f 70/340/340 50/341/341 66/342/342
f 67/343/343 69/344/344 70/345/345
f 50/346/346 52/347/347 49/348/348
f 50/349/349 53/350/350 52/351/351
f 50/352/352 60/353/353 64/354/354
f 64/355/355 60/356/356 53/357/357
f 46/358/358 49/359/359 40/360/360
f 21/361/361 20/362/362 18/363/363
f 20/364/364 21/365/365 16/366/366
