# File exported by Houdini 16.5.405 (www.sidefx.com)
# 134 points
# 888 vertices
# 296 primitives
# Bounds: [-499.208191, -17.171217, -207.160629] to [484.764496, 1107.68286, 453.699158]
g 
v -109.60157 794.129761 280.179321
v -36.4979095 889.013306 268.247101
v -38.1067581 885.802612 269.99057
v -37.9517136 885.895386 269.891785
v -33.1585655 893.725464 266.598938
v -35.5112114 890.784424 267.392731
v -37.3634453 887.221313 269.157562
v -32.4364967 895.328003 265.731903
v -32.6951256 894.478638 266.381195
v -33.9297943 893.66687 266.045563
v -36.6491699 889.771729 267.443604
v -26.9550228 903.652222 262.641754
v -29.0665035 900.730835 263.753845
v -30.8993378 897.532837 265.083496
v -31.4666653 897.415771 264.829468
v -35.3634415 893.728394 264.882629
v -34.9792557 893.227051 265.370575
v 23.4882412 947.651184 -73.802002
v -26.4653168 907.105957 259.929932
v -28.411108 903.372681 261.965057
v -33.4898758 895.214966 264.910309
v -19.5403461 913.697388 259.353149
v -19.2112103 913.862183 259.449524
v -22.9861469 911.335571 258.783417
v -28.7832546 904.567505 260.403748
v -30.1913166 901.564331 262.211517
v -32.6659279 898.183105 262.832306
v -40.1400795 881.818359 272.269287
v -17.3272247 917.613647 257.471741
v -22.8064079 913.195679 257.22818
v -21.9917202 911.074097 259.614197
v -19.8998318 913.42688 259.328003
v -28.3628139 907.083618 258.260742
v -58.3938217 911.064148 228.333267
v -32.3779449 900.312012 261.107758
v -33.2653732 899.20813 261.386566
v -16.4218388 924.713806 253.893524
v -17.6529083 919.351074 256.215515
v -18.6491585 919.420166 255.57666
v -16.9053497 919.133423 256.693298
v -20.3697338 916.174438 256.80014
v -17.809536 917.301636 257.218414
v -21.684885 914.123291 256.884583
v -23.719492 912.27002 257.277008
v -29.9426498 907.630493 256.331879
v -28.9937115 906.577637 258.407196
v -30.8246479 904.294312 258.642609
v -31.6245537 903.22876 258.795349
v -17.8159695 925.511902 252.556824
v -16.3188019 925.833679 253.474884
v -19.1066914 923.177063 252.889435
v -19.5851173 920.564819 254.333984
v -20.4135799 919.295776 254.41539
v -21.4874821 916.164307 255.319016
v -24.4506016 915.04895 254.137192
v -23.027523 914.759644 255.623093
v -29.1305351 908.061646 256.463043
v -30.0911846 906.565552 256.952881
v 11.709753 962.887634 259.110962
v -16.7378998 931.848083 252.378784
v -19.1474781 931.044922 251.787582
v -18.6272831 930.563477 251.896423
v -15.7361593 931.02417 252.375702
v -20.2295704 928.704468 251.154404
v -16.7559738 928.744995 252.549774
v -15.9389963 928.639771 253.004913
v -16.0038929 926.9198 253.502228
v -18.3407936 923.505981 253.599213
v -22.7375298 927.216614 248.230789
v -23.6794395 919.127319 252.008789
v -22.3671532 917.247559 254.176819
v -26.1337948 914.992065 252.786697
v -26.8249264 911.928589 255.084152
v -17.4183197 928.911194 219.337692
v -19.8600216 930.317627 251.063354
v -25.1124401 916.385986 252.514404
v -26.7228146 918.056274 248.585907
v -32.8992233 914.032104 245.971344
v -27.8191986 917.078979 248.711029
v -27.5326672 916.794434 248.608185
v -25.8792858 921.870361 246.617798
v 484.764496 -2.3143301 126.43853
v 116.027481 956.636536 -78.4161453
v 117.256981 933.18457 -105.163475
v 117.128136 933.325928 -104.797218
v 160.804611 762.809082 -59.305439
v 117.305901 933.51123 -104.929596
v 190.809357 890.955872 -107.571007
v -499.208191 -7.51647949 132.851105
v 159.136154 105.395126 -178.491211
v 325.018127 3.72720289 -187.605545
v -113.513718 421.12735 353.034546
v -6.82859945 231.961792 -196.723236
v 76.3195343 965.611389 166.401947
v -73.4011078 1056.45544 -49.4565277
v 135.692093 612.915405 -164.339508
v 269.526154 800.029114 273.627258
v -22.7576656 927.800537 231.425827
v -32.0356483 897.171997 264.567291
v 34.2446327 583.240051 58.1200943
v 124.821167 1107.68286 39.6718788
v 65.9877701 578.438477 -121.524574
v 405.909027 19.6504707 -89.6145706
v -56.6295242 691.034607 -117.298676
v 375.804291 320.346832 -6.4222374
v 186.046875 934.094116 312.625122
v 160.864655 -17.171217 453.699158
v -184.936325 881.99707 205.331329
v 283.936951 16.2474842 127.927635
v 140.228973 637.511169 100.374084
v -210.82605 345.159729 -104.643654
v -347.426697 8.6942749 280.984558
v 219.70755 771.614624 36.1316948
v 61.2583046 2.21438336 -207.160629
v 163.824539 -1.79578567 345.196594
v -117.502213 -10.0904474 306.653625
v -21.0621643 0.532764792 410.407196
v -136.553925 66.2595749 -175.032867
v 255.087463 638.310547 -117.545647
v 334.444733 560.847351 120.976028
v -122.403374 459.423431 -170.684937
v 72.9800568 307.46286 401.038391
v 295.85202 235.168793 195.846207
v -92.2802582 730.603577 114.474411
v -31.1727371 598.299805 371.400513
v -384.686676 335.967651 149.77359
v -137.679474 891.163391 -7.58276033
v 130.822266 654.672302 390.141113
v -129.161072 652.612549 -55.057579
v -220.51535 7.17029142 -84.9989624
v -72.4358215 499.77771 -127.072426
v -69.8484116 1035.59717 115.718315
v -7.2200532 437.94397 406.771027
v -63.9264069 1000.927 241.165573
vt 0.300783694 0.991559565 0
vt 0.448563933 0.669721842 0
vt 0.428869188 0.876890242 0
vt 0.730069995 0.776600003 0
vt 0.731450021 0.775849998 0
vt 0.731419981 0.775919974 0
vt 0.733160019 0.774860024 0
vt 0.731419981 0.775919974 0
vt 0.731450021 0.775849998 0
vt 0.728089988 0.77828002 0
vt 0.727680027 0.778460026 0
vt 0.728330016 0.778029978 0
vt 0.728330016 0.778029978 0
vt 0.728120029 0.777740002 0
vt 0.72931999 0.777029991 0
vt 0.236059994 0.00749999983 0
vt 0.236059994 0.00749999983 0
vt 0.236059994 0.00749999983 0
vt 0.236059994 0.00749999983 0
vt 0.236059994 0.00749999983 0
vt 0.236059994 0.00749999983 0
vt 0.236059994 0.00749999983 0
vt 0.236059994 0.00749999983 0
vt 0.236059994 0.00749999983 0
vt 0.733160019 0.774860024 0
vt 0.731450021 0.775849998 0
vt 0.730069995 0.776600003 0
vt 0.423099995 0.624930024 0
vt 0.411147386 0.581579566 0
vt 0.423530012 0.625540018 0
vt 0.731419981 0.775919974 0
vt 0.730859995 0.776229978 0
vt 0.730069995 0.776600003 0
vt 0.733160019 0.774860024 0
vt 0.763836026 0.74925983 0
vt 0.731419981 0.775919974 0
vt 0.728100002 0.77828002 0
vt 0.726999998 0.779380023 0
vt 0.726849973 0.778890014 0
vt 0.728100002 0.77828002 0
vt 0.726849973 0.778890014 0
vt 0.727680027 0.778460026 0
vt 0.728330016 0.778029978 0
vt 0.727680027 0.778460026 0
vt 0.728120029 0.777740002 0
vt 0.236059994 0.00749999983 0
vt 0.236059994 0.00749999983 0
vt 0.236059994 0.00749999983 0
vt 0.728120029 0.777740002 0
vt 0.727643132 0.7772488 0
vt 0.72931999 0.777029991 0
vt 0.730069995 0.776600003 0
vt 0.72931999 0.777029991 0
vt 0.727643132 0.7772488 0
vt 0.730069995 0.776600003 0
vt 0.727643132 0.7772488 0
vt 0.729579985 0.776539981 0
vt 0.729579985 0.776539981 0
vt 0.733160019 0.774860024 0
vt 0.730069995 0.776600003 0
vt 0.725059986 0.781480014 0
vt 0.724449992 0.781300008 0
vt 0.725059986 0.780900002 0
vt 0.726999998 0.779380023 0
vt 0.725740016 0.780669987 0
vt 0.725227416 0.778472245 0
vt 0.726999998 0.779380023 0
vt 0.725227416 0.778472245 0
vt 0.726849973 0.778890014 0
vt 0.727680027 0.778460026 0
vt 0.726849973 0.778890014 0
vt 0.725227416 0.778472245 0
vt 0.727680027 0.778460026 0
vt 0.725227416 0.778472245 0
vt 0.728120029 0.777740002 0
vt 0.587289989 0.426090002 0
vt 0.586939991 0.425770015 0
vt 0.587719977 0.425709993 0
vt 0.587289989 0.426090002 0
vt 0.587719977 0.425709993 0
vt 0.587851048 0.426963568 0
vt 0.728100002 0.77828002 0
vt 0.727288842 0.779402316 0
vt 0.726999998 0.779380023 0
vt 0.587109983 0.425139993 0
vt 0.58743 0.424670011 0
vt 0.587719977 0.425709993 0
vt 0.587109983 0.425139993 0
vt 0.587719977 0.425709993 0
vt 0.586939991 0.425770015 0
vt 0.727643132 0.7772488 0
vt 0.733160019 0.774860024 0
vt 0.729579985 0.776539981 0
vt 0.424380004 0.626510024 0
vt 0.557012916 0.651147306 0
vt 0.424430013 0.627189994 0
vt 0.423530012 0.625540018 0
vt 0.557012916 0.651147306 0
vt 0.424010009 0.626330018 0
vt 0.557012916 0.651147306 0
vt 0.423530012 0.625540018 0
vt 0.411147386 0.581579566 0
vt 0.72262001 0.782249987 0
vt 0.722169995 0.782819986 0
vt 0.722720027 0.781939983 0
vt 0.725059986 0.781480014 0
vt 0.725619972 0.78245002 0
vt 0.724210024 0.782000005 0
vt 0.725059986 0.781480014 0
vt 0.724210024 0.782000005 0
vt 0.724449992 0.781300008 0
vt 0.725059986 0.781480014 0
vt 0.725059986 0.780900002 0
vt 0.726050019 0.782109976 0
vt 0.725059986 0.780900002 0
vt 0.724449992 0.781300008 0
vt 0.724889994 0.780539989 0
vt 0.724889994 0.780539989 0
vt 0.725227416 0.778472245 0
vt 0.725740016 0.780669987 0
vt 0.426530004 0.632309973 0
vt 0.42579034 0.630542576 0
vt 0.427260011 0.632040024 0
vt 0.728120029 0.777740002 0
vt 0.725227416 0.778472245 0
vt 0.727643132 0.7772488 0
vt 0.573001206 0.25852567 0
vt 0.573270023 0.258320004 0
vt 0.573610008 0.259339988 0
vt 0.424430013 0.627189994 0
vt 0.557012916 0.651147306 0
vt 0.425410002 0.628059983 0
vt 0.720809996 0.785109997 0
vt 0.720130026 0.785059988 0
vt 0.721750021 0.784309983 0
vt 0.72092998 0.786010027 0
vt 0.721750021 0.784309983 0
vt 0.721790016 0.784439981 0
vt 0.722119987 0.783280015 0
vt 0.721390009 0.78320998 0
vt 0.722010016 0.782980025 0
vt 0.722119987 0.783280015 0
vt 0.721790016 0.784439981 0
vt 0.721750021 0.784309983 0
vt 0.722169995 0.782819986 0
vt 0.722010016 0.782980025 0
vt 0.722720027 0.781939983 0
vt 0.722720027 0.781939983 0
vt 0.722379982 0.780960023 0
vt 0.723580003 0.780889988 0
vt 0.724449992 0.781300008 0
vt 0.723580003 0.780889988 0
vt 0.709997952 0.765025496 0
vt 0.724449992 0.781300008 0
vt 0.709997952 0.765025496 0
vt 0.724889994 0.780539989 0
vt 0.234050006 0.00399000011 0
vt 0.234060004 0.00399000011 0
vt 0.234050006 0.00400000019 0
vt 0.725227416 0.778472245 0
vt 0.724889994 0.780539989 0
vt 0.709997952 0.765025496 0
vt 0.426730007 0.630249977 0
vt 0.427599996 0.630909979 0
vt 0.427260011 0.632040024 0
vt 0.426730007 0.630249977 0
vt 0.427260011 0.632040024 0
vt 0.42579034 0.630542576 0
vt 0.425410002 0.628059983 0
vt 0.426730007 0.630249977 0
vt 0.425669998 0.629149973 0
vt 0.733160019 0.774860024 0
vt 0.727643132 0.7772488 0
vt 0.709997952 0.765025496 0
vt 0.722119987 0.783280015 0
vt 0.720610023 0.784120023 0
vt 0.720889986 0.783259988 0
vt 0.722119987 0.783280015 0
vt 0.720889986 0.783259988 0
vt 0.721390009 0.78320998 0
vt 0.722119987 0.783280015 0
vt 0.721750021 0.784309983 0
vt 0.720130026 0.785059988 0
vt 0.722119987 0.783280015 0
vt 0.720130026 0.785059988 0
vt 0.720610023 0.784120023 0
vt 0.721889973 0.784439981 0
vt 0.721930027 0.784259975 0
vt 0.722499251 0.786047578 0
vt 0.721889973 0.784439981 0
vt 0.722499251 0.786047578 0
vt 0.722379982 0.786300004 0
vt 0.722010016 0.782980025 0
vt 0.721390009 0.78320998 0
vt 0.722720027 0.781939983 0
vt 0.310829997 0.0487900004 0
vt 0.313609987 0.0517099984 0
vt 0.310030013 0.0489300005 0
vt 0.310829997 0.0487900004 0
vt 0.310030013 0.0489300005 0
vt 0.311250001 0.0484399982 0
vt 0.722119987 0.783280015 0
vt 0.721930027 0.784259975 0
vt 0.721790016 0.784439981 0
vt 0.722720027 0.781939983 0
vt 0.721840024 0.780110002 0
vt 0.722379982 0.780960023 0
vt 0.722379982 0.780960023 0
vt 0.709997952 0.765025496 0
vt 0.723580003 0.780889988 0
vt 0.428770006 0.633719981 0
vt 0.429520011 0.633660018 0
vt 0.429210007 0.634270012 0
vt 0.427460015 0.634239972 0
vt 0.42881 0.63252002 0
vt 0.428770006 0.633719981 0
vt 0.425410002 0.628059983 0
vt 0.557012916 0.651147306 0
vt 0.427431762 0.630298674 0
vt 0.425410002 0.628059983 0
vt 0.427431762 0.630298674 0
vt 0.426730007 0.630249977 0
vt 0.725227416 0.778472245 0
vt 0.709997952 0.765025496 0
vt 0.727643132 0.7772488 0
vt 0.720130026 0.785059988 0
vt 0.719217241 0.786135972 0
vt 0.719739974 0.784860015 0
vt 0.719698727 0.785801351 0
vt 0.720130026 0.785059988 0
vt 0.720809996 0.785109997 0
vt 0.719698727 0.785801351 0
vt 0.720809996 0.785109997 0
vt 0.720550001 0.785319984 0
vt 0.720130026 0.785059988 0
vt 0.719739974 0.784860015 0
vt 0.719070017 0.784430027 0
vt 0.720130026 0.785059988 0
vt 0.719070017 0.784430027 0
vt 0.720610023 0.784120023 0
vt 0.720610023 0.784120023 0
vt 0.719579995 0.783420026 0
vt 0.720889986 0.783259988 0
vt 0.721390009 0.78320998 0
vt 0.72104001 0.783089995 0
vt 0.72082001 0.782930017 0
vt 0.721390009 0.78320998 0
vt 0.72082001 0.782930017 0
vt 0.722720027 0.781939983 0
vt 0.238749996 0.00841000024 0
vt 0.238749996 0.00841000024 0
vt 0.238749996 0.00841000024 0
vt 0.567340016 0.259389997 0
vt 0.567749977 0.258520007 0
vt 0.567979991 0.259319991 0
vt 0.723049998 0.784280002 0
vt 0.722499251 0.786047578 0
vt 0.721930027 0.784259975 0
vt 0.723049998 0.784280002 0
vt 0.721930027 0.784259975 0
vt 0.722119987 0.783280015 0
vt 0.721099973 0.781700015 0
vt 0.720239997 0.782019973 0
vt 0.721840024 0.780110002 0
vt 0.721099973 0.781700015 0
vt 0.721840024 0.780110002 0
vt 0.722720027 0.781939983 0
vt 0.721840024 0.780110002 0
vt 0.709997952 0.765025496 0
vt 0.722379982 0.780960023 0
vt 0.429239988 0.634379983 0
vt 0.428979993 0.63428998 0
vt 0.429740012 0.634079993 0
vt 0.429239988 0.634379983 0
vt 0.429740012 0.634079993 0
vt 0.430599988 0.635770023 0
vt 0.42881 0.63252002 0
vt 0.429619998 0.633319974 0
vt 0.429520011 0.633660018 0
vt 0.42881 0.63252002 0
vt 0.429520011 0.633660018 0
vt 0.428770006 0.633719981 0
vt 0.413903594 0.636012614 0
vt 0.428680003 0.63191998 0
vt 0.42881 0.63252002 0
vt 0.427599996 0.630909979 0
vt 0.446477056 0.640215337 0
vt 0.428680003 0.63191998 0
vt 0.427599996 0.630909979 0
vt 0.428680003 0.63191998 0
vt 0.427260011 0.632040024 0
vt 0.427431762 0.630298674 0
vt 0.446477056 0.640215337 0
vt 0.427599996 0.630909979 0
vt 0.719767988 0.78596735 0
vt 0.719654679 0.786197126 0
vt 0.719217241 0.786135972 0
vt 0.719767988 0.78596735 0
vt 0.719217241 0.786135972 0
vt 0.719698727 0.785801351 0
vt 0.719698727 0.785801351 0
vt 0.719217241 0.786135972 0
vt 0.720130026 0.785059988 0
vt 0.719739974 0.784860015 0
vt 0.719217241 0.786135972 0
vt 0.718882143 0.78502816 0
vt 0.719739974 0.784860015 0
vt 0.718882143 0.78502816 0
vt 0.719070017 0.784430027 0
vt 0.720557332 0.787176073 0
vt 0.719698727 0.785801351 0
vt 0.720550001 0.785319984 0
vt 0.720557332 0.787176073 0
vt 0.720550001 0.785319984 0
vt 0.720659971 0.785709977 0
vt 0.720610023 0.784120023 0
vt 0.719070017 0.784430027 0
vt 0.718299985 0.783010006 0
vt 0.720610023 0.784120023 0
vt 0.718299985 0.783010006 0
vt 0.719579995 0.783420026 0
vt 0.722499251 0.786047578 0
vt 0.723349988 0.786520004 0
vt 0.723049998 0.786819994 0
vt 0.230020002 0.0022499999 0
vt 0.230020002 0.0022499999 0
vt 0.230020002 0.0022499999 0
vt 0.72104001 0.783089995 0
vt 0.720870018 0.782999992 0
vt 0.72082001 0.782930017 0
vt 0.724219978 0.784290016 0
vt 0.724409997 0.785380006 0
vt 0.723810017 0.784990013 0
vt 0.723810017 0.784990013 0
vt 0.722499251 0.786047578 0
vt 0.723049998 0.784280002 0
vt 0.722720027 0.781939983 0
vt 0.72082001 0.782930017 0
vt 0.720239997 0.782019973 0
vt 0.722720027 0.781939983 0
vt 0.720239997 0.782019973 0
vt 0.721099973 0.781700015 0
vt 0.30449 0.0460599996 0
vt 0.308679998 0.0489800014 0
vt 0.306959987 0.0492400005 0
vt 0.721840024 0.780110002 0
vt 0.720239997 0.782019973 0
vt 0.709997952 0.765025496 0
vt 0.429740012 0.634079993 0
vt 0.432689995 0.636640012 0
vt 0.430599988 0.635770023 0
vt 0.429540008 0.633849978 0
vt 0.429619998 0.633319974 0
vt 0.429740012 0.634079993 0
vt 0.446477056 0.640215337 0
vt 0.429619998 0.633319974 0
vt 0.42881 0.63252002 0
vt 0.428680003 0.63191998 0
vt 0.446477056 0.640215337 0
vt 0.42881 0.63252002 0
vt 0.542850852 0.248738557 0
vt 0.561810017 0.247610003 0
vt 0.560898602 0.247708887 0
vt 0.560898602 0.247708887 0
vt 0.561810017 0.247610003 0
vt 0.561699986 0.247799993 0
vt 0.542850852 0.248738557 0
vt 0.560898602 0.247708887 0
vt 0.560750008 0.24786 0
vt 0.561699986 0.247799993 0
vt 0.561810017 0.247610003 0
vt 0.5624246 0.248084679 0
vt 0.594016731 0.183630034 0
vt 0.59454 0.182779998 0
vt 0.595309436 0.182007343 0
vt 0.594016731 0.183630034 0
vt 0.595309436 0.182007343 0
vt 0.595350027 0.183589995 0
vt 0.597090006 0.183060005 0
vt 0.596563697 0.183223516 0
vt 0.597060025 0.181989998 0
vt 0.597090006 0.183060005 0
vt 0.597060025 0.181989998 0
vt 0.597450018 0.182070002 0
vt 0.555909991 0.270866603 0
vt 0.565069973 0.259750009 0
vt 0.565930009 0.259140015 0
vt 0.555909991 0.270866603 0
vt 0.565930009 0.259140015 0
vt 0.566455722 0.258595347 0
vt 0.585569978 0.425810009 0
vt 0.583990991 0.426048934 0
vt 0.584942997 0.424515039 0
vt 0.585569978 0.425810009 0
vt 0.584942997 0.424515039 0
vt 0.585704625 0.42450729 0
vt 0.719829977 0.785830021 0
vt 0.719820023 0.785830021 0
vt 0.719767988 0.78596735 0
vt 0.719829977 0.785830021 0
vt 0.719767988 0.78596735 0
vt 0.719698727 0.785801351 0
vt 0.719698727 0.785801351 0
vt 0.719807208 0.785830855 0
vt 0.719829977 0.785830021 0
vt 0.719654679 0.786197126 0
vt 0.719778657 0.786021411 0
vt 0.719217241 0.786135972 0
vt 0.231359795 0.00364021095 0
vt 0.231347352 0.00362304715 0
vt 0.23136948 0.0036305238 0
vt 0.231359795 0.00364021095 0
vt 0.23136948 0.0036305238 0
vt 0.231376961 0.00365265249 0
vt 0.718680918 0.784766614 0
vt 0.714725494 0.783855259 0
vt 0.718299985 0.783010006 0
vt 0.720557332 0.787176073 0
vt 0.719947636 0.786221802 0
vt 0.719698727 0.785801351 0
vt 0.718680918 0.784766614 0
vt 0.718299985 0.783010006 0
vt 0.719070017 0.784430027 0
vt 0.433919996 0.642560005 0
vt 0.432929993 0.641870022 0
vt 0.434428334 0.642730892 0
vt 0.719579995 0.783420026 0
vt 0.718299985 0.783010006 0
vt 0.719489992 0.782369971 0
vt 0.723349988 0.786520004 0
vt 0.722499251 0.786047578 0
vt 0.723810017 0.784990013 0
vt 0.723349988 0.786520004 0
vt 0.723810017 0.784990013 0
vt 0.724409997 0.785380006 0
vt 0.72082001 0.782930017 0
vt 0.719489992 0.782369971 0
vt 0.717379987 0.77809 0
vt 0.72082001 0.782930017 0
vt 0.717379987 0.77809 0
vt 0.720239997 0.782019973 0
vt 0.235400006 0.00264999992 0
vt 0.235400006 0.00264999992 0
vt 0.235400006 0.00264999992 0
vt 0.430599988 0.635770023 0
vt 0.432689995 0.636640012 0
vt 0.431930006 0.637520015 0
vt 0.433050007 0.636430025 0
vt 0.432689995 0.636640012 0
vt 0.429740012 0.634079993 0
vt 0.429619998 0.633319974 0
vt 0.446477056 0.640215337 0
vt 0.433050007 0.636430025 0
vt 0.429619998 0.633319974 0
vt 0.433050007 0.636430025 0
vt 0.429740012 0.634079993 0
vt 0.561580002 0.247950003 0
vt 0.561879992 0.248109996 0
vt 0.558710933 0.256856769 0
vt 0.561130702 0.248029873 0
vt 0.56133002 0.247899994 0
vt 0.558710933 0.256856769 0
vt 0.56099999 0.248030007 0
vt 0.561130702 0.248029873 0
vt 0.558710933 0.256856769 0
vt 0.558710933 0.256856769 0
vt 0.542850852 0.248738557 0
vt 0.56099999 0.248030007 0
vt 0.561810017 0.247610003 0
vt 0.562229991 0.247789994 0
vt 0.564008057 0.248695448 0
vt 0.5624246 0.248084679 0
vt 0.561879992 0.248109996 0
vt 0.561680019 0.247989997 0
vt 0.592379987 0.1831 0
vt 0.591766 0.182321787 0
vt 0.593100011 0.1822 0
vt 0.592379987 0.1831 0
vt 0.593100011 0.1822 0
vt 0.593235314 0.183788761 0
vt 0.598968923 0.181714967 0
vt 0.599349976 0.182089999 0
vt 0.599179983 0.183129996 0
vt 0.598968923 0.181714967 0
vt 0.599179983 0.183129996 0
vt 0.598800004 0.183019996 0
vt 0.565349996 0.260039985 0
vt 0.555909991 0.270866603 0
vt 0.566455722 0.258595347 0
vt 0.565349996 0.260039985 0
vt 0.566455722 0.258595347 0
vt 0.565999985 0.259209991 0
vt 0.564008057 0.248695448 0
vt 0.5624246 0.248084679 0
vt 0.561810017 0.247610003 0
vt 0.232710004 0.00510000018 0
vt 0.232710004 0.00510000018 0
vt 0.232710004 0.00510000018 0
vt 0.232710004 0.00510000018 0
vt 0.232710004 0.00510000018 0
vt 0.232710004 0.00510000018 0
vt 0.71983999 0.785820007 0
vt 0.71983999 0.785820007 0
vt 0.719807208 0.785830855 0
vt 0.71983999 0.785820007 0
vt 0.719807208 0.785830855 0
vt 0.719825029 0.785831451 0
vt 0.719778657 0.786021411 0
vt 0.719878912 0.78604728 0
vt 0.719947636 0.786221802 0
vt 0.719778657 0.786021411 0
vt 0.719947636 0.786221802 0
vt 0.719217241 0.786135972 0
vt 0.719878912 0.78604728 0
vt 0.719901025 0.785900712 0
vt 0.719947636 0.786221802 0
vt 0.719217241 0.786135972 0
vt 0.719947636 0.786221802 0
vt 0.720557332 0.787176073 0
vt 0.436062664 0.64160192 0
vt 0.434428334 0.642730892 0
vt 0.432929993 0.641870022 0
vt 0.718299985 0.783010006 0
vt 0.717630029 0.780629992 0
vt 0.717379987 0.77809 0
vt 0.718299985 0.783010006 0
vt 0.717379987 0.77809 0
vt 0.719489992 0.782369971 0
vt 0.589649975 0.425509989 0
vt 0.589900017 0.427729994 0
vt 0.589060009 0.425969988 0
vt 0.709997952 0.765025496 0
vt 0.720239997 0.782019973 0
vt 0.717379987 0.77809 0
vt 0.562229991 0.247789994 0
vt 0.561810017 0.247610003 0
vt 0.542850852 0.248738557 0
vt 0.564008057 0.248695448 0
vt 0.562229991 0.247789994 0
vt 0.542850852 0.248738557 0
vt 0.558710933 0.256856769 0
vt 0.561879992 0.248109996 0
vt 0.5624246 0.248084679 0
vt 0.564008057 0.248695448 0
vt 0.558710933 0.256856769 0
vt 0.5624246 0.248084679 0
vt 0.718299985 0.783010006 0
vt 0.714725494 0.783855259 0
vt 0.717630029 0.780629992 0
vt 0.433380008 0.637700021 0
vt 0.436062664 0.64160192 0
vt 0.432509989 0.640070021 0
vt 0.709056735 0.78031081 0
vt 0.717630029 0.780629992 0
vt 0.714725494 0.783855259 0
vt 0.717630029 0.780629992 0
vt 0.709056735 0.78031081 0
vt 0.716719985 0.780369997 0
vt 0.717630029 0.780629992 0
vt 0.716719985 0.780369997 0
vt 0.717379987 0.77809 0
vt 0.433380008 0.637700021 0
vt 0.435250014 0.638830006 0
vt 0.436062664 0.64160192 0
vt 0.433019996 0.636609972 0
vt 0.433050007 0.636430025 0
vt 0.446477056 0.640215337 0
vt 0.433019996 0.636609972 0
vt 0.446477056 0.640215337 0
vt 0.433380008 0.637700021 0
vt 0.717379987 0.77809 0
vt 0.716719985 0.780369997 0
vt 0.709056735 0.78031081 0
vt 0.435250014 0.638830006 0
vt 0.433380008 0.637700021 0
vt 0.446477056 0.640215337 0
vt 0.707631886 0.801809609 0
vt 0.709056735 0.78031081 0
vt 0.714725494 0.783855259 0
vt 0.709056735 0.78031081 0
vt 0.707631886 0.801809609 0
vt 0.675094366 0.784917712 0
vt 0.436062664 0.64160192 0
vt 0.435250014 0.638830006 0
vt 0.446477056 0.640215337 0
vt 0.427469075 0.0960823521 0
vt 0.414990008 0.0940700024 0
vt 0.341530204 0.07378833 0
vt 0.427469075 0.0960823521 0
vt 0.414900005 0.0941400006 0
vt 0.414990008 0.0940700024 0
vt 0.427469075 0.0960823521 0
vt 0.414849997 0.0941499993 0
vt 0.414900005 0.0941400006 0
vt 0.414709985 0.094250001 0
vt 0.387133569 0.111667283 0
vt 0.414849997 0.0941499993 0
vt 0.341530204 0.07378833 0
vt 0.414990008 0.0940700024 0
vt 0.414900005 0.0941400006 0
vt 0.414849997 0.0941499993 0
vt 0.387133569 0.111667283 0
vt 0.341530204 0.07378833 0
vt 0.414849997 0.0941499993 0
vt 0.341530204 0.07378833 0
vt 0.414900005 0.0941400006 0
vt 0.709997952 0.765025496 0
vt 0.717379987 0.77809 0
vt 0.709056735 0.78031081 0
vt 0.425909996 0.63023001 0
vt 0.426730007 0.630249977 0
vt 0.42579034 0.630542576 0
vt 0.425909996 0.63023001 0
vt 0.425669998 0.629149973 0
vt 0.426730007 0.630249977 0
vt 0.647324026 0.737448275 0
vt 0.763836026 0.74925983 0
vt 0.709997952 0.765025496 0
vt 0.448031425 0.278706759 0
vt 0.567394018 0.215672046 0
vt 0.542850852 0.248738557 0
vt 0.733160019 0.774860024 0
vt 0.709997952 0.765025496 0
vt 0.763836026 0.74925983 0
vt 0.0717298314 0.443368047 0
vt 0.141065761 0.330936491 0
vt 0.377147615 0.283899277 0
vt 0.598158717 0.475009114 0
vt 0.504914761 0.436391234 0
vt 0.575250864 0.412578106 0
vt 0.479188949 0.152710825 0
vt 0.533862948 0.0855820924 0
vt 0.562905908 0.156839043 0
vt 0.533862948 0.0855820924 0
vt 0.479188949 0.152710825 0
vt 0.458064437 0.0573959276 0
vt 0.479188949 0.152710825 0
vt 0.346463263 0.182374254 0
vt 0.387133569 0.111667283 0
vt 0.319253147 0.753005922 0
vt 0.378686607 0.608210385 0
vt 0.448563933 0.669721842 0
vt 0.427431762 0.630298674 0
vt 0.557012916 0.651147306 0
vt 0.446477056 0.640215337 0
vt 0.0739520341 0.539547205 0
vt 0.166146025 0.587158382 0
vt 0.0908828676 0.642799437 0
vt 0.598158717 0.475009114 0
vt 0.589605927 0.547251046 0
vt 0.514319181 0.480933875 0
vt 0.296144128 0.491606653 0
vt 0.370390058 0.485065907 0
vt 0.305066407 0.539089084 0
vt 0.448031425 0.278706759 0
vt 0.377037674 0.392933488 0
vt 0.377147615 0.283899277 0
vt 0.479188949 0.152710825 0
vt 0.448031425 0.278706759 0
vt 0.377147615 0.283899277 0
vt 0.273047775 0.0676563904 0
vt 0.265396595 0.0234088004 0
vt 0.341530204 0.07378833 0
vt 0.542850852 0.248738557 0
vt 0.62184602 0.31836772 0
vt 0.532031894 0.286217988 0
vt 0.187670499 0.715887249 0
vt 0.120757967 0.745077491 0
vt 0.166146025 0.587158382 0
vt 0.120757967 0.745077491 0
vt 0.187670499 0.715887249 0
vt 0.111749321 0.771301031 0
vt 0.735418379 0.691093266 0
vt 0.647324026 0.737448275 0
vt 0.598255098 0.699205399 0
vt 0.467300922 0.914639533 0
vt 0.428869188 0.876890242 0
vt 0.542267203 0.724222362 0
vt 0.479188949 0.152710825 0
vt 0.377147615 0.283899277 0
vt 0.346463263 0.182374254 0
vt 0.589605927 0.547251046 0
vt 0.598158717 0.475009114 0
vt 0.660435796 0.509785414 0
vt 0.377037674 0.392933488 0
vt 0.370390058 0.485065907 0
vt 0.226532817 0.483912557 0
vt 0.370390058 0.485065907 0
vt 0.296144128 0.491606653 0
vt 0.226532817 0.483912557 0
vt 0.0118713351 0.103023939 0
vt 0.273047775 0.0676563904 0
vt 0.278141946 0.126688376 0
vt 0.0118713351 0.103023939 0
vt 0.278141946 0.126688376 0
vt 0.0145166274 0.169962555 0
vt 0.387133569 0.111667283 0
vt 0.427469075 0.0960823521 0
vt 0.479188949 0.152710825 0
vt 0.0787712559 0.494515389 0
vt 0.377147615 0.283899277 0
vt 0.377037674 0.392933488 0
vt 0.377147615 0.283899277 0
vt 0.0787712559 0.494515389 0
vt 0.0717298314 0.443368047 0
vt 0.533939362 0.89077574 0
vt 0.467300922 0.914639533 0
vt 0.582247317 0.767055392 0
vt 0.141065761 0.330936491 0
vt 0.0136284363 0.270649552 0
vt 0.258768559 0.25073728 0
vt 0.557012916 0.651147306 0
vt 0.484385669 0.552181661 0
vt 0.589605927 0.547251046 0
vt 0.533939362 0.89077574 0
vt 0.582247317 0.767055392 0
vt 0.651726007 0.809184253 0
vt 0.458064437 0.0573959276 0
vt 0.427469075 0.0960823521 0
vt 0.341530204 0.07378833 0
vt 0.273047775 0.0676563904 0
vt 0.387133569 0.111667283 0
vt 0.278141946 0.126688376 0
vt 0.387133569 0.111667283 0
vt 0.273047775 0.0676563904 0
vt 0.341530204 0.07378833 0
vt 0.619287372 0.53758198 0
vt 0.65027684 0.643577933 0
vt 0.589605927 0.547251046 0
vt 0.514319181 0.480933875 0
vt 0.370390058 0.485065907 0
vt 0.377037674 0.392933488 0
vt 0.598255098 0.699205399 0
vt 0.557012916 0.651147306 0
vt 0.589605927 0.547251046 0
vt 0.120757967 0.745077491 0
vt 0.0379823893 0.787220776 0
vt 0.0908828676 0.642799437 0
vt 0.273047775 0.0676563904 0
vt 0.0118713351 0.103023939 0
vt 0.0576409847 0.0354357921 0
vt 0.532031894 0.286217988 0
vt 0.575250864 0.412578106 0
vt 0.377037674 0.392933488 0
vt 0.448031425 0.278706759 0
vt 0.542850852 0.248738557 0
vt 0.532031894 0.286217988 0
vt 0.484385669 0.552181661 0
vt 0.557012916 0.651147306 0
vt 0.411147386 0.581579566 0
vt 0.0145166274 0.169962555 0
vt 0.278141946 0.126688376 0
vt 0.147999689 0.199193344 0
vt 0.484385669 0.552181661 0
vt 0.411147386 0.581579566 0
vt 0.514319181 0.480933875 0
vt 0.514319181 0.480933875 0
vt 0.411147386 0.581579566 0
vt 0.370390058 0.485065907 0
vt 0.144726142 0.851421833 0
vt 0.0976815075 0.854496539 0
vt 0.187670499 0.715887249 0
vt 0.144726142 0.851421833 0
vt 0.187670499 0.715887249 0
vt 0.319253147 0.753005922 0
vt 0.0908828676 0.642799437 0
vt 0.011347644 0.58425653 0
vt 0.0739520341 0.539547205 0
vt 0.589605927 0.547251046 0
vt 0.484385669 0.552181661 0
vt 0.514319181 0.480933875 0
vt 0.458064437 0.0573959276 0
vt 0.479188949 0.152710825 0
vt 0.427469075 0.0960823521 0
vt 0.258768559 0.25073728 0
vt 0.278141946 0.126688376 0
vt 0.346463263 0.182374254 0
vt 0.278141946 0.126688376 0
vt 0.387133569 0.111667283 0
vt 0.346463263 0.182374254 0
vt 0.709997952 0.765025496 0
vt 0.675094366 0.784917712 0
vt 0.647324026 0.737448275 0
vt 0.567394018 0.215672046 0
vt 0.448031425 0.278706759 0
vt 0.479188949 0.152710825 0
vt 0.448563933 0.669721842 0
vt 0.542267203 0.724222362 0
vt 0.428869188 0.876890242 0
vt 0.258768559 0.25073728 0
vt 0.346463263 0.182374254 0
vt 0.377147615 0.283899277 0
vt 0.0145166274 0.169962555 0
vt 0.147999689 0.199193344 0
vt 0.0136284363 0.270649552 0
vt 0.147999689 0.199193344 0
vt 0.258768559 0.25073728 0
vt 0.0136284363 0.270649552 0
vt 0.258768559 0.25073728 0
vt 0.377147615 0.283899277 0
vt 0.141065761 0.330936491 0
vt 0.273047775 0.0676563904 0
vt 0.0576409847 0.0354357921 0
vt 0.265396595 0.0234088004 0
vt 0.598255098 0.699205399 0
vt 0.65027684 0.643577933 0
vt 0.735418379 0.691093266 0
vt 0.479188949 0.152710825 0
vt 0.562905908 0.156839043 0
vt 0.567394018 0.215672046 0
vt 0.532031894 0.286217988 0
vt 0.377037674 0.392933488 0
vt 0.448031425 0.278706759 0
vt 0.514319181 0.480933875 0
vt 0.377037674 0.392933488 0
vt 0.504914761 0.436391234 0
vt 0.467300922 0.914639533 0
vt 0.542267203 0.724222362 0
vt 0.582247317 0.767055392 0
vt 0.675094366 0.784917712 0
vt 0.709997952 0.765025496 0
vt 0.709056735 0.78031081 0
vt 0.0379823893 0.787220776 0
vt 0.011347644 0.58425653 0
vt 0.0908828676 0.642799437 0
vt 0.62184602 0.31836772 0
vt 0.575250864 0.412578106 0
vt 0.532031894 0.286217988 0
vt 0.147999689 0.199193344 0
vt 0.278141946 0.126688376 0
vt 0.258768559 0.25073728 0
vt 0.598158717 0.475009114 0
vt 0.514319181 0.480933875 0
vt 0.504914761 0.436391234 0
vt 0.240129128 0.985304058 0
vt 0.319253147 0.753005922 0
vt 0.448563933 0.669721842 0
vt 0.240129128 0.985304058 0
vt 0.148236036 0.955568671 0
vt 0.319253147 0.753005922 0
vt 0.226532817 0.483912557 0
vt 0.0787712559 0.494515389 0
vt 0.377037674 0.392933488 0
vt 0.187670499 0.715887249 0
vt 0.228809729 0.575449646 0
vt 0.378686607 0.608210385 0
vt 0.388434619 0.960561812 0
vt 0.300783694 0.991559565 0
vt 0.428869188 0.876890242 0
vt 0.378686607 0.608210385 0
vt 0.319253147 0.753005922 0
vt 0.187670499 0.715887249 0
vt 0.647324026 0.737448275 0
vt 0.735418379 0.691093266 0
vt 0.763836026 0.74925983 0
vt 0.0379823893 0.787220776 0
vt 0.120757967 0.745077491 0
vt 0.111749321 0.771301031 0
vt 0.166146025 0.587158382 0
vt 0.120757967 0.745077491 0
vt 0.0908828676 0.642799437 0
vt 0.240129128 0.985304058 0
vt 0.448563933 0.669721842 0
vt 0.300783694 0.991559565 0
vt 0.65027684 0.643577933 0
vt 0.598255098 0.699205399 0
vt 0.589605927 0.547251046 0
vt 0.558710933 0.256856769 0
vt 0.62184602 0.31836772 0
vt 0.542850852 0.248738557 0
vt 0.0976815075 0.854496539 0
vt 0.111749321 0.771301031 0
vt 0.187670499 0.715887249 0
vt 0.0401227884 0.343858987 0
vt 0.0136284363 0.270649552 0
vt 0.141065761 0.330936491 0
vt 0.228809729 0.575449646 0
vt 0.187670499 0.715887249 0
vt 0.166146025 0.587158382 0
vt 0.377037674 0.392933488 0
vt 0.575250864 0.412578106 0
vt 0.504914761 0.436391234 0
vt 0.319253147 0.753005922 0
vt 0.148236036 0.955568671 0
vt 0.144726142 0.851421833 0
vt 0.0401227884 0.343858987 0
vt 0.141065761 0.330936491 0
vt 0.0717298314 0.443368047 0
vn -0.098323524 0.436608791 0.657154262
vn -0.222861543 0.102705896 0.953966975
vn -0.342300802 0.200235516 0.936179698
vn -0.0131017016 0.524253547 0.85146147
vn 0.760776281 -0.0196573976 0.64871645
vn 0.694079459 0.0329230204 0.719145119
vn 0.43826738 0.197721601 0.876828253
vn 0.694079459 0.0329230204 0.719145119
vn 0.760776281 -0.0196573976 0.64871645
vn -0.939850569 0.331576228 -0.0820854679
vn -0.740629792 -0.224794373 -0.633194327
vn -0.640923619 0.232031882 -0.731695354
vn -0.640923619 0.232031882 -0.731695354
vn -0.447755754 0.57459259 0.685097218
vn -0.010047676 0.319901139 0.947397709
vn -0.640923619 0.232031882 -0.731695354
vn -0.010047676 0.319901139 0.947397709
vn -0.0131017016 0.524253547 0.85146147
vn -0.0131017016 0.524253547 0.85146147
vn -0.010047676 0.319901139 0.947397709
vn -0.939850569 0.331576228 -0.0820854679
vn -0.0131017016 0.524253547 0.85146147
vn -0.939850569 0.331576228 -0.0820854679
vn -0.640923619 0.232031882 -0.731695354
vn 0.43826738 0.197721601 0.876828253
vn 0.760776281 -0.0196573976 0.64871645
vn -0.0131017016 0.524253547 0.85146147
vn 0.760776281 -0.0196573976 0.64871645
vn -0.098323524 0.436608791 0.657154262
vn 0.78980273 -0.50645262 -0.346002012
vn 0.694079459 0.0329230204 0.719145119
vn 0.78980273 -0.50645262 -0.346002012
vn -0.0131017016 0.524253547 0.85146147
vn 0.43826738 0.197721601 0.876828253
vn -0.098323524 0.436608791 0.657154262
vn 0.694079459 0.0329230204 0.719145119
vn -0.939850569 0.331576228 -0.0820854679
vn -0.849587202 0.493006855 0.187471837
vn -0.355004877 0.787462652 0.503859222
vn -0.939850569 0.331576228 -0.0820854679
vn -0.355004877 0.787462652 0.503859222
vn -0.740629792 -0.224794373 -0.633194327
vn -0.640923619 0.232031882 -0.731695354
vn -0.740629792 -0.224794373 -0.633194327
vn -0.447755754 0.57459259 0.685097218
vn -0.640923619 0.232031882 -0.731695354
vn -0.010047676 0.319901139 0.947397709
vn -0.939850569 0.331576228 -0.0820854679
vn -0.447755754 0.57459259 0.685097218
vn -0.506421447 0.595377088 0.641284227
vn -0.010047676 0.319901139 0.947397709
vn -0.0131017016 0.524253547 0.85146147
vn -0.010047676 0.319901139 0.947397709
vn -0.506421447 0.595377088 0.641284227
vn -0.0131017016 0.524253547 0.85146147
vn -0.506421447 0.595377088 0.641284227
vn -0.0301204827 0.571602583 0.819977701
vn -0.0301204827 0.571602583 0.819977701
vn 0.43826738 0.197721601 0.876828253
vn -0.0131017016 0.524253547 0.85146147
vn -0.37455976 0.687024534 0.622657478
vn -0.46068278 0.618399441 0.636673808
vn -0.532969892 0.522104681 0.665845096
vn -0.849587202 0.493006855 0.187471837
vn -0.532969892 0.522104681 0.665845096
vn -0.362537533 0.592308819 0.677489698
vn -0.849587202 0.493006855 0.187471837
vn -0.362537533 0.592308819 0.677489698
vn -0.355004877 0.787462652 0.503859222
vn -0.740629792 -0.224794373 -0.633194327
vn -0.355004877 0.787462652 0.503859222
vn -0.362537533 0.592308819 0.677489698
vn -0.740629792 -0.224794373 -0.633194327
vn -0.362537533 0.592308819 0.677489698
vn -0.447755754 0.57459259 0.685097218
vn -0.740629792 -0.224794373 -0.633194327
vn -0.939850569 0.331576228 -0.0820854679
vn 0.580814064 -0.570644498 -0.580534101
vn -0.740629792 -0.224794373 -0.633194327
vn 0.580814064 -0.570644498 -0.580534101
vn 1.28429806 -0.769738615 -0.914963663
vn -0.939850569 0.331576228 -0.0820854679
vn 0.800832629 -0.860734284 -1.07161653
vn -0.849587202 0.493006855 0.187471837
vn -0.447755754 0.57459259 0.685097218
vn 0.797869205 -0.488152236 -0.353712112
vn 0.580814064 -0.570644498 -0.580534101
vn -0.447755754 0.57459259 0.685097218
vn 0.580814064 -0.570644498 -0.580534101
vn -0.939850569 0.331576228 -0.0820854679
vn -0.506421447 0.595377088 0.641284227
vn 0.43826738 0.197721601 0.876828253
vn -0.0301204827 0.571602583 0.819977701
vn -0.0301204827 0.571602583 0.819977701
vn 0.74494797 -0.576148689 -0.211890623
vn -0.010047676 0.319901139 0.947397709
vn 0.78980273 -0.50645262 -0.346002012
vn 0.74494797 -0.576148689 -0.211890623
vn -0.0131017016 0.524253547 0.85146147
vn 0.74494797 -0.576148689 -0.211890623
vn 0.78980273 -0.50645262 -0.346002012
vn -0.098323524 0.436608791 0.657154262
vn -0.37455976 0.687024534 0.622657478
vn -0.443132877 0.535716236 0.718777657
vn -0.503006339 0.582954466 0.638082027
vn -0.37455976 0.687024534 0.622657478
vn -0.503006339 0.582954466 0.638082027
vn -0.336086512 0.660361826 0.671541512
vn -0.37455976 0.687024534 0.622657478
vn -0.336086512 0.660361826 0.671541512
vn -0.46068278 0.618399441 0.636673808
vn -0.37455976 0.687024534 0.622657478
vn -0.532969892 0.522104681 0.665845096
vn -0.503006339 0.582954466 0.638082027
vn -0.532969892 0.522104681 0.665845096
vn -0.46068278 0.618399441 0.636673808
vn -0.503951013 0.559177697 0.658295989
vn -0.503951013 0.559177697 0.658295989
vn -0.362537533 0.592308819 0.677489698
vn -0.532969892 0.522104681 0.665845096
vn -0.532969892 0.522104681 0.665845096
vn 0.71822089 -0.670474052 -0.774730325
vn -0.503951013 0.559177697 0.658295989
vn -0.447755754 0.57459259 0.685097218
vn -0.362537533 0.592308819 0.677489698
vn -0.506421447 0.595377088 0.641284227
vn -0.680979073 0.832658827 0.926759124
vn 0.797869205 -0.488152236 -0.353712112
vn 0.580814064 -0.570644498 -0.580534101
vn -0.010047676 0.319901139 0.947397709
vn 0.74494797 -0.576148689 -0.211890623
vn 0.797869205 -0.488152236 -0.353712112
vn -0.140413836 0.581804633 0.801116347
vn -0.630327106 0.037164636 0.77543962
vn -0.449475706 0.47379151 0.757293403
vn -0.140413836 0.581804633 0.801116347
vn -0.449475706 0.47379151 0.757293403
vn -0.485880107 0.583919585 0.650352657
vn -0.443132877 0.535716236 0.718777657
vn -0.329201043 0.656789064 0.678420782
vn -0.538598418 0.294790715 0.789309919
vn -0.443132877 0.535716236 0.718777657
vn -0.485880107 0.583919585 0.650352657
vn -0.449475706 0.47379151 0.757293403
vn -0.443132877 0.535716236 0.718777657
vn -0.538598418 0.294790715 0.789309919
vn -0.503006339 0.582954466 0.638082027
vn -0.503006339 0.582954466 0.638082027
vn -0.568561256 0.533700407 0.626020849
vn -0.336086512 0.660361826 0.671541512
vn -0.46068278 0.618399441 0.636673808
vn -0.336086512 0.660361826 0.671541512
vn -0.878467679 0.287871331 0.261946946
vn -0.46068278 0.618399441 0.636673808
vn -0.878467679 0.287871331 0.261946946
vn -0.503951013 0.559177697 0.658295989
vn -0.46068278 0.618399441 0.636673808
vn -0.336086512 0.660361826 0.671541512
vn -0.503006339 0.582954466 0.638082027
vn -0.362537533 0.592308819 0.677489698
vn -0.503951013 0.559177697 0.658295989
vn -0.878467679 0.287871331 0.261946946
vn 0.610544145 -0.561102986 -0.55892694
vn 0.644021273 -0.57129544 -0.508781135
vn -0.503951013 0.559177697 0.658295989
vn 0.610544145 -0.561102986 -0.55892694
vn -0.503951013 0.559177697 0.658295989
vn 0.71822089 -0.670474052 -0.774730325
vn 0.797869205 -0.488152236 -0.353712112
vn 0.610544145 -0.561102986 -0.55892694
vn 0.580814064 -0.570644498 -0.580534101
vn 0.43826738 0.197721601 0.876828253
vn -0.506421447 0.595377088 0.641284227
vn -0.878467679 0.287871331 0.261946946
vn -0.443132877 0.535716236 0.718777657
vn -0.516401887 0.523809552 0.677460372
vn -0.688431799 0.453951597 0.565676272
vn -0.443132877 0.535716236 0.718777657
vn -0.688431799 0.453951597 0.565676272
vn -0.329201043 0.656789064 0.678420782
vn -0.443132877 0.535716236 0.718777657
vn -0.449475706 0.47379151 0.757293403
vn -0.630327106 0.037164636 0.77543962
vn -0.443132877 0.535716236 0.718777657
vn -0.630327106 0.037164636 0.77543962
vn -0.516401887 0.523809552 0.677460372
vn -0.449475706 0.47379151 0.757293403
vn 0.501594901 -0.550630808 -0.667239428
vn 0.385058612 -0.211202204 -0.373740137
vn -0.449475706 0.47379151 0.757293403
vn 0.385058612 -0.211202204 -0.373740137
vn -0.140413836 0.581804633 0.801116347
vn -0.538598418 0.294790715 0.789309919
vn -0.329201043 0.656789064 0.678420782
vn -0.503006339 0.582954466 0.638082027
vn -0.538598418 0.294790715 0.789309919
vn -0.37455976 0.687024534 0.622657478
vn 0.509355485 -0.594900906 -0.621811807
vn -0.538598418 0.294790715 0.789309919
vn 0.509355485 -0.594900906 -0.621811807
vn -0.443132877 0.535716236 0.718777657
vn -0.443132877 0.535716236 0.718777657
vn 0.501594901 -0.550630808 -0.667239428
vn -0.485880107 0.583919585 0.650352657
vn -0.503006339 0.582954466 0.638082027
vn -0.496779442 0.568999767 0.655323923
vn -0.568561256 0.533700407 0.626020849
vn -0.568561256 0.533700407 0.626020849
vn -0.878467679 0.287871331 0.261946946
vn -0.336086512 0.660361826 0.671541512
vn -0.336086512 0.660361826 0.671541512
vn 0.551085293 -0.602784991 -0.577022672
vn -0.503006339 0.582954466 0.638082027
vn -0.503951013 0.559177697 0.658295989
vn 0.669050872 -0.585960805 -0.45718804
vn -0.336086512 0.660361826 0.671541512
vn 0.797869205 -0.488152236 -0.353712112
vn 0.74494797 -0.576148689 -0.211890623
vn 0.0980144441 0.568886757 0.786770999
vn 0.797869205 -0.488152236 -0.353712112
vn 0.0980144441 0.568886757 0.786770999
vn 0.610544145 -0.561102986 -0.55892694
vn -0.362537533 0.592308819 0.677489698
vn -0.878467679 0.287871331 0.261946946
vn -0.506421447 0.595377088 0.641284227
vn -0.630327106 0.037164636 0.77543962
vn 0.146602869 0.505705953 0.670497715
vn -0.512209952 0.123701379 0.849905193
vn -0.455122232 0.34707588 -0.613436282
vn -0.630327106 0.037164636 0.77543962
vn -0.140413836 0.581804633 0.801116347
vn -0.455122232 0.34707588 -0.613436282
vn -0.140413836 0.581804633 0.801116347
vn 0.14248842 0.401013345 0.904922843
vn -0.630327106 0.037164636 0.77543962
vn -0.512209952 0.123701379 0.849905193
vn -0.623986721 0.443847597 0.643148303
vn -0.630327106 0.037164636 0.77543962
vn -0.623986721 0.443847597 0.643148303
vn -0.516401887 0.523809552 0.677460372
vn -0.516401887 0.523809552 0.677460372
vn -0.840824127 0.24126108 0.484569728
vn -0.688431799 0.453951597 0.565676272
vn -0.329201043 0.656789064 0.678420782
vn -0.688431799 0.453951597 0.565676272
vn -0.555068493 0.554539621 0.619987667
vn -0.329201043 0.656789064 0.678420782
vn -0.555068493 0.554539621 0.619987667
vn -0.503006339 0.582954466 0.638082027
vn -0.329201043 0.656789064 0.678420782
vn 0.509355485 -0.594900906 -0.621811807
vn -0.688431799 0.453951597 0.565676272
vn -0.329201043 0.656789064 0.678420782
vn -0.688431799 0.453951597 0.565676272
vn 0.476370424 -0.611156285 -0.632107079
vn 0.476370424 -0.611156285 -0.632107079
vn 0.385058612 -0.211202204 -0.373740137
vn 0.501594901 -0.550630808 -0.667239428
vn 0.476370424 -0.611156285 -0.632107079
vn 0.501594901 -0.550630808 -0.667239428
vn -0.443132877 0.535716236 0.718777657
vn -0.429477751 0.584675133 0.68826139
vn -0.0179406591 0.999839008 -0.000201806062
vn -0.496779442 0.568999767 0.655323923
vn -0.429477751 0.584675133 0.68826139
vn -0.496779442 0.568999767 0.655323923
vn -0.503006339 0.582954466 0.638082027
vn -0.496779442 0.568999767 0.655323923
vn -0.878467679 0.287871331 0.261946946
vn -0.568561256 0.533700407 0.626020849
vn -0.568561256 0.533700407 0.626020849
vn 0.551085293 -0.602784991 -0.577022672
vn 0.640985012 -0.583477974 -0.49868986
vn -0.568561256 0.533700407 0.626020849
vn 0.640985012 -0.583477974 -0.49868986
vn -0.429477751 0.584675133 0.68826139
vn 0.669050872 -0.585960805 -0.45718804
vn 0.787432253 -0.519433022 -0.331873149
vn 0.551085293 -0.602784991 -0.577022672
vn 0.669050872 -0.585960805 -0.45718804
vn 0.551085293 -0.602784991 -0.577022672
vn -0.336086512 0.660361826 0.671541512
vn -94.9822159 69.1621704 59.8528404
vn 0.951742053 -0.306770861 0.00887262262
vn 0.669050872 -0.585960805 -0.45718804
vn 0.644021273 -0.57129544 -0.508781135
vn 0.725264192 -0.608677328 0.0771834105
vn 0.951742053 -0.306770861 0.00887262262
vn 0.644021273 -0.57129544 -0.508781135
vn 0.951742053 -0.306770861 0.00887262262
vn -0.503951013 0.559177697 0.658295989
vn 0.0980144441 0.568886757 0.786770999
vn 0.725264192 -0.608677328 0.0771834105
vn 0.644021273 -0.57129544 -0.508781135
vn -0.931725144 0.0426786356 0.167924449
vn -0.537242115 -0.0784846172 0.640721202
vn 0.146602869 0.505705953 0.670497715
vn -0.931725144 0.0426786356 0.167924449
vn 0.146602869 0.505705953 0.670497715
vn -0.455122232 0.34707588 -0.613436282
vn -0.455122232 0.34707588 -0.613436282
vn 0.146602869 0.505705953 0.670497715
vn -0.630327106 0.037164636 0.77543962
vn -0.512209952 0.123701379 0.849905193
vn 0.146602869 0.505705953 0.670497715
vn -0.29331851 -0.0792453587 0.75895226
vn -0.512209952 0.123701379 0.849905193
vn -0.29331851 -0.0792453587 0.75895226
vn -0.623986721 0.443847597 0.643148303
vn 0.467146754 -0.435442507 -0.748268008
vn -0.455122232 0.34707588 -0.613436282
vn 0.14248842 0.401013345 0.904922843
vn 0.467146754 -0.435442507 -0.748268008
vn 0.14248842 0.401013345 0.904922843
vn -0.630327106 0.037164636 0.77543962
vn -0.516401887 0.523809552 0.677460372
vn -0.623986721 0.443847597 0.643148303
vn -0.62544322 0.39681232 0.671833813
vn -0.516401887 0.523809552 0.677460372
vn -0.62544322 0.39681232 0.671833813
vn -0.840824127 0.24126108 0.484569728
vn 0.385058612 -0.211202204 -0.373740137
vn -0.512209952 0.123701379 0.849905193
vn -0.630327106 0.037164636 0.77543962
vn -0.688431799 0.453951597 0.565676272
vn -0.840824127 0.24126108 0.484569728
vn 0.556680262 -0.825544536 -0.0926463678
vn -0.688431799 0.453951597 0.565676272
vn 0.556680262 -0.825544536 -0.0926463678
vn -0.555068493 0.554539621 0.619987667
vn -0.688431799 0.453951597 0.565676272
vn -0.840824127 0.24126108 0.484569728
vn 0.457124025 -0.486007035 -0.744872332
vn 0.457124025 -0.486007035 -0.744872332
vn 0.385058612 -0.211202204 -0.373740137
vn 0.476370424 -0.611156285 -0.632107079
vn -0.503006339 0.582954466 0.638082027
vn -0.555068493 0.554539621 0.619987667
vn -0.0179406591 0.999839008 -0.000201806062
vn -0.503006339 0.582954466 0.638082027
vn -0.0179406591 0.999839008 -0.000201806062
vn -0.429477751 0.584675133 0.68826139
vn -0.503006339 0.582954466 0.638082027
vn 0.556680262 -0.825544536 -0.0926463678
vn -0.688431799 0.453951597 0.565676272
vn -0.496779442 0.568999767 0.655323923
vn -0.0179406591 0.999839008 -0.000201806062
vn -0.878467679 0.287871331 0.261946946
vn 0.640985012 -0.583477974 -0.49868986
vn 0.776705146 -0.504071236 -0.377678812
vn -0.429477751 0.584675133 0.68826139
vn -0.496779442 0.568999767 0.655323923
vn 0.787432253 -0.519433022 -0.331873149
vn 0.640985012 -0.583477974 -0.49868986
vn 0.725264192 -0.608677328 0.0771834105
vn 0.787432253 -0.519433022 -0.331873149
vn 0.669050872 -0.585960805 -0.45718804
vn 0.951742053 -0.306770861 0.00887262262
vn 0.725264192 -0.608677328 0.0771834105
vn 0.669050872 -0.585960805 -0.45718804
vn 0.278780609 -0.466728806 0.795744002
vn -0.412963063 -0.163266212 0.895994186
vn -0.0360125601 -0.646445751 0.694580913
vn -0.0360125601 -0.646445751 0.694580913
vn -0.412963063 -0.163266212 0.895994186
vn 0.103921309 -0.274579942 0.955932081
vn 0.278780609 -0.466728806 0.795744002
vn -0.0360125601 -0.646445751 0.694580913
vn -0.0694426596 -0.911079049 0.406340569
vn 0.103921309 -0.274579942 0.955932081
vn -0.412963063 -0.163266212 0.895994186
vn 0.405193686 -0.405197114 -0.259391129
vn 0.364116699 -1.36509585 0.252833635
vn 0.103921309 -0.274579942 0.955932081
vn 0.892572403 -0.41473487 0.644417942
vn 0.364116699 -1.36509585 0.252833635
vn 0.892572403 -0.41473487 0.644417942
vn 0.506562889 0.804409206 0.31035459
vn -0.0694426596 -0.911079049 0.406340569
vn 0.507978618 -1.89683449 0.0811702982
vn 0.506562889 0.804409206 0.31035459
vn -0.0694426596 -0.911079049 0.406340569
vn 0.506562889 0.804409206 0.31035459
vn 0.0765338615 0.469712168 -0.879495919
vn 11.035183 4.28831387 6.95728016
vn -0.0694426596 -0.911079049 0.406340569
vn 0.0765338615 0.469712168 -0.879495919
vn 11.035183 4.28831387 6.95728016
vn 0.0765338615 0.469712168 -0.879495919
vn -2.01071477 1.35457647 -1.16040111
vn 0.506562889 0.804409206 0.31035459
vn 1.31286442 -0.894653261 0.291039348
vn -0.862598181 -1.13244069 0.285309523
vn 0.506562889 0.804409206 0.31035459
vn -0.862598181 -1.13244069 0.285309523
vn -1.34006274 -0.683221817 -0.466145396
vn 0.0765338615 0.469712168 -0.879495919
vn 0.506562889 0.804409206 0.31035459
vn -0.931725144 0.0426786356 0.167924449
vn 0.0765338615 0.469712168 -0.879495919
vn -0.931725144 0.0426786356 0.167924449
vn -0.455122232 0.34707588 -0.613436282
vn -0.455122232 0.34707588 -0.613436282
vn -0.746526241 0.0700627938 -0.606679201
vn 0.0765338615 0.469712168 -0.879495919
vn -0.537242115 -0.0784846172 0.640721202
vn 0.185620159 -1.27430785 0.500448942
vn 0.146602869 0.505705953 0.670497715
vn 1.66416824 0.298750073 0.263165176
vn 2.90431833 0.566040695 -0.224266529
vn -3.78998804 -0.528961122 1.82419121
vn 1.66416824 0.298750073 0.263165176
vn -3.78998804 -0.528961122 1.82419121
vn 2.90431833 0.566040695 -0.224266529
vn 0.981499493 -0.744754195 0.461570591
vn -0.448451549 -0.471199393 0.455028296
vn -0.62544322 0.39681232 0.671833813
vn 0.467146754 -0.435442507 -0.748268008
vn 0.574098825 -0.44180879 -1.03062439
vn -0.455122232 0.34707588 -0.613436282
vn 0.981499493 -0.744754195 0.461570591
vn -0.62544322 0.39681232 0.671833813
vn -0.623986721 0.443847597 0.643148303
vn -0.623986721 0.443847597 0.643148303
vn -0.840824127 0.24126108 0.484569728
vn -0.0356683545 -0.386438936 1.31982827
vn -0.840824127 0.24126108 0.484569728
vn -0.62544322 0.39681232 0.671833813
vn 0.556680262 -0.825544536 -0.0926463678
vn -0.512209952 0.123701379 0.849905193
vn 0.385058612 -0.211202204 -0.373740137
vn 0.457124025 -0.486007035 -0.744872332
vn -0.512209952 0.123701379 0.849905193
vn 0.457124025 -0.486007035 -0.744872332
vn -0.840824127 0.24126108 0.484569728
vn -0.555068493 0.554539621 0.619987667
vn 0.556680262 -0.825544536 -0.0926463678
vn -0.625961423 0.69776094 0.348284155
vn -0.555068493 0.554539621 0.619987667
vn -0.625961423 0.69776094 0.348284155
vn -0.0179406591 0.999839008 -0.000201806062
vn -0.555068493 0.554539621 0.619987667
vn 0.556680262 -0.825544536 -0.0926463678
vn -0.840824127 0.24126108 0.484569728
vn -0.429477751 0.584675133 0.68826139
vn 0.776705146 -0.504071236 -0.377678812
vn 0.556680262 -0.825544536 -0.0926463678
vn 0.931881368 -0.149209633 -0.33065623
vn 0.776705146 -0.504071236 -0.377678812
vn 0.640985012 -0.583477974 -0.49868986
vn 0.787432253 -0.519433022 -0.331873149
vn 0.725264192 -0.608677328 0.0771834105
vn 0.931881368 -0.149209633 -0.33065623
vn 0.787432253 -0.519433022 -0.331873149
vn 0.931881368 -0.149209633 -0.33065623
vn 0.640985012 -0.583477974 -0.49868986
vn -0.412963063 -0.163266212 0.895994186
vn -0.273312956 -0.123864882 0.953917027
vn 0.725264192 -0.608677328 0.0771834105
vn -0.125253946 -0.667064369 0.718247831
vn 0.103921309 -0.274579942 0.955932081
vn 0.725264192 -0.608677328 0.0771834105
vn -0.0694426596 -0.911079049 0.406340569
vn -0.125253946 -0.667064369 0.718247831
vn 0.725264192 -0.608677328 0.0771834105
vn 0.725264192 -0.608677328 0.0771834105
vn 0.278780609 -0.466728806 0.795744002
vn -0.0694426596 -0.911079049 0.406340569
vn -0.412963063 -0.163266212 0.895994186
vn -0.273312956 -0.123864882 0.953917027
vn -0.448451549 -0.471199393 0.455028296
vn 0.405193686 -0.405197114 -0.259391129
vn -0.273312956 -0.123864882 0.953917027
vn 0.103921309 -0.274579942 0.955932081
vn 0.103921309 -0.274579942 0.955932081
vn 0.837404728 -2.13451695 -0.20410189
vn 0.506562889 0.804409206 0.31035459
vn 0.103921309 -0.274579942 0.955932081
vn 0.506562889 0.804409206 0.31035459
vn 1.22116554 -0.948719084 0.327903032
vn 0.49203375 -1.73855913 0.337859333
vn -0.0694426596 -0.911079049 0.406340569
vn 0.0765338615 0.469712168 -0.879495919
vn 0.49203375 -1.73855913 0.337859333
vn 0.0765338615 0.469712168 -0.879495919
vn 0.506562889 0.804409206 0.31035459
vn -0.0694426596 -0.911079049 0.406340569
vn 11.035183 4.28831387 6.95728016
vn -2.01071477 1.35457647 -1.16040111
vn -0.0694426596 -0.911079049 0.406340569
vn -2.01071477 1.35457647 -1.16040111
vn 0.0765338615 0.469712168 -0.879495919
vn -0.448451549 -0.471199393 0.455028296
vn 0.405193686 -0.405197114 -0.259391129
vn -0.412963063 -0.163266212 0.895994186
vn 1.39891088 -0.721061409 0.563359201
vn 0.506562889 0.804409206 0.31035459
vn -1.29875898 -0.597579956 -0.328861862
vn 1.39891088 -0.721061409 0.563359201
vn -1.29875898 -0.597579956 -0.328861862
vn -0.835009098 -1.06648469 0.386818707
vn 0.506562889 0.804409206 0.31035459
vn 0.0765338615 0.469712168 -0.879495919
vn -0.746526241 0.0700627938 -0.606679201
vn 0.506562889 0.804409206 0.31035459
vn -0.746526241 0.0700627938 -0.606679201
vn -1.00381207 -0.189686224 -0.306584299
vn 0.185620159 -1.27430785 0.500448942
vn -0.135983467 -0.712991297 0.0463983081
vn 0.574098825 -0.44180879 -1.03062439
vn 0.185620159 -1.27430785 0.500448942
vn 0.574098825 -0.44180879 -1.03062439
vn 0.146602869 0.505705953 0.670497715
vn -0.135983467 -0.712991297 0.0463983081
vn -0.916826189 -0.0724554658 -0.141178548
vn 0.574098825 -0.44180879 -1.03062439
vn 0.146602869 0.505705953 0.670497715
vn 0.574098825 -0.44180879 -1.03062439
vn 0.467146754 -0.435442507 -0.748268008
vn -0.448451549 -0.471199393 0.455028296
vn -0.0356683545 -0.386438936 1.31982827
vn -0.840824127 0.24126108 0.484569728
vn -0.62544322 0.39681232 0.671833813
vn -0.434421927 0.713230252 0.550072789
vn -0.625961423 0.69776094 0.348284155
vn -0.62544322 0.39681232 0.671833813
vn -0.625961423 0.69776094 0.348284155
vn 0.556680262 -0.825544536 -0.0926463678
vn -0.0179406591 0.999839008 -0.000201806062
vn 0.776705146 -0.504071236 -0.377678812
vn 0.556680262 -0.825544536 -0.0926463678
vn -0.878467679 0.287871331 0.261946946
vn -0.0179406591 0.999839008 -0.000201806062
vn -0.625961423 0.69776094 0.348284155
vn -0.273312956 -0.123864882 0.953917027
vn -0.412963063 -0.163266212 0.895994186
vn 0.278780609 -0.466728806 0.795744002
vn -0.448451549 -0.471199393 0.455028296
vn -0.273312956 -0.123864882 0.953917027
vn 0.278780609 -0.466728806 0.795744002
vn 0.725264192 -0.608677328 0.0771834105
vn -0.273312956 -0.123864882 0.953917027
vn 0.405193686 -0.405197114 -0.259391129
vn -0.448451549 -0.471199393 0.455028296
vn 0.725264192 -0.608677328 0.0771834105
vn 0.405193686 -0.405197114 -0.259391129
vn -0.62544322 0.39681232 0.671833813
vn -0.448451549 -0.471199393 0.455028296
vn -0.434421927 0.713230252 0.550072789
vn 0.776705146 -0.504071236 -0.377678812
vn -0.448451549 -0.471199393 0.455028296
vn 0.556680262 -0.825544536 -0.0926463678
vn -0.700098991 0.126039907 0.697675347
vn -0.434421927 0.713230252 0.550072789
vn -0.448451549 -0.471199393 0.455028296
vn -0.434421927 0.713230252 0.550072789
vn -0.700098991 0.126039907 0.697675347
vn 0.898115695 -0.419223875 -0.132814303
vn -0.434421927 0.713230252 0.550072789
vn 0.898115695 -0.419223875 -0.132814303
vn -0.625961423 0.69776094 0.348284155
vn 0.776705146 -0.504071236 -0.377678812
vn 0.898115695 -0.419223875 -0.132814303
vn -0.448451549 -0.471199393 0.455028296
vn -0.434421927 0.713230252 0.550072789
vn 0.931881368 -0.149209633 -0.33065623
vn 0.725264192 -0.608677328 0.0771834105
vn -0.434421927 0.713230252 0.550072789
vn 0.725264192 -0.608677328 0.0771834105
vn 0.776705146 -0.504071236 -0.377678812
vn -0.625961423 0.69776094 0.348284155
vn 0.898115695 -0.419223875 -0.132814303
vn -0.700098991 0.126039907 0.697675347
vn 0.898115695 -0.419223875 -0.132814303
vn 0.776705146 -0.504071236 -0.377678812
vn 0.725264192 -0.608677328 0.0771834105
vn 0.278780609 -0.466728806 0.795744002
vn -0.700098991 0.126039907 0.697675347
vn -0.448451549 -0.471199393 0.455028296
vn -0.700098991 0.126039907 0.697675347
vn 0.278780609 -0.466728806 0.795744002
vn -0.346335143 0.166750133 0.808583498
vn -0.448451549 -0.471199393 0.455028296
vn 0.898115695 -0.419223875 -0.132814303
vn 0.725264192 -0.608677328 0.0771834105
vn 0.0395986997 0.0249355827 -0.586706161
vn -0.951078773 -0.261361003 -0.164741218
vn -1.08066845 -0.202378482 0.0254845154
vn 0.0395986997 0.0249355827 -0.586706161
vn 0.176207229 -0.437293559 -0.881887376
vn -0.951078773 -0.261361003 -0.164741218
vn 0.0395986997 0.0249355827 -0.586706161
vn -0.743869662 -0.419476777 0.520285606
vn 0.176207229 -0.437293559 -0.881887376
vn -0.951078773 -0.261361003 -0.164741218
vn 0.871113479 0.262685627 -0.446360081
vn -0.743869662 -0.419476777 0.520285606
vn -1.08066845 -0.202378482 0.0254845154
vn -0.951078773 -0.261361003 -0.164741218
vn 0.176207229 -0.437293559 -0.881887376
vn -0.743869662 -0.419476777 0.520285606
vn 0.871113479 0.262685627 -0.446360081
vn -1.08066845 -0.202378482 0.0254845154
vn -0.743869662 -0.419476777 0.520285606
vn -1.08066845 -0.202378482 0.0254845154
vn 0.176207229 -0.437293559 -0.881887376
vn -0.878467679 0.287871331 0.261946946
vn -0.625961423 0.69776094 0.348284155
vn -0.700098991 0.126039907 0.697675347
vn -0.355004877 0.787462652 0.503859222
vn 0.610544145 -0.561102986 -0.55892694
vn 0.71822089 -0.670474052 -0.774730325
vn -0.355004877 0.787462652 0.503859222
vn 0.580814064 -0.570644498 -0.580534101
vn 0.610544145 -0.561102986 -0.55892694
vn -0.562900424 0.418735594 0.154843748
vn -0.098323524 0.436608791 0.657154262
vn -0.878467679 0.287871331 0.261946946
vn 0.430749655 0.451513678 0.557609737
vn -0.346335143 0.166750133 0.808583498
vn 0.278780609 -0.466728806 0.795744002
vn 0.43826738 0.197721601 0.876828253
vn -0.878467679 0.287871331 0.261946946
vn -0.098323524 0.436608791 0.657154262
vn 0.637595654 -0.0950882956 0.742391229
vn 0.719259501 -0.0649718419 0.549234092
vn 0.780583918 0.359000713 0.441783309
vn -0.116957851 0.377313048 -0.710985243
vn -0.834231496 0.489661545 -0.218717054
vn -1.08066845 -0.202378482 0.0254845154
vn 0.540825605 0.805498481 -0.137585402
vn -0.67455703 0.504363418 -0.614588559
vn -0.562900424 0.418735594 0.154843748
vn -0.67455703 0.504363418 -0.614588559
vn 0.540825605 0.805498481 -0.137585402
vn 0.74494797 -0.576148689 -0.211890623
vn 0.540825605 0.805498481 -0.137585402
vn 0.776482403 0.293834388 -0.313658357
vn 0.871113479 0.262685627 -0.446360081
vn -0.903003871 0.252796829 0.0225071944
vn -0.974330425 0.236051112 -0.192347214
vn -0.222861543 0.102705896 0.953966975
vn 0.0980144441 0.568886757 0.786770999
vn 0.74494797 -0.576148689 -0.211890623
vn 0.725264192 -0.608677328 0.0771834105
vn -0.397944629 -0.0753235891 -0.506029367
vn -0.558230519 0.170759484 -0.794736326
vn 0.354862332 -0.102284722 -0.900361359
vn -0.116957851 0.377313048 -0.710985243
vn 0.264038742 0.150539547 -0.700765669
vn 0.0999541357 0.953076899 0.124654651
vn -0.686319888 0.0984003767 0.570433378
vn 0.011065268 0.365140855 0.618271768
vn -0.342300802 0.200235516 0.936179698
vn 0.430749655 0.451513678 0.557609737
vn -0.341910928 -0.0769615918 0.597080052
vn 0.780583918 0.359000713 0.441783309
vn 0.540825605 0.805498481 -0.137585402
vn 0.430749655 0.451513678 0.557609737
vn 0.780583918 0.359000713 0.441783309
vn -0.0697444677 0.191117138 -0.728794336
vn -0.116957851 0.377313048 -0.710985243
vn -1.08066845 -0.202378482 0.0254845154
vn 0.278780609 -0.466728806 0.795744002
vn 0.74494797 -0.576148689 -0.211890623
vn -0.638475537 -0.503847897 0.0332307592
vn -0.550775111 0.0749935359 -0.762027144
vn -0.389888495 0.280474067 -0.814294219
vn -0.558230519 0.170759484 -0.794736326
vn -0.389888495 0.280474067 -0.814294219
vn -0.550775111 0.0749935359 -0.762027144
vn -0.654240727 0.112553582 -0.650194228
vn -0.523269713 0.581981659 0.610654712
vn -0.562900424 0.418735594 0.154843748
vn -0.67455703 0.504363418 -0.614588559
vn -0.686319888 0.0984003767 0.570433378
vn -0.342300802 0.200235516 0.936179698
vn -0.219153225 -0.235977039 0.814077497
vn 0.540825605 0.805498481 -0.137585402
vn 0.780583918 0.359000713 0.441783309
vn 0.776482403 0.293834388 -0.313658357
vn 0.264038742 0.150539547 -0.700765669
vn -0.116957851 0.377313048 -0.710985243
vn -0.654240727 0.112553582 -0.650194228
vn -0.341910928 -0.0769615918 0.597080052
vn 0.011065268 0.365140855 0.618271768
vn -0.0906694233 0.104024358 0.952351451
vn 0.011065268 0.365140855 0.618271768
vn -0.686319888 0.0984003767 0.570433378
vn -0.0906694233 0.104024358 0.952351451
vn 0.576965511 0.0390653871 -0.774047732
vn -0.0697444677 0.191117138 -0.728794336
vn 0.955584228 0.345073551 -0.320881784
vn 0.576965511 0.0390653871 -0.774047732
vn 0.955584228 0.345073551 -0.320881784
vn 0.294542581 -0.00487256888 -0.865053535
vn 0.871113479 0.262685627 -0.446360081
vn 0.0395986997 0.0249355827 -0.586706161
vn 0.540825605 0.805498481 -0.137585402
vn 0.577062845 0.0283971261 0.529340744
vn 0.780583918 0.359000713 0.441783309
vn -0.341910928 -0.0769615918 0.597080052
vn 0.780583918 0.359000713 0.441783309
vn 0.577062845 0.0283971261 0.529340744
vn 0.637595654 -0.0950882956 0.742391229
vn -0.0906694233 0.104024358 0.952351451
vn -0.686319888 0.0984003767 0.570433378
vn -0.277603775 -0.150068015 0.97115618
vn 0.719259501 -0.0649718419 0.549234092
vn 0.709273458 -0.0639713556 0.605915725
vn 0.690196693 0.174935728 0.470155507
vn 0.74494797 -0.576148689 -0.211890623
vn 0.923135757 0.039846573 0.0868081003
vn 0.264038742 0.150539547 -0.700765669
vn -0.0906694233 0.104024358 0.952351451
vn -0.277603775 -0.150068015 0.97115618
vn 0.577062845 0.0283971261 0.529340744
vn 0.74494797 -0.576148689 -0.211890623
vn 0.0395986997 0.0249355827 -0.586706161
vn -1.08066845 -0.202378482 0.0254845154
vn -0.0697444677 0.191117138 -0.728794336
vn 0.871113479 0.262685627 -0.446360081
vn 0.955584228 0.345073551 -0.320881784
vn 0.871113479 0.262685627 -0.446360081
vn -0.0697444677 0.191117138 -0.728794336
vn -1.08066845 -0.202378482 0.0254845154
vn -0.629382193 0.189331129 -0.635079563
vn -0.528657019 0.181324676 -0.813647151
vn 0.264038742 0.150539547 -0.700765669
vn 0.0999541357 0.953076899 0.124654651
vn 0.011065268 0.365140855 0.618271768
vn -0.341910928 -0.0769615918 0.597080052
vn -0.67455703 0.504363418 -0.614588559
vn 0.74494797 -0.576148689 -0.211890623
vn 0.264038742 0.150539547 -0.700765669
vn -0.389888495 0.280474067 -0.814294219
vn -0.116957851 0.377313048 -0.710985243
vn 0.354862332 -0.102284722 -0.900361359
vn -0.0697444677 0.191117138 -0.728794336
vn 0.576965511 0.0390653871 -0.774047732
vn 0.38932994 0.234955564 -0.653252721
vn -0.638475537 -0.503847897 0.0332307592
vn -1.08066845 -0.202378482 0.0254845154
vn -0.341910928 -0.0769615918 0.597080052
vn 0.430749655 0.451513678 0.557609737
vn 0.278780609 -0.466728806 0.795744002
vn -0.638475537 -0.503847897 0.0332307592
vn 0.923135757 0.039846573 0.0868081003
vn 0.74494797 -0.576148689 -0.211890623
vn -0.098323524 0.436608791 0.657154262
vn 0.294542581 -0.00487256888 -0.865053535
vn 0.955584228 0.345073551 -0.320881784
vn 0.825983167 0.436336458 -0.212495506
vn 0.923135757 0.039846573 0.0868081003
vn -0.098323524 0.436608791 0.657154262
vn 0.0999541357 0.953076899 0.124654651
vn 0.0999541357 0.953076899 0.124654651
vn -0.098323524 0.436608791 0.657154262
vn 0.011065268 0.365140855 0.618271768
vn -0.629382193 0.189331129 -0.635079563
vn 0.264038742 0.150539547 -0.700765669
vn -0.550775111 0.0749935359 -0.762027144
vn -0.629382193 0.189331129 -0.635079563
vn -0.550775111 0.0749935359 -0.762027144
vn -0.903003871 0.252796829 0.0225071944
vn 0.354862332 -0.102284722 -0.900361359
vn 0.38932994 0.234955564 -0.653252721
vn -0.397944629 -0.0753235891 -0.506029367
vn 0.264038742 0.150539547 -0.700765669
vn 0.923135757 0.039846573 0.0868081003
vn 0.0999541357 0.953076899 0.124654651
vn 0.74494797 -0.576148689 -0.211890623
vn 0.540825605 0.805498481 -0.137585402
vn 0.0395986997 0.0249355827 -0.586706161
vn 0.690196693 0.174935728 0.470155507
vn 0.955584228 0.345073551 -0.320881784
vn 0.776482403 0.293834388 -0.313658357
vn 0.955584228 0.345073551 -0.320881784
vn 0.871113479 0.262685627 -0.446360081
vn 0.776482403 0.293834388 -0.313658357
vn -0.878467679 0.287871331 0.261946946
vn -0.346335143 0.166750133 0.808583498
vn -0.562900424 0.418735594 0.154843748
vn -0.346335143 0.166750133 0.808583498
vn 0.430749655 0.451513678 0.557609737
vn 0.540825605 0.805498481 -0.137585402
vn -0.222861543 0.102705896 0.953966975
vn -0.219153225 -0.235977039 0.814077497
vn -0.342300802 0.200235516 0.936179698
vn 0.690196693 0.174935728 0.470155507
vn 0.776482403 0.293834388 -0.313658357
vn 0.780583918 0.359000713 0.441783309
vn 0.294542581 -0.00487256888 -0.865053535
vn 0.825983167 0.436336458 -0.212495506
vn 0.709273458 -0.0639713556 0.605915725
vn 0.825983167 0.436336458 -0.212495506
vn 0.690196693 0.174935728 0.470155507
vn 0.709273458 -0.0639713556 0.605915725
vn 0.690196693 0.174935728 0.470155507
vn 0.780583918 0.359000713 0.441783309
vn 0.719259501 -0.0649718419 0.549234092
vn -0.0697444677 0.191117138 -0.728794336
vn 0.38932994 0.234955564 -0.653252721
vn -0.116957851 0.377313048 -0.710985243
vn -0.67455703 0.504363418 -0.614588559
vn -0.528657019 0.181324676 -0.813647151
vn -0.523269713 0.581981659 0.610654712
vn 0.540825605 0.805498481 -0.137585402
vn -0.562900424 0.418735594 0.154843748
vn -0.346335143 0.166750133 0.808583498
vn -0.638475537 -0.503847897 0.0332307592
vn -0.341910928 -0.0769615918 0.597080052
vn 0.430749655 0.451513678 0.557609737
vn 0.0999541357 0.953076899 0.124654651
vn -0.341910928 -0.0769615918 0.597080052
vn -0.834231496 0.489661545 -0.218717054
vn -0.686319888 0.0984003767 0.570433378
vn -0.219153225 -0.235977039 0.814077497
vn -0.277603775 -0.150068015 0.97115618
vn -0.346335143 0.166750133 0.808583498
vn -0.878467679 0.287871331 0.261946946
vn -0.700098991 0.126039907 0.697675347
vn -0.116957851 0.377313048 -0.710985243
vn 0.38932994 0.234955564 -0.653252721
vn 0.354862332 -0.102284722 -0.900361359
vn 0.74494797 -0.576148689 -0.211890623
vn -1.08066845 -0.202378482 0.0254845154
vn -0.638475537 -0.503847897 0.0332307592
vn 0.825983167 0.436336458 -0.212495506
vn 0.955584228 0.345073551 -0.320881784
vn 0.690196693 0.174935728 0.470155507
vn -0.116957851 0.377313048 -0.710985243
vn 0.0999541357 0.953076899 0.124654651
vn -0.834231496 0.489661545 -0.218717054
vn -0.523269713 0.581981659 0.610654712
vn -0.903003871 0.252796829 0.0225071944
vn -0.222861543 0.102705896 0.953966975
vn -0.523269713 0.581981659 0.610654712
vn -0.528657019 0.181324676 -0.813647151
vn -0.903003871 0.252796829 0.0225071944
vn -0.0906694233 0.104024358 0.952351451
vn 0.577062845 0.0283971261 0.529340744
vn -0.341910928 -0.0769615918 0.597080052
vn -0.550775111 0.0749935359 -0.762027144
vn -0.261181265 -0.189430714 -0.957044661
vn -0.974330425 0.236051112 -0.192347214
vn 0.011065268 0.365140855 0.618271768
vn -0.098323524 0.436608791 0.657154262
vn -0.342300802 0.200235516 0.936179698
vn -0.974330425 0.236051112 -0.192347214
vn -0.903003871 0.252796829 0.0225071944
vn -0.550775111 0.0749935359 -0.762027144
vn -0.562900424 0.418735594 0.154843748
vn -0.523269713 0.581981659 0.610654712
vn -0.098323524 0.436608791 0.657154262
vn -0.116957851 0.377313048 -0.710985243
vn -0.389888495 0.280474067 -0.814294219
vn -0.654240727 0.112553582 -0.650194228
vn -0.558230519 0.170759484 -0.794736326
vn -0.389888495 0.280474067 -0.814294219
vn 0.354862332 -0.102284722 -0.900361359
vn -0.523269713 0.581981659 0.610654712
vn -0.222861543 0.102705896 0.953966975
vn -0.098323524 0.436608791 0.657154262
vn -0.528657019 0.181324676 -0.813647151
vn -0.67455703 0.504363418 -0.614588559
vn 0.264038742 0.150539547 -0.700765669
vn 0.725264192 -0.608677328 0.0771834105
vn 0.74494797 -0.576148689 -0.211890623
vn 0.278780609 -0.466728806 0.795744002
vn 0.264038742 0.150539547 -0.700765669
vn -0.654240727 0.112553582 -0.650194228
vn -0.550775111 0.0749935359 -0.762027144
vn 0.582573652 0.0607009158 0.603985906
vn 0.709273458 -0.0639713556 0.605915725
vn 0.719259501 -0.0649718419 0.549234092
vn -0.261181265 -0.189430714 -0.957044661
vn -0.550775111 0.0749935359 -0.762027144
vn -0.558230519 0.170759484 -0.794736326
vn -0.341910928 -0.0769615918 0.597080052
vn -1.08066845 -0.202378482 0.0254845154
vn -0.834231496 0.489661545 -0.218717054
vn -0.903003871 0.252796829 0.0225071944
vn -0.528657019 0.181324676 -0.813647151
vn -0.629382193 0.189331129 -0.635079563
vn 0.582573652 0.0607009158 0.603985906
vn 0.719259501 -0.0649718419 0.549234092
vn 0.637595654 -0.0950882956 0.742391229
g Group18885
f 1/1/1 112/2/2 92/3/3
f 2/4/4 3/5/5 4/6/6
f 28/7/7 4/8/8 3/9/9
f 9/10/10 8/11/11 5/12/12
f 5/13/13 10/14/14 6/15/15
f 5/16/16 6/17/17 2/18/18
f 2/19/19 6/20/20 9/21/21
f 2/22/22 9/23/23 5/24/24
f 28/25/25 3/26/26 2/27/27
f 3/28/28 1/29/29 7/30/30
f 4/31/31 7/32/32 2/33/33
f 28/34/34 1/35/35 4/36/36
f 9/37/37 14/38/38 99/39/39
f 9/40/40 99/41/41 8/42/42
f 5/43/43 8/44/44 10/45/45
f 5/46/46 6/47/47 9/48/48
f 10/49/49 16/50/50 6/51/51
f 2/52/52 6/53/53 16/54/54
f 2/55/55 16/56/56 11/57/57
f 11/58/58 28/59/59 2/60/60
f 12/61/61 20/62/62 13/63/63
f 14/64/64 13/65/65 36/66/66
f 14/67/67 36/68/68 99/69/69
f 8/70/70 99/71/71 36/72/72
f 8/73/73 36/74/74 10/75/75
f 8/76/76 9/77/77 21/78/78
f 8/79/79 21/80/80 15/81/81
f 9/82/82 15/83/83 14/84/84
f 10/85/85 17/86/86 21/87/87
f 10/88/88 21/89/89 9/90/90
f 16/91/91 28/92/92 11/93/93
f 11/94/94 18/95/95 6/96/96
f 7/97/97 18/98/98 2/99/99
f 18/100/100 7/101/101 1/102/102
f 12/103/103 31/104/104 19/105/105
f 12/106/106 19/107/107 25/108/108
f 12/109/109 25/110/110 20/111/111
f 12/112/112 13/113/113 19/114/114
f 13/115/115 20/116/116 26/117/117
f 26/118/118 36/119/119 13/120/120
f 13/121/121 15/122/122 26/123/123
f 10/124/124 36/125/125 16/126/126
f 16/127/127 17/128/128 21/129/129
f 6/130/130 18/131/131 17/132/132
f 29/133/133 38/134/134 22/135/135
f 29/136/136 22/137/137 23/138/138
f 31/139/139 30/140/140 24/141/141
f 31/142/142 23/143/143 22/144/144
f 31/145/145 24/146/146 19/147/147
f 19/148/148 33/149/149 25/150/150
f 20/151/151 25/152/152 34/153/153
f 20/154/154 34/155/155 26/156/156
f 20/157/157 25/158/158 19/159/159
f 36/160/160 26/161/161 34/162/162
f 27/163/163 35/164/164 26/165/165
f 27/166/166 26/167/167 15/168/168
f 17/169/169 27/170/170 21/171/171
f 28/172/172 16/173/173 34/174/174
f 31/175/175 41/176/176 56/177/177
f 31/178/178 56/179/179 30/180/180
f 31/181/181 22/182/182 38/183/183
f 31/184/184 38/185/185 41/186/186
f 22/187/187 32/188/188 42/189/189
f 22/190/190 42/191/191 29/192/192
f 24/193/193 30/194/194 19/195/195
f 24/196/196 12/197/197 44/198/198
f 24/199/199 44/200/200 31/201/201
f 31/202/202 32/203/203 23/204/204
f 19/205/205 45/206/206 33/207/207
f 33/208/208 34/209/209 25/210/210
f 25/211/211 46/212/212 19/213/213
f 26/214/214 47/215/215 25/216/216
f 17/217/217 18/218/218 36/219/219
f 17/220/220 36/221/221 27/222/222
f 36/223/223 34/224/224 16/225/225
f 38/226/226 51/227/227 39/228/228
f 37/229/229 38/230/230 29/231/231
f 37/232/232 29/233/233 40/234/234
f 38/235/235 39/236/236 53/237/237
f 38/238/238 53/239/239 41/240/240
f 41/241/241 71/242/242 56/243/243
f 30/244/244 56/245/245 55/246/246
f 30/247/247 55/248/248 19/249/249
f 30/250/250 44/251/251 56/252/252
f 30/253/253 56/254/254 43/255/255
f 43/256/256 42/257/257 32/258/258
f 43/259/259 32/260/260 31/261/261
f 73/262/262 72/263/263 45/264/264
f 73/265/265 45/266/266 19/267/267
f 45/268/268 34/269/269 33/270/270
f 33/271/271 46/272/272 57/273/273
f 33/274/274 57/275/275 73/276/276
f 47/277/277 58/278/278 46/279/279
f 47/280/280 46/281/281 25/282/282
f 34/283/283 48/284/284 47/285/285
f 35/286/286 74/287/287 48/288/288
f 35/289/289 48/290/290 26/291/291
f 36/292/292 74/293/293 35/294/294
f 50/295/295 49/296/296 51/297/297
f 50/298/298 51/299/299 37/300/300
f 37/301/301 51/302/302 38/303/303
f 39/304/304 51/305/305 52/306/306
f 39/307/307 52/308/308 53/309/309
f 52/310/310 37/311/311 40/312/312
f 52/313/313 40/314/314 38/315/315
f 41/316/316 53/317/317 70/318/318
f 41/319/319 70/320/320 71/321/321
f 42/322/322 39/323/323 38/324/324
f 56/325/325 71/326/326 76/327/327
f 56/328/328 76/329/329 55/330/330
f 56/331/331 71/332/332 54/333/333
f 54/334/334 42/335/335 43/336/336
f 19/337/337 55/338/338 72/339/339
f 19/340/340 72/341/341 73/342/342
f 19/343/343 76/344/344 56/345/345
f 45/346/346 72/347/347 34/348/348
f 57/349/349 77/350/350 73/351/351
f 45/352/352 58/353/353 57/354/354
f 74/355/355 58/356/356 47/357/357
f 48/358/358 74/359/359 47/360/360
f 59/361/361 61/362/362 60/363/363
f 60/364/364 61/365/365 62/366/366
f 59/367/367 60/368/368 63/369/369
f 62/370/370 61/371/371 64/372/372
f 60/373/373 62/374/374 64/375/375
f 60/376/376 64/377/377 65/378/378
f 63/379/379 60/380/380 65/381/381
f 63/382/382 65/383/383 66/384/384
f 59/385/385 63/386/386 66/387/387
f 59/388/388 66/389/389 67/390/390
f 65/391/391 64/392/392 49/393/393
f 65/394/394 49/395/395 50/396/396
f 66/397/397 65/398/398 50/399/399
f 66/400/400 50/401/401 37/402/402
f 37/403/403 67/404/404 66/405/405
f 49/406/406 64/407/407 51/408/408
f 51/409/409 52/410/410 69/411/411
f 51/412/412 69/413/413 52/414/414
f 52/415/415 69/416/416 70/417/417
f 52/418/418 68/419/419 37/420/420
f 52/421/421 70/422/422 53/423/423
f 53/424/424 71/425/425 52/426/426
f 71/427/427 70/428/428 76/429/429
f 39/430/430 42/431/431 54/432/432
f 39/433/433 54/434/434 71/435/435
f 55/436/436 76/437/437 78/438/438
f 55/439/439 78/440/440 72/441/441
f 55/442/442 76/443/443 71/444/444
f 73/445/445 77/446/446 76/447/447
f 80/448/448 77/449/449 57/450/450
f 58/451/451 74/452/452 80/453/453
f 58/454/454 80/455/455 57/456/456
f 61/457/457 75/458/458 74/459/459
f 60/460/460 62/461/461 74/462/462
f 63/463/463 60/464/464 74/465/465
f 74/466/466 59/467/467 63/468/468
f 61/469/469 75/470/470 69/471/471
f 64/472/472 75/473/473 62/474/474
f 62/475/475 60/476/476 65/477/477
f 62/478/478 65/479/479 64/480/480
f 60/481/481 63/482/482 66/483/483
f 60/484/484 66/485/485 65/486/486
f 63/487/487 59/488/488 67/489/489
f 63/490/490 67/491/491 66/492/492
f 69/493/493 64/494/494 61/495/495
f 64/496/496 65/497/497 50/498/498
f 64/499/499 50/500/500 49/501/501
f 65/502/502 66/503/503 67/504/504
f 65/505/505 67/506/506 50/507/507
f 64/508/508 49/509/509 68/510/510
f 64/511/511 68/512/512 51/513/513
f 49/514/514 50/515/515 68/516/516
f 51/517/517 68/518/518 52/519/519
f 69/520/520 52/521/521 71/522/522
f 70/523/523 79/524/524 78/525/525
f 70/526/526 78/527/527 76/528/528
f 72/529/529 77/530/530 76/531/531
f 34/532/532 72/533/533 78/534/534
f 75/535/535 61/536/536 59/537/537
f 69/538/538 75/539/539 59/540/540
f 74/541/541 75/542/542 64/543/543
f 69/544/544 74/545/545 64/546/546
f 70/547/547 69/548/548 79/549/549
f 77/550/550 69/551/551 76/552/552
f 98/553/553 79/554/554 69/555/555
f 79/556/556 98/557/557 81/558/558
f 79/559/559 81/560/560 78/561/561
f 77/562/562 81/563/563 69/564/564
f 79/565/565 80/566/566 74/567/567
f 79/568/568 74/569/569 77/570/570
f 78/571/571 81/572/572 98/573/573
f 81/574/574 77/575/575 74/576/576
f 59/577/577 98/578/578 69/579/579
f 98/580/580 59/581/581 134/582/582
f 69/583/583 81/584/584 74/585/585
f 83/586/586 85/587/587 86/588/588
f 83/589/589 84/590/590 85/591/591
f 83/592/592 87/593/593 84/594/594
f 85/595/595 88/596/596 87/597/597
f 86/598/598 85/599/599 84/600/600
f 87/601/601 88/602/602 86/603/603
f 87/604/604 86/605/605 84/606/606
f 34/607/607 78/608/608 98/609/609
f 99/610/610 27/611/611 15/612/612
f 99/613/613 21/614/614 27/615/615
f 132/616/616 1/617/617 34/618/618
f 106/619/619 134/620/620 59/621/621
f 28/622/622 34/623/623 1/624/624
f 115/625/625 123/626/626 97/627/627
f 102/628/628 110/629/629 86/630/630
f 101/631/631 95/632/632 132/633/633
f 95/634/634 101/635/635 18/636/636
f 101/637/637 113/638/638 88/639/639
f 126/640/640 89/641/641 112/642/642
f 36/643/643 18/644/644 74/645/645
f 114/646/646 118/647/647 93/648/648
f 102/649/649 104/650/650 100/651/651
f 133/652/652 125/653/653 92/654/654
f 106/655/655 128/656/656 97/657/657
f 101/658/658 106/659/659 97/660/660
f 96/661/661 102/662/662 86/663/663
f 59/664/664 18/665/665 94/666/666
f 111/667/667 121/668/668 118/669/669
f 121/670/670 111/671/671 131/672/672
f 108/673/673 132/674/674 95/675/675
f 133/676/676 92/677/677 116/678/678
f 101/679/679 97/680/680 113/681/681
f 104/682/682 102/683/683 131/684/684
f 128/685/685 125/686/686 122/687/687
f 125/688/688 133/689/689 122/690/690
f 91/691/691 96/692/692 119/693/693
f 91/694/694 119/695/695 103/696/696
f 88/697/697 83/698/698 101/699/699
f 107/700/700 97/701/701 128/702/702
f 97/703/703 107/704/704 115/705/705
f 122/706/706 133/707/707 117/708/708
f 123/709/709 82/710/710 120/711/711
f 18/712/712 124/713/713 104/714/714
f 122/715/715 117/716/716 107/717/717
f 18/718/718 83/719/719 86/720/720
f 96/721/721 88/722/722 119/723/723
f 88/724/724 96/725/725 86/726/726
f 129/727/727 127/728/728 104/729/729
f 100/730/730 125/731/731 128/732/732
f 95/733/733 18/734/734 104/735/735
f 121/736/736 102/737/737 93/738/738
f 96/739/739 91/740/740 90/741/741
f 94/742/742 86/743/743 128/744/744
f 106/745/745 59/746/746 94/747/747
f 124/748/748 18/749/749 1/750/750
f 103/751/751 119/752/752 105/753/753
f 124/754/754 1/755/755 100/756/756
f 100/757/757 1/758/758 125/759/759
f 129/760/760 104/761/761 111/762/762
f 129/763/763 111/764/764 126/765/765
f 93/766/766 90/767/767 114/768/768
f 104/769/769 124/770/770 100/771/771
f 18/772/772 101/773/773 83/774/774
f 120/775/775 119/776/776 113/777/777
f 119/778/778 88/779/779 113/780/780
f 34/781/781 134/782/782 132/783/783
f 134/784/784 106/785/785 101/786/786
f 112/787/787 116/788/788 92/789/789
f 120/790/790 113/791/791 97/792/792
f 103/793/793 105/794/794 82/795/795
f 105/796/796 120/797/797 82/798/798
f 120/799/799 97/800/800 123/801/801
f 96/802/802 90/803/803 102/804/804
f 95/805/805 127/806/806 108/807/807
f 101/808/808 132/809/809 134/810/810
f 94/811/811 128/812/812 106/813/813
f 100/814/814 128/815/815 110/816/816
f 133/817/817 116/818/818 117/819/819
f 134/820/820 34/821/821 98/822/822
f 102/823/823 90/824/824 93/825/825
f 18/826/826 86/827/827 94/828/828
f 105/829/829 119/830/830 120/831/831
f 102/832/832 100/833/833 110/834/834
f 108/835/835 126/836/836 112/837/837
f 108/838/838 127/839/839 126/840/840
f 122/841/841 107/842/842 128/843/843
f 111/844/844 130/845/845 89/846/846
f 125/847/847 1/848/848 92/849/849
f 89/850/850 126/851/851 111/852/852
f 132/853/853 108/854/854 1/855/855
f 102/856/856 121/857/857 131/858/858
f 118/859/859 121/860/860 93/861/861
f 108/862/862 112/863/863 1/864/864
f 127/865/865 95/866/866 104/867/867
f 74/868/868 18/869/869 59/870/870
f 104/871/871 131/872/872 111/873/873
f 109/874/874 82/875/875 123/876/876
f 130/877/877 111/878/878 118/879/879
f 128/880/880 86/881/881 110/882/882
f 126/883/883 127/884/884 129/885/885
f 109/886/886 123/887/887 115/888/888
