# File exported by Houdini 16.5.405 (www.sidefx.com)
# 31 points
# 174 vertices
# 58 primitives
# Bounds: [-34.4655495, -1.22783113, -23.1517525] to [34.1219864, 42.4942665, 22.5389996]
g 
v 33.7497253 2.17315865 22.060461
v -32.3474464 3.25626922 -21.9252014
v 15.8824806 40.5185852 -21.925581
v 18.3326912 1.28446054 -22.7031918
v 5.32857752 38.0564003 -15.9862909
v -32.4052353 23.8696117 -21.269722
v -34.0868988 -1.04662347 7.26987648
v -23.9208965 12.9991436 20.5807076
v -24.6791973 -1.18761349 -23.1517525
v 34.1219864 40.5307503 -21.2219162
v -10.8175964 10.3912439 -21.9904671
v 4.73467398 -1.22783113 -16.2597809
v -32.6335831 9.81245327 -15.6422863
v -9.26504421 37.882637 -21.1128254
v -13.3971634 38.4390602 22.4154224
v -34.4655495 22.1341782 11.7217169
v 34.0420609 2.35587263 -21.261446
v 5.90084267 41.944725 11.313488
v -24.3677959 -1.07120693 18.3932915
v 16.7291012 0.123246916 22.1774464
v 30.1717529 42.4942665 20.3665867
v -31.6146603 38.2482758 22.0520248
v 8.75747776 42.3387871 21.4908733
v -32.2968102 37.7355499 -20.7585011
v 31.5185471 29.0203876 22.5389996
v -33.0182228 30.7091656 21.7810345
v -33.7675056 38.299408 -2.54536891
v -18.4545307 1.99259412 22.2059956
v 34.1120758 -0.543261707 -12.4399176
v -11.5630035 41.6495132 22.2478428
v 7.17690945 38.6718407 7.49823141
vt 0.33019644 0.634509206 0
vt 0.458228022 0.445493937 0
vt 0.45868662 0.613025546 0
vt 0.769780874 0.321884453 0
vt 0.826558411 0.57047528 0
vt 0.589836657 0.605888069 0
vt 0.977259994 0.601309717 0
vt 0.949484646 0.795130074 0
vt 0.755238116 0.710610628 0
vt 0.769780874 0.321884453 0
vt 0.91344887 0.363118738 0
vt 0.826558411 0.57047528 0
vt 0.755238116 0.710610628 0
vt 0.684384942 0.648441374 0
vt 0.854186654 0.598205745 0
vt 0.667039752 0.786751986 0
vt 0.788823366 0.868623018 0
vt 0.691146016 0.881206274 0
vt 0.0658395141 0.0144894868 0
vt 0.273836493 0.0514091179 0
vt 0.079000257 0.298274159 0
vt 0.819299161 0.090620622 0
vt 0.96699506 0.0241258666 0
vt 0.988321722 0.0855509192 0
vt 0.466709852 0.41939649 0
vt 0.753945768 0.300724924 0
vt 0.589836657 0.605888069 0
vt 0.458228022 0.445493937 0
vt 0.33019644 0.634509206 0
vt 0.178369105 0.526496828 0
vt 0.755238116 0.710610628 0
vt 0.788823366 0.868623018 0
vt 0.667039752 0.786751986 0
vt 0.589836657 0.605888069 0
vt 0.753945768 0.300724924 0
vt 0.769780874 0.321884453 0
vt 0.363812089 0.317736745 0
vt 0.122689575 0.32914862 0
vt 0.079000257 0.298274159 0
vt 0.482721269 0.313194722 0
vt 0.363812089 0.317736745 0
vt 0.479372799 0.0747984499 0
vt 0.494971424 0.30609715 0
vt 0.491217166 0.0460075848 0
vt 0.596555173 0.03787845 0
vt 0.854186654 0.598205745 0
vt 0.977259994 0.601309717 0
vt 0.755238116 0.710610628 0
vt 0.464563549 0.325077236 0
vt 0.612922072 0.310140878 0
vt 0.466709852 0.41939649 0
vt 0.178369105 0.526496828 0
vt 0.101102285 0.335325807 0
vt 0.18447496 0.365316659 0
vt 0.369397879 0.00277523487 0
vt 0.479372799 0.0747984499 0
vt 0.273836493 0.0514091179 0
vt 0.470281363 0.603580117 0
vt 0.466709852 0.41939649 0
vt 0.589836657 0.605888069 0
vt 0.285459816 0.327677935 0
vt 0.439587057 0.323929757 0
vt 0.458228022 0.445493937 0
vt 0.755238116 0.710610628 0
vt 0.949484646 0.795130074 0
vt 0.788823366 0.868623018 0
vt 0.18447496 0.365316659 0
vt 0.285459816 0.327677935 0
vt 0.458228022 0.445493937 0
vt 0.212934941 0.698079467 0
vt 0.329336166 0.771615922 0
vt 0.192248002 0.770883739 0
vt 0.329336166 0.771615922 0
vt 0.212934941 0.698079467 0
vt 0.207965612 0.667419195 0
vt 0.704064667 0.286455005 0
vt 0.620215595 0.303981006 0
vt 0.698671222 0.0137792043 0
vt 0.656580329 0.898917079 0
vt 0.590626061 0.614362657 0
vt 0.652414143 0.633631468 0
vt 0.96699506 0.0241258666 0
vt 0.819299161 0.090620622 0
vt 0.909566939 0.00145167881 0
vt 0.656580329 0.898917079 0
vt 0.367199242 0.916602969 0
vt 0.351968974 0.638348103 0
vt 0.949484646 0.795130074 0
vt 0.977259994 0.601309717 0
vt 0.983328402 0.694234908 0
vt 0.33019644 0.634509206 0
vt 0.301602006 0.636825025 0
vt 0.178369105 0.526496828 0
vt 0.079000257 0.298274159 0
vt 0.479372799 0.0747984499 0
vt 0.363812089 0.317736745 0
vt 0.18447496 0.365316659 0
vt 0.458228022 0.445493937 0
vt 0.178369105 0.526496828 0
vt 0.988321722 0.0855509192 0
vt 0.970122695 0.189341605 0
vt 0.819299161 0.090620622 0
vt 0.0030056308 0.481634587 0
vt 0.125305474 0.470119566 0
vt 0.0406565964 0.767324269 0
vt 0.212934941 0.698079467 0
vt 0.125305474 0.470119566 0
vt 0.217793897 0.65898478 0
vt 0.819299161 0.090620622 0
vt 0.809862494 0.28235516 0
vt 0.704064667 0.286455005 0
vt 0.819299161 0.090620622 0
vt 0.698671222 0.0137792043 0
vt 0.909566939 0.00145167881 0
vt 0.8976596 0.310122609 0
vt 0.91344887 0.363118738 0
vt 0.769780874 0.321884453 0
vt 0.620215595 0.303981006 0
vt 0.494971424 0.30609715 0
vt 0.596555173 0.03787845 0
vt 0.369397879 0.00277523487 0
vt 0.479613334 0.0104828589 0
vt 0.479372799 0.0747984499 0
vt 0.0406565964 0.767324269 0
vt 0.212934941 0.698079467 0
vt 0.192248002 0.770883739 0
vt 0.351968974 0.638348103 0
vt 0.590626061 0.614362657 0
vt 0.656580329 0.898917079 0
vt 0.351968974 0.638348103 0
vt 0.367199242 0.916602969 0
vt 0.352211207 0.824305296 0
vt 0.826558411 0.57047528 0
vt 0.862599611 0.494324684 0
vt 0.873014927 0.591794372 0
vt 0.0101716053 0.227673665 0
vt 0.0658395141 0.0144894868 0
vt 0.079000257 0.298274159 0
vt 0.682006836 0.595581591 0
vt 0.854186654 0.598205745 0
vt 0.684384942 0.648441374 0
vt 0.079000257 0.298274159 0
vt 0.273836493 0.0514091179 0
vt 0.479372799 0.0747984499 0
vt 0.970122695 0.189341605 0
vt 0.967595518 0.281814218 0
vt 0.809862494 0.28235516 0
vt 0.788823366 0.868623018 0
vt 0.949484646 0.795130074 0
vt 0.993452311 0.846011281 0
vt 0.698671222 0.0137792043 0
vt 0.620215595 0.303981006 0
vt 0.596555173 0.03787845 0
vt 0.612922072 0.310140878 0
vt 0.753945768 0.300724924 0
vt 0.466709852 0.41939649 0
vt 0.970122695 0.189341605 0
vt 0.809862494 0.28235516 0
vt 0.819299161 0.090620622 0
vt 0.755238116 0.710610628 0
vt 0.667039752 0.786751986 0
vt 0.684384942 0.648441374 0
vt 0.125305474 0.470119566 0
vt 0.212934941 0.698079467 0
vt 0.0406565964 0.767324269 0
vt 0.826558411 0.57047528 0
vt 0.91344887 0.363118738 0
vt 0.862599611 0.494324684 0
vt 0.819299161 0.090620622 0
vt 0.704064667 0.286455005 0
vt 0.698671222 0.0137792043 0
vt 0.00213156454 0.0218458213 0
vt 0.0658395141 0.0144894868 0
vt 0.0101716053 0.227673665 0
vn -0.0396839567 0.263315827 0.761434138
vn -0.301333427 0.800268233 0.00672961446
vn -0.235041469 0.587956429 0.400631875
vn -0.0396839567 0.263315827 0.761434138
vn -0.079809323 -0.331471205 0.898459435
vn 0.0141807366 -0.297659814 0.882052183
vn -0.602694213 0.355218947 -0.343912154
vn -0.853465796 -0.0781012774 -0.35163334
vn -0.941646516 -0.034158662 0.196011901
vn -0.0396839567 0.263315827 0.761434138
vn -0.53744173 -0.195182279 0.716626823
vn -0.079809323 -0.331471205 0.898459435
vn -0.941646516 -0.034158662 0.196011901
vn -0.53744173 -0.195182279 0.716626823
vn -0.301333427 0.800268233 0.00672961446
vn -0.626654208 -0.0276511014 0.796166718
vn -0.604966283 -0.602625549 0.142478332
vn -0.0708017126 -0.947125971 0.105523214
vn -0.0666442737 -0.950968266 -0.161529228
vn -0.138307959 -0.613043129 -0.437474281
vn -0.0708017126 -0.947125971 0.105523214
vn 0.118667506 0.0659715012 -0.998168468
vn -0.560432255 -0.064497143 -0.661779404
vn -0.853465796 -0.0781012774 -0.35163334
vn 0.249628469 0.0526978709 0.877025127
vn -0.122930728 0.177100301 0.880357563
vn 0.0141807366 -0.297659814 0.882052183
vn -0.301333427 0.800268233 0.00672961446
vn -0.0396839567 0.263315827 0.761434138
vn -0.244831085 0.802391052 -0.0944223776
vn -0.941646516 -0.034158662 0.196011901
vn -0.604966283 -0.602625549 0.142478332
vn -0.626654208 -0.0276511014 0.796166718
vn 0.0141807366 -0.297659814 0.882052183
vn -0.122930728 0.177100301 0.880357563
vn -0.0396839567 0.263315827 0.761434138
vn 0.0141807366 -0.297659814 0.882052183
vn -0.079809323 -0.331471205 0.898459435
vn -0.0708017126 -0.947125971 0.105523214
vn 0.825412154 -0.172998235 0.171481401
vn 0.0141807366 -0.297659814 0.882052183
vn 0.289227426 -0.809124291 -0.0537680946
vn 0.650142252 0.250801951 -0.321470946
vn 0.876601815 -0.116433911 -0.332313389
vn -0.103661612 -0.199286655 -0.911817431
vn -0.301333427 0.800268233 0.00672961446
vn -0.602694213 0.355218947 -0.343912154
vn -0.941646516 -0.034158662 0.196011901
vn 0.381438732 0.697436392 0.27227509
vn 0.0176719129 0.904181898 0.361367196
vn 0.249628469 0.0526978709 0.877025127
vn -0.244831085 0.802391052 -0.0944223776
vn -0.215763271 0.579027414 -0.479725122
vn 0.186194807 0.391720653 -0.611073554
vn -0.103661612 -0.199286655 -0.911817431
vn 0.289227426 -0.809124291 -0.0537680946
vn -0.138307959 -0.613043129 -0.437474281
vn 0.825412154 -0.172998235 0.171481401
vn 0.249628469 0.0526978709 0.877025127
vn 0.0141807366 -0.297659814 0.882052183
vn 0.0631571487 0.356308013 -0.831409216
vn -0.602694213 0.355218947 -0.343912154
vn -0.301333427 0.800268233 0.00672961446
vn -0.941646516 -0.034158662 0.196011901
vn -0.853465796 -0.0781012774 -0.35163334
vn -0.604966283 -0.602625549 0.142478332
vn 0.186194807 0.391720653 -0.611073554
vn 0.0631571487 0.356308013 -0.831409216
vn -0.301333427 0.800268233 0.00672961446
vn -0.316824704 0.709917665 -0.438796312
vn -0.122930728 0.177100301 0.880357563
vn 0.0176719129 0.904181898 0.361367196
vn -0.122930728 0.177100301 0.880357563
vn -0.316824704 0.709917665 -0.438796312
vn -0.244831085 0.802391052 -0.0944223776
vn 0.186194807 0.391720653 -0.611073554
vn -0.215763271 0.579027414 -0.479725122
vn -0.138307959 -0.613043129 -0.437474281
vn 0.650142252 0.250801951 -0.321470946
vn 0.289227426 -0.809124291 -0.0537680946
vn 0.876601815 -0.116433911 -0.332313389
vn -0.560432255 -0.064497143 -0.661779404
vn 0.118667506 0.0659715012 -0.998168468
vn -0.0666442737 -0.950968266 -0.161529228
vn 0.650142252 0.250801951 -0.321470946
vn 0.381438732 0.697436392 0.27227509
vn 0.825412154 -0.172998235 0.171481401
vn -0.853465796 -0.0781012774 -0.35163334
vn -0.602694213 0.355218947 -0.343912154
vn -0.512488425 -0.172023311 -0.73666507
vn -0.0396839567 0.263315827 0.761434138
vn -0.122930728 0.177100301 0.880357563
vn -0.244831085 0.802391052 -0.0944223776
vn -0.0708017126 -0.947125971 0.105523214
vn 0.289227426 -0.809124291 -0.0537680946
vn 0.0141807366 -0.297659814 0.882052183
vn 0.186194807 0.391720653 -0.611073554
vn -0.301333427 0.800268233 0.00672961446
vn -0.244831085 0.802391052 -0.0944223776
vn -0.853465796 -0.0781012774 -0.35163334
vn -0.512488425 -0.172023311 -0.73666507
vn 0.118667506 0.0659715012 -0.998168468
vn 0.650142252 0.250801951 -0.321470946
vn -0.215763271 0.579027414 -0.479725122
vn 0.381438732 0.697436392 0.27227509
vn -0.316824704 0.709917665 -0.438796312
vn -0.215763271 0.579027414 -0.479725122
vn -0.244831085 0.802391052 -0.0944223776
vn 0.118667506 0.0659715012 -0.998168468
vn 0.0631571487 0.356308013 -0.831409216
vn 0.186194807 0.391720653 -0.611073554
vn 0.118667506 0.0659715012 -0.998168468
vn -0.138307959 -0.613043129 -0.437474281
vn -0.0666442737 -0.950968266 -0.161529228
vn -0.235041469 0.587956429 0.400631875
vn -0.53744173 -0.195182279 0.716626823
vn -0.0396839567 0.263315827 0.761434138
vn -0.215763271 0.579027414 -0.479725122
vn 0.650142252 0.250801951 -0.321470946
vn -0.103661612 -0.199286655 -0.911817431
vn -0.103661612 -0.199286655 -0.911817431
vn 0.876601815 -0.116433911 -0.332313389
vn 0.289227426 -0.809124291 -0.0537680946
vn 0.381438732 0.697436392 0.27227509
vn -0.316824704 0.709917665 -0.438796312
vn 0.0176719129 0.904181898 0.361367196
vn 0.825412154 -0.172998235 0.171481401
vn 0.289227426 -0.809124291 -0.0537680946
vn 0.650142252 0.250801951 -0.321470946
vn 0.825412154 -0.172998235 0.171481401
vn 0.381438732 0.697436392 0.27227509
vn 0.249628469 0.0526978709 0.877025127
vn -0.079809323 -0.331471205 0.898459435
vn -0.626654208 -0.0276511014 0.796166718
vn -0.0708017126 -0.947125971 0.105523214
vn -0.604966283 -0.602625549 0.142478332
vn -0.0666442737 -0.950968266 -0.161529228
vn -0.0708017126 -0.947125971 0.105523214
vn -0.235041469 0.587956429 0.400631875
vn -0.301333427 0.800268233 0.00672961446
vn -0.53744173 -0.195182279 0.716626823
vn -0.0708017126 -0.947125971 0.105523214
vn -0.138307959 -0.613043129 -0.437474281
vn 0.289227426 -0.809124291 -0.0537680946
vn -0.512488425 -0.172023311 -0.73666507
vn -0.602694213 0.355218947 -0.343912154
vn 0.0631571487 0.356308013 -0.831409216
vn -0.604966283 -0.602625549 0.142478332
vn -0.853465796 -0.0781012774 -0.35163334
vn -0.560432255 -0.064497143 -0.661779404
vn -0.138307959 -0.613043129 -0.437474281
vn -0.215763271 0.579027414 -0.479725122
vn -0.103661612 -0.199286655 -0.911817431
vn 0.0176719129 0.904181898 0.361367196
vn -0.122930728 0.177100301 0.880357563
vn 0.249628469 0.0526978709 0.877025127
vn -0.512488425 -0.172023311 -0.73666507
vn 0.0631571487 0.356308013 -0.831409216
vn 0.118667506 0.0659715012 -0.998168468
vn -0.941646516 -0.034158662 0.196011901
vn -0.626654208 -0.0276511014 0.796166718
vn -0.53744173 -0.195182279 0.716626823
vn -0.215763271 0.579027414 -0.479725122
vn -0.316824704 0.709917665 -0.438796312
vn 0.381438732 0.697436392 0.27227509
vn -0.079809323 -0.331471205 0.898459435
vn -0.53744173 -0.195182279 0.716626823
vn -0.626654208 -0.0276511014 0.796166718
vn 0.118667506 0.0659715012 -0.998168468
vn 0.186194807 0.391720653 -0.611073554
vn -0.138307959 -0.613043129 -0.437474281
vn -0.560432255 -0.064497143 -0.661779404
vn -0.0666442737 -0.950968266 -0.161529228
vn -0.604966283 -0.602625549 0.142478332
g Group26456
f 15/1/1 27/2/2 22/3/3
f 15/4/4 28/5/5 20/6/6
f 24/7/7 13/8/8 16/9/9
f 15/10/10 26/11/11 28/12/12
f 16/13/13 26/14/14 27/15/15
f 8/16/16 7/17/17 19/18/18
f 9/19/19 12/20/20 19/21/21
f 11/22/22 2/23/23 13/24/24
f 25/25/25 30/26/26 20/27/27
f 27/28/28 15/29/29 31/30/30
f 16/31/31 7/32/32 8/33/33
f 20/34/34 30/35/35 15/36/36
f 20/37/37 28/38/38 19/39/39
f 1/40/40 20/41/41 29/42/42
f 10/43/43 17/44/44 4/45/45
f 27/46/46 24/47/47 16/48/48
f 21/49/49 23/50/50 25/51/51
f 31/52/52 3/53/53 5/54/54
f 4/55/55 29/56/56 12/57/57
f 1/58/58 25/59/59 20/60/60
f 14/61/61 24/62/62 27/63/63
f 16/64/64 13/65/65 7/66/66
f 5/67/67 14/68/68 27/69/69
f 18/70/70 30/71/71 23/72/72
f 30/73/73 18/74/74 31/75/75
f 5/76/76 3/77/77 12/78/78
f 10/79/79 29/80/80 17/81/81
f 2/82/82 11/83/83 9/84/84
f 10/85/85 21/86/86 1/87/87
f 13/88/88 24/89/89 6/90/90
f 15/91/91 30/92/92 31/93/93
f 19/94/94 29/95/95 20/96/96
f 5/97/97 27/98/98 31/99/99
f 13/100/100 6/101/101 11/102/102
f 10/103/103 3/104/104 21/105/105
f 18/106/106 3/107/107 31/108/108
f 11/109/109 14/110/110 5/111/111
f 11/112/112 12/113/113 9/114/114
f 22/115/115 26/116/116 15/117/117
f 3/118/118 10/119/119 4/120/120
f 4/121/121 17/122/122 29/123/123
f 21/124/124 18/125/125 23/126/126
f 1/127/127 29/128/128 10/129/129
f 1/130/130 21/131/131 25/132/132
f 28/133/133 8/134/134 19/135/135
f 7/136/136 9/137/137 19/138/138
f 22/139/139 27/140/140 26/141/141
f 19/142/142 12/143/143 29/144/144
f 6/145/145 24/146/146 14/147/147
f 7/148/148 13/149/149 2/150/150
f 12/151/151 3/152/152 4/153/153
f 23/154/154 30/155/155 25/156/156
f 6/157/157 14/158/158 11/159/159
f 16/160/160 8/161/161 26/162/162
f 3/163/163 18/164/164 21/165/165
f 28/166/166 26/167/167 8/168/168
f 11/169/169 5/170/170 12/171/171
f 2/172/172 9/173/173 7/174/174
