# File exported by Houdini 16.5.405 (www.sidefx.com)
# 81 points
# 474 vertices
# 158 primitives
# Bounds: [-34.4992828, -1.3204608, -22.6823711] to [34.3273888, 42.5921936, 22.6023083]
g 
v 30.5822792 2.02659202 22.4968853
v -32.6043205 2.79201365 -21.1006756
v 15.8129282 24.7024632 -22.0522785
v 15.8600559 3.39643145 -22.4873562
v 6.02848387 38.560463 -12.6075516
v -32.6164627 27.0485058 -21.5119858
v -33.0836143 -0.900151312 0.16127409
v -25.3580704 14.3656845 19.4198685
v -12.8654985 -1.3204608 -22.1119671
v 31.7851238 26.500906 -21.9368439
v 34.0104027 0.565180004 8.06985855
v -17.2648239 10.6544504 -21.2302399
v 4.34120131 -1.01608646 -16.1932716
v -28.5682812 9.42343044 -18.1261559
v 33.4750137 23.6660175 8.50844193
v 11.7354984 41.9262581 -4.87505484
v -7.47762918 38.1071777 -21.0154896
v -12.5354471 38.0702095 22.449131
v -34.4655495 22.1341782 11.7217169
v 33.5979958 2.33418941 -21.177103
v 5.90084267 41.944725 11.313488
v -23.2746372 1.1413095 18.8400116
v 15.4181328 0.875094891 21.4858665
v 31.3323841 34.3766174 21.5141335
v -30.9001827 38.4539108 22.1402416
v 16.9830284 40.1709747 -21.6569347
v -21.0537567 37.462616 -20.9683895
v 34.0381393 40.541748 -18.8050537
v -33.2540855 6.80025244 -12.8150063
v 4.71052504 42.5921936 19.9412174
v -11.2854443 38.5507927 18.2698555
v 22.3356628 1.97619128 -22.6823711
v -32.9705086 37.5200424 -15.8940582
v -10.1161032 8.83408546 -21.8676147
v 34.1193504 37.1586075 -20.7966747
v 18.567194 36.5673981 22.4638214
v -33.4262314 31.2841282 21.8077393
v 32.2676277 20.4125938 22.6023083
v 31.7799358 42.3916321 8.79521084
v -33.6477852 37.5051994 -2.07872009
v 5.32352543 36.1783752 -15.9316444
v -34.4992828 0.0954192802 7.30472708
v 10.8612299 2.62599301 22.4667149
v -28.4428139 -0.693315685 -22.1549816
v -31.9216576 37.2716713 14.4755545
v 33.679081 41.0907555 -9.74948406
v -4.00497675 -0.995229006 18.0199947
v 8.29302788 41.6319656 21.5343266
v -23.8270817 -0.847407281 17.5920353
v -12.6875401 38.4317818 -11.0123577
v 16.7938747 42.3802223 21.3465462
v -31.1314163 37.862896 -20.8369904
v 20.6196995 39.5115623 -21.8378048
v 29.2713451 41.5962257 20.1268501
v -9.16480446 1.84127057 22.0774174
v -31.8842697 21.7761631 -20.3984642
v 27.1633358 40.7403831 -21.4903069
v -33.2344933 38.304985 1.04894459
v -20.4435616 4.61429453 22.2371101
v 24.7643566 0.582192838 21.5683727
v 34.1120758 -0.543261707 -12.4399176
v 15.1723547 38.1174698 -21.7000694
v -1.39208937 42.2104797 22.4599819
v -29.6401157 -0.668427169 12.4315891
v 8.57149029 38.2031059 0.793905139
v -31.5843391 9.28728676 -14.7843609
v -10.3620281 42.1640549 22.1175327
v -30.8037472 6.19645023 -21.8489513
v 34.3273888 19.4851112 -20.8611336
v 5.67074585 38.2655869 10.4029207
v -10.046936 41.3587914 18.1429672
v -23.7698441 18.4745827 21.9369907
v -20.7595177 1.2463398 20.5996208
v 15.0190392 40.0931702 -17.022831
v 3.42426848 38.6212921 11.684351
v -32.4947433 13.0348749 -15.9716759
v -23.1046505 11.3089771 21.1352844
v 9.59794903 -1.14114201 -17.7263107
v 33.5055656 2.55309176 21.0765705
v 14.7068968 37.8992653 -18.2152081
v 10.1982527 40.1154709 -2.29869723
vt 0.311592937 0.605977058 0
vt 0.310878992 0.394583255 0
vt 0.453928113 0.614266336 0
vt 0.76410377 0.324995935 0
vt 0.838516533 0.551810026 0
vt 0.62825799 0.584724247 0
vt 0.943937957 0.603126287 0
vt 0.92986697 0.815958321 0
vt 0.755238116 0.710610628 0
vt 0.76410377 0.324995935 0
vt 0.856228888 0.454385847 0
vt 0.838516533 0.551810026 0
vt 0.755238116 0.710610628 0
vt 0.684779584 0.644413173 0
vt 0.850919068 0.60352844 0
vt 0.0144413849 0.178395376 0
vt 0.0401022583 0.0230515134 0
vt 0.147907868 0.0175965019 0
vt 0.661696315 0.799238145 0
vt 0.789002955 0.860590875 0
vt 0.682095826 0.867777526 0
vt 0.147907868 0.0175965019 0
vt 0.270677835 0.0517673902 0
vt 0.219284579 0.292201012 0
vt 0.661028147 0.0136654433 0
vt 0.613291919 0.051459644 0
vt 0.569945753 0.0427875668 0
vt 0.86677599 0.090787001 0
vt 0.958408713 0.0449984185 0
vt 0.95439595 0.0822662413 0
vt 0.549850702 0.357693583 0
vt 0.683594882 0.304270118 0
vt 0.62825799 0.584724247 0
vt 0.106101535 0.368021429 0
vt 0.117401667 0.355632484 0
vt 0.168311894 0.481900692 0
vt 0.310878992 0.394583255 0
vt 0.311592937 0.605977058 0
vt 0.204117954 0.554779828 0
vt 0.755238116 0.710610628 0
vt 0.789002955 0.860590875 0
vt 0.661696315 0.799238145 0
vt 0.652182937 0.633213162 0
vt 0.651649237 0.752766848 0
vt 0.590626061 0.614362657 0
vt 0.62825799 0.584724247 0
vt 0.683594882 0.304270118 0
vt 0.76410377 0.324995935 0
vt 0.682095826 0.867777526 0
vt 0.789002955 0.860590875 0
vt 0.744060159 0.87146461 0
vt 0.354383558 0.315677553 0
vt 0.186227754 0.326468587 0
vt 0.085263513 0.292917013 0
vt 0.62825799 0.584724247 0
vt 0.763802707 0.57785511 0
vt 0.598589242 0.601592779 0
vt 0.480346918 0.217959002 0
vt 0.419810593 0.31233263 0
vt 0.479372799 0.0747984499 0
vt 0.185261562 0.358946741 0
vt 0.180851266 0.388586372 0
vt 0.11260628 0.333411306 0
vt 0.185261562 0.358946741 0
vt 0.27340275 0.328878284 0
vt 0.180851266 0.388586372 0
vt 0.684779584 0.644413173 0
vt 0.755238116 0.710610628 0
vt 0.654919028 0.749317229 0
vt 0.617999494 0.195795029 0
vt 0.587350786 0.29782775 0
vt 0.508940816 0.210315511 0
vt 0.493627399 0.284376234 0
vt 0.542198479 0.307019651 0
vt 0.49105522 0.310255498 0
vt 0.508940816 0.210315511 0
vt 0.493627399 0.284376234 0
vt 0.48966971 0.162571356 0
vt 0.978366315 0.792183161 0
vt 0.996333182 0.824024022 0
vt 0.92986697 0.815958321 0
vt 0.744654715 0.297827303 0
vt 0.76702565 0.286077946 0
vt 0.76410377 0.324995935 0
vt 0.311592937 0.605977058 0
vt 0.328305244 0.636555493 0
vt 0.286450446 0.617472112 0
vt 0.508940816 0.210315511 0
vt 0.49374333 0.0460799523 0
vt 0.569945753 0.0427875668 0
vt 0.86677599 0.090787001 0
vt 0.813671529 0.0797324628 0
vt 0.828411937 0.00831908267 0
vt 0.850919068 0.60352844 0
vt 0.943937957 0.603126287 0
vt 0.755238116 0.710610628 0
vt 0.557203531 0.315663397 0
vt 0.616636872 0.314339906 0
vt 0.549850702 0.357693583 0
vt 0.468184859 0.478930712 0
vt 0.549850702 0.357693583 0
vt 0.62825799 0.584724247 0
vt 0.468184859 0.478930712 0
vt 0.557203531 0.315663397 0
vt 0.549850702 0.357693583 0
vt 0.179168031 0.598686755 0
vt 0.202459157 0.614375353 0
vt 0.160422951 0.585904002 0
vt 0.419810593 0.31233263 0
vt 0.480346918 0.217959002 0
vt 0.463297874 0.31686151 0
vt 0.996333182 0.824024022 0
vt 0.98745954 0.848664761 0
vt 0.92986697 0.815958321 0
vt 0.576967418 0.90419203 0
vt 0.44849059 0.785177827 0
vt 0.447832465 0.624753356 0
vt 0.168311894 0.481900692 0
vt 0.117401667 0.355632484 0
vt 0.180851266 0.388586372 0
vt 0.39770627 0.001377985 0
vt 0.479372799 0.0747984499 0
vt 0.307959974 0.0409703553 0
vt 0.492040813 0.602455318 0
vt 0.468184859 0.478930712 0
vt 0.62825799 0.584724247 0
vt 0.640099883 0.899306595 0
vt 0.576967418 0.90419203 0
vt 0.653124869 0.875453711 0
vt 0.979643166 0.709332764 0
vt 0.9508214 0.77084583 0
vt 0.983952224 0.672634065 0
vt 0.0441436432 0.260570049 0
vt 0.147907868 0.0175965019 0
vt 0.085263513 0.292917013 0
vt 0.147907868 0.0175965019 0
vt 0.219284579 0.292201012 0
vt 0.085263513 0.292917013 0
vt 0.557203531 0.315663397 0
vt 0.468184859 0.478930712 0
vt 0.463521779 0.382535219 0
vt 0.364983529 0.325194001 0
vt 0.431856334 0.323819637 0
vt 0.310878992 0.394583255 0
vt 0.612033188 0.301427245 0
vt 0.587350786 0.29782775 0
vt 0.625057936 0.28747347 0
vt 0.0465888008 0.765909553 0
vt 0.0260563083 0.686840296 0
vt 0.134698331 0.770881414 0
vt 0.463521779 0.382535219 0
vt 0.470622331 0.329937875 0
vt 0.557203531 0.315663397 0
vt 0.085263513 0.292917013 0
vt 0.186227754 0.326468587 0
vt 0.106527142 0.31755653 0
vt 0.62825799 0.584724247 0
vt 0.838516533 0.551810026 0
vt 0.763802707 0.57785511 0
vt 0.0950600207 0.470840991 0
vt 0.119244948 0.47353518 0
vt 0.0498518497 0.477522194 0
vt 0.453928113 0.614266336 0
vt 0.455409914 0.468625724 0
vt 0.457360744 0.560423911 0
vt 0.542198479 0.307019651 0
vt 0.508940816 0.210315511 0
vt 0.587350786 0.29782775 0
vt 0.134698331 0.770881414 0
vt 0.220559835 0.759736061 0
vt 0.194994017 0.772995591 0
vt 0.492040813 0.602455318 0
vt 0.62825799 0.584724247 0
vt 0.533108771 0.610179484 0
vt 0.755238116 0.710610628 0
vt 0.92986697 0.815958321 0
vt 0.789002955 0.860590875 0
vt 0.625057936 0.28747347 0
vt 0.587350786 0.29782775 0
vt 0.617999494 0.195795029 0
vt 0.701305389 0.0151473098 0
vt 0.625057936 0.28747347 0
vt 0.617999494 0.195795029 0
vt 0.44849059 0.785177827 0
vt 0.350787431 0.765069008 0
vt 0.358447164 0.642043471 0
vt 0.180851266 0.388586372 0
vt 0.27340275 0.328878284 0
vt 0.310878992 0.394583255 0
vt 0.212934941 0.698079467 0
vt 0.320404649 0.771161199 0
vt 0.220559835 0.759736061 0
vt 0.321355641 0.744667113 0
vt 0.212934941 0.698079467 0
vt 0.238728583 0.684448421 0
vt 0.703655362 0.273446113 0
vt 0.625057936 0.28747347 0
vt 0.701305389 0.0151473098 0
vt 0.576967418 0.90419203 0
vt 0.590626061 0.614362657 0
vt 0.651649237 0.752766848 0
vt 0.320404649 0.771161199 0
vt 0.212934941 0.698079467 0
vt 0.321355641 0.744667113 0
vt 0.354383558 0.315677553 0
vt 0.085263513 0.292917013 0
vt 0.219284579 0.292201012 0
vt 0.00440828642 0.498786926 0
vt 0.0498518497 0.477522194 0
vt 0.00915038399 0.558827221 0
vt 0.00915038399 0.558827221 0
vt 0.0498518497 0.477522194 0
vt 0.0260563083 0.686840296 0
vt 0.263176203 0.776921511 0
vt 0.194994017 0.772995591 0
vt 0.220559835 0.759736061 0
vt 0.27340275 0.328878284 0
vt 0.364983529 0.325194001 0
vt 0.310878992 0.394583255 0
vt 0.958408713 0.0449984185 0
vt 0.86677599 0.090787001 0
vt 0.828411937 0.00831908267 0
vt 0.866079271 0.57701689 0
vt 0.87394321 0.592119694 0
vt 0.844591498 0.575872183 0
vt 0.576967418 0.90419203 0
vt 0.447354347 0.914835691 0
vt 0.44849059 0.785177827 0
vt 0.92986697 0.815958321 0
vt 0.943937957 0.603126287 0
vt 0.983952224 0.672634065 0
vt 0.958408713 0.0449984185 0
vt 0.828411937 0.00831908267 0
vt 0.936562002 2.33112969e-05 0
vt 0.311592937 0.605977058 0
vt 0.286450446 0.617472112 0
vt 0.204117954 0.554779828 0
vt 0.987210214 0.109067574 0
vt 0.96804136 0.174939737 0
vt 0.98672086 0.0811096877 0
vt 0.9508214 0.77084583 0
vt 0.94721204 0.798205972 0
vt 0.92986697 0.815958321 0
vt 0.856228888 0.454385847 0
vt 0.875579596 0.484429568 0
vt 0.855977118 0.506453037 0
vt 0.755238116 0.710610628 0
vt 0.661696315 0.799238145 0
vt 0.678625643 0.775421679 0
vt 0.219284579 0.292201012 0
vt 0.479372799 0.0747984499 0
vt 0.419810593 0.31233263 0
vt 0.354383558 0.315677553 0
vt 0.219284579 0.292201012 0
vt 0.419810593 0.31233263 0
vt 0.180851266 0.388586372 0
vt 0.310878992 0.394583255 0
vt 0.204117954 0.554779828 0
vt 0.204117954 0.554779828 0
vt 0.174148142 0.56185472 0
vt 0.191451609 0.545152247 0
vt 0.431856334 0.323819637 0
vt 0.455409914 0.468625724 0
vt 0.310878992 0.394583255 0
vt 0.134698331 0.770881414 0
vt 0.0260563083 0.686840296 0
vt 0.220559835 0.759736061 0
vt 0.119244948 0.47353518 0
vt 0.136020511 0.50290364 0
vt 0.160422951 0.585904002 0
vt 0.0837604105 0.308223635 0
vt 0.0441436432 0.260570049 0
vt 0.085263513 0.292917013 0
vt 0.95439595 0.0822662413 0
vt 0.96804136 0.174939737 0
vt 0.86677599 0.090787001 0
vt 0.0498518497 0.477522194 0
vt 0.160422951 0.585904002 0
vt 0.0260563083 0.686840296 0
vt 0.212934941 0.698079467 0
vt 0.160422951 0.585904002 0
vt 0.202459157 0.614375353 0
vt 0.62825799 0.584724247 0
vt 0.598589242 0.601592779 0
vt 0.533108771 0.610179484 0
vt 0.136020511 0.50290364 0
vt 0.134860247 0.467894286 0
vt 0.146674424 0.48878774 0
vt 0.813671529 0.0797324628 0
vt 0.797700405 0.284236014 0
vt 0.703655362 0.273446113 0
vt 0.978366315 0.792183161 0
vt 0.92986697 0.815958321 0
vt 0.94721204 0.798205972 0
vt 0.310878992 0.394583255 0
vt 0.455409914 0.468625724 0
vt 0.453928113 0.614266336 0
vt 0.813671529 0.0797324628 0
vt 0.701305389 0.0151473098 0
vt 0.828411937 0.00831908267 0
vt 0.892523289 0.309151143 0
vt 0.856228888 0.454385847 0
vt 0.76410377 0.324995935 0
vt 0.983952224 0.672634065 0
vt 0.9508214 0.77084583 0
vt 0.92986697 0.815958321 0
vt 0.943937957 0.603126287 0
vt 0.980226994 0.599371016 0
vt 0.983952224 0.672634065 0
vt 0.971298814 0.210859418 0
vt 0.86677599 0.090787001 0
vt 0.96804136 0.174939737 0
vt 0.136020511 0.50290364 0
vt 0.119244948 0.47353518 0
vt 0.134860247 0.467894286 0
vt 0.617999494 0.195795029 0
vt 0.508940816 0.210315511 0
vt 0.613291919 0.051459644 0
vt 0.11260628 0.333411306 0
vt 0.180851266 0.388586372 0
vt 0.117401667 0.355632484 0
vt 0.39770627 0.001377985 0
vt 0.476535439 0.0110419188 0
vt 0.479372799 0.0747984499 0
vt 0.0260563083 0.686840296 0
vt 0.212934941 0.698079467 0
vt 0.220559835 0.759736061 0
vt 0.447832465 0.624753356 0
vt 0.590626061 0.614362657 0
vt 0.576967418 0.90419203 0
vt 0.890765846 0.279786855 0
vt 0.797700405 0.284236014 0
vt 0.971298814 0.210859418 0
vt 0.653124869 0.875453711 0
vt 0.576967418 0.90419203 0
vt 0.651649237 0.752766848 0
vt 0.180851266 0.388586372 0
vt 0.204117954 0.554779828 0
vt 0.191451609 0.545152247 0
vt 0.447354347 0.914835691 0
vt 0.359452844 0.8605479 0
vt 0.44849059 0.785177827 0
vt 0.492040813 0.602455318 0
vt 0.469281197 0.601946414 0
vt 0.468184859 0.478930712 0
vt 0.508940816 0.210315511 0
vt 0.48966971 0.162571356 0
vt 0.49374333 0.0460799523 0
vt 0.44849059 0.785177827 0
vt 0.359452844 0.8605479 0
vt 0.350787431 0.765069008 0
vt 0.455409914 0.468625724 0
vt 0.446303248 0.356036961 0
vt 0.457627833 0.446874321 0
vt 0.838516533 0.551810026 0
vt 0.855977118 0.506453037 0
vt 0.866079271 0.57701689 0
vt 0.844591498 0.575872183 0
vt 0.838516533 0.551810026 0
vt 0.866079271 0.57701689 0
vt 0.0144413849 0.178395376 0
vt 0.147907868 0.0175965019 0
vt 0.0441436432 0.260570049 0
vt 0.734794319 0.601949871 0
vt 0.850919068 0.60352844 0
vt 0.684779584 0.644413173 0
vt 0.219284579 0.292201012 0
vt 0.307959974 0.0409703553 0
vt 0.479372799 0.0747984499 0
vt 0.971298814 0.210859418 0
vt 0.959679782 0.282592297 0
vt 0.890765846 0.279786855 0
vt 0.542198479 0.307019651 0
vt 0.493627399 0.284376234 0
vt 0.508940816 0.210315511 0
vt 0.969900429 0.0215251017 0
vt 0.958408713 0.0449984185 0
vt 0.936562002 2.33112969e-05 0
vt 0.270677835 0.0517673902 0
vt 0.307959974 0.0409703553 0
vt 0.219284579 0.292201012 0
vt 0.168311894 0.481900692 0
vt 0.180851266 0.388586372 0
vt 0.191451609 0.545152247 0
vt 0.734794319 0.601949871 0
vt 0.684779584 0.644413173 0
vt 0.680964291 0.593005657 0
vt 0.220559835 0.759736061 0
vt 0.320404649 0.771161199 0
vt 0.263176203 0.776921511 0
vt 0.447832465 0.624753356 0
vt 0.44849059 0.785177827 0
vt 0.358447164 0.642043471 0
vt 0.789002955 0.860590875 0
vt 0.92986697 0.815958321 0
vt 0.98745954 0.848664761 0
vt 0.701305389 0.0151473098 0
vt 0.617999494 0.195795029 0
vt 0.613291919 0.051459644 0
vt 0.616636872 0.314339906 0
vt 0.683594882 0.304270118 0
vt 0.549850702 0.357693583 0
vt 0.838516533 0.551810026 0
vt 0.844591498 0.575872183 0
vt 0.763802707 0.57785511 0
vt 0.447354347 0.914835691 0
vt 0.367154866 0.911488593 0
vt 0.359452844 0.8605479 0
vt 0.508940816 0.210315511 0
vt 0.569945753 0.0427875668 0
vt 0.613291919 0.051459644 0
vt 0.95439595 0.0822662413 0
vt 0.98672086 0.0811096877 0
vt 0.96804136 0.174939737 0
vt 0.136020511 0.50290364 0
vt 0.179168031 0.598686755 0
vt 0.160422951 0.585904002 0
vt 0.146561667 0.46531418 0
vt 0.106101535 0.368021429 0
vt 0.168311894 0.481900692 0
vt 0.0441436432 0.260570049 0
vt 0.00737450831 0.22936824 0
vt 0.0144413849 0.178395376 0
vt 0.971298814 0.210859418 0
vt 0.797700405 0.284236014 0
vt 0.813671529 0.0797324628 0
vt 0.971298814 0.210859418 0
vt 0.813671529 0.0797324628 0
vt 0.86677599 0.090787001 0
vt 0.82978791 0.597445369 0
vt 0.850919068 0.60352844 0
vt 0.734794319 0.601949871 0
vt 0.701305389 0.0151473098 0
vt 0.613291919 0.051459644 0
vt 0.661028147 0.0136654433 0
vt 0.311592937 0.605977058 0
vt 0.453928113 0.614266336 0
vt 0.328305244 0.636555493 0
vt 0.892523289 0.309151143 0
vt 0.91480273 0.357563615 0
vt 0.856228888 0.454385847 0
vt 0.744654715 0.297827303 0
vt 0.76410377 0.324995935 0
vt 0.683594882 0.304270118 0
vt 0.174148142 0.56185472 0
vt 0.168311894 0.481900692 0
vt 0.191451609 0.545152247 0
vt 0.446303248 0.356036961 0
vt 0.455409914 0.468625724 0
vt 0.431856334 0.323819637 0
vt 0.463297874 0.31686151 0
vt 0.480346918 0.217959002 0
vt 0.483025551 0.306046754 0
vt 0.0498518497 0.477522194 0
vt 0.119244948 0.47353518 0
vt 0.160422951 0.585904002 0
vt 0.755238116 0.710610628 0
vt 0.678625643 0.775421679 0
vt 0.654919028 0.749317229 0
vt 0.160422951 0.585904002 0
vt 0.212934941 0.698079467 0
vt 0.0260563083 0.686840296 0
vt 0.838516533 0.551810026 0
vt 0.856228888 0.454385847 0
vt 0.855977118 0.506453037 0
vt 0.813671529 0.0797324628 0
vt 0.703655362 0.273446113 0
vt 0.701305389 0.0151473098 0
vt 0.00287028449 0.0281211864 0
vt 0.0401022583 0.0230515134 0
vt 0.0144413849 0.178395376 0
vt 0.789002955 0.860590875 0
vt 0.98745954 0.848664761 0
vt 0.837547958 0.870020688 0
vn -0.0297114514 0.964728713 -0.0271694008
vn -0.00805193186 1.00130236 -0.0245178659
vn -0.126845226 0.590735555 0.4925102
vn -0.0287506077 0.0907254294 0.965724945
vn -0.136555016 -0.0674732476 0.981536627
vn 0.00399048487 -0.0604089983 1.0016619
vn -0.988269329 0.128431633 -0.0869181529
vn -0.981163979 -0.0446372293 -0.128159538
vn -0.941646516 -0.034158662 0.196011901
vn -0.0287506077 0.0907254294 0.965724945
vn -0.254971325 -0.153819621 0.92258656
vn -0.136555016 -0.0674732476 0.981536627
vn -0.941646516 -0.034158662 0.196011901
vn -0.771974921 -0.115428396 0.490656137
vn -0.974344015 0.19286415 0.00122859643
vn -0.200213581 -0.954169393 -0.0298272949
vn -0.232707605 -0.90753305 -0.233794972
vn 0.0217196029 -0.946001709 -0.142329007
vn -0.599211693 -0.0484520905 0.799123108
vn -0.89739871 -0.291548193 0.227517158
vn -0.648073614 -0.249617547 0.720140576
vn 0.0217196029 -0.946001709 -0.142329007
vn -0.168195337 -0.465688586 -0.548914909
vn 0.00885512587 -1.00042927 0.0351631679
vn -0.0190920066 -0.963861883 -0.19677946
vn -0.21331273 -0.017947536 -0.969101548
vn 0.051640261 -0.523998857 -0.737708211
vn -0.132541865 0.0892389566 -0.972804964
vn -0.256811142 0.321262032 -0.89343673
vn -0.452625215 0.0433229432 -0.750868917
vn 0.0318496116 0.0262184832 0.999841571
vn 0.00226737419 0.106409468 0.97924
vn 0.00399048487 -0.0604089983 1.0016619
vn -0.771710098 0.58020401 -0.27033022
vn -0.411859274 0.790212929 -0.160229415
vn -0.602491021 0.640327811 -0.187032416
vn -0.00805193186 1.00130236 -0.0245178659
vn -0.0297114514 0.964728713 -0.0271694008
vn -0.0474239625 0.882118583 -0.141750216
vn -0.941646516 -0.034158662 0.196011901
vn -0.89739871 -0.291548193 0.227517158
vn -0.599211693 -0.0484520905 0.799123108
vn 0.733653545 -0.23555018 -0.487909198
vn 0.96707058 -0.00828676857 -0.160624802
vn 0.289227426 -0.809124291 -0.0537680946
vn 0.00399048487 -0.0604089983 1.0016619
vn 0.00226737419 0.106409468 0.97924
vn -0.0287506077 0.0907254294 0.965724945
vn -0.648073614 -0.249617547 0.720140576
vn -0.89739871 -0.291548193 0.227517158
vn -0.286512345 -0.86520201 0.2483913
vn 0.0489370227 -0.66757077 0.746690512
vn -0.0429725796 -0.724724114 0.677898645
vn -0.123734489 -0.877271712 0.359365046
vn 0.00399048487 -0.0604089983 1.0016619
vn -0.0429725796 -0.724724114 0.677898645
vn 0.0489370227 -0.66757077 0.746690512
vn 0.76177448 -0.384976655 0.0192179456
vn 0.0723419413 -0.921408892 0.317722648
vn 0.289227426 -0.809124291 -0.0537680946
vn 0.261825055 0.0338566564 -0.89122504
vn 0.0559229851 1.00069654 -0.0521102175
vn -0.361144245 0.326548487 -0.771695554
vn 0.261825055 0.0338566564 -0.89122504
vn 0.117429301 0.295680135 -0.8535164
vn 0.0559229851 1.00069654 -0.0521102175
vn -0.771974921 -0.115428396 0.490656137
vn -0.941646516 -0.034158662 0.196011901
vn -0.254971325 -0.153819621 0.92258656
vn -0.114793964 -0.0372110531 -0.983329952
vn -0.0397987291 0.285339773 -0.921503663
vn 0.0984857753 -0.02275718 -1.0060674
vn 0.859392166 0.102950439 -0.3995471
vn 0.0492673405 0.885573566 -0.341884017
vn 0.525929749 0.749782443 -0.281368762
vn 0.0984857753 -0.02275718 -1.0060674
vn 0.859392166 0.102950439 -0.3995471
vn 0.96707058 -0.00828676857 -0.160624802
vn -0.452625215 0.0433229432 -0.750868917
vn -0.256811142 0.321262032 -0.89343673
vn -0.981163979 -0.0446372293 -0.128159538
vn -0.278609514 0.811704874 0.52087599
vn -0.638041437 0.395638198 -0.648596823
vn -0.0287506077 0.0907254294 0.965724945
vn -0.0297114514 0.964728713 -0.0271694008
vn -0.0287506077 0.0907254294 0.965724945
vn -0.638041437 0.395638198 -0.648596823
vn 0.0984857753 -0.02275718 -1.0060674
vn 0.733653545 -0.23555018 -0.487909198
vn 0.051640261 -0.523998857 -0.737708211
vn -0.132541865 0.0892389566 -0.972804964
vn 0.20616436 0.0684008524 -0.974371731
vn 0.0217196029 -0.946001709 -0.142329007
vn -0.974344015 0.19286415 0.00122859643
vn -0.988269329 0.128431633 -0.0869181529
vn -0.941646516 -0.034158662 0.196011901
vn 0.0530245341 0.522477031 0.772219419
vn 0.0114776986 0.634254575 0.815811694
vn 0.0318496116 0.0262184832 0.999841571
vn 0.388612956 0.0345458165 0.776739359
vn 0.0318496116 0.0262184832 0.999841571
vn 0.00399048487 -0.0604089983 1.0016619
vn 0.388612956 0.0345458165 0.776739359
vn 0.0530245341 0.522477031 0.772219419
vn 0.0318496116 0.0262184832 0.999841571
vn -0.909981549 0.297035187 -0.293912709
vn -0.602491021 0.640327811 -0.187032416
vn -0.12164218 0.971009314 -0.0796272308
vn 0.0723419413 -0.921408892 0.317722648
vn 0.76177448 -0.384976655 0.0192179456
vn 0.0777665377 -0.49026978 0.799481452
vn -0.256811142 0.321262032 -0.89343673
vn -0.813982189 -0.261610895 -0.359014869
vn -0.981163979 -0.0446372293 -0.128159538
vn 0.948585331 0.147194594 0.0612662099
vn 0.999008596 0.0637687147 0.0541839711
vn 0.76177448 -0.384976655 0.0192179456
vn -0.602491021 0.640327811 -0.187032416
vn -0.411859274 0.790212929 -0.160229415
vn 0.0559229851 1.00069654 -0.0521102175
vn 0.051640261 -0.523998857 -0.737708211
vn 0.289227426 -0.809124291 -0.0537680946
vn -0.0190920066 -0.963861883 -0.19677946
vn 0.0777665377 -0.49026978 0.799481452
vn 0.388612956 0.0345458165 0.776739359
vn 0.00399048487 -0.0604089983 1.0016619
vn 0.525929749 0.749782443 -0.281368762
vn 0.948585331 0.147194594 0.0612662099
vn 0.859392166 0.102950439 -0.3995471
vn -0.514920652 -0.247123152 -0.806512952
vn -0.858001471 -0.177202195 -0.486406922
vn -0.493999094 -0.0988752469 -0.715975463
vn -0.286512345 -0.86520201 0.2483913
vn 0.0217196029 -0.946001709 -0.142329007
vn -0.123734489 -0.877271712 0.359365046
vn 0.0217196029 -0.946001709 -0.142329007
vn 0.00885512587 -1.00042927 0.0351631679
vn -0.123734489 -0.877271712 0.359365046
vn 0.0530245341 0.522477031 0.772219419
vn 0.388612956 0.0345458165 0.776739359
vn 0.762575269 0.126621902 0.458186507
vn 0.010899337 0.441478908 -0.781251252
vn -0.128607884 0.608639777 -0.524277687
vn -0.00805193186 1.00130236 -0.0245178659
vn -0.349653244 0.779261589 -0.499032259
vn -0.0397987291 0.285339773 -0.921503663
vn -0.361144245 0.326548487 -0.771695554
vn 0.439771235 0.70110327 0.575948
vn 0.222990304 0.886217892 -0.0314294398
vn 0.0530245341 0.522477031 0.772219419
vn 0.762575269 0.126621902 0.458186507
vn 0.439771235 0.70110327 0.575948
vn 0.0530245341 0.522477031 0.772219419
vn -0.123734489 -0.877271712 0.359365046
vn -0.0429725796 -0.724724114 0.677898645
vn -0.165655836 -0.640870929 0.759736896
vn 0.00399048487 -0.0604089983 1.0016619
vn -0.136555016 -0.0674732476 0.981536627
vn -0.0429725796 -0.724724114 0.677898645
vn -0.0397987291 0.285339773 -0.921503663
vn -0.349653244 0.779261589 -0.499032259
vn 0.0492673405 0.885573566 -0.341884017
vn -0.126845226 0.590735555 0.4925102
vn -0.208676174 0.932864666 0.0240889695
vn -0.798811018 0.583126545 -0.0737274438
vn 0.0492673405 0.885573566 -0.341884017
vn 0.0984857753 -0.02275718 -1.0060674
vn -0.0397987291 0.285339773 -0.921503663
vn 0.0530245341 0.522477031 0.772219419
vn 0.00355946925 0.993519545 0.0833076015
vn 0.0114776986 0.634254575 0.815811694
vn 0.0777665377 -0.49026978 0.799481452
vn 0.00399048487 -0.0604089983 1.0016619
vn 0.0723419413 -0.921408892 0.317722648
vn -0.941646516 -0.034158662 0.196011901
vn -0.981163979 -0.0446372293 -0.128159538
vn -0.89739871 -0.291548193 0.227517158
vn -0.361144245 0.326548487 -0.771695554
vn -0.0397987291 0.285339773 -0.921503663
vn -0.114793964 -0.0372110531 -0.983329952
vn -0.168195337 -0.465688586 -0.548914909
vn -0.361144245 0.326548487 -0.771695554
vn -0.114793964 -0.0372110531 -0.983329952
vn 0.999008596 0.0637687147 0.0541839711
vn 0.388612956 0.0345458165 0.776739359
vn 0.91164124 -0.187241852 0.25547567
vn 0.0559229851 1.00069654 -0.0521102175
vn 0.117429301 0.295680135 -0.8535164
vn -0.00805193186 1.00130236 -0.0245178659
vn -0.316824704 0.709917665 -0.438796312
vn -0.278609514 0.811704874 0.52087599
vn 0.00355946925 0.993519545 0.0833076015
vn -0.638041437 0.395638198 -0.648596823
vn -0.316824704 0.709917665 -0.438796312
vn -0.0474239625 0.882118583 -0.141750216
vn 0.261825055 0.0338566564 -0.89122504
vn -0.361144245 0.326548487 -0.771695554
vn -0.168195337 -0.465688586 -0.548914909
vn 0.948585331 0.147194594 0.0612662099
vn 0.289227426 -0.809124291 -0.0537680946
vn 0.96707058 -0.00828676857 -0.160624802
vn -0.278609514 0.811704874 0.52087599
vn -0.316824704 0.709917665 -0.438796312
vn -0.638041437 0.395638198 -0.648596823
vn 0.0489370227 -0.66757077 0.746690512
vn -0.123734489 -0.877271712 0.359365046
vn 0.00885512587 -1.00042927 0.0351631679
vn 0.525929749 0.749782443 -0.281368762
vn 0.0492673405 0.885573566 -0.341884017
vn 0.948585331 0.147194594 0.0612662099
vn 0.948585331 0.147194594 0.0612662099
vn 0.0492673405 0.885573566 -0.341884017
vn 0.222990304 0.886217892 -0.0314294398
vn 0.00226737419 0.106409468 0.97924
vn 0.0114776986 0.634254575 0.815811694
vn 0.00355946925 0.993519545 0.0833076015
vn 0.117429301 0.295680135 -0.8535164
vn 0.010899337 0.441478908 -0.781251252
vn -0.00805193186 1.00130236 -0.0245178659
vn -0.256811142 0.321262032 -0.89343673
vn -0.132541865 0.0892389566 -0.972804964
vn 0.0217196029 -0.946001709 -0.142329007
vn -0.648073614 -0.249617547 0.720140576
vn -0.123734489 -0.877271712 0.359365046
vn -0.165655836 -0.640870929 0.759736896
vn 0.948585331 0.147194594 0.0612662099
vn 0.222990304 0.886217892 -0.0314294398
vn 0.999008596 0.0637687147 0.0541839711
vn -0.981163979 -0.0446372293 -0.128159538
vn -0.988269329 0.128431633 -0.0869181529
vn -0.493999094 -0.0988752469 -0.715975463
vn -0.256811142 0.321262032 -0.89343673
vn 0.0217196029 -0.946001709 -0.142329007
vn -0.232707605 -0.90753305 -0.233794972
vn -0.0297114514 0.964728713 -0.0271694008
vn -0.638041437 0.395638198 -0.648596823
vn -0.0474239625 0.882118583 -0.141750216
vn -0.858001471 -0.177202195 -0.486406922
vn -0.514920652 -0.247123152 -0.806512952
vn -0.695630729 -0.227507815 -0.692834795
vn -0.858001471 -0.177202195 -0.486406922
vn -0.695630729 -0.227507815 -0.692834795
vn -0.981163979 -0.0446372293 -0.128159538
vn -0.254971325 -0.153819621 0.92258656
vn -0.710423112 -0.0729088634 0.740865469
vn -0.599211693 -0.0484520905 0.799123108
vn -0.941646516 -0.034158662 0.196011901
vn -0.599211693 -0.0484520905 0.799123108
vn -0.710423112 -0.0729088634 0.740865469
vn 0.00885512587 -1.00042927 0.0351631679
vn 0.289227426 -0.809124291 -0.0537680946
vn 0.0723419413 -0.921408892 0.317722648
vn 0.0489370227 -0.66757077 0.746690512
vn 0.00885512587 -1.00042927 0.0351631679
vn 0.0723419413 -0.921408892 0.317722648
vn 0.0559229851 1.00069654 -0.0521102175
vn -0.00805193186 1.00130236 -0.0245178659
vn -0.0474239625 0.882118583 -0.141750216
vn -0.0474239625 0.882118583 -0.141750216
vn -0.316824704 0.709917665 -0.438796312
vn -0.28147611 0.880775511 -0.143685058
vn -0.128607884 0.608639777 -0.524277687
vn -0.208676174 0.932864666 0.0240889695
vn -0.00805193186 1.00130236 -0.0245178659
vn 0.0530245341 0.522477031 0.772219419
vn 0.222990304 0.886217892 -0.0314294398
vn 0.00355946925 0.993519545 0.0833076015
vn -0.349653244 0.779261589 -0.499032259
vn -0.771710098 0.58020401 -0.27033022
vn -0.12164218 0.971009314 -0.0796272308
vn -0.648073614 -0.249617547 0.720140576
vn -0.286512345 -0.86520201 0.2483913
vn -0.123734489 -0.877271712 0.359365046
vn -0.452625215 0.0433229432 -0.750868917
vn -0.514920652 -0.247123152 -0.806512952
vn -0.132541865 0.0892389566 -0.972804964
vn 0.0492673405 0.885573566 -0.341884017
vn -0.12164218 0.971009314 -0.0796272308
vn 0.222990304 0.886217892 -0.0314294398
vn -0.316824704 0.709917665 -0.438796312
vn -0.12164218 0.971009314 -0.0796272308
vn -0.602491021 0.640327811 -0.187032416
vn 0.00399048487 -0.0604089983 1.0016619
vn 0.0489370227 -0.66757077 0.746690512
vn 0.0723419413 -0.921408892 0.317722648
vn -0.771710098 0.58020401 -0.27033022
vn -0.361144245 0.326548487 -0.771695554
vn -0.411859274 0.790212929 -0.160229415
vn 0.20616436 0.0684008524 -0.974371731
vn 0.117429301 0.295680135 -0.8535164
vn 0.261825055 0.0338566564 -0.89122504
vn -0.452625215 0.0433229432 -0.750868917
vn -0.981163979 -0.0446372293 -0.128159538
vn -0.695630729 -0.227507815 -0.692834795
vn -0.00805193186 1.00130236 -0.0245178659
vn -0.208676174 0.932864666 0.0240889695
vn -0.126845226 0.590735555 0.4925102
vn 0.20616436 0.0684008524 -0.974371731
vn -0.168195337 -0.465688586 -0.548914909
vn 0.0217196029 -0.946001709 -0.142329007
vn -0.126845226 0.590735555 0.4925102
vn -0.254971325 -0.153819621 0.92258656
vn -0.0287506077 0.0907254294 0.965724945
vn -0.493999094 -0.0988752469 -0.715975463
vn -0.858001471 -0.177202195 -0.486406922
vn -0.981163979 -0.0446372293 -0.128159538
vn -0.988269329 0.128431633 -0.0869181529
vn -0.128607884 0.608639777 -0.524277687
vn -0.493999094 -0.0988752469 -0.715975463
vn -0.493999094 -0.0988752469 -0.715975463
vn -0.132541865 0.0892389566 -0.972804964
vn -0.514920652 -0.247123152 -0.806512952
vn -0.771710098 0.58020401 -0.27033022
vn -0.349653244 0.779261589 -0.499032259
vn -0.361144245 0.326548487 -0.771695554
vn -0.114793964 -0.0372110531 -0.983329952
vn 0.0984857753 -0.02275718 -1.0060674
vn -0.21331273 -0.017947536 -0.969101548
vn -0.361144245 0.326548487 -0.771695554
vn 0.0559229851 1.00069654 -0.0521102175
vn -0.411859274 0.790212929 -0.160229415
vn 0.051640261 -0.523998857 -0.737708211
vn 0.733653545 -0.23555018 -0.487909198
vn 0.289227426 -0.809124291 -0.0537680946
vn 0.222990304 0.886217892 -0.0314294398
vn -0.316824704 0.709917665 -0.438796312
vn 0.00355946925 0.993519545 0.0833076015
vn 0.76177448 -0.384976655 0.0192179456
vn 0.289227426 -0.809124291 -0.0537680946
vn 0.948585331 0.147194594 0.0612662099
vn 0.010899337 0.441478908 -0.781251252
vn 0.117429301 0.295680135 -0.8535164
vn -0.493999094 -0.0988752469 -0.715975463
vn 0.859392166 0.102950439 -0.3995471
vn 0.948585331 0.147194594 0.0612662099
vn 0.96707058 -0.00828676857 -0.160624802
vn 0.0559229851 1.00069654 -0.0521102175
vn -0.0474239625 0.882118583 -0.141750216
vn -0.28147611 0.880775511 -0.143685058
vn 0.222990304 0.886217892 -0.0314294398
vn 0.762575269 0.126621902 0.458186507
vn 0.999008596 0.0637687147 0.0541839711
vn 0.0777665377 -0.49026978 0.799481452
vn 0.91164124 -0.187241852 0.25547567
vn 0.388612956 0.0345458165 0.776739359
vn 0.0984857753 -0.02275718 -1.0060674
vn 0.96707058 -0.00828676857 -0.160624802
vn 0.733653545 -0.23555018 -0.487909198
vn 0.999008596 0.0637687147 0.0541839711
vn 0.762575269 0.126621902 0.458186507
vn 0.388612956 0.0345458165 0.776739359
vn -0.208676174 0.932864666 0.0240889695
vn -0.988269329 0.128431633 -0.0869181529
vn -0.974344015 0.19286415 0.00122859643
vn -0.136555016 -0.0674732476 0.981536627
vn -0.599211693 -0.0484520905 0.799123108
vn -0.648073614 -0.249617547 0.720140576
vn -0.165655836 -0.640870929 0.759736896
vn -0.136555016 -0.0674732476 0.981536627
vn -0.648073614 -0.249617547 0.720140576
vn -0.200213581 -0.954169393 -0.0298272949
vn 0.0217196029 -0.946001709 -0.142329007
vn -0.286512345 -0.86520201 0.2483913
vn -0.798811018 0.583126545 -0.0737274438
vn -0.974344015 0.19286415 0.00122859643
vn -0.771974921 -0.115428396 0.490656137
vn 0.00885512587 -1.00042927 0.0351631679
vn -0.0190920066 -0.963861883 -0.19677946
vn 0.289227426 -0.809124291 -0.0537680946
vn -0.493999094 -0.0988752469 -0.715975463
vn -0.128607884 0.608639777 -0.524277687
vn 0.010899337 0.441478908 -0.781251252
vn 0.0492673405 0.885573566 -0.341884017
vn 0.859392166 0.102950439 -0.3995471
vn 0.0984857753 -0.02275718 -1.0060674
vn -0.813982189 -0.261610895 -0.359014869
vn -0.256811142 0.321262032 -0.89343673
vn -0.232707605 -0.90753305 -0.233794972
vn -0.168195337 -0.465688586 -0.548914909
vn -0.0190920066 -0.963861883 -0.19677946
vn 0.00885512587 -1.00042927 0.0351631679
vn -0.602491021 0.640327811 -0.187032416
vn 0.0559229851 1.00069654 -0.0521102175
vn -0.28147611 0.880775511 -0.143685058
vn -0.798811018 0.583126545 -0.0737274438
vn -0.771974921 -0.115428396 0.490656137
vn -0.126845226 0.590735555 0.4925102
vn 0.00355946925 0.993519545 0.0833076015
vn -0.278609514 0.811704874 0.52087599
vn 0.00226737419 0.106409468 0.97924
vn 0.76177448 -0.384976655 0.0192179456
vn 0.999008596 0.0637687147 0.0541839711
vn 0.91164124 -0.187241852 0.25547567
vn -0.89739871 -0.291548193 0.227517158
vn -0.981163979 -0.0446372293 -0.128159538
vn -0.813982189 -0.261610895 -0.359014869
vn -0.168195337 -0.465688586 -0.548914909
vn -0.114793964 -0.0372110531 -0.983329952
vn -0.21331273 -0.017947536 -0.969101548
vn 0.0114776986 0.634254575 0.815811694
vn 0.00226737419 0.106409468 0.97924
vn 0.0318496116 0.0262184832 0.999841571
vn -0.136555016 -0.0674732476 0.981536627
vn -0.165655836 -0.640870929 0.759736896
vn -0.0429725796 -0.724724114 0.677898645
vn 0.222990304 0.886217892 -0.0314294398
vn 0.439771235 0.70110327 0.575948
vn 0.762575269 0.126621902 0.458186507
vn 0.0984857753 -0.02275718 -1.0060674
vn 0.051640261 -0.523998857 -0.737708211
vn -0.21331273 -0.017947536 -0.969101548
vn -0.452625215 0.0433229432 -0.750868917
vn -0.695630729 -0.227507815 -0.692834795
vn -0.514920652 -0.247123152 -0.806512952
vn -0.771710098 0.58020401 -0.27033022
vn -0.909981549 0.297035187 -0.293912709
vn -0.12164218 0.971009314 -0.0796272308
vn -0.909981549 0.297035187 -0.293912709
vn -0.771710098 0.58020401 -0.27033022
vn -0.602491021 0.640327811 -0.187032416
vn -0.286512345 -0.86520201 0.2483913
vn -0.89739871 -0.291548193 0.227517158
vn -0.200213581 -0.954169393 -0.0298272949
vn -0.493999094 -0.0988752469 -0.715975463
vn 0.117429301 0.295680135 -0.8535164
vn 0.20616436 0.0684008524 -0.974371731
vn -0.493999094 -0.0988752469 -0.715975463
vn 0.20616436 0.0684008524 -0.974371731
vn -0.132541865 0.0892389566 -0.972804964
vn -0.208676174 0.932864666 0.0240889695
vn -0.974344015 0.19286415 0.00122859643
vn -0.798811018 0.583126545 -0.0737274438
vn -0.168195337 -0.465688586 -0.548914909
vn -0.21331273 -0.017947536 -0.969101548
vn -0.0190920066 -0.963861883 -0.19677946
vn -0.0297114514 0.964728713 -0.0271694008
vn -0.126845226 0.590735555 0.4925102
vn -0.0287506077 0.0907254294 0.965724945
vn -0.126845226 0.590735555 0.4925102
vn -0.771974921 -0.115428396 0.490656137
vn -0.254971325 -0.153819621 0.92258656
vn -0.278609514 0.811704874 0.52087599
vn -0.0287506077 0.0907254294 0.965724945
vn 0.00226737419 0.106409468 0.97924
vn -0.316824704 0.709917665 -0.438796312
vn -0.602491021 0.640327811 -0.187032416
vn -0.28147611 0.880775511 -0.143685058
vn -0.988269329 0.128431633 -0.0869181529
vn -0.208676174 0.932864666 0.0240889695
vn -0.128607884 0.608639777 -0.524277687
vn 0.0777665377 -0.49026978 0.799481452
vn 0.76177448 -0.384976655 0.0192179456
vn 0.91164124 -0.187241852 0.25547567
vn 0.0492673405 0.885573566 -0.341884017
vn -0.349653244 0.779261589 -0.499032259
vn -0.12164218 0.971009314 -0.0796272308
vn -0.941646516 -0.034158662 0.196011901
vn -0.710423112 -0.0729088634 0.740865469
vn -0.254971325 -0.153819621 0.92258656
vn -0.12164218 0.971009314 -0.0796272308
vn -0.316824704 0.709917665 -0.438796312
vn 0.222990304 0.886217892 -0.0314294398
vn -0.136555016 -0.0674732476 0.981536627
vn -0.254971325 -0.153819621 0.92258656
vn -0.599211693 -0.0484520905 0.799123108
vn 0.20616436 0.0684008524 -0.974371731
vn 0.261825055 0.0338566564 -0.89122504
vn -0.168195337 -0.465688586 -0.548914909
vn -0.813982189 -0.261610895 -0.359014869
vn -0.232707605 -0.90753305 -0.233794972
vn -0.200213581 -0.954169393 -0.0298272949
vn -0.89739871 -0.291548193 0.227517158
vn -0.813982189 -0.261610895 -0.359014869
vn -0.200213581 -0.954169393 -0.0298272949
g Group26456
f 31/1/1 50/2/2 25/3/3
f 18/4/4 59/5/5 43/6/6
f 33/7/7 29/8/8 19/9/9
f 18/10/10 72/11/11 59/12/12
f 19/13/13 37/14/14 40/15/15
f 7/16/16 44/17/17 9/18/18
f 77/19/19 42/20/20 22/21/21
f 9/22/22 13/23/23 47/24/24
f 78/25/25 4/26/26 32/27/27
f 12/28/28 68/29/29 14/30/30
f 36/31/31 63/32/32 43/33/33
f 74/34/34 80/35/35 65/36/36
f 50/37/37 31/38/38 75/39/39
f 19/40/40 42/41/41 77/42/42
f 20/43/43 69/44/44 61/45/45
f 43/46/46 63/47/47 18/48/48
f 22/49/49 42/50/50 64/51/51
f 23/52/52 55/53/53 49/54/54
f 43/55/55 55/56/56 23/57/57
f 11/58/58 60/59/59 61/60/60
f 41/61/61 5/62/62 62/63/63
f 41/64/64 17/65/65 5/66/66
f 37/67/67 19/68/68 72/69/69
f 3/70/70 53/71/71 10/72/72
f 35/73/73 57/74/74 28/75/75
f 10/76/76 35/77/77 69/78/78
f 14/79/79 68/80/80 29/81/81
f 67/82/82 71/83/83 18/84/84
f 31/85/85 18/86/86 71/87/87
f 10/88/88 20/89/89 32/90/90
f 12/91/91 34/92/92 9/93/93
f 40/94/94 33/95/95 19/96/96
f 51/97/97 48/98/98 36/99/99
f 38/100/100 36/101/101 43/102/102
f 38/103/103 51/104/104 36/105/105
f 81/106/106 65/107/107 16/108/108
f 60/109/109 11/110/110 1/111/111
f 68/112/112 2/113/113 29/114/114
f 46/115/115 15/116/116 11/117/117
f 65/118/118 80/119/119 5/120/120
f 32/121/121 61/122/122 78/123/123
f 1/124/124 38/125/125 43/126/126
f 28/127/127 46/128/128 35/129/129
f 56/130/130 76/131/131 6/132/132
f 64/133/133 9/134/134 49/135/135
f 9/136/136 47/137/137 49/138/138
f 51/139/139 38/140/140 24/141/141
f 27/142/142 52/143/143 50/144/144
f 26/145/145 53/146/146 62/147/147
f 54/148/148 39/149/149 51/150/150
f 24/151/151 54/152/152 51/153/153
f 49/154/154 55/155/155 73/156/156
f 43/157/157 59/158/158 55/159/159
f 53/160/160 26/161/161 57/162/162
f 25/163/163 58/164/164 45/165/165
f 57/166/166 10/167/167 53/168/168
f 51/169/169 30/170/170 48/171/171
f 1/172/172 43/173/173 60/174/174
f 19/175/175 29/176/176 42/177/177
f 62/178/178 53/179/179 3/180/180
f 13/181/181 62/182/182 3/183/183
f 15/184/184 38/185/185 79/186/186
f 5/187/187 17/188/188 50/189/189
f 21/190/190 67/191/191 30/192/192
f 71/193/193 21/194/194 75/195/195
f 41/196/196 62/197/197 13/198/198
f 46/199/199 61/200/200 69/201/201
f 67/202/202 21/203/203 71/204/204
f 23/205/205 49/206/206 47/207/207
f 28/208/208 57/209/209 46/210/210
f 46/211/211 57/212/212 39/213/213
f 63/214/214 48/215/215 30/216/216
f 17/217/217 27/218/218 50/219/219
f 68/220/220 12/221/221 9/222/222
f 22/223/223 49/224/224 73/225/225
f 46/226/226 39/227/227 15/228/228
f 29/229/229 33/230/230 6/231/231
f 68/232/232 9/233/233 44/234/234
f 31/235/235 71/236/236 75/237/237
f 76/238/238 56/239/239 66/240/240
f 76/241/241 66/242/242 29/243/243
f 72/244/244 8/245/245 77/246/246
f 19/247/247 77/248/248 8/249/249
f 47/250/250 61/251/251 60/252/252
f 23/253/253 47/254/254 60/255/255
f 5/256/256 50/257/257 75/258/258
f 75/259/259 21/260/260 70/261/261
f 52/262/262 58/263/263 50/264/264
f 51/265/265 39/266/266 30/267/267
f 26/268/268 74/269/269 16/270/270
f 22/271/271 64/272/272 49/273/273
f 14/274/274 56/275/275 12/276/276
f 57/277/277 16/278/278 39/279/279
f 21/280/280 16/281/281 65/282/282
f 43/283/283 23/284/284 60/285/285
f 74/286/286 62/287/287 80/288/288
f 34/289/289 17/290/290 41/291/291
f 14/292/292 29/293/293 66/294/294
f 50/295/295 58/296/296 25/297/297
f 34/298/298 13/299/299 9/300/300
f 25/301/301 72/302/302 18/303/303
f 6/304/304 76/305/305 29/306/306
f 33/307/307 52/308/308 6/309/309
f 6/310/310 12/311/311 56/312/312
f 74/313/313 26/314/314 62/315/315
f 3/316/316 10/317/317 4/318/318
f 62/319/319 5/320/320 80/321/321
f 32/322/322 20/323/323 61/324/324
f 39/325/325 21/326/326 30/327/327
f 11/328/328 61/329/329 46/330/330
f 27/331/331 17/332/332 6/333/333
f 35/334/334 46/335/335 69/336/336
f 5/337/337 75/338/338 70/339/339
f 39/340/340 24/341/341 15/342/342
f 1/343/343 79/344/344 38/345/345
f 10/346/346 69/347/347 20/348/348
f 15/349/349 24/350/350 38/351/351
f 58/352/352 33/353/353 40/354/354
f 59/355/355 77/356/356 22/357/357
f 73/358/358 59/359/359 22/360/360
f 7/361/361 9/362/362 64/363/363
f 45/364/364 40/365/365 37/366/366
f 47/367/367 78/368/368 61/369/369
f 6/370/370 52/371/371 27/372/372
f 57/373/373 35/374/374 10/375/375
f 2/376/376 68/377/377 44/378/378
f 13/379/379 78/380/380 47/381/381
f 65/382/382 5/383/383 70/384/384
f 45/385/385 37/386/386 25/387/387
f 30/388/388 67/389/389 63/390/390
f 11/391/391 15/392/392 79/393/393
f 42/394/394 29/395/395 2/396/396
f 13/397/397 3/398/398 4/399/399
f 48/400/400 63/401/401 36/402/402
f 59/403/403 73/404/404 55/405/405
f 39/406/406 54/407/407 24/408/408
f 10/409/409 32/410/410 4/411/411
f 14/412/412 66/413/413 56/414/414
f 74/415/415 81/416/416 16/417/417
f 81/418/418 74/419/419 65/420/420
f 64/421/421 42/422/422 7/423/423
f 6/424/424 17/425/425 34/426/426
f 6/427/427 34/428/428 12/429/429
f 58/430/430 40/431/431 45/432/432
f 13/433/433 4/434/434 78/435/435
f 31/436/436 25/437/437 18/438/438
f 25/439/439 37/440/440 72/441/441
f 67/442/442 18/443/443 63/444/444
f 21/445/445 65/446/446 70/447/447
f 33/448/448 58/449/449 52/450/450
f 1/451/451 11/452/452 79/453/453
f 57/454/454 26/455/455 16/456/456
f 19/457/457 8/458/458 72/459/459
f 16/460/460 21/461/461 39/462/462
f 59/463/463 72/464/464 77/465/465
f 34/466/466 41/467/467 13/468/468
f 2/469/469 44/470/470 7/471/471
f 42/472/472 2/473/473 7/474/474
