# File exported by Houdini 16.5.405 (www.sidefx.com)
# 16 points
# 84 vertices
# 28 primitives
# Bounds: [-5.74815464, 0.479740709, -6.07877636] to [6.13072348, 12.5126371, 5.67017317]
g 
v -5.37096786 1.87998748 -3.19646788
v 6.13072348 7.02778912 -3.42913914
v 2.16682529 10.7869453 4.87161064
v 0.0892283991 12.5126371 0.850605607
v -5.56727409 10.9887857 2.55157065
v -1.42898715 10.861845 -4.51582193
v -5.13822412 9.41955757 -2.75501299
v -3.54670978 8.82339478 5.67017317
v 3.0695467 3.02103066 4.94893694
v -5.74815464 6.33663702 3.65728307
v 5.5464921 5.32230282 3.85382223
v -2.57274938 4.21598911 -6.07877636
v 0.619500339 1.4012903 -4.34605026
v -3.48865056 4.25243568 4.36228561
v 1.01251936 0.479740709 1.62458944
v 4.65807056 3.08618712 -2.88881779
vt 0.123838104 0.875617146 0
vt 0.0887729526 0.949421644 0
vt 0.0128656933 0.85198462 0
vt 0.0546302833 0.808776438 0
vt 0.123838104 0.875617146 0
vt 0.0128656933 0.85198462 0
vt 0.708951294 0.851747513 0
vt 0.653656244 0.900905669 0
vt 0.556134582 0.859392047 0
vt 0.794244587 0.907810032 0
vt 0.759900212 0.840990126 0
vt 0.889268577 0.855163574 0
vt 0.664691806 0.963022768 0
vt 0.653656244 0.900905669 0
vt 0.708951294 0.851747513 0
vt 0.889268577 0.855163574 0
vt 0.927618146 0.741174757 0
vt 0.995647371 0.77730751 0
vt 0.708951294 0.851747513 0
vt 0.556134582 0.859392047 0
vt 0.661755621 0.799440205 0
vt 0.889268577 0.855163574 0
vt 0.995647371 0.77730751 0
vt 0.98017025 0.877682567 0
vt 0.123838104 0.875617146 0
vt 0.131920412 0.992151678 0
vt 0.0887729526 0.949421644 0
vt 0.653656244 0.900905669 0
vt 0.664691806 0.963022768 0
vt 0.563287735 0.929548383 0
vt 0.556134582 0.859392047 0
vt 0.653656244 0.900905669 0
vt 0.563287735 0.929548383 0
vt 0.752597511 0.938539028 0
vt 0.664691806 0.963022768 0
vt 0.708951294 0.851747513 0
vt 0.889268577 0.855163574 0
vt 0.834017396 0.755073428 0
vt 0.927618146 0.741174757 0
vt 0.759900212 0.840990126 0
vt 0.834017396 0.755073428 0
vt 0.889268577 0.855163574 0
vt 0.0534848608 0.990267575 0
vt 0.020962812 0.954765558 0
vt 0.0887729526 0.949421644 0
vt 0.0887729526 0.949421644 0
vt 0.131920412 0.992151678 0
vt 0.0534848608 0.990267575 0
vt 0.123838104 0.875617146 0
vt 0.18650873 0.914945126 0
vt 0.131920412 0.992151678 0
vt 0.338676482 0.807171822 0
vt 0.338397563 0.73381865 0
vt 0.40697214 0.75183636 0
vt 0.447232753 0.821128547 0
vt 0.473642588 0.735060513 0
vt 0.503917813 0.85600698 0
vt 0.503917813 0.85600698 0
vt 0.409686416 0.904063225 0
vt 0.447232753 0.821128547 0
vt 0.020962812 0.954765558 0
vt 0.0128656933 0.85198462 0
vt 0.0887729526 0.949421644 0
vt 0.338676482 0.807171822 0
vt 0.447232753 0.821128547 0
vt 0.409686416 0.904063225 0
vt 0.871834159 0.905210078 0
vt 0.889268577 0.855163574 0
vt 0.98017025 0.877682567 0
vt 0.551453352 0.825028777 0
vt 0.503917813 0.85600698 0
vt 0.473642588 0.735060513 0
vt 0.794244587 0.907810032 0
vt 0.889268577 0.855163574 0
vt 0.871834159 0.905210078 0
vt 0.40697214 0.75183636 0
vt 0.473642588 0.735060513 0
vt 0.447232753 0.821128547 0
vt 0.40697214 0.75183636 0
vt 0.447232753 0.821128547 0
vt 0.338676482 0.807171822 0
vt 0.409686416 0.904063225 0
vt 0.364137799 0.929085195 0
vt 0.338676482 0.807171822 0
vn 0.424715161 0.767546117 0.566261351
vn -0.344701231 0.0943413004 0.955869675
vn 0.259972215 -0.636918187 0.845888972
vn 0.918981373 -0.164858848 0.476902395
vn 0.424715161 0.767546117 0.566261351
vn 0.259972215 -0.636918187 0.845888972
vn -0.686779499 0.694639742 0.263482034
vn -0.810756564 0.342026412 -0.540059388
vn -0.772371531 -0.667694867 -0.194371983
vn 0.339855045 -0.685299754 -0.753079653
vn -0.0777108222 -0.188773334 -1.00366175
vn 0.832822919 0.296044379 -0.577506006
vn -0.0842444375 0.783462107 -0.762681901
vn -0.810756564 0.342026412 -0.540059388
vn -0.686779499 0.694639742 0.263482034
vn 0.832822919 0.296044379 -0.577506006
vn 0.268238544 0.982027531 0.0432808585
vn 0.424715161 0.767546117 0.566261351
vn -0.686779499 0.694639742 0.263482034
vn -0.772371531 -0.667694867 -0.194371983
vn -0.88195771 -0.210377291 0.581471562
vn 0.832822919 0.296044379 -0.577506006
vn 0.424715161 0.767546117 0.566261351
vn 0.918981373 -0.164858848 0.476902395
vn 0.424715161 0.767546117 0.566261351
vn -0.686779499 0.694639742 0.263482034
vn -0.344701231 0.0943413004 0.955869675
vn -0.810756564 0.342026412 -0.540059388
vn -0.0842444375 0.783462107 -0.762681901
vn -0.0777108222 -0.188773334 -1.00366175
vn -0.772371531 -0.667694867 -0.194371983
vn -0.810756564 0.342026412 -0.540059388
vn -0.0777108222 -0.188773334 -1.00366175
vn 0.268238544 0.982027531 0.0432808585
vn -0.0842444375 0.783462107 -0.762681901
vn -0.686779499 0.694639742 0.263482034
vn 0.832822919 0.296044379 -0.577506006
vn -0.0842444375 0.783462107 -0.762681901
vn 0.268238544 0.982027531 0.0432808585
vn -0.0777108222 -0.188773334 -1.00366175
vn -0.0842444375 0.783462107 -0.762681901
vn 0.832822919 0.296044379 -0.577506006
vn -0.88195771 -0.210377291 0.581471562
vn -0.411803156 -0.561563373 0.749406517
vn -0.344701231 0.0943413004 0.955869675
vn -0.344701231 0.0943413004 0.955869675
vn -0.686779499 0.694639742 0.263482034
vn -0.88195771 -0.210377291 0.581471562
vn 0.424715161 0.767546117 0.566261351
vn 0.268238544 0.982027531 0.0432808585
vn -0.686779499 0.694639742 0.263482034
vn -0.772371531 -0.667694867 -0.194371983
vn -0.0777108222 -0.188773334 -1.00366175
vn 0.339855045 -0.685299754 -0.753079653
vn 0.0124968505 -0.955080569 0.357408404
vn 0.631798804 -0.61859709 -0.535744011
vn 0.259972215 -0.636918187 0.845888972
vn 0.259972215 -0.636918187 0.845888972
vn -0.411803156 -0.561563373 0.749406517
vn 0.0124968505 -0.955080569 0.357408404
vn -0.411803156 -0.561563373 0.749406517
vn 0.259972215 -0.636918187 0.845888972
vn -0.344701231 0.0943413004 0.955869675
vn -0.772371531 -0.667694867 -0.194371983
vn 0.0124968505 -0.955080569 0.357408404
vn -0.411803156 -0.561563373 0.749406517
vn 0.631798804 -0.61859709 -0.535744011
vn 0.832822919 0.296044379 -0.577506006
vn 0.918981373 -0.164858848 0.476902395
vn 0.918981373 -0.164858848 0.476902395
vn 0.259972215 -0.636918187 0.845888972
vn 0.631798804 -0.61859709 -0.535744011
vn 0.339855045 -0.685299754 -0.753079653
vn 0.832822919 0.296044379 -0.577506006
vn 0.631798804 -0.61859709 -0.535744011
vn 0.339855045 -0.685299754 -0.753079653
vn 0.631798804 -0.61859709 -0.535744011
vn 0.0124968505 -0.955080569 0.357408404
vn 0.339855045 -0.685299754 -0.753079653
vn 0.0124968505 -0.955080569 0.357408404
vn -0.772371531 -0.667694867 -0.194371983
vn -0.411803156 -0.561563373 0.749406517
vn -0.88195771 -0.210377291 0.581471562
vn -0.772371531 -0.667694867 -0.194371983
g Scatter_Smooth_03_LOD0
f 3/1/1 8/2/2 9/3/3
f 11/4/4 3/5/5 9/6/6
f 5/7/7 7/8/8 1/9/9
f 13/10/10 12/11/11 2/12/12
f 6/13/13 7/14/14 5/15/15
f 2/16/16 4/17/17 3/18/18
f 5/19/19 1/20/20 10/21/21
f 2/22/22 3/23/23 11/24/24
f 3/25/25 5/26/26 8/27/27
f 7/28/28 6/29/29 12/30/30
f 1/31/31 7/32/32 12/33/33
f 4/34/34 6/35/35 5/36/36
f 2/37/37 6/38/38 4/39/39
f 12/40/40 6/41/41 2/42/42
f 10/43/43 14/44/44 8/45/45
f 8/46/46 5/47/47 10/48/48
f 3/49/49 4/50/50 5/51/51
f 1/52/52 12/53/53 13/54/54
f 15/55/55 16/56/56 9/57/57
f 9/58/58 14/59/59 15/60/60
f 14/61/61 9/62/62 8/63/63
f 1/64/64 15/65/65 14/66/66
f 16/67/67 2/68/68 11/69/69
f 11/70/70 9/71/71 16/72/72
f 13/73/73 2/74/74 16/75/75
f 13/76/76 16/77/77 15/78/78
f 13/79/79 15/80/80 1/81/81
f 14/82/82 10/83/83 1/84/84
