# File exported by Houdini 16.5.405 (www.sidefx.com)
# 11 points
# 54 vertices
# 18 primitives
# Bounds: [-12.2428303, 0.984375775, -16.1126671] to [4.02551365, 13.81141, 7.52243471]
g 
v -5.27186155 13.81141 -7.4457159
v -10.1042843 4.18675041 -14.4598713
v 3.35048532 4.06939507 1.93677723
v 4.02551365 3.84192514 -12.4598598
v -0.154119834 13.4847813 2.17186856
v -2.51926303 7.96462822 7.52243471
v -1.32416022 10.2170725 -14.6433048
v -12.2428303 3.15006804 -0.273879707
v -10.52139 7.68854761 3.72389245
v -1.36650598 1.61047661 6.48877859
v -2.34857798 0.984375775 -16.1126671
vt 0.541209519 0.466246843 0
vt 0.731533468 0.380207509 0
vt 0.806165993 0.442378521 0
vt 0.816259503 0.674515843 0
vt 0.903648317 0.511640251 0
vt 0.911126792 0.626246929 0
vt 0.903648317 0.511640251 0
vt 0.974241078 0.450017571 0
vt 0.999599993 0.641502738 0
vt 0.253966659 0.582195222 0
vt 0.155491412 0.671694696 0
vt 0.00874919724 0.605942786 0
vt 0.541209519 0.466246843 0
vt 0.806165993 0.442378521 0
vt 0.669238746 0.587020099 0
vt 0.816259503 0.674515843 0
vt 0.911126792 0.626246929 0
vt 0.965846896 0.73736167 0
vt 0.999599993 0.641502738 0
vt 0.911126792 0.626246929 0
vt 0.903648317 0.511640251 0
vt 0.669238746 0.587020099 0
vt 0.806165993 0.442378521 0
vt 0.82971698 0.633466661 0
vt 0.541209519 0.466246843 0
vt 0.669238746 0.587020099 0
vt 0.544249177 0.622525334 0
vt 0.219770089 0.463105977 0
vt 0.253966659 0.582195222 0
vt 0.00874919724 0.605942786 0
vt 0.0140128126 0.447886825 0
vt 0.219770089 0.463105977 0
vt 0.00874919724 0.605942786 0
vt 0.937003434 0.383605361 0
vt 0.715839148 0.399709225 0
vt 0.688856423 0.281499982 0
vt 0.999265611 0.202452049 0
vt 0.937003434 0.383605361 0
vt 0.688856423 0.281499982 0
vt 0.707945943 0.166246548 0
vt 0.999265611 0.202452049 0
vt 0.688856423 0.281499982 0
vt 0.999265611 0.202452049 0
vt 0.707945943 0.166246548 0
vt 0.927660823 0.132942051 0
vt 0.253966659 0.582195222 0
vt 0.219770089 0.463105977 0
vt 0.348287642 0.463109225 0
vt 0.911126792 0.626246929 0
vt 0.999599993 0.641502738 0
vt 0.965846896 0.73736167 0
vt 0.541209519 0.466246843 0
vt 0.544249177 0.622525334 0
vt 0.417695731 0.531089425 0
vn -0.845346987 -0.0697840899 -0.652789235
vn -0.754378915 -0.66924578 0.353781551
vn -0.798652649 0.422704458 0.511524081
vn 0.297673702 0.97409451 0.238493934
vn -0.798652649 0.422704458 0.511524081
vn 0.155254036 0.222906217 1.08091044
vn -0.798652649 0.422704458 0.511524081
vn -0.754378915 -0.66924578 0.353781551
vn 0.177284434 -0.896754086 0.542155087
vn 0.189981043 0.839847624 -0.644863307
vn -0.205878019 1.0705241 -0.143733978
vn 0.297673702 0.97409451 0.238493934
vn -0.845346987 -0.0697840899 -0.652789235
vn -0.798652649 0.422704458 0.511524081
vn -0.205878019 1.0705241 -0.143733978
vn 0.297673702 0.97409451 0.238493934
vn 0.155254036 0.222906217 1.08091044
vn 0.914888263 -0.446758598 0.369660765
vn 0.177284434 -0.896754086 0.542155087
vn 0.155254036 0.222906217 1.08091044
vn -0.798652649 0.422704458 0.511524081
vn -0.205878019 1.0705241 -0.143733978
vn -0.798652649 0.422704458 0.511524081
vn 0.297673702 0.97409451 0.238493934
vn -0.845346987 -0.0697840899 -0.652789235
vn -0.205878019 1.0705241 -0.143733978
vn 0.189981043 0.839847624 -0.644863307
vn 1.0328114 -0.174065262 -0.357234746
vn 0.189981043 0.839847624 -0.644863307
vn 0.297673702 0.97409451 0.238493934
vn 0.914888263 -0.446758598 0.369660765
vn 1.0328114 -0.174065262 -0.357234746
vn 0.297673702 0.97409451 0.238493934
vn -0.754378915 -0.66924578 0.353781551
vn -0.845346987 -0.0697840899 -0.652789235
vn 0.0581679568 -0.969660342 -0.47819975
vn 0.177284434 -0.896754086 0.542155087
vn -0.754378915 -0.66924578 0.353781551
vn 0.0581679568 -0.969660342 -0.47819975
vn 1.0328114 -0.174065262 -0.357234746
vn 0.177284434 -0.896754086 0.542155087
vn 0.0581679568 -0.969660342 -0.47819975
vn 0.177284434 -0.896754086 0.542155087
vn 1.0328114 -0.174065262 -0.357234746
vn 0.914888263 -0.446758598 0.369660765
vn 0.189981043 0.839847624 -0.644863307
vn 1.0328114 -0.174065262 -0.357234746
vn 0.0581679568 -0.969660342 -0.47819975
vn 0.155254036 0.222906217 1.08091044
vn 0.177284434 -0.896754086 0.542155087
vn 0.914888263 -0.446758598 0.369660765
vn -0.845346987 -0.0697840899 -0.652789235
vn 0.189981043 0.839847624 -0.644863307
vn 0.0581679568 -0.969660342 -0.47819975
g Scatter_Smooth_04_LOD0
f 2/1/1 8/2/2 9/3/3
f 5/4/4 9/5/5 6/6/6
f 9/7/7 8/8/8 10/9/9
f 7/10/10 1/11/11 5/12/12
f 2/13/13 9/14/14 1/15/15
f 5/16/16 6/17/17 3/18/18
f 10/19/19 6/20/20 9/21/21
f 1/22/22 9/23/23 5/24/24
f 2/25/25 1/26/26 7/27/27
f 4/28/28 7/29/29 5/30/30
f 3/31/31 4/32/32 5/33/33
f 8/34/34 2/35/35 11/36/36
f 10/37/37 8/38/38 11/39/39
f 4/40/40 10/41/41 11/42/42
f 10/43/43 4/44/44 3/45/45
f 7/46/46 4/47/47 11/48/48
f 6/49/49 10/50/50 3/51/51
f 2/52/52 7/53/53 11/54/54
