# File exported by Houdini 16.5.405 (www.sidefx.com)
# 22 points
# 120 vertices
# 40 primitives
# Bounds: [-10.548543, -0.650113165, -18.5698338] to [2.50715518, 12.0227861, 6.30799913]
g 
v -7.60692453 5.20732021 -18.5698338
v -5.8060379 10.1970034 -17.2058239
v -5.28742504 8.59269714 4.70150328
v -1.43840992 8.44481468 4.6264348
v 1.33481395 4.39492369 4.63440323
v 2.22523594 3.21593356 -7.14519262
v 0.875893533 8.11193562 -14.0853243
v -4.40799427 4.63269281 -17.7096329
v 2.50715518 6.11232233 -7.38408804
v -8.84610844 9.88012886 0.243488029
v -9.87554455 2.82402706 -11.5675678
v -10.548543 9.2606535 -4.24470806
v -7.3776207 5.70906782 6.16437626
v -3.98228669 12.0227861 -7.37745714
v -5.34826231 11.7752504 -11.7624836
v 0.624600708 4.10511255 -12.7779083
v -0.852036774 4.51527452 6.30799913
v 1.17593956 2.23638964 0.219275832
v -2.45167708 -0.650113165 -2.3641746
v -3.25014734 1.20444608 -13.3764572
v -8.98110867 2.69544268 0.548166275
v -3.29335332 1.77256274 5.0618639
vt 0.830494344 0.138159558 0
vt 0.749480069 0.0685763583 0
vt 0.8500911 0.0422382317 0
vt 0.749480069 0.0685763583 0
vt 0.830494344 0.138159558 0
vt 0.682146311 0.172044545 0
vt 0.659354866 0.0483168811 0
vt 0.749480069 0.0685763583 0
vt 0.499631733 0.135242477 0
vt 0.650267541 0.00685180072 0
vt 0.740820765 0.0118521154 0
vt 0.749480069 0.0685763583 0
vt 0.299498916 0.449371278 0
vt 0.188474908 0.425282091 0
vt 0.157979086 0.292290568 0
vt 0.0181711931 0.219578937 0
vt 0.0659267381 0.174533188 0
vt 0.119483232 0.241026476 0
vt 0.749480069 0.0685763583 0
vt 0.682146311 0.172044545 0
vt 0.499631733 0.135242477 0
vt 0.332894415 0.37663278 0
vt 0.157979086 0.292290568 0
vt 0.289519161 0.302848786 0
vt 0.450219333 0.0941274837 0
vt 0.484924406 0.0646590739 0
vt 0.499631733 0.135242477 0
vt 0.418402404 0.0856750831 0
vt 0.473678976 0.164942548 0
vt 0.412770271 0.18328169 0
vt 0.682146311 0.172044545 0
vt 0.830494344 0.138159558 0
vt 0.751916826 0.172450468 0
vt 0.8500911 0.0422382317 0
vt 0.749480069 0.0685763583 0
vt 0.740820765 0.0118521154 0
vt 0.289519161 0.302848786 0
vt 0.157979086 0.292290568 0
vt 0.119483232 0.241026476 0
vt 0.650267541 0.00685180072 0
vt 0.749480069 0.0685763583 0
vt 0.659354866 0.0483168811 0
vt 0.255152345 0.240510568 0
vt 0.119483232 0.241026476 0
vt 0.0659267381 0.174533188 0
vt 0.499631733 0.135242477 0
vt 0.484924406 0.0646590739 0
vt 0.659354866 0.0483168811 0
vt 0.157979086 0.292290568 0
vt 0.0181711931 0.219578937 0
vt 0.119483232 0.241026476 0
vt 0.484924406 0.0646590739 0
vt 0.650267541 0.00685180072 0
vt 0.659354866 0.0483168811 0
vt 0.255152345 0.240510568 0
vt 0.289519161 0.302848786 0
vt 0.119483232 0.241026476 0
vt 0.299498916 0.449371278 0
vt 0.157979086 0.292290568 0
vt 0.332894415 0.37663278 0
vt 0.488052577 0.190313563 0
vt 0.450219333 0.0941274837 0
vt 0.499631733 0.135242477 0
vt 0.650267541 0.00685180072 0
vt 0.484924406 0.0646590739 0
vt 0.538372457 0.0156545956 0
vt 0.682146311 0.172044545 0
vt 0.488052577 0.190313563 0
vt 0.499631733 0.135242477 0
vt 0.299498916 0.449371278 0
vt 0.332894415 0.37663278 0
vt 0.340228558 0.47437945 0
vt 0.412770271 0.18328169 0
vt 0.312327117 0.192808107 0
vt 0.374828249 0.114474393 0
vt 0.374828249 0.114474393 0
vt 0.276653737 0.0915517062 0
vt 0.400367707 0.0467627719 0
vt 0.400367707 0.0467627719 0
vt 0.276653737 0.0915517062 0
vt 0.324872553 0.0345514901 0
vt 0.0148650734 0.144270331 0
vt 0.119706497 0.0869137421 0
vt 0.132298872 0.191823646 0
vt 0.0445976518 0.314870596 0
vt 0.0181711931 0.219578937 0
vt 0.157979086 0.292290568 0
vt 0.132298872 0.191823646 0
vt 0.276653737 0.0915517062 0
vt 0.312327117 0.192808107 0
vt 0.188474908 0.425282091 0
vt 0.0445976518 0.314870596 0
vt 0.157979086 0.292290568 0
vt 0.132298872 0.191823646 0
vt 0.119706497 0.0869137421 0
vt 0.276653737 0.0915517062 0
vt 0.119498402 0.0135955671 0
vt 0.214660853 0.00045772572 0
vt 0.119706497 0.0869137421 0
vt 0.0335215963 0.0930448398 0
vt 0.119706497 0.0869137421 0
vt 0.0148650734 0.144270331 0
vt 0.119706497 0.0869137421 0
vt 0.214660853 0.00045772572 0
vt 0.276653737 0.0915517062 0
vt 0.374828249 0.114474393 0
vt 0.312327117 0.192808107 0
vt 0.276653737 0.0915517062 0
vt 0.324872553 0.0345514901 0
vt 0.276653737 0.0915517062 0
vt 0.214660853 0.00045772572 0
vt 0.412770271 0.18328169 0
vt 0.374828249 0.114474393 0
vt 0.418402404 0.0856750831 0
vt 0.418402404 0.0856750831 0
vt 0.374828249 0.114474393 0
vt 0.400367707 0.0467627719 0
vt 0.0335215963 0.0930448398 0
vt 0.119498402 0.0135955671 0
vt 0.119706497 0.0869137421 0
vn -0.104067594 0.865668237 -0.574883401
vn 0.839214027 0.388624519 -0.491818011
vn 0.456885517 -0.462109178 -0.866161704
vn 0.839214027 0.388624519 -0.491818011
vn -0.104067594 0.865668237 -0.574883401
vn 0.159610271 1.00245118 0.0627737492
vn 0.919583559 0.420745999 0.0373996347
vn 0.839214027 0.388624519 -0.491818011
vn 0.580584824 0.791331708 0.339975476
vn 0.854971647 -0.552357316 -0.112284422
vn 0.734624267 -0.522123456 -0.472132057
vn 0.839214027 0.388624519 -0.491818011
vn -0.778142512 -0.122499615 -0.638384104
vn -0.858281076 -0.548655331 -0.110416919
vn -0.985844135 0.352487862 0.00822852645
vn -0.694886446 -0.175452545 0.7489537
vn -0.10481023 0.887832642 0.529882073
vn -0.47004962 0.901155531 0.249489635
vn 0.839214027 0.388624519 -0.491818011
vn 0.159610271 1.00245118 0.0627737492
vn 0.580584824 0.791331708 0.339975476
vn -0.104067594 0.865668237 -0.574883401
vn -0.985844135 0.352487862 0.00822852645
vn -0.0743472129 1.03375375 -0.124977209
vn 0.406003624 -0.122587301 0.941543519
vn 0.92895627 -0.062295191 0.409502596
vn 0.580584824 0.791331708 0.339975476
vn 0.406003624 -0.122587301 0.941543519
vn -0.10481023 0.887832642 0.529882073
vn -0.694886446 -0.175452545 0.7489537
vn 0.159610271 1.00245118 0.0627737492
vn -0.104067594 0.865668237 -0.574883401
vn -0.0743472129 1.03375375 -0.124977209
vn 0.456885517 -0.462109178 -0.866161704
vn 0.839214027 0.388624519 -0.491818011
vn 0.734624267 -0.522123456 -0.472132057
vn -0.0743472129 1.03375375 -0.124977209
vn -0.985844135 0.352487862 0.00822852645
vn -0.47004962 0.901155531 0.249489635
vn 0.854971647 -0.552357316 -0.112284422
vn 0.839214027 0.388624519 -0.491818011
vn 0.919583559 0.420745999 0.0373996347
vn 0.159610271 1.00245118 0.0627737492
vn -0.47004962 0.901155531 0.249489635
vn -0.10481023 0.887832642 0.529882073
vn 0.580584824 0.791331708 0.339975476
vn 0.92895627 -0.062295191 0.409502596
vn 0.919583559 0.420745999 0.0373996347
vn -0.985844135 0.352487862 0.00822852645
vn -0.694886446 -0.175452545 0.7489537
vn -0.47004962 0.901155531 0.249489635
vn 0.92895627 -0.062295191 0.409502596
vn 0.854971647 -0.552357316 -0.112284422
vn 0.919583559 0.420745999 0.0373996347
vn 0.159610271 1.00245118 0.0627737492
vn -0.0743472129 1.03375375 -0.124977209
vn -0.47004962 0.901155531 0.249489635
vn -0.778142512 -0.122499615 -0.638384104
vn -0.985844135 0.352487862 0.00822852645
vn -0.104067594 0.865668237 -0.574883401
vn -0.10481023 0.887832642 0.529882073
vn 0.406003624 -0.122587301 0.941543519
vn 0.580584824 0.791331708 0.339975476
vn 0.854971647 -0.552357316 -0.112284422
vn 0.92895627 -0.062295191 0.409502596
vn 0.835035324 -0.545528591 0.112441145
vn 0.159610271 1.00245118 0.0627737492
vn -0.10481023 0.887832642 0.529882073
vn 0.580584824 0.791331708 0.339975476
vn -0.778142512 -0.122499615 -0.638384104
vn -0.104067594 0.865668237 -0.574883401
vn 0.456885517 -0.462109178 -0.866161704
vn -0.694886446 -0.175452545 0.7489537
vn -0.734390557 -0.680573821 0.210771099
vn -0.0941453651 -0.848877132 0.572590053
vn -0.0941453651 -0.848877132 0.572590053
vn 0.0634646341 -1.01337457 0.0385420546
vn 0.92895627 -0.062295191 0.409502596
vn 0.92895627 -0.062295191 0.409502596
vn 0.0634646341 -1.01337457 0.0385420546
vn 0.835035324 -0.545528591 0.112441145
vn -0.778142512 -0.122499615 -0.638384104
vn 0.319223434 -0.898729503 -0.395395398
vn -0.858281076 -0.548655331 -0.110416919
vn -0.734390557 -0.680573821 0.210771099
vn -0.694886446 -0.175452545 0.7489537
vn -0.985844135 0.352487862 0.00822852645
vn -0.858281076 -0.548655331 -0.110416919
vn 0.0634646341 -1.01337457 0.0385420546
vn -0.734390557 -0.680573821 0.210771099
vn -0.858281076 -0.548655331 -0.110416919
vn -0.734390557 -0.680573821 0.210771099
vn -0.985844135 0.352487862 0.00822852645
vn -0.858281076 -0.548655331 -0.110416919
vn 0.319223434 -0.898729503 -0.395395398
vn 0.0634646341 -1.01337457 0.0385420546
vn 0.734624267 -0.522123456 -0.472132057
vn 0.854971647 -0.552357316 -0.112284422
vn 0.319223434 -0.898729503 -0.395395398
vn 0.456885517 -0.462109178 -0.866161704
vn 0.319223434 -0.898729503 -0.395395398
vn -0.778142512 -0.122499615 -0.638384104
vn 0.319223434 -0.898729503 -0.395395398
vn 0.854971647 -0.552357316 -0.112284422
vn 0.0634646341 -1.01337457 0.0385420546
vn -0.0941453651 -0.848877132 0.572590053
vn -0.734390557 -0.680573821 0.210771099
vn 0.0634646341 -1.01337457 0.0385420546
vn 0.835035324 -0.545528591 0.112441145
vn 0.0634646341 -1.01337457 0.0385420546
vn 0.854971647 -0.552357316 -0.112284422
vn -0.694886446 -0.175452545 0.7489537
vn -0.0941453651 -0.848877132 0.572590053
vn 0.406003624 -0.122587301 0.941543519
vn 0.406003624 -0.122587301 0.941543519
vn -0.0941453651 -0.848877132 0.572590053
vn 0.92895627 -0.062295191 0.409502596
vn 0.456885517 -0.462109178 -0.866161704
vn 0.734624267 -0.522123456 -0.472132057
vn 0.319223434 -0.898729503 -0.395395398
g Scatter_Smooth_01_LOD0
f 2/1/1 7/2/2 8/3/3
f 7/4/4 2/5/5 14/6/6
f 9/7/7 7/8/8 4/9/9
f 6/10/10 16/11/11 7/12/12
f 1/13/13 11/14/14 12/15/15
f 13/16/16 3/17/17 10/18/18
f 7/19/19 14/20/20 4/21/21
f 2/22/22 12/23/23 15/24/24
f 17/25/25 5/26/26 4/27/27
f 17/28/28 3/29/29 13/30/30
f 14/31/31 2/32/32 15/33/33
f 8/34/34 7/35/35 16/36/36
f 15/37/37 12/38/38 10/39/39
f 6/40/40 7/41/41 9/42/42
f 14/43/43 10/44/44 3/45/45
f 4/46/46 5/47/47 9/48/48
f 12/49/49 13/50/50 10/51/51
f 5/52/52 6/53/53 9/54/54
f 14/55/55 15/56/56 10/57/57
f 1/58/58 12/59/59 2/60/60
f 3/61/61 17/62/62 4/63/63
f 6/64/64 5/65/65 18/66/66
f 14/67/67 3/68/68 4/69/69
f 1/70/70 2/71/71 8/72/72
f 13/73/73 21/74/74 22/75/75
f 22/76/76 19/77/77 5/78/78
f 5/79/79 19/80/80 18/81/81
f 1/82/82 20/83/83 11/84/84
f 21/85/85 13/86/86 12/87/87
f 11/88/88 19/89/89 21/90/90
f 11/91/91 21/92/92 12/93/93
f 11/94/94 20/95/95 19/96/96
f 16/97/97 6/98/98 20/99/99
f 8/100/100 20/101/101 1/102/102
f 20/103/103 6/104/104 19/105/105
f 22/106/106 21/107/107 19/108/108
f 18/109/109 19/110/110 6/111/111
f 13/112/112 22/113/113 17/114/114
f 17/115/115 22/116/116 5/117/117
f 8/118/118 16/119/119 20/120/120
