# 3ds Max Wavefront OBJ Exporter v0.97b - (c)2007 guruware
# File Created: 11.07.2018 19:06:58

#
# object Scatter_Smooth_01_LOD0
#

v  -7.9804 9.2502 -14.7124
v  -6.8578 10.0980 -15.4283
v  -7.3399 8.9566 -16.3420
v  -5.3260 9.3432 3.0532
v  -3.1100 9.2088 3.3324
v  -4.0846 10.1254 1.2612
v  1.8147 4.1745 1.4164
v  1.7208 3.3747 0.1578
v  2.5010 4.4847 -6.5395
v  -4.8452 8.8834 -17.6077
v  -3.5595 8.3765 -17.2312
v  -4.9357 7.9000 -18.1861
v  -0.0174 7.3336 2.6627
v  2.2479 6.1535 -5.7193
v  -1.5626 10.3383 -5.0854
v  -5.1419 10.4184 0.2785
v  -6.8445 10.4921 -1.1598
v  -6.9917 9.7039 1.3216
v  -10.1835 5.0019 -8.0484
v  -10.3126 6.2778 -4.1575
v  -10.2166 8.3271 -4.2643
v  -9.0888 6.4404 2.3420
v  -9.9407 8.0127 -0.7536
v  -10.1853 5.4845 -2.5718
v  -1.5732 10.3576 -13.0105
v  -2.8497 11.1638 -12.0760
v  -1.7247 10.8503 -11.2858
v  -5.4522 10.9331 -14.5852
v  -6.3333 11.3188 -12.0859
v  -5.0865 11.6475 -10.8173
v  0.1484 5.4105 -14.2427
v  0.5778 4.2821 -12.7536
v  -1.5365 3.8019 -14.7389
v  1.2793 8.0545 -10.6362
v  -0.0387 9.5875 -11.0579
v  1.5817 4.6405 -11.1358
v  1.2263 5.6350 -12.6454
v  -5.7504 11.1452 -3.0110
v  -7.4613 11.0952 -5.7727
v  -7.5359 10.7298 -3.1503
v  -9.4767 8.3062 -10.4008
v  -9.8771 6.6612 -9.7780
v  -9.7049 9.3743 -7.6161
v  -9.0232 5.5925 -14.3995
v  -0.6300 7.6819 3.4062
v  -1.5065 9.6016 -1.1876
v  -1.9280 8.4460 3.8739
v  -4.4095 5.6157 -17.8783
v  -4.1666 7.2940 -17.9529
v  -2.4865 6.6680 -16.8669
v  0.4875 8.8939 -12.2464
v  1.2446 7.7894 -11.8460
v  0.4982 7.7299 -13.6866
v  -1.9294 9.0494 -15.5167
v  -3.3599 10.1716 -15.2065
v  -1.0403 9.7440 -13.6080
v  -9.1388 8.9753 0.5175
v  -9.3972 8.1549 1.0997
v  -8.5191 8.2554 2.9250
v  -6.6407 7.4376 5.5125
v  -5.0226 7.7379 5.6592
v  -6.0624 8.4673 4.5092
v  -8.5723 7.6348 -14.7310
v  -7.9039 7.7723 -16.3776
v  -6.6517 5.9149 -18.4261
v  -7.8128 5.9739 -17.4504
v  -6.7542 7.4451 -18.1645
v  -1.4256 10.6777 -9.9395
v  -4.5161 11.6289 -5.7024
v  -5.8333 11.5373 -6.1995
v  -8.3719 9.9361 -12.4849
v  -7.1543 10.8071 -12.8664
v  -8.3925 10.5167 -10.3046
v  -9.3893 9.9802 -7.1096
v  -8.4325 10.7411 -7.3521
v  -0.6938 4.2592 5.8604
v  0.3830 4.9521 5.0338
v  -0.8331 5.6865 6.0137
v  -2.6542 11.4289 -8.4222
v  -3.1815 11.4468 -5.8828
v  -3.1701 10.2525 0.4233
v  1.8234 5.0735 1.0747
v  2.4994 5.5185 -6.1143
v  1.4068 6.7123 -12.2659
v  2.1035 5.0326 -9.7744
v  -8.3077 9.0897 1.7309
v  -8.3513 9.8639 -0.7268
v  -9.5018 9.8096 -4.4070
v  -8.5824 10.3814 -3.8060
v  -5.8412 8.3890 -18.1119
v  -5.8849 7.1147 -18.5026
v  0.5659 6.5735 -13.9786
v  -1.8063 7.7556 -16.2666
v  -2.9029 5.7937 6.5283
v  -4.6804 6.9347 6.2428
v  -4.8118 5.8797 6.4922
v  -1.2234 6.9517 5.4552
v  -8.5232 7.3544 3.6192
v  -7.4492 6.8563 5.3604
v  -7.7431 7.9625 4.2449
v  1.1279 5.9852 2.3840
v  -0.1676 5.9605 5.2308
v  0.0839 6.7626 3.8328
v  -2.3578 7.7928 5.1959
v  -3.9534 8.4399 4.8373
v  -4.4167 11.2893 -12.9645
v  -4.1454 9.4111 -16.8062
v  2.4532 5.5064 -7.9870
v  1.8515 7.0618 -9.4465
v  -5.5914 6.3464 -18.4948
v  -5.8168 4.9581 -18.1436
v  -4.9484 10.2643 -16.0272
v  -5.4574 9.4267 -17.2776
v  -6.4268 9.0417 -17.3504
v  -5.9641 9.8895 -16.6101
v  -10.1295 8.2988 -2.1389
v  -9.3882 9.4397 -1.7243
v  -3.8869 11.7471 -7.7920
v  -3.2225 11.5640 -9.9209
v  1.2587 4.7300 3.5689
v  1.0051 3.9115 3.8471
v  1.2248 2.9385 1.9344
v  -0.3779 7.6475 -14.9083
v  -0.8674 6.6033 -15.6122
v  -1.9032 5.0707 -15.9590
v  -6.5465 11.5184 -8.7123
v  -7.4084 11.1397 -10.2435
v  -0.8029 8.4543 -14.9019
v  -4.4976 11.1939 -2.7561
v  1.8505 6.6168 -10.6065
v  1.7041 2.8600 -2.3948
v  2.0422 3.4303 -6.3068
v  -6.2901 6.3548 6.1360
v  -4.9727 11.7519 -8.2217
v  -7.1703 8.0609 -17.3793
v  -2.9628 7.4736 5.7553
v  -2.3254 6.4557 6.2840
v  -0.0780 8.7901 -13.5507
v  -0.4278 9.9200 -11.8700
v  0.6746 5.5741 4.2488
v  -8.4651 6.3080 -15.8940
v  2.3021 4.1952 -7.9605
v  -7.0436 8.8528 3.2791
v  -9.7681 8.7766 -0.9682
v  -9.9206 9.2792 -3.9578
v  -0.0191 3.4459 4.9521
v  -8.9638 9.1601 -11.7304
v  -9.0592 9.9827 -9.5600
v  -3.7093 10.7571 -14.3024
v  -6.1763 10.5976 -15.0679
v  -3.8070 11.4188 -4.4325
v  -2.9067 11.0160 -4.0043
v  2.4782 4.8934 -5.2324
v  -3.6781 10.8195 -1.2376
v  1.8767 3.8918 -9.3384
v  -7.2068 5.9460 5.6700
v  -8.2228 6.3424 4.3785
v  -1.5523 5.1844 6.3678
v  1.6722 3.0488 -7.9372
v  -4.4259 0.0731 -7.2441
v  -8.3727 1.8376 -5.9115
v  -7.7131 1.7878 -11.5749
v  -1.5608 2.6894 -13.5109
v  -0.3467 2.5618 -11.5575
v  -2.4338 1.5705 -12.7341
v  -2.8347 3.9934 6.4819
v  -7.1622 3.6705 4.0132
v  -7.1691 2.4230 2.2862
v  -5.5162 2.1786 3.7879
v  -0.9175 0.6345 -4.8354
v  1.0344 2.3748 -8.0814
v  0.5022 1.4445 -3.4233
v  -4.3548 0.0302 -5.1237
v  -4.9858 0.6933 0.0589
v  -7.1765 1.6672 -0.0166
v  -3.1086 -0.0401 -1.3482
v  -3.6843 -0.0972 -3.2990
v  -1.8116 1.8718 4.4049
v  -1.3883 1.1334 2.6155
v  -0.2505 2.2818 3.7710
v  1.4979 2.4889 -4.7149
v  -6.3186 1.3299 -12.8559
v  -5.0769 1.5526 -13.9665
v  -4.6224 0.7455 -11.6243
v  -1.7292 3.6797 6.1737
v  -7.8853 4.8153 -17.0197
v  -7.2334 3.7894 -16.9680
v  -8.1590 3.1299 -15.2481
v  -9.7895 3.8128 -10.6790
v  -9.3517 3.1274 -11.0324
v  -9.6715 3.0677 -7.7794
v  -9.4799 4.5965 -12.6705
v  -8.5808 5.2497 -15.8599
v  -8.8021 3.7644 -14.4906
v  -2.6126 1.2042 3.4433
v  -5.2414 3.4399 5.5519
v  0.5827 2.4423 2.8945
v  -0.2435 1.1643 1.2749
v  0.9150 1.9705 0.4777
v  -3.0560 3.9761 -16.2085
v  -6.1527 3.5600 -17.2548
v  -5.9606 2.3945 -15.6320
v  -7.0603 2.3509 -15.1653
v  -9.1467 4.3523 1.1537
v  -10.2454 4.9345 -5.5656
v  -9.9256 3.8114 -5.0109
v  -9.5638 3.8119 -1.5370
v  -3.4152 -0.2076 -6.4066
v  -2.4870 0.0889 -6.9980
v  -2.1840 -0.0858 -3.9675
v  -4.3636 0.2475 -9.3035
v  -7.7529 5.2186 4.7485
v  -8.6827 5.2485 3.0583
v  -1.2686 1.4146 -10.3610
v  1.2172 3.4496 -10.3944
v  -6.4746 4.7580 5.7759
v  -4.2139 3.6488 6.2648
v  -5.8905 5.2641 6.2691
v  -4.5359 3.8421 -17.1299
v  -4.6570 2.5310 -15.7718
v  -8.4913 3.5196 2.0210
v  -8.1887 2.3082 0.1944
v  -8.9374 2.9962 -0.1833
v  -8.9061 2.3709 -3.8299
v  -0.8149 0.4739 -2.1543
v  -3.5410 0.9728 2.9517
v  -3.1851 0.3121 0.5924
v  -1.9895 0.3692 0.7469
v  -3.2145 2.5884 -15.1027
v  -3.7279 1.6216 -13.8053
v  -8.8427 2.4968 -10.7835
v  -1.3286 2.7819 5.2785
v  -2.7250 2.9262 5.9602
v  -4.1153 2.8914 5.7152
v  -4.0930 1.8767 4.4454
v  -3.0406 2.1181 5.1001
v  -3.4195 0.1413 -9.1726
v  -1.4639 0.6839 -7.3971
v  -1.8063 0.0924 -1.4134
v  -0.6360 0.6723 -0.2417
v  0.2769 1.1880 -0.7038
v  -6.9895 5.1937 -18.0893
v  -4.5865 1.4149 3.2615
v  -6.2150 1.6194 1.8913
v  -4.7623 0.8509 1.5435
v  -9.2565 2.5299 -7.0311
v  -2.4147 0.7439 -10.3267
v  -3.4520 0.7822 -11.7123
v  1.1022 1.9589 -1.9404
v  -10.0593 4.1282 -8.2178
v  -9.8931 4.6506 -10.4977
v  -4.6135 4.6449 6.4518
v  -2.8256 -0.2153 -3.3929
v  -7.8827 2.1401 -13.3753
v  -6.4986 1.1680 -11.1246
v  -8.8593 2.9985 -13.1518
v  -9.3644 2.9379 -3.5886
# 257 vertices

vn -0.8050 0.4314 -0.4073
vn -0.5514 0.6680 -0.4997
vn -0.7187 0.4433 -0.5357
vn -0.0999 0.9581 0.2683
vn 0.2151 0.9404 0.2633
vn 0.0489 0.9817 0.1841
vn 0.9709 -0.1150 0.2100
vn 0.9272 -0.3408 0.1555
vn 0.9786 -0.2051 0.0147
vn 0.2777 0.4348 -0.8567
vn 0.4937 0.2835 -0.8221
vn 0.2888 0.1404 -0.9470
vn 0.7191 0.6905 0.0786
vn 0.8686 0.4955 0.0040
vn 0.6366 0.7711 -0.0084
vn -0.0947 0.9861 0.1363
vn -0.2443 0.9653 0.0921
vn -0.2487 0.9516 0.1806
vn -0.9970 -0.0385 -0.0674
vn -0.9998 -0.0047 0.0184
vn -0.9846 0.1694 -0.0434
vn -0.9472 0.0181 0.3202
vn -0.9702 0.1409 0.1971
vn -0.9820 -0.1171 0.1483
vn 0.4605 0.7763 -0.4305
vn 0.2880 0.8932 -0.3454
vn 0.4671 0.8497 -0.2447
vn -0.0581 0.8871 -0.4580
vn -0.2495 0.9174 -0.3101
vn -0.0393 0.9661 -0.2553
vn 0.7287 -0.4048 -0.5525
vn 0.7278 -0.5674 -0.3852
vn 0.5986 -0.6227 -0.5039
vn 0.8352 0.5392 -0.1085
vn 0.7072 0.7010 -0.0922
vn 0.8792 -0.3735 -0.2959
vn 0.8867 -0.2420 -0.3940
vn -0.1539 0.9879 0.0203
vn -0.3340 0.9403 -0.0661
vn -0.3187 0.9477 0.0149
vn -0.9584 0.1798 -0.2217
vn -0.9814 0.0917 -0.1686
vn -0.9312 0.3265 -0.1619
vn -0.9629 0.0279 -0.2683
vn 0.6172 0.7650 0.1839
vn 0.6189 0.7846 0.0374
vn 0.4564 0.8512 0.2591
vn 0.4376 -0.3877 -0.8113
vn 0.4668 -0.0604 -0.8823
vn 0.5739 -0.2048 -0.7929
vn 0.7707 0.5487 -0.3239
vn 0.8905 0.3427 -0.2994
vn 0.8196 0.2480 -0.5165
vn 0.5355 0.4969 -0.6829
vn 0.3805 0.7058 -0.5976
vn 0.5690 0.6421 -0.5137
vn -0.6887 0.7012 0.1844
vn -0.9050 0.3228 0.2772
vn -0.7000 0.6214 0.3519
vn -0.3330 0.6812 0.6519
vn -0.0846 0.7836 0.6154
vn -0.1950 0.8925 0.4066
vn -0.9249 0.1995 -0.3237
vn -0.8532 0.2340 -0.4662
vn -0.3284 -0.2511 -0.9105
vn -0.7979 -0.0590 -0.5999
vn -0.5242 0.1465 -0.8389
vn 0.5878 0.8030 -0.0982
vn 0.0004 0.9984 -0.0567
vn -0.1716 0.9827 -0.0702
vn -0.7602 0.5508 -0.3446
vn -0.4914 0.7925 -0.3612
vn -0.6280 0.7338 -0.2591
vn -0.7556 0.6397 -0.1407
vn -0.5139 0.8464 -0.1399
vn 0.5316 -0.0920 0.8420
vn 0.7688 0.1386 0.6242
vn 0.5180 0.3613 0.7754
vn 0.4223 0.8995 -0.1119
vn 0.3548 0.9339 -0.0445
vn 0.3439 0.9321 0.1142
vn 0.9552 0.2731 0.1145
vn 0.9807 0.1950 -0.0120
vn 0.9324 0.0599 -0.3564
vn 0.9631 -0.1574 -0.2185
vn -0.4670 0.8543 0.2282
vn -0.4281 0.8985 0.0974
vn -0.6770 0.7340 -0.0542
vn -0.4867 0.8734 -0.0143
vn -0.1280 0.3376 -0.9325
vn -0.0384 -0.0064 -0.9992
vn 0.8287 -0.0726 -0.5549
vn 0.6069 0.1405 -0.7823
vn 0.0665 0.2855 0.9561
vn -0.0558 0.5603 0.8264
vn -0.1034 0.2507 0.9625
vn 0.4931 0.6995 0.5173
vn -0.8545 0.2941 0.4282
vn -0.6437 0.3801 0.6642
vn -0.5494 0.6989 0.4580
vn 0.8432 0.5214 0.1312
vn 0.6947 0.5165 0.5007
vn 0.7188 0.6475 0.2532
vn 0.3072 0.8272 0.4705
vn 0.0576 0.8980 0.4363
vn 0.0900 0.9273 -0.3634
vn 0.3671 0.5663 -0.7380
vn 0.9893 0.0990 -0.1070
vn 0.9115 0.3982 -0.1031
vn 0.1861 -0.2572 -0.9483
vn 0.0978 -0.5515 -0.8284
vn 0.1292 0.7700 -0.6248
vn 0.0162 0.6053 -0.7959
vn -0.4511 0.5055 -0.7355
vn -0.2449 0.7102 -0.6600
vn -0.9735 0.2155 0.0768
vn -0.6569 0.7519 0.0557
vn 0.1268 0.9830 -0.1328
vn 0.2288 0.9458 -0.2306
vn 0.9278 0.1393 0.3460
vn 0.8435 -0.2269 0.4868
vn 0.8610 -0.4123 0.2979
vn 0.7313 0.1483 -0.6657
vn 0.6790 -0.1738 -0.7133
vn 0.5889 -0.4593 -0.6650
vn -0.2594 0.9523 -0.1609
vn -0.4213 0.8766 -0.2325
vn 0.6576 0.3865 -0.6467
vn 0.0067 0.9994 0.0332
vn 0.9642 0.1495 -0.2191
vn 0.8963 -0.4284 0.1143
vn 0.8782 -0.4760 0.0464
vn -0.3312 0.3389 0.8806
vn -0.0684 0.9857 -0.1538
vn -0.7142 0.2933 -0.6355
vn 0.1642 0.7487 0.6422
vn 0.2226 0.5364 0.8141
vn 0.7113 0.4845 -0.5092
vn 0.6316 0.7284 -0.2655
vn 0.8245 0.4401 0.3557
vn -0.9222 0.0972 -0.3742
vn 0.9419 -0.3253 -0.0837
vn -0.2950 0.9080 0.2974
vn -0.8573 0.4981 0.1302
vn -0.8685 0.4950 -0.0260
vn 0.6281 -0.3537 0.6931
vn -0.9134 0.2964 -0.2791
vn -0.8110 0.5353 -0.2359
vn 0.2668 0.8308 -0.4885
vn -0.3009 0.8192 -0.4883
vn 0.1837 0.9830 -0.0068
vn 0.4458 0.8950 0.0119
vn 0.9960 -0.0284 0.0844
vn 0.2045 0.9767 0.0655
vn 0.8671 -0.4671 -0.1728
vn -0.6333 0.0324 0.7732
vn -0.8585 0.0617 0.5092
vn 0.2935 0.1716 0.9404
vn 0.7988 -0.5997 -0.0475
vn -0.3113 -0.9450 0.1003
vn -0.5238 -0.8391 0.1466
vn -0.4935 -0.8685 0.0473
vn 0.5751 -0.7317 -0.3658
vn 0.6083 -0.7558 -0.2422
vn 0.4384 -0.8610 -0.2578
vn 0.0564 -0.0806 0.9952
vn -0.6108 -0.5017 0.6125
vn -0.5678 -0.6482 0.5075
vn -0.4654 -0.6511 0.5995
vn 0.5050 -0.8621 0.0412
vn 0.6454 -0.7620 -0.0533
vn 0.6255 -0.7772 0.0685
vn -0.3309 -0.9277 0.1727
vn -0.3496 -0.8985 0.2653
vn -0.4633 -0.8438 0.2708
vn -0.0879 -0.9565 0.2783
vn -0.2483 -0.9450 0.2129
vn 0.2704 -0.7169 0.6426
vn 0.3124 -0.8138 0.4900
vn 0.5074 -0.6446 0.5719
vn 0.7821 -0.6197 0.0655
vn -0.2697 -0.9590 -0.0870
vn -0.0199 -0.9705 -0.2405
vn -0.0868 -0.9917 -0.0953
vn 0.3133 -0.2416 0.9184
vn -0.7676 -0.3840 -0.5131
vn -0.4880 -0.6885 -0.5365
vn -0.6867 -0.6461 -0.3332
vn -0.9449 -0.3138 -0.0932
vn -0.8156 -0.5773 -0.0404
vn -0.8560 -0.5147 0.0485
vn -0.9706 -0.1078 -0.2152
vn -0.9210 -0.1357 -0.3650
vn -0.8951 -0.3522 -0.2734
vn 0.0967 -0.8269 0.5540
vn -0.4546 -0.5009 0.7365
vn 0.6944 -0.5653 0.4453
vn 0.5044 -0.7798 0.3708
vn 0.7667 -0.5950 0.2411
vn 0.5212 -0.5865 -0.6200
vn -0.0859 -0.7862 -0.6120
vn -0.0802 -0.9275 -0.3651
vn -0.3388 -0.8945 -0.2916
vn -0.9270 -0.2132 0.3087
vn -0.9889 -0.1451 0.0327
vn -0.9303 -0.3499 0.1102
vn -0.9233 -0.3261 0.2031
vn -0.0029 -0.9951 0.0993
vn 0.3522 -0.9356 0.0245
vn 0.3159 -0.9426 0.1079
vn -0.1999 -0.9797 0.0179
vn -0.7575 -0.2453 0.6050
vn -0.8911 -0.1579 0.4254
vn 0.5289 -0.8404 -0.1182
vn 0.7333 -0.6412 -0.2261
vn -0.5338 -0.3108 0.7864
vn -0.2208 -0.2944 0.9298
vn -0.3384 -0.0216 0.9408
vn 0.3423 -0.6628 -0.6660
vn 0.1741 -0.8802 -0.4416
vn -0.7677 -0.4452 0.4609
vn -0.6187 -0.7141 0.3274
vn -0.8157 -0.5059 0.2806
vn -0.6583 -0.7276 0.1928
vn 0.4732 -0.8712 0.1306
vn -0.1091 -0.8586 0.5010
vn -0.0953 -0.9288 0.3582
vn 0.1810 -0.9097 0.3737
vn 0.4227 -0.7869 -0.4496
vn 0.2183 -0.9301 -0.2955
vn -0.6651 -0.7463 0.0263
vn 0.3749 -0.5451 0.7499
vn 0.0839 -0.4835 0.8713
vn -0.2704 -0.5547 0.7869
vn -0.2665 -0.7136 0.6479
vn -0.0013 -0.6926 0.7213
vn 0.1251 -0.9919 -0.0207
vn 0.4903 -0.8715 -0.0094
vn 0.2534 -0.9377 0.2377
vn 0.4325 -0.8625 0.2629
vn 0.6201 -0.7625 0.1843
vn -0.4466 -0.4593 -0.7678
vn -0.3380 -0.7783 0.5292
vn -0.4577 -0.7777 0.4310
vn -0.3122 -0.8727 0.3754
vn -0.7068 -0.7000 0.1023
vn 0.4010 -0.9115 -0.0909
vn 0.1843 -0.9702 -0.1574
vn 0.7673 -0.6294 0.1228
vn -0.9690 -0.2470 -0.0084
vn -0.9885 -0.0393 -0.1463
vn -0.1523 -0.0035 0.9883
vn 0.0452 -0.9806 0.1909
vn -0.5366 -0.8390 -0.0902
vn -0.3871 -0.9195 0.0681
vn -0.8031 -0.5813 -0.1307
vn -0.8322 -0.5273 0.1716
# 257 vertex normals

vt 0.2823 0.3719 0.0000
vt 0.3039 0.3650 0.0000
vt 0.3024 0.3872 0.0000
vt 0.5180 0.1937 0.0000
vt 0.5173 0.1591 0.0000
vt 0.5498 0.1769 0.0000
vt 0.5299 0.0492 0.0000
vt 0.5443 0.0334 0.0000
vt 0.6437 0.0280 0.0000
vt 0.8328 0.1098 0.0000
vt 0.8177 0.0942 0.0000
vt 0.8441 0.0960 0.0000
vt 0.5228 0.1055 0.0000
vt 0.6367 0.0543 0.0000
vt 0.6412 0.1350 0.0000
vt 0.1398 0.1935 0.0000
vt 0.1490 0.2269 0.0000
vt 0.1124 0.2152 0.0000
vt 0.1654 0.3698 0.0000
vt 0.1330 0.3216 0.0000
vt 0.1517 0.3007 0.0000
vt 0.0662 0.2573 0.0000
vt 0.1130 0.2731 0.0000
vt 0.1087 0.3161 0.0000
vt 0.7490 0.1119 0.0000
vt 0.7432 0.1351 0.0000
vt 0.7279 0.1235 0.0000
vt 0.3148 0.3401 0.0000
vt 0.2814 0.3178 0.0000
vt 0.2831 0.2907 0.0000
vt 0.7611 0.0366 0.0000
vt 0.7404 0.0157 0.0000
vt 0.7880 0.0120 0.0000
vt 0.7075 0.0720 0.0000
vt 0.7182 0.0970 0.0000
vt 0.7114 0.0237 0.0000
vt 0.7337 0.0375 0.0000
vt 0.1828 0.2252 0.0000
vt 0.2026 0.2688 0.0000
vt 0.1701 0.2493 0.0000
vt 0.2206 0.3505 0.0000
vt 0.1993 0.3648 0.0000
vt 0.1973 0.3165 0.0000
vt 0.2477 0.4135 0.0000
vt 0.5133 0.1167 0.0000
vt 0.5841 0.1354 0.0000
vt 0.5084 0.1389 0.0000
vt 0.8475 0.0576 0.0000
vt 0.8360 0.0826 0.0000
vt 0.8101 0.0649 0.0000
vt 0.7308 0.0828 0.0000
vt 0.7228 0.0667 0.0000
vt 0.7484 0.0670 0.0000
vt 0.7828 0.0940 0.0000
vt 0.7873 0.1194 0.0000
vt 0.7539 0.0995 0.0000
vt 0.1092 0.2491 0.0000
vt 0.0957 0.2534 0.0000
vt 0.0783 0.2321 0.0000
vt 0.0432 0.2011 0.0000
vt 0.0426 0.1753 0.0000
vt 0.0644 0.1919 0.0000
vt 0.2682 0.3916 0.0000
vt 0.2911 0.4022 0.0000
vt 0.3120 0.4435 0.0000
vt 0.2914 0.4324 0.0000
vt 0.3171 0.4197 0.0000
vt 0.7088 0.1234 0.0000
vt 0.2288 0.2319 0.0000
vt 0.2227 0.2529 0.0000
vt 0.2605 0.3470 0.0000
vt 0.2791 0.3357 0.0000
vt 0.2410 0.3222 0.0000
vt 0.1977 0.3049 0.0000
vt 0.2111 0.2940 0.0000
vt 0.4537 0.0869 0.0000
vt 0.4781 0.0808 0.0000
vt 0.4666 0.1051 0.0000
vt 0.6926 0.1482 0.0000
vt 0.6569 0.1611 0.0000
vt 0.5628 0.1639 0.0000
vt 0.5382 0.0606 0.0000
vt 0.6405 0.0439 0.0000
vt 0.7275 0.0520 0.0000
vt 0.6909 0.0304 0.0000
vt 0.0987 0.2319 0.0000
vt 0.1323 0.2443 0.0000
vt 0.1672 0.2842 0.0000
vt 0.1693 0.2673 0.0000
vt 0.8527 0.1104 0.0000
vt 0.3298 0.4284 0.0000
vt 0.7529 0.0520 0.0000
vt 0.7935 0.0764 0.0000
vt 0.4338 0.1183 0.0000
vt 0.4458 0.1491 0.0000
vt 0.4289 0.1475 0.0000
vt 0.4812 0.1201 0.0000
vt 0.0628 0.2341 0.0000
vt 0.0396 0.2153 0.0000
vt 0.0622 0.2175 0.0000
vt 0.5226 0.0800 0.0000
vt 0.4811 0.0989 0.0000
vt 0.5046 0.1013 0.0000
vt 0.4860 0.1405 0.0000
vt 0.4891 0.1674 0.0000
vt 0.7635 0.1511 0.0000
vt 0.7937 0.1544 0.0000
vt 0.7374 0.1735 0.0000
vt 0.8148 0.1126 0.0000
vt 0.6662 0.0395 0.0000
vt 0.6894 0.0593 0.0000
vt 0.0010 0.1110 0.0000
vt 0.0174 0.0921 0.0000
vt 0.0235 0.1167 0.0000
vt 0.8098 0.1334 0.0000
vt 0.3356 0.3847 0.0000
vt 0.3218 0.3928 0.0000
vt 0.3243 0.3743 0.0000
vt 0.1295 0.2828 0.0000
vt 0.1362 0.2647 0.0000
vt 0.6870 0.1691 0.0000
vt 0.7157 0.1511 0.0000
vt 0.5010 0.0668 0.0000
vt 0.4914 0.0566 0.0000
vt 0.5158 0.0327 0.0000
vt 0.7679 0.0690 0.0000
vt 0.7819 0.0572 0.0000
vt 0.8008 0.0373 0.0000
vt 0.0925 0.1830 0.0000
vt 0.2448 0.2846 0.0000
vt 0.2515 0.3097 0.0000
vt 0.7692 0.0809 0.0000
vt 0.1891 0.2063 0.0000
vt 0.7042 0.0516 0.0000
vt 0.5786 0.0171 0.0000
vt 0.6374 0.0119 0.0000
vt 0.0086 0.1789 0.0000
vt 0.0256 0.1721 0.0000
vt 0.0236 0.1997 0.0000
vt 0.2548 0.2621 0.0000
vt 0.3090 0.4060 0.0000
vt 0.4742 0.1462 0.0000
vt 0.4623 0.1303 0.0000
vt 0.7490 0.0826 0.0000
vt 0.7300 0.1011 0.0000
vt 0.4943 0.0838 0.0000
vt 0.2725 0.4163 0.0000
vt 0.6637 0.0208 0.0000
vt 0.0815 0.2090 0.0000
vt 0.4534 0.1669 0.0000
vt 0.0610 0.1579 0.0000
vt 0.1220 0.2670 0.0000
vt 0.1568 0.2877 0.0000
vt 0.4126 0.0576 0.0000
vt 0.3934 0.0703 0.0000
vt 0.3879 0.0476 0.0000
vt 0.2437 0.3508 0.0000
vt 0.2255 0.3243 0.0000
vt 0.7775 0.1323 0.0000
vt 0.3096 0.3530 0.0000
vt 0.6365 0.1718 0.0000
vt 0.6562 0.1811 0.0000
vt 0.6120 0.1833 0.0000
vt 0.6287 0.1581 0.0000
vt 0.4106 0.0814 0.0000
vt 0.8640 0.0909 0.0000
vt 0.8646 0.0771 0.0000
vt 0.0067 0.1290 0.0000
vt 0.6265 0.0380 0.0000
vt 0.5885 0.1717 0.0000
vt 0.4665 0.1780 0.0000
vt 0.3329 0.4068 0.0000
vt 0.8286 0.1394 0.0000
vt 0.8338 0.1242 0.0000
vt 0.6841 0.0139 0.0000
vt 0.0244 0.2174 0.0000
vt 0.0443 0.2343 0.0000
vt 0.4483 0.1329 0.0000
vt 0.4525 0.1090 0.0000
vt 0.6624 0.0010 0.0000
vt 0.5647 0.1937 0.0000
vt 0.2609 0.2450 0.0000
vt 0.3307 0.4418 0.0000
vt 0.2062 0.1122 0.0000
vt 0.2187 0.1749 0.0000
vt 0.1371 0.1558 0.0000
vt 0.1124 0.0560 0.0000
vt 0.1434 0.0388 0.0000
vt 0.1279 0.0745 0.0000
vt 0.4083 0.1136 0.0000
vt 0.3697 0.1735 0.0000
vt 0.3391 0.1677 0.0000
vt 0.3595 0.1438 0.0000
vt 0.2446 0.0636 0.0000
vt 0.1987 0.0220 0.0000
vt 0.2674 0.0423 0.0000
vt 0.2359 0.1141 0.0000
vt 0.3062 0.1300 0.0000
vt 0.3046 0.1635 0.0000
vt 0.2889 0.1016 0.0000
vt 0.2618 0.1068 0.0000
vt 0.3709 0.0951 0.0000
vt 0.3467 0.0857 0.0000
vt 0.3699 0.0721 0.0000
vt 0.2010 0.0076 0.0000
vt 0.2503 0.0193 0.0000
vt 0.1221 0.1316 0.0000
vt 0.1075 0.1121 0.0000
vt 0.1435 0.1088 0.0000
vt 0.4044 0.0980 0.0000
vt 0.4266 0.0959 0.0000
vt 0.2780 0.4446 0.0000
vt 0.2733 0.4625 0.0000
vt 0.2420 0.4545 0.0000
vt 0.1871 0.4061 0.0000
vt 0.1861 0.4191 0.0000
vt 0.1449 0.3918 0.0000
vt 0.2183 0.4122 0.0000
vt 0.2640 0.4291 0.0000
vt 0.2357 0.4381 0.0000
vt 0.3546 0.1033 0.0000
vt 0.3889 0.1442 0.0000
vt 0.3625 0.0566 0.0000
vt 0.3323 0.0661 0.0000
vt 0.3272 0.0419 0.0000
vt 0.8213 0.0224 0.0000
vt 0.0487 0.1235 0.0000
vt 0.0791 0.1227 0.0000
vt 0.0843 0.1399 0.0000
vt 0.3554 0.0390 0.0000
vt 0.0560 0.2905 0.0000
vt 0.1368 0.3488 0.0000
vt 0.1199 0.3570 0.0000
vt 0.0803 0.3240 0.0000
vt 0.2194 0.0990 0.0000
vt 0.2122 0.0847 0.0000
vt 0.2548 0.0851 0.0000
vt 0.1773 0.1083 0.0000
vt 0.0252 0.2386 0.0000
vt 0.0457 0.2602 0.0000
vt 0.1636 0.0593 0.0000
vt 0.1606 0.0098 0.0000
vt 0.4017 0.1672 0.0000
vt 0.3996 0.1309 0.0000
vt 0.4143 0.1612 0.0000
vt 0.0487 0.0973 0.0000
vt 0.0779 0.1031 0.0000
vt 0.3390 0.1943 0.0000
vt 0.3079 0.1810 0.0000
vt 0.3027 0.1963 0.0000
vt 0.2479 0.1874 0.0000
vt 0.2823 0.0679 0.0000
vt 0.3461 0.1142 0.0000
vt 0.3150 0.1056 0.0000
vt 0.3191 0.0901 0.0000
vt 0.0884 0.0815 0.0000
vt 0.1111 0.0926 0.0000
vt 0.0764 0.1594 0.0000
vt 0.0482 0.1413 0.0000
vt 0.1891 0.1984 0.0000
vt 0.1396 0.1890 0.0000
vt 0.1455 0.1774 0.0000
vt 0.3879 0.0906 0.0000
vt 0.3930 0.1102 0.0000
vt 0.3879 0.1275 0.0000
vt 0.3673 0.1242 0.0000
vt 0.3776 0.1120 0.0000
vt 0.1806 0.0953 0.0000
vt 0.2072 0.0677 0.0000
vt 0.2902 0.0839 0.0000
vt 0.3093 0.0690 0.0000
vt 0.3060 0.0529 0.0000
vt 0.2997 0.4505 0.0000
vt 0.3503 0.1288 0.0000
vt 0.3317 0.1507 0.0000
vt 0.3264 0.1286 0.0000
vt 0.2012 0.1894 0.0000
vt 0.4116 0.1863 0.0000
vt 0.1644 0.0785 0.0000
vt 0.1438 0.0920 0.0000
vt 0.2907 0.0336 0.0000
vt 0.2271 0.0010 0.0000
vt 0.2862 0.0161 0.0000
vt 0.8493 0.0257 0.0000
vt 0.7014 0.0038 0.0000
vt 0.1600 0.3817 0.0000
vt 0.1917 0.3942 0.0000
vt 0.4117 0.1400 0.0000
vt 0.2616 0.0949 0.0000
vt 0.1095 0.1556 0.0000
vt 0.1467 0.1371 0.0000
vt 0.1080 0.1759 0.0000
vt 0.2129 0.4382 0.0000
vt 0.1186 0.0124 0.0000
vt 0.0348 0.2894 0.0000
vt 0.0549 0.3199 0.0000
vt 0.0193 0.1354 0.0000
vt 0.3913 0.1916 0.0000
vt 0.0938 0.3547 0.0000
vt 0.0622 0.0725 0.0000
vt 0.0872 0.0485 0.0000
vt 0.5328 0.0117 0.0000
vt 0.0049 0.1997 0.0000
vt 0.2510 0.1984 0.0000
# 304 texture coords

o Scatter_Smooth_01_LOD0
g Scatter_Smooth_01_LOD0
s 1
f 1/1/1 2/2/2 3/3/3 
f 4/4/4 5/5/5 6/6/6 
f 7/7/7 8/8/8 9/9/9 
f 10/10/10 11/11/11 12/12/12 
f 13/13/13 14/14/14 15/15/15 
f 16/16/16 17/17/17 18/18/18 
f 19/19/19 20/20/20 21/21/21 
f 22/22/22 23/23/23 24/24/24 
f 25/25/25 26/26/26 27/27/27 
f 28/28/28 29/29/29 30/30/30 
f 31/31/31 32/32/32 33/33/33 
f 34/34/34 35/35/35 15/15/15 
f 36/36/36 32/32/32 37/37/37 
f 38/38/38 39/39/39 40/40/40 
f 41/41/41 42/42/42 43/43/43 
f 44/44/44 42/42/42 41/41/41 
f 45/45/45 46/46/46 47/47/47 
f 48/48/48 49/49/49 50/50/50 
f 51/51/51 52/52/52 53/53/53 
f 54/54/54 55/55/55 56/56/56 
f 57/57/57 58/58/58 59/59/59 
f 60/60/60 61/61/61 62/62/62 
f 63/63/63 1/1/1 64/64/64 
f 65/65/65 66/66/66 67/67/67 
f 35/35/35 68/68/68 15/15/15 
f 69/69/69 70/70/70 38/38/38 
f 2/2/2 71/71/71 72/72/72 
f 73/73/73 74/74/74 75/75/75 
f 76/76/76 77/77/77 78/78/78 
f 79/79/79 80/80/80 15/15/15 
f 46/46/46 81/81/81 47/47/47 
f 14/14/14 82/82/82 83/83/83 
f 37/37/37 84/84/84 85/85/85 
f 57/57/57 86/86/86 87/87/87 
f 75/75/75 88/88/88 89/89/89 
f 90/90/90 10/10/10 12/12/12 
f 91/91/91 65/65/65 67/67/67 
f 53/53/53 84/84/84 92/92/92 
f 49/49/49 93/93/93 50/50/50 
f 94/94/94 95/95/95 96/96/96 
f 45/45/45 47/47/47 97/97/97 
f 98/98/98 99/99/99 100/100/100 
f 82/82/82 14/14/14 101/101/101 
f 102/102/102 103/103/103 97/97/97 
f 104/104/104 97/97/97 47/47/47 
f 5/5/5 4/4/4 105/105/105 
f 106/106/106 28/107/28 30/108/30 
f 107/109/107 55/55/55 54/54/54 
f 108/110/108 109/111/109 14/14/14 
f 34/34/34 15/15/15 14/14/14 
f 110/112/110 48/113/48 111/114/111 
f 107/109/107 112/115/112 55/55/55 
f 113/116/113 114/117/114 115/118/115 
f 116/119/116 21/21/21 20/20/20 
f 89/89/89 88/88/88 117/120/117 
f 79/79/79 118/121/118 80/80/80 
f 119/122/119 106/106/106 30/108/30 
f 101/101/101 120/123/120 82/82/82 
f 7/7/7 121/124/121 122/125/122 
f 123/126/123 92/92/92 124/127/124 
f 125/128/125 31/31/31 33/33/33 
f 62/62/62 100/100/100 60/60/60 
f 16/16/16 18/18/18 4/129/4 
f 30/30/30 29/29/29 126/130/126 
f 127/131/127 73/73/73 75/75/75 
f 93/93/93 123/126/123 124/127/124 
f 56/56/56 128/132/128 54/54/54 
f 129/133/129 69/69/69 38/38/38 
f 5/5/5 81/81/81 6/6/6 
f 85/85/85 130/134/130 108/110/108 
f 131/135/131 132/136/132 9/9/9 
f 96/137/96 95/138/95 133/139/133 
f 119/122/119 30/108/30 118/121/118 
f 134/140/134 30/30/30 126/130/126 
f 21/21/21 42/42/42 19/19/19 
f 129/133/129 38/38/38 16/16/16 
f 38/38/38 17/17/17 16/16/16 
f 3/3/3 2/2/2 114/117/114 
f 135/141/135 67/67/67 66/66/66 
f 136/142/136 137/143/137 97/97/97 
f 78/78/78 102/102/102 97/97/97 
f 56/56/56 51/51/51 138/144/138 
f 139/145/139 25/25/25 27/27/27 
f 13/13/13 101/101/101 14/14/14 
f 101/101/101 103/103/103 140/146/140 
f 141/147/141 64/64/64 66/66/66 
f 130/134/130 109/111/109 108/110/108 
f 34/34/34 52/52/52 51/51/51 
f 39/39/39 75/75/75 89/89/89 
f 126/130/126 127/131/127 75/75/75 
f 108/110/108 142/148/142 85/85/85 
f 59/59/59 86/86/86 57/57/57 
f 143/149/143 86/86/86 100/100/100 
f 95/150/95 137/143/137 136/142/136 
f 61/61/61 105/151/105 62/62/62 
f 23/23/23 58/58/58 144/152/144 
f 144/152/144 145/153/145 116/119/116 
f 77/154/77 146/155/146 121/156/121 
f 140/146/140 120/123/120 101/101/101 
f 1/1/1 63/63/63 147/157/147 
f 72/72/72 71/71/71 73/73/73 
f 148/158/148 147/157/147 43/43/43 
f 148/158/148 71/71/71 147/157/147 
f 21/21/21 116/119/116 145/153/145 
f 43/43/43 42/42/42 21/21/21 
f 58/58/58 98/98/98 59/59/59 
f 149/159/149 28/107/28 106/106/106 
f 25/25/25 149/159/149 26/26/26 
f 50/50/50 125/128/125 48/48/48 
f 124/127/124 31/31/31 125/128/125 
f 114/117/114 2/2/2 115/118/115 
f 150/160/150 2/2/2 72/72/72 
f 7/7/7 122/125/122 8/8/8 
f 151/161/151 69/162/69 129/163/129 
f 46/46/46 152/164/152 81/81/81 
f 27/27/27 26/26/26 119/122/119 
f 68/68/68 79/79/79 15/15/15 
f 77/154/77 76/165/76 146/155/146 
f 145/153/145 43/43/43 21/21/21 
f 75/75/75 74/74/74 88/88/88 
f 13/13/13 15/15/15 46/46/46 
f 15/15/15 152/164/152 46/46/46 
f 41/41/41 63/63/63 44/44/44 
f 100/100/100 99/99/99 60/60/60 
f 133/139/133 95/138/95 60/60/60 
f 107/109/107 54/54/54 11/11/11 
f 93/93/93 54/54/54 128/132/128 
f 137/143/137 78/78/78 97/97/97 
f 91/166/91 90/90/90 12/12/12 
f 48/48/48 110/167/110 49/49/49 
f 65/168/65 110/112/110 111/114/111 
f 39/39/39 89/89/89 40/40/40 
f 89/89/89 117/120/117 87/87/87 
f 82/82/82 7/7/7 153/169/153 
f 82/82/82 120/123/120 7/7/7 
f 112/115/112 28/107/28 149/159/149 
f 115/118/115 2/2/2 150/160/150 
f 58/58/58 23/23/23 22/22/22 
f 58/58/58 22/22/22 98/98/98 
f 81/81/81 152/164/152 154/170/154 
f 81/81/81 154/170/154 6/6/6 
f 47/47/47 81/81/81 5/5/5 
f 47/47/47 5/5/5 104/104/104 
f 104/104/104 5/5/5 105/105/105 
f 61/171/61 136/142/136 105/105/105 
f 67/67/67 135/141/135 114/117/114 
f 91/91/91 67/67/67 90/172/90 
f 26/26/26 106/106/106 119/122/119 
f 149/159/149 106/106/106 26/26/26 
f 124/127/124 92/92/92 31/31/31 
f 31/31/31 37/37/37 32/32/32 
f 67/67/67 114/117/114 90/172/90 
f 114/117/114 113/116/113 90/172/90 
f 86/86/86 18/18/18 87/87/87 
f 86/86/86 143/149/143 18/18/18 
f 134/140/134 126/130/126 70/70/70 
f 126/130/126 75/75/75 39/39/39 
f 79/79/79 27/27/27 119/122/119 
f 79/79/79 119/122/119 118/121/118 
f 34/34/34 51/51/51 35/35/35 
f 51/51/51 56/56/56 139/145/139 
f 142/148/142 108/110/108 9/9/9 
f 7/7/7 9/9/9 153/169/153 
f 24/24/24 116/119/116 20/20/20 
f 31/31/31 92/92/92 37/37/37 
f 92/92/92 84/84/84 37/37/37 
f 72/72/72 73/73/73 127/131/127 
f 126/130/126 29/29/29 127/131/127 
f 120/123/120 121/124/121 7/7/7 
f 77/77/77 121/124/121 120/123/120 
f 29/29/29 150/160/150 72/72/72 
f 29/29/29 72/72/72 127/131/127 
f 49/49/49 11/11/11 93/93/93 
f 11/11/11 54/54/54 93/93/93 
f 17/17/17 87/87/87 18/18/18 
f 89/89/89 87/87/87 40/40/40 
f 105/151/105 4/129/4 62/62/62 
f 18/18/18 143/149/143 4/129/4 
f 95/150/95 136/142/136 61/171/61 
f 60/60/60 95/138/95 61/61/61 
f 70/70/70 126/130/126 39/39/39 
f 70/70/70 39/39/39 38/38/38 
f 148/158/148 43/43/43 74/74/74 
f 74/74/74 43/43/43 145/153/145 
f 112/115/112 115/173/115 28/107/28 
f 113/174/113 115/173/115 112/115/112 
f 125/128/125 50/50/50 124/127/124 
f 93/93/93 124/127/124 50/50/50 
f 108/110/108 83/83/83 9/9/9 
f 108/110/108 14/14/14 83/83/83 
f 77/77/77 120/123/120 140/146/140 
f 78/78/78 77/77/77 102/102/102 
f 36/36/36 37/37/37 85/85/85 
f 36/36/36 85/85/85 155/175/155 
f 60/60/60 99/99/99 133/139/133 
f 133/139/133 99/99/99 156/176/156 
f 99/99/99 157/177/157 156/176/156 
f 59/59/59 100/100/100 86/86/86 
f 98/98/98 100/100/100 59/59/59 
f 10/10/10 107/109/107 11/11/11 
f 113/174/113 112/115/112 107/109/107 
f 1/1/1 71/71/71 2/2/2 
f 147/157/147 71/71/71 1/1/1 
f 94/178/94 158/179/158 137/143/137 
f 95/150/95 94/178/94 137/143/137 
f 132/136/132 142/148/142 9/9/9 
f 158/179/158 76/76/76 78/78/78 
f 78/78/78 137/143/137 158/179/158 
f 56/56/56 55/55/55 25/25/25 
f 25/25/25 139/145/139 56/56/56 
f 159/180/159 142/148/142 132/136/132 
f 128/132/128 56/56/56 138/144/138 
f 53/53/53 92/92/92 123/126/123 
f 53/53/53 128/132/128 138/144/138 
f 138/144/138 51/51/51 53/53/53 
f 6/6/6 16/181/16 4/4/4 
f 154/170/154 16/181/16 6/6/6 
f 134/140/134 70/70/70 69/69/69 
f 151/161/151 118/121/118 69/162/69 
f 99/99/99 98/98/98 157/177/157 
f 157/177/157 98/98/98 22/22/22 
f 40/40/40 87/87/87 17/17/17 
f 38/38/38 40/40/40 17/17/17 
f 149/159/149 55/55/55 112/115/112 
f 149/159/149 25/25/25 55/55/55 
f 110/167/110 12/12/12 49/49/49 
f 12/12/12 11/11/11 49/49/49 
f 9/9/9 8/8/8 131/135/131 
f 118/182/118 30/30/30 134/140/134 
f 118/182/118 134/140/134 69/69/69 
f 77/77/77 140/146/140 102/102/102 
f 140/146/140 103/103/103 102/102/102 
f 57/57/57 87/87/87 117/120/117 
f 58/58/58 57/57/57 144/152/144 
f 139/145/139 27/27/27 68/68/68 
f 27/27/27 79/79/79 68/68/68 
f 130/134/130 52/52/52 109/111/109 
f 84/84/84 53/53/53 52/52/52 
f 144/152/144 57/57/57 117/120/117 
f 144/152/144 117/120/117 145/153/145 
f 63/63/63 41/41/41 147/157/147 
f 147/157/147 41/41/41 43/43/43 
f 130/134/130 84/84/84 52/52/52 
f 84/84/84 130/134/130 85/85/85 
f 154/170/154 151/161/151 129/163/129 
f 129/163/129 16/181/16 154/170/154 
f 28/28/28 150/160/150 29/29/29 
f 115/118/115 150/160/150 28/28/28 
f 1/1/1 3/3/3 64/64/64 
f 64/64/64 135/141/135 66/66/66 
f 62/62/62 143/149/143 100/100/100 
f 143/149/143 62/62/62 4/129/4 
f 35/35/35 139/145/139 68/68/68 
f 51/51/51 139/145/139 35/35/35 
f 71/71/71 148/158/148 73/73/73 
f 73/73/73 148/158/148 74/74/74 
f 103/103/103 101/101/101 13/13/13 
f 45/45/45 97/97/97 103/103/103 
f 88/88/88 74/74/74 145/153/145 
f 88/88/88 145/153/145 117/120/117 
f 128/132/128 123/126/123 93/93/93 
f 123/126/123 128/132/128 53/53/53 
f 103/103/103 13/13/13 45/45/45 
f 13/13/13 46/46/46 45/45/45 
f 23/23/23 116/119/116 24/24/24 
f 116/119/116 23/23/23 144/152/144 
f 91/166/91 12/12/12 110/167/110 
f 65/65/65 91/91/91 110/183/110 
f 113/174/113 10/10/10 90/90/90 
f 10/10/10 113/174/113 107/109/107 
f 105/105/105 136/142/136 104/104/104 
f 136/142/136 97/97/97 104/104/104 
f 135/141/135 3/3/3 114/117/114 
f 3/3/3 135/141/135 64/64/64 
f 155/175/155 142/148/142 159/180/159 
f 155/175/155 85/85/85 142/148/142 
f 80/80/80 151/161/151 154/170/154 
f 80/80/80 118/121/118 151/161/151 
f 109/111/109 34/34/34 14/14/14 
f 109/111/109 52/52/52 34/34/34 
f 152/164/152 80/80/80 154/170/154 
f 15/15/15 80/80/80 152/164/152 
f 83/83/83 153/169/153 9/9/9 
f 83/83/83 82/82/82 153/169/153 
f 141/147/141 63/63/63 64/64/64 
f 44/44/44 63/63/63 141/147/141 
f 160/184/160 161/185/161 162/186/162 
f 163/187/163 164/188/164 165/189/165 
f 166/190/166 94/94/94 96/96/96 
f 167/191/167 168/192/168 169/193/169 
f 170/194/170 171/195/171 172/196/172 
f 173/197/173 174/198/174 175/199/175 
f 176/200/176 174/198/174 177/201/177 
f 178/202/178 179/203/179 180/204/180 
f 171/195/171 159/205/159 181/206/181 
f 182/207/182 183/208/183 184/209/184 
f 185/210/185 158/211/158 166/190/166 
f 186/212/186 187/213/187 188/214/188 
f 189/215/189 190/216/190 191/217/191 
f 192/218/192 193/219/193 194/220/194 
f 178/202/178 195/221/195 179/203/179 
f 167/191/167 169/193/169 196/222/196 
f 197/223/197 198/224/198 199/225/199 
f 172/196/172 171/195/171 181/206/181 
f 200/226/200 125/128/125 33/33/33 
f 201/227/201 202/228/202 203/229/203 
f 197/223/197 122/230/122 121/156/121 
f 204/231/204 22/22/22 24/24/24 
f 205/232/205 206/233/206 24/24/24 
f 161/185/161 173/197/173 175/199/175 
f 206/233/206 207/234/207 24/24/24 
f 208/235/208 209/236/209 210/237/210 
f 182/207/182 184/209/184 211/238/211 
f 212/239/212 157/177/157 213/240/213 
f 164/188/164 171/195/171 214/241/214 
f 171/195/171 215/242/215 159/205/159 
f 212/239/212 156/176/156 157/177/157 
f 216/243/216 217/244/217 218/245/218 
f 219/246/219 220/247/220 201/227/201 
f 167/191/167 221/248/221 168/192/168 
f 222/249/222 223/250/223 224/251/224 
f 225/252/225 210/237/210 170/194/170 
f 226/253/226 227/254/227 228/255/228 
f 229/256/229 165/189/165 230/257/230 
f 219/246/219 229/256/229 220/247/220 
f 188/258/188 187/259/187 203/229/203 
f 191/260/191 190/261/190 231/262/231 
f 121/156/121 146/155/146 197/223/197 
f 232/263/232 180/204/180 146/155/146 
f 166/190/166 233/264/233 185/210/185 
f 234/265/234 235/266/235 236/267/236 
f 237/268/237 209/236/209 208/235/208 
f 214/241/214 171/195/171 238/269/238 
f 239/270/239 240/271/240 228/255/228 
f 198/224/198 241/272/241 199/225/199 
f 201/227/201 111/114/111 219/246/219 
f 186/212/186 242/273/242 187/213/187 
f 243/274/243 244/275/244 245/276/245 
f 226/253/226 245/276/245 227/254/227 
f 246/277/246 231/262/231 161/185/161 
f 222/249/222 224/251/224 161/185/161 
f 216/243/216 218/245/218 156/278/156 
f 44/44/44 192/218/192 42/42/42 
f 243/274/243 245/276/245 226/253/226 
f 235/266/235 226/253/226 236/267/236 
f 237/268/237 247/279/247 209/236/209 
f 230/257/230 165/189/165 248/280/248 
f 199/225/199 241/272/241 249/281/249 
f 181/206/181 132/282/132 131/283/131 
f 193/219/193 186/212/186 194/220/194 
f 219/284/219 48/48/48 125/128/125 
f 111/114/111 48/113/48 219/246/219 
f 204/231/204 24/24/24 207/234/207 
f 223/250/223 222/249/222 221/248/221 
f 155/175/155 215/285/215 36/36/36 
f 189/215/189 191/217/191 250/286/250 
f 251/287/251 19/19/19 42/42/42 
f 166/190/166 252/288/252 217/244/217 
f 217/244/217 233/264/233 166/190/166 
f 228/255/228 176/200/176 239/270/239 
f 176/200/176 177/201/177 253/289/253 
f 188/258/188 203/229/203 254/290/254 
f 162/186/162 182/207/182 255/291/255 
f 203/229/203 182/207/182 254/290/254 
f 203/229/203 183/208/183 182/207/182 
f 157/177/157 22/22/22 213/240/213 
f 221/248/221 222/249/222 168/192/168 
f 244/275/244 175/199/175 245/276/245 
f 208/235/208 253/289/253 177/201/177 
f 160/184/160 173/197/173 161/185/161 
f 188/258/188 254/290/254 256/292/256 
f 189/215/189 194/220/194 256/293/256 
f 32/294/32 164/188/164 163/187/163 
f 32/32/32 36/36/36 215/285/215 
f 199/225/199 249/281/249 131/283/131 
f 212/239/212 213/240/213 221/295/221 
f 221/295/221 204/231/204 223/296/223 
f 185/210/185 232/263/232 146/155/146 
f 198/224/198 228/255/228 240/271/240 
f 180/204/180 179/203/179 198/224/198 
f 187/259/187 201/227/201 203/229/203 
f 187/259/187 242/297/242 201/227/201 
f 212/298/212 221/248/221 167/191/167 
f 216/243/216 167/191/167 196/222/196 
f 141/147/141 66/66/66 193/219/193 
f 160/184/160 208/235/208 173/197/173 
f 211/238/211 237/268/237 208/235/208 
f 166/190/166 158/211/158 94/94/94 
f 207/234/207 206/233/206 257/299/257 
f 206/233/206 250/286/250 191/217/191 
f 257/299/257 206/233/206 191/217/191 
f 246/277/246 161/185/161 224/251/224 
f 201/227/201 242/297/242 111/114/111 
f 216/243/216 212/298/212 167/191/167 
f 156/278/156 212/298/212 216/243/216 
f 164/188/164 214/241/214 165/189/165 
f 165/189/165 247/279/247 248/280/248 
f 232/263/232 185/210/185 233/264/233 
f 195/221/195 178/202/178 236/267/236 
f 203/229/203 202/228/202 183/208/183 
f 220/247/220 229/256/229 230/257/230 
f 179/203/179 228/255/228 198/224/198 
f 179/203/179 195/221/195 228/255/228 
f 200/300/200 33/301/33 229/256/229 
f 229/256/229 163/187/163 165/189/165 
f 210/237/210 209/236/209 170/194/170 
f 171/195/171 170/194/170 238/269/238 
f 256/293/256 194/220/194 188/214/188 
f 186/212/186 188/214/188 194/220/194 
f 122/230/122 197/223/197 199/225/199 
f 122/125/122 199/302/199 8/8/8 
f 32/294/32 215/242/215 164/188/164 
f 171/195/171 164/188/164 215/242/215 
f 24/24/24 20/20/20 205/232/205 
f 186/212/186 66/66/66 242/273/242 
f 66/66/66 186/212/186 193/219/193 
f 176/200/176 253/289/253 239/270/239 
f 210/237/210 225/252/225 239/270/239 
f 230/257/230 248/280/248 183/208/183 
f 220/247/220 230/257/230 183/208/183 
f 222/249/222 161/185/161 175/199/175 
f 244/275/244 222/249/222 175/199/175 
f 207/234/207 223/296/223 204/231/204 
f 223/296/223 207/234/207 257/299/257 
f 178/202/178 180/204/180 232/263/232 
f 178/202/178 232/263/232 233/264/233 
f 233/264/233 236/267/236 178/202/178 
f 233/264/233 234/265/234 236/267/236 
f 225/252/225 170/194/170 172/196/172 
f 249/281/249 241/272/241 172/196/172 
f 33/301/33 32/294/32 163/187/163 
f 33/301/33 163/187/163 229/256/229 
f 221/295/221 213/240/213 204/231/204 
f 22/22/22 204/231/204 213/240/213 
f 202/228/202 220/247/220 183/208/183 
f 201/227/201 220/247/220 202/228/202 
f 193/219/193 44/44/44 141/147/141 
f 192/218/192 44/44/44 193/219/193 
f 231/262/231 256/292/256 254/290/254 
f 231/262/231 162/186/162 161/185/161 
f 231/262/231 254/290/254 162/186/162 
f 162/186/162 254/290/254 182/207/182 
f 248/280/248 247/279/247 237/268/237 
f 211/238/211 184/209/184 237/268/237 
f 184/209/184 248/280/248 237/268/237 
f 183/208/183 248/280/248 184/209/184 
f 241/272/241 225/252/225 172/196/172 
f 241/272/241 198/224/198 240/271/240 
f 156/176/156 218/303/218 133/139/133 
f 76/165/76 158/211/158 185/210/185 
f 185/210/185 146/155/146 76/165/76 
f 216/243/216 196/222/196 217/244/217 
f 234/265/234 233/264/233 217/244/217 
f 192/218/192 194/220/194 189/215/189 
f 19/19/19 251/287/251 189/215/189 
f 180/204/180 198/224/198 197/223/197 
f 146/155/146 180/204/180 197/223/197 
f 125/128/125 200/226/200 219/284/219 
f 219/246/219 200/300/200 229/256/229 
f 169/193/169 235/266/235 234/265/234 
f 243/274/243 169/193/169 244/275/244 
f 215/285/215 155/175/155 159/180/159 
f 218/303/218 96/137/96 133/139/133 
f 96/96/96 252/288/252 166/190/166 
f 168/192/168 222/249/222 244/275/244 
f 169/193/169 168/192/168 244/275/244 
f 208/235/208 210/237/210 253/289/253 
f 239/270/239 253/289/253 210/237/210 
f 181/206/181 159/205/159 132/282/132 
f 162/186/162 255/291/255 160/184/160 
f 182/207/182 211/238/211 255/291/255 
f 255/291/255 211/238/211 160/184/160 
f 211/238/211 208/235/208 160/184/160 
f 199/302/199 131/135/131 8/8/8 
f 165/189/165 214/241/214 247/279/247 
f 247/279/247 214/241/214 238/269/238 
f 228/255/228 195/221/195 226/253/226 
f 236/267/236 226/253/226 195/221/195 
f 196/222/196 169/193/169 234/265/234 
f 217/244/217 196/222/196 234/265/234 
f 191/260/191 246/277/246 257/304/257 
f 191/260/191 231/262/231 246/277/246 
f 245/276/245 174/198/174 176/200/176 
f 245/276/245 175/199/175 174/198/174 
f 20/20/20 19/19/19 205/232/205 
f 206/233/206 205/232/205 250/286/250 
f 19/19/19 189/215/189 250/286/250 
f 205/232/205 19/19/19 250/286/250 
f 239/270/239 225/252/225 240/271/240 
f 225/252/225 241/272/241 240/271/240 
f 224/251/224 257/304/257 246/277/246 
f 224/251/224 223/250/223 257/304/257 
f 177/201/177 174/198/174 173/197/173 
f 173/197/173 208/235/208 177/201/177 
f 242/273/242 66/66/66 65/65/65 
f 242/297/242 65/168/65 111/114/111 
f 42/42/42 192/218/192 251/287/251 
f 192/218/192 189/215/189 251/287/251 
f 131/283/131 249/281/249 181/206/181 
f 172/196/172 181/206/181 249/281/249 
f 209/236/209 247/279/247 238/269/238 
f 209/236/209 238/269/238 170/194/170 
f 189/215/189 256/293/256 190/216/190 
f 190/261/190 256/292/256 231/262/231 
f 226/253/226 235/266/235 243/274/243 
f 235/266/235 169/193/169 243/274/243 
f 228/255/228 227/254/227 176/200/176 
f 245/276/245 176/200/176 227/254/227 
f 218/245/218 252/288/252 96/96/96 
f 218/245/218 217/244/217 252/288/252 
# 510 faces

