# File exported by Houdini 16.5.405 (www.sidefx.com)
# 10 points
# 48 vertices
# 16 primitives
# Bounds: [-13.063467, -0.719725013, -14.3204708] to [5.77851295, 13.7626562, 1.39848375]
g 
v 1.80459964 13.7626562 -9.23997211
v -13.063467 10.2472706 -2.60533023
v 5.77851295 4.66226053 -2.572474
v -12.3573532 5.77562952 -1.4609313
v 2.75456238 7.2661314 1.39848375
v 3.53687906 4.76362133 -12.6645145
v -5.36796427 1.52687359 1.04139888
v -4.81102371 12.5763464 -14.3204708
v -9.88895035 3.55058813 -13.485487
v -1.31319511 -0.719725013 -5.80726051
vt 0.375606805 0.444102049 0
vt 0.548948228 0.636075914 0
vt 0.319705218 0.625898242 0
vt 0.519611955 0.761708856 0
vt 0.625280023 0.640143275 0
vt 0.687319338 0.763017893 0
vt 0.548948228 0.636075914 0
vt 0.521840274 0.701300979 0
vt 0.396153033 0.739377201 0
vt 0.319705218 0.625898242 0
vt 0.548948228 0.636075914 0
vt 0.396153033 0.739377201 0
vt 0.114979528 0.712146997 0
vt 0.26973334 0.838801801 0
vt 0.0248501487 0.823822916 0
vt 0.246818334 0.634586394 0
vt 0.319705218 0.625898242 0
vt 0.396153033 0.739377201 0
vt 0.519611955 0.761708856 0
vt 0.687319338 0.763017893 0
vt 0.528234661 0.849745452 0
vt 0.793514788 0.702289402 0
vt 0.687319338 0.763017893 0
vt 0.625280023 0.640143275 0
vt 0.33621645 0.497482568 0
vt 0.344084859 0.313312948 0
vt 0.483495712 0.442387938 0
vt 0.480356991 0.28033343 0
vt 0.344084859 0.313312948 0
vt 0.416418731 0.159663618 0
vt 0.483495712 0.442387938 0
vt 0.344084859 0.313312948 0
vt 0.480356991 0.28033343 0
vt 0.596169055 0.248198509 0
vt 0.660157681 0.368273795 0
vt 0.483495712 0.442387938 0
vt 0.596169055 0.248198509 0
vt 0.483495712 0.442387938 0
vt 0.480356991 0.28033343 0
vt 0.261454999 0.649501562 0
vt 0.26973334 0.838801801 0
vt 0.114979528 0.712146997 0
vt 0.416418731 0.159663618 0
vt 0.596169055 0.248198509 0
vt 0.480356991 0.28033343 0
vt 0.325050741 0.841589093 0
vt 0.26973334 0.838801801 0
vt 0.261454999 0.649501562 0
vn 0.363667578 1.02102518 0.0443062671
vn -0.673171878 0.816797853 0.463336319
vn 0.488187045 0.48814258 0.694145799
vn 0.91066581 -0.315844387 0.353518009
vn 0.644681931 -0.448913932 -0.775721848
vn 0.363667578 1.02102518 0.0443062671
vn -0.673171878 0.816797853 0.463336319
vn -0.843139827 -0.215454087 0.547520459
vn -0.139056146 -0.826023042 0.668751478
vn 0.488187045 0.48814258 0.694145799
vn -0.673171878 0.816797853 0.463336319
vn -0.139056146 -0.826023042 0.668751478
vn -0.0969245434 0.719216645 -0.742036343
vn -0.673171878 0.816797853 0.463336319
vn 0.363667578 1.02102518 0.0443062671
vn 0.91066581 -0.315844387 0.353518009
vn 0.488187045 0.48814258 0.694145799
vn -0.139056146 -0.826023042 0.668751478
vn 0.91066581 -0.315844387 0.353518009
vn 0.363667578 1.02102518 0.0443062671
vn 0.488187045 0.48814258 0.694145799
vn -0.0969245434 0.719216645 -0.742036343
vn 0.363667578 1.02102518 0.0443062671
vn 0.644681931 -0.448913932 -0.775721848
vn -0.0969245434 0.719216645 -0.742036343
vn 0.644681931 -0.448913932 -0.775721848
vn -0.591187656 -0.565959692 -0.722440779
vn 0.0716942996 -1.02741766 0.0367518812
vn 0.644681931 -0.448913932 -0.775721848
vn 0.91066581 -0.315844387 0.353518009
vn -0.591187656 -0.565959692 -0.722440779
vn 0.644681931 -0.448913932 -0.775721848
vn 0.0716942996 -1.02741766 0.0367518812
vn -0.139056146 -0.826023042 0.668751478
vn -0.843139827 -0.215454087 0.547520459
vn -0.591187656 -0.565959692 -0.722440779
vn -0.139056146 -0.826023042 0.668751478
vn -0.591187656 -0.565959692 -0.722440779
vn 0.0716942996 -1.02741766 0.0367518812
vn -0.591187656 -0.565959692 -0.722440779
vn -0.673171878 0.816797853 0.463336319
vn -0.0969245434 0.719216645 -0.742036343
vn 0.91066581 -0.315844387 0.353518009
vn -0.139056146 -0.826023042 0.668751478
vn 0.0716942996 -1.02741766 0.0367518812
vn -0.843139827 -0.215454087 0.547520459
vn -0.673171878 0.816797853 0.463336319
vn -0.591187656 -0.565959692 -0.722440779
g Scatter_Smooth_02_LOD0
f 1/1/1 2/2/2 5/3/3
f 3/4/4 6/5/5 1/6/6
f 2/7/7 4/8/8 7/9/9
f 5/10/10 2/11/11 7/12/12
f 8/13/13 2/14/14 1/15/15
f 3/16/16 5/17/17 7/18/18
f 3/19/19 1/20/20 5/21/21
f 8/22/22 1/23/23 6/24/24
f 8/25/25 6/26/26 9/27/27
f 10/28/28 6/29/29 3/30/30
f 9/31/31 6/32/32 10/33/33
f 7/34/34 4/35/35 9/36/36
f 7/37/37 9/38/38 10/39/39
f 9/40/40 2/41/41 8/42/42
f 3/43/43 7/44/44 10/45/45
f 4/46/46 2/47/47 9/48/48
