# File exported by Houdini 16.5.405 (www.sidefx.com)
# 70 points
# 408 vertices
# 136 primitives
# Bounds: [-13.538168, -0.220235586, -15.4687176] to [5.52966022, 13.3001003, 2.44835544]
g 
v 2.31996417 11.3563919 -12.241869
v 0.222684398 10.6388645 -14.1411409
v -3.20245123 12.7355108 -6.10709238
v -8.6587801 12.3563461 -7.31462479
v 3.6493063 5.07863283 -0.51510638
v -6.76815224 9.05234051 0.716057599
v -10.5958672 6.29960632 0.109245129
v 5.03094435 7.60351086 -2.06526685
v 4.48300552 10.7608814 -8.13678932
v 3.47748733 11.5609531 -6.62056017
v 1.24943817 12.8473387 -7.16602373
v -4.5434289 12.3187428 -4.62299585
v -1.64481139 7.80361652 2.44835544
v -9.92298985 11.8823061 -9.82105255
v -13.538168 6.98797274 -4.92347908
v -12.260067 6.46833897 -2.12488604
v -11.3332024 8.37482166 -1.36074817
v 5.52966022 3.93347263 -5.89635992
v 5.48770142 6.65333557 -8.65327358
v 2.41770005 8.8842001 -1.70389998
v 2.12930012 11.8486004 -5.89419985
v 0.572207928 7.55919361 1.84614336
v -2.35062385 3.74439287 1.59007239
v -4.90417576 13.060401 -12.5367718
v -0.68733865 12.5615387 -12.49473
v -3.56135225 11.2842588 -14.7483349
v -7.40261889 11.3287783 -13.9357738
v -12.2909203 10.3570004 -6.70923948
v -13.4286537 8.2688942 -6.40130138
v -7.40923452 5.03017378 1.8562721
v -9.76909828 10.6623859 -2.59901094
v -4.10550022 13.3001003 -10.3837996
v 3.95840669 9.23459339 -11.6539907
v -1.03355706 12.7164307 -6.18337917
v 1.94465888 12.982461 -8.48637199
v -2.99799991 13.2423 -10.9961004
v 3.2210238 7.54990292 0.0812064558
v -5.61938381 10.2751083 -15.0672617
v 5.31315899 4.4932251 -2.83234859
v -11.4721975 9.84490681 -10.2359037
v -4.17836666 8.95713806 -15.4687176
v -2.40939999 13.2060003 -8.5642004
v 3.84654307 3.38096571 -2.00620675
v -8.03615952 4.4185915 -13.6092367
v -5.9094882 1.07223451 -12.2007446
v -7.43472815 2.39871025 -0.467707783
v -3.71812463 -0.220235586 -9.00585938
v -3.47831297 6.93815613 -15.247386
v 1.22762084 0.684236586 -4.86482477
v -2.06160092 0.222466782 -2.45203424
v -0.0123271113 5.36794329 -13.9218321
v 3.09072924 3.15691638 -10.6150064
v 4.16263866 5.83923721 -11.5100918
v -9.45530319 3.89486575 -0.1186634
v -12.7204943 5.19257498 -4.20926571
v -9.71921062 7.595788 -13.2242689
v -12.7035599 6.4100008 -9.21174145
v -6.42139006 6.9317832 -14.9125643
v -12.1231785 5.44161224 -2.50342584
v -10.6880484 2.93442011 -8.07594204
v 5.17677641 3.52254677 -7.88651037
v 5.10611868 3.40570188 -4.06436968
v -12.5500002 4.84880018 -7.41330004
v -11.4472208 4.34627199 -10.0289259
v -1.35976315 -0.163674548 -7.53543425
v -6.40770817 2.8132658 0.986245573
v -4.41879988 1.62489998 -0.1017
v -0.794899404 1.3322655 -1.0960077
v -10.7957726 5.34080219 -11.8788662
v -2.37610006 1.7852 -0.184100002
vt 0.550612688 0.791447639 0
vt 0.638101161 0.747542202 0
vt 0.639850378 0.773941875 0
vt 0.371240288 0.479631841 0
vt 0.448549867 0.543374002 0
vt 0.376512945 0.644939005 0
vt 0.292057455 0.793281436 0
vt 0.313565284 0.833232224 0
vt 0.28576383 0.857023537 0
vt 0.540581048 0.711331785 0
vt 0.597415924 0.705943525 0
vt 0.550612688 0.791447639 0
vt 0.325899988 0.579599977 0
vt 0.350199997 0.5 0
vt 0.376512945 0.644939005 0
vt 0.790967882 0.733947039 0
vt 0.72715348 0.725442529 0
vt 0.770541966 0.689019263 0
vt 0.240762159 0.789361715 0
vt 0.269529104 0.781856298 0
vt 0.28576383 0.857023537 0
vt 0.448549867 0.543374002 0
vt 0.511096478 0.612000048 0
vt 0.446332306 0.640163541 0
vt 0.11677777 0.739792526 0
vt 0.187247515 0.801286101 0
vt 0.108900003 0.774800003 0
vt 0.7024436 0.818410099 0
vt 0.675590575 0.768045783 0
vt 0.734490752 0.832541704 0
vt 0.639850378 0.773941875 0
vt 0.638101161 0.747542202 0
vt 0.675590575 0.768045783 0
vt 0.72715348 0.725442529 0
vt 0.790967882 0.733947039 0
vt 0.757399976 0.755200028 0
vt 0.448549867 0.543374002 0
vt 0.446332306 0.640163541 0
vt 0.376512945 0.644939005 0
vt 0.237263054 0.856850922 0
vt 0.240762159 0.789361715 0
vt 0.28576383 0.857023537 0
vt 0.639850378 0.773941875 0
vt 0.646600008 0.795599997 0
vt 0.575800002 0.827700019 0
vt 0.639850378 0.773941875 0
vt 0.675590575 0.768045783 0
vt 0.675370872 0.788986504 0
vt 0.138944507 0.684951544 0
vt 0.156795233 0.712001503 0
vt 0.103491977 0.689554274 0
vt 0.686397433 0.715403676 0
vt 0.714903235 0.691573381 0
vt 0.72715348 0.725442529 0
vt 0.511096478 0.612000048 0
vt 0.517495394 0.661409199 0
vt 0.446332306 0.640163541 0
vt 0.446332306 0.640163541 0
vt 0.517495394 0.661409199 0
vt 0.489556909 0.688954175 0
vt 0.292057455 0.793281436 0
vt 0.28576383 0.857023537 0
vt 0.269529104 0.781856298 0
vt 0.187247515 0.801286101 0
vt 0.194388941 0.764286995 0
vt 0.240762159 0.789361715 0
vt 0.240762159 0.789361715 0
vt 0.194388941 0.764286995 0
vt 0.223140597 0.747364223 0
vt 0.686397433 0.715403676 0
vt 0.638101161 0.747542202 0
vt 0.655140817 0.701835692 0
vt 0.655140817 0.701835692 0
vt 0.638101161 0.747542202 0
vt 0.597415924 0.705943525 0
vt 0.550612688 0.791447639 0
vt 0.597415924 0.705943525 0
vt 0.638101161 0.747542202 0
vt 0.675590575 0.768045783 0
vt 0.686397433 0.715403676 0
vt 0.72715348 0.725442529 0
vt 0.638101161 0.747542202 0
vt 0.686397433 0.715403676 0
vt 0.675590575 0.768045783 0
vt 0.770541966 0.689019263 0
vt 0.714903235 0.691573381 0
vt 0.770769119 0.648294628 0
vt 0.365540564 0.693065524 0
vt 0.376512945 0.644939005 0
vt 0.436749667 0.695218384 0
vt 0.770541966 0.689019263 0
vt 0.72715348 0.725442529 0
vt 0.714903235 0.691573381 0
vt 0.446332306 0.640163541 0
vt 0.489556909 0.688954175 0
vt 0.436749667 0.695218384 0
vt 0.376512945 0.644939005 0
vt 0.446332306 0.640163541 0
vt 0.436749667 0.695218384 0
vt 0.675590575 0.768045783 0
vt 0.737399995 0.789900005 0
vt 0.734490752 0.832541704 0
vt 0.72715348 0.725442529 0
vt 0.757399976 0.755200028 0
vt 0.675590575 0.768045783 0
vt 0.365540564 0.693065524 0
vt 0.350668222 0.633269012 0
vt 0.376512945 0.644939005 0
vt 0.290189415 0.642782688 0
vt 0.312730879 0.613503814 0
vt 0.350668222 0.633269012 0
vt 0.675370872 0.788986504 0
vt 0.675590575 0.768045783 0
vt 0.7024436 0.818410099 0
vt 0.350199997 0.5 0
vt 0.371240288 0.479631841 0
vt 0.376512945 0.644939005 0
vt 0.11677777 0.739792526 0
vt 0.194388941 0.764286995 0
vt 0.187247515 0.801286101 0
vt 0.187247515 0.801286101 0
vt 0.240762159 0.789361715 0
vt 0.237263054 0.856850922 0
vt 0.550612688 0.791447639 0
vt 0.517825902 0.755172014 0
vt 0.540581048 0.711331785 0
vt 0.187247515 0.801286101 0
vt 0.237263054 0.856850922 0
vt 0.144963473 0.86111939 0
vt 0.325899988 0.579599977 0
vt 0.376512945 0.644939005 0
vt 0.350668222 0.633269012 0
vt 0.263558418 0.665851414 0
vt 0.245113671 0.637680352 0
vt 0.290189415 0.642782688 0
vt 0.156795233 0.712001503 0
vt 0.194388941 0.764286995 0
vt 0.11677777 0.739792526 0
vt 0.269529104 0.781856298 0
vt 0.240762159 0.789361715 0
vt 0.223140597 0.747364223 0
vt 0.108900003 0.774800003 0
vt 0.187247515 0.801286101 0
vt 0.115985133 0.845343471 0
vt 0.675590575 0.768045783 0
vt 0.771700025 0.769599974 0
vt 0.737399995 0.789900005 0
vt 0.540322781 0.832604051 0
vt 0.550612688 0.791447639 0
vt 0.575800002 0.827700019 0
vt 0.350668222 0.633269012 0
vt 0.312730879 0.613503814 0
vt 0.325899988 0.579599977 0
vt 0.639850378 0.773941875 0
vt 0.675370872 0.788986504 0
vt 0.646600008 0.795599997 0
vt 0.448549867 0.543374002 0
vt 0.371240288 0.479631841 0
vt 0.403333902 0.502594173 0
vt 0.290189415 0.642782688 0
vt 0.350668222 0.633269012 0
vt 0.365540564 0.693065524 0
vt 0.312730879 0.613503814 0
vt 0.245113671 0.637680352 0
vt 0.274901807 0.595669746 0
vt 0.290189415 0.642782688 0
vt 0.245113671 0.637680352 0
vt 0.312730879 0.613503814 0
vt 0.655140817 0.701835692 0
vt 0.714903235 0.691573381 0
vt 0.686397433 0.715403676 0
vt 0.757399976 0.755200028 0
vt 0.771700025 0.769599974 0
vt 0.675590575 0.768045783 0
vt 0.0896999985 0.7676 0
vt 0.11677777 0.739792526 0
vt 0.108900003 0.774800003 0
vt 0.550612688 0.791447639 0
vt 0.639850378 0.773941875 0
vt 0.575800002 0.827700019 0
vt 0.156795233 0.712001503 0
vt 0.223140597 0.747364223 0
vt 0.194388941 0.764286995 0
vt 0.489556909 0.688954175 0
vt 0.517495394 0.661409199 0
vt 0.530508399 0.695676088 0
vt 0.156795233 0.712001503 0
vt 0.11677777 0.739792526 0
vt 0.103491977 0.689554274 0
vt 0.144963473 0.86111939 0
vt 0.115985133 0.845343471 0
vt 0.187247515 0.801286101 0
vt 0.403333902 0.502594173 0
vt 0.43574658 0.512731194 0
vt 0.448549867 0.543374002 0
vt 0.0905999988 0.811100006 0
vt 0.108900003 0.774800003 0
vt 0.115985133 0.845343471 0
vt 0.519152284 0.253081441 0
vt 0.604176044 0.289561242 0
vt 0.472335845 0.331229031 0
vt 0.770769119 0.648294628 0
vt 0.714903235 0.691573381 0
vt 0.687102795 0.621857226 0
vt 0.636375725 0.311851263 0
vt 0.626971841 0.398278207 0
vt 0.604176044 0.289561242 0
vt 0.367389262 0.452537298 0
vt 0.381301761 0.423151314 0
vt 0.414828837 0.452533573 0
vt 0.489556909 0.688954175 0
vt 0.529385626 0.71368432 0
vt 0.469876379 0.721687973 0
vt 0.549507797 0.402095646 0
vt 0.466833293 0.379675597 0
vt 0.472335845 0.331229031 0
vt 0.461650074 0.247538716 0
vt 0.378153563 0.239584252 0
vt 0.41533187 0.19211553 0
vt 0.583700001 0.428799987 0
vt 0.536175549 0.438594222 0
vt 0.549507797 0.402095646 0
vt 0.466833293 0.379675597 0
vt 0.549507797 0.402095646 0
vt 0.536175549 0.438594222 0
vt 0.333426744 0.29559502 0
vt 0.378153563 0.239584252 0
vt 0.380071014 0.290765673 0
vt 0.380071014 0.290765673 0
vt 0.378153563 0.239584252 0
vt 0.466517717 0.297703147 0
vt 0.365540564 0.693065524 0
vt 0.417689294 0.726410627 0
vt 0.379799992 0.742299974 0
vt 0.156795233 0.712001503 0
vt 0.138944507 0.684951544 0
vt 0.215493724 0.69138056 0
vt 0.472335845 0.331229031 0
vt 0.380071014 0.290765673 0
vt 0.466517717 0.297703147 0
vt 0.466517717 0.297703147 0
vt 0.461650074 0.247538716 0
vt 0.519152284 0.253081441 0
vt 0.466833293 0.379675597 0
vt 0.381301761 0.423151314 0
vt 0.366471261 0.363735259 0
vt 0.292057455 0.793281436 0
vt 0.272617221 0.736966074 0
vt 0.307200015 0.746500015 0
vt 0.365540564 0.693065524 0
vt 0.317402005 0.726240516 0
vt 0.290189415 0.642782688 0
vt 0.536175549 0.438594222 0
vt 0.508649051 0.457609624 0
vt 0.462383747 0.434659541 0
vt 0.519152284 0.253081441 0
vt 0.461650074 0.247538716 0
vt 0.451678842 0.176167697 0
vt 0.366471261 0.363735259 0
vt 0.333426744 0.29559502 0
vt 0.380071014 0.290765673 0
vt 0.41533187 0.19211553 0
vt 0.378153563 0.239584252 0
vt 0.388399899 0.208061978 0
vt 0.520459056 0.221221074 0
vt 0.550499976 0.226300001 0
vt 0.519152284 0.253081441 0
vt 0.257968187 0.685712218 0
vt 0.177289754 0.647214234 0
vt 0.230830133 0.63800627 0
vt 0.419935733 0.164862871 0
vt 0.451678842 0.176167697 0
vt 0.41533187 0.19211553 0
vt 0.138944507 0.684951544 0
vt 0.128097117 0.656733215 0
vt 0.177289754 0.647214234 0
vt 0.436749667 0.695218384 0
vt 0.417689294 0.726410627 0
vt 0.365540564 0.693065524 0
vt 0.714903235 0.691573381 0
vt 0.62445569 0.66317898 0
vt 0.687102795 0.621857226 0
vt 0.573099971 0.250200003 0
vt 0.613319933 0.261645585 0
vt 0.604176044 0.289561242 0
vt 0.466517717 0.297703147 0
vt 0.378153563 0.239584252 0
vt 0.461650074 0.247538716 0
vt 0.307200015 0.746500015 0
vt 0.272617221 0.736966074 0
vt 0.290671468 0.70287019 0
vt 0.272617221 0.736966074 0
vt 0.215493724 0.69138056 0
vt 0.257968187 0.685712218 0
vt 0.714903235 0.691573381 0
vt 0.655140817 0.701835692 0
vt 0.62445569 0.66317898 0
vt 0.138944507 0.684951544 0
vt 0.103491977 0.689554274 0
vt 0.128097117 0.656733215 0
vt 0.290189415 0.642782688 0
vt 0.317402005 0.726240516 0
vt 0.263558418 0.665851414 0
vt 0.573099971 0.250200003 0
vt 0.604176044 0.289561242 0
vt 0.519152284 0.253081441 0
vt 0.573099971 0.250200003 0
vt 0.519152284 0.253081441 0
vt 0.550499976 0.226300001 0
vt 0.272617221 0.736966074 0
vt 0.223140597 0.747364223 0
vt 0.215493724 0.69138056 0
vt 0.223140597 0.747364223 0
vt 0.272617221 0.736966074 0
vt 0.269529104 0.781856298 0
vt 0.597415924 0.705943525 0
vt 0.555373967 0.681222975 0
vt 0.62445569 0.66317898 0
vt 0.366471261 0.363735259 0
vt 0.380071014 0.290765673 0
vt 0.466833293 0.379675597 0
vt 0.466833293 0.379675597 0
vt 0.380071014 0.290765673 0
vt 0.472335845 0.331229031 0
vt 0.290671468 0.70287019 0
vt 0.272617221 0.736966074 0
vt 0.257968187 0.685712218 0
vt 0.604176044 0.289561242 0
vt 0.626971841 0.398278207 0
vt 0.549507797 0.402095646 0
vt 0.604176044 0.289561242 0
vt 0.549507797 0.402095646 0
vt 0.472335845 0.331229031 0
vt 0.555373967 0.681222975 0
vt 0.597415924 0.705943525 0
vt 0.540581048 0.711331785 0
vt 0.292057455 0.793281436 0
vt 0.321866512 0.794384837 0
vt 0.328087151 0.823053896 0
vt 0.3486 0.728500009 0
vt 0.317402005 0.726240516 0
vt 0.365540564 0.693065524 0
vt 0.365540564 0.693065524 0
vt 0.379799992 0.742299974 0
vt 0.3486 0.728500009 0
vt 0.215493724 0.69138056 0
vt 0.223140597 0.747364223 0
vt 0.156795233 0.712001503 0
vt 0.62445569 0.66317898 0
vt 0.655140817 0.701835692 0
vt 0.597415924 0.705943525 0
vt 0.613319933 0.261645585 0
vt 0.636375725 0.311851263 0
vt 0.604176044 0.289561242 0
vt 0.472335845 0.331229031 0
vt 0.466517717 0.297703147 0
vt 0.519152284 0.253081441 0
vt 0.461650074 0.247538716 0
vt 0.41533187 0.19211553 0
vt 0.451678842 0.176167697 0
vt 0.462383747 0.434659541 0
vt 0.414828837 0.452533573 0
vt 0.381301761 0.423151314 0
vt 0.536175549 0.438594222 0
vt 0.462383747 0.434659541 0
vt 0.466833293 0.379675597 0
vt 0.215493724 0.69138056 0
vt 0.138944507 0.684951544 0
vt 0.177289754 0.647214234 0
vt 0.215493724 0.69138056 0
vt 0.177289754 0.647214234 0
vt 0.257968187 0.685712218 0
vt 0.626971841 0.398278207 0
vt 0.583700001 0.428799987 0
vt 0.549507797 0.402095646 0
vt 0.517825902 0.755172014 0
vt 0.515164733 0.728595376 0
vt 0.540581048 0.711331785 0
vt 0.451678842 0.176167697 0
vt 0.520459056 0.221221074 0
vt 0.519152284 0.253081441 0
vt 0.269529104 0.781856298 0
vt 0.272617221 0.736966074 0
vt 0.292057455 0.793281436 0
vt 0.462383747 0.434659541 0
vt 0.381301761 0.423151314 0
vt 0.466833293 0.379675597 0
vt 0.770769119 0.648294628 0
vt 0.687102795 0.621857226 0
vt 0.750425458 0.622197688 0
vt 0.489556909 0.688954175 0
vt 0.469876379 0.721687973 0
vt 0.436749667 0.695218384 0
vt 0.436749667 0.695218384 0
vt 0.469876379 0.721687973 0
vt 0.417689294 0.726410627 0
vt 0.321866512 0.794384837 0
vt 0.292057455 0.793281436 0
vt 0.307200015 0.746500015 0
vt 0.489556909 0.688954175 0
vt 0.530508399 0.695676088 0
vt 0.529385626 0.71368432 0
vt 0.313565284 0.833232224 0
vt 0.292057455 0.793281436 0
vt 0.328087151 0.823053896 0
vt 0.644778609 0.375143319 0
vt 0.626971841 0.398278207 0
vt 0.636375725 0.311851263 0
vn 0.808325589 0.447850734 0.389141023
vn 0.880807757 0.50946486 -0.0195483044
vn 0.571699142 0.754667819 0.341477871
vn 0.225069597 0.895204186 0.374601454
vn 0.00517140236 0.935118198 0.387464315
vn 0.148583755 0.599348426 0.729758739
vn -1.0127424 -0.0586905405 0.166792467
vn -0.867101371 -0.125949726 0.49689731
vn -0.668058991 0.459924072 0.609561086
vn 0.972200274 -0.302214116 -0.0693806559
vn 1.00333238 0.0298586506 -0.203888401
vn 0.808325589 0.447850734 0.389141023
vn 0.364081323 0.790810645 0.491999447
vn 0.33385697 0.827226281 0.45192498
vn 0.148583755 0.599348426 0.729758739
vn -0.0844763145 0.952321827 -0.322149068
vn 0.21244812 0.898288012 -0.429546446
vn 0.0646815151 0.55051291 -0.84327811
vn -0.736738443 0.684987009 0.0501131378
vn -0.968270063 0.293643892 -0.00951681286
vn -0.668058991 0.459924072 0.609561086
vn 0.00517140236 0.935118198 0.387464315
vn -0.301800013 0.843544543 0.452537328
vn -0.188717797 0.703033149 0.702230871
vn -0.0844763145 0.952321827 -0.322149068
vn -0.278311014 0.968037486 0.152613655
vn -0.0574958026 0.998341143 0.00300837494
vn 0.0916867033 0.927563369 0.363314331
vn 0.292983234 0.971740067 0.0296874531
vn -0.0161293726 0.970506608 0.267893821
vn 0.571699142 0.754667819 0.341477871
vn 0.880807757 0.50946486 -0.0195483044
vn 0.292983234 0.971740067 0.0296874531
vn 0.21244812 0.898288012 -0.429546446
vn -0.0844763145 0.952321827 -0.322149068
vn 0.0530507043 0.985675693 -0.160090879
vn 0.00517140236 0.935118198 0.387464315
vn -0.188717797 0.703033149 0.702230871
vn 0.148583755 0.599348426 0.729758739
vn -0.301800013 0.843544543 0.452537328
vn -0.736738443 0.684987009 0.0501131378
vn -0.668058991 0.459924072 0.609561086
vn 0.571699142 0.754667819 0.341477871
vn 0.33385697 0.827226281 0.45192498
vn 0.364081323 0.790810645 0.491999447
vn 0.571699142 0.754667819 0.341477871
vn 0.292983234 0.971740067 0.0296874531
vn 0.225069597 0.895204186 0.374601454
vn -0.241699815 0.281331688 -0.948606074
vn -0.499729484 0.529554605 -0.728744745
vn 0.0646815151 0.55051291 -0.84327811
vn 0.599424958 0.601985872 -0.574036479
vn 0.385444432 0.266129196 -0.892823339
vn 0.21244812 0.898288012 -0.429546446
vn -0.301800013 0.843544543 0.452537328
vn -0.668058991 0.459924072 0.609561086
vn -0.188717797 0.703033149 0.702230871
vn -0.188717797 0.703033149 0.702230871
vn -0.668058991 0.459924072 0.609561086
vn -0.617749274 0.0972547978 0.820790827
vn -1.0127424 -0.0586905405 0.166792467
vn -0.668058991 0.459924072 0.609561086
vn -0.968270063 0.293643892 -0.00951681286
vn -0.278311014 0.968037486 0.152613655
vn -0.543450296 0.836913764 -0.18064104
vn -0.736738443 0.684987009 0.0501131378
vn -0.736738443 0.684987009 0.0501131378
vn -0.543450296 0.836913764 -0.18064104
vn -0.796675801 0.424350917 -0.458041102
vn 0.599424958 0.601985872 -0.574036479
vn 0.880807757 0.50946486 -0.0195483044
vn 0.809850037 0.217251867 -0.57315433
vn 0.809850037 0.217251867 -0.57315433
vn 0.880807757 0.50946486 -0.0195483044
vn 1.00333238 0.0298586506 -0.203888401
vn 0.808325589 0.447850734 0.389141023
vn 1.00333238 0.0298586506 -0.203888401
vn 0.880807757 0.50946486 -0.0195483044
vn 0.292983234 0.971740067 0.0296874531
vn 0.599424958 0.601985872 -0.574036479
vn 0.21244812 0.898288012 -0.429546446
vn 0.880807757 0.50946486 -0.0195483044
vn 0.599424958 0.601985872 -0.574036479
vn 0.292983234 0.971740067 0.0296874531
vn 0.0646815151 0.55051291 -0.84327811
vn 0.385444432 0.266129196 -0.892823339
vn 0.116136543 -0.0151632847 -1.01037896
vn 0.195149213 -0.499751061 0.874814451
vn 0.148583755 0.599348426 0.729758739
vn -0.329620659 -0.0831879601 0.979636014
vn 0.0646815151 0.55051291 -0.84327811
vn 0.21244812 0.898288012 -0.429546446
vn 0.385444432 0.266129196 -0.892823339
vn -0.188717797 0.703033149 0.702230871
vn -0.617749274 0.0972547978 0.820790827
vn -0.329620659 -0.0831879601 0.979636014
vn 0.148583755 0.599348426 0.729758739
vn -0.188717797 0.703033149 0.702230871
vn -0.329620659 -0.0831879601 0.979636014
vn 0.292983234 0.971740067 0.0296874531
vn -0.0269980747 0.99135828 0.128374115
vn -0.0161293726 0.970506608 0.267893821
vn 0.21244812 0.898288012 -0.429546446
vn 0.0530507043 0.985675693 -0.160090879
vn 0.292983234 0.971740067 0.0296874531
vn 0.195149213 -0.499751061 0.874814451
vn 0.372926593 0.442990631 0.779689372
vn 0.148583755 0.599348426 0.729758739
vn 0.58858031 -0.367476076 0.753670216
vn 0.56788677 0.453466445 0.691660285
vn 0.372926593 0.442990631 0.779689372
vn 0.225069597 0.895204186 0.374601454
vn 0.292983234 0.971740067 0.0296874531
vn 0.0916867033 0.927563369 0.363314331
vn 0.33385697 0.827226281 0.45192498
vn 0.225069597 0.895204186 0.374601454
vn 0.148583755 0.599348426 0.729758739
vn -0.0844763145 0.952321827 -0.322149068
vn -0.543450296 0.836913764 -0.18064104
vn -0.278311014 0.968037486 0.152613655
vn -0.278311014 0.968037486 0.152613655
vn -0.736738443 0.684987009 0.0501131378
vn -0.301800013 0.843544543 0.452537328
vn 0.808325589 0.447850734 0.389141023
vn 0.895856023 -0.368835896 0.349177331
vn 0.972200274 -0.302214116 -0.0693806559
vn -0.278311014 0.968037486 0.152613655
vn -0.301800013 0.843544543 0.452537328
vn 0.00517140236 0.935118198 0.387464315
vn 0.364081323 0.790810645 0.491999447
vn 0.148583755 0.599348426 0.729758739
vn 0.372926593 0.442990631 0.779689372
vn 0.544975162 -0.686811984 0.494766504
vn 0.895856023 -0.368835896 0.349177331
vn 0.58858031 -0.367476076 0.753670216
vn -0.499729484 0.529554605 -0.728744745
vn -0.543450296 0.836913764 -0.18064104
vn -0.0844763145 0.952321827 -0.322149068
vn -0.968270063 0.293643892 -0.00951681286
vn -0.736738443 0.684987009 0.0501131378
vn -0.796675801 0.424350917 -0.458041102
vn -0.0574958026 0.998341143 0.00300837494
vn -0.278311014 0.968037486 0.152613655
vn -0.0161293726 0.970506608 0.267893821
vn 0.292983234 0.971740067 0.0296874531
vn -0.0574958026 0.998341143 0.00300837494
vn -0.0269980747 0.99135828 0.128374115
vn 0.56788677 0.453466445 0.691660285
vn 0.808325589 0.447850734 0.389141023
vn 0.364081323 0.790810645 0.491999447
vn 0.372926593 0.442990631 0.779689372
vn 0.56788677 0.453466445 0.691660285
vn 0.364081323 0.790810645 0.491999447
vn 0.571699142 0.754667819 0.341477871
vn 0.225069597 0.895204186 0.374601454
vn 0.33385697 0.827226281 0.45192498
vn 0.00517140236 0.935118198 0.387464315
vn 0.225069597 0.895204186 0.374601454
vn 0.0916867033 0.927563369 0.363314331
vn 0.58858031 -0.367476076 0.753670216
vn 0.372926593 0.442990631 0.779689372
vn 0.195149213 -0.499751061 0.874814451
vn 0.56788677 0.453466445 0.691660285
vn 0.895856023 -0.368835896 0.349177331
vn 0.808325589 0.447850734 0.389141023
vn 0.58858031 -0.367476076 0.753670216
vn 0.895856023 -0.368835896 0.349177331
vn 0.56788677 0.453466445 0.691660285
vn 0.809850037 0.217251867 -0.57315433
vn 0.385444432 0.266129196 -0.892823339
vn 0.599424958 0.601985872 -0.574036479
vn 0.0530507043 0.985675693 -0.160090879
vn -0.0574958026 0.998341143 0.00300837494
vn 0.292983234 0.971740067 0.0296874531
vn 0.0530507043 0.985675693 -0.160090879
vn -0.0844763145 0.952321827 -0.322149068
vn -0.0574958026 0.998341143 0.00300837494
vn 0.808325589 0.447850734 0.389141023
vn 0.571699142 0.754667819 0.341477871
vn 0.364081323 0.790810645 0.491999447
vn -0.499729484 0.529554605 -0.728744745
vn -0.796675801 0.424350917 -0.458041102
vn -0.543450296 0.836913764 -0.18064104
vn -0.617749274 0.0972547978 0.820790827
vn -0.668058991 0.459924072 0.609561086
vn -0.867101371 -0.125949726 0.49689731
vn -0.499729484 0.529554605 -0.728744745
vn -0.0844763145 0.952321827 -0.322149068
vn 0.0646815151 0.55051291 -0.84327811
vn 0.00517140236 0.935118198 0.387464315
vn -0.0161293726 0.970506608 0.267893821
vn -0.278311014 0.968037486 0.152613655
vn 0.0916867033 0.927563369 0.363314331
vn -0.0161293726 0.970506608 0.267893821
vn 0.00517140236 0.935118198 0.387464315
vn -0.0269980747 0.99135828 0.128374115
vn -0.0574958026 0.998341143 0.00300837494
vn -0.0161293726 0.970506608 0.267893821
vn -0.00376690854 -0.960259199 0.286203802
vn -0.427623332 -0.874781489 0.260092139
vn -0.156458154 -0.976847053 -0.0603629239
vn 0.116136543 -0.0151632847 -1.01037896
vn 0.385444432 0.266129196 -0.892823339
vn 0.298871696 -0.368446141 -0.89353615
vn -0.576400518 -0.704964399 0.414919227
vn -0.76771313 -0.620843172 0.189271271
vn -0.427623332 -0.874781489 0.260092139
vn 0.116136543 -0.0151632847 -1.01037896
vn 0.140038535 -0.248441413 -0.980903983
vn -0.262224168 -0.160186335 -0.958819509
vn -0.617749274 0.0972547978 0.820790827
vn -0.821040988 -0.456571013 0.365846992
vn -0.576400518 -0.704964399 0.414919227
vn -0.581755638 -0.838067412 -0.00832409877
vn -0.0786693543 -0.740095377 -0.648663998
vn -0.156458154 -0.976847053 -0.0603629239
vn 0.443161011 -0.905530512 0.104207419
vn 0.799439907 -0.567665815 -0.202894285
vn 0.745393395 -0.657891393 0.181032762
vn -0.8185094 -0.563239872 -0.113151036
vn -0.748877764 -0.570385337 -0.376055092
vn -0.581755638 -0.838067412 -0.00832409877
vn -0.0786693543 -0.740095377 -0.648663998
vn -0.581755638 -0.838067412 -0.00832409877
vn -0.748877764 -0.570385337 -0.376055092
vn 0.709767342 -0.228443772 -0.682394207
vn 0.799439907 -0.567665815 -0.202894285
vn 0.481984824 -0.697796166 -0.548204541
vn 0.481984824 -0.697796166 -0.548204541
vn 0.799439907 -0.567665815 -0.202894285
vn 0.254102379 -0.95204705 -0.20884867
vn 0.195149213 -0.499751061 0.874814451
vn -0.237608865 -0.661573172 0.721801341
vn -0.0884867683 -0.837902486 0.538599551
vn -0.499729484 0.529554605 -0.728744745
vn -0.241699815 0.281331688 -0.948606074
vn -0.679182231 0.0466794111 -0.761528075
vn -0.156458154 -0.976847053 -0.0603629239
vn 0.481984824 -0.697796166 -0.548204541
vn 0.254102379 -0.95204705 -0.20884867
vn 0.254102379 -0.95204705 -0.20884867
vn 0.443161011 -0.905530512 0.104207419
vn -0.00376690854 -0.960259199 0.286203802
vn -0.0786693543 -0.740095377 -0.648663998
vn 0.140038535 -0.248441413 -0.980903983
vn 0.298871696 -0.368446141 -0.89353615
vn -1.0127424 -0.0586905405 0.166792467
vn -0.908118069 -0.132601336 -0.426153272
vn -0.8185094 -0.563239872 -0.113151036
vn 0.195149213 -0.499751061 0.874814451
vn 0.286420941 -0.790999055 0.572150588
vn 0.58858031 -0.367476076 0.753670216
vn -0.748877764 -0.570385337 -0.376055092
vn -0.749775112 -0.267757535 -0.637094021
vn -0.460015208 -0.404288948 -0.798481047
vn -0.00376690854 -0.960259199 0.286203802
vn 0.443161011 -0.905530512 0.104207419
vn 0.544975162 -0.686811984 0.494766504
vn 0.298871696 -0.368446141 -0.89353615
vn 0.709767342 -0.228443772 -0.682394207
vn 0.481984824 -0.697796166 -0.548204541
vn 0.745393395 -0.657891393 0.181032762
vn 0.799439907 -0.567665815 -0.202894285
vn 0.972200274 -0.302214116 -0.0693806559
vn 0.286420941 -0.790999055 0.572150588
vn 0.16539903 -0.730418921 0.662669897
vn -0.00376690854 -0.960259199 0.286203802
vn -0.749775112 -0.267757535 -0.637094021
vn -0.262224168 -0.160186335 -0.958819509
vn -0.460015208 -0.404288948 -0.798481047
vn 0.895856023 -0.368835896 0.349177331
vn 0.544975162 -0.686811984 0.494766504
vn 0.745393395 -0.657891393 0.181032762
vn -0.241699815 0.281331688 -0.948606074
vn 0.116136543 -0.0151632847 -1.01037896
vn -0.262224168 -0.160186335 -0.958819509
vn -0.329620659 -0.0831879601 0.979636014
vn -0.237608865 -0.661573172 0.721801341
vn 0.195149213 -0.499751061 0.874814451
vn 0.385444432 0.266129196 -0.892823339
vn 0.709767342 -0.228443772 -0.682394207
vn 0.298871696 -0.368446141 -0.89353615
vn -0.0884867683 -0.837902486 0.538599551
vn -0.237608865 -0.661573172 0.721801341
vn -0.427623332 -0.874781489 0.260092139
vn 0.254102379 -0.95204705 -0.20884867
vn 0.799439907 -0.567665815 -0.202894285
vn 0.443161011 -0.905530512 0.104207419
vn -0.8185094 -0.563239872 -0.113151036
vn -0.908118069 -0.132601336 -0.426153272
vn -0.748877764 -0.570385337 -0.376055092
vn -0.908118069 -0.132601336 -0.426153272
vn -0.679182231 0.0466794111 -0.761528075
vn -0.749775112 -0.267757535 -0.637094021
vn 0.385444432 0.266129196 -0.892823339
vn 0.809850037 0.217251867 -0.57315433
vn 0.709767342 -0.228443772 -0.682394207
vn -0.241699815 0.281331688 -0.948606074
vn 0.0646815151 0.55051291 -0.84327811
vn 0.116136543 -0.0151632847 -1.01037896
vn 0.58858031 -0.367476076 0.753670216
vn 0.286420941 -0.790999055 0.572150588
vn 0.544975162 -0.686811984 0.494766504
vn -0.0884867683 -0.837902486 0.538599551
vn -0.427623332 -0.874781489 0.260092139
vn -0.00376690854 -0.960259199 0.286203802
vn -0.0884867683 -0.837902486 0.538599551
vn -0.00376690854 -0.960259199 0.286203802
vn 0.16539903 -0.730418921 0.662669897
vn -0.908118069 -0.132601336 -0.426153272
vn -0.796675801 0.424350917 -0.458041102
vn -0.679182231 0.0466794111 -0.761528075
vn -0.796675801 0.424350917 -0.458041102
vn -0.908118069 -0.132601336 -0.426153272
vn -0.968270063 0.293643892 -0.00951681286
vn 1.00333238 0.0298586506 -0.203888401
vn 0.799439907 -0.567665815 -0.202894285
vn 0.709767342 -0.228443772 -0.682394207
vn 0.298871696 -0.368446141 -0.89353615
vn 0.481984824 -0.697796166 -0.548204541
vn -0.0786693543 -0.740095377 -0.648663998
vn -0.0786693543 -0.740095377 -0.648663998
vn 0.481984824 -0.697796166 -0.548204541
vn -0.156458154 -0.976847053 -0.0603629239
vn -0.748877764 -0.570385337 -0.376055092
vn -0.908118069 -0.132601336 -0.426153272
vn -0.749775112 -0.267757535 -0.637094021
vn -0.427623332 -0.874781489 0.260092139
vn -0.76771313 -0.620843172 0.189271271
vn -0.581755638 -0.838067412 -0.00832409877
vn -0.427623332 -0.874781489 0.260092139
vn -0.581755638 -0.838067412 -0.00832409877
vn -0.156458154 -0.976847053 -0.0603629239
vn 0.799439907 -0.567665815 -0.202894285
vn 1.00333238 0.0298586506 -0.203888401
vn 0.972200274 -0.302214116 -0.0693806559
vn -1.0127424 -0.0586905405 0.166792467
vn -0.76771313 -0.620843172 0.189271271
vn -0.821040988 -0.456571013 0.365846992
vn 0.16539903 -0.730418921 0.662669897
vn 0.286420941 -0.790999055 0.572150588
vn 0.195149213 -0.499751061 0.874814451
vn 0.195149213 -0.499751061 0.874814451
vn -0.0884867683 -0.837902486 0.538599551
vn 0.16539903 -0.730418921 0.662669897
vn -0.679182231 0.0466794111 -0.761528075
vn -0.796675801 0.424350917 -0.458041102
vn -0.499729484 0.529554605 -0.728744745
vn 0.709767342 -0.228443772 -0.682394207
vn 0.809850037 0.217251867 -0.57315433
vn 1.00333238 0.0298586506 -0.203888401
vn -0.237608865 -0.661573172 0.721801341
vn -0.576400518 -0.704964399 0.414919227
vn -0.427623332 -0.874781489 0.260092139
vn -0.156458154 -0.976847053 -0.0603629239
vn 0.254102379 -0.95204705 -0.20884867
vn -0.00376690854 -0.960259199 0.286203802
vn 0.443161011 -0.905530512 0.104207419
vn 0.745393395 -0.657891393 0.181032762
vn 0.544975162 -0.686811984 0.494766504
vn -0.460015208 -0.404288948 -0.798481047
vn -0.262224168 -0.160186335 -0.958819509
vn 0.140038535 -0.248441413 -0.980903983
vn -0.748877764 -0.570385337 -0.376055092
vn -0.460015208 -0.404288948 -0.798481047
vn -0.0786693543 -0.740095377 -0.648663998
vn -0.679182231 0.0466794111 -0.761528075
vn -0.241699815 0.281331688 -0.948606074
vn -0.262224168 -0.160186335 -0.958819509
vn -0.679182231 0.0466794111 -0.761528075
vn -0.262224168 -0.160186335 -0.958819509
vn -0.749775112 -0.267757535 -0.637094021
vn -0.76771313 -0.620843172 0.189271271
vn -0.8185094 -0.563239872 -0.113151036
vn -0.581755638 -0.838067412 -0.00832409877
vn 0.895856023 -0.368835896 0.349177331
vn 0.745393395 -0.657891393 0.181032762
vn 0.972200274 -0.302214116 -0.0693806559
vn 0.544975162 -0.686811984 0.494766504
vn 0.286420941 -0.790999055 0.572150588
vn -0.00376690854 -0.960259199 0.286203802
vn -0.968270063 0.293643892 -0.00951681286
vn -0.908118069 -0.132601336 -0.426153272
vn -1.0127424 -0.0586905405 0.166792467
vn -0.460015208 -0.404288948 -0.798481047
vn 0.140038535 -0.248441413 -0.980903983
vn -0.0786693543 -0.740095377 -0.648663998
vn 0.116136543 -0.0151632847 -1.01037896
vn 0.298871696 -0.368446141 -0.89353615
vn 0.140038535 -0.248441413 -0.980903983
vn -0.617749274 0.0972547978 0.820790827
vn -0.576400518 -0.704964399 0.414919227
vn -0.329620659 -0.0831879601 0.979636014
vn -0.329620659 -0.0831879601 0.979636014
vn -0.576400518 -0.704964399 0.414919227
vn -0.237608865 -0.661573172 0.721801341
vn -0.76771313 -0.620843172 0.189271271
vn -1.0127424 -0.0586905405 0.166792467
vn -0.8185094 -0.563239872 -0.113151036
vn -0.617749274 0.0972547978 0.820790827
vn -0.867101371 -0.125949726 0.49689731
vn -0.821040988 -0.456571013 0.365846992
vn -0.867101371 -0.125949726 0.49689731
vn -1.0127424 -0.0586905405 0.166792467
vn -0.821040988 -0.456571013 0.365846992
vn -0.821040988 -0.456571013 0.365846992
vn -0.76771313 -0.620843172 0.189271271
vn -0.576400518 -0.704964399 0.414919227
g Scatter_Smooth_02_LOD0
f 8/1/1 9/2/2 10/3/3
f 11/4/4 12/5/5 13/6/6
f 15/7/7 16/8/8 17/9/9
f 18/10/10 19/11/11 8/12/12
f 20/13/13 21/14/14 13/15/15
f 24/16/16 25/17/17 26/18/18
f 28/19/19 29/20/20 17/21/21
f 12/22/22 31/23/23 6/24/24
f 24/25/25 4/26/26 32/27/27
f 34/28/28 35/29/29 3/30/30
f 10/31/31 9/32/32 35/33/33
f 25/34/34 24/35/35 36/36/36
f 12/37/37 6/38/38 13/39/39
f 31/40/40 28/41/41 17/42/42
f 10/43/43 21/44/44 20/45/45
f 10/46/46 35/47/47 11/48/48
f 38/49/49 27/50/50 26/51/51
f 1/52/52 2/53/53 25/54/54
f 31/55/55 17/56/56 6/57/57
f 6/58/58 17/59/59 7/60/60
f 15/61/61 17/62/62 29/63/63
f 4/64/64 14/65/65 28/66/66
f 28/67/67 14/68/68 40/69/69
f 1/70/70 9/71/71 33/72/72
f 33/73/73 9/74/74 19/75/75
f 8/76/76 19/77/77 9/78/78
f 35/79/79 1/80/80 25/81/81
f 9/82/82 1/83/83 35/84/84
f 26/85/85 2/86/86 41/87/87
f 23/88/88 13/89/89 30/90/90
f 26/91/91 25/92/92 2/93/93
f 6/94/94 7/95/95 30/96/96
f 13/97/97 6/98/98 30/99/99
f 35/100/100 42/101/101 3/102/102
f 25/103/103 36/104/104 35/105/105
f 23/106/106 22/107/107 13/108/108
f 5/109/109 37/110/110 22/111/111
f 11/112/112 35/113/113 34/114/114
f 21/115/115 11/116/116 13/117/117
f 24/118/118 14/119/119 4/120/120
f 4/121/121 28/122/122 31/123/123
f 8/124/124 39/125/125 18/126/126
f 4/127/127 31/128/128 12/129/129
f 20/130/130 13/131/131 22/132/132
f 43/133/133 39/134/134 5/135/135
f 27/136/136 14/137/137 24/138/138
f 29/139/139 28/140/140 40/141/141
f 32/142/142 4/143/143 3/144/144
f 35/145/145 32/146/146 42/147/147
f 37/148/148 8/149/149 20/150/150
f 22/151/151 37/152/152 20/153/153
f 10/154/154 11/155/155 21/156/156
f 12/157/157 11/158/158 34/159/159
f 5/160/160 22/161/161 23/162/162
f 37/163/163 39/164/164 8/165/165
f 5/166/166 39/167/167 37/168/168
f 33/169/169 2/170/170 1/171/171
f 36/172/172 32/173/173 35/174/174
f 36/175/175 24/176/176 32/177/177
f 8/178/178 10/179/179 20/180/180
f 27/181/181 40/182/182 14/183/183
f 7/184/184 17/185/185 16/186/186
f 27/187/187 24/188/188 26/189/189
f 12/190/190 3/191/191 4/192/192
f 34/193/193 3/194/194 12/195/195
f 42/196/196 32/197/197 3/198/198
f 50/199/199 46/200/200 47/201/201
f 41/202/202 2/203/203 51/204/204
f 54/205/205 55/206/206 46/207/207
f 41/208/208 48/209/209 58/210/210
f 7/211/211 59/212/212 54/213/213
f 60/214/214 45/215/215 47/216/216
f 49/217/217 61/218/218 62/219/219
f 63/220/220 64/221/221 60/222/222
f 45/223/223 60/224/224 64/225/225
f 53/226/226 61/227/227 52/228/228
f 52/229/229 61/230/230 65/231/231
f 23/232/232 66/233/233 67/234/234
f 27/235/235 38/236/236 56/237/237
f 47/238/238 52/239/239 65/240/240
f 65/241/241 49/242/242 50/243/243
f 45/244/244 48/245/245 51/246/246
f 15/247/247 57/248/248 63/249/249
f 23/250/250 68/251/251 5/252/252
f 64/253/253 69/254/254 44/255/255
f 50/256/256 49/257/257 43/258/258
f 51/259/259 53/260/260 52/261/261
f 62/262/262 61/263/263 18/264/264
f 68/265/265 70/266/266 50/267/267
f 69/268/268 58/269/269 44/270/270
f 39/271/271 43/272/272 62/273/273
f 38/274/274 41/275/275 58/276/276
f 30/277/277 66/278/278 23/279/279
f 2/280/280 53/281/281 51/282/282
f 67/283/283 66/284/284 46/285/285
f 65/286/286 61/287/287 49/288/288
f 63/289/289 57/290/290 64/291/291
f 57/292/292 56/293/293 69/294/294
f 2/295/295 33/296/296 53/297/297
f 38/298/298 26/299/299 41/300/300
f 5/301/301 68/302/302 43/303/303
f 67/304/304 46/305/305 50/306/306
f 67/307/307 50/308/308 70/309/309
f 57/310/310 40/311/311 56/312/312
f 40/313/313 57/314/314 29/315/315
f 19/316/316 61/317/317 53/318/318
f 51/319/319 52/320/320 45/321/321
f 45/322/322 52/323/323 47/324/324
f 64/325/325 57/326/326 69/327/327
f 46/328/328 55/329/329 60/330/330
f 46/331/331 60/332/332 47/333/333
f 61/334/334 19/335/335 18/336/336
f 15/337/337 55/338/338 59/339/339
f 70/340/340 68/341/341 23/342/342
f 23/343/343 67/344/344 70/345/345
f 56/346/346 40/347/347 27/348/348
f 53/349/349 33/350/350 19/351/351
f 66/352/352 54/353/353 46/354/354
f 47/355/355 65/356/356 50/357/357
f 49/358/358 62/359/359 43/360/360
f 44/361/361 58/362/362 48/363/363
f 64/364/364 44/365/365 45/366/366
f 56/367/367 38/368/368 58/369/369
f 56/370/370 58/371/371 69/372/372
f 55/373/373 63/374/374 60/375/375
f 39/376/376 62/377/377 18/378/378
f 43/379/379 68/380/380 50/381/381
f 29/382/382 57/383/383 15/384/384
f 44/385/385 48/386/386 45/387/387
f 41/388/388 51/389/389 48/390/390
f 7/391/391 54/392/392 30/393/393
f 30/394/394 54/395/395 66/396/396
f 55/397/397 15/398/398 63/399/399
f 7/400/400 16/401/401 59/402/402
f 16/403/403 15/404/404 59/405/405
f 59/406/406 55/407/407 54/408/408
