# File exported by Houdini 16.5.405 (www.sidefx.com)
# 79 points
# 462 vertices
# 154 primitives
# Bounds: [-12.2791853, 0.329537034, -16.8675995] to [4.47994089, 13.3903008, 6.50115061]
g 
v -8.56398392 11.5474167 -2.83144999
v -8.82964325 10.9867182 -9.51245594
v -9.13005543 8.4446249 -12.5309172
v 3.47892189 9.3824873 1.62263322
v 4.16143703 6.11064243 -0.430427045
v 4.16795492 8.5044775 -7.98936558
v 2.59644485 10.5697346 -7.26939678
v 0.770892918 12.7982817 -0.256300539
v -6.24216127 7.94835663 6.29584932
v -1.01414716 7.10226154 6.50115061
v -2.46524763 10.5769691 5.51043892
v -10.5688868 9.81893253 -6.53230238
v 0.527886212 6.80736494 -15.265871
v 0.27471143 11.0892057 -10.9946852
v 2.50751305 6.05467749 -13.3934278
v -12.2791853 5.07754374 -6.70335674
v -12.1342783 3.34067774 -4.76528692
v -12.0929222 6.41442633 -1.02739072
v -1.69943821 4.20265818 5.78243685
v -1.69868505 9.07537746 -14.965271
v -5.26725101 11.6755962 -10.4823418
v -3.41161442 12.8066044 -8.0974884
v -2.89177728 13.3903008 -3.2891624
v -10.4447584 8.63035297 1.23251712
v -9.13225365 7.81994152 4.07292986
v -7.1202817 10.4295149 3.23087955
v -4.32648611 12.0621758 2.84556222
v -1.34440005 13.2658005 -0.476599991
v 4.47994089 5.45616579 -8.0650835
v -6.06638098 4.49321651 6.03878593
v -8.98412132 6.67913246 4.71786022
v -10.8339949 4.26804161 1.16479135
v -8.38440609 5.58004618 -14.9210587
v 0.77048701 6.34867334 5.19710875
v 1.67656314 3.66107011 3.00718164
v -10.9127417 5.94496965 -11.2867613
v -1.62059999 12.9759998 1.55449998
v -0.109983884 11.7763348 3.64003944
v -1.70239997 10.9762001 -12.2558002
v -4.23775864 6.54151344 -16.4515133
v -2.47659492 6.90941954 -16.5082111
v -11.7890997 3.94079995 -1.38759995
v -10.6576996 7.09730005 2.36960006
v 3.04569721 10.8654413 -0.420526296
v 0.726611018 12.1258698 2.20469046
v -6.92477751 12.4346619 -6.29875326
v -11.2711496 5.6056118 1.48835099
v -5.57837343 2.82880139 5.18481064
v 2.9777 5.94089985 2.59990001
v -2.58400011 12.4373999 2.9224
v 1.18559647 0.665794969 -8.69476509
v -1.84553766 0.739471674 1.34958744
v -5.7767148 0.329537034 -11.1110353
v -8.26534557 1.60821259 0.339662641
v -0.930318654 0.874915123 -13.1403074
v -1.53415775 3.17736506 -16.3641777
v 0.98718822 3.82122469 -15.0907745
v 1.20213914 1.59164 -12.8621235
v 3.10788655 3.4875021 -1.37598276
v 3.43950009 2.88940001 -7.6960001
v -8.05668354 1.39072025 -12.2627172
v -8.92667389 0.715557754 -4.54429007
v -11.9271631 2.76527667 -6.08650398
v 0.536474943 2.35323334 2.6833539
v -3.03539991 2.57150006 4.64799976
v 1.06112611 1.049191 -0.288776606
v -4.09304094 1.9073813 -15.2451477
v -5.84086943 3.63259125 -16.1109409
v -10.2703257 3.95501685 -12.2239313
v -8.0958004 3.99320006 -14.7504997
v -4.80851412 4.3917613 -16.8357372
v -9.50898075 3.00175428 -12.8054819
v -11.7533855 2.85301685 -3.07485533
v 2.80914807 3.3430922 -12.0590296
v 2.25963068 1.58798242 -3.46517348
v -3.15070009 4.44239998 -16.8675995
v 3.00679922 2.02057743 -8.90413284
v -11.2265997 3.45880008 -0.730799973
v 2.63179994 4.1868 1.69579995
vt 0.0168004557 0.525004864 0
vt 0.0486567542 0.478255838 0
vt 0.150541544 0.516004622 0
vt 0.908255994 0.581732392 0
vt 0.921405971 0.646131814 0
vt 0.875171304 0.632136047 0
vt 0.265408605 0.523528099 0
vt 0.196519166 0.576410711 0
vt 0.232643202 0.499572307 0
vt 0.648759484 0.432603657 0
vt 0.66853267 0.400123209 0
vt 0.730875969 0.432039976 0
vt 0.771577179 0.463274032 0
vt 0.821634591 0.455650121 0
vt 0.817558229 0.511080205 0
vt 0.830411792 0.604947805 0
vt 0.855122745 0.560146987 0
vt 0.908255994 0.581732392 0
vt 0.162687823 0.640740573 0
vt 0.0467999987 0.622699976 0
vt 0.0435286462 0.59089309 0
vt 0.232643202 0.499572307 0
vt 0.196519166 0.576410711 0
vt 0.150541544 0.516004622 0
vt 0.921405971 0.646131814 0
vt 0.908255994 0.581732392 0
vt 0.952612758 0.580529928 0
vt 0.919937193 0.538285732 0
vt 0.959044993 0.480559856 0
vt 0.952612758 0.580529928 0
vt 0.0467999987 0.622699976 0
vt 0.0143999998 0.625500023 0
vt 0.0435286462 0.59089309 0
vt 0.875171304 0.632136047 0
vt 0.921405971 0.646131814 0
vt 0.850020945 0.668979228 0
vt 0.150541544 0.516004622 0
vt 0.0486567542 0.478255838 0
vt 0.155881077 0.475756407 0
vt 0.668124378 0.498103291 0
vt 0.635478675 0.530651808 0
vt 0.588152528 0.511801898 0
vt 0.730875969 0.432039976 0
vt 0.66853267 0.400123209 0
vt 0.720099986 0.396899998 0
vt 0.196519166 0.576410711 0
vt 0.162687823 0.640740573 0
vt 0.0435286462 0.59089309 0
vt 0.581499994 0.625699997 0
vt 0.53230387 0.609649241 0
vt 0.620844126 0.578865767 0
vt 0.734304786 0.611551464 0
vt 0.823279083 0.56309545 0
vt 0.814199984 0.612699986 0
vt 0.771577179 0.463274032 0
vt 0.786899984 0.437900007 0
vt 0.821634591 0.455650121 0
vt 0.730875969 0.432039976 0
vt 0.771577179 0.463274032 0
vt 0.668124378 0.498103291 0
vt 0.648759484 0.432603657 0
vt 0.730875969 0.432039976 0
vt 0.668124378 0.498103291 0
vt 0.591786206 0.468954086 0
vt 0.668124378 0.498103291 0
vt 0.588152528 0.511801898 0
vt 0.9302845 0.673580408 0
vt 0.959318757 0.639498353 0
vt 0.974141538 0.702888429 0
vt 0.657677293 0.610317528 0
vt 0.620844126 0.578865767 0
vt 0.680689335 0.556758881 0
vt 0.635478675 0.530651808 0
vt 0.668124378 0.498103291 0
vt 0.723549128 0.523211479 0
vt 0.786899984 0.437900007 0
vt 0.771577179 0.463274032 0
vt 0.730875969 0.432039976 0
vt 0.53230387 0.609649241 0
vt 0.588152528 0.511801898 0
vt 0.620844126 0.578865767 0
vt 0.50657624 0.555289686 0
vt 0.53230387 0.609649241 0
vt 0.497254372 0.581817508 0
vt 0.850020945 0.668979228 0
vt 0.921405971 0.646131814 0
vt 0.879530609 0.73777312 0
vt 0.53230387 0.609649241 0
vt 0.50657624 0.555289686 0
vt 0.588152528 0.511801898 0
vt 0.680689335 0.556758881 0
vt 0.635478675 0.530651808 0
vt 0.723549128 0.523211479 0
vt 0.982312202 0.581940532 0
vt 0.952612758 0.580529928 0
vt 0.959044993 0.480559856 0
vt 0.0168004557 0.525004864 0
vt 0.00100000005 0.472000003 0
vt 0.0486567542 0.478255838 0
vt 0.591786206 0.468954086 0
vt 0.588152528 0.511801898 0
vt 0.538919508 0.498397231 0
vt 0.150541544 0.516004622 0
vt 0.196519166 0.576410711 0
vt 0.14085862 0.550015509 0
vt 0.14085862 0.550015509 0
vt 0.0466660894 0.54785645 0
vt 0.150541544 0.516004622 0
vt 0.952612758 0.580529928 0
vt 0.908255994 0.581732392 0
vt 0.919937193 0.538285732 0
vt 0.581499994 0.625699997 0
vt 0.620844126 0.578865767 0
vt 0.657677293 0.610317528 0
vt 0.768286765 0.415163785 0
vt 0.786899984 0.437900007 0
vt 0.730875969 0.432039976 0
vt 0.265408605 0.523528099 0
vt 0.267950505 0.571183741 0
vt 0.196519166 0.576410711 0
vt 0.9302845 0.673580408 0
vt 0.921405971 0.646131814 0
vt 0.959318757 0.639498353 0
vt 0.921405971 0.646131814 0
vt 0.9302845 0.673580408 0
vt 0.879530609 0.73777312 0
vt 0.723549128 0.523211479 0
vt 0.823279083 0.56309545 0
vt 0.734304786 0.611551464 0
vt 0.723549128 0.523211479 0
vt 0.771577179 0.463274032 0
vt 0.817558229 0.511080205 0
vt 0.723549128 0.523211479 0
vt 0.817558229 0.511080205 0
vt 0.823279083 0.56309545 0
vt 0.588152528 0.511801898 0
vt 0.50657624 0.555289686 0
vt 0.538919508 0.498397231 0
vt 0.850020945 0.668979228 0
vt 0.879530609 0.73777312 0
vt 0.834446847 0.690028548 0
vt 0.591786206 0.468954086 0
vt 0.648759484 0.432603657 0
vt 0.668124378 0.498103291 0
vt 0.814199984 0.612699986 0
vt 0.823279083 0.56309545 0
vt 0.832199991 0.590300024 0
vt 0.734304786 0.611551464 0
vt 0.657677293 0.610317528 0
vt 0.680689335 0.556758881 0
vt 0.808000028 0.655399978 0
vt 0.828599989 0.63410002 0
vt 0.850020945 0.668979228 0
vt 0.834446847 0.690028548 0
vt 0.808000028 0.655399978 0
vt 0.850020945 0.668979228 0
vt 0.668124378 0.498103291 0
vt 0.771577179 0.463274032 0
vt 0.723549128 0.523211479 0
vt 0.267950505 0.571183741 0
vt 0.265408605 0.523528099 0
vt 0.307278246 0.549965322 0
vt 0.783100009 0.625699997 0
vt 0.734304786 0.611551464 0
vt 0.814199984 0.612699986 0
vt 0.680689335 0.556758881 0
vt 0.620844126 0.578865767 0
vt 0.635478675 0.530651808 0
vt 0.588152528 0.511801898 0
vt 0.635478675 0.530651808 0
vt 0.620844126 0.578865767 0
vt 0.855122745 0.560146987 0
vt 0.900822759 0.530580521 0
vt 0.908255994 0.581732392 0
vt 0.900822759 0.530580521 0
vt 0.919937193 0.538285732 0
vt 0.908255994 0.581732392 0
vt 0.162687823 0.640740573 0
vt 0.0903679132 0.641585529 0
vt 0.0467999987 0.622699976 0
vt 0.959044993 0.480559856 0
vt 0.919937193 0.538285732 0
vt 0.936130345 0.478353888 0
vt 0.196519166 0.576410711 0
vt 0.223199993 0.597100019 0
vt 0.162687823 0.640740573 0
vt 0.267950505 0.571183741 0
vt 0.223199993 0.597100019 0
vt 0.196519166 0.576410711 0
vt 0.919937193 0.538285732 0
vt 0.912199974 0.495099992 0
vt 0.936130345 0.478353888 0
vt 0.900822759 0.530580521 0
vt 0.912199974 0.495099992 0
vt 0.919937193 0.538285732 0
vt 0.850020945 0.668979228 0
vt 0.828599989 0.63410002 0
vt 0.875171304 0.632136047 0
vt 0.0435286462 0.59089309 0
vt 0.00515870797 0.585580587 0
vt 0.0466660894 0.54785645 0
vt 0.0466660894 0.54785645 0
vt 0.00515870797 0.585580587 0
vt 0.0168004557 0.525004864 0
vt 0.150541544 0.516004622 0
vt 0.155881077 0.475756407 0
vt 0.232643202 0.499572307 0
vt 0.14085862 0.550015509 0
vt 0.196519166 0.576410711 0
vt 0.0435286462 0.59089309 0
vt 0.680689335 0.556758881 0
vt 0.723549128 0.523211479 0
vt 0.734304786 0.611551464 0
vt 0.14085862 0.550015509 0
vt 0.0435286462 0.59089309 0
vt 0.0466660894 0.54785645 0
vt 0.830411792 0.604947805 0
vt 0.908255994 0.581732392 0
vt 0.875171304 0.632136047 0
vt 0.830411792 0.604947805 0
vt 0.875171304 0.632136047 0
vt 0.828599989 0.63410002 0
vt 0.0168004557 0.525004864 0
vt 0.150541544 0.516004622 0
vt 0.0466660894 0.54785645 0
vt 0.730875969 0.432039976 0
vt 0.720099986 0.396899998 0
vt 0.768286765 0.415163785 0
vt 0.0435286462 0.59089309 0
vt 0.0143999998 0.625500023 0
vt 0.00515870797 0.585580587 0
vt 0.9302845 0.673580408 0
vt 0.937300026 0.724699974 0
vt 0.879530609 0.73777312 0
vt 0.937300026 0.724699974 0
vt 0.9302845 0.673580408 0
vt 0.974141538 0.702888429 0
vt 0.959318757 0.639498353 0
vt 0.921405971 0.646131814 0
vt 0.952612758 0.580529928 0
vt 0.779300213 0.212828413 0
vt 0.927221239 0.225899234 0
vt 0.765410483 0.31385839 0
vt 0.927221239 0.225899234 0
vt 1.00023592 0.269388288 0
vt 0.932600439 0.320002884 0
vt 0.66963464 0.270907342 0
vt 0.673323691 0.224990532 0
vt 0.719977498 0.223879755 0
vt 0.155881077 0.475756407 0
vt 0.0624775253 0.43709299 0
vt 0.1567 0.435400009 0
vt 0.155881077 0.475756407 0
vt 0.0486567542 0.478255838 0
vt 0.0624775253 0.43709299 0
vt 0.965404809 0.366458178 0
vt 0.932600439 0.320002884 0
vt 1.00023592 0.269388288 0
vt 0.863652885 0.340918303 0
vt 0.851382792 0.397238344 0
vt 0.753944933 0.34990108 0
vt 0.927221239 0.225899234 0
vt 0.932600439 0.320002884 0
vt 0.863652885 0.340918303 0
vt 0.944367647 0.182065561 0
vt 0.985800028 0.2315 0
vt 0.927221239 0.225899234 0
vt 0.896274686 0.190485701 0
vt 0.927221239 0.225899234 0
vt 0.779300213 0.212828413 0
vt 0.276459396 0.477721214 0
vt 0.322609782 0.489738554 0
vt 0.265408605 0.523528099 0
vt 0.701630652 0.303582698 0
vt 0.66963464 0.270907342 0
vt 0.724939048 0.254482806 0
vt 0.682941377 0.337295085 0
vt 0.701630652 0.303582698 0
vt 0.753944933 0.34990108 0
vt 0.564213037 0.451785892 0
vt 0.538919508 0.498397231 0
vt 0.522800028 0.48179999 0
vt 0.944367647 0.182065561 0
vt 0.927221239 0.225899234 0
vt 0.896274686 0.190485701 0
vt 0.50657624 0.555289686 0
vt 0.484363765 0.529032648 0
vt 0.538919508 0.498397231 0
vt 0.701630652 0.303582698 0
vt 0.682941377 0.337295085 0
vt 0.662481785 0.325200051 0
vt 0.744785726 0.381933272 0
vt 0.705299973 0.371199995 0
vt 0.753944933 0.34990108 0
vt 0.851382792 0.397238344 0
vt 0.744785726 0.381933272 0
vt 0.753944933 0.34990108 0
vt 0.863652885 0.340918303 0
vt 0.753944933 0.34990108 0
vt 0.765410483 0.31385839 0
vt 0.927221239 0.225899234 0
vt 0.863652885 0.340918303 0
vt 0.765410483 0.31385839 0
vt 0.897705793 0.386101156 0
vt 0.873713493 0.401957095 0
vt 0.851382792 0.397238344 0
vt 0.896274686 0.190485701 0
vt 0.779300213 0.212828413 0
vt 0.848902583 0.179310605 0
vt 0.701630652 0.303582698 0
vt 0.662481785 0.325200051 0
vt 0.66963464 0.270907342 0
vt 0.767760336 0.180642381 0
vt 0.848902583 0.179310605 0
vt 0.779300213 0.212828413 0
vt 0.932600439 0.320002884 0
vt 0.933799982 0.374900013 0
vt 0.897705793 0.386101156 0
vt 0.965404809 0.366458178 0
vt 0.933799982 0.374900013 0
vt 0.932600439 0.320002884 0
vt 0.937300026 0.724699974 0
vt 0.974141538 0.702888429 0
vt 0.969299972 0.730300009 0
vt 0.489024848 0.506197095 0
vt 0.538919508 0.498397231 0
vt 0.484363765 0.529032648 0
vt 0.848902583 0.179310605 0
vt 0.783599973 0.163800001 0
vt 0.876805246 0.145681769 0
vt 0.724939048 0.254482806 0
vt 0.719977498 0.223879755 0
vt 0.779300213 0.212828413 0
vt 0.767760336 0.180642381 0
vt 0.779300213 0.212828413 0
vt 0.719977498 0.223879755 0
vt 0.591786206 0.468954086 0
vt 0.538919508 0.498397231 0
vt 0.564213037 0.451785892 0
vt 0.724939048 0.254482806 0
vt 0.66963464 0.270907342 0
vt 0.719977498 0.223879755 0
vt 0.155881077 0.475756407 0
vt 0.224082559 0.455468357 0
vt 0.232643202 0.499572307 0
vt 0.876805246 0.145681769 0
vt 0.925999999 0.139400005 0
vt 0.896274686 0.190485701 0
vt 0.925999999 0.139400005 0
vt 0.947902858 0.154779911 0
vt 0.896274686 0.190485701 0
vt 0.779300213 0.212828413 0
vt 0.765410483 0.31385839 0
vt 0.724939048 0.254482806 0
vt 0.720099986 0.396899998 0
vt 0.66853267 0.400123209 0
vt 0.69118619 0.385987222 0
vt 0.974141538 0.702888429 0
vt 0.959318757 0.639498353 0
vt 1.00025761 0.689025998 0
vt 0.896274686 0.190485701 0
vt 0.947902858 0.154779911 0
vt 0.944367647 0.182065561 0
vt 0.522800028 0.48179999 0
vt 0.538919508 0.498397231 0
vt 0.489024848 0.506197095 0
vt 0.705299973 0.371199995 0
vt 0.682941377 0.337295085 0
vt 0.753944933 0.34990108 0
vt 0.719977498 0.223879755 0
vt 0.673323691 0.224990532 0
vt 0.714981973 0.187952921 0
vt 0.179237321 0.423531651 0
vt 0.224082559 0.455468357 0
vt 0.155881077 0.475756407 0
vt 0.714981973 0.187952921 0
vt 0.767760336 0.180642381 0
vt 0.719977498 0.223879755 0
vt 0.897705793 0.386101156 0
vt 0.851382792 0.397238344 0
vt 0.863652885 0.340918303 0
vt 0.932600439 0.320002884 0
vt 0.897705793 0.386101156 0
vt 0.863652885 0.340918303 0
vt 0.653999984 0.300999999 0
vt 0.66963464 0.270907342 0
vt 0.662481785 0.325200051 0
vt 0.927221239 0.225899234 0
vt 0.985800028 0.2315 0
vt 1.00023592 0.269388288 0
vt 0.276459396 0.477721214 0
vt 0.232643202 0.499572307 0
vt 0.224082559 0.455468357 0
vt 0.276459396 0.477721214 0
vt 0.265408605 0.523528099 0
vt 0.232643202 0.499572307 0
vt 0.155881077 0.475756407 0
vt 0.1567 0.435400009 0
vt 0.179237321 0.423531651 0
vt 0.783599973 0.163800001 0
vt 0.848902583 0.179310605 0
vt 0.767760336 0.180642381 0
vt 0.765410483 0.31385839 0
vt 0.701630652 0.303582698 0
vt 0.724939048 0.254482806 0
vt 0.933799982 0.374900013 0
vt 0.9278 0.389200002 0
vt 0.897705793 0.386101156 0
vt 0.936130345 0.478353888 0
vt 0.978299975 0.451200008 0
vt 0.959044993 0.480559856 0
vt 0.307278246 0.549965322 0
vt 0.265408605 0.523528099 0
vt 0.322609782 0.489738554 0
vt 0.648759484 0.432603657 0
vt 0.591786206 0.468954086 0
vt 0.564213037 0.451785892 0
vt 0.851382792 0.397238344 0
vt 0.751629889 0.400723189 0
vt 0.744785726 0.381933272 0
vt 0.64479351 0.397213578 0
vt 0.648759484 0.432603657 0
vt 0.564213037 0.451785892 0
vt 0.959318757 0.639498353 0
vt 0.990499973 0.623300016 0
vt 1.00025761 0.689025998 0
vt 0.959318757 0.639498353 0
vt 0.952612758 0.580529928 0
vt 0.982312202 0.581940532 0
vt 0.959318757 0.639498353 0
vt 0.982312202 0.581940532 0
vt 0.990499973 0.623300016 0
vt 0.876805246 0.145681769 0
vt 0.896274686 0.190485701 0
vt 0.848902583 0.179310605 0
vt 0.936130345 0.478353888 0
vt 0.971400023 0.4366 0
vt 0.978299975 0.451200008 0
vt 0.543770134 0.447810948 0
vt 0.564213037 0.451785892 0
vt 0.522800028 0.48179999 0
vt 0.322609782 0.489738554 0
vt 0.338099986 0.521200001 0
vt 0.307278246 0.549965322 0
vt 0.765410483 0.31385839 0
vt 0.753944933 0.34990108 0
vt 0.701630652 0.303582698 0
vt 0.484363765 0.529032648 0
vt 0.50657624 0.555289686 0
vt 0.469799995 0.550899982 0
vt 0.50657624 0.555289686 0
vt 0.497254372 0.581817508 0
vt 0.469799995 0.550899982 0
vt 0.0486567542 0.478255838 0
vt 0.0147000002 0.444599986 0
vt 0.0624775253 0.43709299 0
vt 0.00100000005 0.472000003 0
vt 0.0147000002 0.444599986 0
vt 0.0486567542 0.478255838 0
vt 0.66853267 0.400123209 0
vt 0.648759484 0.432603657 0
vt 0.64479351 0.397213578 0
vn 0.852005422 0.350663632 0.393750131
vn 0.987877071 -0.17310977 0.128032714
vn 0.914754093 0.370137274 -0.17764397
vn -0.317987651 0.360079914 0.900022209
vn 0.377080649 0.0616393834 0.92483443
vn -0.045148585 0.628638804 0.792364419
vn 0.603646874 0.361897677 -0.723062515
vn 0.483610332 0.82493645 -0.361090958
vn 0.83818686 0.19403027 -0.531791687
vn -1.00495446 0.0671720579 -0.15699923
vn -0.935307026 -0.365616292 0.00864937808
vn -0.980361462 0.205838516 0.157413706
vn -0.758309484 0.600359082 0.29150939
vn -0.669290721 0.425523192 0.619779527
vn -0.485834241 0.747125685 0.46690923
vn -0.315852702 0.856545627 0.419422567
vn -0.485834241 0.747125685 0.46690923
vn -0.317987651 0.360079914 0.900022209
vn 0.0272781067 0.985427737 -0.207552046
vn 0.0718561709 0.996906877 0.031834241
vn 0.419564098 0.914579213 -0.00903646555
vn 0.83818686 0.19403027 -0.531791687
vn 0.483610332 0.82493645 -0.361090958
vn 0.914754093 0.370137274 -0.17764397
vn 0.377080649 0.0616393834 0.92483443
vn -0.317987651 0.360079914 0.900022209
vn -0.355027586 -0.403800249 0.83979255
vn -0.688490272 -0.0199647155 0.73001492
vn -0.700932741 -0.552708685 0.482061327
vn -0.355027586 -0.403800249 0.83979255
vn 0.0718561709 0.996906877 0.031834241
vn 0.00280731125 0.969152153 0.246446818
vn 0.419564098 0.914579213 -0.00903646555
vn -0.045148585 0.628638804 0.792364419
vn 0.377080649 0.0616393834 0.92483443
vn 0.475305915 0.622713506 0.646759868
vn 0.914754093 0.370137274 -0.17764397
vn 0.987877071 -0.17310977 0.128032714
vn 1.0046258 -0.141180038 -0.074667573
vn -0.848119378 0.547499895 -0.0929140821
vn -0.517572939 0.754211366 -0.405614257
vn -0.569237471 0.584212422 -0.593144238
vn -0.980361462 0.205838516 0.157413706
vn -0.935307026 -0.365616292 0.00864937808
vn -0.8865453 -0.39091742 0.247428805
vn 0.483610332 0.82493645 -0.361090958
vn 0.0272781067 0.985427737 -0.207552046
vn 0.419564098 0.914579213 -0.00903646555
vn 0.102998555 0.839377165 -0.533701479
vn 0.0422603749 0.737591386 -0.685553074
vn -0.188632518 0.870285928 -0.478720307
vn -0.0502735786 1.01318419 -0.0503605753
vn -0.315852702 0.856545627 0.419422567
vn 0.00280731125 0.969152153 0.246446818
vn -0.758309484 0.600359082 0.29150939
vn -0.841212034 0.273273557 0.466566026
vn -0.669290721 0.425523192 0.619779527
vn -0.980361462 0.205838516 0.157413706
vn -0.758309484 0.600359082 0.29150939
vn -0.848119378 0.547499895 -0.0929140821
vn -1.00495446 0.0671720579 -0.15699923
vn -0.980361462 0.205838516 0.157413706
vn -0.848119378 0.547499895 -0.0929140821
vn -0.930719018 0.205388397 -0.363884091
vn -0.848119378 0.547499895 -0.0929140821
vn -0.569237471 0.584212422 -0.593144238
vn 0.623679161 -0.0397300199 0.801401556
vn 0.308896244 -0.483407915 0.854841292
vn 0.670876086 -0.516907275 0.549138725
vn 0.0272781067 0.985427737 -0.207552046
vn -0.188632518 0.870285928 -0.478720307
vn -0.292508215 0.9609465 -0.0676430091
vn -0.517572939 0.754211366 -0.405614257
vn -0.848119378 0.547499895 -0.0929140821
vn -0.550278425 0.841461301 0.14320989
vn -0.841212034 0.273273557 0.466566026
vn -0.758309484 0.600359082 0.29150939
vn -0.980361462 0.205838516 0.157413706
vn 0.0422603749 0.737591386 -0.685553074
vn -0.569237471 0.584212422 -0.593144238
vn -0.188632518 0.870285928 -0.478720307
vn -0.22241497 0.462741643 -0.886856496
vn 0.0422603749 0.737591386 -0.685553074
vn 0.0745862648 0.378595591 -0.94072783
vn 0.475305915 0.622713506 0.646759868
vn 0.377080649 0.0616393834 0.92483443
vn 0.852005422 0.350663632 0.393750131
vn 0.0422603749 0.737591386 -0.685553074
vn -0.22241497 0.462741643 -0.886856496
vn -0.569237471 0.584212422 -0.593144238
vn -0.292508215 0.9609465 -0.0676430091
vn -0.517572939 0.754211366 -0.405614257
vn -0.550278425 0.841461301 0.14320989
vn -0.328214437 -0.724695265 0.612634897
vn -0.355027586 -0.403800249 0.83979255
vn -0.700932741 -0.552708685 0.482061327
vn 0.852005422 0.350663632 0.393750131
vn 0.835809827 -0.246067449 0.490787864
vn 0.987877071 -0.17310977 0.128032714
vn -0.930719018 0.205388397 -0.363884091
vn -0.569237471 0.584212422 -0.593144238
vn -0.605510175 0.199375108 -0.790337503
vn 0.914754093 0.370137274 -0.17764397
vn 0.483610332 0.82493645 -0.361090958
vn 0.61463809 0.767606854 -0.203246668
vn 0.61463809 0.767606854 -0.203246668
vn 0.836409807 0.577154994 0.0836827084
vn 0.914754093 0.370137274 -0.17764397
vn -0.355027586 -0.403800249 0.83979255
vn -0.317987651 0.360079914 0.900022209
vn -0.688490272 -0.0199647155 0.73001492
vn 0.102998555 0.839377165 -0.533701479
vn -0.188632518 0.870285928 -0.478720307
vn 0.0272781067 0.985427737 -0.207552046
vn -0.876912892 -0.178627729 0.458197773
vn -0.841212034 0.273273557 0.466566026
vn -0.980361462 0.205838516 0.157413706
vn 0.603646874 0.361897677 -0.723062515
vn 0.0422603749 0.737591386 -0.685553074
vn 0.483610332 0.82493645 -0.361090958
vn 0.623679161 -0.0397300199 0.801401556
vn 0.377080649 0.0616393834 0.92483443
vn 0.308896244 -0.483407915 0.854841292
vn 0.377080649 0.0616393834 0.92483443
vn 0.623679161 -0.0397300199 0.801401556
vn 0.852005422 0.350663632 0.393750131
vn -0.550278425 0.841461301 0.14320989
vn -0.315852702 0.856545627 0.419422567
vn -0.0502735786 1.01318419 -0.0503605753
vn -0.550278425 0.841461301 0.14320989
vn -0.758309484 0.600359082 0.29150939
vn -0.485834241 0.747125685 0.46690923
vn -0.550278425 0.841461301 0.14320989
vn -0.485834241 0.747125685 0.46690923
vn -0.315852702 0.856545627 0.419422567
vn -0.569237471 0.584212422 -0.593144238
vn -0.22241497 0.462741643 -0.886856496
vn -0.605510175 0.199375108 -0.790337503
vn 0.475305915 0.622713506 0.646759868
vn 0.852005422 0.350663632 0.393750131
vn 0.526937723 0.761816859 0.405949056
vn -0.930719018 0.205388397 -0.363884091
vn -1.00495446 0.0671720579 -0.15699923
vn -0.848119378 0.547499895 -0.0929140821
vn 0.00280731125 0.969152153 0.246446818
vn -0.315852702 0.856545627 0.419422567
vn -0.145555064 0.893375397 0.425081521
vn -0.0502735786 1.01318419 -0.0503605753
vn 0.0272781067 0.985427737 -0.207552046
vn -0.292508215 0.9609465 -0.0676430091
vn 0.00280731125 0.969152153 0.246446818
vn -0.145555064 0.893375397 0.425081521
vn 0.475305915 0.622713506 0.646759868
vn 0.526937723 0.761816859 0.405949056
vn 0.00280731125 0.969152153 0.246446818
vn 0.475305915 0.622713506 0.646759868
vn -0.848119378 0.547499895 -0.0929140821
vn -0.758309484 0.600359082 0.29150939
vn -0.550278425 0.841461301 0.14320989
vn 0.0422603749 0.737591386 -0.685553074
vn 0.603646874 0.361897677 -0.723062515
vn 0.0745862648 0.378595591 -0.94072783
vn 0.0718561709 0.996906877 0.031834241
vn -0.0502735786 1.01318419 -0.0503605753
vn 0.00280731125 0.969152153 0.246446818
vn -0.292508215 0.9609465 -0.0676430091
vn -0.188632518 0.870285928 -0.478720307
vn -0.517572939 0.754211366 -0.405614257
vn -0.569237471 0.584212422 -0.593144238
vn -0.517572939 0.754211366 -0.405614257
vn -0.188632518 0.870285928 -0.478720307
vn -0.485834241 0.747125685 0.46690923
vn -0.669290721 0.425523192 0.619779527
vn -0.317987651 0.360079914 0.900022209
vn -0.669290721 0.425523192 0.619779527
vn -0.688490272 -0.0199647155 0.73001492
vn -0.317987651 0.360079914 0.900022209
vn 0.0272781067 0.985427737 -0.207552046
vn -0.0502735786 1.01318419 -0.0503605753
vn 0.0718561709 0.996906877 0.031834241
vn -0.700932741 -0.552708685 0.482061327
vn -0.688490272 -0.0199647155 0.73001492
vn -0.876912892 -0.178627729 0.458197773
vn 0.483610332 0.82493645 -0.361090958
vn 0.102998555 0.839377165 -0.533701479
vn 0.0272781067 0.985427737 -0.207552046
vn 0.0422603749 0.737591386 -0.685553074
vn 0.102998555 0.839377165 -0.533701479
vn 0.483610332 0.82493645 -0.361090958
vn -0.688490272 -0.0199647155 0.73001492
vn -0.841212034 0.273273557 0.466566026
vn -0.876912892 -0.178627729 0.458197773
vn -0.669290721 0.425523192 0.619779527
vn -0.841212034 0.273273557 0.466566026
vn -0.688490272 -0.0199647155 0.73001492
vn 0.475305915 0.622713506 0.646759868
vn -0.145555064 0.893375397 0.425081521
vn -0.045148585 0.628638804 0.792364419
vn 0.419564098 0.914579213 -0.00903646555
vn 0.526937723 0.761816859 0.405949056
vn 0.836409807 0.577154994 0.0836827084
vn 0.836409807 0.577154994 0.0836827084
vn 0.526937723 0.761816859 0.405949056
vn 0.852005422 0.350663632 0.393750131
vn 0.914754093 0.370137274 -0.17764397
vn 1.0046258 -0.141180038 -0.074667573
vn 0.83818686 0.19403027 -0.531791687
vn 0.61463809 0.767606854 -0.203246668
vn 0.483610332 0.82493645 -0.361090958
vn 0.419564098 0.914579213 -0.00903646555
vn -0.292508215 0.9609465 -0.0676430091
vn -0.550278425 0.841461301 0.14320989
vn -0.0502735786 1.01318419 -0.0503605753
vn 0.61463809 0.767606854 -0.203246668
vn 0.419564098 0.914579213 -0.00903646555
vn 0.836409807 0.577154994 0.0836827084
vn -0.315852702 0.856545627 0.419422567
vn -0.317987651 0.360079914 0.900022209
vn -0.045148585 0.628638804 0.792364419
vn -0.315852702 0.856545627 0.419422567
vn -0.045148585 0.628638804 0.792364419
vn -0.145555064 0.893375397 0.425081521
vn 0.852005422 0.350663632 0.393750131
vn 0.914754093 0.370137274 -0.17764397
vn 0.836409807 0.577154994 0.0836827084
vn -0.980361462 0.205838516 0.157413706
vn -0.8865453 -0.39091742 0.247428805
vn -0.876912892 -0.178627729 0.458197773
vn 0.419564098 0.914579213 -0.00903646555
vn 0.00280731125 0.969152153 0.246446818
vn 0.526937723 0.761816859 0.405949056
vn 0.623679161 -0.0397300199 0.801401556
vn 0.835809827 -0.246067449 0.490787864
vn 0.852005422 0.350663632 0.393750131
vn 0.835809827 -0.246067449 0.490787864
vn 0.623679161 -0.0397300199 0.801401556
vn 0.670876086 -0.516907275 0.549138725
vn 0.308896244 -0.483407915 0.854841292
vn 0.377080649 0.0616393834 0.92483443
vn -0.355027586 -0.403800249 0.83979255
vn 0.21914196 -0.980272532 -0.0327379256
vn 0.0489655584 -0.986974537 0.182675228
vn -0.0643392578 -0.996664047 -0.106154643
vn 0.0489655584 -0.986974537 0.182675228
vn -0.328214437 -0.724695265 0.612634897
vn -0.405506462 -0.860833526 0.333282918
vn 0.272405207 -0.443303883 -0.882443666
vn 0.660349727 -0.28551656 -0.699086308
vn 0.559356987 -0.750594199 -0.414419472
vn 1.0046258 -0.141180038 -0.074667573
vn 0.881424844 -0.456341714 0.137208804
vn 0.892318428 -0.450869977 0.0220019072
vn 1.0046258 -0.141180038 -0.074667573
vn 0.987877071 -0.17310977 0.128032714
vn 0.881424844 -0.456341714 0.137208804
vn -0.700932741 -0.552708685 0.482061327
vn -0.405506462 -0.860833526 0.333282918
vn -0.328214437 -0.724695265 0.612634897
vn -0.24929747 -0.969962656 0.103916235
vn -0.86801368 -0.542368174 -0.0934656635
vn -0.47634533 -0.80431509 -0.402648747
vn 0.0489655584 -0.986974537 0.182675228
vn -0.405506462 -0.860833526 0.333282918
vn -0.24929747 -0.969962656 0.103916235
vn 0.463101298 -0.71780169 0.531272948
vn 0.151035294 -0.73100245 0.665449977
vn 0.0489655584 -0.986974537 0.182675228
vn 0.423379898 -0.888563752 0.176761746
vn 0.0489655584 -0.986974537 0.182675228
vn 0.21914196 -0.980272532 -0.0327379256
vn 0.660349727 -0.28551656 -0.699086308
vn 0.272405207 -0.443303883 -0.882443666
vn 0.603646874 0.361897677 -0.723062515
vn -0.114363544 -0.785640955 -0.635988355
vn 0.272405207 -0.443303883 -0.882443666
vn 0.179340988 -0.950819075 -0.299717367
vn -0.392926633 -0.434688628 -0.821439147
vn -0.114363544 -0.785640955 -0.635988355
vn -0.47634533 -0.80431509 -0.402648747
vn -0.828053355 -0.312000364 -0.479087502
vn -0.605510175 0.199375108 -0.790337503
vn -0.605780363 -0.328356028 -0.724715471
vn 0.463101298 -0.71780169 0.531272948
vn 0.0489655584 -0.986974537 0.182675228
vn 0.423379898 -0.888563752 0.176761746
vn -0.22241497 0.462741643 -0.886856496
vn -0.24631387 -0.190734565 -0.964425504
vn -0.605510175 0.199375108 -0.790337503
vn -0.114363544 -0.785640955 -0.635988355
vn -0.392926633 -0.434688628 -0.821439147
vn -0.24631387 -0.190734565 -0.964425504
vn -0.710745096 -0.519326806 -0.499890417
vn -0.605780363 -0.328356028 -0.724715471
vn -0.47634533 -0.80431509 -0.402648747
vn -0.86801368 -0.542368174 -0.0934656635
vn -0.710745096 -0.519326806 -0.499890417
vn -0.47634533 -0.80431509 -0.402648747
vn -0.24929747 -0.969962656 0.103916235
vn -0.47634533 -0.80431509 -0.402648747
vn -0.0643392578 -0.996664047 -0.106154643
vn 0.0489655584 -0.986974537 0.182675228
vn -0.24929747 -0.969962656 0.103916235
vn -0.0643392578 -0.996664047 -0.106154643
vn -0.748048604 -0.641046941 0.209133089
vn -0.935307026 -0.365616292 0.00864937808
vn -0.86801368 -0.542368174 -0.0934656635
vn 0.423379898 -0.888563752 0.176761746
vn 0.21914196 -0.980272532 -0.0327379256
vn 0.732476354 -0.681495845 0.102463491
vn -0.114363544 -0.785640955 -0.635988355
vn -0.24631387 -0.190734565 -0.964425504
vn 0.272405207 -0.443303883 -0.882443666
vn 0.803901851 -0.601095021 -0.0816614479
vn 0.732476354 -0.681495845 0.102463491
vn 0.21914196 -0.980272532 -0.0327379256
vn -0.405506462 -0.860833526 0.333282918
vn -0.711938202 -0.604803979 0.356869936
vn -0.748048604 -0.641046941 0.209133089
vn -0.700932741 -0.552708685 0.482061327
vn -0.711938202 -0.604803979 0.356869936
vn -0.405506462 -0.860833526 0.333282918
vn 0.835809827 -0.246067449 0.490787864
vn 0.670876086 -0.516907275 0.549138725
vn 0.817430556 -0.441701531 0.369739056
vn -0.392926633 -0.434688628 -0.821439147
vn -0.605510175 0.199375108 -0.790337503
vn -0.24631387 -0.190734565 -0.964425504
vn 0.732476354 -0.681495845 0.102463491
vn 0.892318428 -0.450869977 0.0220019072
vn 0.881424844 -0.456341714 0.137208804
vn 0.179340988 -0.950819075 -0.299717367
vn 0.559356987 -0.750594199 -0.414419472
vn 0.21914196 -0.980272532 -0.0327379256
vn 0.803901851 -0.601095021 -0.0816614479
vn 0.21914196 -0.980272532 -0.0327379256
vn 0.559356987 -0.750594199 -0.414419472
vn -0.930719018 0.205388397 -0.363884091
vn -0.605510175 0.199375108 -0.790337503
vn -0.828053355 -0.312000364 -0.479087502
vn 0.179340988 -0.950819075 -0.299717367
vn 0.272405207 -0.443303883 -0.882443666
vn 0.559356987 -0.750594199 -0.414419472
vn 1.0046258 -0.141180038 -0.074667573
vn 0.861361027 -0.356461048 -0.389207393
vn 0.83818686 0.19403027 -0.531791687
vn 0.881424844 -0.456341714 0.137208804
vn 0.817430556 -0.441701531 0.369739056
vn 0.423379898 -0.888563752 0.176761746
vn 0.817430556 -0.441701531 0.369739056
vn 0.670876086 -0.516907275 0.549138725
vn 0.423379898 -0.888563752 0.176761746
vn 0.21914196 -0.980272532 -0.0327379256
vn -0.0643392578 -0.996664047 -0.106154643
vn 0.179340988 -0.950819075 -0.299717367
vn -0.8865453 -0.39091742 0.247428805
vn -0.935307026 -0.365616292 0.00864937808
vn -0.748048604 -0.641046941 0.209133089
vn 0.670876086 -0.516907275 0.549138725
vn 0.308896244 -0.483407915 0.854841292
vn 0.463101298 -0.71780169 0.531272948
vn 0.423379898 -0.888563752 0.176761746
vn 0.670876086 -0.516907275 0.549138725
vn 0.463101298 -0.71780169 0.531272948
vn -0.605780363 -0.328356028 -0.724715471
vn -0.605510175 0.199375108 -0.790337503
vn -0.392926633 -0.434688628 -0.821439147
vn -0.605780363 -0.328356028 -0.724715471
vn -0.392926633 -0.434688628 -0.821439147
vn -0.47634533 -0.80431509 -0.402648747
vn 0.559356987 -0.750594199 -0.414419472
vn 0.660349727 -0.28551656 -0.699086308
vn 0.861361027 -0.356461048 -0.389207393
vn 0.803901851 -0.601095021 -0.0816614479
vn 0.861361027 -0.356461048 -0.389207393
vn 1.0046258 -0.141180038 -0.074667573
vn 0.861361027 -0.356461048 -0.389207393
vn 0.803901851 -0.601095021 -0.0816614479
vn 0.559356987 -0.750594199 -0.414419472
vn -0.748048604 -0.641046941 0.209133089
vn -0.86801368 -0.542368174 -0.0934656635
vn -0.24929747 -0.969962656 0.103916235
vn -0.405506462 -0.860833526 0.333282918
vn -0.748048604 -0.641046941 0.209133089
vn -0.24929747 -0.969962656 0.103916235
vn 0.074606128 -0.103927657 -0.991782725
vn 0.272405207 -0.443303883 -0.882443666
vn -0.24631387 -0.190734565 -0.964425504
vn 0.0489655584 -0.986974537 0.182675228
vn 0.151035294 -0.73100245 0.665449977
vn -0.328214437 -0.724695265 0.612634897
vn 0.660349727 -0.28551656 -0.699086308
vn 0.83818686 0.19403027 -0.531791687
vn 0.861361027 -0.356461048 -0.389207393
vn 0.660349727 -0.28551656 -0.699086308
vn 0.603646874 0.361897677 -0.723062515
vn 0.83818686 0.19403027 -0.531791687
vn 1.0046258 -0.141180038 -0.074667573
vn 0.892318428 -0.450869977 0.0220019072
vn 0.803901851 -0.601095021 -0.0816614479
vn 0.892318428 -0.450869977 0.0220019072
vn 0.732476354 -0.681495845 0.102463491
vn 0.803901851 -0.601095021 -0.0816614479
vn -0.0643392578 -0.996664047 -0.106154643
vn -0.114363544 -0.785640955 -0.635988355
vn 0.179340988 -0.950819075 -0.299717367
vn -0.711938202 -0.604803979 0.356869936
vn -0.8865453 -0.39091742 0.247428805
vn -0.748048604 -0.641046941 0.209133089
vn -0.876912892 -0.178627729 0.458197773
vn -0.711938202 -0.604803979 0.356869936
vn -0.700932741 -0.552708685 0.482061327
vn 0.0745862648 0.378595591 -0.94072783
vn 0.603646874 0.361897677 -0.723062515
vn 0.272405207 -0.443303883 -0.882443666
vn -1.00495446 0.0671720579 -0.15699923
vn -0.930719018 0.205388397 -0.363884091
vn -0.828053355 -0.312000364 -0.479087502
vn -0.86801368 -0.542368174 -0.0934656635
vn -0.828053355 -0.312000364 -0.479087502
vn -0.710745096 -0.519326806 -0.499890417
vn -0.86801368 -0.542368174 -0.0934656635
vn -1.00495446 0.0671720579 -0.15699923
vn -0.828053355 -0.312000364 -0.479087502
vn 0.308896244 -0.483407915 0.854841292
vn 0.151035294 -0.73100245 0.665449977
vn 0.463101298 -0.71780169 0.531272948
vn 0.308896244 -0.483407915 0.854841292
vn -0.355027586 -0.403800249 0.83979255
vn -0.328214437 -0.724695265 0.612634897
vn 0.308896244 -0.483407915 0.854841292
vn -0.328214437 -0.724695265 0.612634897
vn 0.151035294 -0.73100245 0.665449977
vn 0.881424844 -0.456341714 0.137208804
vn 0.423379898 -0.888563752 0.176761746
vn 0.732476354 -0.681495845 0.102463491
vn -0.876912892 -0.178627729 0.458197773
vn -0.8865453 -0.39091742 0.247428805
vn -0.711938202 -0.604803979 0.356869936
vn -0.710745096 -0.519326806 -0.499890417
vn -0.828053355 -0.312000364 -0.479087502
vn -0.605780363 -0.328356028 -0.724715471
vn 0.272405207 -0.443303883 -0.882443666
vn 0.074606128 -0.103927657 -0.991782725
vn 0.0745862648 0.378595591 -0.94072783
vn -0.0643392578 -0.996664047 -0.106154643
vn -0.47634533 -0.80431509 -0.402648747
vn -0.114363544 -0.785640955 -0.635988355
vn -0.24631387 -0.190734565 -0.964425504
vn -0.22241497 0.462741643 -0.886856496
vn 0.074606128 -0.103927657 -0.991782725
vn -0.22241497 0.462741643 -0.886856496
vn 0.0745862648 0.378595591 -0.94072783
vn 0.074606128 -0.103927657 -0.991782725
vn 0.987877071 -0.17310977 0.128032714
vn 0.817430556 -0.441701531 0.369739056
vn 0.881424844 -0.456341714 0.137208804
vn 0.835809827 -0.246067449 0.490787864
vn 0.817430556 -0.441701531 0.369739056
vn 0.987877071 -0.17310977 0.128032714
vn -0.935307026 -0.365616292 0.00864937808
vn -1.00495446 0.0671720579 -0.15699923
vn -0.86801368 -0.542368174 -0.0934656635
g Scatter_Smooth_04_LOD0
f 4/1/1 5/2/2 6/3/3
f 9/4/4 10/5/5 11/6/6
f 13/7/7 14/8/8 15/9/9
f 16/10/10 17/11/11 18/12/12
f 24/13/13 25/14/14 26/15/15
f 27/16/16 26/17/17 9/18/18
f 22/19/19 28/20/20 8/21/21
f 15/22/22 14/23/23 6/24/24
f 10/25/25 9/26/26 30/27/27
f 31/28/28 32/29/29 30/30/30
f 28/31/31 37/32/32 8/33/33
f 11/34/34 10/35/35 38/36/36
f 6/37/37 5/38/38 29/39/39
f 12/40/40 2/41/41 3/42/42
f 18/43/43 17/44/44 42/45/45
f 14/46/46 22/47/47 8/48/48
f 39/49/49 20/50/50 21/51/51
f 23/52/52 27/53/53 37/54/54
f 24/55/55 43/56/56 25/57/57
f 18/58/58 24/59/59 12/60/60
f 16/61/61 18/62/62 12/63/63
f 36/64/64 12/65/65 3/66/66
f 34/67/67 19/68/68 35/69/69
f 22/70/70 21/71/71 46/72/72
f 2/73/73 12/74/74 1/75/75
f 43/76/76 24/77/77 18/78/78
f 20/79/79 3/80/80 21/81/81
f 40/82/82 20/83/83 41/84/84
f 38/85/85 10/86/86 4/87/87
f 20/88/88 40/89/89 3/90/90
f 46/91/91 2/92/92 1/93/93
f 48/94/94 30/95/95 32/96/96
f 4/97/97 49/98/98 5/99/99
f 36/100/100 3/101/101 33/102/102
f 6/103/103 14/104/104 7/105/105
f 7/106/106 44/107/107 6/108/108
f 30/109/109 9/110/110 31/111/111
f 39/112/112 21/113/113 22/114/114
f 47/115/115 43/116/116 18/117/117
f 13/118/118 20/119/119 14/120/120
f 34/121/121 10/122/122 19/123/123
f 10/124/124 34/125/125 4/126/126
f 1/127/127 27/128/128 23/129/129
f 1/130/130 24/131/131 26/132/132
f 1/133/133 26/134/134 27/135/135
f 3/136/136 40/137/137 33/138/138
f 38/139/139 4/140/140 45/141/141
f 36/142/142 16/143/143 12/144/144
f 37/145/145 27/146/146 50/147/147
f 23/148/148 22/149/149 46/150/150
f 37/151/151 50/152/152 38/153/153
f 45/154/154 37/155/155 38/156/156
f 12/157/157 24/158/158 1/159/159
f 20/160/160 13/161/161 41/162/162
f 28/163/163 23/164/164 37/165/165
f 46/166/166 21/167/167 2/168/168
f 3/169/169 2/170/170 21/171/171
f 26/172/172 25/173/173 9/174/174
f 25/175/175 31/176/176 9/177/177
f 22/178/178 23/179/179 28/180/180
f 32/181/181 31/182/182 47/183/183
f 14/184/184 39/185/185 22/186/186
f 20/187/187 39/188/188 14/189/189
f 31/190/190 43/191/191 47/192/192
f 25/193/193 43/194/194 31/195/195
f 38/196/196 50/197/197 11/198/198
f 8/199/199 45/200/200 44/201/201
f 44/202/202 45/203/203 4/204/204
f 6/205/205 29/206/206 15/207/207
f 7/208/208 14/209/209 8/210/210
f 46/211/211 1/212/212 23/213/213
f 7/214/214 8/215/215 44/216/216
f 27/217/217 9/218/218 11/219/219
f 27/220/220 11/221/221 50/222/222
f 4/223/223 6/224/224 44/225/225
f 18/226/226 42/227/227 47/228/228
f 8/229/229 37/230/230 45/231/231
f 34/232/232 49/233/233 4/234/234
f 49/235/235 34/236/236 35/237/237
f 19/238/238 10/239/239 30/240/240
f 51/241/241 52/242/242 53/243/243
f 52/244/244 48/245/245 54/246/246
f 56/247/247 57/248/248 58/249/249
f 29/250/250 59/251/251 60/252/252
f 29/253/253 5/254/254 59/255/255
f 32/256/256 54/257/257 48/258/258
f 62/259/259 63/260/260 61/261/261
f 52/262/262 54/263/263 62/264/264
f 64/265/265 65/266/266 52/267/267
f 66/268/268 52/269/269 51/270/270
f 57/271/271 56/272/272 13/273/273
f 67/274/274 56/275/275 55/276/276
f 68/277/277 67/278/278 61/279/279
f 69/280/280 33/281/281 70/282/282
f 64/283/283 52/284/284 66/285/285
f 40/286/286 71/287/287 33/288/288
f 67/289/289 68/290/290 71/291/291
f 72/292/292 70/293/293 61/294/294
f 63/295/295 72/296/296 61/297/297
f 62/298/298 61/299/299 53/300/300
f 52/301/301 62/302/302 53/303/303
f 73/304/304 17/305/305 63/306/306
f 66/307/307 51/308/308 75/309/309
f 67/310/310 71/311/311 56/312/312
f 77/313/313 75/314/314 51/315/315
f 54/316/316 78/317/317 73/318/318
f 32/319/319 78/320/320 54/321/321
f 49/322/322 35/323/323 79/324/324
f 68/325/325 33/326/326 71/327/327
f 75/328/328 60/329/329 59/330/330
f 55/331/331 58/332/332 51/333/333
f 77/334/334 51/335/335 58/336/336
f 36/337/337 33/338/338 69/339/339
f 55/340/340 56/341/341 58/342/342
f 29/343/343 74/344/344 15/345/345
f 59/346/346 79/347/347 66/348/348
f 79/349/349 35/350/350 66/351/351
f 51/352/352 53/353/353 55/354/354
f 42/355/355 17/356/356 73/357/357
f 35/358/358 19/359/359 64/360/360
f 66/361/361 35/362/362 64/363/363
f 70/364/364 33/365/365 68/366/366
f 70/367/367 68/368/368 61/369/369
f 58/370/370 57/371/371 74/372/372
f 77/373/373 74/374/374 29/375/375
f 74/376/376 77/377/377 58/378/378
f 73/379/379 63/380/380 62/381/381
f 54/382/382 73/383/383 62/384/384
f 76/385/385 56/386/386 71/387/387
f 52/388/388 65/389/389 48/390/390
f 57/391/391 15/392/392 74/393/393
f 57/394/394 13/395/395 15/396/396
f 29/397/397 60/398/398 77/399/399
f 60/400/400 75/401/401 77/402/402
f 53/403/403 67/404/404 55/405/405
f 78/406/406 42/407/407 73/408/408
f 47/409/409 78/410/410 32/411/411
f 41/412/412 13/413/413 56/414/414
f 16/415/415 36/416/416 69/417/417
f 63/418/418 69/419/419 72/420/420
f 63/421/421 16/422/422 69/423/423
f 19/424/424 65/425/425 64/426/426
f 19/427/427 30/428/428 48/429/429
f 19/430/430 48/431/431 65/432/432
f 59/433/433 66/434/434 75/435/435
f 47/436/436 42/437/437 78/438/438
f 72/439/439 69/440/440 70/441/441
f 56/442/442 76/443/443 41/444/444
f 53/445/445 61/446/446 67/447/447
f 71/448/448 40/449/449 76/450/450
f 40/451/451 41/452/452 76/453/453
f 5/454/454 79/455/455 59/456/456
f 49/457/457 79/458/458 5/459/459
f 17/460/460 16/461/461 63/462/462
