# File exported by Houdini 16.5.405 (www.sidefx.com)
# 65 points
# 378 vertices
# 126 primitives
# Bounds: [-10.3205128, -0.281216949, -18.6740303] to [2.50715518, 11.7470999, 6.52261639]
g 
v -8.05958271 8.52463913 -15.6069727
v -5.76691723 10.3590946 -16.3943748
v -5.45827866 9.57009602 2.73888683
v -3.08736587 9.7327404 2.36071873
v 1.99802756 4.80447054 1.31713355
v 2.43655419 4.22809935 -8.28288174
v -5.40561247 9.48356533 -17.3927021
v -0.755400479 7.74968672 -15.6483326
v -5.4926486 6.42347574 -18.6740303
v 0.00823824015 7.17826986 3.34780407
v 2.50715518 6.11232233 -7.38408804
v -1.7219274 10.1933737 -3.06581235
v -7.76409292 10.9939318 -4.42336082
v -8.06858921 8.87677288 2.89768457
v -10.0837574 4.38795424 -9.97304249
v -10.3205128 5.32203817 -3.6165719
v -10.2102928 8.86762142 -2.04485059
v -8.69002151 6.40986204 3.6773293
v -0.26205647 9.85827065 -12.3923187
v -3.98638988 10.922452 -14.4423637
v -2.89125204 11.6891336 -8.25871277
v -7.00097322 11.3409357 -11.0266819
v -5.08650017 11.6475 -10.8172998
v 1.23837352 6.36562824 -13.2711849
v 0.643591046 4.14942169 -12.8024731
v -1.53649998 3.80189991 -14.7389002
v -9.17615891 9.90546322 -10.2125053
v -8.36555195 5.6391654 -16.7575111
v -4.40950012 5.61569977 -17.8782997
v -7.28156519 6.07663012 5.93511581
v -5.06346941 7.326684 5.98813534
v -6.81880665 5.76982069 -18.4148045
v -6.03428173 7.93517876 -18.4835587
v -4.51036835 11.7121277 -5.79896736
v -0.871735096 4.22149134 6.21206236
v 0.567549646 4.97635174 5.04665899
v -1.4763341 6.74774361 6.02057362
v -2.03497434 5.36447334 6.52261639
v -5.37163687 5.30600643 6.42896938
v -3.9533999 8.4399004 4.83729982
v -7.00736427 4.06285477 -17.6535492
v -3.88689995 11.7470999 -7.79199982
v 1.25846028 3.28438234 2.71023583
v -4.37308693 3.94551373 -17.2463169
v -4.49760008 11.1939001 -2.75609994
v 1.70410001 2.8599999 -2.39479995
v 2.04220009 3.4303 -6.30679989
v 0.309278667 2.83923316 4.13893032
v 1.82292044 2.91528749 -7.75163555
v -3.73338532 -0.281216949 -5.84688282
v -8.75643826 2.04008794 -5.67340565
v -7.37659025 1.79812741 -13.7572641
v -3.16218424 0.724201322 -11.866847
v -5.4014864 3.94721103 6.13836813
v -6.56476355 1.48622596 1.45533741
v -3.94591331 1.33657563 3.90344954
v -2.80404973 -0.254499376 -6.43841124
v -2.47836733 0.0223126914 -0.307195127
v -2.40813303 2.37399769 5.48391724
v -0.388259143 0.731165826 0.431028575
v -8.45960236 2.98782039 -14.6453352
v -9.77773762 3.03994203 -8.50107479
v 0.915000021 1.97049999 0.477699995
v -4.21221161 2.34749937 -15.5463219
v -8.76765442 3.09826803 1.22746587
vt 0.833275974 0.122989386 0
vt 0.777534246 0.0711526126 0
vt 0.862732232 0.0778963715 0
vt 0.512749135 0.105094977 0
vt 0.659354866 0.0483168811 0
vt 0.612883687 0.139734089 0
vt 0.099398829 0.184314296 0
vt 0.185308844 0.260959089 0
vt 0.0845068991 0.223146304 0
vt 0.182681203 0.393014938 0
vt 0.118472762 0.327442706 0
vt 0.132832572 0.277066559 0
vt 0.0524147488 0.243171901 0
vt 0.132832572 0.277066559 0
vt 0.118472762 0.327442706 0
vt 0.735789478 0.0975959972 0
vt 0.780784428 0.136246413 0
vt 0.691623449 0.153896347 0
vt 0.326059908 0.366371065 0
vt 0.264498174 0.312498778 0
vt 0.283100009 0.290699989 0
vt 0.740244389 0.0474234074 0
vt 0.740311146 0.0136101134 0
vt 0.787999988 0.0120000001 0
vt 0.659354866 0.0483168811 0
vt 0.735789478 0.0975959972 0
vt 0.612883687 0.139734089 0
vt 0.667838752 0.0199239329 0
vt 0.740311146 0.0136101134 0
vt 0.740244389 0.0474234074 0
vt 0.277965844 0.430853724 0
vt 0.182681203 0.393014938 0
vt 0.231227636 0.330860943 0
vt 0.512749135 0.105094977 0
vt 0.612883687 0.139734089 0
vt 0.533340335 0.161633551 0
vt 0.847500026 0.057599999 0
vt 0.862732232 0.0778963715 0
vt 0.777534246 0.0711526126 0
vt 0.735789478 0.0975959972 0
vt 0.740244389 0.0474234074 0
vt 0.777534246 0.0711526126 0
vt 0.777534246 0.0711526126 0
vt 0.780784428 0.136246413 0
vt 0.735789478 0.0975959972 0
vt 0.0244884696 0.215231046 0
vt 0.0341994725 0.176499844 0
vt 0.0845068991 0.223146304 0
vt 0.309035152 0.445168525 0
vt 0.277965844 0.430853724 0
vt 0.330290228 0.415823728 0
vt 0.735789478 0.0975959972 0
vt 0.691623449 0.153896347 0
vt 0.612883687 0.139734089 0
vt 0.326059908 0.366371065 0
vt 0.231227636 0.330860943 0
vt 0.264498174 0.312498778 0
vt 0.449257612 0.0902722403 0
vt 0.479687363 0.0796228722 0
vt 0.47219184 0.121747471 0
vt 0.860512972 0.104349606 0
vt 0.833275974 0.122989386 0
vt 0.862732232 0.0778963715 0
vt 0.429587722 0.103805974 0
vt 0.451218694 0.156374648 0
vt 0.418359518 0.153989866 0
vt 0.512749135 0.105094977 0
vt 0.533340335 0.161633551 0
vt 0.47219184 0.121747471 0
vt 0.0524147488 0.243171901 0
vt 0.0244884696 0.215231046 0
vt 0.0845068991 0.223146304 0
vt 0.479687363 0.0796228722 0
vt 0.512749135 0.105094977 0
vt 0.47219184 0.121747471 0
vt 0.533340335 0.161633551 0
vt 0.524302244 0.196870327 0
vt 0.489100009 0.167400002 0
vt 0.780784428 0.136246413 0
vt 0.821350336 0.143556714 0
vt 0.737399995 0.173500001 0
vt 0.833275974 0.122989386 0
vt 0.780784428 0.136246413 0
vt 0.777534246 0.0711526126 0
vt -0.000876165286 0.109737046 0
vt 0.0174000002 0.0921000019 0
vt 0.0378977209 0.136037603 0
vt 0.691623449 0.153896347 0
vt 0.780784428 0.136246413 0
vt 0.737399995 0.173500001 0
vt 0.846409976 0.0274854992 0
vt 0.740244389 0.0474234074 0
vt 0.787999988 0.0120000001 0
vt 0.264498174 0.312498778 0
vt 0.231227636 0.330860943 0
vt 0.185308844 0.260959089 0
vt 0.189099997 0.206300005 0
vt 0.230450079 0.232950255 0
vt 0.185308844 0.260959089 0
vt 0.667838752 0.0199239329 0
vt 0.740244389 0.0474234074 0
vt 0.659354866 0.0483168811 0
vt 0.578599989 0.0171000008 0
vt 0.637399971 0.0119000003 0
vt 0.667838752 0.0199239329 0
vt 0.00241763378 0.190928161 0
vt 0.0341994725 0.176499844 0
vt 0.0244884696 0.215231046 0
vt 0.691623449 0.153896347 0
vt 0.737399995 0.173500001 0
vt 0.686999977 0.169100001 0
vt 0.230450079 0.232950255 0
vt 0.283100009 0.290699989 0
vt 0.264498174 0.312498778 0
vt 0.189099997 0.206300005 0
vt 0.185308844 0.260959089 0
vt 0.099398829 0.184314296 0
vt 0.512749135 0.105094977 0
vt 0.533917904 0.0573949069 0
vt 0.659354866 0.0483168811 0
vt 0.533917904 0.0573949069 0
vt 0.512749135 0.105094977 0
vt 0.479687363 0.0796228722 0
vt 0.659354866 0.0483168811 0
vt 0.740244389 0.0474234074 0
vt 0.735789478 0.0975959972 0
vt 0.0341994725 0.176499844 0
vt 0.0610000007 0.157900006 0
vt 0.0845068991 0.223146304 0
vt 0.412596166 0.055678457 0
vt 0.379711419 0.0645056069 0
vt 0.36902824 0.0409475788 0
vt 0.231227636 0.330860943 0
vt 0.182681203 0.393014938 0
vt 0.132832572 0.277066559 0
vt 0.132832572 0.277066559 0
vt 0.0524147488 0.243171901 0
vt 0.0845068991 0.223146304 0
vt 0.777534246 0.0711526126 0
vt 0.846409976 0.0274854992 0
vt 0.847500026 0.057599999 0
vt 0.777534246 0.0711526126 0
vt 0.740244389 0.0474234074 0
vt 0.846409976 0.0274854992 0
vt 0.691623449 0.153896347 0
vt 0.657774448 0.180997655 0
vt 0.611999989 0.183300003 0
vt 0.612883687 0.139734089 0
vt 0.691623449 0.153896347 0
vt 0.533340335 0.161633551 0
vt 0.412596166 0.055678457 0
vt 0.413672328 0.0862144455 0
vt 0.379711419 0.0645056069 0
vt 0.185308844 0.260959089 0
vt 0.231227636 0.330860943 0
vt 0.132832572 0.277066559 0
vt 0.231227636 0.330860943 0
vt 0.28661561 0.387526035 0
vt 0.277965844 0.430853724 0
vt 0.00890675839 0.132126436 0
vt -0.000876165286 0.109737046 0
vt 0.0378977209 0.136037603 0
vt 0.185308844 0.260959089 0
vt 0.132832572 0.277066559 0
vt 0.0845068991 0.223146304 0
vt 0.47219184 0.121747471 0
vt 0.533340335 0.161633551 0
vt 0.489100009 0.167400002 0
vt 0.457943529 0.175511479 0
vt 0.47219184 0.121747471 0
vt 0.489100009 0.167400002 0
vt 0.326059908 0.366371065 0
vt 0.336880952 0.385075212 0
vt 0.330290228 0.415823728 0
vt 0.533917904 0.0573949069 0
vt 0.667838752 0.0199239329 0
vt 0.659354866 0.0483168811 0
vt 0.479687363 0.0796228722 0
vt 0.505717933 0.0414772592 0
vt 0.533917904 0.0573949069 0
vt 0.0610000007 0.157900006 0
vt 0.099398829 0.184314296 0
vt 0.0845068991 0.223146304 0
vt 0.230450079 0.232950255 0
vt 0.264498174 0.312498778 0
vt 0.185308844 0.260959089 0
vt 0.833275974 0.122989386 0
vt 0.821350336 0.143556714 0
vt 0.780784428 0.136246413 0
vt 0.28661561 0.387526035 0
vt 0.231227636 0.330860943 0
vt 0.326059908 0.366371065 0
vt 0.457943529 0.175511479 0
vt 0.44935292 0.117154203 0
vt 0.47219184 0.121747471 0
vt 0.44935292 0.117154203 0
vt 0.449257612 0.0902722403 0
vt 0.47219184 0.121747471 0
vt 0.659106851 0.000541442889 0
vt 0.667838752 0.0199239329 0
vt 0.637399971 0.0119000003 0
vt 0.691623449 0.153896347 0
vt 0.686999977 0.169100001 0
vt 0.657774448 0.180997655 0
vt 0.667838752 0.0199239329 0
vt 0.533917904 0.0573949069 0
vt 0.578599989 0.0171000008 0
vt 0.260899991 0.245000005 0
vt 0.283100009 0.290699989 0
vt 0.230450079 0.232950255 0
vt 0.533340335 0.161633551 0
vt 0.691623449 0.153896347 0
vt 0.611999989 0.183300003 0
vt 0.611999989 0.183300003 0
vt 0.524302244 0.196870327 0
vt 0.533340335 0.161633551 0
vt 0.28661561 0.387526035 0
vt 0.330290228 0.415823728 0
vt 0.277965844 0.430853724 0
vt 0.309035152 0.445168525 0
vt 0.330290228 0.415823728 0
vt 0.33278504 0.441027284 0
vt 0.330290228 0.415823728 0
vt 0.28661561 0.387526035 0
vt 0.326059908 0.366371065 0
vt 0.226984635 0.103938699 0
vt 0.221516669 0.1812962 0
vt 0.106301844 0.14646627 0
vt 0.413672328 0.0862144455 0
vt 0.429587722 0.103805974 0
vt 0.418359518 0.153989866 0
vt 0.399818271 0.147715122 0
vt 0.325156987 0.154976338 0
vt 0.358299196 0.120399311 0
vt 0.303720713 0.0947901607 0
vt 0.325156987 0.154976338 0
vt 0.226984635 0.103938699 0
vt 0.38451466 0.105214447 0
vt 0.319463909 0.0668463409 0
vt 0.379711419 0.0645056069 0
vt 0.277965844 0.430853724 0
vt 0.285103083 0.463485777 0
vt 0.232459113 0.450579762 0
vt 0.182681203 0.393014938 0
vt 0.277965844 0.430853724 0
vt 0.232459113 0.450579762 0
vt 0.38451466 0.105214447 0
vt 0.358299196 0.120399311 0
vt 0.319463909 0.0668463409 0
vt 0.379711419 0.0645056069 0
vt 0.319463909 0.0668463409 0
vt 0.327199996 0.0419000015 0
vt 0.0378977209 0.136037603 0
vt 0.0825931877 0.0972612426 0
vt 0.106301844 0.14646627 0
vt 0.0405327901 0.303722471 0
vt 0.0524147488 0.243171901 0
vt 0.118472762 0.327442706 0
vt 0.221516669 0.1812962 0
vt 0.226984635 0.103938699 0
vt 0.325156987 0.154976338 0
vt 0.152398482 0.398725867 0
vt 0.0405327901 0.303722471 0
vt 0.118472762 0.327442706 0
vt 0.106301844 0.14646627 0
vt 0.142173171 0.0882145166 0
vt 0.226984635 0.103938699 0
vt 0.119264029 0.0131019782 0
vt 0.205129519 0.00717608863 0
vt 0.142173171 0.0882145166 0
vt 0.0463981554 0.0945471749 0
vt 0.0825931877 0.0972612426 0
vt 0.0378977209 0.136037603 0
vt 0.399818271 0.147715122 0
vt 0.324584603 0.195449293 0
vt 0.325156987 0.154976338 0
vt 0.325156987 0.154976338 0
vt 0.324584603 0.195449293 0
vt 0.221516669 0.1812962 0
vt 0.0858125016 0.165476754 0
vt 0.0378977209 0.136037603 0
vt 0.106301844 0.14646627 0
vt 0.399818271 0.147715122 0
vt 0.358299196 0.120399311 0
vt 0.38451466 0.105214447 0
vt 0.142173171 0.0882145166 0
vt 0.205129519 0.00717608863 0
vt 0.219886869 0.0911465287 0
vt 0.277965844 0.430853724 0
vt 0.309035152 0.445168525 0
vt 0.285103083 0.463485777 0
vt 0.358299196 0.120399311 0
vt 0.325156987 0.154976338 0
vt 0.303720713 0.0947901607 0
vt 0.399818271 0.147715122 0
vt 0.418359518 0.153989866 0
vt 0.415070713 0.188306198 0
vt 0.327199996 0.0419000015 0
vt 0.319463909 0.0668463409 0
vt 0.205129519 0.00717608863 0
vt 0.205129519 0.00717608863 0
vt 0.2271 0.00100000005 0
vt 0.286199987 0.0161000006 0
vt 0.0378977209 0.136037603 0
vt 0.0174000002 0.0921000019 0
vt 0.0463981554 0.0945471749 0
vt 0.399818271 0.147715122 0
vt 0.38451466 0.105214447 0
vt 0.413672328 0.0862144455 0
vt 0.303720713 0.0947901607 0
vt 0.226984635 0.103938699 0
vt 0.219886869 0.0911465287 0
vt 0.327199996 0.0419000015 0
vt 0.205129519 0.00717608863 0
vt 0.286199987 0.0161000006 0
vt 0.0244884696 0.215231046 0
vt 0.0524147488 0.243171901 0
vt 0.0405327901 0.303722471 0
vt 0.413672328 0.0862144455 0
vt 0.38451466 0.105214447 0
vt 0.379711419 0.0645056069 0
vt 0.415070713 0.188306198 0
vt 0.324584603 0.195449293 0
vt 0.399818271 0.147715122 0
vt 0.106301844 0.14646627 0
vt 0.0825931877 0.0972612426 0
vt 0.142173171 0.0882145166 0
vt 0.319463909 0.0668463409 0
vt 0.358299196 0.120399311 0
vt 0.303720713 0.0947901607 0
vt 0.0463981554 0.0945471749 0
vt 0.0872000009 0.0485000014 0
vt 0.0825931877 0.0972612426 0
vt 0.0825931877 0.0972612426 0
vt 0.119264029 0.0131019782 0
vt 0.142173171 0.0882145166 0
vt 0.36902824 0.0409475788 0
vt 0.379711419 0.0645056069 0
vt 0.327199996 0.0419000015 0
vt 0.505717933 0.0414772592 0
vt 0.532800019 0.0116999997 0
vt 0.533917904 0.0573949069 0
vt 0.219886869 0.0911465287 0
vt 0.319463909 0.0668463409 0
vt 0.303720713 0.0947901607 0
vt 0.319463909 0.0668463409 0
vt 0.219886869 0.0911465287 0
vt 0.205129519 0.00717608863 0
vt 0.0872000009 0.0485000014 0
vt 0.119264029 0.0131019782 0
vt 0.0825931877 0.0972612426 0
vt 0.177729025 0.198499277 0
vt 0.0858125016 0.165476754 0
vt 0.106301844 0.14646627 0
vt 0.177729025 0.198499277 0
vt 0.106301844 0.14646627 0
vt 0.221516669 0.1812962 0
vt 0.226984635 0.103938699 0
vt 0.142173171 0.0882145166 0
vt 0.219886869 0.0911465287 0
vt 0.740311146 0.0136101134 0
vt 0.667838752 0.0199239329 0
vt 0.659106851 0.000541442889 0
vt 0.418359518 0.153989866 0
vt 0.399818271 0.147715122 0
vt 0.413672328 0.0862144455 0
vt 0.532800019 0.0116999997 0
vt 0.578599989 0.0171000008 0
vt 0.533917904 0.0573949069 0
vt 0.152398482 0.398725867 0
vt 0.118472762 0.327442706 0
vt 0.182681203 0.393014938 0
vt 0.221516669 0.1812962 0
vt 0.324584603 0.195449293 0
vt 0.177729025 0.198499277 0
vt 0.182681203 0.393014938 0
vt 0.232459113 0.450579762 0
vt 0.152398482 0.398725867 0
vn 0.128308624 0.723555803 -0.688307047
vn 0.700710058 0.258626997 -0.708806753
vn 0.264223784 -0.103944369 -0.988242984
vn 0.714398086 0.667232871 0.220853016
vn 0.919583559 0.420745999 0.0373996347
vn 0.624847353 0.773351908 0.136447579
vn -0.12481261 0.918021679 0.389774591
vn -0.347658038 0.948240399 0.125440821
vn -0.43761602 0.827057958 0.404892623
vn -0.998585045 -0.0783768594 -0.127168626
vn -0.990620911 -0.140869319 0.0746326745
vn -0.93758893 0.342724919 0.115879677
vn -0.934374154 -0.0336137339 0.408394277
vn -0.93758893 0.342724919 0.115879677
vn -0.990620911 -0.140869319 0.0746326745
vn 0.646074891 0.748007238 -0.187258422
vn 0.222717881 0.931845307 -0.342432052
vn 0.392158926 0.928146362 0.0477684289
vn -0.198095486 0.885396242 -0.475387603
vn -0.358370781 0.938008726 -0.111664385
vn -0.0393042415 0.994231284 -0.0997969955
vn 0.907351017 -0.0467847995 -0.485338449
vn 0.736295581 -0.518286884 -0.475031823
vn 0.598595023 -0.535528421 -0.595729232
vn 0.919583559 0.420745999 0.0373996347
vn 0.646074891 0.748007238 -0.187258422
vn 0.624847353 0.773351908 0.136447579
vn 0.958420157 -0.283705443 -0.137090892
vn 0.736295581 -0.518286884 -0.475031823
vn 0.907351017 -0.0467847995 -0.485338449
vn -0.92590487 0.0293776207 -0.414758921
vn -0.998585045 -0.0783768594 -0.127168626
vn -0.87571007 0.462731093 -0.182595804
vn 0.714398086 0.667232871 0.220853016
vn 0.624847353 0.773351908 0.136447579
vn 0.294223756 0.904459953 0.334010124
vn 0.43764177 -0.254985064 -0.862236738
vn 0.264223784 -0.103944369 -0.988242984
vn 0.700710058 0.258626997 -0.708806753
vn 0.646074891 0.748007238 -0.187258422
vn 0.907351017 -0.0467847995 -0.485338449
vn 0.700710058 0.258626997 -0.708806753
vn 0.700710058 0.258626997 -0.708806753
vn 0.222717881 0.931845307 -0.342432052
vn 0.646074891 0.748007238 -0.187258422
vn -0.628070414 -0.0158294253 0.797708094
vn -0.0944251269 0.558536947 0.831518888
vn -0.43761602 0.827057958 0.404892623
vn -0.391856641 -0.171724677 -0.909791231
vn -0.92590487 0.0293776207 -0.414758921
vn -0.277665675 0.37945658 -0.905792236
vn 0.646074891 0.748007238 -0.187258422
vn 0.392158926 0.928146362 0.0477684289
vn 0.624847353 0.773351908 0.136447579
vn -0.198095486 0.885396242 -0.475387603
vn -0.87571007 0.462731093 -0.182595804
vn -0.358370781 0.938008726 -0.111664385
vn 0.433648735 -0.197274074 0.909581423
vn 0.822214246 0.136247978 0.568755507
vn 0.408783972 0.547463655 0.757888317
vn -0.277665675 0.37945658 -0.905792236
vn 0.128308624 0.723555803 -0.688307047
vn 0.264223784 -0.103944369 -0.988242984
vn 0.175019875 0.0555001274 0.991348684
vn -0.0944251269 0.558536947 0.831518888
vn -0.209994555 -0.0822915733 0.989029884
vn 0.714398086 0.667232871 0.220853016
vn 0.294223756 0.904459953 0.334010124
vn 0.408783972 0.547463655 0.757888317
vn -0.934374154 -0.0336137339 0.408394277
vn -0.628070414 -0.0158294253 0.797708094
vn -0.43761602 0.827057958 0.404892623
vn 0.822214246 0.136247978 0.568755507
vn 0.714398086 0.667232871 0.220853016
vn 0.408783972 0.547463655 0.757888317
vn 0.294223756 0.904459953 0.334010124
vn -0.12481261 0.918021679 0.389774591
vn 0.0576050915 0.817987323 0.572344542
vn 0.222717881 0.931845307 -0.342432052
vn -0.198095486 0.885396242 -0.475387603
vn -0.0393042415 0.994231284 -0.0997969955
vn 0.128308624 0.723555803 -0.688307047
vn 0.222717881 0.931845307 -0.342432052
vn 0.700710058 0.258626997 -0.708806753
vn 0.264223784 -0.103944369 -0.988242984
vn 0.43764177 -0.254985064 -0.862236738
vn -0.339383632 -0.591149032 -0.766519725
vn 0.392158926 0.928146362 0.0477684289
vn 0.222717881 0.931845307 -0.342432052
vn -0.0393042415 0.994231284 -0.0997969955
vn 0.392828733 -0.521424592 -0.781011283
vn 0.907351017 -0.0467847995 -0.485338449
vn 0.598595023 -0.535528421 -0.595729232
vn -0.358370781 0.938008726 -0.111664385
vn -0.87571007 0.462731093 -0.182595804
vn -0.347658038 0.948240399 0.125440821
vn 0.00663646124 0.981705487 0.190289557
vn -0.0130354445 1.00135279 0.100106232
vn -0.347658038 0.948240399 0.125440821
vn 0.958420157 -0.283705443 -0.137090892
vn 0.907351017 -0.0467847995 -0.485338449
vn 0.919583559 0.420745999 0.0373996347
vn 0.896307945 -0.441108406 0.0453359075
vn 0.878230393 -0.477343082 -0.0292396024
vn 0.958420157 -0.283705443 -0.137090892
vn -0.209994555 -0.0822915733 0.989029884
vn -0.0944251269 0.558536947 0.831518888
vn -0.628070414 -0.0158294253 0.797708094
vn 0.392158926 0.928146362 0.0477684289
vn -0.0393042415 0.994231284 -0.0997969955
vn 0.126806393 0.991642535 0.0237739943
vn -0.0130354445 1.00135279 0.100106232
vn -0.0393042415 0.994231284 -0.0997969955
vn -0.358370781 0.938008726 -0.111664385
vn 0.00663646124 0.981705487 0.190289557
vn -0.347658038 0.948240399 0.125440821
vn -0.12481261 0.918021679 0.389774591
vn 0.714398086 0.667232871 0.220853016
vn 0.987616658 0.116593167 0.176322505
vn 0.919583559 0.420745999 0.0373996347
vn 0.987616658 0.116593167 0.176322505
vn 0.714398086 0.667232871 0.220853016
vn 0.822214246 0.136247978 0.568755507
vn 0.919583559 0.420745999 0.0373996347
vn 0.907351017 -0.0467847995 -0.485338449
vn 0.646074891 0.748007238 -0.187258422
vn -0.0944251269 0.558536947 0.831518888
vn 0.0576050915 0.817987323 0.572344542
vn -0.43761602 0.827057958 0.404892623
vn 0.822214246 0.136247978 0.568755507
vn 0.643825293 -0.608237565 0.493922681
vn 0.870662451 -0.424438447 0.303940803
vn -0.87571007 0.462731093 -0.182595804
vn -0.998585045 -0.0783768594 -0.127168626
vn -0.93758893 0.342724919 0.115879677
vn -0.93758893 0.342724919 0.115879677
vn -0.934374154 -0.0336137339 0.408394277
vn -0.43761602 0.827057958 0.404892623
vn 0.700710058 0.258626997 -0.708806753
vn 0.392828733 -0.521424592 -0.781011283
vn 0.43764177 -0.254985064 -0.862236738
vn 0.700710058 0.258626997 -0.708806753
vn 0.907351017 -0.0467847995 -0.485338449
vn 0.392828733 -0.521424592 -0.781011283
vn 0.392158926 0.928146362 0.0477684289
vn -0.0130354445 1.00135279 0.100106232
vn 0.00663646124 0.981705487 0.190289557
vn 0.624847353 0.773351908 0.136447579
vn 0.392158926 0.928146362 0.0477684289
vn 0.294223756 0.904459953 0.334010124
vn 0.822214246 0.136247978 0.568755507
vn 0.433648735 -0.197274074 0.909581423
vn 0.643825293 -0.608237565 0.493922681
vn -0.347658038 0.948240399 0.125440821
vn -0.87571007 0.462731093 -0.182595804
vn -0.93758893 0.342724919 0.115879677
vn -0.87571007 0.462731093 -0.182595804
vn -0.871306062 0.380672038 -0.349241108
vn -0.92590487 0.0293776207 -0.414758921
vn -0.391856641 -0.171724677 -0.909791231
vn 0.264223784 -0.103944369 -0.988242984
vn -0.339383632 -0.591149032 -0.766519725
vn -0.347658038 0.948240399 0.125440821
vn -0.93758893 0.342724919 0.115879677
vn -0.43761602 0.827057958 0.404892623
vn 0.408783972 0.547463655 0.757888317
vn 0.294223756 0.904459953 0.334010124
vn 0.0576050915 0.817987323 0.572344542
vn -0.0944251269 0.558536947 0.831518888
vn 0.408783972 0.547463655 0.757888317
vn 0.0576050915 0.817987323 0.572344542
vn -0.198095486 0.885396242 -0.475387603
vn 0.128308624 0.723555803 -0.688307047
vn -0.277665675 0.37945658 -0.905792236
vn 0.987616658 0.116593167 0.176322505
vn 0.958420157 -0.283705443 -0.137090892
vn 0.919583559 0.420745999 0.0373996347
vn 0.822214246 0.136247978 0.568755507
vn 0.870662451 -0.424438447 0.303940803
vn 0.987616658 0.116593167 0.176322505
vn 0.0576050915 0.817987323 0.572344542
vn -0.12481261 0.918021679 0.389774591
vn -0.43761602 0.827057958 0.404892623
vn -0.0130354445 1.00135279 0.100106232
vn -0.358370781 0.938008726 -0.111664385
vn -0.347658038 0.948240399 0.125440821
vn 0.128308624 0.723555803 -0.688307047
vn -0.198095486 0.885396242 -0.475387603
vn 0.222717881 0.931845307 -0.342432052
vn -0.871306062 0.380672038 -0.349241108
vn -0.87571007 0.462731093 -0.182595804
vn -0.198095486 0.885396242 -0.475387603
vn -0.0944251269 0.558536947 0.831518888
vn 0.175019875 0.0555001274 0.991348684
vn 0.408783972 0.547463655 0.757888317
vn 0.175019875 0.0555001274 0.991348684
vn 0.433648735 -0.197274074 0.909581423
vn 0.408783972 0.547463655 0.757888317
vn 0.763536274 -0.640777111 -0.151697084
vn 0.958420157 -0.283705443 -0.137090892
vn 0.878230393 -0.477343082 -0.0292396024
vn 0.392158926 0.928146362 0.0477684289
vn 0.126806393 0.991642535 0.0237739943
vn -0.0130354445 1.00135279 0.100106232
vn 0.958420157 -0.283705443 -0.137090892
vn 0.987616658 0.116593167 0.176322505
vn 0.896307945 -0.441108406 0.0453359075
vn 0.126806393 0.991642535 0.0237739943
vn -0.0393042415 0.994231284 -0.0997969955
vn -0.0130354445 1.00135279 0.100106232
vn 0.294223756 0.904459953 0.334010124
vn 0.392158926 0.928146362 0.0477684289
vn 0.00663646124 0.981705487 0.190289557
vn 0.00663646124 0.981705487 0.190289557
vn -0.12481261 0.918021679 0.389774591
vn 0.294223756 0.904459953 0.334010124
vn -0.871306062 0.380672038 -0.349241108
vn -0.277665675 0.37945658 -0.905792236
vn -0.92590487 0.0293776207 -0.414758921
vn -0.391856641 -0.171724677 -0.909791231
vn -0.277665675 0.37945658 -0.905792236
vn 0.264223784 -0.103944369 -0.988242984
vn -0.277665675 0.37945658 -0.905792236
vn -0.871306062 0.380672038 -0.349241108
vn -0.198095486 0.885396242 -0.475387603
vn -0.251084059 -0.969644427 -0.00947343092
vn -0.561740756 -0.83416611 0.0211740565
vn -0.422870338 -0.887312293 -0.20933333
vn 0.433648735 -0.197274074 0.909581423
vn 0.175019875 0.0555001274 0.991348684
vn -0.209994555 -0.0822915733 0.989029884
vn -0.43444404 -0.52983582 0.759791851
vn -0.451746136 -0.884871781 0.210863054
vn -0.232666492 -0.872471094 0.454975635
vn 0.0530713014 -0.993316054 0.168439433
vn -0.451746136 -0.884871781 0.210863054
vn -0.251084059 -0.969644427 -0.00947343092
vn 0.158155471 -0.753433585 0.665162742
vn 0.47589466 -0.875724375 0.149772704
vn 0.643825293 -0.608237565 0.493922681
vn -0.92590487 0.0293776207 -0.414758921
vn -0.339383632 -0.591149032 -0.766519725
vn -0.771691263 -0.550483823 -0.343761444
vn -0.998585045 -0.0783768594 -0.127168626
vn -0.92590487 0.0293776207 -0.414758921
vn -0.771691263 -0.550483823 -0.343761444
vn 0.158155471 -0.753433585 0.665162742
vn -0.232666492 -0.872471094 0.454975635
vn 0.47589466 -0.875724375 0.149772704
vn 0.643825293 -0.608237565 0.493922681
vn 0.47589466 -0.875724375 0.149772704
vn 0.766713977 -0.625574529 0.144243434
vn -0.339383632 -0.591149032 -0.766519725
vn 0.268621266 -0.799652576 -0.568470836
vn -0.422870338 -0.887312293 -0.20933333
vn -0.825662911 -0.499582231 0.279286504
vn -0.934374154 -0.0336137339 0.408394277
vn -0.990620911 -0.140869319 0.0746326745
vn -0.561740756 -0.83416611 0.0211740565
vn -0.251084059 -0.969644427 -0.00947343092
vn -0.451746136 -0.884871781 0.210863054
vn -0.853695691 -0.536467433 -0.0479506887
vn -0.825662911 -0.499582231 0.279286504
vn -0.990620911 -0.140869319 0.0746326745
vn -0.422870338 -0.887312293 -0.20933333
vn 0.282319158 -0.924651682 -0.309273481
vn -0.251084059 -0.969644427 -0.00947343092
vn 0.736295581 -0.518286884 -0.475031823
vn 0.763536274 -0.640777111 -0.151697084
vn 0.282319158 -0.924651682 -0.309273481
vn 0.392828733 -0.521424592 -0.781011283
vn 0.268621266 -0.799652576 -0.568470836
vn -0.339383632 -0.591149032 -0.766519725
vn -0.43444404 -0.52983582 0.759791851
vn -0.825662911 -0.499582231 0.279286504
vn -0.451746136 -0.884871781 0.210863054
vn -0.451746136 -0.884871781 0.210863054
vn -0.825662911 -0.499582231 0.279286504
vn -0.561740756 -0.83416611 0.0211740565
vn -0.771691263 -0.550483823 -0.343761444
vn -0.339383632 -0.591149032 -0.766519725
vn -0.422870338 -0.887312293 -0.20933333
vn -0.43444404 -0.52983582 0.759791851
vn -0.232666492 -0.872471094 0.454975635
vn 0.158155471 -0.753433585 0.665162742
vn 0.282319158 -0.924651682 -0.309273481
vn 0.763536274 -0.640777111 -0.151697084
vn 0.291648895 -0.957725167 -0.106150754
vn -0.92590487 0.0293776207 -0.414758921
vn -0.391856641 -0.171724677 -0.909791231
vn -0.339383632 -0.591149032 -0.766519725
vn -0.232666492 -0.872471094 0.454975635
vn -0.451746136 -0.884871781 0.210863054
vn 0.0530713014 -0.993316054 0.168439433
vn -0.43444404 -0.52983582 0.759791851
vn -0.209994555 -0.0822915733 0.989029884
vn -0.628070414 -0.0158294253 0.797708094
vn 0.766713977 -0.625574529 0.144243434
vn 0.47589466 -0.875724375 0.149772704
vn 0.763536274 -0.640777111 -0.151697084
vn 0.763536274 -0.640777111 -0.151697084
vn 0.878230393 -0.477343082 -0.0292396024
vn 0.896307945 -0.441108406 0.0453359075
vn -0.339383632 -0.591149032 -0.766519725
vn 0.43764177 -0.254985064 -0.862236738
vn 0.392828733 -0.521424592 -0.781011283
vn -0.43444404 -0.52983582 0.759791851
vn 0.158155471 -0.753433585 0.665162742
vn 0.433648735 -0.197274074 0.909581423
vn 0.0530713014 -0.993316054 0.168439433
vn -0.251084059 -0.969644427 -0.00947343092
vn 0.291648895 -0.957725167 -0.106150754
vn 0.766713977 -0.625574529 0.144243434
vn 0.763536274 -0.640777111 -0.151697084
vn 0.896307945 -0.441108406 0.0453359075
vn -0.628070414 -0.0158294253 0.797708094
vn -0.934374154 -0.0336137339 0.408394277
vn -0.825662911 -0.499582231 0.279286504
vn 0.433648735 -0.197274074 0.909581423
vn 0.158155471 -0.753433585 0.665162742
vn 0.643825293 -0.608237565 0.493922681
vn -0.628070414 -0.0158294253 0.797708094
vn -0.825662911 -0.499582231 0.279286504
vn -0.43444404 -0.52983582 0.759791851
vn -0.422870338 -0.887312293 -0.20933333
vn 0.268621266 -0.799652576 -0.568470836
vn 0.282319158 -0.924651682 -0.309273481
vn 0.47589466 -0.875724375 0.149772704
vn -0.232666492 -0.872471094 0.454975635
vn 0.0530713014 -0.993316054 0.168439433
vn 0.392828733 -0.521424592 -0.781011283
vn 0.598595023 -0.535528421 -0.595729232
vn 0.268621266 -0.799652576 -0.568470836
vn 0.268621266 -0.799652576 -0.568470836
vn 0.736295581 -0.518286884 -0.475031823
vn 0.282319158 -0.924651682 -0.309273481
vn 0.870662451 -0.424438447 0.303940803
vn 0.643825293 -0.608237565 0.493922681
vn 0.766713977 -0.625574529 0.144243434
vn 0.870662451 -0.424438447 0.303940803
vn 0.766713977 -0.625574529 0.144243434
vn 0.987616658 0.116593167 0.176322505
vn 0.291648895 -0.957725167 -0.106150754
vn 0.47589466 -0.875724375 0.149772704
vn 0.0530713014 -0.993316054 0.168439433
vn 0.47589466 -0.875724375 0.149772704
vn 0.291648895 -0.957725167 -0.106150754
vn 0.763536274 -0.640777111 -0.151697084
vn 0.598595023 -0.535528421 -0.595729232
vn 0.736295581 -0.518286884 -0.475031823
vn 0.268621266 -0.799652576 -0.568470836
vn -0.853695691 -0.536467433 -0.0479506887
vn -0.771691263 -0.550483823 -0.343761444
vn -0.422870338 -0.887312293 -0.20933333
vn -0.853695691 -0.536467433 -0.0479506887
vn -0.422870338 -0.887312293 -0.20933333
vn -0.561740756 -0.83416611 0.0211740565
vn -0.251084059 -0.969644427 -0.00947343092
vn 0.282319158 -0.924651682 -0.309273481
vn 0.291648895 -0.957725167 -0.106150754
vn 0.736295581 -0.518286884 -0.475031823
vn 0.958420157 -0.283705443 -0.137090892
vn 0.763536274 -0.640777111 -0.151697084
vn -0.209994555 -0.0822915733 0.989029884
vn -0.43444404 -0.52983582 0.759791851
vn 0.433648735 -0.197274074 0.909581423
vn 0.766713977 -0.625574529 0.144243434
vn 0.896307945 -0.441108406 0.0453359075
vn 0.987616658 0.116593167 0.176322505
vn -0.853695691 -0.536467433 -0.0479506887
vn -0.990620911 -0.140869319 0.0746326745
vn -0.998585045 -0.0783768594 -0.127168626
vn -0.561740756 -0.83416611 0.0211740565
vn -0.825662911 -0.499582231 0.279286504
vn -0.853695691 -0.536467433 -0.0479506887
vn -0.998585045 -0.0783768594 -0.127168626
vn -0.771691263 -0.550483823 -0.343761444
vn -0.853695691 -0.536467433 -0.0479506887
g Scatter_Smooth_01_LOD0
f 7/1/1 8/2/2 9/3/3
f 10/4/4 11/5/5 12/6/6
f 3/7/7 13/8/8 14/9/9
f 15/10/10 16/11/11 17/12/12
f 18/13/13 17/14/14 16/15/15
f 19/16/16 20/17/17 21/18/18
f 2/19/19 22/20/20 23/21/21
f 24/22/22 25/23/23 26/24/24
f 11/25/25 19/26/26 12/27/27
f 6/28/28 25/29/29 24/30/30
f 28/31/31 15/32/32 27/33/33
f 10/34/34 12/35/35 4/36/36
f 29/37/37 9/38/38 8/39/39
f 19/40/40 24/41/41 8/42/42
f 8/43/43 20/44/44 19/45/45
f 30/46/46 31/47/47 14/48/48
f 32/49/49 28/50/50 33/51/51
f 19/52/52 21/53/53 12/54/54
f 2/55/55 27/56/56 22/57/57
f 35/58/58 36/59/59 37/60/60
f 33/61/61 7/62/62 9/63/63
f 38/64/64 31/65/65 39/66/66
f 10/67/67 4/68/68 37/69/69
f 18/70/70 30/71/71 14/72/72
f 36/73/73 10/74/74 37/75/75
f 4/76/76 3/77/77 40/78/78
f 20/79/79 2/80/80 23/81/81
f 7/82/82 20/83/83 8/84/84
f 9/85/85 29/86/86 41/87/87
f 21/88/88 20/89/89 23/90/90
f 44/91/91 24/92/92 26/93/93
f 22/94/94 27/95/95 13/96/96
f 45/97/97 34/98/98 13/99/99
f 6/100/100 24/101/101 11/102/102
f 46/103/103 47/104/104 6/105/105
f 39/106/106 31/107/107 30/108/108
f 21/109/109 23/110/110 42/111/111
f 34/112/112 23/113/113 22/114/114
f 45/115/115 13/116/116 3/117/117
f 10/118/118 5/119/119 11/120/120
f 5/121/121 10/122/122 36/123/123
f 11/124/124 24/125/125 19/126/126
f 31/127/127 40/128/128 14/129/129
f 36/130/130 48/131/131 43/132/132
f 27/133/133 15/134/134 17/135/135
f 17/136/136 18/137/137 14/138/138
f 8/139/139 44/140/140 29/141/141
f 8/142/142 24/143/143 44/144/144
f 21/145/145 34/146/146 45/147/147
f 12/148/148 21/149/149 4/150/150
f 36/151/151 35/152/152 48/153/153
f 13/154/154 27/155/155 17/156/156
f 27/157/157 1/158/158 28/159/159
f 32/160/160 9/161/161 41/162/162
f 13/163/163 17/164/164 14/165/165
f 37/166/166 4/167/167 40/168/168
f 31/169/169 37/170/170 40/171/171
f 2/172/172 7/173/173 33/174/174
f 5/175/175 6/176/176 11/177/177
f 36/178/178 43/179/179 5/180/180
f 40/181/181 3/182/182 14/183/183
f 34/184/184 22/185/185 13/186/186
f 7/187/187 2/188/188 20/189/189
f 1/190/190 27/191/191 2/192/192
f 31/193/193 38/194/194 37/195/195
f 38/196/196 35/197/197 37/198/198
f 49/199/199 6/200/200 47/201/201
f 21/202/202 42/203/203 34/204/204
f 6/205/205 5/206/206 46/207/207
f 42/208/208 23/209/209 34/210/210
f 4/211/211 21/212/212 45/213/213
f 45/214/214 3/215/215 4/216/216
f 1/217/217 33/218/218 28/219/219
f 32/220/220 33/221/221 9/222/222
f 33/223/223 1/224/224 2/225/225
f 50/226/226 51/227/227 52/228/228
f 35/229/229 38/230/230 39/231/231
f 54/232/232 55/233/233 56/234/234
f 58/235/235 55/236/236 50/237/237
f 59/238/238 60/239/239 48/240/240
f 28/241/241 41/242/242 61/243/243
f 15/244/244 28/245/245 61/246/246
f 59/247/247 56/248/248 60/249/249
f 48/250/250 60/251/251 63/252/252
f 41/253/253 64/254/254 52/255/255
f 65/256/256 18/257/257 16/258/258
f 51/259/259 50/260/260 55/261/261
f 62/262/262 65/263/263 16/264/264
f 52/265/265 53/266/266 50/267/267
f 25/268/268 49/269/269 53/270/270
f 44/271/271 64/272/272 41/273/273
f 54/274/274 65/275/275 55/276/276
f 55/277/277 65/278/278 51/279/279
f 61/280/280 41/281/281 52/282/282
f 54/283/283 56/284/284 59/285/285
f 53/286/286 49/287/287 57/288/288
f 28/289/289 32/290/290 41/291/291
f 56/292/292 55/293/293 58/294/294
f 54/295/295 39/296/296 30/297/297
f 63/298/298 60/299/299 49/300/300
f 49/301/301 47/302/302 46/303/303
f 41/304/304 29/305/305 44/306/306
f 54/307/307 59/308/308 35/309/309
f 58/310/310 50/311/311 57/312/312
f 63/313/313 49/314/314 46/315/315
f 30/316/316 18/317/317 65/318/318
f 35/319/319 59/320/320 48/321/321
f 30/322/322 65/323/323 54/324/324
f 52/325/325 64/326/326 53/327/327
f 60/328/328 56/329/329 58/330/330
f 44/331/331 26/332/332 64/333/333
f 64/334/334 25/335/335 53/336/336
f 43/337/337 48/338/338 63/339/339
f 43/340/340 63/341/341 5/342/342
f 57/343/343 60/344/344 58/345/345
f 60/346/346 57/347/347 49/348/348
f 26/349/349 25/350/350 64/351/351
f 62/352/352 61/353/353 52/354/354
f 62/355/355 52/356/356 51/357/357
f 50/358/358 53/359/359 57/360/360
f 25/361/361 6/362/362 49/363/363
f 39/364/364 54/365/365 35/366/366
f 63/367/367 46/368/368 5/369/369
f 62/370/370 16/371/371 15/372/372
f 51/373/373 65/374/374 62/375/375
f 15/376/376 61/377/377 62/378/378
