# File exported by Houdini 16.5.405 (www.sidefx.com)
# 26 points
# 144 vertices
# 48 primitives
# Bounds: [-12.0972929, 0.42220825, -16.9400024] to [4.75184584, 13.2649584, 6.52816343]
g 
v -9.38658524 11.6750927 -7.40727186
v -10.5798264 6.54827833 -13.0235071
v 3.98049068 8.13029194 1.73561907
v 4.75184584 8.02430534 -8.12469673
v 1.63170207 12.3810186 2.05217409
v -4.37469721 8.99003315 6.52816343
v -0.58514452 5.99523211 6.42672205
v 1.71647263 4.13257074 -15.1395407
v -1.43068326 11.3394232 -12.6411552
v -12.0972929 2.7804966 -4.21231461
v -11.4913549 6.97730589 1.90699136
v -2.06177688 7.90866137 -16.2300549
v -3.69390297 13.2649584 -6.11920023
v -9.62576389 8.16538906 4.01769209
v -1.056391 13.1657572 2.09268618
v -5.24623489 2.77321839 5.43242693
v -11.5208273 4.48198843 0.409098715
v 2.58413363 3.726125 1.92505503
v 0.641326547 0.729325771 -12.2447481
v 0.589580059 0.741405308 0.612309277
v -6.98668861 0.42220825 -11.5471897
v -9.38570786 1.01324677 -2.52129316
v -2.81313682 3.36830878 -16.9400024
v 3.28413653 2.56331968 -9.12825298
v -6.83652544 3.88998008 -15.8488283
v -10.0869274 3.63213754 -12.3859673
vt 0.573959231 0.483085424 0
vt 0.673473299 0.389321715 0
vt 0.775175273 0.433012217 0
vt 0.811392963 0.656677306 0
vt 0.897714734 0.524968803 0
vt 0.897540271 0.60659945 0
vt 0.13385345 0.649582207 0
vt 0.00838203263 0.620159268 0
vt 0.0108458698 0.577112257 0
vt 0.26754269 0.480944872 0
vt 0.224260956 0.595388234 0
vt 0.151832923 0.509175837 0
vt 0.934194386 0.651355207 0
vt 0.897540271 0.60659945 0
vt 0.981052995 0.587427437 0
vt 0.897714734 0.524968803 0
vt 0.956347644 0.464441001 0
vt 0.981052995 0.587427437 0
vt 0.897540271 0.60659945 0
vt 0.934194386 0.651355207 0
vt 0.834395111 0.70148629 0
vt 0.775175273 0.433012217 0
vt 0.673473299 0.389321715 0
vt 0.74891305 0.399906188 0
vt 0.224260956 0.595388234 0
vt 0.13385345 0.649582207 0
vt 0.0108458698 0.577112257 0
vt 0.573959231 0.483085424 0
vt 0.775175273 0.433012217 0
vt 0.660726309 0.527256906 0
vt 0.688650608 0.607162416 0
vt 0.581119239 0.628346562 0
vt 0.660726309 0.527256906 0
vt 0.508389533 0.595126212 0
vt 0.573959231 0.483085424 0
vt 0.581119239 0.628346562 0
vt 0.834395111 0.70148629 0
vt 0.934194386 0.651355207 0
vt 0.899570823 0.744256735 0
vt 0.981052995 0.587427437 0
vt 0.897540271 0.60659945 0
vt 0.897714734 0.524968803 0
vt 0.26754269 0.480944872 0
vt 0.292421103 0.559671462 0
vt 0.224260956 0.595388234 0
vt 0.660726309 0.527256906 0
vt 0.82509017 0.619109392 0
vt 0.688650608 0.607162416 0
vt 0.660726309 0.527256906 0
vt 0.775175273 0.433012217 0
vt 0.81885457 0.457193255 0
vt 0.660726309 0.527256906 0
vt 0.81885457 0.457193255 0
vt 0.82509017 0.619109392 0
vt 0.573959231 0.483085424 0
vt 0.660726309 0.527256906 0
vt 0.581119239 0.628346562 0
vt 0.897714734 0.524968803 0
vt 0.915024936 0.481831312 0
vt 0.956347644 0.464441001 0
vt 0.834395111 0.70148629 0
vt 0.811392963 0.656677306 0
vt 0.897540271 0.60659945 0
vt 0.151832923 0.509175837 0
vt 0.224260956 0.595388234 0
vt 0.0108458698 0.577112257 0
vt 0.0160260629 0.505221188 0
vt 0.151832923 0.509175837 0
vt 0.0108458698 0.577112257 0
vt 0.934194386 0.651355207 0
vt 0.977718353 0.724736273 0
vt 0.899570823 0.744256735 0
vt 0.732801914 0.231092498 0
vt 0.910455644 0.194965124 0
vt 0.763035178 0.330681175 0
vt 0.910455644 0.194965124 0
vt 1.00260592 0.263641268 0
vt 0.893198252 0.34274897 0
vt 0.665819705 0.292455673 0
vt 0.669858217 0.213936046 0
vt 0.732801914 0.231092498 0
vt 0.151832923 0.509175837 0
vt 0.0129209468 0.436539859 0
vt 0.179465055 0.432816356 0
vt 0.151832923 0.509175837 0
vt 0.0160260629 0.505221188 0
vt 0.0129209468 0.436539859 0
vt 0.957310915 0.381110996 0
vt 0.893198252 0.34274897 0
vt 1.00260592 0.263641268 0
vt 0.893198252 0.34274897 0
vt 0.880170345 0.39467001 0
vt 0.763035178 0.330681175 0
vt 0.929388285 0.144154102 0
vt 1.00260592 0.263641268 0
vt 0.910455644 0.194965124 0
vt 0.686578751 0.352575183 0
vt 0.665819705 0.292455673 0
vt 0.763035178 0.330681175 0
vt 0.558658063 0.449528843 0
vt 0.573959231 0.483085424 0
vt 0.502420723 0.497441351 0
vt 0.508389533 0.595126212 0
vt 0.502420723 0.497441351 0
vt 0.573959231 0.483085424 0
vt 0.750391126 0.394832194 0
vt 0.686578751 0.352575183 0
vt 0.763035178 0.330681175 0
vt 0.880170345 0.39467001 0
vt 0.750391126 0.394832194 0
vt 0.763035178 0.330681175 0
vt 0.910455644 0.194965124 0
vt 0.893198252 0.34274897 0
vt 0.763035178 0.330681175 0
vt 0.762372971 0.172801033 0
vt 0.910455644 0.194965124 0
vt 0.732801914 0.231092498 0
vt 0.893198252 0.34274897 0
vt 0.957310915 0.381110996 0
vt 0.880170345 0.39467001 0
vt 0.910455644 0.194965124 0
vt 0.762372971 0.172801033 0
vt 0.929388285 0.144154102 0
vt 0.179465055 0.432816356 0
vt 0.26754269 0.480944872 0
vt 0.151832923 0.509175837 0
vt 0.669858217 0.213936046 0
vt 0.762372971 0.172801033 0
vt 0.732801914 0.231092498 0
vt 0.763035178 0.330681175 0
vt 0.665819705 0.292455673 0
vt 0.732801914 0.231092498 0
vt 0.292421103 0.559671462 0
vt 0.26754269 0.480944872 0
vt 0.341202319 0.502882421 0
vt 0.673473299 0.389321715 0
vt 0.573959231 0.483085424 0
vt 0.558658063 0.449528843 0
vt 0.934194386 0.651355207 0
vt 0.981052995 0.587427437 0
vt 0.977718353 0.724736273 0
vt 0.502420723 0.497441351 0
vt 0.508389533 0.595126212 0
vt 0.452658445 0.545716763 0
vn -0.838321507 0.344756991 -0.54994756
vn -0.840343773 -0.572223663 0.0698695704
vn -0.900456488 0.318980068 0.358139336
vn -0.00201692013 0.97636205 0.273577124
vn -0.701673627 0.512476027 0.591409326
vn -0.195766017 0.489357531 0.92027688
vn -0.0285739563 1.01669037 -0.127917543
vn -0.00201692013 0.97636205 0.273577124
vn 0.616073847 0.779127777 0.250557691
vn 0.790675163 -0.11142429 -0.681620181
vn 0.23326546 0.875000238 -0.497996628
vn 1.00055325 0.282981813 -0.168283552
vn 0.449286461 -0.1305013 0.933452845
vn -0.195766017 0.489357531 0.92027688
vn -0.260301292 -0.717651308 0.670047164
vn -0.701673627 0.512476027 0.591409326
vn -0.79387933 -0.469987661 0.425105751
vn -0.260301292 -0.717651308 0.670047164
vn -0.195766017 0.489357531 0.92027688
vn 0.449286461 -0.1305013 0.933452845
vn 0.616073847 0.779127777 0.250557691
vn -0.900456488 0.318980068 0.358139336
vn -0.840343773 -0.572223663 0.0698695704
vn -0.79387933 -0.469987661 0.425105751
vn 0.23326546 0.875000238 -0.497996628
vn -0.0285739563 1.01669037 -0.127917543
vn 0.616073847 0.779127777 0.250557691
vn -0.838321507 0.344756991 -0.54994756
vn -0.900456488 0.318980068 0.358139336
vn -0.613599062 0.805205524 -0.0980993956
vn -0.0285739563 1.01669037 -0.127917543
vn 0.23326546 0.875000238 -0.497996628
vn -0.613599062 0.805205524 -0.0980993956
vn 0.019869877 0.632155061 -0.824950755
vn -0.838321507 0.344756991 -0.54994756
vn 0.23326546 0.875000238 -0.497996628
vn 0.616073847 0.779127777 0.250557691
vn 0.449286461 -0.1305013 0.933452845
vn 0.950883746 0.122957878 0.29646799
vn -0.260301292 -0.717651308 0.670047164
vn -0.195766017 0.489357531 0.92027688
vn -0.701673627 0.512476027 0.591409326
vn 0.790675163 -0.11142429 -0.681620181
vn 0.019869877 0.632155061 -0.824950755
vn 0.23326546 0.875000238 -0.497996628
vn -0.613599062 0.805205524 -0.0980993956
vn -0.00201692013 0.97636205 0.273577124
vn -0.0285739563 1.01669037 -0.127917543
vn -0.613599062 0.805205524 -0.0980993956
vn -0.900456488 0.318980068 0.358139336
vn -0.701673627 0.512476027 0.591409326
vn -0.613599062 0.805205524 -0.0980993956
vn -0.701673627 0.512476027 0.591409326
vn -0.00201692013 0.97636205 0.273577124
vn -0.838321507 0.344756991 -0.54994756
vn -0.613599062 0.805205524 -0.0980993956
vn 0.23326546 0.875000238 -0.497996628
vn -0.701673627 0.512476027 0.591409326
vn -0.900456488 0.318980068 0.358139336
vn -0.79387933 -0.469987661 0.425105751
vn 0.616073847 0.779127777 0.250557691
vn -0.00201692013 0.97636205 0.273577124
vn -0.195766017 0.489357531 0.92027688
vn 1.00055325 0.282981813 -0.168283552
vn 0.23326546 0.875000238 -0.497996628
vn 0.616073847 0.779127777 0.250557691
vn 0.950883746 0.122957878 0.29646799
vn 1.00055325 0.282981813 -0.168283552
vn 0.616073847 0.779127777 0.250557691
vn 0.449286461 -0.1305013 0.933452845
vn 0.807228267 -0.510818958 0.374071568
vn 0.950883746 0.122957878 0.29646799
vn 0.282548159 -0.963572621 -0.204364106
vn 0.286771655 -0.955034673 0.181465402
vn -0.197757855 -0.976632833 -0.195169598
vn 0.286771655 -0.955034673 0.181465402
vn -0.260301292 -0.717651308 0.670047164
vn -0.339639038 -0.937431455 0.194185495
vn 0.0616168268 -0.473341286 -0.929365337
vn 0.790675163 -0.11142429 -0.681620181
vn 0.282548159 -0.963572621 -0.204364106
vn 1.00055325 0.282981813 -0.168283552
vn 0.807228267 -0.510818958 0.374071568
vn 0.875884056 -0.488825738 -0.0704517514
vn 1.00055325 0.282981813 -0.168283552
vn 0.950883746 0.122957878 0.29646799
vn 0.807228267 -0.510818958 0.374071568
vn -0.79387933 -0.469987661 0.425105751
vn -0.339639038 -0.937431455 0.194185495
vn -0.260301292 -0.717651308 0.670047164
vn -0.339639038 -0.937431455 0.194185495
vn -0.840343773 -0.572223663 0.0698695704
vn -0.197757855 -0.976632833 -0.195169598
vn 0.807228267 -0.510818958 0.374071568
vn -0.260301292 -0.717651308 0.670047164
vn 0.286771655 -0.955034673 0.181465402
vn -0.518387079 -0.367395014 -0.820420921
vn 0.0616168268 -0.473341286 -0.929365337
vn -0.197757855 -0.976632833 -0.195169598
vn -0.801486552 -0.396270573 -0.489320099
vn -0.838321507 0.344756991 -0.54994756
vn -0.518387079 -0.367395014 -0.820420921
vn 0.019869877 0.632155061 -0.824950755
vn -0.518387079 -0.367395014 -0.820420921
vn -0.838321507 0.344756991 -0.54994756
vn -0.801486552 -0.396270573 -0.489320099
vn -0.518387079 -0.367395014 -0.820420921
vn -0.197757855 -0.976632833 -0.195169598
vn -0.840343773 -0.572223663 0.0698695704
vn -0.801486552 -0.396270573 -0.489320099
vn -0.197757855 -0.976632833 -0.195169598
vn 0.286771655 -0.955034673 0.181465402
vn -0.339639038 -0.937431455 0.194185495
vn -0.197757855 -0.976632833 -0.195169598
vn 0.875884056 -0.488825738 -0.0704517514
vn 0.286771655 -0.955034673 0.181465402
vn 0.282548159 -0.963572621 -0.204364106
vn -0.339639038 -0.937431455 0.194185495
vn -0.79387933 -0.469987661 0.425105751
vn -0.840343773 -0.572223663 0.0698695704
vn 0.286771655 -0.955034673 0.181465402
vn 0.875884056 -0.488825738 -0.0704517514
vn 0.807228267 -0.510818958 0.374071568
vn 0.875884056 -0.488825738 -0.0704517514
vn 0.790675163 -0.11142429 -0.681620181
vn 1.00055325 0.282981813 -0.168283552
vn 0.790675163 -0.11142429 -0.681620181
vn 0.875884056 -0.488825738 -0.0704517514
vn 0.282548159 -0.963572621 -0.204364106
vn -0.197757855 -0.976632833 -0.195169598
vn 0.0616168268 -0.473341286 -0.929365337
vn 0.282548159 -0.963572621 -0.204364106
vn 0.019869877 0.632155061 -0.824950755
vn 0.790675163 -0.11142429 -0.681620181
vn 0.0616168268 -0.473341286 -0.929365337
vn -0.840343773 -0.572223663 0.0698695704
vn -0.838321507 0.344756991 -0.54994756
vn -0.801486552 -0.396270573 -0.489320099
vn 0.449286461 -0.1305013 0.933452845
vn -0.260301292 -0.717651308 0.670047164
vn 0.807228267 -0.510818958 0.374071568
vn -0.518387079 -0.367395014 -0.820420921
vn 0.019869877 0.632155061 -0.824950755
vn 0.0616168268 -0.473341286 -0.929365337
g Scatter_Smooth_04_LOD0
f 2/1/1 10/2/2 11/3/3
f 15/4/4 14/5/5 6/6/6
f 13/7/7 15/8/8 5/9/9
f 8/10/10 9/11/11 4/12/12
f 7/13/13 6/14/14 16/15/15
f 14/16/16 17/17/17 16/18/18
f 6/19/19 7/20/20 5/21/21
f 11/22/22 10/23/23 17/24/24
f 9/25/25 13/26/26 5/27/27
f 2/28/28 11/29/29 1/30/30
f 13/31/31 9/32/32 1/33/33
f 12/34/34 2/35/35 9/36/36
f 5/37/37 7/38/38 3/39/39
f 16/40/40 6/41/41 14/42/42
f 8/43/43 12/44/44 9/45/45
f 1/46/46 15/47/47 13/48/48
f 1/49/49 11/50/50 14/51/51
f 1/52/52 14/53/53 15/54/54
f 2/55/55 1/56/56 9/57/57
f 14/58/58 11/59/59 17/60/60
f 5/61/61 15/62/62 6/63/63
f 4/64/64 9/65/65 5/66/66
f 3/67/67 4/68/68 5/69/69
f 7/70/70 18/71/71 3/72/72
f 19/73/73 20/74/74 21/75/75
f 20/76/76 16/77/77 22/78/78
f 23/79/79 8/80/80 19/81/81
f 4/82/82 18/83/83 24/84/84
f 4/85/85 3/86/86 18/87/87
f 17/88/88 22/89/89 16/90/90
f 22/91/91 10/92/92 21/93/93
f 18/94/94 16/95/95 20/96/96
f 25/97/97 23/98/98 21/99/99
f 26/100/100 2/101/101 25/102/102
f 12/103/103 25/104/104 2/105/105
f 26/106/106 25/107/107 21/108/108
f 10/109/109 26/110/110 21/111/111
f 20/112/112 22/113/113 21/114/114
f 24/115/115 20/116/116 19/117/117
f 22/118/118 17/119/119 10/120/120
f 20/121/121 24/122/122 18/123/123
f 24/124/124 8/125/125 4/126/126
f 8/127/127 24/128/128 19/129/129
f 21/130/130 23/131/131 19/132/132
f 12/133/133 8/134/134 23/135/135
f 10/136/136 2/137/137 26/138/138
f 7/139/139 16/140/140 18/141/141
f 25/142/142 12/143/143 23/144/144
