# File exported by Houdini 16.5.405 (www.sidefx.com)
# 9 points
# 42 vertices
# 14 primitives
# Bounds: [-10.3871641, -0.626761734, -19.8263378] to [2.3875351, 12.2228165, 6.5629096]
g 
v -6.21002007 8.332757 -19.8263378
v -6.76257324 5.14558792 6.5629096
v 0.721033037 5.75611067 6.47276545
v 2.3875351 3.69487357 -8.74222851
v 1.78542256 7.79902697 -13.118926
v -8.36276436 3.16307068 -18.7679081
v -10.3871641 9.83603764 -2.11335683
v -4.21785879 12.2228165 -8.03006268
v -2.5013299 -0.626761734 0.832123876
vt 0.870559812 0.11626748 0
vt 0.737006366 0.0604322478 0
vt 0.915247202 0.0326245315 0
vt 0.737006366 0.0604322478 0
vt 0.870559812 0.11626748 0
vt 0.692232728 0.174591035 0
vt 0.343047887 0.421602994 0
vt 0.27625221 0.48283577 0
vt 0.139849007 0.270999789 0
vt 0.737006366 0.0604322478 0
vt 0.692232728 0.174591035 0
vt 0.465191245 0.0911815092 0
vt 0.343047887 0.421602994 0
vt 0.139849007 0.270999789 0
vt 0.262587249 0.251278609 0
vt 0.915247202 0.0326245315 0
vt 0.737006366 0.0604322478 0
vt 0.674051285 0.00820175186 0
vt 0.262587249 0.251278609 0
vt 0.139849007 0.270999789 0
vt 0.00475065876 0.214825094 0
vt 0.465191245 0.0911815092 0
vt 0.674051285 0.00820175186 0
vt 0.737006366 0.0604322478 0
vt 0.692232728 0.174591035 0
vt 0.433922648 0.201535702 0
vt 0.465191245 0.0911815092 0
vt 0.434514403 0.0600986704 0
vt 0.319158256 0.0969974101 0
vt 0.189067915 -0.0104831122 0
vt 0.0295964051 0.156730443 0
vt 0.319158256 0.0969974101 0
vt 0.40690729 0.178065643 0
vt 0.27625221 0.48283577 0
vt 0.00475065876 0.214825094 0
vt 0.139849007 0.270999789 0
vt 0.0295964051 0.156730443 0
vt 0.189067915 -0.0104831122 0
vt 0.319158256 0.0969974101 0
vt 0.40690729 0.178065643 0
vt 0.319158256 0.0969974101 0
vt 0.434514403 0.0600986704 0
vn -0.330247432 0.470990628 -0.837215185
vn 0.897078633 0.440609336 -0.279828489
vn -0.521263897 -0.656711161 -0.544604719
vn 0.897078633 0.440609336 -0.279828489
vn -0.330247432 0.470990628 -0.837215185
vn 0.125403449 1.0602082 0.0450996831
vn -0.330247432 0.470990628 -0.837215185
vn -0.521263897 -0.656711161 -0.544604719
vn -0.830481827 0.611685216 0.111375213
vn 0.897078633 0.440609336 -0.279828489
vn 0.125403449 1.0602082 0.0450996831
vn 0.839845717 0.428126335 0.487598091
vn -0.330247432 0.470990628 -0.837215185
vn -0.830481827 0.611685216 0.111375213
vn 0.125403449 1.0602082 0.0450996831
vn -0.521263897 -0.656711161 -0.544604719
vn 0.897078633 0.440609336 -0.279828489
vn 0.88414979 -0.50941515 -0.195916474
vn 0.125403449 1.0602082 0.0450996831
vn -0.830481827 0.611685216 0.111375213
vn -0.608470917 -0.246050969 0.692605972
vn 0.839845717 0.428126335 0.487598091
vn 0.88414979 -0.50941515 -0.195916474
vn 0.897078633 0.440609336 -0.279828489
vn 0.125403449 1.0602082 0.0450996831
vn -0.608470917 -0.246050969 0.692605972
vn 0.839845717 0.428126335 0.487598091
vn 0.839845717 0.428126335 0.487598091
vn 0.0140393805 -1.05962789 0.155145928
vn 0.88414979 -0.50941515 -0.195916474
vn -0.521263897 -0.656711161 -0.544604719
vn 0.0140393805 -1.05962789 0.155145928
vn -0.608470917 -0.246050969 0.692605972
vn -0.521263897 -0.656711161 -0.544604719
vn -0.608470917 -0.246050969 0.692605972
vn -0.830481827 0.611685216 0.111375213
vn -0.521263897 -0.656711161 -0.544604719
vn 0.88414979 -0.50941515 -0.195916474
vn 0.0140393805 -1.05962789 0.155145928
vn -0.608470917 -0.246050969 0.692605972
vn 0.0140393805 -1.05962789 0.155145928
vn 0.839845717 0.428126335 0.487598091
g Scatter_Smooth_01_LOD0
f 1/1/1 5/2/2 6/3/3
f 5/4/4 1/5/5 8/6/6
f 1/7/7 6/8/8 7/9/9
f 5/10/10 8/11/11 3/12/12
f 1/13/13 7/14/14 8/15/15
f 6/16/16 5/17/17 4/18/18
f 8/19/19 7/20/20 2/21/21
f 3/22/22 4/23/23 5/24/24
f 8/25/25 2/26/26 3/27/27
f 3/28/28 9/29/29 4/30/30
f 6/31/31 9/32/32 2/33/33
f 6/34/34 2/35/35 7/36/36
f 6/37/37 4/38/38 9/39/39
f 2/40/40 9/41/41 3/42/42
