# 3ds Max Wavefront OBJ Exporter v0.97b - (c)2007 guruware
# File Created: 11.07.2018 19:06:27

#
# object Scatter_Smooth_02_LOD0
#

v  2.3177 10.2695 -12.8684
v  0.5098 11.0059 -13.6670
v  1.4588 11.6330 -12.4539
v  -4.7221 12.9467 -7.9683
v  -7.1640 12.5528 -7.2824
v  -5.6892 12.4673 -5.9892
v  3.3250 6.0154 -0.0248
v  1.5264 5.5891 0.9238
v  2.7106 4.3933 -0.3896
v  -8.6626 8.8250 -0.1582
v  -9.7232 7.9968 -0.1503
v  -5.6615 8.0117 1.6200
v  4.9058 7.4264 -1.9601
v  4.5130 10.0981 -6.2082
v  3.8916 10.6415 -5.7393
v  -0.0469 12.1461 -5.3702
v  -3.4738 10.6897 -1.8674
v  -1.6810 9.9593 -1.1601
v  -8.8236 12.2921 -8.4010
v  -10.8083 11.3813 -8.1713
v  -9.8793 11.5207 -6.1587
v  -12.6444 7.3085 -2.8908
v  -11.8699 6.9869 -1.5581
v  -11.4321 7.8592 -1.3184
v  5.5993 5.8268 -5.4834
v  5.3437 8.0599 -7.2237
v  5.5454 6.7754 -3.4312
v  2.4177 8.8842 -1.7039
v  2.1293 11.8486 -5.8942
v  0.0026 9.5563 -1.2718
v  0.9779 6.5652 1.5052
v  -3.5170 4.7772 2.0195
v  -1.6284 5.2204 1.9272
v  -2.0442 6.6384 2.3605
v  -4.3977 12.4073 -13.4635
v  -2.2732 12.4433 -13.0668
v  -2.3413 11.8892 -13.8848
v  -9.6300 9.5557 -12.6768
v  -9.3062 10.7710 -12.2232
v  -7.8431 10.8282 -13.5765
v  -11.9910 9.9886 -4.9486
v  -13.0978 8.3269 -5.2433
v  -11.9750 8.6514 -2.7673
v  -6.2947 6.8845 1.8214
v  -8.2577 5.8693 1.2559
v  -5.9599 5.5753 2.0595
v  -5.1627 11.4442 -3.1083
v  -7.7863 10.5146 -1.7973
v  -5.6749 9.2602 0.4722
v  -8.2911 11.8225 -4.8131
v  5.5363 4.8312 -4.1360
v  -5.2393 13.1433 -11.5335
v  -6.8060 12.8684 -9.1812
v  -4.1055 13.3001 -10.3838
v  -8.0660 12.2922 -11.5523
v  -10.0246 11.6405 -9.8126
v  -8.4361 12.4597 -9.7781
v  5.3005 7.8098 -8.5145
v  5.4436 5.0335 -7.9662
v  4.9299 6.7187 -10.0748
v  2.5137 11.2015 -11.8598
v  3.7609 9.9753 -11.3360
v  -1.0141 12.6772 -6.2064
v  -0.6327 13.1043 -7.8394
v  -3.1954 12.6723 -6.1221
v  3.7742 11.4357 -7.3445
v  4.2678 10.8269 -8.3032
v  3.2759 11.9801 -8.9569
v  4.1180 7.6541 -11.4914
v  3.4723 9.1273 -12.0548
v  -2.5501 12.8671 -12.2147
v  -4.8372 12.9419 -12.4954
v  -2.9980 13.2423 -10.9961
v  2.6969 12.3647 -8.1013
v  1.0628 12.9935 -8.4936
v  1.2395 12.7546 -7.2173
v  -2.4139 8.1530 2.0779
v  -2.0711 7.5038 2.4175
v  4.3811 5.0184 -1.3282
v  4.6723 6.4848 -1.2739
v  4.0092 8.9976 -3.2340
v  4.4102 7.7247 -1.5860
v  -4.7283 10.7888 -14.9081
v  -5.6392 11.4070 -14.3557
v  -3.6540 11.4108 -14.5622
v  -8.3502 9.7410 -0.7811
v  -10.6053 10.5819 -3.5989
v  -11.3942 9.7307 -3.2411
v  3.3158 10.7649 -5.1587
v  3.0139 11.8705 -6.8441
v  -3.7628 3.7110 1.6134
v  -2.5059 3.2071 1.1039
v  -9.2537 11.5543 -11.3805
v  -7.9247 11.6651 -12.7622
v  -5.5688 12.1799 -13.6397
v  5.3077 5.6697 -2.3740
v  5.2191 4.4629 -2.9322
v  -11.8423 9.7408 -9.4062
v  -11.7920 10.4422 -8.3471
v  -10.6340 10.6954 -10.5425
v  -0.5450 12.9452 -11.0848
v  -0.5693 13.2389 -9.2687
v  1.1240 12.7719 -10.3282
v  -0.2063 11.9563 -13.0953
v  -10.2075 10.1656 -2.4586
v  -10.9877 8.8748 -1.6693
v  -9.8187 9.3911 -1.2058
v  -11.6148 10.6250 -5.8573
v  4.5566 9.0419 -10.3740
v  3.0095 11.6461 -10.5725
v  3.8814 10.9221 -9.9047
v  4.7147 9.8667 -8.7264
v  4.8997 9.4575 -6.8433
v  2.1164 12.1142 -11.0843
v  0.1731 12.4084 -12.1850
v  -3.7568 10.3849 -15.0532
v  -1.4780 11.0970 -14.4135
v  -2.7323 9.8680 -14.9991
v  -5.6400 4.6912 2.0029
v  -12.5043 9.9210 -6.7596
v  -2.7550 12.0258 -4.4439
v  -4.5515 12.1876 -4.6913
v  -7.0887 11.5713 -3.6720
v  -2.4094 13.2060 -8.5642
v  -9.6195 6.7944 0.3997
v  -11.0119 6.2978 -0.5165
v  -0.2121 6.8610 2.0103
v  3.4641 7.1520 -0.0645
v  1.6177 7.1220 1.2412
v  -6.5658 12.8683 -11.6120
v  -6.4596 12.3758 -12.9740
v  -9.0021 10.8592 -2.8584
v  -9.4119 5.4511 0.6685
v  5.3091 7.3883 -3.3068
v  1.3902 7.7388 1.0456
v  -0.6523 8.0828 1.6552
v  -7.8986 9.7648 -14.0583
v  1.2365 9.6758 -13.7119
v  -0.2836 7.6532 1.9395
v  4.2795 3.7177 -2.2791
v  2.0348 12.6381 -9.3690
v  -0.1521 5.4973 1.6084
v  -1.0313 4.0282 1.1844
v  -7.8204 4.8202 1.3942
v  -12.8472 8.8056 -7.8963
v  -13.1342 8.6225 -6.6629
v  3.1129 7.5721 -0.0788
v  -6.5565 10.7164 -14.4243
v  -6.7740 11.6635 -13.6654
v  3.4393 3.8043 -1.3079
v  -5.4709 8.6120 1.3074
v  -10.8406 9.8763 -11.0525
v  -0.3123 10.5096 -14.2230
v  0.6247 4.5226 0.8366
v  2.7271 8.4892 -12.7797
v  -13.3815 7.5523 -5.4691
v  -8.5483 3.7701 -12.7047
v  -7.0033 3.7599 -13.6568
v  -6.4884 1.7800 -12.4180
v  -7.1287 2.2328 -0.9742
v  -9.0471 2.5634 -4.0943
v  -6.0596 0.9532 -6.2943
v  -6.0592 5.1695 -14.4513
v  -4.0093 5.6057 -14.6402
v  -5.8914 2.6039 -13.1491
v  0.1264 0.2762 -6.0951
v  1.0294 0.8232 -4.2846
v  -1.1439 0.2582 -3.4810
v  -3.5966 2.6360 -12.6987
v  0.2247 3.3428 -12.3046
v  -1.5935 1.9127 -11.3989
v  -3.9709 0.9035 -1.7919
v  3.1325 4.9750 -11.7507
v  2.2149 5.5581 -12.6990
v  4.1027 5.9646 -11.3550
v  -1.1736 9.2681 -14.5909
v  0.5738 6.7612 -13.8140
v  -8.4904 3.1290 -0.4780
v  -11.7489 4.6150 -3.3576
v  -11.1040 6.7560 -11.5850
v  -12.1797 7.5549 -9.9915
v  -11.0772 8.6262 -11.3147
v  -4.2174 8.9755 -15.2641
v  -3.4760 7.0040 -15.0269
v  -5.2866 7.5771 -15.1956
v  -6.6861 9.6617 -14.7049
v  -13.3500 7.4010 -7.0043
v  -12.8979 7.3411 -8.5925
v  -12.7680 5.8401 -8.5572
v  -10.7053 5.1480 -0.4673
v  -10.9969 4.6935 -1.3734
v  -9.4775 4.0002 -0.1974
v  -4.3845 0.6770 -11.2140
v  -3.5296 0.3247 -10.0888
v  -7.9207 1.6970 -10.1515
v  -5.4012 0.6998 -11.3812
v  -4.1708 0.0696 -8.5650
v  1.2931 0.8185 -6.1684
v  4.2723 2.8492 -8.0162
v  4.7477 3.0060 -5.8810
v  -12.5500 4.8488 -7.4133
v  -11.4420 4.3996 -9.8508
v  -10.6166 3.1379 -8.6244
v  -6.7917 1.4920 -11.7206
v  -10.1736 3.1712 -9.9251
v  -9.5380 3.4035 -11.3109
v  4.8269 4.5212 -9.4801
v  3.8522 3.6038 -10.1390
v  3.0117 2.6129 -9.4835
v  -0.3697 0.2840 -7.6148
v  -4.1372 2.5790 0.8709
v  -6.4181 2.8853 0.9615
v  -4.4188 1.6249 -0.1017
v  1.3052 3.2579 -0.4029
v  -0.8754 1.4003 -1.1633
v  3.2266 3.1054 -1.8772
v  -7.6487 7.9365 -14.4588
v  -10.1170 7.5590 -12.6186
v  -9.8405 6.0712 -12.7926
v  2.7931 6.9578 -12.6636
v  -8.4606 4.0713 0.7913
v  -5.4059 3.5607 1.5417
v  1.9279 2.7628 -10.8052
v  -0.6601 0.9290 -9.2984
v  -1.9652 -0.2187 -6.7848
v  -1.7931 7.2602 -14.6474
v  -2.4563 5.2573 -14.2926
v  -1.1295 3.9412 -13.2045
v  -11.9105 4.1179 -6.6351
v  -10.5797 3.0461 -6.5724
v  -12.0881 5.4770 -2.5533
v  -13.1587 6.1367 -7.1734
v  -12.6520 5.2275 -4.7075
v  -10.4295 4.4695 -11.3879
v  -9.4914 4.9844 -12.7037
v  -0.1888 0.9777 -2.3064
v  2.0248 1.6088 -3.4055
v  3.2127 2.0009 -4.7155
v  3.8526 2.9366 -3.0238
v  4.9689 3.5615 -3.8972
v  -12.1189 8.7391 -9.7115
v  -13.1479 6.5557 -4.3055
v  -13.4109 6.8207 -6.0405
v  -13.0755 5.7697 -5.7587
v  -8.7960 2.0565 -8.7500
v  -3.8240 0.0703 -9.4366
v  -1.8140 -0.0161 -7.8593
v  0.7861 4.5250 -12.9154
v  2.4264 3.8489 -11.5455
v  -0.3505 5.5333 -13.9069
v  -2.4259 -0.0155 -4.8539
v  5.0015 3.6331 -7.6622
v  5.3398 3.9578 -5.8781
v  -5.1260 6.4503 -14.9869
v  -8.7856 6.0073 -13.6079
v  -8.9350 8.0382 -13.6324
v  -2.3761 1.7852 -0.1841
v  -2.6163 0.9331 -1.3063
v  -2.5754 0.4951 -2.2959
v  -6.8617 6.7821 -14.7141
v  -7.5683 5.1665 -14.0452
v  -8.2576 4.4936 -13.3868
v  -5.2448 9.5459 -15.2040
v  -5.3117 1.2461 -12.1701
v  -0.5962 2.7012 0.0662
v  -10.8903 5.3382 -11.4541
v  -12.0718 6.0323 -10.0759
v  -10.4807 4.0877 -1.6881
v  -6.3462 2.1728 0.0276
v  -6.9815 4.0015 1.4592
v  -7.8567 3.2516 0.4830
v  -6.1483 8.6493 -15.0435
v  -1.4047 0.6818 -2.1452
v  4.6491 3.6227 -8.7834
v  -12.3714 6.3480 -2.4138
v  5.5482 4.7170 -6.0528
v  -3.0160 8.6266 -15.0957
# 277 vertices

vn 0.6098 0.0889 -0.7876
vn 0.4121 0.2163 -0.8851
vn 0.4671 0.4567 -0.7571
vn -0.0879 0.9837 -0.1570
vn -0.1806 0.9725 -0.1468
vn -0.0988 0.9921 -0.0772
vn 0.5966 0.0497 0.8010
vn 0.4466 -0.0522 0.8932
vn 0.4854 -0.2000 0.8511
vn -0.3513 0.7544 0.5545
vn -0.4614 0.6415 0.6129
vn -0.2485 0.6612 0.7078
vn 0.8182 0.5025 0.2792
vn 0.8290 0.5592 0.0103
vn 0.6557 0.7465 0.1127
vn 0.1792 0.9691 0.1697
vn 0.0729 0.9749 0.2105
vn 0.1824 0.9601 0.2118
vn -0.3343 0.9166 -0.2192
vn -0.5526 0.7816 -0.2894
vn -0.3824 0.9161 -0.1204
vn -0.8957 0.2912 0.3361
vn -0.8026 0.2550 0.5393
vn -0.6771 0.5345 0.5058
vn 0.9996 0.0144 -0.0237
vn 0.9790 0.1850 -0.0859
vn 0.9767 0.1884 0.1031
vn 0.3641 0.9054 0.2184
vn 0.3339 0.9274 0.1689
vn 0.2683 0.9392 0.2142
vn 0.4078 0.1237 0.9047
vn 0.0560 0.0239 0.9981
vn 0.1930 -0.0286 0.9808
vn 0.0906 0.1780 0.9799
vn 0.0032 0.5980 -0.8015
vn 0.1334 0.6637 -0.7360
vn 0.1440 0.5043 -0.8514
vn -0.6791 0.0563 -0.7319
vn -0.6418 0.2960 -0.7075
vn -0.5418 0.2185 -0.8116
vn -0.7285 0.6824 0.0602
vn -0.8956 0.4358 0.0894
vn -0.7712 0.5823 0.2572
vn -0.2850 0.5102 0.8115
vn -0.4004 0.3718 0.8376
vn -0.2042 0.2935 0.9339
vn -0.0203 0.9865 0.1624
vn -0.1290 0.9686 0.2126
vn -0.0697 0.9527 0.2958
vn -0.2335 0.9717 -0.0363
vn 0.9750 -0.1614 0.1529
vn -0.1216 0.8890 -0.4414
vn -0.1850 0.9511 -0.2473
vn -0.0575 0.9487 -0.3110
vn -0.4418 0.7003 -0.5607
vn -0.5699 0.6843 -0.4549
vn -0.3556 0.8643 -0.3557
vn 0.9769 0.0749 -0.2002
vn 0.9712 -0.2024 -0.1254
vn 0.9220 -0.1448 -0.3591
vn 0.6320 0.3730 -0.6793
vn 0.7931 0.1872 -0.5796
vn 0.0737 0.9968 0.0321
vn 0.0540 0.9891 -0.1370
vn -0.0262 0.9982 -0.0547
vn 0.7129 0.6971 -0.0762
vn 0.8436 0.4928 -0.2133
vn 0.6501 0.6776 -0.3438
vn 0.7942 -0.1636 -0.5852
vn 0.7408 -0.0634 -0.6687
vn 0.1054 0.7782 -0.6191
vn -0.0576 0.7678 -0.6381
vn 0.0530 0.8854 -0.4619
vn 0.4735 0.8615 -0.1835
vn 0.2280 0.9363 -0.2673
vn 0.2418 0.9699 -0.0283
vn 0.0262 0.8595 0.5105
vn 0.0616 0.5246 0.8491
vn 0.6949 -0.1108 0.7106
vn 0.7943 0.2195 0.5665
vn 0.5252 0.8251 0.2081
vn 0.6159 0.7353 0.2828
vn -0.1049 0.1113 -0.9882
vn -0.2103 0.2975 -0.9313
vn 0.0477 0.3193 -0.9465
vn -0.2540 0.8946 0.3676
vn -0.4687 0.8808 0.0677
vn -0.6537 0.7334 0.1865
vn 0.4841 0.8511 0.2032
vn 0.4962 0.8675 0.0338
vn 0.0735 -0.1609 0.9842
vn 0.1872 -0.2749 0.9431
vn -0.5918 0.5234 -0.6130
vn -0.5155 0.4581 -0.7242
vn -0.1638 0.5332 -0.8300
vn 0.9134 0.0291 0.4060
vn 0.8613 -0.2550 0.4395
vn -0.8143 0.3094 -0.4910
vn -0.7569 0.5249 -0.3894
vn -0.7072 0.4220 -0.5672
vn 0.1627 0.8288 -0.5354
vn 0.1010 0.9355 -0.3387
vn 0.2799 0.8169 -0.5043
vn 0.2768 0.5247 -0.8051
vn -0.4344 0.8681 0.2403
vn -0.5871 0.7102 0.3886
vn -0.4293 0.8017 0.4158
vn -0.5798 0.8091 -0.0960
vn 0.8993 0.1031 -0.4251
vn 0.6615 0.5178 -0.5425
vn 0.8072 0.4050 -0.4294
vn 0.9197 0.3045 -0.2480
vn 0.9242 0.3750 -0.0726
vn 0.4847 0.6311 -0.6056
vn 0.2713 0.6845 -0.6766
vn 0.0753 -0.0398 -0.9964
vn 0.2368 0.1789 -0.9549
vn 0.2012 -0.1800 -0.9629
vn -0.1207 0.0686 0.9903
vn -0.8074 0.5610 -0.1828
vn 0.0715 0.9887 0.1321
vn -0.0338 0.9986 0.0406
vn -0.1103 0.9900 0.0883
vn -0.0270 0.9814 -0.1898
vn -0.4910 0.4809 0.7264
vn -0.7006 0.2301 0.6755
vn 0.2969 0.2346 0.9256
vn 0.6460 0.4570 0.6114
vn 0.4997 0.4019 0.7674
vn -0.2651 0.8331 -0.4854
vn -0.3082 0.6323 -0.7107
vn -0.2509 0.9582 0.1376
vn -0.5441 0.1519 0.8252
vn 0.8991 0.4327 0.0658
vn 0.4025 0.8124 0.4218
vn 0.2293 0.9148 0.3325
vn -0.5347 -0.0146 -0.8449
vn 0.4583 -0.1825 -0.8699
vn 0.3054 0.6663 0.6802
vn 0.6566 -0.4076 0.6346
vn 0.3995 0.8209 -0.4080
vn 0.3057 -0.0406 0.9513
vn 0.2702 -0.2033 0.9411
vn -0.3827 0.1144 0.9168
vn -0.9084 0.2277 -0.3506
vn -0.9418 0.3038 -0.1439
vn 0.4944 0.7885 0.3659
vn -0.3670 0.1161 -0.9230
vn -0.3941 0.3859 -0.8341
vn 0.5359 -0.3152 0.7833
vn -0.1680 0.8460 0.5060
vn -0.7544 0.1970 -0.6261
vn 0.3399 -0.0755 -0.9374
vn 0.3663 -0.1915 0.9106
vn 0.6011 -0.2359 -0.7635
vn -0.9813 0.1738 0.0824
vn -0.5351 -0.7185 -0.4444
vn -0.2807 -0.7153 -0.6400
vn -0.3334 -0.8500 -0.4079
vn -0.4110 -0.7723 0.4844
vn -0.4769 -0.7709 0.4221
vn -0.3660 -0.8491 0.3808
vn -0.1208 -0.6367 -0.7616
vn 0.0743 -0.6579 -0.7494
vn -0.0310 -0.7798 -0.6253
vn 0.3272 -0.8973 0.2963
vn 0.4048 -0.7943 0.4530
vn 0.1799 -0.8402 0.5115
vn 0.2002 -0.8212 -0.5344
vn 0.2940 -0.8334 -0.4679
vn 0.2606 -0.8979 -0.3548
vn -0.2436 -0.8127 0.5293
vn 0.5845 -0.5957 -0.5509
vn 0.4938 -0.5512 -0.6726
vn 0.7469 -0.3948 -0.5351
vn 0.3043 -0.2947 -0.9058
vn 0.3907 -0.4183 -0.8200
vn -0.5093 -0.6567 0.5561
vn -0.6824 -0.5867 0.4360
vn -0.7747 -0.2363 -0.5865
vn -0.8583 -0.0942 -0.5044
vn -0.7781 -0.0115 -0.6281
vn 0.0504 -0.2929 -0.9548
vn 0.1408 -0.4856 -0.8628
vn -0.1009 -0.4128 -0.9052
vn -0.3799 -0.0922 -0.9204
vn -0.9848 -0.0027 -0.1736
vn -0.9328 -0.0710 -0.3533
vn -0.9035 -0.3722 -0.2126
vn -0.6987 -0.1369 0.7022
vn -0.7118 -0.4238 0.5602
vn -0.5874 -0.4430 0.6773
vn 0.1687 -0.9625 -0.2126
vn 0.1985 -0.9752 -0.0979
vn -0.4759 -0.8701 0.1286
vn -0.1994 -0.9789 -0.0450
vn -0.2556 -0.9177 0.3040
vn 0.4667 -0.8572 0.2177
vn 0.6215 -0.7826 0.0360
vn 0.7137 -0.6639 0.2236
vn -0.8185 -0.5703 0.0697
vn -0.7525 -0.6334 -0.1803
vn -0.6172 -0.7781 0.1166
vn -0.4689 -0.8753 -0.1184
vn -0.6122 -0.7885 -0.0595
vn -0.5977 -0.7606 -0.2535
vn 0.8526 -0.4314 -0.2949
vn 0.6301 -0.7093 -0.3159
vn 0.4717 -0.8759 -0.1013
vn 0.3322 -0.9413 0.0600
vn 0.0358 -0.3761 0.9259
vn -0.2393 -0.3915 0.8885
vn -0.0885 -0.6261 0.7747
vn 0.3944 -0.3697 0.8413
vn 0.2880 -0.5492 0.7845
vn 0.4892 -0.5118 0.7062
vn -0.4606 -0.2704 -0.8454
vn -0.7015 -0.1711 -0.6918
vn -0.6615 -0.3777 -0.6478
vn 0.5747 -0.3623 -0.7338
vn -0.4941 -0.1982 0.8465
vn -0.0690 -0.1869 0.9800
vn 0.3904 -0.8758 -0.2839
vn 0.3218 -0.9373 -0.1340
vn 0.0548 -0.9518 0.3019
vn 0.2729 -0.4218 -0.8647
vn 0.1667 -0.6733 -0.7204
vn 0.2131 -0.7877 -0.5781
vn -0.6949 -0.6705 0.2601
vn -0.5457 -0.7703 0.3299
vn -0.8180 -0.3093 0.4849
vn -0.9525 -0.2996 -0.0538
vn -0.8170 -0.4688 0.3358
vn -0.6734 -0.6419 -0.3667
vn -0.6166 -0.5640 -0.5494
vn 0.3520 -0.6706 0.6530
vn 0.4703 -0.6847 0.5568
vn 0.5478 -0.7502 0.3704
vn 0.5743 -0.6153 0.5400
vn 0.7767 -0.5092 0.3708
vn -0.8544 0.1016 -0.5096
vn -0.9535 -0.0796 0.2909
vn -0.9911 -0.1241 0.0474
vn -0.9090 -0.3757 0.1804
vn -0.4599 -0.8495 0.2586
vn -0.0356 -0.9917 0.1237
vn 0.1877 -0.9788 0.0814
vn 0.3670 -0.7056 -0.6062
vn 0.4727 -0.7381 -0.4815
vn 0.3006 -0.5962 -0.7445
vn -0.1140 -0.8931 0.4352
vn 0.8575 -0.5145 -0.0082
vn 0.9153 -0.3868 0.1126
vn -0.0553 -0.5550 -0.8300
vn -0.5432 -0.4233 -0.7251
vn -0.6058 -0.1892 -0.7728
vn 0.1654 -0.4850 0.8587
vn 0.0547 -0.6743 0.7364
vn -0.0538 -0.8140 0.5784
vn -0.3207 -0.4438 -0.8368
vn -0.3739 -0.5545 -0.7435
vn -0.4932 -0.6228 -0.6073
vn -0.1564 -0.1533 -0.9757
vn 0.0210 -0.8954 -0.4448
vn 0.3072 -0.3711 0.8763
vn -0.7430 -0.4777 -0.4687
vn -0.8460 -0.3466 -0.4052
vn -0.5624 -0.6860 0.4617
vn -0.3157 -0.6778 0.6640
vn -0.2942 -0.0942 0.9511
vn -0.4460 -0.4719 0.7605
vn -0.2933 -0.2655 -0.9184
vn 0.1867 -0.7199 0.6685
vn 0.7740 -0.6164 -0.1445
vn -0.8726 -0.0373 0.4871
vn 0.9860 -0.1661 0.0109
vn 0.1980 -0.3408 -0.9191
# 277 vertex normals

vt 0.6840 0.7002 0.0000
vt 0.7110 0.6994 0.0000
vt 0.6977 0.7162 0.0000
vt 0.1289 0.8096 0.0000
vt 0.1676 0.8083 0.0000
vt 0.1537 0.8343 0.0000
vt 0.3024 0.6329 0.0000
vt 0.3259 0.6494 0.0000
vt 0.2972 0.6579 0.0000
vt 0.4747 0.6468 0.0000
vt 0.4858 0.6623 0.0000
vt 0.4262 0.6512 0.0000
vt 0.5483 0.7930 0.0000
vt 0.6159 0.7640 0.0000
vt 0.6209 0.7764 0.0000
vt 0.3837 0.5134 0.0000
vt 0.4190 0.5829 0.0000
vt 0.3900 0.5893 0.0000
vt 0.1850 0.7859 0.0000
vt 0.2135 0.7802 0.0000
vt 0.2118 0.8095 0.0000
vt 0.2974 0.8239 0.0000
vt 0.3077 0.8462 0.0000
vt 0.2948 0.8561 0.0000
vt 0.5589 0.7340 0.0000
vt 0.5999 0.7344 0.0000
vt 0.5520 0.7671 0.0000
vt 0.3259 0.5796 0.0000
vt 0.3502 0.5000 0.0000
vt 0.3650 0.5854 0.0000
vt 0.3402 0.6410 0.0000
vt 0.3865 0.6840 0.0000
vt 0.3646 0.6702 0.0000
vt 0.3765 0.6551 0.0000
vt 0.7838 0.7158 0.0000
vt 0.7506 0.7197 0.0000
vt 0.7522 0.7052 0.0000
vt 0.1985 0.7153 0.0000
vt 0.1873 0.7293 0.0000
vt 0.1663 0.7126 0.0000
vt 0.2508 0.8107 0.0000
vt 0.2734 0.7967 0.0000
vt 0.2779 0.8347 0.0000
vt 0.4296 0.6680 0.0000
vt 0.4529 0.6874 0.0000
vt 0.4203 0.6833 0.0000
vt 0.4500 0.5709 0.0000
vt 0.4778 0.6095 0.0000
vt 0.4349 0.6304 0.0000
vt 0.1979 0.8364 0.0000
vt 0.5345 0.7412 0.0000
vt 0.1236 0.7539 0.0000
vt 0.1539 0.7835 0.0000
vt 0.1089 0.7748 0.0000
vt 0.1655 0.7467 0.0000
vt 0.1972 0.7628 0.0000
vt 0.1745 0.7696 0.0000
vt 0.6087 0.7182 0.0000
vt 0.5736 0.6974 0.0000
vt 0.6138 0.6912 0.0000
vt 0.6815 0.7175 0.0000
vt 0.6595 0.7112 0.0000
vt 0.7022 0.8181 0.0000
vt 0.7070 0.7912 0.0000
vt 0.7344 0.8325 0.0000
vt 0.6417 0.7633 0.0000
vt 0.6404 0.7471 0.0000
vt 0.6613 0.7510 0.0000
vt 0.6403 0.6866 0.0000
vt 0.6611 0.6966 0.0000
vt 0.7534 0.7343 0.0000
vt 0.7896 0.7339 0.0000
vt 0.7574 0.7552 0.0000
vt 0.6633 0.7653 0.0000
vt 0.6874 0.7722 0.0000
vt 0.6754 0.7885 0.0000
vt 0.3871 0.6384 0.0000
vt 0.3804 0.6455 0.0000
vt 0.2744 0.6385 0.0000
vt 0.2802 0.6167 0.0000
vt 0.5815 0.7947 0.0000
vt 0.5508 0.8031 0.0000
vt 0.1241 0.6878 0.0000
vt 0.1337 0.7036 0.0000
vt 0.1042 0.6936 0.0000
vt 0.4769 0.6302 0.0000
vt 0.2408 0.8371 0.0000
vt 0.2585 0.8350 0.0000
vt 0.6206 0.7882 0.0000
vt 0.6466 0.7956 0.0000
vt 0.5758 0.8277 0.0000
vt 0.6473 0.7761 0.0000
vt 0.3844 0.7000 0.0000
vt 0.3638 0.7024 0.0000
vt 0.1841 0.7442 0.0000
vt 0.1641 0.7283 0.0000
vt 0.1293 0.7186 0.0000
vt 0.2571 0.6216 0.0000
vt 0.2446 0.6395 0.0000
vt 0.2308 0.7562 0.0000
vt 0.2290 0.7722 0.0000
vt 0.2074 0.7488 0.0000
vt 0.7212 0.7450 0.0000
vt 0.7140 0.7707 0.0000
vt 0.6960 0.7480 0.0000
vt 0.7212 0.7136 0.0000
vt 0.5153 0.6228 0.0000
vt 0.5168 0.6506 0.0000
vt 0.4983 0.6398 0.0000
vt 0.2374 0.8031 0.0000
vt 0.6396 0.7114 0.0000
vt 0.6718 0.7327 0.0000
vt 0.6554 0.7323 0.0000
vt 0.6327 0.7344 0.0000
vt 0.6128 0.7509 0.0000
vt 0.6860 0.7327 0.0000
vt 0.7146 0.7267 0.0000
vt 0.7710 0.6734 0.0000
vt 0.7389 0.6923 0.0000
vt 0.7534 0.6694 0.0000
vt 0.4132 0.6936 0.0000
vt 0.7720 0.6917 0.0000
vt 0.2462 0.7870 0.0000
vt 0.4211 0.5380 0.0000
vt 0.4498 0.5418 0.0000
vt 0.4817 0.5739 0.0000
vt 0.7374 0.7899 0.0000
vt 0.4772 0.6793 0.0000
vt 0.5169 0.6695 0.0000
vt 0.4992 0.6910 0.0000
vt 0.3564 0.6442 0.0000
vt 0.3068 0.6172 0.0000
vt 0.3350 0.6307 0.0000
vt 0.1435 0.7499 0.0000
vt 0.1415 0.7295 0.0000
vt 0.5029 0.6030 0.0000
vt 0.4689 0.6968 0.0000
vt 0.5587 0.7743 0.0000
vt 0.5287 0.7714 0.0000
vt 0.1894 0.8606 0.0000
vt 0.1451 0.8606 0.0000
vt 0.2247 0.8594 0.0000
vt 0.3402 0.6232 0.0000
vt 0.3666 0.6304 0.0000
vt 0.1732 0.6980 0.0000
vt 0.6967 0.6855 0.0000
vt 0.3608 0.6355 0.0000
vt 0.2578 0.6576 0.0000
vt 0.6798 0.7550 0.0000
vt 0.2761 0.5989 0.0000
vt 0.3477 0.6598 0.0000
vt 0.3491 0.6834 0.0000
vt 0.4435 0.6999 0.0000
vt 0.2538 0.7681 0.0000
vt 0.2632 0.7811 0.0000
vt 0.7717 0.7696 0.0000
vt 0.5428 0.8325 0.0000
vt 0.3132 0.6125 0.0000
vt 0.2756 0.8579 0.0000
vt 0.2479 0.8555 0.0000
vt 0.1496 0.6992 0.0000
vt 0.1480 0.7164 0.0000
vt 0.3706 0.4785 0.0000
vt 0.2779 0.6617 0.0000
vt 0.4269 0.6421 0.0000
vt 0.4027 0.5021 0.0000
vt 0.2140 0.7378 0.0000
vt 0.1157 0.7389 0.0000
vt 0.7211 0.6886 0.0000
vt 0.3300 0.6682 0.0000
vt 0.5181 0.7530 0.0000
vt 0.6683 0.6823 0.0000
vt 0.0897 0.7676 0.0000
vt 0.5217 0.6851 0.0000
vt 0.2822 0.7897 0.0000
vt 0.1107 0.7198 0.0000
vt 0.1156 0.8457 0.0000
vt 0.2867 0.5981 0.0000
vt 0.4356 0.5128 0.0000
vt 0.1119 0.6760 0.0000
vt 0.0906 0.8111 0.0000
vt 0.4785 0.4266 0.0000
vt 0.4536 0.4184 0.0000
vt 0.4667 0.3902 0.0000
vt 0.5944 0.2909 0.0000
vt 0.5798 0.3454 0.0000
vt 0.5232 0.3313 0.0000
vt 0.4286 0.4279 0.0000
vt 0.4017 0.4127 0.0000
vt 0.4520 0.3962 0.0000
vt 0.4627 0.2705 0.0000
vt 0.4685 0.2422 0.0000
vt 0.4996 0.2552 0.0000
vt 0.4322 0.3722 0.0000
vt 0.3925 0.3364 0.0000
vt 0.4268 0.3398 0.0000
vt 0.5474 0.2645 0.0000
vt 0.3525 0.3062 0.0000
vt 0.3477 0.3286 0.0000
vt 0.3333 0.2936 0.0000
vt 0.7280 0.6680 0.0000
vt 0.6879 0.6444 0.0000
vt 0.6185 0.3025 0.0000
vt 0.6246 0.3760 0.0000
vt 0.2449 0.7063 0.0000
vt 0.2523 0.7350 0.0000
vt 0.2263 0.7257 0.0000
vt 0.3677 0.4528 0.0000
vt 0.3805 0.4226 0.0000
vt 0.3947 0.4485 0.0000
vt 0.1579 0.6858 0.0000
vt 0.2759 0.7706 0.0000
vt 0.2662 0.7512 0.0000
vt 0.2843 0.7406 0.0000
vt 0.4917 0.7069 0.0000
vt 0.5023 0.7185 0.0000
vt 0.4712 0.7211 0.0000
vt 0.4611 0.3580 0.0000
vt 0.4633 0.3404 0.0000
vt 0.5012 0.3856 0.0000
vt 0.4686 0.3678 0.0000
vt 0.4828 0.3320 0.0000
vt 0.4486 0.2600 0.0000
vt 0.3909 0.2505 0.0000
vt 0.4039 0.2194 0.0000
vt 0.5837 0.4288 0.0000
vt 0.5398 0.4381 0.0000
vt 0.5439 0.4081 0.0000
vt 0.4761 0.3860 0.0000
vt 0.5249 0.4151 0.0000
vt 0.5035 0.4220 0.0000
vt 0.3570 0.2611 0.0000
vt 0.3719 0.2787 0.0000
vt 0.3931 0.2789 0.0000
vt 0.4543 0.2899 0.0000
vt 0.3829 0.7205 0.0000
vt 0.4185 0.7260 0.0000
vt 0.3798 0.7423 0.0000
vt 0.3071 0.6826 0.0000
vt 0.3178 0.7275 0.0000
vt 0.2705 0.6743 0.0000
vt 0.1844 0.6729 0.0000
vt 0.2221 0.6989 0.0000
vt 0.2347 0.6797 0.0000
vt 0.6563 0.6643 0.0000
vt 0.4521 0.7136 0.0000
vt 0.4060 0.7091 0.0000
vt 0.3921 0.3033 0.0000
vt 0.4402 0.3093 0.0000
vt 0.4778 0.2959 0.0000
vt 0.7260 0.6368 0.0000
vt 0.3904 0.3919 0.0000
vt 0.3948 0.3609 0.0000
vt 0.5834 0.4087 0.0000
vt 0.5673 0.3879 0.0000
vt 0.5300 0.7128 0.0000
vt 0.2900 0.7605 0.0000
vt 0.3072 0.7465 0.0000
vt 0.6443 0.3758 0.0000
vt 0.6206 0.4035 0.0000
vt 0.5112 0.4413 0.0000
vt 0.4861 0.4485 0.0000
vt 0.5005 0.2309 0.0000
vt 0.4639 0.2203 0.0000
vt 0.4614 0.1816 0.0000
vt 0.4368 0.2231 0.0000
vt 0.4424 0.1919 0.0000
vt 0.4173 0.1888 0.0000
vt 0.2409 0.7466 0.0000
vt 0.3007 0.7999 0.0000
vt 0.2881 0.7789 0.0000
vt 0.3036 0.7763 0.0000
vt 0.5242 0.3844 0.0000
vt 0.4720 0.3367 0.0000
vt 0.4669 0.3048 0.0000
vt 0.3722 0.3416 0.0000
vt 0.3726 0.3084 0.0000
vt 0.3670 0.3690 0.0000
vt 0.4997 0.2813 0.0000
vt 0.5840 0.6730 0.0000
vt 0.3792 0.2373 0.0000
vt 0.3896 0.2086 0.0000
vt 0.4046 0.4339 0.0000
vt 0.2204 0.6646 0.0000
vt 0.2009 0.6884 0.0000
vt 0.5209 0.2219 0.0000
vt 0.5505 0.2263 0.0000
vt 0.5381 0.2450 0.0000
vt 0.5264 0.2560 0.0000
vt 0.1852 0.6503 0.0000
vt 0.2148 0.6403 0.0000
vt 0.4663 0.4363 0.0000
vt 0.4200 0.1667 0.0000
vt 0.4419 0.1729 0.0000
vt 0.5146 0.7318 0.0000
vt 0.5400 0.7110 0.0000
vt 0.1390 0.6729 0.0000
vt 0.1285 0.6575 0.0000
vt 0.1551 0.6461 0.0000
vt 0.4600 0.3755 0.0000
vt 0.3307 0.7017 0.0000
vt 0.3486 0.7285 0.0000
vt 0.2622 0.6915 0.0000
vt 0.2692 0.7213 0.0000
vt 0.6371 0.3133 0.0000
vt 0.6289 0.3415 0.0000
vt 0.5731 0.2502 0.0000
vt 0.6134 0.2617 0.0000
vt 0.5971 0.2712 0.0000
vt 0.4295 0.7083 0.0000
vt 0.6245 0.2850 0.0000
vt 0.1581 0.6680 0.0000
vt 0.4224 0.4547 0.0000
vt 0.2918 0.7051 0.0000
vt 0.5156 0.2422 0.0000
vt 0.3744 0.2553 0.0000
vt 0.5540 0.6852 0.0000
vt 0.5345 0.6989 0.0000
vt 0.6237 0.6668 0.0000
vt 0.3140 0.8280 0.0000
vt 0.3195 0.7874 0.0000
vt 0.3277 0.8226 0.0000
vt 0.6520 0.6412 0.0000
vt 0.5512 0.7168 0.0000
vt 0.7722 0.6491 0.0000
vt 0.7521 0.6498 0.0000
vt 0.7499 0.6230 0.0000
vt 0.4485 0.4409 0.0000
vt 0.6923 0.6209 0.0000
vt 0.6420 0.3465 0.0000
vt 0.2340 0.6423 0.0000
vt 0.2452 0.6645 0.0000
vt 0.4428 0.7262 0.0000
vt 0.5150 0.4561 0.0000
# 334 texture coords

o Scatter_Smooth_02_LOD0
g Scatter_Smooth_02_LOD0
s 1
f 1/1/1 2/2/2 3/3/3 
f 4/4/4 5/5/5 6/6/6 
f 7/7/7 8/8/8 9/9/9 
f 10/10/10 11/11/11 12/12/12 
f 13/13/13 14/14/14 15/15/15 
f 16/16/16 17/17/17 18/18/18 
f 19/19/19 20/20/20 21/21/21 
f 22/22/22 23/23/23 24/24/24 
f 25/25/25 26/26/26 27/27/27 
f 28/28/28 29/29/29 30/30/30 
f 7/7/7 31/31/31 8/8/8 
f 32/32/32 33/33/33 34/34/34 
f 35/35/35 36/36/36 37/37/37 
f 38/38/38 39/39/39 40/40/40 
f 41/41/41 42/42/42 43/43/43 
f 44/44/44 45/45/45 46/46/46 
f 47/47/47 48/48/48 49/49/49 
f 5/5/5 50/50/50 6/6/6 
f 25/25/25 27/27/27 51/51/51 
f 52/52/52 53/53/53 54/54/54 
f 55/55/55 56/56/56 57/57/57 
f 58/58/58 59/59/59 60/60/60 
f 1/1/1 61/61/61 62/62/62 
f 63/63/63 64/64/64 65/65/65 
f 66/66/66 67/67/67 68/68/68 
f 69/69/69 70/70/70 62/62/62 
f 71/71/71 72/72/72 73/73/73 
f 74/74/74 75/75/75 76/76/76 
f 17/17/17 49/49/49 77/77/77 
f 44/44/44 46/46/46 78/78/78 
f 79/79/79 80/80/80 7/7/7 
f 13/13/13 81/81/81 82/82/82 
f 83/83/83 84/84/84 85/85/85 
f 48/48/48 86/86/86 49/49/49 
f 87/87/87 41/41/41 88/88/88 
f 89/89/89 29/90/29 28/91/28 
f 90/92/90 74/74/74 76/76/76 
f 33/33/33 91/93/91 92/94/92 
f 55/55/55 93/95/93 56/56/56 
f 94/96/94 93/95/93 55/55/55 
f 84/84/84 95/97/95 85/85/85 
f 96/98/96 79/79/79 97/99/97 
f 98/100/98 99/101/99 100/102/100 
f 101/103/101 102/104/102 103/105/103 
f 3/3/3 2/2/2 104/106/104 
f 105/107/105 106/108/106 107/109/107 
f 107/109/107 106/108/106 11/11/11 
f 22/22/22 43/43/43 42/42/42 
f 21/21/21 20/20/20 108/110/108 
f 99/101/99 56/56/56 100/102/100 
f 109/111/109 58/58/58 60/60/60 
f 110/112/110 111/113/111 62/62/62 
f 109/111/109 112/114/112 58/58/58 
f 27/27/27 26/26/26 113/115/113 
f 103/105/103 114/116/114 115/117/115 
f 111/113/111 110/112/110 68/68/68 
f 116/118/116 117/119/117 118/120/118 
f 32/32/32 34/34/34 119/121/119 
f 116/118/116 85/122/85 117/119/117 
f 37/37/37 104/106/104 117/119/117 
f 20/20/20 120/123/120 108/110/108 
f 120/123/120 42/42/42 41/41/41 
f 121/124/121 122/125/122 47/47/47 
f 122/125/122 123/126/123 47/47/47 
f 12/12/12 11/11/11 44/44/44 
f 78/78/78 12/12/12 44/44/44 
f 64/64/64 124/127/124 65/65/65 
f 101/103/101 73/73/73 102/104/102 
f 125/128/125 24/129/24 126/130/126 
f 45/45/45 44/44/44 125/128/125 
f 30/30/30 16/16/16 18/18/18 
f 33/33/33 127/131/127 34/34/34 
f 80/80/80 128/132/128 7/7/7 
f 7/7/7 128/132/128 129/133/129 
f 76/76/76 64/64/64 63/63/63 
f 29/29/29 16/16/16 30/30/30 
f 130/134/130 55/55/55 57/57/57 
f 94/96/94 55/55/55 131/135/131 
f 132/136/132 105/107/105 86/86/86 
f 21/21/21 108/110/108 87/87/87 
f 26/26/26 112/114/112 113/115/113 
f 14/14/14 67/67/67 66/66/66 
f 125/128/125 126/130/126 133/137/133 
f 134/138/134 14/14/14 13/13/13 
f 27/27/27 96/139/96 51/51/51 
f 50/50/50 123/140/123 122/141/122 
f 132/142/132 50/50/50 87/87/87 
f 28/28/28 30/30/30 135/143/135 
f 30/30/30 18/18/18 136/144/136 
f 38/38/38 40/40/40 137/145/137 
f 138/146/138 2/2/2 1/1/1 
f 139/147/139 77/77/77 78/78/78 
f 12/12/12 78/78/78 77/77/77 
f 140/148/140 97/99/97 79/79/79 
f 68/68/68 114/116/114 141/149/141 
f 74/74/74 141/149/141 75/75/75 
f 35/35/35 72/72/72 36/36/36 
f 131/135/131 55/55/55 130/134/130 
f 128/132/128 80/80/80 13/150/13 
f 96/139/96 27/27/27 13/13/13 
f 60/60/60 69/69/69 109/111/109 
f 129/133/129 128/132/128 135/143/135 
f 127/131/127 139/147/139 78/78/78 
f 142/151/142 127/131/127 33/33/33 
f 33/33/33 92/94/92 143/152/143 
f 53/53/53 130/134/130 57/57/57 
f 5/5/5 19/19/19 50/50/50 
f 46/46/46 45/45/45 144/153/144 
f 104/106/104 37/37/37 36/36/36 
f 103/105/103 115/117/115 101/103/101 
f 145/154/145 99/101/99 98/100/98 
f 120/123/120 146/155/146 42/42/42 
f 54/54/54 53/53/53 4/4/4 
f 102/104/102 54/156/54 124/127/124 
f 147/157/147 81/81/81 28/91/28 
f 135/143/135 147/158/147 28/28/28 
f 59/59/59 58/58/58 25/25/25 
f 115/117/115 71/71/71 101/103/101 
f 101/103/101 71/71/71 73/73/73 
f 88/88/88 106/159/106 105/160/105 
f 43/43/43 22/22/22 24/24/24 
f 40/40/40 148/161/148 137/145/137 
f 95/97/95 84/84/84 149/162/149 
f 90/92/90 76/76/76 29/90/29 
f 76/163/76 16/16/16 29/29/29 
f 50/50/50 21/21/21 87/87/87 
f 19/19/19 21/21/21 50/50/50 
f 79/79/79 150/164/150 140/148/140 
f 79/79/79 7/7/7 9/9/9 
f 111/113/111 112/114/112 109/111/109 
f 67/67/67 111/113/111 68/68/68 
f 49/49/49 86/86/86 151/165/151 
f 151/165/151 77/77/77 49/49/49 
f 145/154/145 120/123/120 99/101/99 
f 99/101/99 120/123/120 20/20/20 
f 17/17/17 47/47/47 49/49/49 
f 121/124/121 47/47/47 17/17/17 
f 62/62/62 111/113/111 109/111/109 
f 69/69/69 62/62/62 109/111/109 
f 14/14/14 66/66/66 15/15/15 
f 89/89/89 90/92/90 29/90/29 
f 17/17/17 16/16/16 121/124/121 
f 16/16/16 76/163/76 63/166/63 
f 152/167/152 39/39/39 38/38/38 
f 100/102/100 56/56/56 93/95/93 
f 131/135/131 72/168/72 95/97/95 
f 149/162/149 131/135/131 95/97/95 
f 57/57/57 56/56/56 20/20/20 
f 56/56/56 99/101/99 20/20/20 
f 153/169/153 2/2/2 138/146/138 
f 104/106/104 2/2/2 117/119/117 
f 127/131/127 129/133/129 139/147/139 
f 7/7/7 129/133/129 31/31/31 
f 9/9/9 8/8/8 154/170/154 
f 8/8/8 31/31/31 142/151/142 
f 75/75/75 64/64/64 76/76/76 
f 102/104/102 124/127/124 64/64/64 
f 80/80/80 96/98/96 13/150/13 
f 79/79/79 96/98/96 80/80/80 
f 86/86/86 105/107/105 107/109/107 
f 86/86/86 10/10/10 151/165/151 
f 96/139/96 97/171/97 51/51/51 
f 70/70/70 1/1/1 62/62/62 
f 155/172/155 138/146/138 1/1/1 
f 72/168/72 52/52/52 73/173/73 
f 130/134/130 72/168/72 131/135/131 
f 129/133/129 135/143/135 139/147/139 
f 135/143/135 30/30/30 136/144/136 
f 66/66/66 68/68/68 74/74/74 
f 74/74/74 68/68/68 141/149/141 
f 114/116/114 3/3/3 115/117/115 
f 62/62/62 61/61/61 110/112/110 
f 125/128/125 11/11/11 24/129/24 
f 125/128/125 44/44/44 11/11/11 
f 103/105/103 102/104/102 75/75/75 
f 75/75/75 102/104/102 64/64/64 
f 35/35/35 37/37/37 85/122/85 
f 85/122/85 37/37/37 117/119/117 
f 73/73/73 54/156/54 102/104/102 
f 73/173/73 52/52/52 54/54/54 
f 24/129/24 11/11/11 106/108/106 
f 43/43/43 24/24/24 106/159/106 
f 53/53/53 19/19/19 5/5/5 
f 53/53/53 5/5/5 4/4/4 
f 50/50/50 132/142/132 123/140/123 
f 47/47/47 123/126/123 48/48/48 
f 18/18/18 17/17/17 77/77/77 
f 136/144/136 18/18/18 77/77/77 
f 81/81/81 13/13/13 15/15/15 
f 81/81/81 89/89/89 28/91/28 
f 108/110/108 41/41/41 87/87/87 
f 108/110/108 120/123/120 41/41/41 
f 74/74/74 90/92/90 66/66/66 
f 15/15/15 66/66/66 90/92/90 
f 113/115/113 67/67/67 14/14/14 
f 134/138/134 113/115/113 14/14/14 
f 84/84/84 83/83/83 148/161/148 
f 149/162/149 84/84/84 148/161/148 
f 119/121/119 34/34/34 46/46/46 
f 46/46/46 144/153/144 119/121/119 
f 45/45/45 133/137/133 144/153/144 
f 125/128/125 133/137/133 45/45/45 
f 39/39/39 93/95/93 94/96/94 
f 39/39/39 100/102/100 93/95/93 
f 127/131/127 78/78/78 34/34/34 
f 78/78/78 46/46/46 34/34/34 
f 123/126/123 132/136/132 48/48/48 
f 132/136/132 86/86/86 48/48/48 
f 126/130/126 24/129/24 23/174/23 
f 26/26/26 58/58/58 112/114/112 
f 58/58/58 26/26/26 25/25/25 
f 63/166/63 122/125/122 121/124/121 
f 16/16/16 63/166/63 121/124/121 
f 104/106/104 115/117/115 3/3/3 
f 104/106/104 36/36/36 115/117/115 
f 155/172/155 1/1/1 70/70/70 
f 155/172/155 70/70/70 69/69/69 
f 39/39/39 152/167/152 100/102/100 
f 98/100/98 100/102/100 152/167/152 
f 57/57/57 20/20/20 19/19/19 
f 53/53/53 57/57/57 19/19/19 
f 130/134/130 52/52/52 72/168/72 
f 52/52/52 130/134/130 53/53/53 
f 41/41/41 43/43/43 88/88/88 
f 43/43/43 106/159/106 88/88/88 
f 110/112/110 61/61/61 114/116/114 
f 68/68/68 110/112/110 114/116/114 
f 40/40/40 149/162/149 148/161/148 
f 39/39/39 94/96/94 40/40/40 
f 114/116/114 61/61/61 3/3/3 
f 1/1/1 3/3/3 61/61/61 
f 117/119/117 2/2/2 153/169/153 
f 117/119/117 153/169/153 118/120/118 
f 146/155/146 120/123/120 145/154/145 
f 113/115/113 112/114/112 67/67/67 
f 112/114/112 111/113/111 67/67/67 
f 22/22/22 42/42/42 156/175/156 
f 156/175/156 42/42/42 146/155/146 
f 33/33/33 32/32/32 91/93/91 
f 87/87/87 105/160/105 132/142/132 
f 87/87/87 88/88/88 105/160/105 
f 35/176/35 95/97/95 72/168/72 
f 95/97/95 35/176/35 85/85/85 
f 86/86/86 107/109/107 10/10/10 
f 107/109/107 11/11/11 10/10/10 
f 12/12/12 77/77/77 151/165/151 
f 12/12/12 151/165/151 10/10/10 
f 65/177/65 4/4/4 6/6/6 
f 122/141/122 6/6/6 50/50/50 
f 128/132/128 13/150/13 82/178/82 
f 82/82/82 81/81/81 147/157/147 
f 65/177/65 6/6/6 122/141/122 
f 63/166/63 65/179/65 122/125/122 
f 128/132/128 147/158/147 135/143/135 
f 128/132/128 82/178/82 147/158/147 
f 40/40/40 94/96/94 149/162/149 
f 149/162/149 94/96/94 131/135/131 
f 77/77/77 139/147/139 136/144/136 
f 139/147/139 135/143/135 136/144/136 
f 15/15/15 90/92/90 89/89/89 
f 81/81/81 15/15/15 89/89/89 
f 8/8/8 142/151/142 154/170/154 
f 33/33/33 143/152/143 142/151/142 
f 114/116/114 103/105/103 141/149/141 
f 103/105/103 75/75/75 141/149/141 
f 154/170/154 142/151/142 143/152/143 
f 83/83/83 85/85/85 116/180/116 
f 129/133/129 127/131/127 31/31/31 
f 31/31/31 127/131/127 142/151/142 
f 27/27/27 134/138/134 13/13/13 
f 134/138/134 27/27/27 113/115/113 
f 36/36/36 71/71/71 115/117/115 
f 36/36/36 72/72/72 71/71/71 
f 150/164/150 79/79/79 9/9/9 
f 124/181/124 54/54/54 4/4/4 
f 124/181/124 4/4/4 65/177/65 
f 157/182/157 158/183/158 159/184/159 
f 160/185/160 161/186/161 162/187/162 
f 163/188/163 164/189/164 165/190/165 
f 166/191/166 167/192/167 168/193/168 
f 169/194/169 170/195/170 171/196/171 
f 172/197/172 160/185/160 162/187/162 
f 173/198/173 174/199/174 175/200/175 
f 176/201/176 138/146/138 177/202/177 
f 178/203/178 179/204/179 161/186/161 
f 180/205/180 181/206/181 182/207/182 
f 183/208/183 184/209/184 185/210/185 
f 186/211/186 137/145/137 148/161/148 
f 187/212/187 188/213/188 189/214/189 
f 190/215/190 191/216/191 192/217/192 
f 193/218/193 171/196/171 194/219/194 
f 195/220/195 196/221/196 197/222/197 
f 198/223/198 199/224/199 200/225/200 
f 201/226/201 202/227/202 203/228/203 
f 204/229/204 205/230/205 206/231/206 
f 175/200/175 207/232/207 208/233/208 
f 209/234/209 199/224/199 210/235/210 
f 211/236/211 212/237/212 213/238/213 
f 214/239/214 215/240/215 216/241/216 
f 137/145/137 186/211/186 217/242/217 
f 218/243/218 219/244/219 180/205/180 
f 220/245/220 155/172/155 69/69/69 
f 144/153/144 133/137/133 221/246/221 
f 211/236/211 91/93/91 222/247/222 
f 194/219/194 223/248/223 224/249/224 
f 225/250/225 166/191/166 168/193/168 
f 226/251/226 176/201/176 177/202/177 
f 165/190/165 227/252/227 228/253/228 
f 179/204/179 229/254/229 230/255/230 
f 190/215/190 231/256/231 191/216/191 
f 138/146/138 176/201/176 153/169/153 
f 232/257/232 189/214/189 201/258/201 
f 179/204/179 231/259/231 233/260/233 
f 154/170/154 214/239/214 9/9/9 
f 187/212/187 145/154/145 188/213/188 
f 205/230/205 202/227/202 206/231/206 
f 234/261/234 235/262/235 157/182/157 
f 236/263/236 237/264/237 216/265/216 
f 238/266/238 198/223/198 200/225/200 
f 239/267/239 238/266/238 240/268/240 
f 152/167/152 182/207/182 241/269/241 
f 242/270/242 243/271/243 244/272/244 
f 245/273/245 197/222/197 162/187/162 
f 246/274/246 247/275/247 225/250/225 
f 248/276/248 174/199/174 249/277/249 
f 250/278/250 228/253/228 227/252/227 
f 162/187/162 197/222/197 251/279/251 
f 251/279/251 172/197/172 162/187/162 
f 207/280/207 60/60/60 59/59/59 
f 200/225/200 252/281/252 253/282/253 
f 164/189/164 163/188/163 254/283/254 
f 217/242/217 255/284/255 256/285/256 
f 215/286/215 257/287/257 258/288/258 
f 168/193/168 259/289/259 251/279/251 
f 255/284/255 260/290/260 261/291/261 
f 235/262/235 262/292/262 157/182/157 
f 97/293/97 140/294/140 240/268/240 
f 240/295/240 253/296/253 51/51/51 
f 229/254/229 203/228/203 230/255/230 
f 230/255/230 245/273/245 162/187/162 
f 263/297/263 183/298/183 185/299/185 
f 169/194/169 171/196/171 264/300/264 
f 159/184/159 158/183/158 165/190/165 
f 119/121/119 222/247/222 91/93/91 
f 265/301/265 257/302/257 215/240/215 
f 143/152/143 92/94/92 265/301/265 
f 138/146/138 220/245/220 177/202/177 
f 174/199/174 248/276/248 250/278/250 
f 180/205/180 219/244/219 266/303/266 
f 181/206/181 180/205/180 267/304/267 
f 192/305/192 268/306/268 178/203/178 
f 213/307/213 212/308/212 269/309/269 
f 146/155/146 187/212/187 156/175/156 
f 242/270/242 156/175/156 243/271/243 
f 221/246/221 212/237/212 270/310/270 
f 212/308/212 271/311/271 269/309/269 
f 210/235/210 199/224/199 198/223/198 
f 166/191/166 225/250/225 210/235/210 
f 260/290/260 272/312/272 185/299/185 
f 163/188/163 260/313/260 254/283/254 
f 133/137/133 190/215/190 221/246/221 
f 201/258/201 189/214/189 202/314/202 
f 267/304/267 180/205/180 266/303/266 
f 167/192/167 236/263/236 168/193/168 
f 236/263/236 273/315/273 168/193/168 
f 170/195/170 249/277/249 223/248/223 
f 223/248/223 209/234/209 224/249/224 
f 208/233/208 207/232/207 274/316/274 
f 252/317/252 207/280/207 59/59/59 
f 256/285/256 137/145/137 217/242/217 
f 138/146/138 155/172/155 220/245/220 
f 126/130/126 275/318/275 190/215/190 
f 133/137/133 126/130/126 190/215/190 
f 173/198/173 175/200/175 208/233/208 
f 223/248/223 249/277/249 208/233/208 
f 263/297/263 148/161/148 83/83/83 
f 263/297/263 116/180/116 183/298/183 
f 150/164/150 214/239/214 216/241/216 
f 213/307/213 269/309/269 172/197/172 
f 213/307/213 258/288/258 257/287/257 
f 179/204/179 233/260/233 229/254/229 
f 244/272/244 232/257/232 201/258/201 
f 196/221/196 246/274/246 197/222/197 
f 197/222/197 246/274/246 225/250/225 
f 181/206/181 241/269/241 182/207/182 
f 241/269/241 188/213/188 145/154/145 
f 256/285/256 38/38/38 137/145/137 
f 218/243/218 180/205/180 182/207/182 
f 60/60/60 207/280/207 175/319/175 
f 230/255/230 203/228/203 245/273/245 
f 205/230/205 204/229/204 195/220/195 
f 170/195/170 223/248/223 171/196/171 
f 171/196/171 223/248/223 194/219/194 
f 202/227/202 234/261/234 206/231/206 
f 202/314/202 267/304/267 266/303/266 
f 240/268/240 238/266/238 200/225/200 
f 240/268/240 200/225/200 253/282/253 
f 161/186/161 179/204/179 230/255/230 
f 161/186/161 230/255/230 162/187/162 
f 119/121/119 270/310/270 222/247/222 
f 195/220/195 204/229/204 196/221/196 
f 159/184/159 165/190/165 264/300/264 
f 184/209/184 250/278/250 227/252/227 
f 184/209/184 164/189/164 254/283/254 
f 213/307/213 172/197/172 259/289/259 
f 172/197/172 251/279/251 259/289/259 
f 252/317/252 59/59/59 253/296/253 
f 22/22/22 156/175/156 242/270/242 
f 23/23/23 22/22/22 275/320/275 
f 242/270/242 233/321/233 231/322/231 
f 275/320/275 22/22/22 242/270/242 
f 223/248/223 208/233/208 209/234/209 
f 209/234/209 208/233/208 199/224/199 
f 257/302/257 265/301/265 92/94/92 
f 211/236/211 213/238/213 257/302/257 
f 220/245/220 174/323/174 177/202/177 
f 174/323/174 220/245/220 175/319/175 
f 182/207/182 38/38/38 218/243/218 
f 182/207/182 152/167/152 38/38/38 
f 175/319/175 69/69/69 60/60/60 
f 220/245/220 69/69/69 175/319/175 
f 271/311/271 178/203/178 269/309/269 
f 160/185/160 178/203/178 161/186/161 
f 197/222/197 225/250/225 251/279/251 
f 225/250/225 168/193/168 251/279/251 
f 167/192/167 198/223/198 238/266/238 
f 237/264/237 238/266/238 239/267/239 
f 59/59/59 25/25/25 276/324/276 
f 51/51/51 276/324/276 25/25/25 
f 116/118/116 118/120/118 183/325/183 
f 183/325/183 277/326/277 184/327/184 
f 165/190/165 228/253/228 169/194/169 
f 165/190/165 169/194/169 264/300/264 
f 261/328/261 260/313/260 163/188/163 
f 158/183/158 163/188/163 165/190/165 
f 250/329/250 226/251/226 177/202/177 
f 250/329/250 177/202/177 174/323/174 
f 234/261/234 157/182/157 206/231/206 
f 206/231/206 157/182/157 159/184/159 
f 217/242/217 272/312/272 260/290/260 
f 217/242/217 260/290/260 255/284/255 
f 194/219/194 224/249/224 210/235/210 
f 224/249/224 209/234/209 210/235/210 
f 189/214/189 267/304/267 202/314/202 
f 188/213/188 267/304/267 189/214/189 
f 159/184/159 264/300/264 196/221/196 
f 264/300/264 171/196/171 193/218/193 
f 229/254/229 201/226/201 203/228/203 
f 233/260/233 201/226/201 229/254/229 
f 199/224/199 208/233/208 274/316/274 
f 200/225/200 199/224/199 252/281/252 
f 92/94/92 211/236/211 257/302/257 
f 211/236/211 92/94/92 91/93/91 
f 250/278/250 248/276/248 228/253/228 
f 228/253/228 170/195/170 169/194/169 
f 228/253/228 248/276/248 170/195/170 
f 248/276/248 249/277/249 170/195/170 
f 231/259/231 179/204/179 191/330/191 
f 179/204/179 178/203/178 268/306/268 
f 97/171/97 240/295/240 51/51/51 
f 236/263/236 215/286/215 273/315/273 
f 216/265/216 215/286/215 236/263/236 
f 156/175/156 187/212/187 243/271/243 
f 187/212/187 189/214/189 232/257/232 
f 222/247/222 212/237/212 211/236/211 
f 270/310/270 212/237/212 222/247/222 
f 196/221/196 193/218/193 194/219/194 
f 196/221/196 264/300/264 193/218/193 
f 188/213/188 181/206/181 267/304/267 
f 241/269/241 181/206/181 188/213/188 
f 203/228/203 205/230/205 195/220/195 
f 203/228/203 202/227/202 205/230/205 
f 261/328/261 163/188/163 158/183/158 
f 157/182/157 262/292/262 158/183/158 
f 246/274/246 194/219/194 247/275/247 
f 196/221/196 194/219/194 246/274/246 
f 23/174/23 275/318/275 126/130/126 
f 238/266/238 237/264/237 167/192/167 
f 236/263/236 167/192/167 237/264/237 
f 167/192/167 166/191/166 198/223/198 
f 166/191/166 210/235/210 198/223/198 
f 159/184/159 196/221/196 204/229/204 
f 206/231/206 159/184/159 204/229/204 
f 216/265/216 237/264/237 239/267/239 
f 140/294/140 239/267/239 240/268/240 
f 255/284/255 262/331/262 235/332/235 
f 256/285/256 255/284/255 219/244/219 
f 140/294/140 216/265/216 239/267/239 
f 140/148/140 150/164/150 216/241/216 
f 249/277/249 173/198/173 208/233/208 
f 174/199/174 173/198/173 249/277/249 
f 226/251/226 250/329/250 184/327/184 
f 277/326/277 226/251/226 184/327/184 
f 215/240/215 214/239/214 265/301/265 
f 214/239/214 154/170/154 265/301/265 
f 178/203/178 160/185/160 269/309/269 
f 269/309/269 160/185/160 172/197/172 
f 219/244/219 235/332/235 266/303/266 
f 255/284/255 235/332/235 219/244/219 
f 210/235/210 225/250/225 247/275/247 
f 194/219/194 210/235/210 247/275/247 
f 190/215/190 192/217/192 221/246/221 
f 212/237/212 221/246/221 271/333/271 
f 192/305/192 178/203/178 271/311/271 
f 221/246/221 192/217/192 271/333/271 
f 145/154/145 187/212/187 146/155/146 
f 270/310/270 144/153/144 221/246/221 
f 119/121/119 144/153/144 270/310/270 
f 245/273/245 195/220/195 197/222/197 
f 203/228/203 195/220/195 245/273/245 
f 32/32/32 119/121/119 91/93/91 
f 164/189/164 184/209/184 227/252/227 
f 164/189/164 227/252/227 165/190/165 
f 218/243/218 256/285/256 219/244/219 
f 218/243/218 38/38/38 256/285/256 
f 98/100/98 241/269/241 145/154/145 
f 241/269/241 98/100/98 152/167/152 
f 233/321/233 244/272/244 201/258/201 
f 242/270/242 244/272/244 233/321/233 
f 258/288/258 213/307/213 259/289/259 
f 259/289/259 168/193/168 273/315/273 
f 118/120/118 153/169/153 176/201/176 
f 277/326/277 176/201/176 226/251/226 
f 190/215/190 275/318/275 231/256/231 
f 275/320/275 242/270/242 231/322/231 
f 254/283/254 185/210/185 184/209/184 
f 260/313/260 185/210/185 254/283/254 
f 243/271/243 187/212/187 232/257/232 
f 243/271/243 232/257/232 244/272/244 
f 191/330/191 179/204/179 268/306/268 
f 191/330/191 268/306/268 192/305/192 
f 148/161/148 263/297/263 186/211/186 
f 272/312/272 263/297/263 185/299/185 
f 154/170/154 143/152/143 265/301/265 
f 83/83/83 116/180/116 263/297/263 
f 202/227/202 266/334/266 234/261/234 
f 266/334/266 235/262/235 234/261/234 
f 277/326/277 118/120/118 176/201/176 
f 183/325/183 118/120/118 277/326/277 
f 276/324/276 253/296/253 59/59/59 
f 276/324/276 51/51/51 253/296/253 
f 186/211/186 272/312/272 217/242/217 
f 186/211/186 263/297/263 272/312/272 
f 215/286/215 258/288/258 273/315/273 
f 273/315/273 258/288/258 259/289/259 
f 9/9/9 214/239/214 150/164/150 
f 274/316/274 207/232/207 252/281/252 
f 199/224/199 274/316/274 252/281/252 
f 255/284/255 261/291/261 262/331/262 
f 262/292/262 261/328/261 158/183/158 
# 550 faces

