# File exported by Houdini 16.5.405 (www.sidefx.com)
# 186 points
# 1104 vertices
# 368 primitives
# Bounds: [-6.41090012, 0.248600006, -5.90170002] to [6.41090012, 12.2483997, 5.90170002]
g 
v -4.91200018 4.3664999 -4.20039988
v -4.95349979 2.5934999 -3.34759998
v -5.76499987 3.96300006 -2.48819995
v 6.13479996 6.73579979 0.271899998
v 4.19589996 8.98490047 -2.75
v 3.5323 9.53989983 3.92140007
v 1.14349997 10.2111998 5.11009979
v 0.947000027 10.9310999 4.40759993
v -0.827899992 10.5179005 5.05709982
v -2.21880007 12.0502005 1.55770004
v -4.24039984 11.4733 1.50779998
v -3.35719991 11.5082998 2.69250011
v 1.1717 10.3654003 -3.60520005
v -1.57449996 10.1498003 -4.32320023
v -0.508099973 10.8140001 -3.47160006
v -6.21290016 9.68599987 1.97259998
v -5.4842 10.6271 2.38380003
v -5.91629982 10.3427 0.790700018
v -5.47009993 7.28550005 -2.61380005
v -6.13700008 5.24280024 -1.60450006
v -1.25139999 11.4657001 -2.52150011
v -3.05240011 10.7063999 -3.10039997
v 5.56899977 7.40869999 -2.06089997
v 6.24359989 6.1722002 -0.94569999
v 1.45809996 7.42369986 -5.08979988
v 3.34820008 6.78030014 -4.45120001
v 2.18770003 6.02099991 -4.94980001
v 1.12320006 7.99480009 5.8599
v -1.48029995 8.20479965 5.82189989
v -0.853500009 6.55189991 5.90059996
v -5.22970009 7.13019991 3.87960005
v -6.38859987 6.81169987 1.61600006
v -5.61870003 5.50610018 2.78259993
v 5.12559986 5.45639992 -3.26690006
v 5.45849991 6.66309977 -2.85560012
v 6.27930021 5.18529987 -1.28310001
v -1.40709996 12.1303997 -0.345200002
v -3.71950006 11.6476002 -0.125799999
v 3.30970001 9.75800037 -2.99609995
v 1.53419995 11.3753004 -1.6372
v 2.20569992 11.0991001 0.511900008
v 3.90689993 7.82469988 5.27740002
v 4.55679989 8.3156004 4.10150003
v 2.90750003 9.72640038 4.63929987
v 5.07200003 6.95900011 4.39440012
v 4.6244998 6.50549984 4.84350014
v 3.32809997 5.99940014 5.44360018
v 2.47659993 7.26350021 5.76749992
v 1.29270005 6.27820015 5.90170002
v -4.26310015 9.56429958 -3.34549999
v -2.66890001 9.13920021 -4.82079983
v -3.90149999 8.02280045 -4.55270004
v 0.0702999979 6.45469999 -5.6086998
v -0.634599984 7.75320005 -5.56729984
v -6.37729979 9.25969982 0.833899975
v -5.82289982 9.02140045 -1.29219997
v -6.41090012 5.3986001 0.0381999984
v -6.00309992 3.81139994 -1.43859994
v -5.74669981 3.35389996 -0.478500009
v -2.80660009 7.34100008 -5.52780008
v -1.61370003 8.05819988 -5.55009985
v -2.00939989 6.63520002 -5.87419987
v -3.78670001 4.02589989 -5.2645998
v -2.55909991 4.43179989 -5.80249977
v -2.6875 2.81369996 -5.2578001
v -5.78569984 9.31120014 3.02699995
v -4.78439999 8.27499962 4.55929995
v -5.30100012 10.0407 3.55940008
v -0.824000001 11.2365999 4.20459986
v -3.57500005 10.9348001 3.94029999
v -2.43840003 10.4820995 4.91879988
v -0.0194000006 3.23589993 -5.12319994
v 0.234599993 5.20609999 -5.50769997
v 3.21469998 4.63079977 -4.32250023
v -4.11899996 9.21420002 5.0250001
v -2.66129994 6.96560001 5.54440022
v -2.93980002 8.68039989 5.62099981
v 0.620899975 12.0345001 0.148000002
v 0.503499985 11.9492998 2.24760008
v -4.29050016 2.43249989 -4.12410021
v -5.97009993 4.68769979 1.21759999
v 2.60549998 8.16559982 -4.4302001
v 4.22079992 7.84749985 -3.68869996
v -2.02320004 11.7554998 -1.51890004
v -3.26270008 11.1918001 -2.11500001
v -5.86129999 9.94110012 -0.542900026
v 5.27260017 4.02869987 -2.4828999
v -4.22840023 11.0862999 -1.27030003
v -4.51440001 10.3706999 -2.21810007
v -5.28410006 10.6328001 -0.617200017
v 2.50370002 10.6912003 2.31699991
v 0.810500026 11.4763002 3.56859994
v 2.83260012 9.09599972 -3.86590004
v 4.5388999 8.28999996 -3.18899989
v 0.399300009 9.36470032 -4.61959982
v -0.54610002 12.2483997 1.11960006
v -1.93120003 11.5571003 3.3901
v -4.45629978 6.79729986 -4.39239979
v -3.03010011 5.27069998 -5.70389986
v -3.90059996 5.40170002 -5.24020004
v 5.7670002 6.07130003 3.13930011
v 6.41090012 5.61800003 0.0379000008
v 2.63969994 9.09759998 5.31010008
v -0.974799991 9.53540039 5.62669992
v 1.77139997 9.0394001 5.62260008
v -1.347 5.92920017 -5.90170002
v -1.22490001 4.52650023 -5.73250008
v 0.766799986 11.3697996 -2.34719992
v 0.064000003 12.0323 -1.09909999
v -5.22840023 10.948 0.995800018
v 2.08189988 10.5672998 -2.88249993
v -3.8973 10.1805 4.67030001
v -1.1178 9.01720047 -5.11310005
v -4.74020004 10.7903004 3.30920005
v -3.72320008 7.86460018 5.28700018
v -3.13030005 9.52530003 5.3348999
v 5.45699978 7.14330006 3.42339993
v 5.26840019 6.08839989 4.1184001
v -3.56229997 2.2881999 -4.5690999
v -5.24959993 9.78689957 -1.9059
v -4.94490004 8.87530041 -2.96399999
v 4.49510002 6.67269993 -3.79290009
v 3.89669991 5.69680023 -4.19220018
v 4.64319992 4.58090019 -3.42059994
v -0.548699975 11.9046001 2.83570004
v 6.22270012 4.47520018 -0.280400008
v -4.44460011 6.38049984 4.48799992
v -2.06879997 3.60450006 -5.60160017
v 6.02790022 4.27869987 -1.22239995
v -0.890999973 2.3204 -4.92959976
v 2.49419999 1.17139995 0.770799994
v 5.24510002 2.93720007 -0.474799991
v 3.99710011 2.27819991 1.72520006
v -0.0540999994 3.4526999 4.80530024
v -2.0711 3.61730003 4.2803998
v -0.280600011 2.3842001 3.77119994
v -3.48699999 4.7507 4.31419992
v -1.06939995 4.9071002 5.31279993
v -0.0515000001 0.577199996 -2.7032001
v -0.810699999 1.44819999 -4.16359997
v 0.689300001 1.44169998 -3.75189996
v -4.43690014 2.48110008 0.439399987
v -3.32189989 1.21650004 -2.5013001
v -0.404500008 0.607900023 0.435200006
v 5.44059992 4.16160011 2.33130002
v -5.32240009 2.74979997 -2.04559994
v 1.95179999 1.59780002 -3.1329
v 5.04799986 3.12380004 -1.78559995
v 2.704 1.55610001 -2.19230008
v 3.08380008 2.67330003 3.68779993
v 1.23619998 2.66289997 4.14359999
v 1.30710006 1.41949999 2.73020005
v -0.699299991 0.385399997 -1.49950004
v 2.89560008 1.84109998 2.64109993
v 1.76639998 1.02789998 1.64559996
v 3.4848001 3.17359996 -3.40129995
v 5.15339994 4.73950005 3.60669994
v 3.18490005 4.65810013 5.02460003
v 1.95539999 3.45079994 4.67759991
v -3.2349 1.39170003 -3.71449995
v -1.44560003 1.03919995 -3.62290001
v -2.11870003 0.840499997 -2.9282999
v -2.30999994 2.90289998 3.39650011
v 5.24679995 3.3592999 1.46140003
v 1.91480005 5.32490015 5.6020999
v 1.01689994 4.17700005 5.24860001
v -5.03620005 4.96280003 3.4388001
v -3.87319994 3.23140001 2.59120011
v -5.24399996 3.85570002 1.94029999
v 4.38800001 3.0855999 3.06699991
v 0.0956000015 1.36010003 2.3527
v 0.455199987 0.248600006 -0.781899989
v 0.629599988 0.600899994 1.03030002
v 1.16240001 2.38770008 -4.2652998
v 1.88670003 0.865100026 -1.495
v 4.06120014 2.11490011 -0.906700015
v -4.03770018 1.74090004 -3.37540007
v -4.59689999 2.04119992 -2.43910003
v -5.19859982 2.84019995 -0.0573999994
v 4.28739977 4.14989996 4.1704998
v 1.16390002 0.707899988 -2.30019999
v -2.11279988 1.77199996 -4.57969999
v 1.26090002 0.545599997 0.106799997
v -4.29710007 3.9381001 3.24370003
v 4.57140017 5.4605999 4.63530016
v 0.364399999 5.31850004 5.74599981
vt 0.582000017 0.889699996 0
vt 0.561399996 0.867900014 0
vt 0.588500023 0.862600029 0
vt 0.92839998 0.857599974 0
vt 0.891099989 0.823000014 0
vt 0.98269999 0.805199981 0
vt 0.113799997 0.889800012 0
vt 0.127700001 0.893100023 0
vt 0.115199998 0.916800022 0
vt 0.166600004 0.947099984 0
vt 0.156000003 0.978500009 0
vt 0.1435 0.959299982 0
vt 0.866999984 0.7852 0
vt 0.831799984 0.758400023 0
vt 0.856299996 0.761500001 0
vt 0.68809998 0.847500026 0
vt 0.7051 0.852100015 0
vt 0.686699986 0.865800023 0
vt 0.628899992 0.885699987 0
vt 0.582000017 0.889699996 0
vt 0.610700011 0.858200014 0
vt 0.692700028 0.950500011 0
vt 0.656700015 0.957300007 0
vt 0.66960001 0.929799974 0
vt 0.900399983 0.847299993 0
vt 0.92839998 0.857599974 0
vt 0.913100004 0.864000022 0
vt 0.839100003 0.823000014 0
vt 0.859799981 0.842499971 0
vt 0.84009999 0.845399976 0
vt 0.0820000023 0.887199998 0
vt 0.0817999989 0.922200024 0
vt 0.0599000007 0.912400007 0
vt 0.676100016 0.800199986 0
vt 0.6523 0.829599977 0
vt 0.645500004 0.802200019 0
vt 0.880400002 0.866900027 0
vt 0.889999986 0.854399979 0
vt 0.907700002 0.87559998 0
vt 0.72240001 0.929899991 0
vt 0.70389998 0.899500012 0
vt 0.739199996 0.90140003 0
vt 0.885800004 0.809099972 0
vt 0.896700025 0.774100006 0
vt 0.929199994 0.778699994 0
vt 0.0847000033 0.847800016 0
vt 0.0980999991 0.831499994 0
vt 0.113799997 0.862399995 0
vt 0.0755999982 0.824100018 0
vt 0.0847000033 0.847800016 0
vt 0.0675000027 0.833000004 0
vt 0.0579000004 0.852999985 0
vt 0.0741000026 0.867699981 0
vt 0.0588000007 0.882600009 0
vt 0.651799977 0.914399981 0
vt 0.637799978 0.942300022 0
vt 0.62529999 0.921700001 0
vt 0.813000023 0.826099992 0
vt 0.813199997 0.802900016 0
vt 0.839100003 0.823000014 0
vt 0.674499989 0.85650003 0
vt 0.657899976 0.879899979 0
vt 0.610700011 0.858200014 0
vt 0.623600006 0.83859998 0
vt 0.593100011 0.84740001 0
vt 0.591400027 0.831099987 0
vt 0.609499991 0.938799977 0
vt 0.617799997 0.958500028 0
vt 0.595700026 0.948800027 0
vt 0.568599999 0.908299983 0
vt 0.565900028 0.929700017 0
vt 0.543900013 0.912899971 0
vt 0.100699998 0.996399999 0
vt 0.0824000016 0.970899999 0
vt 0.1109 0.983900011 0
vt 0.130500004 0.918600023 0
vt 0.123599999 0.956900001 0
vt 0.112999998 0.938199997 0
vt 0.793200016 0.873899996 0
vt 0.807500005 0.844900012 0
vt 0.849099994 0.870400012 0
vt 0.0824000016 0.970899999 0
vt 0.0944999978 0.958999991 0
vt 0.1109 0.983900011 0
vt 0.0640999973 0.938000023 0
vt 0.0599000007 0.912400007 0
vt 0.0870999992 0.941999972 0
vt 0.929199994 0.778699994 0
vt 0.919499993 0.752200007 0
vt 0.952700019 0.746200025 0
vt 0.113799997 0.862399995 0
vt 0.127700001 0.893100023 0
vt 0.113799997 0.889800012 0
vt 0.582000017 0.889699996 0
vt 0.551999986 0.881699979 0
vt 0.561399996 0.867900014 0
vt 0.622099996 0.817200005 0
vt 0.623600006 0.83859998 0
vt 0.591400027 0.831099987 0
vt 0.859799981 0.842499971 0
vt 0.859799981 0.822000027 0
vt 0.878000021 0.835500002 0
vt 0.891099989 0.823000014 0
vt 0.885800004 0.809099972 0
vt 0.929199994 0.778699994 0
vt 0.701399982 0.931999981 0
vt 0.682799995 0.920700014 0
vt 0.70389998 0.899500012 0
vt 0.672999978 0.877300024 0
vt 0.674499989 0.85650003 0
vt 0.686699986 0.865800023 0
vt 0.907700002 0.87559998 0
vt 0.885299981 0.888199985 0
vt 0.880400002 0.866900027 0
vt 0.684700012 0.902800024 0
vt 0.668500006 0.905600011 0
vt 0.681200027 0.885599971 0
vt 0.651799977 0.914399981 0
vt 0.66960001 0.929799974 0
vt 0.637799978 0.942300022 0
vt 0.891099989 0.823000014 0
vt 0.929199994 0.778699994 0
vt 0.98269999 0.805199981 0
vt 0.98269999 0.805199981 0
vt 0.956700027 0.783900023 0
vt 0.975399971 0.753300011 0
vt 0.871200025 0.81309998 0
vt 0.885800004 0.809099972 0
vt 0.886300027 0.832599998 0
vt 0.839100003 0.823000014 0
vt 0.813199997 0.802900016 0
vt 0.843999982 0.790600002 0
vt 0.919499993 0.752200007 0
vt 0.931599975 0.731000006 0
vt 0.952700019 0.746200025 0
vt 0.139599994 0.936200023 0
vt 0.166600004 0.947099984 0
vt 0.1435 0.959299982 0
vt 0.628899992 0.885699987 0
vt 0.611299992 0.908800006 0
vt 0.582000017 0.889699996 0
vt 0.609499991 0.938799977 0
vt 0.58069998 0.927299976 0
vt 0.587700009 0.914499998 0
vt 0.674499989 0.85650003 0
vt 0.610700011 0.858200014 0
vt 0.623600006 0.83859998 0
vt 0.695500016 0.831700027 0
vt 0.6523 0.829599977 0
vt 0.676100016 0.800199986 0
vt 0.92839998 0.857599974 0
vt 0.98269999 0.805199981 0
vt 0.985599995 0.828999996 0
vt 0.92839998 0.857599974 0
vt 0.968400002 0.867200017 0
vt 0.924600005 0.871900022 0
vt 0.100400001 0.867500007 0
vt 0.0847000033 0.847800016 0
vt 0.113799997 0.862399995 0
vt 0.100000001 0.917100012 0
vt 0.0820000023 0.887199998 0
vt 0.0973000005 0.879899979 0
vt 0.788699985 0.823599994 0
vt 0.813199997 0.802900016 0
vt 0.813000023 0.826099992 0
vt 0.793200016 0.873899996 0
vt 0.781599998 0.845600009 0
vt 0.807500005 0.844900012 0
vt 0.866999984 0.7852 0
vt 0.856299996 0.761500001 0
vt 0.883000016 0.767499983 0
vt 0.724900007 0.956200004 0
vt 0.72240001 0.929899991 0
vt 0.749499977 0.927999973 0
vt 0.716199994 0.875999987 0
vt 0.698199987 0.871299982 0
vt 0.7051 0.852100015 0
vt 0.684700012 0.902800024 0
vt 0.681200027 0.885599971 0
vt 0.70389998 0.899500012 0
vt 0.866999984 0.7852 0
vt 0.885800004 0.809099972 0
vt 0.871200025 0.81309998 0
vt 0.883000016 0.767499983 0
vt 0.882300019 0.790499985 0
vt 0.866999984 0.7852 0
vt 0.113799997 0.889800012 0
vt 0.115199998 0.916800022 0
vt 0.100000001 0.917100012 0
vt 0.112999998 0.938199997 0
vt 0.123599999 0.956900001 0
vt 0.108499996 0.957700014 0
vt 0.820100009 0.780399978 0
vt 0.831799984 0.758400023 0
vt 0.843999982 0.790600002 0
vt 0.617799997 0.958500028 0
vt 0.609499991 0.938799977 0
vt 0.637799978 0.942300022 0
vt 0.0847000033 0.847800016 0
vt 0.0579000004 0.852999985 0
vt 0.0675000027 0.833000004 0
vt 0.156000003 0.978500009 0
vt 0.124499999 0.976899981 0
vt 0.1435 0.959299982 0
vt 0.108499996 0.957700014 0
vt 0.123599999 0.956900001 0
vt 0.124499999 0.976899981 0
vt 0.0944999978 0.958999991 0
vt 0.0824000016 0.970899999 0
vt 0.0763000026 0.953199983 0
vt 0.112999998 0.938199997 0
vt 0.108499996 0.957700014 0
vt 0.0983999968 0.9454 0
vt 0.0870999992 0.941999972 0
vt 0.0944999978 0.958999991 0
vt 0.0763000026 0.953199983 0
vt 0.973200023 0.850899994 0
vt 0.968400002 0.867200017 0
vt 0.92839998 0.857599974 0
vt 0.989499986 0.852500021 0
vt 0.984899998 0.86650002 0
vt 0.968400002 0.867200017 0
vt 0.0973000005 0.879899979 0
vt 0.0741000026 0.867699981 0
vt 0.0847000033 0.847800016 0
vt 0.0579000004 0.852999985 0
vt 0.0847000033 0.847800016 0
vt 0.0741000026 0.867699981 0
vt 0.724900007 0.956200004 0
vt 0.692700028 0.950500011 0
vt 0.701399982 0.931999981 0
vt 0.692700028 0.950500011 0
vt 0.682799995 0.920700014 0
vt 0.701399982 0.931999981 0
vt 0.62529999 0.921700001 0
vt 0.609499991 0.938799977 0
vt 0.587700009 0.914499998 0
vt 0.62529999 0.921700001 0
vt 0.637799978 0.942300022 0
vt 0.609499991 0.938799977 0
vt 0.543900013 0.89289999 0
vt 0.568599999 0.908299983 0
vt 0.543900013 0.912899971 0
vt 0.662899971 0.89380002 0
vt 0.672999978 0.877300024 0
vt 0.681200027 0.885599971 0
vt 0.628899992 0.885699987 0
vt 0.645699978 0.90170002 0
vt 0.611299992 0.908800006 0
vt 0.874800026 0.849699974 0
vt 0.889999986 0.854399979 0
vt 0.880400002 0.866900027 0
vt 0.84009999 0.845399976 0
vt 0.862299979 0.858699977 0
vt 0.849099994 0.870400012 0
vt 0.849099994 0.870400012 0
vt 0.862299979 0.858699977 0
vt 0.871900022 0.876999974 0
vt 0.889999986 0.854399979 0
vt 0.874800026 0.849699974 0
vt 0.878000021 0.835500002 0
vt 0.92839998 0.857599974 0
vt 0.900399983 0.847299993 0
vt 0.891099989 0.823000014 0
vt 0.568599999 0.908299983 0
vt 0.551999986 0.881699979 0
vt 0.582000017 0.889699996 0
vt 0.582000017 0.889699996 0
vt 0.611299992 0.908800006 0
vt 0.587700009 0.914499998 0
vt 0.645500004 0.802200019 0
vt 0.6523 0.829599977 0
vt 0.622099996 0.817200005 0
vt 0.164000005 0.903199971 0
vt 0.179199994 0.922699988 0
vt 0.152700007 0.917900026 0
vt 0.952700019 0.746200025 0
vt 0.975399971 0.753300011 0
vt 0.956700027 0.783900023 0
vt 0.164000005 0.903199971 0
vt 0.152700007 0.917900026 0
vt 0.142700002 0.895200014 0
vt 0.127700001 0.893100023 0
vt 0.130500004 0.918600023 0
vt 0.115199998 0.916800022 0
vt 0.686699986 0.865800023 0
vt 0.674499989 0.85650003 0
vt 0.68809998 0.847500026 0
vt 0.68809998 0.847500026 0
vt 0.674499989 0.85650003 0
vt 0.6523 0.829599977 0
vt 0.656700015 0.957300007 0
vt 0.637799978 0.942300022 0
vt 0.66960001 0.929799974 0
vt 0.656700015 0.957300007 0
vt 0.634899974 0.966400027 0
vt 0.637799978 0.942300022 0
vt 0.839100003 0.823000014 0
vt 0.859799981 0.822000027 0
vt 0.859799981 0.842499971 0
vt 0.839100003 0.823000014 0
vt 0.843999982 0.790600002 0
vt 0.859799981 0.822000027 0
vt 0.645699978 0.90170002 0
vt 0.628899992 0.885699987 0
vt 0.657899976 0.879899979 0
vt 0.610700011 0.858200014 0
vt 0.657899976 0.879899979 0
vt 0.628899992 0.885699987 0
vt 0.739199996 0.90140003 0
vt 0.70389998 0.899500012 0
vt 0.716199994 0.875999987 0
vt 0.70389998 0.899500012 0
vt 0.698199987 0.871299982 0
vt 0.716199994 0.875999987 0
vt 0.6523 0.829599977 0
vt 0.674499989 0.85650003 0
vt 0.623600006 0.83859998 0
vt 0.6523 0.829599977 0
vt 0.623600006 0.83859998 0
vt 0.622099996 0.817200005 0
vt 0.781599998 0.845600009 0
vt 0.788699985 0.823599994 0
vt 0.807500005 0.844900012 0
vt 0.595700026 0.948800027 0
vt 0.58069998 0.927299976 0
vt 0.609499991 0.938799977 0
vt 0.0599000007 0.912400007 0
vt 0.0588000007 0.882600009 0
vt 0.0820000023 0.887199998 0
vt 0.889999986 0.854399979 0
vt 0.886300027 0.832599998 0
vt 0.900399983 0.847299993 0
vt 0.889999986 0.854399979 0
vt 0.900399983 0.847299993 0
vt 0.913100004 0.864000022 0
vt 0.749499977 0.927999973 0
vt 0.72240001 0.929899991 0
vt 0.739199996 0.90140003 0
vt 0.179199994 0.922699988 0
vt 0.166600004 0.947099984 0
vt 0.152700007 0.917900026 0
vt 0.907700002 0.87559998 0
vt 0.889999986 0.854399979 0
vt 0.913100004 0.864000022 0
vt 0.924600005 0.871900022 0
vt 0.968400002 0.867200017 0
vt 0.91900003 0.886799991 0
vt 0.994300008 0.79610002 0
vt 0.985599995 0.828999996 0
vt 0.98269999 0.805199981 0
vt 0.98269999 0.805199981 0
vt 0.975399971 0.753300011 0
vt 0.994300008 0.79610002 0
vt 0.886300027 0.832599998 0
vt 0.885800004 0.809099972 0
vt 0.891099989 0.823000014 0
vt 0.900399983 0.847299993 0
vt 0.886300027 0.832599998 0
vt 0.891099989 0.823000014 0
vt 0.108499996 0.957700014 0
vt 0.0944999978 0.958999991 0
vt 0.0983999968 0.9454 0
vt 0.1109 0.983900011 0
vt 0.0944999978 0.958999991 0
vt 0.108499996 0.957700014 0
vt 0.883000016 0.767499983 0
vt 0.864899993 0.74089998 0
vt 0.898199975 0.747900009 0
vt 0.896700025 0.774100006 0
vt 0.919499993 0.752200007 0
vt 0.929199994 0.778699994 0
vt 0.681200027 0.885599971 0
vt 0.672999978 0.877300024 0
vt 0.686699986 0.865800023 0
vt 0.681200027 0.885599971 0
vt 0.698199987 0.871299982 0
vt 0.70389998 0.899500012 0
vt 0.0817999989 0.922200024 0
vt 0.0820000023 0.887199998 0
vt 0.100000001 0.917100012 0
vt 0.0983999968 0.9454 0
vt 0.100000001 0.917100012 0
vt 0.112999998 0.938199997 0
vt 0.113799997 0.889800012 0
vt 0.100000001 0.917100012 0
vt 0.0973000005 0.879899979 0
vt 0.113799997 0.862399995 0
vt 0.113799997 0.889800012 0
vt 0.100400001 0.867500007 0
vt 0.871200025 0.81309998 0
vt 0.843999982 0.790600002 0
vt 0.866999984 0.7852 0
vt 0.843999982 0.790600002 0
vt 0.831799984 0.758400023 0
vt 0.866999984 0.7852 0
vt 0.0763000026 0.953199983 0
vt 0.0824000016 0.970899999 0
vt 0.054299999 0.967599988 0
vt 0.1109 0.983900011 0
vt 0.108499996 0.957700014 0
vt 0.124499999 0.976899981 0
vt 0.7051 0.852100015 0
vt 0.68809998 0.847500026 0
vt 0.711499989 0.832700014 0
vt 0.760200024 0.838400006 0
vt 0.788699985 0.823599994 0
vt 0.781599998 0.845600009 0
vt 0.543900013 0.912899971 0
vt 0.565900028 0.929700017 0
vt 0.550100029 0.928900003 0
vt 0.66960001 0.929799974 0
vt 0.668500006 0.905600011 0
vt 0.682799995 0.920700014 0
vt 0.692700028 0.950500011 0
vt 0.66960001 0.929799974 0
vt 0.682799995 0.920700014 0
vt 0.623600006 0.83859998 0
vt 0.610700011 0.858200014 0
vt 0.593100011 0.84740001 0
vt 0.610700011 0.858200014 0
vt 0.582000017 0.889699996 0
vt 0.588500023 0.862600029 0
vt 0.896700025 0.774100006 0
vt 0.898199975 0.747900009 0
vt 0.919499993 0.752200007 0
vt 0.919499993 0.752200007 0
vt 0.898199975 0.747900009 0
vt 0.931599975 0.731000006 0
vt 0.0755999982 0.824100018 0
vt 0.0980999991 0.831499994 0
vt 0.0847000033 0.847800016 0
vt 0.973200023 0.850899994 0
vt 0.92839998 0.857599974 0
vt 0.985599995 0.828999996 0
vt 0.587700009 0.914499998 0
vt 0.58069998 0.927299976 0
vt 0.568599999 0.908299983 0
vt 0.582000017 0.889699996 0
vt 0.587700009 0.914499998 0
vt 0.568599999 0.908299983 0
vt 0.956700027 0.783900023 0
vt 0.929199994 0.778699994 0
vt 0.952700019 0.746200025 0
vt 0.98269999 0.805199981 0
vt 0.929199994 0.778699994 0
vt 0.956700027 0.783900023 0
vt 0.883000016 0.767499983 0
vt 0.898199975 0.747900009 0
vt 0.896700025 0.774100006 0
vt 0.882300019 0.790499985 0
vt 0.883000016 0.767499983 0
vt 0.896700025 0.774100006 0
vt 0.0817999989 0.922200024 0
vt 0.0870999992 0.941999972 0
vt 0.0599000007 0.912400007 0
vt 0.0870999992 0.941999972 0
vt 0.0817999989 0.922200024 0
vt 0.100000001 0.917100012 0
vt 0.645699978 0.90170002 0
vt 0.62529999 0.921700001 0
vt 0.611299992 0.908800006 0
vt 0.611299992 0.908800006 0
vt 0.62529999 0.921700001 0
vt 0.587700009 0.914499998 0
vt 0.91900003 0.886799991 0
vt 0.907700002 0.87559998 0
vt 0.924600005 0.871900022 0
vt 0.139599994 0.936200023 0
vt 0.1435 0.959299982 0
vt 0.123599999 0.956900001 0
vt 0.124499999 0.976899981 0
vt 0.123599999 0.956900001 0
vt 0.1435 0.959299982 0
vt 0.856299996 0.761500001 0
vt 0.831799984 0.758400023 0
vt 0.864899993 0.74089998 0
vt 0.856299996 0.761500001 0
vt 0.864899993 0.74089998 0
vt 0.883000016 0.767499983 0
vt 0.985599995 0.828999996 0
vt 0.989499986 0.852500021 0
vt 0.973200023 0.850899994 0
vt 0.973200023 0.850899994 0
vt 0.989499986 0.852500021 0
vt 0.968400002 0.867200017 0
vt 0.907700002 0.87559998 0
vt 0.913100004 0.864000022 0
vt 0.924600005 0.871900022 0
vt 0.924600005 0.871900022 0
vt 0.913100004 0.864000022 0
vt 0.92839998 0.857599974 0
vt 0.813000023 0.826099992 0
vt 0.839100003 0.823000014 0
vt 0.84009999 0.845399976 0
vt 0.788699985 0.823599994 0
vt 0.813000023 0.826099992 0
vt 0.807500005 0.844900012 0
vt 0.0640999973 0.938000023 0
vt 0.0763000026 0.953199983 0
vt 0.054299999 0.967599988 0
vt 0.0870999992 0.941999972 0
vt 0.0763000026 0.953199983 0
vt 0.0640999973 0.938000023 0
vt 0.610700011 0.858200014 0
vt 0.588500023 0.862600029 0
vt 0.593100011 0.84740001 0
vt 0.807500005 0.844900012 0
vt 0.813000023 0.826099992 0
vt 0.84009999 0.845399976 0
vt 0.84009999 0.845399976 0
vt 0.849099994 0.870400012 0
vt 0.807500005 0.844900012 0
vt 0.0588000007 0.882600009 0
vt 0.0741000026 0.867699981 0
vt 0.0820000023 0.887199998 0
vt 0.0820000023 0.887199998 0
vt 0.0741000026 0.867699981 0
vt 0.0973000005 0.879899979 0
vt 0.68809998 0.847500026 0
vt 0.695500016 0.831700027 0
vt 0.711499989 0.832700014 0
vt 0.68809998 0.847500026 0
vt 0.6523 0.829599977 0
vt 0.695500016 0.831700027 0
vt 0.668500006 0.905600011 0
vt 0.662899971 0.89380002 0
vt 0.681200027 0.885599971 0
vt 0.645699978 0.90170002 0
vt 0.651799977 0.914399981 0
vt 0.62529999 0.921700001 0
vt 0.905700028 0.887600005 0
vt 0.907700002 0.87559998 0
vt 0.91900003 0.886799991 0
vt 0.905700028 0.887600005 0
vt 0.885299981 0.888199985 0
vt 0.907700002 0.87559998 0
vt 0.130500004 0.918600023 0
vt 0.142700002 0.895200014 0
vt 0.152700007 0.917900026 0
vt 0.139599994 0.936200023 0
vt 0.123599999 0.956900001 0
vt 0.130500004 0.918600023 0
vt 0.721899986 0.844699979 0
vt 0.7051 0.852100015 0
vt 0.711499989 0.832700014 0
vt 0.716199994 0.875999987 0
vt 0.7051 0.852100015 0
vt 0.721899986 0.844699979 0
vt 0.724900007 0.956200004 0
vt 0.701399982 0.931999981 0
vt 0.72240001 0.929899991 0
vt 0.701399982 0.931999981 0
vt 0.70389998 0.899500012 0
vt 0.72240001 0.929899991 0
vt 0.66960001 0.929799974 0
vt 0.651799977 0.914399981 0
vt 0.668500006 0.905600011 0
vt 0.651799977 0.914399981 0
vt 0.662899971 0.89380002 0
vt 0.668500006 0.905600011 0
vt 0.0653999969 0.983299971 0
vt 0.054299999 0.967599988 0
vt 0.0824000016 0.970899999 0
vt 0.0824000016 0.970899999 0
vt 0.100699998 0.996399999 0
vt 0.0653999969 0.983299971 0
vt 0.130500004 0.918600023 0
vt 0.112999998 0.938199997 0
vt 0.115199998 0.916800022 0
vt 0.100000001 0.917100012 0
vt 0.115199998 0.916800022 0
vt 0.112999998 0.938199997 0
vt 0.885800004 0.809099972 0
vt 0.866999984 0.7852 0
vt 0.882300019 0.790499985 0
vt 0.885800004 0.809099972 0
vt 0.882300019 0.790499985 0
vt 0.896700025 0.774100006 0
vt 0.637799978 0.942300022 0
vt 0.634899974 0.966400027 0
vt 0.617799997 0.958500028 0
vt 0.813199997 0.802900016 0
vt 0.820100009 0.780399978 0
vt 0.843999982 0.790600002 0
vt 0.862299979 0.858699977 0
vt 0.880400002 0.866900027 0
vt 0.871900022 0.876999974 0
vt 0.871900022 0.876999974 0
vt 0.880400002 0.866900027 0
vt 0.885299981 0.888199985 0
vt 0.859799981 0.822000027 0
vt 0.843999982 0.790600002 0
vt 0.871200025 0.81309998 0
vt 0.859799981 0.822000027 0
vt 0.871200025 0.81309998 0
vt 0.878000021 0.835500002 0
vt 0.686699986 0.865800023 0
vt 0.7051 0.852100015 0
vt 0.698199987 0.871299982 0
vt 0.681200027 0.885599971 0
vt 0.686699986 0.865800023 0
vt 0.698199987 0.871299982 0
vt 0.152700007 0.917900026 0
vt 0.166600004 0.947099984 0
vt 0.139599994 0.936200023 0
vt 0.152700007 0.917900026 0
vt 0.139599994 0.936200023 0
vt 0.130500004 0.918600023 0
vt 0.783999979 0.808099985 0
vt 0.813199997 0.802900016 0
vt 0.788699985 0.823599994 0
vt 0.760200024 0.838400006 0
vt 0.783999979 0.808099985 0
vt 0.788699985 0.823599994 0
vt 0.0983999968 0.9454 0
vt 0.0870999992 0.941999972 0
vt 0.100000001 0.917100012 0
vt 0.0870999992 0.941999972 0
vt 0.0983999968 0.9454 0
vt 0.0944999978 0.958999991 0
vt 0.0755999982 0.824100018 0
vt 0.0675000027 0.833000004 0
vt 0.0621000007 0.817600012 0
vt 0.127700001 0.893100023 0
vt 0.142700002 0.895200014 0
vt 0.130500004 0.918600023 0
vt 0.127700001 0.893100023 0
vt 0.113799997 0.862399995 0
vt 0.142700002 0.895200014 0
vt 0.662899971 0.89380002 0
vt 0.657899976 0.879899979 0
vt 0.672999978 0.877300024 0
vt 0.672999978 0.877300024 0
vt 0.657899976 0.879899979 0
vt 0.674499989 0.85650003 0
vt 0.0973000005 0.879899979 0
vt 0.0847000033 0.847800016 0
vt 0.100400001 0.867500007 0
vt 0.0973000005 0.879899979 0
vt 0.100400001 0.867500007 0
vt 0.113799997 0.889800012 0
vt 0.783999979 0.808099985 0
vt 0.80250001 0.790000021 0
vt 0.813199997 0.802900016 0
vt 0.80250001 0.790000021 0
vt 0.820100009 0.780399978 0
vt 0.813199997 0.802900016 0
vt 0.84009999 0.845399976 0
vt 0.859799981 0.842499971 0
vt 0.862299979 0.858699977 0
vt 0.874800026 0.849699974 0
vt 0.880400002 0.866900027 0
vt 0.862299979 0.858699977 0
vt 0.682799995 0.920700014 0
vt 0.668500006 0.905600011 0
vt 0.684700012 0.902800024 0
vt 0.682799995 0.920700014 0
vt 0.684700012 0.902800024 0
vt 0.70389998 0.899500012 0
vt 0.565900028 0.929700017 0
vt 0.58069998 0.927299976 0
vt 0.595700026 0.948800027 0
vt 0.568599999 0.908299983 0
vt 0.58069998 0.927299976 0
vt 0.565900028 0.929700017 0
vt 0.889999986 0.854399979 0
vt 0.878000021 0.835500002 0
vt 0.886300027 0.832599998 0
vt 0.878000021 0.835500002 0
vt 0.871200025 0.81309998 0
vt 0.886300027 0.832599998 0
vt 0.859799981 0.842499971 0
vt 0.874800026 0.849699974 0
vt 0.862299979 0.858699977 0
vt 0.859799981 0.842499971 0
vt 0.878000021 0.835500002 0
vt 0.874800026 0.849699974 0
vt 0.568599999 0.908299983 0
vt 0.543900013 0.89289999 0
vt 0.551999986 0.881699979 0
vt 0.651799977 0.914399981 0
vt 0.645699978 0.90170002 0
vt 0.662899971 0.89380002 0
vt 0.645699978 0.90170002 0
vt 0.657899976 0.879899979 0
vt 0.662899971 0.89380002 0
vt 0.762799978 0.855099976 0
vt 0.781599998 0.845600009 0
vt 0.793200016 0.873899996 0
vt 0.762799978 0.855099976 0
vt 0.760200024 0.838400006 0
vt 0.781599998 0.845600009 0
vt 0.351300001 0.756200016 0
vt 0.351900011 0.739300013 0
vt 0.380400002 0.748000026 0
vt 0.461499989 0.80339998 0
vt 0.497299999 0.765200019 0
vt 0.491299987 0.805599988 0
vt 0.461499989 0.882600009 0
vt 0.429100007 0.89139998 0
vt 0.448700011 0.863300025 0
vt 0.0277999993 0.954699993 0
vt 0.0348999985 0.914799988 0
vt 0.0640999973 0.938000023 0
vt 0.409399986 0.778900027 0
vt 0.389499992 0.763300002 0
vt 0.411199987 0.758000016 0
vt 0.372700006 0.850099981 0
vt 0.370999992 0.801599979 0
vt 0.423999995 0.817499995 0
vt 0.957300007 0.896700025 0
vt 0.91900003 0.886799991 0
vt 0.968400002 0.867200017 0
vt 0.593100011 0.84740001 0
vt 0.572399974 0.850000024 0
vt 0.591400027 0.831099987 0
vt 0.431300014 0.756799996 0
vt 0.485700011 0.746500015 0
vt 0.446799994 0.764500022 0
vt 0.494500011 0.839600027 0
vt 0.472000003 0.859099984 0
vt 0.459600002 0.835200012 0
vt 0.423999995 0.817499995 0
vt 0.370999992 0.801599979 0
vt 0.409399986 0.796599984 0
vt 0.461499989 0.80339998 0
vt 0.480300009 0.824599981 0
vt 0.457399994 0.818400025 0
vt 0.453700006 0.732900023 0
vt 0.485700011 0.746500015 0
vt 0.431300014 0.756799996 0
vt 0.977900028 0.888100028 0
vt 0.957300007 0.896700025 0
vt 0.968400002 0.867200017 0
vt 0.0373000018 0.851000011 0
vt 0.0149999997 0.866299987 0
vt 0.00100000005 0.842999995 0
vt 0.363799989 0.786300004 0
vt 0.386500001 0.775900006 0
vt 0.383599997 0.788900018 0
vt 0.372700006 0.850099981 0
vt 0.423999995 0.817499995 0
vt 0.4199 0.875999987 0
vt 0.911199987 0.912800014 0
vt 0.91900003 0.886799991 0
vt 0.943400025 0.908900023 0
vt 0.0348999985 0.914799988 0
vt 0.0103000002 0.931500018 0
vt 0.0119000003 0.897899985 0
vt 0.0461000018 0.872099996 0
vt 0.0267999992 0.882799983 0
vt 0.0373000018 0.851000011 0
vt 0.054299999 0.967599988 0
vt 0.0303000007 0.983399987 0
vt 0.0277999993 0.954699993 0
vt 0.393299997 0.877399981 0
vt 0.369199991 0.882000029 0
vt 0.372700006 0.850099981 0
vt 0.539600015 0.825399995 0
vt 0.509800017 0.82160002 0
vt 0.529799998 0.804199994 0
vt 0.513999999 0.792800009 0
vt 0.491299987 0.805599988 0
vt 0.497299999 0.765200019 0
vt 0.423999995 0.817499995 0
vt 0.442600012 0.838699996 0
vt 0.4199 0.875999987 0
vt 0.423999995 0.817499995 0
vt 0.426400006 0.797999978 0
vt 0.439500004 0.817600012 0
vt 0.793200016 0.873899996 0
vt 0.849099994 0.870400012 0
vt 0.809000015 0.896600008 0
vt 0.380400002 0.748000026 0
vt 0.411199987 0.758000016 0
vt 0.389499992 0.763300002 0
vt 0.409399986 0.796599984 0
vt 0.426400006 0.797999978 0
vt 0.423999995 0.817499995 0
vt 0.439599991 0.780399978 0
vt 0.474299997 0.769900024 0
vt 0.461499989 0.80339998 0
vt 0.340900004 0.787599981 0
vt 0.354600012 0.795899987 0
vt 0.337199986 0.803900003 0
vt 0.352400005 0.812300026 0
vt 0.370999992 0.801599979 0
vt 0.358399987 0.850399971 0
vt 0.0373000018 0.851000011 0
vt 0.00100000005 0.842999995 0
vt 0.0294000003 0.829400003 0
vt 0.411199987 0.758000016 0
vt 0.425799996 0.775900006 0
vt 0.409399986 0.778900027 0
vt 0.409399986 0.778900027 0
vt 0.425799996 0.775900006 0
vt 0.426400006 0.797999978 0
vt 0.054299999 0.967599988 0
vt 0.0653999969 0.983299971 0
vt 0.0303000007 0.983399987 0
vt 0.446799994 0.764500022 0
vt 0.485700011 0.746500015 0
vt 0.474299997 0.769900024 0
vt 0.911199987 0.912800014 0
vt 0.889599979 0.905900002 0
vt 0.905700028 0.887600005 0
vt 0.351300001 0.756200016 0
vt 0.380400002 0.748000026 0
vt 0.369599998 0.76639998 0
vt 0.363799989 0.786300004 0
vt 0.34799999 0.77579999 0
vt 0.369599998 0.76639998 0
vt 0.423999995 0.817499995 0
vt 0.439500004 0.817600012 0
vt 0.442600012 0.838699996 0
vt 0.459600002 0.835200012 0
vt 0.472000003 0.859099984 0
vt 0.448700011 0.863300025 0
vt 0.439599991 0.780399978 0
vt 0.461499989 0.80339998 0
vt 0.441100001 0.803200006 0
vt 0.441100001 0.803200006 0
vt 0.461499989 0.80339998 0
vt 0.457399994 0.818400025 0
vt 0.369199991 0.882000029 0
vt 0.345400006 0.851899981 0
vt 0.358399987 0.850399971 0
vt 0.345400006 0.851899981 0
vt 0.341800004 0.824999988 0
vt 0.358399987 0.850399971 0
vt 0.34799999 0.77579999 0
vt 0.351300001 0.756200016 0
vt 0.369599998 0.76639998 0
vt 0.809000015 0.896600008 0
vt 0.849099994 0.870400012 0
vt 0.852900028 0.897700012 0
vt 0.390799999 0.893000007 0
vt 0.379299998 0.909099996 0
vt 0.369199991 0.882000029 0
vt 0.386500001 0.775900006 0
vt 0.409399986 0.778900027 0
vt 0.383599997 0.788900018 0
vt 0.409399986 0.778900027 0
vt 0.426400006 0.797999978 0
vt 0.409399986 0.796599984 0
vt 0.968400002 0.867200017 0
vt 0.984899998 0.86650002 0
vt 0.977900028 0.888100028 0
vt 0.0373000018 0.851000011 0
vt 0.0294000003 0.829400003 0
vt 0.0516000018 0.83069998 0
vt 0.407599986 0.910399973 0
vt 0.379299998 0.909099996 0
vt 0.390799999 0.893000007 0
vt 0.429100007 0.89139998 0
vt 0.4199 0.875999987 0
vt 0.448700011 0.863300025 0
vt 0.480300009 0.824599981 0
vt 0.494500011 0.839600027 0
vt 0.459600002 0.835200012 0
vt 0.526300013 0.839299977 0
vt 0.494500011 0.839600027 0
vt 0.509800017 0.82160002 0
vt 0.0599000007 0.912400007 0
vt 0.0640999973 0.938000023 0
vt 0.0348999985 0.914799988 0
vt 0.0439000018 0.894200027 0
vt 0.0348999985 0.914799988 0
vt 0.0119000003 0.897899985 0
vt 0.0599000007 0.912400007 0
vt 0.0348999985 0.914799988 0
vt 0.0439000018 0.894200027 0
vt 0.370999992 0.801599979 0
vt 0.363799989 0.786300004 0
vt 0.383599997 0.788900018 0
vt 0.354600012 0.795899987 0
vt 0.370999992 0.801599979 0
vt 0.352400005 0.812300026 0
vt 0.871900022 0.876999974 0
vt 0.885299981 0.888199985 0
vt 0.852900028 0.897700012 0
vt 0.871900022 0.876999974 0
vt 0.852900028 0.897700012 0
vt 0.849099994 0.870400012 0
vt 0.459600002 0.835200012 0
vt 0.442600012 0.838699996 0
vt 0.439500004 0.817600012 0
vt 0.480300009 0.824599981 0
vt 0.459600002 0.835200012 0
vt 0.457399994 0.818400025 0
vt 0.509800017 0.82160002 0
vt 0.491299987 0.805599988 0
vt 0.513999999 0.792800009 0
vt 0.494500011 0.839600027 0
vt 0.480300009 0.824599981 0
vt 0.509800017 0.82160002 0
vt 0.337199986 0.803900003 0
vt 0.354600012 0.795899987 0
vt 0.352400005 0.812300026 0
vt 0.593100011 0.84740001 0
vt 0.561399996 0.867900014 0
vt 0.572399974 0.850000024 0
vt 0.0461000018 0.872099996 0
vt 0.0373000018 0.851000011 0
vt 0.0579000004 0.852999985 0
vt 0.0579000004 0.852999985 0
vt 0.0373000018 0.851000011 0
vt 0.0516000018 0.83069998 0
vt 0.054299999 0.967599988 0
vt 0.0277999993 0.954699993 0
vt 0.0640999973 0.938000023 0
vt 0.349400014 0.885500014 0
vt 0.345400006 0.851899981 0
vt 0.369199991 0.882000029 0
vt 0.363000005 0.910399973 0
vt 0.349400014 0.885500014 0
vt 0.369199991 0.882000029 0
vt 0.0439000018 0.894200027 0
vt 0.0119000003 0.897899985 0
vt 0.0267999992 0.882799983 0
vt 0.461499989 0.882600009 0
vt 0.448700011 0.863300025 0
vt 0.472000003 0.859099984 0
vt 0.413800001 0.740400016 0
vt 0.453700006 0.732900023 0
vt 0.431300014 0.756799996 0
vt 0.380400002 0.748000026 0
vt 0.413800001 0.740400016 0
vt 0.411199987 0.758000016 0
vt 0.509800017 0.82160002 0
vt 0.480300009 0.824599981 0
vt 0.491299987 0.805599988 0
vt 0.491299987 0.805599988 0
vt 0.480300009 0.824599981 0
vt 0.461499989 0.80339998 0
vt 0.526300013 0.839299977 0
vt 0.509800017 0.82160002 0
vt 0.539600015 0.825399995 0
vt 0.0516000018 0.83069998 0
vt 0.0294000003 0.829400003 0
vt 0.0392999984 0.812900007 0
vt 0.852900028 0.897700012 0
vt 0.885299981 0.888199985 0
vt 0.889599979 0.905900002 0
vt 0.889599979 0.905900002 0
vt 0.885299981 0.888199985 0
vt 0.905700028 0.887600005 0
vt 0.429100007 0.89139998 0
vt 0.407599986 0.910399973 0
vt 0.390799999 0.893000007 0
vt 0.0277999993 0.954699993 0
vt 0.0103000002 0.931500018 0
vt 0.0348999985 0.914799988 0
vt 0.413800001 0.740400016 0
vt 0.431300014 0.756799996 0
vt 0.411199987 0.758000016 0
vt 0.411199987 0.758000016 0
vt 0.431300014 0.756799996 0
vt 0.425799996 0.775900006 0
vt 0.370999992 0.801599979 0
vt 0.383599997 0.788900018 0
vt 0.409399986 0.796599984 0
vt 0.383599997 0.788900018 0
vt 0.409399986 0.778900027 0
vt 0.409399986 0.796599984 0
vt 0.774900019 0.884599984 0
vt 0.762799978 0.855099976 0
vt 0.793200016 0.873899996 0
vt 0.774900019 0.884599984 0
vt 0.793200016 0.873899996 0
vt 0.809000015 0.896600008 0
vt 0.489100009 0.866299987 0
vt 0.472000003 0.859099984 0
vt 0.494500011 0.839600027 0
vt 0.472000003 0.859099984 0
vt 0.489100009 0.866299987 0
vt 0.461499989 0.882600009 0
vt 0.911199987 0.912800014 0
vt 0.905700028 0.887600005 0
vt 0.91900003 0.886799991 0
vt 0.4199 0.875999987 0
vt 0.393299997 0.877399981 0
vt 0.372700006 0.850099981 0
vt 0.429100007 0.89139998 0
vt 0.390799999 0.893000007 0
vt 0.4199 0.875999987 0
vt 0.459600002 0.835200012 0
vt 0.448700011 0.863300025 0
vt 0.442600012 0.838699996 0
vt 0.448700011 0.863300025 0
vt 0.4199 0.875999987 0
vt 0.442600012 0.838699996 0
vt 0.593100011 0.84740001 0
vt 0.588500023 0.862600029 0
vt 0.561399996 0.867900014 0
vt 0.379299998 0.909099996 0
vt 0.363000005 0.910399973 0
vt 0.369199991 0.882000029 0
vt 0.0375000015 0.998099983 0
vt 0.0303000007 0.983399987 0
vt 0.0653999969 0.983299971 0
vt 0.0267999992 0.882799983 0
vt 0.0461000018 0.872099996 0
vt 0.0439000018 0.894200027 0
vt 0.0588000007 0.882600009 0
vt 0.0599000007 0.912400007 0
vt 0.0439000018 0.894200027 0
vt 0.439500004 0.817600012 0
vt 0.441100001 0.803200006 0
vt 0.457399994 0.818400025 0
vt 0.439500004 0.817600012 0
vt 0.457399994 0.818400025 0
vt 0.459600002 0.835200012 0
vt 0.358399987 0.850399971 0
vt 0.370999992 0.801599979 0
vt 0.372700006 0.850099981 0
vt 0.358399987 0.850399971 0
vt 0.372700006 0.850099981 0
vt 0.369199991 0.882000029 0
vt 0.446799994 0.764500022 0
vt 0.474299997 0.769900024 0
vt 0.439599991 0.780399978 0
vt 0.431300014 0.756799996 0
vt 0.446799994 0.764500022 0
vt 0.425799996 0.775900006 0
vt 0.425799996 0.775900006 0
vt 0.446799994 0.764500022 0
vt 0.439599991 0.780399978 0
vt 0.425799996 0.775900006 0
vt 0.439599991 0.780399978 0
vt 0.426400006 0.797999978 0
vt 0.474299997 0.769900024 0
vt 0.485700011 0.746500015 0
vt 0.497299999 0.765200019 0
vt 0.474299997 0.769900024 0
vt 0.497299999 0.765200019 0
vt 0.461499989 0.80339998 0
vt 0.0149999997 0.866299987 0
vt 0.0267999992 0.882799983 0
vt 0.0119000003 0.897899985 0
vt 0.0267999992 0.882799983 0
vt 0.0149999997 0.866299987 0
vt 0.0373000018 0.851000011 0
vt 0.957300007 0.896700025 0
vt 0.943400025 0.908900023 0
vt 0.91900003 0.886799991 0
vt 0.513999999 0.792800009 0
vt 0.529799998 0.804199994 0
vt 0.509800017 0.82160002 0
vt 0.0439000018 0.894200027 0
vt 0.0461000018 0.872099996 0
vt 0.0588000007 0.882600009 0
vt 0.0588000007 0.882600009 0
vt 0.0461000018 0.872099996 0
vt 0.0579000004 0.852999985 0
vt 0.369599998 0.76639998 0
vt 0.380400002 0.748000026 0
vt 0.389499992 0.763300002 0
vt 0.363799989 0.786300004 0
vt 0.369599998 0.76639998 0
vt 0.386500001 0.775900006 0
vt 0.0621000007 0.817600012 0
vt 0.0516000018 0.83069998 0
vt 0.0392999984 0.812900007 0
vt 0.386500001 0.775900006 0
vt 0.389499992 0.763300002 0
vt 0.409399986 0.778900027 0
vt 0.369599998 0.76639998 0
vt 0.389499992 0.763300002 0
vt 0.386500001 0.775900006 0
vt 0.340900004 0.787599981 0
vt 0.34799999 0.77579999 0
vt 0.363799989 0.786300004 0
vt 0.4199 0.875999987 0
vt 0.390799999 0.893000007 0
vt 0.393299997 0.877399981 0
vt 0.390799999 0.893000007 0
vt 0.369199991 0.882000029 0
vt 0.393299997 0.877399981 0
vt 0.340900004 0.787599981 0
vt 0.363799989 0.786300004 0
vt 0.354600012 0.795899987 0
vt 0.370999992 0.801599979 0
vt 0.354600012 0.795899987 0
vt 0.363799989 0.786300004 0
vt 0.426400006 0.797999978 0
vt 0.439599991 0.780399978 0
vt 0.441100001 0.803200006 0
vt 0.426400006 0.797999978 0
vt 0.441100001 0.803200006 0
vt 0.439500004 0.817600012 0
vt 0.341800004 0.824999988 0
vt 0.337199986 0.803900003 0
vt 0.352400005 0.812300026 0
vt 0.341800004 0.824999988 0
vt 0.352400005 0.812300026 0
vt 0.358399987 0.850399971 0
vt 0.0675000027 0.833000004 0
vt 0.0579000004 0.852999985 0
vt 0.0516000018 0.83069998 0
vt 0.0675000027 0.833000004 0
vt 0.0516000018 0.83069998 0
vt 0.0621000007 0.817600012 0
vn -0.808149159 -0.0736588687 -0.584353685
vn -0.788525283 -0.490426093 -0.371093065
vn -0.918893695 -0.168188527 -0.356857181
vn 0.89970845 0.433568269 0.0504321679
vn 0.720634103 0.657764435 -0.219163135
vn 0.677234173 0.701087236 0.223227367
vn 0.200890943 0.603545189 0.771606207
vn 0.244724512 0.781248868 0.574247539
vn -0.00581999728 0.642231643 0.766488433
vn -0.177306652 0.976931632 0.119025007
vn -0.386807024 0.917376518 0.0938121527
vn -0.264760673 0.922644138 0.280409843
vn 0.251506001 0.690435886 -0.678264737
vn -0.081165947 0.689268529 -0.719945133
vn 0.0785276443 0.784410894 -0.61525023
vn -0.928345561 0.29422015 0.227175936
vn -0.67488277 0.698127031 0.239064366
vn -0.803545654 0.591941655 -0.062603794
vn -0.879130304 0.127688542 -0.459157467
vn -0.808149159 -0.0736588687 -0.584353685
vn -0.957089007 0.00250015338 -0.289783329
vn -0.0634363145 0.882323146 -0.466349274
vn -0.081165947 0.689268529 -0.719945133
vn -0.339551896 0.749566734 -0.568202615
vn 0.857624352 0.465476722 -0.218659088
vn 0.89970845 0.433568269 0.0504321679
vn 0.956739962 0.2312738 -0.176524699
vn 0.302409083 0.217090905 -0.928127348
vn 0.431744754 0.119339295 -0.894066334
vn 0.344700396 -0.0410419591 -0.93781507
vn 0.0549959093 0.10703399 0.992733121
vn -0.0724041983 0.0808295459 0.99409461
vn -0.12706773 -0.134415165 0.982744277
vn -0.801552832 -0.109588034 0.587795377
vn -0.965896964 -0.0771547183 0.247164071
vn -0.860482931 -0.247372806 0.445394218
vn 0.730635405 -0.117139883 -0.672644198
vn 0.826624513 0.155715972 -0.540781438
vn 0.950632453 -0.0925118104 -0.29620862
vn -0.108644493 0.984813094 -0.135423899
vn -0.348792523 0.927343547 -0.135564655
vn -0.177306652 0.976931632 0.119025007
vn 0.571004272 0.703665733 -0.422857732
vn 0.46321404 0.859134316 -0.217534184
vn 0.61844486 0.785753846 0.0108111836
vn 0.526560843 0.257454723 0.810216546
vn 0.761436164 0.553162098 0.33797428
vn 0.519043386 0.680756867 0.516879201
vn 0.797214925 0.18782562 0.573733211
vn 0.526560843 0.257454723 0.810216546
vn 0.59688884 -0.0662707239 0.799582362
vn 0.340134203 -0.180006176 0.922987759
vn 0.215482473 0.035774488 0.975852132
vn 0.0839356929 -0.102265559 0.991209626
vn -0.595608473 0.502470434 -0.626716912
vn -0.340564787 0.504279792 -0.793547392
vn -0.618894339 0.307440728 -0.72280699
vn 0.237406194 0.0546564683 -0.96987164
vn 0.166208163 0.263193399 -0.95031786
vn 0.302409083 0.217090905 -0.928127348
vn -0.979513347 0.189698011 -0.0675879121
vn -0.909460902 0.191588223 -0.369018912
vn -0.957089007 0.00250015338 -0.289783329
vn -0.989769995 -0.14203611 0.0134553239
vn -0.940860093 -0.322511762 -0.103770837
vn -0.840359747 -0.526920259 0.127084762
vn -0.38267985 0.252490073 -0.888709724
vn -0.0645057783 0.339275777 -0.938472688
vn -0.104023568 0.130004406 -0.986041605
vn -0.532105148 -0.201350093 -0.822388113
vn -0.158504233 -0.155290201 -0.97506988
vn -0.190512463 -0.451594055 -0.871646583
vn -0.873367965 0.0973948911 0.477223963
vn -0.710922301 -0.000729302352 0.703270257
vn -0.729359269 0.397905052 0.556512952
vn -0.0216303952 0.836112678 0.548131108
vn -0.276741445 0.817051649 0.505807102
vn -0.156707376 0.661915362 0.733014882
vn 0.268642694 -0.331574291 -0.904372513
vn 0.271600664 -0.133492365 -0.953106999
vn 0.423276871 -0.277500093 -0.862456083
vn -0.710922301 -0.000729302352 0.703270257
vn -0.53896296 0.217851043 0.813670516
vn -0.729359269 0.397905052 0.556512952
vn -0.309743464 -0.214636683 0.926277578
vn -0.12706773 -0.134415165 0.982744277
vn -0.252250165 0.106453843 0.961788595
vn 0.61844486 0.785753846 0.0108111836
vn 0.339785218 0.939988554 -0.0311023612
vn 0.3076258 0.935716927 0.1726273
vn 0.519043386 0.680756867 0.516879201
vn 0.244724512 0.781248868 0.574247539
vn 0.200890943 0.603545189 0.771606207
vn -0.808149159 -0.0736588687 -0.584353685
vn -0.630793214 -0.499085993 -0.594149053
vn -0.788525283 -0.490426093 -0.371093065
vn -0.895123303 -0.35307321 0.272201419
vn -0.989769995 -0.14203611 0.0134553239
vn -0.840359747 -0.526920259 0.127084762
vn 0.431744754 0.119339295 -0.894066334
vn 0.371990025 0.333728373 -0.866169095
vn 0.561196148 0.308338523 -0.768105626
vn 0.720634103 0.657764435 -0.219163135
vn 0.571004272 0.703665733 -0.422857732
vn 0.61844486 0.785753846 0.0108111836
vn -0.178397641 0.936062872 -0.303250343
vn -0.337482095 0.850738883 -0.40292576
vn -0.348792523 0.927343547 -0.135564655
vn -0.860798895 0.415277034 -0.294228286
vn -0.979513347 0.189698011 -0.0675879121
vn -0.803545654 0.591941655 -0.062603794
vn 0.950632453 -0.0925118104 -0.29620862
vn 0.731193602 -0.411069274 -0.544406116
vn 0.730635405 -0.117139883 -0.672644198
vn -0.464190662 0.824672997 -0.323174119
vn -0.569914758 0.662963569 -0.485465258
vn -0.636802197 0.721422315 -0.272089541
vn -0.595608473 0.502470434 -0.626716912
vn -0.339551896 0.749566734 -0.568202615
vn -0.340564787 0.504279792 -0.793547392
vn 0.720634103 0.657764435 -0.219163135
vn 0.61844486 0.785753846 0.0108111836
vn 0.677234173 0.701087236 0.223227367
vn 0.677234173 0.701087236 0.223227367
vn 0.617440939 0.777546287 0.119115211
vn 0.305053204 0.878854036 0.366821527
vn 0.40556553 0.50631696 -0.761025429
vn 0.571004272 0.703665733 -0.422857732
vn 0.697663248 0.467935741 -0.542496264
vn 0.302409083 0.217090905 -0.928127348
vn 0.166208163 0.263193399 -0.95031786
vn 0.219136 0.512724698 -0.830116093
vn 0.339785218 0.939988554 -0.0311023612
vn 0.0386305712 0.997581899 0.0577764921
vn 0.3076258 0.935716927 0.1726273
vn -0.138950318 0.905511081 0.400927156
vn -0.177306652 0.976931632 0.119025007
vn -0.264760673 0.922644138 0.280409843
vn -0.879130304 0.127688542 -0.459157467
vn -0.756092131 0.16782251 -0.632582366
vn -0.808149159 -0.0736588687 -0.584353685
vn -0.38267985 0.252490073 -0.888709724
vn -0.346830547 0.0224435795 -0.937659264
vn -0.609680057 0.0702788159 -0.789525867
vn -0.979513347 0.189698011 -0.0675879121
vn -0.957089007 0.00250015338 -0.289783329
vn -0.989769995 -0.14203611 0.0134553239
vn -0.873367965 0.0973948911 0.477223963
vn -0.965896964 -0.0771547183 0.247164071
vn -0.801552832 -0.109588034 0.587795377
vn 0.89970845 0.433568269 0.0504321679
vn 0.677234173 0.701087236 0.223227367
vn 0.761436164 0.553162098 0.33797428
vn 0.89970845 0.433568269 0.0504321679
vn 0.949355543 -0.0291340929 0.312850326
vn 0.996989429 0.00614324445 0.0772937313
vn 0.383233815 0.454791605 0.803925574
vn 0.526560843 0.257454723 0.810216546
vn 0.519043386 0.680756867 0.516879201
vn -0.0270596948 0.345132291 0.938163936
vn 0.0549959093 0.10703399 0.992733121
vn 0.179602981 0.325936556 0.928174615
vn 0.0923182443 -0.00108498975 -0.99572897
vn 0.166208163 0.263193399 -0.95031786
vn 0.237406194 0.0546564683 -0.96987164
vn 0.268642694 -0.331574291 -0.904372513
vn 0.150641054 -0.183572426 -0.971395075
vn 0.271600664 -0.133492365 -0.953106999
vn 0.251506001 0.690435886 -0.678264737
vn 0.0785276443 0.784410894 -0.61525023
vn 0.217242271 0.86418879 -0.453853965
vn 0.137372181 0.960604846 -0.241593122
vn -0.108644493 0.984813094 -0.135423899
vn 0.0386305712 0.997581899 0.0577764921
vn -0.386807024 0.917376518 0.0938121527
vn -0.566473901 0.823742509 -0.0235728286
vn -0.67488277 0.698127031 0.239064366
vn -0.464190662 0.824672997 -0.323174119
vn -0.636802197 0.721422315 -0.272089541
vn -0.348792523 0.927343547 -0.135564655
vn 0.251506001 0.690435886 -0.678264737
vn 0.571004272 0.703665733 -0.422857732
vn 0.40556553 0.50631696 -0.761025429
vn 0.217242271 0.86418879 -0.453853965
vn 0.404418737 0.77353847 -0.487938225
vn 0.251506001 0.690435886 -0.678264737
vn 0.200890943 0.603545189 0.771606207
vn -0.00581999728 0.642231643 0.766488433
vn -0.0270596948 0.345132291 0.938163936
vn -0.156707376 0.661915362 0.733014882
vn -0.276741445 0.817051649 0.505807102
vn -0.416348159 0.561808407 0.714860559
vn 0.0456471853 0.489004374 -0.871086121
vn -0.081165947 0.689268529 -0.719945133
vn 0.219136 0.512724698 -0.830116093
vn -0.0645057783 0.339275777 -0.938472688
vn -0.38267985 0.252490073 -0.888709724
vn -0.340564787 0.504279792 -0.793547392
vn 0.526560843 0.257454723 0.810216546
vn 0.340134203 -0.180006176 0.922987759
vn 0.59688884 -0.0662707239 0.799582362
vn -0.386807024 0.917376518 0.0938121527
vn -0.484235793 0.769182622 0.416981846
vn -0.264760673 0.922644138 0.280409843
vn -0.416348159 0.561808407 0.714860559
vn -0.276741445 0.817051649 0.505807102
vn -0.484235793 0.769182622 0.416981846
vn -0.53896296 0.217851043 0.813670516
vn -0.710922301 -0.000729302352 0.703270257
vn -0.461621761 -0.102351464 0.881152451
vn -0.156707376 0.661915362 0.733014882
vn -0.416348159 0.561808407 0.714860559
vn -0.253485024 0.376579255 0.891029418
vn -0.252250165 0.106453843 0.961788595
vn -0.53896296 0.217851043 0.813670516
vn -0.461621761 -0.102351464 0.881152451
vn 0.892536759 0.371275544 0.255993336
vn 0.949355543 -0.0291340929 0.312850326
vn 0.89970845 0.433568269 0.0504321679
vn 0.797214925 0.18782562 0.573733211
vn 0.815866649 -0.124331817 0.564715087
vn 0.949355543 -0.0291340929 0.312850326
vn 0.179602981 0.325936556 0.928174615
vn 0.215482473 0.035774488 0.975852132
vn 0.526560843 0.257454723 0.810216546
vn 0.340134203 -0.180006176 0.922987759
vn 0.526560843 0.257454723 0.810216546
vn 0.215482473 0.035774488 0.975852132
vn 0.137372181 0.960604846 -0.241593122
vn -0.0634363145 0.882323146 -0.466349274
vn -0.178397641 0.936062872 -0.303250343
vn -0.0634363145 0.882323146 -0.466349274
vn -0.337482095 0.850738883 -0.40292576
vn -0.178397641 0.936062872 -0.303250343
vn -0.618894339 0.307440728 -0.72280699
vn -0.38267985 0.252490073 -0.888709724
vn -0.609680057 0.0702788159 -0.789525867
vn -0.618894339 0.307440728 -0.72280699
vn -0.340564787 0.504279792 -0.793547392
vn -0.38267985 0.252490073 -0.888709724
vn -0.410722136 -0.568080544 -0.713156164
vn -0.532105148 -0.201350093 -0.822388113
vn -0.190512463 -0.451594055 -0.871646583
vn -0.763024271 0.44615519 -0.467695951
vn -0.860798895 0.415277034 -0.294228286
vn -0.636802197 0.721422315 -0.272089541
vn -0.879130304 0.127688542 -0.459157467
vn -0.785775483 0.281775624 -0.550599158
vn -0.756092131 0.16782251 -0.632582366
vn 0.605609536 0.110226199 -0.788090944
vn 0.826624513 0.155715972 -0.540781438
vn 0.730635405 -0.117139883 -0.672644198
vn 0.344700396 -0.0410419591 -0.93781507
vn 0.495411128 -0.0907695368 -0.863903165
vn 0.423276871 -0.277500093 -0.862456083
vn 0.423276871 -0.277500093 -0.862456083
vn 0.495411128 -0.0907695368 -0.863903165
vn 0.592285633 -0.326208353 -0.736739993
vn 0.826624513 0.155715972 -0.540781438
vn 0.605609536 0.110226199 -0.788090944
vn 0.561196148 0.308338523 -0.768105626
vn 0.89970845 0.433568269 0.0504321679
vn 0.857624352 0.465476722 -0.218659088
vn 0.720634103 0.657764435 -0.219163135
vn -0.532105148 -0.201350093 -0.822388113
vn -0.630793214 -0.499085993 -0.594149053
vn -0.808149159 -0.0736588687 -0.584353685
vn -0.808149159 -0.0736588687 -0.584353685
vn -0.756092131 0.16782251 -0.632582366
vn -0.609680057 0.0702788159 -0.789525867
vn -0.860482931 -0.247372806 0.445394218
vn -0.965896964 -0.0771547183 0.247164071
vn -0.895123303 -0.35307321 0.272201419
vn 0.3076258 0.935716927 0.1726273
vn 0.0386305712 0.997581899 0.0577764921
vn 0.00164552138 0.949247062 0.314527005
vn 0.3076258 0.935716927 0.1726273
vn 0.305053204 0.878854036 0.366821527
vn 0.617440939 0.777546287 0.119115211
vn 0.3076258 0.935716927 0.1726273
vn 0.00164552138 0.949247062 0.314527005
vn 0.305053204 0.878854036 0.366821527
vn 0.244724512 0.781248868 0.574247539
vn -0.0216303952 0.836112678 0.548131108
vn -0.00581999728 0.642231643 0.766488433
vn -0.803545654 0.591941655 -0.062603794
vn -0.979513347 0.189698011 -0.0675879121
vn -0.928345561 0.29422015 0.227175936
vn -0.928345561 0.29422015 0.227175936
vn -0.979513347 0.189698011 -0.0675879121
vn -0.965896964 -0.0771547183 0.247164071
vn -0.081165947 0.689268529 -0.719945133
vn -0.340564787 0.504279792 -0.793547392
vn -0.339551896 0.749566734 -0.568202615
vn -0.081165947 0.689268529 -0.719945133
vn 0.0456471853 0.489004374 -0.871086121
vn -0.340564787 0.504279792 -0.793547392
vn 0.302409083 0.217090905 -0.928127348
vn 0.371990025 0.333728373 -0.866169095
vn 0.431744754 0.119339295 -0.894066334
vn 0.302409083 0.217090905 -0.928127348
vn 0.219136 0.512724698 -0.830116093
vn 0.371990025 0.333728373 -0.866169095
vn -0.785775483 0.281775624 -0.550599158
vn -0.879130304 0.127688542 -0.459157467
vn -0.909460902 0.191588223 -0.369018912
vn -0.957089007 0.00250015338 -0.289783329
vn -0.909460902 0.191588223 -0.369018912
vn -0.879130304 0.127688542 -0.459157467
vn -0.177306652 0.976931632 0.119025007
vn -0.348792523 0.927343547 -0.135564655
vn -0.386807024 0.917376518 0.0938121527
vn -0.348792523 0.927343547 -0.135564655
vn -0.566473901 0.823742509 -0.0235728286
vn -0.386807024 0.917376518 0.0938121527
vn -0.965896964 -0.0771547183 0.247164071
vn -0.979513347 0.189698011 -0.0675879121
vn -0.989769995 -0.14203611 0.0134553239
vn -0.965896964 -0.0771547183 0.247164071
vn -0.989769995 -0.14203611 0.0134553239
vn -0.895123303 -0.35307321 0.272201419
vn 0.150641054 -0.183572426 -0.971395075
vn 0.0923182443 -0.00108498975 -0.99572897
vn 0.271600664 -0.133492365 -0.953106999
vn -0.104023568 0.130004406 -0.986041605
vn -0.346830547 0.0224435795 -0.937659264
vn -0.38267985 0.252490073 -0.888709724
vn -0.12706773 -0.134415165 0.982744277
vn 0.0839356929 -0.102265559 0.991209626
vn 0.0549959093 0.10703399 0.992733121
vn 0.826624513 0.155715972 -0.540781438
vn 0.697663248 0.467935741 -0.542496264
vn 0.857624352 0.465476722 -0.218659088
vn 0.826624513 0.155715972 -0.540781438
vn 0.857624352 0.465476722 -0.218659088
vn 0.956739962 0.2312738 -0.176524699
vn 0.0386305712 0.997581899 0.0577764921
vn -0.108644493 0.984813094 -0.135423899
vn -0.177306652 0.976931632 0.119025007
vn 0.0386305712 0.997581899 0.0577764921
vn -0.177306652 0.976931632 0.119025007
vn 0.00164552138 0.949247062 0.314527005
vn 0.950632453 -0.0925118104 -0.29620862
vn 0.826624513 0.155715972 -0.540781438
vn 0.956739962 0.2312738 -0.176524699
vn 0.996989429 0.00614324445 0.0772937313
vn 0.949355543 -0.0291340929 0.312850326
vn 0.934369147 -0.352792025 0.0499196537
vn 0.519043386 0.680756867 0.516879201
vn 0.761436164 0.553162098 0.33797428
vn 0.677234173 0.701087236 0.223227367
vn 0.677234173 0.701087236 0.223227367
vn 0.305053204 0.878854036 0.366821527
vn 0.519043386 0.680756867 0.516879201
vn 0.697663248 0.467935741 -0.542496264
vn 0.571004272 0.703665733 -0.422857732
vn 0.720634103 0.657764435 -0.219163135
vn 0.857624352 0.465476722 -0.218659088
vn 0.697663248 0.467935741 -0.542496264
vn 0.720634103 0.657764435 -0.219163135
vn -0.416348159 0.561808407 0.714860559
vn -0.53896296 0.217851043 0.813670516
vn -0.253485024 0.376579255 0.891029418
vn -0.729359269 0.397905052 0.556512952
vn -0.53896296 0.217851043 0.813670516
vn -0.416348159 0.561808407 0.714860559
vn 0.217242271 0.86418879 -0.453853965
vn -0.0634363145 0.882323146 -0.466349274
vn 0.137372181 0.960604846 -0.241593122
vn 0.46321404 0.859134316 -0.217534184
vn 0.339785218 0.939988554 -0.0311023612
vn 0.61844486 0.785753846 0.0108111836
vn -0.636802197 0.721422315 -0.272089541
vn -0.860798895 0.415277034 -0.294228286
vn -0.803545654 0.591941655 -0.062603794
vn -0.636802197 0.721422315 -0.272089541
vn -0.566473901 0.823742509 -0.0235728286
vn -0.348792523 0.927343547 -0.135564655
vn -0.0724041983 0.0808295459 0.99409461
vn 0.0549959093 0.10703399 0.992733121
vn -0.0270596948 0.345132291 0.938163936
vn -0.253485024 0.376579255 0.891029418
vn -0.0270596948 0.345132291 0.938163936
vn -0.156707376 0.661915362 0.733014882
vn 0.200890943 0.603545189 0.771606207
vn -0.0270596948 0.345132291 0.938163936
vn 0.179602981 0.325936556 0.928174615
vn 0.519043386 0.680756867 0.516879201
vn 0.200890943 0.603545189 0.771606207
vn 0.383233815 0.454791605 0.803925574
vn 0.40556553 0.50631696 -0.761025429
vn 0.219136 0.512724698 -0.830116093
vn 0.251506001 0.690435886 -0.678264737
vn 0.219136 0.512724698 -0.830116093
vn -0.081165947 0.689268529 -0.719945133
vn 0.251506001 0.690435886 -0.678264737
vn -0.461621761 -0.102351464 0.881152451
vn -0.710922301 -0.000729302352 0.703270257
vn -0.56574142 -0.253341645 0.784700334
vn -0.729359269 0.397905052 0.556512952
vn -0.416348159 0.561808407 0.714860559
vn -0.484235793 0.769182622 0.416981846
vn -0.67488277 0.698127031 0.239064366
vn -0.928345561 0.29422015 0.227175936
vn -0.729359269 0.397905052 0.556512952
vn -0.158504233 -0.155290201 -0.97506988
vn 0.0923182443 -0.00108498975 -0.99572897
vn 0.150641054 -0.183572426 -0.971395075
vn -0.190512463 -0.451594055 -0.871646583
vn -0.158504233 -0.155290201 -0.97506988
vn 0.0256407075 -0.314150125 -0.949027002
vn -0.339551896 0.749566734 -0.568202615
vn -0.569914758 0.662963569 -0.485465258
vn -0.337482095 0.850738883 -0.40292576
vn -0.0634363145 0.882323146 -0.466349274
vn -0.339551896 0.749566734 -0.568202615
vn -0.337482095 0.850738883 -0.40292576
vn -0.989769995 -0.14203611 0.0134553239
vn -0.957089007 0.00250015338 -0.289783329
vn -0.940860093 -0.322511762 -0.103770837
vn -0.957089007 0.00250015338 -0.289783329
vn -0.808149159 -0.0736588687 -0.584353685
vn -0.918893695 -0.168188527 -0.356857181
vn 0.46321404 0.859134316 -0.217534184
vn 0.137372181 0.960604846 -0.241593122
vn 0.339785218 0.939988554 -0.0311023612
vn 0.339785218 0.939988554 -0.0311023612
vn 0.137372181 0.960604846 -0.241593122
vn 0.0386305712 0.997581899 0.0577764921
vn 0.797214925 0.18782562 0.573733211
vn 0.761436164 0.553162098 0.33797428
vn 0.526560843 0.257454723 0.810216546
vn 0.892536759 0.371275544 0.255993336
vn 0.89970845 0.433568269 0.0504321679
vn 0.761436164 0.553162098 0.33797428
vn -0.609680057 0.0702788159 -0.789525867
vn -0.346830547 0.0224435795 -0.937659264
vn -0.532105148 -0.201350093 -0.822388113
vn -0.808149159 -0.0736588687 -0.584353685
vn -0.609680057 0.0702788159 -0.789525867
vn -0.532105148 -0.201350093 -0.822388113
vn 0.617440939 0.777546287 0.119115211
vn 0.61844486 0.785753846 0.0108111836
vn 0.3076258 0.935716927 0.1726273
vn 0.677234173 0.701087236 0.223227367
vn 0.61844486 0.785753846 0.0108111836
vn 0.617440939 0.777546287 0.119115211
vn 0.217242271 0.86418879 -0.453853965
vn 0.137372181 0.960604846 -0.241593122
vn 0.46321404 0.859134316 -0.217534184
vn 0.404418737 0.77353847 -0.487938225
vn 0.217242271 0.86418879 -0.453853965
vn 0.46321404 0.859134316 -0.217534184
vn -0.0724041983 0.0808295459 0.99409461
vn -0.252250165 0.106453843 0.961788595
vn -0.12706773 -0.134415165 0.982744277
vn -0.252250165 0.106453843 0.961788595
vn -0.0724041983 0.0808295459 0.99409461
vn -0.0270596948 0.345132291 0.938163936
vn -0.785775483 0.281775624 -0.550599158
vn -0.618894339 0.307440728 -0.72280699
vn -0.756092131 0.16782251 -0.632582366
vn -0.756092131 0.16782251 -0.632582366
vn -0.618894339 0.307440728 -0.72280699
vn -0.609680057 0.0702788159 -0.789525867
vn 0.934369147 -0.352792025 0.0499196537
vn 0.950632453 -0.0925118104 -0.29620862
vn 0.996989429 0.00614324445 0.0772937313
vn -0.138950318 0.905511081 0.400927156
vn -0.264760673 0.922644138 0.280409843
vn -0.276741445 0.817051649 0.505807102
vn -0.484235793 0.769182622 0.416981846
vn -0.276741445 0.817051649 0.505807102
vn -0.264760673 0.922644138 0.280409843
vn 0.0785276443 0.784410894 -0.61525023
vn -0.081165947 0.689268529 -0.719945133
vn -0.0634363145 0.882323146 -0.466349274
vn 0.0785276443 0.784410894 -0.61525023
vn -0.0634363145 0.882323146 -0.466349274
vn 0.217242271 0.86418879 -0.453853965
vn 0.761436164 0.553162098 0.33797428
vn 0.797214925 0.18782562 0.573733211
vn 0.892536759 0.371275544 0.255993336
vn 0.892536759 0.371275544 0.255993336
vn 0.797214925 0.18782562 0.573733211
vn 0.949355543 -0.0291340929 0.312850326
vn 0.950632453 -0.0925118104 -0.29620862
vn 0.956739962 0.2312738 -0.176524699
vn 0.996989429 0.00614324445 0.0772937313
vn 0.996989429 0.00614324445 0.0772937313
vn 0.956739962 0.2312738 -0.176524699
vn 0.89970845 0.433568269 0.0504321679
vn 0.237406194 0.0546564683 -0.96987164
vn 0.302409083 0.217090905 -0.928127348
vn 0.344700396 -0.0410419591 -0.93781507
vn 0.0923182443 -0.00108498975 -0.99572897
vn 0.237406194 0.0546564683 -0.96987164
vn 0.271600664 -0.133492365 -0.953106999
vn -0.309743464 -0.214636683 0.926277578
vn -0.461621761 -0.102351464 0.881152451
vn -0.56574142 -0.253341645 0.784700334
vn -0.252250165 0.106453843 0.961788595
vn -0.461621761 -0.102351464 0.881152451
vn -0.309743464 -0.214636683 0.926277578
vn -0.957089007 0.00250015338 -0.289783329
vn -0.918893695 -0.168188527 -0.356857181
vn -0.940860093 -0.322511762 -0.103770837
vn 0.271600664 -0.133492365 -0.953106999
vn 0.237406194 0.0546564683 -0.96987164
vn 0.344700396 -0.0410419591 -0.93781507
vn 0.344700396 -0.0410419591 -0.93781507
vn 0.423276871 -0.277500093 -0.862456083
vn 0.271600664 -0.133492365 -0.953106999
vn 0.0839356929 -0.102265559 0.991209626
vn 0.215482473 0.035774488 0.975852132
vn 0.0549959093 0.10703399 0.992733121
vn 0.0549959093 0.10703399 0.992733121
vn 0.215482473 0.035774488 0.975852132
vn 0.179602981 0.325936556 0.928174615
vn -0.928345561 0.29422015 0.227175936
vn -0.873367965 0.0973948911 0.477223963
vn -0.729359269 0.397905052 0.556512952
vn -0.928345561 0.29422015 0.227175936
vn -0.965896964 -0.0771547183 0.247164071
vn -0.873367965 0.0973948911 0.477223963
vn -0.569914758 0.662963569 -0.485465258
vn -0.763024271 0.44615519 -0.467695951
vn -0.636802197 0.721422315 -0.272089541
vn -0.785775483 0.281775624 -0.550599158
vn -0.595608473 0.502470434 -0.626716912
vn -0.618894339 0.307440728 -0.72280699
vn 0.876939237 -0.404877841 -0.258943081
vn 0.950632453 -0.0925118104 -0.29620862
vn 0.934369147 -0.352792025 0.0499196537
vn 0.876939237 -0.404877841 -0.258943081
vn 0.731193602 -0.411069274 -0.544406116
vn 0.950632453 -0.0925118104 -0.29620862
vn -0.0216303952 0.836112678 0.548131108
vn 0.305053204 0.878854036 0.366821527
vn 0.00164552138 0.949247062 0.314527005
vn -0.138950318 0.905511081 0.400927156
vn -0.276741445 0.817051649 0.505807102
vn -0.0216303952 0.836112678 0.548131108
vn -0.484235793 0.769182622 0.416981846
vn -0.67488277 0.698127031 0.239064366
vn -0.729359269 0.397905052 0.556512952
vn -0.386807024 0.917376518 0.0938121527
vn -0.67488277 0.698127031 0.239064366
vn -0.484235793 0.769182622 0.416981846
vn 0.137372181 0.960604846 -0.241593122
vn -0.178397641 0.936062872 -0.303250343
vn -0.108644493 0.984813094 -0.135423899
vn -0.178397641 0.936062872 -0.303250343
vn -0.348792523 0.927343547 -0.135564655
vn -0.108644493 0.984813094 -0.135423899
vn -0.339551896 0.749566734 -0.568202615
vn -0.595608473 0.502470434 -0.626716912
vn -0.569914758 0.662963569 -0.485465258
vn -0.595608473 0.502470434 -0.626716912
vn -0.763024271 0.44615519 -0.467695951
vn -0.569914758 0.662963569 -0.485465258
vn -0.801552832 -0.109588034 0.587795377
vn -0.56574142 -0.253341645 0.784700334
vn -0.710922301 -0.000729302352 0.703270257
vn -0.710922301 -0.000729302352 0.703270257
vn -0.873367965 0.0973948911 0.477223963
vn -0.801552832 -0.109588034 0.587795377
vn -0.0216303952 0.836112678 0.548131108
vn -0.156707376 0.661915362 0.733014882
vn -0.00581999728 0.642231643 0.766488433
vn -0.0270596948 0.345132291 0.938163936
vn -0.00581999728 0.642231643 0.766488433
vn -0.156707376 0.661915362 0.733014882
vn 0.571004272 0.703665733 -0.422857732
vn 0.251506001 0.690435886 -0.678264737
vn 0.404418737 0.77353847 -0.487938225
vn 0.571004272 0.703665733 -0.422857732
vn 0.404418737 0.77353847 -0.487938225
vn 0.46321404 0.859134316 -0.217534184
vn -0.340564787 0.504279792 -0.793547392
vn 0.0456471853 0.489004374 -0.871086121
vn -0.0645057783 0.339275777 -0.938472688
vn 0.166208163 0.263193399 -0.95031786
vn 0.0456471853 0.489004374 -0.871086121
vn 0.219136 0.512724698 -0.830116093
vn 0.495411128 -0.0907695368 -0.863903165
vn 0.730635405 -0.117139883 -0.672644198
vn 0.592285633 -0.326208353 -0.736739993
vn 0.592285633 -0.326208353 -0.736739993
vn 0.730635405 -0.117139883 -0.672644198
vn 0.731193602 -0.411069274 -0.544406116
vn 0.371990025 0.333728373 -0.866169095
vn 0.219136 0.512724698 -0.830116093
vn 0.40556553 0.50631696 -0.761025429
vn 0.371990025 0.333728373 -0.866169095
vn 0.40556553 0.50631696 -0.761025429
vn 0.561196148 0.308338523 -0.768105626
vn -0.803545654 0.591941655 -0.062603794
vn -0.67488277 0.698127031 0.239064366
vn -0.566473901 0.823742509 -0.0235728286
vn -0.636802197 0.721422315 -0.272089541
vn -0.803545654 0.591941655 -0.062603794
vn -0.566473901 0.823742509 -0.0235728286
vn 0.00164552138 0.949247062 0.314527005
vn -0.177306652 0.976931632 0.119025007
vn -0.138950318 0.905511081 0.400927156
vn 0.00164552138 0.949247062 0.314527005
vn -0.138950318 0.905511081 0.400927156
vn -0.0216303952 0.836112678 0.548131108
vn -0.104023568 0.130004406 -0.986041605
vn 0.166208163 0.263193399 -0.95031786
vn 0.0923182443 -0.00108498975 -0.99572897
vn -0.158504233 -0.155290201 -0.97506988
vn -0.104023568 0.130004406 -0.986041605
vn 0.0923182443 -0.00108498975 -0.99572897
vn -0.253485024 0.376579255 0.891029418
vn -0.252250165 0.106453843 0.961788595
vn -0.0270596948 0.345132291 0.938163936
vn -0.252250165 0.106453843 0.961788595
vn -0.253485024 0.376579255 0.891029418
vn -0.53896296 0.217851043 0.813670516
vn 0.797214925 0.18782562 0.573733211
vn 0.59688884 -0.0662707239 0.799582362
vn 0.815866649 -0.124331817 0.564715087
vn 0.244724512 0.781248868 0.574247539
vn 0.305053204 0.878854036 0.366821527
vn -0.0216303952 0.836112678 0.548131108
vn 0.244724512 0.781248868 0.574247539
vn 0.519043386 0.680756867 0.516879201
vn 0.305053204 0.878854036 0.366821527
vn -0.763024271 0.44615519 -0.467695951
vn -0.909460902 0.191588223 -0.369018912
vn -0.860798895 0.415277034 -0.294228286
vn -0.860798895 0.415277034 -0.294228286
vn -0.909460902 0.191588223 -0.369018912
vn -0.979513347 0.189698011 -0.0675879121
vn 0.179602981 0.325936556 0.928174615
vn 0.526560843 0.257454723 0.810216546
vn 0.383233815 0.454791605 0.803925574
vn 0.179602981 0.325936556 0.928174615
vn 0.383233815 0.454791605 0.803925574
vn 0.200890943 0.603545189 0.771606207
vn -0.104023568 0.130004406 -0.986041605
vn -0.0645057783 0.339275777 -0.938472688
vn 0.166208163 0.263193399 -0.95031786
vn -0.0645057783 0.339275777 -0.938472688
vn 0.0456471853 0.489004374 -0.871086121
vn 0.166208163 0.263193399 -0.95031786
vn 0.344700396 -0.0410419591 -0.93781507
vn 0.431744754 0.119339295 -0.894066334
vn 0.495411128 -0.0907695368 -0.863903165
vn 0.605609536 0.110226199 -0.788090944
vn 0.730635405 -0.117139883 -0.672644198
vn 0.495411128 -0.0907695368 -0.863903165
vn -0.337482095 0.850738883 -0.40292576
vn -0.569914758 0.662963569 -0.485465258
vn -0.464190662 0.824672997 -0.323174119
vn -0.337482095 0.850738883 -0.40292576
vn -0.464190662 0.824672997 -0.323174119
vn -0.348792523 0.927343547 -0.135564655
vn -0.158504233 -0.155290201 -0.97506988
vn -0.346830547 0.0224435795 -0.937659264
vn -0.104023568 0.130004406 -0.986041605
vn -0.532105148 -0.201350093 -0.822388113
vn -0.346830547 0.0224435795 -0.937659264
vn -0.158504233 -0.155290201 -0.97506988
vn 0.826624513 0.155715972 -0.540781438
vn 0.561196148 0.308338523 -0.768105626
vn 0.697663248 0.467935741 -0.542496264
vn 0.561196148 0.308338523 -0.768105626
vn 0.40556553 0.50631696 -0.761025429
vn 0.697663248 0.467935741 -0.542496264
vn 0.431744754 0.119339295 -0.894066334
vn 0.605609536 0.110226199 -0.788090944
vn 0.495411128 -0.0907695368 -0.863903165
vn 0.431744754 0.119339295 -0.894066334
vn 0.561196148 0.308338523 -0.768105626
vn 0.605609536 0.110226199 -0.788090944
vn -0.532105148 -0.201350093 -0.822388113
vn -0.410722136 -0.568080544 -0.713156164
vn -0.630793214 -0.499085993 -0.594149053
vn -0.595608473 0.502470434 -0.626716912
vn -0.785775483 0.281775624 -0.550599158
vn -0.763024271 0.44615519 -0.467695951
vn -0.785775483 0.281775624 -0.550599158
vn -0.909460902 0.191588223 -0.369018912
vn -0.763024271 0.44615519 -0.467695951
vn 0.0256407075 -0.314150125 -0.949027002
vn 0.150641054 -0.183572426 -0.971395075
vn 0.268642694 -0.331574291 -0.904372513
vn 0.0256407075 -0.314150125 -0.949027002
vn -0.158504233 -0.155290201 -0.97506988
vn 0.150641054 -0.183572426 -0.971395075
vn -0.190512463 -0.451594055 -0.871646583
vn 0.0256407075 -0.314150125 -0.949027002
vn 0.148387223 -0.513717711 -0.845029771
vn 0.471617728 -0.875711024 0.103474572
vn 0.72244674 -0.690901577 -0.026936654
vn 0.586626709 -0.787308216 0.189775705
vn -0.120246254 -0.567021489 0.814878762
vn -0.325605661 -0.574436545 0.751001775
vn -0.183995157 -0.750268936 0.63501364
vn -0.412355691 -0.43242833 0.80185324
vn -0.244795263 -0.386150956 0.889360845
vn -0.309743464 -0.214636683 0.926277578
vn 0.084604606 -0.927186191 -0.3649216
vn 0.110395044 -0.741890192 -0.661371291
vn 0.284909338 -0.706148982 -0.648213148
vn -0.484514683 -0.819705248 0.305497706
vn -0.430327594 -0.902393162 0.0224647447
vn -0.280327946 -0.918466032 0.278991878
vn 0.861585557 -0.406319439 0.304261237
vn 0.934369147 -0.352792025 0.0499196537
vn 0.949355543 -0.0291340929 0.312850326
vn -0.940860093 -0.322511762 -0.103770837
vn -0.790980697 -0.608507752 -0.0637807027
vn -0.840359747 -0.526920259 0.127084762
vn 0.453354686 -0.691611767 -0.562265635
vn 0.672377646 -0.642721474 -0.367174953
vn 0.527881324 -0.777480841 -0.34185493
vn 0.342460155 -0.677584291 0.650845945
vn 0.0675229132 -0.68872875 0.721867979
vn 0.0750828236 -0.841205657 0.535477042
vn -0.280327946 -0.918466032 0.278991878
vn -0.430327594 -0.902393162 0.0224647447
vn -0.192511976 -0.981191576 -0.0142156649
vn 0.471617728 -0.875711024 0.103474572
vn 0.399563342 -0.822928131 0.403903872
vn 0.287690639 -0.910434008 0.297227144
vn 0.510780632 -0.522957861 -0.682362258
vn 0.672377646 -0.642721474 -0.367174953
vn 0.453354686 -0.691611767 -0.562265635
vn 0.789577365 -0.370698899 0.489029497
vn 0.861585557 -0.406319439 0.304261237
vn 0.949355543 -0.0291340929 0.312850326
vn 0.321677774 -0.416145533 0.850497723
vn 0.181881905 -0.560045063 0.808250368
vn 0.342460155 -0.677584291 0.650845945
vn -0.346571028 -0.839226902 -0.419030726
vn -0.0482491963 -0.872390807 -0.486421883
vn -0.217595816 -0.952628255 -0.212488532
vn -0.484514683 -0.819705248 0.305497706
vn -0.280327946 -0.918466032 0.278991878
vn -0.363221318 -0.760288715 0.538545609
vn 0.72244674 -0.690901577 -0.026936654
vn 0.934369147 -0.352792025 0.0499196537
vn 0.776330292 -0.594242632 0.210206807
vn -0.244795263 -0.386150956 0.889360845
vn -0.325605661 -0.574436545 0.751001775
vn -0.120246254 -0.567021489 0.814878762
vn 0.168465972 -0.30083552 0.938678384
vn 0.0586520806 -0.462084085 0.884894431
vn 0.321677774 -0.416145533 0.850497723
vn -0.56574142 -0.253341645 0.784700334
vn -0.685347438 -0.388545156 0.615898967
vn -0.412355691 -0.43242833 0.80185324
vn -0.451244444 -0.775844812 0.440957159
vn -0.709351718 -0.585015893 0.393162161
vn -0.484514683 -0.819705248 0.305497706
vn 0.789577365 -0.370698899 0.489029497
vn 0.630584419 -0.639576793 0.439664513
vn 0.861585557 -0.406319439 0.304261237
vn 0.776330292 -0.594242632 0.210206807
vn 0.586626709 -0.787308216 0.189775705
vn 0.72244674 -0.690901577 -0.026936654
vn -0.280327946 -0.918466032 0.278991878
vn -0.223787501 -0.850231826 0.476471573
vn -0.363221318 -0.760288715 0.538545609
vn -0.280327946 -0.918466032 0.278991878
vn 0.0870282948 -0.996138513 0.0115816984
vn -0.00604363717 -0.948907435 0.315496475
vn 0.268642694 -0.331574291 -0.904372513
vn 0.423276871 -0.277500093 -0.862456083
vn 0.370292187 -0.489430875 -0.789519608
vn 0.148387223 -0.513717711 -0.845029771
vn 0.284909338 -0.706148982 -0.648213148
vn 0.110395044 -0.741890192 -0.661371291
vn -0.192511976 -0.981191576 -0.0142156649
vn 0.0870282948 -0.996138513 0.0115816984
vn -0.280327946 -0.918466032 0.278991878
vn 0.45052731 -0.883098125 -0.131006673
vn 0.561740935 -0.82065773 -0.104727812
vn 0.471617728 -0.875711024 0.103474572
vn -0.630793214 -0.499085993 -0.594149053
vn -0.562395275 -0.780963838 -0.271674722
vn -0.788525283 -0.490426093 -0.371093065
vn -0.629835308 -0.776638746 -0.0118188858
vn -0.430327594 -0.902393162 0.0224647447
vn -0.650380194 -0.727199912 0.219512627
vn 0.321677774 -0.416145533 0.850497723
vn 0.342460155 -0.677584291 0.650845945
vn 0.537574053 -0.484795749 0.689918339
vn 0.284909338 -0.706148982 -0.648213148
vn 0.327482879 -0.887260318 -0.324844688
vn 0.084604606 -0.927186191 -0.3649216
vn 0.084604606 -0.927186191 -0.3649216
vn 0.327482879 -0.887260318 -0.324844688
vn 0.0870282948 -0.996138513 0.0115816984
vn -0.56574142 -0.253341645 0.784700334
vn -0.801552832 -0.109588034 0.587795377
vn -0.685347438 -0.388545156 0.615898967
vn 0.527881324 -0.777480841 -0.34185493
vn 0.672377646 -0.642721474 -0.367174953
vn 0.561740935 -0.82065773 -0.104727812
vn 0.72244674 -0.690901577 -0.026936654
vn 0.672377646 -0.642721474 -0.367174953
vn 0.876939237 -0.404877841 -0.258943081
vn -0.190512463 -0.451594055 -0.871646583
vn 0.148387223 -0.513717711 -0.845029771
vn -0.0891679227 -0.69889611 -0.709643126
vn -0.346571028 -0.839226902 -0.419030726
vn -0.410722136 -0.568080544 -0.713156164
vn -0.0891679227 -0.69889611 -0.709643126
vn -0.280327946 -0.918466032 0.278991878
vn -0.00604363717 -0.948907435 0.315496475
vn -0.223787501 -0.850231826 0.476471573
vn 0.0750828236 -0.841205657 0.535477042
vn 0.0675229132 -0.68872875 0.721867979
vn -0.183995157 -0.750268936 0.63501364
vn 0.45052731 -0.883098125 -0.131006673
vn 0.471617728 -0.875711024 0.103474572
vn 0.319249779 -0.942836344 0.0955980718
vn 0.319249779 -0.942836344 0.0955980718
vn 0.471617728 -0.875711024 0.103474572
vn 0.287690639 -0.910434008 0.297227144
vn -0.709351718 -0.585015893 0.393162161
vn -0.840359747 -0.526920259 0.127084762
vn -0.650380194 -0.727199912 0.219512627
vn -0.840359747 -0.526920259 0.127084762
vn -0.790980697 -0.608507752 -0.0637807027
vn -0.650380194 -0.727199912 0.219512627
vn -0.410722136 -0.568080544 -0.713156164
vn -0.190512463 -0.451594055 -0.871646583
vn -0.0891679227 -0.69889611 -0.709643126
vn 0.370292187 -0.489430875 -0.789519608
vn 0.423276871 -0.277500093 -0.862456083
vn 0.510780632 -0.522957861 -0.682362258
vn -0.51468128 -0.619552732 0.592669964
vn -0.685347438 -0.388545156 0.615898967
vn -0.709351718 -0.585015893 0.393162161
vn -0.0482491963 -0.872390807 -0.486421883
vn 0.084604606 -0.927186191 -0.3649216
vn -0.217595816 -0.952628255 -0.212488532
vn 0.084604606 -0.927186191 -0.3649216
vn 0.0870282948 -0.996138513 0.0115816984
vn -0.192511976 -0.981191576 -0.0142156649
vn 0.949355543 -0.0291340929 0.312850326
vn 0.815866649 -0.124331817 0.564715087
vn 0.789577365 -0.370698899 0.489029497
vn 0.321677774 -0.416145533 0.850497723
vn 0.537574053 -0.484795749 0.689918339
vn 0.584224045 -0.289052516 0.758373857
vn -0.412355691 -0.43242833 0.80185324
vn -0.685347438 -0.388545156 0.615898967
vn -0.51468128 -0.619552732 0.592669964
vn -0.325605661 -0.574436545 0.751001775
vn -0.363221318 -0.760288715 0.538545609
vn -0.183995157 -0.750268936 0.63501364
vn 0.399563342 -0.822928131 0.403903872
vn 0.342460155 -0.677584291 0.650845945
vn 0.0750828236 -0.841205657 0.535477042
vn 0.537574053 -0.484795749 0.689918339
vn 0.342460155 -0.677584291 0.650845945
vn 0.630584419 -0.639576793 0.439664513
vn -0.12706773 -0.134415165 0.982744277
vn -0.309743464 -0.214636683 0.926277578
vn -0.244795263 -0.386150956 0.889360845
vn -0.0458874218 -0.30195576 0.952216923
vn -0.244795263 -0.386150956 0.889360845
vn -0.120246254 -0.567021489 0.814878762
vn -0.12706773 -0.134415165 0.982744277
vn -0.244795263 -0.386150956 0.889360845
vn -0.0458874218 -0.30195576 0.952216923
vn -0.430327594 -0.902393162 0.0224647447
vn -0.346571028 -0.839226902 -0.419030726
vn -0.217595816 -0.952628255 -0.212488532
vn -0.562395275 -0.780963838 -0.271674722
vn -0.430327594 -0.902393162 0.0224647447
vn -0.629835308 -0.776638746 -0.0118188858
vn 0.592285633 -0.326208353 -0.736739993
vn 0.731193602 -0.411069274 -0.544406116
vn 0.510780632 -0.522957861 -0.682362258
vn 0.592285633 -0.326208353 -0.736739993
vn 0.510780632 -0.522957861 -0.682362258
vn 0.423276871 -0.277500093 -0.862456083
vn 0.0750828236 -0.841205657 0.535477042
vn -0.223787501 -0.850231826 0.476471573
vn -0.00604363717 -0.948907435 0.315496475
vn 0.399563342 -0.822928131 0.403903872
vn 0.0750828236 -0.841205657 0.535477042
vn 0.287690639 -0.910434008 0.297227144
vn 0.630584419 -0.639576793 0.439664513
vn 0.586626709 -0.787308216 0.189775705
vn 0.776330292 -0.594242632 0.210206807
vn 0.342460155 -0.677584291 0.650845945
vn 0.399563342 -0.822928131 0.403903872
vn 0.630584419 -0.639576793 0.439664513
vn -0.788525283 -0.490426093 -0.371093065
vn -0.562395275 -0.780963838 -0.271674722
vn -0.629835308 -0.776638746 -0.0118188858
vn -0.940860093 -0.322511762 -0.103770837
vn -0.788525283 -0.490426093 -0.371093065
vn -0.790980697 -0.608507752 -0.0637807027
vn 0.168465972 -0.30083552 0.938678384
vn 0.321677774 -0.416145533 0.850497723
vn 0.340134203 -0.180006176 0.922987759
vn 0.340134203 -0.180006176 0.922987759
vn 0.321677774 -0.416145533 0.850497723
vn 0.584224045 -0.289052516 0.758373857
vn -0.56574142 -0.253341645 0.784700334
vn -0.412355691 -0.43242833 0.80185324
vn -0.309743464 -0.214636683 0.926277578
vn -0.895123303 -0.35307321 0.272201419
vn -0.840359747 -0.526920259 0.127084762
vn -0.709351718 -0.585015893 0.393162161
vn -0.860482931 -0.247372806 0.445394218
vn -0.895123303 -0.35307321 0.272201419
vn -0.709351718 -0.585015893 0.393162161
vn -0.0458874218 -0.30195576 0.952216923
vn -0.120246254 -0.567021489 0.814878762
vn 0.0586520806 -0.462084085 0.884894431
vn -0.120246254 -0.567021489 0.814878762
vn -0.183995157 -0.750268936 0.63501364
vn 0.0675229132 -0.68872875 0.721867979
vn 0.370292187 -0.489430875 -0.789519608
vn 0.510780632 -0.522957861 -0.682362258
vn 0.453354686 -0.691611767 -0.562265635
vn 0.148387223 -0.513717711 -0.845029771
vn 0.370292187 -0.489430875 -0.789519608
vn 0.284909338 -0.706148982 -0.648213148
vn 0.630584419 -0.639576793 0.439664513
vn 0.399563342 -0.822928131 0.403903872
vn 0.586626709 -0.787308216 0.189775705
vn 0.586626709 -0.787308216 0.189775705
vn 0.399563342 -0.822928131 0.403903872
vn 0.471617728 -0.875711024 0.103474572
vn 0.537574053 -0.484795749 0.689918339
vn 0.630584419 -0.639576793 0.439664513
vn 0.789577365 -0.370698899 0.489029497
vn 0.584224045 -0.289052516 0.758373857
vn 0.537574053 -0.484795749 0.689918339
vn 0.789577365 -0.370698899 0.489029497
vn 0.510780632 -0.522957861 -0.682362258
vn 0.731193602 -0.411069274 -0.544406116
vn 0.672377646 -0.642721474 -0.367174953
vn 0.672377646 -0.642721474 -0.367174953
vn 0.731193602 -0.411069274 -0.544406116
vn 0.876939237 -0.404877841 -0.258943081
vn -0.325605661 -0.574436545 0.751001775
vn -0.412355691 -0.43242833 0.80185324
vn -0.51468128 -0.619552732 0.592669964
vn -0.412355691 -0.43242833 0.80185324
vn -0.325605661 -0.574436545 0.751001775
vn -0.244795263 -0.386150956 0.889360845
vn 0.370292187 -0.489430875 -0.789519608
vn 0.453354686 -0.691611767 -0.562265635
vn 0.284909338 -0.706148982 -0.648213148
vn 0.284909338 -0.706148982 -0.648213148
vn 0.453354686 -0.691611767 -0.562265635
vn 0.327482879 -0.887260318 -0.324844688
vn -0.430327594 -0.902393162 0.0224647447
vn -0.217595816 -0.952628255 -0.212488532
vn -0.192511976 -0.981191576 -0.0142156649
vn -0.217595816 -0.952628255 -0.212488532
vn 0.084604606 -0.927186191 -0.3649216
vn -0.192511976 -0.981191576 -0.0142156649
vn 0.148387223 -0.513717711 -0.845029771
vn 0.0256407075 -0.314150125 -0.949027002
vn 0.268642694 -0.331574291 -0.904372513
vn 0.148387223 -0.513717711 -0.845029771
vn 0.268642694 -0.331574291 -0.904372513
vn 0.370292187 -0.489430875 -0.789519608
vn 0.181881905 -0.560045063 0.808250368
vn 0.0675229132 -0.68872875 0.721867979
vn 0.342460155 -0.677584291 0.650845945
vn 0.0675229132 -0.68872875 0.721867979
vn 0.181881905 -0.560045063 0.808250368
vn -0.120246254 -0.567021489 0.814878762
vn 0.72244674 -0.690901577 -0.026936654
vn 0.876939237 -0.404877841 -0.258943081
vn 0.934369147 -0.352792025 0.0499196537
vn -0.363221318 -0.760288715 0.538545609
vn -0.451244444 -0.775844812 0.440957159
vn -0.484514683 -0.819705248 0.305497706
vn -0.325605661 -0.574436545 0.751001775
vn -0.51468128 -0.619552732 0.592669964
vn -0.363221318 -0.760288715 0.538545609
vn 0.0750828236 -0.841205657 0.535477042
vn -0.183995157 -0.750268936 0.63501364
vn -0.223787501 -0.850231826 0.476471573
vn -0.183995157 -0.750268936 0.63501364
vn -0.363221318 -0.760288715 0.538545609
vn -0.223787501 -0.850231826 0.476471573
vn -0.940860093 -0.322511762 -0.103770837
vn -0.918893695 -0.168188527 -0.356857181
vn -0.788525283 -0.490426093 -0.371093065
vn -0.685347438 -0.388545156 0.615898967
vn -0.860482931 -0.247372806 0.445394218
vn -0.709351718 -0.585015893 0.393162161
vn -0.860482931 -0.247372806 0.445394218
vn -0.685347438 -0.388545156 0.615898967
vn -0.801552832 -0.109588034 0.587795377
vn 0.0586520806 -0.462084085 0.884894431
vn 0.168465972 -0.30083552 0.938678384
vn -0.0458874218 -0.30195576 0.952216923
vn 0.0839356929 -0.102265559 0.991209626
vn -0.12706773 -0.134415165 0.982744277
vn -0.0458874218 -0.30195576 0.952216923
vn -0.00604363717 -0.948907435 0.315496475
vn 0.319249779 -0.942836344 0.0955980718
vn 0.287690639 -0.910434008 0.297227144
vn -0.00604363717 -0.948907435 0.315496475
vn 0.287690639 -0.910434008 0.297227144
vn 0.0750828236 -0.841205657 0.535477042
vn -0.650380194 -0.727199912 0.219512627
vn -0.430327594 -0.902393162 0.0224647447
vn -0.484514683 -0.819705248 0.305497706
vn -0.650380194 -0.727199912 0.219512627
vn -0.484514683 -0.819705248 0.305497706
vn -0.709351718 -0.585015893 0.393162161
vn 0.527881324 -0.777480841 -0.34185493
vn 0.561740935 -0.82065773 -0.104727812
vn 0.45052731 -0.883098125 -0.131006673
vn 0.453354686 -0.691611767 -0.562265635
vn 0.527881324 -0.777480841 -0.34185493
vn 0.327482879 -0.887260318 -0.324844688
vn 0.327482879 -0.887260318 -0.324844688
vn 0.527881324 -0.777480841 -0.34185493
vn 0.45052731 -0.883098125 -0.131006673
vn 0.327482879 -0.887260318 -0.324844688
vn 0.45052731 -0.883098125 -0.131006673
vn 0.0870282948 -0.996138513 0.0115816984
vn 0.561740935 -0.82065773 -0.104727812
vn 0.672377646 -0.642721474 -0.367174953
vn 0.72244674 -0.690901577 -0.026936654
vn 0.561740935 -0.82065773 -0.104727812
vn 0.72244674 -0.690901577 -0.026936654
vn 0.471617728 -0.875711024 0.103474572
vn 0.181881905 -0.560045063 0.808250368
vn 0.0586520806 -0.462084085 0.884894431
vn -0.120246254 -0.567021489 0.814878762
vn 0.0586520806 -0.462084085 0.884894431
vn 0.181881905 -0.560045063 0.808250368
vn 0.321677774 -0.416145533 0.850497723
vn 0.861585557 -0.406319439 0.304261237
vn 0.776330292 -0.594242632 0.210206807
vn 0.934369147 -0.352792025 0.0499196537
vn 0.776330292 -0.594242632 0.210206807
vn 0.861585557 -0.406319439 0.304261237
vn 0.630584419 -0.639576793 0.439664513
vn -0.0458874218 -0.30195576 0.952216923
vn 0.168465972 -0.30083552 0.938678384
vn 0.0839356929 -0.102265559 0.991209626
vn 0.0839356929 -0.102265559 0.991209626
vn 0.168465972 -0.30083552 0.938678384
vn 0.340134203 -0.180006176 0.922987759
vn -0.0891679227 -0.69889611 -0.709643126
vn 0.148387223 -0.513717711 -0.845029771
vn 0.110395044 -0.741890192 -0.661371291
vn -0.346571028 -0.839226902 -0.419030726
vn -0.0891679227 -0.69889611 -0.709643126
vn -0.0482491963 -0.872390807 -0.486421883
vn 0.815866649 -0.124331817 0.564715087
vn 0.584224045 -0.289052516 0.758373857
vn 0.789577365 -0.370698899 0.489029497
vn -0.0482491963 -0.872390807 -0.486421883
vn 0.110395044 -0.741890192 -0.661371291
vn 0.084604606 -0.927186191 -0.3649216
vn -0.0891679227 -0.69889611 -0.709643126
vn 0.110395044 -0.741890192 -0.661371291
vn -0.0482491963 -0.872390807 -0.486421883
vn -0.630793214 -0.499085993 -0.594149053
vn -0.410722136 -0.568080544 -0.713156164
vn -0.346571028 -0.839226902 -0.419030726
vn -0.363221318 -0.760288715 0.538545609
vn -0.51468128 -0.619552732 0.592669964
vn -0.451244444 -0.775844812 0.440957159
vn -0.51468128 -0.619552732 0.592669964
vn -0.709351718 -0.585015893 0.393162161
vn -0.451244444 -0.775844812 0.440957159
vn -0.630793214 -0.499085993 -0.594149053
vn -0.346571028 -0.839226902 -0.419030726
vn -0.562395275 -0.780963838 -0.271674722
vn -0.430327594 -0.902393162 0.0224647447
vn -0.562395275 -0.780963838 -0.271674722
vn -0.346571028 -0.839226902 -0.419030726
vn 0.0870282948 -0.996138513 0.0115816984
vn 0.45052731 -0.883098125 -0.131006673
vn 0.319249779 -0.942836344 0.0955980718
vn 0.0870282948 -0.996138513 0.0115816984
vn 0.319249779 -0.942836344 0.0955980718
vn -0.00604363717 -0.948907435 0.315496475
vn -0.790980697 -0.608507752 -0.0637807027
vn -0.788525283 -0.490426093 -0.371093065
vn -0.629835308 -0.776638746 -0.0118188858
vn -0.790980697 -0.608507752 -0.0637807027
vn -0.629835308 -0.776638746 -0.0118188858
vn -0.650380194 -0.727199912 0.219512627
vn 0.59688884 -0.0662707239 0.799582362
vn 0.340134203 -0.180006176 0.922987759
vn 0.584224045 -0.289052516 0.758373857
vn 0.59688884 -0.0662707239 0.799582362
vn 0.584224045 -0.289052516 0.758373857
vn 0.815866649 -0.124331817 0.564715087
g Scatter_Smooth_03_LOD0
f 1/1/1 2/2/2 3/3/3
f 4/4/4 5/5/5 6/6/6
f 7/7/7 8/8/8 9/9/9
f 10/10/10 11/11/11 12/12/12
f 13/13/13 14/14/14 15/15/15
f 16/16/16 17/17/17 18/18/18
f 19/19/19 1/20/20 20/21/21
f 21/22/22 14/23/23 22/24/24
f 23/25/25 4/26/26 24/27/27
f 25/28/28 26/29/29 27/30/30
f 28/31/31 29/32/32 30/33/33
f 31/34/34 32/35/35 33/36/36
f 34/37/37 35/38/38 36/39/39
f 37/40/40 38/41/41 10/42/42
f 39/43/43 40/44/44 41/45/45
f 42/46/46 43/47/47 44/48/48
f 45/49/49 42/50/50 46/51/51
f 47/52/52 48/53/53 49/54/54
f 50/55/55 51/56/56 52/57/57
f 53/58/58 54/59/59 25/60/60
f 55/61/61 56/62/62 20/63/63
f 57/64/64 58/65/65 59/66/66
f 60/67/67 61/68/68 62/69/69
f 63/70/70 64/71/71 65/72/72
f 66/73/73 67/74/74 68/75/75
f 69/76/76 70/77/77 71/78/78
f 72/79/79 73/80/80 74/81/81
f 67/82/82 75/83/83 68/84/84
f 76/85/85 30/86/86 77/87/87
f 41/88/88 78/89/89 79/90/90
f 44/91/91 8/92/92 7/93/93
f 1/94/94 80/95/95 2/96/96
f 81/97/97 57/98/98 59/99/99
f 26/100/100 82/101/101 83/102/102
f 5/103/103 39/104/104 41/105/105
f 84/106/106 85/107/107 38/108/108
f 86/109/109 55/110/110 18/111/111
f 36/112/112 87/113/113 34/114/114
f 88/115/115 89/116/116 90/117/117
f 50/118/118 22/119/119 51/120/120
f 5/121/121 41/122/122 6/123/123
f 6/124/124 91/125/125 92/126/126
f 93/127/127 39/128/128 94/129/129
f 25/130/130 54/131/131 95/132/132
f 78/133/133 96/134/134 79/135/135
f 97/136/136 10/137/137 12/138/138
f 19/139/139 98/140/140 1/141/141
f 60/142/142 99/143/143 100/144/144
f 55/145/145 20/146/146 57/147/147
f 66/148/148 32/149/149 31/150/150
f 4/151/151 6/152/152 43/153/153
f 4/154/154 101/155/155 102/156/156
f 103/157/157 42/158/158 44/159/159
f 104/160/160 28/161/161 105/162/162
f 106/163/163 54/164/164 53/165/165
f 72/166/166 107/167/167 73/168/168
f 13/169/169 15/170/170 108/171/171
f 109/172/172 37/173/173 96/174/174
f 11/175/175 110/176/176 17/177/177
f 88/178/178 90/179/179 38/180/180
f 13/181/181 39/182/182 93/183/183
f 108/184/184 111/185/185 13/186/186
f 7/187/187 9/188/188 104/189/189
f 71/190/190 70/191/191 112/192/192
f 113/193/193 14/194/194 95/195/195
f 61/196/196 60/197/197 51/198/198
f 42/199/199 47/200/200 46/201/201
f 11/202/202 114/203/203 12/204/204
f 112/205/205 70/206/206 114/207/207
f 75/208/208 67/209/209 115/210/210
f 71/211/211 112/212/212 116/213/213
f 77/214/214 75/215/215 115/216/216
f 117/217/217 101/218/218 4/219/219
f 45/220/220 118/221/221 101/222/222
f 105/223/223 48/224/224 42/225/225
f 47/226/226 42/227/227 48/228/228
f 109/229/229 21/230/230 84/231/231
f 21/232/232 85/233/233 84/234/234
f 52/235/235 60/236/236 100/237/237
f 52/238/238 51/239/239 60/240/240
f 119/241/241 63/242/242 65/243/243
f 120/244/244 86/245/245 90/246/246
f 19/247/247 121/248/248 98/249/249
f 122/250/250 35/251/251 34/252/252
f 27/253/253 123/254/254 74/255/255
f 74/256/256 123/257/257 124/258/258
f 35/259/259 122/260/260 83/261/261
f 4/262/262 23/263/263 5/264/264
f 63/265/265 80/266/266 1/267/267
f 1/268/268 98/269/269 100/270/270
f 33/271/271 32/272/272 81/273/273
f 79/274/274 96/275/275 125/276/276
f 79/277/277 92/278/278 91/279/279
f 79/280/280 125/281/281 92/282/282
f 8/283/283 69/284/284 9/285/285
f 18/286/286 55/287/287 16/288/288
f 16/289/289 55/290/290 32/291/291
f 14/292/292 51/293/293 22/294/294
f 14/295/295 113/296/296 51/297/297
f 25/298/298 82/299/299 26/300/300
f 25/301/301 95/302/302 82/303/303
f 121/304/304 19/305/305 56/306/306
f 20/307/307 56/308/308 19/309/309
f 10/310/310 38/311/311 11/312/312
f 38/313/313 110/314/314 11/315/315
f 32/316/316 55/317/317 57/318/318
f 32/319/319 57/320/320 81/321/321
f 107/322/322 106/323/323 73/324/324
f 62/325/325 99/326/326 60/327/327
f 30/328/328 49/329/329 28/330/330
f 35/331/331 94/332/332 23/333/333
f 35/334/334 23/335/335 24/336/336
f 96/337/337 37/338/338 10/339/339
f 96/340/340 10/341/341 125/342/342
f 36/343/343 35/344/344 24/345/345
f 102/346/346 101/347/347 126/348/348
f 44/349/349 43/350/350 6/351/351
f 6/352/352 92/353/353 44/354/354
f 94/355/355 39/356/356 5/357/357
f 23/358/358 94/359/359 5/360/360
f 112/361/361 75/362/362 116/363/363
f 68/364/364 75/365/365 112/366/366
f 108/367/367 21/368/368 109/369/369
f 40/370/370 78/371/371 41/372/372
f 90/373/373 86/374/374 18/375/375
f 90/376/376 110/377/377 38/378/378
f 29/379/379 28/380/380 104/381/381
f 116/382/382 104/383/383 71/384/384
f 7/385/385 104/386/386 105/387/387
f 44/388/388 7/389/389 103/390/390
f 93/391/391 95/392/392 13/393/393
f 95/394/394 14/395/395 13/396/396
f 115/397/397 67/398/398 127/399/399
f 68/400/400 112/401/401 114/402/402
f 17/403/403 16/404/404 68/405/405
f 64/406/406 106/407/407 107/408/408
f 65/409/409 64/410/410 128/411/411
f 22/412/412 89/413/413 85/414/414
f 21/415/415 22/416/416 85/417/417
f 57/418/418 20/419/419 58/420/420
f 20/421/421 1/422/422 3/423/423
f 40/424/424 109/425/425 78/426/426
f 78/427/427 109/428/428 96/429/429
f 45/430/430 43/431/431 42/432/432
f 117/433/433 4/434/434 43/435/435
f 100/436/436 99/437/437 63/438/438
f 1/439/439 100/440/440 63/441/441
f 91/442/442 41/443/443 79/444/444
f 6/445/445 41/446/446 91/447/447
f 108/448/448 109/449/449 40/450/450
f 111/451/451 108/452/452 40/453/453
f 29/454/454 77/455/455 30/456/456
f 77/457/457 29/458/458 104/459/459
f 121/460/460 52/461/461 98/462/462
f 98/463/463 52/464/464 100/465/465
f 126/466/466 36/467/467 102/468/468
f 97/469/469 12/470/470 70/471/471
f 114/472/472 70/473/473 12/474/474
f 15/475/475 14/476/476 21/477/477
f 15/478/478 21/479/479 108/480/480
f 43/481/481 45/482/482 117/483/483
f 117/484/484 45/485/485 101/486/486
f 36/487/487 24/488/488 102/489/489
f 102/490/490 24/491/491 4/492/492
f 53/493/493 25/494/494 27/495/495
f 106/496/496 53/497/497 73/498/498
f 76/499/499 115/500/500 127/501/501
f 77/502/502 115/503/503 76/504/504
f 20/505/505 3/506/506 58/507/507
f 73/508/508 53/509/509 27/510/510
f 27/511/511 74/512/512 73/513/513
f 49/514/514 48/515/515 28/516/516
f 28/517/517 48/518/518 105/519/519
f 16/520/520 66/521/521 68/522/522
f 16/523/523 32/524/524 66/525/525
f 89/526/526 120/527/527 90/528/528
f 121/529/529 50/530/530 52/531/531
f 129/532/532 36/533/533 126/534/534
f 129/535/535 87/536/536 36/537/537
f 69/538/538 92/539/539 125/540/540
f 97/541/541 70/542/542 69/543/543
f 114/544/544 17/545/545 68/546/546
f 11/547/547 17/548/548 114/549/549
f 109/550/550 84/551/551 37/552/552
f 84/553/553 38/554/554 37/555/555
f 22/556/556 50/557/557 89/558/558
f 50/559/559 120/560/560 89/561/561
f 31/562/562 127/563/563 67/564/564
f 67/565/565 66/566/566 31/567/567
f 69/568/568 71/569/569 9/570/570
f 104/571/571 9/572/572 71/573/573
f 39/574/574 13/575/575 111/576/576
f 39/577/577 111/578/578 40/579/579
f 51/580/580 113/581/581 61/582/582
f 54/583/583 113/584/584 95/585/585
f 123/586/586 34/587/587 124/588/588
f 124/589/589 34/590/590 87/591/591
f 82/592/592 95/593/593 93/594/594
f 82/595/595 93/596/596 83/597/597
f 18/598/598 17/599/599 110/600/600
f 90/601/601 18/602/602 110/603/603
f 125/604/604 10/605/605 97/606/606
f 125/607/607 97/608/608 69/609/609
f 62/610/610 54/611/611 106/612/612
f 64/613/613 62/614/614 106/615/615
f 116/616/616 77/617/617 104/618/618
f 77/619/619 116/620/620 75/621/621
f 45/622/622 46/623/623 118/624/624
f 8/625/625 92/626/626 69/627/627
f 8/628/628 44/629/629 92/630/630
f 120/631/631 56/632/632 86/633/633
f 86/634/634 56/635/635 55/636/636
f 105/637/637 42/638/638 103/639/639
f 105/640/640 103/641/641 7/642/642
f 62/643/643 61/644/644 54/645/645
f 61/646/646 113/647/647 54/648/648
f 27/649/649 26/650/650 123/651/651
f 122/652/652 34/653/653 123/654/654
f 85/655/655 89/656/656 88/657/657
f 85/658/658 88/659/659 38/660/660
f 64/661/661 99/662/662 62/663/663
f 63/664/664 99/665/665 64/666/666
f 35/667/667 83/668/668 94/669/669
f 83/670/670 93/671/671 94/672/672
f 26/673/673 122/674/674 123/675/675
f 26/676/676 83/677/677 122/678/678
f 63/679/679 119/680/680 80/681/681
f 50/682/682 121/683/683 120/684/684
f 121/685/685 56/686/686 120/687/687
f 128/688/688 107/689/689 72/690/690
f 128/691/691 64/692/692 107/693/693
f 65/694/694 128/695/695 130/696/696
f 131/697/697 132/698/698 133/699/699
f 134/700/700 135/701/701 136/702/702
f 137/703/703 138/704/704 76/705/705
f 139/706/706 140/707/707 141/708/708
f 142/709/709 143/710/710 144/711/711
f 145/712/712 126/713/713 101/714/714
f 58/715/715 146/716/716 59/717/717
f 147/718/718 148/719/719 149/720/720
f 150/721/721 151/722/722 152/723/723
f 144/724/724 143/725/725 153/726/726
f 131/727/727 154/728/728 155/729/729
f 156/730/730 148/731/731 147/732/732
f 157/733/733 145/734/734 101/735/735
f 158/736/736 159/737/737 150/738/738
f 160/739/739 161/740/740 162/741/741
f 142/742/742 144/743/743 163/744/744
f 132/745/745 126/746/746 164/747/747
f 138/748/748 135/749/749 134/750/750
f 165/751/751 166/752/752 158/753/753
f 127/754/754 167/755/755 137/756/756
f 168/757/757 169/758/758 142/759/759
f 157/760/760 170/761/761 145/762/762
f 164/763/763 133/764/764 132/765/765
f 144/766/766 171/767/767 163/768/768
f 144/769/769 172/770/770 173/771/771
f 72/772/772 74/773/773 174/774/774
f 130/775/775 141/776/776 140/777/777
f 153/778/778 172/779/779 144/780/780
f 175/781/781 176/782/782 131/783/783
f 80/784/784 177/785/785 2/786/786
f 178/787/787 143/788/788 179/789/789
f 158/790/790 150/791/791 180/792/792
f 141/793/793 181/794/794 139/795/795
f 139/796/796 181/797/797 172/798/798
f 127/799/799 31/800/800 167/801/801
f 149/802/802 148/803/803 176/804/804
f 132/805/805 148/806/806 129/807/807
f 65/808/808 130/809/809 182/810/810
f 160/811/811 119/812/812 182/813/813
f 144/814/814 173/815/815 171/816/816
f 152/817/817 151/818/818 136/819/819
f 175/820/820 131/821/821 183/822/822
f 183/823/823 131/824/824 155/825/825
f 169/826/826 59/827/827 179/828/828
f 59/829/829 146/830/830 179/831/831
f 119/832/832 65/833/833 182/834/834
f 174/835/835 74/836/836 156/837/837
f 184/838/838 167/839/839 169/840/840
f 161/841/841 139/842/842 162/843/843
f 139/844/844 172/845/845 153/846/846
f 101/847/847 118/848/848 157/849/849
f 158/850/850 180/851/851 185/852/852
f 137/853/853 167/854/854 184/855/855
f 135/856/856 163/857/857 136/858/858
f 154/859/859 150/860/860 152/861/861
f 180/862/862 150/863/863 170/864/864
f 30/865/865 76/866/866 138/867/867
f 186/868/868 138/869/869 134/870/870
f 30/871/871 138/872/872 186/873/873
f 143/874/874 160/875/875 162/876/876
f 177/877/877 143/878/878 178/879/879
f 124/880/880 87/881/881 156/882/882
f 124/883/883 156/884/884 74/885/885
f 152/886/886 171/887/887 173/888/888
f 154/889/889 152/890/890 155/891/891
f 170/892/892 133/893/893 164/894/894
f 150/895/895 154/896/896 170/897/897
f 2/898/898 177/899/899 178/900/900
f 58/901/901 2/902/902 146/903/903
f 165/904/904 158/905/905 47/906/906
f 47/907/907 158/908/908 185/909/909
f 127/910/910 137/911/911 76/912/912
f 81/913/913 59/914/914 169/915/915
f 33/916/916 81/917/917 169/918/918
f 186/919/919 134/920/920 166/921/921
f 134/922/922 136/923/923 151/924/924
f 174/925/925 156/926/926 147/927/927
f 130/928/928 174/929/929 141/930/930
f 170/931/931 154/932/932 133/933/933
f 133/934/934 154/935/935 131/936/936
f 180/937/937 170/938/938 157/939/939
f 185/940/940 180/941/941 157/942/942
f 156/943/943 87/944/944 148/945/945
f 148/946/946 87/947/947 129/948/948
f 135/949/949 137/950/950 184/951/951
f 137/952/952 135/953/953 138/954/954
f 174/955/955 147/956/956 141/957/957
f 141/958/958 147/959/959 181/960/960
f 143/961/961 162/962/962 153/963/963
f 162/964/964 139/965/965 153/966/966
f 130/967/967 128/968/968 72/969/969
f 130/970/970 72/971/971 174/972/972
f 159/973/973 151/974/974 150/975/975
f 151/976/976 159/977/977 134/978/978
f 132/979/979 129/980/980 126/981/981
f 163/982/982 168/983/983 142/984/984
f 135/985/985 184/986/986 163/987/987
f 152/988/988 136/989/989 171/990/990
f 136/991/991 163/992/992 171/993/993
f 58/994/994 3/995/995 2/996/996
f 167/997/997 33/998/998 169/999/999
f 33/1000/1000 167/1001/1001 31/1002/1002
f 166/1003/1003 165/1004/1004 186/1005/1005
f 49/1006/1006 30/1007/1007 186/1008/1008
f 173/1009/1009 183/1010/1010 155/1011/1011
f 173/1012/1012 155/1013/1013 152/1014/1014
f 179/1015/1015 143/1016/1016 142/1017/1017
f 179/1018/1018 142/1019/1019 169/1020/1020
f 149/1021/1021 176/1022/1022 175/1023/1023
f 147/1024/1024 149/1025/1025 181/1026/1026
f 181/1027/1027 149/1028/1028 175/1029/1029
f 181/1030/1030 175/1031/1031 172/1032/1032
f 176/1033/1033 148/1034/1034 132/1035/1035
f 176/1036/1036 132/1037/1037 131/1038/1038
f 159/1039/1039 166/1040/1040 134/1041/1041
f 166/1042/1042 159/1043/1043 158/1044/1044
f 145/1045/1045 164/1046/1046 126/1047/1047
f 164/1048/1048 145/1049/1049 170/1050/1050
f 186/1051/1051 165/1052/1052 49/1053/1053
f 49/1054/1054 165/1055/1055 47/1056/1056
f 182/1057/1057 130/1058/1058 140/1059/1059
f 160/1060/1060 182/1061/1061 161/1062/1062
f 118/1063/1063 185/1064/1064 157/1065/1065
f 161/1066/1066 140/1067/1067 139/1068/1068
f 182/1069/1069 140/1070/1070 161/1071/1071
f 80/1072/1072 119/1073/1073 160/1074/1074
f 163/1075/1075 184/1076/1076 168/1077/1077
f 184/1078/1078 169/1079/1079 168/1080/1080
f 80/1081/1081 160/1082/1082 177/1083/1083
f 143/1084/1084 177/1085/1085 160/1086/1086
f 172/1087/1087 175/1088/1088 183/1089/1089
f 172/1090/1090 183/1091/1091 173/1092/1092
f 146/1093/1093 2/1094/1094 178/1095/1095
f 146/1096/1096 178/1097/1097 179/1098/1098
f 46/1099/1099 47/1100/1100 185/1101/1101
f 46/1102/1102 185/1103/1103 118/1104/1104
