# File exported by Houdini 16.5.405 (www.sidefx.com)
# 48 points
# 276 vertices
# 92 primitives
# Bounds: [-6.49754667, 0.196201846, -5.83365726] to [6.70264387, 12.3136349, 5.90917873]
g 
v -5.83860493 3.91447735 -2.70724082
v -4.81043005 2.549088 -3.64365935
v 6.70264387 5.8655076 -0.601938426
v 5.14174843 7.91489077 -2.95243263
v 3.17906404 9.75658321 4.72087383
v -0.0135662574 10.7829771 4.96832037
v -0.604276419 12.3136349 1.30545068
v -4.24039984 11.4733 1.50779998
v -4.87311411 10.7747774 3.62790155
v 2.83046484 9.89024353 -3.53014064
v -1.44202411 9.60530472 -4.80068207
v -1.21272922 11.57409 -2.51559234
v -6.30229187 10.1946754 0.982701302
v -5.13822412 9.41955757 -2.75501299
v -3.15282297 11.615447 -1.68964732
v -1.6596154 8.12847137 -5.7869916
v 4.64660978 5.35303783 -3.92684722
v 2.92127562 8.38110447 5.67900658
v -3.54670978 8.82339478 5.67017317
v 0.277150154 5.43710756 5.90917873
v -5.22970009 7.13019991 3.87960005
v -6.49754667 6.31757164 1.19764757
v -5.78531885 5.47031689 2.54440951
v 1.61508989 11.5901976 -0.50949043
v 4.55679989 8.3156004 4.10150003
v 5.37286854 6.60566759 4.40851212
v 4.58967924 4.39810133 4.42424059
v -0.664883256 5.52576923 -5.83365726
v -5.86350012 3.05474472 -0.5378021
v -3.76900434 4.62568617 -5.44673586
v -2.47573686 4.02605772 -5.73221064
v -3.19137788 2.39120817 -4.89223719
v -5.78569984 9.31120014 3.02699995
v 0.865933359 11.6351738 3.48634934
v -0.891127229 2.17804265 -5.05120564
v 0.064000003 12.0323 -1.09909999
v -3.90666342 4.7675395 4.25285053
v 0.661740422 0.196201846 0.36075443
v 5.2127986 2.97517037 -1.48461246
v 3.28033018 2.46608686 3.68296933
v 1.68236589 3.42216563 4.90187168
v -2.33620739 3.5231216 4.34727812
v 0.629237354 1.68814695 3.22590399
v 1.1793834 0.688251555 -2.67895889
v -3.05871677 0.992917597 -3.10644746
v 5.34960747 3.57255745 1.70384967
v 3.2693603 2.9796679 -3.52452612
v 5.15339994 4.73950005 3.60669994
vt 0.91668427 0.86907506 0
vt 0.889904141 0.840843499 0
vt 0.99415493 0.79889369 0
vt 0.176868051 0.923782885 0
vt 0.156000003 0.978500009 0
vt 0.121255681 0.97671926 0
vt 0.878884494 0.804914653 0
vt 0.8240062 0.767841637 0
vt 0.866367519 0.741748691 0
vt 0.693820775 0.950879812 0
vt 0.645983994 0.961328626 0
vt 0.690729201 0.919824541 0
vt 0.0899138674 0.863613665 0
vt 0.0887729526 0.949421644 0
vt 0.0457838438 0.895434856 0
vt 0.676100016 0.800199986 0
vt 0.642932057 0.83074528 0
vt 0.642354727 0.805321157 0
vt 0.871071041 0.866462529 0
vt 0.889904141 0.840843499 0
vt 0.91668427 0.86907506 0
vt 0.0899138674 0.863613665 0
vt 0.0980999991 0.831499994 0
vt 0.113079652 0.859553754 0
vt 0.0704629794 0.820084989 0
vt 0.0899138674 0.863613665 0
vt 0.0356486887 0.827857614 0
vt 0.0356486887 0.827857614 0
vt 0.0899138674 0.863613665 0
vt 0.0457838438 0.895434856 0
vt 0.685480714 0.860976934 0
vt 0.653656244 0.900905669 0
vt 0.586836338 0.86411047 0
vt 0.642932057 0.83074528 0
vt 0.586836338 0.86411047 0
vt 0.58784318 0.83060801 0
vt 0.57609719 0.913559973 0
vt 0.559639156 0.927785695 0
vt 0.541990757 0.900978327 0
vt 0.100699998 0.996399999 0
vt 0.0887729526 0.949421644 0
vt 0.121255681 0.97671926 0
vt 0.145487428 0.895482779 0
vt 0.121255681 0.97671926 0
vt 0.1201493 0.906389832 0
vt 0.77453804 0.885841429 0
vt 0.796053708 0.834205508 0
vt 0.871071041 0.866462529 0
vt 0.642354727 0.805321157 0
vt 0.642932057 0.83074528 0
vt 0.58784318 0.83060801 0
vt 0.871071041 0.866462529 0
vt 0.878884494 0.804914653 0
vt 0.889904141 0.840843499 0
vt 0.889904141 0.840843499 0
vt 0.878884494 0.804914653 0
vt 0.912700891 0.76977998 0
vt 0.690729201 0.919824541 0
vt 0.653656244 0.900905669 0
vt 0.685480714 0.860976934 0
vt 0.653656244 0.900905669 0
vt 0.690729201 0.919824541 0
vt 0.617692173 0.958721936 0
vt 0.889904141 0.840843499 0
vt 0.912700891 0.76977998 0
vt 0.99415493 0.79889369 0
vt 0.912700891 0.76977998 0
vt 0.934352934 0.729422331 0
vt 0.973213494 0.752014101 0
vt 0.685480714 0.860976934 0
vt 0.586836338 0.86411047 0
vt 0.642932057 0.83074528 0
vt 0.695500016 0.831700027 0
vt 0.642932057 0.83074528 0
vt 0.676100016 0.800199986 0
vt 0.91668427 0.86907506 0
vt 0.99415493 0.79889369 0
vt 0.985599995 0.828999996 0
vt 0.724900007 0.956200004 0
vt 0.690729201 0.919824541 0
vt 0.751751006 0.924670875 0
vt 0.716199994 0.875999987 0
vt 0.685480714 0.860976934 0
vt 0.722230196 0.840512812 0
vt 0.1201493 0.906389832 0
vt 0.121255681 0.97671926 0
vt 0.0887729526 0.949421644 0
vt 0.724900007 0.956200004 0
vt 0.693820775 0.950879812 0
vt 0.690729201 0.919824541 0
vt 0.653656244 0.900905669 0
vt 0.617692173 0.958721936 0
vt 0.57609719 0.913559973 0
vt 0.57609719 0.913559973 0
vt 0.558382928 0.87225467 0
vt 0.586836338 0.86411047 0
vt 0.586836338 0.86411047 0
vt 0.653656244 0.900905669 0
vt 0.57609719 0.913559973 0
vt 0.645983994 0.961328626 0
vt 0.617692173 0.958721936 0
vt 0.690729201 0.919824541 0
vt 0.802421927 0.790749013 0
vt 0.878884494 0.804914653 0
vt 0.871071041 0.866462529 0
vt 0.751751006 0.924670875 0
vt 0.690729201 0.919824541 0
vt 0.716199994 0.875999987 0
vt 0.690729201 0.919824541 0
vt 0.685480714 0.860976934 0
vt 0.716199994 0.875999987 0
vt 0.1201493 0.906389832 0
vt 0.0887729526 0.949421644 0
vt 0.0899138674 0.863613665 0
vt 0.113079652 0.859553754 0
vt 0.1201493 0.906389832 0
vt 0.0899138674 0.863613665 0
vt 0.912700891 0.76977998 0
vt 0.898199975 0.747900009 0
vt 0.934352934 0.729422331 0
vt 0.0704629794 0.820084989 0
vt 0.0980999991 0.831499994 0
vt 0.0899138674 0.863613665 0
vt 0.987516046 0.859560132 0
vt 0.91668427 0.86907506 0
vt 0.985599995 0.828999996 0
vt 0.99415493 0.79889369 0
vt 0.912700891 0.76977998 0
vt 0.973213494 0.752014101 0
vt 0.866367519 0.741748691 0
vt 0.898199975 0.747900009 0
vt 0.912700891 0.76977998 0
vt 0.878884494 0.804914653 0
vt 0.866367519 0.741748691 0
vt 0.912700891 0.76977998 0
vt 0.796053708 0.834205508 0
vt 0.802421927 0.790749013 0
vt 0.871071041 0.866462529 0
vt 0.685480714 0.860976934 0
vt 0.695500016 0.831700027 0
vt 0.722230196 0.840512812 0
vt 0.685480714 0.860976934 0
vt 0.642932057 0.83074528 0
vt 0.695500016 0.831700027 0
vt 0.0653999969 0.983299971 0
vt 0.0286479015 0.961557031 0
vt 0.0887729526 0.949421644 0
vt 0.0887729526 0.949421644 0
vt 0.100699998 0.996399999 0
vt 0.0653999969 0.983299971 0
vt 0.802421927 0.790749013 0
vt 0.8240062 0.767841637 0
vt 0.878884494 0.804914653 0
vt 0.145487428 0.895482779 0
vt 0.176868051 0.923782885 0
vt 0.121255681 0.97671926 0
vt 0.758773029 0.845614433 0
vt 0.802421927 0.790749013 0
vt 0.796053708 0.834205508 0
vt 0.1201493 0.906389832 0
vt 0.113079652 0.859553754 0
vt 0.145487428 0.895482779 0
vt 0.559639156 0.927785695 0
vt 0.57609719 0.913559973 0
vt 0.617692173 0.958721936 0
vt 0.57609719 0.913559973 0
vt 0.541990757 0.900978327 0
vt 0.558382928 0.87225467 0
vt 0.758773029 0.845614433 0
vt 0.796053708 0.834205508 0
vt 0.77453804 0.885841429 0
vt 0.349794984 0.768051028 0
vt 0.342667639 0.737101138 0
vt 0.380179018 0.749403954 0
vt 0.435082555 0.809365749 0
vt 0.489485323 0.751427829 0
vt 0.495165527 0.83686626 0
vt 0.486144513 0.871185303 0
vt 0.425566018 0.891664803 0
vt 0.455114812 0.846378922 0
vt 0.0286479015 0.961557031 0
vt 0.0457838438 0.895434856 0
vt 0.0887729526 0.949421644 0
vt 0.346295208 0.849453509 0
vt 0.371433258 0.792294145 0
vt 0.435082555 0.809365749 0
vt 0.94796139 0.90557301 0
vt 0.91668427 0.86907506 0
vt 0.987516046 0.859560132 0
vt 0.448741376 0.7330212 0
vt 0.489485323 0.751427829 0
vt 0.423286468 0.771840692 0
vt 0.977900028 0.888100028 0
vt 0.94796139 0.90557301 0
vt 0.987516046 0.859560132 0
vt 0.0356486887 0.827857614 0
vt 0.0145075722 0.871358514 0
vt -0.000987440813 0.840027213 0
vt 0.346295208 0.849453509 0
vt 0.435082555 0.809365749 0
vt 0.425566018 0.891664803 0
vt 0.895237148 0.909531593 0
vt 0.91668427 0.86907506 0
vt 0.94796139 0.90557301 0
vt 0.0457838438 0.895434856 0
vt 0.00960403215 0.935045421 0
vt 0.0145075722 0.871358514 0
vt 0.539600015 0.825399995 0
vt 0.495165527 0.83686626 0
vt 0.518743813 0.795447171 0
vt 0.518743813 0.795447171 0
vt 0.495165527 0.83686626 0
vt 0.489485323 0.751427829 0
vt 0.435082555 0.809365749 0
vt 0.455114812 0.846378922 0
vt 0.425566018 0.891664803 0
vt 0.77453804 0.885841429 0
vt 0.871071041 0.866462529 0
vt 0.847455025 0.899842083 0
vt 0.423286468 0.771840692 0
vt 0.489485323 0.751427829 0
vt 0.435082555 0.809365749 0
vt 0.371433258 0.792294145 0
vt 0.349794984 0.768051028 0
vt 0.380179018 0.749403954 0
vt 0.425566018 0.891664803 0
vt 0.400773853 0.911430955 0
vt 0.346295208 0.849453509 0
vt 0.380179018 0.749403954 0
vt 0.423286468 0.771840692 0
vt 0.371433258 0.792294145 0
vt 0.423286468 0.771840692 0
vt 0.435082555 0.809365749 0
vt 0.371433258 0.792294145 0
vt 0.495165527 0.83686626 0
vt 0.455114812 0.846378922 0
vt 0.435082555 0.809365749 0
vt 0.337077975 0.798380256 0
vt 0.371433258 0.792294145 0
vt 0.346295208 0.849453509 0
vt 0.586836338 0.86411047 0
vt 0.558382928 0.87225467 0
vt 0.58784318 0.83060801 0
vt 0.380179018 0.749403954 0
vt 0.448741376 0.7330212 0
vt 0.423286468 0.771840692 0
vt 0.53303653 0.840353489 0
vt 0.495165527 0.83686626 0
vt 0.539600015 0.825399995 0
vt 0.847455025 0.899842083 0
vt 0.871071041 0.866462529 0
vt 0.895237148 0.909531593 0
vt 0.895237148 0.909531593 0
vt 0.871071041 0.866462529 0
vt 0.91668427 0.86907506 0
vt 0.0286479015 0.961557031 0
vt 0.00960403215 0.935045421 0
vt 0.0457838438 0.895434856 0
vt 0.486144513 0.871185303 0
vt 0.455114812 0.846378922 0
vt 0.495165527 0.83686626 0
vt 0.400773853 0.911430955 0
vt 0.358759195 0.907844424 0
vt 0.346295208 0.849453509 0
vt 0.036451865 1.00261986 0
vt 0.0286479015 0.961557031 0
vt 0.0653999969 0.983299971 0
vt 0.0457838438 0.895434856 0
vt 0.0145075722 0.871358514 0
vt 0.0356486887 0.827857614 0
vt 0.0704629794 0.820084989 0
vt 0.0356486887 0.827857614 0
vt 0.0392999984 0.812900007 0
vt 0.337077975 0.798380256 0
vt 0.349794984 0.768051028 0
vt 0.371433258 0.792294145 0
vn 1.0029577 0.165761173 -0.0427748933
vn 0.788759589 0.502713621 -0.341616094
vn 0.621637464 0.711998641 0.337760061
vn 0.00744216191 1.00488198 0.0886924416
vn -0.386807024 0.917376518 0.0938121527
vn -0.492678523 0.759650886 0.475326329
vn 0.441915125 0.644563675 -0.653146327
vn -0.0464073718 0.600615084 -0.802759171
vn -0.0576583557 0.89848727 -0.483483404
vn -0.0576583557 0.89848727 -0.483483404
vn -0.0464073718 0.600615084 -0.802759171
vn -0.316469312 0.917874992 -0.34268257
vn 0.295408845 0.25514093 0.937742949
vn -0.344701231 0.0943413004 0.955869675
vn -0.0615785457 -0.270609707 0.974290252
vn -0.801552832 -0.109588034 0.587795377
vn -0.98856318 -0.11069306 0.176402748
vn -0.881954551 -0.265404671 0.417959541
vn 0.563228786 -0.166291907 -0.836819828
vn 0.788759589 0.502713621 -0.341616094
vn 1.0029577 0.165761173 -0.0427748933
vn 0.295408845 0.25514093 0.937742949
vn 0.761436164 0.553162098 0.33797428
vn 0.621637464 0.711998641 0.337760061
vn 0.881027997 0.0770905614 0.478206158
vn 0.295408845 0.25514093 0.937742949
vn 0.547925532 -0.482794106 0.753529429
vn 0.547925532 -0.482794106 0.753529429
vn 0.295408845 0.25514093 0.937742949
vn -0.0615785457 -0.270609707 0.974290252
vn -0.89938581 0.449011236 -0.0580181479
vn -0.810756564 0.342026412 -0.540059388
vn -0.94099468 -0.124370933 -0.377831489
vn -0.98856318 -0.11069306 0.176402748
vn -0.94099468 -0.124370933 -0.377831489
vn -0.731847107 -0.681682646 0.173809618
vn -0.549396694 -0.0492421202 -0.845911443
vn -0.08568497 -0.236430585 -0.970952272
vn -0.319897383 -0.542527258 -0.791053951
vn -0.873367965 0.0973948911 0.477223963
vn -0.344701231 0.0943413004 0.955869675
vn -0.492678523 0.759650886 0.475326329
vn 0.277031571 0.905842662 0.353262275
vn -0.492678523 0.759650886 0.475326329
vn 0.0919061452 0.707980335 0.73700875
vn 0.175021797 -0.527168334 -0.878406763
vn 0.208133399 -0.0757647157 -0.985908389
vn 0.563228786 -0.166291907 -0.836819828
vn -0.881954551 -0.265404671 0.417959541
vn -0.98856318 -0.11069306 0.176402748
vn -0.731847107 -0.681682646 0.173809618
vn 0.563228786 -0.166291907 -0.836819828
vn 0.441915125 0.644563675 -0.653146327
vn 0.788759589 0.502713621 -0.341616094
vn 0.788759589 0.502713621 -0.341616094
vn 0.441915125 0.644563675 -0.653146327
vn 0.542981088 0.846377909 -0.0779187679
vn -0.316469312 0.917874992 -0.34268257
vn -0.810756564 0.342026412 -0.540059388
vn -0.89938581 0.449011236 -0.0580181479
vn -0.810756564 0.342026412 -0.540059388
vn -0.316469312 0.917874992 -0.34268257
vn -0.0436713621 0.343074769 -0.955783963
vn 0.788759589 0.502713621 -0.341616094
vn 0.542981088 0.846377909 -0.0779187679
vn 0.621637464 0.711998641 0.337760061
vn 0.542981088 0.846377909 -0.0779187679
vn 0.00744216191 1.00488198 0.0886924416
vn 0.277031571 0.905842662 0.353262275
vn -0.89938581 0.449011236 -0.0580181479
vn -0.94099468 -0.124370933 -0.377831489
vn -0.98856318 -0.11069306 0.176402748
vn -0.873367965 0.0973948911 0.477223963
vn -0.98856318 -0.11069306 0.176402748
vn -0.801552832 -0.109588034 0.587795377
vn 1.0029577 0.165761173 -0.0427748933
vn 0.621637464 0.711998641 0.337760061
vn 0.761436164 0.553162098 0.33797428
vn 0.137372181 0.960604846 -0.241593122
vn -0.316469312 0.917874992 -0.34268257
vn 0.00744216191 1.00488198 0.0886924416
vn -0.386807024 0.917376518 0.0938121527
vn -0.89938581 0.449011236 -0.0580181479
vn -0.492678523 0.759650886 0.475326329
vn 0.0919061452 0.707980335 0.73700875
vn -0.492678523 0.759650886 0.475326329
vn -0.344701231 0.0943413004 0.955869675
vn 0.137372181 0.960604846 -0.241593122
vn -0.0576583557 0.89848727 -0.483483404
vn -0.316469312 0.917874992 -0.34268257
vn -0.810756564 0.342026412 -0.540059388
vn -0.0436713621 0.343074769 -0.955783963
vn -0.549396694 -0.0492421202 -0.845911443
vn -0.549396694 -0.0492421202 -0.845911443
vn -0.76666677 -0.477438837 -0.446358979
vn -0.94099468 -0.124370933 -0.377831489
vn -0.94099468 -0.124370933 -0.377831489
vn -0.810756564 0.342026412 -0.540059388
vn -0.549396694 -0.0492421202 -0.845911443
vn -0.0464073718 0.600615084 -0.802759171
vn -0.0436713621 0.343074769 -0.955783963
vn -0.316469312 0.917874992 -0.34268257
vn -0.0436713621 0.343074769 -0.955783963
vn 0.441915125 0.644563675 -0.653146327
vn 0.563228786 -0.166291907 -0.836819828
vn 0.00744216191 1.00488198 0.0886924416
vn -0.316469312 0.917874992 -0.34268257
vn -0.386807024 0.917376518 0.0938121527
vn -0.316469312 0.917874992 -0.34268257
vn -0.89938581 0.449011236 -0.0580181479
vn -0.386807024 0.917376518 0.0938121527
vn 0.0919061452 0.707980335 0.73700875
vn -0.344701231 0.0943413004 0.955869675
vn 0.295408845 0.25514093 0.937742949
vn 0.621637464 0.711998641 0.337760061
vn 0.0919061452 0.707980335 0.73700875
vn 0.295408845 0.25514093 0.937742949
vn 0.542981088 0.846377909 -0.0779187679
vn 0.137372181 0.960604846 -0.241593122
vn 0.00744216191 1.00488198 0.0886924416
vn 0.881027997 0.0770905614 0.478206158
vn 0.761436164 0.553162098 0.33797428
vn 0.295408845 0.25514093 0.937742949
vn 0.881027997 0.0770905614 0.478206158
vn 1.0029577 0.165761173 -0.0427748933
vn 0.761436164 0.553162098 0.33797428
vn 0.621637464 0.711998641 0.337760061
vn 0.542981088 0.846377909 -0.0779187679
vn 0.277031571 0.905842662 0.353262275
vn -0.0576583557 0.89848727 -0.483483404
vn 0.137372181 0.960604846 -0.241593122
vn 0.542981088 0.846377909 -0.0779187679
vn 0.441915125 0.644563675 -0.653146327
vn -0.0576583557 0.89848727 -0.483483404
vn 0.542981088 0.846377909 -0.0779187679
vn 0.208133399 -0.0757647157 -0.985908389
vn -0.0436713621 0.343074769 -0.955783963
vn 0.563228786 -0.166291907 -0.836819828
vn -0.89938581 0.449011236 -0.0580181479
vn -0.873367965 0.0973948911 0.477223963
vn -0.492678523 0.759650886 0.475326329
vn -0.89938581 0.449011236 -0.0580181479
vn -0.98856318 -0.11069306 0.176402748
vn -0.873367965 0.0973948911 0.477223963
vn -0.801552832 -0.109588034 0.587795377
vn -0.455535918 -0.444951057 0.796960056
vn -0.344701231 0.0943413004 0.955869675
vn -0.344701231 0.0943413004 0.955869675
vn -0.873367965 0.0973948911 0.477223963
vn -0.801552832 -0.109588034 0.587795377
vn -0.0436713621 0.343074769 -0.955783963
vn -0.0464073718 0.600615084 -0.802759171
vn 0.441915125 0.644563675 -0.653146327
vn 0.277031571 0.905842662 0.353262275
vn 0.00744216191 1.00488198 0.0886924416
vn -0.492678523 0.759650886 0.475326329
vn -0.08568497 -0.236430585 -0.970952272
vn -0.0436713621 0.343074769 -0.955783963
vn 0.208133399 -0.0757647157 -0.985908389
vn 0.0919061452 0.707980335 0.73700875
vn 0.621637464 0.711998641 0.337760061
vn 0.277031571 0.905842662 0.353262275
vn -0.08568497 -0.236430585 -0.970952272
vn -0.549396694 -0.0492421202 -0.845911443
vn -0.0436713621 0.343074769 -0.955783963
vn -0.549396694 -0.0492421202 -0.845911443
vn -0.319897383 -0.542527258 -0.791053951
vn -0.76666677 -0.477438837 -0.446358979
vn -0.08568497 -0.236430585 -0.970952272
vn 0.208133399 -0.0757647157 -0.985908389
vn 0.175021797 -0.527168334 -0.878406763
vn -0.319897383 -0.542527258 -0.791053951
vn -0.08568497 -0.236430585 -0.970952272
vn 0.175021797 -0.527168334 -0.878406763
vn 0.0284040403 -0.971028864 0.197383672
vn 0.684904873 -0.697643101 -0.233843103
vn 0.415027201 -0.738058865 0.566136718
vn 0.11975982 -0.557383418 0.836964905
vn -0.331336856 -0.672631264 0.685616136
vn -0.0865586922 -0.819750249 0.58886826
vn -0.455535918 -0.444951057 0.796960056
vn -0.0615785457 -0.270609707 0.974290252
vn -0.344701231 0.0943413004 0.955869675
vn -0.731847107 -0.681682646 0.173809618
vn -0.38842389 -0.937633932 -0.122520871
vn 0.0284040403 -0.971028864 0.197383672
vn 0.818221271 -0.534892201 0.245984375
vn 1.0029577 0.165761173 -0.0427748933
vn 0.881027997 0.0770905614 0.478206158
vn 0.513767362 -0.506714463 -0.705373943
vn 0.684904873 -0.697643101 -0.233843103
vn 0.358941466 -0.862346113 -0.397633076
vn 0.789577365 -0.370698899 0.489029497
vn 0.818221271 -0.534892201 0.245984375
vn 0.881027997 0.0770905614 0.478206158
vn 0.547925532 -0.482794106 0.753529429
vn 0.11975982 -0.557383418 0.836964905
vn 0.415027201 -0.738058865 0.566136718
vn -0.731847107 -0.681682646 0.173809618
vn 0.0284040403 -0.971028864 0.197383672
vn -0.331336856 -0.672631264 0.685616136
vn 0.684904873 -0.697643101 -0.233843103
vn 1.0029577 0.165761173 -0.0427748933
vn 0.818221271 -0.534892201 0.245984375
vn -0.0615785457 -0.270609707 0.974290252
vn -0.331336856 -0.672631264 0.685616136
vn 0.11975982 -0.557383418 0.836964905
vn 0.789577365 -0.370698899 0.489029497
vn 0.415027201 -0.738058865 0.566136718
vn 0.818221271 -0.534892201 0.245984375
vn 0.818221271 -0.534892201 0.245984375
vn 0.415027201 -0.738058865 0.566136718
vn 0.684904873 -0.697643101 -0.233843103
vn 0.0284040403 -0.971028864 0.197383672
vn -0.0865586922 -0.819750249 0.58886826
vn -0.331336856 -0.672631264 0.685616136
vn 0.175021797 -0.527168334 -0.878406763
vn 0.563228786 -0.166291907 -0.836819828
vn 0.513767362 -0.506714463 -0.705373943
vn 0.358941466 -0.862346113 -0.397633076
vn 0.684904873 -0.697643101 -0.233843103
vn 0.0284040403 -0.971028864 0.197383672
vn -0.38842389 -0.937633932 -0.122520871
vn -0.319897383 -0.542527258 -0.791053951
vn 0.175021797 -0.527168334 -0.878406763
vn -0.331336856 -0.672631264 0.685616136
vn -0.455535918 -0.444951057 0.796960056
vn -0.731847107 -0.681682646 0.173809618
vn 0.175021797 -0.527168334 -0.878406763
vn 0.358941466 -0.862346113 -0.397633076
vn -0.38842389 -0.937633932 -0.122520871
vn 0.358941466 -0.862346113 -0.397633076
vn 0.0284040403 -0.971028864 0.197383672
vn -0.38842389 -0.937633932 -0.122520871
vn 0.415027201 -0.738058865 0.566136718
vn -0.0865586922 -0.819750249 0.58886826
vn 0.0284040403 -0.971028864 0.197383672
vn -0.76666677 -0.477438837 -0.446358979
vn -0.38842389 -0.937633932 -0.122520871
vn -0.731847107 -0.681682646 0.173809618
vn -0.94099468 -0.124370933 -0.377831489
vn -0.76666677 -0.477438837 -0.446358979
vn -0.731847107 -0.681682646 0.173809618
vn 0.175021797 -0.527168334 -0.878406763
vn 0.513767362 -0.506714463 -0.705373943
vn 0.358941466 -0.862346113 -0.397633076
vn 0.547925532 -0.482794106 0.753529429
vn 0.415027201 -0.738058865 0.566136718
vn 0.789577365 -0.370698899 0.489029497
vn 0.513767362 -0.506714463 -0.705373943
vn 0.563228786 -0.166291907 -0.836819828
vn 0.684904873 -0.697643101 -0.233843103
vn 0.684904873 -0.697643101 -0.233843103
vn 0.563228786 -0.166291907 -0.836819828
vn 1.0029577 0.165761173 -0.0427748933
vn -0.455535918 -0.444951057 0.796960056
vn -0.331336856 -0.672631264 0.685616136
vn -0.0615785457 -0.270609707 0.974290252
vn 0.11975982 -0.557383418 0.836964905
vn -0.0865586922 -0.819750249 0.58886826
vn 0.415027201 -0.738058865 0.566136718
vn -0.455535918 -0.444951057 0.796960056
vn -0.881954551 -0.265404671 0.417959541
vn -0.731847107 -0.681682646 0.173809618
vn -0.881954551 -0.265404671 0.417959541
vn -0.455535918 -0.444951057 0.796960056
vn -0.801552832 -0.109588034 0.587795377
vn -0.0615785457 -0.270609707 0.974290252
vn 0.11975982 -0.557383418 0.836964905
vn 0.547925532 -0.482794106 0.753529429
vn 0.881027997 0.0770905614 0.478206158
vn 0.547925532 -0.482794106 0.753529429
vn 0.789577365 -0.370698899 0.489029497
vn -0.76666677 -0.477438837 -0.446358979
vn -0.319897383 -0.542527258 -0.791053951
vn -0.38842389 -0.937633932 -0.122520871
g Scatter_Smooth_03_LOD0
f 3/1/1 4/2/2 5/3/3
f 7/4/4 8/5/5 9/6/6
f 10/7/7 11/8/8 12/9/9
f 12/10/10 11/11/11 15/12/12
f 18/13/13 19/14/14 20/15/15
f 21/16/16 22/17/17 23/18/18
f 17/19/19 4/20/20 3/21/21
f 18/22/22 25/23/23 5/24/24
f 26/25/25 18/26/26 27/27/27
f 27/28/28 18/29/29 20/30/30
f 13/31/31 14/32/32 1/33/33
f 22/34/34 1/35/35 29/36/36
f 30/37/37 31/38/38 32/39/39
f 33/40/40 19/41/41 9/42/42
f 34/43/43 9/44/44 6/45/45
f 35/46/46 28/47/47 17/48/48
f 23/49/49 22/50/50 29/51/51
f 17/52/52 10/53/53 4/54/54
f 4/55/55 10/56/56 24/57/57
f 15/58/58 14/59/59 13/60/60
f 14/61/61 15/62/62 16/63/63
f 4/64/64 24/65/65 5/66/66
f 24/67/67 7/68/68 34/69/69
f 13/70/70 1/71/71 22/72/72
f 33/73/73 22/74/74 21/75/75
f 3/76/76 5/77/77 25/78/78
f 36/79/79 15/80/80 7/81/81
f 8/82/82 13/83/83 9/84/84
f 6/85/85 9/86/86 19/87/87
f 36/88/88 12/89/89 15/90/90
f 14/91/91 16/92/92 30/93/93
f 30/94/94 2/95/95 1/96/96
f 1/97/97 14/98/98 30/99/99
f 11/100/100 16/101/101 15/102/102
f 16/103/103 10/104/104 17/105/105
f 7/106/106 15/107/107 8/108/108
f 15/109/109 13/110/110 8/111/111
f 6/112/112 19/113/113 18/114/114
f 5/115/115 6/116/116 18/117/117
f 24/118/118 36/119/119 7/120/120
f 26/121/121 25/122/122 18/123/123
f 26/124/124 3/125/125 25/126/126
f 5/127/127 24/128/128 34/129/129
f 12/130/130 36/131/131 24/132/132
f 10/133/133 12/134/134 24/135/135
f 28/136/136 16/137/137 17/138/138
f 13/139/139 33/140/140 9/141/141
f 13/142/142 22/143/143 33/144/144
f 21/145/145 37/146/146 19/147/147
f 19/148/148 33/149/149 21/150/150
f 16/151/151 11/152/152 10/153/153
f 34/154/154 7/155/155 9/156/156
f 31/157/157 16/158/158 28/159/159
f 6/160/160 5/161/161 34/162/162
f 31/163/163 30/164/164 16/165/165
f 30/166/166 32/167/167 2/168/168
f 31/169/169 28/170/170 35/171/171
f 32/172/172 31/173/173 35/174/174
f 38/175/175 39/176/176 40/177/177
f 41/178/178 42/179/179 43/180/180
f 37/181/181 20/182/182 19/183/183
f 29/184/184 45/185/185 38/186/186
f 46/187/187 3/188/188 26/189/189
f 47/190/190 39/191/191 44/192/192
f 48/193/193 46/194/194 26/195/195
f 27/196/196 41/197/197 40/198/198
f 29/199/199 38/200/200 42/201/201
f 39/202/202 3/203/203 46/204/204
f 20/205/205 42/206/206 41/207/207
f 48/208/208 40/209/209 46/210/210
f 46/211/211 40/212/212 39/213/213
f 38/214/214 43/215/215 42/216/216
f 35/217/217 17/218/218 47/219/219
f 44/220/220 39/221/221 38/222/222
f 45/223/223 32/224/224 35/225/225
f 42/226/226 37/227/227 29/228/228
f 35/229/229 44/230/230 45/231/231
f 44/232/232 38/233/233 45/234/234
f 40/235/235 43/236/236 38/237/237
f 2/238/238 45/239/239 29/240/240
f 1/241/241 2/242/242 29/243/243
f 35/244/244 47/245/245 44/246/246
f 27/247/247 40/248/248 48/249/249
f 47/250/250 17/251/251 39/252/252
f 39/253/253 17/254/254 3/255/255
f 37/256/256 42/257/257 20/258/258
f 41/259/259 43/260/260 40/261/261
f 37/262/262 23/263/263 29/264/264
f 23/265/265 37/266/266 21/267/267
f 20/268/268 41/269/269 27/270/270
f 26/271/271 27/272/272 48/273/273
f 2/274/274 32/275/275 45/276/276
