# File exported by Houdini 16.5.405 (www.sidefx.com)
# 24 points
# 132 vertices
# 44 primitives
# Bounds: [-13.7075186, -0.719725013, -15.6211653] to [5.4136734, 13.230896, 2.46585894]
g 
v 2.32968688 11.4639759 -12.9406939
v -2.42743993 13.0227642 -6.47477388
v -11.3097153 11.6505203 -8.20322704
v 5.4136734 3.98086619 -2.56592703
v -10.5129375 10.4282055 -2.0688386
v -12.3573532 5.77562952 -1.4609313
v 5.03094435 7.60351086 -2.06526685
v 3.38179827 12.5934668 -8.22682381
v 1.86861253 12.7158012 -7.06252718
v -0.933191538 7.65102434 2.46585894
v -13.7075186 7.47032547 -5.75888681
v 4.95136929 5.8619442 -11.033494
v 2.77635407 7.56625795 0.232454494
v -6.62824774 2.61866784 1.75464392
v -4.58229017 13.230896 -11.6867847
v -4.40370274 10.9139681 -15.6211653
v -7.73374987 5.37500286 -14.3060675
v -5.9094882 1.07223451 -12.2007446
v -1.31319511 -0.719725013 -5.80726051
v -2.21514916 6.01550388 -14.9091806
v 5.21625757 3.65333724 -9.03537273
v -11.1321259 5.40635824 -11.9348478
v -12.3387299 4.1417594 -8.79590702
v -2.19197822 1.13582063 -0.721563637
vt 0.361445159 0.478768796 0
vt 0.427581847 0.50545007 0
vt 0.367861301 0.643033147 0
vt 0.5100227 0.751980782 0
vt 0.612845063 0.671908915 0
vt 0.550612688 0.791447639 0
vt 0.316821873 0.614825845 0
vt 0.361445159 0.478768796 0
vt 0.367861301 0.643033147 0
vt 0.784330606 0.749031126 0
vt 0.689374864 0.710581541 0
vt 0.784105062 0.674934387 0
vt 0.217661917 0.778799295 0
vt 0.282066941 0.78488642 0
vt 0.325050741 0.841589093 0
vt 0.666407228 0.786785007 0
vt 0.659232259 0.762966812 0
vt 0.725851893 0.821569502 0
vt 0.427581847 0.50545007 0
vt 0.513357639 0.624605179 0
vt 0.367861301 0.643033147 0
vt 0.250786245 0.85838002 0
vt 0.217661917 0.778799295 0
vt 0.325050741 0.841589093 0
vt 0.659232259 0.762966812 0
vt 0.666407228 0.786785007 0
vt 0.54216212 0.839433908 0
vt 0.689374864 0.710581541 0
vt 0.659232259 0.762966812 0
vt 0.612845063 0.671908915 0
vt 0.550612688 0.791447639 0
vt 0.612845063 0.671908915 0
vt 0.659232259 0.762966812 0
vt 0.513357639 0.624605179 0
vt 0.521840274 0.701300979 0
vt 0.41721347 0.726257861 0
vt 0.367861301 0.643033147 0
vt 0.513357639 0.624605179 0
vt 0.41721347 0.726257861 0
vt 0.689374864 0.710581541 0
vt 0.784330606 0.749031126 0
vt 0.659232259 0.762966812 0
vt 0.247356594 0.646097362 0
vt 0.316821873 0.614825845 0
vt 0.367861301 0.643033147 0
vt 0.217661917 0.778799295 0
vt 0.250786245 0.85838002 0
vt 0.102047019 0.843644679 0
vt 0.119556069 0.682532609 0
vt 0.217661917 0.778799295 0
vt 0.112748422 0.752960742 0
vt 0.112748422 0.752960742 0
vt 0.217661917 0.778799295 0
vt 0.102047019 0.843644679 0
vt 0.659232259 0.762966812 0
vt 0.784330606 0.749031126 0
vt 0.725851893 0.821569502 0
vt 0.247356594 0.646097362 0
vt 0.367861301 0.643033147 0
vt 0.41721347 0.726257861 0
vt 0.316821873 0.614825845 0
vt 0.247356594 0.646097362 0
vt 0.274901807 0.595669746 0
vt 0.550612688 0.791447639 0
vt 0.659232259 0.762966812 0
vt 0.54216212 0.839433908 0
vt 0.784105062 0.674934387 0
vt 0.689374864 0.710581541 0
vt 0.724479556 0.615929782 0
vt 0.348965347 0.476943672 0
vt 0.37669462 0.399225771 0
vt 0.448291034 0.446506888 0
vt 0.559513807 0.432073295 0
vt 0.466833293 0.379675597 0
vt 0.480356991 0.28033343 0
vt 0.480356991 0.28033343 0
vt 0.367434204 0.254121363 0
vt 0.424005419 0.167424217 0
vt 0.282066941 0.78488642 0
vt 0.258790106 0.689645886 0
vt 0.304770052 0.722837627 0
vt 0.41721347 0.726257861 0
vt 0.337249398 0.738488555 0
vt 0.247356594 0.646097362 0
vt 0.559513807 0.432073295 0
vt 0.51139915 0.460580677 0
vt 0.448291034 0.446506888 0
vt 0.37669462 0.399225771 0
vt 0.329301476 0.28205207 0
vt 0.367434204 0.254121363 0
vt 0.689374864 0.710581541 0
vt 0.612845063 0.671908915 0
vt 0.724479556 0.615929782 0
vt 0.540840268 0.232373908 0
vt 0.622143388 0.257686108 0
vt 0.480356991 0.28033343 0
vt 0.217661917 0.778799295 0
vt 0.258790106 0.689645886 0
vt 0.282066941 0.78488642 0
vt 0.37669462 0.399225771 0
vt 0.367434204 0.254121363 0
vt 0.466833293 0.379675597 0
vt 0.466833293 0.379675597 0
vt 0.367434204 0.254121363 0
vt 0.480356991 0.28033343 0
vt 0.622143388 0.257686108 0
vt 0.660157681 0.368273795 0
vt 0.559513807 0.432073295 0
vt 0.622143388 0.257686108 0
vt 0.559513807 0.432073295 0
vt 0.480356991 0.28033343 0
vt 0.569092751 0.670983672 0
vt 0.612845063 0.671908915 0
vt 0.5100227 0.751980782 0
vt 0.258790106 0.689645886 0
vt 0.217661917 0.778799295 0
vt 0.119556069 0.682532609 0
vt 0.559513807 0.432073295 0
vt 0.448291034 0.446506888 0
vt 0.466833293 0.379675597 0
vt 0.258790106 0.689645886 0
vt 0.119556069 0.682532609 0
vt 0.210742459 0.641419291 0
vt 0.424005419 0.167424217 0
vt 0.540840268 0.232373908 0
vt 0.480356991 0.28033343 0
vt 0.448291034 0.446506888 0
vt 0.37669462 0.399225771 0
vt 0.466833293 0.379675597 0
vt 0.325050741 0.841589093 0
vt 0.282066941 0.78488642 0
vt 0.304770052 0.722837627 0
vn 0.267026544 0.880871117 0.391207367
vn 0.0492918901 0.972578406 0.292325139
vn 0.214913622 0.532506406 0.761608064
vn 0.795460641 -0.506883264 0.387884587
vn 0.878692567 -0.164357722 -0.528708518
vn 0.808325589 0.447850734 0.389141023
vn 0.467208266 0.602797747 0.626380563
vn 0.267026544 0.880871117 0.391207367
vn 0.214913622 0.532506406 0.761608064
vn -0.0454041176 1.0015409 -0.170609117
vn 0.55889219 0.564765215 -0.676855624
vn -0.0764177069 0.354344428 -0.979305744
vn -0.579172492 0.87067771 -0.0369852185
vn -1.02611887 0.104926221 0.0607202463
vn -0.843139827 -0.215454087 0.547520459
vn 0.267026544 0.880871117 0.391207367
vn 0.568859041 0.841611743 0.0865141228
vn 0.0492918901 0.972578406 0.292325139
vn 0.0492918901 0.972578406 0.292325139
vn -0.365174264 0.84938252 0.494807273
vn 0.214913622 0.532506406 0.761608064
vn -0.365174264 0.84938252 0.494807273
vn -0.579172492 0.87067771 -0.0369852185
vn -0.843139827 -0.215454087 0.547520459
vn 0.568859041 0.841611743 0.0865141228
vn 0.267026544 0.880871117 0.391207367
vn 0.467208266 0.602797747 0.626380563
vn 0.55889219 0.564765215 -0.676855624
vn 0.568859041 0.841611743 0.0865141228
vn 0.878692567 -0.164357722 -0.528708518
vn 0.808325589 0.447850734 0.389141023
vn 0.878692567 -0.164357722 -0.528708518
vn 0.568859041 0.841611743 0.0865141228
vn -0.365174264 0.84938252 0.494807273
vn -0.843139827 -0.215454087 0.547520459
vn -0.258836955 -0.678843796 0.727716029
vn 0.214913622 0.532506406 0.761608064
vn -0.365174264 0.84938252 0.494807273
vn -0.258836955 -0.678843796 0.727716029
vn 0.55889219 0.564765215 -0.676855624
vn -0.0454041176 1.0015409 -0.170609117
vn 0.568859041 0.841611743 0.0865141228
vn 0.795460641 -0.506883264 0.387884587
vn 0.467208266 0.602797747 0.626380563
vn 0.214913622 0.532506406 0.761608064
vn -0.579172492 0.87067771 -0.0369852185
vn -0.365174264 0.84938252 0.494807273
vn 0.0492918901 0.972578406 0.292325139
vn -0.0764177069 0.354344428 -0.979305744
vn -0.579172492 0.87067771 -0.0369852185
vn -0.0454041176 1.0015409 -0.170609117
vn -0.0454041176 1.0015409 -0.170609117
vn -0.579172492 0.87067771 -0.0369852185
vn 0.0492918901 0.972578406 0.292325139
vn 0.568859041 0.841611743 0.0865141228
vn -0.0454041176 1.0015409 -0.170609117
vn 0.0492918901 0.972578406 0.292325139
vn 0.795460641 -0.506883264 0.387884587
vn 0.214913622 0.532506406 0.761608064
vn -0.258836955 -0.678843796 0.727716029
vn 0.467208266 0.602797747 0.626380563
vn 0.795460641 -0.506883264 0.387884587
vn 0.808325589 0.447850734 0.389141023
vn 0.808325589 0.447850734 0.389141023
vn 0.568859041 0.841611743 0.0865141228
vn 0.467208266 0.602797747 0.626380563
vn -0.0764177069 0.354344428 -0.979305744
vn 0.55889219 0.564765215 -0.676855624
vn 0.207905427 -0.32427907 -0.967243731
vn -0.0764177069 0.354344428 -0.979305744
vn 0.207905427 -0.32427907 -0.967243731
vn -0.414927781 -0.288230866 -0.903796315
vn -0.741798043 -0.692112863 -0.150977343
vn -0.0786693543 -0.740095377 -0.648663998
vn 0.0716942996 -1.02741766 0.0367518812
vn 0.0716942996 -1.02741766 0.0367518812
vn 0.715293229 -0.608388722 -0.364892632
vn 0.795460641 -0.506883264 0.387884587
vn -1.02611887 0.104926221 0.0607202463
vn -0.777897239 -0.243595228 -0.670283377
vn -0.741798043 -0.692112863 -0.150977343
vn -0.258836955 -0.678843796 0.727716029
vn 0.185006708 -0.808980763 0.596978605
vn 0.795460641 -0.506883264 0.387884587
vn -0.741798043 -0.692112863 -0.150977343
vn -0.777897239 -0.243595228 -0.670283377
vn -0.414927781 -0.288230866 -0.903796315
vn 0.207905427 -0.32427907 -0.967243731
vn 0.878692567 -0.164357722 -0.528708518
vn 0.715293229 -0.608388722 -0.364892632
vn 0.55889219 0.564765215 -0.676855624
vn 0.878692567 -0.164357722 -0.528708518
vn 0.207905427 -0.32427907 -0.967243731
vn 0.185006708 -0.808980763 0.596978605
vn -0.258836955 -0.678843796 0.727716029
vn 0.0716942996 -1.02741766 0.0367518812
vn -0.579172492 0.87067771 -0.0369852185
vn -0.777897239 -0.243595228 -0.670283377
vn -1.02611887 0.104926221 0.0607202463
vn 0.207905427 -0.32427907 -0.967243731
vn 0.715293229 -0.608388722 -0.364892632
vn -0.0786693543 -0.740095377 -0.648663998
vn -0.0786693543 -0.740095377 -0.648663998
vn 0.715293229 -0.608388722 -0.364892632
vn 0.0716942996 -1.02741766 0.0367518812
vn -0.258836955 -0.678843796 0.727716029
vn -0.843139827 -0.215454087 0.547520459
vn -0.741798043 -0.692112863 -0.150977343
vn -0.258836955 -0.678843796 0.727716029
vn -0.741798043 -0.692112863 -0.150977343
vn 0.0716942996 -1.02741766 0.0367518812
vn 0.715293229 -0.608388722 -0.364892632
vn 0.878692567 -0.164357722 -0.528708518
vn 0.795460641 -0.506883264 0.387884587
vn -0.777897239 -0.243595228 -0.670283377
vn -0.579172492 0.87067771 -0.0369852185
vn -0.0764177069 0.354344428 -0.979305744
vn -0.741798043 -0.692112863 -0.150977343
vn -0.414927781 -0.288230866 -0.903796315
vn -0.0786693543 -0.740095377 -0.648663998
vn -0.777897239 -0.243595228 -0.670283377
vn -0.0764177069 0.354344428 -0.979305744
vn -0.414927781 -0.288230866 -0.903796315
vn 0.795460641 -0.506883264 0.387884587
vn 0.185006708 -0.808980763 0.596978605
vn 0.0716942996 -1.02741766 0.0367518812
vn -0.414927781 -0.288230866 -0.903796315
vn 0.207905427 -0.32427907 -0.967243731
vn -0.0786693543 -0.740095377 -0.648663998
vn -0.843139827 -0.215454087 0.547520459
vn -1.02611887 0.104926221 0.0607202463
vn -0.741798043 -0.692112863 -0.150977343
g Scatter_Smooth_02_LOD0
f 9/1/1 2/2/2 10/3/3
f 4/4/4 12/5/5 7/6/6
f 13/7/7 9/8/8 10/9/9
f 15/10/10 1/11/11 16/12/12
f 3/13/13 11/14/14 6/15/15
f 9/16/16 8/17/17 2/18/18
f 2/19/19 5/20/20 10/21/21
f 5/22/22 3/23/23 6/24/24
f 8/25/25 9/26/26 13/27/27
f 1/28/28 8/29/29 12/30/30
f 7/31/31 12/32/32 8/33/33
f 5/34/34 6/35/35 14/36/36
f 10/37/37 5/38/38 14/39/39
f 1/40/40 15/41/41 8/42/42
f 4/43/43 13/44/44 10/45/45
f 3/46/46 5/47/47 2/48/48
f 16/49/49 3/50/50 15/51/51
f 15/52/52 3/53/53 2/54/54
f 8/55/55 15/56/56 2/57/57
f 4/58/58 10/59/59 14/60/60
f 13/61/61 4/62/62 7/63/63
f 7/64/64 8/65/65 13/66/66
f 16/67/67 1/68/68 20/69/69
f 16/70/70 20/71/71 17/72/72
f 23/73/73 18/74/74 19/75/75
f 19/76/76 21/77/77 4/78/78
f 11/79/79 22/80/80 23/81/81
f 14/82/82 24/83/83 4/84/84
f 23/85/85 22/86/86 17/87/87
f 20/88/88 12/89/89 21/90/90
f 1/91/91 12/92/92 20/93/93
f 24/94/94 14/95/95 19/96/96
f 3/97/97 22/98/98 11/99/99
f 20/100/100 21/101/101 18/102/102
f 18/103/103 21/104/104 19/105/105
f 14/106/106 6/107/107 23/108/108
f 14/109/109 23/110/110 19/111/111
f 21/112/112 12/113/113 4/114/114
f 22/115/115 3/116/116 16/117/117
f 23/118/118 17/119/119 18/120/120
f 22/121/121 16/122/122 17/123/123
f 4/124/124 24/125/125 19/126/126
f 17/127/127 20/128/128 18/129/129
f 6/130/130 11/131/131 23/132/132
