# File exported by Houdini 16.5.405 (www.sidefx.com)
# 7 points
# 30 vertices
# 10 primitives
# Bounds: [-6.25628328, 1.87998748, -6.01291656] to [6.13072348, 12.2842741, 4.55642509]
g 
v -5.37096786 1.87998748 -3.19646788
v 6.13072348 7.02778912 -3.42913914
v 0.514690042 12.2842741 3.38667083
v -6.25628328 7.51903248 4.25342941
v -2.49006438 9.25647163 -6.01291656
v 4.65742588 2.99758577 4.55642509
v 3.26262832 2.34833312 -3.96245623
vt 0.148813039 0.898967087 0
vt 0.0750172734 0.992420137 0
vt 0.0142673207 0.828328907 0
vt 0.684978008 0.806012213 0
vt 0.631436229 0.95516485 0
vt 0.556134582 0.859392047 0
vt 0.842633069 0.909239888 0
vt 0.797016382 0.767307162 0
vt 0.889268577 0.855163574 0
vt 0.889268577 0.855163574 0
vt 0.968978524 0.744202077 0
vt 0.992214859 0.90900749 0
vt 0.788034022 0.92053175 0
vt 0.631436229 0.95516485 0
vt 0.684978008 0.806012213 0
vt 0.889268577 0.855163574 0
vt 0.797016382 0.767307162 0
vt 0.968978524 0.744202077 0
vt 0.338676482 0.807171822 0
vt 0.300818652 0.672299027 0
vt 0.442562342 0.734015048 0
vt 0.338676482 0.807171822 0
vt 0.515080273 0.841413558 0
vt 0.366413087 0.947274029 0
vt 0.842633069 0.909239888 0
vt 0.889268577 0.855163574 0
vt 0.992214859 0.90900749 0
vt 0.442562342 0.734015048 0
vt 0.515080273 0.841413558 0
vt 0.338676482 0.807171822 0
vn 0.314976722 0.997428536 0.368845135
vn -0.856780648 -0.0682602525 0.710197806
vn 0.545340419 -0.682029784 0.735406578
vn -0.856780648 -0.0682602525 0.710197806
vn -0.284947187 0.535627842 -0.982580602
vn -0.772371531 -0.667694867 -0.194371983
vn 0.609783649 -0.605159163 -0.754841208
vn -0.284947187 0.535627842 -0.982580602
vn 0.832822919 0.296044379 -0.577506006
vn 0.832822919 0.296044379 -0.577506006
vn 0.314976722 0.997428536 0.368845135
vn 0.545340419 -0.682029784 0.735406578
vn 0.314976722 0.997428536 0.368845135
vn -0.284947187 0.535627842 -0.982580602
vn -0.856780648 -0.0682602525 0.710197806
vn 0.832822919 0.296044379 -0.577506006
vn -0.284947187 0.535627842 -0.982580602
vn 0.314976722 0.997428536 0.368845135
vn -0.772371531 -0.667694867 -0.194371983
vn -0.284947187 0.535627842 -0.982580602
vn 0.609783649 -0.605159163 -0.754841208
vn -0.772371531 -0.667694867 -0.194371983
vn 0.545340419 -0.682029784 0.735406578
vn -0.856780648 -0.0682602525 0.710197806
vn 0.609783649 -0.605159163 -0.754841208
vn 0.832822919 0.296044379 -0.577506006
vn 0.545340419 -0.682029784 0.735406578
vn 0.609783649 -0.605159163 -0.754841208
vn 0.545340419 -0.682029784 0.735406578
vn -0.772371531 -0.667694867 -0.194371983
g Scatter_Smooth_03_LOD0
f 3/1/1 4/2/2 6/3/3
f 4/4/4 5/5/5 1/6/6
f 7/7/7 5/8/8 2/9/9
f 2/10/10 3/11/11 6/12/12
f 3/13/13 5/14/14 4/15/15
f 2/16/16 5/17/17 3/18/18
f 1/19/19 5/20/20 7/21/21
f 1/22/22 6/23/23 4/24/24
f 7/25/25 2/26/26 6/27/27
f 7/28/28 6/29/29 1/30/30
