# File exported by Houdini 16.5.405 (www.sidefx.com)
# 82 points
# 438 vertices
# 146 primitives
# Bounds: [-486.791748, -5.46482468, -343.197327] to [481.863586, 781.770386, 1.56067634]
g 
v 142.523331 337.734161 -238.27742
v -108.349533 512.762146 -21.7278538
v -91.7253647 508.775726 -0.749941409
v -463 347.820892 -3.45403838
v 474.674408 28.6020203 -0.592345774
v -106.904564 715.842407 -3.29870987
v -99.3115158 591.687134 -1.70191324
v 367.322662 223.337753 -341
v -194.715302 503.222931 -211.224655
v -182.873154 374.472961 -293.972748
v 427.9711 555.620056 -168.618225
v -395.802063 586.953125 -119.263527
v -386.058411 255.49231 -121.496384
v -172.243652 386.120697 -227.901688
v 258.549377 22.5782261 1.56067634
v 369.958984 36.7848969 -265.413086
v -99.3728561 626.818909 -87.3106995
v -23.2113209 341.211151 -316.983582
v -414.773926 775.371643 -1.09144783
v 222.377502 215.408875 -343.197327
v -413.825439 415.335175 -109.947426
v 280.477142 768.843262 -143.82077
v 27.2132378 1.63468528 -322.206146
v 260.321259 583.922363 -144.316971
v -378.002075 403.769623 -299.052429
v 109.337158 505.111664 -148.801987
v -164.110764 514.347595 -122.257507
v 303.849548 677.846436 -0.81656456
v -98.7796173 342.593689 -228.339355
v -469.756531 48.349659 -0.365591913
v 36.3106422 581.133667 -132.864685
v 448.753571 19.309391 -157.102158
v 439.80011 60.1854362 -253.073303
v -103.161064 46.4746246 -233.436417
v -25.1667156 781.770386 -0.815539241
v -215.967819 397.82196 -125.330124
v -421.734253 778.513123 -30.1787529
v 367.788147 1.03532779 -339.285858
v 40.8360214 510.306458 -227.49234
v 365.598602 6.34861326 -124.728249
v -99.8161163 509.364594 -99.0554886
v 202.896866 13.9041042 -116.785347
v -168.574417 34.5791664 -296.998749
v 433.678284 662.466919 -149.788849
v 204.543701 322.306854 -316.291565
v -169.342209 35.7781181 -157.33165
v 281.715271 758.213623 -0.311374754
v 173.173019 585.512329 -234.310181
v 200.399567 25.4490356 -313.726074
v -199.94043 591.279846 -97.4245529
v -84.4748917 18.9435673 -2.17940044
v 258.381195 287.670288 -248.068512
v -472.945984 52.9108505 -95.7980423
v 246.453262 227.300674 -313.022522
v 257.066956 29.5963707 -118.530182
v -486.791748 419.967194 -27.7898884
v -62.3306503 4.26560211 -259.758026
v -234.670288 40.3295937 -55.0290146
v -153.375107 550.035461 -32.1065941
v -432.548553 443.672699 -8.83720493
v 414.6427 452.265381 -239.046951
v -388.073761 195.398865 -110.365623
v -384.246948 40.7862778 -101.165291
v 481.863586 670.574402 -1.04382133
v -8.09749699 774.209106 -108.688232
v 158.210449 587.680603 -142.120987
v -301.776367 36.3539391 -0.720381916
v -201.482376 396.764313 -223.839294
v 291.365753 675.564819 -155.566925
v -180.149796 731.851379 -30.6562366
v -385.354187 41.4954109 -284.056396
v 122.338852 463.261993 -216.209015
v -414.068726 582.591064 -33.8195686
v -161.133636 92.4243164 -224.525421
v -377.685944 399.382782 -118.061897
v -183.574265 30.5582542 -1.76551354
v 209.92392 -5.46482468 -337.621124
v 480.781433 83.2054901 -154.040924
v -97.0574493 578.47644 -93.2114716
v -99.6303482 709.22699 -83.5078812
v -384.67926 220.01767 -281.335754
v 367.70166 231.867859 -255.157562
vt 0.493427068 0.722854733 0
vt 0.4976843 0.659495711 0
vt 0.504798353 0.733018756 0
vt 0.319428116 0.0752721578 0
vt 0.244437397 0.10902521 0
vt 0.31652686 -0.00254865922 0
vt 0.360730976 0.579604387 0
vt 0.280128986 0.562715411 0
vt 0.374477059 0.444409639 0
vt 0.430824071 0.562257588 0
vt 0.55355233 0.456716537 0
vt 0.595315576 0.499642581 0
vt 0.795663953 0.552896619 0
vt 0.733813107 0.446362942 0
vt 0.76594907 0.445011318 0
vt 0.795663953 0.552896619 0
vt 0.635813415 0.515089393 0
vt 0.733813107 0.446362942 0
vt 0.430824071 0.562257588 0
vt 0.569930255 0.58096832 0
vt 0.4976843 0.659495711 0
vt 0.5860219 0.0437307432 0
vt 0.545248985 0.201269686 0
vt 0.31652686 -0.00254865922 0
vt 0.31652686 -0.00254865922 0
vt 0.191566765 0.154245898 0
vt 0.0794150233 0.0987117141 0
vt -0.00679359771 0.565835714 0
vt 0.102953665 0.566532969 0
vt 0.171210155 0.622447312 0
vt -0.00679359771 0.565835714 0
vt 0.171210155 0.622447312 0
vt 0.0785266981 0.680903256 0
vt 0.595315576 0.499642581 0
vt 0.55355233 0.456716537 0
vt 0.63248837 0.246117994 0
vt 0.0785266981 0.680903256 0
vt 0.171210155 0.622447312 0
vt 0.171732977 0.677204967 0
vt 0.121838488 0.498090267 0
vt 0.148938701 0.183613271 0
vt 0.191566765 0.154245898 0
vt 0.31652686 -0.00254865922 0
vt 0.244437397 0.10902521 0
vt 0.191566765 0.154245898 0
vt 0.279824436 0.308409423 0
vt 0.23950465 0.32262069 0
vt 0.258649975 0.198789969 0
vt 0.631116927 0.163119137 0
vt 0.587743282 0.216129273 0
vt 0.652583778 0.0552908108 0
vt 0.78121233 0.740291119 0
vt 0.922859013 0.693246424 0
vt 0.743470788 0.769169271 0
vt 0.488326788 0.212908998 0
vt 0.362537473 0.0810846835 0
vt 0.31652686 -0.00254865922 0
vt 0.36142078 0.390957624 0
vt 0.389369071 0.208665654 0
vt 0.488326788 0.212908998 0
vt 0.430824071 0.562257588 0
vt 0.4976843 0.659495711 0
vt 0.360730976 0.579604387 0
vt 0.386574388 0.527916968 0
vt 0.430824071 0.562257588 0
vt 0.360730976 0.579604387 0
vt 0.258649975 0.198789969 0
vt 0.191566765 0.154245898 0
vt 0.244437397 0.10902521 0
vt 0.76594907 0.445011318 0
vt 0.741172552 0.326011956 0
vt 0.757432878 0.284344286 0
vt 0.4976843 0.659495711 0
vt 0.463601798 0.693247437 0
vt 0.360730976 0.579604387 0
vt 0.463601798 0.693247437 0
vt 0.4976843 0.659495711 0
vt 0.469098806 0.748411119 0
vt 0.362537473 0.0810846835 0
vt 0.371735126 0.20018436 0
vt 0.244437397 0.10902521 0
vt 0.526138604 0.816591203 0
vt 0.656610906 0.917187393 0
vt 0.52392906 0.927856863 0
vt 0.374477059 0.444409639 0
vt 0.280128986 0.562715411 0
vt 0.30550462 0.386239856 0
vt 0.389369071 0.208665654 0
vt 0.362537473 0.0810846835 0
vt 0.488326788 0.212908998 0
vt 0.430824071 0.562257588 0
vt 0.386574388 0.527916968 0
vt 0.55355233 0.456716537 0
vt 0.23950465 0.32262069 0
vt 0.30550462 0.386239856 0
vt 0.178219348 0.440337479 0
vt 0.831067145 0.217476889 0
vt 0.76594907 0.445011318 0
vt 0.757432878 0.284344286 0
vt 0.23950465 0.32262069 0
vt 0.279824436 0.308409423 0
vt 0.344105422 0.335004061 0
vt 0.840543628 0.470688105 0
vt 0.795663953 0.552896619 0
vt 0.76594907 0.445011318 0
vt 0.844060123 0.395704329 0
vt 0.844943404 0.436707646 0
vt 0.76594907 0.445011318 0
vt 0.587743282 0.216129273 0
vt 0.488326788 0.212908998 0
vt 0.545248985 0.201269686 0
vt 0.757432878 0.284344286 0
vt 0.797827661 0.182766855 0
vt 0.831067145 0.217476889 0
vt 0.76594907 0.445011318 0
vt 0.844943404 0.436707646 0
vt 0.840543628 0.470688105 0
vt 0.258649975 0.198789969 0
vt 0.244437397 0.10902521 0
vt 0.291129708 0.211975053 0
vt 0.280128986 0.562715411 0
vt 0.178219348 0.440337479 0
vt 0.30550462 0.386239856 0
vt 0.757432878 0.284344286 0
vt 0.64455539 0.256166577 0
vt 0.686435759 0.146602064 0
vt 0.656610906 0.917187393 0
vt 0.526138604 0.816591203 0
vt 0.65487206 0.782651901 0
vt 0.587743282 0.216129273 0
vt 0.55355233 0.456716537 0
vt 0.495119303 0.413045496 0
vt 0.616108119 0.656299174 0
vt 0.652155221 0.608420014 0
vt 0.687330008 0.672983825 0
vt 0.616108119 0.656299174 0
vt 0.687330008 0.672983825 0
vt 0.649133742 0.697474778 0
vt 0.831067145 0.217476889 0
vt 0.854474783 0.114066638 0
vt 0.888601005 0.217704013 0
vt 0.617508113 0.533090353 0
vt 0.569930255 0.58096832 0
vt 0.595315576 0.499642581 0
vt 0.78121233 0.740291119 0
vt 0.917352974 0.674929023 0
vt 0.922859013 0.693246424 0
vt 0.917352974 0.674929023 0
vt 0.78121233 0.740291119 0
vt 0.842667937 0.570428669 0
vt 0.148938701 0.183613271 0
vt 0.0794150233 0.0987117141 0
vt 0.191566765 0.154245898 0
vt 0.922859013 0.693246424 0
vt 0.917352974 0.674929023 0
vt 0.840543628 0.470688105 0
vt 0.279824436 0.308409423 0
vt 0.258649975 0.198789969 0
vt 0.291129708 0.211975053 0
vt 0.358457386 0.31847021 0
vt 0.279824436 0.308409423 0
vt 0.291129708 0.211975053 0
vt 0.853109539 0.957397878 0
vt 0.870595694 0.992687762 0
vt 0.656610906 0.917187393 0
vt 0.244437397 0.10902521 0
vt 0.371735126 0.20018436 0
vt 0.291129708 0.211975053 0
vt 0.708579779 0.626447737 0
vt 0.795663953 0.552896619 0
vt 0.842667937 0.570428669 0
vt 0.258649975 0.198789969 0
vt 0.221602753 0.205633268 0
vt 0.191566765 0.154245898 0
vt 0.358457386 0.31847021 0
vt 0.291129708 0.211975053 0
vt 0.371735126 0.20018436 0
vt 0.396668673 0.825145662 0
vt 0.381847471 0.774989128 0
vt 0.418944597 0.739550054 0
vt 0.463601798 0.693247437 0
vt 0.469098806 0.748411119 0
vt 0.378990322 0.646526992 0
vt 0.378990322 0.646526992 0
vt 0.318022758 0.765855014 0
vt 0.171732977 0.677204967 0
vt 0.378990322 0.646526992 0
vt 0.292520374 0.607775927 0
vt 0.360730976 0.579604387 0
vt 0.650529623 0.96579963 0
vt 0.52392906 0.927856863 0
vt 0.656610906 0.917187393 0
vt 0.463601798 0.693247437 0
vt 0.378990322 0.646526992 0
vt 0.360730976 0.579604387 0
vt 0.52392906 0.927856863 0
vt 0.584932208 0.986365438 0
vt 0.490041614 0.963277698 0
vt 0.36142078 0.390957624 0
vt 0.495119303 0.413045496 0
vt 0.55355233 0.456716537 0
vt 0.362537473 0.0810846835 0
vt 0.319428116 0.0752721578 0
vt 0.31652686 -0.00254865922 0
vt 0.36142078 0.390957624 0
vt 0.344105422 0.335004061 0
vt 0.389369071 0.208665654 0
vt 0.925388157 0.946142256 0
vt 0.884080708 0.838407874 0
vt 0.961288631 0.8024261 0
vt -0.00679359771 0.565835714 0
vt 0.0794150233 0.0987117141 0
vt 0.148938701 0.183613271 0
vt 0.178219348 0.440337479 0
vt 0.121838488 0.498090267 0
vt 0.221602753 0.205633268 0
vt 0.418944597 0.739550054 0
vt 0.381847471 0.774989128 0
vt 0.378990322 0.646526992 0
vt 0.279824436 0.308409423 0
vt 0.358457386 0.31847021 0
vt 0.344105422 0.335004061 0
vt 0.30550462 0.386239856 0
vt 0.23950465 0.32262069 0
vt 0.344105422 0.335004061 0
vt 0.870595694 0.992687762 0
vt 0.650529623 0.96579963 0
vt 0.656610906 0.917187393 0
vt 0.652155221 0.608420014 0
vt 0.795663953 0.552896619 0
vt 0.708579779 0.626447737 0
vt 0.88921994 0.720517874 0
vt 0.884080708 0.838407874 0
vt 0.786589205 0.789670765 0
vt 0.78121233 0.740291119 0
vt 0.743470788 0.769169271 0
vt 0.687330008 0.672983825 0
vt 0.36142078 0.390957624 0
vt 0.30550462 0.386239856 0
vt 0.344105422 0.335004061 0
vt 0.52392906 0.927856863 0
vt 0.490041614 0.963277698 0
vt 0.468970507 0.900488198 0
vt 0.840543628 0.470688105 0
vt 0.917352974 0.674929023 0
vt 0.842667937 0.570428669 0
vt 0.78121233 0.740291119 0
vt 0.687330008 0.672983825 0
vt 0.842667937 0.570428669 0
vt 0.708579779 0.626447737 0
vt 0.842667937 0.570428669 0
vt 0.687330008 0.672983825 0
vt 0.292520374 0.607775927 0
vt 0.280128986 0.562715411 0
vt 0.360730976 0.579604387 0
vt 0.569930255 0.58096832 0
vt 0.430824071 0.562257588 0
vt 0.595315576 0.499642581 0
vt 0.389369071 0.208665654 0
vt 0.371735126 0.20018436 0
vt 0.362537473 0.0810846835 0
vt 0.757432878 0.284344286 0
vt 0.686435759 0.146602064 0
vt 0.797827661 0.182766855 0
vt 0.840543628 0.470688105 0
vt 0.842667937 0.570428669 0
vt 0.795663953 0.552896619 0
vt 0.76594907 0.445011318 0
vt 0.733813107 0.446362942 0
vt 0.741172552 0.326011956 0
vt 0.381847471 0.774989128 0
vt 0.396668673 0.825145662 0
vt 0.318022758 0.765855014 0
vt 0.171732977 0.677204967 0
vt 0.318022758 0.765855014 0
vt 0.314479798 0.83695209 0
vt 0.4976843 0.659495711 0
vt 0.569930255 0.58096832 0
vt 0.555276752 0.639368773 0
vt 0.292520374 0.607775927 0
vt 0.171732977 0.677204967 0
vt 0.218274653 0.58478719 0
vt 0.358457386 0.31847021 0
vt 0.371735126 0.20018436 0
vt 0.389369071 0.208665654 0
vt 0.495119303 0.413045496 0
vt 0.36142078 0.390957624 0
vt 0.488326788 0.212908998 0
vt 0.63248837 0.246117994 0
vt 0.55355233 0.456716537 0
vt 0.587743282 0.216129273 0
vt 0.381847471 0.774989128 0
vt 0.318022758 0.765855014 0
vt 0.378990322 0.646526992 0
vt 0.171732977 0.677204967 0
vt 0.116600141 0.744933009 0
vt 0.0785266981 0.680903256 0
vt 0.23950465 0.32262069 0
vt 0.178219348 0.440337479 0
vt 0.221602753 0.205633268 0
vt 0.121838488 0.498090267 0
vt 0.191566765 0.154245898 0
vt 0.221602753 0.205633268 0
vt 0.171732977 0.677204967 0
vt 0.292520374 0.607775927 0
vt 0.378990322 0.646526992 0
vt 0.121838488 0.498090267 0
vt 0.218274653 0.58478719 0
vt 0.171210155 0.622447312 0
vt 0.171210155 0.622447312 0
vt 0.102953665 0.566532969 0
vt 0.121838488 0.498090267 0
vt 0.992652118 0.911747932 0
vt 0.925388157 0.946142256 0
vt 0.961288631 0.8024261 0
vt 0.884080708 0.838407874 0
vt 0.656610906 0.917187393 0
vt 0.65487206 0.782651901 0
vt 0.831067145 0.217476889 0
vt 0.817342937 0.0743972957 0
vt 0.854474783 0.114066638 0
vt 0.652155221 0.608420014 0
vt 0.708579779 0.626447737 0
vt 0.687330008 0.672983825 0
vt 0.76594907 0.445011318 0
vt 0.831067145 0.217476889 0
vt 0.844060123 0.395704329 0
vt 0.587743282 0.216129273 0
vt 0.495119303 0.413045496 0
vt 0.488326788 0.212908998 0
vt 0.795663953 0.552896619 0
vt 0.652155221 0.608420014 0
vt 0.635813415 0.515089393 0
vt 0.488326788 0.212908998 0
vt 0.31652686 -0.00254865922 0
vt 0.545248985 0.201269686 0
vt 0.418944597 0.739550054 0
vt 0.378990322 0.646526992 0
vt 0.469098806 0.748411119 0
vt 0.396668673 0.825145662 0
vt 0.418944597 0.739550054 0
vt 0.469098806 0.748411119 0
vt 0.30550462 0.386239856 0
vt 0.36142078 0.390957624 0
vt 0.374477059 0.444409639 0
vt 0.587743282 0.216129273 0
vt 0.5860219 0.0437307432 0
vt 0.652583778 0.0552908108 0
vt 0.587743282 0.216129273 0
vt 0.545248985 0.201269686 0
vt 0.5860219 0.0437307432 0
vt 0.319428116 0.0752721578 0
vt 0.362537473 0.0810846835 0
vt 0.244437397 0.10902521 0
vt 0.844060123 0.395704329 0
vt 0.831067145 0.217476889 0
vt 0.888601005 0.217704013 0
vt 0.374477059 0.444409639 0
vt 0.36142078 0.390957624 0
vt 0.55355233 0.456716537 0
vt 0.925388157 0.946142256 0
vt 0.853109539 0.957397878 0
vt 0.884080708 0.838407874 0
vt 0.870595694 0.992687762 0
vt 0.853109539 0.957397878 0
vt 0.925388157 0.946142256 0
vt 0.389369071 0.208665654 0
vt 0.344105422 0.335004061 0
vt 0.358457386 0.31847021 0
vt 0.121838488 0.498090267 0
vt 0.102953665 0.566532969 0
vt 0.148938701 0.183613271 0
vt 0.786589205 0.789670765 0
vt 0.884080708 0.838407874 0
vt 0.65487206 0.782651901 0
vt 0.884080708 0.838407874 0
vt 0.853109539 0.957397878 0
vt 0.656610906 0.917187393 0
vt 0.961288631 0.8024261 0
vt 0.884080708 0.838407874 0
vt 0.88921994 0.720517874 0
vt 0.148938701 0.183613271 0
vt 0.102953665 0.566532969 0
vt -0.00679359771 0.565835714 0
vt 0.741172552 0.326011956 0
vt 0.64455539 0.256166577 0
vt 0.757432878 0.284344286 0
vt 0.121838488 0.498090267 0
vt 0.178219348 0.440337479 0
vt 0.280128986 0.562715411 0
vt 0.116600141 0.744933009 0
vt 0.171732977 0.677204967 0
vt 0.314479798 0.83695209 0
vt 0.650529623 0.96579963 0
vt 0.584932208 0.986365438 0
vt 0.52392906 0.927856863 0
vt 0.797827661 0.182766855 0
vt 0.817342937 0.0743972957 0
vt 0.831067145 0.217476889 0
vt 0.218274653 0.58478719 0
vt 0.121838488 0.498090267 0
vt 0.280128986 0.562715411 0
vt 0.396668673 0.825145662 0
vt 0.469098806 0.748411119 0
vt 0.504798353 0.733018756 0
vt 0.218274653 0.58478719 0
vt 0.171732977 0.677204967 0
vt 0.171210155 0.622447312 0
vt 0.23950465 0.32262069 0
vt 0.221602753 0.205633268 0
vt 0.258649975 0.198789969 0
vt 0.569930255 0.58096832 0
vt 0.649743795 0.601767242 0
vt 0.555276752 0.639368773 0
vt 0.386574388 0.527916968 0
vt 0.374477059 0.444409639 0
vt 0.55355233 0.456716537 0
vt 0.469098806 0.748411119 0
vt 0.4976843 0.659495711 0
vt 0.493427068 0.722854733 0
vt 0.569930255 0.58096832 0
vt 0.617508113 0.533090353 0
vt 0.649743795 0.601767242 0
vt 0.396668673 0.825145662 0
vt 0.314479798 0.83695209 0
vt 0.318022758 0.765855014 0
vt 0.687330008 0.672983825 0
vt 0.743470788 0.769169271 0
vt 0.649133742 0.697474778 0
vt 0.218274653 0.58478719 0
vt 0.280128986 0.562715411 0
vt 0.292520374 0.607775927 0
vt 0.374477059 0.444409639 0
vt 0.386574388 0.527916968 0
vt 0.360730976 0.579604387 0
vt 0.631116927 0.163119137 0
vt 0.63248837 0.246117994 0
vt 0.587743282 0.216129273 0
vn -0.936051846 0.119104475 0.106288314
vn -0.24775736 0.759605706 -0.177192733
vn 0.479933411 0.49301067 -0.519269407
vn -0.380091846 -0.701406956 0.384616375
vn 0.257256508 -0.775769889 0.136103734
vn 0.161442816 -0.92274034 0.126871467
vn 0.219948858 0.494602472 -0.569062591
vn -0.392808586 0.370848119 -0.571474552
vn -0.141887113 0.17099613 -0.750750363
vn 0.0977587253 0.404880911 -0.713138402
vn -0.210840344 0.20730634 -0.774032414
vn 0.18004325 0.0343594961 -0.882577062
vn -0.194482535 0.27393347 -0.647732258
vn -0.227184236 0.616468847 -0.278282106
vn -0.691944897 0.0858519375 -0.516008735
vn -0.194482535 0.27393347 -0.647732258
vn -0.241024718 0.472052515 -0.419286281
vn -0.227184236 0.616468847 -0.278282106
vn 0.0977587253 0.404880911 -0.713138402
vn -0.587423801 0.619601905 -0.34561196
vn -0.24775736 0.759605706 -0.177192733
vn -0.355870187 -0.86475271 0.148065716
vn -0.246200889 -0.849049211 -0.162877083
vn 0.161442816 -0.92274034 0.126871467
vn 0.161442816 -0.92274034 0.126871467
vn 0.251752555 -0.668000102 -0.37162897
vn 0.962285519 -0.118440278 0.202509463
vn 0.803096592 0.289381325 -0.0514587164
vn 0.648549378 0.365139812 -0.515506208
vn 0.0933386236 0.571759939 -0.554374158
vn 0.803096592 0.289381325 -0.0514587164
vn 0.0933386236 0.571759939 -0.554374158
vn 0.869712293 0.300923765 -0.0225931238
vn 0.18004325 0.0343594961 -0.882577062
vn -0.210840344 0.20730634 -0.774032414
vn 0.47833547 0.0654025003 -0.18833074
vn 0.869712293 0.300923765 -0.0225931238
vn 0.0933386236 0.571759939 -0.554374158
vn 0.183260277 0.519403398 -0.574764431
vn 0.819044471 0.148923472 -0.247433856
vn 0.858911037 -0.00384978368 -0.449438661
vn 0.251752555 -0.668000102 -0.37162897
vn 0.161442816 -0.92274034 0.126871467
vn 0.257256508 -0.775769889 0.136103734
vn 0.251752555 -0.668000102 -0.37162897
vn 0.4702802 0.223410934 -0.639435768
vn 0.25546059 0.373838097 -0.522442937
vn 0.809376419 -0.225921527 -0.365699619
vn -0.453146219 -0.78510201 -0.19714883
vn -0.628137469 -0.252073556 -0.533386886
vn 0.0021926125 -1.01735044 0.00807396788
vn 0.181526646 0.239829138 -0.897587299
vn 0.000766281679 0.868570924 0.0703329816
vn -0.337219119 0.387849241 -0.0889874548
vn -0.107671 -0.642096102 -0.435238421
vn -0.161468863 -0.749731004 0.128608018
vn 0.161442816 -0.92274034 0.126871467
vn 0.171257198 0.318937123 -0.798027277
vn -0.0725838244 -0.238005951 -0.726817608
vn -0.107671 -0.642096102 -0.435238421
vn 0.0977587253 0.404880911 -0.713138402
vn -0.24775736 0.759605706 -0.177192733
vn 0.219948858 0.494602472 -0.569062591
vn 0.551312387 0.312207162 -0.719559014
vn 0.0977587253 0.404880911 -0.713138402
vn 0.219948858 0.494602472 -0.569062591
vn 0.809376419 -0.225921527 -0.365699619
vn 0.251752555 -0.668000102 -0.37162897
vn 0.257256508 -0.775769889 0.136103734
vn -0.691944897 0.0858519375 -0.516008735
vn -0.953795075 -0.0704134405 -0.0579368286
vn -0.697534919 -0.191899493 -0.51235944
vn -0.24775736 0.759605706 -0.177192733
vn -0.399792463 0.407803148 -0.602068186
vn 0.219948858 0.494602472 -0.569062591
vn -0.399792463 0.407803148 -0.602068186
vn -0.24775736 0.759605706 -0.177192733
vn -0.830232322 -0.0517401621 -0.0691460595
vn -0.161468863 -0.749731004 0.128608018
vn -0.272888124 -0.751163483 -0.218723789
vn 0.257256508 -0.775769889 0.136103734
vn -0.297189891 -0.663903415 -0.091555506
vn 0.363563776 -0.453962892 -0.355549037
vn 0.0174844638 -0.897032142 -0.112745695
vn -0.141887113 0.17099613 -0.750750363
vn -0.392808586 0.370848119 -0.571474552
vn 0.141132131 0.145530075 -0.864772618
vn -0.0725838244 -0.238005951 -0.726817608
vn -0.161468863 -0.749731004 0.128608018
vn -0.107671 -0.642096102 -0.435238421
vn 0.0977587253 0.404880911 -0.713138402
vn 0.551312387 0.312207162 -0.719559014
vn -0.210840344 0.20730634 -0.774032414
vn 0.25546059 0.373838097 -0.522442937
vn 0.141132131 0.145530075 -0.864772618
vn 0.298523843 0.205512643 -0.87330085
vn -0.567338169 -0.220547631 -0.577029824
vn -0.691944897 0.0858519375 -0.516008735
vn -0.697534919 -0.191899493 -0.51235944
vn 0.25546059 0.373838097 -0.522442937
vn 0.4702802 0.223410934 -0.639435768
vn 0.0456176847 0.202965572 -0.714191973
vn -0.877048075 0.194508806 -0.355007291
vn -0.194482535 0.27393347 -0.647732258
vn -0.691944897 0.0858519375 -0.516008735
vn -0.997585773 0.062520273 -0.0972005278
vn -0.997053206 0.385677397 0.125328988
vn -0.691944897 0.0858519375 -0.516008735
vn -0.628137469 -0.252073556 -0.533386886
vn -0.107671 -0.642096102 -0.435238421
vn -0.246200889 -0.849049211 -0.162877083
vn -0.697534919 -0.191899493 -0.51235944
vn -0.297189891 -0.663903415 -0.091555506
vn -0.567338169 -0.220547631 -0.577029824
vn -0.691944897 0.0858519375 -0.516008735
vn -0.997053206 0.385677397 0.125328988
vn -0.877048075 0.194508806 -0.355007291
vn 0.809376419 -0.225921527 -0.365699619
vn 0.257256508 -0.775769889 0.136103734
vn 0.409249187 -0.577205181 -0.389548391
vn -0.392808586 0.370848119 -0.571474552
vn 0.298523843 0.205512643 -0.87330085
vn 0.141132131 0.145530075 -0.864772618
vn -0.697534919 -0.191899493 -0.51235944
vn -1.00226271 -0.00546429446 0.000595038582
vn -0.751942635 -0.315402985 -0.142258853
vn 0.363563776 -0.453962892 -0.355549037
vn -0.297189891 -0.663903415 -0.091555506
vn -0.751942635 -0.315402985 -0.142258853
vn -0.628137469 -0.252073556 -0.533386886
vn -0.210840344 0.20730634 -0.774032414
vn -0.313537568 0.407785326 -0.716906607
vn -0.24775736 0.759605706 -0.177192733
vn 0.05753728 0.424848795 -0.528864145
vn 0.347629398 0.267358661 -0.628136098
vn -0.24775736 0.759605706 -0.177192733
vn 0.347629398 0.267358661 -0.628136098
vn 0.479933411 0.49301067 -0.519269407
vn -0.567338169 -0.220547631 -0.577029824
vn 0.019151818 -1.0033915 -0.00134405622
vn -0.861067891 -0.268997967 0.240680605
vn -0.143039957 0.833495975 -0.0812958479
vn -0.587423801 0.619601905 -0.34561196
vn 0.18004325 0.0343594961 -0.882577062
vn 0.181526646 0.239829138 -0.897587299
vn -0.129695281 0.391840458 -0.791234493
vn 0.000766281679 0.868570924 0.0703329816
vn -0.129695281 0.391840458 -0.791234493
vn 0.181526646 0.239829138 -0.897587299
vn -0.103597306 0.176957771 -0.902315617
vn 0.858911037 -0.00384978368 -0.449438661
vn 0.962285519 -0.118440278 0.202509463
vn 0.251752555 -0.668000102 -0.37162897
vn 0.000766281679 0.868570924 0.0703329816
vn -0.129695281 0.391840458 -0.791234493
vn -0.877048075 0.194508806 -0.355007291
vn 0.4702802 0.223410934 -0.639435768
vn 0.809376419 -0.225921527 -0.365699619
vn 0.409249187 -0.577205181 -0.389548391
vn -0.180919215 0.141602844 -0.890664876
vn 0.4702802 0.223410934 -0.639435768
vn 0.409249187 -0.577205181 -0.389548391
vn 0.203560546 0.0596926808 -0.924012661
vn 0.18004325 0.0343594961 -0.882577062
vn 0.363563776 -0.453962892 -0.355549037
vn 0.257256508 -0.775769889 0.136103734
vn -0.272888124 -0.751163483 -0.218723789
vn 0.409249187 -0.577205181 -0.389548391
vn 0.132291973 0.962412238 -0.302325398
vn -0.194482535 0.27393347 -0.647732258
vn -0.103597306 0.176957771 -0.902315617
vn 0.809376419 -0.225921527 -0.365699619
vn 0.78505677 -0.11756523 -0.521575689
vn 0.251752555 -0.668000102 -0.37162897
vn -0.180919215 0.141602844 -0.890664876
vn 0.409249187 -0.577205181 -0.389548391
vn -0.272888124 -0.751163483 -0.218723789
vn -0.337219119 0.387849241 -0.0889874548
vn -0.72040391 0.280288577 -0.593561113
vn -0.658106327 -0.243640423 -0.531279981
vn -0.399792463 0.407803148 -0.602068186
vn -0.830232322 -0.0517401621 -0.0691460595
vn -0.230805412 0.171623915 -0.94669044
vn -0.230805412 0.171623915 -0.94669044
vn -0.199923173 0.480782211 -0.626268506
vn 0.183260277 0.519403398 -0.574764431
vn -0.230805412 0.171623915 -0.94669044
vn -0.175675213 0.30453527 -0.692221403
vn 0.219948858 0.494602472 -0.569062591
vn 0.47833547 0.0654025003 -0.18833074
vn 0.0174844638 -0.897032142 -0.112745695
vn 0.363563776 -0.453962892 -0.355549037
vn -0.399792463 0.407803148 -0.602068186
vn -0.230805412 0.171623915 -0.94669044
vn 0.219948858 0.494602472 -0.569062591
vn 0.0174844638 -0.897032142 -0.112745695
vn -0.453146219 -0.78510201 -0.19714883
vn 0.0021926125 -1.01735044 0.00807396788
vn 0.171257198 0.318937123 -0.798027277
vn -0.313537568 0.407785326 -0.716906607
vn -0.210840344 0.20730634 -0.774032414
vn -0.161468863 -0.749731004 0.128608018
vn -0.380091846 -0.701406956 0.384616375
vn 0.161442816 -0.92274034 0.126871467
vn 0.171257198 0.318937123 -0.798027277
vn 0.0456176847 0.202965572 -0.714191973
vn -0.0725838244 -0.238005951 -0.726817608
vn -0.143039957 0.833495975 -0.0812958479
vn -0.213105187 0.312353134 -0.751255274
vn -0.227184236 0.616468847 -0.278282106
vn 0.803096592 0.289381325 -0.0514587164
vn 0.962285519 -0.118440278 0.202509463
vn 0.858911037 -0.00384978368 -0.449438661
vn 0.298523843 0.205512643 -0.87330085
vn 0.819044471 0.148923472 -0.247433856
vn 0.78505677 -0.11756523 -0.521575689
vn -0.658106327 -0.243640423 -0.531279981
vn -0.72040391 0.280288577 -0.593561113
vn -0.230805412 0.171623915 -0.94669044
vn 0.4702802 0.223410934 -0.639435768
vn -0.180919215 0.141602844 -0.890664876
vn 0.0456176847 0.202965572 -0.714191973
vn 0.141132131 0.145530075 -0.864772618
vn 0.25546059 0.373838097 -0.522442937
vn 0.0456176847 0.202965572 -0.714191973
vn 0.18004325 0.0343594961 -0.882577062
vn 0.47833547 0.0654025003 -0.18833074
vn 0.363563776 -0.453962892 -0.355549037
vn 0.05753728 0.424848795 -0.528864145
vn -0.194482535 0.27393347 -0.647732258
vn 0.132291973 0.962412238 -0.302325398
vn -0.953795075 -0.0704134405 -0.0579368286
vn -0.213105187 0.312353134 -0.751255274
vn -1.00226271 -0.00546429446 0.000595038582
vn 0.181526646 0.239829138 -0.897587299
vn -0.337219119 0.387849241 -0.0889874548
vn 0.347629398 0.267358661 -0.628136098
vn 0.171257198 0.318937123 -0.798027277
vn 0.141132131 0.145530075 -0.864772618
vn 0.0456176847 0.202965572 -0.714191973
vn 0.0174844638 -0.897032142 -0.112745695
vn 0.0021926125 -1.01735044 0.00807396788
vn 0.019151818 -1.0033915 -0.00134405622
vn -0.877048075 0.194508806 -0.355007291
vn -0.129695281 0.391840458 -0.791234493
vn -0.103597306 0.176957771 -0.902315617
vn 0.181526646 0.239829138 -0.897587299
vn 0.347629398 0.267358661 -0.628136098
vn -0.103597306 0.176957771 -0.902315617
vn 0.132291973 0.962412238 -0.302325398
vn -0.103597306 0.176957771 -0.902315617
vn 0.347629398 0.267358661 -0.628136098
vn -0.175675213 0.30453527 -0.692221403
vn -0.392808586 0.370848119 -0.571474552
vn 0.219948858 0.494602472 -0.569062591
vn -0.587423801 0.619601905 -0.34561196
vn 0.0977587253 0.404880911 -0.713138402
vn 0.18004325 0.0343594961 -0.882577062
vn -0.0725838244 -0.238005951 -0.726817608
vn -0.272888124 -0.751163483 -0.218723789
vn -0.161468863 -0.749731004 0.128608018
vn -0.697534919 -0.191899493 -0.51235944
vn -0.751942635 -0.315402985 -0.142258853
vn -0.297189891 -0.663903415 -0.091555506
vn -0.877048075 0.194508806 -0.355007291
vn -0.103597306 0.176957771 -0.902315617
vn -0.194482535 0.27393347 -0.647732258
vn -0.691944897 0.0858519375 -0.516008735
vn -0.227184236 0.616468847 -0.278282106
vn -0.953795075 -0.0704134405 -0.0579368286
vn -0.72040391 0.280288577 -0.593561113
vn -0.337219119 0.387849241 -0.0889874548
vn -0.199923173 0.480782211 -0.626268506
vn 0.183260277 0.519403398 -0.574764431
vn -0.199923173 0.480782211 -0.626268506
vn -0.0325510725 0.975039065 -0.118311033
vn -0.24775736 0.759605706 -0.177192733
vn -0.587423801 0.619601905 -0.34561196
vn 0.05753728 0.424848795 -0.528864145
vn -0.175675213 0.30453527 -0.692221403
vn 0.183260277 0.519403398 -0.574764431
vn -0.206942245 0.413044125 -0.625688791
vn -0.180919215 0.141602844 -0.890664876
vn -0.272888124 -0.751163483 -0.218723789
vn -0.0725838244 -0.238005951 -0.726817608
vn -0.313537568 0.407785326 -0.716906607
vn 0.171257198 0.318937123 -0.798027277
vn -0.107671 -0.642096102 -0.435238421
vn 0.47833547 0.0654025003 -0.18833074
vn -0.210840344 0.20730634 -0.774032414
vn -0.628137469 -0.252073556 -0.533386886
vn -0.72040391 0.280288577 -0.593561113
vn -0.199923173 0.480782211 -0.626268506
vn -0.230805412 0.171623915 -0.94669044
vn 0.183260277 0.519403398 -0.574764431
vn 0.110858545 0.954451501 0.2413809
vn 0.869712293 0.300923765 -0.0225931238
vn 0.25546059 0.373838097 -0.522442937
vn 0.298523843 0.205512643 -0.87330085
vn 0.78505677 -0.11756523 -0.521575689
vn 0.819044471 0.148923472 -0.247433856
vn 0.251752555 -0.668000102 -0.37162897
vn 0.78505677 -0.11756523 -0.521575689
vn 0.183260277 0.519403398 -0.574764431
vn -0.175675213 0.30453527 -0.692221403
vn -0.230805412 0.171623915 -0.94669044
vn 0.819044471 0.148923472 -0.247433856
vn -0.206942245 0.413044125 -0.625688791
vn 0.0933386236 0.571759939 -0.554374158
vn 0.0933386236 0.571759939 -0.554374158
vn 0.648549378 0.365139812 -0.515506208
vn 0.819044471 0.148923472 -0.247433856
vn -0.241024718 0.472052515 -0.419286281
vn -0.143039957 0.833495975 -0.0812958479
vn -0.227184236 0.616468847 -0.278282106
vn -0.213105187 0.312353134 -0.751255274
vn 0.363563776 -0.453962892 -0.355549037
vn -0.751942635 -0.315402985 -0.142258853
vn -0.567338169 -0.220547631 -0.577029824
vn 0.0174844638 -0.897032142 -0.112745695
vn 0.019151818 -1.0033915 -0.00134405622
vn 0.05753728 0.424848795 -0.528864145
vn 0.132291973 0.962412238 -0.302325398
vn 0.347629398 0.267358661 -0.628136098
vn -0.691944897 0.0858519375 -0.516008735
vn -0.567338169 -0.220547631 -0.577029824
vn -0.997585773 0.062520273 -0.0972005278
vn -0.628137469 -0.252073556 -0.533386886
vn -0.313537568 0.407785326 -0.716906607
vn -0.107671 -0.642096102 -0.435238421
vn -0.194482535 0.27393347 -0.647732258
vn 0.05753728 0.424848795 -0.528864145
vn -0.241024718 0.472052515 -0.419286281
vn -0.107671 -0.642096102 -0.435238421
vn 0.161442816 -0.92274034 0.126871467
vn -0.246200889 -0.849049211 -0.162877083
vn -0.658106327 -0.243640423 -0.531279981
vn -0.230805412 0.171623915 -0.94669044
vn -0.830232322 -0.0517401621 -0.0691460595
vn -0.337219119 0.387849241 -0.0889874548
vn -0.658106327 -0.243640423 -0.531279981
vn -0.830232322 -0.0517401621 -0.0691460595
vn 0.141132131 0.145530075 -0.864772618
vn 0.171257198 0.318937123 -0.798027277
vn -0.141887113 0.17099613 -0.750750363
vn -0.628137469 -0.252073556 -0.533386886
vn -0.355870187 -0.86475271 0.148065716
vn 0.0021926125 -1.01735044 0.00807396788
vn -0.628137469 -0.252073556 -0.533386886
vn -0.246200889 -0.849049211 -0.162877083
vn -0.355870187 -0.86475271 0.148065716
vn -0.380091846 -0.701406956 0.384616375
vn -0.161468863 -0.749731004 0.128608018
vn 0.257256508 -0.775769889 0.136103734
vn -0.997585773 0.062520273 -0.0972005278
vn -0.567338169 -0.220547631 -0.577029824
vn -0.861067891 -0.268997967 0.240680605
vn -0.141887113 0.17099613 -0.750750363
vn 0.171257198 0.318937123 -0.798027277
vn -0.210840344 0.20730634 -0.774032414
vn -0.143039957 0.833495975 -0.0812958479
vn 0.203560546 0.0596926808 -0.924012661
vn -0.213105187 0.312353134 -0.751255274
vn 0.18004325 0.0343594961 -0.882577062
vn 0.203560546 0.0596926808 -0.924012661
vn -0.143039957 0.833495975 -0.0812958479
vn -0.0725838244 -0.238005951 -0.726817608
vn 0.0456176847 0.202965572 -0.714191973
vn -0.180919215 0.141602844 -0.890664876
vn 0.819044471 0.148923472 -0.247433856
vn 0.648549378 0.365139812 -0.515506208
vn 0.858911037 -0.00384978368 -0.449438661
vn -1.00226271 -0.00546429446 0.000595038582
vn -0.213105187 0.312353134 -0.751255274
vn -0.751942635 -0.315402985 -0.142258853
vn -0.213105187 0.312353134 -0.751255274
vn 0.203560546 0.0596926808 -0.924012661
vn 0.363563776 -0.453962892 -0.355549037
vn -0.227184236 0.616468847 -0.278282106
vn -0.213105187 0.312353134 -0.751255274
vn -0.953795075 -0.0704134405 -0.0579368286
vn 0.858911037 -0.00384978368 -0.449438661
vn 0.648549378 0.365139812 -0.515506208
vn 0.803096592 0.289381325 -0.0514587164
vn -0.953795075 -0.0704134405 -0.0579368286
vn -1.00226271 -0.00546429446 0.000595038582
vn -0.697534919 -0.191899493 -0.51235944
vn 0.819044471 0.148923472 -0.247433856
vn 0.298523843 0.205512643 -0.87330085
vn -0.392808586 0.370848119 -0.571474552
vn 0.110858545 0.954451501 0.2413809
vn 0.183260277 0.519403398 -0.574764431
vn -0.0325510725 0.975039065 -0.118311033
vn 0.47833547 0.0654025003 -0.18833074
vn -0.453146219 -0.78510201 -0.19714883
vn 0.0174844638 -0.897032142 -0.112745695
vn -0.297189891 -0.663903415 -0.091555506
vn 0.0174844638 -0.897032142 -0.112745695
vn -0.567338169 -0.220547631 -0.577029824
vn -0.206942245 0.413044125 -0.625688791
vn 0.819044471 0.148923472 -0.247433856
vn -0.392808586 0.370848119 -0.571474552
vn -0.337219119 0.387849241 -0.0889874548
vn -0.830232322 -0.0517401621 -0.0691460595
vn 0.479933411 0.49301067 -0.519269407
vn -0.206942245 0.413044125 -0.625688791
vn 0.183260277 0.519403398 -0.574764431
vn 0.0933386236 0.571759939 -0.554374158
vn 0.25546059 0.373838097 -0.522442937
vn 0.78505677 -0.11756523 -0.521575689
vn 0.809376419 -0.225921527 -0.365699619
vn -0.587423801 0.619601905 -0.34561196
vn -0.241024718 0.472052515 -0.419286281
vn 0.05753728 0.424848795 -0.528864145
vn 0.551312387 0.312207162 -0.719559014
vn -0.141887113 0.17099613 -0.750750363
vn -0.210840344 0.20730634 -0.774032414
vn -0.830232322 -0.0517401621 -0.0691460595
vn -0.24775736 0.759605706 -0.177192733
vn -0.936051846 0.119104475 0.106288314
vn -0.587423801 0.619601905 -0.34561196
vn -0.143039957 0.833495975 -0.0812958479
vn -0.241024718 0.472052515 -0.419286281
vn -0.337219119 0.387849241 -0.0889874548
vn -0.0325510725 0.975039065 -0.118311033
vn -0.199923173 0.480782211 -0.626268506
vn 0.347629398 0.267358661 -0.628136098
vn -0.337219119 0.387849241 -0.0889874548
vn 0.479933411 0.49301067 -0.519269407
vn -0.206942245 0.413044125 -0.625688791
vn -0.392808586 0.370848119 -0.571474552
vn -0.175675213 0.30453527 -0.692221403
vn -0.141887113 0.17099613 -0.750750363
vn 0.551312387 0.312207162 -0.719559014
vn 0.219948858 0.494602472 -0.569062591
vn -0.453146219 -0.78510201 -0.19714883
vn 0.47833547 0.0654025003 -0.18833074
vn -0.628137469 -0.252073556 -0.533386886
g Group34606
f 3/1/1 41/2/2 2/3/3
f 55/4/4 40/5/5 15/6/6
f 26/7/7 48/8/8 1/9/9
f 39/10/10 29/11/11 14/12/12
f 12/13/13 75/14/14 21/15/15
f 12/16/16 36/17/17 75/18/18
f 39/19/19 9/20/20 41/21/21
f 51/22/22 57/23/23 15/24/24
f 15/25/25 32/26/26 5/27/27
f 64/28/28 44/29/29 69/30/30
f 64/31/31 69/32/32 28/33/33
f 14/34/34 29/35/35 74/36/36
f 28/37/37 69/38/38 22/39/39
f 11/40/40 78/41/41 32/42/42
f 15/43/43 40/44/44 32/45/45
f 8/46/46 82/47/47 16/48/48
f 46/49/49 34/50/50 76/51/51
f 70/52/52 19/53/53 6/54/54
f 23/55/55 42/56/56 15/57/57
f 45/58/58 49/59/59 23/60/60
f 39/61/61 41/62/62 26/63/63
f 72/64/64 39/65/65 26/66/66
f 16/67/67 32/68/68 40/69/69
f 21/70/70 13/71/71 62/72/72
f 41/73/73 79/74/74 26/75/75
f 79/76/76 41/77/77 7/78/78
f 42/79/79 77/80/80 40/81/81
f 63/82/82 43/83/83 58/84/84
f 1/85/85 48/86/86 52/87/87
f 49/88/88 42/89/89 23/90/90
f 39/91/91 72/92/92 29/93/93
f 82/94/94 52/95/95 61/96/96
f 53/97/97 21/98/98 62/99/99
f 82/100/100 8/101/101 54/102/102
f 60/103/103 12/104/104 21/105/105
f 4/106/106 56/107/107 21/108/108
f 34/109/109 23/110/110 57/111/111
f 62/112/112 63/113/113 53/114/114
f 21/115/115 56/116/116 60/117/117
f 16/118/118 40/119/119 38/120/120
f 48/121/121 61/122/122 52/123/123
f 62/124/124 81/125/125 71/126/126
f 43/127/127 63/128/128 71/129/129
f 34/130/130 29/131/131 18/132/132
f 41/133/133 27/134/134 59/135/135
f 41/136/136 59/137/137 2/138/138
f 53/139/139 67/140/140 30/141/141
f 68/142/142 9/143/143 14/144/144
f 70/145/145 37/146/146 19/147/147
f 37/148/148 70/149/149 73/150/150
f 78/151/151 5/152/152 32/153/153
f 19/154/154 37/155/155 60/156/156
f 8/157/157 16/158/158 38/159/159
f 20/160/160 8/161/161 38/162/162
f 10/163/163 14/164/164 43/165/165
f 40/166/166 77/167/167 38/168/168
f 50/169/169 12/170/170 73/171/171
f 16/172/172 33/173/173 32/174/174
f 20/175/175 38/176/176 77/177/177
f 6/178/178 80/179/179 17/180/180
f 79/181/181 7/182/182 31/183/183
f 31/184/184 65/185/185 22/186/186
f 31/187/187 66/188/188 26/189/189
f 74/190/190 58/191/191 43/192/192
f 79/193/193 31/194/194 26/195/195
f 58/196/196 46/197/197 76/198/198
f 45/199/199 18/200/200 29/201/201
f 42/202/202 55/203/203 15/204/204
f 45/205/205 54/206/206 49/207/207
f 68/208/208 25/209/209 75/210/210
f 64/211/211 5/212/212 78/213/213
f 61/214/214 11/215/215 33/216/216
f 17/217/217 80/218/218 31/219/219
f 8/220/220 20/221/221 54/222/222
f 52/223/223 82/224/224 54/225/225
f 14/226/226 74/227/227 43/228/228
f 27/229/229 12/230/230 50/231/231
f 13/232/232 25/233/233 81/234/234
f 70/235/235 6/236/236 59/237/237
f 45/238/238 52/239/239 54/240/240
f 58/241/241 76/242/242 67/243/243
f 60/244/244 37/245/245 73/246/246
f 70/247/247 59/248/248 73/249/249
f 50/250/250 73/251/251 59/252/252
f 66/253/253 48/254/254 26/255/255
f 9/256/256 39/257/257 14/258/258
f 49/259/259 77/260/260 42/261/261
f 62/262/262 71/263/263 63/264/264
f 60/265/265 73/266/266 12/267/267
f 21/268/268 75/269/269 13/270/270
f 80/271/271 6/272/272 65/273/273
f 22/274/274 65/275/275 35/276/276
f 41/277/277 9/278/278 27/279/279
f 66/280/280 22/281/281 24/282/282
f 20/283/283 77/284/284 49/285/285
f 18/286/286 45/287/287 23/288/288
f 74/289/289 29/290/290 34/291/291
f 80/292/292 65/293/293 31/294/294
f 22/295/295 47/296/296 28/297/297
f 82/298/298 61/299/299 33/300/300
f 11/301/301 32/302/302 33/303/303
f 22/304/304 66/305/305 31/306/306
f 11/307/307 24/308/308 69/309/309
f 69/310/310 44/311/311 11/312/312
f 36/313/313 68/314/314 75/315/315
f 25/316/316 43/317/317 71/318/318
f 53/319/319 58/320/320 67/321/321
f 27/322/322 50/323/323 59/324/324
f 21/325/325 53/326/326 4/327/327
f 34/328/328 18/329/329 23/330/330
f 12/331/331 27/332/332 36/333/333
f 23/334/334 15/335/335 57/336/336
f 17/337/337 31/338/338 7/339/339
f 6/340/340 17/341/341 7/342/342
f 52/343/343 45/344/344 1/345/345
f 34/346/346 51/347/347 76/348/348
f 34/349/349 57/350/350 51/351/351
f 55/352/352 42/353/353 40/354/354
f 4/355/355 53/356/356 30/357/357
f 1/358/358 45/359/359 29/360/360
f 68/361/361 10/362/362 25/363/363
f 14/364/364 10/365/365 68/366/366
f 49/367/367 54/368/368 20/369/369
f 11/370/370 44/371/371 78/372/372
f 81/373/373 25/374/374 71/375/375
f 25/376/376 10/377/377 43/378/378
f 75/379/379 25/380/380 13/381/381
f 78/382/382 44/383/383 64/384/384
f 13/385/385 81/386/386 62/387/387
f 11/388/388 61/389/389 48/390/390
f 47/391/391 22/392/392 35/393/393
f 74/394/394 46/395/395 58/396/396
f 63/397/397 58/398/398 53/399/399
f 24/400/400 11/401/401 48/402/402
f 6/403/403 7/404/404 2/405/405
f 24/406/406 22/407/407 69/408/408
f 82/409/409 33/410/410 16/411/411
f 9/412/412 36/413/413 27/414/414
f 72/415/415 1/416/416 29/417/417
f 7/418/418 41/419/419 3/420/420
f 9/421/421 68/422/422 36/423/423
f 6/424/424 35/425/425 65/426/426
f 59/427/427 6/428/428 2/429/429
f 24/430/430 48/431/431 66/432/432
f 1/433/433 72/434/434 26/435/435
f 46/436/436 74/437/437 34/438/438
